<?xml version="1.0" encoding="utf-8" standalone="no"?>
<!DOCTYPE svg PUBLIC "-//W3C//DTD SVG 1.1//EN"
  "http://www.w3.org/Graphics/SVG/1.1/DTD/svg11.dtd">
<svg xmlns:xlink="http://www.w3.org/1999/xlink" width="334.8pt" height="303.965458pt" viewBox="0 0 334.8 303.965458" xmlns="http://www.w3.org/2000/svg" version="1.1">
 <metadata>
  <rdf:RDF xmlns:dc="http://purl.org/dc/elements/1.1/" xmlns:cc="http://creativecommons.org/ns#" xmlns:rdf="http://www.w3.org/1999/02/22-rdf-syntax-ns#">
   <cc:Work>
    <dc:type rdf:resource="http://purl.org/dc/dcmitype/StillImage"/>
    <dc:date>2023-12-09T18:06:16.810465</dc:date>
    <dc:format>image/svg+xml</dc:format>
    <dc:creator>
     <cc:Agent>
      <dc:title>Matplotlib v3.8.2, https://matplotlib.org/</dc:title>
     </cc:Agent>
    </dc:creator>
   </cc:Work>
  </rdf:RDF>
 </metadata>
 <defs>
  <style type="text/css">*{stroke-linejoin: round; stroke-linecap: butt}</style>
 </defs>
 <g id="figure_1">
  <g id="patch_1">
   <path d="M 0 303.965458 
L 334.8 303.965458 
L 334.8 0 
L 0 0 
L 0 303.965458 
z
" style="fill: none"/>
  </g>
  <g id="axes_1">
   <g id="patch_2">
    <path d="M 262.76125 137.807233 
L 262.988961 134.35675 
L 263.102142 130.892304 
L 263.100322 127.41785 
L 262.98316 123.93735 
L 262.750448 120.45477 
L 262.402116 116.974069 
L 261.938222 113.499204 
L 261.358958 110.03412 
L 260.664648 106.582747 
L 259.855747 103.148997 
L 258.932838 99.736759 
L 257.896634 96.349896 
L 256.747977 92.992241 
L 255.487834 89.667593 
L 254.117296 86.37971 
L 252.637579 83.13231 
L 251.050022 79.929067 
L 249.356081 76.773601 
L 247.557334 73.669482 
L 245.687531 70.596899 
L 243.838614 67.484559 
L 241.880081 64.426362 
L 239.813769 61.426179 
L 237.641645 58.487811 
L 235.365804 55.614984 
L 232.988463 52.811345 
L 230.511961 50.08046 
L 227.938755 47.42581 
L 225.271418 44.850784 
L 222.512634 42.358682 
L 219.665197 39.952704 
L 216.732005 37.635954 
L 213.716058 35.41143 
L 210.620456 33.282028 
L 207.448392 31.250533 
L 204.203151 29.319618 
L 200.888104 27.491843 
L 197.506706 25.769653 
L 194.062493 24.155369 
L 190.559073 22.651195 
L 187.000128 21.259209 
L 183.389405 19.981363 
L 179.730715 18.819481 
L 176.027928 17.77526 
L 172.284967 16.850262 
L 168.505805 16.045917 
L 164.694461 15.363522 
L 160.854995 14.804238 
L 156.991502 14.369088 
L 153.108112 14.058959 
L 149.208978 13.874597 
L 145.29828 13.816612 
L 141.380214 13.885471 
L 137.45899 14.081503 
L 133.538828 14.404896 
L 129.623951 14.855696 
L 125.718582 15.433811 
L 121.826941 16.139006 
L 117.953238 16.970908 
L 114.092421 17.900729 
L 110.216003 18.845866 
L 106.362053 19.920771 
L 102.535008 21.124824 
L 98.739278 22.457257 
L 94.979249 23.91715 
L 91.259271 25.503436 
L 87.58366 27.214899 
L 83.956687 29.050179 
L 80.382577 31.00777 
L 76.865502 33.086023 
L 73.40958 35.283151 
L 70.018863 37.597224 
L 66.697343 40.02618 
L 63.448937 42.567819 
L 60.277491 45.219812 
L 57.18677 47.979699 
L 54.180456 50.844896 
L 51.262146 53.812692 
L 48.435344 56.880259 
L 45.703459 60.04465 
L 43.069801 63.302804 
L 40.537579 66.651549 
L 38.109895 70.087607 
L 35.789741 73.607595 
L 33.579996 77.208031 
L 31.483424 80.885337 
L 29.50267 84.635841 
L 27.640255 88.455784 
L 25.898577 92.341325 
L 24.279905 96.28854 
L 22.786379 100.29343 
L 21.420006 104.351926 
L 20.182657 108.45989 
L 19.076068 112.613125 
L 18.101834 116.807372 
L 17.261412 121.038321 
L 16.556114 125.301614 
L 15.987109 129.592848 
L 15.555421 133.907581 
L 15.404841 138.240887 
L 15.247811 142.584749 
L 15.225409 146.939065 
L 15.338108 151.299737 
L 15.58626 155.662648 
L 15.97009 160.023669 
L 16.489703 164.37866 
L 17.145078 168.723473 
L 17.93607 173.053959 
L 18.862409 177.365972 
L 19.9237 181.655366 
L 21.119425 185.918007 
L 22.448941 190.149772 
L 23.911481 194.346554 
L 25.506154 198.504265 
L 27.231949 202.618841 
L 29.087729 206.686245 
L 31.072238 210.702468 
L 33.1841 214.663538 
L 35.421817 218.565519 
L 37.783775 222.404517 
L 40.268242 226.176681 
L 42.87337 229.87821 
L 45.597196 233.505353 
L 48.437646 237.054414 
L 51.392533 240.521757 
L 54.459561 243.903806 
L 57.636325 247.197048 
L 60.920317 250.398041 
L 64.308921 253.503412 
L 67.799424 256.509863 
L 71.389009 259.414171 
L 75.074764 262.213195 
L 78.853682 264.903876 
L 82.722662 267.483241 
L 86.678514 269.948402 
L 90.717961 272.296566 
L 94.83764 274.525031 
L 99.034106 276.631191 
L 103.303836 278.612538 
L 107.643228 280.466664 
L 112.08978 282.047175 
L 116.589938 283.491675 
L 121.139617 284.798423 
L 125.734675 285.965802 
L 130.370924 286.992318 
L 135.044131 287.876603 
L 139.750018 288.617412 
L 144.484271 289.213631 
L 149.242543 289.664272 
L 154.020456 289.968476 
L 158.813604 290.125515 
L 163.617561 290.134792 
L 168.427881 289.99584 
L 173.240105 289.708325 
L 178.049761 289.272043 
L 182.852374 288.686923 
L 187.643462 287.953028 
L 192.418547 287.070551 
L 197.173155 286.039816 
L 201.902822 284.861283 
L 206.603097 283.535538 
L 211.269546 282.063301 
L 215.897753 280.445421 
L 220.48333 278.682877 
L 225.021916 276.776773 
L 229.509183 274.728345 
L 233.940837 272.538951 
L 238.312625 270.210077 
L 242.620337 267.743331 
L 246.859809 265.140441 
L 251.026929 262.403259 
L 255.117637 259.533754 
L 259.127931 256.53401 
L 263.053869 253.406228 
L 266.891574 250.152722 
L 270.637234 246.775915 
L 274.28711 243.27834 
L 277.837532 239.662634 
L 281.284911 235.931539 
L 284.625734 232.0879 
L 287.690328 228.023056 
L 290.631859 223.860408 
L 293.447332 219.60363 
L 296.133861 215.256485 
L 298.688676 210.822819 
L 301.109122 206.306558 
L 303.392666 201.711702 
L 305.536893 197.042325 
L 307.539511 192.302569 
L 309.398356 187.496639 
L 311.111388 182.628801 
L 312.676695 177.703377 
L 314.092494 172.72474 
L 315.357137 167.697313 
L 316.469102 162.625561 
L 317.427005 157.513987 
L 318.229593 152.367132 
L 318.875749 147.189564 
L 319.36449 141.985881 
L 262.815927 137.118443 
L 263.020776 133.664852 
L 263.110991 130.198087 
L 263.086125 126.722107 
L 262.945865 123.240874 
L 262.690032 119.758352 
L 262.318578 116.278503 
L 261.83159 112.805279 
L 261.229287 109.342623 
L 260.512018 105.894462 
L 259.680264 102.464704 
L 258.734636 99.057233 
L 257.67587 95.675907 
L 256.504834 92.32455 
L 255.222521 89.006955 
L 253.830046 85.726873 
L 252.32865 82.488013 
L 250.719696 79.294036 
L 249.004664 76.148556 
L 247.185154 73.05513 
L 245.326601 69.970288 
L 243.45562 66.868463 
L 241.475379 63.821562 
L 239.387744 60.83344 
L 237.194705 57.907884 
L 234.898383 55.048606 
L 232.501018 52.259235 
L 230.004975 49.543321 
L 227.412734 46.904328 
L 224.726889 44.345626 
L 221.950148 41.870495 
L 219.085324 39.482118 
L 216.135338 37.183577 
L 213.103209 34.97785 
L 209.992057 32.867809 
L 206.805091 30.85622 
L 203.545616 28.945732 
L 200.21702 27.138883 
L 196.822775 25.438091 
L 193.366429 23.845657 
L 189.851607 22.363758 
L 186.282004 20.994448 
L 182.661381 19.739653 
L 178.993561 18.601172 
L 175.282424 17.580675 
L 171.531903 16.679697 
L 167.745982 15.899643 
L 163.928687 15.241782 
L 160.084087 14.707247 
L 156.216284 14.297035 
L 152.329411 14.012003 
L 148.42763 13.852873 
L 144.515122 13.820223 
L 140.596087 13.914496 
L 136.674738 14.135989 
L 132.755294 14.484864 
L 128.841981 14.96114 
L 124.939021 15.564694 
L 121.050631 16.295264 
L 117.181019 17.15245 
L 113.315553 18.07935 
L 109.443273 19.050483 
L 105.59435 20.151272 
L 101.773216 21.381068 
L 97.984276 22.739071 
L 94.23191 24.224332 
L 90.520462 25.835756 
L 86.854239 27.572096 
L 83.237502 29.431963 
L 79.674467 31.413823 
L 76.169295 33.515999 
L 72.726091 35.736674 
L 69.348897 38.073893 
L 66.041688 40.525566 
L 62.808369 43.089466 
L 59.652769 45.763239 
L 56.578638 48.544399 
L 53.589641 51.430336 
L 50.689355 54.418317 
L 47.881266 57.505488 
L 45.168765 60.68888 
L 42.555141 63.965409 
L 40.043582 67.331883 
L 37.637168 70.785001 
L 35.338869 74.32136 
L 33.151542 77.937459 
L 31.077926 81.6297 
L 29.120642 85.394396 
L 27.282186 89.227769 
L 25.564932 93.125961 
L 23.971122 97.085033 
L 22.502871 101.100972 
L 21.162157 105.169695 
L 19.950825 109.287051 
L 18.870584 113.44883 
L 17.923001 117.650764 
L 17.109503 121.888533 
L 16.431375 126.157767 
L 15.889756 130.454057 
L 15.485641 134.772954 
L 15.362692 139.108627 
L 15.232544 143.454906 
L 15.237128 147.810822 
L 15.376893 152.172272 
L 15.652166 156.535136 
L 16.063149 160.895282 
L 16.60992 165.248569 
L 17.292434 169.590849 
L 18.110521 173.917972 
L 19.063886 178.225792 
L 20.152109 182.510166 
L 21.374648 186.766962 
L 22.730834 190.992058 
L 24.219875 195.181352 
L 25.840858 199.330761 
L 27.592745 203.436224 
L 29.474375 207.493711 
L 31.484469 211.499221 
L 33.621625 215.448787 
L 35.884323 219.338481 
L 38.270925 223.164418 
L 40.779676 226.922758 
L 43.408704 230.609708 
L 46.156025 234.221529 
L 49.019541 237.754536 
L 51.997043 241.205104 
L 55.086213 244.56967 
L 58.284627 247.844736 
L 61.589754 251.026872 
L 64.998959 254.11272 
L 68.509506 257.098998 
L 72.118561 259.982498 
L 75.823192 262.760096 
L 79.620374 265.428748 
L 83.506986 267.9855 
L 87.479822 270.427482 
L 91.535587 272.75192 
L 95.670902 274.956129 
L 99.882305 277.037524 
L 104.166258 278.993616 
L 108.528056 280.79356 
L 112.985653 282.347014 
L 117.496044 283.764098 
L 122.055131 285.043098 
L 126.658764 286.18242 
L 131.302745 287.180595 
L 135.982831 288.03628 
L 140.694738 288.748257 
L 145.434144 289.315435 
L 150.196695 289.736853 
L 154.978008 290.011678 
L 159.773673 290.139209 
L 164.579258 290.118873 
L 169.390317 289.950231 
L 174.202385 289.632974 
L 179.010991 289.166926 
L 183.811657 288.552042 
L 188.599902 287.788411 
L 193.371249 286.876252 
L 198.121226 285.815917 
L 202.845371 284.60789 
L 207.539235 283.252785 
L 212.198387 281.751347 
L 216.818419 280.104452 
L 221.394946 278.313103 
L 225.923613 276.378432 
L 230.4001 274.301698 
L 234.820119 272.084285 
L 239.179427 269.727704 
L 243.473823 267.233587 
L 247.699152 264.603687 
L 251.851313 261.839879 
L 255.926256 258.944155 
L 259.919992 255.918624 
L 263.828592 252.765509 
L 267.64819 249.487145 
L 271.374991 246.085979 
L 275.005266 242.564563 
L 278.535365 238.925556 
L 281.961711 235.171722 
L 285.24835 231.282929 
L 288.288576 227.198234 
L 291.205132 223.016463 
L 293.995044 218.741308 
L 296.655448 214.376549 
L 299.183597 209.926048 
L 301.576862 205.393745 
L 303.832732 200.783657 
L 305.948816 196.099871 
L 307.922849 191.346541 
L 309.752691 186.527886 
L 311.436326 181.648184 
L 312.97187 176.711766 
L 314.357566 171.723016 
L 315.59179 166.686365 
L 316.67305 161.606287 
L 317.599985 156.487293 
L 318.371372 151.333929 
L 318.986119 146.150769 
L 319.443272 140.942416 
L 262.866042 136.428968 
L 263.048006 132.972426 
L 263.115237 129.503501 
L 263.067313 126.026154 
L 262.903948 122.544346 
L 262.62499 119.062042 
L 262.230418 115.583202 
L 261.720345 112.111777 
L 261.095017 108.651706 
L 260.354809 105.206914 
L 259.500227 101.781303 
L 258.531907 98.378753 
L 257.450615 95.003116 
L 256.25724 91.65821 
L 254.952801 88.347818 
L 253.538439 85.075685 
L 252.015418 81.84551 
L 250.385126 78.660946 
L 248.649067 75.525594 
L 246.808864 72.443001 
L 244.96123 69.345717 
L 243.068255 66.254565 
L 241.066382 63.219113 
L 238.957502 60.243204 
L 236.743633 57.330609 
L 234.426919 54.485024 
L 232.009626 51.710064 
L 229.494141 49.00926 
L 226.882968 46.386058 
L 224.178724 43.843811 
L 221.384138 41.38578 
L 218.502045 39.015126 
L 215.535385 36.734913 
L 212.487199 34.548097 
L 209.360624 32.457529 
L 206.15889 30.465951 
L 202.885317 28.575992 
L 199.543311 26.790164 
L 196.136359 25.110864 
L 192.668025 23.540367 
L 189.14195 22.080826 
L 185.56184 20.734268 
L 181.93147 19.502596 
L 178.254674 18.387583 
L 174.535343 17.390871 
L 170.777422 16.51397 
L 166.984903 15.758257 
L 163.161821 15.124975 
L 159.312251 14.615229 
L 155.440302 14.229989 
L 151.550114 13.970085 
L 147.645852 13.836208 
L 143.731702 13.828913 
L 139.811867 13.948609 
L 135.890561 14.195571 
L 131.972006 14.569929 
L 128.060426 15.071674 
L 124.160043 15.700657 
L 120.275072 16.456588 
L 116.409719 17.339036 
L 112.539442 18.263178 
L 108.671478 19.260287 
L 104.827759 20.386934 
L 101.012712 21.64244 
L 97.230738 23.025975 
L 93.486209 24.536562 
L 89.783463 26.173073 
L 86.126797 27.934234 
L 82.520465 29.818627 
L 78.968671 31.824689 
L 75.475567 33.950714 
L 72.045243 36.194859 
L 68.68173 38.555141 
L 65.38899 41.029441 
L 62.170911 43.615509 
L 59.031307 46.310962 
L 55.973912 49.11329 
L 53.002374 52.019858 
L 50.120251 55.027909 
L 47.331012 58.134566 
L 44.638026 61.336835 
L 42.044564 64.631613 
L 39.553791 68.015682 
L 37.168766 71.485724 
L 34.892436 75.038314 
L 32.727636 78.669933 
L 30.677081 82.376963 
L 28.743366 86.155699 
L 26.928966 90.002347 
L 25.236225 93.913032 
L 23.667362 97.883801 
L 22.224464 101.910626 
L 20.909483 105.989409 
L 19.724238 110.115989 
L 18.670407 114.286142 
L 17.749532 118.49559 
L 16.963009 122.740003 
L 16.312096 127.015003 
L 15.797904 131.316171 
L 15.421396 135.639052 
L 15.325909 139.976916 
L 15.222666 144.32545 
L 15.254254 148.682801 
L 15.421099 153.044864 
L 15.723502 157.407515 
L 16.16164 161.766621 
L 16.735567 166.118038 
L 17.445213 170.457619 
L 18.290383 174.781213 
L 19.270757 179.084675 
L 20.385891 183.363864 
L 21.635217 187.614648 
L 23.018041 191.832912 
L 24.533548 196.014555 
L 26.180799 200.155499 
L 27.95873 204.251689 
L 29.86616 208.299099 
L 31.901782 212.293736 
L 34.064172 216.23164 
L 36.351786 220.108893 
L 38.762962 223.921616 
L 41.295921 227.66598 
L 43.94877 231.338201 
L 46.719501 234.934552 
L 49.605995 238.45136 
L 52.60602 241.88501 
L 55.717236 245.231954 
L 58.937199 248.488706 
L 62.263355 251.651851 
L 65.69305 254.718045 
L 69.223529 257.684021 
L 72.851937 260.546588 
L 76.575323 263.302638 
L 80.390643 265.949144 
L 84.29476 268.483168 
L 88.284448 270.901861 
L 92.356396 273.202464 
L 96.507207 275.382314 
L 100.733406 277.438844 
L 105.031437 279.369586 
L 109.415157 281.115074 
L 113.883638 282.641397 
L 118.404098 284.030997 
L 122.972428 285.282185 
L 127.584468 286.393391 
L 132.236011 287.363172 
L 136.922805 288.190209 
L 141.640558 288.873309 
L 146.384942 289.411408 
L 151.151598 289.80357 
L 155.936134 290.048988 
L 160.734138 290.146987 
L 165.541175 290.097021 
L 170.352792 289.898676 
L 175.164526 289.551671 
L 179.971903 289.055855 
L 184.770443 288.41121 
L 189.555667 287.617852 
L 194.323097 286.676025 
L 199.068264 285.586109 
L 203.786708 284.348613 
L 208.473984 282.964178 
L 213.125664 281.433575 
L 217.737344 279.757704 
L 222.304647 277.937596 
L 226.823223 275.974407 
L 231.288757 273.869423 
L 235.696973 271.624052 
L 240.043633 269.239829 
L 244.324546 266.718411 
L 248.535568 264.061576 
L 252.672607 261.271222 
L 256.731627 258.349364 
L 260.708648 255.298135 
L 264.599754 252.11978 
L 268.401094 248.816656 
L 272.108886 245.391232 
L 275.719416 241.846082 
L 279.229048 238.183886 
L 282.634221 234.407426 
L 285.866142 230.47393 
L 288.881878 226.369529 
L 291.773339 222.168783 
L 294.537575 217.875402 
L 297.171744 213.493183 
L 299.673123 209.026004 
L 302.039106 204.47782 
L 304.267206 199.852664 
L 306.355057 195.154634 
L 308.300419 190.3879 
L 310.101177 185.556692 
L 311.75534 180.665298 
L 313.261051 175.718061 
L 314.616578 170.719375 
L 315.820325 165.67368 
L 316.870824 160.585457 
L 317.766744 155.459224 
L 318.506885 150.299533 
L 319.090186 145.110967 
L 319.515717 139.898129 
L 262.911589 135.73884 
L 263.070646 132.279505 
L 263.114875 128.808579 
L 263.043882 125.330022 
L 262.857406 121.847798 
L 262.555323 118.36587 
L 262.137638 114.888197 
L 261.60449 111.418728 
L 260.956151 107.9614 
L 260.193024 104.520133 
L 259.315639 101.098825 
L 258.32466 97.70135 
L 257.220876 94.331555 
L 256.005203 90.99325 
L 254.678683 87.690212 
L 253.242485 84.426176 
L 251.697895 81.204833 
L 250.046325 78.029824 
L 248.289304 74.904742 
L 246.428477 71.833121 
L 244.591433 68.723217 
L 242.676533 65.642894 
L 240.653104 62.619046 
L 238.523061 59.6555 
L 236.288448 56.756015 
L 233.951432 53.924268 
L 231.514306 51.163859 
L 228.97948 48.478303 
L 226.349479 45.871026 
L 223.626945 43.345365 
L 220.814627 40.904559 
L 217.915383 38.551752 
L 214.932171 36.289985 
L 211.868053 34.122194 
L 208.726185 32.051209 
L 205.509815 30.079748 
L 202.22228 28.210417 
L 198.867003 26.445707 
L 195.447487 24.78799 
L 191.967312 23.239516 
L 188.430131 21.802413 
L 184.839665 20.478684 
L 181.199701 19.270207 
L 177.514085 18.178726 
L 173.786719 17.20586 
L 170.021558 16.35309 
L 166.222602 15.621769 
L 162.393895 15.01311 
L 158.539519 14.528192 
L 154.66359 14.167957 
L 150.770254 13.933207 
L 146.863679 13.824608 
L 142.948055 13.842682 
L 139.027589 13.987814 
L 135.106495 14.260249 
L 131.188997 14.66009 
L 127.279318 15.187299 
L 123.381681 15.841699 
L 119.500298 16.622972 
L 115.639371 17.53066 
L 111.764123 18.45221 
L 107.900653 19.475273 
L 104.062315 20.627751 
L 100.253531 21.908934 
L 96.478697 23.317962 
L 92.742179 24.853829 
L 89.048306 26.515376 
L 85.401368 28.301302 
L 81.805609 30.210159 
L 78.265223 32.240354 
L 74.78435 34.390155 
L 71.367068 36.65769 
L 68.017395 39.04095 
L 64.739278 41.537788 
L 61.536591 44.145927 
L 58.413133 46.86296 
L 55.372621 49.686351 
L 52.418683 52.61344 
L 49.554864 55.641446 
L 46.784609 58.767468 
L 44.111269 61.988492 
L 41.538095 65.301388 
L 39.06823 68.702921 
L 36.704712 72.189749 
L 34.450465 75.75843 
L 32.3083 79.405423 
L 30.28091 83.127094 
L 28.370864 86.919718 
L 26.580612 90.779486 
L 24.912474 94.702507 
L 23.368641 98.684812 
L 21.951174 102.722358 
L 20.662 106.811036 
L 19.502907 110.94667 
L 18.475549 115.125026 
L 17.581437 119.341815 
L 16.82194 123.592697 
L 16.198287 127.873285 
L 15.711559 132.179154 
L 15.362692 136.505839 
L 15.294499 140.845721 
L 15.218182 145.196346 
L 15.276791 149.554968 
L 15.470728 153.917479 
L 15.800267 158.279752 
L 16.265563 162.637652 
L 16.866643 166.987034 
L 17.603414 171.323749 
L 18.475654 175.643649 
L 19.48302 179.942587 
L 20.625042 184.216425 
L 21.901126 188.461034 
L 23.310556 192.672301 
L 24.852491 196.84613 
L 26.525967 200.978446 
L 28.329896 205.065201 
L 30.263073 209.102375 
L 32.324166 213.085981 
L 34.511728 217.012067 
L 36.824191 220.876723 
L 39.25987 224.67608 
L 41.816962 228.406315 
L 44.493552 232.063659 
L 47.287609 235.644394 
L 50.19699 239.144857 
L 53.219444 242.561448 
L 56.352609 245.89063 
L 59.594018 249.128932 
L 62.941097 252.272951 
L 66.391173 255.319361 
L 69.941469 258.264908 
L 73.589112 261.106418 
L 77.331132 263.840798 
L 81.164464 266.46504 
L 85.085956 268.976223 
L 89.092364 271.371515 
L 93.180359 273.648178 
L 97.346529 275.803566 
L 101.587381 277.835133 
L 105.899345 279.74043 
L 110.304499 281.431191 
L 114.783702 282.93031 
L 119.314067 284.29236 
L 123.891473 285.515673 
L 128.511752 286.598705 
L 133.170686 287.540039 
L 137.864017 288.33838 
L 142.587443 288.99256 
L 147.336632 289.501543 
L 152.107215 289.864416 
L 156.894799 290.080401 
L 161.694965 290.148846 
L 166.503275 290.069233 
L 171.315273 289.841175 
L 176.126493 289.464415 
L 180.932461 288.938831 
L 185.728696 288.26443 
L 190.510719 287.441354 
L 195.274055 286.469875 
L 200.014234 285.350398 
L 204.726799 284.083458 
L 209.407309 282.669724 
L 214.05134 281.109991 
L 218.654495 279.405186 
L 223.212399 277.556365 
L 227.72071 275.564711 
L 232.175122 273.431532 
L 236.571364 271.158265 
L 240.905209 268.746466 
L 245.172474 266.197819 
L 249.369025 263.514124 
L 253.490781 260.697304 
L 257.533717 257.749398 
L 261.493866 254.67256 
L 265.367325 251.469059 
L 269.150256 248.141274 
L 272.83889 244.691696 
L 276.429529 241.122919 
L 279.918551 237.437644 
L 283.302413 233.638675 
L 286.479086 229.660933 
L 289.470208 225.53697 
L 292.336457 221.317398 
L 295.074902 217.005943 
L 297.682728 212.606419 
L 300.157233 208.12272 
L 302.495834 203.558817 
L 304.696069 198.918755 
L 306.755598 194.206649 
L 308.672205 189.42668 
L 310.443798 184.58309 
L 312.068416 179.680178 
L 313.544224 174.722298 
L 314.869519 169.713854 
L 316.042729 164.659294 
L 317.062415 159.563106 
L 317.92727 154.429816 
L 318.636124 149.263983 
L 319.187941 144.070193 
L 319.581818 138.853055 
L 262.952563 135.04809 
L 263.088693 131.58612 
L 263.109905 128.113351 
L 263.015831 124.633744 
L 262.80624 121.151262 
L 262.481031 117.669869 
L 262.040238 114.193521 
L 261.484027 110.726166 
L 260.812694 107.271737 
L 260.026668 103.83415 
L 259.126508 100.4173 
L 258.1129 97.025054 
L 256.98666 93.661253 
L 255.748731 90.329701 
L 254.400178 87.034166 
L 252.942194 83.778375 
L 251.376092 80.566008 
L 249.703306 77.4007 
L 247.925388 74.286029 
L 246.044008 71.225519 
L 244.217223 68.102821 
L 242.28047 65.033483 
L 240.235561 62.021391 
L 238.084436 59.07036 
L 235.829165 56.18413 
L 233.471941 53.366365 
L 231.015078 50.620648 
L 228.461011 47.950477 
L 225.812289 45.35926 
L 223.071574 42.850313 
L 220.241639 40.426859 
L 217.325361 38.09202 
L 214.325721 35.848817 
L 211.245797 33.700164 
L 208.088766 31.648869 
L 204.857893 29.69763 
L 201.556533 27.849028 
L 198.188125 26.105531 
L 194.756189 24.469486 
L 191.264318 22.943119 
L 187.71618 21.528535 
L 184.11551 20.227711 
L 180.466106 19.042497 
L 176.771826 17.974614 
L 173.036583 17.025653 
L 169.264341 16.197069 
L 165.45911 15.490188 
L 161.624942 14.906195 
L 157.765925 14.446143 
L 153.886183 14.110945 
L 149.989864 13.901377 
L 146.081144 13.818074 
L 142.164215 13.861534 
L 138.243285 14.032112 
L 134.322573 14.330024 
L 130.406301 14.755346 
L 126.498693 15.308012 
L 122.603969 15.987817 
L 118.726342 16.794413 
L 114.870009 17.727317 
L 110.989631 18.64644 
L 107.130833 19.695436 
L 103.298053 20.873716 
L 99.495708 22.180542 
L 95.728189 23.615024 
L 91.999855 25.176123 
L 88.315027 26.862656 
L 84.677987 28.673288 
L 81.092969 30.606544 
L 77.564156 32.660804 
L 74.095676 34.834306 
L 70.691597 37.125151 
L 67.355922 39.531302 
L 64.092583 42.050587 
L 60.905441 44.680701 
L 57.798278 47.419213 
L 54.774792 50.26356 
L 51.838598 53.211059 
L 48.993219 56.258904 
L 46.242082 59.404172 
L 43.588519 62.643823 
L 41.035758 65.974709 
L 38.586924 69.393572 
L 36.245029 72.897049 
L 34.012978 76.481679 
L 31.893556 80.143901 
L 29.889433 83.880063 
L 28.003154 87.686424 
L 26.237143 91.559156 
L 24.593695 95.494354 
L 23.074975 99.488032 
L 21.683017 103.536136 
L 20.41972 107.634541 
L 19.286846 111.77906 
L 18.286021 115.965447 
L 17.418727 120.189404 
L 16.686306 124.446579 
L 16.089955 128.732579 
L 15.630729 133.042969 
L 15.404841 137.373579 
L 15.268464 141.715009 
L 15.219095 146.067562 
L 15.304742 150.427291 
L 15.525781 154.790085 
L 15.882463 159.151815 
L 16.374917 163.508343 
L 17.003148 167.855523 
L 17.767034 172.189207 
L 18.666331 176.505246 
L 19.700669 180.799495 
L 20.869555 185.067817 
L 22.17237 189.306086 
L 23.608372 193.510193 
L 25.176696 197.676044 
L 26.876353 201.799571 
L 28.706233 205.876731 
L 30.665102 209.903509 
L 32.751609 213.875926 
L 34.964281 217.790037 
L 37.301526 221.641941 
L 39.761635 225.427778 
L 42.342784 229.143735 
L 45.043033 232.786053 
L 47.86033 236.351024 
L 50.792509 239.834999 
L 53.837298 243.234389 
L 56.992312 246.545671 
L 60.255064 249.765386 
L 63.62296 252.890147 
L 67.093305 255.916642 
L 70.663304 258.841633 
L 74.330062 261.661961 
L 78.090593 264.374552 
L 81.941813 266.976413 
L 85.88055 269.464641 
L 89.903544 271.836424 
L 94.00745 274.08904 
L 98.188838 276.219865 
L 102.4442 278.22637 
L 106.769952 280.106128 
L 111.196051 281.741896 
L 115.685813 283.213741 
L 120.225917 284.548173 
L 124.812233 285.743549 
L 129.440582 286.798351 
L 134.106738 287.711186 
L 138.806432 288.480784 
L 143.535359 289.106004 
L 148.289177 289.585833 
L 153.063513 289.919387 
L 157.853968 290.105911 
L 162.656118 290.144782 
L 167.465522 290.035507 
L 172.277722 289.777725 
L 177.08825 289.371206 
L 181.89263 288.815853 
L 186.686381 288.111702 
L 191.465025 287.258919 
L 196.224086 286.257804 
L 200.959098 285.108787 
L 205.665607 283.812431 
L 210.339174 282.369429 
L 214.975382 280.780604 
L 219.569835 279.046907 
L 224.118167 277.169421 
L 228.616042 275.149353 
L 233.05916 272.988038 
L 237.443259 270.686935 
L 241.764121 268.247629 
L 246.017572 265.671824 
L 250.199489 262.961346 
L 254.305802 260.118142 
L 258.332495 257.144274 
L 262.275617 254.041918 
L 266.131276 250.813367 
L 269.895646 247.461021 
L 273.564974 243.987391 
L 277.135577 240.395095 
L 280.603849 236.686854 
L 283.966259 232.865491 
L 287.087156 228.843965 
L 290.053543 224.700586 
L 292.894462 220.462336 
L 295.607005 216.13296 
L 298.188379 211.716287 
L 300.635906 207.216227 
L 302.947027 202.636766 
L 305.119304 197.981965 
L 307.150422 193.25595 
L 309.038189 188.462915 
L 310.78054 183.607114 
L 312.375539 178.692859 
L 313.821376 173.724513 
L 315.116376 168.706488 
L 316.258992 163.643242 
L 317.247811 158.53927 
L 318.081556 153.399107 
L 318.759081 148.227314 
L 319.279378 143.028485 
L 262.76125 137.807233 
z
" clip-path="url(#pab99eb0086)" style="fill: #ff0000; opacity: 0.5; stroke: #000000; stroke-width: 1.5; stroke-linejoin: miter"/>
   </g>
  </g>
 </g>
 <defs>
  <clipPath id="pab99eb0086">
   <rect x="0" y="0" width="334.8" height="303.965458"/>
  </clipPath>
 </defs>
</svg>
