<?xml version="1.0" encoding="utf-8" standalone="no"?>
<!DOCTYPE svg PUBLIC "-//W3C//DTD SVG 1.1//EN"
  "http://www.w3.org/Graphics/SVG/1.1/DTD/svg11.dtd">
<svg xmlns:xlink="http://www.w3.org/1999/xlink" width="326.897323pt" height="332.64pt" viewBox="0 0 326.897323 332.64" xmlns="http://www.w3.org/2000/svg" version="1.1">
 <metadata>
  <rdf:RDF xmlns:dc="http://purl.org/dc/elements/1.1/" xmlns:cc="http://creativecommons.org/ns#" xmlns:rdf="http://www.w3.org/1999/02/22-rdf-syntax-ns#">
   <cc:Work>
    <dc:type rdf:resource="http://purl.org/dc/dcmitype/StillImage"/>
    <dc:date>2023-12-09T18:06:16.938712</dc:date>
    <dc:format>image/svg+xml</dc:format>
    <dc:creator>
     <cc:Agent>
      <dc:title>Matplotlib v3.8.2, https://matplotlib.org/</dc:title>
     </cc:Agent>
    </dc:creator>
   </cc:Work>
  </rdf:RDF>
 </metadata>
 <defs>
  <style type="text/css">*{stroke-linejoin: round; stroke-linecap: butt}</style>
 </defs>
 <g id="figure_1">
  <g id="patch_1">
   <path d="M 0 332.64 
L 326.897323 332.64 
L 326.897323 0 
L 0 0 
L 0 332.64 
z
" style="fill: none"/>
  </g>
  <g id="axes_1">
   <g id="patch_2">
    <path d="M 277.863219 163.656912 
L 277.806278 160.035889 
L 271.380451 156.812377 
L 271.111509 153.39857 
L 286.280198 148.029151 
L 285.727725 144.151207 
L 267.354465 143.672301 
L 266.674361 140.391577 
L 265.132669 137.328881 
L 264.254212 134.121152 
L 263.275331 130.942629 
L 262.196995 127.796456 
L 253.008886 127.861172 
L 251.838737 125.039322 
L 255.541505 119.918491 
L 254.12037 117.020937 
L 252.608831 114.169499 
L 251.008384 111.366997 
L 277.753742 90.549405 
L 275.398196 86.96797 
L 277.999364 79.775264 
L 275.304934 76.191434 
L 236.904516 102.182041 
L 234.934922 99.879244 
L 232.893897 97.639514 
L 230.783459 95.465065 
L 245.752217 75.068914 
L 242.925752 72.501331 
L 239.022262 71.232056 
L 236.078485 68.877975 
L 250.538023 42.516354 
L 246.685668 39.81439 
L 213.412012 83.567568 
L 210.868753 82.01263 
L 222.591963 54.435101 
L 219.128177 52.605929 
L 223.927748 33.155385 
L 219.79422 31.294735 
L 214.454115 32.480014 
L 210.304036 30.91757 
L 209.965384 17.560116 
L 205.348411 16.146184 
L 186.733564 69.531553 
L 183.762173 68.822384 
L 178.29245 81.292869 
L 175.695034 80.843292 
L 176.773258 50.934581 
L 173.222063 50.54778 
L 171.628944 18.212502 
L 167.051438 18.003628 
L 162.522597 51.626309 
L 159.000196 51.687239 
L 154.825335 41.695434 
L 150.994492 42.003293 
L 149.563458 61.08152 
L 146.344757 61.545239 
L 135.586299 22.87587 
L 131.17324 23.797951 
L 134.639966 55.19682 
L 131.243616 56.132675 
L 126.660875 53.451708 
L 123.2136 54.639306 
L 130.238895 82.137406 
L 127.691792 83.19832 
L 127.189276 88.587981 
L 124.846502 89.741593 
L 111.175801 70.396047 
L 108.268949 72.062152 
L 103.731132 71.176535 
L 100.852501 73.076331 
L 110.505889 92.151146 
L 108.283396 93.827559 
L 79.074553 63.037358 
L 75.9522 65.716435 
L 75.603745 71.341599 
L 72.744211 74.1257 
L 81.421175 87.696925 
L 79.073013 90.290027 
L 100.397382 112.373622 
L 98.815727 114.35787 
L 74.438463 99.870695 
L 72.476523 102.67733 
L 75.241675 108.470801 
L 73.549744 111.247928 
L 33.444788 93.042928 
L 31.288437 97.141869 
L 43.457427 107.939598 
L 41.764509 111.716355 
L 20.50246 107.812117 
L 18.816883 112.310691 
L 18.019354 117.100023 
L 16.627037 121.672079 
L 76.129509 141.696481 
L 75.481827 144.429266 
L 71.840448 146.602964 
L 71.349157 149.46818 
L 21.185187 146.213468 
L 20.706695 150.671589 
L 36.791321 156.124977 
L 36.616753 160.087506 
L 47.534851 164.019074 
L 47.603179 167.6399 
L 75.927384 169.395594 
L 76.150723 172.121038 
L 48.490206 178.464448 
L 49.012255 182.048094 
L 57.337338 184.119904 
L 58.032833 187.42258 
L 14.858969 202.151397 
L 16.142416 206.780771 
L 86.041416 188.85789 
L 86.871691 191.255705 
L 28.130466 217.485295 
L 29.889482 221.689802 
L 90.516426 197.939946 
L 91.630048 200.192566 
L 70.204158 214.946516 
L 71.862548 217.829389 
L 90.768448 209.680573 
L 92.251097 211.919464 
L 49.558694 246.512101 
L 52.219782 250.028506 
L 66.422878 243.927384 
L 68.994359 246.91482 
L 63.692478 257.35919 
L 66.687635 260.425835 
L 85.798597 246.200259 
L 88.431963 248.577357 
L 91.635711 250.26483 
L 94.39399 252.456387 
L 93.098759 260.281315 
L 96.171254 262.421917 
L 115.990908 237.936449 
L 118.349513 239.36832 
L 100.527634 277.883308 
L 104.149901 279.781627 
L 108.491133 280.144535 
L 112.180561 281.791347 
L 115.634707 284.051001 
L 119.443431 285.471272 
L 118.518707 301.694015 
L 122.88074 303.014883 
L 132.642498 282.926871 
L 136.407467 283.812935 
L 134.322557 316.15887 
L 139.131582 316.975679 
L 144.153153 316.085484 
L 148.955011 316.593233 
L 156.913582 262.984414 
L 160.039517 263.117202 
L 163.286338 288.221176 
L 167.20262 288.141113 
L 171.11445 287.937953 
L 175.017957 287.611897 
L 176.054597 265.41372 
L 179.247451 264.943472 
L 178.960739 246.690077 
L 181.563443 246.13771 
L 185.934888 252.324355 
L 188.711298 251.54992 
L 187.282712 238.042946 
L 189.609417 237.233194 
L 199.504309 255.251066 
L 202.366032 254.048532 
L 219.68901 283.163655 
L 223.418386 281.312669 
L 228.230719 281.398979 
L 231.900387 279.280295 
L 228.729264 266.499336 
L 231.930208 264.372344 
L 229.960106 255.201032 
L 232.805198 253.040926 
L 230.051969 244.182151 
L 232.550557 242.024604 
L 240.374201 245.471104 
L 242.908214 242.988367 
L 229.863381 226.032756 
L 231.791406 223.890113 
L 232.438247 220.695924 
L 234.197198 218.47496 
L 230.157792 212.087738 
L 231.64721 209.942732 
L 263.60624 226.887542 
L 265.544458 223.683526 
L 261.182687 217.059171 
L 262.813078 213.936217 
L 291.35522 223.28139 
L 293.166333 219.206669 
L 243.010712 194.9067 
L 243.953565 192.366065 
L 292.593418 205.005843 
L 293.829296 200.901226 
L 286.575709 194.667069 
L 287.489488 190.756774 
L 285.968558 186.393372 
L 286.622494 182.506258 
L 311.267071 181.495825 
L 311.754509 176.815692 
L 309.748021 171.989578 
L 309.937313 167.361907 
L 277.860941 162.932593 
L 277.781227 159.312 
L 271.335253 156.128966 
L 271.044845 152.716918 
L 286.179464 147.252203 
L 285.602611 143.37781 
L 267.226703 143.014471 
L 266.525978 139.738089 
L 264.965055 136.685151 
L 264.06644 133.48301 
L 263.067588 130.310706 
L 261.969485 127.171377 
L 252.781964 127.29388 
L 251.594091 124.479446 
L 255.264579 119.335428 
L 253.825248 116.446869 
L 252.295805 113.604995 
L 250.677764 110.812614 
L 277.291662 89.82722 
L 274.913637 86.260671 
L 277.469516 79.051748 
L 274.752598 75.484935 
L 236.516406 101.716544 
L 234.532368 99.426181 
L 232.477296 97.199332 
L 230.353224 95.0382 
L 245.193406 74.548307 
L 242.350848 71.998552 
L 238.439452 70.753853 
L 235.480928 68.418333 
L 249.77438 41.966291 
L 245.905108 39.28861 
L 212.907292 83.250194 
L 210.354304 81.711283 
L 221.903835 54.060567 
L 218.428613 52.253216 
L 223.105756 32.772871 
L 218.960608 30.938255 
L 213.628063 32.157097 
L 209.46824 30.620785 
L 209.045583 17.265725 
L 204.419808 15.880859 
L 186.141094 69.382249 
L 183.165301 68.691783 
L 177.774118 81.196422 
L 175.173926 80.76319 
L 176.064021 50.848289 
L 172.510462 50.483832 
L 170.714005 18.159212 
L 166.135275 17.979133 
L 161.817991 51.629633 
L 158.296044 51.712716 
L 154.058422 41.747366 
L 150.229591 42.079312 
L 148.918576 61.166163 
L 145.702856 61.650116 
L 134.701402 23.049177 
L 130.29423 23.998995 
L 133.958368 55.375439 
L 130.567972 56.332637 
L 125.968459 53.680545 
L 122.528722 54.889802 
L 129.726826 82.343172 
L 127.186446 83.420085 
L 126.717838 88.812801 
L 124.382365 89.981124 
L 110.590262 70.721942 
L 107.693947 72.406296 
L 103.150649 71.549237 
L 100.284024 73.4671 
L 110.05719 92.480824 
L 107.845286 94.171182 
L 78.443367 63.565297 
L 75.337926 66.263959 
L 75.024856 71.891203 
L 72.18289 74.693234 
L 80.945038 88.209617 
L 78.613231 90.817436 
L 100.076072 112.766477 
L 98.506927 114.760633 
L 74.03903 100.427064 
L 72.094781 103.245983 
L 74.896316 109.021948 
L 73.221885 111.809662 
L 33.003223 93.857259 
L 30.872694 97.969681 
L 43.109355 108.69066 
L 41.440224 112.47799 
L 20.15404 108.707555 
L 18.49679 113.216642 
L 17.729399 118.010895 
L 16.365866 122.591618 
L 75.993103 142.241387 
L 75.362621 144.978191 
L 71.734985 147.174748 
L 71.261725 150.042997 
L 21.078276 147.103853 
L 20.627833 151.564895 
L 36.74644 156.917012 
L 36.596797 160.880561 
L 47.539407 164.743382 
L 47.630506 168.363707 
L 75.965193 169.941223 
L 76.205669 172.665209 
L 48.585596 179.182462 
L 49.130174 182.762754 
L 57.468122 184.782163 
L 58.184376 188.0804 
L 15.104002 203.080464 
L 16.41654 207.701675 
L 86.201432 189.339523 
L 87.046772 191.732068 
L 28.471677 218.330589 
L 30.257103 222.52395 
L 90.733474 198.393253 
L 91.861242 200.638825 
L 70.52857 215.52724 
L 72.205059 218.399626 
L 91.059333 210.132064 
L 92.556035 212.361585 
L 50.082044 247.222049 
L 52.765196 250.721648 
L 66.929638 244.531317 
L 69.519857 247.502521 
L 64.283771 257.98003 
L 67.298155 261.027777 
L 86.319269 246.682285 
L 88.967533 249.042773 
L 92.181832 250.710064 
L 94.953839 252.884229 
L 93.707849 260.717148 
L 96.793746 262.838384 
L 116.459008 238.228746 
L 118.826572 239.645754 
L 101.247283 278.27207 
L 104.881418 280.147569 
L 109.224847 280.483166 
L 112.924559 282.106741 
L 116.392849 284.344626 
L 120.21043 285.740914 
L 119.387756 301.969153 
L 123.75801 303.26256 
L 133.393233 283.113549 
L 137.163701 283.975916 
L 135.282269 316.334324 
L 140.096337 317.12087 
L 145.112209 316.19911 
L 149.917166 316.676648 
L 157.53841 263.018835 
L 160.665118 263.13196 
L 164.069765 288.215017 
L 167.985466 288.110324 
L 171.89594 287.882565 
L 175.79732 287.531964 
L 176.694326 265.327707 
L 179.884159 264.837387 
L 179.482649 246.586156 
L 182.081827 246.017431 
L 186.492096 252.176459 
L 189.263581 251.384577 
L 187.750072 237.886856 
L 190.071638 237.062486 
L 200.079656 255.017769 
L 202.933759 253.79726 
L 220.439513 282.802855 
L 224.157173 280.92845 
L 228.969954 280.984491 
L 232.626224 278.842769 
L 229.374778 266.082007 
L 232.562281 263.934925 
L 230.534536 254.776186 
L 233.365986 252.598228 
L 230.557095 243.756945 
L 233.042064 241.583726 
L 240.88723 244.980952 
L 243.405577 242.482326 
L 230.254361 225.609095 
L 232.168872 223.454368 
L 232.795611 220.256174 
L 234.540558 218.024191 
L 230.46106 211.662501 
L 231.936957 209.50817 
L 264.001929 226.25164 
L 265.919957 223.035498 
L 261.516609 216.438707 
L 263.127326 213.30556 
L 291.72768 222.471034 
L 293.513129 218.385003 
L 243.205667 194.400965 
L 244.132522 191.85445 
L 292.85091 204.188061 
L 294.060948 200.075752 
L 286.768295 193.88734 
L 287.657463 189.971375 
L 286.10912 185.617625 
L 286.738595 181.726475 
L 311.376329 180.561062 
L 311.834322 175.877955 
L 309.797521 171.064557 
L 309.957704 166.435786 
L 277.854108 162.208302 
L 277.751624 158.588282 
L 271.285758 155.445853 
L 270.973896 152.035699 
L 286.073845 146.475904 
L 285.472636 142.605215 
L 267.094807 142.357458 
L 266.373489 139.085548 
L 264.793395 136.042487 
L 263.874659 132.846061 
L 262.855874 129.680103 
L 261.738048 126.547742 
L 252.55148 126.728027 
L 251.345929 123.921119 
L 254.983991 118.754118 
L 253.526521 115.874669 
L 251.979235 113.04247 
L 250.343663 110.260321 
L 276.825048 89.107956 
L 274.424639 85.556434 
L 276.935127 78.331578 
L 274.19583 74.781923 
L 236.125377 101.253498 
L 234.126972 98.975658 
L 232.057936 96.761779 
L 229.920313 94.614049 
L 244.631332 74.031224 
L 241.772794 71.499398 
L 237.853646 70.279324 
L 234.880492 67.962458 
L 249.007293 41.421041 
L 245.121256 38.767749 
L 212.400587 82.936001 
L 209.83797 81.413177 
L 221.213365 53.690368 
L 217.726845 51.904911 
L 222.281375 32.395534 
L 218.12477 30.587025 
L 212.799996 31.839381 
L 208.630593 30.329262 
L 208.123949 16.977125 
L 203.489555 15.62138 
L 185.547696 69.236675 
L 182.56762 68.564938 
L 177.255191 81.103238 
L 174.652325 80.686368 
L 175.354254 50.766461 
L 171.798474 50.42436 
L 169.798748 18.111679 
L 165.218977 17.960401 
L 161.113421 51.637388 
L 157.592065 51.74262 
L 153.291851 41.80412 
L 149.465184 42.160141 
L 148.27424 61.254859 
L 145.061627 61.759028 
L 133.817613 23.228045 
L 129.416502 24.205563 
L 133.277908 55.558341 
L 129.893598 56.536844 
L 125.277497 53.913733 
L 121.845433 55.1446 
L 129.21606 82.552155 
L 126.682504 83.645025 
L 126.247822 89.04058 
L 123.919744 90.22357 
L 110.006784 71.051513 
L 107.12112 72.75405 
L 102.572522 71.925582 
L 99.718016 73.861437 
L 109.610574 92.813318 
L 107.409345 94.517553 
L 77.815514 64.097195 
L 74.727107 66.815335 
L 74.449436 72.444438 
L 71.625149 75.264287 
L 80.472134 88.725294 
L 78.156775 91.347727 
L 99.757238 113.161345 
L 98.200667 115.16533 
L 73.643103 100.985934 
L 71.716622 103.817025 
L 74.554429 109.575256 
L 72.897564 112.373446 
L 32.566788 94.674351 
L 30.462166 98.800092 
L 42.766014 109.443897 
L 41.120736 113.24165 
L 19.811259 109.605168 
L 18.182401 114.124588 
L 17.445179 118.923573 
L 16.110482 123.512781 
L 75.860126 142.78714 
L 75.24687 145.527855 
L 71.633121 147.747185 
L 71.17791 150.618354 
L 20.976968 147.994893 
L 20.554591 152.45868 
L 36.706541 157.709314 
L 36.581829 161.673726 
L 47.548518 165.467648 
L 47.662385 169.087328 
L 76.006433 170.486603 
L 76.264037 173.209023 
L 48.6855 179.899862 
L 49.252585 183.476658 
L 57.60307 185.443586 
L 58.340053 188.737253 
L 15.354873 204.007972 
L 16.696449 208.620836 
L 86.364474 189.82014 
L 87.224845 192.207321 
L 28.818198 219.173719 
L 30.629963 223.355768 
L 90.953369 198.845187 
L 92.095239 201.083621 
L 70.856628 216.105912 
L 72.551149 218.967697 
L 91.353053 210.581716 
L 92.863747 212.80178 
L 50.609849 247.928691 
L 53.314958 251.411345 
L 67.440186 245.132051 
L 70.049042 248.086905 
L 64.878956 258.597139 
L 67.91245 261.625867 
L 86.842962 247.161026 
L 89.50602 249.504812 
L 92.730741 251.151853 
L 95.516368 253.308541 
L 94.319667 261.149142 
L 97.418845 263.250928 
L 116.928937 238.518093 
L 119.305366 239.920183 
L 101.969363 278.656297 
L 105.615222 280.508904 
L 109.960675 280.817176 
L 113.670526 282.41745 
L 117.152822 284.633477 
L 120.97911 286.005727 
L 120.258519 302.238819 
L 124.636821 303.504714 
L 134.145127 283.295501 
L 137.920944 284.134137 
L 136.243065 316.503739 
L 141.061985 317.259992 
L 146.071961 316.306702 
L 150.879826 316.754011 
L 158.163443 263.049326 
L 161.2908 263.142783 
L 164.853137 288.20393 
L 168.768103 288.074612 
L 172.677067 287.822263 
L 176.576165 287.447132 
L 177.333501 265.237672 
L 180.520186 264.727299 
L 180.003895 246.478954 
L 182.599445 245.893893 
L 187.048364 252.025061 
L 189.814813 251.215765 
L 188.216441 237.727829 
L 190.532776 236.888874 
L 200.653525 254.780857 
L 203.499895 253.542422 
L 221.187731 282.437342 
L 224.893529 280.539592 
L 229.706567 280.565362 
L 233.349294 278.400687 
L 230.017655 265.660627 
L 233.191591 263.49354 
L 231.106283 254.347735 
L 233.923979 252.152012 
L 231.059536 243.32857 
L 233.530788 241.139765 
L 241.397165 244.487582 
L 243.899748 241.973166 
L 230.642669 225.182983 
L 232.54359 223.016257 
L 233.150202 219.814185 
L 234.881076 217.571272 
L 230.761648 211.235365 
L 232.223966 209.071794 
L 264.393611 225.613262 
L 266.291373 222.38512 
L 261.846622 215.816155 
L 263.437601 212.67294 
L 292.095035 221.658352 
L 293.854751 217.561172 
L 243.397437 193.894014 
L 244.308258 191.34172 
L 293.103254 203.368676 
L 294.287403 199.248838 
L 286.955974 193.106415 
L 287.820494 189.184935 
L 286.244799 184.84101 
L 286.849789 180.945977 
L 311.479706 179.62563 
L 311.908236 174.939735 
L 309.841201 170.139242 
L 309.972269 165.509556 
L 277.842719 161.484069 
L 277.71747 157.864765 
L 271.231967 154.763064 
L 270.898663 151.354939 
L 285.963346 145.700284 
L 285.337805 141.833454 
L 266.95878 141.701287 
L 266.216898 138.433979 
L 264.617697 135.400916 
L 263.678875 132.210331 
L 262.640198 129.050843 
L 261.502693 125.925575 
L 252.317441 126.163635 
L 251.09426 123.364364 
L 254.699753 118.174584 
L 253.224201 115.304359 
L 251.659133 112.481947 
L 250.006095 109.71014 
L 276.35392 88.391641 
L 273.931221 84.855286 
L 276.39622 77.614784 
L 273.634652 74.082428 
L 235.731442 100.792921 
L 233.718751 98.527694 
L 231.635832 96.326872 
L 229.484743 94.192629 
L 244.066016 73.517688 
L 241.191611 71.00389 
L 237.264868 69.808489 
L 234.2772 67.510368 
L 248.236791 40.880627 
L 244.334144 38.251828 
L 211.891915 82.625001 
L 209.319771 81.118325 
L 220.52058 53.324519 
L 217.022899 51.561025 
L 221.454637 32.023389 
L 217.28674 30.241058 
L 211.969948 31.52688 
L 207.791129 30.043014 
L 207.200517 16.694328 
L 202.557689 15.367757 
L 184.953394 69.094835 
L 181.969152 68.441855 
L 176.735687 81.013319 
L 174.130251 80.612828 
L 174.643987 50.689098 
L 171.086125 50.369368 
L 168.883211 18.069902 
L 164.302578 17.947432 
L 160.408913 51.649575 
L 156.888289 51.776952 
L 152.525652 41.865694 
L 148.701299 42.245775 
L 147.630475 61.347607 
L 144.421096 61.871971 
L 132.934966 23.412469 
L 128.54009 24.417648 
L 132.598611 55.74552 
L 129.220523 56.745289 
L 124.588015 54.151262 
L 121.16376 55.40369 
L 128.70662 82.764346 
L 126.179987 83.873129 
L 125.779249 89.271312 
L 123.458657 90.46892 
L 109.425391 71.384747 
L 106.550492 73.1054 
L 101.996773 72.305557 
L 99.154499 74.259327 
L 109.166058 93.148613 
L 106.975591 94.86666 
L 77.191019 64.633032 
L 74.119769 67.370543 
L 73.877507 73.00128 
L 71.071011 75.838837 
L 80.002483 89.243935 
L 77.703663 91.880878 
L 99.440895 113.55821 
L 97.896958 115.571946 
L 73.2507 101.547283 
L 71.342063 104.390435 
L 74.21603 110.130703 
L 72.576797 112.939259 
L 32.1355 95.494172 
L 30.056869 99.633068 
L 42.427417 110.199278 
L 40.806057 114.007303 
L 19.47413 110.504918 
L 17.873729 115.034494 
L 17.166705 119.838021 
L 15.860898 124.435532 
L 75.730584 143.333719 
L 75.134578 146.078237 
L 71.534859 148.320251 
L 71.097715 151.194226 
L 20.881266 148.886552 
L 20.486972 153.352908 
L 36.671626 158.501851 
L 36.57185 162.466969 
L 47.562184 166.191842 
L 47.698814 169.810734 
L 76.051103 171.031714 
L 76.325824 173.752459 
L 48.789914 180.61662 
L 49.379484 184.189778 
L 57.742174 186.104147 
L 58.499858 189.393114 
L 15.611572 204.933883 
L 16.982135 209.538218 
L 86.530535 190.299722 
L 87.405903 192.681444 
L 29.170016 220.014654 
L 31.008047 224.185225 
L 91.176103 199.295729 
L 92.332028 201.526937 
L 71.188319 216.68251 
L 72.900806 219.533581 
L 91.649594 211.029512 
L 93.174221 213.24003 
L 51.142087 248.632 
L 53.869047 252.097572 
L 67.954503 245.729561 
L 70.581891 248.667949 
L 65.478011 259.210492 
L 68.530494 262.220081 
L 87.369656 247.636465 
L 90.047402 249.963455 
L 93.282419 251.590182 
L 96.081555 253.729307 
L 94.93419 261.57728 
L 98.046526 263.659531 
L 117.400677 238.804478 
L 119.785877 240.191594 
L 102.693845 279.035976 
L 106.351283 280.865615 
L 110.69859 281.146552 
L 114.418432 282.72346 
L 117.914597 284.917542 
L 121.749439 286.2657 
L 121.13096 302.503003 
L 125.517137 303.741336 
L 134.898151 283.472721 
L 138.679168 284.287592 
L 137.204909 316.667107 
L 142.028489 317.393036 
L 147.032371 316.408256 
L 151.842954 316.825317 
L 158.788654 263.075884 
L 161.916538 263.149671 
L 165.636425 288.187917 
L 169.5505 288.033978 
L 173.4578 287.757049 
L 177.35446 287.357402 
L 177.972097 265.143618 
L 181.155509 264.613213 
L 180.524456 246.368477 
L 183.116275 245.767103 
L 187.603668 251.870168 
L 190.364972 251.043488 
L 188.6818 237.565872 
L 190.992813 236.712365 
L 201.225892 254.540341 
L 204.064417 253.284028 
L 221.933636 282.06713 
L 225.627425 280.14611 
L 230.44053 280.141609 
L 234.06957 277.954066 
L 230.657869 265.235212 
L 233.818113 263.048205 
L 231.675324 253.915697 
L 234.479154 251.702296 
L 231.559274 242.897043 
L 234.016711 240.692739 
L 241.903988 243.991015 
L 244.390707 241.460909 
L 231.028289 224.754438 
L 232.915545 222.575799 
L 233.502006 219.369975 
L 235.21874 217.116219 
L 231.059543 210.806346 
L 232.508225 208.633621 
L 264.78127 224.972434 
L 266.658692 221.73242 
L 262.172713 215.191539 
L 263.743892 212.03838 
L 292.457272 220.843376 
L 294.191184 216.735209 
L 243.586015 193.385867 
L 244.480766 190.827895 
L 293.350439 202.54772 
L 294.508654 198.420516 
L 287.138737 192.324325 
L 287.978576 188.397485 
L 286.375592 184.063556 
L 286.956072 180.164796 
L 311.577197 178.689566 
L 311.976247 174.001069 
L 309.879061 169.213671 
L 309.981008 164.583253 
L 277.826776 160.759922 
L 277.678766 157.141477 
L 271.173883 154.080628 
L 270.819151 150.674667 
L 285.847971 144.925375 
L 285.198122 141.062555 
L 266.81863 141.045985 
L 266.056213 137.783407 
L 264.437967 134.760462 
L 263.479096 131.575846 
L 262.420569 128.422952 
L 261.26343 125.304901 
L 252.079857 125.600726 
L 250.839094 122.809204 
L 254.411875 117.59685 
L 252.9183 114.735962 
L 251.335512 111.923449 
L 249.665074 109.162094 
L 275.878297 87.678303 
L 273.433403 84.157256 
L 275.852815 76.901393 
L 273.069085 73.386476 
L 235.334619 100.33483 
L 233.307721 98.082307 
L 231.211 95.894628 
L 229.046531 93.773957 
L 243.497482 73.007716 
L 240.607324 70.512047 
L 236.67314 69.341367 
L 233.671077 67.062082 
L 247.462906 40.34507 
L 243.543802 37.740868 
L 211.381297 82.317207 
L 208.799728 80.826737 
L 219.825509 52.963035 
L 216.316805 51.221574 
L 220.625574 31.656451 
L 216.44655 29.90037 
L 211.13795 31.219605 
L 206.949881 29.762051 
L 206.275326 16.417344 
L 201.624246 15.12 
L 184.358212 68.956737 
L 181.369922 68.322538 
L 176.215628 80.926669 
L 173.607725 80.542573 
L 173.933247 50.616203 
L 170.373445 50.318856 
L 167.967429 18.033885 
L 163.386117 17.940226 
L 159.704495 51.666192 
L 156.184742 51.815709 
L 151.759856 41.932086 
L 147.937969 42.336213 
L 146.987305 61.444401 
L 143.781288 61.98894 
L 132.053497 23.60244 
L 127.665029 24.635241 
L 131.920505 55.936967 
L 128.548771 56.957962 
L 123.90004 54.393123 
L 120.48373 55.667063 
L 128.198524 82.979738 
L 125.678914 84.104389 
L 125.312136 89.504986 
L 122.999122 90.717166 
L 108.846105 71.721631 
L 105.982084 73.460332 
L 101.423425 72.689145 
L 98.593495 74.660752 
L 108.72366 93.486698 
L 106.544041 95.218487 
L 76.569906 65.172786 
L 73.515934 67.929559 
L 73.309091 73.561708 
L 70.520497 76.41686 
L 79.536103 89.765519 
L 77.253914 92.416869 
L 99.127054 113.957057 
L 97.595813 115.980463 
L 72.861835 102.111089 
L 70.971117 104.966189 
L 73.88113 110.688268 
L 72.259594 113.507078 
L 31.709378 96.316689 
L 29.656818 100.468576 
L 42.093577 110.956774 
L 40.4962 114.774921 
L 19.142667 111.406771 
L 17.570786 115.946323 
L 16.893987 120.754201 
L 15.617122 125.359835 
L 75.604483 143.881101 
L 75.02575 146.629313 
L 71.440203 148.893923 
L 71.021143 151.770591 
L 20.791174 149.778796 
L 20.424978 154.247543 
L 36.641696 159.294592 
L 36.566861 163.260259 
L 47.580404 166.915935 
L 47.739793 170.533897 
L 76.0992 171.576533 
L 76.391028 174.295497 
L 48.898833 181.332706 
L 49.510865 184.902086 
L 57.88543 186.763821 
L 58.663785 190.047957 
L 15.87409 205.858162 
L 17.273584 210.453785 
L 86.69961 190.77825 
L 87.58994 193.15442 
L 29.527115 220.85336 
L 31.39134 225.012288 
L 91.401665 199.744861 
L 92.571601 201.968755 
L 71.52363 217.25701 
L 73.254014 220.097254 
L 91.948946 211.475434 
L 93.487446 213.67632 
L 51.678739 249.331947 
L 54.427441 252.7803 
L 68.472567 246.323826 
L 71.118384 249.245631 
L 66.080912 259.820066 
L 69.152263 262.810397 
L 87.89933 248.108581 
L 90.591658 250.418684 
L 93.836842 252.025032 
L 96.649377 254.14651 
L 95.551394 262.001544 
L 98.676764 264.064179 
L 117.874208 239.087891 
L 120.268086 240.459978 
L 103.4207 279.411091 
L 107.089574 281.217691 
L 111.438562 281.471279 
L 115.168248 283.024761 
L 118.678143 285.196811 
L 122.521389 286.520823 
L 122.005045 302.761694 
L 126.398924 303.972416 
L 135.652274 283.645201 
L 139.438341 284.436276 
L 138.16776 316.824422 
L 142.995811 317.52 
L 147.9934 316.503768 
L 152.806511 316.890564 
L 159.414021 263.09851 
L 162.542306 263.152623 
L 166.419596 288.166977 
L 170.332626 287.988425 
L 174.238107 287.686926 
L 178.132177 287.262779 
L 178.610088 265.045551 
L 181.790102 264.495134 
L 181.044312 246.254727 
L 183.632298 245.637064 
L 188.157986 251.711786 
L 190.914037 250.867755 
L 189.146131 237.400992 
L 191.451731 236.532967 
L 201.796735 254.296229 
L 204.627303 253.022088 
L 222.677197 281.692234 
L 226.358831 279.74802 
L 231.171813 279.713248 
L 234.787023 277.502923 
L 231.295395 264.805778 
L 234.441821 262.598939 
L 232.241636 253.480088 
L 235.03149 251.249096 
L 232.056287 242.462382 
L 234.499812 240.242666 
L 242.407677 243.49127 
L 244.878434 240.945574 
L 231.411206 224.323475 
L 233.284723 222.13301 
L 233.851009 218.923561 
L 235.553534 216.659052 
L 231.354734 210.375463 
L 232.789722 208.19367 
L 265.16489 224.32918 
L 267.021897 221.077422 
L 262.494869 214.564885 
L 264.046185 211.401906 
L 292.814376 220.026137 
L 294.522415 215.907146 
L 243.771394 192.876544 
L 244.650038 190.312995 
L 293.592456 201.725226 
L 294.72469 197.590819 
L 287.316577 191.541101 
L 288.131703 187.609057 
L 286.501492 183.285295 
L 287.057439 179.382961 
L 311.668799 177.752908 
L 312.038353 173.061994 
L 309.911099 168.287881 
L 277.863219 163.656912 
z
" clip-path="url(#p4c882d6dd7)" style="fill: #0000ff; opacity: 0.5; stroke: #000000; stroke-width: 1.5; stroke-linejoin: miter"/>
   </g>
  </g>
 </g>
 <defs>
  <clipPath id="p4c882d6dd7">
   <rect x="0" y="-0" width="326.897323" height="332.64"/>
  </clipPath>
 </defs>
</svg>
