<?xml version="1.0" encoding="utf-8" standalone="no"?>
<!DOCTYPE svg PUBLIC "-//W3C//DTD SVG 1.1//EN"
  "http://www.w3.org/Graphics/SVG/1.1/DTD/svg11.dtd">
<svg xmlns:xlink="http://www.w3.org/1999/xlink" width="334.8pt" height="332.063865pt" viewBox="0 0 334.8 332.063865" xmlns="http://www.w3.org/2000/svg" version="1.1">
 <metadata>
  <rdf:RDF xmlns:dc="http://purl.org/dc/elements/1.1/" xmlns:cc="http://creativecommons.org/ns#" xmlns:rdf="http://www.w3.org/1999/02/22-rdf-syntax-ns#">
   <cc:Work>
    <dc:type rdf:resource="http://purl.org/dc/dcmitype/StillImage"/>
    <dc:date>2023-12-09T18:06:18.210212</dc:date>
    <dc:format>image/svg+xml</dc:format>
    <dc:creator>
     <cc:Agent>
      <dc:title>Matplotlib v3.8.2, https://matplotlib.org/</dc:title>
     </cc:Agent>
    </dc:creator>
   </cc:Work>
  </rdf:RDF>
 </metadata>
 <defs>
  <style type="text/css">*{stroke-linejoin: round; stroke-linecap: butt}</style>
 </defs>
 <g id="figure_1">
  <g id="patch_1">
   <path d="M 0 332.063865 
L 334.8 332.063865 
L 334.8 0 
L 0 0 
L 0 332.063865 
z
" style="fill: none"/>
  </g>
  <g id="axes_1">
   <g id="patch_2">
    <path d="M 308.464488 165.860142 
L 308.394348 161.399757 
L 275.097515 159.027498 
L 274.82904 155.619622 
L 319.581818 146.515078 
L 318.897931 141.714705 
L 299.131095 140.55345 
L 298.269872 136.39904 
L 248.742459 144.748703 
L 248.038058 142.176548 
L 246.519963 139.866288 
L 245.663147 137.366427 
L 271.247149 124.383551 
L 269.891295 121.113868 
L 273.315504 115.588419 
L 271.68209 112.258051 
L 280.751582 103.03251 
L 278.719706 99.474543 
L 247.945113 114.17529 
L 246.279811 111.643321 
L 260.121941 97.82593 
L 257.936559 94.919179 
L 274.065818 76.835215 
L 271.213547 73.500416 
L 255.340575 82.40542 
L 252.672702 79.656629 
L 271.53946 53.932642 
L 267.968331 50.688601 
L 236.805656 80.849377 
L 234.098022 78.684135 
L 216.841069 96.578254 
L 214.637856 95.032965 
L 235.072178 57.732186 
L 231.638546 55.632878 
L 216.648946 74.598862 
L 213.754748 73.070481 
L 226.205311 38.829149 
L 222.18171 37.01798 
L 204.804082 69.041462 
L 201.741003 67.888258 
L 200.067116 62.430679 
L 196.798522 61.429684 
L 190.06661 73.978106 
L 187.166037 73.285839 
L 184.53197 71.170074 
L 181.545843 70.653216 
L 185.32704 15.91287 
L 180.603112 15.398335 
L 171.565724 85.059665 
L 169.022727 84.943627 
L 166.473702 82.594674 
L 163.855718 82.63996 
L 161.041779 79.690034 
L 158.335153 79.907547 
L 150.348598 38.914477 
L 146.365185 39.488367 
L 143.130788 43.97255 
L 139.309981 44.770884 
L 132.81282 35.239289 
L 128.722522 36.36636 
L 125.628197 40.552651 
L 121.708515 41.902995 
L 115.551526 37.645659 
L 111.545423 39.314273 
L 128.692622 85.712133 
L 126.191337 86.943796 
L 107.69864 59.23536 
L 104.375248 61.140212 
L 120.18046 93.051972 
L 117.914165 94.547648 
L 110.696065 89.263759 
L 108.31535 91.059518 
L 70.01909 49.645052 
L 66.412787 52.739373 
L 66.080021 59.310286 
L 62.779563 62.523681 
L 76.480117 81.632032 
L 73.876361 84.507388 
L 99.936398 110.982277 
L 98.24388 113.105605 
L 91.619985 111.668311 
L 89.95315 114.052786 
L 89.666153 117.311353 
L 88.177714 119.754471 
L 81.354095 119.286098 
L 79.931855 121.989589 
L 75.102889 123.10457 
L 73.803801 126.002725 
L 40.303606 116.257901 
L 38.806449 120.253607 
L 57.251359 130.670972 
L 56.199002 134.126677 
L 29.847368 131.168278 
L 28.824196 135.485379 
L 23.390799 138.979151 
L 22.61641 143.495398 
L 63.304469 153.127013 
L 62.955186 156.381291 
L 32.693931 157.849442 
L 32.508266 162.063848 
L 69.461941 166.165632 
L 69.519576 169.219859 
L 25.82329 175.170808 
L 26.185644 179.592679 
L 15.218182 185.487922 
L 15.910172 190.238139 
L 72.757012 184.086957 
L 73.376504 187.02872 
L 45.736372 197.331788 
L 46.78567 201.11659 
L 92.630746 190.178939 
L 93.431957 192.492816 
L 56.366393 209.956311 
L 57.807378 213.400641 
L 89.998427 202.244297 
L 91.180301 204.634975 
L 40.519251 235.776326 
L 42.779909 239.706158 
L 100.363746 208.243501 
L 101.729123 210.305304 
L 76.41182 231.910506 
L 78.533182 234.713709 
L 94.361281 226.093379 
L 96.290865 228.335087 
L 89.890638 238.464386 
L 92.211404 240.840544 
L 110.371915 226.219401 
L 112.297545 227.957637 
L 85.912303 264.203729 
L 89.044337 266.692248 
L 82.790142 282.218267 
L 86.490137 284.796048 
L 90.679758 286.60355 
L 94.513734 288.931096 
L 116.110405 258.632691 
L 119.052343 260.174471 
L 102.524519 303.562919 
L 106.885879 305.509654 
L 137.130895 241.25662 
L 139.516098 242.14606 
L 140.282985 248.10006 
L 142.881802 248.887008 
L 143.808498 256.320296 
L 146.664035 256.992331 
L 146.577537 273.491572 
L 149.971607 274.068052 
L 151.892265 286.782869 
L 155.701615 287.18567 
L 159.028634 295.934902 
L 163.122215 296.108796 
L 167.317433 316.970053 
L 172.068307 316.872928 
L 175.042803 290.47313 
L 178.956737 290.146203 
L 177.039183 245.359946 
L 179.533672 244.992554 
L 184.978982 259.678982 
L 187.919767 259.054865 
L 192.598455 265.050738 
L 195.704373 264.184392 
L 196.604131 256.632502 
L 199.443381 255.644371 
L 202.250157 254.567457 
L 205.021685 253.402824 
L 219.702172 277.20399 
L 223.176814 275.479435 
L 222.846083 266.909836 
L 225.9955 265.09152 
L 224.087662 255.389883 
L 226.874252 253.538225 
L 246.491642 274.588051 
L 249.870787 272.022471 
L 237.833583 251.019083 
L 240.475949 248.737384 
L 247.822807 251.40583 
L 250.472394 248.809856 
L 239.480708 233.540215 
L 241.572686 231.215369 
L 282.381878 260.552825 
L 285.30198 256.865716 
L 259.921699 232.855207 
L 261.982032 229.887989 
L 273.747724 232.998127 
L 275.805715 229.596118 
L 248.612446 210.328337 
L 249.970077 207.727845 
L 304.40799 229.723651 
L 306.347865 225.359235 
L 295.935017 216.183246 
L 297.453341 212.091934 
L 287.82247 204.447009 
L 288.975793 200.616576 
L 251.865213 187.203451 
L 252.494138 184.512119 
L 284.123865 187.535941 
L 284.747295 183.830161 
L 308.983753 182.955906 
L 309.450886 178.470742 
L 282.83577 172.446474 
L 282.98539 168.788656 
L 308.461682 164.967924 
L 308.363491 160.508069 
L 275.052396 158.345274 
L 274.762493 154.939154 
L 319.457123 145.553321 
L 318.743058 140.757344 
L 298.969309 139.720434 
L 298.081974 135.571523 
L 248.608056 144.232521 
L 247.887491 141.664846 
L 246.354896 139.36418 
L 245.482374 136.869757 
L 270.984215 123.726229 
L 269.607824 120.465138 
L 272.997212 114.918263 
L 271.342885 111.598234 
L 280.354174 102.315833 
L 278.299961 98.770716 
L 247.618436 113.664727 
L 245.937242 111.143282 
L 259.692195 97.239105 
L 257.488574 94.346156 
L 273.503776 76.161105 
L 270.630588 72.844312 
L 254.813937 81.848971 
L 252.128829 79.117015 
L 270.833424 53.274875 
L 267.241963 50.053359 
L 236.269598 80.409534 
L 233.5484 78.261364 
L 216.404331 96.263665 
L 214.191443 94.732264 
L 234.39076 57.303703 
L 230.943992 55.226031 
L 216.073974 74.285917 
L 213.170221 72.775769 
L 225.405179 38.456807 
L 221.370266 36.67098 
L 204.194391 68.803124 
L 201.124121 67.669208 
L 199.415941 62.222265 
L 196.141117 61.241847 
L 189.48826 73.832361 
L 186.583391 73.158351 
L 183.936068 71.059194 
L 180.94675 70.561127 
L 184.383586 15.798083 
L 179.656516 15.313268 
L 171.057437 85.03006 
L 168.51376 84.930019 
L 165.950012 82.597145 
L 163.332365 82.658895 
L 160.499928 79.726725 
L 157.794723 79.961257 
L 149.550503 39.019229 
L 145.570779 39.618161 
L 142.364648 44.122598 
L 138.548938 44.944947 
L 131.991958 35.454404 
L 127.908829 36.607178 
L 124.840894 40.812848 
L 120.929783 42.187818 
L 114.746139 37.96929 
L 110.750611 39.663067 
L 128.189286 85.952163 
L 125.695798 87.199534 
L 107.029196 59.607955 
L 103.71785 61.533671 
L 119.723456 93.345394 
L 117.466613 94.855294 
L 110.215423 89.616907 
L 107.846049 91.427604 
L 69.290073 50.254819 
L 65.703303 53.37176 
L 65.411871 59.944636 
L 62.131688 63.178726 
L 75.952153 82.20053 
L 73.366532 85.092206 
L 99.592566 111.402667 
L 97.913436 113.536599 
L 91.280632 112.140994 
L 89.628827 114.535905 
L 89.362331 117.796212 
L 87.889286 120.248643 
L 81.062856 119.823197 
L 79.657648 122.53558 
L 74.835791 123.68091 
L 73.554956 126.587178 
L 39.994134 117.053244 
L 38.522138 121.058287 
L 57.032202 131.359438 
L 56.0016 134.821693 
L 29.63188 132.02909 
L 28.635881 136.35254 
L 23.224565 139.880416 
L 22.478597 144.401445 
L 63.226428 153.776964 
L 62.897619 157.033375 
L 32.646197 158.691823 
L 32.487042 162.907313 
L 69.465783 166.776598 
L 69.542627 169.830403 
L 25.884633 176.056059 
L 26.274791 180.475563 
L 15.344624 186.439669 
L 16.066476 191.18544 
L 72.873504 184.676845 
L 73.511486 187.614653 
L 45.936701 198.091358 
L 47.009783 201.869486 
L 92.78516 190.643712 
L 93.600909 192.952504 
L 56.645913 210.648775 
L 58.108532 214.083973 
L 90.228778 202.725387 
L 91.425665 205.108584 
L 40.961478 236.567949 
L 43.246808 240.483485 
L 100.631623 208.65928 
L 102.009941 210.712455 
L 76.829024 232.476462 
L 78.967974 235.266266 
L 94.741543 226.546557 
L 96.685188 228.776085 
L 90.348795 238.945437 
L 92.684459 241.306952 
L 110.752652 226.571879 
L 112.689177 228.29797 
L 86.532424 264.709293 
L 89.680048 267.178064 
L 83.523626 282.743111 
L 87.239761 285.29757 
L 91.440667 287.078687 
L 95.289207 289.382072 
L 116.69489 258.948436 
L 119.646467 260.471682 
L 103.391859 303.963223 
L 107.765376 305.882489 
L 137.605679 241.440502 
L 139.996429 242.314923 
L 140.800748 248.263982 
L 143.404464 249.034569 
L 144.377892 256.461882 
L 147.237599 257.115943 
L 147.254874 273.615402 
L 150.652502 274.170524 
L 152.653092 286.873009 
L 156.464899 287.251844 
L 159.846881 295.979978 
L 163.941475 296.128122 
L 168.267815 316.962581 
L 173.017984 316.835577 
L 175.826381 290.417594 
L 179.738181 290.066057 
L 177.538986 245.292746 
L 180.031114 244.909672 
L 185.568686 259.561562 
L 188.505487 258.918962 
L 193.221794 264.885289 
L 196.322201 263.999427 
L 197.174445 256.442027 
L 200.007423 255.436058 
L 202.807371 254.341512 
L 205.571519 253.159471 
L 220.401412 276.867834 
L 223.865138 275.12146 
L 223.480516 266.554111 
L 226.618434 264.716022 
L 224.649617 255.026577 
L 227.424506 253.157429 
L 247.173899 274.083457 
L 250.536841 271.496674 
L 238.367776 250.569409 
L 240.995739 248.271136 
L 248.359234 250.893321 
L 250.992442 248.280735 
L 239.904936 233.080528 
L 241.98225 230.74257 
L 282.975151 259.822779 
L 285.872006 256.117377 
L 260.341214 232.26697 
L 262.382844 229.286853 
L 274.167865 232.32293 
L 276.204418 228.908045 
L 248.890504 209.811675 
L 250.231752 207.202696 
L 304.80693 228.855683 
L 306.719316 224.479153 
L 296.248963 215.368836 
L 297.741525 211.268056 
L 288.062762 203.683854 
L 289.191971 199.846243 
L 251.997764 186.666788 
L 252.60975 183.971554 
L 284.25787 186.796382 
L 284.85798 183.086755 
L 309.08846 182.060084 
L 309.527374 177.57207 
L 282.874895 171.715316 
L 283.001507 168.056629 
L 308.453265 164.075741 
L 308.327025 159.616592 
L 275.002987 157.663348 
L 274.691666 154.259118 
L 319.326381 144.592367 
L 318.582166 139.800976 
L 298.802287 138.888452 
L 297.888876 134.745204 
L 248.470408 143.717193 
L 247.733709 141.154102 
L 246.186674 138.86312 
L 245.298481 136.374234 
L 270.717152 123.070574 
L 269.320278 119.818205 
L 272.674713 114.250121 
L 270.999536 110.940563 
L 279.952266 101.601669 
L 277.875797 98.069542 
L 247.288554 113.156228 
L 245.591535 110.645407 
L 259.258766 96.654994 
L 257.036994 93.775962 
L 272.937505 75.490544 
L 270.043513 72.191887 
L 254.28381 81.295846 
L 251.581572 78.580832 
L 270.123265 52.621562 
L 266.511613 49.422697 
L 235.730784 79.973071 
L 232.996129 77.842058 
L 215.965624 95.95183 
L 213.743148 94.434377 
L 233.706661 56.879513 
L 230.246894 54.823561 
L 215.497046 73.976594 
L 212.583852 72.484739 
L 224.602721 38.089505 
L 220.556657 36.329091 
L 203.583214 68.568626 
L 200.505873 67.454042 
L 198.763469 62.01795 
L 195.482543 61.058148 
L 188.909005 73.690256 
L 185.999954 73.034529 
L 183.339481 70.952064 
L 180.347089 70.472809 
L 183.439429 15.689231 
L 178.709403 15.234157 
L 170.548973 85.003653 
L 168.004718 84.919612 
L 165.426348 82.602909 
L 162.809141 82.681121 
L 159.958319 79.766824 
L 157.254642 80.018365 
L 148.753083 39.128998 
L 144.777204 39.752949 
L 141.599468 44.277462 
L 137.789005 45.123793 
L 131.172464 35.674677 
L 127.096666 36.853109 
L 124.055244 41.077991 
L 120.152857 42.477533 
L 113.942804 38.29798 
L 109.958007 40.016853 
L 127.68747 86.195354 
L 125.201876 87.458383 
L 106.362108 59.984752 
L 103.062939 61.931256 
L 119.268307 93.641684 
L 117.021005 95.165748 
L 109.737012 89.973071 
L 107.379073 91.798634 
L 68.564906 50.869159 
L 64.997811 54.008597 
L 64.747724 60.583176 
L 61.487947 63.837832 
L 75.427774 82.772337 
L 72.860392 85.680218 
L 99.251384 111.825212 
L 97.585709 113.969662 
L 90.944259 112.615802 
L 89.307549 115.021055 
L 89.061564 118.282973 
L 87.603973 120.74462 
L 80.775002 120.362117 
L 79.386881 123.083284 
L 74.572322 124.258918 
L 73.309792 127.173184 
L 39.68967 117.850518 
L 38.242893 121.864739 
L 56.81738 132.049269 
L 55.808574 135.517937 
L 29.421811 132.89124 
L 28.453024 137.220869 
L 23.064003 140.782709 
L 22.346484 145.30834 
L 63.152476 154.427393 
L 62.844155 157.685808 
L 32.603761 159.534487 
L 32.471123 163.750895 
L 69.473469 167.387528 
L 69.569517 170.440789 
L 25.951543 176.940907 
L 26.369489 181.357869 
L 15.477049 187.390602 
L 16.228735 192.131739 
L 72.993704 185.265989 
L 73.650151 188.199726 
L 46.141804 198.849654 
L 47.238627 202.620958 
L 92.942495 191.107504 
L 93.772748 193.41112 
L 56.929783 211.339467 
L 58.413979 214.765398 
L 90.46215 203.205019 
L 91.674002 205.580641 
L 41.408675 237.356774 
L 43.718586 241.257859 
L 100.902111 209.073367 
L 102.293314 211.117832 
L 77.249778 233.039782 
L 79.406233 235.816078 
L 95.124648 226.997335 
L 97.082277 229.214594 
L 90.809968 239.423598 
L 93.160439 241.770376 
L 111.1356 226.921955 
L 113.082942 228.635832 
L 87.155713 265.210946 
L 90.318802 267.659872 
L 84.260397 283.263332 
L 87.992524 285.794368 
L 92.20455 287.549028 
L 96.0675 289.828163 
L 117.28135 259.260499 
L 120.242448 260.765151 
L 104.261699 304.358064 
L 108.647201 306.249785 
L 138.08161 241.621394 
L 140.477812 242.480761 
L 141.319532 248.424644 
L 143.928042 249.17884 
L 144.948166 256.599883 
L 147.811929 257.235946 
L 147.932976 273.73497 
L 151.334029 274.268711 
L 153.41447 286.958363 
L 157.228585 287.313216 
L 160.665394 296.019907 
L 164.760839 296.142295 
L 169.21813 316.949132 
L 173.967407 316.792255 
L 176.609595 290.35713 
L 180.519106 289.980997 
L 178.038355 245.222404 
L 180.528026 244.823664 
L 186.157639 259.440435 
L 189.090341 258.779377 
L 193.844079 264.715924 
L 196.938854 263.810579 
L 197.743549 256.247968 
L 200.570144 255.224202 
L 203.363152 254.112068 
L 206.119812 252.912665 
L 221.098523 276.527287 
L 224.551198 274.759163 
L 224.112699 266.194402 
L 227.238995 264.336614 
L 225.209275 254.659743 
L 227.972353 252.773179 
L 247.852969 273.574581 
L 251.199575 270.966698 
L 238.899129 250.116384 
L 241.512586 247.801628 
L 248.892428 250.377449 
L 251.509152 247.748353 
L 240.326264 232.618181 
L 242.388833 230.267204 
L 283.563821 259.089016 
L 286.437314 255.365468 
L 260.757021 231.676107 
L 262.779868 228.683208 
L 274.58375 231.645103 
L 276.598786 228.217477 
L 249.165307 209.293274 
L 250.490119 206.675911 
L 305.200403 227.985223 
L 307.085226 223.596751 
L 296.55778 214.552467 
L 298.024521 210.442381 
L 288.29825 202.919203 
L 289.403299 199.074566 
L 252.126937 186.129302 
L 252.721959 183.430272 
L 284.38722 186.055996 
L 284.963986 182.342668 
L 309.18753 181.163621 
L 309.598208 176.672935 
L 282.909421 170.983926 
L 283.01302 167.324515 
L 308.439236 163.183629 
L 308.284954 158.725362 
L 274.94929 156.981745 
L 274.616565 153.579542 
L 319.189598 143.632255 
L 318.415263 138.845639 
L 298.630035 138.057537 
L 297.690584 133.920116 
L 248.329522 143.202742 
L 247.576717 140.644334 
L 246.015304 138.363128 
L 245.111474 135.879878 
L 270.44597 122.416612 
L 269.028668 119.173092 
L 272.348017 113.584021 
L 270.652059 110.285064 
L 279.545875 100.890048 
L 277.447232 97.37105 
L 246.95548 112.649814 
L 245.242703 110.149716 
L 258.821672 96.073621 
L 256.581836 93.208619 
L 272.367029 74.823558 
L 269.452347 71.543168 
L 253.750214 80.746067 
L 251.030954 78.048101 
L 269.409011 51.972728 
L 265.777312 48.796642 
L 235.189236 79.540005 
L 232.441232 77.426234 
L 215.524964 95.64276 
L 213.292988 94.139315 
L 233.019907 56.459635 
L 229.547278 54.425484 
L 214.918183 73.670906 
L 211.995664 72.197402 
L 223.797969 37.727257 
L 219.740913 35.992325 
L 202.970574 68.337976 
L 199.886283 67.242768 
L 198.109724 61.817743 
L 194.822826 60.878595 
L 188.328867 73.551797 
L 185.41575 72.914379 
L 182.742232 70.848688 
L 179.746885 70.388263 
L 182.494606 15.58632 
L 177.761812 15.161004 
L 170.040354 84.980445 
L 167.49562 84.912407 
L 164.90273 82.611966 
L 162.286067 82.706638 
L 159.416972 79.810328 
L 156.714931 80.078869 
L 147.956369 39.243781 
L 143.984493 39.892725 
L 140.835276 44.437135 
L 137.030212 45.307414 
L 130.354372 35.9001 
L 126.286067 37.104143 
L 123.271276 41.348071 
L 119.377769 42.772129 
L 113.141551 38.631716 
L 109.167645 40.375617 
L 127.187193 86.441697 
L 124.709592 87.720334 
L 105.697403 60.365737 
L 102.410542 62.332953 
L 118.81503 93.940831 
L 116.577358 95.479 
L 109.26085 90.332237 
L 106.914439 92.172594 
L 67.843617 51.488047 
L 64.296338 54.649858 
L 64.087606 61.225881 
L 60.848363 64.500974 
L 74.907002 83.347431 
L 72.35796 86.271402 
L 98.912867 112.249895 
L 97.260712 114.404778 
L 90.610879 113.092716 
L 88.989329 115.508215 
L 88.763864 118.771616 
L 87.321784 121.242382 
L 80.490543 120.902837 
L 79.119564 123.63268 
L 74.312494 124.838572 
L 73.068318 127.760721 
L 39.390227 118.649691 
L 37.968725 122.672932 
L 56.6069 132.740437 
L 55.61993 136.215382 
L 29.217169 133.754694 
L 28.275632 138.090331 
L 22.909119 141.685995 
L 22.220078 146.216048 
L 63.082617 155.078275 
L 62.794795 158.338564 
L 32.566627 160.377402 
L 32.46051 164.594561 
L 69.484996 167.998398 
L 69.600246 171.050995 
L 26.024017 177.825316 
L 26.469735 182.239562 
L 15.615452 188.340683 
L 16.396943 193.076998 
L 73.117608 185.854364 
L 73.792492 188.783915 
L 46.351672 199.606644 
L 47.472192 203.370975 
L 93.102744 191.570298 
L 93.947469 193.868646 
L 57.217991 212.02836 
L 58.723705 215.444889 
L 90.698534 203.683173 
L 91.925303 206.051126 
L 41.860825 238.142772 
L 44.195226 242.029252 
L 101.175197 209.485744 
L 102.579231 211.521419 
L 77.674067 233.600444 
L 79.847941 236.363123 
L 95.51058 227.445694 
L 97.482115 229.650597 
L 91.274139 239.898848 
L 93.639324 242.230797 
L 111.520741 227.269616 
L 113.478824 228.971212 
L 87.782145 265.70867 
L 90.960573 268.137654 
L 85.000426 283.778909 
L 88.748397 286.286421 
L 92.971375 288.014555 
L 96.848584 290.269349 
L 117.869761 259.568867 
L 120.840264 261.054866 
L 105.134006 304.747426 
L 109.531319 306.611527 
L 138.55867 241.799289 
L 140.960229 242.643569 
L 141.839316 248.582039 
L 144.452518 249.319815 
L 145.519296 256.734296 
L 148.387003 257.352334 
L 148.611817 273.850271 
L 152.016159 274.362611 
L 154.17637 287.038927 
L 157.992641 287.369784 
L 161.484143 296.054687 
L 165.580276 296.151315 
L 170.168343 316.929706 
L 174.916539 316.742962 
L 177.392412 290.291742 
L 181.299481 289.891028 
L 178.537273 245.148923 
L 181.024386 244.734532 
L 186.74582 259.315607 
L 189.674306 258.636117 
L 194.465287 264.542648 
L 197.554306 263.617856 
L 198.311421 256.050334 
L 201.131522 255.008811 
L 203.91748 253.879132 
L 206.666541 252.662415 
L 221.793479 276.182363 
L 225.234965 274.392558 
L 224.742608 265.830724 
L 227.857157 263.953311 
L 225.766615 254.289397 
L 228.517773 252.385492 
L 248.528824 273.061445 
L 251.858963 270.432565 
L 239.427624 249.660026 
L 242.02647 247.328878 
L 249.422366 249.858234 
L 252.022503 247.212732 
L 240.744676 232.153193 
L 242.792418 229.78929 
L 284.147865 258.351565 
L 286.997881 254.610018 
L 261.169104 231.08264 
L 263.173087 228.077078 
L 274.995365 230.964675 
L 276.988803 227.524443 
L 249.436844 208.773155 
L 250.745168 206.147511 
L 305.588393 227.112305 
L 307.445578 222.712066 
L 296.861457 213.734173 
L 298.302319 209.614942 
L 288.528923 202.153086 
L 289.60977 198.301575 
L 252.252727 185.591015 
L 252.830762 182.888295 
L 284.51191 185.314811 
L 285.065311 181.597929 
L 309.28096 180.266552 
L 309.663386 175.773373 
L 282.939346 170.252333 
L 283.019927 166.592343 
L 308.419597 162.291623 
L 308.237278 157.834414 
L 274.891307 156.300495 
L 274.53719 152.900451 
L 319.04678 142.673021 
L 318.242354 137.89137 
L 298.452561 137.227722 
L 297.487106 133.096291 
L 248.185404 142.689187 
L 247.416522 140.135565 
L 245.840792 137.864224 
L 244.921363 135.386707 
L 270.170681 121.764368 
L 268.733008 118.529826 
L 272.017138 112.919989 
L 270.300465 109.631764 
L 279.135016 100.180996 
L 277.014282 96.675268 
L 246.619228 112.145506 
L 244.890761 109.656229 
L 258.380931 95.495008 
L 256.12312 92.64415 
L 271.792368 74.160173 
L 268.857113 70.898179 
L 253.213171 80.199654 
L 250.476996 77.518844 
L 268.69069 51.328399 
L 265.039087 48.175217 
L 234.644975 79.110354 
L 231.883731 77.013908 
L 215.082369 95.336467 
L 212.840981 93.84709 
L 232.330526 56.044084 
L 228.845172 54.031814 
L 214.33741 73.368864 
L 211.405681 71.913771 
L 222.990955 37.370077 
L 218.923067 35.660696 
L 202.356496 68.111183 
L 199.265378 67.035396 
L 197.454733 61.621652 
L 194.161994 60.703195 
L 187.74787 73.41699 
L 184.830801 72.797906 
L 182.144345 70.749071 
L 179.146161 70.307494 
L 181.549155 15.489353 
L 176.813779 15.093812 
L 169.531598 84.960436 
L 166.986487 84.908405 
L 164.37918 82.624317 
L 161.763164 82.735444 
L 158.875909 79.857237 
L 156.175611 80.142767 
L 147.160393 39.363572 
L 143.192677 40.037485 
L 140.072104 44.601611 
L 136.272588 45.495805 
L 129.537714 36.130664 
L 125.477062 37.360271 
L 122.489023 41.623076 
L 118.604549 43.071593 
L 112.342414 38.970485 
L 108.379554 40.739345 
L 126.688476 86.691181 
L 124.218966 87.985375 
L 105.035108 60.750896 
L 101.760684 62.738745 
L 118.363643 94.242823 
L 116.13569 95.795035 
L 108.786956 90.694391 
L 106.452167 92.549469 
L 67.126234 52.11146 
L 63.598912 55.295519 
L 63.431544 61.872724 
L 60.212963 65.168126 
L 74.389858 83.925789 
L 71.859256 86.865734 
L 98.577028 112.676698 
L 96.938459 114.84193 
L 90.280505 113.571717 
L 88.674179 115.997367 
L 88.469243 119.262122 
L 87.042732 121.741909 
L 80.20949 121.445335 
L 78.855707 124.183747 
L 74.056317 125.419848 
L 72.830544 128.349765 
L 39.095816 119.450731 
L 37.699647 123.482833 
L 56.400771 133.432915 
L 55.435676 136.913999 
L 29.017961 134.619419 
L 28.103711 138.960891 
L 22.75992 142.590236 
L 22.099384 147.124534 
L 63.016852 155.729583 
L 62.749542 158.991618 
L 32.534795 161.220533 
L 32.455203 165.438276 
L 69.500365 168.609183 
L 69.634812 171.660994 
L 26.102051 178.709251 
L 26.575524 183.120607 
L 15.759829 189.289875 
L 16.571093 194.021181 
L 73.245209 186.441949 
L 73.938506 189.367198 
L 46.566297 200.3623 
L 47.71047 204.119509 
L 93.2659 192.032075 
L 94.125063 194.325065 
L 57.510527 212.715427 
L 59.037699 216.122418 
L 90.937921 204.159831 
L 92.179559 206.520022 
L 42.317909 238.92591 
L 44.676707 242.797631 
L 101.450871 209.896395 
L 102.867681 211.923199 
L 78.101874 234.158427 
L 80.29308 236.907379 
L 95.899324 227.891617 
L 97.884688 230.084077 
L 91.741291 240.37117 
L 94.121095 242.688197 
L 111.908061 227.614848 
L 113.876808 229.304095 
L 88.411695 266.202444 
L 91.605337 268.611389 
L 85.743682 284.28982 
L 89.50735 286.773711 
L 93.741114 288.475251 
L 97.632427 290.705615 
L 118.460099 259.873528 
L 121.43989 261.340815 
L 106.008744 305.131295 
L 110.417694 306.967702 
L 139.036838 241.97418 
L 141.443661 242.803339 
L 142.36008 248.736163 
L 144.977871 249.457489 
L 146.091259 256.865113 
L 148.962798 257.465103 
L 149.29137 273.961299 
L 152.698867 274.452218 
L 154.938762 287.114697 
L 158.757039 287.421545 
L 162.303094 296.084317 
L 166.399754 296.15518 
L 171.118414 316.904304 
L 175.865342 316.6877 
L 178.174803 290.221432 
L 182.079274 289.796153 
L 179.035718 245.072305 
L 181.520176 244.642279 
L 187.333203 259.187082 
L 190.257358 258.489187 
L 195.085393 264.365468 
L 198.168535 263.421267 
L 198.878039 255.849133 
L 201.691533 254.789893 
L 204.470332 253.642714 
L 207.211686 252.408731 
L 222.486252 275.833074 
L 225.916412 274.021659 
L 225.370216 265.463092 
L 228.472896 263.566127 
L 226.321615 253.915552 
L 229.060744 251.994382 
L 249.201439 272.544068 
L 252.514978 269.894295 
L 239.953237 249.200353 
L 242.53737 246.852906 
L 249.949029 249.335696 
L 252.532475 246.673893 
L 241.160155 231.685583 
L 243.192989 229.308848 
L 284.727259 257.610455 
L 287.553686 253.851057 
L 261.577446 230.486593 
L 263.562486 227.468486 
L 275.402692 230.281671 
L 277.374453 226.828969 
L 249.705104 208.251339 
L 250.996889 205.617518 
L 305.970885 226.236964 
L 307.800358 221.825132 
L 297.159981 212.913984 
L 298.574907 208.785773 
L 288.754774 201.385534 
L 289.811376 197.527301 
L 252.375129 185.051946 
L 252.936154 182.345645 
L 284.631937 184.572856 
L 285.16195 180.852567 
L 309.368747 179.368914 
L 309.722906 174.873418 
L 282.96467 169.520567 
L 308.464488 165.860142 
z
" clip-path="url(#p70b6fce9cc)" style="fill: #0000ff; opacity: 0.5; stroke: #000000; stroke-width: 1.5; stroke-linejoin: miter"/>
   </g>
  </g>
 </g>
 <defs>
  <clipPath id="p70b6fce9cc">
   <rect x="0" y="-0" width="334.8" height="332.063865"/>
  </clipPath>
 </defs>
</svg>
