<?xml version="1.0" encoding="utf-8" standalone="no"?>
<!DOCTYPE svg PUBLIC "-//W3C//DTD SVG 1.1//EN"
  "http://www.w3.org/Graphics/SVG/1.1/DTD/svg11.dtd">
<svg xmlns:xlink="http://www.w3.org/1999/xlink" width="334.8pt" height="330.04703pt" viewBox="0 0 334.8 330.04703" xmlns="http://www.w3.org/2000/svg" version="1.1">
 <metadata>
  <rdf:RDF xmlns:dc="http://purl.org/dc/elements/1.1/" xmlns:cc="http://creativecommons.org/ns#" xmlns:rdf="http://www.w3.org/1999/02/22-rdf-syntax-ns#">
   <cc:Work>
    <dc:type rdf:resource="http://purl.org/dc/dcmitype/StillImage"/>
    <dc:date>2023-12-09T18:06:18.319688</dc:date>
    <dc:format>image/svg+xml</dc:format>
    <dc:creator>
     <cc:Agent>
      <dc:title>Matplotlib v3.8.2, https://matplotlib.org/</dc:title>
     </cc:Agent>
    </dc:creator>
   </cc:Work>
  </rdf:RDF>
 </metadata>
 <defs>
  <style type="text/css">*{stroke-linejoin: round; stroke-linecap: butt}</style>
 </defs>
 <g id="figure_1">
  <g id="patch_1">
   <path d="M 0 330.04703 
L 334.8 330.04703 
L 334.8 0 
L 0 0 
L 0 330.04703 
z
" style="fill: none"/>
  </g>
  <g id="axes_1">
   <g id="patch_2">
    <path d="M 319.581818 165.374665 
L 319.50569 160.533453 
L 297.763947 157.051898 
L 297.43692 152.900803 
L 254.971833 154.074219 
L 254.572339 151.270074 
L 304.749978 138.805083 
L 303.845778 134.443354 
L 281.927398 135.478237 
L 280.929879 131.835744 
L 277.62201 128.940807 
L 276.421068 125.436917 
L 300.875387 111.760251 
L 299.122753 107.533719 
L 296.54165 103.69248 
L 294.53749 99.6062 
L 299.1503 91.872736 
L 296.773212 87.710277 
L 232.537327 122.848125 
L 231.167109 120.76481 
L 268.952361 90.192687 
L 266.537379 86.980549 
L 282.400853 68.620685 
L 279.300951 64.996363 
L 262.068494 74.657006 
L 259.16844 71.668993 
L 231.428218 95.170432 
L 229.1883 93.135674 
L 248.454497 65.053135 
L 245.259208 62.497924 
L 252.831334 45.086305 
L 249.00608 42.403349 
L 236.037509 54.151417 
L 232.505585 51.992014 
L 227.426867 52.644845 
L 223.85183 50.756923 
L 202.561133 86.618183 
L 200.066587 85.495298 
L 194.712484 91.612752 
L 192.378859 90.734176 
L 195.943222 71.617453 
L 192.980292 70.710066 
L 189.609355 71.388138 
L 186.642347 70.680015 
L 193.822501 16.359592 
L 189.123191 15.546206 
L 178.963745 58.424837 
L 175.594406 58.057845 
L 174.385474 22.450018 
L 169.887271 22.244763 
L 165.404207 34.498774 
L 161.289284 34.569954 
L 159.807233 75.488255 
L 156.983877 75.715149 
L 147.030684 20.28618 
L 142.477971 20.94209 
L 138.967252 27.032596 
L 134.630648 27.938702 
L 138.808578 61.774887 
L 135.564425 62.668805 
L 119.428829 24.150898 
L 115.011277 25.67276 
L 124.314119 61.664431 
L 121.07366 63.014141 
L 120.510772 70.032497 
L 117.535303 71.497655 
L 126.520394 94.619211 
L 124.315015 95.883257 
L 114.286366 84.882551 
L 111.780893 86.536075 
L 102.066541 78.318256 
L 99.360715 80.359245 
L 102.625221 89.58919 
L 100.273501 91.607039 
L 70.514301 64.579122 
L 67.392087 67.618975 
L 54.805157 61.819239 
L 51.603932 65.354387 
L 91.31142 104.215893 
L 89.42519 106.582241 
L 77.00688 101.340687 
L 75.03732 104.158223 
L 56.229369 96.35462 
L 54.113308 99.827912 
L 48.053841 101.151426 
L 46.092645 104.879402 
L 41.459741 107.36358 
L 39.697129 111.295818 
L 58.839801 123.442773 
L 57.574161 126.820594 
L 37.361254 124.105055 
L 36.127057 128.157881 
L 17.111539 127.704356 
L 16.000523 132.392098 
L 46.81658 143.077344 
L 46.174238 146.823493 
L 63.223757 152.754189 
L 62.877565 155.979676 
L 40.346885 157.881274 
L 40.17321 161.823525 
L 15.488204 165.84676 
L 15.577272 170.566685 
L 73.428274 171.471164 
L 73.665539 174.366544 
L 62.541689 178.73783 
L 63.012816 181.971916 
L 66.608348 184.602481 
L 67.261862 187.705803 
L 39.701942 198.158571 
L 40.794992 202.101187 
L 21.533605 212.73955 
L 23.094096 217.246209 
L 41.235783 215.125336 
L 42.861548 219.011336 
L 77.988361 206.990605 
L 79.34018 209.725045 
L 50.47992 229.215973 
L 52.544154 232.80435 
L 76.768458 222.218756 
L 78.599687 224.984023 
L 77.41137 229.96464 
L 79.485829 232.705863 
L 47.350075 263.974439 
L 50.508739 267.644039 
L 95.157867 232.052507 
L 97.289198 234.234709 
L 63.803251 274.65233 
L 67.289516 277.799327 
L 91.383075 255.838552 
L 94.264158 258.127681 
L 103.065295 252.20433 
L 105.826334 254.127942 
L 105.368015 261.177551 
L 108.410053 263.024323 
L 123.653852 242.460278 
L 126.098337 243.741357 
L 132.804396 235.87114 
L 135.037179 236.867764 
L 112.914528 300.174439 
L 117.178983 301.764651 
L 138.857185 248.961726 
L 141.498573 249.761565 
L 131.935713 299.001764 
L 136.153892 299.994488 
L 138.007066 313.720854 
L 142.685043 314.515404 
L 149.710218 296.056887 
L 153.827015 296.492198 
L 156.97067 313.706099 
L 161.638806 313.904399 
L 166.169242 283.931652 
L 169.896657 283.85545 
L 173.515809 282.125888 
L 177.182814 281.819586 
L 181.33931 285.2147 
L 185.099566 284.660883 
L 193.723406 308.920808 
L 198.222911 307.965888 
L 200.54342 298.678132 
L 204.717501 297.513839 
L 193.874916 250.898538 
L 196.549999 249.967541 
L 205.222473 263.954115 
L 208.302441 262.659871 
L 202.061601 241.812519 
L 204.446952 240.628607 
L 215.779479 255.514778 
L 218.588876 253.892772 
L 208.451761 232.100654 
L 210.52859 230.720624 
L 248.571969 278.287661 
L 252.081182 275.623328 
L 233.772056 246.866932 
L 236.30065 244.683476 
L 239.289409 242.979905 
L 241.693059 240.624893 
L 229.918689 225.098202 
L 231.764732 223.046666 
L 269.896737 250.669414 
L 272.527028 247.348239 
L 281.930781 248.884772 
L 284.499009 245.186102 
L 274.55476 233.641612 
L 276.647357 230.182397 
L 243.438247 207.576519 
L 244.726685 205.108562 
L 299.02249 227.203274 
L 300.900554 222.977923 
L 239.508363 194.128892 
L 240.375921 191.791148 
L 291.053525 205.306681 
L 292.247053 201.342718 
L 314.226174 202.5778 
L 315.322442 197.886587 
L 298.857623 189.951482 
L 299.564491 185.749733 
L 251.983664 175.745735 
L 252.267047 173.02483 
L 262.456879 170.862572 
L 262.581547 167.81478 
L 319.578773 164.40627 
L 319.472198 159.565633 
L 297.708988 156.220889 
L 297.35586 152.071933 
L 254.898992 153.512407 
L 254.48187 150.71083 
L 304.580118 137.930497 
L 303.648503 133.574541 
L 281.737066 134.747258 
L 280.716657 131.111111 
L 277.390646 128.237035 
L 276.16769 124.740768 
L 300.535507 110.910569 
L 298.756326 106.695144 
L 296.151114 102.870215 
L 294.121294 98.79662 
L 298.685373 91.034297 
L 296.282153 86.886871 
L 232.268536 122.428031 
L 230.885242 120.353375 
L 268.477465 89.544209 
L 266.042329 86.347323 
L 281.790015 67.888051 
L 278.667379 64.283296 
L 261.496023 74.052131 
L 258.577234 71.082416 
L 230.985371 94.757861 
L 228.732701 92.737231 
L 247.821893 64.534074 
L 244.610596 61.99901 
L 252.073063 44.540111 
L 248.23101 41.881267 
L 235.336584 53.710668 
L 231.791149 51.573521 
L 226.716638 52.258281 
L 223.129798 50.392882 
L 202.065069 86.387339 
L 199.56351 85.280165 
L 194.247988 91.431173 
L 191.908883 90.567291 
L 195.352943 71.428529 
L 192.384364 70.539795 
L 189.017758 71.239055 
L 186.046355 70.549607 
L 192.884722 16.185098 
L 188.18039 15.401285 
L 178.290827 58.342965 
L 174.919246 57.997171 
L 173.486385 22.397652 
L 168.98698 22.220692 
L 164.581075 34.502657 
L 160.466682 34.599715 
L 159.242013 75.526529 
L 156.42014 75.771176 
L 146.118528 20.405903 
L 141.570029 21.090434 
L 138.097686 27.2029 
L 133.766866 28.136263 
L 138.157524 61.945502 
L 134.919058 62.859806 
L 118.541525 24.444145 
L 114.133632 25.993761 
L 123.662657 61.92621 
L 120.430751 63.296274 
L 119.912015 70.318031 
L 116.945821 71.801874 
L 126.076156 94.866462 
L 123.87877 96.144353 
L 113.781131 85.206939 
L 111.286108 86.876189 
L 101.520263 78.719631 
L 98.827326 80.777597 
L 102.149819 89.986827 
L 99.810837 92.019428 
L 69.882235 65.179213 
L 66.779201 68.238643 
L 54.156043 62.518187 
L 50.977116 66.073398 
L 90.928236 104.684398 
L 89.056926 107.062563 
L 76.605896 101.899217 
L 74.654094 104.729085 
L 55.797435 97.043927 
L 53.703262 100.530459 
L 47.652239 101.892057 
L 45.714528 105.632295 
L 41.09734 108.145562 
L 39.359494 112.088809 
L 58.578185 124.115127 
L 57.333815 127.500841 
L 37.104228 124.912483 
L 35.895546 128.972991 
L 16.877551 128.639073 
L 15.796041 133.33371 
L 46.678692 143.824928 
L 46.059924 147.575044 
L 63.146407 153.39839 
L 62.820507 156.625991 
L 40.302234 158.669256 
L 40.153356 162.612522 
L 15.494142 166.790932 
L 15.612894 171.510203 
L 73.468441 172.050814 
L 73.723911 174.944645 
L 62.627775 179.385807 
L 63.119233 182.616866 
L 66.731238 185.224765 
L 67.404257 188.323915 
L 39.910625 198.949813 
L 41.02845 202.885476 
L 21.834353 213.644772 
L 23.423157 218.141527 
L 41.551147 215.906596 
L 43.20132 219.782293 
L 78.251835 207.540872 
L 79.620825 210.266756 
L 50.883723 229.938813 
L 52.970485 233.514136 
L 77.127732 222.776394 
L 78.976317 225.530089 
L 77.819349 230.518082 
L 79.911007 233.246203 
L 47.972551 264.716277 
L 51.154232 268.365938 
L 95.578626 232.494293 
L 97.72364 234.663046 
L 64.492559 275.290475 
L 67.998548 278.415483 
L 91.95351 256.303608 
L 94.848933 258.574571 
L 103.612642 252.595984 
L 106.385724 254.502192 
L 105.971753 261.554544 
L 109.025346 263.382147 
L 124.139507 242.722633 
L 126.592001 243.988313 
L 133.248427 236.076074 
L 135.487435 237.058636 
L 113.763385 300.503197 
L 118.037756 302.066557 
L 139.38343 249.128332 
L 142.029796 249.911543 
L 132.776818 299.210913 
L 137.001157 300.177088 
L 138.940626 313.891527 
L 143.623507 314.656639 
L 150.532449 296.154303 
L 154.651903 296.563713 
L 157.903761 313.757501 
L 162.573053 313.926438 
L 166.914887 283.92579 
L 170.641749 283.826146 
L 174.249952 282.073855 
L 177.914958 281.744497 
L 182.092724 285.113401 
L 185.849423 284.535945 
L 194.625674 308.741152 
L 199.119084 307.757951 
L 201.381132 298.455784 
L 205.547808 297.265262 
L 194.412254 250.719076 
L 197.081428 249.771273 
L 205.841698 263.703025 
L 208.913466 262.389436 
L 202.541631 241.581747 
L 204.919489 240.382856 
L 216.345417 255.197458 
L 219.144557 253.557814 
L 208.870582 231.829884 
L 210.93869 230.436819 
L 249.280487 277.763644 
L 252.772874 275.077292 
L 234.283248 246.43662 
L 236.79806 244.237303 
L 239.776045 242.514968 
L 242.164835 240.144885 
L 230.293044 224.692555 
L 232.126147 222.62945 
L 270.43113 250.011823 
L 273.040481 246.67417 
L 282.453711 248.151529 
L 284.998626 244.436779 
L 274.981965 232.955061 
L 277.052765 229.482753 
L 243.702134 207.086188 
L 244.975024 204.610177 
L 299.408718 226.362962 
L 301.26017 222.125882 
L 239.687749 193.663544 
L 240.540587 191.320391 
L 291.302194 204.516922 
L 292.470767 200.545531 
L 314.457221 201.642352 
L 315.523962 196.944337 
L 299.009562 189.112943 
L 299.689989 184.906832 
L 252.047184 175.202288 
L 252.313449 172.479655 
L 262.489479 170.253352 
L 262.594976 167.204836 
L 319.569637 163.437912 
L 319.432619 158.598041 
L 297.648803 155.390243 
L 297.269587 151.24359 
L 254.822619 152.951064 
L 254.387885 150.152167 
L 304.404762 137.056997 
L 303.445768 132.706986 
L 281.54214 134.01749 
L 280.498882 130.387833 
L 277.154861 127.534733 
L 275.90994 124.046227 
L 300.19029 110.063041 
L 298.384631 105.858889 
L 295.755414 102.050421 
L 293.700014 97.989673 
L 298.215183 90.198798 
L 295.785925 86.06657 
L 231.997107 122.009636 
L 230.600792 119.943721 
L 267.9985 88.898731 
L 265.543305 85.717224 
L 281.174581 67.159272 
L 278.029336 63.574229 
L 260.91976 73.450868 
L 257.982351 70.49957 
L 230.539938 94.348084 
L 228.274604 92.341662 
L 247.186037 64.019002 
L 243.958859 61.504186 
L 251.311372 43.998697 
L 247.452673 41.36407 
L 234.632902 53.274336 
L 231.074095 51.15953 
L 226.003991 51.876192 
L 222.40549 50.033389 
L 201.567562 86.15962 
L 199.059089 85.068201 
L 193.782359 91.252519 
L 191.437867 90.403366 
L 194.761486 71.243321 
L 191.787377 70.373275 
L 188.425236 71.093695 
L 185.449555 70.422949 
L 191.945865 16.016506 
L 187.236696 15.262296 
L 177.617408 58.265327 
L 174.243719 57.940745 
L 172.586985 22.350942 
L 168.086556 22.202285 
L 163.757985 34.511717 
L 159.644283 34.634651 
L 158.677045 75.568357 
L 155.856766 75.830747 
L 145.207142 20.53136 
L 140.663039 21.244485 
L 137.229208 27.378669 
L 132.904344 28.339252 
L 137.507556 62.120208 
L 134.274904 63.054862 
L 117.656083 24.742966 
L 113.258024 26.320274 
L 123.012854 62.192081 
L 119.789629 63.582444 
L 119.315067 70.607325 
L 116.358264 72.109795 
L 125.633481 95.116501 
L 123.444176 96.408188 
L 113.277947 85.534499 
L 110.793471 87.219408 
L 100.976519 79.124433 
L 98.296579 81.199295 
L 101.676928 90.387447 
L 99.350776 92.434718 
L 69.253956 65.783269 
L 66.170226 68.862154 
L 53.511339 63.221203 
L 50.354835 66.796338 
L 90.548006 105.155304 
L 88.69169 107.545192 
L 76.208431 102.460258 
L 74.274467 105.302345 
L 55.369846 97.735938 
L 53.297642 101.235572 
L 47.255302 102.6352 
L 45.341154 106.387551 
L 40.739864 108.929808 
L 39.026853 112.883907 
L 58.320803 124.789112 
L 57.097751 128.182586 
L 36.852286 125.721512 
L 35.669165 129.789542 
L 16.649447 129.575242 
L 15.597485 134.276588 
L 46.545508 144.573365 
L 45.950339 148.327298 
L 63.073109 154.043064 
L 62.767516 157.272651 
L 40.262539 159.457503 
L 40.138465 163.401627 
L 15.506019 167.735047 
L 15.65445 172.453478 
L 73.512252 172.6302 
L 73.785918 175.522367 
L 62.717934 180.033229 
L 63.229704 183.261133 
L 66.85804 185.846263 
L 67.550537 188.941119 
L 40.124279 199.739727 
L 41.266836 203.668282 
L 22.140788 214.548085 
L 23.757843 219.034758 
L 41.871418 216.685856 
L 43.545934 220.551098 
L 78.518764 208.089472 
L 79.904872 210.806691 
L 51.292064 230.659099 
L 53.401272 234.221227 
L 77.490507 223.331762 
L 79.356374 226.073776 
L 78.230801 231.068947 
L 80.339576 233.783859 
L 48.59968 265.454185 
L 51.804253 269.083763 
L 96.002156 232.933423 
L 98.160767 235.088643 
L 65.185867 275.924272 
L 68.711442 279.027168 
L 92.526858 256.765067 
L 95.436507 259.017775 
L 104.162441 252.984187 
L 106.947457 254.872916 
L 106.577849 261.927733 
L 109.642876 263.736094 
L 124.626802 242.981929 
L 127.087208 244.232159 
L 133.693739 236.278212 
L 135.938882 237.246672 
L 114.614292 300.82661 
L 118.898412 302.363056 
L 139.910711 249.291626 
L 142.561951 250.058177 
L 133.619222 299.414768 
L 137.849553 300.354355 
L 139.87524 314.056324 
L 144.562841 314.791969 
L 151.355277 296.246546 
L 155.477224 296.630038 
L 158.837158 313.803034 
L 163.507419 313.9426 
L 167.660481 283.915238 
L 171.386642 283.792157 
L 174.983753 282.017207 
L 178.646615 281.664804 
L 182.845487 285.007365 
L 186.59848 284.406294 
L 195.526794 308.555824 
L 200.013931 307.544381 
L 202.217429 298.228171 
L 206.376535 297.011467 
L 194.948452 250.536238 
L 197.611613 249.571666 
L 206.459332 263.448046 
L 209.522777 262.115163 
L 203.0202 241.34796 
L 205.39047 240.134138 
L 216.909348 254.876584 
L 219.69812 253.219368 
L 209.287692 231.556485 
L 211.346998 230.150441 
L 249.985695 277.235181 
L 253.461117 274.526918 
L 234.791724 246.003101 
L 237.292653 243.78801 
L 240.259747 242.04698 
L 242.633584 239.661919 
L 230.664841 224.284562 
L 232.484932 222.209969 
L 270.961376 249.350883 
L 273.549684 245.996885 
L 282.97202 247.415011 
L 285.493521 243.684329 
L 275.404845 232.265836 
L 277.453764 228.780573 
L 243.962931 206.594208 
L 245.220224 204.11024 
L 299.789654 225.520237 
L 301.61442 221.271597 
L 239.864205 193.197078 
L 240.702289 190.848607 
L 291.545891 203.725616 
L 292.689462 199.746953 
L 314.68238 200.70547 
L 315.719553 196.000839 
L 299.156224 188.273466 
L 299.810183 184.063158 
L 252.107284 174.658453 
L 252.35642 171.934198 
L 262.518247 169.643938 
L 262.604568 166.594819 
L 319.554411 162.469632 
L 319.386956 157.630718 
L 297.583395 154.559991 
L 297.178107 150.415805 
L 254.742717 152.390213 
L 254.290388 149.594105 
L 304.223914 136.184616 
L 303.237581 131.840723 
L 281.342629 133.288963 
L 280.276562 129.665939 
L 276.914663 126.833927 
L 275.647825 123.35332 
L 299.839749 109.217701 
L 298.007685 105.024989 
L 295.354567 101.233133 
L 293.273667 97.185392 
L 297.739746 89.366274 
L 295.284547 85.249405 
L 231.723053 121.592957 
L 230.313772 119.535864 
L 267.515484 88.256278 
L 265.040328 85.090275 
L 280.554577 66.434379 
L 277.386845 62.869188 
L 260.339726 72.853242 
L 257.383813 69.920477 
L 230.091937 93.941116 
L 227.814028 91.948981 
L 246.546954 63.50794 
L 243.304023 61.01347 
L 250.546291 43.462085 
L 246.671098 40.851779 
L 233.926489 52.842438 
L 230.354452 50.750056 
L 225.288955 51.498593 
L 221.678935 49.678459 
L 201.068634 85.935034 
L 198.553346 84.859414 
L 193.315615 91.076797 
L 190.965829 90.242406 
L 194.168877 71.061836 
L 191.189355 70.210513 
L 187.831811 70.952065 
L 184.85197 70.300048 
L 191.005966 15.853823 
L 186.292147 15.129245 
L 176.943513 58.191925 
L 173.56785 57.888569 
L 171.687309 22.309889 
L 167.186034 22.18954 
L 162.934968 34.525953 
L 158.82212 34.674757 
L 158.112352 75.613738 
L 155.293779 75.89386 
L 144.296563 20.662547 
L 139.757035 21.404238 
L 136.361853 27.559898 
L 132.043116 28.547663 
L 136.8587 62.298998 
L 133.631991 63.253966 
L 116.772537 25.047351 
L 112.384486 26.652289 
L 122.364737 62.462033 
L 119.15032 63.872642 
L 118.71995 70.900368 
L 115.772655 72.421405 
L 125.192387 95.369321 
L 123.01125 96.674751 
L 112.776832 85.865217 
L 110.303003 87.565719 
L 100.435332 79.532646 
L 97.768495 81.624323 
L 101.206565 90.791032 
L 98.893335 92.852894 
L 68.629489 66.391263 
L 65.565183 69.489483 
L 52.871069 63.928261 
L 49.737113 67.523178 
L 90.170745 105.628593 
L 88.329497 108.030108 
L 75.814504 103.023787 
L 73.898453 105.877982 
L 54.946617 98.430623 
L 52.896464 101.943221 
L 46.863047 103.380825 
L 44.972537 107.145141 
L 40.387327 109.716287 
L 38.69922 113.681081 
L 58.067665 125.464703 
L 56.86598 128.865802 
L 36.605437 126.532109 
L 35.447925 130.6075 
L 16.427235 130.512827 
L 15.404862 135.220697 
L 46.417035 145.322624 
L 45.845487 149.080226 
L 63.003868 154.688187 
L 62.718593 157.919632 
L 40.227802 160.245985 
L 40.128538 164.190811 
L 15.523833 168.67907 
L 15.701937 173.396474 
L 73.559707 173.209299 
L 73.851558 176.099688 
L 62.812163 180.680072 
L 63.344224 183.904694 
L 66.988748 186.466952 
L 67.700697 189.557392 
L 40.342898 200.528281 
L 41.51014 204.449572 
L 22.452898 215.449452 
L 24.09814 219.925867 
L 42.196584 217.463087 
L 43.895377 221.317721 
L 78.789139 208.636381 
L 80.192309 211.344829 
L 51.704927 231.376803 
L 53.836497 234.925595 
L 77.856767 223.884837 
L 79.739843 226.615062 
L 78.645709 231.617213 
L 80.771517 234.318808 
L 49.231438 266.188134 
L 52.458775 269.797486 
L 96.428439 233.36988 
L 98.600562 235.511481 
L 65.883148 276.553697 
L 69.428168 279.634357 
L 93.103098 257.222911 
L 96.026857 259.457274 
L 104.71467 253.368924 
L 107.511511 255.2401 
L 107.186281 262.297102 
L 110.262621 264.08615 
L 125.115718 243.238155 
L 127.583938 244.472886 
L 134.140314 236.477545 
L 136.391503 237.431865 
L 115.467217 301.144665 
L 119.760915 302.654136 
L 140.43901 249.4516 
L 143.095018 250.201461 
L 134.462891 299.613321 
L 138.699048 300.526283 
L 140.810873 314.215241 
L 145.503008 314.921388 
L 152.178669 296.333611 
L 156.302946 296.691172 
L 159.770822 313.842696 
L 164.441869 313.952886 
L 168.405993 283.899997 
L 172.131307 283.753483 
L 175.717183 281.955944 
L 179.377756 281.580511 
L 183.597568 284.896598 
L 187.346706 284.271934 
L 196.42673 308.364832 
L 200.907418 307.325188 
L 203.052279 297.995304 
L 207.203649 296.752465 
L 195.48349 250.350031 
L 198.140531 249.368729 
L 207.07535 263.189187 
L 210.130352 261.837063 
L 203.497289 241.111169 
L 205.859878 239.882463 
L 217.47125 254.55217 
L 220.249544 252.877447 
L 209.703074 231.280468 
L 211.753496 229.8615 
L 250.687565 276.702294 
L 254.145885 273.972225 
L 235.297462 245.566392 
L 237.784411 243.335616 
L 240.740496 241.575959 
L 243.099285 239.176015 
L 231.034064 223.874239 
L 232.841071 221.788239 
L 271.487455 248.686622 
L 274.054617 245.316411 
L 283.485686 246.675248 
L 285.983673 242.92878 
L 275.823381 231.573966 
L 277.850339 228.075885 
L 244.220629 206.100597 
L 245.462274 203.60877 
L 300.165281 224.675134 
L 301.96329 220.415101 
L 240.037724 192.729511 
L 240.861021 190.375815 
L 291.784606 202.932792 
L 292.903131 198.947015 
L 314.901642 199.76719 
L 315.909205 195.056129 
L 299.297603 187.433083 
L 299.925069 183.218745 
L 252.163963 174.11425 
L 252.39596 171.388483 
L 262.543182 169.034356 
L 262.610324 165.984754 
L 319.533095 161.501466 
L 319.335209 156.663701 
L 297.512767 153.730167 
L 297.081422 149.588612 
L 254.659289 151.829876 
L 254.189383 149.036668 
L 304.037584 135.313391 
L 303.023949 130.975787 
L 281.138539 132.561705 
L 280.049707 128.945458 
L 276.670062 126.134646 
L 275.381359 122.662075 
L 299.483899 108.374583 
L 297.625501 104.193476 
L 294.948587 100.418381 
L 292.84227 96.383809 
L 297.259083 88.536756 
L 294.77804 84.435411 
L 231.446383 121.178009 
L 230.024192 119.129821 
L 267.028438 87.616875 
L 264.533418 84.466503 
L 279.930025 65.7134 
L 276.739933 62.168203 
L 259.755945 72.259276 
L 256.781645 69.345159 
L 229.641385 93.536974 
L 227.350992 91.559206 
L 245.904669 63.000907 
L 242.646114 60.526883 
L 249.77785 42.930295 
L 245.886316 40.344413 
L 233.217374 52.414991 
L 229.632248 50.345118 
L 224.571559 51.125498 
L 220.950163 49.328106 
L 200.568302 85.71359 
L 198.046299 84.653811 
L 192.847776 90.904013 
L 190.492788 90.084418 
L 193.575138 70.884082 
L 190.59032 70.051516 
L 187.237507 70.81417 
L 184.253624 70.180907 
L 190.065062 15.697054 
L 185.346779 15.002138 
L 176.26917 58.122764 
L 172.891665 57.840644 
L 170.787392 22.274496 
L 166.28545 22.18246 
L 162.112057 34.545366 
L 158.000226 34.720034 
L 157.547955 75.662669 
L 154.731199 75.960513 
L 143.386827 20.799459 
L 138.852054 21.569686 
L 135.495655 27.746578 
L 131.183215 28.761486 
L 136.210981 62.481867 
L 132.990342 63.457109 
L 115.890924 25.357286 
L 111.513053 26.989791 
L 121.71833 62.736057 
L 118.512849 64.166855 
L 118.126687 71.197149 
L 115.189017 72.736692 
L 124.752893 95.624909 
L 122.580009 96.944032 
L 112.277808 86.19908 
L 109.814723 87.915108 
L 99.896724 79.944256 
L 97.243095 82.052664 
L 100.73875 91.197569 
L 98.438534 93.273938 
L 68.008857 67.003173 
L 64.964099 70.120604 
L 52.235258 64.639331 
L 49.123974 68.253888 
L 89.796468 106.104245 
L 87.97036 108.517293 
L 75.424128 103.589783 
L 73.526066 106.455973 
L 54.527765 99.127957 
L 52.499746 102.65338 
L 46.47549 104.128902 
L 44.608692 107.905034 
L 40.039744 110.504967 
L 38.376606 114.4803 
L 57.818781 126.141873 
L 56.638511 129.550462 
L 36.363691 127.344243 
L 35.231834 131.426833 
L 16.210924 131.451792 
L 15.218182 136.165998 
L 46.293277 146.072677 
L 45.745373 149.833799 
L 62.938686 155.333733 
L 62.67374 158.566908 
L 40.198026 161.034669 
L 40.123574 164.980042 
L 15.547584 169.622961 
L 15.755355 174.339152 
L 73.610803 173.788088 
L 73.920827 176.676584 
L 62.910458 181.326309 
L 63.46279 184.547521 
L 67.123357 187.086807 
L 67.854729 190.172707 
L 40.566472 201.315445 
L 41.758354 205.229317 
L 22.770672 216.348839 
L 24.444035 220.814817 
L 42.526631 218.238257 
L 44.249634 222.08213 
L 79.062948 209.181579 
L 80.483124 211.881149 
L 52.122296 232.091896 
L 54.276143 235.627211 
L 78.226498 224.435598 
L 80.126708 227.153925 
L 79.064057 232.162859 
L 81.206815 234.851031 
L 49.867799 266.918095 
L 53.117773 270.507077 
L 96.857458 233.803648 
L 99.043009 235.931545 
L 66.584373 277.178723 
L 70.148699 280.237026 
L 93.682205 257.677121 
L 96.61996 259.893052 
L 105.269309 253.750181 
L 108.077863 255.603729 
L 107.797024 262.662637 
L 110.884555 264.432301 
L 125.606236 243.491301 
L 128.082174 244.710484 
L 134.588133 236.674065 
L 136.84528 237.614207 
L 116.322125 301.45735 
L 120.625232 302.939785 
L 140.968304 249.608248 
L 143.628976 250.34139 
L 135.307792 299.806563 
L 139.549607 300.692864 
L 141.747486 314.368269 
L 146.44397 315.044892 
L 153.002593 296.415496 
L 157.129037 296.74711 
L 160.704717 313.876485 
L 165.376365 313.957294 
L 169.151395 283.880068 
L 172.875714 283.710126 
L 176.450213 281.89007 
L 180.108353 281.491621 
L 184.348938 284.781102 
L 188.094073 284.132871 
L 197.325448 308.168184 
L 201.799508 307.10038 
L 203.885647 297.75719 
L 208.029119 296.488266 
L 196.017346 250.160463 
L 198.668163 249.162469 
L 207.689728 262.926459 
L 210.736165 261.555147 
L 203.97288 240.871381 
L 206.327694 239.62784 
L 218.0311 254.224228 
L 220.798806 252.532064 
L 210.116712 231.001844 
L 212.158169 229.570008 
L 251.38607 276.165002 
L 254.827151 273.413236 
L 235.800445 245.126511 
L 238.273313 242.880138 
L 241.218273 241.101924 
L 243.561921 238.687192 
L 231.400699 223.461602 
L 233.194551 221.364278 
L 272.009346 248.019065 
L 274.55526 244.632774 
L 283.994689 245.932268 
L 286.469064 242.170164 
L 276.237557 230.879477 
L 278.242474 227.368717 
L 244.475217 205.605375 
L 245.701165 203.105789 
L 300.535586 223.827684 
L 302.306766 219.556427 
L 240.208298 192.260861 
L 241.016775 189.902034 
L 292.018329 202.138482 
L 293.111764 198.14575 
L 315.114999 198.82755 
L 316.092912 194.110245 
L 299.433694 186.591828 
L 300.034642 182.373627 
L 252.217218 173.569702 
L 252.432067 170.842529 
L 262.564282 168.424628 
L 319.581818 165.374665 
z
" clip-path="url(#p6610cc69e0)" style="fill: #0000ff; opacity: 0.5; stroke: #000000; stroke-width: 1.5; stroke-linejoin: miter"/>
   </g>
  </g>
 </g>
 <defs>
  <clipPath id="p6610cc69e0">
   <rect x="0" y="0" width="334.8" height="330.04703"/>
  </clipPath>
 </defs>
</svg>
