<?xml version="1.0" encoding="utf-8" standalone="no"?>
<!DOCTYPE svg PUBLIC "-//W3C//DTD SVG 1.1//EN"
  "http://www.w3.org/Graphics/SVG/1.1/DTD/svg11.dtd">
<svg xmlns:xlink="http://www.w3.org/1999/xlink" width="330.071469pt" height="332.64pt" viewBox="0 0 330.071469 332.64" xmlns="http://www.w3.org/2000/svg" version="1.1">
 <metadata>
  <rdf:RDF xmlns:dc="http://purl.org/dc/elements/1.1/" xmlns:cc="http://creativecommons.org/ns#" xmlns:rdf="http://www.w3.org/1999/02/22-rdf-syntax-ns#">
   <cc:Work>
    <dc:type rdf:resource="http://purl.org/dc/dcmitype/StillImage"/>
    <dc:date>2023-12-09T18:06:18.448534</dc:date>
    <dc:format>image/svg+xml</dc:format>
    <dc:creator>
     <cc:Agent>
      <dc:title>Matplotlib v3.8.2, https://matplotlib.org/</dc:title>
     </cc:Agent>
    </dc:creator>
   </cc:Work>
  </rdf:RDF>
 </metadata>
 <defs>
  <style type="text/css">*{stroke-linejoin: round; stroke-linecap: butt}</style>
 </defs>
 <g id="figure_1">
  <g id="patch_1">
   <path d="M 0 332.64 
L 330.071469 332.64 
L 330.071469 0 
L 0 0 
L 0 332.64 
z
" style="fill: none"/>
  </g>
  <g id="axes_1">
   <g id="patch_2">
    <path d="M 287.11823 167.099359 
L 287.059202 163.345551 
L 299.866637 158.777723 
L 299.539655 154.627192 
L 280.860131 152.793322 
L 280.354384 149.243356 
L 315.06822 138.964398 
L 314.110748 134.345692 
L 276.689052 139.094371 
L 275.754642 135.682326 
L 264.524575 135.615444 
L 263.486794 132.587597 
L 241.72209 137.771764 
L 240.763383 135.459811 
L 279.887322 114.262101 
L 278.170549 110.761773 
L 254.889962 119.125986 
L 253.33848 116.409225 
L 246.534855 117.026082 
L 244.921478 114.573063 
L 277.888032 86.959418 
L 275.313792 83.535451 
L 259.667685 90.935215 
L 257.227462 88.08217 
L 230.169272 108.376828 
L 228.292035 106.442654 
L 254.620191 74.419635 
L 251.663177 71.73346 
L 265.191517 49.077949 
L 261.432477 46.071918 
L 216.249711 100.185911 
L 214.121817 98.693449 
L 209.082104 101.794696 
L 207.008337 100.526803 
L 223.662266 65.101915 
L 220.427589 63.393732 
L 224.617341 45.852842 
L 220.776958 44.124147 
L 216.884121 42.517057 
L 212.942677 41.03316 
L 193.408474 87.731517 
L 190.900279 86.963391 
L 201.812627 33.627129 
L 197.599117 32.621508 
L 189.796982 50.547547 
L 186.121427 49.911359 
L 179.393456 73.692122 
L 176.450761 73.371601 
L 173.82775 67.796696 
L 170.702442 67.654087 
L 167.511622 27.813998 
L 163.132293 27.88975 
L 157.919363 15.12 
L 153.14565 15.503631 
L 153.732766 57.788024 
L 150.302699 58.282195 
L 147.613503 62.641448 
L 144.339064 63.325621 
L 132.462365 30.771314 
L 128.19335 31.94763 
L 120.633319 23.073979 
L 116.128132 24.626032 
L 138.286729 93.154104 
L 135.976286 94.116446 
L 129.44307 86.157406 
L 126.917008 87.401271 
L 107.037559 57.239805 
L 103.613343 59.202446 
L 96.960914 56.10946 
L 93.506139 58.389491 
L 115.391788 95.393596 
L 113.16308 97.074698 
L 106.585911 93.527898 
L 104.302895 95.486798 
L 96.830757 91.949884 
L 94.502947 94.216287 
L 97.838889 101.780287 
L 95.819671 104.010132 
L 74.372768 90.251957 
L 72.002676 93.225328 
L 82.132737 105.23727 
L 80.229979 107.959242 
L 86.180433 115.640535 
L 84.602775 118.230094 
L 62.958912 109.860507 
L 61.210999 113.18306 
L 52.634944 113.319157 
L 51.000883 116.964608 
L 63.729044 126.254782 
L 62.496222 129.545015 
L 24.941719 121.150816 
L 23.567595 125.66313 
L 44.590304 135.861767 
L 43.669009 139.749014 
L 82.735409 151.145901 
L 82.275821 153.826225 
L 15.819314 148.374252 
L 15.305664 153.159935 
L 74.530018 161.523985 
L 74.400797 164.457173 
L 23.088676 167.554222 
L 23.174492 172.101857 
L 33.330534 175.987998 
L 33.676464 180.209437 
L 58.44144 181.269084 
L 58.941003 184.698369 
L 91.852636 181.836166 
L 92.353509 184.21465 
L 26.273931 203.931819 
L 27.501964 208.361316 
L 26.687586 213.467038 
L 28.215223 217.878815 
L 29.170254 222.52461 
L 30.981454 226.853848 
L 95.835829 201.245833 
L 96.945016 203.48948 
L 92.769859 208.666203 
L 94.113874 211.002582 
L 42.670012 247.117756 
L 45.247799 251.010372 
L 98.577023 217.742211 
L 100.203537 219.891512 
L 67.216517 250.903484 
L 69.9012 254.022432 
L 104.365291 227.070071 
L 106.282231 229.032765 
L 90.001388 250.532636 
L 92.663144 252.935362 
L 85.20476 267.677577 
L 88.407962 270.222642 
L 111.818111 244.721693 
L 114.286372 246.441327 
L 101.734229 272.053513 
L 105.066848 274.076692 
L 121.266506 252.467448 
L 123.973639 253.886173 
L 127.369814 253.831367 
L 130.116814 255.057517 
L 139.031022 240.515558 
L 141.353578 241.381638 
L 121.306803 312.146989 
L 125.890372 313.53494 
L 132.946466 305.130734 
L 137.303673 306.156177 
L 140.850979 311.558461 
L 145.406379 312.332191 
L 150.446011 309.163793 
L 154.921374 309.637019 
L 159.854389 302.329192 
L 164.110206 302.509977 
L 168.409312 310.975123 
L 172.932746 310.882647 
L 177.916374 317.52 
L 182.640892 317.125366 
L 178.885169 252.084628 
L 181.551776 251.691886 
L 193.765572 300.032894 
L 197.932421 299.148572 
L 202.457413 299.614287 
L 206.606803 298.456881 
L 196.068508 252.843976 
L 198.750496 251.910576 
L 209.39158 270.776621 
L 212.630822 269.415449 
L 233.284821 304.56439 
L 237.574611 302.435256 
L 232.118539 282.785881 
L 235.724142 280.704185 
L 232.233364 267.562269 
L 235.360246 265.484491 
L 227.544926 248.507875 
L 230.075014 246.586931 
L 263.967852 282.157339 
L 267.537944 279.074542 
L 257.836037 262.005806 
L 260.775553 259.125771 
L 255.772219 248.863651 
L 258.299537 246.055004 
L 276.139673 255.765682 
L 278.873936 252.313225 
L 249.792552 226.014021 
L 251.604384 223.404685 
L 241.660189 213.425084 
L 243.080219 211.077672 
L 288.155405 232.398892 
L 290.149024 228.580188 
L 241.333097 201.209643 
L 242.369208 198.878555 
L 296.822703 217.329733 
L 298.338229 213.24596 
L 301.912349 209.812972 
L 303.189015 205.572886 
L 299.877349 200.179688 
L 300.85213 196.00835 
L 306.210935 192.641315 
L 306.945561 188.274562 
L 311.341761 184.343052 
L 311.812935 179.819078 
L 271.645425 172.987775 
L 271.779192 169.717555 
L 287.115869 166.348479 
L 287.033232 162.595117 
L 299.811686 157.946827 
L 299.458605 153.798434 
L 280.767917 152.082084 
L 280.239852 148.535369 
L 314.888353 138.038284 
L 313.901851 133.425692 
L 276.510762 138.409638 
L 275.55491 135.003537 
L 264.324645 135.007287 
L 263.267841 131.986027 
L 241.536173 137.306979 
L 240.562944 135.001102 
L 279.552787 113.557744 
L 277.814033 110.068283 
L 254.586513 118.578752 
L 253.017975 115.871802 
L 246.218363 116.531439 
L 244.589591 114.088615 
L 277.381819 86.268175 
L 274.786095 82.860467 
L 259.186838 90.358489 
L 256.728718 87.520848 
L 229.798705 107.985285 
L 227.909341 106.062957 
L 254.03557 73.874982 
L 251.06172 71.207459 
L 264.447301 48.46731 
L 260.66943 45.484981 
L 215.827904 99.882077 
L 213.690665 98.403027 
L 208.670557 101.53591 
L 206.588857 100.281085 
L 223.019654 64.752154 
L 219.774297 63.064349 
L 223.853644 45.497455 
L 220.002465 43.792948 
L 216.099596 42.210373 
L 212.148898 40.751296 
L 192.908787 87.571588 
L 190.395811 86.819252 
L 200.972488 33.415412 
L 196.752737 32.436312 
L 189.0635 50.411067 
L 185.384017 49.798009 
L 178.805746 73.620617 
L 175.861094 73.31861 
L 173.203072 67.760313 
L 170.076929 67.637363 
L 166.6356 27.81813 
L 162.256835 27.921425 
L 156.963693 15.184713 
L 152.192487 15.59836 
L 153.045536 57.878225 
L 149.618645 58.393959 
L 146.95692 62.770039 
L 143.686849 63.474794 
L 131.605637 30.995828 
L 127.344105 32.19897 
L 119.728413 23.373043 
L 115.233076 24.9534 
L 137.822238 93.340752 
L 135.517893 94.317606 
L 128.934748 86.399814 
L 126.41656 87.659542 
L 106.347805 57.623703 
L 102.936 59.607841 
L 96.26425 56.556757 
L 92.823884 58.858472 
L 114.941835 95.724196 
L 112.723744 97.419282 
L 106.124397 93.913919 
L 103.853747 95.887139 
L 96.359511 92.39729 
L 94.046003 94.67829 
L 97.429452 102.221159 
L 95.424298 104.463659 
L 73.891288 90.840645 
L 71.539944 93.828864 
L 81.745353 105.776856 
L 79.859752 108.510741 
L 85.858399 116.154457 
L 84.297059 118.753888 
L 62.600984 110.520594 
L 60.874003 113.854074 
L 52.298973 114.044107 
L 50.687872 117.699763 
L 63.474211 126.909701 
L 62.262108 130.207622 
L 24.655553 122.049786 
L 23.309836 126.570654 
L 44.396272 136.636868 
L 43.499445 140.529832 
L 82.636752 151.680788 
L 82.194031 154.36395 
L 15.704548 149.330059 
L 15.221008 154.118877 
L 74.496795 162.110275 
L 74.386025 165.044217 
L 23.094397 168.463929 
L 23.208814 173.010934 
L 33.389097 176.833122 
L 33.76157 181.052302 
L 58.532721 181.95617 
L 59.053842 185.382246 
L 91.946823 182.313104 
L 92.462646 184.688391 
L 26.508384 204.820773 
L 27.764252 209.242459 
L 26.982002 214.353201 
L 28.537356 218.755283 
L 29.521588 223.39498 
L 31.35998 227.712741 
L 96.052013 201.697335 
L 97.175289 203.933962 
L 93.032773 209.136841 
L 94.391456 211.464721 
L 43.175756 247.902734 
L 45.777975 251.77906 
L 98.896906 218.176146 
L 100.536905 220.315175 
L 67.745586 251.534003 
L 70.449832 254.636005 
L 104.743726 227.467417 
L 106.672972 229.418016 
L 90.527673 251.019859 
L 93.204489 253.405797 
L 85.838972 268.194629 
L 89.058118 270.719497 
L 112.307417 245.071816 
L 114.786445 246.775892 
L 102.395637 272.466517 
L 105.740914 274.468696 
L 121.804342 252.757992 
L 124.520344 254.159663 
L 127.916108 254.083498 
L 130.670765 255.292346 
L 139.493336 240.694611 
L 141.821293 241.546066 
L 122.219989 312.4361 
L 126.812196 313.795195 
L 133.815293 305.346776 
L 138.178863 306.344795 
L 141.760076 311.724662 
L 146.320253 312.469726 
L 151.339858 309.269694 
L 155.818109 309.714763 
L 160.705064 302.376054 
L 164.961933 302.530069 
L 169.314196 310.968009 
L 173.836958 310.847085 
L 178.862233 317.452962 
L 183.584176 317.028621 
L 179.419457 252.012792 
L 182.083542 251.603286 
L 194.601133 299.86652 
L 198.762338 298.956008 
L 203.29017 299.393254 
L 207.432199 298.209774 
L 196.607233 252.664051 
L 199.283297 251.713801 
L 210.042827 270.512547 
L 213.273444 269.131028 
L 234.148101 304.149372 
L 238.424415 301.9933 
L 232.844868 282.378629 
L 236.437307 280.274297 
L 232.863943 267.154597 
L 235.977695 265.057193 
L 228.055756 248.130066 
L 230.573713 246.193248 
L 264.689598 281.549786 
L 268.240231 278.444596 
L 258.431162 261.437217 
L 261.352506 258.538751 
L 256.284728 248.308302 
L 258.794332 245.483815 
L 276.69519 255.082097 
L 279.407685 251.612511 
L 250.161469 225.496733 
L 251.956854 222.876053 
L 241.950089 212.959192 
L 243.355327 210.602896 
L 288.56372 231.640197 
L 290.533282 227.809029 
L 241.546176 200.74605 
L 242.567605 198.408492 
L 297.13607 216.516823 
L 298.625882 212.423599 
L 302.178339 208.9682 
L 303.428313 204.720169 
L 300.082792 199.347906 
L 301.031318 195.170519 
L 306.36884 191.769847 
L 307.075988 187.39856 
L 311.447373 183.439478 
L 311.890085 178.91263 
L 271.680405 172.334093 
L 271.793601 169.063097 
L 287.108785 165.597628 
L 287.002543 161.84486 
L 299.751509 157.116293 
L 299.372345 152.970203 
L 280.671231 151.371441 
L 280.12087 147.828117 
L 314.702665 137.11332 
L 313.687171 132.507023 
L 276.328168 137.72604 
L 275.350913 134.326018 
L 264.120893 134.400401 
L 263.045108 131.385847 
L 241.347336 136.843374 
L 240.359623 134.543663 
L 279.213829 112.855505 
L 277.453163 109.377049 
L 254.279628 118.033437 
L 252.694096 115.336407 
L 245.898767 116.038796 
L 244.254663 113.606264 
L 276.871268 85.58013 
L 274.254162 82.188815 
L 258.702372 89.784799 
L 256.226454 86.962675 
L 229.425684 107.596082 
L 227.524267 105.685674 
L 253.447534 73.334017 
L 250.456966 70.68525 
L 263.69926 47.861363 
L 259.902706 44.902854 
L 215.404194 99.580902 
L 213.257695 98.115324 
L 208.25739 101.279718 
L 206.167839 100.038011 
L 222.374854 64.406441 
L 219.118946 62.739081 
L 223.087727 45.146879 
L 219.225903 43.466627 
L 215.313159 41.90863 
L 211.353362 40.474429 
L 192.408104 87.414805 
L 189.890446 86.678289 
L 200.131035 33.208984 
L 195.905208 32.256443 
L 188.329175 50.279203 
L 184.645909 49.689299 
L 178.217599 73.55281 
L 175.271106 73.269329 
L 172.578177 67.727859 
L 169.451323 67.624573 
L 165.759622 27.827772 
L 161.381592 27.958605 
L 156.008449 15.255436 
L 151.239939 15.699083 
L 152.358888 57.972746 
L 148.935308 58.510023 
L 146.301159 62.902758 
L 143.035585 63.628065 
L 130.750337 31.225726 
L 126.496456 32.455647 
L 118.825405 23.677792 
L 114.340097 25.286391 
L 137.358929 93.530318 
L 135.060774 94.521645 
L 128.427961 86.645414 
L 125.917745 87.920955 
L 105.66048 58.011931 
L 102.261221 60.017489 
L 95.570413 57.008426 
L 92.144591 59.331733 
L 114.49397 96.05762 
L 112.286583 97.766622 
L 105.665321 94.302834 
L 103.407126 96.290296 
L 95.891089 92.847652 
L 93.591972 95.143156 
L 97.022795 102.664596 
L 95.031785 104.919664 
L 73.41352 91.432349 
L 71.081016 94.435298 
L 81.361369 106.318867 
L 79.493001 109.064558 
L 85.539604 116.670395 
L 83.994644 119.279594 
L 62.247215 111.182919 
L 60.541234 114.527195 
L 51.967569 114.771156 
L 50.379492 118.436873 
L 63.223503 127.56621 
L 62.032166 130.871689 
L 24.375047 122.950538 
L 23.05779 127.47978 
L 44.20712 137.413174 
L 43.334795 141.311701 
L 82.541461 152.216285 
L 82.115624 154.902178 
L 15.595796 150.286568 
L 15.142385 155.078333 
L 74.467261 162.696761 
L 74.374946 165.631343 
L 23.10584 169.373582 
L 23.248853 173.919777 
L 33.452974 177.677862 
L 33.851976 181.894615 
L 58.628322 182.642669 
L 59.170981 186.0654 
L 92.044007 182.78944 
L 92.574759 185.161436 
L 26.748424 205.708235 
L 28.032077 210.121935 
L 27.281986 215.237496 
L 28.864996 219.629708 
L 29.87839 224.263123 
L 31.743901 228.569236 
L 96.271032 202.147469 
L 97.408353 204.376986 
L 93.298642 209.605817 
L 94.67194 211.925105 
L 43.686427 248.684515 
L 46.312974 252.544398 
L 99.219511 218.608061 
L 100.872932 220.736733 
L 68.27861 252.161182 
L 71.002312 255.246115 
L 105.124653 227.862375 
L 107.066129 229.800801 
L 91.057013 251.503762 
L 93.748782 253.872817 
L 86.476424 268.707681 
L 89.711386 271.212253 
L 112.798916 245.418855 
L 115.288612 247.107305 
L 103.059629 272.875353 
L 106.417433 274.856453 
L 122.343995 253.045148 
L 125.068759 254.42971 
L 128.463976 254.332188 
L 131.226182 255.523688 
L 139.956767 240.870752 
L 142.290033 241.707548 
L 123.134975 312.719461 
L 127.735639 314.049648 
L 134.685461 305.55735 
L 139.055223 306.527905 
L 142.670201 311.885141 
L 147.234974 312.60151 
L 152.234353 309.369971 
L 156.715314 309.786865 
L 161.556017 302.417566 
L 165.81377 302.544804 
L 170.219017 310.955203 
L 174.740929 310.805837 
L 179.807652 317.379977 
L 184.526833 316.925946 
L 179.953283 251.937596 
L 182.61474 251.511343 
L 195.435632 299.694893 
L 199.591028 298.758229 
L 204.121521 299.166988 
L 208.256024 297.957481 
L 197.144815 252.480741 
L 199.814849 251.513679 
L 210.692401 270.244382 
L 213.914265 268.842572 
L 235.008754 303.728933 
L 239.271423 301.546008 
L 233.568622 281.966817 
L 237.147754 279.839933 
L 233.491946 266.742966 
L 236.592445 264.62602 
L 228.5642 247.749053 
L 231.069926 245.796437 
L 265.407508 280.937705 
L 268.938541 277.810245 
L 259.0227 260.864896 
L 261.925757 257.948113 
L 256.793735 247.74974 
L 259.285524 244.909525 
L 277.246396 254.395031 
L 279.937016 250.908454 
L 250.527125 224.977134 
L 252.305992 222.345215 
L 242.237054 212.491487 
L 243.627444 210.126399 
L 288.967256 230.878949 
L 290.912683 227.035469 
L 241.756335 200.281127 
L 242.763042 197.937191 
L 297.444318 215.701959 
L 298.908357 211.599446 
L 302.439011 208.121772 
L 303.662242 203.865963 
L 300.282999 198.514848 
L 301.205233 194.331578 
L 306.521262 190.897403 
L 307.200902 186.521755 
L 311.547301 182.535258 
L 311.961532 178.005715 
L 271.711272 171.680205 
L 271.803893 168.408561 
L 287.096979 164.846837 
L 286.967136 161.094811 
L 299.68611 156.286154 
L 299.280877 152.142531 
L 280.570077 150.66142 
L 279.997442 147.121627 
L 314.511163 136.189543 
L 313.466718 131.589724 
L 276.141279 137.043604 
L 275.142658 133.649796 
L 263.913329 133.794807 
L 262.818605 130.787079 
L 241.155587 136.380965 
L 240.15343 134.087511 
L 278.870461 112.155412 
L 277.087952 108.688098 
L 253.969319 117.490063 
L 252.366856 114.803058 
L 245.576079 115.548172 
L 243.916708 113.126029 
L 276.356399 84.89531 
L 273.718016 81.520522 
L 258.214308 89.214168 
L 255.720689 86.407671 
L 229.050222 107.209232 
L 227.136827 105.310821 
L 252.856108 72.796761 
L 249.848939 70.166855 
L 262.947422 47.260133 
L 259.132337 44.32556 
L 214.978598 99.282398 
L 212.822924 97.830349 
L 207.842621 101.026129 
L 205.745301 99.797589 
L 221.727893 64.064791 
L 218.461563 62.417942 
L 222.31962 44.801126 
L 218.447305 43.145196 
L 214.524839 41.611839 
L 210.5561 40.202571 
L 191.906446 87.261174 
L 189.384205 86.540507 
L 199.288299 33.007852 
L 195.056566 32.081908 
L 187.594035 50.151961 
L 183.907132 49.585234 
L 177.629037 73.488703 
L 174.680819 73.223759 
L 171.953091 67.699336 
L 168.825649 67.615719 
L 164.883721 27.842923 
L 160.506602 28.001288 
L 155.053669 15.332165 
L 150.288043 15.805794 
L 151.672847 58.071584 
L 148.252715 58.630382 
L 145.646245 63.039598 
L 142.385297 63.785429 
L 129.8965 31.460998 
L 125.650439 32.717649 
L 117.924332 23.988215 
L 113.44923 25.624992 
L 136.896822 93.722794 
L 134.604947 94.728556 
L 127.922729 86.894197 
L 125.420585 88.1855 
L 104.975609 58.404475 
L 101.589032 60.431372 
L 94.879431 57.46445 
L 91.468289 59.809258 
L 114.04821 96.393853 
L 111.851616 98.116705 
L 105.2087 94.69463 
L 102.963049 96.696255 
L 95.425509 93.30095 
L 93.140875 95.61087 
L 96.618935 103.110583 
L 94.642148 105.378128 
L 72.939483 92.027047 
L 70.625912 95.044606 
L 80.980803 106.863283 
L 79.12974 109.62067 
L 85.22406 117.188327 
L 83.695541 119.807192 
L 61.897619 111.847456 
L 60.212705 115.202395 
L 51.640744 115.500275 
L 50.075754 119.175908 
L 62.976929 128.224282 
L 61.806405 131.537189 
L 24.100211 123.853037 
L 22.811467 128.390474 
L 44.022854 138.190654 
L 43.175065 142.09459 
L 82.44954 152.752371 
L 82.040604 155.440889 
L 15.493062 151.243742 
L 15.069797 156.038265 
L 74.441416 163.283422 
L 74.367559 166.218526 
L 23.123004 170.283145 
L 23.294608 174.828351 
L 33.522163 178.522183 
L 33.947678 182.736344 
L 58.728238 183.328554 
L 59.292414 186.747804 
L 92.144186 183.265156 
L 92.689846 185.633767 
L 26.99404 206.594169 
L 28.305428 210.999709 
L 27.587525 216.119886 
L 29.198128 220.502055 
L 30.240644 225.129005 
L 32.133202 229.4233 
L 96.492879 202.596216 
L 97.644199 204.818536 
L 93.567456 210.073111 
L 94.955313 212.383717 
L 44.202005 249.463069 
L 46.852776 253.306357 
L 99.544827 219.037938 
L 101.211603 221.15617 
L 68.815567 252.784997 
L 71.558618 255.852738 
L 105.508056 228.254929 
L 107.461685 230.181106 
L 91.589385 251.984326 
L 94.296001 254.336404 
L 87.11709 269.216714 
L 90.36774 271.700891 
L 113.292587 245.762795 
L 115.792854 247.435553 
L 103.726179 273.280005 
L 107.096377 275.239947 
L 122.885443 253.328905 
L 125.618861 254.696301 
L 129.013398 254.577428 
L 131.783043 255.751531 
L 140.421296 241.043974 
L 142.75978 241.866079 
L 124.051725 312.997063 
L 128.660664 314.298287 
L 135.556937 305.762447 
L 139.932716 306.705499 
L 143.581317 312.039893 
L 148.150505 312.727538 
L 153.129461 309.46462 
L 157.612956 309.853323 
L 162.407214 302.453724 
L 166.665683 302.554181 
L 171.123739 310.936708 
L 175.644623 310.758904 
L 180.752593 317.301047 
L 185.468825 316.817344 
L 180.486626 251.859045 
L 183.145349 251.416061 
L 196.269035 299.518022 
L 200.418458 298.555241 
L 204.951432 298.935498 
L 209.078246 297.700011 
L 197.681234 252.294053 
L 200.345133 251.310218 
L 211.340275 269.972136 
L 214.553259 268.55009 
L 235.866746 303.30309 
L 240.115602 301.093398 
L 234.289771 281.550462 
L 237.855456 279.401109 
L 234.117347 266.327394 
L 237.20447 264.190989 
L 229.070238 247.364849 
L 231.563633 245.396512 
L 266.121555 280.321121 
L 269.632848 277.171515 
L 259.610627 260.288866 
L 262.495281 257.353883 
L 257.299219 247.187989 
L 259.773095 244.332158 
L 277.79327 253.704513 
L 280.461908 250.201082 
L 250.889505 224.455247 
L 252.651784 221.812191 
L 242.521071 212.021986 
L 243.896558 209.6482 
L 289.365995 230.115178 
L 291.287211 226.259539 
L 241.963565 199.814891 
L 242.95551 197.464669 
L 297.747436 214.885172 
L 299.185642 210.773532 
L 302.694355 207.273721 
L 303.890795 203.010303 
L 300.477963 197.680547 
L 301.373868 193.49156 
L 306.668193 190.024018 
L 307.3203 185.644182 
L 311.641539 181.630428 
L 312.027275 177.098369 
L 271.738027 171.026135 
L 271.810069 167.753973 
L 287.080451 164.096135 
L 286.927013 160.345 
L 299.615491 155.456442 
L 299.184205 151.31545 
L 280.46446 149.952048 
L 279.869573 146.415928 
L 314.313855 135.266988 
L 313.2405 130.673829 
L 275.950101 136.362357 
L 274.930155 132.974897 
L 263.70196 133.190531 
L 262.588341 130.189748 
L 240.960933 135.919771 
L 239.944371 133.632666 
L 278.522696 111.457492 
L 276.718415 108.001458 
L 253.655599 116.948652 
L 252.036268 114.271779 
L 245.250312 115.059588 
L 243.57574 112.647929 
L 275.837234 84.213741 
L 273.177677 80.855614 
L 257.722665 88.646617 
L 255.211444 85.855859 
L 228.672334 106.824751 
L 226.747037 104.938411 
L 252.261315 72.263235 
L 249.237665 69.652295 
L 262.191818 46.663644 
L 258.358351 43.753124 
L 214.551134 98.986576 
L 212.386369 97.548114 
L 207.426264 100.775154 
L 205.321259 99.559829 
L 221.078796 63.727217 
L 217.802173 62.100944 
L 221.549354 44.460211 
L 217.666701 42.828669 
L 213.734668 41.320012 
L 209.757144 39.935733 
L 191.40383 87.1107 
L 188.877107 86.405912 
L 198.444316 32.812024 
L 194.206842 31.912714 
L 186.85811 50.029344 
L 183.167715 49.485817 
L 177.040083 73.428299 
L 174.090257 73.181903 
L 171.327838 67.674745 
L 168.199931 67.610799 
L 164.007934 27.863583 
L 159.631896 28.049475 
L 154.09939 15.414898 
L 149.336838 15.918491 
L 150.987442 58.174735 
L 147.570891 58.755033 
L 144.992205 63.180554 
L 141.736013 63.94688 
L 129.04416 31.701636 
L 124.806087 32.984968 
L 117.025229 24.304299 
L 112.56051 25.96919 
L 136.435935 93.918172 
L 134.150431 94.938329 
L 127.419071 87.146153 
L 124.925099 88.453167 
L 104.293221 58.801318 
L 100.919459 60.849475 
L 94.19133 57.924812 
L 90.795003 60.291027 
L 113.604574 96.732884 
L 111.41886 98.469517 
L 104.754552 95.089289 
L 102.521534 97.104999 
L 94.962789 93.757168 
L 92.692728 96.081411 
L 96.217889 103.559101 
L 94.255402 105.839034 
L 72.469195 92.624714 
L 70.174649 95.656765 
L 80.603668 107.410082 
L 78.769984 110.179056 
L 84.911779 117.708234 
L 83.399762 120.33666 
L 61.552209 112.514178 
L 59.888429 115.879649 
L 51.318511 116.231435 
L 49.776669 119.916838 
L 62.734499 128.883893 
L 61.584834 132.204096 
L 23.831057 124.757246 
L 22.570876 129.302699 
L 43.843481 138.969277 
L 43.020263 142.878469 
L 82.360992 153.289025 
L 81.968974 155.980062 
L 15.39635 152.201544 
L 15.003249 156.998633 
L 74.419261 163.870234 
L 74.363866 166.805744 
L 23.145889 171.192582 
L 23.346075 175.736619 
L 33.59666 179.366052 
L 34.048672 183.577453 
L 58.832467 184.013796 
L 59.418136 187.42943 
L 92.247355 183.740232 
L 92.807901 186.105364 
L 27.245224 207.478541 
L 28.584294 211.875746 
L 27.898608 217.000337 
L 29.536741 221.37229 
L 30.608337 225.992591 
L 32.527866 230.274898 
L 96.717543 203.043559 
L 97.882818 205.258594 
L 93.839204 210.538706 
L 95.241566 212.840536 
L 44.722469 250.238365 
L 47.39736 254.064905 
L 99.87284 219.465761 
L 101.552905 221.573467 
L 69.356438 253.405422 
L 72.118728 256.45585 
L 105.89392 228.645064 
L 107.859626 230.558916 
L 92.124769 252.461533 
L 94.846125 254.796541 
L 87.760944 269.721708 
L 91.027155 272.185391 
L 113.788413 246.103624 
L 116.29915 247.760623 
L 104.395261 273.680457 
L 107.777719 275.619163 
L 123.428665 253.60925 
L 126.170629 254.959428 
L 129.564351 254.819207 
L 132.341326 255.975868 
L 140.886906 241.214272 
L 143.230514 242.021653 
L 124.970203 313.268892 
L 129.587235 314.541104 
L 136.429686 305.962059 
L 140.81131 306.877571 
L 144.493389 312.188912 
L 149.066811 312.847806 
L 154.025146 309.553637 
L 158.510997 309.914134 
L 163.258621 302.484528 
L 167.517638 302.5582 
L 172.028328 310.912522 
L 176.548004 310.706288 
L 181.697019 317.216176 
L 186.410115 316.70282 
L 181.019464 251.77714 
L 183.675349 251.317443 
L 197.101309 299.335913 
L 201.244594 298.347053 
L 205.77987 298.698792 
L 209.898832 297.437375 
L 198.216468 252.103996 
L 200.874127 251.103426 
L 211.986424 269.695822 
L 215.1904 268.253596 
L 236.722043 302.871858 
L 240.956917 300.635487 
L 235.008287 281.129579 
L 238.560383 278.957842 
L 234.740122 265.907897 
L 237.813748 263.752118 
L 229.573849 246.97747 
L 232.054815 244.99349 
L 266.83171 279.700059 
L 270.323124 276.528431 
L 260.194919 259.70915 
L 263.061056 256.756082 
L 257.801159 246.623069 
L 260.257025 243.751736 
L 278.335791 253.010568 
L 280.982341 249.490422 
L 251.248597 223.93109 
L 252.994217 221.277003 
L 242.80213 211.550708 
L 244.16266 209.168318 
L 289.759923 229.348914 
L 291.656851 225.481268 
L 242.167859 199.347361 
L 243.145003 196.990947 
L 298.04541 214.066495 
L 299.457728 209.945891 
L 302.944359 206.424082 
L 304.113961 202.153222 
L 300.667676 196.845037 
L 301.537217 192.650498 
L 306.809628 189.149726 
L 307.434175 184.765875 
L 311.730085 180.725022 
L 312.087309 176.190627 
L 271.760667 170.37191 
L 287.11823 167.099359 
z
" clip-path="url(#p25f30f9fb0)" style="fill: #0000ff; opacity: 0.5; stroke: #000000; stroke-width: 1.5; stroke-linejoin: miter"/>
   </g>
  </g>
 </g>
 <defs>
  <clipPath id="p25f30f9fb0">
   <rect x="0" y="-0" width="330.071469" height="332.64"/>
  </clipPath>
 </defs>
</svg>
