<?xml version="1.0" encoding="utf-8" standalone="no"?>
<!DOCTYPE svg PUBLIC "-//W3C//DTD SVG 1.1//EN"
  "http://www.w3.org/Graphics/SVG/1.1/DTD/svg11.dtd">
<svg xmlns:xlink="http://www.w3.org/1999/xlink" width="334.8pt" height="328.455165pt" viewBox="0 0 334.8 328.455165" xmlns="http://www.w3.org/2000/svg" version="1.1">
 <metadata>
  <rdf:RDF xmlns:dc="http://purl.org/dc/elements/1.1/" xmlns:cc="http://creativecommons.org/ns#" xmlns:rdf="http://www.w3.org/1999/02/22-rdf-syntax-ns#">
   <cc:Work>
    <dc:type rdf:resource="http://purl.org/dc/dcmitype/StillImage"/>
    <dc:date>2023-12-09T18:06:18.549443</dc:date>
    <dc:format>image/svg+xml</dc:format>
    <dc:creator>
     <cc:Agent>
      <dc:title>Matplotlib v3.8.2, https://matplotlib.org/</dc:title>
     </cc:Agent>
    </dc:creator>
   </cc:Work>
  </rdf:RDF>
 </metadata>
 <defs>
  <style type="text/css">*{stroke-linejoin: round; stroke-linecap: butt}</style>
 </defs>
 <g id="figure_1">
  <g id="patch_1">
   <path d="M 0 328.455165 
L 334.8 328.455165 
L 334.8 0 
L 0 0 
L 0 328.455165 
z
" style="fill: none"/>
  </g>
  <g id="axes_1">
   <g id="patch_2">
    <path d="M 315.745108 162.704135 
L 315.671827 158.043991 
L 250.305925 157.491216 
L 250.101094 154.8912 
L 252.100241 152.009876 
L 251.722177 149.356153 
L 296.519697 138.073194 
L 295.681472 134.029717 
L 276.866067 134.602601 
L 275.928435 131.178793 
L 302.634369 118.759743 
L 301.185863 114.533556 
L 266.051466 123.654513 
L 264.774949 120.576153 
L 261.318138 118.521292 
L 259.882562 115.594296 
L 289.97575 95.309872 
L 287.796187 91.493294 
L 280.960559 90.630095 
L 278.638311 87.099289 
L 261.923302 94.034104 
L 259.717496 91.100188 
L 229.034685 111.75299 
L 227.40226 109.844403 
L 245.289976 89.574032 
L 242.952159 87.165309 
L 240.014528 85.391519 
L 237.547812 83.150736 
L 264.350925 45.460134 
L 260.616647 42.473904 
L 237.405942 66.339875 
L 234.341491 64.190531 
L 242.303439 44.620736 
L 238.553669 42.328142 
L 240.641506 29.380996 
L 236.413387 27.148192 
L 228.529091 32.696917 
L 224.411221 30.843314 
L 217.700497 35.549281 
L 213.677665 34.034743 
L 200.153654 61.873664 
L 196.967194 60.897822 
L 188.051711 82.344713 
L 185.514889 81.739261 
L 183.960266 75.932095 
L 181.22384 75.458457 
L 185.229284 20.967214 
L 180.764015 20.480852 
L 176.191536 21.668128 
L 171.752773 21.465586 
L 167.373834 62.103663 
L 164.210813 62.158376 
L 162.238423 80.704873 
L 159.662804 80.911857 
L 148.608768 14.92978 
L 143.971775 15.597832 
L 139.35808 16.411351 
L 134.772244 17.369533 
L 137.33524 45.979729 
L 133.680099 46.986893 
L 129.581063 46.648668 
L 125.950788 47.899311 
L 112.418466 24.292264 
L 108.093743 26.09359 
L 122.873388 68.293404 
L 119.926988 69.744248 
L 118.88444 74.64794 
L 116.139813 76.221064 
L 103.949989 62.986868 
L 100.846096 65.035329 
L 118.634756 95.713443 
L 116.552598 97.284002 
L 90.469491 69.979815 
L 87.592137 72.448675 
L 65.822019 54.897838 
L 62.482641 58.149126 
L 63.174573 65.174281 
L 60.159618 68.503729 
L 79.188492 89.984279 
L 76.9457 92.797948 
L 50.518379 78.137708 
L 47.91728 81.858685 
L 39.589367 81.971305 
L 37.114209 86.034019 
L 88.0084 119.258819 
L 86.681703 121.780696 
L 41.603474 103.862118 
L 39.815615 107.85068 
L 93.908089 133.789787 
L 93.035361 136.118981 
L 36.678294 120.596258 
L 35.419028 124.731405 
L 60.343231 135.513047 
L 59.541281 138.896741 
L 16.579381 134.370583 
L 15.763147 139.130873 
L 80.644051 151.994029 
L 80.350262 154.731272 
L 48.713186 155.596248 
L 48.548445 159.335687 
L 65.396036 163.025327 
L 65.456634 166.236547 
L 74.813404 168.836142 
L 75.05205 171.748386 
L 41.873103 178.996251 
L 42.447492 182.939188 
L 41.637857 187.154938 
L 42.468889 191.101237 
L 66.461682 189.020803 
L 67.339107 192.185664 
L 44.24104 203.235849 
L 45.576405 207.092347 
L 78.405055 198.355627 
L 79.570083 201.140347 
L 44.750765 221.019155 
L 46.645024 224.850834 
L 39.928023 233.462415 
L 42.215909 237.439579 
L 92.495705 210.715134 
L 94.042376 213.050702 
L 100.61829 211.706668 
L 102.192121 213.786353 
L 56.054476 255.64907 
L 59.031986 259.108213 
L 107.294742 219.714359 
L 109.117051 221.580163 
L 103.668527 231.254142 
L 105.855466 233.228257 
L 109.564753 233.351605 
L 111.814725 235.139293 
L 114.119793 236.855353 
L 116.477678 238.498087 
L 120.112417 238.115577 
L 122.506964 239.569268 
L 129.35148 232.852865 
L 131.575987 234.018662 
L 114.39607 276.888824 
L 118.012559 278.503078 
L 126.431174 267.843814 
L 129.757317 269.08413 
L 127.502659 287.772741 
L 131.454881 288.969514 
L 147.265129 243.127689 
L 149.803842 243.725161 
L 139.716812 312.191164 
L 144.430765 312.991824 
L 151.671804 293.06118 
L 155.778357 293.495408 
L 159.985837 292.267013 
L 164.063308 292.440222 
L 167.934108 247.944914 
L 170.614066 247.890126 
L 174.172979 260.776312 
L 177.2533 260.519016 
L 179.124758 251.02804 
L 181.896123 250.619869 
L 183.177313 242.588501 
L 185.681317 242.057081 
L 189.72476 247.390065 
L 192.376498 246.650406 
L 192.593875 238.536192 
L 194.96581 237.710698 
L 203.323603 251.774927 
L 206.106487 250.605522 
L 205.215137 241.72443 
L 207.681076 240.50052 
L 228.780691 272.750359 
L 232.210502 270.770157 
L 248.853301 289.361914 
L 252.795491 286.742371 
L 227.552518 244.393303 
L 230.091329 242.465738 
L 262.622914 276.39161 
L 266.150482 273.345534 
L 252.660569 252.36855 
L 255.437725 249.647589 
L 248.561923 237.956674 
L 250.887965 235.371709 
L 271.559263 247.786645 
L 274.183009 244.473734 
L 277.948942 241.975687 
L 280.38682 238.464743 
L 272.951992 228.762379 
L 274.976885 225.415083 
L 286.346699 227.130607 
L 288.313664 223.362959 
L 289.464435 219.212424 
L 291.180893 215.350662 
L 243.393528 192.222231 
L 244.284134 189.822384 
L 294.858694 203.235607 
L 296.070139 199.212137 
L 280.020474 190.863406 
L 280.850246 187.3126 
L 270.995093 181.787349 
L 271.543956 178.524808 
L 304.013571 179.091765 
L 304.461354 174.792383 
L 319.34129 171.306531 
L 319.536709 166.529061 
L 315.742177 161.771959 
L 315.639588 157.112368 
L 250.271501 156.970718 
L 250.050322 154.372042 
L 252.031308 151.478201 
L 251.636561 148.826909 
L 296.362232 137.262422 
L 295.498591 133.224297 
L 276.687162 133.915507 
L 275.728015 130.497664 
L 302.355312 117.910895 
L 300.880254 113.693902 
L 265.803917 123.035654 
L 264.508065 119.965383 
L 261.038398 117.932304 
L 259.584441 115.014395 
L 289.549457 94.541103 
L 287.345933 90.738309 
L 280.50501 89.918119 
L 278.160601 86.401988 
L 261.48954 93.441795 
L 259.265325 90.52181 
L 228.713014 111.367181 
L 227.068619 109.468899 
L 244.828491 89.086425 
L 242.475571 86.692453 
L 239.526842 84.937175 
L 237.046082 82.71195 
L 263.611612 44.853517 
L 259.858626 41.890833 
L 236.798483 65.902314 
L 233.720575 63.772286 
L 241.559282 44.152801 
L 237.795167 41.883837 
L 239.801533 28.923816 
L 235.559455 26.717648 
L 227.710213 32.315851 
L 223.580766 30.488184 
L 216.899772 35.236265 
L 212.867494 33.747058 
L 199.518842 61.670487 
L 196.326308 60.714705 
L 187.54589 82.217245 
L 185.00531 81.62776 
L 183.414194 75.830486 
L 180.674843 75.374069 
L 184.337489 20.858712 
L 179.869249 20.400443 
L 175.304328 21.616454 
L 170.864379 21.441833 
L 166.741117 62.106647 
L 163.578503 62.181253 
L 161.722799 80.739788 
L 159.148533 80.962968 
L 147.679726 15.051719 
L 143.047026 15.748922 
L 138.438538 16.591443 
L 133.85882 17.578448 
L 136.601707 46.171958 
L 132.952973 47.202092 
L 128.85189 46.889654 
L 125.229554 48.163104 
L 111.549024 24.641635 
L 107.235716 26.470125 
L 122.280481 68.576148 
L 119.343264 70.045495 
L 118.331579 74.955647 
L 115.5969 76.546002 
L 103.324081 63.388735 
L 100.233134 65.456678 
L 118.21439 96.022304 
L 116.142151 97.605928 
L 89.887831 70.466328 
L 87.026062 72.953237 
L 65.14599 55.539669 
L 61.827127 58.811895 
L 62.563229 65.83256 
L 59.569274 69.180904 
L 78.732872 90.541348 
L 76.507821 93.369067 
L 49.988818 78.87533 
L 47.411174 82.612593 
L 39.084134 82.777588 
L 36.634577 86.855789 
L 87.736727 119.759837 
L 86.425917 122.290008 
L 41.235882 104.655301 
L 39.473144 108.655029 
L 93.727691 134.253412 
L 92.869628 136.588048 
L 36.416047 121.420087 
L 35.182814 125.563072 
L 60.174335 136.187742 
L 59.393682 139.576413 
L 16.404164 135.32055 
L 15.617886 140.08588 
L 80.578409 152.540716 
L 80.301841 155.279753 
L 48.670831 156.343692 
L 48.529613 160.084093 
L 65.400076 163.667698 
L 65.48087 166.878474 
L 74.853804 169.419168 
L 75.110763 172.329854 
L 41.978056 179.786252 
L 42.577233 183.725498 
L 41.794129 187.946257 
L 42.649965 191.887252 
L 66.629198 189.655958 
L 67.526511 192.815238 
L 44.498401 204.010478 
L 45.857994 207.858501 
L 78.631046 198.91548 
L 79.813565 201.692817 
L 45.119962 221.790226 
L 47.038282 225.609915 
L 40.375576 234.263572 
L 42.688431 238.226268 
L 92.799151 211.18612 
L 94.360481 213.511915 
L 100.927812 212.126548 
L 102.514692 214.196294 
L 56.641252 256.348362 
L 59.640459 259.78871 
L 107.654495 220.09209 
L 109.488503 221.946396 
L 104.100931 231.654452 
L 106.300242 233.614773 
L 110.010232 233.714789 
L 112.271403 235.48829 
L 114.587218 237.189819 
L 116.955389 238.817691 
L 120.587651 238.412328 
L 122.991293 239.850929 
L 129.793431 233.091612 
L 132.025227 234.243394 
L 115.115278 277.220761 
L 118.741848 278.812237 
L 127.093256 268.100235 
L 130.427134 269.319608 
L 128.290061 288.022029 
L 132.249733 289.193922 
L 147.771349 243.253566 
L 150.313769 243.835059 
L 140.657551 312.363149 
L 145.376446 313.134146 
L 152.49199 293.158354 
L 156.601193 293.566745 
L 160.800863 292.311912 
L 164.879344 292.459473 
L 168.470216 247.940699 
L 171.149776 247.869057 
L 174.789666 260.732605 
L 177.868308 260.45594 
L 179.680036 250.953381 
L 182.44878 250.527788 
L 183.679431 242.488521 
L 186.180043 241.941363 
L 190.256947 247.248811 
L 192.903981 246.492488 
L 193.07032 238.377067 
L 195.437016 237.536672 
L 203.8831 251.548057 
L 206.658574 250.361172 
L 205.711384 241.485862 
L 208.169577 240.246467 
L 229.471608 272.362963 
L 232.888897 270.361228 
L 249.648298 288.847944 
L 253.573935 286.203659 
L 228.06511 244.014193 
L 230.591747 242.070698 
L 263.336063 275.791294 
L 266.844403 272.723091 
L 253.222823 251.831366 
L 255.982811 249.092993 
L 249.033616 237.445553 
L 251.343354 234.84601 
L 272.092326 247.13069 
L 274.695184 243.801342 
L 278.445331 241.27966 
L 280.861079 237.753452 
L 273.365376 228.09804 
L 275.369177 224.738075 
L 286.749555 226.382056 
L 288.692784 222.602111 
L 289.817429 218.44442 
L 291.509564 214.571939 
L 243.57768 191.744521 
L 244.453174 189.33912 
L 295.111096 202.433992 
L 296.297211 198.402983 
L 280.195355 190.15536 
L 281.002778 186.599405 
L 271.113069 181.136248 
L 271.641402 177.870319 
L 304.113941 178.233049 
L 304.534674 173.930936 
L 319.392392 170.351566 
L 319.55776 165.572962 
L 315.733382 160.839819 
L 315.601489 156.180966 
L 250.233805 156.450447 
L 249.996285 153.853213 
L 251.959032 150.946971 
L 251.547617 148.298214 
L 296.19967 136.452656 
L 295.310649 132.420043 
L 276.503939 133.229553 
L 275.523314 129.81781 
L 302.070921 117.063819 
L 300.56937 112.856187 
L 265.552481 122.418364 
L 264.237344 119.356304 
L 260.754959 117.345088 
L 259.282679 114.436381 
L 289.118336 93.775031 
L 286.890939 89.986171 
L 280.044993 89.209023 
L 277.678516 85.707706 
L 261.052061 92.852225 
L 258.809525 89.946287 
L 228.388924 110.983403 
L 226.732622 109.0955 
L 244.363949 88.60173 
L 241.996019 86.222604 
L 239.036308 84.485906 
L 236.541601 82.276328 
L 262.868498 44.251562 
L 259.096953 41.31254 
L 236.188285 65.468582 
L 233.09704 63.357954 
L 240.812197 43.689557 
L 237.033886 41.444311 
L 238.958702 28.471927 
L 234.702832 26.292484 
L 226.888955 31.939943 
L 222.748094 30.138285 
L 216.097095 34.928291 
L 212.055531 33.464474 
L 198.882765 61.471306 
L 195.684282 60.535622 
L 187.039277 82.092961 
L 184.49504 81.519466 
L 182.867493 75.732315 
L 180.125327 75.293135 
L 183.44503 20.75582 
L 178.973996 20.325663 
L 174.416813 21.570361 
L 169.975853 21.423668 
L 166.108431 62.113611 
L 162.946349 62.208107 
L 161.207405 80.777946 
L 158.634593 81.017312 
L 146.751468 15.1795 
L 142.123245 15.905826 
L 137.520147 16.777314 
L 132.946727 17.793103 
L 135.869398 46.368797 
L 132.227215 47.421859 
L 128.124248 47.135221 
L 124.509992 48.431428 
L 110.681796 24.996467 
L 106.380074 26.852049 
L 121.689364 68.862617 
L 118.761447 70.350408 
L 117.780664 75.266826 
L 115.056041 76.874348 
L 102.700714 63.794531 
L 99.622833 65.881873 
L 117.795975 96.333803 
L 115.733737 97.930429 
L 89.309244 70.956491 
L 86.463172 73.461349 
L 64.474012 56.185738 
L 61.175795 59.478773 
L 61.956038 66.49467 
L 58.983201 69.861778 
L 78.280766 91.101272 
L 76.073543 93.942929 
L 49.463908 79.616268 
L 46.909819 83.369669 
L 38.583982 83.587034 
L 36.160122 87.68056 
L 87.46821 120.262553 
L 86.173339 122.800919 
L 40.873286 105.45078 
L 39.135738 109.461515 
L 93.550211 134.718162 
L 92.70685 137.058149 
L 36.158987 122.245549 
L 34.951835 126.396208 
L 60.009685 136.863485 
L 59.250361 140.256999 
L 16.234926 136.2716 
L 15.478635 141.041781 
L 80.516207 153.087806 
L 80.256871 155.828529 
L 48.633178 157.091387 
L 48.515488 160.832602 
L 65.408157 164.310031 
L 65.509142 167.520235 
L 74.897871 170.001928 
L 75.173131 172.910941 
L 42.087976 180.575578 
L 42.711917 184.510977 
L 41.955374 188.736578 
L 42.83598 192.672112 
L 66.800705 190.290046 
L 67.717871 193.44362 
L 44.760627 204.783472 
L 46.144396 208.622869 
L 78.860553 199.4739 
L 80.060517 202.243745 
L 45.494001 222.55896 
L 47.436307 226.366508 
L 40.828159 235.061898 
L 43.165892 239.00997 
L 93.105554 211.655189 
L 94.681481 213.971117 
L 101.239968 212.544473 
L 102.839834 214.604198 
L 57.232414 257.04395 
L 60.2532 260.465367 
L 108.016617 220.46755 
L 109.862251 222.310285 
L 104.535844 232.052033 
L 106.747441 233.998483 
L 110.457986 234.075164 
L 112.730267 235.834409 
L 115.056738 237.521338 
L 117.4351 239.134284 
L 121.064741 238.706084 
L 123.477383 240.129539 
L 130.236875 233.327574 
L 132.47587 234.465297 
L 115.83656 277.548167 
L 119.473067 279.116803 
L 127.756937 268.352488 
L 131.098419 269.550868 
L 129.079016 288.26636 
L 133.045979 289.413325 
L 148.27835 243.376256 
L 150.824377 243.941747 
L 141.599353 312.529214 
L 146.323004 313.270516 
L 153.312771 293.250367 
L 157.424461 293.632905 
L 161.616156 292.351684 
L 165.695484 292.47359 
L 169.006287 247.933113 
L 171.685344 247.844619 
L 175.406066 260.685019 
L 178.482907 260.388997 
L 180.234834 250.875231 
L 183.000845 250.432233 
L 184.18091 242.385385 
L 186.678032 241.82251 
L 190.788236 247.104211 
L 193.430461 246.331255 
L 193.545755 238.214949 
L 195.907118 237.359685 
L 204.441159 251.317672 
L 207.209114 250.113355 
L 206.206121 241.244177 
L 208.656471 239.989346 
L 230.160075 271.971229 
L 233.564707 269.948041 
L 250.440047 288.328984 
L 254.348975 285.660061 
L 228.575307 243.631866 
L 231.08967 241.672518 
L 264.045422 275.186504 
L 267.534395 272.096296 
L 253.781688 251.290657 
L 256.524398 248.534979 
L 249.502086 236.931476 
L 251.795428 234.317457 
L 272.621253 246.471395 
L 275.20312 243.125742 
L 278.937333 240.580523 
L 281.330856 237.039192 
L 273.774573 227.431115 
L 275.757202 224.058613 
L 287.147695 225.630986 
L 289.067112 221.838894 
L 290.165585 217.674212 
L 291.833331 213.791165 
L 243.758824 191.265663 
L 244.619172 188.854803 
L 295.358451 201.630806 
L 296.51919 197.592417 
L 280.365779 189.446229 
L 281.150821 185.885266 
L 271.226948 180.484417 
L 271.734729 177.21523 
L 304.208908 177.373719 
L 304.602575 173.069045 
L 319.437486 169.396299 
L 319.572796 164.61675 
L 315.718726 159.907754 
L 315.557534 155.249821 
L 250.192837 155.930423 
L 249.938987 153.334735 
L 251.883416 150.416205 
L 251.455351 147.770088 
L 296.032018 135.643929 
L 295.117652 131.616987 
L 276.316405 132.544764 
L 275.314342 129.139256 
L 301.781208 116.218548 
L 300.253223 112.020443 
L 265.297168 121.802667 
L 263.962798 118.748939 
L 260.467832 116.759665 
L 258.977287 113.860276 
L 288.682407 93.011685 
L 286.431223 89.236909 
L 279.580525 88.502834 
L 277.192074 85.01647 
L 260.610882 92.265419 
L 258.350114 89.373642 
L 228.062426 110.60167 
L 226.394283 108.724222 
L 243.896367 88.119967 
L 241.51352 85.755781 
L 238.542945 84.037732 
L 236.034391 81.843887 
L 262.121613 43.654292 
L 258.331657 40.739049 
L 235.57537 65.038696 
L 232.470912 62.947552 
L 240.062214 43.23102 
L 236.269856 41.009582 
L 238.113044 28.025349 
L 233.843551 25.872716 
L 226.065348 31.569208 
L 221.913238 29.793629 
L 215.292497 34.625371 
L 211.241806 33.187003 
L 198.245448 61.27613 
L 195.041144 60.360581 
L 186.531893 81.971866 
L 183.984099 81.414384 
L 182.320187 75.637583 
L 179.575312 75.215659 
L 182.55194 20.658544 
L 178.078289 20.256516 
L 173.529025 21.529851 
L 169.087231 21.411092 
L 165.475802 62.124554 
L 162.314376 62.238936 
L 160.692261 80.819344 
L 158.121005 81.074887 
L 145.824033 15.313115 
L 141.20047 16.068536 
L 136.602944 16.968958 
L 132.036003 18.013491 
L 135.13834 46.570238 
L 131.502853 47.646186 
L 127.398164 47.385359 
L 123.792132 48.704272 
L 109.816818 25.356746 
L 105.526851 27.239347 
L 121.100061 69.152797 
L 118.181559 70.658974 
L 117.231716 75.581463 
L 114.517259 77.20609 
L 102.07991 64.20424 
L 99.015219 66.310898 
L 117.379526 96.647927 
L 115.327371 98.257492 
L 88.73375 71.450282 
L 85.903489 73.972991 
L 63.80611 56.836021 
L 60.528669 60.149735 
L 61.353023 67.160586 
L 58.401422 70.546325 
L 77.832189 91.664028 
L 75.642883 94.519511 
L 48.943667 80.360493 
L 46.413236 84.129884 
L 38.088931 84.399608 
L 35.690865 88.508299 
L 87.20286 120.766949 
L 85.92398 123.313408 
L 40.5157 106.248524 
L 38.803412 110.270108 
L 93.375659 135.184019 
L 92.547031 137.529264 
L 35.907124 123.072611 
L 34.726101 127.230781 
L 59.849289 137.540251 
L 59.111323 140.938473 
L 16.071673 137.223696 
L 15.345398 141.998539 
L 80.457447 153.635277 
L 80.215354 156.377576 
L 48.600229 157.839305 
L 48.506071 161.581186 
L 65.420277 164.952301 
L 65.541451 168.161806 
L 74.945602 170.5844 
L 75.239153 173.491624 
L 42.202859 181.364196 
L 42.851538 185.295593 
L 42.121587 189.525869 
L 43.026928 193.455787 
L 66.976197 190.923044 
L 67.913179 194.070787 
L 45.027711 205.554803 
L 46.435599 209.38542 
L 79.093568 200.030866 
L 80.310929 202.79311 
L 45.872868 223.325326 
L 47.839083 227.120583 
L 41.285755 235.857363 
L 43.648272 239.790653 
L 93.4149 212.122321 
L 95.005362 214.428292 
L 101.554747 212.960427 
L 103.167536 215.010048 
L 57.82794 257.735806 
L 60.870184 261.138156 
L 108.381093 220.840726 
L 110.238281 222.671816 
L 104.973249 232.446872 
L 107.197044 234.379374 
L 110.907998 234.432716 
L 113.191299 236.177634 
L 115.528334 237.849898 
L 117.916793 239.447854 
L 121.543669 238.996834 
L 123.965216 240.405087 
L 130.681794 233.560742 
L 132.927901 234.684361 
L 116.559886 277.871031 
L 120.206188 279.416765 
L 128.422192 268.600561 
L 131.771145 269.777901 
L 129.869492 288.505724 
L 133.843591 289.627717 
L 148.786112 243.495755 
L 151.335646 244.045222 
L 142.542181 312.689353 
L 147.2704 313.400931 
L 154.134114 293.337216 
L 158.248128 293.693887 
L 162.431682 292.386327 
L 166.511696 292.482574 
L 169.5423 247.922155 
L 172.220747 247.816813 
L 176.022155 260.633558 
L 179.097073 260.31819 
L 180.789129 250.793594 
L 183.5523 250.333207 
L 184.681731 242.279096 
L 187.175263 241.700528 
L 191.318605 246.956274 
L 193.955916 246.166715 
L 194.02016 238.049843 
L 196.376098 237.179745 
L 204.997758 251.083782 
L 207.758083 249.862079 
L 206.699329 240.999385 
L 209.141738 239.729168 
L 230.846064 271.575173 
L 234.237904 269.530612 
L 251.228516 287.805055 
L 255.120581 285.1116 
L 229.083089 243.246337 
L 231.58508 241.271214 
L 264.750964 274.577264 
L 268.220432 271.465175 
L 254.337141 250.746443 
L 257.062466 247.973569 
L 249.967312 236.414463 
L 252.244168 233.786072 
L 273.146023 245.808787 
L 275.706797 242.446962 
L 279.424928 239.878307 
L 281.79613 236.321991 
L 274.179568 226.761629 
L 276.140946 223.376725 
L 287.541104 224.877426 
L 289.436632 221.073337 
L 290.50889 216.901829 
L 292.152181 213.00837 
L 243.936952 190.785674 
L 244.78212 188.369451 
L 295.60075 200.826081 
L 296.736066 196.780471 
L 280.53174 188.736039 
L 281.29437 185.17021 
L 271.336725 179.831883 
L 271.823935 176.559567 
L 304.298468 176.513809 
L 304.665053 172.206744 
L 319.476572 168.440767 
L 319.581818 163.660461 
L 315.698207 158.975799 
L 315.507723 154.318972 
L 250.148599 155.410667 
L 249.878429 152.816627 
L 251.804463 149.885926 
L 251.359764 147.242553 
L 295.859283 134.836272 
L 294.919608 130.81516 
L 276.124568 131.861168 
L 275.101106 128.46203 
L 301.486185 115.375116 
L 299.931826 111.186704 
L 265.037987 121.188589 
L 263.684438 118.143314 
L 260.177029 116.17606 
L 258.668279 113.286103 
L 288.241684 92.251096 
L 285.966804 88.490553 
L 279.111625 87.79958 
L 276.701293 84.328307 
L 260.166021 91.681399 
L 257.88711 88.803898 
L 227.733534 110.221999 
L 226.053615 108.35508 
L 243.425764 87.641153 
L 241.028096 85.292001 
L 238.046773 83.592669 
L 235.524471 81.414646 
L 261.370986 43.061732 
L 257.56277 40.170383 
L 234.959764 64.612673 
L 231.842215 62.541096 
L 239.309361 42.777209 
L 235.503107 40.579667 
L 237.264595 27.584098 
L 232.981647 25.45836 
L 225.239426 31.20366 
L 221.076231 29.45423 
L 214.48601 34.327518 
L 210.426352 32.914655 
L 197.606916 61.084966 
L 194.396917 60.189588 
L 186.023757 81.853964 
L 183.472507 81.312518 
L 181.772295 75.546296 
L 179.024821 75.141644 
L 181.658257 20.566887 
L 177.182166 20.193003 
L 172.641 21.494926 
L 168.198547 21.404106 
L 164.843254 62.139476 
L 161.68261 62.273739 
L 160.177387 80.863982 
L 157.60779 81.135692 
L 144.897456 15.452561 
L 140.278736 16.237047 
L 135.686964 17.166367 
L 131.126683 18.239603 
L 134.408565 46.776273 
L 130.779916 47.875065 
L 126.673668 47.640059 
L 123.076003 48.981626 
L 108.954122 25.722459 
L 104.67608 27.632004 
L 120.512594 69.446678 
L 117.603623 70.971181 
L 116.684759 75.899546 
L 113.980573 77.541214 
L 101.461696 64.617844 
L 98.410316 66.743737 
L 116.965062 96.964665 
L 114.923071 98.587104 
L 88.161374 71.947684 
L 85.347035 74.488143 
L 63.142311 57.490492 
L 59.885776 60.824754 
L 60.754208 67.830281 
L 57.82396 71.234518 
L 77.387162 92.229594 
L 75.215858 95.09879 
L 48.428118 81.107975 
L 45.921444 84.893206 
L 37.599 85.215281 
L 35.226823 89.338972 
L 86.940688 121.273003 
L 85.677849 123.827456 
L 40.163138 107.048501 
L 38.476178 111.080775 
L 93.20404 135.650965 
L 92.390178 138.001375 
L 35.660468 123.901241 
L 34.505621 128.066756 
L 59.693152 138.218012 
L 58.976573 141.620808 
L 15.914411 138.176799 
L 15.218182 142.956116 
L 80.402131 154.183106 
L 80.17729 156.926873 
L 48.571984 158.587415 
L 48.501363 162.329814 
L 65.436436 165.594481 
L 65.577794 168.803161 
L 74.996996 171.166561 
L 75.308825 174.07188 
L 42.322699 182.152077 
L 42.996092 186.079316 
L 42.292761 190.314099 
L 43.222801 194.238245 
L 67.155667 191.554925 
L 68.112428 194.696712 
L 45.29964 206.324438 
L 46.731593 210.146124 
L 79.330081 200.586356 
L 80.564791 203.340888 
L 46.256547 224.089294 
L 48.246593 227.87211 
L 41.748344 236.649933 
L 44.135553 240.568287 
L 93.727179 212.587498 
L 95.332112 214.88342 
L 101.872135 213.374392 
L 103.497783 215.41383 
L 58.427805 258.423903 
L 61.491388 261.807052 
L 108.747909 221.211602 
L 110.616577 223.030975 
L 105.413129 232.838952 
L 107.649034 234.757429 
L 111.36025 234.78743 
L 113.65448 236.517953 
L 116.001987 238.175485 
L 118.400449 239.758387 
L 122.024416 239.284565 
L 124.454773 240.67756 
L 131.128171 233.791108 
L 133.3813 234.900577 
L 117.285229 278.189339 
L 120.94118 279.712109 
L 129.088994 268.844445 
L 132.445285 270.000699 
L 130.661457 288.740112 
L 134.642534 289.837088 
L 149.294617 243.612058 
L 151.847556 244.145479 
L 143.485997 312.843558 
L 148.218598 313.525384 
L 154.955987 293.418897 
L 159.072163 293.749686 
L 163.247411 292.41584 
L 167.327949 292.486424 
L 170.078233 247.907826 
L 172.755965 247.78564 
L 176.637907 260.578223 
L 179.710781 260.243522 
L 181.342899 250.708472 
L 184.10312 250.230716 
L 185.181873 242.169661 
L 187.671717 241.57542 
L 191.848032 246.805003 
L 194.480325 245.998872 
L 194.493518 237.881758 
L 196.843937 236.996859 
L 205.552875 250.846395 
L 208.305462 249.607356 
L 207.190987 240.751497 
L 209.625359 239.465943 
L 231.529549 271.17481 
L 234.908463 269.108957 
L 252.013675 287.276177 
L 255.888722 284.558296 
L 229.588436 242.857623 
L 232.077955 240.866803 
L 265.452659 273.9636 
L 268.902486 270.82975 
L 254.889161 250.198747 
L 257.596991 247.408787 
L 250.429278 235.894533 
L 252.689558 233.251874 
L 273.666615 245.142891 
L 276.206194 241.765026 
L 279.908097 239.173037 
L 282.256885 235.601879 
L 274.580344 226.08961 
L 276.520395 222.692436 
L 287.929765 224.121407 
L 289.801331 220.305472 
L 290.84733 216.127302 
L 292.466101 212.223584 
L 244.112057 190.304575 
L 244.942012 187.883084 
L 295.837982 200.019847 
L 296.947832 195.967176 
L 280.693231 188.02482 
L 281.433419 184.454264 
L 271.442395 179.178672 
L 271.909015 175.903356 
L 304.382618 175.653352 
L 304.722107 171.344067 
L 319.509646 167.485009 
L 315.745108 162.704135 
z
" clip-path="url(#pf7f3e4c808)" style="fill: #0000ff; opacity: 0.5; stroke: #000000; stroke-width: 1.5; stroke-linejoin: miter"/>
   </g>
  </g>
 </g>
 <defs>
  <clipPath id="pf7f3e4c808">
   <rect x="0" y="0" width="334.8" height="328.455165"/>
  </clipPath>
 </defs>
</svg>
