<?xml version="1.0" encoding="utf-8" standalone="no"?>
<!DOCTYPE svg PUBLIC "-//W3C//DTD SVG 1.1//EN"
  "http://www.w3.org/Graphics/SVG/1.1/DTD/svg11.dtd">
<svg xmlns:xlink="http://www.w3.org/1999/xlink" width="334.8pt" height="328.712741pt" viewBox="0 0 334.8 328.712741" xmlns="http://www.w3.org/2000/svg" version="1.1">
 <metadata>
  <rdf:RDF xmlns:dc="http://purl.org/dc/elements/1.1/" xmlns:cc="http://creativecommons.org/ns#" xmlns:rdf="http://www.w3.org/1999/02/22-rdf-syntax-ns#">
   <cc:Work>
    <dc:type rdf:resource="http://purl.org/dc/dcmitype/StillImage"/>
    <dc:date>2023-12-09T18:06:18.674439</dc:date>
    <dc:format>image/svg+xml</dc:format>
    <dc:creator>
     <cc:Agent>
      <dc:title>Matplotlib v3.8.2, https://matplotlib.org/</dc:title>
     </cc:Agent>
    </dc:creator>
   </cc:Work>
  </rdf:RDF>
 </metadata>
 <defs>
  <style type="text/css">*{stroke-linejoin: round; stroke-linecap: butt}</style>
 </defs>
 <g id="figure_1">
  <g id="patch_1">
   <path d="M 0 328.712741 
L 334.8 328.712741 
L 334.8 0 
L 0 0 
L 0 328.712741 
z
" style="fill: none"/>
  </g>
  <g id="axes_1">
   <g id="patch_2">
    <path d="M 319.581818 162.505035 
L 319.506764 157.732085 
L 260.660823 156.655669 
L 260.430983 153.738217 
L 305.516983 145.087335 
L 304.901232 140.765227 
L 262.93952 144.333973 
L 262.321133 141.350966 
L 243.877941 142.946261 
L 243.225346 140.563278 
L 262.809596 131.59534 
L 261.790743 128.622716 
L 277.698389 118.937685 
L 276.27419 115.503184 
L 277.503008 110.814776 
L 275.823503 107.390434 
L 251.984002 116.158873 
L 250.485144 113.534262 
L 275.945662 93.775756 
L 273.731184 90.408805 
L 235.017749 113.590059 
L 233.446512 111.500175 
L 228.285791 112.380597 
L 226.679854 110.502977 
L 268.914089 67.391032 
L 265.873493 64.258215 
L 226.736526 99.620854 
L 224.73016 97.798256 
L 226.553246 91.334129 
L 224.286418 89.52139 
L 232.710693 72.959491 
L 229.863082 70.962234 
L 222.873181 75.500295 
L 220.110322 73.811095 
L 234.167388 41.442267 
L 230.328086 39.414791 
L 200.830104 92.065299 
L 198.598984 91.060992 
L 210.335604 54.648065 
L 206.923304 53.363384 
L 199.950134 63.073313 
L 196.807877 62.111007 
L 201.752269 29.466565 
L 197.552451 28.464213 
L 182.964429 82.308162 
L 180.435356 81.870414 
L 183.753488 34.582093 
L 179.723413 34.143132 
L 174.419319 54.388477 
L 171.016616 54.233211 
L 167.6383 71.729802 
L 164.784198 71.779172 
L 160.606209 51.364954 
L 157.115269 51.645496 
L 151.406371 34.632954 
L 147.393889 35.211033 
L 139.362365 14.941488 
L 134.736695 15.907993 
L 141.7979 62.068293 
L 138.652796 62.934919 
L 139.092878 74.775559 
L 136.348655 75.720954 
L 119.807991 42.025796 
L 116.043579 43.593742 
L 109.720883 39.762768 
L 105.890303 41.648993 
L 99.538786 38.980839 
L 95.688656 41.187599 
L 87.808667 37.082393 
L 83.904645 39.658912 
L 103.019825 73.780264 
L 100.262144 75.860367 
L 118.049088 102.665823 
L 116.192201 104.259091 
L 106.534166 97.587149 
L 104.523287 99.544982 
L 93.657892 93.231403 
L 91.516426 95.596248 
L 62.358568 75.726671 
L 59.68219 79.08429 
L 68.241365 90.567145 
L 66.028695 93.732458 
L 82.625136 108.770986 
L 80.977723 111.475041 
L 88.78818 119.349684 
L 87.470337 121.85473 
L 39.237502 102.441123 
L 37.412516 106.512511 
L 33.586372 109.802722 
L 31.995646 114.048154 
L 29.086897 117.874163 
L 27.752179 122.257078 
L 48.737882 132.306793 
L 47.847242 136.064701 
L 51.573552 140.693088 
L 50.945193 144.357691 
L 31.505164 145.707206 
L 31.044382 150.000323 
L 15.489677 153.394781 
L 15.278528 158.187659 
L 76.243322 162.792898 
L 76.297632 165.670901 
L 71.114319 168.898151 
L 71.363127 171.934403 
L 17.240269 182.023169 
L 17.928394 186.74685 
L 82.414893 179.084602 
L 82.978398 181.760503 
L 92.48421 182.110802 
L 93.137887 184.468605 
L 68.502161 195.142807 
L 69.57745 198.248215 
L 31.087467 217.183546 
L 32.874264 221.454457 
L 89.91843 199.485918 
L 91.119688 201.915805 
L 52.369701 226.502304 
L 54.438978 230.099447 
L 95.815725 208.551093 
L 97.299095 210.791073 
L 76.081018 229.659163 
L 78.23783 232.50921 
L 61.148765 251.410199 
L 63.996861 254.718994 
L 67.501613 257.412253 
L 70.535285 260.518333 
L 109.023583 225.574304 
L 111.035671 227.390583 
L 85.039488 263.346104 
L 88.251062 265.897821 
L 96.445591 261.538731 
L 99.594697 263.732708 
L 101.186985 268.409625 
L 104.549784 270.451126 
L 118.185876 253.625738 
L 121.075432 255.140066 
L 135.275475 232.356751 
L 137.487837 233.34426 
L 136.397378 242.787266 
L 138.937144 243.734343 
L 121.508075 307.081285 
L 126.076747 308.464726 
L 131.245871 307.484756 
L 135.822415 308.561819 
L 140.291019 310.2444 
L 144.94986 311.035699 
L 149.539147 312.437358 
L 154.262367 312.936792 
L 159.309432 307.956778 
L 163.886943 308.151229 
L 168.234415 258.619036 
L 171.256226 258.557259 
L 177.675993 308.631459 
L 182.265635 308.248091 
L 187.635118 313.771252 
L 192.381443 313.072206 
L 194.611037 299.498136 
L 198.905135 298.586808 
L 205.488942 306.395727 
L 209.994537 305.138965 
L 214.458388 303.741157 
L 218.876083 302.203688 
L 199.351834 241.071997 
L 201.806542 240.040496 
L 214.406376 260.276882 
L 217.457484 258.762538 
L 216.74972 250.487659 
L 219.491875 248.904475 
L 226.304249 253.654856 
L 229.141264 251.769691 
L 224.690946 239.960625 
L 227.098182 238.132956 
L 221.126782 226.283416 
L 223.105738 224.574575 
L 248.664876 247.698571 
L 251.303556 245.113284 
L 258.890213 247.118201 
L 261.505589 244.211694 
L 256.352124 234.94616 
L 258.58604 232.125474 
L 262.589145 230.570561 
L 264.682399 227.555933 
L 264.094241 222.856797 
L 265.944213 219.798659 
L 290.496759 229.046821 
L 292.528304 225.155469 
L 260.523282 205.485448 
L 261.828826 202.548177 
L 304.984355 215.891536 
L 306.595106 211.551167 
L 273.905299 196.287214 
L 274.915014 192.933731 
L 260.279111 185.660107 
L 260.961424 182.740316 
L 302.810642 187.410528 
L 303.526963 183.152587 
L 254.12211 172.872191 
L 254.405387 170.152312 
L 274.404507 168.54694 
L 274.54176 165.191477 
L 319.578816 161.550294 
L 319.473744 156.777911 
L 260.622196 156.071623 
L 260.374013 153.155674 
L 305.404712 144.221398 
L 304.761789 139.903248 
L 262.823352 143.73584 
L 262.186216 140.756781 
L 243.753422 142.468042 
L 243.085852 140.08921 
L 262.613312 130.998276 
L 261.575783 128.032119 
L 277.422201 118.247229 
L 275.976429 114.821753 
L 277.175735 110.12571 
L 275.474727 106.711998 
L 251.690845 115.6302 
L 250.17551 113.015068 
L 275.511255 93.096821 
L 273.275644 89.743864 
L 234.708772 113.168146 
L 233.124421 111.088185 
L 227.96934 112.001047 
L 226.351625 110.133566 
L 268.313875 66.756844 
L 265.253636 63.643212 
L 226.339854 99.251301 
L 224.322065 97.441358 
L 226.104459 90.965892 
L 223.826275 89.167447 
L 232.146218 72.552891 
L 229.286102 70.573584 
L 222.324881 75.155517 
L 219.551452 73.483727 
L 233.404659 41.027129 
L 229.552681 39.02384 
L 200.386424 91.858833 
L 198.149032 90.868577 
L 209.656403 54.382554 
L 206.236091 53.11936 
L 199.324129 62.872954 
L 196.175882 61.930431 
L 200.91486 29.255537 
L 196.708822 28.279619 
L 182.459735 82.214253 
L 179.92796 81.792421 
L 182.948609 34.484165 
L 178.915853 34.07056 
L 173.739196 54.348864 
L 170.335583 54.215002 
L 167.067378 71.732495 
L 164.213643 71.799815 
L 159.907343 51.412277 
L 156.418236 51.714771 
L 150.602452 34.738471 
L 146.593685 35.341774 
L 138.434836 15.123144 
L 133.815336 16.118723 
L 141.166724 62.233699 
L 138.027132 63.120088 
L 138.541676 74.957727 
L 135.803454 75.920362 
L 119.051193 42.329902 
L 115.296717 43.921493 
L 108.950052 40.130361 
L 105.131411 42.040641 
L 98.763239 39.412487 
L 94.927064 41.643418 
L 87.021412 37.587855 
L 83.133672 40.188877 
L 102.463078 74.18933 
L 99.718534 76.286736 
L 117.673717 102.979792 
L 115.826887 104.584707 
L 106.12708 97.973641 
L 104.128555 99.944083 
L 93.223666 93.698966 
L 91.097116 96.077232 
L 61.814867 76.391435 
L 59.159659 79.76582 
L 67.790885 91.194616 
L 65.598167 94.373783 
L 82.288864 109.307631 
L 80.65849 112.021994 
L 88.518319 119.847358 
L 87.216258 122.360643 
L 38.862276 103.250777 
L 37.062933 107.333562 
L 33.257559 110.647773 
L 31.693565 114.903125 
L 28.808937 118.747354 
L 27.501811 123.138576 
L 48.550307 133.056104 
L 47.683319 136.81954 
L 51.438666 141.424399 
L 50.833367 145.092881 
L 31.40221 146.564636 
L 30.968439 150.860567 
L 15.435391 154.352787 
L 15.254391 159.146898 
L 76.246943 163.368612 
L 76.319353 166.246217 
L 71.15644 169.506004 
L 71.42434 172.540631 
L 17.366005 182.969599 
L 18.083825 187.688859 
L 82.520857 179.621178 
L 83.101181 182.293482 
L 92.609009 182.583989 
L 93.277502 184.937634 
L 68.709397 195.766569 
L 69.804197 198.865153 
L 31.434067 218.04219 
L 33.247691 222.301778 
L 90.152559 199.974898 
L 91.369076 202.397182 
L 52.774491 227.226911 
L 54.866351 230.810968 
L 96.106752 209.002803 
L 97.604181 211.23341 
L 76.505193 230.234576 
L 78.679888 233.071001 
L 61.710038 252.079097 
L 64.578887 255.369914 
L 68.100509 258.041077 
L 71.153657 261.128015 
L 109.421416 225.942607 
L 111.444886 227.746196 
L 85.675357 263.864507 
L 88.902917 266.395975 
L 97.069867 261.985432 
L 100.232711 264.15956 
L 101.854382 268.826369 
L 105.229954 270.846679 
L 118.759954 253.935861 
L 121.658977 255.431985 
L 135.715445 232.559811 
L 137.933975 233.533386 
L 136.902929 242.983064 
L 139.448601 243.914148 
L 122.418293 307.369456 
L 126.995576 308.724135 
L 132.158434 307.711674 
L 136.741662 308.759932 
L 141.220759 310.414374 
L 145.884485 311.176357 
L 150.482497 312.549123 
L 155.208765 313.018841 
L 160.224409 308.007183 
L 164.803052 308.17284 
L 168.838909 258.614283 
L 171.860271 258.533502 
L 178.594849 308.566335 
L 183.18199 308.154108 
L 188.586104 313.64339 
L 193.327939 312.914505 
L 195.472115 299.326681 
L 199.760396 298.388364 
L 206.393187 306.15572 
L 210.890788 304.870644 
L 215.34576 303.44479 
L 219.753698 301.879566 
L 199.845351 240.871881 
L 202.293523 239.824961 
L 215.020383 259.981701 
L 218.061907 258.448197 
L 217.302113 250.177933 
L 220.034256 248.577534 
L 226.876372 253.284975 
L 229.701474 251.382004 
L 225.176972 239.601162 
L 227.572665 237.758389 
L 221.526856 225.94664 
L 223.495026 224.225386 
L 249.199095 247.188172 
L 251.821463 244.58634 
L 259.42058 246.543503 
L 262.017624 243.620604 
L 256.805986 234.387665 
L 259.022117 231.552984 
L 263.015364 229.972925 
L 265.089615 226.945191 
L 264.471915 222.249848 
L 266.302616 219.180135 
L 290.912842 228.273692 
L 292.919872 224.369641 
L 260.79177 204.901301 
L 262.078814 201.955878 
L 305.317412 215.027549 
L 306.900833 210.677135 
L 274.115671 195.619084 
L 275.104274 192.259317 
L 260.422914 185.077889 
L 261.086849 182.153864 
L 302.964613 186.560775 
L 303.654139 182.298414 
L 254.185606 172.328949 
L 254.451771 169.607343 
L 274.440399 167.876219 
L 274.556545 164.519959 
L 319.569809 160.59559 
L 319.434723 155.823963 
L 260.579898 155.487832 
L 260.313379 152.573502 
L 305.286996 143.356185 
L 304.616927 139.042164 
L 262.703425 143.138448 
L 262.047565 140.163456 
L 243.625898 141.990615 
L 242.94338 139.616029 
L 262.413277 130.402457 
L 261.357112 127.442885 
L 277.141676 117.558524 
L 275.674388 114.142208 
L 276.844135 109.438715 
L 275.12169 106.03577 
L 251.394369 115.103382 
L 249.862617 112.497833 
L 275.072586 92.420632 
L 272.815931 89.081802 
L 234.397147 112.748184 
L 232.799746 110.678229 
L 227.650508 111.623496 
L 226.02108 109.766226 
L 267.709685 66.126443 
L 264.629923 63.03212 
L 225.940865 98.88425 
L 223.911733 97.087033 
L 225.653365 90.600486 
L 223.363915 88.816405 
L 231.579197 72.14985 
L 228.706689 70.18857 
L 221.774423 74.814195 
L 218.990535 73.159882 
L 232.639333 40.616796 
L 228.774832 38.637774 
L 199.941455 91.65516 
L 197.697878 90.678996 
L 208.975545 54.121321 
L 205.547356 52.879663 
L 198.696875 62.676536 
L 195.542763 61.753832 
L 200.076141 29.049779 
L 195.864048 28.100334 
L 181.954461 82.123521 
L 179.420083 81.71762 
L 182.14313 34.391302 
L 178.107853 34.003069 
L 173.058837 54.31353 
L 169.65445 54.201077 
L 166.496484 71.738779 
L 163.643229 71.824045 
L 159.208788 51.463996 
L 155.721653 51.788428 
L 149.799213 34.849041 
L 145.794319 35.477546 
L 137.508468 15.31063 
L 132.895321 16.335243 
L 140.5366 62.403071 
L 137.402646 63.309189 
L 137.991632 75.143357 
L 135.259518 76.123195 
L 118.296324 42.638762 
L 114.551932 44.253935 
L 108.181548 40.502795 
L 104.374998 42.437054 
L 97.990421 39.849005 
L 94.168353 42.104019 
L 86.237351 38.098258 
L 82.366047 40.72368 
L 101.908914 74.60189 
L 99.177615 76.716516 
L 117.300328 103.296116 
L 115.463629 104.912615 
L 105.722434 98.362686 
L 103.736341 100.345658 
L 92.79239 94.16925 
L 90.68084 96.560845 
L 61.275357 77.059605 
L 58.641425 80.450623 
L 67.34436 91.824908 
L 65.171681 95.017803 
L 81.955973 109.84638 
L 80.342704 112.570944 
L 88.251595 120.346719 
L 86.965366 122.868143 
L 38.49215 104.062775 
L 36.718521 108.156796 
L 32.934067 111.494875 
L 31.396868 115.75998 
L 28.536475 119.622275 
L 27.256993 124.021631 
L 48.367448 133.80658 
L 47.524147 137.575394 
L 51.308382 142.156544 
L 50.726168 145.82876 
L 31.304652 147.422697 
L 30.897908 151.721271 
L 15.387131 155.311116 
L 15.236287 160.106271 
L 76.254185 163.944293 
L 76.344692 166.821386 
L 71.202383 170.113579 
L 71.489364 173.146461 
L 17.49769 183.91522 
L 18.245178 188.629871 
L 82.630194 180.157078 
L 83.227314 182.825679 
L 92.736781 183.056381 
L 93.420064 185.405775 
L 68.920553 196.389016 
L 70.034819 199.480653 
L 31.786061 218.898636 
L 33.62644 223.146734 
L 90.389759 200.462396 
L 91.621486 202.87698 
L 53.183829 227.948956 
L 55.29819 231.519786 
L 96.400614 209.452674 
L 97.912043 211.673818 
L 76.932979 230.80731 
L 79.12547 233.630001 
L 62.275506 252.744452 
L 65.164995 256.01716 
L 68.703348 258.666121 
L 71.77585 261.733796 
L 109.821556 226.308401 
L 111.856331 228.099228 
L 86.314475 264.378901 
L 89.557892 266.890019 
L 97.696941 262.428197 
L 100.873396 264.58239 
L 102.524387 269.238908 
L 105.912599 271.237947 
L 119.335972 254.242368 
L 122.244347 255.720229 
L 136.156684 232.760099 
L 138.381293 233.719702 
L 137.409701 243.175678 
L 139.961179 244.090733 
L 123.330305 307.651897 
L 127.916018 308.97776 
L 133.072406 307.932848 
L 137.662136 308.952259 
L 142.15155 310.578498 
L 146.819977 311.311133 
L 151.426532 312.654954 
L 156.15566 313.094937 
L 161.139685 308.051832 
L 165.719278 308.188688 
L 169.443361 258.605729 
L 172.464155 258.505947 
L 179.513278 308.495433 
L 184.097736 308.054364 
L 189.536267 313.509548 
L 194.273424 312.750855 
L 196.332098 299.149813 
L 200.614393 298.184544 
L 207.295905 305.91003 
L 211.785335 304.596693 
L 216.231251 303.142847 
L 220.629257 301.549931 
L 200.3376 240.668664 
L 202.779139 239.606368 
L 215.632522 259.682665 
L 218.66434 258.130062 
L 217.852546 249.86474 
L 220.57457 248.247188 
L 227.446158 252.911503 
L 230.259235 250.990802 
L 225.660728 239.238649 
L 228.044783 237.380845 
L 221.924805 225.607354 
L 223.88211 223.873756 
L 249.730094 246.674424 
L 252.336046 244.05615 
L 259.947322 245.96548 
L 262.525931 243.026304 
L 257.256326 233.826327 
L 259.454585 230.977764 
L 263.437815 229.372621 
L 265.492983 226.331901 
L 264.845763 221.640535 
L 266.657121 218.559369 
L 291.324054 227.497962 
L 293.306491 223.581365 
L 261.056579 204.315478 
L 262.325073 201.362018 
L 305.645028 214.161484 
L 307.201056 209.801198 
L 274.321836 194.949644 
L 275.289289 191.583727 
L 260.563052 184.494777 
L 261.208584 181.566635 
L 303.113236 185.710071 
L 303.775941 181.443457 
L 254.245684 171.785319 
L 254.494726 169.062093 
L 274.472071 167.205286 
L 274.567106 163.848362 
L 319.554797 159.640963 
L 319.389703 154.870279 
L 260.533928 154.904318 
L 260.249085 151.991722 
L 305.163841 142.491729 
L 304.466653 138.182008 
L 262.579742 142.541823 
L 261.905184 139.571015 
L 243.495374 141.513999 
L 242.797935 139.143753 
L 262.209498 129.807909 
L 261.13474 126.855038 
L 276.856825 116.871596 
L 275.368079 113.464577 
L 276.508221 108.753819 
L 274.764407 105.361775 
L 251.094586 114.578439 
L 249.546476 111.982575 
L 274.629673 91.747215 
L 272.352063 88.422644 
L 234.082887 112.330191 
L 232.472499 110.270323 
L 227.329308 111.247957 
L 225.688231 109.400972 
L 267.101542 65.499855 
L 264.002379 62.424962 
L 225.539576 98.519716 
L 223.49918 96.735297 
L 225.199981 90.237924 
L 222.899355 88.468277 
L 231.009652 71.750383 
L 228.124865 69.807208 
L 221.221829 74.476342 
L 218.427592 72.83957 
L 231.871443 40.211285 
L 227.994571 38.256607 
L 199.495213 91.454291 
L 197.245542 90.492257 
L 208.293059 53.864374 
L 204.857128 52.644302 
L 198.068399 62.484068 
L 194.908546 61.58122 
L 199.236144 28.849301 
L 195.018163 27.926366 
L 181.448627 82.035968 
L 178.911746 81.646015 
L 181.337084 34.303506 
L 177.299444 33.940661 
L 172.37827 54.282476 
L 168.973242 54.191437 
L 165.925641 71.748653 
L 163.072979 71.851863 
L 158.510572 51.520106 
L 155.025547 51.866464 
L 148.996685 34.964662 
L 144.995823 35.618342 
L 136.583298 15.503939 
L 131.976686 16.557545 
L 139.907554 62.576403 
L 136.779361 63.502214 
L 137.442765 75.332444 
L 134.716868 76.329446 
L 117.543411 42.952364 
L 113.809252 44.591055 
L 107.415402 40.880055 
L 103.621092 42.838217 
L 97.220365 40.290374 
L 93.412555 42.569383 
L 85.456515 38.613582 
L 81.6018 41.263301 
L 101.357356 75.017927 
L 98.639411 77.149689 
L 116.928936 103.614782 
L 115.10244 105.242801 
L 105.320242 98.754268 
L 103.346661 100.749692 
L 92.36408 94.642238 
L 90.267613 97.047066 
L 60.74006 77.731155 
L 58.127508 81.138673 
L 66.901809 92.457995 
L 64.749254 95.664492 
L 81.626477 110.387213 
L 80.030376 113.121869 
L 87.988016 120.847748 
L 86.717671 123.377212 
L 38.127139 104.877085 
L 36.379294 108.98218 
L 32.615909 112.343995 
L 31.105565 116.618684 
L 28.269521 120.498892 
L 27.017734 124.906209 
L 48.189313 134.558192 
L 47.369732 138.332235 
L 51.182705 142.889493 
L 50.623599 146.565298 
L 31.212492 148.281355 
L 30.832791 152.582401 
L 15.3449 156.26973 
L 15.224217 161.065738 
L 76.265047 164.519916 
L 76.373647 167.396383 
L 71.252147 170.720853 
L 71.558197 173.751871 
L 17.635321 184.859993 
L 18.412446 189.56985 
L 82.7429 180.692279 
L 83.356792 183.357072 
L 92.867521 183.52796 
L 93.565568 185.873011 
L 69.135619 197.010122 
L 70.269308 200.09469 
L 32.143435 219.752852 
L 34.010495 223.989291 
L 90.63002 200.948393 
L 91.876909 203.355182 
L 53.597701 228.668413 
L 55.734478 232.225875 
L 96.6973 209.900688 
L 98.222669 212.112282 
L 77.364358 231.377342 
L 79.574559 234.186188 
L 62.845147 253.406237 
L 65.755163 256.660707 
L 69.310107 259.287362 
L 72.401842 262.335652 
L 110.22399 226.671672 
L 112.269987 228.449666 
L 86.956815 264.889264 
L 90.215961 267.379933 
L 98.326788 262.86701 
L 101.516728 265.001182 
L 103.196973 269.647224 
L 106.597691 271.624914 
L 119.913906 254.545245 
L 122.831519 256.004785 
L 136.599174 232.957609 
L 138.829775 233.903201 
L 137.917674 243.365101 
L 140.474857 244.264091 
L 124.244076 307.928596 
L 128.838037 309.225592 
L 133.987751 308.148269 
L 138.583802 309.138794 
L 143.083356 310.736764 
L 147.756297 311.440023 
L 152.371213 312.754844 
L 157.103015 313.165075 
L 162.055223 308.090724 
L 166.635587 308.198774 
L 170.047747 258.593373 
L 173.067854 258.474594 
L 180.431243 308.418757 
L 185.012836 307.948863 
L 190.48557 313.369733 
L 195.217861 312.581261 
L 197.190952 298.96754 
L 201.467091 297.975357 
L 208.197059 305.658668 
L 212.67814 304.31712 
L 217.114825 302.835341 
L 221.502725 301.214795 
L 200.828561 240.462356 
L 203.26337 239.384725 
L 216.242768 259.379784 
L 219.264761 257.808143 
L 218.400999 249.54809 
L 221.112795 247.913451 
L 228.013583 252.534455 
L 230.814525 250.596099 
L 226.142194 238.873101 
L 228.514518 237.00034 
L 222.320612 225.265572 
L 224.266975 223.519698 
L 250.257851 246.157346 
L 252.847284 243.522734 
L 260.470418 245.384155 
L 263.03049 242.42882 
L 257.703127 233.262167 
L 259.883426 230.399835 
L 263.856482 228.769672 
L 265.892485 225.716086 
L 265.215772 221.028883 
L 267.007716 217.936386 
L 291.730379 226.719661 
L 293.688143 222.790673 
L 261.317698 203.728001 
L 262.567591 200.766621 
L 305.967191 213.293376 
L 307.495765 208.923389 
L 274.523787 194.278921 
L 275.470051 190.906985 
L 260.69952 183.910796 
L 261.326623 180.978652 
L 303.256506 184.85845 
L 303.892363 180.587752 
L 254.302342 171.241322 
L 254.534251 168.516583 
L 274.499522 166.534167 
L 274.573443 163.176712 
L 319.533782 158.686449 
L 319.338686 153.916898 
L 260.484289 154.321106 
L 260.181133 151.410359 
L 305.035251 141.628065 
L 304.310971 137.322814 
L 262.45231 141.945988 
L 261.759081 138.979481 
L 243.361855 141.038214 
L 242.649522 138.672401 
L 262.001984 129.214654 
L 260.908676 126.268601 
L 276.567659 116.186474 
L 275.057515 112.788885 
L 276.168006 108.07105 
L 274.402893 104.69004 
L 250.791507 114.055392 
L 249.227101 111.469316 
L 274.182533 91.076597 
L 271.884058 87.766417 
L 233.766004 111.914182 
L 232.142692 109.864484 
L 227.005752 110.874446 
L 225.353091 109.037819 
L 266.48947 64.877104 
L 263.371029 61.821764 
L 225.136003 98.157713 
L 223.084424 96.386162 
L 224.744326 89.878221 
L 222.432616 88.123079 
L 230.437606 71.354505 
L 227.540655 69.429513 
L 220.667122 74.141971 
L 217.862645 72.522805 
L 231.101017 39.810611 
L 227.211928 37.880356 
L 199.047717 91.256232 
L 196.792039 90.308366 
L 207.608969 53.611725 
L 204.165433 52.413288 
L 197.438725 62.295555 
L 194.273256 61.412599 
L 198.394903 28.65411 
L 194.171201 27.757722 
L 180.942252 81.951598 
L 178.402968 81.577608 
L 180.5305 34.220782 
L 176.490659 33.883338 
L 171.69752 54.255702 
L 168.291988 54.186081 
L 165.354871 71.762118 
L 162.502915 71.883267 
L 157.812723 51.580607 
L 154.329945 51.948877 
L 148.194899 35.085327 
L 144.198229 35.764158 
L 135.659361 15.703062 
L 131.059467 16.785621 
L 139.279611 62.753688 
L 136.157302 63.699155 
L 136.895099 75.524978 
L 134.175527 76.539105 
L 116.792487 43.270695 
L 113.068708 44.932839 
L 106.651643 41.262126 
L 102.869725 43.244114 
L 96.453099 40.736578 
L 92.659699 43.03949 
L 84.678937 39.133807 
L 80.840963 41.807717 
L 100.808425 75.437425 
L 98.103942 77.586239 
L 116.559555 103.935778 
L 114.743335 105.575252 
L 104.920521 99.148372 
L 102.959529 101.156169 
L 91.938753 95.11791 
L 89.857453 97.535876 
L 60.208997 78.406059 
L 57.617928 81.82994 
L 66.463248 93.093854 
L 64.330903 96.313826 
L 81.30039 110.930107 
L 79.72152 113.674748 
L 87.727593 121.350425 
L 86.473183 123.887829 
L 37.767256 105.693674 
L 36.045265 109.809681 
L 32.303098 113.195099 
L 30.819669 117.479202 
L 28.008085 121.377171 
L 26.784043 125.792274 
L 48.015908 135.310908 
L 47.220081 139.090032 
L 51.06164 143.623218 
L 50.525664 147.302467 
L 31.125734 149.140575 
L 30.773092 153.443924 
L 15.308698 157.22859 
L 15.218182 162.025263 
L 76.27953 165.09546 
L 76.406219 167.971187 
L 71.305729 171.327803 
L 71.630836 174.356836 
L 17.77889 185.803883 
L 18.585622 190.508759 
L 82.858969 181.226761 
L 83.489609 183.88764 
L 93.001225 183.998708 
L 93.714007 186.339322 
L 69.354588 197.629863 
L 70.507654 200.70724 
L 32.506174 220.604804 
L 34.399842 224.829415 
L 90.873333 201.432869 
L 92.135334 203.831768 
L 54.01609 229.385253 
L 56.175199 232.929205 
L 96.996798 210.346827 
L 98.536046 212.548784 
L 77.799314 231.944649 
L 80.027138 234.739538 
L 63.41894 254.064427 
L 66.349367 257.30053 
L 69.92076 259.904774 
L 73.031606 262.933558 
L 110.6287 227.032404 
L 112.685839 228.797494 
L 87.602352 265.395578 
L 90.877099 267.865699 
L 98.959381 263.301853 
L 102.162681 265.41592 
L 103.872115 270.051302 
L 107.285203 272.007564 
L 120.493734 254.844482 
L 123.420468 256.285643 
L 137.042898 233.152332 
L 139.279401 234.083876 
L 138.426829 243.551325 
L 140.989615 244.434214 
L 125.159568 308.199542 
L 129.761596 309.467619 
L 134.904433 308.357929 
L 139.506623 309.319527 
L 144.016138 310.889166 
L 148.69341 311.563022 
L 153.316504 312.848792 
L 158.050793 313.229254 
L 162.970988 308.123856 
L 167.551941 308.203097 
L 170.652043 258.577216 
L 173.671343 258.439445 
L 181.348708 308.336308 
L 185.927254 307.837608 
L 191.433974 313.223951 
L 196.161213 312.405731 
L 198.048642 298.77987 
L 202.318456 297.760812 
L 209.096615 305.401643 
L 213.56917 304.031938 
L 217.996447 302.522284 
L 222.374068 300.874173 
L 201.318215 240.252964 
L 203.746198 239.16004 
L 216.851096 259.073071 
L 219.863145 257.482455 
L 218.947449 249.227998 
L 221.648911 247.576335 
L 228.578626 252.153846 
L 231.367321 250.197912 
L 226.621352 238.504532 
L 228.98185 236.616887 
L 222.714262 224.921308 
L 224.649606 223.163227 
L 250.782345 245.636959 
L 253.355157 242.986113 
L 260.989847 244.799552 
L 263.531282 241.828174 
L 258.146371 232.695209 
L 260.308625 229.81922 
L 264.271349 228.164101 
L 266.288106 225.09777 
L 265.581927 220.414917 
L 267.354385 217.31121 
L 292.131801 225.93882 
L 294.064816 221.997596 
L 261.575117 203.138893 
L 262.80636 200.169711 
L 306.283888 212.423259 
L 307.784947 208.043745 
L 274.721516 193.606942 
L 275.646553 190.229121 
L 260.832312 183.325968 
L 261.440961 180.389937 
L 303.394417 184.005943 
L 304.003401 179.731331 
L 254.355577 170.696979 
L 254.570345 167.970835 
L 274.522753 165.862888 
L 319.581818 162.505035 
z
" clip-path="url(#p7a7f6cd56d)" style="fill: #0000ff; opacity: 0.5; stroke: #000000; stroke-width: 1.5; stroke-linejoin: miter"/>
   </g>
  </g>
 </g>
 <defs>
  <clipPath id="p7a7f6cd56d">
   <rect x="0" y="-0" width="334.8" height="328.712741"/>
  </clipPath>
 </defs>
</svg>
