<?xml version="1.0" encoding="utf-8" standalone="no"?>
<!DOCTYPE svg PUBLIC "-//W3C//DTD SVG 1.1//EN"
  "http://www.w3.org/Graphics/SVG/1.1/DTD/svg11.dtd">
<svg xmlns:xlink="http://www.w3.org/1999/xlink" width="334.8pt" height="325.235274pt" viewBox="0 0 334.8 325.235274" xmlns="http://www.w3.org/2000/svg" version="1.1">
 <metadata>
  <rdf:RDF xmlns:dc="http://purl.org/dc/elements/1.1/" xmlns:cc="http://creativecommons.org/ns#" xmlns:rdf="http://www.w3.org/1999/02/22-rdf-syntax-ns#">
   <cc:Work>
    <dc:type rdf:resource="http://purl.org/dc/dcmitype/StillImage"/>
    <dc:date>2023-12-09T18:06:18.787786</dc:date>
    <dc:format>image/svg+xml</dc:format>
    <dc:creator>
     <cc:Agent>
      <dc:title>Matplotlib v3.8.2, https://matplotlib.org/</dc:title>
     </cc:Agent>
    </dc:creator>
   </cc:Work>
  </rdf:RDF>
 </metadata>
 <defs>
  <style type="text/css">*{stroke-linejoin: round; stroke-linecap: butt}</style>
 </defs>
 <g id="figure_1">
  <g id="patch_1">
   <path d="M 0 325.235274 
L 334.8 325.235274 
L 334.8 0 
L 0 0 
L 0 325.235274 
z
" style="fill: none"/>
  </g>
  <g id="axes_1">
   <g id="patch_2">
    <path d="M 269.43475 157.396243 
L 269.383221 154.119394 
L 255.9339 151.683062 
L 255.709412 148.833533 
L 245.289182 147.270481 
L 244.931216 144.757828 
L 305.299799 130.646536 
L 304.389468 126.255237 
L 281.332589 127.551566 
L 280.336796 123.915378 
L 239.733285 133.158371 
L 238.93435 130.827385 
L 308.723129 100.515307 
L 306.863714 96.031269 
L 287.142441 99.956684 
L 285.276132 96.151466 
L 264.069659 102.986485 
L 262.310021 99.905228 
L 284.925207 81.33172 
L 282.474384 77.605425 
L 234.918291 106.687938 
L 233.289448 104.521433 
L 284.694702 58.415992 
L 281.523472 54.708275 
L 261.683695 66.670435 
L 258.783381 63.682154 
L 237.568551 80.222813 
L 235.106277 77.986063 
L 215.111612 96.975203 
L 213.187173 95.436266 
L 237.434595 57.799142 
L 234.267338 55.577691 
L 247.380815 27.637603 
L 243.260295 25.118334 
L 210.428409 74.947443 
L 207.813684 73.566647 
L 199.498626 84.328475 
L 197.184266 83.286698 
L 210.368151 42.956902 
L 206.747603 41.593818 
L 198.020645 56.001749 
L 194.816361 55.020448 
L 186.929934 72.362004 
L 184.245536 71.721331 
L 181.54232 71.165377 
L 178.822961 70.694693 
L 180.459011 35.319634 
L 176.613119 34.900735 
L 173.956503 15.049897 
L 169.476501 14.845473 
L 165.057587 56.312529 
L 161.879373 56.367505 
L 157.442429 36.973187 
L 153.659908 37.277162 
L 150.485998 42.363411 
L 146.876397 42.883447 
L 145.655915 55.828019 
L 142.472059 56.493265 
L 132.834235 32.223802 
L 128.91455 33.303861 
L 128.927564 46.423199 
L 125.45627 47.619071 
L 122.314175 49.651503 
L 118.947656 51.053719 
L 130.704821 84.436645 
L 128.427875 85.557842 
L 96.252275 32.565153 
L 92.36141 34.79526 
L 89.806444 39.128739 
L 86.125139 41.558272 
L 108.854925 80.179178 
L 106.454918 81.989488 
L 89.588413 66.397853 
L 86.764617 68.820759 
L 79.178775 66.201552 
L 76.353953 68.951856 
L 71.899513 70.184496 
L 69.203523 73.161707 
L 72.652418 81.202216 
L 70.302477 84.150307 
L 61.060304 82.121941 
L 58.745013 85.434059 
L 79.066542 103.034915 
L 77.399898 105.770537 
L 75.132426 108.181524 
L 73.629548 111.038299 
L 60.858543 108.633394 
L 59.37693 111.938748 
L 71.128534 120.445034 
L 70.013227 123.421637 
L 38.409092 116.590434 
L 37.188765 120.597713 
L 17.106585 119.82449 
L 15.998477 124.499967 
L 85.121272 142.3625 
L 84.68818 144.888303 
L 50.115491 143.208497 
L 49.726306 146.83454 
L 51.015719 150.564612 
L 50.857382 154.158713 
L 86.857351 157.642663 
L 86.903842 160.106325 
L 62.007371 164.222049 
L 62.273019 167.463796 
L 43.213178 173.214403 
L 43.770857 177.042634 
L 29.064183 183.839362 
L 29.96293 188.107216 
L 49.194895 187.605927 
L 50.202118 191.238965 
L 63.977902 190.678282 
L 65.074418 193.844991 
L 65.542411 197.266682 
L 66.845307 200.380941 
L 59.043845 207.823016 
L 60.681867 211.136385 
L 82.981914 202.996539 
L 84.456346 205.559629 
L 60.928773 224.123396 
L 63.078384 227.369439 
L 95.674575 208.323491 
L 97.310222 210.484862 
L 98.411169 213.095532 
L 100.195508 215.1685 
L 77.571956 240.345493 
L 80.223396 243.060218 
L 110.200051 216.450016 
L 112.084033 218.150657 
L 95.13272 242.810726 
L 97.85299 244.972084 
L 76.366378 280.745293 
L 80.288672 283.477949 
L 108.487998 247.611693 
L 111.352617 249.350757 
L 124.384785 232.416013 
L 126.76376 233.66276 
L 100.748866 295.931843 
L 105.136603 297.890352 
L 113.577899 289.492539 
L 117.756828 291.050858 
L 132.492571 259.639699 
L 135.723509 260.618059 
L 132.473252 287.328915 
L 136.574809 288.294193 
L 143.141539 276.03369 
L 146.882674 276.669119 
L 155.468589 237.51577 
L 157.992542 237.782653 
L 159.065654 263.002684 
L 162.389193 263.143866 
L 165.815327 284.337326 
L 169.806337 284.255735 
L 171.939908 256.685514 
L 175.058456 256.425025 
L 185.305477 310.451852 
L 190.107948 309.744537 
L 182.837368 247.367656 
L 185.657554 246.769134 
L 199.581424 288.53023 
L 203.687573 287.384887 
L 196.936473 253.374301 
L 199.93855 252.329502 
L 197.647256 238.103211 
L 200.168825 237.043615 
L 227.952658 288.951889 
L 232.058037 286.914283 
L 218.186582 252.568168 
L 221.152806 250.855617 
L 208.399357 224.653433 
L 210.49272 223.262417 
L 240.379419 259.694518 
L 243.558738 257.280653 
L 219.009827 221.709698 
L 221.005386 219.986521 
L 268.805462 266.504653 
L 272.184852 263.193643 
L 237.5628 224.584281 
L 239.639569 222.276337 
L 244.068974 221.888615 
L 246.057768 219.377435 
L 263.880102 228.229718 
L 266.05848 225.092497 
L 292.041281 236.867142 
L 294.477315 232.840202 
L 240.989251 198.483498 
L 242.24366 196.080722 
L 249.820522 196.605067 
L 251.011502 193.925546 
L 282.058365 202.859988 
L 283.430075 199.163746 
L 286.92492 196.139264 
L 288.08291 192.29333 
L 297.480946 190.506035 
L 298.456595 186.330982 
L 277.723759 178.147603 
L 278.320601 174.599869 
L 296.699767 173.183714 
L 297.131151 169.041787 
L 319.337627 166.12964 
L 319.536023 161.279417 
L 269.432689 156.74077 
L 269.360552 153.464309 
L 255.896173 151.112614 
L 255.653767 148.264554 
L 245.223913 146.76707 
L 244.850151 144.256718 
L 305.128787 129.76602 
L 304.190856 125.380534 
L 281.142586 126.821852 
L 280.123944 123.191999 
L 239.579368 132.690182 
L 238.765789 130.364267 
L 308.362542 99.613857 
L 306.474962 95.141602 
L 286.778767 99.190975 
L 284.888562 95.397571 
L 263.725497 102.365831 
L 261.946515 99.295702 
L 284.444436 80.580324 
L 281.970226 76.869518 
L 234.597986 106.250556 
L 232.955549 104.094339 
L 284.069809 57.666499 
L 280.875323 53.978801 
L 261.111173 66.065506 
L 258.192121 63.095525 
L 237.081743 79.769286 
L 234.605449 77.548067 
L 214.730611 96.662586 
L 212.796531 95.135784 
L 236.806758 57.346901 
L 233.625591 55.145414 
L 246.563081 27.123403 
L 242.426798 24.630099 
L 209.908959 74.664716 
L 207.285601 73.300393 
L 199.038394 84.114306 
L 196.717526 83.087105 
L 209.647499 42.675187 
L 206.01845 41.334902 
L 197.382283 55.797435 
L 194.17189 54.836307 
L 186.394688 72.227121 
L 183.706313 71.603343 
L 180.999654 71.064403 
L 178.277388 70.610831 
L 179.690917 35.226182 
L 175.842466 34.83148 
L 173.061052 14.997743 
L 168.579853 14.8215 
L 164.421831 56.315528 
L 161.244025 56.390492 
L 156.685189 37.024463 
L 152.904655 37.352222 
L 149.762798 42.458333 
L 146.156539 43.00106 
L 145.017495 55.953053 
L 141.837886 56.638311 
L 132.047612 32.429945 
L 128.134797 33.534635 
L 128.230324 46.65363 
L 124.766621 47.871312 
L 121.63737 49.923465 
L 118.279737 51.346827 
L 130.246629 84.655147 
L 127.97678 85.790642 
L 95.468522 33.001368 
L 91.59176 35.255902 
L 89.0641 39.605365 
L 85.398148 42.058003 
L 108.370388 80.535187 
L 105.981814 82.360557 
L 89.01758 66.875311 
L 86.209079 69.315929 
L 78.606913 66.744484 
L 75.799446 69.512501 
L 71.352846 70.773132 
L 68.675635 73.76724 
L 72.175032 81.785899 
L 69.843679 84.748711 
L 60.588932 82.778514 
L 58.294518 86.105128 
L 78.726344 103.577825 
L 77.076938 106.323875 
L 74.824675 108.749076 
L 73.339794 111.615246 
L 60.553917 109.290711 
L 59.093122 112.605318 
L 70.897993 121.037526 
L 69.801429 124.021084 
L 38.154955 117.388788 
L 36.959856 121.403663 
L 16.87321 120.75676 
L 15.794529 125.439115 
L 85.028303 142.866551 
L 84.611105 145.395028 
L 50.028535 143.932698 
L 49.662163 147.561117 
L 50.975011 151.283005 
L 50.839282 154.878031 
L 86.860451 158.135493 
L 86.922436 160.598814 
L 62.052343 164.871041 
L 62.338374 168.111053 
L 43.315078 173.981422 
L 43.896824 177.80607 
L 29.233188 184.69516 
L 30.15876 188.957277 
L 49.387192 188.33504 
L 50.417245 191.961671 
L 64.18923 191.314357 
L 65.30564 194.474107 
L 65.795145 197.892787 
L 67.117602 200.99879 
L 59.3631 208.489784 
L 61.02193 211.792786 
L 83.27034 203.512846 
L 84.760864 206.066613 
L 61.350512 224.777987 
L 63.520496 228.010447 
L 95.996254 208.759863 
L 97.645463 210.910904 
L 98.762808 213.514598 
L 100.560148 215.576303 
L 78.095394 240.895087 
L 80.763855 243.593083 
L 110.572554 216.794871 
L 112.467194 218.483629 
L 95.671315 243.249824 
L 98.405124 245.39403 
L 77.143931 281.30167 
L 81.083334 284.009603 
L 109.056524 247.966698 
L 111.932024 249.687712 
L 124.857425 232.671337 
L 127.244193 233.903098 
L 101.621451 296.334568 
L 106.02142 298.265442 
L 114.409731 289.814704 
L 118.598378 291.346709 
L 133.136272 259.843492 
L 136.373299 260.801512 
L 133.291103 287.532282 
L 137.39865 288.471744 
L 143.888137 276.170183 
L 147.633196 276.782069 
L 155.972688 237.575494 
L 158.49827 237.826498 
L 159.72998 263.03928 
L 163.054341 263.159557 
L 166.613703 284.331049 
L 170.604121 284.224359 
L 172.564249 256.641264 
L 175.681096 256.361166 
L 186.267713 310.322477 
L 191.06564 309.58497 
L 183.402889 247.255051 
L 186.219255 246.638803 
L 200.405502 288.311501 
L 204.504367 287.140355 
L 197.539493 253.172902 
L 200.53494 252.109243 
L 198.154215 237.897644 
L 200.66907 236.822209 
L 228.778827 288.554713 
L 232.87131 286.491326 
L 218.784112 252.233134 
L 221.739506 250.501961 
L 208.821513 224.380508 
L 210.906086 222.976352 
L 241.02133 259.219763 
L 244.185405 256.785949 
L 219.413258 221.370097 
L 221.39794 219.634403 
L 269.489643 265.850979 
L 272.848142 262.518781 
L 237.983944 224.127936 
L 240.046156 221.806975 
L 244.473035 221.391402 
L 246.445996 218.867763 
L 264.323653 227.607779 
L 266.482257 224.456919 
L 292.5386 236.067915 
L 294.949258 232.025732 
L 241.246168 198.006117 
L 242.48544 195.5955 
L 250.06545 196.072181 
L 251.239554 193.385222 
L 282.341995 202.12422 
L 283.690431 198.419424 
L 287.166185 195.373021 
L 288.299962 191.51988 
L 297.686571 189.673512 
L 298.635943 185.492405 
L 277.852049 177.439586 
L 278.426565 173.888168 
L 296.796461 172.356447 
L 297.201786 168.211889 
L 319.389507 165.160133 
L 319.557393 160.308758 
L 269.426505 156.085322 
L 269.333762 152.80938 
L 255.854859 150.542414 
L 255.594546 147.695935 
L 245.155479 146.264079 
L 244.765935 143.756127 
L 304.952242 128.886598 
L 303.986747 124.507097 
L 280.947998 126.093347 
L 279.906545 122.469973 
L 239.422511 132.222971 
L 238.594318 129.902219 
L 307.996292 98.714692 
L 306.080621 94.254398 
L 286.410285 98.427569 
L 284.496259 94.646128 
L 263.377439 101.747354 
L 261.579182 98.688475 
L 283.95895 79.831968 
L 281.461449 76.136796 
L 234.274936 105.815198 
L 232.618971 103.669353 
L 283.440215 56.920952 
L 280.222598 53.253418 
L 260.534858 65.464189 
L 257.597184 62.512626 
L 236.592092 79.31883 
L 234.101877 77.113229 
L 214.347651 96.352372 
L 212.404007 94.837764 
L 236.176088 56.898618 
L 232.981138 54.717183 
L 245.74213 26.614356 
L 241.590247 24.147117 
L 209.38774 74.385263 
L 206.755854 73.037466 
L 198.576823 83.903035 
L 196.249541 82.890451 
L 208.92509 42.398011 
L 205.287683 41.080576 
L 196.742648 55.59714 
L 193.526273 54.656222 
L 185.858603 72.095607 
L 183.166358 71.48875 
L 180.456364 70.966843 
L 177.731299 70.530402 
L 178.922251 35.137563 
L 175.071393 34.767073 
L 172.165291 14.951222 
L 167.683072 14.803166 
L 163.786107 56.322526 
L 160.608835 56.417475 
L 155.928288 37.080501 
L 152.14989 37.432031 
L 149.040209 42.557801 
L 145.437435 43.1232 
L 144.379875 56.0821 
L 141.204638 56.787342 
L 131.262301 32.64103 
L 127.356511 33.770308 
L 127.534547 46.888443 
L 124.078571 48.127885 
L 120.962289 50.199679 
L 117.613675 51.64413 
L 129.789821 84.876527 
L 127.527158 86.026276 
L 94.687528 33.442504 
L 90.825023 35.721376 
L 88.324768 40.08665 
L 84.674315 42.562297 
L 107.8881 80.894238 
L 105.511054 82.734594 
L 88.449762 67.35635 
L 85.656666 69.814583 
L 78.038478 67.291002 
L 75.248475 70.076622 
L 70.809892 71.365194 
L 68.151565 74.376082 
L 71.701326 82.372572 
L 69.388654 85.349989 
L 60.121698 83.438038 
L 57.848252 86.779017 
L 78.389567 104.122863 
L 76.757465 106.879233 
L 74.5205 109.318552 
L 73.053675 112.194004 
L 60.25343 109.949931 
L 58.813511 113.27366 
L 70.671183 121.631455 
L 69.593405 124.621851 
L 37.905844 118.188725 
L 36.73602 122.211037 
L 16.645702 121.69048 
L 15.596492 126.379527 
L 84.938505 143.371177 
L 84.537218 145.902228 
L 49.946135 144.657431 
L 49.602591 148.288083 
L 50.938822 152.001641 
L 50.825706 155.597449 
L 86.86665 158.628294 
L 86.944127 161.091176 
L 62.101395 165.519737 
L 62.407799 168.757886 
L 43.4218 174.747785 
L 44.02759 178.568699 
L 29.407572 185.549878 
L 30.359932 189.806089 
L 49.58407 189.062928 
L 50.636912 192.683009 
L 64.404554 191.949091 
L 65.540815 195.101756 
L 66.051812 198.51729 
L 67.393777 201.614915 
L 59.686543 209.154532 
L 61.366114 212.447035 
L 83.562008 204.027329 
L 85.068564 206.571671 
L 61.776359 225.429912 
L 63.966631 228.64866 
L 96.320671 209.194203 
L 97.983376 211.33483 
L 99.117075 213.931445 
L 100.927347 215.981804 
L 78.622277 241.441378 
L 81.307655 244.122537 
L 110.947218 217.137375 
L 112.852443 218.814184 
L 96.212661 243.685526 
L 98.959902 245.812495 
L 77.924967 281.853146 
L 81.881324 284.536249 
L 109.627271 248.318122 
L 112.513539 250.021015 
L 125.331661 232.923684 
L 127.726129 234.140409 
L 102.496553 296.731797 
L 106.908578 298.634959 
L 115.243573 290.131631 
L 119.441773 291.637262 
L 133.781241 260.043232 
L 137.02423 260.980875 
L 134.110216 287.730501 
L 138.223591 288.644111 
L 144.63558 276.301977 
L 148.384413 276.890297 
L 156.477153 237.632047 
L 159.004264 237.867161 
L 160.394523 263.071698 
L 163.719575 263.171064 
L 167.412023 284.319751 
L 171.401691 284.187965 
L 173.188298 256.593088 
L 176.303323 256.293392 
L 187.229116 310.187052 
L 192.02231 309.419384 
L 183.96769 247.138892 
L 186.780124 246.504943 
L 201.228189 288.087593 
L 205.319606 286.89069 
L 198.141235 252.967715 
L 201.129933 251.885236 
L 198.659872 237.688893 
L 201.167914 236.597662 
L 229.602483 288.152348 
L 233.681907 286.063263 
L 219.379523 251.894348 
L 222.32397 250.144622 
L 209.241944 224.104932 
L 211.317644 222.687694 
L 241.660243 258.740979 
L 244.808948 256.287314 
L 219.814546 221.027965 
L 221.788272 219.279822 
L 270.1697 265.193015 
L 273.507175 261.83976 
L 238.402209 223.66895 
L 240.449783 221.335065 
L 244.87396 220.891658 
L 246.83101 218.35566 
L 264.763284 226.983062 
L 266.902027 223.818689 
L 293.030882 235.265575 
L 295.416069 231.208311 
L 241.500077 197.527131 
L 242.724163 195.108767 
L 250.307021 195.537764 
L 251.464203 192.843474 
L 282.620992 201.386682 
L 283.9461 197.673479 
L 287.402625 194.605275 
L 288.512146 190.74508 
L 297.886957 188.839712 
L 298.810013 184.652717 
L 277.975882 176.730776 
L 278.528051 173.175815 
L 296.88795 171.528588 
L 297.2672 167.381562 
L 319.435288 164.190318 
L 319.572659 159.337983 
L 269.416199 155.429926 
L 269.302854 152.154632 
L 255.80996 149.972486 
L 255.531749 147.127701 
L 245.083883 145.761529 
L 244.678573 143.256076 
L 304.770168 128.008304 
L 303.777148 123.634962 
L 280.748831 125.366081 
L 279.684611 121.749329 
L 239.262717 131.756755 
L 238.419945 129.441258 
L 307.624394 97.817849 
L 305.680709 93.369691 
L 286.037008 97.666495 
L 284.099237 93.897167 
L 263.025497 101.131078 
L 261.208038 98.083569 
L 283.468766 79.086679 
L 280.948074 75.407288 
L 233.949155 105.38188 
L 232.279726 103.246493 
L 282.805944 56.179379 
L 279.565324 52.532155 
L 259.954772 64.866509 
L 256.998593 61.933481 
L 236.099618 78.871462 
L 233.59558 76.681568 
L 213.962748 96.044573 
L 212.009616 94.542219 
L 235.542611 56.45431 
L 232.334005 54.293012 
L 244.917993 26.110482 
L 240.750675 23.669405 
L 208.864775 74.109093 
L 206.224463 72.777876 
L 198.113932 83.694671 
L 195.780328 82.696745 
L 208.200952 42.125383 
L 204.555331 40.830852 
L 196.101765 55.400872 
L 192.879537 54.480202 
L 185.321702 71.967467 
L 182.625694 71.377555 
L 179.91247 70.872703 
L 177.184714 70.45341 
L 178.153042 35.053779 
L 174.29993 34.707517 
L 171.269256 14.910335 
L 166.786194 14.790473 
L 163.150439 56.333521 
L 159.973827 56.448452 
L 155.171754 37.141299 
L 151.395641 37.516586 
L 148.318261 42.661813 
L 144.719114 43.249859 
L 143.743078 56.215154 
L 140.57234 56.940353 
L 130.478333 32.85705 
L 126.579723 34.010871 
L 126.840261 47.127627 
L 123.392149 48.388781 
L 120.288959 50.480133 
L 116.949496 51.945617 
L 129.334414 85.100775 
L 127.079027 86.264732 
L 93.909324 33.888543 
L 90.061228 36.191663 
L 87.588478 40.572576 
L 83.953667 43.071133 
L 107.40808 81.256314 
L 105.042656 83.111584 
L 87.88498 67.84095 
L 85.107401 70.316702 
L 77.473492 67.841085 
L 74.701064 70.644197 
L 70.270673 71.96066 
L 67.631335 74.988208 
L 71.231319 82.962214 
L 68.937419 85.954117 
L 59.658621 84.100488 
L 57.406233 87.455699 
L 78.056225 104.670009 
L 76.441491 107.43659 
L 74.219913 109.889929 
L 72.771201 112.774551 
L 59.957096 110.611028 
L 58.53811 113.943747 
L 70.448113 122.226799 
L 69.389164 125.223914 
L 37.661769 118.990212 
L 36.517266 123.019803 
L 16.424072 122.625613 
L 15.404374 127.321165 
L 84.851883 143.876358 
L 84.466523 146.409883 
L 49.868295 145.382668 
L 49.547593 149.015409 
L 50.907153 152.720489 
L 50.816655 156.316938 
L 86.875948 159.121046 
L 86.968914 161.583392 
L 62.154527 166.168112 
L 62.481291 169.40427 
L 43.533341 175.513461 
L 44.163149 179.33049 
L 29.587329 186.403483 
L 30.566439 190.65362 
L 49.785523 189.789565 
L 50.861112 193.402952 
L 64.623865 192.582458 
L 65.779933 195.727914 
L 66.312401 199.140167 
L 67.673822 202.22929 
L 60.014161 209.817232 
L 61.714407 213.099106 
L 83.856907 204.539968 
L 85.379435 207.074783 
L 62.206299 226.079147 
L 64.416771 229.284055 
L 96.647813 209.626495 
L 98.323949 211.756621 
L 99.473957 214.346055 
L 101.297088 216.384988 
L 79.152586 241.984345 
L 81.854774 244.648561 
L 111.32403 217.477517 
L 113.239762 219.142309 
L 96.756736 244.117815 
L 99.517301 246.227463 
L 78.709457 282.399699 
L 82.682611 285.057866 
L 110.200218 248.665948 
L 113.097139 250.350655 
L 125.807474 233.173044 
L 128.209548 234.374685 
L 103.374135 297.123514 
L 107.798043 298.998889 
L 116.079392 290.443307 
L 120.286978 291.922504 
L 134.427455 260.238912 
L 137.676276 261.156139 
L 134.93056 287.923564 
L 139.049599 288.811285 
L 145.383837 276.429068 
L 149.136295 276.993798 
L 156.981964 237.685426 
L 159.510503 237.904641 
L 161.059258 263.099936 
L 164.384869 263.178387 
L 168.210257 284.303432 
L 172.199017 284.146556 
L 173.812032 256.540988 
L 176.925111 256.221707 
L 188.189648 310.045583 
L 192.977919 309.247784 
L 184.531749 247.019183 
L 187.340141 246.367558 
L 202.049452 287.858515 
L 206.13326 286.635903 
L 198.741674 252.758746 
L 201.723505 251.657493 
L 199.164206 237.476965 
L 201.665335 236.369981 
L 230.423591 287.74481 
L 234.489795 285.63011 
L 219.972791 251.551825 
L 222.906176 249.783615 
L 209.660633 223.826718 
L 211.727378 222.396453 
L 242.296132 258.258187 
L 245.429342 255.784767 
L 220.213673 220.683316 
L 222.176365 218.922794 
L 270.845605 264.530787 
L 274.161923 261.156607 
L 238.817579 223.207343 
L 240.850434 220.860625 
L 245.271735 220.389402 
L 247.212796 217.841146 
L 265.198977 226.355593 
L 267.317776 223.177831 
L 293.518108 234.460155 
L 295.87773 230.38797 
L 241.750969 197.046557 
L 242.959821 194.620542 
L 250.545227 195.001839 
L 251.68544 192.300324 
L 282.895345 200.647405 
L 284.197073 196.92594 
L 287.634232 193.836058 
L 288.719453 189.968961 
L 298.082095 188.004669 
L 298.978798 183.81195 
L 278.095255 176.021201 
L 278.625054 172.462838 
L 296.97423 170.70017 
L 297.32739 166.550841 
L 319.474969 163.220235 
L 319.581818 158.367132 
L 269.401771 154.774608 
L 269.267829 151.500092 
L 255.761477 149.402852 
L 255.465379 146.559872 
L 245.009128 145.259438 
L 244.588068 142.756585 
L 304.582575 127.131172 
L 303.562068 122.764162 
L 280.545095 124.640082 
L 279.458148 121.030095 
L 239.099995 131.291554 
L 238.242676 128.981403 
L 307.246863 96.923363 
L 305.27524 92.487517 
L 285.658952 96.907784 
L 283.697512 93.150718 
L 262.669687 100.517028 
L 260.833096 97.48101 
L 282.973904 78.344489 
L 280.430121 74.681024 
L 233.620655 104.950619 
L 231.937828 102.825774 
L 282.167021 55.44181 
L 278.903527 51.81504 
L 259.370938 64.27249 
L 256.396371 61.358112 
L 235.604339 78.427201 
L 233.086578 76.253099 
L 213.575917 95.7392 
L 211.613374 94.24916 
L 234.906353 56.013995 
L 231.684216 53.872921 
L 244.090704 25.611802 
L 239.908115 23.196983 
L 208.340082 73.836217 
L 205.691451 72.521632 
L 197.649741 83.489223 
L 195.309906 82.505993 
L 207.475113 41.857316 
L 203.821422 40.585739 
L 195.459661 55.208639 
L 192.231706 54.308253 
L 184.784006 71.842707 
L 182.084341 71.269762 
L 179.367996 70.781985 
L 176.637657 70.379856 
L 177.383321 34.974836 
L 173.528108 34.652814 
L 170.37298 14.875085 
L 165.889253 14.783422 
L 162.514852 56.348515 
L 159.339026 56.483422 
L 154.415617 37.206853 
L 150.64194 37.605883 
L 147.59698 42.770362 
L 144.001603 43.381034 
L 143.107131 56.352211 
L 139.941017 57.097338 
L 129.695739 33.077997 
L 125.804463 34.256315 
L 126.147493 47.371173 
L 122.707381 48.653989 
L 119.617406 50.764817 
L 116.287226 52.251275 
L 128.880426 85.327883 
L 126.632404 86.506002 
L 93.133941 34.339467 
L 89.300406 36.666745 
L 86.855259 41.063123 
L 83.236235 43.584491 
L 106.930346 81.621402 
L 104.576637 83.491513 
L 87.323258 68.329093 
L 84.561304 70.822265 
L 76.911976 68.39471 
L 74.157233 71.215204 
L 69.73521 72.559506 
L 67.114965 75.603593 
L 70.76503 83.5548 
L 68.489993 86.561071 
L 59.19972 84.765837 
L 56.968479 88.135148 
L 77.726331 105.219241 
L 76.129029 107.995922 
L 73.922925 110.463186 
L 72.492384 113.356862 
L 59.664925 111.273976 
L 58.266928 114.615553 
L 70.228791 122.823534 
L 69.188714 125.82725 
L 37.422739 119.793219 
L 36.303603 123.829928 
L 16.208327 123.562121 
L 15.218182 128.263994 
L 84.76844 144.382073 
L 84.399022 146.917972 
L 49.795018 146.108381 
L 49.49717 149.743067 
L 50.880006 153.439523 
L 50.812129 157.03647 
L 86.888346 159.613729 
L 86.996796 162.075443 
L 62.211736 166.81614 
L 62.558846 170.050179 
L 43.649695 176.278421 
L 44.303498 180.091413 
L 29.772451 187.25594 
L 30.778272 191.499835 
L 49.991542 190.51492 
L 51.089836 194.121471 
L 64.847156 193.214433 
L 66.022984 196.352556 
L 66.576903 199.761392 
L 67.957726 202.841891 
L 60.34594 210.477858 
L 62.066793 213.748974 
L 84.155023 205.050741 
L 85.693464 207.575931 
L 62.640312 226.725664 
L 64.870898 229.916607 
L 96.977668 210.05672 
L 98.667168 212.176263 
L 99.833439 214.758412 
L 101.669358 216.785838 
L 79.6863 242.523965 
L 82.40519 245.171134 
L 111.702973 217.815282 
L 113.629138 219.467993 
L 97.30352 244.546673 
L 100.077298 246.638917 
L 79.497369 282.941307 
L 83.487163 285.574432 
L 110.775341 249.010165 
L 113.6828 250.676618 
L 126.284847 233.419406 
L 128.694431 234.605915 
L 104.254163 297.509704 
L 108.689779 299.357218 
L 116.917155 290.74972 
L 121.133961 292.202425 
L 135.074886 260.430524 
L 138.329412 261.3273 
L 135.752102 288.111464 
L 139.876643 288.973261 
L 146.132878 276.55145 
L 149.888814 277.092568 
L 157.4871 237.735628 
L 160.016968 237.938937 
L 161.724156 263.123992 
L 165.050195 263.181525 
L 169.008372 284.282093 
L 172.996066 284.100134 
L 174.435427 256.484966 
L 177.546435 256.146112 
L 189.149271 309.898076 
L 193.93243 309.070177 
L 185.095045 246.895928 
L 187.899283 246.226653 
L 202.869257 287.624277 
L 206.945295 286.376004 
L 199.340787 252.546006 
L 202.315632 251.42602 
L 199.667197 237.261869 
L 202.161314 236.139177 
L 231.24212 287.332117 
L 235.294944 285.191884 
L 220.563893 251.205576 
L 223.486099 249.418952 
L 210.077564 223.545876 
L 212.135273 222.10264 
L 242.928972 257.771405 
L 246.046564 255.278328 
L 220.610625 220.336163 
L 222.562206 218.563332 
L 271.517331 263.864321 
L 274.812362 260.46935 
L 239.230038 222.743132 
L 241.248093 220.383676 
L 245.666343 219.884654 
L 247.591339 217.32424 
L 265.630714 225.725397 
L 267.729485 222.534371 
L 294.000258 233.651686 
L 296.334222 229.564741 
L 241.998833 196.564414 
L 243.192403 194.130845 
L 250.780057 194.464426 
L 251.903257 191.755793 
L 283.165043 199.906416 
L 284.443339 196.176838 
L 287.860997 193.065399 
L 288.921874 189.191553 
L 298.271976 187.168414 
L 299.142292 182.970139 
L 278.210163 175.31089 
L 278.717571 171.749265 
L 297.055298 169.871225 
L 297.382354 165.719757 
L 319.508547 162.249922 
L 269.43475 157.396243 
z
" clip-path="url(#pf00e65d0ad)" style="fill: #0000ff; opacity: 0.5; stroke: #000000; stroke-width: 1.5; stroke-linejoin: miter"/>
   </g>
  </g>
 </g>
 <defs>
  <clipPath id="pf00e65d0ad">
   <rect x="0" y="0" width="334.8" height="325.235274"/>
  </clipPath>
 </defs>
</svg>
