<?xml version="1.0" encoding="utf-8" standalone="no"?>
<!DOCTYPE svg PUBLIC "-//W3C//DTD SVG 1.1//EN"
  "http://www.w3.org/Graphics/SVG/1.1/DTD/svg11.dtd">
<svg xmlns:xlink="http://www.w3.org/1999/xlink" width="334.8pt" height="326.755754pt" viewBox="0 0 334.8 326.755754" xmlns="http://www.w3.org/2000/svg" version="1.1">
 <metadata>
  <rdf:RDF xmlns:dc="http://purl.org/dc/elements/1.1/" xmlns:cc="http://creativecommons.org/ns#" xmlns:rdf="http://www.w3.org/1999/02/22-rdf-syntax-ns#">
   <cc:Work>
    <dc:type rdf:resource="http://purl.org/dc/dcmitype/StillImage"/>
    <dc:date>2023-12-09T18:06:18.896620</dc:date>
    <dc:format>image/svg+xml</dc:format>
    <dc:creator>
     <cc:Agent>
      <dc:title>Matplotlib v3.8.2, https://matplotlib.org/</dc:title>
     </cc:Agent>
    </dc:creator>
   </cc:Work>
  </rdf:RDF>
 </metadata>
 <defs>
  <style type="text/css">*{stroke-linejoin: round; stroke-linecap: butt}</style>
 </defs>
 <g id="figure_1">
  <g id="patch_1">
   <path d="M 0 326.755754 
L 334.8 326.755754 
L 334.8 0 
L 0 0 
L 0 326.755754 
z
" style="fill: none"/>
  </g>
  <g id="axes_1">
   <g id="patch_2">
    <path d="M 319.581818 169.239251 
L 319.50531 164.373878 
L 275.262083 162.285208 
L 274.988838 158.816783 
L 278.444614 154.873328 
L 277.936749 151.308502 
L 250.718114 152.840627 
L 250.160045 150.148587 
L 249.517609 147.475426 
L 248.79144 144.823786 
L 242.831948 143.871517 
L 241.99577 141.43187 
L 269.85377 127.616125 
L 268.493126 124.33489 
L 289.427452 110.546565 
L 287.520427 106.658331 
L 262.446481 115.516515 
L 260.709062 112.474164 
L 279.773576 96.209877 
L 277.420547 92.63227 
L 228.65799 122.81254 
L 227.16668 120.828966 
L 241.10469 106.059972 
L 239.080489 103.693329 
L 248.254958 90.790291 
L 245.747108 88.206378 
L 237.867518 91.346964 
L 235.382308 89.089379 
L 225.930234 95.263188 
L 223.57406 93.379002 
L 229.33504 80.295237 
L 226.506558 78.311397 
L 246.796188 39.811698 
L 242.686182 37.298857 
L 227.338948 55.268421 
L 223.724555 53.359716 
L 228.267766 34.054639 
L 223.985906 32.127219 
L 203.45992 71.358805 
L 200.36325 70.192954 
L 197.469616 68.388911 
L 194.282528 67.412876 
L 202.168788 23.057974 
L 197.554073 21.9566 
L 187.437843 49.888347 
L 183.674017 49.23688 
L 184.013548 15.691261 
L 179.176184 15.16437 
L 171.195223 65.758143 
L 167.938409 65.609534 
L 164.694347 75.621504 
L 161.750873 75.67242 
L 155.620455 26.401834 
L 151.133892 26.762388 
L 148.82291 44.147395 
L 144.897668 44.712905 
L 146.113185 71.99247 
L 143.064793 72.629413 
L 145.076169 92.836977 
L 142.683686 93.49622 
L 139.591691 92.024217 
L 137.176365 92.856305 
L 130.495089 82.981736 
L 127.799945 84.104312 
L 122.163922 79.016461 
L 119.348221 80.402947 
L 114.706806 78.491158 
L 111.878276 80.112372 
L 120.333197 99.4357 
L 118.160427 100.869653 
L 111.928494 96.7468 
L 109.675334 98.446344 
L 86.212179 74.629648 
L 83.276323 77.148705 
L 61.307063 59.499108 
L 57.907783 62.808718 
L 63.093268 74.147855 
L 60.153694 77.394059 
L 98.535139 114.659216 
L 96.851806 116.771021 
L 73.914998 103.52611 
L 71.893789 106.417531 
L 40.519889 90.791293 
L 38.114781 94.739025 
L 82.684739 124.355369 
L 81.314112 126.960751 
L 93.344213 135.831039 
L 92.329136 138.095589 
L 71.22143 132.471792 
L 70.111669 135.433592 
L 48.473374 131.792729 
L 47.353509 135.470114 
L 17.101864 131.761423 
L 15.996526 136.425213 
L 58.38244 149.257058 
L 57.806792 152.614245 
L 56.569097 155.89322 
L 56.203001 159.304141 
L 73.707709 163.787514 
L 73.581354 166.655657 
L 42.597341 169.623679 
L 42.669869 173.467114 
L 24.334851 178.531754 
L 24.696498 182.944998 
L 41.309593 185.2556 
L 41.874259 189.131796 
L 57.750713 190.038127 
L 58.457623 193.395014 
L 86.972975 189.514651 
L 87.648979 191.952985 
L 81.051292 196.785166 
L 81.958824 199.406096 
L 74.327975 205.4454 
L 75.511128 208.273444 
L 66.29941 216.041893 
L 67.819709 219.117133 
L 93.794826 208.635698 
L 95.068664 210.850084 
L 41.667456 248.05058 
L 44.206358 251.884477 
L 40.622381 260.20794 
L 43.544053 264.068685 
L 83.429211 237.11718 
L 85.603694 239.643401 
L 104.152631 226.676924 
L 105.988603 228.556718 
L 63.581503 277.930103 
L 67.049047 281.060201 
L 104.476573 242.808929 
L 106.819611 244.670561 
L 103.341327 254.618892 
L 106.056257 256.51038 
L 121.596811 238.011408 
L 123.78054 239.337115 
L 109.730455 270.494334 
L 112.941386 272.177084 
L 115.224351 275.862449 
L 118.60135 277.369805 
L 110.192929 309.035376 
L 114.615445 310.684529 
L 123.096992 299.666867 
L 127.218562 300.91492 
L 134.024222 291.529323 
L 137.884527 292.437824 
L 142.337625 290.181916 
L 146.151454 290.829692 
L 149.796874 292.893307 
L 153.692267 293.305206 
L 159.083247 268.105474 
L 162.194665 268.237646 
L 165.235708 252.798067 
L 167.862785 252.74436 
L 172.891365 288.117024 
L 176.625163 287.805143 
L 177.226019 263.595241 
L 180.186655 263.159193 
L 183.429524 264.148826 
L 186.404499 263.517454 
L 192.10401 273.270857 
L 195.361512 272.362229 
L 196.889331 266.209278 
L 199.922436 265.153681 
L 210.421319 282.668872 
L 213.965259 281.179661 
L 219.791847 284.468261 
L 223.387731 282.683531 
L 232.946004 291.603335 
L 236.759726 289.401482 
L 228.797901 268.851172 
L 231.898296 266.790994 
L 218.898531 242.811942 
L 221.185091 241.075896 
L 240.2933 259.446823 
L 243.092318 257.029853 
L 261.795354 271.358996 
L 264.958286 268.260065 
L 246.479 245.056016 
L 248.822482 242.451669 
L 269.648768 254.95969 
L 272.292187 251.621939 
L 239.633255 222.934412 
L 241.28457 220.556249 
L 238.926575 215.662394 
L 240.34959 213.310046 
L 235.576634 207.594881 
L 236.747646 205.351851 
L 286.986209 225.8459 
L 288.705654 221.977416 
L 287.418453 216.93454 
L 288.857492 213.056872 
L 242.989954 194.115969 
L 243.733494 191.646512 
L 254.15607 191.597383 
L 254.814899 188.778084 
L 300.275927 194.219402 
L 300.994396 189.948697 
L 254.719029 180.031031 
L 255.013908 177.19975 
L 286.890568 176.155258 
L 287.047678 172.31435 
L 319.578758 168.266023 
L 319.471651 163.401227 
L 275.216162 161.590863 
L 274.921108 158.124225 
L 278.352013 154.159114 
L 277.821738 150.597552 
L 250.613277 152.300836 
L 250.038288 149.61236 
L 249.379052 146.943292 
L 248.636221 144.296271 
L 242.670857 143.381503 
L 241.819352 140.947164 
L 269.589907 126.956481 
L 268.208653 123.683868 
L 289.055845 109.764151 
L 287.124402 105.887988 
L 262.106665 114.903698 
L 260.350145 111.872334 
L 279.311989 95.488465 
L 276.936505 91.925728 
L 228.36473 122.412089 
L 226.860974 120.437934 
L 240.70582 105.58157 
L 238.666773 103.227705 
L 247.759908 90.26722 
L 245.235857 87.699131 
L 237.376176 90.889212 
L 234.876816 88.647303 
L 225.463758 94.880438 
L 223.095781 93.011108 
L 228.774357 79.891369 
L 225.933454 77.925357 
L 245.980541 39.29881 
L 241.854812 36.811868 
L 226.6209 54.877602 
L 222.994574 52.991667 
L 227.416277 33.658398 
L 223.12238 31.757946 
L 202.843544 71.117853 
L 199.739603 69.971501 
L 196.834679 68.185694 
L 193.641516 67.229723 
L 201.248653 22.826098 
L 196.627102 21.753769 
L 186.686747 49.74859 
L 182.918898 49.120808 
L 183.047439 15.573717 
L 178.206856 15.07726 
L 170.54426 65.720229 
L 167.286575 65.592106 
L 164.105547 75.624282 
L 161.162452 75.693709 
L 154.722271 26.462654 
L 150.238065 26.851419 
L 148.03647 44.250617 
L 144.114862 44.840804 
L 145.501928 72.112184 
L 142.457602 72.768287 
L 144.596033 92.962802 
L 142.207744 93.637078 
L 139.106551 92.184552 
L 136.696507 93.031814 
L 129.953257 83.199461 
L 127.265227 84.338966 
L 121.597316 79.286663 
L 118.79039 80.690832 
L 114.137044 78.808272 
L 111.318765 80.447244 
L 119.895053 99.717013 
L 117.731344 101.164603 
L 111.473604 97.081027 
L 109.231178 98.794709 
L 85.618694 75.126053 
L 82.698739 77.663526 
L 60.618908 60.152452 
L 57.24051 63.483375 
L 62.49721 74.789675 
L 59.57811 78.054303 
L 98.193173 115.077325 
L 96.523156 117.199675 
L 73.503498 104.099286 
L 71.500515 107.003362 
L 40.028955 91.574757 
L 37.648724 95.537538 
L 82.40407 124.872976 
L 81.049857 127.486927 
L 93.135508 136.281377 
L 92.134694 138.552267 
L 70.992035 133.061336 
L 69.900924 136.030058 
L 48.240158 132.525359 
L 47.143444 136.209715 
L 16.869072 132.691363 
L 15.793088 137.362013 
L 58.258869 149.927021 
L 57.704347 153.287762 
L 56.487299 156.574456 
L 56.142664 159.987613 
L 73.675223 164.360802 
L 73.566909 167.229683 
L 42.602176 170.392518 
L 42.698876 174.235421 
L 24.396075 179.415278 
L 24.785472 183.82616 
L 41.41277 186.032229 
L 42.001804 189.904798 
L 57.883644 190.711256 
L 58.611654 194.063631 
L 87.102036 190.003999 
L 87.793362 192.438033 
L 81.226197 197.311615 
L 82.150196 199.926785 
L 74.557481 206.013963 
L 75.758398 208.834509 
L 66.595721 216.660741 
L 68.135332 219.726359 
L 94.044012 209.081762 
L 95.331752 211.288093 
L 42.165571 248.823716 
L 44.728535 252.641569 
L 41.196979 260.987409 
L 44.142875 264.829702 
L 83.857735 237.627875 
L 86.048064 240.14037 
L 104.515081 227.057487 
L 106.36284 228.925696 
L 64.267109 278.564821 
L 67.754272 281.673049 
L 104.940479 243.187136 
L 107.295179 245.033994 
L 103.879533 255.004005 
L 106.606306 256.87838 
L 122.030205 238.282033 
L 124.222228 239.593979 
L 110.368383 270.838949 
L 113.589833 272.501471 
L 115.895931 276.172404 
L 119.282344 277.658491 
L 111.073248 309.37632 
L 115.506049 310.997625 
L 123.918134 299.926837 
L 128.047471 301.148943 
L 134.793967 291.720728 
L 138.659909 292.604932 
L 143.098731 290.321061 
L 146.916558 290.944837 
L 150.574886 292.985483 
L 154.472792 293.372875 
L 159.705173 268.139735 
L 162.817361 268.252335 
L 165.761237 252.793935 
L 168.387925 252.723707 
L 173.63888 288.064044 
L 177.370642 287.728686 
L 177.81922 263.515483 
L 180.777054 263.060824 
L 184.026084 264.030041 
L 186.997029 263.37997 
L 192.757771 273.097334 
L 196.009494 272.168236 
L 197.498584 266.005798 
L 200.524989 264.931145 
L 211.133826 282.379957 
L 214.668329 280.868487 
L 220.515486 284.120376 
L 224.100073 282.313065 
L 233.714258 291.172577 
L 237.514056 288.94678 
L 229.423139 268.446953 
L 232.510515 266.367315 
L 219.360193 242.470499 
L 221.635788 240.720106 
L 240.859162 258.97049 
L 243.642923 256.535964 
L 262.435712 270.747192 
L 265.57909 267.628429 
L 246.95423 244.541063 
L 249.281285 241.922029 
L 270.185828 254.298817 
L 272.808202 250.944506 
L 239.969488 222.462953 
L 241.605813 220.07445 
L 239.217085 215.195523 
L 240.625277 212.834271 
L 235.81647 207.149238 
L 236.973351 204.898888 
L 287.339817 225.07656 
L 289.034897 221.197338 
L 287.716005 216.162657 
L 289.130627 212.276015 
L 243.144869 193.623968 
L 243.872863 191.149883 
L 254.294923 191.035203 
L 254.936007 188.211816 
L 300.43036 193.367102 
L 301.121953 189.091964 
L 254.785126 179.465539 
L 255.062192 176.63246 
L 286.931652 175.387502 
L 287.064602 171.545682 
L 319.569576 167.292833 
L 319.431875 162.428807 
L 275.165875 160.89682 
L 274.849023 157.432106 
L 278.254923 153.445495 
L 277.702258 149.887339 
L 250.505048 151.761716 
L 249.913161 149.076909 
L 249.237151 146.41204 
L 248.477686 143.769744 
L 242.506687 142.892512 
L 241.639888 140.463576 
L 269.3219 126.298509 
L 267.920091 123.034649 
L 288.679323 108.98409 
L 286.72354 105.120151 
L 261.763001 114.29303 
L 259.987451 111.272774 
L 278.845874 94.769969 
L 276.44803 91.222243 
L 228.068958 122.013491 
L 226.552815 120.048832 
L 240.303949 105.105685 
L 238.250138 102.764692 
L 247.261579 89.747272 
L 244.721426 87.195109 
L 236.881964 90.43456 
L 234.368553 88.208415 
L 224.994884 94.500629 
L 222.615197 92.646229 
L 228.211145 79.491035 
L 225.357933 77.54293 
L 245.161685 38.791062 
L 241.020395 36.330118 
L 225.900408 54.491306 
L 222.262292 52.628217 
L 226.562313 33.26752 
L 222.256547 31.394112 
L 202.225664 70.880783 
L 199.114575 69.753976 
L 196.198477 67.986474 
L 192.999364 67.050605 
L 200.327077 22.600014 
L 195.698873 21.556773 
L 185.934786 49.613559 
L 182.163063 49.009488 
L 182.08061 15.462251 
L 177.237 14.996249 
L 169.893071 65.68641 
L 166.634645 65.578778 
L 163.516777 75.630762 
L 160.574176 75.718699 
L 153.824487 26.529123 
L 149.342815 26.946083 
L 147.250695 44.358784 
L 143.332876 44.973623 
L 144.891436 72.235741 
L 141.851297 72.910977 
L 144.116698 93.091643 
L 141.732697 93.780927 
L 138.62243 92.347934 
L 136.217762 93.210338 
L 129.412806 83.420591 
L 126.731996 84.576979 
L 121.03242 79.560424 
L 118.234382 80.982219 
L 113.569287 79.128963 
L 110.761373 80.785628 
L 119.458686 100.001076 
L 117.304125 101.462246 
L 111.020825 97.418108 
L 108.789222 99.14586 
L 85.028342 75.626182 
L 82.124404 78.181969 
L 59.934875 60.810111 
L 56.577494 64.162217 
L 61.9052 75.435231 
L 59.00669 78.718154 
L 97.853843 115.497577 
L 96.197208 117.630389 
L 73.095611 104.675039 
L 71.110932 107.591655 
L 39.542958 92.361294 
L 37.187697 96.338967 
L 82.126662 125.392339 
L 80.788915 128.014755 
L 92.92964 136.733019 
L 91.943128 139.010159 
L 70.766353 133.652312 
L 69.693935 136.627838 
L 48.011554 133.259442 
L 46.938034 136.950623 
L 16.642133 133.622749 
L 15.595546 138.300073 
L 58.139514 150.597747 
L 57.60614 153.96191 
L 56.409788 157.256193 
L 56.086626 160.67145 
L 73.646344 164.934283 
L 73.556076 167.803789 
L 42.611847 171.161311 
L 42.732715 175.003531 
L 24.462854 180.298399 
L 24.879985 184.706745 
L 41.520829 186.808194 
L 42.134208 190.676981 
L 58.020806 191.383536 
L 58.769886 194.731266 
L 87.234172 190.492526 
L 87.940793 192.922164 
L 81.40441 197.836953 
L 82.344838 200.44626 
L 74.790559 206.581071 
L 76.009191 209.394009 
L 66.895918 217.277714 
L 68.45478 220.333587 
L 94.295999 209.526251 
L 95.597591 211.724438 
L 42.668538 249.593704 
L 45.255464 253.395362 
L 41.776468 261.763249 
L 44.746472 265.586938 
L 84.289462 238.135864 
L 86.49555 240.634534 
L 104.879919 227.435763 
L 106.739391 229.292314 
L 64.956694 279.195215 
L 68.463337 282.281449 
L 105.406754 243.562417 
L 107.773023 245.394429 
L 104.42015 255.385725 
L 107.158658 257.242913 
L 122.465291 238.549926 
L 124.665523 239.84806 
L 111.008464 271.179545 
L 114.240307 272.821773 
L 116.569448 276.478129 
L 119.965141 277.942888 
L 111.955695 309.71172 
L 116.398605 311.305114 
L 124.740894 300.181637 
L 128.877836 301.377748 
L 135.5649 291.907288 
L 139.436327 292.767159 
L 143.860697 290.455416 
L 147.682372 291.055168 
L 151.353461 293.072765 
L 155.253727 293.435633 
L 160.327303 268.170084 
L 163.440137 268.263108 
L 166.286731 252.786499 
L 168.912925 252.699751 
L 174.386047 288.006363 
L 178.115626 287.647541 
L 178.411907 263.431996 
L 181.366824 262.958743 
L 184.621885 263.907507 
L 187.588682 263.238763 
L 193.410427 272.919702 
L 196.656242 271.970172 
L 198.106544 265.798489 
L 201.126131 264.704824 
L 211.844501 282.086567 
L 215.369428 280.552897 
L 221.236922 283.767946 
L 224.810071 281.938126 
L 234.479787 290.736995 
L 238.265511 288.487344 
L 230.045822 268.038809 
L 233.120057 265.939795 
L 219.819698 242.126159 
L 222.084239 240.361489 
L 241.422017 258.490607 
L 244.190412 256.038621 
L 263.072209 270.131372 
L 266.19591 266.992901 
L 247.426212 244.023131 
L 249.736749 241.389513 
L 270.718721 253.634578 
L 273.319946 250.263841 
L 240.302749 221.989388 
L 241.924019 219.590641 
L 239.504653 214.726834 
L 240.897966 212.356772 
L 236.053499 206.702097 
L 237.196203 204.444514 
L 287.688579 224.30501 
L 289.359228 220.415205 
L 288.008697 215.388919 
L 289.398846 211.493456 
L 243.296686 193.131002 
L 244.009105 190.652388 
L 254.430238 190.472161 
L 255.053552 187.644798 
L 300.579428 192.513848 
L 301.24412 188.234444 
L 254.847664 178.899643 
L 255.106906 176.064877 
L 286.967906 174.619503 
L 287.07669 170.776922 
L 319.554274 166.31972 
L 319.385983 161.456656 
L 275.111224 160.203108 
L 274.772587 156.740455 
L 278.153346 152.732502 
L 277.578313 149.177892 
L 250.393429 151.223286 
L 249.784669 148.542255 
L 249.091912 145.881691 
L 248.315843 143.244223 
L 242.339445 142.404563 
L 241.457386 139.981128 
L 269.049761 125.642236 
L 267.627452 122.387257 
L 288.297903 108.206412 
L 286.317857 104.35485 
L 261.415504 113.684536 
L 259.620993 110.675507 
L 278.37525 94.054419 
L 275.95514 90.521844 
L 227.770684 121.61676 
L 226.242215 119.661676 
L 239.899092 104.632338 
L 237.830599 102.304308 
L 246.759989 89.230469 
L 244.203835 86.694333 
L 236.384902 89.983026 
L 233.85754 87.772732 
L 224.523631 94.123777 
L 222.132327 92.284381 
L 227.645426 79.094251 
L 224.780018 77.16413 
L 244.339651 38.288474 
L 240.182965 35.853625 
L 225.177501 54.10955 
L 221.527739 52.269379 
L 225.705907 32.882021 
L 221.388444 31.035731 
L 201.606306 70.647604 
L 198.488191 69.540386 
L 195.561034 67.791259 
L 192.356098 66.87553 
L 199.404097 22.37973 
L 194.769423 21.365619 
L 185.181991 49.483261 
L 181.406543 48.902923 
L 181.113099 15.356869 
L 176.266654 14.921339 
L 169.241682 65.656686 
L 165.982644 65.569551 
L 162.928059 75.640946 
L 159.986069 75.747388 
L 152.927139 26.601237 
L 148.448178 27.046376 
L 146.465615 44.47189 
L 142.551742 45.111358 
L 144.281734 72.363134 
L 141.245902 73.057478 
L 143.638182 93.223497 
L 141.258564 93.927761 
L 138.139346 92.514358 
L 135.740149 93.391869 
L 128.873756 83.645115 
L 126.200272 84.818341 
L 120.469258 79.837732 
L 117.680217 81.277097 
L 113.003559 79.453219 
L 110.206119 81.127511 
L 119.024115 100.287878 
L 116.878786 101.76257 
L 110.570175 97.75803 
L 108.349483 99.499783 
L 84.441147 76.130013 
L 81.553341 78.704014 
L 59.254992 61.472059 
L 55.91876 64.845215 
L 61.317262 76.084497 
L 58.439457 79.385586 
L 97.517163 115.919955 
L 95.873975 118.063143 
L 72.691353 105.253346 
L 70.725058 108.182387 
L 39.061917 93.150872 
L 36.731721 97.143279 
L 81.852526 125.913436 
L 80.531299 128.544214 
L 92.726617 137.185947 
L 91.754446 139.469247 
L 70.544392 134.244696 
L 69.490709 137.226907 
L 47.787573 133.994948 
L 46.737289 137.692808 
L 16.421057 134.555544 
L 15.403908 139.239358 
L 58.02438 151.269211 
L 57.512176 154.636662 
L 56.336566 157.938405 
L 56.03489 161.355626 
L 73.621072 165.507935 
L 73.548853 168.377951 
L 42.626353 171.930029 
L 42.771384 175.771412 
L 24.535186 181.181083 
L 24.980035 185.586718 
L 41.633767 187.583464 
L 42.271467 191.448317 
L 58.162194 192.05494 
L 58.932314 195.397892 
L 87.369378 190.980212 
L 88.091266 193.405357 
L 81.585924 198.361159 
L 82.542744 200.9645 
L 75.027199 207.146702 
L 76.263499 209.95192 
L 67.19999 217.892786 
L 68.778041 220.938795 
L 94.550777 209.969145 
L 95.866168 212.159103 
L 43.176339 250.360514 
L 45.787124 254.145826 
L 42.360826 262.535428 
L 45.35482 266.340362 
L 84.724376 238.641128 
L 86.946135 241.125874 
L 105.247128 227.811736 
L 107.11824 229.656556 
L 65.650231 279.82126 
L 69.176214 282.885377 
L 105.87538 243.934758 
L 108.253125 245.751852 
L 104.963158 255.764038 
L 107.713292 257.603965 
L 122.902054 238.815078 
L 125.110407 240.099347 
L 111.650676 271.516108 
L 114.892783 273.137977 
L 117.244875 276.779613 
L 120.649713 278.222985 
L 112.840233 310.041564 
L 117.293077 311.606982 
L 125.56524 300.431258 
L 129.709624 301.601326 
L 136.336992 292.088995 
L 140.21375 292.924501 
L 144.623493 290.584977 
L 148.448864 291.16068 
L 152.132571 293.155148 
L 156.035042 293.493479 
L 160.949611 268.196519 
L 164.062969 268.269963 
L 166.812167 252.775757 
L 169.437763 252.672493 
L 175.132836 287.943985 
L 178.860084 287.561713 
L 179.004058 263.344783 
L 181.955939 262.852955 
L 185.216903 263.781227 
L 188.179436 263.093837 
L 194.061953 272.73797 
L 197.301732 271.768044 
L 198.713189 265.587362 
L 201.725838 264.474726 
L 212.553317 281.788714 
L 216.068529 280.232903 
L 221.956127 283.410986 
L 225.517697 281.558729 
L 235.242562 290.296606 
L 239.014062 288.02319 
L 230.665925 267.626757 
L 233.726899 265.508449 
L 220.277028 241.778936 
L 222.530425 240.000058 
L 241.981843 258.007194 
L 244.734761 255.537845 
L 263.70482 269.511562 
L 266.808721 266.353506 
L 247.894927 243.502241 
L 250.188854 240.854143 
L 271.247426 252.967002 
L 273.8274 249.57997 
L 240.633025 221.513736 
L 242.239176 219.10484 
L 239.789267 214.256346 
L 241.167647 211.877568 
L 236.28771 206.253473 
L 237.416194 203.988748 
L 288.032482 223.531283 
L 289.678633 219.631047 
L 288.296516 214.613354 
L 289.662137 210.709225 
L 243.4454 192.637091 
L 244.142216 190.154045 
L 254.562009 189.908279 
L 255.167528 187.077052 
L 300.723128 191.659674 
L 301.360891 187.376174 
L 254.906642 178.333364 
L 255.14805 175.497024 
L 286.999329 173.851291 
L 287.083944 170.008102 
L 319.532852 165.346722 
L 319.333978 160.484813 
L 275.05221 159.509753 
L 274.691802 156.049299 
L 278.047287 152.020161 
L 277.449909 148.469239 
L 250.278427 150.68557 
L 249.652816 148.008421 
L 248.94334 145.352266 
L 248.150698 142.719732 
L 242.169137 141.917676 
L 241.271854 139.499836 
L 268.773499 124.987688 
L 267.330746 121.741719 
L 287.911599 107.431149 
L 285.907368 103.592117 
L 261.064186 113.078239 
L 259.250786 110.080556 
L 277.900134 93.341844 
L 275.457854 89.82456 
L 227.469921 121.221914 
L 225.929185 119.276481 
L 239.491267 104.161547 
L 237.408172 101.846572 
L 246.255159 88.716831 
L 243.683105 86.196821 
L 235.88501 89.534626 
L 233.343796 87.340272 
L 224.050017 93.749896 
L 221.647192 91.925576 
L 227.077223 78.701033 
L 224.199732 76.788972 
L 243.514472 37.791066 
L 239.342555 35.382408 
L 224.452207 53.732349 
L 220.790944 51.915169 
L 224.847094 32.501915 
L 220.518104 30.682816 
L 200.985493 70.418324 
L 197.860476 69.330739 
L 194.922376 67.600057 
L 191.711744 66.704504 
L 198.47975 22.165256 
L 193.83879 21.180315 
L 184.428391 49.357699 
L 180.649368 48.801119 
L 180.144944 15.257574 
L 175.295856 14.852534 
L 168.59012 65.631061 
L 165.330598 65.564424 
L 162.339416 75.654832 
L 159.398154 75.779775 
L 152.030262 26.678993 
L 147.55419 27.152293 
L 145.681263 44.589932 
L 141.771488 45.254004 
L 143.672845 72.49436 
L 140.64144 73.207784 
L 143.160505 93.358357 
L 140.785364 94.077575 
L 137.657318 92.683818 
L 135.263688 93.576401 
L 128.336128 83.873025 
L 125.670077 85.063043 
L 119.90785 80.118577 
L 117.127918 81.575455 
L 112.439881 79.781026 
L 109.653027 81.47288 
L 118.591356 100.577408 
L 116.455345 102.065564 
L 110.121673 98.10078 
L 107.911978 99.856466 
L 83.857133 76.637528 
L 80.985573 79.22964 
L 58.579286 62.13827 
L 55.264335 65.532342 
L 60.733419 76.737449 
L 57.876433 80.056572 
L 97.183147 116.344441 
L 95.55347 118.497923 
L 72.290741 105.834184 
L 70.342906 108.775534 
L 38.585852 93.943459 
L 36.280812 97.950443 
L 81.581672 126.436247 
L 80.277018 129.075283 
L 92.526446 137.640143 
L 91.568656 139.929512 
L 70.326161 134.838463 
L 69.291256 137.827243 
L 47.568221 134.731849 
L 46.541216 138.43624 
L 16.205852 135.489711 
L 15.218182 140.17983 
L 57.913471 151.941386 
L 57.422456 155.311992 
L 56.267636 158.621063 
L 55.987459 162.040115 
L 73.599408 166.081734 
L 73.545241 168.952148 
L 42.645694 172.69864 
L 42.814882 176.539035 
L 24.613069 182.063294 
L 25.085618 186.466044 
L 41.751579 188.358008 
L 42.413573 192.218774 
L 58.307802 192.725442 
L 59.098932 196.063484 
L 87.507649 191.467038 
L 88.244775 193.887595 
L 81.770731 198.884214 
L 82.743906 201.481485 
L 75.267392 207.710834 
L 76.521311 210.50822 
L 67.507924 218.505934 
L 69.105101 221.541957 
L 94.808335 210.410429 
L 96.137474 212.59207 
L 43.688952 251.124115 
L 46.323493 254.892932 
L 42.950029 263.303917 
L 45.967894 267.089945 
L 85.162459 239.143647 
L 87.399802 241.61437 
L 105.616694 228.185393 
L 107.499372 230.018408 
L 66.347691 280.44293 
L 69.892876 283.48481 
L 106.346338 244.304144 
L 108.735465 246.106248 
L 105.508534 256.138927 
L 108.270186 257.961522 
L 123.340476 239.077478 
L 125.556863 240.347832 
L 112.294991 271.848626 
L 115.547235 273.450072 
L 117.922184 277.076842 
L 121.336033 278.498771 
L 113.726828 310.365838 
L 118.18943 311.903219 
L 126.391141 300.675689 
L 130.542801 301.819668 
L 137.110211 292.265843 
L 140.992148 293.076949 
L 145.387088 290.709737 
L 149.216005 291.261369 
L 152.912183 293.23263 
L 156.816705 293.546409 
L 161.572073 268.21904 
L 164.685831 268.272901 
L 167.337525 252.76171 
L 169.96242 252.641936 
L 175.879218 287.87691 
L 179.603988 287.471204 
L 179.595648 263.253848 
L 182.544378 262.743463 
L 185.811116 263.651208 
L 188.769266 262.945199 
L 194.712323 272.552143 
L 197.945938 271.56186 
L 199.318495 265.372423 
L 202.324086 264.240861 
L 213.260246 281.486407 
L 216.765603 279.908519 
L 222.673073 283.049509 
L 226.222923 281.174889 
L 236.002552 289.85143 
L 239.759679 287.554338 
L 231.283425 267.210813 
L 234.331015 265.073295 
L 220.732165 241.428844 
L 222.97433 239.635828 
L 242.538617 257.52027 
L 245.27595 255.033655 
L 264.333521 268.887785 
L 267.417497 265.71027 
L 248.360356 242.978414 
L 250.637583 240.315941 
L 271.771921 252.296113 
L 274.330542 248.892922 
L 240.960303 221.036017 
L 242.551272 218.617067 
L 240.070917 213.784077 
L 241.434308 211.396677 
L 236.519096 205.803385 
L 237.633313 203.531607 
L 288.371511 222.755408 
L 289.9931 218.844896 
L 288.579451 213.835995 
L 289.920491 209.923354 
L 243.591005 192.142255 
L 244.272189 189.654875 
L 254.690231 189.343579 
L 255.277931 186.508599 
L 300.861452 190.804612 
L 301.472262 186.517186 
L 254.962058 177.766726 
L 255.185622 174.928923 
L 287.02592 173.082896 
L 319.581818 169.239251 
z
" clip-path="url(#pa8b5146f35)" style="fill: #0000ff; opacity: 0.5; stroke: #000000; stroke-width: 1.5; stroke-linejoin: miter"/>
   </g>
  </g>
 </g>
 <defs>
  <clipPath id="pa8b5146f35">
   <rect x="0" y="-0" width="334.8" height="326.755754"/>
  </clipPath>
 </defs>
</svg>
