<?xml version="1.0" encoding="utf-8" standalone="no"?>
<!DOCTYPE svg PUBLIC "-//W3C//DTD SVG 1.1//EN"
  "http://www.w3.org/Graphics/SVG/1.1/DTD/svg11.dtd">
<svg xmlns:xlink="http://www.w3.org/1999/xlink" width="334.8pt" height="308.052406pt" viewBox="0 0 334.8 308.052406" xmlns="http://www.w3.org/2000/svg" version="1.1">
 <metadata>
  <rdf:RDF xmlns:dc="http://purl.org/dc/elements/1.1/" xmlns:cc="http://creativecommons.org/ns#" xmlns:rdf="http://www.w3.org/1999/02/22-rdf-syntax-ns#">
   <cc:Work>
    <dc:type rdf:resource="http://purl.org/dc/dcmitype/StillImage"/>
    <dc:date>2023-12-09T18:06:19.021797</dc:date>
    <dc:format>image/svg+xml</dc:format>
    <dc:creator>
     <cc:Agent>
      <dc:title>Matplotlib v3.8.2, https://matplotlib.org/</dc:title>
     </cc:Agent>
    </dc:creator>
   </cc:Work>
  </rdf:RDF>
 </metadata>
 <defs>
  <style type="text/css">*{stroke-linejoin: round; stroke-linecap: butt}</style>
 </defs>
 <g id="figure_1">
  <g id="patch_1">
   <path d="M 0 308.052406 
L 334.8 308.052406 
L 334.8 -0 
L 0 -0 
L 0 308.052406 
z
" style="fill: none"/>
  </g>
  <g id="axes_1">
   <g id="patch_2">
    <path d="M 319.581818 154.801839 
L 319.504926 149.912005 
L 305.020276 145.924695 
L 304.671466 141.497097 
L 297.098894 137.978569 
L 296.504157 133.803965 
L 303.572236 128.161857 
L 302.665639 123.788571 
L 311.612261 116.878206 
L 310.346907 112.257703 
L 311.955093 106.697549 
L 310.369467 102.0713 
L 245.940568 122.348698 
L 244.879688 119.790352 
L 273.88631 103.064114 
L 272.205263 99.636628 
L 273.197768 94.733282 
L 271.255122 91.331564 
L 238.400278 107.567287 
L 236.878367 105.253333 
L 285.331553 66.578912 
L 282.497672 62.809601 
L 278.935656 59.637451 
L 275.886683 56.072673 
L 226.487322 96.093318 
L 224.610533 94.159606 
L 269.887722 41.925765 
L 266.286328 38.654231 
L 242.374564 59.970225 
L 239.354131 57.554843 
L 244.177482 44.31546 
L 240.663937 41.85113 
L 207.785322 85.753905 
L 205.592686 84.413337 
L 212.133687 67.140745 
L 209.353663 65.672657 
L 213.943426 48.489523 
L 210.576072 46.973755 
L 209.492407 39.659899 
L 205.849631 38.288446 
L 200.455831 42.316743 
L 196.90106 41.228107 
L 184.087231 76.385019 
L 181.611734 75.794203 
L 190.188964 16.810687 
L 185.837303 16.057474 
L 176.450397 55.596145 
L 173.325029 55.255727 
L 171.649293 31.254674 
L 167.760949 31.077248 
L 163.933825 72.282058 
L 161.339286 72.326938 
L 157.213941 48.699008 
L 153.881222 48.966836 
L 146.124093 14.709835 
L 141.728163 15.343157 
L 137.504372 16.893526 
L 133.181364 17.796792 
L 141.011242 65.693979 
L 138.220894 66.462852 
L 126.577918 40.169258 
L 122.992152 41.404567 
L 107.999326 14.002382 
L 103.600002 15.83478 
L 118.599616 58.688591 
L 115.600083 60.165598 
L 123.008234 80.488222 
L 120.69195 81.815834 
L 81.305311 25.010002 
L 77.265289 27.676276 
L 105.589042 74.689996 
L 103.099061 76.568173 
L 89.004831 64.488536 
L 86.202294 66.893201 
L 67.141584 52.070529 
L 63.959407 55.168762 
L 81.745572 77.869493 
L 79.367351 80.495789 
L 94.225977 97.31511 
L 92.452998 99.53938 
L 47.020422 70.214079 
L 44.418667 73.935995 
L 64.079375 91.711012 
L 62.145096 94.885928 
L 91.64609 115.238741 
L 90.437944 117.535266 
L 90.02146 120.204539 
L 88.970253 122.549691 
L 38.510698 105.493417 
L 37.02241 109.465454 
L 57.56393 120.530946 
L 56.539035 123.896472 
L 87.153569 135.291712 
L 86.578154 137.719578 
L 38.50899 131.235457 
L 37.830089 135.194821 
L 60.901026 142.085672 
L 60.552208 145.335616 
L 81.69095 149.874209 
L 81.576741 152.466621 
L 66.468427 155.108752 
L 66.526331 158.177205 
L 15.218182 164.645827 
L 15.601292 169.320986 
L 60.19617 168.268611 
L 60.670949 171.527771 
L 82.278435 170.685915 
L 82.818302 173.249566 
L 73.456357 178.394124 
L 74.242949 181.231349 
L 60.796673 188.750671 
L 61.915157 191.980824 
L 24.089154 210.79272 
L 25.918837 215.166139 
L 37.919327 214.714117 
L 39.86547 218.650747 
L 33.607439 227.141675 
L 35.946463 231.207735 
L 73.835177 212.533297 
L 75.694992 215.341732 
L 71.240607 222.778335 
L 73.423831 225.663283 
L 57.41388 243.721536 
L 60.262441 247.030872 
L 95.485624 219.705913 
L 97.560257 221.830064 
L 101.323247 222.146267 
L 103.471724 224.085664 
L 84.541279 251.71946 
L 87.627899 254.171897 
L 79.196199 272.621677 
L 82.942674 275.231839 
L 84.235129 281.753113 
L 88.266224 284.200327 
L 101.855249 269.096601 
L 105.479685 270.996057 
L 101.797212 288.607034 
L 106.035127 290.498668 
L 127.085923 249.39403 
L 130.078391 250.50992 
L 132.378862 253.798261 
L 135.507192 254.745552 
L 135.367601 268.673912 
L 138.962177 269.519875 
L 141.420385 276.492969 
L 145.257816 277.144753 
L 150.455486 266.648429 
L 153.978916 267.020997 
L 157.604589 265.698361 
L 161.094613 265.846615 
L 164.531429 253.983288 
L 167.64968 253.91954 
L 170.281926 246.632951 
L 173.166223 246.392028 
L 182.340264 294.050024 
L 186.709496 293.406516 
L 186.176287 267.708596 
L 189.71539 266.9575 
L 197.855386 283.748974 
L 201.893059 282.622731 
L 207.138257 285.137003 
L 211.214983 283.718199 
L 215.836776 283.644402 
L 219.862271 281.952836 
L 206.41419 243.609716 
L 209.185565 242.234211 
L 213.069952 242.852177 
L 215.814217 241.267774 
L 239.084467 271.646763 
L 242.721235 269.23017 
L 224.66899 237.287082 
L 227.232541 235.340732 
L 258.241558 267.397861 
L 261.735259 264.381028 
L 242.733346 237.66333 
L 245.299796 235.148811 
L 245.460295 230.395035 
L 247.796865 227.798368 
L 238.380964 215.585048 
L 240.255376 213.218293 
L 243.343552 211.71926 
L 245.093962 209.198382 
L 285.761308 231.060046 
L 288.098862 227.195898 
L 258.925595 206.240138 
L 260.496026 203.232036 
L 246.133117 192.836098 
L 247.28842 190.236847 
L 303.820537 209.181974 
L 305.461267 204.760822 
L 251.768537 182.720663 
L 252.603002 179.949223 
L 245.652817 175.226099 
L 246.25466 172.650656 
L 295.934041 179.124645 
L 296.633602 174.966323 
L 245.994958 164.639514 
L 246.263767 162.058548 
L 294.774856 162.2087 
L 294.943116 158.095189 
L 319.578742 153.823718 
L 319.471097 148.934464 
L 304.961656 145.038333 
L 304.585006 140.613016 
L 296.990454 137.142185 
L 296.369473 132.971404 
L 303.401926 127.284954 
L 302.467842 122.917456 
L 311.370824 115.950959 
L 310.076435 111.338505 
L 311.64962 105.768347 
L 310.034929 101.152162 
L 245.734837 121.83438 
L 244.657887 119.282757 
L 273.558737 102.374415 
L 271.856166 98.957569 
L 272.817813 94.048078 
L 270.85381 90.658645 
L 238.10173 107.100686 
L 236.565294 104.796349 
L 284.774282 65.81795 
L 281.916751 62.066537 
L 278.334854 58.916853 
L 275.263521 55.371322 
L 226.116844 95.701869 
L 224.22793 93.779999 
L 269.175702 41.262424 
L 265.553804 38.013605 
L 241.776578 59.479569 
L 238.741014 57.083232 
L 243.481001 43.813774 
L 239.952026 41.371592 
L 207.350185 85.480286 
L 205.149161 84.153535 
L 211.581398 66.840145 
L 208.792195 65.389571 
L 213.273795 48.17791 
L 209.896974 46.683351 
L 208.767331 39.376455 
L 205.116001 38.02794 
L 199.747644 42.090082 
L 196.186096 41.023824 
L 183.593638 76.260633 
L 181.114474 75.685398 
L 189.320561 16.649102 
L 184.964249 15.923274 
L 175.826205 55.520201 
L 172.698757 55.199446 
L 170.872102 31.209408 
L 166.982718 31.056441 
L 163.414825 72.284506 
L 160.82062 72.345703 
L 156.54675 48.744187 
L 153.215781 49.03297 
L 145.243349 14.825435 
L 140.851489 15.486392 
L 136.637532 17.063296 
L 132.320291 17.993733 
L 140.45126 65.840728 
L 137.665803 66.627135 
L 125.857685 40.407289 
L 122.27976 41.665126 
L 107.114886 14.357779 
L 102.727174 16.21781 
L 117.996017 58.976434 
L 115.005833 60.472278 
L 122.541655 80.747906 
L 120.233767 82.090061 
L 80.490631 25.533071 
L 76.467458 28.224702 
L 105.08634 75.059352 
L 102.608222 76.953153 
L 88.438296 64.962399 
L 85.650939 67.384643 
L 66.497379 52.682145 
L 63.334751 55.800331 
L 81.26334 78.388748 
L 78.901683 81.02995 
L 93.865799 97.755486 
L 92.106845 99.990863 
L 46.490728 70.951887 
L 43.912433 74.690093 
L 63.684547 92.341103 
L 61.770275 95.528122 
L 91.398692 115.694988 
L 90.205015 117.999067 
L 89.805327 120.670906 
L 88.768891 123.022624 
L 38.20306 106.284049 
L 36.739783 110.265368 
L 57.350492 121.201446 
L 56.346784 124.573352 
L 87.032382 135.775818 
L 86.472249 138.207255 
L 38.363254 132.025591 
L 37.709269 135.989145 
L 60.823089 142.734757 
L 60.494718 145.986831 
L 81.661587 150.392383 
L 81.563686 152.985463 
L 66.472288 155.722564 
L 66.549489 158.790592 
L 15.283039 165.581786 
L 15.695545 170.254442 
L 60.282922 168.921612 
L 60.778191 172.177721 
L 82.379954 171.199984 
L 82.935934 173.760188 
L 73.606531 178.963526 
L 74.410952 181.795747 
L 61.012235 189.39949 
L 62.151012 192.622544 
L 24.444073 211.671973 
L 26.301227 216.033797 
L 38.298637 215.506308 
L 40.2695 219.430619 
L 34.064996 227.960739 
L 36.429547 232.012008 
L 74.20006 213.099641 
L 76.077502 215.896323 
L 71.669977 223.360795 
L 73.871302 226.231955 
L 57.975244 244.390544 
L 60.844562 247.681898 
L 95.89519 220.135946 
L 97.983142 222.247006 
L 101.748046 222.539536 
L 103.908678 224.465382 
L 85.152408 252.217693 
L 88.254392 254.650668 
L 79.938898 273.153114 
L 83.701715 275.739662 
L 85.035159 282.252678 
L 89.081567 284.67449 
L 102.575329 269.485596 
L 106.211639 271.362218 
L 102.640003 288.996007 
L 106.889731 290.86095 
L 127.681585 249.624728 
L 130.681013 250.721774 
L 133.00212 253.995582 
L 136.136346 254.923178 
L 136.08436 268.852141 
L 139.684185 269.67548 
L 142.186201 276.632975 
L 146.027655 277.260611 
L 151.159207 266.731804 
L 154.68491 267.082204 
L 158.302193 265.736791 
L 161.79308 265.863092 
L 165.155215 253.978384 
L 168.273003 253.895025 
L 170.859369 246.592025 
L 173.742093 246.332966 
L 183.215695 293.932319 
L 187.580793 293.261345 
L 186.885969 267.567286 
L 190.420278 266.793946 
L 198.665722 283.533892 
L 202.696232 282.382276 
L 207.957139 284.86351 
L 212.024861 283.419094 
L 216.646099 283.31623 
L 220.660875 281.599379 
L 206.971904 243.341598 
L 209.734573 241.94869 
L 213.622769 242.542213 
L 216.357015 240.940582 
L 239.817872 271.172613 
L 243.439369 268.733195 
L 225.186576 236.904277 
L 227.737836 234.941842 
L 258.94786 266.803308 
L 262.422518 263.764561 
L 243.252941 237.166903 
L 245.803526 234.636292 
L 245.934123 229.8816 
L 248.254316 227.270289 
L 238.761786 215.116431 
L 240.621276 212.737935 
L 243.699962 211.219508 
L 245.434483 208.687671 
L 286.238522 230.293128 
L 288.551726 226.414355 
L 259.247237 205.642492 
L 260.798717 202.624573 
L 246.370707 192.319175 
L 247.50964 189.712709 
L 304.159793 208.301906 
L 305.772684 203.870523 
L 251.942396 182.168496 
L 252.759414 179.391863 
L 245.77966 174.712545 
L 246.365293 172.133368 
L 296.084409 178.294773 
L 296.757804 174.132134 
L 246.055211 164.124018 
L 246.307782 161.541412 
L 294.818855 161.386453 
L 294.961241 157.271965 
L 319.569515 152.845635 
L 319.431121 147.957155 
L 304.897462 144.152357 
L 304.492987 139.729496 
L 296.876756 136.306499 
L 296.229555 132.139706 
L 303.226104 126.409139 
L 302.26457 122.047602 
L 311.123561 115.025248 
L 309.800187 110.421027 
L 311.338308 104.841084 
L 309.694615 100.235146 
L 245.525875 121.321366 
L 244.432899 118.776567 
L 273.226832 101.686789 
L 271.502805 98.280719 
L 272.433555 93.365277 
L 270.448274 89.988263 
L 237.800252 106.635971 
L 236.249354 104.341343 
L 284.212236 65.060508 
L 281.331167 61.327142 
L 277.729531 58.200048 
L 274.63596 54.673904 
L 225.743911 95.312758 
L 223.842948 93.402806 
L 268.459525 40.603574 
L 264.817265 37.377599 
L 241.175518 58.992684 
L 238.124942 56.615486 
L 242.781378 43.316478 
L 239.237113 40.89654 
L 206.913335 85.209409 
L 204.704011 83.896527 
L 211.027229 66.543024 
L 208.228958 65.110022 
L 212.602217 47.870515 
L 209.216063 46.397223 
L 208.040486 39.097576 
L 204.380747 37.772053 
L 199.038045 41.867878 
L 195.469861 40.824042 
L 183.099272 76.139353 
L 180.616539 75.579722 
L 188.451159 16.492983 
L 184.090368 15.794567 
L 175.201547 55.448185 
L 172.072143 55.147106 
L 170.094641 31.169031 
L 166.204372 31.040528 
L 162.89585 72.290219 
L 160.302081 72.367731 
L 155.879856 48.793561 
L 152.55077 49.103289 
L 144.363349 14.946572 
L 139.975733 15.635139 
L 135.771777 17.238515 
L 131.460473 18.196086 
L 139.892212 65.990995 
L 137.111756 66.794906 
L 125.138964 40.649845 
L 121.56902 41.93016 
L 106.232699 14.718732 
L 101.856772 16.606323 
L 117.394241 59.268068 
L 114.413524 60.782689 
L 122.076719 81.01052 
L 119.777318 82.367164 
L 79.679257 26.061255 
L 75.673093 28.778135 
L 104.585972 75.431863 
L 102.119813 77.341212 
L 87.874753 65.439817 
L 85.102685 67.879543 
L 65.857034 53.297801 
L 62.71408 56.435816 
L 80.784382 78.911026 
L 78.439384 81.567029 
L 93.508398 98.198119 
L 91.763538 100.444515 
L 45.965685 71.693012 
L 43.410952 75.44736 
L 63.29369 92.973666 
L 61.3995 96.172662 
L 91.15417 116.152783 
L 89.975007 118.464323 
L 89.592131 121.138624 
L 88.570507 123.496813 
L 37.9004 107.0766 
L 36.462192 111.067043 
L 57.141275 121.873275 
L 56.158795 125.251428 
L 86.914243 136.260677 
L 86.369413 138.695589 
L 38.22249 132.816625 
L 37.593447 136.784215 
L 60.749236 143.38432 
L 60.441326 146.638394 
L 81.635484 150.910732 
L 81.553893 153.504376 
L 66.480009 156.336339 
L 66.576505 159.403822 
L 15.353781 166.517318 
L 15.795668 171.187287 
L 60.37378 169.574054 
L 60.889518 172.826984 
L 82.484705 171.713403 
L 83.056776 174.27006 
L 73.760284 179.531972 
L 74.582502 182.359078 
L 61.231873 190.04694 
L 62.390899 193.262768 
L 24.804516 212.548975 
L 26.689066 216.899033 
L 38.682921 216.296098 
L 40.678427 220.207936 
L 34.527695 228.77691 
L 36.917679 232.813226 
L 74.568498 213.663679 
L 76.463492 216.448497 
L 72.103001 223.940542 
L 74.322341 226.7978 
L 58.540804 245.056007 
L 61.430767 248.32925 
L 96.307453 220.563394 
L 98.40864 222.661281 
L 102.17531 222.930126 
L 104.348012 224.842344 
L 85.76666 252.712073 
L 88.883884 255.12549 
L 80.684924 273.67987 
L 84.463935 276.242701 
L 85.838316 282.747201 
L 89.899875 285.143515 
L 103.297841 269.870054 
L 106.945882 271.723769 
L 103.485223 289.379673 
L 107.746596 291.21785 
L 128.278687 249.851675 
L 131.284955 250.929835 
L 133.626607 254.188979 
L 136.766605 255.096845 
L 136.802225 269.025859 
L 140.407157 269.82654 
L 142.952882 276.768162 
L 146.798208 277.371624 
L 151.863438 266.810751 
L 155.391276 267.13897 
L 159.000025 265.770832 
L 162.491637 265.875175 
L 165.778958 253.969557 
L 168.89616 253.86659 
L 171.436543 246.547467 
L 174.317581 246.270284 
L 184.090368 293.809112 
L 188.451159 293.110696 
L 187.594749 267.421516 
L 191.124124 266.625962 
L 199.47469 283.313718 
L 203.497876 282.136776 
L 208.774285 284.584872 
L 212.832842 283.114901 
L 217.453342 282.982974 
L 221.45724 281.240906 
L 207.52792 243.069978 
L 210.281774 241.659721 
L 214.173626 242.228778 
L 216.897745 240.609982 
L 240.54828 270.69386 
L 244.154363 268.231713 
L 225.701745 236.518224 
L 228.240612 234.539782 
L 259.650409 266.204324 
L 263.105886 263.143784 
L 243.769405 236.667217 
L 246.304023 234.120615 
L 246.404713 229.365196 
L 248.708436 226.739344 
L 239.139653 214.645429 
L 240.984147 212.255284 
L 244.053222 210.717525 
L 245.771785 208.174829 
L 286.710903 229.523223 
L 288.999666 225.629978 
L 259.565113 205.042836 
L 261.097581 202.015217 
L 246.605042 191.800768 
L 247.727559 189.18719 
L 304.493507 207.419722 
L 306.078496 202.978282 
L 252.112779 181.615247 
L 252.912317 178.83353 
L 245.903271 174.198203 
L 246.472671 171.615394 
L 296.229555 177.463972 
L 296.876756 173.29718 
L 246.112221 163.608152 
L 246.348543 161.024009 
L 294.857683 160.563947 
L 294.974188 156.448644 
L 319.554135 151.867629 
L 319.384999 146.980116 
L 304.827697 143.266802 
L 304.395413 138.846573 
L 296.757804 135.471545 
L 296.084409 131.308906 
L 303.044778 125.534447 
L 302.055831 121.179044 
L 310.87048 114.101111 
L 309.518174 109.505304 
L 311.02117 103.915798 
L 309.348541 99.320289 
L 245.313691 120.809677 
L 244.20473 118.271802 
L 272.890609 101.001265 
L 271.145194 97.606105 
L 272.04501 92.684906 
L 270.038529 89.320446 
L 237.495858 106.173162 
L 235.930558 103.888334 
L 283.645438 64.306616 
L 280.740945 60.591444 
L 277.119713 57.487064 
L 274.004025 53.980446 
L 225.368539 94.926 
L 223.4556 93.028042 
L 267.739218 39.949241 
L 264.07674 36.746238 
L 240.571408 58.509588 
L 237.505941 56.151624 
L 242.078641 42.823593 
L 238.519227 40.425994 
L 206.474791 84.941285 
L 204.257252 83.642324 
L 210.471202 66.249395 
L 207.663974 64.83402 
L 211.92872 47.567349 
L 208.533367 46.115384 
L 207.311902 38.823275 
L 203.643899 37.520796 
L 198.327062 41.650142 
L 194.752384 40.628769 
L 182.604153 76.021185 
L 180.117949 75.47718 
L 187.580793 16.342334 
L 183.215695 15.671359 
L 174.576448 55.380098 
L 171.445213 55.098707 
L 169.316941 31.133544 
L 165.425941 31.029512 
L 162.376922 72.299195 
L 159.783692 72.393019 
L 155.213286 48.847129 
L 151.886213 49.177788 
L 143.484128 15.073241 
L 139.10093 15.78939 
L 134.907142 17.419175 
L 130.601945 18.403843 
L 139.334121 66.144776 
L 136.558775 66.966159 
L 124.421782 40.896917 
L 120.859962 42.199659 
L 105.352799 15.085226 
L 100.988831 17.000301 
L 116.794311 59.563481 
L 113.823179 61.096819 
L 121.613444 81.276053 
L 119.322621 82.647132 
L 78.87122 26.59453 
L 74.882223 29.336554 
L 104.087956 75.807513 
L 101.633855 77.732335 
L 87.314223 65.920769 
L 84.557555 68.377882 
L 65.220573 53.917472 
L 62.097418 57.075193 
L 80.308719 79.436306 
L 77.980472 82.107005 
L 93.153788 98.64299 
L 91.423091 100.900316 
L 45.445313 72.437425 
L 42.914243 76.207766 
L 62.906819 93.608674 
L 61.032786 96.81952 
L 90.912531 116.612106 
L 89.74793 118.931017 
L 89.381882 121.607673 
L 88.375109 123.972241 
L 37.60273 107.871038 
L 36.189649 111.870448 
L 56.936288 122.546407 
L 55.975074 125.930672 
L 86.799155 136.74627 
L 86.26965 139.184559 
L 38.086705 133.608529 
L 37.482627 137.579996 
L 60.67947 144.034334 
L 60.392032 147.290281 
L 81.612641 151.429235 
L 81.547365 154.023341 
L 66.49159 156.950054 
L 66.607377 160.016869 
L 15.430406 167.452387 
L 15.901656 172.119484 
L 60.46874 170.225912 
L 61.004927 173.475534 
L 82.592682 172.226153 
L 83.180822 174.779162 
L 73.917608 180.099439 
L 74.757591 182.921318 
L 61.455578 190.692996 
L 62.634807 193.901471 
L 25.170467 213.423694 
L 27.082339 217.761813 
L 39.072165 217.083455 
L 41.092234 220.982665 
L 34.995518 229.590154 
L 37.410842 233.611359 
L 74.940475 214.225388 
L 76.852947 216.998233 
L 72.539663 224.517555 
L 74.77693 227.360798 
L 59.110539 245.717901 
L 62.021031 248.972903 
L 96.722396 220.988241 
L 98.836736 223.072871 
L 102.605023 223.31802 
L 104.789708 225.216536 
L 86.384008 253.20258 
L 89.51635 255.596344 
L 81.434249 274.201923 
L 85.229303 276.740935 
L 86.644567 283.236663 
L 90.721117 285.607385 
L 104.022757 270.24996 
L 107.682384 272.080694 
L 104.332839 289.758014 
L 108.605689 291.569354 
L 128.877204 250.074861 
L 131.890194 251.134092 
L 134.252298 254.378445 
L 137.397944 255.266543 
L 137.521168 269.195058 
L 141.131065 269.973051 
L 143.720399 276.898524 
L 147.569444 277.47779 
L 152.568152 266.885268 
L 156.097984 267.191292 
L 159.698058 265.800484 
L 163.190257 265.882865 
L 166.402632 253.956807 
L 169.519125 253.834236 
L 172.013425 246.499281 
L 174.892663 246.203983 
L 184.964249 293.680405 
L 189.320561 292.954577 
L 188.302597 267.271291 
L 191.826899 266.453555 
L 200.282256 283.088461 
L 204.297961 281.886238 
L 209.589663 284.3011 
L 213.638894 282.805632 
L 218.258472 282.644647 
L 222.251335 280.877432 
L 208.082217 242.794866 
L 210.827146 241.367317 
L 214.722501 241.911885 
L 217.436385 240.275988 
L 241.275662 270.210522 
L 244.866188 267.725743 
L 226.214476 236.128939 
L 228.740849 234.134568 
L 260.349177 265.600934 
L 263.785337 262.518721 
L 244.282715 236.164294 
L 246.801266 233.6018 
L 246.872046 228.845842 
L 249.159208 226.205553 
L 239.51455 214.172059 
L 241.343975 211.770361 
L 244.403318 210.213329 
L 246.105854 207.659875 
L 287.178432 228.750363 
L 289.442664 224.8428 
L 259.879212 204.441191 
L 261.392608 201.403995 
L 246.836112 191.280897 
L 247.942169 188.660311 
L 304.821666 206.535457 
L 306.378689 202.084136 
L 252.279678 181.060937 
L 253.061705 178.274247 
L 246.023644 173.683094 
L 246.576789 171.096755 
L 296.369473 176.632275 
L 296.990454 172.461494 
L 246.165984 163.091939 
L 246.38605 160.50636 
L 294.891336 159.741212 
L 294.981956 155.625258 
L 319.532605 150.88974 
L 319.332732 146.003387 
L 304.752364 142.381704 
L 304.292287 137.964281 
L 296.633602 134.637356 
L 295.934041 130.479034 
L 302.857954 124.660913 
L 301.841633 120.311816 
L 310.611592 113.178584 
L 309.230408 108.591373 
L 310.698219 102.992524 
L 308.99672 98.407626 
L 245.098292 120.299332 
L 243.973392 117.768482 
L 272.550082 100.317869 
L 270.783348 96.933754 
L 271.652194 92.006993 
L 269.624592 88.655219 
L 237.188558 105.712276 
L 235.60892 103.437338 
L 283.073909 63.556304 
L 280.146107 59.859473 
L 276.505422 56.77793 
L 273.367741 53.290977 
L 224.990741 94.541611 
L 223.065903 92.655722 
L 267.014809 39.299452 
L 263.332259 36.119547 
L 239.964271 58.030302 
L 236.884034 55.691664 
L 241.372818 42.335137 
L 237.798395 39.959972 
L 206.034569 84.675924 
L 203.808904 83.390936 
L 209.913339 65.959269 
L 207.097265 64.561578 
L 211.253329 47.268425 
L 207.848911 45.837844 
L 206.581607 38.553561 
L 202.905485 37.274178 
L 197.614725 41.436882 
L 194.033693 40.438012 
L 182.1083 75.906134 
L 179.618725 75.377776 
L 186.709496 16.197163 
L 182.340264 15.553655 
L 173.950934 55.315945 
L 170.817991 55.054253 
L 168.539034 31.102949 
L 164.647457 31.023391 
L 161.85806 72.311435 
L 159.265472 72.421567 
L 154.547066 48.904888 
L 151.222139 49.256466 
L 142.605721 15.205438 
L 138.227114 15.94914 
L 134.043659 17.60527 
L 129.744741 18.616996 
L 138.777007 66.302064 
L 136.006883 67.140886 
L 123.706169 41.148494 
L 120.152613 42.473613 
L 104.475222 15.457247 
L 100.123385 17.399731 
L 116.19625 59.862662 
L 113.234821 61.414656 
L 121.151848 81.544495 
L 118.869693 82.929954 
L 78.066554 27.132878 
L 74.094881 29.899936 
L 103.592313 76.186288 
L 101.150366 78.126507 
L 86.75673 66.405236 
L 84.01557 68.879639 
L 64.588023 54.541134 
L 61.48479 57.718435 
L 79.836369 79.964567 
L 77.524966 82.649857 
L 92.801984 99.090084 
L 91.085518 101.35825 
L 44.929634 73.185096 
L 42.422327 76.971281 
L 62.523949 94.246103 
L 60.670148 97.468672 
L 90.673786 117.07294 
L 89.523793 119.39913 
L 89.174586 122.078035 
L 88.182705 124.448888 
L 37.310063 108.667334 
L 35.922164 112.675552 
L 56.735539 123.220815 
L 55.795628 126.611058 
L 86.687124 137.232576 
L 86.172965 139.674148 
L 37.955903 134.401271 
L 37.376815 138.376459 
L 60.613793 144.684775 
L 60.346839 147.942465 
L 81.59306 151.947872 
L 81.544101 154.542337 
L 66.507031 157.563684 
L 66.642104 160.62971 
L 15.512911 168.386955 
L 16.013504 173.050996 
L 60.567798 170.877159 
L 61.124412 174.123345 
L 82.703883 172.738214 
L 83.308068 175.287473 
L 74.078499 180.665906 
L 74.936213 183.482446 
L 61.683343 191.337633 
L 62.882728 194.538627 
L 25.541912 214.296093 
L 27.481031 218.622102 
L 39.466353 217.868348 
L 41.510906 221.754776 
L 35.468447 230.400439 
L 37.909014 234.406374 
L 75.315979 214.784746 
L 77.245852 217.545508 
L 72.979946 225.091809 
L 75.235051 227.920925 
L 59.684425 246.376198 
L 62.615332 249.61283 
L 97.140002 221.41047 
L 99.267413 223.481761 
L 103.037166 223.703205 
L 105.233749 225.587942 
L 87.004429 253.689194 
L 90.151765 256.06321 
L 82.186842 274.719253 
L 85.99779 277.234346 
L 87.45388 283.721045 
L 91.545261 286.06608 
L 104.750048 270.625299 
L 108.421117 272.43298 
L 105.182818 290.131018 
L 109.466977 291.915447 
L 129.477114 250.294279 
L 132.496706 251.334539 
L 134.879168 254.563971 
L 138.030337 255.432268 
L 138.241162 269.359732 
L 141.85588 270.115005 
L 144.48872 277.024056 
L 148.341333 277.579102 
L 153.27332 266.955351 
L 156.805008 267.239168 
L 160.396263 265.825746 
L 163.888911 265.886161 
L 167.026215 253.940134 
L 170.141875 253.797965 
L 172.589993 246.447467 
L 175.467316 246.134066 
L 185.837303 293.546205 
L 190.188964 292.792992 
L 189.009487 267.116617 
L 192.528576 266.276731 
L 201.08839 282.858128 
L 205.096454 281.630673 
L 210.403239 284.012205 
L 214.442985 282.491299 
L 219.061459 282.301263 
L 223.043128 280.50897 
L 208.634773 242.516273 
L 211.370669 241.071488 
L 215.269372 241.591546 
L 217.972913 239.938613 
L 241.99999 269.722619 
L 245.574817 267.215307 
L 226.724748 235.736436 
L 229.238528 233.726215 
L 261.044136 264.99316 
L 264.460843 261.889397 
L 244.792852 235.658151 
L 247.295237 233.079869 
L 247.336103 228.323559 
L 249.606614 225.668937 
L 239.886463 213.696341 
L 241.700746 211.283185 
L 244.750236 209.706942 
L 246.436679 207.14283 
L 287.641091 227.974578 
L 289.880702 224.052852 
L 260.18952 203.837583 
L 261.683784 200.790929 
L 247.063908 190.759583 
L 248.15346 188.132093 
L 305.144257 205.649145 
L 306.673254 201.188119 
L 252.443088 180.505589 
L 253.207573 177.714034 
L 246.140776 173.167239 
L 246.677643 170.577471 
L 296.504157 175.799714 
L 297.098894 171.62511 
L 246.216501 162.575397 
L 246.4203 159.988486 
L 294.919814 158.918282 
L 319.581818 154.801839 
z
" clip-path="url(#pf517a2c02f)" style="fill: #0000ff; opacity: 0.5; stroke: #000000; stroke-width: 1.5; stroke-linejoin: miter"/>
   </g>
  </g>
 </g>
 <defs>
  <clipPath id="pf517a2c02f">
   <rect x="0" y="-0" width="334.8" height="308.052406"/>
  </clipPath>
 </defs>
</svg>
