<?xml version="1.0" encoding="utf-8" standalone="no"?>
<!DOCTYPE svg PUBLIC "-//W3C//DTD SVG 1.1//EN"
  "http://www.w3.org/Graphics/SVG/1.1/DTD/svg11.dtd">
<svg xmlns:xlink="http://www.w3.org/1999/xlink" width="334.438016pt" height="332.64pt" viewBox="0 0 334.438016 332.64" xmlns="http://www.w3.org/2000/svg" version="1.1">
 <metadata>
  <rdf:RDF xmlns:dc="http://purl.org/dc/elements/1.1/" xmlns:cc="http://creativecommons.org/ns#" xmlns:rdf="http://www.w3.org/1999/02/22-rdf-syntax-ns#">
   <cc:Work>
    <dc:type rdf:resource="http://purl.org/dc/dcmitype/StillImage"/>
    <dc:date>2023-12-09T18:06:19.131170</dc:date>
    <dc:format>image/svg+xml</dc:format>
    <dc:creator>
     <cc:Agent>
      <dc:title>Matplotlib v3.8.2, https://matplotlib.org/</dc:title>
     </cc:Agent>
    </dc:creator>
   </cc:Work>
  </rdf:RDF>
 </metadata>
 <defs>
  <style type="text/css">*{stroke-linejoin: round; stroke-linecap: butt}</style>
 </defs>
 <g id="figure_1">
  <g id="patch_1">
   <path d="M 0 332.64 
L 334.438016 332.64 
L 334.438016 0 
L 0 0 
L 0 332.64 
z
" style="fill: none"/>
  </g>
  <g id="axes_1">
   <g id="patch_2">
    <path d="M 319.236288 167.344603 
L 319.161642 162.597637 
L 277.48198 160.466161 
L 277.211706 157.035444 
L 283.173654 152.813187 
L 282.659939 149.207294 
L 254.571086 150.863367 
L 254.010207 148.157765 
L 276.574344 139.505647 
L 275.645473 136.11383 
L 311.072764 120.892883 
L 309.541611 116.425564 
L 275.93894 124.665236 
L 274.543769 121.300736 
L 271.598236 118.662633 
L 270.016476 115.437582 
L 299.12554 95.315938 
L 296.796099 91.236911 
L 257.932104 110.366935 
L 256.096265 107.575678 
L 258.695239 101.553994 
L 256.581925 98.743101 
L 250.075307 99.567272 
L 247.903788 97.02839 
L 273.002432 68.837827 
L 269.853377 65.59326 
L 236.554929 94.50065 
L 234.230789 92.389383 
L 266.93731 47.85245 
L 263.131427 44.808959 
L 251.260148 52.880378 
L 247.620106 50.327325 
L 225.098502 77.584919 
L 222.24816 75.842231 
L 237.012075 41.97115 
L 233.036067 39.871482 
L 203.548755 92.135326 
L 201.166564 91.063016 
L 218.101217 41.024033 
L 214.104779 39.519432 
L 216.70201 17.620696 
L 211.970412 16.171661 
L 190.199158 81.433708 
L 187.487085 80.786429 
L 185.796169 74.730699 
L 182.875516 74.225174 
L 179.247618 79.360291 
L 176.475767 79.058378 
L 175.751862 45.356964 
L 171.9126 45.181777 
L 168.131273 84.268852 
L 165.519254 84.314034 
L 161.520498 62.918354 
L 158.240441 63.181949 
L 149.694237 22.347059 
L 145.144377 23.002558 
L 140.315251 22.232005 
L 135.76641 23.182457 
L 136.451417 44.382478 
L 132.600946 45.443465 
L 135.985794 68.643037 
L 132.898358 69.706669 
L 132.209954 76.803943 
L 129.380983 77.982261 
L 126.24889 78.52685 
L 123.477037 79.891745 
L 94.482437 33.797582 
L 90.319905 36.1834 
L 106.419212 70.355185 
L 103.400229 72.347609 
L 99.503489 73.143546 
L 96.575597 75.352036 
L 110.056852 97.310258 
L 107.883597 99.174979 
L 94.806564 89.486497 
L 92.394853 91.834589 
L 57.376006 63.713423 
L 54.17244 67.251156 
L 64.649926 82.056542 
L 62.019511 85.356499 
L 91.865507 112.132492 
L 90.16729 114.56186 
L 45.310716 89.761427 
L 42.932122 93.665641 
L 57.501782 106.834171 
L 55.653964 110.346629 
L 82.14175 127.103659 
L 80.919067 129.831362 
L 55.990041 123.25204 
L 54.659185 126.803914 
L 17.701606 118.895279 
L 16.252694 123.65318 
L 61.411007 140.239229 
L 60.611585 143.612257 
L 85.82679 151.871674 
L 85.381046 154.471264 
L 36.656086 151.122422 
L 36.211095 155.268417 
L 74.170962 161.715969 
L 74.040507 164.677177 
L 42.051129 167.741504 
L 42.12601 171.709651 
L 71.019964 173.775762 
L 71.270253 176.830082 
L 60.525991 181.312939 
L 61.018454 184.693486 
L 74.947582 185.467842 
L 75.563553 188.392888 
L 44.576912 199.549669 
L 45.650663 203.422673 
L 16.4916 217.23885 
L 18.135423 221.986171 
L 28.086082 223.416043 
L 29.918397 227.795755 
L 44.153994 226.289718 
L 46.06872 230.162798 
L 50.898641 232.424245 
L 53.002915 236.082226 
L 47.146825 244.838495 
L 49.643286 248.608303 
L 39.367614 261.736992 
L 42.399247 265.74304 
L 103.840955 221.055875 
L 105.561607 223.054854 
L 98.061572 233.784137 
L 100.185285 235.958539 
L 96.931227 243.909761 
L 99.373872 246.114697 
L 97.831063 253.182025 
L 100.564802 255.354084 
L 105.699888 254.198305 
L 108.461691 256.122449 
L 125.314836 235.643367 
L 127.483533 236.959948 
L 100.670077 291.530407 
L 104.60817 293.594241 
L 131.526626 246.285624 
L 134.026867 247.40163 
L 129.58094 266.294003 
L 132.711251 267.461294 
L 132.954745 277.659056 
L 136.44073 278.714647 
L 135.859022 295.926494 
L 139.917939 296.881737 
L 142.251366 307.13281 
L 146.659473 307.881523 
L 151.378375 306.112389 
L 155.749886 306.574634 
L 159.529965 317.266112 
L 164.248143 317.466538 
L 168.702759 260.803899 
L 171.641106 260.743829 
L 175.979271 281.31291 
L 179.558868 281.01391 
L 184.89451 294.066734 
L 188.870707 293.481113 
L 192.519468 291.202935 
L 196.401852 290.378984 
L 204.711341 306.433073 
L 209.066566 305.218253 
L 195.834952 250.775016 
L 198.444554 249.866808 
L 208.768152 268.148292 
L 211.917614 266.824846 
L 229.121276 294.96476 
L 233.103842 292.988109 
L 239.741627 295.773081 
L 243.744359 293.462103 
L 232.567181 267.499982 
L 235.684491 265.428563 
L 254.343295 284.503195 
L 257.984457 281.738681 
L 259.486896 276.410136 
L 262.871051 273.487898 
L 278.261621 283.205384 
L 281.850151 279.689467 
L 258.986855 251.60094 
L 261.591202 248.70669 
L 260.393271 242.697634 
L 262.716984 239.763565 
L 274.680722 243.745799 
L 277.030327 240.361983 
L 279.949268 237.330118 
L 282.094545 233.78382 
L 274.998471 225.221799 
L 276.765484 221.837152 
L 303.791752 230.154477 
L 305.699622 225.862067 
L 262.060939 203.84228 
L 263.162129 200.874988 
L 288.526957 205.628172 
L 289.671214 201.827847 
L 310.067806 202.842919 
L 311.113838 198.36668 
L 288.451936 189.513016 
L 289.089535 185.723017 
L 253.124615 177.534249 
L 253.403041 174.860941 
L 289.485985 174.213864 
L 289.642033 170.398917 
L 319.233302 166.39506 
L 319.128801 161.648657 
L 277.436559 159.779365 
L 277.144712 156.350415 
L 283.079987 152.090744 
L 282.543603 148.488154 
L 254.465722 150.320857 
L 253.887836 147.618837 
L 276.39711 138.824973 
L 275.446925 135.439066 
L 310.777785 119.995603 
L 309.218565 115.538002 
L 275.668381 123.988852 
L 274.252077 120.633194 
L 271.29001 118.013669 
L 269.687998 114.79863 
L 298.669933 94.494305 
L 296.314882 90.430009 
L 257.571973 109.804087 
L 255.718616 107.024432 
L 258.279664 100.986521 
L 256.148714 98.188975 
L 249.647408 99.054052 
L 247.459964 96.528879 
L 272.380809 68.181017 
L 269.211409 64.95632 
L 236.095431 94.072566 
L 233.758059 91.975959 
L 266.18382 47.234201 
L 262.358871 44.214707 
L 250.538592 52.36063 
L 246.882564 49.830522 
L 224.532841 77.229224 
L 221.671594 75.504498 
L 236.222188 41.54123 
L 232.233052 39.466611 
L 203.075033 91.914879 
L 200.686145 90.857573 
L 217.305746 40.71307 
L 213.299925 39.233634 
L 215.759373 17.318997 
L 211.018755 15.899749 
L 189.658393 81.297434 
L 186.942303 80.667226 
L 185.213333 74.62225 
L 182.289558 74.135104 
L 178.69403 79.292937 
L 175.920334 79.008463 
L 174.984481 45.312269 
L 171.144193 45.161232 
L 167.608776 84.271316 
L 164.997093 84.332926 
L 160.863849 62.962819 
L 157.585515 63.247039 
L 148.782652 22.466707 
L 144.237004 23.150809 
L 139.403127 22.410644 
L 134.860355 23.389686 
L 135.678684 44.58498 
L 131.834963 45.670163 
L 135.365655 68.847987 
L 132.284971 69.931017 
L 131.641218 77.032481 
L 128.819713 78.228568 
L 125.691107 78.792845 
L 122.927894 80.175146 
L 93.643962 34.264255 
L 89.496517 36.676205 
L 105.810427 70.746059 
L 102.804035 72.757431 
L 98.912377 73.57786 
L 95.998434 75.804722 
L 109.617527 97.67772 
L 107.456043 99.556073 
L 94.318334 89.95003 
L 91.921439 92.313243 
L 56.726418 64.412882 
L 53.545165 67.970694 
L 64.115562 82.70989 
L 61.505954 86.026325 
L 91.519765 112.614074 
L 89.836861 115.054075 
L 44.825194 90.536255 
L 42.471202 94.455351 
L 57.123396 107.531986 
L 55.297706 111.055997 
L 81.890361 127.646102 
L 80.684857 130.381441 
L 55.714945 123.959038 
L 54.406454 127.519212 
L 17.399865 119.843177 
L 15.980906 124.610095 
L 61.242643 140.911797 
L 60.464451 144.289786 
L 85.731105 152.39045 
L 85.301719 154.992792 
L 36.556661 151.950469 
L 36.137754 156.099181 
L 74.137422 162.307859 
L 74.025594 165.269829 
L 42.056121 168.53529 
L 42.155959 172.502888 
L 71.062335 174.387232 
L 71.331829 177.439917 
L 60.615975 181.99026 
L 61.12969 185.367643 
L 75.063412 186.054378 
L 75.697768 188.975492 
L 44.78191 200.32694 
L 45.879999 204.193114 
L 16.808408 218.192412 
L 18.482057 222.929301 
L 28.441512 224.296561 
L 30.301337 228.664661 
L 44.52718 227.069121 
L 46.466228 230.930082 
L 51.310276 233.161107 
L 53.437515 236.80578 
L 47.636613 245.598707 
L 50.156734 249.352739 
L 39.963838 262.545797 
L 43.020607 266.532699 
L 104.180043 221.459983 
L 105.913233 223.448101 
L 98.480827 234.224343 
L 100.618175 236.385345 
L 97.41419 244.356876 
L 99.870653 246.546406 
L 98.372325 253.623297 
L 101.119671 255.77812 
L 106.247386 254.590067 
L 109.021236 256.496803 
L 125.745246 235.912129 
L 127.922181 237.215044 
L 101.452473 291.953065 
L 105.403468 293.99209 
L 132.023847 246.515106 
L 134.531058 247.615366 
L 130.204041 266.535327 
L 133.341631 267.682907 
L 133.649258 277.878936 
L 137.141813 278.912582 
L 136.66837 296.127746 
L 140.733215 297.057442 
L 143.131069 307.293637 
L 147.543798 308.014611 
L 152.251479 306.215832 
L 156.625811 306.650573 
L 160.473059 317.318066 
L 165.192405 317.488813 
L 169.290557 260.799278 
L 172.228468 260.720728 
L 176.695914 281.262118 
L 180.27356 280.94061 
L 185.691191 293.959618 
L 189.663627 293.349 
L 193.297987 291.047918 
L 197.175112 290.199567 
L 205.585408 306.201076 
L 209.932906 304.958888 
L 196.359137 250.599947 
L 198.962975 249.675344 
L 209.401349 267.891536 
L 212.542425 266.548309 
L 229.92273 294.579465 
L 233.892786 292.577805 
L 240.547956 295.320974 
L 244.536073 292.984866 
L 233.19583 267.093557 
L 236.30005 265.002573 
L 255.078454 283.959475 
L 258.702156 281.172114 
L 260.171052 275.834226 
L 263.536761 272.89076 
L 278.988144 282.511257 
L 282.55449 278.972839 
L 259.514985 251.028665 
L 262.101077 248.118092 
L 260.865377 242.11669 
L 263.17059 239.168064 
L 275.159138 243.074974 
L 277.487413 239.676447 
L 280.387228 236.626284 
L 282.510158 233.066563 
L 275.360375 224.549342 
L 277.106065 221.153648 
L 304.184109 229.300829 
L 306.064945 224.996504 
L 262.288634 203.251616 
L 263.37114 200.277456 
L 288.76536 204.871016 
L 289.885693 201.063569 
L 310.288266 201.950339 
L 311.306124 197.467608 
L 288.588986 188.75665 
L 289.202735 184.962716 
L 253.187023 177.000309 
L 253.448631 174.325303 
L 289.526791 173.451297 
L 289.658842 169.635444 
L 319.224343 165.445554 
L 319.089993 160.699903 
L 277.386818 159.092868 
L 277.073411 155.665821 
L 282.981778 151.368905 
L 282.422746 147.76976 
L 254.356947 149.77902 
L 253.762079 147.080688 
L 276.215599 138.145428 
L 275.244138 134.765564 
L 310.477168 119.100195 
L 308.889943 114.652489 
L 275.393574 123.314184 
L 273.956192 119.967499 
L 270.977709 117.366656 
L 269.355507 114.161756 
L 298.209166 93.675553 
L 295.8286 89.62615 
L 257.208309 109.243515 
L 255.337506 106.475572 
L 257.860529 100.421673 
L 255.712026 97.637584 
L 249.216289 98.543534 
L 247.013007 96.032168 
L 271.755067 67.528129 
L 268.565448 64.323429 
L 235.63325 93.647381 
L 233.282737 91.565516 
L 265.426457 46.620704 
L 261.582592 43.625326 
L 249.81378 51.84543 
L 246.141912 49.338366 
L 223.964953 76.877094 
L 221.092915 75.170398 
L 235.429611 41.116287 
L 231.427507 39.066798 
L 202.599934 91.697416 
L 200.204443 90.655155 
L 216.508336 40.407117 
L 212.493288 38.952905 
L 214.814858 17.023232 
L 210.065407 15.633828 
L 189.116782 81.164564 
L 186.396781 80.551451 
L 184.629827 74.517469 
L 181.703046 74.048722 
L 178.140028 79.229066 
L 175.364599 78.962043 
L 174.216833 45.272401 
L 170.375672 45.145521 
L 167.086305 84.277067 
L 164.475061 84.355101 
L 160.207493 63.011413 
L 156.931012 63.316246 
L 147.871837 22.592086 
L 143.330582 23.304764 
L 138.492146 22.595016 
L 133.95562 23.60261 
L 134.90724 44.792338 
L 131.07042 45.901675 
L 134.746818 69.056834 
L 131.673006 70.159218 
L 131.07393 77.26459 
L 128.260004 78.478399 
L 125.135009 79.062343 
L 122.380544 80.461996 
L 92.808437 34.736192 
L 88.676245 37.174179 
L 105.204112 71.140754 
L 102.21043 73.170995 
L 98.324009 74.015884 
L 95.424129 76.261029 
L 109.180521 98.047938 
L 107.030894 99.939848 
L 93.833028 90.416623 
L 91.451044 92.794866 
L 56.081242 65.116413 
L 52.922429 68.694163 
L 63.585317 83.366585 
L 60.996619 86.699367 
L 91.177059 113.097821 
L 89.509534 115.548358 
L 44.344554 91.314121 
L 42.015258 95.247945 
L 56.749407 108.232167 
L 54.945917 111.767591 
L 81.642388 128.190115 
L 80.454112 130.932982 
L 55.4443 124.667753 
L 54.158227 128.236086 
L 17.104092 120.792953 
L 15.715143 125.568702 
L 61.078512 141.58541 
L 60.321581 144.968227 
L 85.638684 152.909817 
L 85.225674 155.514809 
L 36.462445 152.779124 
L 36.06964 156.930389 
L 74.107605 162.899948 
L 74.014408 165.862563 
L 42.066106 169.32903 
L 42.190896 173.295921 
L 71.108552 174.998423 
L 71.39724 178.049352 
L 60.710217 182.667003 
L 61.245163 186.041087 
L 75.182929 186.640174 
L 75.835645 189.55724 
L 44.991793 201.102907 
L 46.114176 204.962098 
L 17.131207 219.143963 
L 18.834616 223.870232 
L 28.802473 225.174825 
L 30.689734 229.531142 
L 44.905261 227.846161 
L 46.868553 231.69485 
L 51.726538 233.895364 
L 53.876658 237.526587 
L 48.131173 246.355824 
L 50.674855 250.093932 
L 40.565138 263.350836 
L 43.646921 267.318434 
L 104.521665 221.861952 
L 106.267325 223.839129 
L 98.902843 234.661903 
L 101.05374 236.80942 
L 97.899955 244.800945 
L 100.370141 246.974982 
L 98.916351 254.061157 
L 101.677196 256.198658 
L 106.797337 254.978378 
L 109.583125 256.86763 
L 126.177338 236.178178 
L 128.362424 237.467376 
L 102.237511 292.370794 
L 106.201252 294.384929 
L 132.522501 246.741457 
L 135.036583 247.825926 
L 130.828647 266.772728 
L 133.973393 267.900551 
L 134.345141 278.094443 
L 137.844128 279.106103 
L 137.478968 296.323905 
L 141.54958 297.228017 
L 144.011766 307.448928 
L 148.428943 308.142134 
L 153.125217 306.313782 
L 157.502197 306.721002 
L 161.416461 317.364087 
L 166.136787 317.505149 
L 169.878313 260.79096 
L 172.815672 260.693934 
L 177.412224 281.20682 
L 180.987777 280.862817 
L 186.487183 293.847493 
L 190.4557 293.211904 
L 194.075516 290.888009 
L 197.947228 290.015289 
L 206.457998 305.963585 
L 210.797597 304.694079 
L 196.88221 250.421584 
L 199.480181 249.480623 
L 210.032919 267.630804 
L 213.165484 266.267847 
L 230.721746 294.189137 
L 234.679134 292.162547 
L 241.351425 294.863804 
L 245.324771 292.50266 
L 233.82191 266.683186 
L 236.912918 264.57272 
L 255.810178 283.411141 
L 259.416278 280.601045 
L 260.851573 275.254023 
L 264.198702 272.289448 
L 279.710287 281.812574 
L 283.254308 278.251796 
L 260.039506 250.45308 
L 262.607241 247.5263 
L 261.33382 241.532788 
L 263.620441 238.569722 
L 275.633324 242.401153 
L 277.940179 238.98805 
L 280.820753 235.919709 
L 282.921252 232.346706 
L 275.718042 223.874622 
L 277.44234 220.468015 
L 304.571091 228.44473 
L 306.424817 224.128661 
L 262.512609 202.659531 
L 263.576387 199.678621 
L 288.998997 204.112375 
L 290.09536 200.297958 
L 310.503107 201.056389 
L 311.492752 196.567345 
L 288.721276 187.999438 
L 289.31115 184.201718 
L 253.246073 176.465987 
L 253.49085 173.789389 
L 289.5628 172.688489 
L 289.670849 168.871881 
L 319.209414 164.496123 
L 319.045219 159.751411 
L 277.332761 158.406697 
L 276.997806 154.981689 
L 282.879031 150.647698 
L 282.297374 147.05214 
L 254.244767 149.237879 
L 253.632939 146.543341 
L 276.029817 137.467038 
L 275.037118 134.093351 
L 310.170925 118.206696 
L 308.555758 113.76906 
L 275.114528 122.641257 
L 273.656126 119.303679 
L 270.661344 116.72162 
L 269.019018 113.526987 
L 297.743259 92.859715 
L 295.337272 88.825365 
L 256.841127 108.685242 
L 254.952952 105.929119 
L 257.43785 99.859472 
L 255.271878 97.088951 
L 248.781968 98.035738 
L 246.562934 95.538279 
L 271.125231 66.87919 
L 267.91552 63.694615 
L 235.168403 93.225111 
L 232.804844 91.15807 
L 264.66525 46.011981 
L 260.802622 43.040839 
L 249.085743 51.3348 
L 245.398179 48.850879 
L 223.394862 76.528543 
L 220.512147 74.839944 
L 234.634378 40.696337 
L 230.619463 38.672059 
L 202.123477 91.482946 
L 199.721479 90.455772 
L 215.709016 40.106185 
L 211.684903 38.677254 
L 213.868501 16.733413 
L 209.110406 15.373908 
L 188.574346 81.035103 
L 185.850543 80.439109 
L 184.045673 74.41636 
L 181.116002 73.96603 
L 177.585636 79.168681 
L 174.808582 78.919119 
L 173.448951 45.237363 
L 169.607067 45.134644 
L 166.563881 84.286104 
L 163.953179 84.38056 
L 159.551456 63.064134 
L 156.276956 63.389568 
L 146.961829 22.723191 
L 142.425146 23.464416 
L 137.582342 22.785114 
L 133.052243 23.82122 
L 134.137116 45.004544 
L 130.307348 46.13799 
L 134.129306 69.269569 
L 131.062489 70.391263 
L 130.508114 77.500263 
L 127.701877 78.731746 
L 124.580616 79.335332 
L 121.835009 80.752282 
L 91.975898 35.213374 
L 87.859121 37.677302 
L 104.600291 71.539254 
L 101.619437 73.588283 
L 97.738408 74.4576 
L 94.852706 76.720938 
L 108.745853 98.420897 
L 106.608167 100.326289 
L 93.350667 90.88626 
L 90.983687 93.279437 
L 55.440503 65.823987 
L 52.304254 69.421534 
L 63.059213 84.026603 
L 60.491528 87.3756 
L 90.837402 113.583714 
L 89.185323 116.04469 
L 43.868817 92.094994 
L 41.564307 96.043391 
L 56.379829 108.934686 
L 54.598611 112.481383 
L 81.397841 128.735677 
L 80.22684 131.485963 
L 55.178118 125.378156 
L 53.914513 128.954507 
L 16.814298 121.74457 
L 15.455413 126.528961 
L 60.918622 142.260043 
L 60.182982 145.647553 
L 85.549531 153.429756 
L 85.152913 156.037294 
L 36.373444 153.608356 
L 36.006755 157.76201 
L 74.081513 163.492213 
L 74.006951 166.455355 
L 42.081083 170.12269 
L 42.23082 174.088718 
L 71.158612 175.609311 
L 71.466483 178.658365 
L 60.808713 183.343139 
L 61.36487 186.713792 
L 75.306129 187.225206 
L 75.977178 190.13811 
L 45.206551 201.877538 
L 46.353185 205.729594 
L 17.459985 220.093465 
L 19.193086 224.808927 
L 29.16895 226.050802 
L 31.083573 230.395163 
L 45.288221 228.620807 
L 47.275681 232.457073 
L 52.147409 234.626989 
L 54.320325 238.244617 
L 48.630485 247.109816 
L 51.197627 250.831851 
L 41.171488 264.152077 
L 44.278164 268.100214 
L 104.865809 222.261763 
L 106.62387 224.227923 
L 99.327603 235.096801 
L 101.491963 237.230748 
L 98.388503 245.241949 
L 100.872313 247.400407 
L 99.463121 254.495586 
L 102.237354 256.61568 
L 107.34972 255.363222 
L 110.147334 257.234915 
L 126.611095 236.441505 
L 128.804246 237.716934 
L 103.02516 292.783577 
L 107.001491 294.772743 
L 133.022569 246.964667 
L 135.543422 248.033303 
L 131.454734 267.006195 
L 134.606511 268.114218 
L 135.042366 278.30557 
L 138.547646 279.295203 
L 138.290784 296.514961 
L 142.367001 297.393453 
L 144.893422 307.598676 
L 149.314872 308.264087 
L 153.999554 306.406235 
L 158.379008 306.785918 
L 162.360134 317.404174 
L 167.081254 317.515545 
L 170.466006 260.778945 
L 173.402697 260.663447 
L 178.128172 281.147017 
L 181.701491 280.780533 
L 187.282454 293.730364 
L 191.246895 293.069828 
L 194.852023 290.723212 
L 198.71817 289.826159 
L 207.329077 305.720612 
L 211.660606 304.423837 
L 197.404151 250.239936 
L 199.996153 249.282654 
L 210.662836 267.366104 
L 213.786767 265.983473 
L 231.518291 293.793791 
L 235.462855 291.742351 
L 242.152003 294.40159 
L 246.11042 292.015503 
L 234.445396 266.268886 
L 237.52307 264.139021 
L 256.538439 282.858216 
L 260.126794 280.025495 
L 261.528431 274.669553 
L 264.856849 271.683984 
L 280.428022 281.109362 
L 283.949577 277.526365 
L 260.560396 249.874207 
L 263.109672 246.931335 
L 261.79858 240.945951 
L 264.066521 237.968562 
L 276.103264 241.724363 
L 278.388607 238.296819 
L 281.249825 235.210421 
L 283.327811 231.624278 
L 276.071459 223.197666 
L 277.774297 219.780281 
L 304.95268 227.586214 
L 306.779224 223.258571 
L 262.732856 202.066049 
L 263.777865 199.078508 
L 289.227857 203.35228 
L 290.300209 199.531042 
L 310.712322 200.161105 
L 311.673713 195.665927 
L 288.8488 187.241408 
L 289.414778 183.440054 
L 253.30176 175.931305 
L 253.529699 173.25322 
L 289.594011 171.925469 
L 289.678053 168.108257 
L 319.188513 163.546805 
L 318.994479 158.80322 
L 277.274389 157.72088 
L 276.9179 154.298047 
L 282.77175 149.927152 
L 282.16749 146.335323 
L 254.129185 148.697453 
L 253.500422 146.006817 
L 275.839773 136.78983 
L 274.825875 133.422453 
L 309.859068 117.31514 
L 308.216023 112.887751 
L 274.831256 121.970099 
L 273.351892 118.641759 
L 270.340929 116.078587 
L 268.678543 112.894346 
L 297.272231 92.046824 
L 294.840917 88.027686 
L 256.470441 108.129289 
L 254.564969 105.385097 
L 257.011643 99.29994 
L 254.828289 96.543097 
L 248.344462 97.530683 
L 246.109765 95.04723 
L 270.491326 66.234225 
L 267.261649 63.0699 
L 234.70091 92.805773 
L 232.324397 90.753639 
L 263.90023 45.408059 
L 260.018992 42.461269 
L 248.354508 50.828758 
L 244.651395 48.36808 
L 222.82259 76.183584 
L 219.929311 74.513149 
L 233.83652 40.281396 
L 229.808952 38.28241 
L 201.645681 91.271476 
L 199.237269 90.259429 
L 214.90782 39.810286 
L 210.874799 38.406692 
L 212.92034 16.449552 
L 208.153788 15.12 
L 188.031106 80.909057 
L 185.303609 80.330206 
L 183.460895 74.318927 
L 180.528449 73.887032 
L 177.030875 79.111784 
L 174.252306 78.879693 
L 172.680863 45.207154 
L 168.838409 45.1286 
L 166.041523 84.298426 
L 163.431467 84.4093 
L 158.895763 63.12098 
L 155.623375 63.467003 
L 146.052664 22.860016 
L 141.520733 23.629761 
L 136.673751 22.98093 
L 132.150259 24.045508 
L 133.368341 45.221589 
L 129.545778 46.3791 
L 133.513145 69.486183 
L 130.453443 70.627144 
L 129.94379 77.73949 
L 127.145355 78.988598 
L 124.027952 79.611804 
L 121.291311 81.045993 
L 91.146376 35.695783 
L 87.045177 38.185555 
L 103.998989 71.941545 
L 101.031081 74.009281 
L 97.155596 74.902989 
L 94.284186 77.184433 
L 108.313539 98.796582 
L 106.187879 100.715382 
L 92.871269 91.358922 
L 90.519388 93.766938 
L 54.804227 66.535578 
L 51.690667 70.152778 
L 62.537271 84.689916 
L 59.9907 88.054996 
L 90.500808 114.071733 
L 88.86424 116.543052 
L 43.397999 92.878845 
L 41.118369 96.841657 
L 56.014676 109.639517 
L 54.2558 113.197346 
L 81.156731 129.282767 
L 80.003051 132.040363 
L 54.91641 126.090219 
L 53.675323 129.674447 
L 16.530495 122.697992 
L 15.201728 127.490834 
L 60.762977 142.935667 
L 60.048657 146.327737 
L 85.463651 153.950245 
L 85.083441 156.560226 
L 36.289659 154.438132 
L 35.949102 158.594009 
L 74.059147 164.084631 
L 74.003223 167.048183 
L 42.101052 170.916241 
L 42.275729 174.881249 
L 71.212513 176.219872 
L 71.539555 179.266929 
L 60.91146 184.018642 
L 61.488806 187.385731 
L 75.433005 187.809452 
L 76.122362 190.718077 
L 45.426178 202.650804 
L 46.597016 206.495572 
L 17.794728 221.04088 
L 19.557452 225.745349 
L 29.54093 226.924457 
L 31.482839 231.25669 
L 45.676046 229.39303 
L 47.687594 233.216719 
L 52.572874 235.355953 
L 54.7685 238.959843 
L 49.134529 247.860652 
L 51.72503 251.566468 
L 41.782866 264.949489 
L 44.914312 268.878009 
L 105.212461 222.659403 
L 106.982853 224.614466 
L 99.755089 235.529019 
L 101.932828 237.649311 
L 98.879815 245.679873 
L 101.377152 247.822666 
L 100.012612 254.926567 
L 102.800125 257.029172 
L 107.904512 255.744584 
L 110.713843 257.598645 
L 127.046499 236.702098 
L 129.247629 237.963708 
L 103.815391 293.191398 
L 107.804154 295.155516 
L 133.524031 247.184728 
L 136.051555 248.237487 
L 132.082277 267.23572 
L 135.24096 268.323898 
L 135.740905 278.512307 
L 139.25234 279.479874 
L 139.103785 296.700907 
L 143.185447 297.553745 
L 145.776003 307.742877 
L 150.20155 308.380466 
L 154.874455 306.493186 
L 159.256211 306.845318 
L 163.304041 317.438325 
L 168.025767 317.52 
L 171.053611 260.763235 
L 173.989518 260.629268 
L 178.843729 281.082713 
L 182.414673 280.693762 
L 188.076973 293.608236 
L 192.037181 292.922778 
L 195.627479 290.553535 
L 199.487907 289.632184 
L 208.198611 305.472165 
L 212.521899 304.148173 
L 197.924939 250.055008 
L 200.510869 249.081443 
L 211.291076 267.097448 
L 214.406249 265.695196 
L 232.312334 293.393443 
L 236.243917 291.317235 
L 242.949658 293.93435 
L 246.892989 291.523414 
L 235.066265 265.850673 
L 238.130482 263.701493 
L 257.263209 282.300722 
L 260.833676 279.445489 
L 262.201599 274.080836 
L 265.511174 271.074393 
L 281.141319 280.401651 
L 284.640269 276.796576 
L 261.077635 249.292069 
L 263.608352 246.333222 
L 262.259641 240.356202 
L 264.508811 237.364608 
L 276.568937 241.044631 
L 278.832678 237.602781 
L 281.674428 234.498449 
L 283.729818 230.899307 
L 276.42061 222.5185 
L 278.101922 219.090473 
L 305.328862 226.725315 
L 307.128152 222.38627 
L 262.949365 201.471193 
L 263.975564 198.477139 
L 289.451933 202.590761 
L 290.500229 198.762854 
L 310.915902 199.264524 
L 311.849002 194.763387 
L 288.971555 186.482591 
L 289.513613 182.677753 
L 253.354084 175.396282 
L 253.565174 172.716817 
L 289.620422 171.162268 
L 319.236288 167.344603 
z
" clip-path="url(#p1d90b4e06c)" style="fill: #0000ff; opacity: 0.5; stroke: #000000; stroke-width: 1.5; stroke-linejoin: miter"/>
   </g>
  </g>
 </g>
 <defs>
  <clipPath id="p1d90b4e06c">
   <rect x="0" y="-0" width="334.438016" height="332.64"/>
  </clipPath>
 </defs>
</svg>
