<?xml version="1.0" encoding="utf-8" standalone="no"?>
<!DOCTYPE svg PUBLIC "-//W3C//DTD SVG 1.1//EN"
  "http://www.w3.org/Graphics/SVG/1.1/DTD/svg11.dtd">
<svg xmlns:xlink="http://www.w3.org/1999/xlink" width="334.8pt" height="328.883198pt" viewBox="0 0 334.8 328.883198" xmlns="http://www.w3.org/2000/svg" version="1.1">
 <metadata>
  <rdf:RDF xmlns:dc="http://purl.org/dc/elements/1.1/" xmlns:cc="http://creativecommons.org/ns#" xmlns:rdf="http://www.w3.org/1999/02/22-rdf-syntax-ns#">
   <cc:Work>
    <dc:type rdf:resource="http://purl.org/dc/dcmitype/StillImage"/>
    <dc:date>2023-12-09T18:06:19.256153</dc:date>
    <dc:format>image/svg+xml</dc:format>
    <dc:creator>
     <cc:Agent>
      <dc:title>Matplotlib v3.8.2, https://matplotlib.org/</dc:title>
     </cc:Agent>
    </dc:creator>
   </cc:Work>
  </rdf:RDF>
 </metadata>
 <defs>
  <style type="text/css">*{stroke-linejoin: round; stroke-linecap: butt}</style>
 </defs>
 <g id="figure_1">
  <g id="patch_1">
   <path d="M 0 328.883198 
L 334.8 328.883198 
L 334.8 0 
L 0 0 
L 0 328.883198 
z
" style="fill: none"/>
  </g>
  <g id="axes_1">
   <g id="patch_2">
    <path d="M 303.55967 165.238658 
L 303.492975 160.997288 
L 302.501028 156.809986 
L 302.16984 152.606069 
L 263.132562 153.292613 
L 262.710245 150.328266 
L 305.062613 139.192833 
L 304.176237 134.917085 
L 261.65596 141.337813 
L 260.858488 138.425805 
L 250.160286 138.731042 
L 249.286535 136.181772 
L 273.413608 123.720194 
L 272.056386 120.44721 
L 303.616983 101.662698 
L 301.551292 97.45096 
L 262.51109 113.58507 
L 260.840588 110.659896 
L 297.923254 83.106486 
L 295.27693 79.082946 
L 244.381068 110.155245 
L 242.611689 107.801814 
L 268.877427 82.219249 
L 266.217567 79.109412 
L 235.138107 102.722194 
L 233.139587 100.663058 
L 247.358667 81.301461 
L 244.68059 78.868674 
L 222.222419 100.383206 
L 220.156742 98.731324 
L 216.17695 99.714772 
L 214.093245 98.253303 
L 242.528741 48.589425 
L 238.824513 46.324676 
L 230.854126 51.830806 
L 227.257587 49.931529 
L 225.962395 43.117768 
L 222.094317 41.376606 
L 205.068357 72.973414 
L 202.149337 71.874445 
L 196.510412 79.172435 
L 193.790534 78.339482 
L 206.555012 16.855182 
L 201.870777 15.737216 
L 191.101796 46.732549 
L 187.364611 46.085693 
L 181.740999 60.516913 
L 178.441853 60.157566 
L 174.160468 75.742209 
L 171.343787 75.613683 
L 168.468312 39.866531 
L 164.526435 39.934717 
L 163.349074 82.886556 
L 160.762372 83.094431 
L 150.624381 24.353399 
L 146.203559 24.990307 
L 150.058174 68.620659 
L 147.029492 69.253483 
L 138.656339 49.239684 
L 135.023915 50.240589 
L 128.711859 43.059065 
L 124.890019 44.375702 
L 138.136965 88.5696 
L 135.741416 89.567389 
L 130.664038 84.901649 
L 128.156855 86.136217 
L 118.399207 74.252548 
L 115.563257 75.878015 
L 88.036564 38.786387 
L 84.100492 41.384058 
L 83.522762 48.590663 
L 79.897191 51.32541 
L 81.431159 60.27532 
L 78.174013 63.070054 
L 99.510182 91.938363 
L 97.239653 94.148998 
L 71.850559 74.757889 
L 69.053513 77.846698 
L 79.832996 92.116344 
L 77.577791 94.945584 
L 61.263961 87.618989 
L 58.876531 91.034304 
L 41.834247 85.207161 
L 39.38059 89.234582 
L 37.75113 93.717591 
L 35.567079 97.869186 
L 90.306734 128.624364 
L 89.194243 131.106237 
L 88.898917 133.911924 
L 87.953375 136.435447 
L 70.469945 133.639985 
L 69.524964 136.74309 
L 19.453441 127.38734 
L 18.337087 132.097607 
L 20.488893 137.426171 
L 19.68767 142.098918 
L 75.736296 153.783894 
L 75.422079 156.711454 
L 79.160465 159.884361 
L 79.036368 162.701241 
L 29.804426 165.675341 
L 29.886813 170.041219 
L 87.113568 170.632145 
L 87.323473 173.193648 
L 15.218182 185.13363 
L 15.919592 189.948512 
L 70.51894 184.300391 
L 71.166809 187.376907 
L 59.624823 193.630627 
L 60.571442 197.045065 
L 66.147787 198.941176 
L 67.258156 202.147892 
L 27.948101 221.526713 
L 29.787495 225.923344 
L 51.116749 221.068473 
L 52.93028 224.736857 
L 40.979331 236.042474 
L 43.26869 240.022197 
L 65.733689 231.098192 
L 67.855349 234.302029 
L 86.721549 225.248145 
L 88.648895 227.79497 
L 94.312087 227.231126 
L 96.298028 229.538308 
L 54.555913 273.235078 
L 58.007976 276.769535 
L 81.04146 259.292787 
L 84.042051 262.001374 
L 101.722832 246.824814 
L 104.321178 248.889298 
L 99.562725 261.172706 
L 102.613268 263.298014 
L 85.031949 298.241103 
L 89.255188 300.804963 
L 95.074296 300.446967 
L 99.361927 302.693984 
L 103.718089 304.805076 
L 108.138475 306.778158 
L 117.818925 295.308663 
L 121.933751 296.843079 
L 130.448605 284.644194 
L 134.221872 285.786778 
L 143.652307 264.496401 
L 146.785555 265.233793 
L 150.230749 264.312093 
L 153.35495 264.842735 
L 151.702497 304.659224 
L 156.094573 305.123643 
L 162.390722 272.971464 
L 165.78118 273.115488 
L 169.339182 308.06625 
L 173.829661 307.974448 
L 174.723242 254.698776 
L 177.533069 254.464074 
L 188.182091 313.933962 
L 192.847747 313.246797 
L 195.04936 299.954046 
L 199.272062 299.057871 
L 190.79201 249.672057 
L 193.435841 248.934603 
L 206.015082 278.251014 
L 209.549971 277.020784 
L 213.044432 275.680016 
L 216.495008 274.230038 
L 213.067241 258.3478 
L 215.972843 256.905675 
L 227.707227 271.319732 
L 231.013457 269.410879 
L 215.823514 238.687281 
L 218.109584 237.168213 
L 248.536569 273.94494 
L 251.915042 271.379869 
L 227.211098 235.23387 
L 229.382954 233.358458 
L 276.294811 278.602785 
L 279.806012 275.162632 
L 266.927249 256.494473 
L 269.747949 253.359787 
L 265.712267 244.611972 
L 268.159956 241.521362 
L 270.509258 238.355321 
L 272.757852 235.116977 
L 293.730513 243.606904 
L 296.132746 239.635837 
L 250.97583 209.870917 
L 252.338469 207.260831 
L 293.21507 222.959862 
L 294.96837 219.01521 
L 316.562937 222.786315 
L 318.299237 218.10764 
L 255.618166 192.918024 
L 256.445474 190.170354 
L 290.284964 195.68371 
L 291.182091 191.844673 
L 288.056402 187.259685 
L 288.689761 183.494884 
L 317.566548 183.117529 
L 318.055078 178.426912 
L 312.058087 173.364118 
L 312.242672 168.851521 
L 303.557002 164.39025 
L 303.463632 160.149383 
L 302.445369 155.968402 
L 302.087748 151.766652 
L 263.05556 152.698704 
L 262.614607 149.737072 
L 304.896102 138.335487 
L 303.982851 134.065398 
L 261.503798 140.753428 
L 260.688027 137.846493 
L 249.991956 138.21901 
L 249.102189 135.675285 
L 273.150409 123.062208 
L 271.772628 119.797825 
L 303.214457 100.815187 
L 301.122317 96.616524 
L 262.184362 112.995856 
L 260.495495 110.081246 
L 297.404133 82.295152 
L 294.732555 78.288335 
L 244.033127 109.680126 
L 242.248981 107.33787 
L 268.3533 81.590614 
L 265.673934 78.497568 
L 234.7436 102.305355 
L 232.732168 100.258829 
L 246.829194 80.808185 
L 244.135868 78.39229 
L 221.813456 100.047646 
L 219.73743 98.408788 
L 215.763903 99.417248 
L 213.671047 97.968913 
L 241.793622 48.127174 
L 238.075224 45.885767 
L 230.139625 51.441917 
L 226.531212 49.565299 
L 225.193191 42.759818 
L 221.314239 41.043019 
L 204.487341 72.746285 
L 201.561467 71.665697 
L 195.968553 78.999009 
L 193.24349 78.183178 
L 205.621015 16.619813 
L 200.929841 15.53133 
L 190.356016 46.593781 
L 186.614836 45.970443 
L 181.0821 60.436746 
L 177.780759 60.098156 
L 173.597478 75.709418 
L 170.780044 75.59861 
L 167.679797 39.870251 
L 163.738427 39.963228 
L 162.831231 82.921621 
L 160.245888 83.145762 
L 149.738649 24.469654 
L 145.321921 25.134354 
L 149.45087 68.739599 
L 146.426228 69.391459 
L 137.927365 49.430718 
L 134.301307 50.454449 
L 127.944209 43.312767 
L 124.130726 44.653416 
L 137.655364 88.763123 
L 135.266138 89.775959 
L 130.159515 85.142245 
L 127.660147 86.392558 
L 117.82795 74.570494 
L 115.00228 76.213765 
L 87.242845 39.295998 
L 83.32319 41.918373 
L 82.790796 49.12847 
L 79.182497 51.885965 
L 80.772724 60.82605 
L 77.53322 63.641214 
L 99.050533 92.37476 
L 96.793952 94.599631 
L 71.283401 75.36859 
L 68.505837 78.474929 
L 79.374855 92.676496 
L 77.137489 95.519864 
L 60.777902 88.296019 
L 58.411999 91.726282 
L 41.333402 86.006441 
L 38.905124 90.049214 
L 37.303892 94.542382 
L 35.145995 98.707631 
L 90.078001 129.11792 
L 88.981142 131.606741 
L 88.703467 134.41423 
L 87.773815 136.94365 
L 70.27315 134.258204 
L 69.347704 137.367191 
L 19.218329 128.326547 
L 18.131622 133.043742 
L 20.316899 138.358668 
L 19.545081 143.036362 
L 75.66609 154.368592 
L 75.370292 157.29807 
L 79.12856 160.447403 
L 79.022182 163.265007 
L 29.809919 166.548689 
L 29.919764 170.913963 
L 87.149103 171.144953 
L 87.375114 173.705085 
L 15.346345 186.098333 
L 16.078024 190.908708 
L 70.640769 184.917299 
L 71.307975 187.98968 
L 59.805549 194.315869 
L 60.773624 197.724286 
L 66.361785 199.585287 
L 67.4923 202.784956 
L 28.304904 222.410632 
L 30.171915 226.795607 
L 51.470212 221.806683 
L 53.306779 225.463589 
L 41.427173 236.844147 
L 43.741516 240.809393 
L 66.149944 231.744272 
L 68.291712 234.934701 
L 87.100596 225.762339 
L 89.043921 228.296992 
L 94.703455 227.697541 
L 96.703868 229.992186 
L 55.237406 273.950626 
L 58.71163 277.463302 
L 81.63474 259.842032 
L 84.652308 262.531693 
L 102.237287 247.244231 
L 104.848566 249.292332 
L 100.167463 261.605426 
L 103.231312 263.711506 
L 85.870113 298.764479 
L 90.109394 301.301727 
L 95.926135 300.90714 
L 100.227813 303.127145 
L 104.597167 305.210798 
L 109.029875 307.156039 
L 118.637997 295.625886 
L 122.762392 297.134392 
L 131.200354 284.882195 
L 134.980732 286.001024 
L 144.277077 264.651756 
L 147.414901 265.369427 
L 150.85423 264.426077 
L 153.981706 264.937059 
L 152.579709 304.763154 
L 156.974618 305.19994 
L 163.068425 273.008797 
L 166.459721 273.131495 
L 170.237473 308.059188 
L 174.727286 307.939145 
L 175.285775 254.658907 
L 178.094071 254.406537 
L 189.116914 313.808272 
L 193.778156 313.091776 
L 195.896122 299.785442 
L 200.113104 298.862726 
L 191.322611 249.531224 
L 193.961752 248.777156 
L 206.725127 278.013871 
L 210.252209 276.761432 
L 213.738167 275.398713 
L 217.179556 273.927062 
L 213.651967 258.066697 
L 216.548441 256.606325 
L 228.373249 270.946294 
L 231.667408 269.016685 
L 216.284532 238.389231 
L 218.561002 236.855815 
L 249.21869 273.440446 
L 252.580964 270.854177 
L 227.65017 234.864266 
L 229.810188 232.975232 
L 277.005678 277.923615 
L 280.495173 274.461446 
L 267.499253 255.874657 
L 270.300181 252.722292 
L 266.209561 244.000032 
L 268.637763 240.894089 
L 270.967106 237.713335 
L 273.195288 234.460913 
L 294.220931 242.818766 
L 296.598141 238.832669 
L 251.254913 209.352348 
L 252.60111 206.733744 
L 293.57564 222.175374 
L 295.304096 218.219773 
L 316.921954 221.854985 
L 318.628793 217.165483 
L 255.790534 192.370593 
L 256.600544 189.617775 
L 290.474041 194.91819 
L 291.347005 191.073586 
L 288.19254 186.508348 
L 288.802208 182.739638 
L 317.676051 182.180672 
L 318.13507 177.487075 
L 312.106355 172.462099 
L 312.262555 167.948431 
L 303.548998 163.541875 
L 303.428958 159.301679 
L 302.384419 155.127186 
L 302.000377 150.927768 
L 262.974824 152.105292 
L 262.515253 149.146492 
L 304.724202 137.479205 
L 303.784113 133.214945 
L 261.347964 140.170012 
L 260.513926 137.268265 
L 249.820409 137.708047 
L 248.914661 135.169969 
L 272.883076 122.405891 
L 271.484792 119.150238 
L 302.806609 99.970224 
L 300.688103 95.784803 
L 261.853935 112.408708 
L 260.14677 109.504778 
L 296.879919 81.487099 
L 294.183194 77.497164 
L 243.682205 109.207205 
L 241.883363 106.876217 
L 267.825229 80.965289 
L 265.126463 77.889155 
L 234.346478 101.891006 
L 232.322214 99.857171 
L 246.296628 80.318249 
L 243.588161 77.919342 
L 221.40239 99.714665 
L 219.316098 98.088896 
L 215.348992 99.122327 
L 213.247068 97.687184 
L 241.055611 47.669555 
L 237.323189 45.451579 
L 229.422692 51.05753 
L 225.802547 49.203644 
L 224.42175 42.406713 
L 220.532077 40.714344 
L 203.904908 72.522815 
L 200.972296 71.46065 
L 195.425614 78.828993 
L 192.695474 78.030318 
L 204.685556 16.390323 
L 199.987628 15.331366 
L 189.609378 46.459706 
L 185.864352 45.85991 
L 180.422709 60.360725 
L 177.119304 60.042905 
L 173.034292 75.680169 
L 170.216217 75.587083 
L 166.89132 39.87893 
L 162.950612 39.996693 
L 162.313619 82.959943 
L 159.729737 83.20034 
L 148.853666 24.591477 
L 144.441206 25.283942 
L 148.844325 68.862356 
L 145.823843 69.533227 
L 137.199607 49.626334 
L 133.58006 50.672851 
L 127.17817 43.571292 
L 123.373194 44.935899 
L 137.174989 88.959671 
L 134.792181 89.987515 
L 129.656516 85.38601 
L 127.16506 86.652017 
L 117.258704 74.892026 
L 114.443425 76.553036 
L 86.452348 39.810591 
L 82.549263 42.457566 
L 82.062228 49.670869 
L 78.471342 52.451004 
L 80.117767 61.380911 
L 76.896032 64.216394 
L 98.593637 92.81404 
L 96.351094 95.053059 
L 70.720095 75.982845 
L 67.962124 79.106592 
L 78.920246 93.239518 
L 76.700808 96.096902 
L 60.29611 88.976092 
L 57.951829 92.421168 
L 40.837595 86.808854 
L 38.434792 90.86682 
L 36.861851 95.36997 
L 34.730194 99.548709 
L 89.852376 129.612905 
L 88.771192 132.108575 
L 88.511181 134.917755 
L 87.597456 137.452972 
L 70.080246 134.877648 
L 69.174373 137.992394 
L 18.989128 129.267215 
L 17.932112 133.991152 
L 20.150773 139.292228 
L 19.40839 143.974683 
L 75.599562 154.953721 
L 75.322196 157.885001 
L 79.100196 161.010634 
L 79.011542 163.828852 
L 29.820905 167.421986 
L 29.958202 171.786483 
L 87.187863 171.657528 
L 87.429971 174.216188 
L 15.480573 187.062211 
L 16.242492 191.867888 
L 70.766475 185.53343 
L 71.452991 188.601554 
L 59.990582 194.999961 
L 60.980074 198.402222 
L 66.579829 200.22804 
L 67.730446 203.420536 
L 28.66726 223.292289 
L 30.561812 227.665435 
L 51.828311 222.542656 
L 53.687841 226.187938 
L 41.880047 237.642987 
L 44.219284 241.593599 
L 66.570254 232.387721 
L 68.732046 235.564617 
L 87.482869 226.274138 
L 89.442097 228.796519 
L 95.097749 228.161484 
L 97.112554 230.443503 
L 55.923386 274.661874 
L 59.419635 278.15263 
L 82.231463 260.387534 
L 85.265887 263.058164 
L 102.75437 247.660405 
L 105.378478 249.692042 
L 100.77491 262.034333 
L 103.851945 264.121102 
L 86.711553 299.282574 
L 90.966707 301.793109 
L 96.780851 301.361946 
L 101.096408 303.554851 
L 105.47878 305.610983 
L 109.923634 307.528306 
L 119.459048 295.937952 
L 123.59285 297.420487 
L 131.953585 285.115463 
L 135.740926 286.210494 
L 144.902811 264.803179 
L 148.045087 265.501101 
L 151.478415 264.536137 
L 154.609043 265.02744 
L 153.457558 304.861565 
L 157.855127 305.2707 
L 163.746348 273.041868 
L 167.13835 273.143234 
L 171.135702 308.046476 
L 175.624671 307.898197 
L 175.848047 254.6155 
L 178.6547 254.345473 
L 190.050928 313.676706 
L 194.707572 312.930907 
L 196.741806 299.611515 
L 200.952901 298.662295 
L 191.852315 249.387056 
L 194.486661 248.616404 
L 207.433666 277.772267 
L 210.952801 276.497669 
L 214.43012 275.113052 
L 217.862185 273.619786 
L 214.234913 257.781921 
L 217.122145 256.303361 
L 229.03691 270.568675 
L 232.318867 268.618386 
L 216.743666 238.088287 
L 219.010446 236.540583 
L 249.897625 272.931671 
L 253.243566 270.324307 
L 228.086909 234.491909 
L 230.235003 232.589327 
L 277.71226 277.239988 
L 281.179911 273.75594 
L 268.067347 255.251255 
L 270.848394 252.081337 
L 266.702996 243.384977 
L 269.111615 240.263824 
L 271.420907 237.068482 
L 273.628589 233.80211 
L 294.706383 242.027559 
L 297.058476 238.026589 
L 251.53073 208.832035 
L 252.86043 206.205015 
L 293.931269 221.388634 
L 295.634813 217.42224 
L 317.275106 220.921416 
L 318.952417 216.221271 
L 255.959455 191.822089 
L 256.752136 189.064231 
L 290.658299 194.151496 
L 291.507065 190.301478 
L 288.32395 185.756169 
L 288.909903 181.983699 
L 317.77966 181.243144 
L 318.209149 176.546754 
L 312.14895 171.559794 
L 312.276758 167.045233 
L 303.535659 162.693567 
L 303.388952 158.454211 
L 302.318178 154.286369 
L 301.907733 150.08945 
L 262.890357 151.512399 
L 262.412186 148.556548 
L 304.546919 136.624022 
L 303.580029 132.365759 
L 261.188463 139.587587 
L 260.336191 136.691143 
L 249.645652 137.198172 
L 248.723959 134.665841 
L 272.611621 121.751269 
L 271.192888 118.504474 
L 302.393454 99.127843 
L 300.248666 94.955829 
L 261.519821 111.82365 
L 259.794426 108.930515 
L 296.350633 80.682359 
L 293.628867 76.709464 
L 243.328315 108.7365 
L 241.514848 106.416872 
L 267.293236 80.343297 
L 264.575176 77.284198 
L 233.946758 101.479162 
L 231.909743 99.458099 
L 245.760991 79.831673 
L 243.03749 77.449847 
L 220.989238 99.384275 
L 218.892762 97.771661 
L 214.932234 98.830022 
L 212.821326 97.408127 
L 240.314736 47.216587 
L 236.568438 45.02213 
L 228.703356 50.67766 
L 225.071623 48.846579 
L 223.648104 42.058467 
L 219.747864 40.390595 
L 203.321081 72.303013 
L 200.381846 71.259313 
L 194.881617 78.662396 
L 192.146508 77.880908 
L 203.748671 16.166721 
L 199.044177 15.137332 
L 188.861911 46.33033 
L 185.113187 45.7541 
L 179.762854 60.288853 
L 176.457515 59.991816 
L 172.470934 75.654463 
L 169.652329 75.579103 
L 166.102913 39.892567 
L 162.163025 40.035114 
L 161.796258 83.00152 
L 159.213939 83.258163 
L 147.969467 24.718863 
L 143.561449 25.439067 
L 148.238565 68.988926 
L 145.222362 69.67878 
L 136.473093 49.826523 
L 132.860199 50.895784 
L 126.413771 43.83463 
L 122.617453 45.223141 
L 136.69586 89.159237 
L 134.319563 90.202047 
L 129.155059 85.632933 
L 126.671616 86.914586 
L 116.691492 75.217132 
L 113.886715 76.895816 
L 85.665102 40.330146 
L 81.778743 43.001617 
L 81.337085 50.21784 
L 77.763756 53.020505 
L 79.466312 61.939879 
L 76.262474 64.795569 
L 98.139513 93.256184 
L 95.911096 95.509264 
L 70.160664 76.600631 
L 67.422394 79.741662 
L 78.469187 93.805389 
L 76.267765 96.676675 
L 59.818605 89.659182 
L 57.496038 93.118934 
L 40.346844 87.61437 
L 37.969611 91.687368 
L 36.425023 96.200322 
L 34.31969 100.392385 
L 89.629869 130.109299 
L 88.564403 132.61172 
L 88.322065 135.42248 
L 87.424303 137.963393 
L 69.891243 135.498294 
L 69.004977 138.618676 
L 18.765849 130.209306 
L 17.738564 134.939797 
L 19.990522 140.226814 
L 19.277604 144.913846 
L 75.536717 155.539256 
L 75.277792 158.472222 
L 79.075376 161.574032 
L 79.004448 164.392752 
L 29.837383 168.295196 
L 30.002128 172.658743 
L 87.229846 172.169849 
L 87.488041 174.726935 
L 15.62086 188.025225 
L 16.41299 192.826016 
L 70.896054 186.148758 
L 71.601854 189.212503 
L 60.179913 195.682876 
L 61.190784 199.078846 
L 66.801912 200.869408 
L 67.972585 204.054604 
L 29.035153 224.17165 
L 30.957173 228.532794 
L 52.191031 223.276362 
L 54.073452 226.909877 
L 42.337937 238.438963 
L 44.701975 242.374785 
L 66.994603 233.028513 
L 69.176333 236.19175 
L 87.868353 226.783524 
L 89.843407 229.293532 
L 95.494953 228.622939 
L 97.524071 230.892241 
L 56.613826 275.368794 
L 60.13196 278.83749 
L 82.831605 260.929273 
L 85.882766 263.580765 
L 103.274059 248.073318 
L 105.910894 250.088411 
L 101.385042 262.459412 
L 104.475141 264.526786 
L 87.556234 299.795367 
L 91.827094 302.279089 
L 97.638411 301.811367 
L 101.967674 303.977087 
L 106.362892 306.005615 
L 110.819717 307.894944 
L 120.282046 296.244847 
L 124.42509 297.701354 
L 132.708268 285.343989 
L 136.502421 286.415177 
L 145.529485 264.950663 
L 148.676088 265.628808 
L 152.103279 264.64227 
L 155.236936 265.113873 
L 154.336007 304.954452 
L 158.736063 305.335922 
L 164.424467 273.070674 
L 167.817039 273.150704 
L 172.033833 308.028115 
L 176.521781 307.851606 
L 176.410035 254.568558 
L 179.214933 254.280884 
L 190.984096 313.539267 
L 195.635958 312.764196 
L 197.58638 299.432273 
L 201.791422 298.456586 
L 192.381102 249.239559 
L 195.010549 248.452354 
L 208.140672 277.526211 
L 211.651721 276.229505 
L 215.120263 274.823045 
L 218.542867 273.308223 
L 214.816056 257.493484 
L 217.693932 255.996795 
L 229.698182 270.18689 
L 232.967808 268.215997 
L 217.200898 237.784461 
L 219.457899 236.222531 
L 250.573346 272.418637 
L 253.902822 269.79028 
L 228.521298 234.116811 
L 230.657383 232.200757 
L 278.414528 276.55193 
L 281.860198 273.046142 
L 268.63151 254.624293 
L 271.392564 251.436946 
L 267.192553 242.766831 
L 269.581494 239.63059 
L 271.870644 236.420787 
L 274.057739 233.140595 
L 295.186848 241.233314 
L 297.513731 237.21763 
L 251.803269 208.309997 
L 253.11642 205.674666 
L 294.281943 220.599672 
L 295.960507 216.622642 
L 317.62238 219.985644 
L 319.270096 215.275043 
L 256.124924 191.272533 
L 256.900243 188.509744 
L 290.837731 193.383658 
L 291.662267 189.528378 
L 288.450627 185.003179 
L 289.012842 181.227099 
L 317.877369 180.304984 
L 318.277313 175.605985 
L 312.185868 170.657239 
L 312.28528 166.141963 
L 303.516984 161.84536 
L 303.343617 157.60701 
L 302.246651 153.445986 
L 301.809818 149.251731 
L 262.802163 150.920049 
L 262.305411 147.967264 
L 304.364262 135.76997 
L 303.370609 131.517872 
L 261.025302 139.006177 
L 260.15483 136.115151 
L 249.467692 136.689407 
L 248.53009 134.162923 
L 272.336054 121.098366 
L 270.896929 117.860559 
L 301.97501 98.288077 
L 299.804025 94.129635 
L 261.182034 111.240705 
L 259.438478 108.358479 
L 295.816297 79.880964 
L 293.069597 75.925266 
L 242.971472 108.26803 
L 241.143451 105.959854 
L 266.757342 79.724663 
L 264.020095 76.682719 
L 233.544456 101.069841 
L 231.494769 99.061629 
L 245.222305 79.348475 
L 242.483877 76.983826 
L 220.574017 99.056491 
L 218.467439 97.457094 
L 214.513646 98.540343 
L 212.393837 97.131753 
L 239.571027 46.768288 
L 235.811001 44.597436 
L 227.981645 50.302321 
L 224.338467 48.494118 
L 222.872283 41.715093 
L 218.96163 40.071785 
L 202.735883 72.086886 
L 199.790142 71.061694 
L 194.336583 78.499223 
L 191.596613 77.734953 
L 202.8104 15.949016 
L 198.099524 14.949236 
L 188.113646 46.205657 
L 184.361372 45.653016 
L 179.10256 60.221132 
L 175.795418 59.94489 
L 171.907424 75.6323 
L 169.088401 75.574669 
L 165.314608 39.911163 
L 161.375694 40.078486 
L 161.279169 83.04635 
L 158.698515 83.319229 
L 147.086086 24.851809 
L 142.682686 25.599722 
L 147.633613 69.119303 
L 144.621808 69.828114 
L 135.747853 50.031277 
L 132.141756 51.12324 
L 125.651045 44.10277 
L 121.863534 45.51513 
L 136.217996 89.361812 
L 133.848305 90.419547 
L 128.655166 85.883006 
L 126.179832 87.180252 
L 116.126335 75.545799 
L 113.332172 77.242091 
L 84.88114 40.854642 
L 81.01166 43.550503 
L 80.615396 50.769361 
L 77.059765 53.594444 
L 78.818385 62.502935 
L 75.632572 65.378718 
L 97.688179 93.701176 
L 95.473977 95.968227 
L 69.605129 77.221923 
L 66.886668 80.380115 
L 78.021697 94.374085 
L 75.838376 97.25916 
L 59.345406 90.345262 
L 57.044644 93.819553 
L 39.861169 88.422957 
L 37.5096 92.510825 
L 35.993427 97.033405 
L 33.914501 101.238626 
L 89.410489 130.607083 
L 88.360782 133.116155 
L 88.136127 135.928384 
L 87.254364 138.474894 
L 69.706146 136.120116 
L 68.839524 139.24601 
L 18.548499 131.152782 
L 17.550986 135.889641 
L 19.836152 141.16239 
L 19.152727 145.853813 
L 75.477555 156.125174 
L 75.237082 159.059712 
L 79.054099 162.137575 
L 79.000901 164.956685 
L 29.859353 169.168285 
L 30.051538 173.53071 
L 87.275049 172.681895 
L 87.549323 175.237308 
L 15.767202 188.987338 
L 16.58951 193.783052 
L 71.029501 186.763258 
L 71.754555 189.822504 
L 60.373536 196.364586 
L 61.405745 199.754132 
L 67.028024 201.509368 
L 68.218707 204.687138 
L 29.40857 225.04868 
L 31.357981 229.397649 
L 52.558359 224.007772 
L 54.463596 227.629376 
L 42.800824 239.232044 
L 45.189569 243.152919 
L 67.422973 233.666624 
L 69.624556 236.816077 
L 88.257033 227.290474 
L 90.247835 229.788011 
L 95.895051 229.081886 
L 97.938402 231.338381 
L 57.308698 276.071356 
L 60.848579 279.517858 
L 83.435142 261.467227 
L 86.50292 264.099476 
L 103.796336 248.482954 
L 106.445792 250.481423 
L 101.997837 262.880644 
L 105.100877 264.928543 
L 88.404123 300.302836 
L 92.690521 302.759648 
L 98.498781 302.255385 
L 102.84158 304.393834 
L 107.249468 306.394678 
L 111.718089 308.255939 
L 121.106958 296.54656 
L 125.25908 297.976981 
L 133.464374 285.567763 
L 137.265189 286.615068 
L 146.157075 265.094203 
L 149.307881 265.752544 
L 152.728799 264.744471 
L 155.86536 265.196355 
L 155.215024 305.041813 
L 159.617392 305.395601 
L 165.102753 273.095214 
L 168.495761 273.153906 
L 172.931831 308.004105 
L 177.418581 307.799373 
L 176.971716 254.518082 
L 179.77475 254.212772 
L 191.916382 313.395962 
L 196.563276 312.591649 
L 198.42981 299.247722 
L 202.628632 298.245608 
L 192.908951 249.08874 
L 195.533395 248.285013 
L 208.846116 277.275713 
L 212.34894 275.956951 
L 215.808568 274.528703 
L 219.221577 272.992384 
L 215.395374 257.201398 
L 218.263779 255.686638 
L 230.357039 269.800953 
L 233.614205 267.809535 
L 217.65621 237.477766 
L 219.903343 235.901672 
L 251.245828 271.901363 
L 254.558707 269.252118 
L 228.953318 233.73899 
L 231.077311 231.809538 
L 279.112454 275.859469 
L 282.536007 272.332079 
L 269.191717 253.993795 
L 271.93267 250.789146 
L 267.678213 242.145618 
L 270.047381 238.994414 
L 272.316298 235.770277 
L 274.482719 232.476394 
L 295.662309 240.436063 
L 297.96389 236.405823 
L 252.072518 207.786255 
L 253.369069 205.142717 
L 294.627648 219.80852 
L 296.281165 215.821012 
L 317.963761 219.047706 
L 319.581818 214.326835 
L 256.286932 190.721948 
L 257.04486 187.954337 
L 291.012331 192.614707 
L 291.812602 188.754317 
L 288.572565 184.249407 
L 289.11102 180.469865 
L 317.969177 179.366228 
L 318.339559 174.664806 
L 312.217109 169.754469 
L 303.55967 165.238658 
z
" clip-path="url(#p5b67c46de9)" style="fill: #0000ff; opacity: 0.5; stroke: #000000; stroke-width: 1.5; stroke-linejoin: miter"/>
   </g>
  </g>
 </g>
 <defs>
  <clipPath id="p5b67c46de9">
   <rect x="0" y="-0" width="334.8" height="328.883198"/>
  </clipPath>
 </defs>
</svg>
