<?xml version="1.0" encoding="utf-8" standalone="no"?>
<!DOCTYPE svg PUBLIC "-//W3C//DTD SVG 1.1//EN"
  "http://www.w3.org/Graphics/SVG/1.1/DTD/svg11.dtd">
<svg xmlns:xlink="http://www.w3.org/1999/xlink" width="334.8pt" height="327.831555pt" viewBox="0 0 334.8 327.831555" xmlns="http://www.w3.org/2000/svg" version="1.1">
 <metadata>
  <rdf:RDF xmlns:dc="http://purl.org/dc/elements/1.1/" xmlns:cc="http://creativecommons.org/ns#" xmlns:rdf="http://www.w3.org/1999/02/22-rdf-syntax-ns#">
   <cc:Work>
    <dc:type rdf:resource="http://purl.org/dc/dcmitype/StillImage"/>
    <dc:date>2023-12-09T18:06:17.048352</dc:date>
    <dc:format>image/svg+xml</dc:format>
    <dc:creator>
     <cc:Agent>
      <dc:title>Matplotlib v3.8.2, https://matplotlib.org/</dc:title>
     </cc:Agent>
    </dc:creator>
   </cc:Work>
  </rdf:RDF>
 </metadata>
 <defs>
  <style type="text/css">*{stroke-linejoin: round; stroke-linecap: butt}</style>
 </defs>
 <g id="figure_1">
  <g id="patch_1">
   <path d="M 0 327.831555 
L 334.8 327.831555 
L 334.8 0 
L 0 0 
L 0 327.831555 
z
" style="fill: none"/>
  </g>
  <g id="axes_1">
   <g id="patch_2">
    <path d="M 269.930175 168.247857 
L 269.880284 165.075125 
L 314.137039 159.108914 
L 313.777942 154.55074 
L 318.00529 149.40802 
L 317.339263 144.733016 
L 289.211159 145.2973 
L 288.430119 141.529679 
L 297.534897 135.217232 
L 296.432802 131.192879 
L 318.627609 119.586464 
L 317.023619 114.906637 
L 278.341475 124.918017 
L 276.92504 121.502239 
L 308.465515 102.556348 
L 306.331086 98.20446 
L 239.326388 129.552351 
L 238.074956 127.361001 
L 248.155663 117.966101 
L 246.535569 115.502868 
L 293.669142 77.567546 
L 290.756326 73.693244 
L 230.208799 117.559499 
L 228.584794 115.660756 
L 254.683598 87.685769 
L 252.108197 85.032255 
L 258.688907 72.607136 
L 255.63742 69.835142 
L 247.946996 72.674321 
L 244.902933 70.240042 
L 231.52274 82.053923 
L 228.781712 80.131421 
L 242.984056 51.44477 
L 239.274943 49.177033 
L 223.653466 68.623853 
L 220.494058 66.955419 
L 219.308666 61.071314 
L 215.913938 59.543225 
L 214.514095 52.948959 
L 210.866353 51.575637 
L 214.759098 26.882846 
L 210.29166 25.514708 
L 196.544249 60.470209 
L 193.141877 59.65818 
L 184.246971 87.838459 
L 181.711196 87.399551 
L 182.313022 61.811149 
L 178.959848 61.445917 
L 177.593248 28.671305 
L 173.200418 28.470859 
L 168.78222 14.901434 
L 163.960791 14.984834 
L 159.55386 21.562922 
L 154.946446 21.933188 
L 151.967689 35.057844 
L 147.788336 35.659964 
L 143.329468 34.832783 
L 139.147309 35.706619 
L 148.526552 89.018367 
L 146.045537 89.702004 
L 122.843247 27.027372 
L 118.425798 28.549198 
L 124.639872 56.78346 
L 121.157131 58.234084 
L 128.933334 83.495443 
L 126.288354 84.797864 
L 122.917198 84.791873 
L 120.315955 86.282814 
L 117.762876 87.854807 
L 115.260487 89.506296 
L 102.974149 77.758514 
L 100.161622 79.879986 
L 100.46426 85.755181 
L 97.904407 87.951616 
L 92.143394 86.759878 
L 89.619245 89.217442 
L 106.329933 109.65617 
L 104.518679 111.656358 
L 69.645148 86.44483 
L 67.122217 89.609944 
L 94.322713 114.261287 
L 92.662191 116.636731 
L 74.278438 108.463071 
L 72.445518 111.471617 
L 60.249032 108.822313 
L 58.434344 112.271797 
L 49.530658 112.413093 
L 47.834171 116.197811 
L 75.100094 131.361351 
L 73.986739 134.332741 
L 74.480055 137.824443 
L 73.570221 140.812134 
L 64.283143 141.677914 
L 63.499512 144.984312 
L 58.134798 147.434267 
L 57.5352 150.931137 
L 16.040006 149.39061 
L 15.522732 154.210065 
L 88.124672 163.408401 
L 88.012507 165.954425 
L 60.171617 168.590168 
L 60.236199 172.012536 
L 74.678938 174.487386 
L 74.921769 177.450696 
L 46.891563 184.082667 
L 47.44983 187.914929 
L 43.448507 192.636641 
L 44.277432 196.57293 
L 26.0071 205.486389 
L 27.248672 209.964721 
L 47.500452 208.198314 
L 48.816666 211.999507 
L 76.80937 205.134176 
L 78.01475 208.015348 
L 87.204887 207.107573 
L 88.467175 209.660911 
L 34.220198 242.998169 
L 36.637162 247.199716 
L 59.932394 238.048267 
L 62.181009 241.443814 
L 62.612183 246.175308 
L 65.115006 249.482578 
L 97.012942 228.28687 
L 98.936304 230.52135 
L 67.458861 264.37129 
L 70.531409 267.517174 
L 69.910135 274.634322 
L 73.304163 277.698057 
L 83.848728 272.054219 
L 87.15474 274.680971 
L 85.897825 283.649494 
L 89.567405 286.206085 
L 113.617084 256.360487 
L 116.414932 258.059016 
L 95.335126 303.6345 
L 99.628412 305.88448 
L 103.319876 309.439084 
L 107.791724 311.435135 
L 128.813178 271.10909 
L 132.067242 272.322528 
L 141.654991 253.758123 
L 144.357153 254.576365 
L 145.724614 260.702424 
L 148.643107 261.389275 
L 142.570269 310.414374 
L 147.053375 311.175825 
L 153.861301 292.866523 
L 157.787081 293.281636 
L 160.661407 311.816658 
L 165.179659 312.008591 
L 169.428113 254.057442 
L 172.125954 254.002288 
L 175.786959 268.131416 
L 178.924173 267.869367 
L 179.983619 251.753101 
L 182.603787 251.367199 
L 184.59969 247.780188 
L 187.092659 247.25111 
L 199.839972 285.841936 
L 203.522151 284.814852 
L 204.926281 276.882815 
L 208.324251 275.700236 
L 203.092104 253.031243 
L 205.741034 251.918127 
L 219.639749 274.388845 
L 222.952028 272.744875 
L 229.302203 276.551611 
L 232.677707 274.602763 
L 243.287943 283.914868 
L 246.888049 281.522637 
L 232.063615 254.047001 
L 234.730159 252.022455 
L 238.861021 251.743439 
L 241.451775 249.506306 
L 251.082721 254.679569 
L 253.759751 252.056708 
L 256.352989 249.350972 
L 258.859871 246.565037 
L 274.808588 254.768215 
L 277.476675 251.399317 
L 243.247934 221.535873 
L 244.886727 219.175742 
L 293.580081 246.297577 
L 295.972551 242.34265 
L 263.316203 219.377536 
L 264.877211 216.387482 
L 241.112297 201.656722 
L 242.127102 199.373569 
L 314.154048 224.718945 
L 315.857866 220.127797 
L 305.30276 211.629225 
L 306.599385 207.322852 
L 279.241882 195.838899 
L 280.05491 192.359745 
L 318.263532 195.774417 
L 319.055239 191.068368 
L 317.331959 186.055588 
L 317.818545 181.383635 
L 292.773372 175.260253 
L 292.932672 171.365813 
L 269.928179 167.61321 
L 269.858335 164.440855 
L 314.07669 158.196412 
L 313.688932 153.640586 
L 317.883851 148.47138 
L 317.188434 143.800658 
L 289.064436 144.541841 
L 288.259715 140.779207 
L 297.324611 134.409621 
L 296.197227 130.392278 
L 318.318597 118.6465 
L 316.685206 113.976854 
L 278.066793 124.231325 
L 276.628903 120.824523 
L 308.049595 101.680635 
L 305.887837 97.342258 
L 239.081624 129.11095 
L 237.816435 126.927514 
L 247.837854 117.469398 
L 246.2023 115.016403 
L 293.096349 76.785388 
L 290.159223 72.929483 
L 229.888788 117.17568 
L 228.252873 115.287188 
L 254.175214 87.148608 
L 251.583174 84.511344 
L 258.085608 72.045082 
L 255.016747 69.292335 
L 247.344332 72.179826 
L 244.285019 69.764741 
L 230.979393 81.662541 
L 228.226328 79.757318 
L 242.247968 50.981909 
L 238.524666 48.737545 
L 223.025807 68.282231 
L 219.855968 66.633701 
L 218.633592 60.757168 
L 215.22932 59.250459 
L 213.78803 52.665129 
L 210.131723 51.314776 
L 213.869088 26.59799 
L 209.393133 25.257977 
L 195.865844 60.29925 
L 192.458432 59.508635 
L 183.74094 87.744301 
L 181.202455 87.321351 
L 181.643333 61.729669 
L 178.287928 61.385535 
L 176.715221 28.620166 
L 172.321218 28.447352 
L 167.817762 14.905984 
L 162.996954 15.019706 
L 158.631482 21.625381 
L 154.026489 22.024618 
L 151.130336 35.167748 
L 146.954853 35.796142 
L 142.490871 34.997022 
L 138.314291 35.897144 
L 148.028649 89.148847 
L 145.551983 89.848075 
L 121.955963 27.320611 
L 117.548174 28.870191 
L 123.939702 57.064811 
L 120.466154 58.537312 
L 128.401083 83.749263 
L 125.764347 85.068294 
L 122.393219 85.083505 
L 119.801404 86.590777 
L 117.258264 88.178796 
L 114.766311 89.845992 
L 102.406329 78.175716 
L 99.6072 80.314834 
L 99.946784 86.188011 
L 97.400796 88.400502 
L 91.632401 87.245021 
L 89.123759 89.718411 
L 105.962664 110.051635 
L 104.164026 112.063175 
L 69.132619 87.071481 
L 66.629645 90.2524 
L 93.984646 114.732179 
L 92.339097 117.11802 
L 73.9043 109.060145 
L 72.090338 112.08016 
L 59.87743 109.507617 
L 58.084473 112.968446 
L 49.181852 113.165739 
L 47.509203 116.961052 
L 74.869956 131.952805 
L 73.775312 134.931139 
L 74.290579 138.419669 
L 73.399554 141.413022 
L 64.118105 142.337196 
L 63.355285 145.648457 
L 58.006086 148.132105 
L 57.428493 151.632676 
L 15.92443 150.353161 
L 15.437478 155.175774 
L 88.095834 163.917303 
L 87.999685 166.463982 
L 60.175923 169.274777 
L 60.262029 172.696671 
L 74.720047 175.080635 
L 74.981511 178.042359 
L 46.993571 184.850494 
L 47.575929 188.679168 
L 43.604383 193.425953 
L 44.458048 197.356951 
L 26.244137 206.385144 
L 27.513851 210.855578 
L 47.754121 208.961834 
L 49.094217 212.754674 
L 77.043188 205.71342 
L 78.266665 208.586954 
L 87.450911 207.621396 
L 88.729233 210.166745 
L 34.693001 243.844525 
L 37.136342 248.030788 
L 60.373556 238.733006 
L 62.643483 242.114344 
L 63.104407 246.843033 
L 65.627981 250.134496 
L 97.391978 228.738587 
L 99.329356 230.960926 
L 68.065432 265.008172 
L 71.157704 268.134669 
L 70.581206 275.255583 
L 73.994436 278.297912 
L 84.503296 272.587866 
L 87.825764 275.193773 
L 86.62528 284.170024 
L 90.310867 286.703484 
L 114.172358 256.707219 
L 116.980834 258.388117 
L 96.188089 304.095279 
L 100.495441 306.318212 
L 104.209189 309.849529 
L 108.693501 311.817416 
L 129.460912 271.359955 
L 132.722543 272.552903 
L 142.193343 253.928563 
L 144.900598 254.729794 
L 146.306561 260.847131 
L 149.229317 261.515612 
L 143.464939 310.577937 
L 147.952746 311.311177 
L 154.645381 292.959419 
L 158.573695 293.349833 
L 161.564538 311.86641 
L 166.083908 312.029922 
L 169.967799 254.053199 
L 172.66524 253.981078 
L 176.415036 268.086901 
L 179.55054 267.805126 
L 180.508602 251.682516 
L 183.126292 251.280141 
L 185.099595 247.680649 
L 187.589187 247.135902 
L 200.578963 285.645791 
L 204.254609 284.595568 
L 205.608824 276.654857 
L 208.999288 275.45093 
L 203.624669 252.815293 
L 206.266547 251.685539 
L 220.306314 274.068397 
L 223.608188 272.403627 
L 229.98218 276.170349 
L 233.34536 274.20031 
L 244.013955 283.445498 
L 247.598943 281.030672 
L 232.601996 253.648816 
L 235.255754 251.60754 
L 239.384779 251.302548 
L 241.961412 249.049165 
L 251.624705 254.161753 
L 254.285185 251.522107 
L 256.861355 248.800114 
L 259.350664 245.998467 
L 275.35066 254.101174 
L 277.997505 250.715562 
L 243.581617 221.067988 
L 245.205534 218.697597 
L 294.068506 245.512642 
L 296.436054 241.542746 
L 263.635914 218.783476 
L 265.178086 215.783663 
L 241.320994 201.202662 
L 242.32142 198.913172 
L 314.506349 223.805038 
L 316.181258 219.203265 
L 305.572909 210.771247 
L 306.842423 206.456804 
L 279.413234 195.145141 
L 280.204364 191.660942 
L 318.433707 194.835236 
L 319.1958 190.124301 
L 317.441026 185.122458 
L 317.898219 180.447538 
L 292.815028 174.481797 
L 292.949831 170.586432 
L 269.922192 166.978589 
L 269.832396 163.806735 
L 314.010603 157.284307 
L 313.594199 152.73101 
L 317.756524 147.535523 
L 317.031745 142.869267 
L 288.912964 143.787319 
L 288.084595 140.029821 
L 297.10925 133.603348 
L 295.956622 129.593175 
L 318.00368 117.708499 
L 316.340952 113.049218 
L 277.787797 123.546374 
L 276.328509 120.148683 
L 307.628175 100.807555 
L 305.439174 96.48286 
L 238.83409 128.671097 
L 237.555193 126.495662 
L 247.516927 116.974703 
L 245.865978 114.532044 
L 292.518648 76.006848 
L 289.557329 72.169492 
L 229.566369 116.793881 
L 227.918609 114.915715 
L 253.663461 86.614655 
L 251.054886 83.993745 
L 257.478785 71.486834 
L 254.392672 68.753442 
L 246.73857 71.689132 
L 243.664127 69.293336 
L 230.433595 81.274586 
L 227.668601 79.386715 
L 241.508984 50.523687 
L 237.771639 48.302785 
L 222.396012 67.944563 
L 219.215867 66.316002 
L 217.956555 60.447274 
L 214.542875 58.962006 
L 213.060195 52.38587 
L 209.395467 51.05854 
L 212.977303 26.318737 
L 208.493009 25.006902 
L 195.186378 60.132561 
L 191.77406 59.363393 
L 183.234327 87.653328 
L 180.693232 87.246352 
L 180.973144 61.652404 
L 177.615641 61.329379 
L 175.83689 28.57455 
L 171.441886 28.429376 
L 166.853353 14.916599 
L 162.033355 15.060639 
L 157.709516 21.693639 
L 153.107124 22.121831 
L 150.293692 35.282917 
L 146.122243 35.93756 
L 141.653323 35.166532 
L 137.482487 36.092904 
L 147.531576 89.282456 
L 145.059357 89.997247 
L 121.070542 27.619426 
L 116.672585 29.196697 
L 123.241315 57.350561 
L 119.777097 58.844879 
L 127.870438 84.006425 
L 125.24205 85.342014 
L 121.871084 85.378427 
L 119.288801 86.90197 
L 116.755698 88.505952 
L 114.274281 90.188788 
L 101.841144 78.59648 
L 99.055525 80.753162 
L 99.43204 86.624086 
L 96.900018 88.852546 
L 91.12447 87.733368 
L 88.631433 90.222488 
L 105.59789 110.449402 
L 103.81194 112.472214 
L 68.624042 87.701342 
L 66.141123 90.897941 
L 93.649547 115.205188 
L 92.019036 117.601331 
L 73.533924 109.659561 
L 71.738992 112.690925 
L 59.510146 110.195244 
L 57.738991 113.667282 
L 48.837787 113.920563 
L 47.189041 117.726321 
L 74.643543 132.545694 
L 73.567653 135.530854 
L 74.10485 139.016074 
L 73.232669 142.014972 
L 63.957216 142.997503 
L 63.215238 146.313497 
L 57.881765 148.830738 
L 57.3262 152.334873 
L 15.814911 151.316421 
L 15.3583 156.142001 
L 88.070198 164.426377 
L 87.990068 166.97361 
L 60.184534 169.959345 
L 60.29216 173.38063 
L 74.764886 175.673614 
L 75.044972 178.633635 
L 47.100405 185.617663 
L 47.706832 189.442599 
L 43.765219 194.214269 
L 44.643591 198.13982 
L 26.486823 207.28239 
L 27.784629 211.74475 
L 48.012588 209.723743 
L 49.376511 213.50808 
L 77.280644 206.291182 
L 78.52217 209.156964 
L 87.700161 208.133662 
L 88.994467 210.67092 
L 35.171118 244.687892 
L 37.64074 248.858705 
L 60.819017 239.414958 
L 63.110166 242.781952 
L 63.600821 247.507648 
L 66.145047 250.783175 
L 97.773847 229.187911 
L 99.725164 231.398021 
L 68.675996 265.641226 
L 71.787871 268.748212 
L 71.256171 275.872612 
L 74.688468 278.893413 
L 85.161207 273.117386 
L 88.499999 275.702344 
L 87.355995 284.685968 
L 91.057443 287.196198 
L 114.729802 257.050451 
L 117.548794 258.713652 
L 97.043933 304.550685 
L 101.365181 306.746483 
L 105.101065 310.254372 
L 109.597666 312.194016 
L 130.110211 271.606741 
L 133.379281 272.779151 
L 142.732757 254.095614 
L 145.444997 254.879802 
L 146.889407 260.988175 
L 149.81631 261.638261 
L 144.360621 310.735869 
L 148.85295 311.440869 
L 155.430031 293.047382 
L 159.360722 293.413081 
L 162.467965 311.910481 
L 166.988274 312.045565 
L 170.507447 254.045562 
L 173.204381 253.956477 
L 177.042821 268.038436 
L 180.176491 267.736947 
L 181.033132 251.60863 
L 183.648239 251.189799 
L 185.598864 247.577967 
L 188.084981 247.017573 
L 201.316705 285.445002 
L 204.985673 284.371683 
L 206.289919 276.422611 
L 209.672744 275.197383 
L 204.155866 252.595997 
L 206.790586 251.44965 
L 220.970851 273.743763 
L 224.262189 272.058259 
L 230.659745 275.784818 
L 234.010468 273.793665 
L 244.736999 282.971571 
L 248.306729 280.534245 
L 233.137862 253.247254 
L 235.778729 251.189326 
L 239.905755 250.858371 
L 242.468164 248.588828 
L 252.163421 253.640538 
L 254.807247 250.984211 
L 257.366245 248.24607 
L 259.837885 245.428822 
L 275.888526 253.430738 
L 278.514025 250.028545 
L 243.912351 220.598014 
L 245.521328 218.217456 
L 294.551985 244.724651 
L 296.894518 240.739943 
L 263.951884 218.187417 
L 265.475157 215.177964 
L 241.526831 200.747299 
L 242.512837 198.451562 
L 314.852895 222.888934 
L 316.498828 218.276717 
L 305.837656 209.911586 
L 307.08001 205.589245 
L 279.580219 194.45032 
L 280.34942 190.961214 
L 318.597971 193.895004 
L 319.33042 189.179369 
L 317.544223 184.188661 
L 317.972003 179.510958 
L 292.851788 173.703094 
L 292.962088 169.806959 
L 269.912213 166.344017 
L 269.80247 163.172791 
L 313.938781 156.372636 
L 313.493747 151.822049 
L 317.623313 146.600486 
L 316.869201 141.93888 
L 288.75675 143.033765 
L 287.904764 139.281551 
L 296.888823 132.798445 
L 295.710995 128.795601 
L 317.682869 116.772496 
L 315.99087 112.123766 
L 277.504499 122.863191 
L 276.02387 119.474745 
L 307.201273 99.937143 
L 304.985115 95.626301 
L 238.583794 128.23281 
L 237.29124 126.065461 
L 247.192896 116.482037 
L 245.526616 114.049809 
L 291.936062 75.231957 
L 288.950666 71.413302 
L 229.241555 116.414117 
L 227.582015 114.546352 
L 253.148361 86.083931 
L 250.523353 83.47948 
L 256.868464 70.932413 
L 253.76522 68.218485 
L 246.129733 71.202257 
L 243.040283 68.825845 
L 229.885367 80.89007 
L 227.108555 79.019627 
L 240.767132 50.070121 
L 237.015892 47.87277 
L 221.764105 67.610863 
L 218.573781 66.002335 
L 217.277583 60.141644 
L 213.854628 58.677875 
L 212.330618 52.111195 
L 208.657614 50.806941 
L 212.08378 26.045099 
L 207.591324 24.761493 
L 194.505877 59.970148 
L 191.088789 59.222457 
L 182.727152 87.565543 
L 180.183548 87.174557 
L 180.302483 61.579354 
L 176.943015 61.277453 
L 174.958289 28.534459 
L 170.56246 28.41693 
L 165.889029 14.93328 
L 161.070032 15.107632 
L 156.787996 21.767696 
L 152.188389 22.224825 
L 149.457788 35.403346 
L 145.290539 36.084212 
L 140.816859 35.341306 
L 136.651931 36.293892 
L 147.035354 89.419189 
L 144.567679 90.149515 
L 120.187017 27.923803 
L 115.799068 29.528704 
L 122.544739 57.640697 
L 119.089988 59.156774 
L 127.341421 84.26692 
L 124.721485 85.619013 
L 121.350815 85.676627 
L 118.778165 87.216381 
L 116.255201 88.836263 
L 113.784416 90.534673 
L 101.278616 79.020791 
L 98.506616 81.19495 
L 98.920049 87.06339 
L 96.402093 89.307731 
L 90.61962 88.2249 
L 88.142288 90.72965 
L 105.235625 110.849455 
L 103.462432 112.88346 
L 68.119435 88.33439 
L 65.656671 91.546541 
L 93.317429 115.680296 
L 91.702021 118.086647 
L 73.167326 110.261294 
L 71.391495 113.303887 
L 59.147194 110.885169 
L 57.397911 114.368277 
L 48.498476 114.677537 
L 46.873699 118.493589 
L 74.420863 133.139996 
L 73.363769 136.131863 
L 73.922876 139.613636 
L 73.069574 142.61796 
L 63.800484 143.658809 
L 63.079376 146.979403 
L 57.761841 149.53014 
L 57.228325 153.0377 
L 15.711452 152.28035 
L 15.2852 157.108706 
L 88.047764 164.935602 
L 87.983656 167.483289 
L 60.197451 170.643846 
L 60.326593 174.064386 
L 74.813454 176.2663 
L 75.112152 179.2245 
L 47.212063 186.384146 
L 47.842535 190.205192 
L 43.931011 195.001558 
L 44.834055 198.921507 
L 26.735148 208.178091 
L 28.060993 212.632201 
L 48.275841 210.484012 
L 49.663539 214.259695 
L 77.52173 206.86744 
L 78.781255 209.725356 
L 87.952629 208.64435 
L 89.262867 211.173417 
L 35.65453 245.528235 
L 38.150336 249.683433 
L 61.268758 240.094094 
L 63.581038 243.446611 
L 64.101406 248.169128 
L 66.666182 251.428588 
L 98.158535 229.634825 
L 100.123713 231.832618 
L 69.29053 266.270428 
L 72.421885 269.357781 
L 71.935004 276.485384 
L 75.386232 279.484538 
L 85.822436 273.642757 
L 89.177419 276.206665 
L 88.08994 285.197307 
L 91.807102 287.684207 
L 115.289394 257.39017 
L 118.118791 259.035608 
L 97.902624 305.000698 
L 102.237597 307.169275 
L 105.99547 310.653598 
L 110.504181 312.564923 
L 130.76105 271.849438 
L 134.037428 273.001264 
L 143.273211 254.259269 
L 145.99033 255.026383 
L 147.473129 261.125551 
L 150.404063 261.757215 
L 145.257277 310.888166 
L 149.753952 311.564897 
L 156.215218 293.130408 
L 160.148131 293.471378 
L 163.371651 311.948869 
L 167.89272 312.055521 
L 171.047037 254.034531 
L 173.743357 253.928486 
L 177.670289 267.986025 
L 180.802 267.664832 
L 181.557186 251.531446 
L 184.169608 251.096177 
L 186.097478 247.472147 
L 188.580021 246.896128 
L 202.05317 285.239577 
L 205.715315 284.143203 
L 206.969539 276.186086 
L 210.344592 274.939606 
L 204.685673 252.373365 
L 207.313131 251.21047 
L 221.633333 273.414956 
L 224.914005 271.708785 
L 231.334873 275.395033 
L 234.673006 273.382845 
L 245.457049 282.493106 
L 249.011379 280.033377 
L 233.671192 252.842328 
L 236.299064 250.767832 
L 240.423926 250.410927 
L 242.97201 248.125313 
L 252.698848 253.115945 
L 255.325915 250.443042 
L 257.867641 247.688861 
L 260.321513 244.856123 
L 276.422164 252.756931 
L 279.026214 249.338293 
L 244.240123 220.125969 
L 245.834095 217.735339 
L 295.030497 243.933634 
L 297.347923 239.934272 
L 264.264098 217.589383 
L 265.768414 214.570409 
L 241.7298 200.290651 
L 242.701348 197.988757 
L 315.193672 221.970668 
L 316.810564 217.34819 
L 306.096991 209.050278 
L 307.312136 204.720208 
L 279.742831 193.754461 
L 280.490072 190.260586 
L 318.756319 192.953757 
L 319.459095 188.233609 
L 317.641544 183.254234 
L 318.039896 178.573932 
L 292.883649 172.924175 
L 292.969443 169.027423 
L 269.898244 165.709521 
L 269.768558 162.539048 
L 313.861226 155.461435 
L 313.387581 150.913736 
L 317.484225 145.666304 
L 316.700808 141.009533 
L 288.5958 142.281209 
L 287.720231 138.534427 
L 296.663337 131.994945 
L 295.460357 127.999588 
L 317.356178 115.83853 
L 315.634974 111.200533 
L 277.21691 122.181804 
L 275.714998 118.802737 
L 306.768904 99.069433 
L 304.525677 94.772615 
L 238.330746 127.796105 
L 237.024587 125.636929 
L 246.865772 115.991419 
L 245.184228 113.569719 
L 291.348613 74.460746 
L 288.33926 70.660942 
L 228.914359 116.036404 
L 227.243105 114.179114 
L 252.629932 85.556457 
L 249.988596 82.968568 
L 256.254667 70.381842 
L 253.134416 67.687485 
L 245.517846 70.719221 
L 242.413511 68.362287 
L 229.334733 80.50901 
L 226.546211 78.656068 
L 240.022442 49.621231 
L 236.257457 47.447516 
L 221.130112 67.281144 
L 217.929735 65.692713 
L 216.596702 59.84029 
L 213.164609 58.398079 
L 211.599327 51.841114 
L 207.918193 50.559986 
L 211.188554 25.777086 
L 206.688113 24.52176 
L 193.824367 59.812019 
L 190.402644 59.085834 
L 182.219435 87.48095 
L 179.673422 87.105969 
L 179.631375 61.510525 
L 176.270075 61.229759 
L 174.079454 28.499895 
L 169.682972 28.410015 
L 164.924829 14.956025 
L 160.107025 15.160683 
L 155.866961 21.847546 
L 151.27032 22.333596 
L 148.622658 35.52903 
L 144.459774 36.236092 
L 139.98151 35.521337 
L 135.822656 36.5001 
L 146.540001 89.55904 
L 144.076968 90.304871 
L 119.305424 28.233731 
L 114.927655 29.866198 
L 121.850002 57.935209 
L 118.404855 59.472984 
L 126.814053 84.530736 
L 124.202673 85.899281 
L 120.832432 85.978093 
L 118.269517 87.533997 
L 115.756791 89.169716 
L 113.296737 90.883631 
L 100.718768 79.448632 
L 97.960498 81.640182 
L 98.410832 87.505906 
L 95.907041 89.766039 
L 90.117872 88.719598 
L 87.656342 91.23988 
L 104.875883 111.251779 
L 103.115518 113.296896 
L 67.618821 88.970599 
L 65.176307 92.198176 
L 92.988306 116.157483 
L 91.388065 118.573946 
L 72.804519 110.865321 
L 71.047859 113.919022 
L 58.788589 111.577362 
L 57.061247 115.071403 
L 48.163933 115.436629 
L 46.563189 119.262825 
L 74.201926 133.735686 
L 73.16367 136.734143 
L 73.744664 140.21233 
L 72.910274 143.221962 
L 63.647914 144.321087 
L 62.947705 147.646152 
L 57.646317 150.230282 
L 57.134873 153.741128 
L 15.614058 153.24491 
L 15.218182 158.075852 
L 88.028534 165.444958 
L 87.98045 167.992998 
L 60.214673 171.328252 
L 60.365326 174.747911 
L 74.865749 176.858668 
L 75.183046 179.814931 
L 47.328539 187.149911 
L 47.983031 190.966917 
L 44.101751 195.787789 
L 45.029431 199.701981 
L 26.9891 209.072214 
L 28.342933 213.517897 
L 48.543871 211.24261 
L 49.955288 215.009491 
L 77.766435 207.442169 
L 79.04391 210.292107 
L 88.208303 209.15344 
L 89.534422 211.674217 
L 36.143218 246.36552 
L 38.665108 250.504939 
L 61.722761 240.770388 
L 64.056081 244.108296 
L 64.60614 248.827447 
L 67.191366 252.070712 
L 98.546026 230.07931 
L 100.524988 232.2647 
L 69.909009 266.895752 
L 73.05972 269.963349 
L 72.617677 277.093873 
L 76.087699 280.071262 
L 86.486956 274.163959 
L 89.857998 276.706715 
L 88.827086 285.704019 
L 92.559817 288.167491 
L 115.851111 257.726363 
L 118.690801 259.353973 
L 98.764128 305.445303 
L 103.112655 307.586572 
L 106.892368 311.047191 
L 111.413011 312.930121 
L 131.413402 272.088037 
L 134.69696 273.219234 
L 143.814683 254.419521 
L 146.536573 255.169531 
L 148.057704 261.259252 
L 150.992552 261.87247 
L 146.154874 311.034819 
L 150.655716 311.683256 
L 157.000912 293.208493 
L 160.935892 293.524721 
L 164.275561 311.981573 
L 168.797212 312.059787 
L 171.586546 254.020106 
L 174.282146 253.897105 
L 178.297414 267.929668 
L 181.427043 267.588785 
L 182.080745 251.450968 
L 184.690377 250.999277 
L 186.595416 247.363194 
L 189.074287 246.771572 
L 202.788328 285.029524 
L 206.443505 283.910139 
L 207.647659 275.945291 
L 211.014806 274.677609 
L 205.21407 252.147406 
L 207.834162 250.968008 
L 222.293734 273.081989 
L 225.56361 271.355218 
L 232.007536 275.00101 
L 235.332947 272.967867 
L 246.174075 282.010122 
L 249.712864 279.528086 
L 234.201964 252.434057 
L 236.816737 250.343074 
L 240.939273 249.960233 
L 243.472932 247.658637 
L 253.230965 252.587995 
L 255.841169 249.898622 
L 258.365523 247.128509 
L 260.80153 244.280394 
L 276.951554 252.079782 
L 279.534051 248.644834 
L 244.564919 219.651872 
L 246.143824 217.251264 
L 295.504026 243.139623 
L 297.796251 239.125765 
L 264.572544 216.989396 
L 266.057843 213.961021 
L 241.929893 199.832734 
L 242.886944 197.524776 
L 315.528667 221.050277 
L 317.116454 216.417721 
L 306.350904 208.187355 
L 307.538791 203.849728 
L 279.901063 193.057594 
L 280.626315 189.559088 
L 318.908744 192.011533 
L 319.581818 187.287058 
L 317.732986 182.319213 
L 318.101894 177.636498 
L 292.910611 172.145071 
L 269.930175 168.247857 
z
" clip-path="url(#pc3ea08cea7)" style="fill: #0000ff; opacity: 0.5; stroke: #000000; stroke-width: 1.5; stroke-linejoin: miter"/>
   </g>
  </g>
 </g>
 <defs>
  <clipPath id="pc3ea08cea7">
   <rect x="0" y="-0" width="334.8" height="327.831555"/>
  </clipPath>
 </defs>
</svg>
