<?xml version="1.0" encoding="utf-8" standalone="no"?>
<!DOCTYPE svg PUBLIC "-//W3C//DTD SVG 1.1//EN"
  "http://www.w3.org/Graphics/SVG/1.1/DTD/svg11.dtd">
<svg xmlns:xlink="http://www.w3.org/1999/xlink" width="324.257063pt" height="332.64pt" viewBox="0 0 324.257063 332.64" xmlns="http://www.w3.org/2000/svg" version="1.1">
 <metadata>
  <rdf:RDF xmlns:dc="http://purl.org/dc/elements/1.1/" xmlns:cc="http://creativecommons.org/ns#" xmlns:rdf="http://www.w3.org/1999/02/22-rdf-syntax-ns#">
   <cc:Work>
    <dc:type rdf:resource="http://purl.org/dc/dcmitype/StillImage"/>
    <dc:date>2023-12-09T18:06:19.369198</dc:date>
    <dc:format>image/svg+xml</dc:format>
    <dc:creator>
     <cc:Agent>
      <dc:title>Matplotlib v3.8.2, https://matplotlib.org/</dc:title>
     </cc:Agent>
    </dc:creator>
   </cc:Work>
  </rdf:RDF>
 </metadata>
 <defs>
  <style type="text/css">*{stroke-linejoin: round; stroke-linecap: butt}</style>
 </defs>
 <g id="figure_1">
  <g id="patch_1">
   <path d="M 0 332.64 
L 324.257063 332.64 
L 324.257063 0 
L 0 0 
L 0 332.64 
z
" style="fill: none"/>
  </g>
  <g id="axes_1">
   <g id="patch_2">
    <path d="M 287.014511 166.974736 
L 286.951921 162.994498 
L 300.02199 158.183249 
L 299.676546 153.798374 
L 292.991482 150.210806 
L 292.398843 146.050927 
L 257.903699 148.360697 
L 257.270237 145.30497 
L 309.518106 128.654257 
L 308.23951 123.985403 
L 275.604841 129.510625 
L 274.369939 125.907655 
L 259.220157 127.816 
L 257.940074 124.729038 
L 262.925645 118.68666 
L 261.356683 115.487704 
L 258.318777 113.093248 
L 256.576224 110.041907 
L 227.697752 124.228981 
L 226.320471 122.134926 
L 245.098455 105.374773 
L 243.119752 102.742924 
L 245.873238 96.186522 
L 243.605254 93.534855 
L 271.42381 62.582549 
L 268.08661 59.144131 
L 243.264994 78.614884 
L 240.445809 76.053914 
L 235.059686 76.595493 
L 232.181063 74.293514 
L 225.561828 77.144066 
L 222.705149 75.14045 
L 215.606501 79.829552 
L 212.839182 78.137625 
L 212.650051 71.737421 
L 209.62976 70.142452 
L 224.483915 30.442511 
L 220.15937 28.495877 
L 195.700506 77.568038 
L 192.871922 76.503118 
L 202.759621 36.123636 
L 198.624444 34.857252 
L 182.078377 82.177231 
L 179.401452 81.538341 
L 188.916018 16.490834 
L 184.170388 15.669431 
L 174.850944 51.441132 
L 171.211182 51.044685 
L 166.028334 75.721128 
L 163.156351 75.590079 
L 160.264465 64.609611 
L 157.045961 64.665284 
L 154.183183 70.280663 
L 151.145996 70.52474 
L 142.36128 25.909262 
L 137.934804 26.546985 
L 144.613612 84.872128 
L 142.039944 85.40988 
L 127.154729 38.368229 
L 123.127509 39.477919 
L 128.366309 68.936743 
L 125.299631 69.993225 
L 116.775286 57.35202 
L 113.350089 58.778677 
L 115.985825 73.027048 
L 113.053876 74.470777 
L 116.970422 88.31754 
L 114.518753 89.72275 
L 102.029778 75.391402 
L 99.17907 77.272771 
L 98.231702 81.7675 
L 95.583351 83.765136 
L 91.001302 83.441211 
L 88.40915 85.665359 
L 73.554717 74.897169 
L 70.702548 77.6741 
L 56.521037 69.868299 
L 53.519171 73.183293 
L 78.375276 99.435265 
L 76.292254 102.048495 
L 59.72582 94.198555 
L 57.487366 97.400754 
L 79.141205 115.683748 
L 77.568694 118.264861 
L 82.93562 124.640532 
L 81.642853 127.097912 
L 18.837048 100.815424 
L 16.826859 105.299984 
L 62.235364 128.412523 
L 61.071431 131.518899 
L 42.897208 129.154921 
L 41.766179 132.868964 
L 58.930655 141.228076 
L 58.171305 144.432024 
L 72.873122 150.541318 
L 72.399708 153.30228 
L 53.400268 153.782451 
L 53.03839 157.154078 
L 28.602092 159.088904 
L 28.419321 163.237617 
L 60.404906 167.289275 
L 60.464249 170.433984 
L 49.706488 174.297205 
L 49.991465 177.774831 
L 14.738957 185.863494 
L 15.404893 190.434856 
L 79.114857 182.766641 
L 79.651592 185.315415 
L 49.263991 195.918921 
L 50.229021 199.399769 
L 46.106715 204.55683 
L 47.3449 208.132679 
L 33.458927 217.762342 
L 35.118577 221.729336 
L 19.9618 233.688007 
L 22.128861 238.071506 
L 42.200573 232.532142 
L 44.320295 236.216977 
L 64.326539 228.462345 
L 66.307359 231.453503 
L 66.489928 235.76596 
L 68.699319 238.685485 
L 66.198018 245.537286 
L 68.714785 248.461159 
L 73.02485 249.693057 
L 75.668908 252.400224 
L 59.221252 275.60561 
L 62.686883 278.73398 
L 95.989034 245.506437 
L 98.490102 247.49363 
L 107.446431 240.524505 
L 109.785191 242.153915 
L 98.863298 264.877053 
L 101.971999 266.764295 
L 106.259183 266.493844 
L 109.415063 268.147744 
L 114.929166 264.742371 
L 118.02569 266.124534 
L 115.4741 281.964292 
L 119.111848 283.320806 
L 113.024414 315.075491 
L 117.704462 316.492658 
L 125.863821 304.122926 
L 130.193149 305.141808 
L 139.269558 280.672529 
L 142.854925 281.2815 
L 142.871353 311.253808 
L 147.416482 311.734411 
L 153.337531 288.669104 
L 157.167373 288.831794 
L 160.867741 260.743389 
L 163.815814 260.683119 
L 169.611336 302.630138 
L 173.872097 302.274241 
L 177.306038 295.5864 
L 181.341524 294.992047 
L 186.708003 301.172714 
L 190.914487 300.279981 
L 199.052581 314.373221 
L 203.668014 313.085821 
L 189.8502 256.008091 
L 192.635055 255.038891 
L 191.891796 245.281821 
L 194.338384 244.253732 
L 214.914446 281.236469 
L 218.480144 279.466721 
L 202.607486 242.763753 
L 204.969603 241.399984 
L 244.861909 298.484437 
L 248.955114 295.764546 
L 210.85719 235.613434 
L 212.990406 233.993812 
L 224.09579 243.096883 
L 226.457756 241.057311 
L 261.035847 272.945935 
L 264.318069 269.730128 
L 273.223338 271.730249 
L 276.461311 268.131841 
L 249.341109 239.697701 
L 251.583716 236.866041 
L 234.058401 219.838013 
L 235.684132 217.496694 
L 235.911133 214.275576 
L 237.361053 211.878753 
L 253.847249 217.6321 
L 255.393837 214.669667 
L 258.973451 212.645776 
L 260.360723 209.524629 
L 254.36689 203.527833 
L 255.469752 200.556034 
L 263.180016 199.684259 
L 264.15767 196.437257 
L 280.951255 197.146005 
L 281.840314 193.341491 
L 301.052163 192.91259 
L 301.798176 188.478153 
L 265.164006 179.55092 
L 265.507643 176.251491 
L 307.876149 175.33015 
L 308.065957 170.689845 
L 287.012007 166.178562 
L 286.924385 162.198796 
L 299.963936 157.30544 
L 299.59092 152.922824 
L 292.883424 149.377372 
L 292.264634 145.221303 
L 257.7847 147.747982 
L 257.132031 144.696299 
L 309.274143 127.717306 
L 307.966208 123.056586 
L 275.366935 128.786953 
L 274.109397 125.191821 
L 258.971917 127.195412 
L 257.672443 124.116562 
L 262.619913 118.042947 
L 261.030863 114.853922 
L 257.977957 112.47862 
L 256.216247 109.438299 
L 227.427575 123.806722 
L 226.037151 121.721371 
L 244.709351 104.843445 
L 242.714135 102.224094 
L 245.42633 95.650504 
L 243.141714 93.013154 
L 270.765046 61.886497 
L 267.406287 58.469136 
L 242.707622 78.095618 
L 239.872386 75.552429 
L 234.489775 76.127873 
L 231.596731 73.844045 
L 224.995555 76.736172 
L 222.126332 74.750562 
L 215.057315 79.484218 
L 212.27941 77.809729 
L 212.050029 71.410842 
L 209.019767 69.8349 
L 223.623937 30.042319 
L 219.287235 28.122923 
L 195.137491 77.347946 
L 192.302265 76.300837 
L 201.935804 35.859966 
L 197.792745 34.619615 
L 181.54462 82.042723 
L 178.86373 81.420682 
L 187.968996 16.314621 
L 183.218294 15.523081 
L 174.124018 51.352689 
L 170.481835 50.979142 
L 165.45429 75.687694 
L 162.581539 75.57471 
L 159.62065 64.612648 
L 156.402559 64.688562 
L 153.575155 70.321835 
L 150.539563 70.58501 
L 141.474416 26.025666 
L 137.052038 26.691216 
L 144.097546 84.973199 
L 141.527311 85.527127 
L 126.346525 38.580026 
L 122.326364 39.715023 
L 127.75034 69.140316 
L 124.690367 70.216064 
L 116.086684 57.628723 
L 112.670528 59.076894 
L 115.395826 73.308406 
L 112.473015 74.770546 
L 116.476573 88.592403 
L 114.03379 90.013005 
L 101.454926 75.760489 
L 98.616107 77.65975 
L 97.697027 82.160349 
L 95.061292 84.174601 
L 90.477296 83.879502 
L 87.899184 86.119909 
L 72.977319 75.445357 
L 70.142672 78.240172 
L 55.912348 70.52372 
L 52.931391 73.857528 
L 77.952113 99.95265 
L 75.885569 102.578929 
L 59.270091 94.833338 
L 57.051821 98.049552 
L 78.820222 116.195994 
L 77.263975 118.786947 
L 82.670894 125.128736 
L 81.393608 127.594198 
L 18.423744 101.707244 
L 16.4418 106.204357 
L 61.994771 129.030845 
L 60.850399 132.144481 
L 42.661667 129.894855 
L 41.55402 133.615938 
L 58.77073 141.86693 
L 58.031547 145.07559 
L 72.771497 151.092298 
L 72.315457 153.856182 
L 53.319413 154.455839 
L 52.978748 157.829676 
L 28.555102 159.918154 
L 28.398428 164.067935 
L 60.408863 167.918341 
L 60.487983 171.062614 
L 49.754732 174.99342 
L 50.061576 178.469184 
L 14.860638 186.779405 
L 15.555312 191.346489 
L 79.215788 183.277726 
L 79.768542 185.823074 
L 49.448232 196.617491 
L 50.435136 200.092201 
L 46.345346 205.275087 
L 47.605997 208.843078 
L 33.780864 218.559885 
L 35.46543 222.516362 
L 20.384167 234.570124 
L 22.578754 238.939907 
L 42.61523 233.274413 
L 44.758086 236.945843 
L 64.715162 229.065537 
L 66.714755 232.044177 
L 66.924444 236.3554 
L 69.152154 239.260972 
L 66.693996 246.128369 
L 69.229103 249.036355 
L 73.54683 250.241121 
L 76.207863 252.931605 
L 59.90648 276.239978 
L 63.391718 279.34649 
L 96.484228 245.910152 
L 98.997745 247.881575 
L 107.910065 240.856258 
L 110.259027 242.470927 
L 99.480266 265.262307 
L 102.600775 267.12996 
L 106.886173 266.832551 
L 110.052393 268.466569 
L 115.544969 265.026583 
L 118.650124 266.389243 
L 116.198208 282.244736 
L 119.844416 283.578344 
L 113.956821 315.370688 
L 118.64569 316.758391 
L 126.727089 304.337586 
L 131.062739 305.32922 
L 139.985071 280.803338 
L 143.574198 281.389748 
L 143.779134 311.36136 
L 148.327196 311.813367 
L 154.10306 288.711276 
L 157.933849 288.849875 
L 161.457484 260.738752 
L 164.40512 260.659942 
L 170.46435 302.569681 
L 174.722788 302.186993 
L 178.114599 295.477687 
L 182.146267 294.857965 
L 187.551512 301.004757 
L 191.752298 300.085585 
L 199.97887 314.127363 
L 204.586115 312.81096 
L 190.409587 255.821265 
L 193.188291 254.834569 
L 192.38368 245.082366 
L 194.823754 244.03891 
L 215.63201 280.891504 
L 219.186507 279.099365 
L 203.083322 242.496953 
L 205.436814 241.118355 
L 245.68736 297.950778 
L 249.763378 295.205198 
L 211.287891 235.294889 
L 213.410878 233.661883 
L 224.573295 242.694927 
L 226.922388 240.640539 
L 261.700355 272.311057 
L 264.962287 269.07467 
L 273.87996 271.018742 
L 277.095237 267.400041 
L 249.796737 239.137034 
L 252.02149 236.291325 
L 234.389425 219.373858 
L 236.000398 217.02236 
L 236.207135 213.799878 
L 237.641952 211.393984 
L 254.164007 217.043528 
L 255.691932 214.071426 
L 259.258747 212.025061 
L 260.626362 208.895251 
L 254.59493 202.936271 
L 255.67908 199.957595 
L 263.383708 199.037343 
L 264.340921 195.784257 
L 281.138631 196.387369 
L 282.003745 192.577339 
L 301.212516 192.027615 
L 301.930624 187.588573 
L 265.241032 178.891925 
L 265.563911 175.5904 
L 307.925783 174.402604 
L 308.086403 169.761197 
L 287.004496 165.38242 
L 286.891845 161.403284 
L 299.900362 156.428013 
L 299.499789 152.04783 
L 292.770127 148.544634 
L 292.12521 144.392539 
L 257.661849 147.136028 
L 256.99 144.08851 
L 309.024292 126.781909 
L 307.68707 122.129507 
L 275.124482 128.064791 
L 273.844357 124.477639 
L 258.719778 126.576397 
L 257.400966 123.505781 
L 262.310139 117.40117 
L 260.701063 114.222201 
L 257.633278 111.866147 
L 255.852481 108.836967 
L 227.154748 123.38617 
L 225.751235 121.309605 
L 244.316913 104.314576 
L 242.305262 101.707825 
L 244.97606 95.117307 
L 242.674901 92.494378 
L 270.101919 61.194601 
L 266.721732 57.798433 
L 242.146996 77.579867 
L 239.29582 75.054561 
L 233.916935 75.663847 
L 231.009585 73.39826 
L 224.426729 76.331847 
L 221.545074 74.364322 
L 214.505969 79.142345 
L 211.717587 77.485361 
L 211.447966 71.088042 
L 208.407851 69.531191 
L 222.76146 29.647545 
L 218.412772 27.755462 
L 194.573102 77.1314 
L 191.731347 76.102143 
L 201.110346 35.601482 
L 196.959567 34.387214 
L 181.010029 81.911575 
L 178.325279 81.306408 
L 187.020884 16.144367 
L 182.265298 15.382722 
L 173.39655 51.26882 
L 169.752089 50.918187 
L 164.880047 75.657871 
L 162.006642 75.562957 
L 158.976866 64.619734 
L 155.759317 64.715887 
L 152.967399 70.366831 
L 149.933522 70.649093 
L 140.588301 26.147645 
L 136.170197 26.840996 
L 143.582125 85.077514 
L 141.015425 85.647596 
L 125.53967 38.796903 
L 121.526726 39.957162 
L 127.135663 69.347759 
L 124.082516 70.442731 
L 115.399837 57.909751 
L 111.992857 59.379379 
L 114.807609 73.593469 
L 111.894052 75.073964 
L 115.984462 88.870366 
L 113.550662 90.306304 
L 100.882406 76.133184 
L 98.055589 78.050262 
L 97.164834 82.556552 
L 94.541819 84.587342 
L 89.956058 84.321079 
L 87.392088 86.577657 
L 72.403381 75.997167 
L 69.586367 78.809754 
L 55.307793 71.182955 
L 52.347863 74.535446 
L 77.532214 100.472686 
L 75.482228 103.111911 
L 58.818363 95.470975 
L 56.620366 98.701077 
L 78.502466 116.710249 
L 76.962546 119.310938 
L 82.409244 125.618596 
L 81.14749 128.092043 
L 18.016057 102.601644 
L 16.062437 107.111135 
L 61.758072 129.650669 
L 60.633306 132.77144 
L 42.430785 130.636255 
L 41.346563 134.364232 
L 58.614827 142.506777 
L 57.895839 145.720022 
L 72.673339 151.643905 
L 72.234692 154.410603 
L 53.242795 155.129723 
L 52.923356 158.505636 
L 28.513328 160.747683 
L 28.382757 164.898367 
L 60.416776 168.54737 
L 60.51567 171.691083 
L 49.807354 175.689317 
L 50.136052 179.163083 
L 14.988078 187.694534 
L 15.711462 192.257158 
L 79.31993 183.788166 
L 79.888682 186.329987 
L 49.636864 197.314888 
L 50.645601 200.783322 
L 46.58849 205.991829 
L 47.871557 209.55182 
L 34.10781 219.355387 
L 35.817227 223.301191 
L 20.812074 235.449567 
L 23.034101 239.805461 
L 43.034548 234.014061 
L 45.200452 237.671941 
L 65.107571 229.666272 
L 67.125858 232.632277 
L 67.362658 236.942096 
L 69.608598 239.833599 
L 67.193681 246.716321 
L 69.747028 249.608305 
L 74.072247 250.785891 
L 76.750148 253.459585 
L 60.595685 276.870024 
L 64.100392 279.954554 
L 96.981952 246.310744 
L 99.507818 248.26632 
L 108.375777 241.185088 
L 110.734848 242.784952 
L 100.099644 265.643674 
L 103.231838 267.491664 
L 107.515281 267.167307 
L 110.691716 268.78138 
L 116.162548 265.306916 
L 119.276212 266.65002 
L 116.924065 282.52062 
L 120.57859 283.831269 
L 114.891066 315.660014 
L 119.588571 317.018199 
L 127.59169 304.546813 
L 131.933491 305.511158 
L 140.701392 280.929645 
L 144.294136 281.493469 
L 144.687573 311.4632 
L 149.238388 311.886593 
L 154.868839 288.748632 
L 158.700424 288.863135 
L 162.047186 260.730406 
L 164.994268 260.633059 
L 171.316967 302.50386 
L 175.572914 302.094397 
L 178.922459 295.36389 
L 182.95015 294.718823 
L 188.393949 300.831498 
L 192.58887 299.885924 
L 200.903594 313.875684 
L 205.502468 312.530329 
L 190.967788 255.630924 
L 193.740232 254.626771 
L 192.874301 244.879822 
L 195.307764 243.82104 
L 216.34739 280.542033 
L 219.890545 278.727573 
L 203.55747 242.227165 
L 205.902245 240.833792 
L 246.509439 297.411938 
L 250.568108 294.640776 
L 211.71658 234.973642 
L 213.829255 233.327315 
L 225.048264 242.289976 
L 227.384389 240.220854 
L 262.360858 271.672011 
L 265.60237 268.415173 
L 274.532094 270.303119 
L 277.724547 266.664267 
L 250.248829 238.573511 
L 252.45564 235.713866 
L 234.717523 218.90763 
L 236.313675 216.546046 
L 236.50014 213.322328 
L 237.919796 210.907457 
L 254.477057 216.452975 
L 255.98626 213.471322 
L 259.540133 211.402565 
L 260.888036 208.264215 
L 254.819245 202.343287 
L 255.884639 199.357851 
L 263.583327 198.38916 
L 264.520061 195.130117 
L 281.321232 195.627569 
L 282.162366 191.812174 
L 301.3673 191.141648 
L 302.057475 186.698178 
L 265.313911 178.232458 
L 265.616019 174.928968 
L 307.969583 173.474763 
L 308.101008 168.832438 
L 286.991977 164.586341 
L 286.854303 160.607992 
L 299.83127 155.551003 
L 299.403157 151.173426 
L 292.651595 147.712626 
L 291.980575 143.564669 
L 257.535151 146.524858 
L 256.844148 143.481626 
L 308.768562 125.848101 
L 307.402106 121.204202 
L 274.877492 127.344168 
L 273.574831 123.765139 
L 258.463751 125.95898 
L 257.125653 122.896719 
L 261.996334 116.761353 
L 260.367296 113.592568 
L 257.284753 111.255855 
L 255.48494 108.237934 
L 226.87928 122.967342 
L 225.462735 120.899646 
L 243.921157 103.788186 
L 241.893151 101.194138 
L 244.522445 94.586953 
L 242.204835 91.978549 
L 269.434452 60.506891 
L 266.032973 57.132048 
L 241.583136 77.067653 
L 238.716134 74.560329 
L 233.341188 75.203433 
L 230.419645 72.956176 
L 223.855371 75.931108 
L 220.961398 73.981746 
L 213.952483 78.803946 
L 211.153735 77.164532 
L 210.843883 70.769036 
L 207.794037 69.231336 
L 221.896517 29.258203 
L 217.536014 27.393508 
L 194.007363 76.918407 
L 191.159191 75.907044 
L 200.283278 35.348195 
L 196.124944 34.160057 
L 180.474622 81.783792 
L 177.786119 81.195522 
L 186.071721 15.98008 
L 181.311438 15.24836 
L 172.668569 51.189527 
L 169.021975 50.861823 
L 164.305627 75.63166 
L 161.431682 75.55482 
L 158.33314 64.630869 
L 155.116259 64.747257 
L 152.359937 70.415649 
L 149.327896 70.716987 
L 139.702971 26.275194 
L 135.289315 26.996319 
L 143.067371 85.185069 
L 140.504307 85.771283 
L 124.734194 39.018849 
L 120.728627 40.204325 
L 126.522303 69.559063 
L 123.476104 70.673217 
L 114.71477 58.195094 
L 111.317101 59.686121 
L 114.221196 73.882226 
L 111.317008 75.381016 
L 115.494108 89.151419 
L 113.069388 90.602636 
L 100.312242 76.509473 
L 97.497538 78.444291 
L 96.635142 82.956095 
L 94.024952 85.003342 
L 89.437607 84.765926 
L 86.88788 87.038585 
L 71.832925 76.552575 
L 69.033656 79.382824 
L 54.707396 71.84598 
L 51.768609 75.217021 
L 77.115593 100.995353 
L 75.082247 103.647418 
L 58.370655 96.11144 
L 56.193016 99.355302 
L 78.187952 117.226492 
L 76.664418 119.836815 
L 82.150681 126.110091 
L 80.904508 128.591425 
L 17.614003 103.498592 
L 15.688784 108.02028 
L 61.525277 130.271969 
L 60.42016 133.399753 
L 42.20457 131.379093 
L 41.143817 135.113815 
L 58.462951 143.147592 
L 57.764186 146.365296 
L 72.578653 152.19612 
L 72.157415 154.965521 
L 53.170416 155.804075 
L 52.872216 159.18193 
L 28.476772 161.577459 
L 28.372309 165.728882 
L 60.428645 169.176337 
L 60.547309 172.319366 
L 49.864352 176.38487 
L 50.214891 179.856499 
L 15.12127 188.608842 
L 15.873336 193.166827 
L 79.427282 184.297941 
L 80.012009 186.836135 
L 49.829877 198.011085 
L 50.86041 201.473106 
L 46.836137 206.707027 
L 48.141569 210.258878 
L 34.439753 220.148817 
L 36.173953 224.083792 
L 21.245503 236.326302 
L 23.494882 240.668134 
L 43.458509 234.751057 
L 45.647377 238.395243 
L 65.503751 230.264527 
L 67.540652 233.21778 
L 67.804554 237.526024 
L 70.068635 240.403345 
L 67.697054 247.301119 
L 70.268539 250.176986 
L 74.601079 251.327346 
L 77.295744 253.984145 
L 61.288839 277.495723 
L 64.812876 280.558149 
L 97.482185 246.708199 
L 100.020301 248.64785 
L 108.843547 241.510983 
L 111.212634 243.095978 
L 100.721409 266.021137 
L 103.865164 267.849391 
L 108.146482 267.4981 
L 111.333005 269.092163 
L 116.781877 265.58336 
L 119.903926 266.906854 
L 117.651644 282.791934 
L 121.314339 284.079572 
L 115.827113 315.943458 
L 120.533067 317.272072 
L 128.45759 304.750597 
L 132.80537 305.687616 
L 141.418494 281.051444 
L 145.014713 281.592661 
L 145.596635 311.559324 
L 150.150023 311.954087 
L 155.634838 288.781171 
L 159.467067 288.871573 
L 162.636824 260.718352 
L 165.583235 260.602471 
L 172.169153 302.432678 
L 176.422441 301.996455 
L 179.729589 295.245015 
L 183.753143 294.574629 
L 189.235279 300.652945 
L 193.42417 299.681005 
L 201.826717 313.618193 
L 206.417039 312.243941 
L 191.524781 255.437076 
L 194.290855 254.415506 
L 193.363638 244.674196 
L 195.790394 243.60013 
L 217.060558 280.188069 
L 220.592231 278.351361 
L 204.029912 241.954401 
L 206.365878 240.546308 
L 247.328112 296.867939 
L 251.369272 294.071305 
L 212.14324 234.649705 
L 214.245518 232.990123 
L 225.520676 241.882045 
L 227.843741 239.798271 
L 263.017328 271.028824 
L 266.238293 267.751663 
L 275.179714 269.583409 
L 278.349218 265.92455 
L 250.697368 238.007157 
L 252.88615 235.133689 
L 235.042682 218.439347 
L 236.623949 216.067772 
L 236.790135 212.842945 
L 238.194576 210.419192 
L 254.786387 215.860465 
L 256.276807 212.869379 
L 259.817598 210.778311 
L 261.145736 207.631545 
L 255.039827 201.748904 
L 256.086423 198.756826 
L 263.778866 197.739734 
L 264.695084 194.474864 
L 281.499051 194.866637 
L 282.316171 191.046026 
L 301.516508 190.254726 
L 302.178723 185.807002 
L 265.382641 177.572546 
L 265.663966 174.267222 
L 308.007546 172.546665 
L 308.109771 167.903605 
L 286.974452 163.790356 
L 286.811759 159.812952 
L 299.756664 154.674445 
L 299.301027 150.299648 
L 292.527832 146.881379 
L 291.830737 142.737724 
L 257.404612 145.914497 
L 256.694483 142.875672 
L 308.506965 124.91592 
L 307.111328 120.280707 
L 274.625974 126.625114 
L 273.30083 123.054348 
L 258.203846 125.343186 
L 256.846515 122.289402 
L 261.678511 116.123523 
L 260.029575 112.965046 
L 256.932397 110.647767 
L 255.113638 107.641226 
L 226.601184 122.550256 
L 225.171662 120.491509 
L 243.522098 103.264294 
L 241.477817 100.683053 
L 244.065504 94.059462 
L 241.731534 91.465686 
L 268.762674 59.823391 
L 265.340036 56.470009 
L 241.016066 76.558995 
L 238.133351 74.069753 
L 232.762556 74.746649 
L 229.826938 72.517812 
L 223.281503 75.53397 
L 220.375327 73.602848 
L 213.39688 78.469035 
L 210.587877 76.847256 
L 210.237807 70.453835 
L 207.17835 68.935347 
L 221.029142 28.874308 
L 216.656998 27.037075 
L 193.440296 76.708977 
L 190.585819 75.715547 
L 199.454633 35.100116 
L 195.288909 33.938154 
L 179.938423 81.659379 
L 177.246273 81.08803 
L 185.121543 15.821766 
L 180.356752 15.12 
L 171.940103 51.114815 
L 168.29152 50.810052 
L 163.731054 75.609062 
L 160.856683 75.550299 
L 157.689496 64.646053 
L 154.473411 64.78267 
L 151.752795 70.468286 
L 148.722709 70.788688 
L 138.81846 26.40831 
L 134.409427 27.15718 
L 142.553304 85.295859 
L 139.993978 85.898182 
L 123.930129 39.245858 
L 119.932098 40.456503 
L 125.910284 69.774222 
L 122.871152 70.907512 
L 114.031512 58.484739 
L 110.643287 59.997106 
L 113.63661 74.174666 
L 110.741906 75.691692 
L 115.005532 89.435551 
L 112.589987 90.90199 
L 99.744456 76.88934 
L 96.941976 78.841823 
L 96.107974 83.358962 
L 93.510711 85.422585 
L 88.921964 85.214025 
L 86.386582 87.502676 
L 71.265973 77.11156 
L 68.48456 79.959359 
L 54.111181 72.512768 
L 51.193654 75.902225 
L 76.702268 101.520629 
L 74.685642 104.185431 
L 57.926983 96.754708 
L 55.76979 100.012202 
L 77.87669 117.744703 
L 76.369604 120.364557 
L 81.895213 126.603203 
L 80.664671 129.092326 
L 17.217599 104.39805 
L 15.320857 108.931758 
L 61.296393 130.89472 
L 60.210971 134.029393 
L 41.983032 132.12334 
L 40.945789 135.864659 
L 58.315108 143.789349 
L 57.636595 147.011384 
L 72.487441 152.748918 
L 72.083629 155.520915 
L 53.102281 156.478869 
L 52.825331 159.858533 
L 28.445436 162.407448 
L 28.367085 166.559446 
L 60.44447 169.805216 
L 60.582899 172.947437 
L 49.925723 177.08005 
L 50.29809 180.549406 
L 15.26021 189.522295 
L 16.040929 194.075459 
L 79.537837 184.807031 
L 80.138516 187.341497 
L 50.027266 198.706055 
L 51.079552 202.161526 
L 47.088277 207.420653 
L 48.416022 210.964224 
L 34.77668 220.940144 
L 36.535594 224.864133 
L 21.684438 237.200293 
L 23.96108 241.527892 
L 43.887097 235.485372 
L 46.098841 239.115719 
L 65.903685 230.860279 
L 67.959121 233.800662 
L 68.250114 238.107161 
L 70.532247 240.970185 
L 68.204096 247.882739 
L 70.793618 250.742376 
L 75.133307 251.865464 
L 77.844628 254.505263 
L 61.985914 278.11705 
L 65.529143 281.157252 
L 97.984909 247.102499 
L 100.535173 249.026148 
L 109.313358 241.83393 
L 111.692367 243.403993 
L 101.345536 266.394683 
L 104.500727 268.203128 
L 108.779751 267.824917 
L 111.976237 269.398907 
L 117.402932 265.855903 
L 120.533244 267.159734 
L 118.380915 283.058666 
L 122.051636 284.323242 
L 116.764924 316.22101 
L 121.479141 317.52 
L 129.324754 304.948932 
L 133.678342 305.858587 
L 142.136348 281.168731 
L 145.7359 281.687319 
L 146.506283 311.649729 
L 151.062064 312.015846 
L 156.401026 288.808892 
L 160.233748 288.87519 
L 163.226374 260.702589 
L 166.171999 260.56818 
L 173.020874 302.356137 
L 177.271334 301.893172 
L 180.535954 295.121066 
L 184.555212 294.425387 
L 190.075469 300.469103 
L 194.258165 299.470837 
L 202.748203 313.354902 
L 207.32979 311.951807 
L 192.080544 255.239729 
L 194.840138 254.200782 
L 193.851672 244.465497 
L 196.271625 243.376188 
L 217.771485 279.829627 
L 221.291537 277.970743 
L 204.500629 241.67867 
L 206.827692 240.255913 
L 248.143348 296.318801 
L 252.166839 293.496806 
L 212.567854 234.32309 
L 214.659653 232.650319 
L 225.990513 241.471151 
L 228.300426 239.372808 
L 263.669741 270.381521 
L 266.87003 267.084167 
L 275.822795 268.85964 
L 278.969224 265.180919 
L 251.142336 237.437993 
L 253.313003 234.550815 
L 235.364889 217.969029 
L 236.93121 215.587555 
L 237.07711 212.361747 
L 238.466278 209.929209 
L 255.091984 215.266021 
L 256.563562 212.26562 
L 260.091132 210.152324 
L 261.399453 206.997267 
L 255.256665 201.153145 
L 256.284422 198.154544 
L 263.970316 197.089091 
L 264.865982 193.818523 
L 281.672081 194.1046 
L 282.465155 190.278926 
L 301.660136 189.366882 
L 302.294364 184.915082 
L 265.447219 176.912215 
L 265.70775 173.605186 
L 308.039671 171.618347 
L 287.014511 166.974736 
z
" clip-path="url(#pf92183c1a4)" style="fill: #0000ff; opacity: 0.5; stroke: #000000; stroke-width: 1.5; stroke-linejoin: miter"/>
   </g>
  </g>
 </g>
 <defs>
  <clipPath id="pf92183c1a4">
   <rect x="0" y="-0" width="324.257063" height="332.64"/>
  </clipPath>
 </defs>
</svg>
