<?xml version="1.0" encoding="utf-8" standalone="no"?>
<!DOCTYPE svg PUBLIC "-//W3C//DTD SVG 1.1//EN"
  "http://www.w3.org/Graphics/SVG/1.1/DTD/svg11.dtd">
<svg xmlns:xlink="http://www.w3.org/1999/xlink" width="334.8pt" height="324.812352pt" viewBox="0 0 334.8 324.812352" xmlns="http://www.w3.org/2000/svg" version="1.1">
 <metadata>
  <rdf:RDF xmlns:dc="http://purl.org/dc/elements/1.1/" xmlns:cc="http://creativecommons.org/ns#" xmlns:rdf="http://www.w3.org/1999/02/22-rdf-syntax-ns#">
   <cc:Work>
    <dc:type rdf:resource="http://purl.org/dc/dcmitype/StillImage"/>
    <dc:date>2023-12-09T18:06:19.487291</dc:date>
    <dc:format>image/svg+xml</dc:format>
    <dc:creator>
     <cc:Agent>
      <dc:title>Matplotlib v3.8.2, https://matplotlib.org/</dc:title>
     </cc:Agent>
    </dc:creator>
   </cc:Work>
  </rdf:RDF>
 </metadata>
 <defs>
  <style type="text/css">*{stroke-linejoin: round; stroke-linecap: butt}</style>
 </defs>
 <g id="figure_1">
  <g id="patch_1">
   <path d="M 0 324.812352 
L 334.8 324.812352 
L 334.8 0 
L 0 0 
L 0 324.812352 
z
" style="fill: none"/>
  </g>
  <g id="axes_1">
   <g id="patch_2">
    <path d="M 249.595615 158.378016 
L 249.555273 155.812572 
L 298.931612 150.132432 
L 298.607618 146.019833 
L 271.171896 145.331595 
L 270.710678 142.094196 
L 263.076342 140.223254 
L 262.45851 137.242922 
L 256.324064 135.677388 
L 255.566639 132.911611 
L 302.646514 114.582937 
L 301.202929 110.37111 
L 294.422144 108.270025 
L 292.784133 104.319912 
L 281.615358 104.855089 
L 279.876307 101.309337 
L 301.853357 84.705547 
L 299.470754 80.533431 
L 278.053759 88.450398 
L 275.80067 85.024742 
L 268.912981 84.965761 
L 266.554847 81.829234 
L 264.099259 78.768402 
L 261.548645 75.786293 
L 258.322822 73.433882 
L 255.607336 70.636034 
L 247.881234 73.177064 
L 245.162835 70.707649 
L 263.251439 43.036048 
L 259.577741 40.098263 
L 249.709032 45.696196 
L 246.125671 43.182899 
L 252.735658 24.563582 
L 248.486345 21.96557 
L 207.618796 86.134666 
L 205.32772 84.924784 
L 229.162187 28.025723 
L 225.033387 26.1672 
L 219.086693 28.904035 
L 214.99049 27.361874 
L 208.631723 32.799032 
L 204.663156 31.583672 
L 190.960754 68.471462 
L 188.122545 67.794079 
L 187.645299 54.630857 
L 184.373549 54.064562 
L 179.202539 68.682898 
L 176.37679 68.375114 
L 176.729231 16.258901 
L 172.25638 16.054803 
L 167.856048 64.786841 
L 164.913409 64.837743 
L 160.840096 47.419336 
L 157.354853 47.699421 
L 149.612739 14.764198 
L 145.106299 15.413441 
L 151.665548 73.544935 
L 149.006288 74.10057 
L 147.968583 80.934987 
L 145.54351 81.603209 
L 126.731356 32.167112 
L 122.783415 33.527192 
L 126.278234 53.590141 
L 123.004104 54.953876 
L 112.591468 41.234628 
L 108.93562 43.034813 
L 123.518776 77.857458 
L 121.009028 79.295958 
L 82.850367 24.830705 
L 78.693448 27.574126 
L 101.034887 66.629433 
L 98.183221 68.780427 
L 69.325013 39.644965 
L 65.640575 42.806329 
L 105.423794 92.047713 
L 103.369165 94.048142 
L 68.650499 65.52546 
L 65.780134 68.695236 
L 72.892486 80.087749 
L 70.477894 83.116947 
L 49.358048 72.632477 
L 46.720682 76.405336 
L 73.969358 99.041907 
L 72.150193 102.027875 
L 57.087897 97.782798 
L 55.23749 101.300178 
L 63.644571 109.614862 
L 62.162948 112.920236 
L 61.53055 116.562975 
L 60.268437 119.931383 
L 36.268728 115.986717 
L 35.000986 120.149697 
L 26.886463 122.580261 
L 25.830676 127.03498 
L 35.922225 133.58664 
L 35.208034 137.751813 
L 39.38866 142.524548 
L 38.953783 146.57631 
L 15.490073 149.254495 
L 15.278616 154.054353 
L 44.815281 158.765411 
L 44.888369 162.638518 
L 52.266837 166.032317 
L 52.564728 169.667538 
L 30.76477 176.171458 
L 31.392089 180.477737 
L 15.664191 187.964864 
L 16.669787 192.740107 
L 30.984974 194.054789 
L 32.174475 198.345303 
L 54.775906 195.601313 
L 56.00227 199.143024 
L 38.028923 210.368762 
L 39.727889 214.429733 
L 26.379759 225.642148 
L 28.564714 230.061842 
L 54.672921 221.221317 
L 56.704886 224.753598 
L 69.627778 221.322245 
L 71.655522 224.384263 
L 89.267526 216.038052 
L 91.119413 218.485166 
L 86.28901 226.507621 
L 88.471556 229.043209 
L 106.419232 216.662797 
L 108.282282 218.570314 
L 111.294931 219.247739 
L 113.236847 221.000675 
L 106.607005 233.204499 
L 108.99007 235.097934 
L 103.483397 247.949696 
L 106.331628 249.934054 
L 98.595486 268.757198 
L 102.100367 270.884954 
L 97.63981 287.656011 
L 101.739383 289.804472 
L 119.066712 263.538442 
L 122.397382 265.025119 
L 136.549095 238.840489 
L 139.094563 239.789693 
L 130.939711 274.180026 
L 134.599105 275.288128 
L 137.314173 280.158997 
L 141.158408 281.063716 
L 149.71179 256.68144 
L 152.811709 257.207958 
L 149.64684 309.251288 
L 154.399702 309.753857 
L 159.817178 298.926725 
L 164.240385 299.114621 
L 168.478646 259.167515 
L 171.647454 259.102733 
L 177.730994 302.035634 
L 182.243094 301.658743 
L 179.037752 242.449061 
L 181.675674 242.060544 
L 190.91107 275.344788 
L 194.577435 274.566683 
L 197.4064 270.578498 
L 200.919691 269.598522 
L 207.161602 276.863297 
L 210.867677 275.573489 
L 223.777347 297.177298 
L 228.113924 295.35501 
L 234.456981 297.729441 
L 238.805638 295.57109 
L 219.743016 251.339543 
L 222.640348 249.666767 
L 212.518139 227.709952 
L 214.676077 226.276026 
L 230.523348 243.469243 
L 233.167891 241.461401 
L 237.28765 241.212161 
L 239.857881 238.99275 
L 274.852444 270.920445 
L 278.338195 267.505227 
L 278.197986 260.715992 
L 281.361233 257.200628 
L 270.170837 241.939569 
L 272.747681 238.685879 
L 262.874662 226.489017 
L 264.969314 223.472374 
L 266.968081 220.391363 
L 268.868985 217.24903 
L 303.017266 231.588491 
L 305.252409 227.307156 
L 297.916769 218.585079 
L 299.745578 214.470544 
L 258.206278 193.476483 
L 259.265252 190.622947 
L 271.667547 191.377135 
L 272.653858 188.101385 
L 254.137147 179.939952 
L 254.772515 177.221051 
L 318.2546 186.091086 
L 319.051671 181.353151 
L 287.930546 172.777946 
L 288.324016 169.000048 
L 263.041886 163.76346 
L 263.164227 160.772573 
L 249.594001 157.864846 
L 249.537525 155.299706 
L 298.877162 149.309129 
L 298.527309 145.198649 
L 271.0878 144.68298 
L 270.606231 141.448546 
L 262.960279 139.625656 
L 262.323714 136.64927 
L 256.179543 135.122349 
L 255.404737 132.36139 
L 302.368404 113.736973 
L 300.898358 109.534309 
L 294.104492 107.475913 
L 292.441671 103.53618 
L 281.276482 104.141591 
L 279.515164 100.606847 
L 301.387352 83.865163 
L 298.978555 79.708114 
L 277.611778 87.759626 
L 275.337187 84.348208 
L 268.449264 84.332548 
L 266.071449 81.210914 
L 263.596659 78.165587 
L 261.02734 75.199579 
L 257.786785 72.867503 
L 255.053756 70.086789 
L 247.343788 72.676362 
L 244.609912 70.224093 
L 262.524119 42.439272 
L 258.832017 39.52465 
L 248.998711 45.184542 
L 245.399614 42.693832 
L 251.892365 24.03331 
L 247.626796 21.462075 
L 207.163643 85.886935 
L 204.865003 84.691487 
L 228.341136 27.643646 
L 224.200728 25.811128 
L 218.271364 28.58531 
L 214.165543 27.068942 
L 207.841098 32.545985 
L 203.864967 31.35561 
L 190.394839 68.32885 
L 187.552425 67.669331 
L 186.9924 54.509371 
L 183.717153 53.963665 
L 178.638186 68.614235 
L 175.810558 68.324229 
L 175.83521 16.20683 
L 171.361164 16.030868 
L 167.267416 64.789618 
L 164.325155 64.859026 
L 160.14237 47.466583 
L 156.658958 47.768582 
L 148.709853 14.882704 
L 144.207586 15.560277 
L 151.132319 73.649367 
L 148.476606 74.221717 
L 147.481907 81.062525 
L 145.061084 81.745986 
L 125.938378 32.429185 
L 121.999068 33.814068 
L 125.620003 53.85464 
L 122.354515 55.23894 
L 111.855798 41.585453 
L 108.211345 43.408596 
L 123.013227 78.138833 
L 120.512576 79.593089 
L 82.012114 25.368909 
L 77.872533 28.138421 
L 100.459165 67.052441 
L 97.621084 69.221327 
L 68.580201 40.267944 
L 64.915719 43.452418 
L 105.007852 92.442614 
L 102.965845 94.455926 
L 68.068474 66.152169 
L 65.218102 69.339935 
L 72.401966 80.68749 
L 70.006473 83.731815 
L 48.821104 73.380384 
L 46.207519 77.169755 
L 73.598027 99.6345 
L 71.797679 102.63185 
L 56.708981 98.481591 
L 54.880733 102.01054 
L 63.339942 110.272184 
L 61.879138 113.586811 
L 61.269663 117.233454 
L 60.02876 120.609734 
L 36.004716 116.81609 
L 34.763182 120.986962 
L 26.664107 123.468513 
L 25.636358 127.929784 
L 35.768913 134.417845 
L 35.080933 138.587428 
L 39.291495 143.333774 
L 38.88211 147.388191 
L 15.435707 150.213897 
L 15.254443 155.01499 
L 44.820154 159.540186 
L 44.9176 163.412756 
L 52.317267 166.760082 
L 52.638016 170.393357 
L 30.879395 177.034258 
L 31.533786 181.336507 
L 15.853289 188.922404 
L 16.888899 193.691229 
L 31.21207 194.915851 
L 32.428533 199.198799 
L 55.012259 196.312713 
L 56.260875 199.84664 
L 38.358486 211.185199 
L 40.082959 215.235404 
L 26.805614 226.531549 
L 29.018322 230.937413 
L 55.070412 221.932857 
L 57.124552 225.452288 
L 70.025607 221.939726 
L 72.072569 224.98893 
L 89.631733 216.532114 
L 91.498974 218.967532 
L 86.719123 227.02021 
L 88.917573 229.542021 
L 106.787028 217.048972 
L 108.662038 218.944734 
L 111.678889 219.603198 
L 113.631791 221.343886 
L 107.078836 233.589166 
L 109.473762 235.467576 
L 104.048029 248.353718 
L 106.908683 250.320122 
L 99.291082 269.19155 
L 102.809275 271.29722 
L 98.454287 288.096 
L 102.567292 290.218634 
L 119.729079 263.844145 
L 123.069033 265.309844 
L 137.05578 239.036726 
L 139.607168 239.969901 
L 131.668773 274.410844 
L 135.335064 275.495908 
L 138.080714 280.349605 
L 141.930562 281.230128 
L 150.330425 256.794538 
L 153.433594 257.301549 
L 150.596111 309.363755 
L 155.35204 309.836421 
L 160.701312 298.975431 
L 165.125613 299.135503 
L 169.112546 259.162531 
L 172.280883 259.077821 
L 178.634326 301.971611 
L 183.143967 301.566348 
L 179.566293 242.377997 
L 182.20172 241.972897 
L 191.646272 275.198397 
L 195.307671 274.397248 
L 198.111496 270.39135 
L 201.618554 269.389297 
L 207.906032 276.614669 
L 211.603923 275.301578 
L 224.649212 296.823765 
L 228.974243 294.974239 
L 235.332108 297.308728 
L 239.667105 295.123069 
L 220.326668 251.01229 
L 223.213422 249.321325 
L 212.953317 227.428607 
L 215.102194 225.981137 
L 231.057287 243.074343 
L 233.68915 241.049909 
L 237.807259 240.774762 
L 240.363481 238.539231 
L 275.558159 270.246198 
L 279.022361 266.809124 
L 278.839455 260.020905 
L 281.980529 256.485716 
L 270.694371 241.295339 
L 273.2507 238.025508 
L 263.301165 225.890982 
L 265.376803 222.861225 
L 267.356152 219.767704 
L 269.237256 216.613477 
L 303.475048 230.737881 
L 305.68322 226.442573 
L 298.292868 217.766806 
L 300.095763 213.64085 
L 258.425243 192.908463 
L 259.466249 190.048323 
L 271.873043 190.724492 
L 272.838731 187.442604 
L 254.271056 179.397791 
L 254.889311 176.674949 
L 318.425928 185.145542 
L 319.193184 180.402687 
L 288.018741 172.023386 
L 288.388443 168.243088 
L 263.073878 163.165614 
L 263.177405 160.174016 
L 249.58916 157.351696 
L 249.516552 154.786963 
L 298.817536 148.486186 
L 298.441837 144.377987 
L 270.999628 144.034908 
L 270.497724 140.803566 
L 262.840459 139.028801 
L 262.185187 136.056477 
L 256.031534 134.56823 
L 255.239379 131.812199 
L 302.08498 112.892775 
L 300.588531 108.69944 
L 293.781853 106.683814 
L 292.094285 102.754617 
L 280.933125 103.430239 
L 279.149611 99.906643 
L 300.91607 83.027726 
L 298.481176 78.88591 
L 277.16546 87.071647 
L 274.869459 83.674602 
L 267.981573 83.702263 
L 265.584172 80.595646 
L 263.090277 77.565945 
L 260.502355 74.616155 
L 257.247197 72.304506 
L 254.496732 69.541037 
L 246.803204 72.179049 
L 244.053959 69.744024 
L 261.793061 41.847082 
L 258.082701 38.955739 
L 248.285186 44.677365 
L 244.670495 42.20934 
L 251.045754 23.508352 
L 246.764097 20.963995 
L 206.706941 85.642072 
L 204.400827 84.461105 
L 227.517697 27.26674 
L 223.365846 25.460299 
L 217.454047 28.271719 
L 213.338771 26.781204 
L 207.048898 32.297916 
L 203.065358 31.132572 
L 189.828038 68.189801 
L 186.981532 67.548172 
L 186.338749 54.391994 
L 183.060135 53.866898 
L 178.073412 68.549122 
L 175.244016 68.276907 
L 174.940879 16.160383 
L 170.465814 16.012564 
L 166.678812 64.796097 
L 163.737046 64.884008 
L 159.444956 47.518216 
L 155.963512 47.842119 
L 147.807731 15.006886 
L 143.309814 15.712763 
L 150.599758 73.757151 
L 147.947697 74.346193 
L 146.996042 81.193121 
L 144.579566 81.891795 
L 125.147063 32.69624 
L 121.216542 34.105872 
L 124.963449 54.123274 
L 121.706731 55.528085 
L 111.12235 41.940899 
L 107.489435 43.786927 
L 122.509458 78.423381 
L 120.018002 79.893336 
L 81.177263 25.912375 
L 77.055182 28.707868 
L 99.886115 67.479061 
L 97.061731 69.665755 
L 67.839322 40.895594 
L 64.194941 44.103053 
L 104.594402 92.840123 
L 102.565098 94.866238 
L 67.490402 66.782526 
L 64.660135 69.988156 
L 71.915227 81.290304 
L 69.538929 84.349635 
L 48.288874 74.131653 
L 45.699174 77.937388 
L 73.230431 100.229417 
L 71.44897 103.238031 
L 56.334468 99.182753 
L 54.528451 102.723131 
L 63.039454 110.931408 
L 61.599526 114.255157 
L 61.012998 117.905562 
L 59.793355 121.289579 
L 35.745926 117.647108 
L 34.530649 121.825705 
L 26.447341 124.358146 
L 25.447671 128.825793 
L 35.620833 135.249998 
L 34.959091 139.423825 
L 39.199421 144.143596 
L 38.815544 148.200507 
L 15.387377 151.173621 
L 15.236313 155.975759 
L 44.8299 160.314914 
L 44.951701 164.186795 
L 52.372274 167.487515 
L 52.715868 171.118701 
L 30.999444 177.89632 
L 31.680881 182.194368 
L 16.048405 189.878737 
L 17.113988 194.640954 
L 31.444578 195.775467 
L 32.687954 200.050679 
L 55.253081 197.022611 
L 56.523899 200.548615 
L 38.693177 211.999546 
L 40.44309 216.038825 
L 27.237054 227.418254 
L 29.477429 231.810115 
L 55.472369 222.641883 
L 57.548604 226.148326 
L 70.427312 222.554692 
L 72.493412 225.590962 
L 89.999039 217.023876 
L 91.881561 219.447502 
L 87.152451 227.530083 
L 89.366719 230.038017 
L 107.157246 217.432827 
L 109.044142 219.316759 
L 112.065074 219.956235 
L 114.028886 221.684606 
L 107.553077 233.970859 
L 109.959769 235.834168 
L 104.61519 248.75418 
L 107.488155 250.702554 
L 99.989395 269.621518 
L 103.520762 271.70502 
L 99.271516 288.530858 
L 103.397789 290.627581 
L 120.393356 264.145676 
L 123.742463 265.59034 
L 137.56369 239.229773 
L 140.120897 240.146883 
L 132.399272 274.637072 
L 136.072315 275.699056 
L 138.848438 280.535388 
L 142.703748 281.39168 
L 150.949759 256.903743 
L 154.056055 257.391227 
L 151.54607 309.47025 
L 156.304877 309.912994 
L 161.585734 299.018575 
L 166.010954 299.150818 
L 169.746401 259.153561 
L 172.914143 259.048925 
L 179.537238 301.901907 
L 184.044241 301.46829 
L 180.094377 242.303611 
L 182.727203 241.881943 
L 192.380538 275.047385 
L 196.036826 274.223224 
L 198.815401 270.19977 
L 202.316087 269.175679 
L 208.648885 276.361365 
L 212.338443 275.025041 
L 225.518837 296.464755 
L 229.83215 294.588064 
L 236.204572 296.88252 
L 240.525736 294.669639 
L 220.90825 250.681373 
L 223.784312 248.972286 
L 213.386717 227.144531 
L 215.526448 225.683574 
L 231.588732 242.676094 
L 234.20781 240.635146 
L 238.324108 240.334105 
L 240.866218 238.08254 
L 276.259619 269.567526 
L 279.702136 266.108732 
L 279.476539 259.321798 
L 282.595317 255.766922 
L 271.213843 240.64783 
L 273.749556 237.361985 
L 263.723899 225.290277 
L 265.78044 222.247525 
L 267.740293 219.141616 
L 269.601521 215.97562 
L 303.927471 229.884408 
L 306.108584 225.575297 
L 298.663813 216.946183 
L 300.440722 212.80897 
L 258.640632 192.339077 
L 259.663628 189.472446 
L 272.074429 190.07057 
L 273.019457 186.782673 
L 254.401552 178.8548 
L 255.002669 176.128122 
L 318.591305 184.198938 
L 319.328717 179.451352 
L 288.102189 171.268286 
L 288.448107 167.485738 
L 263.102109 162.567578 
L 263.186819 159.575389 
L 249.581091 156.838587 
L 249.492354 154.274361 
L 298.752734 147.663633 
L 298.351205 143.557879 
L 270.90738 143.387402 
L 270.385164 140.159281 
L 262.716887 138.432711 
L 262.042934 135.464567 
L 255.880043 134.015053 
L 255.07057 131.264058 
L 301.796252 112.050377 
L 300.273458 107.866536 
L 293.454238 105.89376 
L 291.741991 101.975255 
L 280.585301 102.721061 
L 278.779661 99.208752 
L 300.43953 82.19327 
L 297.978635 78.066849 
L 276.714824 86.386488 
L 274.397503 83.003951 
L 267.509928 83.074933 
L 265.093035 79.983456 
L 262.580134 76.969499 
L 259.973711 74.036044 
L 256.704078 71.744914 
L 253.936287 68.998799 
L 246.259503 71.685147 
L 243.494997 69.267461 
L 261.058292 41.259501 
L 257.329821 38.391552 
L 247.568485 44.174685 
L 243.938343 41.729444 
L 250.195857 22.988729 
L 245.898283 20.471352 
L 206.248707 85.400086 
L 203.935212 84.233646 
L 226.691904 26.895021 
L 222.528774 25.114728 
L 216.634774 27.963274 
L 212.510204 26.498672 
L 206.255154 32.054835 
L 202.264363 30.914568 
L 189.260374 68.054319 
L 186.409889 67.430605 
L 185.684373 54.278731 
L 182.402522 53.774266 
L 177.50824 68.487563 
L 174.677188 68.233148 
L 174.046273 16.119562 
L 169.570368 15.999891 
L 166.090261 64.806277 
L 163.149106 64.912689 
L 158.74788 47.574236 
L 155.268542 47.920028 
L 146.906407 15.13674 
L 142.413018 15.870892 
L 150.067885 73.868283 
L 147.419581 74.473993 
L 146.511008 81.326771 
L 144.098974 82.040629 
L 124.357443 32.968267 
L 120.435866 34.402591 
L 124.308597 54.396032 
L 121.060779 55.821297 
L 110.391151 42.30095 
L 106.769919 44.169791 
L 122.007488 78.711093 
L 119.525327 80.196689 
L 80.345846 26.461081 
L 76.241429 29.282444 
L 99.315759 67.909277 
L 96.505185 70.113691 
L 67.102405 41.527892 
L 63.478269 44.758208 
L 104.18346 93.240225 
L 102.166939 95.279063 
L 66.916306 67.416506 
L 64.106257 70.639874 
L 71.43229 81.896168 
L 69.07528 84.970384 
L 47.76138 74.886254 
L 45.195667 78.708202 
L 72.866584 100.826634 
L 71.10408 103.846393 
L 55.964372 99.886257 
L 54.180658 103.437923 
L 62.743118 111.592509 
L 61.324122 114.925249 
L 60.760566 118.57927 
L 59.56223 121.970891 
L 35.492368 118.479737 
L 34.303396 122.665895 
L 26.236176 125.249125 
L 25.264624 129.722971 
L 35.477989 136.083065 
L 34.842511 140.260972 
L 39.112442 144.95398 
L 38.754088 149.013225 
L 15.345084 152.133631 
L 15.224226 156.936624 
L 44.844518 161.089566 
L 44.990668 164.960605 
L 52.431854 168.214588 
L 52.79828 171.843541 
L 31.124913 178.75761 
L 31.833369 183.051287 
L 16.249532 190.833824 
L 17.345045 195.589245 
L 31.682488 196.633604 
L 32.952728 200.900911 
L 55.498364 197.730981 
L 56.791333 201.248923 
L 39.032984 212.811772 
L 40.808267 216.839965 
L 27.674062 228.302227 
L 29.942015 232.679911 
L 55.878778 223.348367 
L 57.977026 226.841682 
L 70.832877 223.16712 
L 72.918032 226.190335 
L 90.369431 217.513318 
L 92.267159 219.925056 
L 87.588978 228.037221 
L 89.818975 230.531179 
L 107.529871 217.814345 
L 109.428579 219.686373 
L 112.453473 220.306836 
L 114.428116 222.022822 
L 108.029708 234.349561 
L 110.448073 236.197696 
L 105.184858 249.151067 
L 108.070021 251.081333 
L 100.690399 270.047087 
L 104.2348 272.108336 
L 100.091463 288.960567 
L 104.230842 291.031297 
L 121.059516 264.443023 
L 124.417643 265.866594 
L 138.072804 239.419621 
L 140.635728 240.320629 
L 133.13118 274.858701 
L 136.81083 275.897563 
L 139.617315 280.716339 
L 143.477935 281.548367 
L 151.569767 257.009051 
L 154.679068 257.476989 
L 152.49668 309.570767 
L 157.258178 309.983573 
L 162.47041 299.056155 
L 166.896375 299.160563 
L 170.380188 259.140604 
L 173.547209 259.016047 
L 180.439694 301.826526 
L 184.94388 301.36457 
L 180.621982 242.225904 
L 183.252104 241.787685 
L 193.11384 274.891758 
L 196.764872 274.044617 
L 199.518087 270.003767 
L 203.012263 268.957679 
L 209.390129 276.103393 
L 213.07121 274.743891 
L 226.386187 296.100283 
L 230.687611 294.196501 
L 237.074338 296.450833 
L 241.381499 294.210818 
L 221.487739 250.346805 
L 224.352995 248.619662 
L 213.818322 226.857734 
L 215.948822 225.383349 
L 232.117662 242.274509 
L 234.723851 240.21713 
L 238.838174 239.890205 
L 241.366073 237.622697 
L 276.956797 268.884455 
L 280.377491 265.404078 
L 280.109213 258.618697 
L 283.205571 255.044277 
L 271.729232 239.997067 
L 274.244229 236.695338 
L 264.142846 224.686924 
L 266.180209 221.631298 
L 268.120489 218.513124 
L 269.961768 215.335485 
L 304.374517 229.028108 
L 306.528485 224.705363 
L 299.029589 216.123244 
L 300.780443 211.974936 
L 258.852435 191.768347 
L 259.857382 188.895339 
L 272.271699 189.415394 
L 273.196029 186.121619 
L 254.528631 178.310998 
L 255.112587 175.580594 
L 318.750726 183.251314 
L 319.458263 178.499184 
L 288.180886 170.512677 
L 288.503008 166.728028 
L 263.126578 161.969377 
L 263.192467 158.976714 
L 249.569796 156.325539 
L 249.464932 153.761922 
L 298.682761 146.841505 
L 298.255416 142.738357 
L 270.811063 142.74049 
L 270.268553 139.515717 
L 262.589569 137.83741 
L 261.896962 134.873564 
L 255.725076 133.462839 
L 254.898316 130.71699 
L 301.502231 111.209811 
L 299.953153 107.03563 
L 293.12166 105.105782 
L 291.384803 101.198123 
L 280.233023 102.014084 
L 278.405328 98.513201 
L 299.957752 81.361827 
L 297.470952 77.250966 
L 276.259888 85.704178 
L 273.921338 82.336282 
L 267.034346 82.450582 
L 264.598057 79.374366 
L 262.06625 76.376274 
L 259.441428 73.45927 
L 256.15745 71.18875 
L 253.372443 68.460096 
L 245.712706 71.194674 
L 242.933049 68.794423 
L 260.319843 40.676554 
L 256.573407 37.832112 
L 246.848638 43.676524 
L 243.203188 41.254162 
L 249.34271 22.474461 
L 245.029388 19.984164 
L 205.788961 85.160987 
L 203.468175 84.009121 
L 225.86379 26.528503 
L 221.689545 24.774429 
L 215.813578 27.659989 
L 211.679878 26.221357 
L 205.459896 31.81675 
L 201.462013 30.701605 
L 188.691868 67.92241 
L 185.837517 67.316637 
L 185.029298 54.169585 
L 181.744339 53.685771 
L 176.942692 68.42956 
L 174.110096 68.192956 
L 173.151428 16.084368 
L 168.674859 15.992851 
L 165.501786 64.82016 
L 162.561358 64.945067 
L 158.05117 47.634638 
L 154.574076 48.002307 
L 146.005918 15.27226 
L 141.517235 16.034659 
L 149.536721 73.982757 
L 146.89228 74.605112 
L 146.026824 81.463469 
L 143.619328 82.192483 
L 123.56955 33.245254 
L 119.657071 34.704215 
L 123.655473 54.672902 
L 120.416684 56.118567 
L 109.662232 42.665593 
L 106.052825 44.557173 
L 121.507338 79.001955 
L 119.03457 80.503133 
L 79.517897 27.015006 
L 75.431306 29.862127 
L 98.74812 68.343071 
L 95.951466 70.565119 
L 66.36948 42.164812 
L 62.765732 45.417858 
L 103.775042 93.642903 
L 101.771384 95.694384 
L 66.346209 68.054085 
L 63.556489 71.295062 
L 70.953172 82.505057 
L 68.615544 85.594036 
L 47.238642 75.644159 
L 44.697018 79.482167 
L 72.5065 101.426128 
L 70.763024 104.456912 
L 55.598708 100.592075 
L 53.837367 104.154889 
L 62.450945 112.25546 
L 61.052939 115.597059 
L 60.512375 119.254553 
L 59.335394 122.653644 
L 35.244051 119.313944 
L 34.081431 123.507497 
L 26.030618 126.141415 
L 25.087223 130.621283 
L 35.340388 136.917015 
L 34.731199 141.098836 
L 39.030562 145.764895 
L 38.697745 149.826314 
L 15.30883 153.093887 
L 15.218182 157.897546 
L 44.864008 161.864111 
L 45.034502 165.734154 
L 52.496007 168.941272 
L 52.885249 172.567848 
L 31.255797 179.618094 
L 31.991243 183.90723 
L 16.456662 191.787626 
L 17.582063 196.536063 
L 31.92579 197.490227 
L 33.222844 201.749461 
L 55.748097 198.437795 
L 57.063166 201.947535 
L 39.377892 213.621845 
L 41.178475 217.638793 
L 28.116621 229.183435 
L 30.412062 233.546768 
L 56.289623 224.052282 
L 58.4098 227.53233 
L 71.242286 223.776985 
L 73.346414 226.787025 
L 90.742894 218.000421 
L 92.655753 220.400176 
L 88.028685 228.541603 
L 90.274324 231.021486 
L 107.904888 218.193513 
L 109.815332 220.053561 
L 112.844069 220.654987 
L 114.829465 222.35852 
L 108.508712 234.725257 
L 110.938653 236.558146 
L 105.757012 249.544364 
L 108.654258 251.456445 
L 101.394065 270.468237 
L 104.951361 272.507154 
L 100.914096 289.38511 
L 105.066417 291.429766 
L 121.727534 264.736175 
L 125.094547 266.138597 
L 138.583102 239.606263 
L 141.151642 240.491134 
L 133.864467 275.075722 
L 137.550578 276.091421 
L 140.387315 280.892451 
L 144.253091 281.70018 
L 152.190425 257.110457 
L 155.302608 257.55883 
L 153.447903 309.665304 
L 158.211904 310.048154 
L 163.355306 299.088171 
L 167.781839 299.16474 
L 171.01388 259.123661 
L 174.180056 258.979188 
L 181.341658 301.74547 
L 185.84285 301.255195 
L 181.149088 242.144881 
L 183.776402 241.690129 
L 193.846149 274.731522 
L 197.491781 273.861434 
L 200.219526 269.803349 
L 203.707054 268.735305 
L 210.129737 275.840764 
L 213.802194 274.458137 
L 227.251227 295.730364 
L 231.540592 293.799565 
L 237.941371 296.013683 
L 242.234359 293.746623 
L 222.065113 250.008599 
L 224.91945 248.263469 
L 214.248114 226.568229 
L 216.369299 225.080473 
L 232.644055 241.869607 
L 235.237253 239.795876 
L 239.349439 239.443081 
L 241.863026 237.159718 
L 277.649665 268.197013 
L 281.048402 264.695191 
L 280.737453 257.911631 
L 283.811269 254.317807 
L 272.240518 239.343074 
L 274.734699 236.025594 
L 264.55799 224.080949 
L 266.576094 221.01257 
L 268.496725 217.882254 
L 270.317982 214.693097 
L 304.816169 228.169012 
L 306.942907 223.832806 
L 299.390182 215.29802 
L 301.114911 211.138783 
L 259.060644 191.196296 
L 260.047502 188.317025 
L 272.464845 188.75899 
L 273.36844 185.459467 
L 254.652287 177.766408 
L 255.219058 175.032385 
L 318.904183 182.302706 
L 319.581818 177.546219 
L 288.25483 169.756587 
L 288.553141 165.969987 
L 263.147284 161.371034 
L 249.595615 158.378016 
z
" clip-path="url(#p0981d09eb8)" style="fill: #0000ff; opacity: 0.5; stroke: #000000; stroke-width: 1.5; stroke-linejoin: miter"/>
   </g>
  </g>
 </g>
 <defs>
  <clipPath id="p0981d09eb8">
   <rect x="0" y="-0" width="334.8" height="324.812352"/>
  </clipPath>
 </defs>
</svg>
