<?xml version="1.0" encoding="utf-8" standalone="no"?>
<!DOCTYPE svg PUBLIC "-//W3C//DTD SVG 1.1//EN"
  "http://www.w3.org/Graphics/SVG/1.1/DTD/svg11.dtd">
<svg xmlns:xlink="http://www.w3.org/1999/xlink" width="334.8pt" height="330.058939pt" viewBox="0 0 334.8 330.058939" xmlns="http://www.w3.org/2000/svg" version="1.1">
 <metadata>
  <rdf:RDF xmlns:dc="http://purl.org/dc/elements/1.1/" xmlns:cc="http://creativecommons.org/ns#" xmlns:rdf="http://www.w3.org/1999/02/22-rdf-syntax-ns#">
   <cc:Work>
    <dc:type rdf:resource="http://purl.org/dc/dcmitype/StillImage"/>
    <dc:date>2023-12-09T18:06:19.603749</dc:date>
    <dc:format>image/svg+xml</dc:format>
    <dc:creator>
     <cc:Agent>
      <dc:title>Matplotlib v3.8.2, https://matplotlib.org/</dc:title>
     </cc:Agent>
    </dc:creator>
   </cc:Work>
  </rdf:RDF>
 </metadata>
 <defs>
  <style type="text/css">*{stroke-linejoin: round; stroke-linecap: butt}</style>
 </defs>
 <g id="figure_1">
  <g id="patch_1">
   <path d="M 0 330.058939 
L 334.8 330.058939 
L 334.8 0 
L 0 0 
L 0 330.058939 
z
" style="fill: none"/>
  </g>
  <g id="axes_1">
   <g id="patch_2">
    <path d="M 261.197929 165.571034 
L 261.152116 162.657677 
L 319.581818 156.058774 
L 319.208053 151.314403 
L 254.33747 154.721375 
L 253.953912 152.02909 
L 309.610617 138.632857 
L 308.693873 134.210618 
L 316.612612 127.512833 
L 315.342768 122.875934 
L 264.731013 134.283352 
L 263.699701 131.274376 
L 241.039803 136.834824 
L 240.100428 134.56949 
L 262.83977 121.146383 
L 261.396337 118.203367 
L 238.214691 127.221584 
L 236.974451 125.049832 
L 280.63456 94.344857 
L 278.33963 90.855586 
L 276.560519 86.985949 
L 274.036224 83.628413 
L 260.704658 89.218637 
L 258.258403 86.358541 
L 230.974688 106.852564 
L 229.097582 104.918524 
L 246.700669 82.20227 
L 244.040728 79.785958 
L 266.380816 47.089986 
L 262.607137 44.072248 
L 233.810771 75.555564 
L 230.948216 73.547826 
L 250.330292 36.403604 
L 246.228546 33.895813 
L 232.3972 49.121124 
L 228.704187 47.170901 
L 217.080334 62.114495 
L 213.803434 60.639444 
L 203.680466 76.50646 
L 200.862706 75.445614 
L 212.986977 28.190663 
L 208.645462 26.861088 
L 197.577992 51.853611 
L 193.98811 50.99683 
L 183.909436 84.393451 
L 181.349436 83.95035 
L 179.159439 80.523172 
L 176.480098 80.231336 
L 177.62584 17.597591 
L 172.968738 17.385086 
L 168.303616 15.002679 
L 163.569534 15.084568 
L 162.272674 68.482692 
L 159.223103 68.727765 
L 157.65389 80.556987 
L 154.986245 80.941315 
L 149.557598 67.003272 
L 146.467797 67.648866 
L 132.183274 25.034176 
L 127.782463 26.246808 
L 124.621914 31.266728 
L 120.420807 32.714024 
L 125.407931 57.248471 
L 122.023358 58.658207 
L 131.231221 86.697506 
L 128.769712 87.909585 
L 125.227365 87.170868 
L 122.783708 88.571487 
L 107.9314 70.516492 
L 104.972643 72.469169 
L 81.136154 45.824678 
L 77.414281 48.632064 
L 73.288989 50.961252 
L 69.732501 54.012831 
L 70.512752 61.667835 
L 67.294275 64.801411 
L 83.35641 85.960242 
L 80.895389 88.677974 
L 74.94411 88.527399 
L 72.567966 91.508363 
L 64.028531 90.039732 
L 61.705335 93.363157 
L 49.692642 90.577174 
L 47.393432 94.351086 
L 63.509686 108.190707 
L 61.757453 111.521472 
L 71.30354 120.135656 
L 69.923029 123.215459 
L 46.360107 117.587142 
L 44.911798 121.452481 
L 70.046719 133.876419 
L 69.098868 136.988946 
L 24.091368 128.927971 
L 23.01065 133.487881 
L 77.473095 148.477863 
L 76.980674 151.349669 
L 81.176872 154.802312 
L 80.881474 157.554536 
L 78.360454 160.176362 
L 78.235421 163.014484 
L 85.148969 165.833279 
L 85.198446 168.455158 
L 15.218182 175.711098 
L 15.612814 180.526869 
L 87.372226 176.094766 
L 87.743247 178.641667 
L 63.180725 186.033682 
L 63.876208 189.336302 
L 83.355976 187.751324 
L 84.095491 190.418741 
L 80.517359 194.508459 
L 81.470736 197.261788 
L 88.962473 197.402823 
L 90.00268 199.889188 
L 61.129089 216.586076 
L 62.786221 219.938099 
L 95.610604 206.011653 
L 96.918204 208.284729 
L 55.369901 237.981672 
L 57.702605 241.504197 
L 52.0464 250.88237 
L 54.786373 254.503016 
L 81.361085 238.257177 
L 83.689601 240.962347 
L 83.858801 245.716011 
L 86.420604 248.338959 
L 96.432317 242.970615 
L 98.901581 245.199582 
L 116.623069 228.845121 
L 118.638214 230.44623 
L 91.368292 272.70762 
L 94.775057 275.081108 
L 102.776061 270.156084 
L 106.09696 272.172148 
L 123.137406 248.989453 
L 125.782713 250.375777 
L 129.121846 250.278125 
L 131.804712 251.475648 
L 134.523905 252.588223 
L 137.276734 253.614752 
L 123.584513 306.032092 
L 128.023143 307.376155 
L 132.313157 309.328731 
L 136.851125 310.396716 
L 154.132899 243.000963 
L 156.574589 243.415682 
L 150.448433 314.270873 
L 155.132827 314.766201 
L 162.793636 264.238556 
L 165.8988 264.370462 
L 169.217829 309.188661 
L 173.733147 309.096351 
L 178.660662 315.025173 
L 183.354824 314.633074 
L 183.613023 280.40805 
L 187.216298 279.877354 
L 184.716503 248.165851 
L 187.305467 247.6164 
L 202.01167 293.295146 
L 206.011047 292.179584 
L 203.673615 271.877056 
L 206.998738 270.719829 
L 226.12032 308.864262 
L 230.597303 306.982974 
L 225.706764 285.447136 
L 229.447667 283.590429 
L 224.491576 266.099241 
L 227.62474 264.290308 
L 243.214734 281.876251 
L 246.834704 279.470821 
L 219.288379 234.640149 
L 221.434972 233.010371 
L 223.033864 230.721626 
L 225.055398 228.976019 
L 253.071533 254.606234 
L 255.829201 251.904367 
L 235.303271 227.573797 
L 237.219764 225.443969 
L 258.194575 238.898027 
L 260.455809 236.042847 
L 256.981004 229.065164 
L 258.933671 226.253004 
L 277.154503 233.630802 
L 279.240749 230.182085 
L 273.072192 222.252722 
L 274.802705 218.937987 
L 300.948089 226.933991 
L 302.812008 222.740462 
L 252.732567 198.330643 
L 253.720974 195.667258 
L 281.112775 201.405829 
L 282.183841 197.848588 
L 244.192774 184.509125 
L 244.750824 182.121084 
L 252.826895 181.117236 
L 253.274028 178.459397 
L 257.47057 176.249073 
L 257.762341 173.447632 
L 304.220464 173.259457 
L 304.395121 168.989576 
L 261.196096 164.988271 
L 261.131961 162.07526 
L 319.519004 155.108997 
L 319.115407 150.367071 
L 254.267535 154.181974 
L 253.867052 151.492155 
L 309.438401 137.746138 
L 308.493861 133.329752 
L 316.370319 126.582295 
L 315.071337 121.953474 
L 264.532329 133.678986 
L 263.482112 130.676556 
L 240.857634 136.379412 
L 239.90403 134.120031 
L 262.558499 120.554171 
L 261.096585 117.620293 
L 237.972116 126.784131 
L 236.718242 124.620222 
L 280.184371 93.641257 
L 277.867541 90.166489 
L 276.064127 86.308118 
L 273.518765 82.966525 
L 260.222622 88.640486 
L 257.758427 85.795832 
L 230.604148 106.461049 
L 228.714914 104.538853 
L 246.174781 81.712334 
L 243.499695 79.3128 
L 265.633702 46.476969 
L 261.841118 43.483025 
L 233.243333 75.146831 
L 230.368207 73.157136 
L 249.516284 35.891746 
L 245.398847 33.409803 
L 231.663533 48.721804 
L 227.958327 46.794847 
L 216.428691 61.811253 
L 213.142579 60.356841 
L 203.119605 76.28721 
L 200.295229 75.244108 
L 212.122053 27.913836 
L 207.772261 26.611594 
L 196.8622 51.67323 
L 193.267 50.839044 
L 183.398571 84.298394 
L 180.835835 83.871403 
L 178.624326 80.458067 
L 175.943202 80.183087 
L 176.694991 17.543375 
L 172.036645 17.360165 
L 167.356631 15.007146 
L 162.623157 15.118808 
L 161.662167 68.524033 
L 158.614198 68.788281 
L 157.119415 80.627138 
L 154.45424 81.028237 
L 148.938038 67.124612 
L 145.852359 67.789627 
L 131.300096 25.265621 
L 126.906999 26.505908 
L 123.778084 31.545606 
L 119.586163 33.019297 
L 124.727496 57.521893 
L 121.351857 58.952888 
L 130.73589 86.933719 
L 128.282052 88.161255 
L 124.735129 87.444833 
L 122.300329 88.860794 
L 107.334759 70.899569 
L 104.388343 72.870815 
L 80.384746 46.376769 
L 76.680604 49.207508 
L 72.570042 51.562596 
L 69.032818 54.636483 
L 69.861199 62.286428 
L 66.662494 65.440184 
L 82.857388 86.497575 
L 80.413509 89.230732 
L 74.461401 89.11759 
L 72.104052 92.11344 
L 63.555549 90.698546 
L 61.253302 94.036517 
L 49.223323 91.326142 
L 46.947895 95.11444 
L 63.150873 108.852425 
L 61.419624 112.194145 
L 71.019701 120.748119 
L 69.658587 123.836544 
L 46.060732 118.356536 
L 44.636762 122.230908 
L 69.849325 134.496515 
L 68.92107 137.614942 
L 23.863761 129.837198 
L 22.811743 134.403815 
L 77.36739 149.050962 
L 76.893041 151.925808 
L 81.11087 155.351992 
L 80.832789 158.106019 
L 78.328308 160.74365 
L 78.221128 163.582501 
L 85.152268 166.357759 
L 85.218234 168.979274 
L 15.28499 176.675207 
L 15.709903 181.488401 
L 87.44002 176.60506 
L 87.827052 179.149577 
L 63.311507 186.695929 
L 64.027748 189.994111 
L 83.497162 188.286647 
L 84.253439 190.94936 
L 80.701099 195.061501 
L 81.671775 197.808779 
L 89.164251 197.902693 
L 90.220075 200.382466 
L 61.452069 217.260623 
L 63.130251 220.602157 
L 95.866395 206.46954 
L 97.188266 208.734347 
L 55.827561 238.692018 
L 58.182373 242.199802 
L 52.585264 251.613364 
L 55.347955 255.216705 
L 81.819964 238.804048 
L 84.165448 241.494519 
L 84.364543 246.247025 
L 86.942791 248.853809 
L 96.920542 243.422603 
L 99.403777 245.635995 
L 117.022054 229.1704 
L 119.047229 230.758803 
L 92.043647 273.19087 
L 95.465272 275.542884 
L 103.435142 270.567636 
L 106.768655 272.562773 
L 123.662959 249.273362 
L 126.316932 250.643022 
L 129.655385 250.524369 
L 132.34573 251.704995 
L 135.071866 252.800447 
L 137.831098 253.809641 
L 124.468822 306.312061 
L 128.915819 307.62818 
L 133.218028 309.553736 
L 137.762624 310.593158 
L 154.620175 243.090047 
L 157.064425 243.4894 
L 151.384029 314.38172 
L 156.071445 314.847576 
L 163.414312 264.272749 
L 166.520245 264.385122 
L 170.121089 309.181559 
L 174.635737 309.060853 
L 179.600444 314.958566 
L 184.292046 314.536951 
L 184.334985 280.31098 
L 187.934851 279.757632 
L 185.235658 248.062478 
L 187.821115 247.496756 
L 202.81432 293.082104 
L 206.806602 291.941411 
L 204.341525 271.653985 
L 207.659304 270.475868 
L 227.020414 308.499283 
L 231.485477 306.589874 
L 226.459586 285.085221 
L 230.188737 283.205022 
L 225.122735 265.745351 
L 228.244459 263.916749 
L 243.944751 281.404291 
L 247.549521 278.976141 
L 219.721781 234.319607 
L 221.858081 232.67636 
L 223.442547 230.377604 
L 225.453062 228.619317 
L 253.629842 254.07282 
L 256.370462 251.353663 
L 235.691913 227.15267 
L 237.594972 225.01083 
L 258.653987 238.332703 
L 260.897218 235.463357 
L 257.378597 228.507667 
L 259.313538 225.683281 
L 277.580412 232.946335 
L 279.644927 229.484564 
L 273.42662 221.594155 
L 275.136251 218.268602 
L 301.331408 226.100008 
L 303.168916 221.894839 
L 252.936941 197.800473 
L 253.908577 195.130925 
L 281.335929 200.697104 
L 282.384601 197.133197 
L 244.310388 184.03294 
L 244.853407 181.641436 
L 252.923004 180.586814 
L 253.353412 177.926215 
L 257.53597 175.689541 
L 257.810116 172.886321 
L 304.266137 172.405954 
L 304.413935 168.135059 
L 261.190598 164.40553 
L 261.108143 161.49298 
L 319.450218 154.159634 
L 319.016804 149.42034 
L 254.194208 153.643024 
L 253.776816 150.955777 
L 309.260612 136.860519 
L 308.288314 132.450162 
L 316.122178 125.653299 
L 314.794109 121.03274 
L 264.329848 133.075881 
L 263.260768 130.080117 
L 240.672605 135.925154 
L 239.70481 133.671816 
L 262.273508 119.963741 
L 260.793171 117.039115 
L 237.726795 126.348212 
L 236.459336 124.192231 
L 279.729765 92.940502 
L 277.391127 89.480374 
L 275.563482 85.633422 
L 272.997153 82.307904 
L 259.736959 88.065378 
L 257.254921 85.236279 
L 230.231152 106.071872 
L 228.329866 104.161596 
L 245.645821 81.225717 
L 242.955697 78.843055 
L 264.882747 45.868662 
L 261.071408 42.898631 
L 232.673337 74.741674 
L 229.785754 72.770102 
L 248.699073 35.385019 
L 244.566107 32.929021 
L 230.927369 48.327106 
L 227.210117 46.423491 
L 215.775154 61.512115 
L 212.479959 60.078399 
L 202.557377 76.071492 
L 199.726496 75.046174 
L 211.255406 27.642454 
L 206.897509 26.367596 
L 196.145287 51.497355 
L 192.544912 50.685797 
L 182.887118 84.206551 
L 180.321747 83.795687 
L 178.088814 80.396328 
L 175.406014 80.138216 
L 175.763819 17.495015 
L 171.104413 17.341107 
L 166.409692 15.017569 
L 161.677015 15.159 
L 161.051933 68.569212 
L 158.005685 68.852625 
L 156.585392 80.70065 
L 153.922792 81.118503 
L 148.319254 67.249847 
L 145.237818 67.934256 
L 130.418391 25.502616 
L 126.033181 26.770508 
L 122.936026 31.829787 
L 118.753456 33.329812 
L 124.048795 57.799588 
L 120.682223 59.251785 
L 130.242053 87.173044 
L 127.795984 88.415988 
L 124.244626 87.721889 
L 121.81878 89.153135 
L 106.74054 71.28639 
L 103.80658 73.276128 
L 79.636825 46.933576 
L 75.95056 49.787556 
L 71.854892 52.16845 
L 68.33707 55.264523 
L 69.213549 62.909107 
L 66.034743 66.082919 
L 82.361755 87.038037 
L 79.935115 89.78651 
L 73.982413 89.710806 
L 71.643953 92.721423 
L 63.08672 91.360322 
L 60.805512 94.712707 
L 48.758725 92.078047 
L 46.507168 95.880581 
L 62.79623 109.516387 
L 61.086032 112.868929 
L 70.739719 121.362355 
L 69.398057 124.45928 
L 45.766202 119.127797 
L 44.366628 123.011048 
L 69.655836 135.117841 
L 68.747212 138.242044 
L 23.641877 130.747838 
L 22.618601 135.320982 
L 77.265291 149.624715 
L 76.809033 152.502488 
L 81.048328 155.902076 
L 80.787573 158.657798 
L 78.299731 161.311128 
L 78.210407 164.150597 
L 85.158866 166.882207 
L 85.241318 169.503256 
L 15.35786 177.638877 
L 15.813037 182.449303 
L 87.511021 177.114917 
L 87.91405 179.656949 
L 63.446452 187.357342 
L 64.183423 190.650953 
L 83.641713 188.821071 
L 84.414721 191.478975 
L 80.888315 195.613377 
L 81.87625 198.354496 
L 89.369169 198.401284 
L 90.440568 200.874368 
L 61.779286 217.933126 
L 63.47845 221.264039 
L 96.125061 206.925809 
L 97.46115 209.182258 
L 56.28968 239.399471 
L 58.666508 242.892376 
L 53.128715 252.340954 
L 55.914014 255.926848 
L 82.282274 239.348022 
L 84.644632 242.023688 
L 84.873614 246.774847 
L 87.468207 249.365364 
L 97.411601 243.871511 
L 99.908708 246.069242 
L 117.423077 229.493163 
L 119.458202 231.068798 
L 92.722027 273.669862 
L 96.158378 276.00031 
L 104.096799 270.975034 
L 107.442795 272.949166 
L 124.190287 249.55396 
L 126.852822 250.9069 
L 130.190463 250.767254 
L 132.88818 251.930935 
L 135.621152 253.009219 
L 138.386676 254.00104 
L 125.354875 306.586462 
L 129.810061 307.874587 
L 134.124296 309.773046 
L 138.675339 310.783865 
L 155.108001 243.176063 
L 157.554714 243.560036 
L 152.320303 314.48668 
L 157.010557 314.923046 
L 164.035192 264.303036 
L 167.14177 264.395873 
L 171.024287 309.168777 
L 175.538086 309.019678 
L 180.539788 314.88605 
L 185.228646 314.434936 
L 185.056322 280.209372 
L 188.652636 279.633393 
L 185.754152 247.955843 
L 188.336 247.37387 
L 203.615615 292.864018 
L 207.600643 291.698238 
L 205.008018 271.426718 
L 208.318322 270.227757 
L 227.918195 308.12865 
L 232.371161 306.191196 
L 227.210117 284.718578 
L 230.927369 282.814962 
L 225.751656 265.387499 
L 228.861817 263.539299 
L 244.671786 280.927749 
L 248.261212 278.476975 
L 220.153158 233.996345 
L 222.279081 232.339694 
L 223.849057 230.031019 
L 225.848474 228.260122 
L 254.184786 253.535905 
L 256.908249 250.799564 
L 236.077898 226.729106 
L 237.967449 224.57534 
L 259.109834 237.7645 
L 261.334975 234.881103 
L 257.772675 227.94768 
L 259.689815 225.11118 
L 278.002008 232.259202 
L 280.044709 228.784516 
L 273.776899 220.933372 
L 275.465581 217.597132 
L 301.709474 225.26363 
L 303.520498 221.046988 
L 253.137977 197.269029 
L 254.092804 194.593423 
L 281.554621 199.986989 
L 282.580857 196.416557 
L 244.425004 183.556024 
L 244.952972 181.161153 
L 253.015776 180.055798 
L 253.429442 177.392545 
L 257.597849 175.129609 
L 257.854359 172.32472 
L 304.30644 171.55218 
L 304.427374 167.28044 
L 261.181435 163.822836 
L 261.080664 160.910862 
L 319.375462 153.210722 
L 318.912249 148.474248 
L 254.117494 153.104546 
L 253.683208 150.419977 
L 309.077255 135.976037 
L 308.077238 131.571882 
L 315.868199 124.725883 
L 314.511095 120.113768 
L 264.123577 132.474063 
L 263.035677 129.485081 
L 240.484723 135.47207 
L 239.502774 133.224863 
L 261.98481 119.375115 
L 260.486108 116.459857 
L 237.478738 125.913844 
L 236.197744 123.765878 
L 279.270761 92.24262 
L 276.910407 88.79727 
L 275.058603 84.961888 
L 272.471409 81.652577 
L 259.247688 87.493336 
L 256.747906 84.679903 
L 229.855716 105.685049 
L 227.942453 103.786769 
L 245.113812 80.742435 
L 242.408755 78.37674 
L 264.127982 45.265091 
L 260.298038 42.319089 
L 232.100803 74.340111 
L 229.200877 72.386738 
L 247.878692 34.883441 
L 243.73036 32.453486 
L 230.188737 47.937046 
L 226.459586 46.056848 
L 215.119748 61.217093 
L 211.815601 59.80413 
L 201.993802 75.859315 
L 199.156529 74.851821 
L 210.387068 27.376529 
L 206.02124 26.129104 
L 195.427282 51.325992 
L 191.821874 50.537094 
L 182.375098 84.117928 
L 179.807194 83.723206 
L 177.552925 80.337958 
L 174.868554 80.096725 
L 174.832362 17.452512 
L 170.17208 17.327912 
L 165.462839 15.033948 
L 160.731144 15.205141 
L 160.441994 68.618229 
L 157.39759 68.920795 
L 156.051842 80.777518 
L 153.391923 81.212109 
L 147.701269 67.378971 
L 144.624199 68.082747 
L 129.538194 25.745152 
L 125.161045 27.0406 
L 122.095771 32.119257 
L 117.922718 33.645559 
L 123.371854 58.081546 
L 120.014481 59.554889 
L 129.749732 87.415469 
L 127.311529 88.673774 
L 123.755875 88.002024 
L 121.339078 89.448498 
L 106.148765 71.67694 
L 103.227377 73.685093 
L 78.892421 47.495075 
L 75.224179 50.372183 
L 71.143566 52.77879 
L 67.645287 55.896926 
L 68.569828 63.535847 
L 65.411046 66.729589 
L 81.869532 87.581604 
L 79.460226 90.345285 
L 73.507165 90.307022 
L 71.187687 93.332287 
L 62.622063 92.025033 
L 60.361984 95.3917 
L 48.298865 92.832859 
L 46.071268 96.649479 
L 62.44577 110.182566 
L 60.756691 113.545798 
L 70.463606 121.97834 
L 69.141448 125.083642 
L 45.476529 119.900895 
L 44.101406 123.792873 
L 69.466259 135.740371 
L 68.577302 138.870227 
L 23.425725 131.659856 
L 22.431232 136.239345 
L 77.166803 150.199099 
L 76.728653 153.079685 
L 80.989246 156.452543 
L 80.745828 159.20985 
L 78.274723 161.878775 
L 78.20326 164.71875 
L 85.168761 167.406603 
L 85.267697 170.027082 
L 15.436789 178.602069 
L 15.922212 183.409538 
L 87.585229 177.624317 
L 88.004237 180.163764 
L 63.585554 188.017892 
L 64.343225 191.306803 
L 83.789622 189.354576 
L 84.579331 192.007565 
L 81.078998 196.164065 
L 82.084153 198.898916 
L 89.577219 198.898577 
L 90.664151 201.364873 
L 62.110725 218.603557 
L 63.830806 221.923717 
L 96.386591 207.380442 
L 97.736846 209.628443 
L 56.756239 240.104004 
L 59.154988 243.581891 
L 53.676731 253.065112 
L 56.484529 256.633417 
L 82.747995 239.889077 
L 85.127136 242.549832 
L 85.385995 247.299458 
L 87.996829 249.873605 
L 97.905474 244.317322 
L 100.416353 246.499304 
L 117.826122 229.813398 
L 119.871117 231.376201 
L 93.403407 274.144579 
L 96.854347 276.453368 
L 104.761005 271.378263 
L 108.119351 273.331311 
L 124.719369 249.831236 
L 127.390361 251.167404 
L 130.727057 251.006768 
L 133.43204 252.153459 
L 136.171739 253.214533 
L 138.943447 254.18894 
L 126.242637 306.855285 
L 130.705836 308.115364 
L 135.031925 309.986651 
L 139.589236 310.968827 
L 155.596358 243.25901 
L 158.045438 243.627587 
L 153.257219 314.58575 
L 157.950124 314.992608 
L 164.656249 264.329419 
L 167.763349 264.402715 
L 171.927386 309.150314 
L 176.440159 308.972829 
L 181.478657 314.807627 
L 186.164586 314.327032 
L 185.777005 280.103228 
L 189.369626 279.504643 
L 186.271965 247.845948 
L 188.850102 247.247749 
L 204.415522 292.640897 
L 208.393139 291.450077 
L 205.673069 271.195263 
L 208.975767 269.975506 
L 228.813627 307.752377 
L 233.254319 305.786955 
L 227.958327 284.347222 
L 231.663533 282.420265 
L 226.378313 265.025698 
L 229.476789 263.157973 
L 245.395808 280.446644 
L 248.96975 277.973343 
L 220.582493 233.670376 
L 222.697955 232.000388 
L 224.25338 229.681884 
L 226.24162 227.898446 
L 254.736341 252.99551 
L 257.44254 250.242095 
L 236.461212 226.303124 
L 238.33718 224.137516 
L 259.562099 237.193441 
L 261.76906 234.296106 
L 258.163224 227.385226 
L 260.062486 224.536724 
L 278.419274 231.569431 
L 280.440081 228.081966 
L 274.123015 220.270399 
L 275.79068 216.923604 
L 302.082273 224.424891 
L 303.86674 220.196942 
L 253.335666 196.736331 
L 254.273646 194.054772 
L 281.768843 199.275512 
L 282.772602 195.698697 
L 244.536618 183.078397 
L 245.049513 180.680252 
L 253.105206 179.524209 
L 253.502114 176.858407 
L 257.656206 174.569298 
L 257.89507 171.762852 
L 304.341373 170.69817 
L 304.435437 166.425754 
L 261.168608 163.240211 
L 261.049524 160.328928 
L 319.294739 152.262299 
L 318.801746 147.528832 
L 254.037394 152.566561 
L 253.586233 149.884776 
L 308.88834 135.092725 
L 307.860643 130.694946 
L 315.608393 123.800082 
L 314.222308 119.196594 
L 263.913525 131.873553 
L 262.806847 128.891473 
L 240.293994 135.020176 
L 239.297931 132.77919 
L 261.692416 118.788316 
L 260.175408 115.882542 
L 237.227953 125.481045 
L 235.933475 123.341178 
L 278.807377 91.547639 
L 276.4254 88.117202 
L 274.54951 84.293543 
L 271.941554 81.000569 
L 258.75483 86.924383 
L 256.237402 84.126728 
L 229.477854 105.300594 
L 227.55269 103.414385 
L 244.578774 80.262509 
L 241.858891 77.913874 
L 263.369435 44.666278 
L 259.521038 41.744423 
L 231.525755 73.942156 
L 228.613601 72.007061 
L 247.055172 34.387032 
L 242.891639 31.983216 
L 229.447667 47.55164 
L 225.706764 45.694933 
L 214.462499 60.926199 
L 211.149531 59.534045 
L 201.428905 75.650686 
L 198.585351 74.661057 
L 209.517075 27.11607 
L 205.143488 25.896129 
L 194.708214 51.159148 
L 191.097915 50.392942 
L 181.862531 84.032526 
L 179.292194 83.653963 
L 177.016679 80.28296 
L 174.330844 80.058615 
L 173.900656 17.415869 
L 169.239683 17.320581 
L 164.516106 15.056281 
L 159.785583 15.257231 
L 159.832376 68.67108 
L 156.789935 68.992789 
L 155.518786 80.857741 
L 152.861652 81.309053 
L 147.084109 67.511979 
L 144.011526 68.235094 
L 128.65954 25.993219 
L 124.290626 27.316171 
L 121.257354 32.414007 
L 117.093983 33.966525 
L 122.696699 58.367756 
L 119.34866 59.862186 
L 129.258945 87.660986 
L 126.828704 88.934601 
L 123.268896 88.285227 
L 120.861244 89.746873 
L 105.559458 72.071205 
L 102.650759 74.097692 
L 78.151564 48.061245 
L 74.501489 50.961367 
L 70.436093 53.393592 
L 66.957494 56.533669 
L 67.930062 64.166623 
L 64.791429 67.380169 
L 81.380737 88.128257 
L 78.98886 90.907037 
L 73.035677 90.906216 
L 70.735271 93.946009 
L 62.161595 92.692654 
L 59.922736 96.073468 
L 47.843761 93.590549 
L 45.640213 97.421103 
L 62.099506 110.850937 
L 60.431613 114.224726 
L 70.191372 122.59605 
L 68.888771 125.709605 
L 45.191723 120.6758 
L 43.841106 124.576349 
L 69.2806 136.364081 
L 68.411347 139.499466 
L 23.215313 132.573216 
L 22.249642 137.158869 
L 77.071929 150.774091 
L 76.651906 153.657375 
L 80.933627 157.00337 
L 80.707556 159.762154 
L 78.253286 162.446567 
L 78.199687 165.286936 
L 85.181955 167.930927 
L 85.29737 170.550731 
L 15.521775 179.564746 
L 16.037425 184.369067 
L 87.662638 178.133241 
L 88.09761 180.670002 
L 63.728808 188.677554 
L 64.50715 191.961635 
L 83.940883 189.887139 
L 84.747263 192.53511 
L 81.273141 196.713542 
L 82.295477 199.442017 
L 89.788392 199.394551 
L 90.890814 201.853963 
L 62.446375 219.27189 
L 64.187303 222.581166 
L 96.650976 207.833421 
L 98.015342 210.072886 
L 57.22722 240.805589 
L 59.647796 244.26832 
L 54.229291 253.785808 
L 57.059476 257.336383 
L 83.217111 240.427193 
L 85.612938 243.072932 
L 85.901665 247.820835 
L 88.528638 250.37851 
L 98.40214 244.760018 
L 100.926694 246.926164 
L 118.231173 230.131091 
L 120.285957 231.681002 
L 94.087759 274.615 
L 97.553152 276.902039 
L 105.427734 271.777306 
L 108.798297 273.709194 
L 125.250185 250.105179 
L 127.929527 251.424521 
L 131.265147 251.242902 
L 133.977289 252.372558 
L 136.723608 253.41638 
L 139.501389 254.373335 
L 127.132071 307.11852 
L 131.603107 308.350502 
L 135.940881 310.194544 
L 140.504279 311.148037 
L 156.085227 243.338884 
L 158.536577 243.692051 
L 154.194739 314.678925 
L 158.890111 315.05626 
L 165.27746 264.351894 
L 168.38496 264.405647 
L 172.830352 309.126172 
L 177.341918 308.920308 
L 182.417015 314.723301 
L 187.099828 314.213243 
L 186.497007 279.992554 
L 190.085792 279.371385 
L 186.789077 247.732799 
L 189.3634 247.118397 
L 205.214009 292.412749 
L 209.184058 291.196936 
L 206.336651 270.95963 
L 209.631612 269.719125 
L 229.706675 307.37048 
L 234.134918 305.377168 
L 228.704187 283.971167 
L 232.3972 282.020944 
L 227.002683 264.659963 
L 230.08935 262.772787 
L 246.116791 279.960995 
L 249.675106 277.465265 
L 221.00977 233.341714 
L 223.114687 231.658453 
L 224.655499 229.330212 
L 226.632483 227.534305 
L 255.284486 252.451657 
L 257.973315 249.681276 
L 236.841839 225.874739 
L 238.704149 223.697375 
L 260.010763 236.61955 
L 262.199458 233.708391 
L 258.550228 226.820326 
L 260.431536 223.959935 
L 278.832193 230.87705 
L 280.831026 227.376944 
L 274.464955 219.605262 
L 276.111538 216.248044 
L 302.449789 223.583824 
L 304.20763 219.344735 
L 253.530001 196.202401 
L 254.451097 193.514995 
L 281.978586 198.562703 
L 282.959829 194.979645 
L 244.645227 182.600077 
L 245.143029 180.198754 
L 253.191291 178.992068 
L 253.571424 176.323822 
L 257.711037 174.008632 
L 257.932245 171.200739 
L 304.370933 169.843958 
L 261.197929 165.571034 
z
" clip-path="url(#pcdbe09acaa)" style="fill: #0000ff; opacity: 0.5; stroke: #000000; stroke-width: 1.5; stroke-linejoin: miter"/>
   </g>
  </g>
 </g>
 <defs>
  <clipPath id="pcdbe09acaa">
   <rect x="0" y="0" width="334.8" height="330.058939"/>
  </clipPath>
 </defs>
</svg>
