<?xml version="1.0" encoding="utf-8" standalone="no"?>
<!DOCTYPE svg PUBLIC "-//W3C//DTD SVG 1.1//EN"
  "http://www.w3.org/Graphics/SVG/1.1/DTD/svg11.dtd">
<svg xmlns:xlink="http://www.w3.org/1999/xlink" width="334.8pt" height="329.952394pt" viewBox="0 0 334.8 329.952394" xmlns="http://www.w3.org/2000/svg" version="1.1">
 <metadata>
  <rdf:RDF xmlns:dc="http://purl.org/dc/elements/1.1/" xmlns:cc="http://creativecommons.org/ns#" xmlns:rdf="http://www.w3.org/1999/02/22-rdf-syntax-ns#">
   <cc:Work>
    <dc:type rdf:resource="http://purl.org/dc/dcmitype/StillImage"/>
    <dc:date>2023-12-09T18:06:19.713123</dc:date>
    <dc:format>image/svg+xml</dc:format>
    <dc:creator>
     <cc:Agent>
      <dc:title>Matplotlib v3.8.2, https://matplotlib.org/</dc:title>
     </cc:Agent>
    </dc:creator>
   </cc:Work>
  </rdf:RDF>
 </metadata>
 <defs>
  <style type="text/css">*{stroke-linejoin: round; stroke-linecap: butt}</style>
 </defs>
 <g id="figure_1">
  <g id="patch_1">
   <path d="M 0 329.952394 
L 334.8 329.952394 
L 334.8 0 
L 0 0 
L 0 329.952394 
z
" style="fill: none"/>
  </g>
  <g id="axes_1">
   <g id="patch_2">
    <path d="M 305.170367 167.57002 
L 305.103875 163.341605 
L 307.231916 158.970794 
L 306.894026 154.681811 
L 254.750256 156.939765 
L 254.374454 154.301925 
L 253.152342 151.82301 
L 252.616449 149.237942 
L 286.632164 137.769567 
L 285.637846 134.138768 
L 300.053728 125.491619 
L 298.666729 121.444887 
L 313.774293 110.855745 
L 311.920326 106.384844 
L 248.746132 130.796744 
L 247.551306 128.360613 
L 276.926003 109.095645 
L 275.034914 105.784206 
L 285.506647 94.612794 
L 283.155943 91.038722 
L 246.120754 112.692517 
L 244.357989 110.347884 
L 266.467112 88.223107 
L 263.924915 85.250839 
L 276.579669 67.980776 
L 273.396009 64.700555 
L 265.32574 66.62597 
L 262.105046 63.700267 
L 229.59035 96.241725 
L 227.31851 94.424978 
L 230.922876 84.499359 
L 228.281171 82.64652 
L 218.096921 92.699344 
L 215.719383 91.245727 
L 220.772605 76.235577 
L 217.876087 74.705971 
L 228.470476 44.414651 
L 224.569632 42.65874 
L 227.462686 23.671787 
L 222.910139 21.957819 
L 202.513119 69.202031 
L 199.404479 68.25002 
L 209.153243 16.932731 
L 204.397858 15.797784 
L 198.74151 19.395631 
L 194.068713 18.586834 
L 187.350232 34.124009 
L 183.146159 33.666096 
L 179.834913 18.598636 
L 175.146404 18.384697 
L 170.454709 19.095635 
L 165.786464 19.176385 
L 163.927494 62.845258 
L 160.63806 63.109607 
L 155.186334 46.513987 
L 151.387732 47.061252 
L 155.840554 90.473994 
L 153.423827 90.978954 
L 150.829479 90.807074 
L 148.425703 91.469428 
L 134.205048 56.003248 
L 130.715182 57.205519 
L 139.342854 88.849573 
L 136.883209 89.87406 
L 107.200513 33.353719 
L 103.011848 35.41627 
L 125.579437 85.919433 
L 123.034467 87.378121 
L 113.849746 78.428918 
L 111.075057 80.260116 
L 107.901016 81.549766 
L 105.227395 83.566463 
L 103.115363 86.264064 
L 100.592336 88.428901 
L 74.666712 65.793225 
L 71.514102 68.862671 
L 95.152586 96.976358 
L 92.970313 99.386265 
L 66.857893 82.102266 
L 64.221936 85.409175 
L 82.482577 103.823334 
L 80.521853 106.628229 
L 47.75186 89.996231 
L 45.373553 93.899973 
L 90.19008 123.592331 
L 88.847125 126.145111 
L 48.146357 110.310504 
L 46.40658 114.191798 
L 80.243866 132.049801 
L 79.17175 134.91113 
L 57.470572 131.137334 
L 56.381026 134.715157 
L 52.390562 137.560905 
L 51.5055 141.295278 
L 83.590805 151.221994 
L 83.11985 153.968608 
L 34.901576 150.832502 
L 34.442449 155.110205 
L 69.812511 161.535516 
L 69.672649 164.710251 
L 15.218182 168.058934 
L 15.310423 172.947009 
L 17.107629 177.72717 
L 17.502927 182.551056 
L 49.656657 183.262177 
L 50.209894 187.059914 
L 28.752515 195.136356 
L 29.689438 199.585494 
L 89.442914 188.724638 
L 90.148232 191.268707 
L 55.486536 205.442374 
L 56.734285 209.045841 
L 29.946355 223.867862 
L 31.78607 228.265258 
L 76.596095 212.259099 
L 78.04774 215.195464 
L 38.121383 241.080239 
L 40.49825 245.212083 
L 80.326962 225.386451 
L 82.189514 228.19902 
L 57.798705 250.241691 
L 60.453899 253.750308 
L 74.562162 247.715538 
L 77.12964 250.698324 
L 92.775138 241.309067 
L 95.132178 243.722364 
L 106.571989 236.391259 
L 108.767581 238.373185 
L 79.959799 278.145012 
L 83.481377 280.94304 
L 107.988934 254.614223 
L 110.756795 256.542587 
L 110.687327 262.989424 
L 113.717188 264.828804 
L 118.661482 263.158147 
L 121.692705 264.746719 
L 136.907265 240.162343 
L 139.206429 241.188596 
L 140.970676 243.590053 
L 143.375606 244.486849 
L 141.779252 257.893668 
L 144.633519 258.757969 
L 140.485183 287.422237 
L 144.268532 288.312627 
L 153.623895 259.278397 
L 156.515844 259.769592 
L 159.703467 257.854625 
L 162.547644 258.155369 
L 163.049517 298.720544 
L 167.176954 298.895875 
L 171.3812 314.488247 
L 176.000288 314.393816 
L 180.299013 309.500731 
L 184.756874 309.128371 
L 183.535747 265.454409 
L 186.607095 265.002056 
L 191.156759 272.081966 
L 194.432723 271.386715 
L 209.311671 314.954558 
L 213.926667 313.667279 
L 201.179709 259.831188 
L 204.065527 258.826851 
L 226.627553 306.780539 
L 230.976979 304.952853 
L 212.848302 255.978471 
L 215.607212 254.609153 
L 214.163221 245.682168 
L 216.597743 244.276596 
L 253.005951 295.779845 
L 256.996449 293.128203 
L 221.318154 236.4785 
L 223.459755 234.852512 
L 224.551699 231.967446 
L 226.549864 230.242019 
L 224.746193 224.508394 
L 226.509733 222.780539 
L 260.685446 251.150564 
L 263.268904 248.279528 
L 286.82121 262.553701 
L 289.750286 258.855261 
L 257.830847 230.132308 
L 259.754857 227.361419 
L 239.194493 210.49744 
L 240.510354 208.322227 
L 240.390459 205.365625 
L 241.544373 203.155345 
L 269.429416 213.330606 
L 270.819409 210.20334 
L 288.048164 213.235384 
L 289.425957 209.522751 
L 298.09363 208.126571 
L 299.305824 204.100611 
L 317.734795 204.380248 
L 318.819485 199.73858 
L 290.708248 189.707086 
L 291.344945 185.922446 
L 302.667669 183.417079 
L 303.100681 179.259519 
L 311.163843 175.530188 
L 311.344673 171.109389 
L 305.167707 166.724203 
L 305.074622 162.49629 
L 307.175131 158.112181 
L 306.810272 153.825408 
L 254.681735 156.411273 
L 254.28935 153.775848 
L 253.051672 151.304669 
L 252.499531 148.723022 
L 286.442443 137.040934 
L 285.425309 133.416461 
L 299.78652 124.678815 
L 298.374096 120.640887 
L 313.414762 109.956936 
L 311.532713 105.497784 
L 248.513306 130.306531 
L 247.303181 127.877963 
L 276.556131 108.428626 
L 274.644252 105.129146 
L 285.045517 93.892094 
L 282.67238 90.332877 
L 245.774114 112.219174 
L 243.996637 109.885674 
L 265.96617 87.622281 
L 263.40533 84.66606 
L 275.951214 67.316748 
L 272.746987 64.056616 
L 264.688987 66.032749 
L 261.449956 63.127361 
L 229.140571 95.872674 
L 226.857349 94.070251 
L 230.399217 84.12216 
L 227.745911 82.285972 
L 217.625089 92.402651 
L 215.238456 90.964016 
L 220.197172 75.922381 
L 217.291091 74.411023 
L 227.694756 44.053668 
L 223.782946 42.322326 
L 226.556525 23.317554 
L 221.993288 21.632252 
L 201.89381 69.003815 
L 198.779244 68.071375 
L 208.205059 16.693787 
L 203.44263 15.588771 
L 197.809023 19.222122 
L 193.13123 18.442731 
L 186.510603 34.021853 
L 182.303733 33.590391 
L 178.897787 18.544054 
L 174.208025 18.359608 
L 169.520894 19.10004 
L 164.853249 19.210149 
L 163.268968 62.88985 
L 159.981262 63.174883 
L 154.425267 46.613879 
L 150.630182 47.185024 
L 155.355957 90.568902 
L 152.942454 91.089052 
L 150.347076 90.933492 
L 147.947513 91.610951 
L 133.504078 56.234912 
L 130.021843 57.459109 
L 138.848367 89.048274 
L 136.395214 90.088211 
L 106.357624 33.755675 
L 102.182014 35.84453 
L 125.066793 86.204756 
L 122.531047 87.679421 
L 113.290223 78.788163 
L 110.527106 80.636776 
L 107.361239 81.946363 
L 104.700355 83.979835 
L 102.605331 86.690667 
L 100.095969 88.87133 
L 74.028493 66.399159 
L 70.895251 69.488372 
L 94.710086 97.45283 
L 92.543013 99.876415 
L 66.322403 82.75699 
L 63.707297 86.080413 
L 82.083391 104.379358 
L 80.140347 107.196529 
L 47.266396 90.770965 
L 44.912689 94.689588 
L 89.915077 124.099488 
L 88.588205 126.660664 
L 47.78865 111.082355 
L 46.073319 114.974514 
L 80.022252 132.619347 
L 78.968154 135.487362 
L 57.24367 131.850129 
L 56.176649 135.434734 
L 52.204162 138.305523 
L 51.342604 142.045389 
L 83.489708 151.77011 
L 83.036037 154.519633 
L 34.798992 151.686854 
L 34.366778 155.96736 
L 69.776553 162.170086 
L 69.65666 165.345638 
L 15.224332 169.036742 
L 15.347314 173.924141 
L 17.174549 178.692903 
L 17.600179 183.514208 
L 49.757745 184.023086 
L 50.334857 187.817269 
L 28.928699 196.028505 
L 29.893586 200.471663 
L 89.577572 189.235206 
L 90.298876 191.774789 
L 55.72701 206.166178 
L 56.997398 209.761726 
L 30.303221 224.751935 
L 32.170556 229.137673 
L 76.879025 212.850001 
L 78.349109 215.777178 
L 38.586343 241.912555 
L 40.98915 246.029369 
L 80.692382 225.953629 
L 82.572587 228.754427 
L 58.320896 250.950066 
L 60.998105 254.441914 
L 75.068133 248.318531 
L 77.65432 251.28511 
L 93.240456 241.797637 
L 95.612627 244.196063 
L 107.006104 236.793152 
L 109.214117 238.76123 
L 80.657047 278.713455 
L 84.196154 281.489278 
L 108.537633 255.006844 
L 111.317568 256.917762 
L 111.288648 263.364908 
L 114.330018 265.185195 
L 119.263706 263.483475 
L 122.304861 265.05295 
L 137.364498 240.37337 
L 139.67007 241.385143 
L 141.449387 243.775455 
L 143.859909 244.657109 
L 142.347908 258.073703 
L 145.207555 258.920035 
L 141.239583 287.609827 
L 145.028458 288.476403 
L 154.201026 259.383908 
L 157.096008 259.856904 
L 160.271523 257.921927 
L 163.117536 258.204776 
L 163.874531 298.765993 
L 168.002989 298.915361 
L 172.305218 314.480982 
L 176.923621 314.357501 
L 181.191487 309.437477 
L 185.646918 309.037086 
L 184.151131 265.371669 
L 187.219572 264.900008 
L 191.813675 271.951163 
L 195.085201 271.235322 
L 210.237872 314.708723 
L 214.844681 313.392444 
L 201.759377 259.637589 
L 204.63882 258.615121 
L 227.502002 306.425959 
L 231.839847 304.570953 
L 213.403507 255.711559 
L 216.153751 254.324916 
L 214.653642 245.40719 
L 217.079275 243.986334 
L 253.81069 295.259577 
L 257.784432 292.58289 
L 221.750548 236.158703 
L 223.88188 234.519278 
L 224.955657 231.627401 
L 226.94293 229.889441 
L 225.103234 224.167273 
L 226.855872 222.428361 
L 261.20934 250.582879 
L 263.77469 247.695651 
L 287.416307 261.821412 
L 290.322063 258.104622 
L 258.222605 229.582993 
L 260.129149 226.800057 
L 239.463127 210.065725 
L 240.765281 207.882278 
L 240.626793 204.926489 
L 241.766783 202.708995 
L 269.715272 212.708675 
L 271.085568 209.572728 
L 288.333052 212.496353 
L 289.687467 208.775127 
L 298.346188 207.32446 
L 299.533037 203.290957 
L 317.963402 203.45468 
L 319.018877 198.806281 
L 290.845104 188.951789 
L 291.457985 185.16322 
L 302.764727 182.586689 
L 303.171582 178.426488 
L 311.211129 174.646518 
L 311.364151 170.224669 
L 305.159727 165.87842 
L 305.040053 161.651176 
L 307.112947 157.253942 
L 306.721134 152.969549 
L 254.609891 155.883221 
L 254.200939 153.250317 
L 252.947743 150.786971 
L 252.379375 148.208848 
L 286.248143 136.313509 
L 285.208233 132.695505 
L 299.514205 123.867708 
L 298.076413 119.838743 
L 313.049586 109.060406 
L 311.139528 104.61318 
L 248.2774 129.817792 
L 247.052025 127.396883 
L 276.182072 107.763946 
L 274.249478 104.476557 
L 284.579862 93.174308 
L 282.184387 89.630087 
L 245.424503 111.748021 
L 243.632385 109.425746 
L 265.46146 87.024618 
L 262.882078 84.084562 
L 275.318596 66.656686 
L 272.093928 63.416771 
L 264.048516 65.443546 
L 260.791276 62.558586 
L 228.688479 95.50646 
L 226.393966 93.718433 
L 229.873197 83.748262 
L 227.208394 81.928798 
L 217.151401 92.108931 
L 214.755766 90.685335 
L 219.619781 75.61281 
L 216.704252 74.119759 
L 226.916781 43.697572 
L 222.994158 41.990867 
L 225.648153 22.969026 
L 221.074408 21.312459 
L 201.273268 68.809499 
L 198.152898 67.896666 
L 207.255391 16.460811 
L 202.486106 15.38577 
L 196.875462 19.054482 
L 192.19286 18.304526 
L 185.670347 33.92498 
L 181.460847 33.519986 
L 177.960336 18.495368 
L 173.269506 18.340422 
L 168.587125 19.110318 
L 163.920265 19.249782 
L 162.610736 62.938583 
L 159.324888 63.244288 
L 153.664843 46.718556 
L 149.873425 47.313559 
L 154.871967 90.666856 
L 152.461783 91.202175 
L 149.865478 91.062941 
L 147.470224 91.75548 
L 132.804578 56.470981 
L 129.330112 57.717055 
L 138.35514 89.250082 
L 135.908576 90.305427 
L 105.51728 34.162924 
L 101.354891 36.278 
L 124.555954 86.493298 
L 122.029533 87.983883 
L 112.732971 79.150919 
L 109.981535 81.016874 
L 106.823968 82.346347 
L 104.175925 84.396515 
L 102.097993 87.120469 
L 99.602395 89.316871 
L 73.394097 67.009094 
L 70.280346 70.117953 
L 94.270591 97.932076 
L 92.118805 100.369243 
L 65.791041 83.415069 
L 63.19689 86.754873 
L 81.68771 104.937882 
L 79.762422 107.767218 
L 46.785815 91.548737 
L 44.4568 95.482086 
L 89.643269 124.608365 
L 88.332532 127.177835 
L 47.435806 111.856441 
L 45.744988 115.759311 
L 79.804226 133.190275 
L 78.768187 136.064864 
L 57.021256 132.564337 
L 55.976801 136.155582 
L 52.022448 139.051299 
L 51.184429 142.79651 
L 83.39206 152.318851 
L 82.955691 155.071173 
L 34.701784 152.541834 
L 34.2965 156.824974 
L 69.744586 162.804869 
L 69.644668 165.981113 
L 15.236632 170.014493 
L 15.390351 174.901021 
L 17.247542 179.658197 
L 17.703486 184.47673 
L 49.863618 184.783345 
L 50.464581 188.573822 
L 29.11049 196.919529 
L 30.103303 201.35653 
L 89.715438 189.744918 
L 90.4527 192.279914 
L 55.972032 206.888455 
L 57.265009 210.475942 
L 30.665639 225.633745 
L 32.560521 230.007652 
L 77.165666 213.439111 
L 78.654131 216.356985 
L 39.056528 242.74193 
L 41.48518 246.84355 
L 81.061362 226.518496 
L 82.959145 229.307414 
L 58.847532 251.655144 
L 61.546649 255.130084 
L 75.577886 248.918329 
L 78.182681 251.868584 
L 93.708838 242.283271 
L 96.096047 244.66673 
L 107.442738 237.192307 
L 109.663085 239.146458 
L 81.357857 279.277502 
L 84.914352 282.031011 
L 109.088791 255.396006 
L 111.880688 257.289402 
L 111.892318 263.736603 
L 114.945077 265.537726 
L 119.867964 263.805009 
L 122.91893 265.355326 
L 137.823048 240.581517 
L 140.134939 241.578769 
L 141.929254 243.957843 
L 144.345274 244.824318 
L 142.917686 258.250157 
L 145.782599 259.078487 
L 141.995148 287.792667 
L 145.789398 288.635397 
L 154.77881 259.485787 
L 157.676709 259.940566 
L 160.839992 257.985654 
L 163.687727 258.250599 
L 164.699814 298.806252 
L 168.82913 298.929652 
L 173.229173 314.467906 
L 177.846708 314.315381 
L 182.083545 309.368611 
L 186.536369 308.940206 
L 184.765981 265.28506 
L 187.831396 264.79411 
L 192.469755 271.816231 
L 195.736715 271.079828 
L 211.162509 314.457067 
L 215.760948 313.11184 
L 202.337815 259.440347 
L 205.210771 258.39979 
L 228.374203 306.065886 
L 232.700295 304.183634 
L 213.957023 255.441161 
L 216.698491 254.037247 
L 215.142324 245.129132 
L 217.558973 243.693049 
L 254.612141 294.734258 
L 258.568969 292.032631 
L 222.180922 235.836193 
L 224.301901 234.183395 
L 225.357469 231.284823 
L 227.333772 229.534398 
L 225.458123 223.823914 
L 227.199788 222.074013 
L 261.729654 250.01191 
L 264.276794 247.108605 
L 288.006786 261.085393 
L 290.889108 257.350402 
L 258.6109 229.031224 
L 260.499904 226.236353 
L 239.729041 209.632329 
L 241.017436 207.440736 
L 240.860361 204.485876 
L 241.986381 202.261256 
L 269.99721 212.084958 
L 271.347756 208.940454 
L 288.613286 211.755545 
L 289.944271 208.025874 
L 298.593696 206.520777 
L 299.755153 202.479889 
L 318.186183 202.527692 
L 319.212402 197.872748 
L 290.977207 188.195648 
L 291.566247 184.403299 
L 302.856561 181.755705 
L 303.237243 177.593027 
L 311.252857 173.762568 
L 311.378065 169.339845 
L 305.146428 165.032703 
L 305.00017 160.806296 
L 307.045366 156.396112 
L 306.626615 152.114267 
L 254.534728 155.355633 
L 254.109225 152.725352 
L 252.84056 150.269937 
L 252.255989 147.695439 
L 286.049271 135.587321 
L 284.986627 131.975928 
L 299.236794 123.05833 
L 297.773691 119.038487 
L 312.678778 108.16619 
L 310.740787 103.731065 
L 248.038425 129.330547 
L 246.797848 126.917392 
L 275.803839 107.101632 
L 273.850608 103.826463 
L 284.109703 92.459466 
L 281.691984 88.930381 
L 245.071936 111.279075 
L 243.265248 108.968119 
L 264.953001 86.430141 
L 262.355178 83.506366 
L 274.681839 66.000616 
L 271.436857 62.781046 
L 263.404352 64.858382 
L 260.129032 61.993966 
L 228.234093 95.143096 
L 225.92838 93.369536 
L 229.344835 83.377679 
L 226.668641 81.575012 
L 216.675874 91.818196 
L 214.271334 90.409695 
L 219.040455 75.306877 
L 216.115593 73.832193 
L 226.136581 43.346376 
L 222.203302 41.664376 
L 224.737608 22.626219 
L 220.153534 20.998451 
L 200.651515 68.619089 
L 197.525466 67.7259 
L 206.304276 16.233813 
L 201.528325 15.188789 
L 195.940866 18.892716 
L 191.25364 18.172226 
L 184.8295 33.833394 
L 180.617535 33.454883 
L 177.022597 18.452579 
L 172.330886 18.327138 
L 167.653439 19.126469 
L 162.987549 19.295282 
L 161.952823 62.991455 
L 158.668963 63.31782 
L 152.905092 46.828013 
L 149.117492 47.44685 
L 154.388603 90.767852 
L 151.981833 91.318319 
L 149.384704 91.195417 
L 146.993852 91.903007 
L 132.106578 56.711445 
L 128.640017 57.979346 
L 137.863191 89.454987 
L 135.423313 90.525699 
L 104.679514 34.575451 
L 100.53051 36.716664 
L 124.04694 86.785047 
L 121.529944 88.291492 
L 112.178011 79.517173 
L 109.438366 81.400396 
L 106.289222 82.749703 
L 103.654126 84.816484 
L 101.593367 87.553454 
L 99.111633 89.765508 
L 72.76355 67.623008 
L 69.669414 70.751389 
L 93.834119 98.414076 
L 91.697704 100.864729 
L 65.263829 84.076477 
L 62.690734 87.432531 
L 81.295549 105.498883 
L 79.388095 108.340272 
L 46.310135 92.329516 
L 44.005905 96.277435 
L 89.374668 125.118941 
L 88.080117 127.696604 
L 47.087837 112.63273 
L 45.421599 116.546158 
L 79.589794 133.762564 
L 78.571855 136.643611 
L 56.803338 133.27993 
L 55.781491 136.877673 
L 51.845429 139.798203 
L 51.030981 143.54861 
L 83.297865 152.868196 
L 82.878816 155.623208 
L 34.609955 153.397408 
L 34.231618 157.683013 
L 69.716612 163.439842 
L 69.636674 166.616651 
L 15.25508 170.992146 
L 15.43953 175.877611 
L 17.326605 180.623013 
L 17.812846 185.438582 
L 49.974269 185.542922 
L 50.599061 189.329545 
L 29.297882 197.809392 
L 30.318582 202.240061 
L 89.856507 190.253752 
L 90.609698 192.78406 
L 56.221592 207.609177 
L 57.537106 211.18846 
L 31.033597 226.513259 
L 32.95595 230.875162 
L 77.456007 214.026408 
L 78.962794 216.934862 
L 39.53192 243.568332 
L 41.986321 247.654596 
L 81.433887 227.081032 
L 83.349173 229.857958 
L 59.378591 252.356895 
L 62.099511 255.814791 
L 76.091402 249.51491 
L 78.714701 252.448724 
L 94.180264 242.76595 
L 96.582417 245.134347 
L 107.881873 237.588708 
L 110.114468 239.528856 
L 82.062201 279.837129 
L 85.635944 282.568216 
L 109.642385 255.781694 
L 112.446136 257.657493 
L 112.498314 264.104493 
L 115.562341 265.88638 
L 120.474233 264.122735 
L 123.534889 265.653833 
L 138.282899 240.786775 
L 140.601017 241.769468 
L 142.410259 244.13721 
L 144.831681 244.988472 
L 143.488562 258.423024 
L 146.358628 259.233319 
L 142.751847 287.970752 
L 146.551323 288.789602 
L 155.357222 259.58403 
L 158.257925 260.020574 
L 161.40885 258.045806 
L 164.258194 258.292834 
L 165.525334 298.841319 
L 169.655344 298.938746 
L 174.153027 314.449019 
L 178.769512 314.267455 
L 182.975153 309.294136 
L 187.425194 308.837734 
L 185.380275 265.194586 
L 188.442541 264.684365 
L 193.124974 271.677175 
L 196.387238 270.920239 
L 212.085544 314.199602 
L 216.675432 312.82548 
L 202.915001 259.239472 
L 205.781356 258.180866 
L 229.244123 305.700334 
L 233.558291 303.790911 
L 214.508827 255.167286 
L 217.241411 253.746158 
L 215.629248 244.848007 
L 218.036817 243.396752 
L 255.410272 294.203909 
L 259.35003 291.477449 
L 222.609259 235.510983 
L 224.719801 233.844878 
L 225.757117 230.939724 
L 227.722372 229.176903 
L 225.810844 223.478329 
L 227.54147 221.717509 
L 262.246366 249.43768 
L 264.775195 246.518412 
L 288.592624 260.345676 
L 291.451399 256.592631 
L 258.995717 228.477024 
L 260.867105 225.670327 
L 239.992223 209.197269 
L 241.266809 206.997616 
L 241.091153 204.043802 
L 242.203159 201.812145 
L 270.275219 211.45948 
L 271.605961 208.306544 
L 288.888856 211.012989 
L 290.196356 207.275021 
L 298.836144 205.715554 
L 299.972163 201.66744 
L 318.40313 201.599322 
L 319.400051 196.938015 
L 291.104551 187.43869 
L 291.669728 183.642711 
L 302.943167 180.92416 
L 303.29766 176.759171 
L 311.289024 172.878373 
L 311.386414 168.45495 
L 305.127811 164.187087 
L 304.954973 159.961683 
L 306.972392 155.538723 
L 306.526718 151.259597 
L 254.456248 154.828527 
L 254.01421 152.200974 
L 252.730127 149.753587 
L 252.129376 147.182817 
L 285.845836 134.862397 
L 284.7605 131.25776 
L 298.954298 122.250712 
L 297.465942 118.240151 
L 312.302353 107.274325 
L 310.336506 102.851476 
L 247.796391 128.844814 
L 246.540661 126.439509 
L 275.421448 106.44171 
L 273.447657 103.17889 
L 283.635057 91.747594 
L 281.195189 88.233785 
L 244.716427 110.812357 
L 242.89524 108.512809 
L 264.440812 85.838873 
L 261.824652 82.931495 
L 274.040968 65.348564 
L 270.775801 62.149466 
L 262.75652 64.277281 
L 259.463249 61.433521 
L 227.77743 94.782597 
L 225.460608 93.023574 
L 228.814152 83.010427 
L 226.126674 81.224627 
L 216.198529 91.530458 
L 213.785177 90.137108 
L 218.459215 75.004593 
L 215.525136 73.548334 
L 225.354188 43.000094 
L 221.410408 41.342865 
L 223.824925 22.289146 
L 219.230703 20.69024 
L 200.028577 68.432594 
L 196.896973 67.559084 
L 205.351753 16.012801 
L 200.569323 14.997836 
L 195.00527 18.736831 
L 190.313605 18.045836 
L 183.988092 33.747099 
L 179.773831 33.395085 
L 176.084607 18.415688 
L 171.3922 18.319758 
L 166.719873 19.148491 
L 162.055137 19.346647 
L 161.295256 63.048464 
L 158.013513 63.395476 
L 152.146045 46.942247 
L 148.362412 47.584893 
L 153.905883 90.871886 
L 151.502623 91.437479 
L 148.904772 91.330915 
L 146.518418 92.053527 
L 131.410103 56.956294 
L 127.951585 58.245973 
L 137.372541 89.662983 
L 134.939445 90.749018 
L 103.844359 34.993238 
L 99.708904 37.160504 
L 123.539771 87.079992 
L 121.032299 88.602237 
L 111.625366 79.88691 
L 108.897619 81.787327 
L 105.757024 83.156413 
L 103.134979 85.239727 
L 101.091475 87.989604 
L 98.623703 90.217223 
L 72.136877 68.240875 
L 69.062478 71.388655 
L 93.400688 98.898813 
L 91.279728 101.362853 
L 64.740787 84.741188 
L 62.188851 88.113359 
L 80.906925 106.062339 
L 79.017379 108.915669 
L 45.839375 93.113272 
L 43.56002 97.075605 
L 89.109283 125.631196 
L 87.830969 128.216951 
L 46.744757 113.411193 
L 45.103166 117.335023 
L 79.378966 134.336189 
L 78.379168 137.223582 
L 56.589926 133.996879 
L 55.590726 137.600978 
L 51.67311 140.546206 
L 50.882267 144.301661 
L 83.207128 153.418122 
L 82.805414 156.175715 
L 34.523509 154.253543 
L 34.172133 158.541443 
L 69.692633 164.074977 
L 69.632676 167.252226 
L 15.279678 171.969665 
L 15.494851 176.853873 
L 17.411734 181.587312 
L 17.928253 186.399728 
L 50.089696 186.301789 
L 50.738292 190.084407 
L 29.490867 198.698059 
L 30.539413 203.12222 
L 90.000773 190.761688 
L 90.769864 193.28721 
L 56.475679 208.328315 
L 57.813679 211.899254 
L 31.407078 227.390442 
L 33.356828 231.740167 
L 77.750035 214.611866 
L 79.275085 217.510786 
L 40.0125 244.391727 
L 42.492553 248.462473 
L 81.809943 227.641214 
L 83.742657 230.406039 
L 59.914054 253.055292 
L 62.656668 256.496006 
L 76.60866 250.10825 
L 79.250359 253.025506 
L 94.654717 243.245654 
L 97.071718 245.598896 
L 108.323494 237.982339 
L 110.568246 239.908407 
L 82.77005 280.392316 
L 86.360899 283.100872 
L 110.198394 256.163893 
L 113.013887 258.022021 
L 113.106613 264.468565 
L 116.181785 266.231146 
L 121.082488 264.436643 
L 124.152713 265.948461 
L 138.744032 240.989138 
L 141.068284 241.957231 
L 142.892383 244.313548 
L 145.31911 245.149564 
L 144.060514 258.592297 
L 146.935619 259.384525 
L 143.509652 288.144074 
L 147.314203 288.939011 
L 155.936242 259.678633 
L 158.839632 260.096924 
L 161.978074 258.102378 
L 164.828917 258.33148 
L 166.351058 298.871194 
L 170.481599 298.942644 
L 175.076744 314.424322 
L 179.691995 314.213726 
L 183.866274 309.214055 
L 188.313357 308.729674 
L 185.993988 265.10025 
L 189.052984 264.57078 
L 193.779305 271.534001 
L 197.036744 270.756563 
L 213.006943 313.936335 
L 217.588097 312.533373 
L 203.490913 259.03497 
L 206.350553 257.958357 
L 230.111726 305.329318 
L 234.4138 303.392799 
L 215.058897 254.889946 
L 217.782489 253.45166 
L 216.114394 244.563824 
L 218.512788 243.097456 
L 256.205052 293.66855 
L 260.127584 290.917365 
L 223.035543 235.183084 
L 225.135563 233.503738 
L 226.154588 230.592118 
L 228.108716 228.816972 
L 226.161386 223.130533 
L 227.880903 221.358863 
L 262.759456 248.860212 
L 265.269875 245.925096 
L 289.173798 259.602289 
L 292.008912 255.831338 
L 259.377041 227.920415 
L 261.23074 225.102004 
L 240.252664 208.760562 
L 241.513391 206.552936 
L 241.31916 203.600286 
L 242.417108 201.361679 
L 270.549289 210.832265 
L 271.860175 207.671023 
L 289.15975 210.268714 
L 290.443715 206.522597 
L 299.073523 204.908821 
L 300.18406 200.853643 
L 318.614233 200.669606 
L 319.581818 196.002121 
L 291.227132 186.680946 
L 291.768424 182.881488 
L 303.024541 180.092087 
L 303.352832 175.92495 
L 311.31963 171.993969 
L 305.170367 167.57002 
z
" clip-path="url(#pda461638cc)" style="fill: #0000ff; opacity: 0.5; stroke: #000000; stroke-width: 1.5; stroke-linejoin: miter"/>
   </g>
  </g>
 </g>
 <defs>
  <clipPath id="pda461638cc">
   <rect x="0" y="0" width="334.8" height="329.952394"/>
  </clipPath>
 </defs>
</svg>
