<?xml version="1.0" encoding="utf-8" standalone="no"?>
<!DOCTYPE svg PUBLIC "-//W3C//DTD SVG 1.1//EN"
  "http://www.w3.org/Graphics/SVG/1.1/DTD/svg11.dtd">
<svg xmlns:xlink="http://www.w3.org/1999/xlink" width="327.561717pt" height="332.64pt" viewBox="0 0 327.561717 332.64" xmlns="http://www.w3.org/2000/svg" version="1.1">
 <metadata>
  <rdf:RDF xmlns:dc="http://purl.org/dc/elements/1.1/" xmlns:cc="http://creativecommons.org/ns#" xmlns:rdf="http://www.w3.org/1999/02/22-rdf-syntax-ns#">
   <cc:Work>
    <dc:type rdf:resource="http://purl.org/dc/dcmitype/StillImage"/>
    <dc:date>2023-12-09T18:06:19.822462</dc:date>
    <dc:format>image/svg+xml</dc:format>
    <dc:creator>
     <cc:Agent>
      <dc:title>Matplotlib v3.8.2, https://matplotlib.org/</dc:title>
     </cc:Agent>
    </dc:creator>
   </cc:Work>
  </rdf:RDF>
 </metadata>
 <defs>
  <style type="text/css">*{stroke-linejoin: round; stroke-linecap: butt}</style>
 </defs>
 <g id="figure_1">
  <g id="patch_1">
   <path d="M 0 332.64 
L 327.561717 332.64 
L 327.561717 0 
L 0 0 
L 0 332.64 
z
" style="fill: none"/>
  </g>
  <g id="axes_1">
   <g id="patch_2">
    <path d="M 264.938061 162.782037 
L 264.890003 159.72591 
L 310.532763 153.789247 
L 310.179409 149.303969 
L 286.541925 147.758652 
L 286.010818 144.03068 
L 268.559473 143.529934 
L 267.904297 140.36946 
L 280.706023 133.746937 
L 279.737242 130.209386 
L 312.672548 115.640127 
L 311.118645 111.106432 
L 272.556415 121.236429 
L 271.198305 117.961305 
L 266.220714 116.387452 
L 264.713275 113.313934 
L 256.297787 114.038812 
L 254.721408 111.278454 
L 250.433809 110.237118 
L 248.740795 107.663016 
L 290.983192 73.121963 
L 288.103148 69.29125 
L 287.499272 63.56872 
L 284.320575 59.852272 
L 254.970626 80.742827 
L 252.348004 78.04066 
L 257.087349 67.480495 
L 254.046684 64.718331 
L 263.298784 47.063718 
L 259.6131 44.116347 
L 257.205946 39.397786 
L 253.28224 36.645778 
L 222.234549 76.720694 
L 219.501648 75.049809 
L 231.298738 46.875314 
L 227.622952 44.934188 
L 220.254831 50.853107 
L 216.709576 49.257259 
L 224.816659 18.117426 
L 220.239866 16.394329 
L 209.148521 34.791406 
L 205.103741 33.552706 
L 189.863804 76.13968 
L 187.12864 75.48689 
L 191.028117 39.775777 
L 187.149016 39.104358 
L 178.626338 75.5918 
L 175.879503 75.292611 
L 175.745566 32.393074 
L 171.641893 32.205822 
L 167.549033 41.478716 
L 163.735085 41.544689 
L 162.329611 78.97716 
L 159.697277 79.188703 
L 156.974128 78.711619 
L 154.336093 79.091681 
L 140.829609 23.051402 
L 136.449477 23.966603 
L 143.395859 68.681652 
L 140.449173 69.493603 
L 137.771156 71.136878 
L 134.904449 72.124468 
L 122.577507 49.36178 
L 119.033655 50.837858 
L 112.545506 46.098413 
L 108.904007 47.891533 
L 104.944669 49.117638 
L 101.401859 51.148252 
L 98.760757 54.600547 
L 95.393399 56.822886 
L 119.603831 96.83438 
L 117.554091 98.380485 
L 111.577919 95.20614 
L 109.480952 97.005403 
L 62.084564 50.794066 
L 58.615656 54.171467 
L 100.703185 100.131326 
L 98.766455 102.270079 
L 95.096865 102.986127 
L 93.252667 105.299744 
L 58.710248 83.985777 
L 56.286628 87.452863 
L 53.973219 90.994439 
L 51.772309 94.607002 
L 96.771073 124.010443 
L 95.587098 126.261024 
L 88.83868 125.91431 
L 87.718488 128.413361 
L 86.677427 130.946398 
L 85.716524 133.510916 
L 47.826446 124.19471 
L 46.672465 127.984126 
L 63.727322 136.396706 
L 62.949136 139.680131 
L 70.681219 144.564313 
L 70.156402 147.625054 
L 50.434442 148.322583 
L 50.037804 152.018068 
L 24.142998 154.191904 
L 23.943904 158.711148 
L 24.664585 163.231973 
L 24.749473 167.730347 
L 14.889169 172.890912 
L 15.282588 177.691872 
L 45.900912 178.578869 
L 46.45784 182.40194 
L 19.655062 191.542625 
L 20.632575 196.184512 
L 75.182767 186.882006 
L 75.986286 189.780285 
L 83.528772 190.466269 
L 84.440861 193.10036 
L 94.098946 192.23895 
L 95.061546 194.539815 
L 78.536271 205.149285 
L 79.912495 207.93309 
L 59.614509 222.739073 
L 61.55315 226.109124 
L 54.426973 235.283743 
L 56.76261 238.810699 
L 96.221716 215.156428 
L 97.903842 217.379217 
L 75.168409 239.963852 
L 77.640944 242.836338 
L 80.202574 245.629661 
L 82.850765 248.34106 
L 78.16228 258.933024 
L 81.229767 261.701997 
L 115.949935 225.900777 
L 117.960133 227.497955 
L 82.752344 280.768532 
L 86.504118 283.382387 
L 100.68429 269.420441 
L 104.070389 271.476088 
L 120.901741 248.837092 
L 123.630658 250.267234 
L 112.952404 280.515485 
L 116.68129 282.179909 
L 130.652567 257.654456 
L 133.653901 258.773652 
L 138.822203 253.132711 
L 141.677324 253.997271 
L 143.038115 260.803736 
L 146.132346 261.531946 
L 150.243656 256.81125 
L 153.208791 257.314875 
L 158.066583 242.287138 
L 160.57118 242.551974 
L 162.675953 249.724367 
L 165.412114 249.840598 
L 168.469687 317.52 
L 173.334627 317.420543 
L 173.728644 251.224345 
L 176.506502 250.992313 
L 182.615039 276.115191 
L 186.171127 275.591444 
L 188.662836 269.614522 
L 192.011538 268.903834 
L 196.518945 272.601328 
L 199.957675 271.64215 
L 206.048605 278.696737 
L 209.674276 277.434911 
L 198.182218 238.540991 
L 200.549194 237.546356 
L 233.00712 299.645579 
L 237.278139 297.525761 
L 211.22783 240.917557 
L 213.66308 239.511565 
L 242.940238 279.906657 
L 246.585712 277.48428 
L 238.642959 259.282774 
L 241.642097 257.00571 
L 239.5793 248.670963 
L 242.244317 246.369705 
L 254.472646 254.13626 
L 257.302139 251.36402 
L 265.740803 253.795676 
L 268.554017 250.669309 
L 262.238955 240.071674 
L 264.622388 237.062198 
L 251.118576 222.642131 
L 252.959484 219.990922 
L 234.948768 204.896527 
L 236.23971 202.762506 
L 289.413497 228.758808 
L 291.427792 224.900498 
L 264.394045 207.575438 
L 265.754659 204.514269 
L 278.612929 205.923341 
L 279.914568 202.415916 
L 308.520471 207.596283 
L 309.859923 203.147672 
L 283.149336 191.67255 
L 284.000655 188.029536 
L 300.030766 187.182408 
L 300.732559 183.010825 
L 273.509369 175.482018 
L 273.856389 172.15011 
L 308.257475 170.744587 
L 308.438359 166.322465 
L 264.936138 162.170715 
L 264.86886 159.114951 
L 310.473379 152.891338 
L 310.091822 148.408371 
L 286.445087 147.011751 
L 285.890543 143.287193 
L 268.436394 142.896216 
L 267.761353 139.739925 
L 280.521174 133.037018 
L 279.530163 129.50563 
L 312.373186 114.729515 
L 310.790798 110.205682 
L 272.293043 120.578013 
L 270.914362 117.311496 
L 265.92697 115.76898 
L 264.40023 112.705004 
L 255.989469 113.482796 
L 254.395759 110.732407 
L 250.101695 109.718058 
L 248.392526 107.154655 
L 290.416843 72.348605 
L 287.512763 68.536082 
L 286.872908 62.817463 
L 283.6709 59.121081 
L 254.452921 80.195816 
L 251.813356 77.510198 
L 256.486189 66.920434 
L 253.428211 64.177449 
L 262.569092 46.464995 
L 258.864943 43.540863 
L 256.42816 38.837534 
L 252.487223 36.110259 
L 221.692195 76.379654 
L 218.948839 74.725992 
L 230.568494 46.477856 
L 226.880571 44.559887 
L 219.549823 50.525031 
L 215.994601 48.951512 
L 223.905672 17.761306 
L 219.318132 16.067029 
L 208.342713 34.5335 
L 204.290223 33.320264 
L 189.318435 76.002246 
L 186.579219 75.366672 
L 190.254017 39.631739 
L 186.37077 38.984731 
L 178.077746 75.525054 
L 175.329083 75.243147 
L 174.925335 32.345301 
L 170.820565 32.183863 
L 166.786108 41.482315 
L 162.97265 41.572274 
L 161.802633 79.012845 
L 159.171681 79.240939 
L 156.445586 78.780992 
L 153.809993 79.177638 
L 139.951315 23.223416 
L 135.577025 24.166147 
L 142.804503 68.836622 
L 139.862982 69.667091 
L 137.195353 71.327176 
L 134.334914 72.332777 
L 121.865051 49.648068 
L 118.330553 51.146406 
L 111.812724 46.447861 
L 108.182575 48.263849 
L 104.231027 49.514832 
L 100.701058 51.567688 
L 98.081721 55.036526 
L 94.728407 57.28 
L 119.190009 97.138432 
L 117.150035 98.697398 
L 111.154015 95.560703 
L 109.068407 97.373119 
L 61.382313 51.460792 
L 57.934716 54.859944 
L 100.310474 100.554187 
L 98.387233 102.705079 
L 94.722219 103.444192 
L 92.892609 105.769362 
L 58.21682 84.67307 
L 55.815054 88.15533 
L 53.523966 91.711386 
L 51.34582 95.33772 
L 96.528625 124.457562 
L 95.358829 126.715545 
L 88.608363 126.411282 
L 87.503912 128.917329 
L 86.478802 131.456864 
L 85.534047 134.027375 
L 47.586126 124.94966 
L 46.456 128.746259 
L 63.56343 137.051407 
L 62.805911 140.339661 
L 70.568559 145.175117 
L 70.063003 148.239098 
L 50.345821 149.060653 
L 49.972433 152.75856 
L 24.091811 155.095216 
L 23.921144 159.615623 
L 24.670245 164.131826 
L 24.783423 168.629577 
L 14.955771 173.852056 
L 15.379378 178.650446 
L 46.002675 179.344854 
L 46.583637 183.164346 
L 19.838878 192.473425 
L 20.845567 197.109072 
L 75.336173 187.46366 
L 76.157904 190.356828 
L 83.704555 190.995361 
L 84.633193 193.623663 
L 94.28567 192.701527 
L 95.262722 194.996291 
L 78.804502 205.709486 
L 80.198207 208.484581 
L 59.993744 223.417934 
L 61.953542 226.775725 
L 54.885208 235.994982 
L 57.242982 239.507178 
L 96.552536 215.6052 
L 98.248609 217.817366 
L 75.655669 240.544547 
L 78.146222 243.401425 
L 80.72537 246.178582 
L 83.390562 248.873271 
L 78.768787 259.494514 
L 81.853629 262.244139 
L 116.347941 226.225257 
L 118.368144 227.809761 
L 83.496093 281.300721 
L 87.264232 283.890928 
L 101.356311 269.840073 
L 104.755272 271.874382 
L 121.443905 249.129975 
L 124.181763 250.542925 
L 113.693964 280.857738 
L 117.433245 282.498677 
L 131.249995 257.885837 
L 134.258308 258.986134 
L 139.39103 253.312799 
L 142.251532 254.159385 
L 143.655105 260.957157 
L 146.753854 261.665891 
L 150.835392 256.919431 
L 153.803636 257.404397 
L 158.566816 242.346404 
L 161.07303 242.595483 
L 163.222871 249.754496 
L 165.959709 249.853515 
L 169.442887 317.512349 
L 174.307105 317.382296 
L 174.284777 251.184929 
L 177.061122 250.935431 
L 183.327546 276.019392 
L 186.88027 275.47329 
L 189.334338 269.480814 
L 192.678504 268.749079 
L 197.209077 272.418151 
L 200.641706 271.437364 
L 206.776885 278.453503 
L 210.394548 277.168899 
L 198.658097 238.348027 
L 201.01877 237.338525 
L 233.866623 299.232377 
L 238.124226 297.085739 
L 211.718398 240.642496 
L 214.144757 239.221215 
L 243.675398 279.431372 
L 247.305564 276.986115 
L 239.248492 258.834925 
L 242.233249 256.539043 
L 240.118072 248.217434 
L 242.768562 245.89946 
L 255.045496 253.588952 
L 257.857498 250.798971 
L 266.311289 253.177505 
L 269.104784 250.033506 
L 262.723194 239.475799 
L 265.087652 236.451392 
L 251.493413 222.116542 
L 253.31761 219.453807 
L 235.212315 204.472988 
L 236.48981 202.33089 
L 289.826046 227.992244 
L 291.816035 224.121342 
L 264.673858 206.966652 
L 266.015192 203.896985 
L 278.882071 205.225159 
L 280.161624 201.709616 
L 308.799543 206.709966 
L 310.110989 202.253018 
L 283.328758 190.946118 
L 284.157148 187.297822 
L 300.181614 186.34989 
L 300.857156 182.173976 
L 273.587152 174.816536 
L 273.91321 171.482512 
L 308.304776 169.860653 
L 308.457844 165.437481 
L 264.930371 161.559417 
L 264.843875 158.504136 
L 310.408349 151.99382 
L 309.998604 147.513341 
L 286.343553 146.265473 
L 285.765595 142.544477 
L 268.309332 142.263284 
L 267.614453 139.111302 
L 280.331864 132.328275 
L 279.318662 128.80319 
L 312.068102 113.820803 
L 310.457294 109.307012 
L 272.025536 119.921267 
L 270.626338 116.663486 
L 265.629343 115.152368 
L 264.083362 112.098055 
L 255.677659 112.928731 
L 254.066683 110.188419 
L 249.766324 109.201098 
L 248.041066 106.648495 
L 289.845642 71.578824 
L 286.917641 67.784642 
L 286.241831 62.07016 
L 283.016638 58.39399 
L 253.931785 79.652073 
L 251.275381 76.983109 
L 255.881519 66.364165 
L 252.80635 63.640467 
L 261.835648 45.870872 
L 258.113181 42.970096 
L 255.646865 38.282186 
L 251.688853 35.579751 
L 221.147705 76.042033 
L 218.394003 74.405657 
L 229.835764 46.084999 
L 226.135851 44.190263 
L 218.842766 50.201396 
L 215.277717 48.650268 
L 222.992462 17.410922 
L 218.394358 15.745532 
L 207.535299 34.280667 
L 203.475259 33.092943 
L 188.772212 75.868245 
L 186.029053 75.249911 
L 189.479026 39.492573 
L 185.591786 38.870001 
L 177.528744 75.461759 
L 174.778363 75.197146 
L 174.104819 32.302688 
L 169.999116 32.167069 
L 166.02322 41.490712 
L 162.210404 41.604654 
L 161.275889 79.051843 
L 158.646425 79.29648 
L 155.917491 78.853687 
L 153.284445 79.266902 
L 139.07412 23.40095 
L 134.705846 24.371174 
L 142.214132 68.995309 
L 139.277893 69.844262 
L 136.620758 71.521092 
L 133.7667 72.544664 
L 121.15441 49.938832 
L 117.629405 51.45937 
L 111.082154 46.801912 
L 107.463498 48.640695 
L 103.519896 49.916506 
L 100.002909 51.991523 
L 97.405441 55.476766 
L 94.066303 57.741286 
L 118.778108 97.445081 
L 116.747979 99.016847 
L 110.73235 95.917925 
L 108.658182 97.743423 
L 60.684269 52.131922 
L 57.258119 55.55269 
L 99.92043 100.97951 
L 98.010755 103.142456 
L 94.350462 103.904605 
L 92.535512 106.241236 
L 57.727725 85.363452 
L 55.347908 88.860749 
L 53.079231 92.431144 
L 50.923936 96.071106 
L 96.288994 124.906198 
L 95.133422 127.171494 
L 88.381177 126.909693 
L 87.292509 129.422637 
L 86.283392 131.968569 
L 85.354823 134.544971 
L 47.350558 125.706107 
L 46.244333 129.509739 
L 63.40366 137.707126 
L 62.666836 141.00008 
L 70.459744 145.786617 
L 69.973468 148.853717 
L 50.261843 149.799266 
L 49.91172 153.499448 
L 24.046307 155.998832 
L 23.904074 160.520224 
L 24.681564 165.031625 
L 24.823028 169.528576 
L 15.028417 174.812762 
L 15.482194 179.608393 
L 46.109254 180.110184 
L 46.714226 183.925946 
L 20.028546 193.40305 
L 21.06437 198.032275 
L 75.493234 188.044338 
L 76.333145 190.932281 
L 83.883663 191.523337 
L 84.828813 194.145746 
L 94.4753 193.16292 
L 95.466765 195.451494 
L 79.07625 206.267989 
L 80.487381 209.034264 
L 60.37724 224.094396 
L 62.358118 227.439794 
L 55.347908 236.703325 
L 57.727725 240.200623 
L 96.886172 216.051883 
L 98.596124 218.253337 
L 76.146573 241.122166 
L 78.655044 243.963323 
L 81.251608 246.724203 
L 83.933696 249.402077 
L 79.378813 260.052178 
L 82.480888 262.782347 
L 116.747979 226.547228 
L 118.778108 228.118994 
L 84.243175 281.828222 
L 88.02753 284.394678 
L 102.030958 270.25547 
L 105.442647 272.268361 
L 121.9879 249.419442 
L 124.734591 250.815145 
L 114.437662 281.19532 
L 118.187189 282.812708 
L 131.848865 258.113456 
L 134.864039 259.19481 
L 139.960978 253.489306 
L 142.826748 254.317884 
L 144.273047 261.106694 
L 147.376192 261.795925 
L 151.427798 257.023888 
L 154.399033 257.490176 
L 159.067413 242.402523 
L 161.575143 242.635834 
L 163.769968 249.781184 
L 166.507374 249.862989 
L 170.416019 317.498577 
L 175.279323 317.337933 
L 174.840652 251.142016 
L 177.615372 250.875061 
L 184.039437 275.919114 
L 187.588655 275.350678 
L 190.004985 269.342886 
L 193.344483 268.590132 
L 197.898043 272.230637 
L 201.324436 271.228281 
L 207.503621 278.205694 
L 211.113133 276.898363 
L 199.132753 238.152073 
L 201.48703 237.127744 
L 234.72351 298.813778 
L 238.967528 296.640404 
L 212.207226 240.364356 
L 214.624598 238.927843 
L 244.407555 278.951473 
L 248.02227 276.483432 
L 239.851196 258.383276 
L 242.821454 256.068666 
L 240.653981 247.760526 
L 243.28984 245.425928 
L 255.614894 253.038053 
L 258.409293 250.230441 
L 266.877876 252.555758 
L 269.651542 249.394252 
L 263.203676 238.87689 
L 265.549065 235.837672 
L 251.864937 221.588605 
L 253.67235 218.91445 
L 235.473193 204.047799 
L 236.73719 201.897709 
L 290.233767 227.223101 
L 292.199371 223.339759 
L 264.949837 206.356117 
L 266.271838 203.278075 
L 279.146816 204.525297 
L 280.404233 201.001776 
L 309.073035 205.821911 
L 310.356424 201.356803 
L 283.503608 190.218572 
L 284.309036 186.565137 
L 300.327223 185.51644 
L 300.976487 181.336359 
L 273.660749 174.150577 
L 273.965831 170.814569 
L 308.346516 168.976438 
L 308.471762 164.552391 
L 264.920759 160.948167 
L 264.815049 157.893491 
L 310.337675 151.096729 
L 309.899759 146.618916 
L 286.237327 145.519849 
L 285.635978 141.802561 
L 268.178292 141.631165 
L 267.463602 138.483615 
L 280.1381 131.620737 
L 279.102748 128.102094 
L 311.757309 112.914028 
L 310.118143 108.410457 
L 271.753903 119.266216 
L 270.334243 116.017299 
L 265.327843 114.53764 
L 263.762683 111.493111 
L 255.36237 112.376637 
L 253.734191 109.646512 
L 249.427708 108.686257 
L 247.686429 106.144556 
L 289.26961 70.812652 
L 286.317804 67.036959 
L 285.606066 61.326841 
L 282.357816 57.671029 
L 253.40724 79.111619 
L 250.734102 76.459415 
L 255.273361 65.811711 
L 252.181123 63.107407 
L 261.098482 45.281375 
L 257.357844 42.404068 
L 254.862093 37.731763 
L 250.887162 35.054274 
L 220.601104 75.707843 
L 217.837164 74.088819 
L 229.100577 45.696759 
L 225.388821 43.825331 
L 218.133686 49.882213 
L 214.558952 48.353539 
L 222.077068 17.066289 
L 217.468579 15.429852 
L 206.726311 34.032917 
L 202.658881 32.870752 
L 188.225158 75.737682 
L 185.478164 75.136613 
L 188.703175 39.358284 
L 184.812097 38.760173 
L 176.979355 75.401919 
L 174.227365 75.15461 
L 173.284052 32.265236 
L 169.177577 32.155443 
L 165.2604 41.503907 
L 161.448376 41.641827 
L 160.749402 79.094153 
L 158.121528 79.355323 
L 155.389863 78.929702 
L 152.759468 79.359469 
L 138.198059 23.583997 
L 133.835974 24.581677 
L 141.624772 69.157706 
L 138.69393 70.025109 
L 136.047394 71.718618 
L 133.19983 72.76012 
L 120.445611 50.234059 
L 116.93024 51.776738 
L 110.353825 47.16055 
L 106.746806 49.022056 
L 102.811306 50.322645 
L 99.307439 52.419741 
L 96.731942 55.921252 
L 93.407113 58.206728 
L 118.368144 97.754314 
L 116.347941 99.338817 
L 110.312941 96.277792 
L 108.250295 98.116299 
L 59.99046 52.807429 
L 56.585892 56.249677 
L 99.533068 101.407278 
L 97.637035 103.582191 
L 93.981608 104.367347 
L 92.18139 106.715347 
L 57.242982 86.056896 
L 54.885208 89.569092 
L 52.639032 93.153686 
L 50.506673 96.807131 
L 96.05219 125.356332 
L 94.910888 127.628851 
L 88.15713 127.409523 
L 87.084288 129.929265 
L 86.091203 132.481493 
L 85.178857 135.063684 
L 47.119752 126.46402 
L 46.037472 130.274534 
L 63.248016 138.363837 
L 62.531918 141.66136 
L 70.354776 146.398789 
L 69.887801 149.468887 
L 50.182512 150.538392 
L 49.855669 154.240703 
L 24.006486 156.902717 
L 23.892693 161.424913 
L 24.698542 165.931336 
L 24.868287 170.427308 
L 15.107104 175.772991 
L 15.591034 180.565674 
L 46.220644 180.874828 
L 46.849603 184.68671 
L 20.224056 194.331464 
L 21.288975 198.954083 
L 75.653944 188.624017 
L 76.512002 191.50662 
L 84.066088 192.050176 
L 85.027713 194.666589 
L 94.667827 193.623111 
L 95.673667 195.905404 
L 79.351506 206.824773 
L 80.780007 209.582117 
L 60.764984 224.768433 
L 62.766863 228.101306 
L 55.815054 237.408744 
L 58.21682 240.891005 
L 97.22261 216.496458 
L 98.946375 218.687114 
L 76.641099 241.696686 
L 79.167391 244.52201 
L 81.781267 247.266505 
L 84.480144 249.927457 
L 79.992335 260.605994 
L 83.111519 263.316599 
L 117.150035 226.866676 
L 119.190009 228.425643 
L 84.993559 282.351013 
L 88.793982 284.893617 
L 102.708205 270.666616 
L 106.132486 272.658009 
L 122.533705 249.705482 
L 125.28912 251.083882 
L 115.183469 281.528218 
L 118.943094 283.121992 
L 132.449156 258.337304 
L 135.471071 259.399673 
L 140.532025 253.662225 
L 143.402949 254.472762 
L 144.891918 261.252342 
L 147.999336 261.922042 
L 152.020848 257.124617 
L 154.994957 257.572208 
L 159.568352 242.455492 
L 162.0775 242.673027 
L 164.317221 249.804431 
L 167.055088 249.869017 
L 171.389046 317.478684 
L 176.251243 317.287457 
L 175.396246 251.095608 
L 178.169232 250.811207 
L 184.750682 275.814361 
L 188.296256 275.223614 
L 190.674752 269.200743 
L 194.00945 268.427001 
L 198.585816 272.038794 
L 202.005837 271.014907 
L 208.228784 277.953319 
L 211.830002 276.623312 
L 199.606167 237.953139 
L 201.953955 236.914023 
L 235.577748 298.389798 
L 239.808012 296.189775 
L 212.694296 240.083146 
L 215.102585 238.631457 
L 245.136678 278.466978 
L 248.735799 275.976252 
L 240.451047 257.927845 
L 243.406689 255.5946 
L 241.187005 247.300256 
L 243.808129 244.949126 
L 256.180815 252.483583 
L 258.9575 249.658451 
L 267.440541 251.93046 
L 270.194268 248.751572 
L 263.680381 238.274971 
L 266.006609 235.221062 
L 252.233133 221.058342 
L 254.023692 218.372872 
L 235.731392 203.620978 
L 236.98184 201.46298 
L 290.636642 226.451408 
L 292.577783 222.555781 
L 265.221971 205.743859 
L 266.524587 202.657564 
L 279.407154 203.823784 
L 280.642385 200.292425 
L 309.340936 204.932153 
L 310.596216 200.459062 
L 283.673878 189.48994 
L 284.456312 185.831512 
L 300.467587 184.68209 
L 301.090548 180.498009 
L 273.730156 173.48417 
L 274.01425 170.146308 
L 308.382694 168.091979 
L 308.480113 163.667232 
L 264.907303 160.33699 
L 264.782383 157.283039 
L 310.261361 150.2001 
L 309.795291 145.72513 
L 286.126414 144.774908 
L 285.501697 141.061476 
L 268.043278 140.999881 
L 267.308806 137.856889 
L 279.93989 130.914431 
L 278.882428 127.40237 
L 311.440819 112.009226 
L 309.773361 107.516053 
L 271.478156 118.612887 
L 270.03809 115.372963 
L 265.022483 113.924821 
L 263.438206 110.890195 
L 255.043616 111.826537 
L 253.398298 109.106707 
L 249.08586 108.173556 
L 247.32863 105.642857 
L 288.688771 70.050117 
L 285.713276 66.293064 
L 284.965639 60.587535 
L 281.694461 56.952225 
L 252.879306 78.574474 
L 250.18954 75.939135 
L 254.661742 65.263092 
L 251.552556 62.578291 
L 260.357623 44.696526 
L 256.598963 41.842802 
L 254.073874 37.186286 
L 250.082182 34.533851 
L 220.052411 75.377097 
L 217.278343 73.775489 
L 228.362963 45.31315 
L 224.63951 43.465104 
L 217.422614 49.567497 
L 213.838336 48.061336 
L 221.159524 16.727421 
L 216.540834 15.12 
L 205.915781 33.79026 
L 201.841122 32.6537 
L 187.677293 75.610562 
L 184.926573 75.026782 
L 187.926495 39.228877 
L 184.031732 38.65525 
L 176.429601 75.345536 
L 173.67611 75.115539 
L 172.463066 32.232947 
L 168.355981 32.148983 
L 164.497679 41.5219 
L 160.686597 41.683793 
L 160.223191 79.139773 
L 157.597011 79.417466 
L 154.862723 79.009035 
L 152.235083 79.455337 
L 137.323166 23.772551 
L 132.967442 24.797646 
L 141.036444 69.323806 
L 138.111116 70.209626 
L 135.475283 71.919746 
L 132.634326 72.979137 
L 119.738684 50.533738 
L 116.233084 52.098496 
L 109.627767 47.523762 
L 106.032526 49.407917 
L 102.105285 50.733232 
L 98.614676 52.852324 
L 96.061253 56.369964 
L 92.750864 58.676307 
L 117.960133 98.06612 
L 115.949935 99.663298 
L 109.895802 96.640289 
L 107.844761 98.491733 
L 59.300913 53.487286 
L 55.918062 56.950879 
L 99.148405 101.837473 
L 97.266088 104.024269 
L 93.615671 104.832399 
L 91.830257 107.191675 
L 56.76261 86.753376 
L 54.426973 90.280332 
L 52.203385 93.878981 
L 50.094047 97.545766 
L 95.818222 125.807947 
L 94.691235 128.087599 
L 87.936231 127.910752 
L 86.879258 130.437192 
L 85.902245 132.995615 
L 85.006157 135.583494 
L 46.893718 127.22337 
L 45.835426 131.040616 
L 63.096507 139.021514 
L 62.401162 142.323475 
L 70.253661 147.01161 
L 69.806004 150.084584 
L 50.107832 151.278003 
L 49.80428 154.982296 
L 23.972351 157.806834 
L 23.887003 162.329657 
L 24.721179 166.830922 
L 24.919197 171.325737 
L 15.191829 176.732707 
L 15.705892 181.522251 
L 46.336841 181.638757 
L 46.989762 185.446608 
L 20.425402 195.258631 
L 21.519373 199.87446 
L 75.818297 189.202673 
L 76.694468 192.079823 
L 84.251823 192.575857 
L 85.229885 195.18617 
L 94.863245 194.082082 
L 95.88342 196.358004 
L 79.630258 207.379814 
L 81.076073 210.128119 
L 61.156959 225.440017 
L 63.179761 228.760235 
L 56.286628 238.111211 
L 58.710248 241.578297 
L 97.561838 216.938909 
L 99.299347 219.11868 
L 77.13923 242.268084 
L 79.683241 245.077463 
L 82.314327 247.805464 
L 85.029886 250.449389 
L 80.609328 261.155941 
L 83.745498 263.846874 
L 117.554091 227.183589 
L 119.603831 228.729695 
L 85.747217 282.869075 
L 89.563556 285.387726 
L 103.388024 271.073493 
L 106.824762 273.043311 
L 123.081299 249.988083 
L 125.845328 251.349126 
L 115.931355 281.856419 
L 119.70093 283.426515 
L 133.050842 258.557372 
L 136.07938 259.600714 
L 141.104148 253.831549 
L 143.980113 254.624014 
L 145.511692 261.394094 
L 148.623261 262.044237 
L 152.61452 257.221614 
L 155.591386 257.650491 
L 160.069614 242.50531 
L 162.580081 242.707059 
L 164.864611 249.824236 
L 167.60283 249.871601 
L 172.361928 317.452673 
L 177.222826 317.230869 
L 175.951536 251.045706 
L 178.722679 250.74387 
L 185.461255 275.705136 
L 189.003043 275.092101 
L 191.343612 269.05439 
L 194.673377 268.25969 
L 199.272369 271.842629 
L 202.685883 270.797252 
L 208.952345 277.696388 
L 212.545127 276.343757 
L 200.07832 237.75123 
L 202.419526 236.697368 
L 236.429302 297.960453 
L 240.645646 295.733868 
L 213.179587 239.798879 
L 215.578698 238.332072 
L 245.86274 277.977907 
L 249.446124 275.464594 
L 241.048022 257.46865 
L 243.988931 255.116862 
L 241.717124 246.836643 
L 244.323409 244.469074 
L 256.743237 251.925564 
L 259.502099 249.083025 
L 267.999262 251.301635 
L 270.732941 248.10549 
L 264.153291 237.670066 
L 266.460266 234.601587 
L 252.597987 220.525774 
L 254.37162 217.829096 
L 235.986901 203.192541 
L 237.223752 201.026722 
L 291.034656 225.677197 
L 292.951257 221.769439 
L 265.490248 205.129902 
L 266.773427 202.035474 
L 279.663074 203.120648 
L 280.876071 199.581589 
L 309.603235 204.040729 
L 310.830358 199.559831 
L 283.839563 188.760252 
L 284.598972 185.096976 
L 300.602701 183.846874 
L 301.199334 179.658958 
L 273.79537 172.817338 
L 274.058465 169.477756 
L 308.413309 167.20731 
L 264.938061 162.782037 
z
" clip-path="url(#pc2747f536c)" style="fill: #0000ff; opacity: 0.5; stroke: #000000; stroke-width: 1.5; stroke-linejoin: miter"/>
   </g>
  </g>
 </g>
 <defs>
  <clipPath id="pc2747f536c">
   <rect x="0" y="-0" width="327.561717" height="332.64"/>
  </clipPath>
 </defs>
</svg>
