<?xml version="1.0" encoding="utf-8" standalone="no"?>
<!DOCTYPE svg PUBLIC "-//W3C//DTD SVG 1.1//EN"
  "http://www.w3.org/Graphics/SVG/1.1/DTD/svg11.dtd">
<svg xmlns:xlink="http://www.w3.org/1999/xlink" width="334.8pt" height="328.549754pt" viewBox="0 0 334.8 328.549754" xmlns="http://www.w3.org/2000/svg" version="1.1">
 <metadata>
  <rdf:RDF xmlns:dc="http://purl.org/dc/elements/1.1/" xmlns:cc="http://creativecommons.org/ns#" xmlns:rdf="http://www.w3.org/1999/02/22-rdf-syntax-ns#">
   <cc:Work>
    <dc:type rdf:resource="http://purl.org/dc/dcmitype/StillImage"/>
    <dc:date>2023-12-09T18:06:19.948424</dc:date>
    <dc:format>image/svg+xml</dc:format>
    <dc:creator>
     <cc:Agent>
      <dc:title>Matplotlib v3.8.2, https://matplotlib.org/</dc:title>
     </cc:Agent>
    </dc:creator>
   </cc:Work>
  </rdf:RDF>
 </metadata>
 <defs>
  <style type="text/css">*{stroke-linejoin: round; stroke-linecap: butt}</style>
 </defs>
 <g id="figure_1">
  <g id="patch_1">
   <path d="M 0 328.549754 
L 334.8 328.549754 
L 334.8 0 
L 0 0 
L 0 328.549754 
z
" style="fill: none"/>
  </g>
  <g id="axes_1">
   <g id="patch_2">
    <path d="M 268.379418 169.691383 
L 268.328484 166.452338 
L 260.386931 163.707019 
L 260.151788 160.722235 
L 262.145683 157.452589 
L 261.713017 154.415598 
L 268.850796 149.929899 
L 268.178284 146.685804 
L 274.206807 141.715997 
L 273.273385 138.307559 
L 292.271322 128.412424 
L 290.910675 124.442576 
L 247.346262 137.196342 
L 246.284013 134.634693 
L 294.561858 108.825788 
L 292.584231 104.793604 
L 269.969778 112.115068 
L 268.107732 108.854487 
L 244.407111 119.466035 
L 242.788835 117.005565 
L 238.569648 116.433667 
L 236.858914 114.15824 
L 275.34328 78.580011 
L 272.424161 75.167056 
L 244.385148 95.372859 
L 242.00934 92.924993 
L 270.516464 57.531281 
L 266.937914 54.280498 
L 260.774268 54.152661 
L 257.094304 51.209865 
L 222.171106 91.34718 
L 219.679705 89.599762 
L 224.232236 76.722533 
L 221.279985 74.917539 
L 208.891434 90.313554 
L 206.374099 88.984188 
L 225.031468 42.517113 
L 221.003328 40.703902 
L 202.598889 75.316336 
L 199.613121 74.192237 
L 203.0797 53.114282 
L 199.395612 51.986043 
L 194.326279 56.26732 
L 190.745658 55.412749 
L 194.39873 16.331116 
L 189.562391 15.494013 
L 175.903077 85.280695 
L 173.243809 84.991045 
L 173.781186 32.595082 
L 169.466416 32.398197 
L 165.137772 26.093699 
L 160.622858 26.171797 
L 157.721488 51.313479 
L 154.003206 51.612292 
L 145.736286 16.419172 
L 140.926776 17.112079 
L 142.044891 48.609504 
L 138.249341 49.402561 
L 137.803453 63.158906 
L 134.467465 64.078129 
L 127.766132 54.717006 
L 124.169675 55.955998 
L 124.367146 66.733206 
L 121.150185 68.073129 
L 105.629728 43.410859 
L 101.688725 45.351458 
L 104.603715 59.71096 
L 101.175731 61.67576 
L 95.29374 59.799148 
L 91.873132 62.05663 
L 84.384206 58.747269 
L 80.935918 61.348292 
L 105.006256 97.067366 
L 102.75264 99.001039 
L 108.59432 109.519504 
L 106.730453 111.334204 
L 85.538472 95.088853 
L 83.232273 97.635614 
L 60.520767 83.390174 
L 57.859105 86.729331 
L 99.580685 122.149721 
L 98.118396 124.241584 
L 87.482474 120.547796 
L 85.975798 123.020846 
L 85.917388 126.288374 
L 84.591982 128.807796 
L 35.974496 109.232383 
L 34.137506 113.330551 
L 46.958507 123.190128 
L 45.554949 126.936033 
L 75.47192 140.764837 
L 74.606851 143.605529 
L 25.41789 134.190699 
L 24.370864 138.60845 
L 16.560001 141.761208 
L 15.755388 146.453727 
L 52.277646 155.752027 
L 51.895275 159.314588 
L 85.123419 164.89132 
L 85.012168 167.416619 
L 33.472698 170.106146 
L 33.55095 174.252879 
L 23.63616 179.064617 
L 24.000949 183.516203 
L 34.566813 186.649637 
L 35.164687 190.753789 
L 52.745685 191.563704 
L 53.48908 195.093842 
L 37.727797 202.925151 
L 38.835846 206.921867 
L 49.707055 207.713277 
L 50.95973 211.330972 
L 57.397754 212.878563 
L 58.809035 216.251891 
L 57.505874 220.918448 
L 59.169893 224.284402 
L 35.003391 241.978002 
L 37.340694 246.041071 
L 74.645564 227.736103 
L 76.51547 230.559777 
L 47.620873 255.917188 
L 50.390217 259.576644 
L 96.431018 227.164221 
L 98.272172 229.303195 
L 54.834355 274.299284 
L 58.178105 277.722843 
L 61.095868 281.610591 
L 64.666406 284.83366 
L 86.652849 265.619885 
L 89.707968 268.047292 
L 78.24154 290.641301 
L 82.087546 293.320807 
L 105.956673 264.166226 
L 108.956541 265.987398 
L 107.53515 275.938966 
L 110.904399 277.704686 
L 126.510301 253.183778 
L 129.154695 254.364128 
L 110.808443 309.248319 
L 115.223393 310.89465 
L 128.965787 283.41339 
L 132.559452 284.501588 
L 145.911557 246.881298 
L 148.348195 247.454747 
L 142.949653 290.150273 
L 146.748226 290.795457 
L 155.278059 252.585376 
L 157.889414 252.861501 
L 157.014087 313.046299 
L 161.525608 313.237946 
L 165.908397 285.192725 
L 169.539742 285.118487 
L 173.588764 291.159229 
L 177.403912 290.840554 
L 184.254 313.615674 
L 188.769955 312.950557 
L 187.262936 281.508854 
L 190.767894 280.765004 
L 197.610957 292.745146 
L 201.464093 291.670376 
L 190.832695 246.755768 
L 193.243175 245.91686 
L 195.335101 244.27843 
L 197.665462 243.299181 
L 215.080527 273.946264 
L 218.333948 272.331507 
L 223.812208 274.706762 
L 227.085223 272.817086 
L 228.188969 267.54186 
L 231.23454 265.518112 
L 221.276453 245.790006 
L 223.641515 243.994357 
L 248.981411 269.662068 
L 252.083366 266.983511 
L 228.76984 236.476107 
L 230.838349 234.449454 
L 276.874726 273.251888 
L 280.075761 269.69453 
L 239.063949 229.969956 
L 240.9228 227.622851 
L 245.876744 227.49416 
L 247.654382 224.934069 
L 270.512746 235.579943 
L 272.532438 232.241245 
L 300.51621 242.977008 
L 302.753647 238.691278 
L 237.587671 203.162882 
L 238.604379 200.875448 
L 290.460006 218.367038 
L 291.928624 214.409665 
L 279.142658 205.910298 
L 280.225204 202.314926 
L 301.634865 203.80422 
L 302.640071 199.502685 
L 250.553575 185.404228 
L 251.005501 182.717898 
L 318.785339 188.113061 
L 319.288701 183.280036 
L 278.343674 176.093492 
L 278.489109 172.537984 
L 268.37738 169.043471 
L 268.306075 165.804811 
L 260.347414 163.109494 
L 260.093502 160.126248 
L 262.066794 156.844126 
L 261.615035 153.809917 
L 268.72446 149.279414 
L 268.031559 146.039613 
L 274.028705 141.031988 
L 273.073864 137.629488 
L 292.009191 127.615063 
L 290.623602 123.65385 
L 247.140265 136.68136 
L 246.061925 134.126442 
L 294.176492 108.014408 
L 292.173544 103.994742 
L 269.605587 111.458293 
L 267.723071 108.209487 
L 244.089659 118.969889 
L 242.455939 116.519646 
L 238.233239 115.974296 
L 236.508228 113.709673 
L 274.768065 77.890103 
L 271.827539 74.495575 
L 243.916164 94.877328 
L 241.525007 92.444452 
L 269.808961 56.872147 
L 266.210036 53.643936 
L 260.045708 53.554867 
L 256.347308 50.635274 
L 221.677242 90.991442 
L 219.1749 89.259728 
L 223.64635 76.354121 
L 220.682805 74.567731 
L 208.391331 90.041358 
L 205.865686 88.727852 
L 224.230433 42.144351 
L 220.19097 40.35651 
L 202.004587 75.084013 
L 199.011808 73.978715 
L 202.34575 52.879375 
L 198.654639 51.774329 
L 193.612333 56.087405 
L 190.026408 55.25537 
L 193.433606 16.151535 
L 188.592098 15.344865 
L 175.371973 85.216077 
L 172.710936 84.943158 
L 172.918761 32.544851 
L 168.602838 32.375108 
L 164.234628 26.097959 
L 159.720294 26.204452 
L 156.97711 51.363885 
L 153.26078 51.686077 
L 144.772679 16.545648 
L 139.967622 17.26879 
L 141.283816 48.758561 
L 137.493329 49.575473 
L 137.133969 63.334351 
L 133.803829 64.274537 
L 127.043752 54.955747 
L 123.455159 56.217334 
L 123.720408 66.993087 
L 120.511938 68.353216 
L 104.836676 43.789049 
L 100.907957 45.754396 
L 103.913202 60.09528 
L 100.497643 62.081601 
L 94.603966 60.242021 
L 91.197624 62.520972 
L 83.688032 59.258778 
L 80.256172 61.881436 
L 104.550686 97.448416 
L 102.309276 99.396225 
L 108.216996 109.87774 
L 106.364579 111.704127 
L 85.070844 95.592383 
L 82.780708 98.153599 
L 59.980055 84.051283 
L 57.339447 87.407114 
L 99.282976 122.564398 
L 97.833873 124.665417 
L 87.174929 121.038596 
L 85.683837 123.521073 
L 85.645979 126.788904 
L 84.336445 129.316612 
L 35.596802 110.047363 
L 33.785624 114.157003 
L 46.668383 123.935748 
L 45.288411 127.690407 
L 75.291767 141.330777 
L 74.444581 144.176854 
L 25.197379 135.07158 
L 24.178159 139.495829 
L 16.38728 142.697651 
L 15.612196 147.395138 
L 52.192213 156.463549 
L 51.832256 160.028445 
L 85.094817 165.39608 
L 84.99945 167.922029 
L 33.477916 170.935657 
L 33.582246 175.081815 
L 23.697915 179.955817 
L 24.090695 184.40502 
L 34.676058 187.471939 
L 35.299733 191.572249 
L 52.885477 192.271574 
L 53.65106 195.796967 
L 37.939343 203.72725 
L 39.072507 207.716918 
L 49.948479 208.439939 
L 51.223883 212.049683 
L 57.671512 213.556752 
L 59.103981 216.921138 
L 57.830196 221.595799 
L 59.515352 224.95122 
L 35.460611 242.796464 
L 37.823423 246.844752 
L 75.012426 228.30552 
L 76.900055 231.117377 
L 48.165513 256.656018 
L 50.957818 260.297983 
L 96.793853 227.596631 
L 98.648424 229.723983 
L 55.494465 274.992381 
L 58.859682 278.394842 
L 61.801839 282.264162 
L 65.392578 285.464711 
L 87.257741 266.113033 
L 90.328067 268.521178 
L 79.003969 291.186856 
L 82.866752 293.84212 
L 106.552041 264.537993 
L 109.563304 266.340261 
L 108.204531 276.300572 
L 111.584818 278.045067 
L 127.03619 253.426491 
L 129.687955 254.590187 
L 111.687256 309.588679 
L 116.112473 311.207211 
L 129.681754 283.640062 
L 133.282192 284.705637 
L 146.397423 247.002113 
L 148.837619 247.560226 
L 143.707714 290.288861 
L 147.51027 290.910142 
L 155.799615 252.647169 
L 158.412655 252.906864 
L 157.915874 313.095977 
L 162.428511 313.259246 
L 166.634824 285.187014 
L 170.265631 285.089939 
L 174.352565 291.105095 
L 178.165634 290.76243 
L 185.158828 313.494018 
L 189.670511 312.800511 
L 187.965771 281.368908 
L 191.465982 280.603028 
L 198.384258 292.539895 
L 202.230558 291.440912 
L 191.316882 246.594057 
L 193.722039 245.740005 
L 195.803618 244.08845 
L 198.127775 243.094564 
L 215.735248 273.63151 
L 218.978448 271.996323 
L 224.471539 274.337076 
L 227.732604 272.426852 
L 228.80315 267.144789 
L 231.835933 265.101925 
L 221.753964 245.43684 
L 224.107686 243.626352 
L 249.608517 269.134182 
L 252.693563 266.436169 
L 229.188624 236.075997 
L 231.244345 234.036374 
L 277.523857 272.548498 
L 280.702455 268.971077 
L 239.441609 229.50523 
L 241.285661 227.14648 
L 246.238698 226.986634 
L 248.000199 224.415414 
L 270.925068 234.917311 
L 272.923722 231.565976 
L 300.974462 242.125525 
L 303.1849 237.825807 
L 237.79676 202.707971 
L 238.799061 200.414188 
L 290.763674 217.579289 
L 292.207374 213.612758 
L 279.368204 205.193976 
L 280.428116 201.591866 
L 301.84672 202.946476 
L 302.824852 198.638704 
L 250.650715 184.86812 
L 251.085736 182.179001 
L 318.898166 187.14776 
L 319.371121 182.311665 
L 278.381705 175.382785 
L 278.504776 171.826433 
L 268.371268 168.395586 
L 268.279595 165.157438 
L 260.304139 162.51223 
L 260.031469 159.530639 
L 261.984079 156.236172 
L 261.513246 153.204863 
L 268.594036 148.629736 
L 267.880772 145.394357 
L 273.846304 140.349113 
L 272.870082 136.952685 
L 291.74205 126.819366 
L 290.331575 122.866946 
L 246.931034 136.167684 
L 245.836646 133.619599 
L 293.786031 107.205467 
L 291.757842 103.198478 
L 269.237272 110.803822 
L 267.33436 107.56692 
L 243.769092 118.47575 
L 242.119995 116.035831 
L 237.893948 115.517049 
L 236.154727 113.26332 
L 274.188523 77.203826 
L 271.226706 73.827859 
L 243.444072 94.384757 
L 241.037661 91.966968 
L 269.097326 56.217476 
L 265.478169 53.011964 
L 259.313402 52.961667 
L 255.596713 50.065393 
L 221.18115 90.638818 
L 218.667966 88.922876 
L 223.058159 75.989401 
L 220.083437 74.221685 
L 207.889527 89.772313 
L 205.35567 88.474718 
L 223.427071 41.776634 
L 219.376442 40.014235 
L 201.408836 74.855433 
L 198.409164 73.76898 
L 201.610337 52.649088 
L 197.912349 51.567279 
L 192.897269 55.911983 
L 189.306182 55.102518 
L 192.467372 15.978027 
L 187.620887 15.201824 
L 174.840474 85.154801 
L 172.177773 84.898623 
L 172.056038 32.500046 
L 167.739133 32.357451 
L 163.331529 26.107899 
L 158.817955 26.242783 
L 156.233063 51.418971 
L 152.518833 51.764531 
L 143.809886 16.678182 
L 139.009473 17.431531 
L 140.523693 48.9124 
L 136.738419 49.753137 
L 136.465602 63.514003 
L 133.141441 64.475115 
L 126.322888 55.199026 
L 122.7423 56.483158 
L 123.075317 67.25703 
L 119.875465 68.637312 
L 104.046019 44.172219 
L 100.129739 46.162237 
L 103.22512 60.483936 
L 99.822121 62.4917 
L 93.916992 60.689223 
L 90.52505 62.989554 
L 82.995089 59.774655 
L 79.579791 62.418846 
L 104.097521 97.832323 
L 101.868407 99.794191 
L 107.841933 110.238343 
L 106.001039 112.076344 
L 84.606391 96.098845 
L 82.332409 98.674413 
L 59.443512 84.715779 
L 56.824063 88.088152 
L 98.987881 122.98094 
L 97.55202 125.091031 
L 86.870477 121.531321 
L 85.395028 124.023127 
L 85.377723 127.291131 
L 84.084113 129.827025 
L 35.224242 110.864702 
L 33.438946 114.985652 
L 46.382953 124.683178 
L 45.026624 128.446443 
L 75.115176 141.897838 
L 74.285907 144.749187 
L 24.982412 135.953831 
L 23.991038 140.384403 
L 16.220451 143.635161 
L 15.474927 148.33743 
L 52.111255 157.175595 
L 51.773727 160.742683 
L 85.069389 165.90101 
L 84.989911 168.427508 
L 33.48835 171.765118 
L 33.618756 175.910538 
L 23.765274 180.846611 
L 24.186029 185.293256 
L 34.790472 188.293538 
L 35.439924 192.389844 
L 53.029719 192.978551 
L 53.817459 196.499059 
L 38.155929 204.528003 
L 39.314164 208.510465 
L 50.194468 209.165068 
L 51.49255 212.766719 
L 57.94953 214.233207 
L 59.403131 217.588517 
L 58.158773 222.271096 
L 59.864999 225.615852 
L 35.92297 243.612034 
L 38.311196 247.645382 
L 75.382863 228.872618 
L 77.28814 231.672548 
L 48.71479 257.391407 
L 51.529945 261.015738 
L 97.1594 228.026751 
L 99.027314 230.142396 
L 56.158922 275.681313 
L 59.545471 279.062541 
L 62.511906 282.91328 
L 66.122704 286.091182 
L 87.865724 266.602367 
L 90.951134 268.991154 
L 79.769815 291.727606 
L 83.649221 294.358523 
L 107.149736 264.906008 
L 110.172275 266.689302 
L 108.876173 276.657961 
L 112.267365 278.381161 
L 127.563594 253.665893 
L 130.222626 254.812887 
L 112.568193 309.923506 
L 117.003501 311.514173 
L 130.399132 283.862226 
L 134.006201 284.905135 
L 146.884039 247.119871 
L 149.327697 247.662624 
L 144.466632 290.422679 
L 148.273021 291.020031 
L 156.321549 252.70568 
L 158.936171 252.948936 
L 158.817955 313.139983 
L 163.331529 313.274866 
L 167.361201 285.176734 
L 170.991325 285.056825 
L 175.116011 291.046158 
L 178.926849 290.679518 
L 186.062874 313.366672 
L 190.570105 312.644804 
L 188.667712 281.224544 
L 192.163037 280.436665 
L 199.156252 292.329783 
L 202.995564 291.206631 
L 191.800043 246.429305 
L 194.199781 245.560142 
L 196.270932 243.895528 
L 198.588791 242.887044 
L 216.387976 273.312645 
L 219.620828 271.657092 
L 225.128532 273.963251 
L 228.377519 272.032554 
L 229.414822 266.743862 
L 232.434696 264.681965 
L 222.229245 245.080678 
L 224.571534 243.255422 
L 250.232289 268.602362 
L 253.300306 265.884999 
L 229.604884 235.67326 
L 231.647736 233.620749 
L 278.168552 271.841039 
L 281.324587 268.243697 
L 239.816339 229.038138 
L 241.64552 226.667837 
L 246.597453 226.476842 
L 248.342748 223.894594 
L 271.333215 234.252099 
L 273.310751 230.88826 
L 301.427349 241.271176 
L 303.610701 236.957642 
L 238.002983 202.251754 
L 238.990837 199.951713 
L 291.062382 216.789646 
L 292.481106 212.814113 
L 279.58924 204.476249 
L 280.626476 200.867545 
L 302.053176 202.087417 
L 303.004195 197.773578 
L 250.744481 184.331412 
L 251.162581 181.63961 
L 319.00492 186.181769 
L 319.44745 181.342795 
L 278.415265 174.671852 
L 278.515966 171.114796 
L 268.36108 167.747751 
L 268.249043 164.510244 
L 260.257108 161.915249 
L 259.965691 158.935433 
L 261.897542 155.628749 
L 261.407653 152.600462 
L 268.459529 147.980891 
L 267.72593 144.750063 
L 273.659613 139.667398 
L 272.662048 136.277178 
L 291.46991 126.025365 
L 290.034604 122.081894 
L 246.718575 135.655334 
L 245.608183 133.114182 
L 293.39049 106.398998 
L 291.337139 102.404845 
L 268.864848 110.151679 
L 266.941615 106.92681 
L 243.445424 117.983636 
L 241.781013 115.554137 
L 237.551788 115.061946 
L 235.798427 112.8192 
L 273.604677 76.521208 
L 270.621685 73.163936 
L 242.968892 93.895164 
L 240.547322 91.492558 
L 268.381587 55.567294 
L 264.742341 52.384608 
L 258.57738 52.373085 
L 254.842548 49.500243 
L 220.68285 90.28932 
L 218.158924 88.589219 
L 222.467685 75.628388 
L 219.481905 73.879417 
L 207.38604 89.506429 
L 204.844072 88.224796 
L 222.621411 41.413978 
L 218.559778 39.67709 
L 200.811658 74.630604 
L 197.805213 73.563039 
L 200.87349 52.423431 
L 197.168772 51.364902 
L 192.181117 55.741062 
L 188.58501 54.954199 
L 191.500066 15.8106 
L 186.648795 15.064893 
L 174.308599 85.096869 
L 171.644339 84.857443 
L 171.19305 32.460668 
L 166.875333 32.345226 
L 162.428511 26.12352 
L 157.915874 26.286788 
L 155.489377 51.478736 
L 151.777394 51.847649 
L 142.847946 16.816769 
L 138.052366 17.600295 
L 139.764553 49.071018 
L 135.984642 49.935545 
L 135.798378 63.697855 
L 132.480327 64.679855 
L 125.603568 55.446834 
L 122.031127 56.753461 
L 122.4319 67.525025 
L 119.240792 68.925405 
L 103.257787 44.560354 
L 99.354101 46.574964 
L 102.539496 60.876911 
L 99.149193 62.906038 
L 93.232843 61.140738 
L 89.855436 63.462356 
L 82.305404 60.29488 
L 78.906805 62.960499 
L 103.64678 98.219073 
L 101.430049 100.194922 
L 107.469144 110.601297 
L 105.639847 112.45084 
L 84.145133 96.608217 
L 81.887395 99.198037 
L 58.911158 85.383637 
L 56.312971 88.772418 
L 98.695412 123.399329 
L 97.272851 125.51841 
L 86.56913 122.02595 
L 85.109382 124.526987 
L 85.112631 127.795035 
L 83.834997 130.339015 
L 34.856829 111.684368 
L 33.097488 115.816466 
L 46.10223 125.432389 
L 44.769597 129.20411 
L 74.942155 142.465999 
L 74.130837 145.322507 
L 24.772999 136.837416 
L 23.80951 141.274135 
L 16.059522 144.573702 
L 15.343587 149.280567 
L 52.034778 157.888135 
L 51.719691 161.457276 
L 85.047138 166.40609 
L 84.983552 168.933038 
L 33.504001 172.594497 
L 33.660476 176.739016 
L 23.838235 181.736963 
L 24.286949 186.180874 
L 34.910052 189.1144 
L 35.585254 193.206541 
L 53.178403 193.684606 
L 53.98827 197.200091 
L 38.377548 205.327378 
L 39.560807 209.302477 
L 50.445013 209.888635 
L 51.765721 213.482051 
L 58.231798 214.907899 
L 59.706473 218.254 
L 58.49159 222.944313 
L 60.218819 226.278272 
L 36.390449 244.42468 
L 38.803996 248.442927 
L 75.756859 229.437375 
L 77.679708 232.225266 
L 49.26868 258.123327 
L 52.106575 261.729881 
L 97.527646 228.454562 
L 99.408829 230.558418 
L 56.827699 276.366051 
L 60.235447 279.725914 
L 63.226042 283.55792 
L 66.856755 286.713048 
L 88.476772 267.087868 
L 91.577145 269.457202 
L 80.539047 292.263529 
L 84.434923 294.869994 
L 107.749733 265.270257 
L 110.783428 267.034505 
L 109.550049 277.011119 
L 112.952013 278.712957 
L 128.092494 253.901972 
L 130.758687 255.03222 
L 113.451218 310.252785 
L 117.896443 311.815526 
L 131.117894 284.079875 
L 134.731451 285.100077 
L 147.371386 247.234565 
L 149.818409 247.761939 
L 145.226377 290.551721 
L 149.036447 291.125122 
L 156.84384 252.760907 
L 159.45994 252.987714 
L 159.720294 313.178314 
L 164.234628 313.284806 
L 168.087499 285.161886 
L 171.716797 285.019148 
L 175.879071 290.98242 
L 179.687528 290.59182 
L 186.966101 313.233644 
L 191.468703 312.483441 
L 189.368732 281.075768 
L 192.859032 280.265921 
L 199.92691 292.114821 
L 203.759082 290.967544 
L 192.282158 246.261516 
L 194.676382 245.377278 
L 196.737022 243.699671 
L 199.048493 242.676629 
L 217.038686 272.989681 
L 220.261061 271.313828 
L 225.783161 273.5853 
L 229.01994 271.634208 
L 230.02396 266.339096 
L 233.030806 264.258247 
L 222.702276 244.721534 
L 225.033039 242.881583 
L 250.852705 268.06663 
L 253.90357 265.330024 
L 230.018602 235.267913 
L 232.048504 233.202594 
L 278.808784 271.129539 
L 281.942131 267.512419 
L 240.188124 228.568698 
L 242.002361 226.186939 
L 246.952995 225.964804 
L 248.682014 223.37163 
L 271.737169 233.584333 
L 273.693509 230.208123 
L 301.874855 240.413996 
L 304.031034 236.086815 
L 238.206332 201.794249 
L 239.179701 199.48804 
L 291.356117 215.99814 
L 292.749809 212.013763 
L 279.805758 203.757146 
L 280.820277 200.14199 
L 302.254225 201.227076 
L 303.178094 196.907341 
L 250.83487 183.794125 
L 251.236032 181.099747 
L 319.105597 185.215126 
L 319.517683 180.373464 
L 278.444353 173.960722 
L 278.52268 170.403104 
L 268.346819 167.099994 
L 268.214422 163.863256 
L 260.206324 161.318576 
L 259.896171 158.340652 
L 261.807187 155.021883 
L 261.298261 151.996738 
L 268.320943 147.332906 
L 267.567039 144.106755 
L 273.468637 138.986871 
L 272.449769 135.602992 
L 291.192781 125.233091 
L 289.732701 121.298726 
L 246.502899 135.14433 
L 245.376546 132.610212 
L 292.989885 105.595033 
L 290.911453 101.613873 
L 268.48833 109.501893 
L 266.544853 106.289183 
L 243.118667 117.493569 
L 241.439009 115.074586 
L 237.206772 114.609003 
L 235.43934 112.37733 
L 273.016548 75.842276 
L 270.0125 72.503832 
L 242.490641 93.408569 
L 240.054009 91.021241 
L 267.661774 54.921626 
L 264.002582 51.761891 
L 257.837671 51.789143 
L 254.084844 48.939849 
L 220.182362 89.942964 
L 217.647793 88.25877 
L 221.874953 75.271096 
L 218.878231 73.540938 
L 206.880891 89.243718 
L 204.330913 87.978098 
L 221.813486 41.056396 
L 217.74101 39.345087 
L 200.213079 74.409536 
L 197.199978 73.360901 
L 200.135239 52.202413 
L 196.423936 51.167205 
L 191.463903 55.574648 
L 187.862918 54.810419 
L 190.531726 15.649259 
L 185.675861 14.93408 
L 173.77637 85.042283 
L 171.110658 84.819618 
L 170.329831 32.426718 
L 166.011474 32.338435 
L 161.525608 26.144819 
L 157.014087 26.336466 
L 154.746082 51.543177 
L 151.036493 51.935429 
L 141.886897 16.961403 
L 137.096339 17.775075 
L 139.006426 49.234407 
L 135.232026 50.12269 
L 135.132324 63.885899 
L 131.820515 64.888749 
L 124.885821 55.699161 
L 121.321669 57.028231 
L 121.79018 67.797062 
L 118.607944 69.217484 
L 102.472013 44.953439 
L 98.581074 46.992561 
L 101.856357 61.274191 
L 98.478883 63.324601 
L 92.551547 61.596546 
L 89.188809 63.93936 
L 81.619005 60.819432 
L 78.237238 63.506374 
L 103.198481 98.60865 
L 100.99422 100.598402 
L 107.098646 110.966589 
L 105.281018 112.827601 
L 83.687088 97.12048 
L 81.445683 99.724449 
L 58.383016 86.054829 
L 55.806194 89.459884 
L 98.40558 123.819549 
L 96.996374 125.947535 
L 86.2709 122.522465 
L 84.826911 125.032633 
L 84.850714 128.300597 
L 83.589105 130.852562 
L 34.494579 112.506328 
L 32.761261 116.64941 
L 45.826225 126.183351 
L 44.51734 129.963378 
L 74.772712 143.035237 
L 73.979375 145.896791 
L 24.569147 137.722301 
L 23.633582 142.164992 
L 15.904499 145.513236 
L 15.218182 150.224511 
L 51.962784 158.601142 
L 51.670151 162.172194 
L 85.028064 166.911299 
L 84.980372 169.438598 
L 33.524868 173.423762 
L 33.707407 177.567214 
L 23.916794 182.626839 
L 24.393449 187.06784 
L 35.034792 189.934495 
L 35.735718 194.022308 
L 53.331526 194.389713 
L 54.163487 197.900034 
L 38.60419 206.125343 
L 39.812427 210.092921 
L 50.700104 210.610613 
L 52.043387 214.195651 
L 58.518303 215.580803 
L 60.013994 218.917563 
L 58.828634 223.615424 
L 60.576798 226.938454 
L 36.86303 245.23437 
L 39.301802 249.237357 
L 76.1344 229.999769 
L 78.074745 232.775511 
L 49.827163 258.851749 
L 52.687685 262.440383 
L 97.898575 228.880049 
L 99.792952 230.972032 
L 57.500768 277.046571 
L 60.929581 280.384934 
L 63.944218 284.198055 
L 67.594704 287.330286 
L 89.090861 267.569516 
L 92.206075 269.919303 
L 81.311634 292.794603 
L 85.223826 295.376514 
L 108.35201 265.630725 
L 111.396741 267.375858 
L 110.226134 277.360032 
L 113.638733 279.040439 
L 128.622868 254.13472 
L 131.296117 255.248177 
L 114.336296 310.576504 
L 118.791262 312.111256 
L 131.83801 284.292998 
L 135.457912 285.290453 
L 147.859444 247.346192 
L 150.309736 247.858165 
L 145.986918 290.675982 
L 149.80052 291.225408 
L 157.366469 252.812848 
L 159.983944 253.023197 
L 160.622858 313.210969 
L 165.137772 313.289067 
L 168.813689 285.14247 
L 172.442018 284.976908 
L 176.641715 290.913884 
L 180.447639 290.499339 
L 187.868473 313.094937 
L 192.366268 312.31643 
L 190.068802 280.922586 
L 193.553939 280.090803 
L 200.6962 291.895016 
L 204.521081 290.723659 
L 192.763209 246.090699 
L 195.151823 245.19142 
L 197.201872 243.500886 
L 199.506863 242.463326 
L 217.687352 272.662631 
L 220.899123 270.966544 
L 226.4354 273.203241 
L 229.659844 271.231829 
L 230.630541 265.930508 
L 233.62424 263.830787 
L 223.173039 244.359422 
L 225.492183 242.504848 
L 251.469738 267.527006 
L 254.503331 264.771266 
L 230.429762 234.859973 
L 232.446635 232.781928 
L 279.444529 270.414026 
L 282.555064 266.777271 
L 240.556949 228.09693 
L 242.35617 225.703807 
L 247.305309 225.450539 
L 249.017985 222.846542 
L 272.136916 232.914039 
L 274.071983 229.525592 
L 302.31696 239.554019 
L 304.445881 235.213362 
L 238.4068 201.335475 
L 239.365645 199.023189 
L 291.644869 215.204803 
L 293.013473 211.211739 
L 280.017749 203.036696 
L 281.00951 199.41523 
L 302.449859 200.365487 
L 303.346541 196.040028 
L 250.921878 183.25628 
L 251.306085 180.559432 
L 319.200191 184.247869 
L 319.581818 179.403711 
L 278.468968 173.249424 
L 268.379418 169.691383 
z
" clip-path="url(#p7beb647713)" style="fill: #0000ff; opacity: 0.5; stroke: #000000; stroke-width: 1.5; stroke-linejoin: miter"/>
   </g>
  </g>
 </g>
 <defs>
  <clipPath id="p7beb647713">
   <rect x="0" y="-0" width="334.8" height="328.549754"/>
  </clipPath>
 </defs>
</svg>
