<?xml version="1.0" encoding="utf-8" standalone="no"?>
<!DOCTYPE svg PUBLIC "-//W3C//DTD SVG 1.1//EN"
  "http://www.w3.org/Graphics/SVG/1.1/DTD/svg11.dtd">
<svg xmlns:xlink="http://www.w3.org/1999/xlink" width="330.844639pt" height="332.64pt" viewBox="0 0 330.844639 332.64" xmlns="http://www.w3.org/2000/svg" version="1.1">
 <metadata>
  <rdf:RDF xmlns:dc="http://purl.org/dc/elements/1.1/" xmlns:cc="http://creativecommons.org/ns#" xmlns:rdf="http://www.w3.org/1999/02/22-rdf-syntax-ns#">
   <cc:Work>
    <dc:type rdf:resource="http://purl.org/dc/dcmitype/StillImage"/>
    <dc:date>2023-12-09T18:06:20.057799</dc:date>
    <dc:format>image/svg+xml</dc:format>
    <dc:creator>
     <cc:Agent>
      <dc:title>Matplotlib v3.8.2, https://matplotlib.org/</dc:title>
     </cc:Agent>
    </dc:creator>
   </cc:Work>
  </rdf:RDF>
 </metadata>
 <defs>
  <style type="text/css">*{stroke-linejoin: round; stroke-linecap: butt}</style>
 </defs>
 <g id="figure_1">
  <g id="patch_1">
   <path d="M 0 332.64 
L 330.844639 332.64 
L 330.844639 0 
L 0 0 
L 0 332.64 
z
" style="fill: none"/>
  </g>
  <g id="axes_1">
   <g id="patch_2">
    <path d="M 272.492304 167.742642 
L 272.441235 164.494972 
L 293.05913 159.942398 
L 292.752635 156.051918 
L 308.383339 150.142176 
L 307.761127 145.774715 
L 301.701908 142.441042 
L 300.840858 138.287467 
L 275.959803 140.303294 
L 275.044266 136.960165 
L 315.806246 120.057094 
L 314.234423 115.471115 
L 257.342108 132.807065 
L 256.200078 130.053023 
L 272.404929 119.12357 
L 270.825213 115.902686 
L 294.130731 98.98067 
L 291.906936 95.086638 
L 273.296979 101.599343 
L 271.165821 98.359075 
L 268.310513 95.640888 
L 265.994474 92.560351 
L 262.989132 90.045911 
L 260.499806 87.135457 
L 229.283346 111.237208 
L 227.476986 109.37606 
L 246.701185 85.079165 
L 244.063746 82.683295 
L 240.370645 81.56026 
L 237.625695 79.365176 
L 251.102705 54.792204 
L 247.510802 52.272916 
L 217.037274 92.198551 
L 214.638351 90.731859 
L 240.732552 37.299064 
L 236.595753 35.114485 
L 208.818764 83.304964 
L 206.14427 82.101078 
L 221.256072 35.808919 
L 217.08205 34.23746 
L 211.199757 37.931782 
L 207.097455 36.675465 
L 201.432003 41.523621 
L 197.447465 40.572648 
L 194.725506 32.931116 
L 190.474117 32.195259 
L 180.662501 75.956662 
L 177.770883 75.641704 
L 177.799611 27.716662 
L 173.392637 27.51557 
L 168.962126 15.12 
L 164.163455 15.203006 
L 164.087303 88.512863 
L 161.598674 88.712857 
L 152.361899 36.235045 
L 148.235338 36.829559 
L 149.668805 66.316239 
L 146.489395 66.980557 
L 136.189328 40.13309 
L 132.193326 41.234178 
L 127.036021 38.79714 
L 123.00254 40.186688 
L 130.706118 71.064025 
L 127.685364 72.322224 
L 127.672093 79.94597 
L 124.932107 81.295174 
L 126.336122 90.151612 
L 123.917685 91.537776 
L 123.201699 95.599064 
L 120.956091 97.081087 
L 122.848238 104.23647 
L 120.874383 105.725337 
L 117.962949 106.0899 
L 116.049786 107.731454 
L 115.776094 111.114378 
L 114.021993 112.822208 
L 89.795863 93.531555 
L 87.501765 96.064953 
L 101.357027 111.896054 
L 99.634633 114.056864 
L 71.11694 96.855929 
L 68.936603 99.97499 
L 46.646831 90.409287 
L 44.275895 94.300929 
L 71.116075 114.156312 
L 69.4797 117.266847 
L 75.623742 124.016734 
L 74.295172 126.980662 
L 69.473075 128.576027 
L 68.2909 131.731092 
L 37.124069 125.240788 
L 35.853021 129.414625 
L 91.497772 148.031014 
L 90.916414 150.483955 
L 70.715061 149.256791 
L 70.18252 152.36258 
L 34.556406 151.145754 
L 34.101136 155.387515 
L 15.312737 158.536793 
L 15.099372 163.379963 
L 28.142308 168.186239 
L 28.226 172.621249 
L 43.831939 176.03408 
L 44.154627 179.971893 
L 40.014423 184.492275 
L 40.604942 188.545938 
L 63.266442 188.317163 
L 63.965727 191.63784 
L 93.115184 187.554135 
L 93.775721 189.93668 
L 27.142252 214.444595 
L 28.680902 218.888177 
L 78.309647 204.100347 
L 79.497753 206.940229 
L 51.530809 223.630687 
L 53.346232 227.302897 
L 69.43269 223.066241 
L 71.221514 226.175857 
L 95.832367 214.687307 
L 97.344686 216.971002 
L 74.674188 236.967712 
L 76.897514 239.90565 
L 82.172312 240.304151 
L 84.496834 243.004682 
L 95.30277 237.683019 
L 97.538387 239.971996 
L 102.99747 238.805598 
L 105.264579 240.852081 
L 80.213937 276.196771 
L 83.667971 278.941131 
L 115.58965 242.171839 
L 117.956375 243.820733 
L 124.066673 239.521574 
L 126.345876 240.905241 
L 119.823535 258.465416 
L 122.700472 259.973131 
L 104.484464 306.815427 
L 108.889215 308.78153 
L 140.295596 241.688114 
L 142.634896 242.560437 
L 124.793274 306.494579 
L 129.177895 307.822287 
L 139.064531 287.335306 
L 142.839687 288.223767 
L 154.396322 247.313249 
L 156.905517 247.739433 
L 151.699781 311.596428 
L 156.231513 312.075615 
L 163.420411 267.010498 
L 166.544469 267.143207 
L 169.678427 268.71925 
L 172.853117 268.654348 
L 178.41974 303.866473 
L 182.695214 303.509347 
L 186.656409 300.725165 
L 190.829041 300.110613 
L 198.535899 317.52 
L 203.230724 316.523627 
L 202.616018 295.247746 
L 206.608537 294.134098 
L 210.564067 292.895466 
L 214.478695 291.533076 
L 203.978246 254.286395 
L 206.682177 253.150167 
L 231.247376 297.849579 
L 235.307546 295.834411 
L 222.433305 263.383771 
L 225.414153 261.662777 
L 226.673575 257.254368 
L 229.459605 255.403082 
L 250.898668 278.933383 
L 254.354356 276.309688 
L 253.769472 268.848536 
L 256.90665 266.139563 
L 244.035172 246.563001 
L 246.476458 244.171114 
L 258.443222 250.620936 
L 261.004974 247.774022 
L 244.38251 229.2317 
L 246.278689 226.837462 
L 280.032967 247.311369 
L 282.479984 243.787263 
L 276.323645 234.867117 
L 278.381221 231.465793 
L 240.351597 206.32298 
L 241.529469 204.066809 
L 260.120038 209.877594 
L 261.399901 206.998103 
L 248.939799 198.768978 
L 249.87591 196.24651 
L 252.935764 194.397294 
L 253.732445 191.751346 
L 267.905026 192.450974 
L 268.633109 189.335322 
L 283.665554 188.854816 
L 284.272773 185.245396 
L 301.603357 183.640341 
L 302.037753 179.469495 
L 280.792335 174.065992 
L 280.935982 170.554225 
L 272.490261 167.093005 
L 272.418767 163.84572 
L 293.007621 159.163561 
L 292.676663 155.275086 
L 308.26989 149.267153 
L 307.620221 144.903692 
L 301.540154 141.608193 
L 300.652998 137.460117 
L 275.785114 139.632391 
L 274.848568 136.295086 
L 315.503431 119.13598 
L 313.902796 114.559978 
L 257.12064 132.253405 
L 255.961311 129.506601 
L 272.097102 118.475445 
L 270.497159 115.26456 
L 293.695786 98.196299 
L 291.447544 94.316331 
L 272.878916 100.945953 
L 270.727421 97.719153 
L 267.855074 95.018978 
L 265.519706 91.953069 
L 262.498609 89.45758 
L 259.991027 86.56284 
L 228.926771 110.860449 
L 227.108741 109.010698 
L 246.179745 84.593375 
L 243.52729 82.21414 
L 239.827199 81.114354 
L 237.068497 78.936578 
L 250.390691 54.27933 
L 246.783014 51.782682 
L 216.561198 91.899189 
L 214.153098 90.447614 
L 239.910721 36.851758 
L 235.760264 34.693241 
L 208.286915 83.057468 
L 205.604903 81.870426 
L 220.425254 35.484139 
L 216.241431 33.938963 
L 210.38249 37.670208 
L 206.272367 36.439718 
L 200.63752 41.32341 
L 196.64708 40.397516 
L 193.877113 32.773254 
L 189.62118 32.064151 
L 180.084993 75.886398 
L 177.191451 75.589633 
L 176.918757 27.665358 
L 172.510605 27.491988 
L 168.002221 15.124528 
L 163.204167 15.237714 
L 163.589093 88.546599 
L 161.101771 88.762241 
L 151.535124 36.343562 
L 147.412384 36.964018 
L 149.031277 66.441098 
L 145.856107 67.1254 
L 135.387389 40.343246 
L 131.398392 41.469444 
L 126.225861 39.064891 
L 122.201199 40.47978 
L 130.098826 71.308055 
L 127.086045 72.585228 
L 127.120724 80.208907 
L 124.389277 81.575317 
L 125.848967 90.42275 
L 123.439295 91.824097 
L 122.748866 95.889807 
L 120.512624 97.385925 
L 122.449737 104.529266 
L 120.485285 106.030517 
L 117.576202 106.413384 
L 115.673401 108.066939 
L 115.420991 111.451517 
L 113.677666 113.170345 
L 89.330688 94.032443 
L 87.052568 96.58022 
L 101.007126 112.323865 
L 99.298355 114.495466 
L 70.673043 97.474231 
L 68.512366 100.606943 
L 46.162872 91.181619 
L 43.81646 95.088096 
L 70.780988 114.774278 
L 69.164209 117.895042 
L 75.350582 124.606154 
L 74.040679 127.57838 
L 69.228712 129.204041 
L 68.066403 132.366478 
L 36.859369 126.072325 
L 35.614597 130.254074 
L 91.375334 148.52012 
L 90.809415 150.976669 
L 70.600744 149.876585 
L 70.087747 152.985661 
L 34.454684 151.992927 
L 34.026101 156.237468 
L 15.257881 159.504852 
L 15.074981 164.349268 
L 28.147888 169.073417 
L 28.259472 173.507812 
L 43.886567 176.822424 
L 44.234015 180.758129 
L 40.122324 185.304461 
L 40.738327 189.354329 
L 63.397939 188.983032 
L 64.118096 192.299245 
L 93.241292 188.032287 
L 93.9168 190.41063 
L 27.438791 215.337147 
L 29.005358 219.770964 
L 78.540114 204.67129 
L 79.746058 207.503643 
L 51.884641 224.369667 
L 53.723123 228.030387 
L 69.782617 223.69264 
L 71.590964 226.790944 
L 96.129073 215.147833 
L 97.655726 217.421971 
L 75.111445 237.56087 
L 77.353204 240.484767 
L 82.630404 240.850084 
L 84.971865 243.535942 
L 95.744117 238.146421 
L 97.994086 240.421292 
L 103.445725 239.220582 
L 105.72566 241.252766 
L 80.897812 276.754311 
L 84.369038 279.476893 
L 116.058828 242.507559 
L 118.435876 244.141534 
L 124.519014 239.80403 
L 126.806875 241.173335 
L 120.395106 258.774185 
L 123.281469 260.263776 
L 105.360433 307.219714 
L 109.777462 309.158074 
L 140.761243 241.868457 
L 143.105983 242.72605 
L 125.666823 306.771141 
L 130.059709 308.071246 
L 139.817297 287.522489 
L 143.597967 288.387189 
L 154.897069 247.404795 
L 157.408895 247.815189 
L 152.604886 311.703663 
L 157.139542 312.154337 
L 164.044864 267.044899 
L 167.169695 267.157956 
L 170.313503 268.714257 
L 173.487722 268.629389 
L 179.2757 303.805807 
L 183.548843 303.421798 
L 187.492449 300.612757 
L 191.661133 299.971974 
L 199.477333 317.332545 
L 204.165799 316.306664 
L 203.417292 295.03507 
L 207.402728 293.896333 
L 211.350389 292.632848 
L 215.256371 291.245864 
L 204.521869 254.065961 
L 207.2186 252.912749 
L 232.064448 297.456776 
L 236.111863 295.416112 
L 223.033781 263.047085 
L 226.003746 261.307378 
L 227.235417 256.891135 
L 230.009747 255.022363 
L 251.596379 278.417358 
L 255.035497 275.771981 
L 254.403698 268.314655 
L 257.523777 265.586005 
L 244.529428 246.090784 
L 246.955621 243.683591 
L 258.962714 250.05802 
L 261.50651 247.195051 
L 244.767754 228.757642 
L 246.648838 226.351525 
L 280.531217 246.612732 
L 282.956021 243.073305 
L 276.743701 234.192056 
L 278.779844 230.777858 
L 240.592839 205.874727 
L 241.756497 203.611193 
L 260.383245 209.304939 
L 261.644972 206.417454 
L 249.13336 198.26686 
L 250.053588 195.738554 
L 253.101751 193.87013 
L 253.881774 191.219223 
L 268.058475 191.8297 
L 268.766948 188.70953 
L 283.796074 188.134488 
L 284.380579 184.52132 
L 301.700726 182.807297 
L 302.108881 178.633802 
L 280.829898 173.364028 
L 280.951455 169.851426 
L 272.484132 166.443394 
L 272.392216 163.196623 
L 292.951215 158.385065 
L 292.595807 154.498748 
L 308.150939 148.392861 
L 307.473839 144.033572 
L 301.373166 140.776379 
L 300.459939 136.633964 
L 275.606208 138.9626 
L 274.648691 135.631252 
L 315.194829 118.216789 
L 313.565445 113.650945 
L 256.895694 131.70115 
L 255.719112 128.961691 
L 271.785204 117.829268 
L 270.165098 114.628509 
L 293.255917 97.41468 
L 290.983316 93.548929 
L 272.456752 100.295206 
L 270.285005 97.082002 
L 267.395732 94.399945 
L 265.041127 91.348785 
L 262.004395 88.872347 
L 259.478656 85.993435 
L 228.567833 110.485939 
L 226.738205 108.64766 
L 245.655261 84.110874 
L 242.987895 81.748369 
L 239.28096 80.671876 
L 236.508615 78.511493 
L 249.675465 53.770944 
L 246.052157 51.297036 
L 216.083249 91.602827 
L 213.666067 90.166427 
L 239.086093 36.40963 
L 234.922143 34.277259 
L 207.75352 82.813321 
L 205.064095 81.643172 
L 219.59241 35.16459 
L 215.398951 33.645759 
L 209.563594 37.413779 
L 205.445813 36.209164 
L 199.841793 41.128199 
L 195.845608 40.227422 
L 193.027744 32.620732 
L 188.767435 31.93841 
L 179.507054 75.819768 
L 176.611702 75.541207 
L 176.037598 27.619595 
L 171.628443 27.473953 
L 167.042364 15.135093 
L 162.245116 15.278454 
L 163.091106 88.583468 
L 160.60519 88.81475 
L 150.709048 36.457276 
L 146.590292 37.103649 
L 148.394546 66.569965 
L 145.223744 67.274223 
L 134.586788 40.558441 
L 130.604953 41.709706 
L 125.417401 39.337732 
L 121.401718 40.777906 
L 129.49308 71.5559 
L 126.488392 72.851996 
L 126.571018 80.475306 
L 123.84822 81.858869 
L 125.363526 90.696946 
L 122.962715 92.11342 
L 122.297872 96.183393 
L 120.071083 97.693546 
L 122.053085 104.824562 
L 120.098115 106.338139 
L 117.191497 106.739295 
L 115.299134 108.404784 
L 115.068016 111.790884 
L 113.335535 113.520642 
L 88.868672 94.536247 
L 86.606622 97.098301 
L 100.659922 112.753869 
L 98.964843 114.936174 
L 70.233043 98.095313 
L 68.092112 101.241553 
L 45.68378 91.956981 
L 43.361984 95.878138 
L 70.449793 115.394339 
L 68.852674 118.52521 
L 75.081134 125.19728 
L 73.789951 128.177685 
L 68.988303 129.833579 
L 67.845908 133.003264 
L 36.599904 126.90551 
L 35.381457 131.095005 
L 91.255974 149.009987 
L 90.705517 151.470046 
L 70.490326 150.497085 
L 69.996894 153.609326 
L 34.358292 152.840724 
L 33.956414 157.087876 
L 15.209115 160.473237 
L 15.056687 165.318708 
L 28.159048 169.960542 
L 28.298519 174.394148 
L 43.946152 177.610408 
L 44.318347 181.54385 
L 40.235331 186.115953 
L 40.876793 190.161866 
L 63.533622 189.64806 
L 64.274621 192.959678 
L 93.370405 188.509636 
L 94.060858 190.883683 
L 27.740937 216.227817 
L 29.33536 220.651693 
L 78.774168 205.240772 
L 79.997901 208.065485 
L 52.243113 225.106407 
L 54.104583 228.755492 
L 70.136478 224.316826 
L 71.964275 227.403694 
L 96.428671 215.606483 
L 97.969596 217.870974 
L 75.552423 238.151266 
L 77.812527 241.061005 
L 83.09192 241.393125 
L 85.450228 244.064203 
L 96.18837 238.607038 
L 98.452602 240.867712 
L 103.896582 239.632739 
L 106.189253 241.650543 
L 81.585181 277.307539 
L 85.073461 280.008235 
L 116.530108 242.840322 
L 118.917386 244.459314 
L 124.973124 240.083636 
L 127.269551 241.438525 
L 120.968608 259.079353 
L 123.864283 260.550761 
L 106.238927 307.618483 
L 110.668061 309.529025 
L 141.228015 242.045868 
L 143.578102 242.888697 
L 126.542095 307.042203 
L 130.94307 308.314654 
L 140.571226 287.704933 
L 144.357259 288.545838 
L 155.398382 247.49319 
L 157.912739 247.887778 
L 153.510647 311.805203 
L 158.048048 312.227348 
L 164.669521 267.075371 
L 167.795001 267.168772 
L 170.948535 268.70527 
L 174.122158 268.600439 
L 180.131261 303.739759 
L 184.401904 303.328881 
L 188.327765 300.495093 
L 192.492336 299.828104 
L 200.41757 317.139172 
L 205.099491 316.083824 
L 204.217213 294.817358 
L 208.195408 293.653577 
L 212.135044 292.365289 
L 216.032226 290.953766 
L 205.064095 253.842112 
L 207.75352 252.671962 
L 232.879033 297.058842 
L 236.913534 294.992762 
L 223.632127 262.706629 
L 226.591091 260.948277 
L 227.794962 256.524375 
L 230.557485 254.638191 
L 252.290831 277.896956 
L 255.713243 275.230001 
L 255.034554 267.776796 
L 258.137409 265.028576 
L 245.020703 245.615468 
L 247.431709 243.193063 
L 259.478656 249.491849 
L 262.004395 246.612937 
L 245.150009 228.28117 
L 247.015923 225.86327 
L 281.025063 245.910975 
L 283.427559 242.356368 
L 277.159503 233.514366 
L 279.174133 230.08743 
L 240.831256 205.424966 
L 241.980655 203.154157 
L 260.642844 208.730639 
L 261.886386 205.835276 
L 249.323759 197.763534 
L 250.228067 195.22949 
L 253.264419 193.341932 
L 254.027754 190.686172 
L 268.208014 191.207473 
L 268.896848 188.082909 
L 283.92206 187.413354 
L 284.48383 183.796581 
L 301.792853 181.973658 
L 302.174751 177.797678 
L 280.863046 172.661841 
L 280.962508 169.148545 
L 272.473918 165.793834 
L 272.361583 162.547706 
L 292.889914 157.606938 
L 292.51007 153.722934 
L 308.026491 147.519334 
L 307.321988 143.16439 
L 301.200949 139.945631 
L 300.261687 135.809042 
L 275.423093 138.293948 
L 274.444643 134.968688 
L 314.880452 117.299557 
L 313.222384 112.744051 
L 256.667279 131.150319 
L 255.473491 128.418315 
L 271.469248 117.185066 
L 269.829043 113.99456 
L 292.81114 96.635843 
L 290.514271 92.784461 
L 272.030504 99.647127 
L 269.838591 96.447645 
L 266.932506 93.783813 
L 264.558757 90.747523 
L 261.50651 88.290233 
L 258.962714 85.427264 
L 228.206546 110.113695 
L 226.365393 108.28696 
L 245.127753 83.631681 
L 242.44558 81.285999 
L 238.731948 80.232842 
L 235.94607 78.089939 
L 248.957056 53.267066 
L 245.31826 50.815996 
L 215.603445 91.309477 
L 213.177277 89.888308 
L 238.2587 35.972697 
L 234.081421 33.866557 
L 207.2186 82.572535 
L 204.521869 81.419323 
L 218.757573 34.850286 
L 214.554644 33.357859 
L 208.743101 37.162506 
L 204.617825 35.983813 
L 199.044854 40.937997 
L 195.043083 40.062371 
L 192.177433 32.473555 
L 187.912916 31.818041 
L 178.928707 75.756774 
L 176.031661 75.496428 
L 175.156168 27.579375 
L 170.746184 27.461467 
L 166.082591 15.151695 
L 161.28634 15.325225 
L 162.593361 88.623468 
L 160.108948 88.87038 
L 149.883703 36.576183 
L 145.769094 37.248449 
L 147.758639 66.702834 
L 144.592328 67.42702 
L 133.787556 40.778667 
L 129.81304 41.954953 
L 124.610673 39.615653 
L 120.604127 41.081055 
L 128.888905 71.80755 
L 125.892428 73.122518 
L 126.022999 80.745158 
L 123.308957 82.145818 
L 124.879819 90.97419 
L 122.487965 92.405736 
L 121.848732 96.479809 
L 119.631485 98.003938 
L 121.658299 105.122347 
L 119.712886 106.64819 
L 116.808849 107.067619 
L 114.926998 108.744977 
L 114.717182 112.132463 
L 112.995615 113.873084 
L 88.409834 95.042946 
L 86.163943 97.619177 
L 100.315429 113.186048 
L 98.63411 115.378971 
L 69.796959 98.71915 
L 67.675857 101.878793 
L 45.209574 92.73534 
L 42.912485 96.671022 
L 70.122505 116.01647 
L 68.545109 119.157325 
L 74.815409 125.790089 
L 73.542997 128.778556 
L 68.751859 130.464617 
L 67.629421 133.641424 
L 36.345684 127.74031 
L 35.153611 131.937386 
L 91.139698 149.500594 
L 90.604725 151.964067 
L 70.383814 151.118267 
L 69.909966 154.23355 
L 34.267235 153.689109 
L 33.892076 157.938706 
L 15.16644 161.441909 
L 15.044491 166.288243 
L 28.175787 170.847579 
L 28.34314 175.28022 
L 44.010692 178.398001 
L 44.407618 182.329026 
L 40.353439 186.926717 
L 41.020335 190.968516 
L 63.673484 190.312221 
L 64.435298 193.619113 
L 93.502517 188.986164 
L 94.207888 191.355822 
L 28.048679 217.116568 
L 29.670894 221.530329 
L 79.011798 205.808771 
L 80.253273 208.625731 
L 52.606212 225.840878 
L 54.490596 229.478183 
L 70.494257 224.938774 
L 72.341432 228.014085 
L 96.731146 216.06324 
L 98.286283 218.317995 
L 75.997105 238.738877 
L 78.275466 241.634344 
L 83.556843 241.933252 
L 85.931904 244.589445 
L 96.635511 239.064851 
L 98.913917 241.31124 
L 104.350021 240.042051 
L 106.655338 242.045396 
L 82.276015 277.856433 
L 85.781212 280.535136 
L 117.003472 243.170113 
L 119.400885 244.774059 
L 125.428982 240.360381 
L 127.733886 241.7008 
L 121.544018 259.380908 
L 124.44889 260.834074 
L 107.119912 308.011719 
L 111.560974 309.894366 
L 141.695893 242.220339 
L 144.051235 243.048371 
L 127.419054 307.307755 
L 131.827945 308.552501 
L 141.326287 287.882633 
L 145.117534 288.699709 
L 155.900241 247.57843 
L 158.41703 247.957197 
L 154.41703 311.901044 
L 158.956996 312.294643 
L 165.294358 267.101913 
L 168.420363 267.175655 
L 171.583498 268.692289 
L 174.756399 268.5675 
L 180.986389 303.668331 
L 185.254364 303.230602 
L 189.162324 300.372178 
L 193.322619 299.679009 
L 201.356572 316.93989 
L 206.031762 315.855115 
L 205.015748 294.59462 
L 208.986545 293.405841 
L 212.918001 292.0928 
L 216.806228 290.656794 
L 205.604903 253.614857 
L 208.286915 252.427816 
L 233.691099 296.655792 
L 237.712526 294.564379 
L 224.22832 262.362417 
L 227.176167 260.58549 
L 228.35219 256.154103 
L 231.102795 254.250582 
L 252.981996 277.372196 
L 256.387566 274.683769 
L 255.662014 267.23498 
L 258.747523 264.4673 
L 245.50898 245.137072 
L 247.904702 242.699551 
L 259.991027 248.922444 
L 262.498609 246.027703 
L 245.52926 227.802303 
L 247.379929 225.372715 
L 281.514486 245.206126 
L 283.894577 241.636479 
L 277.571034 232.834074 
L 279.564071 229.394535 
L 241.06684 204.973714 
L 242.201934 202.695721 
L 260.898827 208.154718 
L 262.124134 205.251591 
L 249.510989 197.25902 
L 250.399341 194.719339 
L 253.423761 192.812721 
L 254.170378 190.152213 
L 268.353636 190.584318 
L 269.022805 187.455483 
L 284.043509 186.691441 
L 284.58252 183.071207 
L 301.879736 181.139456 
L 302.235362 176.961157 
L 280.891776 171.95946 
L 280.96914 168.445607 
L 272.459619 165.144352 
L 272.326869 161.898994 
L 292.823719 156.829212 
L 292.419455 152.947674 
L 307.896552 146.646607 
L 307.164672 142.296181 
L 301.023511 139.115983 
L 300.05825 134.985383 
L 275.235777 137.626461 
L 274.236432 134.30742 
L 314.560312 116.38432 
L 312.873625 111.839333 
L 256.435404 130.600937 
L 255.224457 127.876495 
L 271.149247 116.542863 
L 269.489008 113.362736 
L 292.361474 95.859819 
L 290.040427 92.022959 
L 271.600188 99.001741 
L 269.388195 95.816109 
L 266.465414 93.170607 
L 264.072616 90.149306 
L 261.004974 87.711262 
L 258.443222 84.864348 
L 227.842926 109.74373 
L 225.990319 107.928611 
L 244.597241 83.155815 
L 241.900368 80.827049 
L 238.180185 79.797269 
L 235.380886 77.67193 
L 248.235492 52.767717 
L 244.581352 50.339581 
L 215.121806 91.019151 
L 212.686748 89.613269 
L 237.428576 35.540976 
L 233.238133 33.461151 
L 206.682177 82.335117 
L 203.978246 81.198889 
L 217.920775 34.541239 
L 213.708543 33.075275 
L 207.921043 36.916398 
L 203.788436 35.763674 
L 198.246734 40.752811 
L 194.239535 39.902372 
L 191.326212 32.331729 
L 187.057658 31.703049 
L 178.349976 75.697418 
L 175.451349 75.455299 
L 174.274503 27.5447 
L 169.863865 27.45453 
L 165.122942 15.174333 
L 160.327877 15.378025 
L 162.095877 88.666598 
L 159.613066 88.929131 
L 149.059122 36.700279 
L 144.948823 37.39841 
L 147.12358 66.839699 
L 143.961887 67.583786 
L 132.989725 41.003916 
L 129.022686 42.205175 
L 123.805709 39.898642 
L 119.808458 41.389214 
L 128.286325 72.062994 
L 125.298178 73.396783 
L 125.476689 81.018451 
L 122.771509 82.436152 
L 124.397866 91.25447 
L 122.015062 92.701031 
L 121.401466 96.779045 
L 119.193849 98.317088 
L 121.265393 105.422609 
L 119.329616 106.960657 
L 116.428274 107.398343 
L 114.55701 109.087504 
L 114.368503 112.476242 
L 112.657917 114.227656 
L 87.954192 95.552522 
L 85.724548 98.142827 
L 99.973662 113.620386 
L 98.306168 115.823839 
L 69.364806 99.345717 
L 67.263619 102.518638 
L 44.740273 93.516666 
L 42.467983 97.466718 
L 69.799137 116.640648 
L 68.241526 119.791361 
L 74.553419 126.384558 
L 73.299827 129.380969 
L 68.519388 131.09713 
L 67.416953 134.280933 
L 36.09672 128.576693 
L 34.931068 132.781183 
L 91.02651 149.991923 
L 90.507041 152.458712 
L 70.281211 151.740107 
L 69.826965 154.858309 
L 34.181515 154.538051 
L 33.833091 158.789923 
L 15.129859 162.410831 
L 15.038393 167.257836 
L 28.198104 171.734493 
L 28.393333 176.165994 
L 44.080185 179.185174 
L 44.501827 183.113624 
L 40.476645 187.736723 
L 41.168948 191.774248 
L 63.817521 190.97549 
L 64.600118 194.277525 
L 93.637624 189.461851 
L 94.357885 191.827026 
L 28.362005 218.003367 
L 30.011948 222.406838 
L 79.252997 206.375264 
L 80.512164 209.18436 
L 52.973923 226.573051 
L 54.881146 230.198433 
L 70.85594 225.558459 
L 72.722421 228.622092 
L 97.036489 216.518086 
L 98.605776 218.763015 
L 76.445475 239.323679 
L 78.742001 242.20476 
L 84.025154 242.470445 
L 86.416874 245.111648 
L 97.085523 239.519843 
L 99.378012 241.751858 
L 104.806026 240.448504 
L 107.123897 242.43731 
L 82.970287 278.400971 
L 86.492263 281.057575 
L 117.4789 243.496921 
L 119.886354 245.085757 
L 125.886572 240.634253 
L 128.199861 241.960148 
L 122.121314 259.678838 
L 125.035267 261.113705 
L 108.003353 308.399407 
L 112.456168 310.254085 
L 142.16486 242.391865 
L 144.525363 243.205066 
L 128.297666 307.567786 
L 132.714299 308.784778 
L 142.082451 288.05558 
L 145.878762 288.848795 
L 156.402626 247.660512 
L 158.921747 248.023442 
L 155.323997 311.991182 
L 159.866349 312.35622 
L 165.919348 267.124526 
L 169.045756 267.178606 
L 172.218367 268.675314 
L 175.39042 268.530573 
L 181.841052 303.591526 
L 186.106189 303.126962 
L 189.996094 300.244016 
L 194.151946 299.524696 
L 202.294302 316.734705 
L 206.962578 315.620548 
L 205.812867 294.366863 
L 209.776108 293.153134 
L 213.699228 291.815392 
L 217.578346 290.35496 
L 206.14427 253.384206 
L 208.818764 252.18032 
L 234.500614 296.247643 
L 238.508807 294.130979 
L 224.822337 262.014462 
L 227.758949 260.219029 
L 228.907078 255.780334 
L 231.645656 253.85955 
L 253.669847 276.8431 
L 257.058441 274.133307 
L 256.286055 266.689229 
L 259.354096 263.902197 
L 245.994238 244.655614 
L 248.374582 242.203074 
L 260.499806 248.349827 
L 262.989132 245.439373 
L 245.905492 227.321061 
L 247.740844 224.879881 
L 281.999466 244.498213 
L 284.357059 240.913667 
L 277.978279 232.151208 
L 279.949644 228.699201 
L 241.29958 204.520989 
L 242.420325 202.235902 
L 261.151183 207.577198 
L 262.358206 204.666422 
L 249.695042 196.753339 
L 250.567404 194.208121 
L 253.579772 192.282519 
L 254.309641 189.617367 
L 268.495336 189.960259 
L 269.144814 186.827278 
L 284.160415 185.968779 
L 284.676646 182.345226 
L 301.96137 180.304724 
L 302.29071 176.124271 
L 280.916088 171.256912 
L 272.492304 167.742642 
z
" clip-path="url(#pd2113a3412)" style="fill: #0000ff; opacity: 0.5; stroke: #000000; stroke-width: 1.5; stroke-linejoin: miter"/>
   </g>
  </g>
 </g>
 <defs>
  <clipPath id="pd2113a3412">
   <rect x="0" y="-0" width="330.844639" height="332.64"/>
  </clipPath>
 </defs>
</svg>
