<?xml version="1.0" encoding="utf-8" standalone="no"?>
<!DOCTYPE svg PUBLIC "-//W3C//DTD SVG 1.1//EN"
  "http://www.w3.org/Graphics/SVG/1.1/DTD/svg11.dtd">
<svg xmlns:xlink="http://www.w3.org/1999/xlink" width="311.244429pt" height="332.64pt" viewBox="0 0 311.244429 332.64" xmlns="http://www.w3.org/2000/svg" version="1.1">
 <metadata>
  <rdf:RDF xmlns:dc="http://purl.org/dc/elements/1.1/" xmlns:cc="http://creativecommons.org/ns#" xmlns:rdf="http://www.w3.org/1999/02/22-rdf-syntax-ns#">
   <cc:Work>
    <dc:type rdf:resource="http://purl.org/dc/dcmitype/StillImage"/>
    <dc:date>2023-12-09T18:06:20.167174</dc:date>
    <dc:format>image/svg+xml</dc:format>
    <dc:creator>
     <cc:Agent>
      <dc:title>Matplotlib v3.8.2, https://matplotlib.org/</dc:title>
     </cc:Agent>
    </dc:creator>
   </cc:Work>
  </rdf:RDF>
 </metadata>
 <defs>
  <style type="text/css">*{stroke-linejoin: round; stroke-linecap: butt}</style>
 </defs>
 <g id="figure_1">
  <g id="patch_1">
   <path d="M 0 332.64 
L 311.244429 332.64 
L 311.244429 0 
L 0 0 
L 0 332.64 
z
" style="fill: none"/>
  </g>
  <g id="axes_1">
   <g id="patch_2">
    <path d="M 278.606498 168.785396 
L 278.543828 164.800008 
L 230.722313 163.818419 
L 230.527146 161.34107 
L 280.709987 152.490584 
L 280.133932 148.447114 
L 282.505181 143.836728 
L 281.656143 139.741092 
L 269.311825 138.595755 
L 268.304522 134.917539 
L 248.580704 137.323229 
L 247.54364 134.297473 
L 248.594068 130.440908 
L 247.340602 127.418135 
L 253.778653 120.768296 
L 252.218495 117.58729 
L 255.357274 111.815945 
L 253.514855 108.58973 
L 272.704259 91.995257 
L 270.230057 88.233415 
L 217.022327 121.374908 
L 215.499416 119.349302 
L 259.705374 79.436913 
L 256.842737 76.089994 
L 229.368045 95.884337 
L 227.03755 93.483158 
L 251.389728 62.616385 
L 248.002328 59.539245 
L 249.501906 50.537054 
L 245.735639 47.525244 
L 210.184796 88.339932 
L 207.626574 86.545647 
L 225.10501 53.102526 
L 221.431469 50.856539 
L 224.836981 35.692273 
L 220.616157 33.463321 
L 194.725318 77.410033 
L 191.83108 76.107231 
L 181.7183 93.09168 
L 179.323558 92.190094 
L 194.483442 37.020561 
L 190.31939 35.745334 
L 182.052118 50.521769 
L 178.318719 49.630734 
L 169.901606 73.458116 
L 166.895384 72.93778 
L 164.940638 63.971862 
L 161.6386 63.6122 
L 160.436691 28.994542 
L 156.037116 28.793788 
L 151.624793 23.254496 
L 147.049096 23.333645 
L 142.47815 23.556625 
L 137.916475 23.923216 
L 132.175998 15.12 
L 127.35415 15.814684 
L 129.51089 52.771057 
L 125.874191 53.530923 
L 121.087404 49.859832 
L 117.363336 50.885989 
L 121.212148 75.082596 
L 118.281077 76.09236 
L 98.595234 35.032566 
L 94.416084 36.773258 
L 92.635684 43.595503 
L 88.728719 45.519342 
L 76.560289 32.498141 
L 72.312346 34.932912 
L 86.651926 66.527962 
L 83.468966 68.628605 
L 62.824598 46.812998 
L 59.033537 49.672572 
L 62.835766 61.676004 
L 59.512025 64.527878 
L 84.737031 97.645966 
L 82.533436 99.791432 
L 87.829733 108.950272 
L 85.98004 110.992907 
L 38.888701 75.798469 
L 36.020842 79.396309 
L 85.267845 120.663472 
L 83.787708 122.780868 
L 22.159968 86.947667 
L 19.650934 91.065982 
L 79.070024 129.022284 
L 77.855771 131.33042 
L 71.752687 131.357021 
L 70.615461 133.894076 
L 36.057926 123.308915 
L 34.685298 126.97227 
L 70.669127 142.660753 
L 69.887851 145.226289 
L 60.845187 145.698854 
L 60.164293 148.571773 
L 50.346111 149.732609 
L 49.797237 152.933648 
L 15.18117 151.938684 
L 14.719048 156.244294 
L 14.392531 160.562307 
L 14.201944 164.88845 
L 39.967377 169.13725 
L 40.033759 172.655025 
L 51.92151 175.394472 
L 52.178723 178.533289 
L 72.708697 179.046811 
L 73.07047 181.530228 
L 35.874557 191.310518 
L 36.64014 194.946017 
L 39.034009 198.161339 
L 40.013434 201.69411 
L 35.900425 206.904827 
L 37.156314 210.531802 
L 50.875468 209.17746 
L 52.19541 212.332463 
L 21.102911 230.885515 
L 23.120122 234.9659 
L 55.372283 222.285709 
L 57.102153 225.292842 
L 51.676024 232.882718 
L 53.740915 236.00083 
L 81.78429 220.098855 
L 83.432342 222.276618 
L 46.687184 256.468419 
L 49.496127 259.73173 
L 49.564935 265.594242 
L 52.659392 268.762557 
L 96.919324 227.750958 
L 98.800492 229.449059 
L 85.348641 249.838191 
L 87.93 251.889179 
L 75.940768 274.173832 
L 79.291944 276.508591 
L 86.046862 273.437964 
L 89.369905 275.455329 
L 83.777689 293.860654 
L 87.743987 295.93927 
L 97.385544 285.832727 
L 101.092699 287.487451 
L 94.879595 314.530124 
L 99.490298 316.249452 
L 107.253335 308.135517 
L 111.65686 309.46895 
L 120.688816 292.454341 
L 124.592648 293.373086 
L 128.523436 294.168631 
L 132.477295 294.84019 
L 135.316328 304.70747 
L 139.598193 305.160235 
L 145.120513 284.388407 
L 148.758654 284.542953 
L 152.351876 274.411618 
L 155.672749 274.343727 
L 160.36423 294.468029 
L 164.311759 294.138296 
L 168.145147 292.908835 
L 172.039805 292.335224 
L 168.395477 253.247551 
L 171.042973 252.685678 
L 180.018512 276.260606 
L 183.383842 275.321901 
L 200.958371 317.366313 
L 205.605802 315.74889 
L 195.030001 276.233947 
L 198.387071 274.823262 
L 185.869128 240.11482 
L 188.095063 239.010031 
L 213.496289 279.539508 
L 216.948163 277.546568 
L 211.458365 261.619693 
L 214.347809 259.69969 
L 219.955107 261.47295 
L 222.835736 259.285863 
L 243.717818 278.615134 
L 247.125685 275.67242 
L 228.890551 249.927045 
L 231.403733 247.464716 
L 247.024591 257.170748 
L 249.756564 254.134664 
L 230.588282 233.181434 
L 232.574106 230.674004 
L 228.759814 223.998608 
L 230.457813 221.55321 
L 255.283508 233.596609 
L 257.270176 230.312503 
L 279.787022 238.156431 
L 281.904945 234.099626 
L 236.331239 207.935653 
L 237.52044 205.260134 
L 262.687562 211.911438 
L 263.98874 208.405254 
L 244.303299 198.214589 
L 245.182907 195.293218 
L 288.4745 202.985743 
L 289.482284 198.673173 
L 264.962243 189.647679 
L 265.562275 186.080982 
L 296.346827 186.135002 
L 296.820896 181.58324 
L 265.904732 175.248194 
L 266.051547 171.658982 
L 278.603991 167.988192 
L 278.516256 164.003277 
L 230.689514 163.322477 
L 230.478769 160.846405 
L 280.604953 151.680473 
L 280.003479 147.640706 
L 282.345684 143.015498 
L 281.470903 138.925283 
L 269.119626 137.857607 
L 268.089209 134.185798 
L 248.380912 136.715493 
L 247.324838 133.69632 
L 248.350989 129.833224 
L 247.078536 126.818394 
L 253.474636 120.128195 
L 251.894503 116.957065 
L 254.996921 111.166092 
L 253.134247 107.951529 
L 272.218902 91.236694 
L 269.721089 87.490488 
L 216.722853 120.965971 
L 215.187232 118.949984 
L 259.14129 78.760353 
L 256.257659 75.431505 
L 228.908005 95.398257 
L 226.562455 93.011783 
L 250.720016 61.992459 
L 247.31333 58.936685 
L 248.75626 49.925241 
L 244.971125 46.937177 
L 209.677686 87.974653 
L 207.108229 86.196493 
L 224.375981 52.644104 
L 220.688387 50.421266 
L 223.998457 35.235881 
L 219.763697 33.03352 
L 194.149771 77.142201 
L 191.247396 75.857629 
L 181.241639 92.905345 
L 178.841273 92.018839 
L 193.653873 36.75505 
L 189.481882 35.506038 
L 181.307709 50.334176 
L 177.568781 49.466641 
L 169.301695 73.34649 
L 166.29226 72.845072 
L 164.281161 63.891625 
L 160.976927 63.552738 
L 159.557316 28.943324 
L 155.156566 28.770245 
L 150.709491 23.258813 
L 146.134382 23.36674 
L 141.564929 23.618464 
L 137.005649 24.013738 
L 131.209919 15.2468 
L 126.392536 15.971797 
L 128.781667 52.913875 
L 125.14982 53.696598 
L 120.340038 50.055686 
L 116.622497 51.105245 
L 120.623417 75.277167 
L 117.698754 76.305346 
L 97.755058 35.370177 
L 93.586939 37.137118 
L 91.849482 43.970426 
L 87.954694 45.9188 
L 75.704608 32.974389 
L 71.472063 35.435829 
L 86.010075 66.940066 
L 82.840389 69.060686 
L 62.059222 47.375352 
L 58.286221 50.258713 
L 62.16387 62.237994 
L 58.858131 65.110716 
L 84.290932 98.069499 
L 82.100874 100.228781 
L 87.45467 109.354129 
L 85.617861 111.408358 
L 38.306101 76.510793 
L 35.460926 80.126599 
L 84.966502 121.083211 
L 83.499712 123.209874 
L 21.64782 87.764985 
L 19.164738 91.898999 
L 78.821377 129.480838 
L 77.621664 131.796565 
L 71.518868 131.861551 
L 70.397621 134.405708 
L 35.774195 124.038104 
L 34.424635 127.710019 
L 70.506424 143.171875 
L 69.741299 145.742273 
L 60.701786 146.271702 
L 60.038974 149.148847 
L 50.228287 150.371411 
L 49.699558 153.575838 
L 15.077917 152.798609 
L 14.642884 157.107041 
L 14.343531 161.427022 
L 14.180157 165.754278 
L 39.971803 169.840944 
L 40.060309 173.358232 
L 51.965054 176.022858 
L 52.242003 179.159995 
L 72.774801 179.544385 
L 73.152186 182.025477 
L 36.018522 192.039515 
L 36.806954 195.670127 
L 39.220999 198.870329 
L 40.222623 202.396871 
L 36.142468 207.633353 
L 37.421144 211.252357 
L 51.131509 209.811756 
L 52.471267 212.958395 
L 21.496072 231.706635 
L 23.538906 235.774252 
L 55.710678 222.891464 
L 57.459427 225.887657 
L 52.081141 233.511511 
L 54.165603 236.616574 
L 82.108409 220.538537 
L 83.770125 222.705891 
L 47.24074 257.128122 
L 50.070153 260.373702 
L 50.175831 266.235665 
L 53.290153 269.384455 
L 97.291271 228.095298 
L 99.183081 229.781533 
L 85.859732 250.254867 
L 88.45394 252.289579 
L 76.605103 274.649196 
L 79.970897 276.962832 
L 86.706369 273.849781 
L 90.042034 275.846207 
L 84.565688 294.28634 
L 88.544981 296.339969 
L 98.122783 286.172985 
L 101.840272 287.804361 
L 95.797373 314.885575 
L 100.418799 316.575871 
L 108.130651 308.413272 
L 112.542475 309.718982 
L 121.46724 292.647904 
L 125.376773 293.542078 
L 129.312487 294.312885 
L 133.270491 294.959563 
L 136.171528 304.808792 
L 140.456155 305.234618 
L 145.847724 284.428468 
L 149.486765 284.560129 
L 153.016195 274.406395 
L 156.336576 274.317619 
L 161.154534 294.412016 
L 165.099912 294.057462 
L 168.925491 292.803915 
L 172.816464 292.20582 
L 168.926369 253.141841 
L 171.570279 252.563329 
L 180.693913 276.081339 
L 184.053273 275.121487 
L 201.89189 317.054534 
L 206.529056 315.407912 
L 195.704937 275.960267 
L 199.053069 274.528495 
L 186.317077 239.899471 
L 188.53602 238.780703 
L 214.19165 279.14962 
L 217.630921 277.135009 
L 212.041062 261.242977 
L 214.918372 259.304839 
L 220.536712 261.042797 
L 223.403528 258.837636 
L 244.406768 278.035188 
L 247.79606 275.071098 
L 229.399362 249.440921 
L 231.897008 246.962835 
L 247.578602 256.570429 
L 250.291427 253.517222 
L 230.991739 232.684964 
L 232.961754 230.165094 
L 229.105552 223.51382 
L 230.788138 221.05779 
L 255.689088 232.944812 
L 257.655062 229.648275 
L 280.220796 237.35043 
L 282.313162 233.280385 
L 236.575801 207.403562 
L 237.748151 204.720617 
L 262.956608 211.213503 
L 264.235708 207.699204 
L 244.486563 197.632551 
L 245.34778 194.705706 
L 288.686898 202.125798 
L 289.667539 197.806976 
L 265.091218 188.935878 
L 265.668805 185.365477 
L 296.453089 185.225878 
L 296.89852 180.671225 
L 265.943124 174.53075 
L 266.067361 170.940685 
L 278.59647 167.19102 
L 278.483674 163.206736 
L 230.653596 162.826752 
L 230.427282 160.352055 
L 280.494827 150.871038 
L 279.867956 146.835134 
L 282.181025 142.195286 
L 281.280536 138.110654 
L 268.922789 137.120682 
L 267.869298 133.455427 
L 248.177301 136.109025 
L 247.102259 133.096554 
L 248.104093 129.227081 
L 246.812704 126.220314 
L 253.1666 119.490018 
L 251.566554 116.328889 
L 254.632489 110.518519 
L 252.749634 107.315735 
L 271.728784 90.481198 
L 269.207459 86.750776 
L 216.420813 120.558927 
L 214.872543 118.552637 
L 258.572961 78.087355 
L 255.668451 74.776709 
L 228.444918 94.91508 
L 226.084404 92.543405 
L 250.046394 61.372758 
L 246.620556 58.33847 
L 248.00678 49.318129 
L 244.202927 46.353931 
L 209.168289 87.612571 
L 206.587699 85.850607 
L 223.644084 52.190277 
L 219.942583 49.990675 
L 223.15708 34.784772 
L 218.908552 32.609089 
L 193.572551 76.877995 
L 190.662154 75.611702 
L 180.763815 92.722012 
L 178.357922 91.85062 
L 192.82265 36.494761 
L 188.642886 35.272013 
L 180.562136 50.151269 
L 176.817825 49.307267 
L 168.701093 73.238639 
L 165.688564 72.756158 
L 163.621193 63.815537 
L 160.314892 63.497439 
L 158.677636 28.897638 
L 154.275885 28.75224 
L 149.794234 23.268888 
L 145.219894 23.405587 
L 140.652114 23.686046 
L 136.095411 24.109987 
L 130.244656 15.379674 
L 125.431929 16.134956 
L 128.053357 53.061276 
L 124.426505 53.866826 
L 119.593919 50.256237 
L 115.883053 51.329157 
L 120.035921 75.475436 
L 117.117783 76.52199 
L 96.917022 35.713065 
L 92.760098 37.506187 
L 91.065654 44.350287 
L 87.183196 46.323118 
L 74.85194 33.456009 
L 70.63496 35.944021 
L 85.370828 67.356199 
L 82.214542 69.496713 
L 61.297397 47.942509 
L 57.542606 50.849544 
L 61.495521 62.804199 
L 58.207915 65.697656 
L 83.847505 98.495828 
L 81.671071 100.668843 
L 87.082155 109.760337 
L 85.258302 111.826078 
L 37.727992 77.226768 
L 34.905615 80.860397 
L 84.667805 121.504837 
L 83.21442 123.640683 
L 21.140823 88.585508 
L 18.683791 92.735058 
L 78.575618 129.940947 
L 77.390494 132.264174 
L 71.288226 132.367541 
L 70.183003 134.9187 
L 35.495056 124.769062 
L 34.168617 128.449394 
L 70.346938 143.684009 
L 69.597995 146.259169 
L 60.561991 146.845441 
L 59.917288 149.726697 
L 50.114484 151.010941 
L 49.605918 154.21863 
L 14.980075 153.659167 
L 14.572147 157.97025 
L 14.299971 162.292028 
L 14.163816 166.620226 
L 39.980654 170.544597 
L 40.091281 174.061258 
L 52.012549 176.650957 
L 52.309224 179.78629 
L 72.844033 180.041533 
L 73.237015 182.520203 
L 36.167068 192.767592 
L 36.978319 196.393173 
L 39.412443 199.578129 
L 40.436228 203.098301 
L 36.389088 208.360342 
L 37.6905 211.971233 
L 51.391533 210.44443 
L 52.751056 213.58258 
L 21.894389 232.525266 
L 23.962766 236.579954 
L 56.052876 223.495078 
L 57.820435 226.480214 
L 52.490205 234.137743 
L 54.594154 237.229635 
L 82.435286 220.976171 
L 84.110601 223.133031 
L 47.798435 257.784331 
L 50.648204 261.01205 
L 50.790749 266.873233 
L 53.924814 270.002374 
L 97.665376 228.437291 
L 99.567754 230.111594 
L 86.373434 250.66832 
L 88.980388 252.686675 
L 77.272414 275.120373 
L 80.652694 277.412794 
L 87.368453 274.257442 
L 90.716608 276.232849 
L 85.356348 294.70706 
L 89.348479 296.735621 
L 98.862147 286.5086 
L 102.589823 288.116563 
L 96.717369 315.235248 
L 101.349334 316.896444 
L 109.009696 308.685503 
L 113.429645 309.963439 
L 122.246866 292.836568 
L 126.161945 293.706135 
L 130.10243 294.452173 
L 134.064423 295.073945 
L 137.027348 304.904733 
L 141.314569 305.303602 
L 146.575172 284.463954 
L 150.214969 284.572725 
L 153.680468 274.396994 
L 157.000225 274.287337 
L 161.94447 294.351034 
L 165.88754 293.971672 
L 169.70516 292.69409 
L 173.592294 292.071535 
L 169.456585 253.032795 
L 172.096805 252.437665 
L 181.368173 275.897828 
L 184.72143 274.916866 
L 202.823429 316.736889 
L 207.450147 315.061135 
L 196.378139 275.682347 
L 199.717199 274.229546 
L 186.763663 239.681309 
L 188.975525 238.548608 
L 214.884545 278.755366 
L 218.311078 276.719164 
L 212.621377 260.862604 
L 215.486441 258.906407 
L 221.115601 260.608995 
L 223.968491 258.385847 
L 245.092057 277.450921 
L 248.462639 274.465573 
L 229.905106 248.951607 
L 232.387117 246.457861 
L 248.128827 255.966637 
L 250.822395 252.896428 
L 231.392066 232.185966 
L 233.346193 229.653756 
L 229.448235 223.026866 
L 231.115341 220.560303 
L 256.090561 232.290477 
L 258.035762 228.98164 
L 280.649492 236.541717 
L 282.716219 232.458592 
L 236.817011 206.869944 
L 237.972465 204.179678 
L 263.221259 210.513889 
L 264.478231 206.991614 
L 244.666163 197.049372 
L 245.508955 194.117168 
L 288.893884 201.264535 
L 289.847343 196.93963 
L 265.215713 188.223279 
L 265.770833 184.649316 
L 296.55363 184.316104 
L 296.970406 179.75874 
L 265.977002 173.813078 
L 266.078658 170.222303 
L 278.583936 166.393911 
L 278.446083 162.410415 
L 230.614561 162.331263 
L 230.372687 159.858038 
L 280.379611 150.062312 
L 279.727369 146.030431 
L 282.011211 141.376127 
L 281.08505 137.297239 
L 268.72132 136.385009 
L 267.644798 132.726453 
L 247.96988 135.50385 
L 246.875913 132.4982 
L 247.85339 128.622502 
L 246.543116 125.623917 
L 252.854556 118.853792 
L 251.23466 115.702789 
L 254.26399 109.87325 
L 252.361029 106.682372 
L 271.233924 89.7288 
L 268.689186 86.014309 
L 216.116219 120.153789 
L 214.555361 118.157277 
L 258.000411 77.417945 
L 255.075137 74.125632 
L 227.9788 94.434825 
L 225.603417 92.078044 
L 249.368887 60.757305 
L 245.924033 57.744624 
L 247.253497 48.715743 
L 243.431076 45.775528 
L 208.656624 87.2537 
L 206.065004 85.508001 
L 222.909347 51.741062 
L 219.194084 49.564784 
L 222.312881 34.338964 
L 218.050754 32.190045 
L 192.99368 76.617425 
L 190.075376 75.369461 
L 180.284848 92.541688 
L 177.873521 91.685445 
L 191.989807 36.239706 
L 187.802435 35.04327 
L 179.815427 49.973056 
L 176.065881 49.152619 
L 168.099825 73.134567 
L 165.084321 72.671044 
L 162.960759 63.743602 
L 159.652523 63.446305 
L 157.797686 28.857486 
L 153.395107 28.739775 
L 148.879058 23.284718 
L 144.305669 23.450185 
L 139.739743 23.759367 
L 135.185797 24.211958 
L 129.280249 15.518617 
L 124.472366 16.304152 
L 127.325989 53.213256 
L 123.704275 54.0416 
L 118.849076 50.461477 
L 115.145031 51.557714 
L 119.449683 75.677397 
L 116.538185 76.742283 
L 96.081159 36.061217 
L 91.935595 37.880448 
L 90.28423 44.73507 
L 86.414257 46.732281 
L 74.002318 33.942983 
L 69.801069 36.457468 
L 84.73421 67.776344 
L 81.59145 69.936667 
L 60.539155 48.514447 
L 56.802721 51.445039 
L 60.830746 63.374597 
L 57.561404 66.288673 
L 83.406769 98.924938 
L 81.244045 101.111598 
L 86.712202 110.168881 
L 84.901378 112.246051 
L 37.154397 77.946364 
L 34.354929 81.597673 
L 84.371766 121.928333 
L 82.931843 124.073277 
L 20.638996 89.409204 
L 18.208111 93.574125 
L 78.332757 130.402592 
L 77.162269 132.733227 
L 71.060772 132.874972 
L 69.971616 135.433032 
L 35.220519 125.501763 
L 33.917254 129.190363 
L 70.190677 144.197136 
L 69.457944 146.776955 
L 60.425806 147.420047 
L 59.799238 150.305302 
L 50.004705 151.651174 
L 49.516324 154.861998 
L 14.887647 154.520323 
L 14.506841 158.833887 
L 14.261852 163.157291 
L 14.152921 167.48626 
L 39.993931 171.248179 
L 40.126673 174.764075 
L 52.063994 177.278745 
L 52.380382 180.41215 
L 72.91639 180.538236 
L 73.324954 183.014385 
L 36.32019 193.494721 
L 37.154229 197.115128 
L 39.608336 200.284712 
L 40.654241 203.798375 
L 36.640276 209.085766 
L 37.964373 212.6884 
L 51.655532 211.075455 
L 53.034765 214.204993 
L 22.297847 233.341375 
L 24.391684 237.382974 
L 56.398864 224.096528 
L 58.185162 227.070488 
L 52.9032 234.76139 
L 55.026554 237.839988 
L 82.764909 221.411741 
L 84.453756 223.558021 
L 48.360246 258.437019 
L 51.230259 261.646751 
L 51.409665 267.506921 
L 54.563348 270.616289 
L 98.041624 228.776924 
L 99.954495 230.43923 
L 86.889727 251.078533 
L 89.509323 253.080453 
L 77.942676 275.587343 
L 81.337307 277.858459 
L 88.033088 274.660932 
L 91.393601 276.615241 
L 86.149639 295.1228 
L 90.15445 297.126212 
L 99.603607 286.839558 
L 103.341322 288.424044 
L 97.639546 315.579127 
L 102.281868 317.211157 
L 109.890435 308.9522 
L 114.318335 310.202312 
L 123.027664 293.020324 
L 126.948134 293.86525 
L 130.893233 294.58649 
L 134.859058 295.183331 
L 137.883755 304.99529 
L 142.1734 305.367187 
L 147.302829 284.494865 
L 150.943238 284.580742 
L 154.344669 274.383415 
L 157.66367 274.252881 
L 162.734007 294.285085 
L 166.674613 293.880931 
L 170.484122 292.579363 
L 174.367264 291.932372 
L 169.986106 252.920416 
L 172.62253 252.308692 
L 182.041266 275.710079 
L 185.388286 274.708047 
L 203.752952 316.413391 
L 208.369039 314.708571 
L 197.04958 275.400199 
L 200.379437 273.926426 
L 187.208867 239.460342 
L 189.413562 238.313752 
L 215.574948 278.356762 
L 218.988606 276.299049 
L 213.199289 260.478588 
L 216.051992 258.50441 
L 221.691749 260.17156 
L 224.5306 257.930513 
L 245.773657 276.862354 
L 249.125397 273.855866 
L 230.407762 248.459122 
L 232.87404 245.949815 
L 248.675243 255.359396 
L 251.349448 252.272307 
L 231.789247 231.68446 
L 233.727409 229.14001 
L 229.787849 222.537767 
L 231.439408 220.060768 
L 256.48791 231.633629 
L 258.412262 228.312624 
L 281.073094 235.730324 
L 283.114099 231.634282 
L 237.054861 206.334819 
L 238.193371 203.63734 
L 263.481505 209.812624 
L 264.716299 206.282514 
L 244.842092 196.465074 
L 245.666425 193.527628 
L 289.095449 200.401987 
L 290.021688 196.071171 
L 265.335724 187.509911 
L 265.868355 183.932527 
L 296.648447 183.405716 
L 297.036552 178.845821 
L 266.006366 173.095207 
L 266.085436 169.503864 
L 278.566388 165.596896 
L 278.403484 161.614346 
L 230.57241 161.836029 
L 230.314986 159.364374 
L 280.259311 149.254327 
L 279.581724 145.226627 
L 281.836247 140.558051 
L 280.884451 136.485069 
L 268.515228 135.650619 
L 267.415718 131.998905 
L 247.758657 134.899992 
L 246.645807 131.901281 
L 247.59889 128.019512 
L 246.269782 125.029227 
L 252.538517 118.219541 
L 250.898835 115.078789 
L 253.891441 109.230312 
L 251.968448 106.051465 
L 270.734341 88.979529 
L 268.166292 85.281117 
L 215.809082 119.750576 
L 214.235699 117.76392 
L 257.423662 76.752149 
L 254.477739 73.478299 
L 227.509672 93.957511 
L 225.119513 91.615716 
L 248.687523 60.146126 
L 245.223789 57.155171 
L 246.49644 48.118107 
L 242.655602 45.20199 
L 208.142712 86.898054 
L 205.540164 85.168689 
L 222.171799 51.296476 
L 218.442922 49.143609 
L 221.465896 33.898475 
L 217.190337 31.776404 
L 192.413182 76.3605 
L 189.487087 75.130916 
L 179.804756 92.364379 
L 177.388092 91.523319 
L 191.155375 35.989893 
L 186.960562 34.819818 
L 179.067611 49.799542 
L 175.31298 49.002704 
L 167.497914 73.03428 
L 164.479554 72.589731 
L 162.299886 63.675822 
L 158.989846 63.399338 
L 156.917502 28.822868 
L 152.514269 28.73285 
L 147.964 23.306304 
L 143.391742 23.500531 
L 138.827851 23.838424 
L 134.276841 24.319649 
L 128.316734 15.663622 
L 123.513887 16.479381 
L 126.599591 53.369806 
L 122.983158 54.220913 
L 118.105538 50.671397 
L 114.408461 51.790909 
L 118.864728 75.883041 
L 115.959985 76.966218 
L 95.247502 36.414619 
L 91.113462 38.259888 
L 89.505241 45.12476 
L 85.647907 47.146271 
L 73.155775 34.43529 
L 68.970424 36.976149 
L 84.100248 68.200485 
L 80.971137 70.380532 
L 59.784525 49.091142 
L 56.066597 52.045176 
L 60.169572 63.949164 
L 56.918623 66.883745 
L 82.96874 99.356812 
L 80.819812 101.557031 
L 86.344825 110.579743 
L 84.547101 112.668261 
L 36.585339 78.669554 
L 33.808892 82.338397 
L 84.078397 122.353682 
L 82.651992 124.507641 
L 20.14236 90.236039 
L 17.737718 94.416167 
L 78.092805 130.865756 
L 76.936998 133.203706 
L 70.836514 133.383824 
L 69.763468 135.948683 
L 34.950597 126.236175 
L 33.670556 129.932899 
L 70.037646 144.711236 
L 69.321153 147.295613 
L 60.293239 147.995499 
L 59.684829 150.884637 
L 49.898955 152.292085 
L 49.430778 155.505917 
L 14.800636 155.382044 
L 14.446968 159.697917 
L 14.229176 164.022776 
L 14.147474 168.352345 
L 40.011633 171.951665 
L 40.166486 175.466656 
L 52.119386 177.906197 
L 52.455475 181.037551 
L 72.99187 181.034474 
L 73.416 183.508004 
L 36.477883 194.220872 
L 37.334675 197.835962 
L 39.808669 200.990048 
L 40.876652 204.497064 
L 36.896021 209.809595 
L 38.24275 213.403831 
L 51.923494 211.704808 
L 53.322383 214.82561 
L 22.70643 234.15493 
L 24.825645 238.183281 
L 56.748627 224.695791 
L 58.553595 227.658457 
L 53.320109 235.382427 
L 55.462783 238.447609 
L 83.097266 221.845229 
L 84.799578 223.980845 
L 48.926151 259.08616 
L 51.816295 262.277778 
L 52.032554 268.136704 
L 55.205731 271.226175 
L 98.420001 229.114185 
L 100.34329 230.764427 
L 87.408589 251.485492 
L 90.040724 253.470896 
L 78.615862 276.050089 
L 82.024709 278.29981 
L 88.700247 275.060232 
L 92.072986 276.993368 
L 86.94553 295.533542 
L 90.962861 297.511727 
L 100.347134 287.165846 
L 104.094741 288.726792 
L 98.563868 315.917199 
L 103.216362 317.52 
L 110.772835 309.213352 
L 115.208509 310.435591 
L 123.809601 293.199166 
L 127.735308 294.019417 
L 131.684865 294.715831 
L 135.654366 295.287717 
L 138.740715 305.080458 
L 143.032613 305.425369 
L 148.030666 284.521198 
L 151.671543 284.584177 
L 155.008771 274.36566 
L 158.326886 274.214253 
L 163.523114 294.214171 
L 167.4611 293.785241 
L 171.262348 292.45974 
L 175.141344 291.788339 
L 170.514909 252.804709 
L 173.147433 252.176416 
L 182.713164 275.518101 
L 186.053817 274.495038 
L 204.680422 316.084054 
L 209.285695 314.350235 
L 197.719232 275.113833 
L 201.039754 273.619146 
L 187.652673 239.23658 
L 189.850113 238.076146 
L 216.262829 277.953824 
L 219.663478 275.874682 
L 213.774773 260.090945 
L 216.615004 258.098864 
L 222.265135 259.730511 
L 225.089835 257.471652 
L 246.451542 276.269513 
L 249.784307 273.242004 
L 230.907311 247.963485 
L 233.357758 245.438716 
L 249.21783 254.74873 
L 251.872566 251.644884 
L 232.183265 231.180466 
L 234.105386 228.623876 
L 230.124379 222.046542 
L 231.760327 219.559204 
L 256.881121 230.974296 
L 258.784547 227.641253 
L 281.491583 234.916283 
L 283.506787 230.807484 
L 237.289341 205.798209 
L 238.410863 203.093622 
L 263.737335 209.109736 
L 264.949902 205.57193 
L 245.014342 195.879682 
L 245.820184 192.937109 
L 289.291585 199.538188 
L 290.190567 195.201633 
L 265.451246 186.795803 
L 265.961367 183.21514 
L 296.737537 182.494749 
L 297.096955 177.932503 
L 266.031215 172.377166 
L 278.606498 168.785396 
z
" clip-path="url(#pb25b51f655)" style="fill: #0000ff; opacity: 0.5; stroke: #000000; stroke-width: 1.5; stroke-linejoin: miter"/>
   </g>
  </g>
 </g>
 <defs>
  <clipPath id="pb25b51f655">
   <rect x="0" y="-0" width="311.244429" height="332.64"/>
  </clipPath>
 </defs>
</svg>
