<?xml version="1.0" encoding="utf-8" standalone="no"?>
<!DOCTYPE svg PUBLIC "-//W3C//DTD SVG 1.1//EN"
  "http://www.w3.org/Graphics/SVG/1.1/DTD/svg11.dtd">
<svg xmlns:xlink="http://www.w3.org/1999/xlink" width="328.864955pt" height="332.64pt" viewBox="0 0 328.864955 332.64" xmlns="http://www.w3.org/2000/svg" version="1.1">
 <metadata>
  <rdf:RDF xmlns:dc="http://purl.org/dc/elements/1.1/" xmlns:cc="http://creativecommons.org/ns#" xmlns:rdf="http://www.w3.org/1999/02/22-rdf-syntax-ns#">
   <cc:Work>
    <dc:type rdf:resource="http://purl.org/dc/dcmitype/StillImage"/>
    <dc:date>2023-12-09T18:06:20.292174</dc:date>
    <dc:format>image/svg+xml</dc:format>
    <dc:creator>
     <cc:Agent>
      <dc:title>Matplotlib v3.8.2, https://matplotlib.org/</dc:title>
     </cc:Agent>
    </dc:creator>
   </cc:Work>
  </rdf:RDF>
 </metadata>
 <defs>
  <style type="text/css">*{stroke-linejoin: round; stroke-linecap: butt}</style>
 </defs>
 <g id="figure_1">
  <g id="patch_1">
   <path d="M 0 332.64 
L 328.864955 332.64 
L 328.864955 0 
L 0 0 
L 0 332.64 
z
" style="fill: none"/>
  </g>
  <g id="axes_1">
   <g id="patch_2">
    <path d="M 255.389432 162.53951 
L 255.344608 159.688987 
L 312.645256 153.224148 
L 312.279227 148.577982 
L 292.996609 146.31931 
L 292.423192 142.294355 
L 263.84694 143.61261 
L 263.202831 140.505523 
L 276.20478 133.887824 
L 275.248792 130.396987 
L 313.916547 114.014075 
L 312.31704 109.347323 
L 246.078943 130.295774 
L 245.024908 127.753935 
L 244.604638 124.910521 
L 243.382008 122.417701 
L 275.232176 101.718146 
L 273.265184 98.273795 
L 242.579579 113.072995 
L 240.985753 110.6497 
L 272.465968 84.161363 
L 269.94832 80.812669 
L 252.14965 90.117974 
L 249.829335 87.405124 
L 249.147675 83.146302 
L 246.60964 80.531288 
L 239.677148 82.598301 
L 237.126566 80.281332 
L 260.104974 47.04438 
L 256.426398 44.102694 
L 244.327233 52.766046 
L 240.836359 50.317618 
L 247.813828 31.329093 
L 243.647206 28.781637 
L 224.240662 54.015802 
L 220.799015 52.198322 
L 205.247276 76.182845 
L 202.512 74.951599 
L 196.267387 82.606886 
L 193.738538 81.654811 
L 190.210334 83.782968 
L 187.721457 83.020758 
L 191.451243 57.894566 
L 188.147765 57.106139 
L 191.273671 22.340425 
L 186.852381 21.575161 
L 182.506889 20.167023 
L 178.021597 19.67848 
L 172.701847 32.707806 
L 168.615712 32.521354 
L 164.498465 15.12 
L 159.863388 15.200177 
L 158.280333 62.62823 
L 155.142093 62.880429 
L 152.614133 67.922909 
L 149.645171 68.350647 
L 140.57869 37.132787 
L 136.647569 37.95417 
L 140.444562 68.664118 
L 137.504921 69.474128 
L 121.360859 29.914211 
L 117.212272 31.343414 
L 111.94413 29.972697 
L 107.802037 31.697953 
L 127.987011 84.862306 
L 125.562837 86.056 
L 125.845926 92.155594 
L 123.652127 93.413003 
L 102.850146 65.491388 
L 99.829335 67.485018 
L 85.718035 54.290418 
L 82.353512 56.828257 
L 97.210174 81.296981 
L 94.689115 83.460129 
L 103.057159 97.169838 
L 101.032286 99.141297 
L 49.537523 54.883258 
L 46.209529 58.558398 
L 54.56323 71.85566 
L 51.766401 75.36439 
L 89.973736 108.512538 
L 88.311971 110.88976 
L 68.724737 101.959258 
L 66.867429 105.007835 
L 62.339577 106.601463 
L 60.631387 109.848508 
L 86.166385 125.829348 
L 85.050981 128.317719 
L 17.974092 104.903911 
L 16.234463 109.546743 
L 49.16205 125.35041 
L 48.049883 129.002515 
L 81.439282 141.410691 
L 80.816127 144.039989 
L 55.482024 142.033802 
L 54.891295 145.478944 
L 79.44659 152.027154 
L 79.158225 154.713857 
L 64.78967 156.560942 
L 64.651104 159.70625 
L 28.348014 162.968398 
L 28.42893 167.256343 
L 59.322893 169.510696 
L 59.594199 172.821488 
L 50.587905 177.338465 
L 51.109652 180.920034 
L 56.387034 183.581622 
L 57.102212 186.977767 
L 38.088336 195.514503 
L 39.187758 199.480099 
L 32.92223 205.871194 
L 34.349842 209.994103 
L 81.287522 195.917269 
L 82.378249 198.524389 
L 57.914666 213.271635 
L 59.562608 216.605068 
L 70.966679 214.532789 
L 72.647821 217.455214 
L 80.396432 216.499406 
L 82.134746 219.124368 
L 73.778291 229.14583 
L 75.917509 231.972627 
L 50.897298 257.448293 
L 53.93772 260.980525 
L 93.15941 230.276148 
L 95.324585 232.493001 
L 84.661393 248.484106 
L 87.403267 250.959153 
L 106.723524 233.235092 
L 108.975029 235.023997 
L 118.193123 227.146176 
L 120.247507 228.577462 
L 88.354442 284.000069 
L 92.21119 286.341439 
L 102.546465 276.789206 
L 106.169471 278.687912 
L 106.524332 287.619174 
L 110.48589 289.387453 
L 123.111803 269.003306 
L 126.479835 270.259243 
L 133.009688 261.647978 
L 136.141559 262.59634 
L 127.550621 310.07668 
L 132.207895 311.172743 
L 143.81951 274.920009 
L 147.363338 275.521924 
L 145.97325 316.705741 
L 150.829848 317.219279 
L 160.054795 242.814209 
L 162.581119 242.921526 
L 165.236003 269.752639 
L 168.606768 269.683729 
L 171.760658 266.36271 
L 175.021611 266.090326 
L 175.194632 242.266446 
L 177.696248 241.898004 
L 188.063948 281.68052 
L 191.798466 280.887951 
L 203.499971 310.481949 
L 208.132437 309.189797 
L 208.021764 293.530726 
L 212.11901 292.104781 
L 218.814837 297.134148 
L 223.020046 295.367063 
L 229.203616 297.738058 
L 233.422677 295.644029 
L 227.989134 276.197475 
L 231.531513 274.152282 
L 225.637491 257.402425 
L 228.590075 255.440465 
L 245.016071 271.810184 
L 248.412085 269.231796 
L 250.207993 264.733804 
L 253.378943 261.99567 
L 251.034305 253.442046 
L 253.849809 250.683513 
L 255.999533 247.301351 
L 258.619505 244.389737 
L 247.111339 229.917903 
L 249.189132 227.294348 
L 271.035611 238.859238 
L 273.38271 235.479031 
L 257.5857 220.724564 
L 259.369255 217.776217 
L 244.426887 205.754474 
L 245.746256 203.227271 
L 295.623398 223.200547 
L 297.465997 219.054987 
L 248.484179 195.128579 
L 249.467441 192.47906 
L 269.898074 196.017224 
L 270.898689 192.693965 
L 247.322534 183.214859 
L 247.931777 180.607754 
L 283.345612 184.41748 
L 283.974856 180.677137 
L 307.18502 179.644355 
L 307.6524 175.156808 
L 246.586371 167.177953 
L 246.691742 164.601924 
L 255.387639 161.969315 
L 255.324888 159.119131 
L 312.583742 152.294031 
L 312.188499 147.650259 
L 292.892056 145.512908 
L 292.293336 141.491639 
L 263.72594 142.989597 
L 263.062302 139.886622 
L 276.022372 133.187279 
L 275.044448 129.702524 
L 313.608399 113.076737 
L 311.979572 108.420138 
L 245.874539 129.784774 
L 244.804538 127.249615 
L 244.366393 124.408901 
L 243.128108 121.92382 
L 274.847459 101.024354 
L 272.858842 97.592443 
L 242.266923 112.584346 
L 240.657887 110.171122 
L 271.970883 83.485317 
L 269.432224 80.152523 
L 251.69243 89.569588 
L 249.3551 86.871385 
L 248.646667 82.616935 
L 246.092235 80.017935 
L 239.172881 82.128509 
L 236.607777 79.827627 
L 259.376689 46.446811 
L 255.679684 43.52832 
L 243.635245 52.267597 
L 240.129042 49.841173 
L 246.986945 30.809139 
L 242.804384 28.28794 
L 223.556932 53.643662 
L 220.103922 51.847863 
L 204.70334 75.929724 
L 201.960375 74.715705 
L 195.764033 82.410116 
L 193.229245 81.473965 
L 189.714496 83.62427 
L 187.220875 82.877729 
L 190.792557 57.728576 
L 187.484185 56.960942 
L 190.391374 22.176255 
L 185.965358 21.438813 
L 181.611095 20.058034 
L 177.122819 19.597711 
L 171.885122 32.660237 
L 167.797895 32.499489 
L 163.571285 15.124374 
L 158.936803 15.233701 
L 157.652076 62.670773 
L 154.515483 62.942704 
L 152.019288 68.000984 
L 149.053075 68.447387 
L 139.79043 37.287167 
L 135.864553 38.133258 
L 139.854619 68.818718 
L 136.920131 69.647201 
L 120.527579 30.189603 
L 116.388063 31.64487 
L 111.111403 30.307314 
L 106.980244 32.058588 
L 127.499192 85.094937 
L 125.082573 86.303854 
L 125.40402 92.401547 
L 123.218173 93.672728 
L 102.240992 65.882499 
L 99.23278 67.895088 
L 85.038772 54.789501 
L 81.690278 57.348451 
L 96.70054 81.723251 
L 94.193135 83.902212 
L 102.64724 97.55902 
L 100.634807 99.543175 
L 48.862704 55.609884 
L 45.557891 59.305883 
L 53.995059 72.550342 
L 51.220353 76.076592 
L 89.635415 108.983783 
L 87.988635 111.371409 
L 68.345621 102.564277 
L 66.507523 105.624474 
L 61.989784 107.246548 
L 60.30205 110.504273 
L 85.937053 126.324197 
L 84.837322 128.819534 
L 17.614499 105.828064 
L 15.904105 110.481746 
L 48.930437 126.078004 
L 47.841262 129.737032 
L 81.308041 141.934962 
L 80.701435 144.568127 
L 55.355216 142.721317 
L 54.786166 146.170107 
L 79.38216 152.563748 
L 79.110698 155.252211 
L 64.754045 157.18963 
L 64.635264 160.335747 
L 28.353409 163.826157 
L 28.461292 168.113508 
L 59.368823 170.173511 
L 59.660946 173.482531 
L 50.68324 178.056063 
L 51.227502 181.634279 
L 56.52152 184.262623 
L 57.258044 187.654203 
L 38.298235 196.310357 
L 39.422576 200.26896 
L 33.197369 206.699334 
L 34.650884 210.813183 
L 81.4991 196.441417 
L 82.606202 199.041625 
L 58.235855 213.942441 
L 59.904729 217.265444 
L 71.295541 215.12148 
L 72.995031 218.033274 
L 80.737477 217.028751 
L 82.492267 219.642727 
L 74.199006 229.716549 
L 76.355961 232.529836 
L 51.496471 258.16236 
L 54.559049 261.6754 
L 93.586851 230.724948 
L 95.765925 232.92814 
L 85.203519 248.985994 
L 87.960906 251.443747 
L 107.169307 233.598523 
L 109.432018 235.373232 
L 118.600383 227.437591 
L 120.663729 228.855928 
L 89.119871 284.478027 
L 92.991269 286.795094 
L 103.266261 277.178047 
L 106.901137 279.053929 
L 107.312164 287.982782 
L 111.284764 289.726111 
L 123.782223 269.262957 
L 127.158088 270.497686 
L 133.633651 261.845522 
L 136.771425 262.774168 
L 128.479281 310.307601 
L 133.143358 311.37435 
L 144.526733 275.049303 
L 148.074277 275.628918 
L 146.943239 316.820663 
L 151.802971 317.303645 
L 160.559769 242.842028 
L 163.086718 242.933453 
L 165.910303 269.747338 
L 169.280568 269.657228 
L 172.413508 266.316439 
L 175.672684 266.023551 
L 175.695862 242.199054 
L 178.195111 241.814886 
L 188.812816 281.531408 
L 192.542275 280.715367 
L 204.429679 310.235183 
L 209.053926 308.913922 
L 208.844768 293.255856 
L 212.932965 291.80417 
L 219.660291 296.791324 
L 223.854303 294.997826 
L 230.052663 297.329884 
L 234.258471 295.20936 
L 228.702727 275.797364 
L 232.232172 273.729932 
L 226.232921 257.017477 
L 229.173106 255.036986 
L 245.701734 271.30307 
L 249.081464 268.703374 
L 250.849047 264.194177 
L 254.002713 261.436153 
L 251.604324 252.897445 
L 254.402422 250.121259 
L 256.530832 246.725643 
L 259.132439 243.797608 
L 247.533482 229.39844 
L 249.594733 226.761868 
L 271.513516 238.189129 
L 273.839309 234.794226 
L 257.949814 220.139405 
L 259.714791 217.179899 
L 244.697108 205.252373 
L 246.000557 202.716922 
L 296.002333 222.376103 
L 297.818822 218.219037 
L 248.687489 194.60117 
L 249.654067 191.945519 
L 270.10655 195.355116 
L 271.086243 192.02563 
L 247.450937 182.694991 
L 248.04377 180.084107 
L 283.480866 183.671024 
L 284.086573 179.926797 
L 307.289782 178.748057 
L 307.728929 174.257659 
L 246.613925 166.663032 
L 246.703092 164.086392 
L 255.38226 161.399143 
L 255.301584 158.54941 
L 312.51638 151.364319 
L 312.091938 146.723125 
L 292.782434 144.70718 
L 292.158434 140.689756 
L 263.601024 142.367357 
L 262.917883 139.268617 
L 275.835562 132.487895 
L 274.83574 129.00936 
L 313.294362 112.141356 
L 311.636279 107.495094 
L 245.666925 129.275071 
L 244.581001 126.746691 
L 244.124998 123.908789 
L 242.871108 121.431545 
L 274.458385 100.332996 
L 272.448224 96.91366 
L 241.9512 112.097672 
L 240.327018 109.694617 
L 271.471556 82.812398 
L 268.911985 79.495637 
L 251.231771 89.024089 
L 248.877516 86.34064 
L 248.142339 82.090729 
L 245.571612 79.507846 
L 238.665669 81.661897 
L 236.086144 79.377194 
L 258.644659 45.853835 
L 254.929372 42.958653 
L 242.940137 51.77351 
L 239.418742 49.369186 
L 246.156809 30.294397 
L 241.958473 27.799553 
L 222.870875 53.275829 
L 219.406639 51.501784 
L 204.157823 75.680029 
L 201.407276 74.483286 
L 195.25945 82.216516 
L 192.718825 81.296326 
L 189.217669 83.468694 
L 186.719402 82.737852 
L 190.13284 57.566732 
L 186.819706 56.819921 
L 189.508061 22.017638 
L 185.077494 21.308047 
L 180.714634 19.954682 
L 176.223551 19.522596 
L 171.068113 32.617806 
L 166.979956 32.482767 
L 162.64415 15.134579 
L 158.010447 15.273052 
L 157.024098 62.717266 
L 153.889278 63.008919 
L 151.424946 68.082798 
L 148.461599 68.547849 
L 139.003157 37.446501 
L 135.082679 38.317267 
L 139.265661 68.977025 
L 136.336442 69.823948 
L 119.696048 30.470231 
L 115.565766 31.951504 
L 110.280798 30.647161 
L 106.160735 32.424383 
L 127.012846 85.330631 
L 124.603878 86.554723 
L 124.96367 92.650274 
L 122.785861 93.935178 
L 101.63431 66.277432 
L 98.638816 68.308902 
L 84.362662 55.292847 
L 81.030328 57.872806 
L 96.193597 82.152717 
L 93.699946 84.347406 
L 102.239778 97.950772 
L 100.239863 99.947545 
L 48.192469 56.34074 
L 44.910967 60.057452 
L 53.431268 73.248583 
L 50.678795 76.792216 
L 89.300066 109.457146 
L 87.668335 111.855082 
L 67.970317 103.171668 
L 66.151502 106.243365 
L 61.644055 107.893821 
L 59.976843 111.162096 
L 85.710838 126.820478 
L 84.626822 129.322682 
L 17.260726 106.754461 
L 15.579635 111.418808 
L 48.703405 126.807041 
L 47.637265 130.472847 
L 81.1801 142.460048 
L 80.590067 145.096976 
L 55.232734 143.409616 
L 54.685387 146.861916 
L 79.321106 153.100736 
L 79.066559 155.790854 
L 64.722374 157.81853 
L 64.623383 160.965331 
L 28.364198 164.683864 
L 28.499045 168.970452 
L 59.41892 170.836023 
L 59.73185 174.143141 
L 50.783086 178.773047 
L 51.349843 182.34777 
L 56.660287 184.942765 
L 57.418127 188.329645 
L 38.513135 197.104875 
L 39.662352 201.056328 
L 33.47771 207.525728 
L 34.957071 211.630354 
L 81.71397 196.964223 
L 82.837404 199.557417 
L 58.561256 214.611214 
L 60.250998 217.923654 
L 71.6281 215.708092 
L 73.345869 218.60914 
L 81.081845 217.555941 
L 82.85304 220.158828 
L 74.623302 230.28461 
L 76.797908 233.084276 
L 52.100125 258.872645 
L 55.184737 262.366354 
L 94.017106 231.171051 
L 96.209994 233.360495 
L 85.748792 249.484462 
L 88.521582 251.924825 
L 107.617366 233.959144 
L 109.891194 235.719586 
L 119.009467 227.726438 
L 121.081693 229.13177 
L 89.88829 284.951162 
L 93.774185 287.243834 
L 103.988488 277.562353 
L 107.635091 279.415337 
L 108.102267 288.341429 
L 112.085753 290.059737 
L 124.454263 269.518386 
L 127.837827 270.731858 
L 134.258845 262.039138 
L 137.402397 262.948031 
L 129.409376 310.532676 
L 134.080069 311.57007 
L 145.234756 275.174146 
L 148.785875 275.731438 
L 147.913932 316.929482 
L 152.776605 317.38189 
L 161.064909 242.866669 
L 163.592383 242.9422 
L 166.584556 269.737796 
L 169.954188 269.626491 
L 173.066055 266.266064 
L 176.323323 265.952683 
L 176.196659 242.128511 
L 178.693442 241.728632 
L 189.560732 281.377589 
L 193.284984 280.538108 
L 205.357815 309.982575 
L 209.973661 308.632256 
L 209.666027 292.975816 
L 213.745013 291.498446 
L 220.503573 296.44319 
L 224.686222 294.623349 
L 230.899126 296.916377 
L 235.091514 294.769443 
L 229.413789 275.392774 
L 232.930162 273.303184 
L 226.825917 256.628791 
L 229.753588 254.629847 
L 246.384193 270.791655 
L 249.747506 268.170753 
L 251.486694 263.650528 
L 254.622951 260.872723 
L 252.170906 252.349269 
L 254.951488 249.555539 
L 257.058499 246.146604 
L 259.64164 243.202265 
L 247.952349 228.876332 
L 249.996977 226.226849 
L 271.987197 237.516026 
L 274.291592 234.106563 
L 258.310241 219.551968 
L 260.056569 216.581419 
L 244.964167 204.748582 
L 246.251642 202.204983 
L 296.376074 221.549293 
L 298.166382 217.380884 
L 248.887478 194.072492 
L 249.837335 191.410814 
L 270.310857 194.69171 
L 271.269591 191.356127 
L 247.576067 182.174327 
L 248.152468 179.559765 
L 283.611422 182.923732 
L 284.193569 179.17577 
L 307.388905 177.851118 
L 307.799801 173.358047 
L 246.63824 166.147949 
L 246.7112 163.570799 
L 255.373295 160.829016 
L 255.274697 157.979846 
L 312.443171 150.435049 
L 311.989547 145.796616 
L 292.667746 143.902157 
L 292.018491 139.888737 
L 263.472197 141.745915 
L 262.76958 138.651533 
L 275.644357 131.7897 
L 274.622676 128.317522 
L 312.974448 111.207969 
L 311.287175 106.572227 
L 245.45611 128.766683 
L 244.354305 126.245183 
L 243.880462 123.410205 
L 242.611017 120.940896 
L 274.064971 99.644099 
L 272.033344 96.237473 
L 241.632422 111.612994 
L 239.993158 109.220201 
L 270.968007 82.142632 
L 268.387626 78.842035 
L 250.76769 88.481497 
L 248.396604 85.812908 
L 247.634712 81.567705 
L 245.047791 79.001042 
L 238.155532 81.198485 
L 235.561689 78.930051 
L 257.908915 45.265474 
L 254.175492 42.393717 
L 242.241935 51.283805 
L 238.705488 48.901677 
L 245.323452 29.784886 
L 241.109508 27.316497 
L 222.182519 52.912319 
L 218.707194 51.160097 
L 203.610746 75.43377 
L 200.852727 74.25435 
L 194.75366 82.026094 
L 192.207298 81.1219 
L 188.719874 83.316246 
L 186.21706 82.601131 
L 189.472118 57.40904 
L 186.154353 56.683082 
L 188.623768 21.864579 
L 184.188826 21.182868 
L 179.81754 19.856969 
L 175.323829 19.453138 
L 170.250854 32.580514 
L 166.161929 32.47119 
L 161.717098 15.150615 
L 157.084358 15.318228 
L 156.396425 62.767707 
L 153.263501 63.079072 
L 150.83113 68.168349 
L 147.870766 68.652028 
L 138.216902 37.610785 
L 134.301978 38.506191 
L 138.677709 69.139034 
L 135.753875 70.004363 
L 118.866297 30.756082 
L 114.745414 32.263303 
L 109.452347 30.992226 
L 105.343543 32.795326 
L 126.527992 85.569379 
L 124.126771 86.808598 
L 124.524893 92.901766 
L 122.355208 94.200341 
L 101.030124 66.676174 
L 98.047466 68.726444 
L 83.689731 55.800435 
L 80.373689 58.401301 
L 95.689365 82.585364 
L 93.209567 84.795693 
L 101.834787 98.34508 
L 99.847471 100.354391 
L 47.526844 57.075797 
L 44.268783 60.813074 
L 52.87188 73.950357 
L 50.141749 77.511231 
L 88.967699 109.932609 
L 87.351082 112.340761 
L 67.59884 103.781407 
L 65.799381 106.864483 
L 61.302403 108.543256 
L 59.65578 111.821952 
L 85.487748 127.318172 
L 84.419492 129.827144 
L 16.912786 107.683064 
L 15.261065 112.357892 
L 48.480963 127.537491 
L 47.4379 131.209929 
L 81.055464 142.985928 
L 80.482028 145.626515 
L 55.114583 144.098672 
L 54.58896 147.554346 
L 79.263431 153.638098 
L 79.025808 156.329764 
L 64.69466 158.447616 
L 64.615462 161.594978 
L 28.380382 165.541487 
L 28.542186 169.827142 
L 59.473184 171.498208 
L 59.806907 174.803292 
L 50.887439 179.489389 
L 51.476668 183.060477 
L 56.803328 185.622021 
L 57.582455 189.004068 
L 38.733028 197.898026 
L 39.907074 201.842172 
L 33.763244 208.350343 
L 35.268391 212.445583 
L 81.932124 197.485668 
L 83.071845 200.071744 
L 58.890858 215.277927 
L 60.601399 218.579674 
L 71.964342 216.2926 
L 73.700323 219.182787 
L 81.429522 218.080954 
L 83.217052 220.67265 
L 75.051163 230.849992 
L 77.243334 233.635925 
L 52.708233 259.57912 
L 55.814758 263.053359 
L 94.450158 231.61444 
L 96.656773 233.790048 
L 86.297188 249.979491 
L 89.085272 252.402366 
L 108.067685 234.316939 
L 110.35254 236.063046 
L 119.42036 228.012706 
L 121.501384 229.404977 
L 90.65967 285.419455 
L 94.559908 287.687641 
L 104.713118 277.942109 
L 108.371303 279.772122 
L 108.894609 288.695099 
L 112.888824 290.388319 
L 125.127896 269.769583 
L 128.519025 270.961751 
L 134.885244 262.228818 
L 138.03445 263.117922 
L 130.340868 310.751897 
L 135.017993 311.759895 
L 145.94355 275.294534 
L 149.498103 275.82948 
L 148.88529 317.032194 
L 153.750712 317.454009 
L 161.570194 242.888134 
L 164.098093 242.947767 
L 167.258736 269.724013 
L 170.627601 269.591517 
L 173.718271 266.211585 
L 176.973504 265.877724 
L 176.697002 242.05482 
L 179.191221 241.639245 
L 190.307665 281.219069 
L 194.026564 280.356181 
L 206.284345 309.724134 
L 210.891607 308.344811 
L 210.485509 292.690615 
L 214.555122 291.18762 
L 221.344648 296.089759 
L 225.515768 294.243648 
L 231.742972 296.497554 
L 235.921773 294.324295 
L 230.122293 274.983719 
L 233.625454 272.872055 
L 227.416457 256.236384 
L 230.331498 254.219066 
L 247.063423 270.275957 
L 250.410185 267.633954 
L 252.120909 263.102879 
L 255.239633 260.305404 
L 252.734029 251.797541 
L 255.496985 248.986378 
L 257.582514 245.564258 
L 260.147085 242.60373 
L 248.367924 228.3516 
L 250.395847 225.68931 
L 272.456636 236.839958 
L 274.739542 233.416069 
L 258.666966 218.962275 
L 260.394577 215.980802 
L 245.228051 204.243121 
L 246.499503 201.691475 
L 296.744609 220.720148 
L 298.508664 216.540562 
L 249.084139 193.542568 
L 250.017236 190.874968 
L 270.510988 194.027032 
L 271.448724 190.685486 
L 247.697921 181.652885 
L 248.257866 179.03475 
L 283.737276 182.175634 
L 284.295839 178.424084 
L 307.482385 176.953573 
L 307.865014 172.458007 
L 246.659315 165.632723 
L 246.716064 163.055165 
L 255.360744 160.258957 
L 255.244228 157.410463 
L 312.364119 149.506258 
L 311.881331 144.87077 
L 292.547997 143.097872 
L 291.873513 139.088614 
L 263.339464 141.125295 
L 262.617399 138.035393 
L 275.448764 131.092722 
L 274.405266 127.627038 
L 312.648669 110.276613 
L 310.932274 105.651574 
L 245.242102 128.259631 
L 244.12446 125.745111 
L 243.632795 122.913169 
L 242.347845 120.451893 
L 273.667232 98.957689 
L 271.614219 95.563909 
L 241.310602 111.13033 
L 239.656321 108.747895 
L 270.460255 81.476047 
L 267.859166 78.191745 
L 250.300205 87.941835 
L 247.912382 85.288212 
L 247.123806 81.047885 
L 244.520793 78.497543 
L 237.642491 80.73829 
L 235.034432 78.486215 
L 257.169485 44.681753 
L 253.418074 41.833534 
L 241.540666 50.798501 
L 237.989307 48.438662 
L 244.486906 29.280626 
L 240.257521 26.838789 
L 221.49189 52.553145 
L 218.005613 50.822815 
L 203.062131 75.190957 
L 200.296749 74.028906 
L 194.246683 81.838856 
L 191.694684 80.950696 
L 188.22113 83.166932 
L 185.713868 82.467572 
L 188.810418 57.255507 
L 185.488152 56.55043 
L 187.73853 21.717085 
L 183.299388 21.063281 
L 178.919849 19.764901 
L 174.423687 19.389341 
L 169.433376 32.548363 
L 165.343844 32.464758 
L 160.790165 15.172481 
L 156.158571 15.369229 
L 155.769082 62.822096 
L 152.638178 63.153158 
L 150.237864 68.257634 
L 147.2806 68.759922 
L 137.431695 37.780009 
L 133.522481 38.700021 
L 138.090788 69.304737 
L 135.172454 70.188438 
L 118.038361 31.047147 
L 113.927039 32.580256 
L 108.626083 31.342495 
L 104.5287 33.171401 
L 126.044649 85.811172 
L 123.651269 87.065469 
L 124.087706 93.156012 
L 121.926231 94.468208 
L 100.428458 67.078708 
L 97.458754 69.147696 
L 83.020005 56.312245 
L 79.720387 58.933916 
L 95.187864 83.021174 
L 92.722017 85.247055 
L 101.432285 98.741926 
L 99.457645 100.763697 
L 46.865855 57.815027 
L 43.631364 61.57272 
L 52.316917 74.655635 
L 49.609236 78.233609 
L 88.63833 110.410153 
L 87.036891 112.828425 
L 67.231206 104.393471 
L 65.451174 107.487804 
L 60.964843 109.194827 
L 59.338874 112.483814 
L 85.267793 127.817259 
L 84.215338 130.332901 
L 16.570694 108.613837 
L 14.948407 113.298961 
L 48.26312 128.269325 
L 47.243175 131.948252 
L 80.934138 143.512582 
L 80.377321 146.156723 
L 55.000769 144.788457 
L 54.49689 148.247369 
L 79.209136 154.175812 
L 78.988447 156.868919 
L 64.670903 159.076864 
L 64.611502 162.224662 
L 28.40196 166.398991 
L 28.590715 170.683544 
L 59.53161 172.160038 
L 59.886114 175.462958 
L 50.996296 180.205061 
L 51.607973 183.772372 
L 56.950638 186.300364 
L 57.751021 189.677443 
L 38.957906 198.689777 
L 40.156734 202.626462 
L 34.053959 209.173145 
L 35.584832 213.258837 
L 82.153553 198.00573 
L 83.309517 200.584587 
L 59.224646 215.942554 
L 60.955919 219.233477 
L 72.304253 216.874982 
L 74.058377 219.754193 
L 81.780493 218.603769 
L 83.584289 221.184172 
L 75.482571 231.412672 
L 77.69222 234.184762 
L 53.320773 260.281756 
L 56.449087 263.736388 
L 94.88599 232.055096 
L 97.106245 234.216782 
L 86.848687 250.471061 
L 89.651955 252.876353 
L 108.520245 234.671895 
L 110.816037 236.403597 
L 119.833046 228.296385 
L 121.922785 229.67554 
L 91.433981 285.882886 
L 95.348406 288.126498 
L 105.440122 278.317301 
L 109.109744 280.124269 
L 109.689161 289.043778 
L 113.693946 290.711844 
L 125.803096 270.016539 
L 129.201656 271.187354 
L 135.512823 262.414555 
L 138.667559 263.283834 
L 131.27372 310.965256 
L 135.957092 311.943817 
L 146.653086 275.410462 
L 150.210934 275.923041 
L 149.857274 317.128794 
L 154.725254 317.52 
L 162.075604 242.90642 
L 164.603828 242.950152 
L 167.932815 269.70599 
L 171.300781 269.552309 
L 174.370132 266.153005 
L 177.623201 265.798677 
L 177.196871 241.977983 
L 179.688427 241.546729 
L 191.053586 281.055854 
L 194.766985 280.169594 
L 207.209231 309.459872 
L 211.807726 308.051598 
L 211.303181 292.400267 
L 215.36326 290.871705 
L 222.183483 295.731045 
L 226.342911 293.858737 
L 232.584167 296.073433 
L 236.749217 293.873934 
L 230.82821 274.570216 
L 234.31802 272.436561 
L 228.004518 255.84027 
L 230.906813 253.804658 
L 247.739396 269.755997 
L 251.069475 267.092997 
L 252.751667 262.551252 
L 255.852735 259.734218 
L 253.293671 251.242282 
L 256.038892 248.413797 
L 258.102856 244.978628 
L 260.648757 242.002029 
L 248.78019 227.824265 
L 250.79133 225.149273 
L 272.921813 236.16095 
L 275.183139 232.722771 
L 259.019976 218.37035 
L 260.7288 215.378071 
L 245.488751 203.736011 
L 246.74413 201.176419 
L 297.107921 219.888702 
L 298.845654 215.698103 
L 249.277462 193.011416 
L 250.193763 190.338001 
L 270.706934 193.361108 
L 271.623635 190.01373 
L 247.816492 181.130687 
L 248.359959 178.509082 
L 283.858423 181.426759 
L 284.393379 177.67177 
L 307.570218 176.055458 
L 307.924565 171.557574 
L 246.677149 165.117374 
L 255.389432 162.53951 
z
" clip-path="url(#p04cfa7e1cb)" style="fill: #0000ff; opacity: 0.5; stroke: #000000; stroke-width: 1.5; stroke-linejoin: miter"/>
   </g>
  </g>
 </g>
 <defs>
  <clipPath id="p04cfa7e1cb">
   <rect x="0" y="-0" width="328.864955" height="332.64"/>
  </clipPath>
 </defs>
</svg>
