<?xml version="1.0" encoding="utf-8" standalone="no"?>
<!DOCTYPE svg PUBLIC "-//W3C//DTD SVG 1.1//EN"
  "http://www.w3.org/Graphics/SVG/1.1/DTD/svg11.dtd">
<svg xmlns:xlink="http://www.w3.org/1999/xlink" width="317.860571pt" height="332.64pt" viewBox="0 0 317.860571 332.64" xmlns="http://www.w3.org/2000/svg" version="1.1">
 <metadata>
  <rdf:RDF xmlns:dc="http://purl.org/dc/elements/1.1/" xmlns:cc="http://creativecommons.org/ns#" xmlns:rdf="http://www.w3.org/1999/02/22-rdf-syntax-ns#">
   <cc:Work>
    <dc:type rdf:resource="http://purl.org/dc/dcmitype/StillImage"/>
    <dc:date>2023-12-09T18:06:20.403723</dc:date>
    <dc:format>image/svg+xml</dc:format>
    <dc:creator>
     <cc:Agent>
      <dc:title>Matplotlib v3.8.2, https://matplotlib.org/</dc:title>
     </cc:Agent>
    </dc:creator>
   </cc:Work>
  </rdf:RDF>
 </metadata>
 <defs>
  <style type="text/css">*{stroke-linejoin: round; stroke-linecap: butt}</style>
 </defs>
 <g id="figure_1">
  <g id="patch_1">
   <path d="M 0 332.64 
L 317.860571 332.64 
L 317.860571 0 
L 0 0 
L 0 332.64 
z
" style="fill: none"/>
  </g>
  <g id="axes_1">
   <g id="patch_2">
    <path d="M 264.675299 162.457565 
L 264.623491 159.162961 
L 242.616477 157.247784 
L 242.411769 154.649333 
L 303.412364 144.308436 
L 302.770755 139.804827 
L 246.685844 145.883857 
L 246.121818 143.163076 
L 264.406177 135.59496 
L 263.509884 132.3221 
L 253.58776 131.981519 
L 252.583201 129.0506 
L 297.284274 108.000291 
L 295.504087 103.707315 
L 298.541556 97.139652 
L 296.419266 92.812514 
L 229.767382 123.997674 
L 228.52357 121.819667 
L 289.251422 80.261084 
L 286.603026 76.234393 
L 254.742093 93.454044 
L 252.525575 90.505879 
L 256.841293 82.141426 
L 254.268043 79.132852 
L 259.576171 68.706595 
L 256.579149 65.618672 
L 262.043694 53.499098 
L 258.567294 50.34111 
L 222.131223 87.088732 
L 219.730689 85.169072 
L 225.992528 71.297816 
L 223.093584 69.264555 
L 205.072208 91.106978 
L 202.806451 89.721704 
L 207.265901 76.066819 
L 204.526164 74.620007 
L 217.020821 40.695882 
L 213.164121 38.959842 
L 199.210081 62.804687 
L 196.057336 61.617725 
L 206.348245 18.866851 
L 201.810469 17.477173 
L 197.037777 16.988511 
L 192.445546 15.892503 
L 182.729951 41.832389 
L 178.92594 41.173967 
L 170.452701 77.880447 
L 167.788189 77.590225 
L 166.409757 56.310638 
L 163.069042 56.1582 
L 159.725187 56.110877 
L 156.381497 56.168715 
L 153.343534 61.013683 
L 150.157154 61.269751 
L 141.120338 15.863806 
L 136.52039 16.526521 
L 134.309595 29.619172 
L 130.145513 30.48923 
L 135.41151 67.827667 
L 132.448243 68.644188 
L 115.172618 25.702747 
L 110.894857 27.17645 
L 121.997197 67.287747 
L 119.023586 68.52631 
L 105.390659 47.237957 
L 101.794849 49.008579 
L 96.743952 48.153565 
L 93.181206 50.195606 
L 98.933383 66.854022 
L 95.957538 68.817977 
L 107.797464 91.085956 
L 105.579142 92.759223 
L 99.915898 90.291739 
L 97.6765 92.213212 
L 92.278936 90.791476 
L 90.059027 92.952826 
L 65.056037 73.82587 
L 62.316152 76.851555 
L 88.651931 103.816063 
L 86.843337 106.085013 
L 75.600356 101.539218 
L 73.726626 104.219664 
L 58.711891 98.611855 
L 56.754469 101.824759 
L 81.66205 119.718783 
L 80.356928 122.199648 
L 64.253255 117.768725 
L 62.895427 120.797924 
L 51.443704 119.866472 
L 50.158166 123.297395 
L 50.469882 127.246109 
L 49.416859 130.704002 
L 27.250351 128.809625 
L 26.257968 132.996818 
L 23.092107 136.780382 
L 22.352398 141.094379 
L 17.092167 144.855521 
L 16.609324 149.354176 
L 79.494054 157.648038 
L 79.382583 160.178316 
L 14.448208 162.91495 
L 14.534501 167.487808 
L 59.239202 169.11433 
L 59.498271 172.275796 
L 68.386799 174.321585 
L 68.805073 177.192856 
L 76.221985 178.707794 
L 76.774297 181.330541 
L 24.437679 197.727232 
L 25.613608 201.968787 
L 45.493559 200.066005 
L 46.732613 203.64436 
L 27.028654 215.60412 
L 28.76539 219.75537 
L 86.432821 197.347233 
L 87.566149 199.639712 
L 40.21696 228.819348 
L 42.362691 232.549395 
L 48.576679 233.681472 
L 50.871152 237.146267 
L 65.26018 231.759021 
L 67.485958 234.700201 
L 43.977517 259.102158 
L 47.073546 262.698993 
L 88.900651 229.646126 
L 91.048307 231.845042 
L 57.551236 272.308874 
L 61.055802 275.472391 
L 84.002571 254.948127 
L 86.948199 257.288539 
L 70.313428 286.818429 
L 74.267896 289.5735 
L 82.885805 284.921248 
L 86.774406 287.281955 
L 102.323796 268.227814 
L 105.677908 269.985602 
L 100.177949 290.778919 
L 104.242178 292.593027 
L 119.749496 265.146762 
L 122.998117 266.35817 
L 123.899591 274.914302 
L 127.453273 275.990393 
L 121.867101 313.350504 
L 126.630306 314.471497 
L 135.145579 295.454232 
L 139.339521 296.166569 
L 144.214887 291.313023 
L 148.274136 291.742249 
L 155.118364 244.424655 
L 157.697949 244.534234 
L 160.412494 272.712967 
L 163.878908 272.642101 
L 169.877202 309.910691 
L 174.508514 309.523842 
L 180.244753 317.52 
L 185.110193 316.80341 
L 188.598073 309.027747 
L 193.192368 308.052709 
L 189.031752 273.651239 
L 192.513517 272.680056 
L 206.759674 304.268328 
L 211.195342 302.724603 
L 215.58028 301.042175 
L 219.91015 299.222706 
L 216.77574 281.740093 
L 220.498119 279.892579 
L 229.864843 288.177878 
L 233.783169 285.915632 
L 244.388081 294.059454 
L 248.484156 291.337657 
L 246.010611 279.666257 
L 249.65333 276.900561 
L 229.126027 245.230953 
L 231.694373 243.013171 
L 233.653316 240.148642 
L 236.059624 237.791025 
L 220.055265 218.330861 
L 221.782298 216.411584 
L 260.976274 245.132726 
L 263.525784 241.913551 
L 272.324935 243.176179 
L 274.807316 239.601144 
L 269.224627 230.967299 
L 271.324666 227.495782 
L 285.00043 230.29656 
L 287.07158 226.329348 
L 298.949626 226.902161 
L 300.907152 222.498034 
L 237.867469 192.798054 
L 238.782887 190.331346 
L 238.875174 187.599883 
L 239.626652 185.104061 
L 300.983724 197.776999 
L 302.024485 193.323315 
L 268.32011 182.456478 
L 268.89531 179.037386 
L 277.126574 176.53412 
L 277.511208 172.841061 
L 276.998825 169.093495 
L 277.149572 165.408131 
L 264.673226 161.79854 
L 264.600699 158.504327 
L 242.582075 156.727599 
L 242.361028 154.130488 
L 303.295377 143.406135 
L 302.625456 138.906651 
L 246.579889 145.338304 
L 245.998761 142.621123 
L 264.235159 134.938159 
L 263.318299 131.671 
L 253.39423 131.392831 
L 252.371256 128.468288 
L 296.939051 107.137251 
L 295.131899 102.855556 
L 298.128001 96.268919 
L 295.978537 91.955215 
L 229.524109 123.55896 
L 228.266624 121.388819 
L 288.731894 79.449115 
L 286.058225 75.43916 
L 254.306224 92.858858 
L 252.071207 89.924692 
L 256.334233 81.533261 
L 253.742112 78.54093 
L 258.984559 68.081495 
L 255.968175 65.012483 
L 261.356386 52.858779 
L 257.860194 49.722718 
L 221.655965 86.698776 
L 219.243405 84.794252 
L 225.417878 70.883887 
L 222.506203 68.868899 
L 204.62256 90.824234 
L 202.348135 89.453237 
L 206.721615 75.770576 
L 203.972833 74.341023 
L 216.253879 40.338985 
L 212.386337 38.627236 
L 198.582543 62.559372 
L 195.422396 61.392262 
L 205.444222 18.57751 
L 200.897796 17.2164 
L 196.122125 16.757765 
L 191.523091 15.690661 
L 181.970835 41.69114 
L 178.162758 41.056656 
L 169.92055 77.815701 
L 167.254266 77.542244 
L 165.742024 56.271747 
L 162.400417 56.140323 
L 159.05633 56.114032 
L 155.71307 56.192899 
L 152.705639 61.056879 
L 149.520932 61.332982 
L 140.198718 15.984771 
L 135.603029 16.676404 
L 133.474622 29.782701 
L 129.316096 30.678932 
L 134.816826 67.98351 
L 131.858753 68.818652 
L 114.313392 25.986714 
L 110.044985 27.487293 
L 121.399382 67.527968 
L 118.43362 68.785209 
L 104.667071 47.583021 
L 101.082468 49.376223 
L 96.026293 48.552994 
L 92.476461 50.617402 
L 98.333296 67.239311 
L 95.369862 69.221943 
L 107.349608 91.415015 
L 105.141853 93.102201 
L 99.463202 90.670384 
L 97.235933 92.605904 
L 91.829534 91.218144 
L 89.623263 93.393413 
L 64.50047 74.42409 
L 61.779669 77.466948 
L 88.284518 104.265285 
L 86.49023 106.545566 
L 75.218881 102.070572 
L 73.362047 104.76275 
L 58.312339 99.249486 
L 56.375162 102.474638 
L 81.394795 120.211653 
L 80.105302 122.700677 
L 63.974079 118.371124 
L 62.63533 121.408804 
L 51.177975 120.549395 
L 49.914042 123.988335 
L 50.250586 127.935011 
L 49.219332 131.399459 
L 27.041348 129.644534 
L 26.075319 133.837886 
L 22.933318 137.641286 
L 22.220756 141.95985 
L 16.984284 145.754001 
L 16.529745 150.255604 
L 79.465395 158.153793 
L 79.369841 160.684722 
L 14.453961 163.829703 
L 14.569013 168.401928 
L 59.28306 169.74725 
L 59.562008 172.907024 
L 68.463227 174.896869 
L 68.899551 177.765452 
L 76.325845 179.233712 
L 76.894641 181.852933 
L 24.662185 198.578468 
L 25.864767 202.812543 
L 45.732358 200.784765 
L 46.993893 204.355257 
L 27.365544 216.438706 
L 29.128354 220.578951 
L 86.65371 197.808562 
L 87.801434 200.093868 
L 40.636705 229.570726 
L 42.805853 233.287204 
L 49.026839 234.380176 
L 51.343058 237.830471 
L 65.697919 232.352833 
L 67.942151 235.279956 
L 44.587649 259.829286 
L 47.70624 263.406577 
L 89.324633 230.091295 
L 91.486076 232.27666 
L 58.244163 272.950369 
L 61.768556 276.091781 
L 84.585785 255.423601 
L 87.546075 257.745441 
L 71.097359 287.37937 
L 75.069077 290.109516 
L 83.657556 285.403154 
L 87.560927 287.739357 
L 102.990169 268.587796 
L 106.35527 270.324454 
L 100.986199 291.151951 
L 105.061757 292.940461 
L 120.396147 265.397207 
L 123.652323 266.58816 
L 124.607592 275.138452 
L 128.167972 276.192172 
L 122.816884 313.586677 
L 127.587045 314.67769 
L 135.982542 295.607245 
L 140.180881 296.29319 
L 145.025625 291.409077 
L 149.087493 291.812764 
L 155.633985 244.453059 
L 158.214208 244.546413 
L 161.105927 272.707515 
L 164.571827 272.614849 
L 170.804401 309.844976 
L 175.433189 309.429006 
L 181.219605 317.388928 
L 186.080442 316.641752 
L 189.519349 308.844305 
L 194.10742 307.840391 
L 189.730521 273.465769 
L 193.206109 272.472708 
L 207.650656 303.970755 
L 212.076528 302.399163 
L 216.450797 300.689188 
L 220.769138 298.842523 
L 217.524834 281.379969 
L 221.23552 279.509081 
L 230.654168 287.735305 
L 234.558188 285.448459 
L 245.214111 293.525421 
L 249.292987 290.777916 
L 246.746084 279.122304 
L 250.371336 276.333752 
L 229.645256 244.793876 
L 232.199602 242.559984 
L 234.14049 239.683191 
L 236.531922 237.310486 
L 220.405487 217.951366 
L 222.120414 216.021264 
L 261.494255 244.495331 
L 264.023467 241.260184 
L 272.830386 242.467445 
L 275.290232 238.876869 
L 269.653352 230.278307 
L 271.731516 226.793649 
L 285.424624 229.508359 
L 287.470781 225.5282 
L 299.352196 226.026296 
L 301.281983 221.609944 
L 238.056751 192.307035 
L 238.956637 189.834618 
L 239.031743 187.102629 
L 239.767509 184.60213 
L 301.203073 196.888916 
L 302.215802 192.428775 
L 268.443748 181.774134 
L 268.997432 178.351491 
L 277.212789 175.796505 
L 277.574188 172.1011 
L 277.038245 168.356831 
L 277.16581 164.670592 
L 264.667009 161.139541 
L 264.573764 157.845849 
L 242.544401 156.207641 
L 242.307024 153.611972 
L 303.172718 142.504589 
L 302.474511 138.009407 
L 246.470504 144.793427 
L 245.872298 142.079956 
L 264.060014 134.282446 
L 263.122623 131.021119 
L 253.197001 130.805372 
L 252.155654 127.887321 
L 296.588407 106.2764 
L 294.754361 102.006156 
L 297.708978 95.400805 
L 295.532426 91.100704 
L 229.278081 123.121786 
L 228.006972 120.959597 
L 288.20727 78.640429 
L 285.508433 74.64737 
L 253.86662 92.266425 
L 251.613194 89.346375 
L 255.823357 80.928298 
L 253.212467 77.952329 
L 258.389027 67.460128 
L 255.3534 64.410148 
L 260.665065 52.222796 
L 257.149218 49.108786 
L 221.178263 86.311817 
L 218.753773 84.422503 
L 224.840635 70.47358 
L 221.916345 68.476945 
L 204.171142 90.544323 
L 201.88814 89.187659 
L 206.175477 75.477761 
L 203.417758 74.065525 
L 215.484708 39.986919 
L 211.606476 38.299528 
L 197.953475 62.318009 
L 194.786049 61.170798 
L 204.538397 18.293861 
L 199.9835 16.961372 
L 195.205039 16.532782 
L 190.599384 15.494625 
L 181.210846 41.554668 
L 177.398854 40.944147 
L 169.388002 77.754304 
L 166.720051 77.497621 
L 165.07406 56.237056 
L 161.731692 56.126652 
L 158.387506 56.121394 
L 155.044808 56.221287 
L 152.068028 61.104085 
L 148.885121 61.400212 
L 139.277876 16.11153 
L 134.686629 16.832053 
L 132.640695 29.951478 
L 128.487887 30.873846 
L 134.223134 68.14309 
L 131.270372 68.996819 
L 113.455969 26.276079 
L 109.197084 27.803474 
L 120.80309 67.771945 
L 117.845294 69.047814 
L 103.945667 47.932629 
L 100.372414 49.748341 
L 95.311161 48.956928 
L 91.774383 51.043622 
L 97.735645 67.628366 
L 94.784739 69.629597 
L 106.903829 91.746885 
L 104.70673 93.447923 
L 99.012896 91.05187 
L 96.797845 93.00136 
L 91.382825 91.64763 
L 89.190278 93.836732 
L 63.948676 75.025793 
L 61.247066 78.085702 
L 87.919938 104.716809 
L 86.140027 107.008329 
L 74.840756 102.604315 
L 73.000891 105.308118 
L 57.916805 99.889617 
L 55.999951 103.126889 
L 81.130644 120.706194 
L 79.856832 123.203279 
L 63.698698 118.975268 
L 62.37908 122.021308 
L 50.916546 121.233976 
L 49.674267 124.680798 
L 50.035628 128.625279 
L 49.026183 132.096144 
L 26.8376 130.48074 
L 25.897965 134.680085 
L 22.779946 138.503172 
L 22.09456 142.826132 
L 16.882055 146.653143 
L 16.455837 151.157516 
L 79.439918 158.659718 
L 79.360283 161.191199 
L 14.465468 164.744401 
L 14.609274 169.315812 
L 59.330898 170.379882 
L 59.629713 173.537839 
L 68.543271 175.471661 
L 68.997628 178.337443 
L 76.43301 179.758966 
L 77.018269 182.374558 
L 24.89204 199.428275 
L 26.121228 203.654702 
L 45.975672 201.502009 
L 47.259638 205.064496 
L 27.707676 217.271157 
L 29.496491 221.400233 
L 86.877496 198.268492 
L 88.039571 200.546535 
L 41.061167 230.319449 
L 43.253647 234.022211 
L 49.481384 235.076035 
L 51.819258 238.511695 
L 66.139383 232.943881 
L 68.401982 235.856831 
L 45.202343 260.552562 
L 48.343371 264.110167 
L 89.751406 230.533788 
L 91.926552 232.705516 
L 58.94111 273.587493 
L 62.485192 276.706677 
L 85.171978 255.895399 
L 88.146812 258.198574 
L 71.884802 287.93537 
L 75.873613 290.640482 
L 84.432321 285.880196 
L 88.350309 288.191803 
L 103.658794 268.94358 
L 107.034751 270.659038 
L 101.796778 291.519892 
L 105.883505 293.282734 
L 121.04436 265.64358 
L 124.307962 266.81403 
L 125.316989 275.358145 
L 128.883926 276.389451 
L 123.768134 313.816872 
L 128.545063 314.877862 
L 136.820451 295.754991 
L 141.023021 296.414517 
L 145.836951 291.50003 
L 149.901278 291.878162 
L 156.149774 244.478221 
L 158.730534 244.555344 
L 161.799313 272.697702 
L 165.264562 272.583239 
L 171.731168 309.773431 
L 176.357249 309.328357 
L 182.193614 317.251728 
L 187.049655 316.473994 
L 190.439452 308.655073 
L 195.021119 307.622323 
L 190.428109 273.275909 
L 193.897383 272.261008 
L 208.539749 303.667583 
L 212.955649 302.068186 
L 217.319077 300.330734 
L 221.625718 298.456945 
L 218.271649 281.015142 
L 221.970494 279.120952 
L 231.440695 287.287775 
L 235.330255 284.976421 
L 246.036766 292.986204 
L 250.098281 290.213099 
L 247.478121 278.573736 
L 251.085763 275.762438 
L 230.161725 244.353541 
L 232.701971 242.103628 
L 234.624727 239.214686 
L 237.001189 236.826987 
L 220.753315 217.569675 
L 222.456069 215.628826 
L 262.008217 243.85469 
L 264.517032 240.6037 
L 273.331369 241.755547 
L 275.768584 238.14957 
L 270.077735 229.586631 
L 272.133942 226.088972 
L 285.843853 228.717507 
L 287.864937 224.724556 
L 299.749249 225.147915 
L 301.651222 220.719514 
L 238.242942 191.814835 
L 239.12726 189.336808 
L 239.185181 186.6044 
L 239.905206 184.099323 
L 301.416831 195.99947 
L 302.401489 191.533048 
L 268.563091 181.091026 
L 269.095238 177.664968 
L 277.294363 175.058363 
L 277.632513 171.360758 
L 277.073031 167.619933 
L 277.17741 163.932965 
L 264.656647 160.480594 
L 264.542688 157.187554 
L 242.503458 155.687931 
L 242.24976 153.093805 
L 303.044391 141.603832 
L 302.317926 137.11313 
L 246.357694 144.249249 
L 245.742434 141.539594 
L 263.880748 133.627848 
L 262.922864 130.372481 
L 252.996081 130.219165 
L 251.936402 127.307721 
L 296.232355 105.417771 
L 294.371489 101.159146 
L 297.284503 94.535343 
L 295.080949 90.249017 
L 229.029309 122.686167 
L 227.744626 120.532015 
L 287.67757 77.835059 
L 284.953672 73.859053 
L 253.423299 91.676769 
L 251.151552 88.770949 
L 255.308687 80.326559 
L 252.679132 77.36707 
L 257.789599 66.842519 
L 254.73485 63.811691 
L 259.969758 51.591173 
L 256.434395 48.499338 
L 220.698137 85.927869 
L 218.261812 84.053842 
L 224.260823 70.066912 
L 221.324033 68.088708 
L 203.717973 90.267257 
L 201.426483 88.924978 
L 205.627508 75.188387 
L 202.860961 73.793524 
L 214.713337 39.639697 
L 210.824569 37.976731 
L 197.322901 62.080607 
L 194.148323 60.95334 
L 203.630806 18.015914 
L 199.067619 16.712099 
L 194.286556 16.313572 
L 189.674463 15.304402 
L 180.450014 41.422978 
L 176.634257 40.836445 
L 168.855079 77.696257 
L 166.185566 77.456359 
L 164.40589 56.206568 
L 161.062894 56.117187 
L 157.718741 56.132962 
L 154.376738 56.253877 
L 151.430727 61.1553 
L 148.249745 61.471441 
L 138.35785 16.244078 
L 133.771225 16.993464 
L 131.807846 30.125496 
L 127.660922 31.073965 
L 133.630457 68.3064 
L 130.683123 69.178684 
L 112.600383 26.570831 
L 108.351189 28.124982 
L 120.208344 68.019668 
L 117.258631 69.314114 
L 103.226477 48.286767 
L 99.664714 50.124917 
L 94.598584 49.365353 
L 91.075 51.474249 
L 97.140452 68.021173 
L 94.202192 70.040923 
L 106.460147 92.081551 
L 104.27379 93.796375 
L 98.564999 91.436179 
L 96.362253 93.399562 
L 90.938825 92.079917 
L 88.760091 94.282765 
L 63.400677 75.630954 
L 60.718366 78.707794 
L 87.558205 105.170617 
L 85.792742 107.473287 
L 74.465995 103.140425 
L 72.643172 105.855747 
L 57.525305 100.532223 
L 55.62885 103.781487 
L 80.86961 121.202386 
L 79.611528 123.707434 
L 63.427121 119.581132 
L 62.126687 122.635411 
L 50.659429 121.920188 
L 49.438853 125.374755 
L 49.825015 129.316885 
L 48.837419 132.79403 
L 26.639116 131.318212 
L 25.72591 135.523384 
L 22.631999 139.366006 
L 21.973815 143.693191 
L 16.785482 147.552909 
L 16.387604 152.059874 
L 79.417623 159.165794 
L 79.353911 161.697725 
L 14.482727 165.659009 
L 14.655282 170.229425 
L 59.382714 171.0122 
L 59.701385 174.168215 
L 68.626929 176.045938 
L 69.099302 178.908806 
L 76.543477 180.283537 
L 77.145174 182.895396 
L 25.127234 200.276619 
L 26.38298 204.495233 
L 46.223492 202.217708 
L 47.52984 205.772049 
L 28.055037 218.10144 
L 29.869786 222.219184 
L 87.104171 198.727006 
L 88.28055 200.997695 
L 41.49033 231.065488 
L 43.706055 234.754387 
L 49.940297 235.769021 
L 52.299733 239.189909 
L 66.584557 233.53214 
L 68.865431 236.430802 
L 45.821573 261.271957 
L 48.984914 264.809737 
L 90.180955 230.973589 
L 92.369716 233.131593 
L 59.642051 274.220222 
L 63.205681 277.317054 
L 85.761127 256.3635 
L 88.750388 258.64792 
L 72.675727 288.486406 
L 76.681473 291.166377 
L 85.210072 286.352356 
L 89.142521 288.639275 
L 104.329643 269.295151 
L 107.716322 270.989343 
L 102.609656 291.882728 
L 106.707389 293.619832 
L 121.69411 265.885871 
L 124.965009 267.035772 
L 126.027754 275.573372 
L 129.601106 276.582223 
L 124.720812 314.041079 
L 129.50432 315.072004 
L 137.659272 295.897464 
L 141.865908 296.530546 
L 146.648833 291.585879 
L 150.715458 291.938441 
L 156.665712 244.500138 
L 159.246905 244.561028 
L 162.492623 272.683528 
L 165.957083 272.547273 
L 172.657468 309.696058 
L 177.280657 309.221897 
L 183.16674 317.108404 
L 188.017794 316.300145 
L 191.358348 308.460058 
L 195.933428 307.398512 
L 191.12449 273.081665 
L 194.587312 272.044964 
L 209.426918 303.358826 
L 213.832671 301.731687 
L 218.185085 299.966826 
L 222.479856 298.065988 
L 219.016154 280.645625 
L 222.703013 278.728209 
L 232.224391 286.835308 
L 236.099337 284.499536 
L 246.856014 292.441823 
L 250.900006 289.643229 
L 248.206693 278.020575 
L 251.796583 275.186643 
L 230.675414 243.909967 
L 233.201459 241.644122 
L 235.106007 238.743143 
L 237.467405 236.340545 
L 221.098735 217.185805 
L 222.789248 215.234284 
L 262.518139 243.210829 
L 265.006457 239.944125 
L 273.827865 241.040512 
L 276.242352 237.419278 
L 270.49776 228.8923 
L 272.531927 225.381778 
L 286.258099 227.924033 
L 288.25403 223.91845 
L 300.140769 224.267055 
L 302.014853 219.826779 
L 238.426032 191.321474 
L 239.294748 188.837934 
L 239.335483 186.105216 
L 240.039738 183.595659 
L 301.624992 195.108699 
L 302.581538 190.636172 
L 268.678135 180.40718 
L 269.188724 176.977843 
L 277.371293 174.319722 
L 277.68618 170.620063 
L 277.103182 166.882831 
L 277.184369 163.195279 
L 264.642141 159.821725 
L 264.507473 156.529467 
L 242.459247 155.168488 
L 242.189239 152.576009 
L 302.910402 140.703899 
L 302.155707 136.217856 
L 246.241464 143.705792 
L 245.609173 141.000059 
L 263.697369 132.974391 
L 262.719029 129.725113 
L 252.791478 129.634234 
L 251.713509 126.729512 
L 295.870911 104.561398 
L 293.983297 100.314561 
L 296.854593 93.672568 
L 294.624124 89.400186 
L 228.777802 122.252122 
L 227.479596 120.106093 
L 287.142815 77.033036 
L 284.393964 73.074241 
L 252.976278 91.089913 
L 250.686299 88.198438 
L 254.790242 79.728069 
L 252.142125 76.785177 
L 257.186299 66.228692 
L 254.112547 63.217137 
L 259.270492 50.963936 
L 255.715752 47.894397 
L 220.215606 85.546949 
L 217.767543 83.688282 
L 223.678465 69.663898 
L 220.729291 67.704204 
L 203.26307 89.993047 
L 200.963183 88.665207 
L 205.07773 74.902465 
L 202.302465 73.525029 
L 213.939798 39.297333 
L 210.040648 37.658859 
L 196.690846 61.847176 
L 193.509241 60.739897 
L 202.721485 17.743681 
L 198.150187 16.468592 
L 193.366713 16.100142 
L 188.748364 15.12 
L 179.688368 41.296076 
L 175.868998 40.733553 
L 168.321801 77.641564 
L 165.650832 77.41846 
L 163.737542 56.180282 
L 160.394051 56.111929 
L 157.050063 56.148736 
L 153.708886 56.290668 
L 150.79376 61.210523 
L 147.61483 61.546664 
L 137.438676 16.38241 
L 132.856855 17.160628 
L 130.976108 30.30475 
L 126.835231 31.279281 
L 133.038819 68.473435 
L 130.097029 69.364239 
L 111.746668 26.870959 
L 107.507333 28.451804 
L 119.615168 68.271126 
L 116.673655 69.584099 
L 102.509528 48.645422 
L 98.959397 50.505937 
L 93.88859 49.77825 
L 90.378339 51.909267 
L 96.547742 68.417715 
L 93.622243 70.455905 
L 106.018579 92.419002 
L 103.84305 94.147542 
L 98.119528 91.823299 
L 95.929174 93.800497 
L 90.497554 92.514988 
L 88.332717 94.731496 
L 62.856495 76.239549 
L 60.193589 79.333199 
L 87.199333 105.626691 
L 85.448388 107.940419 
L 74.094614 103.678882 
L 72.288904 106.405615 
L 57.137854 101.177279 
L 55.261873 104.438406 
L 80.611701 121.700211 
L 79.369399 124.213121 
L 63.159361 120.188692 
L 61.878162 123.25109 
L 50.406632 122.608003 
L 49.207807 126.070178 
L 49.618755 130.009802 
L 48.653049 133.49309 
L 26.445902 132.156916 
L 25.559163 136.367748 
L 22.489481 140.229753 
L 21.858525 144.560991 
L 16.694571 148.453266 
L 16.325046 152.962643 
L 79.398511 159.672 
L 79.350725 162.204282 
L 14.505738 166.57349 
L 14.707035 171.14273 
L 59.438505 171.64418 
L 59.77702 174.798128 
L 68.714197 176.619677 
L 69.204566 179.479517 
L 76.657241 180.807401 
L 77.275353 183.415425 
L 25.36776 201.123468 
L 26.650014 205.3341 
L 46.475809 202.931835 
L 47.804485 206.477889 
L 28.407613 218.929522 
L 30.248225 223.035771 
L 87.333724 199.184086 
L 88.524362 201.447331 
L 41.924177 231.808813 
L 44.163059 235.483703 
L 50.403559 236.459108 
L 52.784464 239.865088 
L 67.033421 234.117588 
L 69.332481 237.001847 
L 46.445316 261.987443 
L 49.630845 265.505258 
L 90.61326 231.410679 
L 92.815551 233.554875 
L 60.346958 274.848529 
L 63.929994 277.922887 
L 86.353208 256.827886 
L 89.356778 259.09346 
L 73.470102 289.032456 
L 77.492624 291.687181 
L 85.990778 286.819615 
L 89.937532 289.081756 
L 105.00269 269.642497 
L 108.399958 271.315354 
L 103.4248 292.240444 
L 107.533378 293.951741 
L 122.345371 266.124071 
L 125.623437 267.253377 
L 126.739858 275.784124 
L 130.319485 276.770481 
L 125.674882 314.25929 
L 130.464779 315.260109 
L 138.498974 296.034658 
L 142.709508 296.64127 
L 147.461239 291.666619 
L 151.530001 291.993598 
L 157.181777 244.518809 
L 159.763302 244.563464 
L 163.185831 272.664994 
L 166.649365 272.506952 
L 173.583262 309.612861 
L 178.203378 309.109632 
L 184.138946 316.958963 
L 188.984821 316.120209 
L 192.275998 308.259267 
L 196.844312 307.168968 
L 191.819635 272.883045 
L 195.275868 271.824585 
L 210.312127 303.044495 
L 214.70756 301.389679 
L 219.048787 299.597478 
L 223.331518 297.669666 
L 219.758321 280.271432 
L 223.433047 278.330866 
L 233.005226 286.377921 
L 236.865404 284.017824 
L 247.671821 291.8923 
L 251.698132 289.068327 
L 248.931773 277.462843 
L 252.503767 274.606388 
L 231.186304 243.463171 
L 233.698048 241.181483 
L 235.584313 238.268584 
L 237.930553 235.851181 
L 221.441734 216.799769 
L 223.11994 214.837655 
L 263.024001 242.563775 
L 265.491725 239.281484 
L 274.319853 240.322368 
L 276.711517 236.68602 
L 270.913409 228.195341 
L 272.925457 224.672095 
L 286.667347 227.127969 
L 288.638045 223.109913 
L 300.526742 223.38375 
L 302.372861 218.931774 
L 238.606017 190.826971 
L 239.459095 188.338016 
L 239.482642 185.605096 
L 240.171099 183.09116 
L 301.827546 194.216635 
L 302.755944 189.738181 
L 268.788877 179.722624 
L 269.277887 176.290144 
L 277.443576 173.580611 
L 277.735188 169.879045 
L 277.128696 166.145554 
L 264.675299 162.457565 
z
" clip-path="url(#p3ed97c6624)" style="fill: #0000ff; opacity: 0.5; stroke: #000000; stroke-width: 1.5; stroke-linejoin: miter"/>
   </g>
  </g>
 </g>
 <defs>
  <clipPath id="p3ed97c6624">
   <rect x="0" y="-0" width="317.860571" height="332.64"/>
  </clipPath>
 </defs>
</svg>
