<?xml version="1.0" encoding="utf-8" standalone="no"?>
<!DOCTYPE svg PUBLIC "-//W3C//DTD SVG 1.1//EN"
  "http://www.w3.org/Graphics/SVG/1.1/DTD/svg11.dtd">
<svg xmlns:xlink="http://www.w3.org/1999/xlink" width="316.255052pt" height="332.64pt" viewBox="0 0 316.255052 332.64" xmlns="http://www.w3.org/2000/svg" version="1.1">
 <metadata>
  <rdf:RDF xmlns:dc="http://purl.org/dc/elements/1.1/" xmlns:cc="http://creativecommons.org/ns#" xmlns:rdf="http://www.w3.org/1999/02/22-rdf-syntax-ns#">
   <cc:Work>
    <dc:type rdf:resource="http://purl.org/dc/dcmitype/StillImage"/>
    <dc:date>2023-12-09T18:06:17.199486</dc:date>
    <dc:format>image/svg+xml</dc:format>
    <dc:creator>
     <cc:Agent>
      <dc:title>Matplotlib v3.8.2, https://matplotlib.org/</dc:title>
     </cc:Agent>
    </dc:creator>
   </cc:Work>
  </rdf:RDF>
 </metadata>
 <defs>
  <style type="text/css">*{stroke-linejoin: round; stroke-linecap: butt}</style>
 </defs>
 <g id="figure_1">
  <g id="patch_1">
   <path d="M 0 332.64 
L 316.255052 332.64 
L 316.255052 0 
L 0 0 
L 0 332.64 
z
" style="fill: none"/>
  </g>
  <g id="axes_1">
   <g id="patch_2">
    <path d="M 266.601511 159.548169 
L 266.548277 156.162887 
L 285.351093 151.586739 
L 285.038265 147.615866 
L 301.879822 141.471728 
L 301.240783 136.986156 
L 237.474019 144.550627 
L 236.963631 142.088593 
L 269.346193 131.169697 
L 268.399321 127.712147 
L 278.636865 120.612945 
L 277.353472 116.868497 
L 266.385445 116.958484 
L 264.993205 113.601054 
L 291.42688 97.130803 
L 289.398833 92.995818 
L 280.306257 92.744024 
L 278.145779 88.960865 
L 239.117125 108.599144 
L 237.475531 106.103222 
L 242.798253 98.537082 
L 240.838466 95.930392 
L 261.964061 74.19471 
L 259.22942 70.997441 
L 266.199366 58.667456 
L 262.974421 55.344697 
L 258.563671 53.280068 
L 255.17311 50.200056 
L 232.02784 71.035129 
L 229.208656 68.780683 
L 229.10834 62.770523 
L 226.030743 60.611959 
L 230.933755 45.843004 
L 227.323017 43.635414 
L 222.502712 43.624898 
L 218.8264 41.683496 
L 200.967749 69.960201 
L 198.130125 68.682883 
L 214.720766 18.155145 
L 210.247477 16.471016 
L 200.849616 29.992933 
L 196.755392 28.739091 
L 185.964295 53.694491 
L 182.622659 52.896958 
L 186.03191 16.423793 
L 181.518369 15.642561 
L 169.233699 77.063514 
L 166.635109 76.780472 
L 165.872532 46.552439 
L 162.316269 46.390165 
L 158.73301 31.298116 
L 154.700647 31.367867 
L 150.723472 32.354393 
L 146.728281 32.675459 
L 145.057947 51.182868 
L 141.657566 51.672761 
L 134.830869 34.389521 
L 130.907525 35.209279 
L 132.563681 57.612195 
L 129.37163 58.491757 
L 123.010044 49.689294 
L 119.573602 50.87316 
L 124.376359 72.75862 
L 121.664592 73.88812 
L 100.709771 36.457618 
L 96.868322 38.349196 
L 106.104401 63.920951 
L 103.123792 65.629331 
L 81.896484 38.727278 
L 78.1357 41.209264 
L 73.054597 41.88993 
L 69.397625 44.648361 
L 59.251089 39.605407 
L 55.529112 42.79898 
L 60.601797 55.321416 
L 57.373298 58.464749 
L 80.851384 86.573487 
L 78.595507 89.064677 
L 59.304728 77.537914 
L 56.775406 80.711046 
L 74.879632 98.801112 
L 73.011171 101.474021 
L 67.210561 101.669527 
L 65.436081 104.58215 
L 49.859077 99.958027 
L 48.039363 103.417065 
L 70.715182 118.326278 
L 69.462693 121.120473 
L 68.29868 123.952668 
L 67.224292 126.820061 
L 47.400334 123.657145 
L 46.326987 127.181775 
L 41.52818 129.765107 
L 40.649784 133.47135 
L 62.452689 141.438666 
L 61.93099 144.481224 
L 15.147651 141.824491 
L 14.661472 146.354232 
L 63.313783 153.828011 
L 63.181207 156.837369 
L 64.726644 159.844429 
L 64.782539 162.806389 
L 72.830958 165.242694 
L 73.052579 167.947168 
L 49.806223 173.697052 
L 50.305051 177.121293 
L 41.585539 182.33938 
L 42.360165 186.017825 
L 72.362748 182.089743 
L 73.114308 184.800609 
L 76.206943 186.744778 
L 77.102966 189.332472 
L 45.002964 205.121755 
L 46.492229 208.681484 
L 49.522902 211.513344 
L 51.210897 214.927797 
L 50.928371 219.439238 
L 52.864879 222.805581 
L 88.248708 204.775653 
L 89.705708 206.975812 
L 45.243882 242.806668 
L 47.917924 246.34019 
L 79.888151 225.453581 
L 81.999444 227.906391 
L 88.786683 225.938163 
L 90.908813 228.110944 
L 81.226063 242.959293 
L 83.887113 245.361381 
L 67.539963 270.935257 
L 71.087406 273.753834 
L 91.841931 252.691794 
L 94.803743 254.755284 
L 90.664856 268.117729 
L 94.112275 270.210602 
L 94.974559 277.06146 
L 98.701058 279.014404 
L 120.857623 241.372542 
L 123.449187 242.529311 
L 119.734664 259.82533 
L 122.906979 261.008284 
L 122.012453 274.908751 
L 125.657897 276.012629 
L 129.336248 277.00134 
L 133.043867 277.873907 
L 144.162948 238.935701 
L 146.66637 239.360905 
L 140.38533 312.007475 
L 145.188156 312.515326 
L 152.996616 261.500557 
L 156.205159 261.636854 
L 159.674072 316.296682 
L 164.602223 316.195933 
L 169.63174 317.52 
L 174.593432 317.105555 
L 169.340178 238.826674 
L 171.827723 238.460305 
L 176.280559 248.11571 
L 179.05674 247.526526 
L 194.255639 294.330477 
L 198.476026 293.153268 
L 191.478227 258.018319 
L 194.558254 256.946391 
L 192.289841 242.555711 
L 194.883288 241.46591 
L 215.161002 277.452986 
L 218.840388 275.626811 
L 224.385562 277.144569 
L 228.05069 275.028507 
L 236.78014 280.792375 
L 240.553835 278.284796 
L 225.965644 250.778739 
L 228.800991 248.626031 
L 226.995969 240.919968 
L 229.520825 238.739739 
L 227.615212 231.888184 
L 229.855783 229.692951 
L 243.047966 237.664255 
L 245.462519 234.980926 
L 265.562877 246.757971 
L 268.252224 243.362228 
L 238.035547 216.337011 
L 239.782002 213.821828 
L 228.031627 202.845691 
L 229.358832 200.651723 
L 294.642799 233.135 
L 296.889433 228.831656 
L 259.494141 206.151391 
L 260.909729 202.966539 
L 242.3043 191.987711 
L 243.28305 189.350348 
L 263.037623 192.686911 
L 264.028106 189.397301 
L 267.986552 186.84716 
L 268.790973 183.404833 
L 285.057481 182.81085 
L 285.726552 178.833771 
L 250.89925 170.590551 
L 251.200977 167.693523 
L 289.350666 166.938296 
L 289.518546 162.834078 
L 266.599381 158.871005 
L 266.524857 155.486125 
L 285.29852 150.791808 
L 284.960723 146.822981 
L 301.763305 140.573041 
L 301.096067 136.091578 
L 237.37814 144.056955 
L 236.852277 141.59818 
L 269.165525 130.475832 
L 268.196925 127.024307 
L 278.389616 119.860856 
L 277.082699 116.124554 
L 266.115455 116.283522 
L 264.702126 112.934914 
L 291.031689 96.298737 
L 288.977676 92.176589 
L 279.883696 91.981987 
L 277.699467 88.212491 
L 238.795098 108.095849 
L 237.137839 105.610302 
L 242.412869 98.010834 
L 240.436726 95.416522 
L 261.425198 73.548401 
L 258.670503 70.368395 
L 265.562762 57.994817 
L 262.316982 54.692407 
L 257.893334 52.65556 
L 254.483469 49.596934 
L 231.469697 70.577165 
L 228.63639 68.340494 
L 228.498276 62.331085 
L 225.407163 60.191919 
L 230.21719 45.392419 
L 226.592639 43.207582 
L 221.772363 43.227384 
L 218.083914 41.309142 
L 200.40346 69.697609 
L 197.557858 68.438163 
L 213.830381 17.807078 
L 209.346588 16.151118 
L 200.033958 29.731874 
L 195.931929 28.503807 
L 185.298001 53.526584 
L 181.951415 52.750083 
L 185.131203 16.256197 
L 180.612837 15.503368 
L 168.714714 77.00037 
L 166.114395 76.733678 
L 165.161716 46.511039 
L 161.604502 46.371135 
L 157.926394 31.301921 
L 153.89455 31.397032 
L 149.923658 32.408553 
L 145.930565 32.75474 
L 144.376665 51.272288 
L 140.979432 51.783558 
L 134.044169 34.543595 
L 130.126058 35.388013 
L 131.923083 57.78007 
L 128.736627 58.67969 
L 122.319804 49.917412 
L 118.890876 51.122868 
L 123.831186 72.977689 
L 121.126576 74.124222 
L 99.936753 36.826254 
L 96.107277 38.741955 
L 105.504005 64.255115 
L 102.5342 65.982207 
L 81.138113 39.214194 
L 77.393014 41.719784 
L 72.316292 42.432394 
L 68.676742 45.213771 
L 58.498689 40.234732 
L 54.796871 43.451651 
L 59.948215 55.941935 
L 56.739549 59.105512 
L 80.393959 87.06603 
L 78.153795 89.571359 
L 58.790901 78.166152 
L 56.281586 81.355129 
L 74.49923 99.330972 
L 72.647617 102.01558 
L 66.848351 102.247564 
L 65.092225 105.171291 
L 49.486447 100.645229 
L 47.688523 104.115644 
L 70.457664 118.881944 
L 69.222774 121.683961 
L 68.076597 124.523421 
L 67.020265 127.397515 
L 47.176806 124.359343 
L 46.125648 127.890653 
L 41.343184 130.504116 
L 40.488116 134.21581 
L 62.340699 142.045841 
L 61.838146 145.09162 
L 15.039023 142.72918 
L 14.581343 147.26189 
L 63.279698 154.429525 
L 63.166051 157.439658 
L 64.730371 160.436938 
L 64.804893 163.398488 
L 72.868477 165.784125 
L 73.107102 168.487151 
L 49.897369 174.383128 
L 50.417724 177.804165 
L 41.731204 183.076989 
L 42.52895 186.750489 
L 72.506234 182.633785 
L 73.274829 185.339871 
L 76.37963 187.26455 
L 77.291911 189.846558 
L 45.29185 205.837419 
L 46.803473 209.387711 
L 49.851897 212.200455 
L 51.561334 215.604223 
L 51.307188 220.117352 
L 53.26483 223.471449 
L 88.534561 205.219333 
L 90.00537 207.410285 
L 45.76978 243.520072 
L 48.465992 247.036706 
L 80.304222 225.949436 
L 82.4309 228.388918 
L 89.205626 226.378041 
L 91.34138 228.537432 
L 81.752209 243.446386 
L 84.428314 245.83169 
L 68.242333 271.507875 
L 71.807432 274.304084 
L 92.429079 253.111927 
L 95.403811 255.156748 
L 91.349047 268.54496 
L 94.809561 270.616109 
L 95.714916 277.461408 
L 99.453625 279.390876 
L 121.373005 241.610406 
L 123.971793 242.750853 
L 120.366126 260.069892 
L 123.545819 261.232871 
L 122.738736 275.138689 
L 126.391051 276.219617 
L 130.075547 277.185174 
L 133.788581 278.034405 
L 144.662543 239.027036 
L 147.168589 239.436487 
L 141.34458 312.121124 
L 146.150505 312.598758 
L 153.637957 261.535887 
L 156.847293 261.652002 
L 160.659916 316.288932 
L 165.587336 316.157189 
L 170.625082 317.449597 
L 175.584069 317.003954 
L 169.838589 238.759661 
L 172.323781 238.377654 
L 176.837256 248.004862 
L 179.609676 247.39823 
L 195.102645 294.105662 
L 199.315545 292.901932 
L 192.096905 257.81169 
L 195.170129 256.720413 
L 192.811251 242.344284 
L 195.397793 241.238193 
L 215.901444 277.097022 
L 219.569272 275.247743 
L 225.123882 276.730595 
L 228.775629 274.591522 
L 237.541158 280.300373 
L 241.299007 277.769109 
L 226.538107 250.355348 
L 229.359859 248.18485 
L 227.506405 240.490292 
L 230.017499 238.294226 
L 228.068832 231.454792 
L 230.295552 229.24551 
L 243.537609 237.133685 
L 245.935237 234.435222 
L 266.109268 246.085616 
L 268.777205 242.673025 
L 238.391152 215.838388 
L 240.121754 213.312271 
L 228.302577 202.410253 
L 229.615957 200.207982 
L 295.102935 232.280018 
L 297.322458 227.962628 
L 259.78526 205.518007 
L 261.180789 202.324315 
L 242.506678 191.462722 
L 243.468821 188.819255 
L 263.243988 192.031507 
L 264.213762 188.735732 
L 268.15609 186.160746 
L 268.938845 182.713427 
L 285.201295 182.017149 
L 285.84534 178.035941 
L 250.966882 170.011927 
L 251.250382 167.113059 
L 289.394566 166.117908 
L 289.53663 162.012714 
L 266.592993 158.193868 
L 266.497181 154.809524 
L 285.240948 149.997225 
L 284.878196 146.030601 
L 301.641137 139.675105 
L 300.945726 135.197927 
L 237.279157 143.563897 
L 236.737841 141.108478 
L 268.980496 129.783117 
L 267.990208 126.337752 
L 278.137643 119.110337 
L 276.807252 115.382328 
L 265.841225 115.610271 
L 264.406863 112.270619 
L 290.631273 95.469172 
L 288.551375 91.360025 
L 279.456351 91.222623 
L 277.248457 87.466939 
L 238.469913 107.59459 
L 236.797054 105.119515 
L 242.024183 97.48702 
L 240.031763 94.905189 
L 260.882281 72.905495 
L 258.10764 69.742877 
L 264.92194 57.326195 
L 261.655454 54.044265 
L 257.219083 52.035281 
L 253.790048 48.998161 
L 230.908685 70.12272 
L 228.061367 67.903914 
L 227.88546 61.895492 
L 224.780954 59.77581 
L 229.497805 44.94635 
L 225.859584 42.784353 
L 221.039528 42.834471 
L 217.339088 40.939465 
L 199.837531 69.43857 
L 196.984064 68.197048 
L 212.937824 17.464619 
L 208.443705 15.836892 
L 199.216675 29.47595 
L 195.107002 28.273707 
L 184.630663 53.36287 
L 181.27926 52.607433 
L 184.22946 16.09427 
L 179.706448 15.369874 
L 168.195341 76.940492 
L 165.593396 76.690159 
L 164.450653 46.47411 
L 160.89263 46.356582 
L 157.119818 31.310799 
L 153.088651 31.431266 
L 149.1242 32.467742 
L 145.133364 32.839036 
L 143.695959 51.365991 
L 140.302009 51.898618 
L 133.258453 34.702615 
L 129.345731 35.571659 
L 131.283554 57.95197 
L 128.102818 58.871614 
L 121.631013 50.149867 
L 118.209735 51.376866 
L 123.287401 73.200182 
L 120.590056 74.363703 
L 99.166068 37.199745 
L 95.348717 39.139493 
L 104.905722 64.593048 
L 101.946839 66.338785 
L 80.382819 39.70587 
L 76.653553 42.234966 
L 71.581413 42.979491 
L 67.959428 45.783703 
L 57.750261 40.868777 
L 54.06875 44.108915 
L 59.298548 56.566553 
L 56.109843 59.750248 
L 79.939641 87.56144 
L 77.715278 90.080809 
L 58.281035 78.797609 
L 55.791826 82.002305 
L 74.122168 99.863214 
L 72.287476 102.559415 
L 66.489784 102.827868 
L 64.752081 105.762582 
L 49.118145 101.334761 
L 47.342084 104.816415 
L 70.203647 119.439219 
L 68.986404 122.248947 
L 67.858108 125.095559 
L 66.819873 127.97624 
L 46.957699 125.062932 
L 45.928772 128.600784 
L 41.162839 131.244274 
L 40.331132 134.961273 
L 62.23253 142.653708 
L 61.749143 145.702588 
L 14.936087 143.634535 
L 14.506925 148.170034 
L 63.249396 155.031242 
L 63.154684 158.04203 
L 64.737824 161.029412 
L 64.830971 163.990435 
L 72.9094 166.325309 
L 73.165021 169.026781 
L 49.99283 175.068617 
L 50.53469 178.486314 
L 41.881505 183.813667 
L 42.70234 187.482077 
L 72.653139 183.176915 
L 73.438738 185.878112 
L 76.555583 187.783226 
L 77.484086 190.359445 
L 45.58523 206.551252 
L 47.119154 210.091967 
L 50.185208 212.885482 
L 51.916018 216.278432 
L 51.690263 220.79307 
L 53.668961 224.134788 
L 88.823199 205.661206 
L 90.307759 207.842865 
L 46.300154 244.230154 
L 49.01843 247.729761 
L 80.723403 226.442663 
L 82.865383 228.868722 
L 89.627327 226.815275 
L 91.77662 228.961191 
L 82.281408 243.930161 
L 84.972462 246.298586 
L 68.94829 272.076064 
L 72.530905 274.849795 
L 93.018857 253.528359 
L 96.006391 255.55443 
L 92.035912 268.96788 
L 95.509384 271.017223 
L 96.457774 277.856693 
L 100.208544 279.762608 
L 121.889873 241.845025 
L 124.495783 242.969104 
L 120.999114 260.310478 
L 124.186058 261.453435 
L 123.46645 275.364055 
L 127.125492 276.421991 
L 130.815988 277.364355 
L 134.53429 278.190216 
L 145.162702 239.115228 
L 147.671274 239.508909 
L 142.304525 312.228738 
L 147.113359 312.676136 
L 154.279506 261.567184 
L 157.489509 261.663111 
L 161.645693 316.274981 
L 166.572187 316.11225 
L 171.617961 317.372948 
L 176.574047 316.896124 
L 170.336569 238.689515 
L 172.819309 238.291885 
L 177.393244 247.890515 
L 180.161794 247.266458 
L 195.94822 293.875524 
L 200.153465 292.645322 
L 192.714271 257.601175 
L 195.780571 256.49059 
L 193.331322 242.129582 
L 195.910856 241.007245 
L 216.639633 276.736409 
L 220.295757 274.864097 
L 225.859584 276.311984 
L 229.497805 274.149987 
L 238.299066 279.803594 
L 242.04092 277.248746 
L 227.107896 249.928364 
L 229.91594 247.740162 
L 228.014129 240.057413 
L 230.511361 237.845598 
L 228.519716 231.018555 
L 230.732497 228.795312 
L 244.023904 236.600046 
L 246.404514 233.886557 
L 266.65142 245.409836 
L 269.297841 241.980533 
L 238.743614 215.337539 
L 240.458294 212.800587 
L 228.570783 201.973121 
L 229.870287 199.762633 
L 295.557683 231.422158 
L 297.750009 227.090894 
L 260.072389 204.882805 
L 261.447804 201.680399 
L 242.705749 190.93647 
L 243.651247 188.287005 
L 263.446227 191.374818 
L 264.395253 188.073009 
L 268.321308 185.473279 
L 269.082366 182.021105 
L 285.340115 181.222559 
L 285.959107 177.237379 
L 251.030873 169.43289 
L 251.296135 166.532296 
L 289.433306 165.297259 
L 289.549547 161.191253 
L 266.582346 157.516785 
L 266.46525 154.133111 
L 285.17838 149.203019 
L 284.790687 145.238755 
L 301.513324 138.777955 
L 300.789768 134.305239 
L 237.177076 143.071471 
L 236.620327 140.619504 
L 268.791114 129.09158 
L 267.779176 125.652511 
L 277.880954 118.361418 
L 276.527142 114.64185 
L 265.562766 114.938759 
L 264.107428 111.608194 
L 290.225648 94.642143 
L 288.119947 90.546158 
L 279.024238 90.465961 
L 276.792766 86.724238 
L 238.141581 107.095386 
L 236.453189 104.630881 
L 241.63221 96.965662 
L 239.623591 94.396412 
L 260.335332 72.266016 
L 257.540854 69.120912 
L 264.276925 56.661617 
L 260.989863 53.400296 
L 256.540944 51.419254 
L 253.092875 48.403761 
L 230.344826 69.671813 
L 227.48361 67.470959 
L 227.269916 61.463762 
L 224.15214 59.363648 
L 228.775629 44.504815 
L 225.123882 42.365743 
L 220.304237 42.446175 
L 216.591951 40.57448 
L 199.269984 69.183097 
L 196.408765 67.959545 
L 212.043131 17.12778 
L 207.538863 15.52835 
L 198.397797 29.225172 
L 194.280645 28.0488 
L 183.96231 53.203357 
L 180.606222 52.469013 
L 183.326716 15.938017 
L 178.799238 15.242083 
L 167.675603 76.883881 
L 165.072135 76.649919 
L 163.739373 46.441654 
L 160.18068 46.346506 
L 156.313313 31.32475 
L 152.282984 31.470568 
L 148.32513 32.531957 
L 144.336708 32.928345 
L 143.015856 51.463973 
L 139.625323 52.017936 
L 132.473753 34.866573 
L 128.566574 35.760208 
L 130.645118 58.12789 
L 127.47023 59.06752 
L 120.943697 50.38665 
L 117.530204 51.635142 
L 122.745026 73.426091 
L 120.055052 74.606554 
L 98.397748 37.578076 
L 94.592672 39.541794 
L 104.309577 64.934738 
L 101.361732 66.69905 
L 79.630633 40.202287 
L 75.917347 42.754788 
L 70.84999 43.531199 
L 67.245714 46.358136 
L 57.005837 41.507517 
L 53.344776 44.770746 
L 58.652823 57.195245 
L 55.484205 60.398932 
L 79.488448 88.059698 
L 77.279974 90.593007 
L 57.77515 79.432261 
L 55.306147 82.652549 
L 73.748461 100.397817 
L 71.930763 103.105503 
L 66.134874 103.410416 
L 64.415663 106.356001 
L 48.754188 102.026596 
L 47.00006 105.519352 
L 69.953139 119.99808 
L 68.753593 122.815409 
L 67.643222 125.669061 
L 66.623126 128.556215 
L 46.743021 125.767886 
L 45.736365 129.312139 
L 40.987153 131.985552 
L 40.17884 135.707708 
L 62.128186 143.262244 
L 61.663984 146.314104 
L 14.838848 144.540519 
L 14.438219 149.078627 
L 63.22288 155.633138 
L 63.147105 158.644462 
L 64.749003 161.621828 
L 64.860772 164.582206 
L 72.953725 166.866225 
L 73.226333 169.566036 
L 50.092599 175.753493 
L 50.655945 179.167713 
L 42.036436 184.549385 
L 42.880327 188.21256 
L 72.803457 183.719109 
L 73.60603 186.415312 
L 76.734795 188.300786 
L 77.679482 190.871114 
L 45.883095 207.263226 
L 47.439257 210.794224 
L 50.52282 213.5684 
L 52.274936 216.950396 
L 52.07758 221.466365 
L 54.077257 224.795572 
L 89.114611 206.101255 
L 90.612863 208.273534 
L 46.834983 244.936887 
L 49.575217 248.419328 
L 81.145679 226.933245 
L 83.302874 229.345784 
L 90.05177 227.249849 
L 92.214517 229.382204 
L 82.813639 244.410597 
L 85.519536 246.762051 
L 69.657806 272.639801 
L 73.257796 275.390946 
L 93.611243 253.941073 
L 96.611461 255.948314 
L 92.725423 269.386471 
L 96.211716 271.413927 
L 97.203104 278.247297 
L 100.965786 280.129584 
L 122.408206 242.076388 
L 125.021134 243.184056 
L 121.633602 260.547078 
L 124.827671 261.669969 
L 124.195568 275.584839 
L 127.861191 276.619741 
L 131.557542 277.538875 
L 135.280964 278.341334 
L 145.663407 239.200272 
L 148.174405 239.578167 
L 143.265128 312.330312 
L 148.076681 312.747457 
L 154.92124 261.594444 
L 158.131783 261.67018 
L 162.631362 316.25483 
L 167.556735 316.061118 
L 172.610339 317.290056 
L 177.563328 316.78207 
L 170.834097 238.616238 
L 173.314287 238.203001 
L 177.948502 247.772674 
L 180.713073 247.131217 
L 196.79233 293.640073 
L 200.989756 292.383447 
L 193.330301 257.386781 
L 196.389555 256.256933 
L 193.850032 241.911613 
L 196.422456 240.773075 
L 217.37554 276.371159 
L 221.019816 274.47589 
L 226.592639 275.888755 
L 230.21719 273.703918 
L 239.053835 279.302058 
L 242.779546 276.723727 
L 227.674987 249.497806 
L 230.469214 247.291986 
L 228.51912 239.62135 
L 231.002392 237.393872 
L 228.967848 230.579491 
L 231.166602 228.342374 
L 244.506834 236.063359 
L 246.87033 233.334951 
L 267.189311 244.730661 
L 269.814111 241.284781 
L 239.092919 214.834482 
L 240.791609 212.286796 
L 228.836235 201.53431 
L 230.12181 199.315692 
L 296.007028 230.561455 
L 298.172069 226.216489 
L 260.355518 204.245809 
L 261.710765 201.034816 
L 242.901507 190.408977 
L 243.830323 187.753617 
L 263.644331 190.71687 
L 264.572572 187.409158 
L 268.482198 184.784786 
L 269.22153 181.327894 
L 285.473935 180.427112 
L 286.06785 176.438117 
L 251.09122 168.853462 
L 251.338234 165.951257 
L 289.466883 164.476383 
L 289.557298 160.369727 
L 266.56744 156.839783 
L 266.429066 153.456912 
L 285.110818 148.409222 
L 284.6982 144.447475 
L 301.379871 137.881627 
L 300.628199 133.413551 
L 237.071899 142.579696 
L 236.49974 140.13128 
L 268.597386 128.401248 
L 267.563839 124.968612 
L 277.61956 117.614128 
L 276.242381 113.903148 
L 265.280089 114.269011 
L 263.803833 110.947665 
L 289.814829 93.81768 
L 287.683408 89.73502 
L 278.587375 89.712032 
L 276.332414 85.984418 
L 237.810116 106.598257 
L 236.106257 104.14442 
L 241.236966 96.446779 
L 239.212227 93.890213 
L 259.784371 71.62999 
L 256.970168 68.502523 
L 263.627744 56.001109 
L 260.320234 52.760526 
L 255.858944 50.807504 
L 252.391977 47.813757 
L 229.778143 69.224462 
L 226.90314 67.041646 
L 226.651669 61.035912 
L 223.520746 58.955448 
L 228.05069 44.06783 
L 224.385562 41.951768 
L 219.566518 42.062512 
L 215.842533 40.214202 
L 198.700841 68.931198 
L 195.831983 67.725666 
L 211.146337 16.796575 
L 206.632099 15.225506 
L 197.577359 28.979549 
L 193.452889 27.829095 
L 183.292966 53.048051 
L 179.932326 52.334829 
L 182.423007 15.787446 
L 177.891241 15.12 
L 167.155518 76.830541 
L 164.55063 76.612957 
L 163.027902 46.413672 
L 159.468681 46.340908 
L 155.506913 31.343773 
L 151.47758 31.514937 
L 147.52648 32.601197 
L 143.54063 33.022662 
L 142.336383 51.566231 
L 138.949401 52.141507 
L 131.6901 35.035463 
L 127.788618 35.953655 
L 130.007802 58.307821 
L 126.838886 59.267401 
L 120.257885 50.627751 
L 116.852311 51.897687 
L 122.204083 73.655407 
L 119.521587 74.852765 
L 97.631823 37.961231 
L 93.839173 39.948843 
L 103.715593 65.28017 
L 100.778902 67.062987 
L 78.881583 40.703425 
L 75.184425 43.279229 
L 70.122051 44.087496 
L 66.535626 46.937046 
L 56.265444 42.150927 
L 52.62498 45.437116 
L 58.011064 57.827985 
L 54.862658 61.051538 
L 79.040397 88.560783 
L 76.8479 91.107932 
L 57.273267 80.070081 
L 54.824566 83.305835 
L 73.378124 100.93476 
L 71.577491 103.653825 
L 65.783635 103.995184 
L 64.082984 106.951524 
L 48.394589 102.720707 
L 46.662463 106.224426 
L 69.706151 120.558505 
L 68.524348 123.383323 
L 67.431947 126.243902 
L 66.43003 129.137415 
L 46.532781 126.474176 
L 45.548437 130.02469 
L 40.816132 132.72792 
L 40.031246 136.455087 
L 62.027671 143.871424 
L 61.582673 146.926143 
L 14.747308 145.447097 
L 14.37523 149.987635 
L 63.20015 156.235188 
L 63.143316 159.246929 
L 64.763908 162.214161 
L 64.894294 165.173778 
L 73.001452 167.406852 
L 73.291034 170.104895 
L 50.196674 176.437727 
L 50.781482 179.848337 
L 42.195992 185.284114 
L 43.062905 188.941909 
L 72.957182 184.260348 
L 73.776697 186.95145 
L 76.917259 188.817208 
L 77.878093 191.381543 
L 46.185432 207.973313 
L 47.763771 211.494453 
L 50.864721 214.24918 
L 52.638073 217.62009 
L 52.469123 222.137211 
L 54.4897 225.453775 
L 89.408784 206.539463 
L 90.920669 208.702276 
L 47.374247 245.640241 
L 50.136329 249.105379 
L 81.571031 227.42116 
L 83.743358 229.820084 
L 90.478938 227.681744 
L 92.655053 229.800455 
L 83.348881 244.887677 
L 86.069514 247.222065 
L 70.370854 273.199065 
L 73.988076 275.927513 
L 94.206213 254.350053 
L 97.218996 256.338385 
L 93.417553 269.800717 
L 96.916529 271.806207 
L 97.950875 278.633206 
L 101.725321 280.491791 
L 122.927985 242.304486 
L 125.547827 243.395698 
L 122.269565 260.779683 
L 125.470634 261.882463 
L 124.92606 275.801033 
L 128.59812 276.81286 
L 132.300178 277.708728 
L 136.028573 278.487753 
L 146.164636 239.282165 
L 148.677961 239.64426 
L 144.226351 312.425843 
L 149.040433 312.812718 
L 155.563133 261.617668 
L 158.774088 261.67321 
L 163.616885 316.228481 
L 168.540942 316.003794 
L 173.602175 317.200923 
L 178.551871 316.661797 
L 171.331155 238.539834 
L 173.808697 238.111005 
L 178.503008 247.651343 
L 181.26349 246.992511 
L 197.634944 293.399318 
L 201.824383 292.116317 
L 193.94497 257.168517 
L 196.997057 256.01945 
L 194.367361 241.690386 
L 196.932573 240.535691 
L 218.109134 276.001289 
L 221.741418 274.083136 
L 227.323017 275.460924 
L 230.933755 273.253333 
L 239.805434 278.795786 
L 243.514856 276.194072 
L 228.23936 249.063689 
L 231.019658 246.840339 
L 229.021359 239.18212 
L 231.490572 236.939067 
L 229.41321 230.137617 
L 231.59785 227.886716 
L 244.986379 235.523645 
L 247.332668 232.780426 
L 267.722919 244.048116 
L 270.325995 240.585796 
L 239.439053 214.329239 
L 241.121686 211.770919 
L 229.098921 201.093838 
L 230.370517 198.867179 
L 296.45095 229.697943 
L 298.588621 225.339446 
L 260.634635 203.607046 
L 261.969659 200.387592 
L 243.093943 189.880262 
L 244.00604 187.219113 
L 263.838294 190.057689 
L 264.745713 186.744204 
L 268.638756 184.095295 
L 269.35633 180.633821 
L 285.602749 179.630839 
L 286.171564 175.638187 
L 251.147923 168.273665 
L 251.376679 165.369964 
L 289.495297 163.655311 
L 266.601511 159.548169 
z
" clip-path="url(#pa91619df2a)" style="fill: #0000ff; opacity: 0.5; stroke: #000000; stroke-width: 1.5; stroke-linejoin: miter"/>
   </g>
  </g>
 </g>
 <defs>
  <clipPath id="pa91619df2a">
   <rect x="0" y="-0" width="316.255052" height="332.64"/>
  </clipPath>
 </defs>
</svg>
