<?xml version="1.0" encoding="utf-8" standalone="no"?>
<!DOCTYPE svg PUBLIC "-//W3C//DTD SVG 1.1//EN"
  "http://www.w3.org/Graphics/SVG/1.1/DTD/svg11.dtd">
<svg xmlns:xlink="http://www.w3.org/1999/xlink" width="327.524397pt" height="332.64pt" viewBox="0 0 327.524397 332.64" xmlns="http://www.w3.org/2000/svg" version="1.1">
 <metadata>
  <rdf:RDF xmlns:dc="http://purl.org/dc/elements/1.1/" xmlns:cc="http://creativecommons.org/ns#" xmlns:rdf="http://www.w3.org/1999/02/22-rdf-syntax-ns#">
   <cc:Work>
    <dc:type rdf:resource="http://purl.org/dc/dcmitype/StillImage"/>
    <dc:date>2023-12-09T18:06:20.528686</dc:date>
    <dc:format>image/svg+xml</dc:format>
    <dc:creator>
     <cc:Agent>
      <dc:title>Matplotlib v3.8.2, https://matplotlib.org/</dc:title>
     </cc:Agent>
    </dc:creator>
   </cc:Work>
  </rdf:RDF>
 </metadata>
 <defs>
  <style type="text/css">*{stroke-linejoin: round; stroke-linecap: butt}</style>
 </defs>
 <g id="figure_1">
  <g id="patch_1">
   <path d="M -0 332.64 
L 327.524397 332.64 
L 327.524397 0 
L -0 0 
L -0 332.64 
z
" style="fill: none"/>
  </g>
  <g id="axes_1">
   <g id="patch_2">
    <path d="M 277.981954 165.349511 
L 277.925397 161.752863 
L 268.622737 158.734951 
L 268.362831 155.435847 
L 312.636924 146.501802 
L 311.970619 141.824845 
L 299.172627 139.459748 
L 298.291561 135.20962 
L 289.152822 133.077485 
L 288.076038 129.145557 
L 299.204501 121.239421 
L 297.750533 116.997299 
L 283.403041 117.860945 
L 281.850659 114.117326 
L 299.497792 101.324344 
L 297.417506 97.082847 
L 277.834753 102.469551 
L 275.801185 98.908621 
L 246.623413 112.590684 
L 244.923507 110.006103 
L 277.676705 82.352972 
L 275.010705 78.806958 
L 250.50617 93.347119 
L 248.199284 90.64997 
L 261.918628 72.875595 
L 258.962431 69.829735 
L 222.009396 103.040063 
L 220.021368 101.234123 
L 217.491961 100.0796 
L 215.413083 98.417162 
L 242.828505 56.074174 
L 239.353473 53.636856 
L 231.723818 57.752916 
L 228.30706 55.663924 
L 223.359635 56.358033 
L 219.903154 54.532719 
L 198.575626 90.788084 
L 196.213955 89.72501 
L 205.295203 59.652232 
L 201.951231 58.393274 
L 202.794687 44.179882 
L 198.965466 43.007196 
L 184.158182 84.810898 
L 181.615703 84.204095 
L 184.729778 53.706167 
L 181.209016 53.096771 
L 179.466028 38.220716 
L 175.460972 37.784481 
L 172.79949 15.400707 
L 168.080219 15.185365 
L 163.44884 73.838244 
L 160.571596 73.888014 
L 156.370878 53.480937 
L 152.857055 53.763319 
L 147.513449 39.784098 
L 143.573348 40.351749 
L 148.738586 88.21957 
L 146.320796 88.724752 
L 132.460293 45.008343 
L 128.691896 46.046715 
L 119.269463 29.807264 
L 115.029633 31.2679 
L 123.814967 65.45185 
L 120.693633 66.751942 
L 124.136423 81.936764 
L 121.533252 83.218598 
L 92.789067 37.188936 
L 88.794425 39.478524 
L 82.003785 37.391547 
L 78.020846 40.020148 
L 89.408892 63.715457 
L 86.249973 66.09821 
L 73.419027 56.849362 
L 70.052129 59.738267 
L 99.747162 97.677162 
L 97.650962 99.718066 
L 71.105203 78.912983 
L 68.433177 81.86373 
L 55.845991 76.657923 
L 53.110606 80.089568 
L 48.012161 81.818769 
L 45.442917 85.494175 
L 72.012432 107.561613 
L 70.240734 110.46967 
L 49.822765 103.194739 
L 47.924734 106.802647 
L 28.177889 102.074876 
L 26.255349 106.3639 
L 42.214038 117.680417 
L 40.77523 121.520398 
L 40.183806 125.637321 
L 38.996185 129.537203 
L 76.369241 143.223113 
L 75.716664 145.976551 
L 51.916288 144.388033 
L 51.31243 147.909749 
L 32.6548 149.209655 
L 32.212067 153.33461 
L 18.958273 156.697302 
L 18.75774 161.249204 
L 14.887473 165.817151 
L 14.9757 170.492539 
L 36.516999 173.753747 
L 36.844077 177.745132 
L 24.439987 183.391149 
L 25.076056 187.757495 
L 62.530827 184.977464 
L 63.19794 188.145367 
L 84.627998 185.910327 
L 85.313518 188.382986 
L 30.293696 209.171358 
L 31.737458 213.340905 
L 52.428944 209.815908 
L 53.882028 213.289155 
L 68.531711 210.498792 
L 69.998304 213.465395 
L 92.898963 204.550238 
L 94.166473 206.753623 
L 46.683322 240.152462 
L 49.093094 243.791366 
L 47.309295 250.50667 
L 50.044317 254.120772 
L 85.69195 230.29966 
L 87.772641 232.716918 
L 53.926898 269.140291 
L 57.244529 272.537108 
L 105.892123 227.284383 
L 107.86802 229.067994 
L 73.619488 275.004196 
L 77.111757 277.778935 
L 114.563963 233.415256 
L 116.72834 234.923174 
L 110.820211 249.273709 
L 113.485064 250.891498 
L 114.376648 255.773744 
L 117.244118 257.276498 
L 120.15742 258.688348 
L 123.113673 260.0079 
L 135.27241 237.795455 
L 137.564272 238.650089 
L 130.583496 268.484289 
L 133.8426 269.471178 
L 128.372704 305.11048 
L 132.784509 306.148774 
L 139.04031 297.301391 
L 143.201305 298.008132 
L 146.093012 309.181866 
L 150.624069 309.660981 
L 155.833064 298.577823 
L 160.025891 298.755932 
L 164.157494 285.075567 
L 167.921665 284.998614 
L 173.896965 317.52 
L 178.676444 317.120775 
L 182.25011 307.498152 
L 186.71035 306.841241 
L 192.173714 311.283055 
L 196.748053 310.312253 
L 196.263356 290.018291 
L 200.167063 288.929415 
L 205.231107 291.338716 
L 209.171897 289.967222 
L 199.135032 253.799933 
L 201.898534 252.638672 
L 202.9829 247.949432 
L 205.560547 246.670079 
L 201.421099 233.316192 
L 203.539417 232.09318 
L 208.502337 235.296156 
L 210.679408 233.849515 
L 241.256549 271.051603 
L 244.541655 268.55742 
L 230.13309 244.902923 
L 232.601524 242.771415 
L 266.505684 273.745923 
L 269.863022 270.45652 
L 225.059463 222.433714 
L 226.823925 220.472841 
L 272.208148 254.184625 
L 274.947616 250.725595 
L 261.470501 235.618835 
L 263.631529 232.5066 
L 237.906678 211.916101 
L 239.334091 209.556484 
L 231.301265 202.064013 
L 232.422173 199.916956 
L 265.302594 212.48587 
L 266.734376 209.264583 
L 249.586225 198.810011 
L 250.595779 196.089644 
L 248.612636 192.41361 
L 249.421554 189.727017 
L 285.654471 195.905264 
L 286.55486 192.052267 
L 279.084262 186.651309 
L 279.696935 183.00947 
L 305.938111 182.441222 
L 306.405132 177.957121 
L 286.935224 172.338813 
L 287.093999 168.457199 
L 277.979692 164.630067 
L 277.900515 161.033846 
L 268.579058 158.074502 
L 268.298408 154.777099 
L 312.515435 145.564772 
L 311.819728 140.892098 
L 299.007113 138.60754 
L 298.099334 134.363037 
L 288.947366 132.288422 
L 287.845874 128.363344 
L 298.924392 120.387373 
L 297.443772 116.154479 
L 283.101995 117.108345 
L 281.526098 113.374563 
L 299.092422 100.470845 
L 296.9855 96.242515 
L 277.437014 101.752277 
L 275.38109 98.204208 
L 246.289948 112.069512 
L 244.57382 109.495673 
L 277.152447 81.63709 
L 274.464198 78.107914 
L 250.051597 92.801907 
L 247.727793 90.119321 
L 261.335075 72.25901 
L 258.359779 69.231803 
L 221.61635 102.673888 
L 219.617003 100.880487 
L 217.080384 99.741896 
L 214.991092 98.092565 
L 242.139658 55.577987 
L 238.649365 53.162573 
L 231.045749 57.326538 
L 227.61592 55.259077 
L 222.672959 55.984288 
L 219.205066 54.18075 
L 198.105985 90.569536 
L 195.737674 89.521337 
L 204.629603 59.392038 
L 201.277778 58.154137 
L 202.031824 43.93572 
L 198.195303 42.787141 
L 183.651233 84.683146 
L 181.104988 84.092346 
L 184.027187 53.575435 
L 180.502661 52.988195 
L 178.666146 38.123397 
L 174.658426 37.712359 
L 171.856215 15.345768 
L 167.135683 15.160112 
L 162.873289 73.840959 
L 159.996415 73.908824 
L 155.667431 53.528571 
L 152.155454 53.833047 
L 146.724032 39.887711 
L 142.787579 40.480132 
L 148.253777 88.31452 
L 145.839212 88.834898 
L 131.704031 45.206528 
L 127.942239 46.268581 
L 118.417856 30.088713 
L 114.187296 31.575986 
L 123.187454 65.704005 
L 120.074358 67.023703 
L 123.612585 82.186572 
L 121.017527 83.484753 
L 91.98441 37.636785 
L 88.004247 39.951453 
L 81.200616 37.907226 
L 77.234288 40.560826 
L 88.771139 64.184041 
L 85.627269 66.586615 
L 72.738406 57.41865 
L 69.389744 60.328673 
L 99.322804 98.080053 
L 97.239481 100.1341 
L 70.563395 79.496386 
L 67.909981 82.463881 
L 55.290302 77.337343 
L 52.576555 80.786124 
L 47.489086 82.547358 
L 44.94301 86.23885 
L 71.650791 108.138744 
L 69.897417 111.057887 
L 49.434097 103.911517 
L 47.558795 107.531291 
L 27.782606 102.92781 
L 25.887079 107.22884 
L 41.916627 118.444763 
L 40.501999 122.293718 
L 39.93648 126.414279 
L 38.77341 130.321553 
L 76.231804 143.772137 
L 75.596557 146.529625 
L 51.786661 145.090829 
L 51.204964 148.616273 
L 32.55588 150.033499 
L 32.139099 154.161158 
L 18.906716 157.607141 
L 18.734816 162.160215 
L 14.893355 166.752414 
L 15.010986 171.427154 
L 36.57237 174.552816 
L 36.924545 178.542064 
L 24.556211 184.265984 
L 25.21973 188.628244 
L 62.656274 185.612698 
L 63.343299 188.776342 
L 84.758876 186.406564 
L 85.459933 188.874862 
L 30.571947 210.008866 
L 32.041905 214.16925 
L 52.710812 210.514185 
L 54.185711 213.978225 
L 68.817554 211.095779 
L 70.302777 214.0531 
L 93.146911 204.994086 
L 94.428254 207.189456 
L 47.156102 240.886277 
L 49.588713 244.509952 
L 47.847185 251.236343 
L 50.604883 254.833171 
L 86.10199 230.788327 
L 88.197843 233.192451 
L 54.581852 269.827974 
L 57.920782 273.203857 
L 106.2828 227.646062 
L 108.269875 229.417211 
L 74.310933 275.567907 
L 77.820584 278.320628 
L 114.993028 233.722273 
L 117.166846 235.216548 
L 111.34909 249.603958 
L 114.024065 251.204955 
L 114.946339 256.081497 
L 117.823203 257.566186 
L 120.745327 258.959686 
L 123.709821 260.260618 
L 135.728614 237.972141 
L 138.025806 238.812343 
L 131.232809 268.689858 
L 134.498055 269.65623 
L 129.252418 305.32923 
L 133.670666 306.339755 
L 139.870698 297.453202 
L 144.036056 298.133759 
L 146.997982 309.289085 
L 151.531963 309.739692 
L 156.671148 298.623992 
L 160.865012 298.775727 
L 164.910492 285.069647 
L 168.674104 284.969021 
L 174.853827 317.452182 
L 179.6307 317.022905 
L 183.143776 307.377997 
L 187.599796 306.693046 
L 193.090988 311.100411 
L 197.659131 310.100857 
L 197.046806 289.810345 
L 200.943587 288.696939 
L 206.022685 291.074342 
L 209.95477 289.67809 
L 199.690632 253.574642 
L 202.446776 252.396024 
L 203.501628 247.700057 
L 206.071177 246.404517 
L 201.847823 233.076929 
L 203.958407 231.840618 
L 208.941374 235.012316 
L 211.109303 233.552012 
L 241.919819 270.561051 
L 245.189173 268.046256 
L 230.63212 244.482849 
L 233.087099 242.335858 
L 267.185401 273.096515 
L 270.521983 269.786062 
L 225.417275 222.045994 
L 227.169369 220.074062 
L 272.764722 253.499738 
L 275.482381 250.023547 
L 261.91052 235.001849 
L 264.051931 231.876084 
L 238.198086 211.447787 
L 239.61063 209.079239 
L 231.530839 201.637439 
L 232.638221 199.483374 
L 265.597044 211.84524 
L 267.008537 208.615012 
L 249.794972 198.268499 
L 250.787396 195.541836 
L 248.781172 191.878348 
L 249.573178 189.18672 
L 285.844235 195.13696 
L 286.720373 191.278377 
L 279.215954 185.924511 
L 279.805709 182.278891 
L 306.042793 181.545612 
L 306.481602 177.058662 
L 286.976743 171.56292 
L 287.111102 167.680384 
L 277.972905 163.910652 
L 277.871111 160.315 
L 268.531226 157.414342 
L 268.229842 154.118769 
L 312.388054 144.628524 
L 311.662973 139.960318 
L 298.836243 137.756389 
L 297.901787 133.517679 
L 288.736951 131.500666 
L 287.610794 127.582593 
L 298.638929 119.537102 
L 297.131716 115.313605 
L 282.796222 116.357653 
L 281.196873 112.633857 
L 298.681692 99.619912 
L 296.548218 95.404917 
L 277.034772 101.037519 
L 274.956573 97.502451 
L 245.953211 111.550447 
L 244.220929 108.987453 
L 276.623697 80.92452 
L 273.913305 77.41232 
L 249.593603 92.259565 
L 247.252974 89.591647 
L 260.747655 71.646107 
L 257.753379 68.637673 
L 221.221008 102.310192 
L 219.210421 100.529401 
L 216.666692 99.406786 
L 214.567067 97.770628 
L 241.447704 55.086142 
L 237.942289 52.692728 
L 230.365012 56.904433 
L 226.922247 54.858585 
L 221.983945 55.61487 
L 218.504777 53.833179 
L 197.634979 90.353946 
L 195.260122 89.320663 
L 203.962379 59.136035 
L 200.602834 57.919239 
L 201.267439 43.696362 
L 197.423771 42.571935 
L 183.14349 84.558584 
L 180.59358 83.983811 
L 183.323787 53.449124 
L 179.795638 52.884063 
L 177.865668 38.03111 
L 173.855442 37.645287 
L 170.912613 15.296762 
L 166.191007 15.140799 
L 162.297766 73.847294 
L 159.421376 73.933251 
L 154.964297 53.580628 
L 151.454305 53.907187 
L 145.935282 39.996287 
L 142.002633 40.613454 
L 147.769574 88.412517 
L 145.358329 88.948071 
L 130.949031 45.409466 
L 127.193993 46.495157 
L 117.568036 30.375512 
L 113.346913 31.889364 
L 122.561539 65.960103 
L 119.456805 67.299354 
L 123.090328 82.439669 
L 120.503486 83.754146 
L 91.182586 38.089687 
L 87.21706 40.429342 
L 80.400705 38.427946 
L 76.451146 41.106439 
L 88.136345 64.656628 
L 85.007648 67.078927 
L 72.061379 57.992207 
L 68.731086 60.923233 
L 98.900988 98.485605 
L 96.830626 100.552714 
L 70.025268 80.083186 
L 67.39057 83.06731 
L 54.738898 78.020245 
L 52.046895 81.486026 
L 46.970603 83.279221 
L 44.447795 86.986654 
L 71.292786 108.718138 
L 69.557807 111.648251 
L 49.049945 104.630725 
L 47.197446 108.262223 
L 27.392695 103.783213 
L 25.524256 108.096081 
L 41.624029 119.210965 
L 40.233637 123.06874 
L 39.694045 127.192777 
L 38.555573 131.107288 
L 76.097822 144.322015 
L 75.479931 147.083443 
L 51.661457 145.794426 
L 51.101944 149.323459 
L 32.462142 150.85795 
L 32.071331 154.988148 
L 18.860883 158.517288 
L 18.717622 163.071352 
L 14.90512 167.687621 
L 15.05215 172.361529 
L 36.632766 175.35152 
L 37.010024 179.338474 
L 24.677935 185.14007 
L 25.368876 189.498071 
L 62.785715 186.24713 
L 63.492623 189.406391 
L 84.892872 186.901968 
L 85.60944 189.365808 
L 30.85546 210.844608 
L 32.351555 214.995665 
L 52.997065 211.210676 
L 54.493722 214.665371 
L 69.107147 211.690956 
L 70.61094 214.638877 
L 93.397647 205.436366 
L 94.692772 207.623633 
L 47.633488 241.617103 
L 50.088842 245.225407 
L 48.389654 251.962618 
L 51.16992 255.542031 
L 86.515096 231.274406 
L 88.626028 233.665301 
L 55.241119 270.511524 
L 58.601215 273.866341 
L 106.675743 228.005277 
L 108.673919 229.763893 
L 75.00591 276.127259 
L 78.532805 278.857851 
L 115.424015 234.026585 
L 117.607189 235.507159 
L 111.880036 249.930875 
L 114.565028 251.515016 
L 115.517954 256.385661 
L 118.404099 257.852226 
L 121.33493 259.22732 
L 124.307547 260.509582 
L 136.185921 238.145954 
L 138.488351 238.971691 
L 131.883401 268.89134 
L 135.154661 269.837156 
L 130.13349 305.542443 
L 134.558006 306.525159 
L 140.702024 297.599787 
L 144.871581 298.254133 
L 147.903609 309.39061 
L 152.440334 309.812692 
L 157.509506 298.664889 
L 161.704241 298.790244 
L 165.663438 285.058991 
L 169.426342 284.934696 
L 175.810244 317.378348 
L 180.584323 316.919035 
L 184.036668 307.252222 
L 188.488292 306.53926 
L 194.007095 310.912001 
L 198.568861 309.883736 
L 197.828933 289.597476 
L 201.718634 288.459584 
L 206.812583 290.804995 
L 210.73581 289.38404 
L 200.244805 253.345862 
L 202.993481 252.149933 
L 204.018777 247.447424 
L 206.580127 246.135749 
L 202.273034 232.834986 
L 204.3758 231.585426 
L 209.378616 234.725721 
L 211.537318 233.251811 
L 242.579991 270.066337 
L 245.833464 267.531029 
L 231.128498 244.059644 
L 233.569925 241.897255 
L 267.861019 272.442845 
L 271.176715 269.111472 
L 225.772641 221.656031 
L 227.512298 219.673119 
L 273.316978 252.811365 
L 276.012719 249.31815 
L 262.346649 234.382108 
L 264.468358 231.242937 
L 238.486543 210.97765 
L 239.884162 208.600265 
L 231.757726 201.209429 
L 232.851538 199.048442 
L 265.887458 211.202771 
L 267.278607 207.963729 
L 250.000309 197.725685 
L 250.975564 194.992833 
L 248.946339 191.342036 
L 249.721399 188.64548 
L 286.029163 194.367478 
L 286.881015 190.503461 
L 279.343072 185.1969 
L 279.909887 181.547643 
L 306.14184 180.649362 
L 306.55242 176.159741 
L 287.013382 170.786782 
L 287.123319 166.903478 
L 277.961593 163.191294 
L 277.837186 159.596354 
L 268.479243 156.754495 
L 268.157138 153.460883 
L 312.254788 143.693095 
L 311.50036 139.029542 
L 298.660023 136.90633 
L 297.698926 132.673581 
L 288.521586 130.714249 
L 287.370809 126.803337 
L 298.348124 118.688644 
L 296.814377 114.47471 
L 282.485733 115.6089 
L 280.862995 111.895237 
L 298.265618 98.771579 
L 296.105676 94.570086 
L 276.628042 100.325305 
L 274.527651 96.803377 
L 245.613217 111.03351 
L 243.864849 108.481462 
L 276.090476 80.215289 
L 273.358048 76.720206 
L 249.132208 91.720114 
L 246.774845 89.066969 
L 260.156393 71.036911 
L 257.143254 68.047369 
L 220.823387 101.948989 
L 218.801639 100.180879 
L 216.2509 99.074285 
L 214.141026 97.451365 
L 240.75267 54.598659 
L 237.232271 52.22734 
L 229.681633 56.486618 
L 226.226069 54.462463 
L 221.292621 55.249793 
L 217.802317 53.490018 
L 197.162626 90.141323 
L 194.781318 89.122997 
L 203.293557 58.884233 
L 199.926427 57.688591 
L 200.501565 43.461815 
L 196.6509 42.361585 
L 182.634975 84.437219 
L 180.0815 83.878495 
L 182.619607 53.32724 
L 179.087973 52.784381 
L 177.064625 37.943859 
L 173.052051 37.583266 
L 169.968722 15.253692 
L 165.246228 15.127428 
L 161.722295 73.857248 
L 158.846502 73.961295 
L 154.261505 53.637107 
L 150.753636 53.985735 
L 145.147231 40.109822 
L 141.218541 40.751711 
L 147.285996 88.513557 
L 144.878168 89.064267 
L 130.195322 45.617149 
L 126.447186 46.726436 
L 116.720036 30.667651 
L 112.508519 32.208022 
L 121.937248 66.220131 
L 118.840998 67.578883 
L 122.569673 82.696046 
L 119.99115 84.026767 
L 90.383626 38.547623 
L 86.432893 40.912172 
L 79.604086 38.953687 
L 75.671451 41.656968 
L 87.504536 65.133197 
L 84.391136 67.575126 
L 71.387973 58.57001 
L 68.07618 61.521925 
L 98.481732 98.893802 
L 96.424411 100.973892 
L 69.490841 80.673359 
L 66.874964 83.673995 
L 54.191799 78.706601 
L 51.521647 82.189244 
L 46.456735 84.014332 
L 43.957294 87.737558 
L 70.938432 109.299773 
L 69.221917 112.24074 
L 48.670324 105.352336 
L 46.840702 108.995412 
L 27.008171 104.641052 
L 25.166896 108.965585 
L 41.336256 119.978991 
L 39.970155 123.845435 
L 39.456511 127.972784 
L 38.342682 131.894379 
L 75.967301 144.872724 
L 75.366791 147.637984 
L 51.540681 146.498797 
L 51.003375 150.03128 
L 32.373592 151.682974 
L 32.008765 155.815548 
L 18.820775 159.427704 
L 18.706159 163.982579 
L 14.922766 168.622735 
L 15.09919 173.295626 
L 36.698184 176.149828 
L 37.10051 180.134331 
L 24.805154 186.013374 
L 25.523491 190.366943 
L 62.919143 186.880736 
L 63.645907 190.035488 
L 85.029981 187.396519 
L 85.762031 189.855803 
L 31.144224 211.678551 
L 32.666397 215.820116 
L 53.287693 211.905353 
L 54.806049 215.350567 
L 69.400477 212.2843 
L 70.922781 215.222705 
L 93.651159 205.877061 
L 94.960015 208.056139 
L 48.115462 242.344913 
L 50.593461 245.937702 
L 48.93668 252.685467 
L 51.739403 256.247323 
L 86.93125 231.757877 
L 89.057179 234.135447 
L 55.904671 271.190914 
L 59.285801 274.524532 
L 107.070938 228.362013 
L 109.080135 230.108027 
L 75.704392 276.682229 
L 79.248391 279.390585 
L 115.856908 234.328181 
L 118.04935 235.794994 
L 112.413028 250.254446 
L 115.10793 251.821668 
L 116.09147 256.686223 
L 118.986783 258.134608 
L 121.926204 259.491241 
L 124.906827 260.754781 
L 136.644311 238.316887 
L 138.951889 239.128128 
L 132.535247 269.088725 
L 135.812391 270.013949 
L 131.015886 305.75011 
L 135.446495 306.704979 
L 141.534256 297.741141 
L 145.707846 298.369249 
L 148.809856 309.486436 
L 153.349146 309.879977 
L 158.348104 298.700512 
L 162.543545 298.799482 
L 166.416302 285.0436 
L 170.17835 284.895641 
L 176.766178 317.2985 
L 181.537273 316.80917 
L 184.928751 307.120835 
L 189.375803 306.379888 
L 194.921999 310.717832 
L 199.477208 309.660897 
L 198.609705 289.379693 
L 202.492172 288.217358 
L 207.600772 290.530685 
L 211.514984 289.085083 
L 200.797527 253.113601 
L 203.538627 251.900407 
L 204.534327 247.191543 
L 207.087377 245.863784 
L 202.696714 232.590374 
L 204.79158 231.327614 
L 209.814048 234.436382 
L 211.963437 232.948924 
L 243.237038 269.567481 
L 246.474501 267.011761 
L 231.622204 243.633325 
L 234.049983 241.455624 
L 268.532513 271.784938 
L 271.827191 268.432777 
L 226.125547 221.263841 
L 227.852698 219.270027 
L 273.864893 252.119531 
L 276.538611 248.609431 
L 262.778871 233.759637 
L 264.880795 230.607183 
L 238.772036 210.505708 
L 240.154675 208.11958 
L 231.981916 200.780001 
L 233.062115 198.612177 
L 266.173826 210.558488 
L 267.544576 207.310761 
L 250.202228 197.18159 
L 251.160276 194.442659 
L 249.108129 190.804696 
L 249.866214 188.103319 
L 286.209248 193.596849 
L 287.036781 189.72755 
L 279.465611 184.468503 
L 280.009464 180.815753 
L 306.235248 179.752506 
L 306.617583 175.260392 
L 287.045138 170.010428 
L 287.130649 166.126509 
L 277.945757 162.472022 
L 277.798743 158.877935 
L 268.42311 156.094988 
L 268.080297 152.803467 
L 312.115641 142.758523 
L 311.331897 138.099807 
L 298.47846 136.057395 
L 297.490761 131.830775 
L 288.301278 129.929203 
L 287.125927 126.025605 
L 298.051988 117.842032 
L 296.491768 113.637828 
L 282.170541 114.862114 
L 280.524479 111.15873 
L 297.844217 97.925879 
L 295.657893 93.738054 
L 276.216841 99.615663 
L 274.094341 96.107015 
L 245.269977 110.518722 
L 243.505594 107.97772 
L 275.552805 79.509425 
L 272.798449 76.031597 
L 248.667429 91.183575 
L 246.293426 88.54531 
L 259.56131 70.431446 
L 256.529428 67.460913 
L 220.423501 101.590295 
L 218.390673 99.834935 
L 215.833025 98.744406 
L 213.712985 97.134788 
L 240.054584 54.115558 
L 236.51934 51.766427 
L 228.99564 56.07311 
L 225.527413 54.070728 
L 220.599015 54.889071 
L 217.097712 53.151283 
L 196.688945 89.931675 
L 194.301279 88.928346 
L 202.623166 58.636643 
L 199.248582 57.462202 
L 199.73423 43.23209 
L 195.876722 42.1561 
L 182.125705 84.319055 
L 179.568767 83.776401 
L 181.914674 53.209788 
L 178.379696 52.689151 
L 176.263049 37.861648 
L 172.248287 37.526299 
L 169.024578 15.216559 
L 164.301383 15.12 
L 161.146897 73.870822 
L 158.271816 73.992953 
L 153.559082 53.698004 
L 150.053475 54.068688 
L 144.359909 40.228311 
L 140.435334 40.894896 
L 146.803064 88.617637 
L 144.398747 89.183479 
L 129.442933 45.829568 
L 125.701849 46.962406 
L 115.873891 30.965118 
L 111.672144 32.531946 
L 121.314604 66.484081 
L 118.226962 67.86228 
L 122.050641 82.955693 
L 119.480538 84.302605 
L 89.587562 39.010575 
L 85.651779 41.399925 
L 78.810789 39.484428 
L 74.895234 42.212389 
L 86.875737 65.613731 
L 83.777757 68.075193 
L 70.718214 59.152038 
L 67.425052 62.124723 
L 98.065051 99.304628 
L 96.020854 101.397616 
L 68.960138 81.266881 
L 66.363185 84.28391 
L 53.649028 79.396384 
L 51.000833 82.895753 
L 45.947499 84.752659 
L 43.471525 88.491533 
L 70.587744 109.883625 
L 68.889759 112.835329 
L 48.295248 106.076319 
L 46.488576 109.730831 
L 26.629051 105.501292 
L 24.81501 109.837321 
L 41.05332 120.748813 
L 39.711563 124.623772 
L 39.223888 128.75427 
L 38.134745 132.682792 
L 75.840247 145.424243 
L 75.25714 148.193225 
L 51.424337 147.203914 
L 50.909258 150.739706 
L 32.290233 152.508538 
L 31.951404 156.643325 
L 18.786393 160.338355 
L 18.700428 164.893861 
L 14.946293 169.55772 
L 15.152103 174.229409 
L 36.768622 176.947709 
L 37.196 180.929603 
L 24.937863 186.885861 
L 25.683567 191.234825 
L 63.056553 187.51349 
L 63.803145 190.663609 
L 85.170198 187.890198 
L 85.917701 190.34483 
L 31.438227 212.51066 
L 32.986418 216.64257 
L 53.582685 212.598189 
L 55.122679 216.033785 
L 69.697533 212.875788 
L 71.238288 215.80456 
L 93.907437 206.316152 
L 95.229973 208.486955 
L 48.602003 243.069676 
L 51.10255 246.64681 
L 49.488242 253.404861 
L 52.313311 256.949019 
L 87.350438 232.238721 
L 89.491277 234.602873 
L 56.572484 271.866118 
L 59.974513 275.178404 
L 107.468369 228.716257 
L 109.488508 230.449599 
L 76.40635 277.232795 
L 79.967313 279.918808 
L 116.291688 234.627048 
L 118.493313 236.080043 
L 112.948044 250.574658 
L 115.65275 252.1249 
L 116.666866 256.983173 
L 119.571231 258.413319 
L 122.519126 259.751438 
L 125.507637 260.996207 
L 137.103768 238.484934 
L 139.416402 239.281645 
L 133.188323 269.282008 
L 136.471221 270.186602 
L 131.899571 305.952222 
L 136.336098 306.879207 
L 142.367361 297.877258 
L 146.544818 298.479104 
L 149.716688 309.576561 
L 154.258363 309.941545 
L 159.18691 298.73086 
L 163.382891 298.803441 
L 167.169054 285.023474 
L 170.930097 284.851856 
L 177.72159 317.212641 
L 182.489514 316.693313 
L 185.81999 306.983839 
L 190.262294 306.214938 
L 195.835664 310.517914 
L 200.384135 309.43235 
L 199.389092 289.157003 
L 203.264172 287.970273 
L 208.387221 290.251424 
L 212.292263 288.781232 
L 201.348777 252.877868 
L 204.082193 251.647458 
L 205.048257 246.932425 
L 207.592906 245.588635 
L 203.118847 232.343102 
L 205.20573 231.067191 
L 210.247651 234.144309 
L 212.387642 232.643362 
L 243.890935 269.064502 
L 247.11226 266.488471 
L 232.113219 243.20391 
L 234.527254 241.010982 
L 269.199856 271.122821 
L 272.473386 267.750005 
L 226.47598 220.869439 
L 228.190557 218.864801 
L 274.408446 251.424266 
L 277.060035 247.897419 
L 263.207171 233.134459 
L 265.289226 229.968848 
L 239.054556 210.03198 
L 240.422161 207.637202 
L 232.203402 200.349171 
L 233.269944 198.174596 
L 266.456136 209.912417 
L 267.806432 206.656133 
L 250.40072 196.636235 
L 251.341523 193.891333 
L 249.266536 190.266349 
L 250.007617 187.560257 
L 286.384482 192.825101 
L 287.187663 188.950675 
L 279.583567 183.73935 
L 280.104435 180.083252 
L 306.323013 178.855081 
L 306.677088 174.36065 
L 287.072011 169.23389 
L 277.981954 165.349511 
z
" clip-path="url(#p1b7e473f79)" style="fill: #0000ff; opacity: 0.5; stroke: #000000; stroke-width: 1.5; stroke-linejoin: miter"/>
   </g>
  </g>
 </g>
 <defs>
  <clipPath id="p1b7e473f79">
   <rect x="0" y="-0" width="327.524397" height="332.64"/>
  </clipPath>
 </defs>
</svg>
