<?xml version="1.0" encoding="utf-8" standalone="no"?>
<!DOCTYPE svg PUBLIC "-//W3C//DTD SVG 1.1//EN"
  "http://www.w3.org/Graphics/SVG/1.1/DTD/svg11.dtd">
<svg xmlns:xlink="http://www.w3.org/1999/xlink" width="324.994941pt" height="332.64pt" viewBox="0 0 324.994941 332.64" xmlns="http://www.w3.org/2000/svg" version="1.1">
 <metadata>
  <rdf:RDF xmlns:dc="http://purl.org/dc/elements/1.1/" xmlns:cc="http://creativecommons.org/ns#" xmlns:rdf="http://www.w3.org/1999/02/22-rdf-syntax-ns#">
   <cc:Work>
    <dc:type rdf:resource="http://purl.org/dc/dcmitype/StillImage"/>
    <dc:date>2023-12-09T18:06:20.669306</dc:date>
    <dc:format>image/svg+xml</dc:format>
    <dc:creator>
     <cc:Agent>
      <dc:title>Matplotlib v3.8.2, https://matplotlib.org/</dc:title>
     </cc:Agent>
    </dc:creator>
   </cc:Work>
  </rdf:RDF>
 </metadata>
 <defs>
  <style type="text/css">*{stroke-linejoin: round; stroke-linecap: butt}</style>
 </defs>
 <g id="figure_1">
  <g id="patch_1">
   <path d="M 0 332.64 
L 324.994941 332.64 
L 324.994941 0 
L 0 0 
L 0 332.64 
z
" style="fill: none"/>
  </g>
  <g id="axes_1">
   <g id="patch_2">
    <path d="M 302.703736 167.5838 
L 302.635904 163.270207 
L 244.863843 162.586425 
L 244.667481 160.093915 
L 286.153039 152.327936 
L 285.613713 148.542275 
L 310.222444 139.950599 
L 309.282047 135.414264 
L 288.570583 135.954848 
L 287.515256 132.10127 
L 278.185329 130.934995 
L 276.977302 127.410434 
L 257.54284 131.106224 
L 256.350402 128.230623 
L 269.171393 118.749865 
L 267.584695 115.514746 
L 262.482621 114.210459 
L 260.756502 111.187895 
L 293.805616 86.064596 
L 291.179042 82.071085 
L 238.631576 114.389372 
L 236.922875 112.116649 
L 281.364188 71.607851 
L 278.289213 68.012673 
L 233.083664 104.034197 
L 231.052116 101.941031 
L 236.952811 91.382816 
L 234.521563 89.174252 
L 217.628207 104.473646 
L 215.618118 102.866217 
L 218.134292 95.012211 
L 215.826464 93.393548 
L 227.647298 69.456867 
L 224.531252 67.551729 
L 228.852731 52.075938 
L 225.189594 50.141493 
L 227.09605 36.32655 
L 222.938586 34.455125 
L 210.427864 53.743222 
L 206.826259 52.38727 
L 191.186565 88.227578 
L 188.678738 87.459564 
L 192.126518 63.357664 
L 188.836261 62.572393 
L 185.812947 60.359183 
L 182.431533 59.773906 
L 177.971031 67.803626 
L 174.827564 67.461236 
L 172.678068 50.87921 
L 169.005077 50.71161 
L 165.328632 50.65958 
L 161.65237 50.723171 
L 155.66994 15.12 
L 150.881011 15.504853 
L 149.670904 43.87465 
L 145.78905 44.433909 
L 150.771367 91.040766 
L 148.371975 91.542104 
L 140.327877 70.233739 
L 137.27943 71.07373 
L 118.510973 23.85139 
L 114.01495 25.400286 
L 126.583331 69.817343 
L 123.528587 71.0897 
L 107.182879 44.271896 
L 103.334522 46.166876 
L 110.102023 67.28622 
L 106.975844 69.078036 
L 100.5549 65.709217 
L 97.383857 67.801995 
L 80.95285 51.734603 
L 77.352106 54.450622 
L 86.294238 72.265645 
L 83.336394 74.803568 
L 66.551827 62.691636 
L 63.302716 65.855037 
L 104.006303 110.101666 
L 102.229349 112.063976 
L 76.441822 94.265404 
L 74.18057 97.102231 
L 47.370368 82.201817 
L 44.744185 85.958679 
L 65.310295 104.355422 
L 63.371799 107.537261 
L 47.852966 103.304091 
L 45.890046 107.035346 
L 59.5819 118.086132 
L 58.077959 121.441295 
L 75.544509 132.25065 
L 74.47804 135.096909 
L 62.371241 134.39362 
L 61.378665 137.653017 
L 27.244239 132.508638 
L 26.209763 136.873437 
L 42.933732 144.575978 
L 42.270922 148.441498 
L 16.19984 149.179015 
L 15.694977 153.882831 
L 65.915072 161.625762 
L 65.776982 164.760269 
L 40.793775 167.976009 
L 40.867771 171.897245 
L 67.510108 174.065252 
L 67.762354 177.143456 
L 14.772497 187.127765 
L 15.461532 191.857697 
L 28.542108 194.185794 
L 29.446255 198.47929 
L 77.254263 190.564453 
L 78.020463 193.328122 
L 72.208618 198.257298 
L 73.219192 201.17581 
L 62.017422 208.982646 
L 63.370263 212.216288 
L 85.947543 205.37321 
L 87.175064 207.856221 
L 87.116644 211.055438 
L 88.522248 213.498881 
L 44.042292 245.304908 
L 46.546072 249.085769 
L 92.561029 221.007905 
L 94.276869 223.275245 
L 78.102117 240.462611 
L 80.436805 243.174951 
L 59.077619 268.316701 
L 62.297507 271.613441 
L 94.843481 243.43873 
L 97.263467 245.623214 
L 82.939721 268.219164 
L 86.144744 270.765676 
L 89.883844 272.577662 
L 93.222474 274.903681 
L 107.006066 260.626621 
L 109.960463 262.420188 
L 111.479221 266.85859 
L 114.627353 268.50843 
L 118.483551 268.645026 
L 121.68439 270.073751 
L 121.806729 279.387077 
L 125.343678 280.706003 
L 120.841566 307.154593 
L 125.252064 308.490137 
L 139.226338 271.893115 
L 142.519048 272.668035 
L 141.699267 295.56297 
L 145.734986 296.248434 
L 156.003834 245.736551 
L 158.465829 245.996883 
L 157.762137 300.652065 
L 161.949927 300.82996 
L 166.005192 272.035071 
L 169.289125 271.967936 
L 172.569324 271.797579 
L 175.842544 271.52417 
L 185.191999 317.52 
L 189.896591 316.8271 
L 187.385832 279.268397 
L 190.886626 278.525431 
L 199.499972 297.277642 
L 203.561026 296.144877 
L 211.987337 308.2072 
L 216.385867 306.676401 
L 200.679926 255.101354 
L 203.414282 253.952342 
L 222.887472 287.897312 
L 226.642024 286.033831 
L 214.793617 256.127803 
L 217.553268 254.534517 
L 241.739904 286.307896 
L 245.435161 283.852438 
L 218.128144 239.194826 
L 220.353737 237.505067 
L 263.534177 284.775238 
L 267.170468 281.635278 
L 233.137036 238.811561 
L 235.343158 236.650079 
L 224.343257 222.219988 
L 226.032051 220.343206 
L 248.779428 235.686736 
L 250.879564 233.034968 
L 255.428119 232.136876 
L 257.413353 229.277814 
L 242.794465 216.010221 
L 244.278887 213.556362 
L 251.85257 214.401139 
L 253.281921 211.66327 
L 235.529052 200.032238 
L 236.514684 197.814721 
L 279.563662 211.961687 
L 280.90261 208.353727 
L 273.214207 201.868127 
L 274.238931 198.464798 
L 258.52055 190.866539 
L 259.206625 187.93065 
L 298.128329 192.044088 
L 298.831845 187.862261 
L 291.664161 182.7311 
L 292.078052 178.757126 
L 252.676177 172.523002 
L 252.78838 169.779942 
L 302.701022 166.720945 
L 302.606062 162.407863 
L 244.830843 162.087449 
L 244.618808 159.596223 
L 286.054702 151.569477 
L 285.491578 147.787283 
L 310.045784 139.041002 
L 309.076875 134.510671 
L 288.369221 135.181508 
L 287.289678 131.334643 
L 277.952601 130.227072 
L 276.72243 126.710178 
L 257.311596 130.528127 
L 256.101097 127.660083 
L 268.862205 118.098875 
L 267.255191 114.8738 
L 262.145015 113.601628 
L 260.399919 110.58998 
L 293.290369 85.259318 
L 290.638729 81.282404 
L 238.295567 113.930547 
L 236.572605 111.668615 
L 280.758262 70.881108 
L 277.660737 67.30534 
L 232.682636 103.610469 
L 230.637964 101.530123 
L 236.472137 90.935004 
L 234.027046 88.741775 
L 217.230249 104.147116 
L 215.21009 102.552361 
L 217.676817 94.682685 
L 215.358855 93.078569 
L 227.028907 69.068015 
L 223.900939 67.182513 
L 228.124999 51.679849 
L 224.449768 49.76848 
L 226.269298 35.94182 
L 222.100146 34.09658 
L 209.710982 53.462981 
L 206.100921 52.129708 
L 190.686952 88.067672 
L 188.174343 87.315446 
L 191.470468 63.192339 
L 188.175337 62.427777 
L 185.138163 60.233625 
L 181.753135 59.669627 
L 177.343224 67.727242 
L 174.197666 67.404629 
L 171.94392 50.83645 
L 168.269948 50.691955 
L 164.593249 50.663049 
L 160.917459 50.74976 
L 154.711224 15.18492 
L 149.92481 15.599885 
L 148.893157 43.976731 
L 145.014897 44.560394 
L 150.290247 91.134993 
L 147.894055 91.651412 
L 139.716099 70.394061 
L 136.672995 71.253209 
L 117.607908 24.149846 
L 113.121715 25.726988 
L 125.969206 70.064119 
L 122.922524 71.355663 
L 106.408471 44.641196 
L 102.572108 46.560341 
L 109.472304 67.636704 
L 106.357457 69.448147 
L 99.915451 66.119778 
L 96.757633 68.232459 
L 80.225896 52.268726 
L 76.642306 55.007338 
L 85.696308 72.765768 
L 82.754485 75.322244 
L 65.894072 63.316117 
L 62.664922 66.49989 
L 103.64599 110.489642 
L 101.881413 112.463089 
L 75.982453 94.827058 
L 73.739088 97.678051 
L 46.835701 82.946553 
L 44.233197 86.719858 
L 64.914606 104.986888 
L 62.99616 108.180855 
L 47.451011 104.045374 
L 45.511596 107.788901 
L 59.272682 118.753355 
L 57.789874 122.11791 
L 75.324063 132.817196 
L 74.275516 135.670107 
L 62.164534 135.042976 
L 61.192477 138.308551 
L 27.026371 133.378961 
L 26.019367 137.750179 
L 42.79145 145.347384 
L 42.152965 149.216996 
L 16.087037 150.118471 
L 15.611769 154.82537 
L 65.879569 162.252291 
L 65.761196 165.387604 
L 40.798708 168.760411 
L 40.897365 172.681104 
L 67.552811 174.681503 
L 67.824412 177.75806 
L 14.898399 188.075447 
L 15.617169 192.800952 
L 28.712129 195.046734 
L 29.643261 199.334458 
L 77.400544 191.119092 
L 78.184111 193.877888 
L 72.403382 198.84352 
L 73.432292 201.755618 
L 62.279844 209.632752 
L 63.652997 212.857822 
L 86.186791 205.87288 
L 87.429904 208.348123 
L 87.391606 211.547644 
L 88.812551 213.982198 
L 44.533516 246.067349 
L 47.061026 249.832388 
L 92.898479 221.465672 
L 94.628546 223.722175 
L 78.562213 241.010931 
L 80.913913 243.708534 
L 59.713277 268.984123 
L 62.953836 272.260547 
L 95.321964 243.881698 
L 97.755641 246.050918 
L 83.574294 268.73651 
L 86.795269 271.262813 
L 90.545691 273.051247 
L 93.898885 275.356221 
L 107.59241 260.992753 
L 110.558029 262.767703 
L 112.104672 267.196465 
L 115.263118 268.826472 
L 119.120099 268.938812 
L 122.32986 270.347378 
L 122.510772 279.65975 
L 126.055947 280.956404 
L 121.720271 307.432788 
L 126.139081 308.740565 
L 139.882905 272.056377 
L 143.180423 272.810573 
L 142.504654 295.710211 
L 146.544605 296.370278 
L 156.495558 245.79481 
L 158.959142 246.039652 
L 158.599214 300.698178 
L 162.78804 300.849731 
L 166.662122 272.029906 
L 169.945568 271.942118 
L 173.22463 271.751134 
L 176.496066 271.457144 
L 186.134623 317.393261 
L 190.834765 316.670786 
L 188.087832 279.128617 
L 191.583884 278.363647 
L 200.315001 297.061315 
L 204.36885 295.90303 
L 212.870859 307.912118 
L 217.259674 306.353685 
L 201.229666 254.87844 
L 203.956742 253.712253 
L 223.643041 287.534077 
L 227.385799 285.647018 
L 215.349533 255.816101 
L 218.099109 254.20549 
L 242.485103 285.82612 
L 246.164844 283.34747 
L 218.577496 238.862487 
L 220.792418 237.158764 
L 264.269306 284.156419 
L 267.885776 280.993652 
L 233.583681 238.384832 
L 235.776164 236.209518 
L 224.685724 221.848895 
L 226.362681 219.961528 
L 249.20611 235.161687 
L 251.289527 232.496763 
L 255.832343 231.570081 
L 257.799555 228.69859 
L 243.097511 215.523203 
L 244.566471 213.060057 
L 252.145317 213.857183 
L 253.55742 211.110378 
L 235.731749 199.591232 
L 236.703415 197.367559 
L 279.840518 211.243492 
L 281.156748 207.627182 
L 273.427706 201.190066 
L 274.431005 197.780359 
L 258.665146 190.28111 
L 259.332742 187.340964 
L 298.279548 191.209526 
L 298.956748 187.023357 
L 291.756934 181.937378 
L 292.145823 177.960879 
L 252.705518 171.974694 
L 252.800466 169.230983 
L 302.692882 165.858124 
L 302.570797 161.545725 
L 244.794705 161.58869 
L 244.567006 159.098847 
L 285.951597 150.811651 
L 285.364696 147.033074 
L 309.863408 138.132534 
L 308.866024 133.608386 
L 288.162999 134.40945 
L 287.059282 130.569451 
L 277.715424 129.520626 
L 276.463158 126.011539 
L 257.076721 129.951495 
L 255.848207 127.091121 
L 268.548929 117.449842 
L 266.921663 114.234938 
L 261.803587 112.994932 
L 260.039584 109.994319 
L 292.770067 84.457295 
L 290.093468 80.497138 
L 237.956679 113.473844 
L 236.219525 111.222793 
L 280.147777 70.15819 
L 277.027824 66.601975 
L 232.278952 103.189272 
L 230.221236 101.121827 
L 235.988656 90.490224 
L 233.529819 88.312416 
L 216.830246 103.823096 
L 214.800097 102.241078 
L 217.217278 94.356043 
L 214.889273 92.766537 
L 226.408082 68.68306 
L 223.268317 66.817268 
L 227.394791 51.288344 
L 223.70761 49.400128 
L 225.440143 35.562298 
L 221.259468 33.743316 
L 208.992353 53.187255 
L 205.373977 51.876713 
L 190.186342 87.910911 
L 187.669053 87.174504 
L 190.813391 63.031142 
L 187.513517 62.28732 
L 184.462603 60.112314 
L 181.074095 59.569617 
L 176.714949 67.654808 
L 173.567424 67.351986 
L 171.209519 50.798309 
L 167.53471 50.676924 
L 163.857902 50.671143 
L 160.18273 50.780971 
L 153.752935 15.255868 
L 148.969225 15.700929 
L 148.116067 44.083702 
L 144.241555 44.691745 
L 149.809728 91.232245 
L 147.416832 91.763724 
L 139.10534 70.558228 
L 136.0677 71.436498 
L 116.706737 24.453976 
L 112.230553 26.059302 
L 125.356644 70.314753 
L 122.318146 71.625433 
L 105.6364 45.015358 
L 101.812184 46.958594 
L 108.844802 67.991142 
L 105.741409 69.822139 
L 99.278598 66.534353 
L 96.13413 68.666854 
L 79.502317 52.807411 
L 75.936022 55.568508 
L 85.101535 73.269642 
L 82.175849 75.84457 
L 65.240258 63.944722 
L 62.031195 67.148743 
L 103.288123 110.879876 
L 101.535993 112.864383 
L 75.526625 95.39159 
L 73.301235 98.256636 
L 46.305728 83.694636 
L 43.727008 87.484235 
L 64.522897 105.62083 
L 62.624577 108.8268 
L 47.053725 104.789171 
L 45.137894 108.544821 
L 58.967668 119.422508 
L 57.50605 122.796323 
L 75.107184 133.385118 
L 74.076602 136.244567 
L 61.961914 135.69362 
L 61.010416 138.965244 
L 26.813981 134.250637 
L 25.83449 138.628102 
L 42.654023 146.119669 
L 42.039889 149.993221 
L 15.980146 151.058618 
L 15.534491 155.768412 
L 65.848007 162.879031 
L 65.749356 166.015027 
L 40.808575 169.544767 
L 40.931889 173.464762 
L 67.599389 175.297473 
L 67.890334 178.372262 
L 15.030259 189.022319 
L 15.778736 193.74321 
L 28.887561 195.906587 
L 29.845642 200.188371 
L 77.550311 191.672801 
L 78.351213 194.426614 
L 72.601829 199.428505 
L 73.649034 202.334075 
L 62.54635 210.281195 
L 63.939759 213.497565 
L 86.429176 206.371037 
L 87.687833 208.838412 
L 87.669659 212.03811 
L 89.105887 214.46368 
L 45.029526 246.826686 
L 47.580666 250.575754 
L 93.238802 221.921307 
L 94.983026 224.166884 
L 79.025748 241.556347 
L 81.394368 244.239105 
L 60.35312 269.647535 
L 63.614222 272.903512 
L 95.803222 244.321648 
L 98.250495 246.475518 
L 84.212107 269.249854 
L 87.448908 271.755849 
L 91.210505 273.52066 
L 94.578129 275.804498 
L 108.181045 261.35519 
L 111.157769 263.111452 
L 112.732235 267.5304 
L 115.900871 269.14051 
L 119.758482 269.22859 
L 122.977039 270.61694 
L 123.216517 279.927989 
L 126.769777 281.202321 
L 122.600708 307.70545 
L 127.027656 308.98541 
L 140.540485 272.215506 
L 143.842682 272.948947 
L 143.310952 295.852383 
L 147.354974 296.487028 
L 156.98764 245.849974 
L 159.452715 246.079317 
L 159.436565 300.739026 
L 163.626261 300.86423 
L 167.319006 272.02061 
L 170.601835 271.912172 
L 173.879631 271.700569 
L 177.149153 271.386009 
L 187.076432 317.260597 
L 191.771936 316.508575 
L 188.78894 278.984424 
L 192.280111 278.197482 
L 201.128653 296.839866 
L 205.175137 295.656108 
L 213.752508 307.611485 
L 218.131434 306.025479 
L 201.777994 254.652073 
L 204.49768 253.468756 
L 224.39631 287.166096 
L 228.127126 285.255534 
L 215.903479 255.500909 
L 218.642871 253.873037 
L 243.227258 285.339667 
L 246.891336 282.837923 
L 219.024749 238.527328 
L 221.228911 236.809709 
L 265.000528 283.532989 
L 268.597035 280.347538 
L 234.027633 237.955302 
L 236.206391 235.766242 
L 225.02585 221.475656 
L 226.690903 219.577779 
L 249.629482 234.633965 
L 251.696096 231.95599 
L 256.232994 231.000754 
L 258.182108 228.116948 
L 243.397488 215.034289 
L 244.850927 212.561953 
L 252.434637 213.311397 
L 253.829436 210.555765 
L 235.931669 199.14896 
L 236.88933 196.919219 
L 280.112852 210.52357 
L 281.40631 206.899053 
L 273.636936 200.510676 
L 274.61877 197.094726 
L 258.806057 189.694784 
L 259.455147 186.750497 
L 298.425514 190.374029 
L 299.076373 186.183684 
L 291.844713 181.143088 
L 292.208584 177.164222 
L 252.731409 171.426212 
L 252.8091 168.681958 
L 302.679315 164.995371 
L 302.53011 160.683825 
L 244.755431 161.090168 
L 244.512077 158.601807 
L 285.843728 150.054489 
L 285.233073 146.279678 
L 309.675321 137.225231 
L 308.649503 132.707446 
L 287.951925 133.638703 
L 286.824079 129.805722 
L 277.473809 128.815686 
L 276.199498 125.314544 
L 256.838224 129.376352 
L 255.591745 126.523762 
L 268.231577 116.802793 
L 266.584123 113.598187 
L 261.458349 112.390395 
L 259.675509 109.400936 
L 292.244731 83.658562 
L 289.543278 79.715317 
L 237.614925 113.019281 
L 235.863648 110.7792 
L 279.532758 69.439126 
L 276.3905 65.902604 
L 231.872626 102.770623 
L 229.801948 100.71616 
L 235.502387 90.048494 
L 233.029902 87.886194 
L 216.428212 103.501597 
L 214.388153 101.932379 
L 216.755695 94.032298 
L 214.417738 92.457465 
L 225.784847 68.302017 
L 222.63341 66.45601 
L 226.662134 50.901439 
L 222.963151 49.036451 
L 224.608617 35.187998 
L 220.416584 33.395346 
L 208.272004 52.916054 
L 204.645457 51.628296 
L 189.684757 87.757303 
L 187.162886 87.036742 
L 190.155314 62.874082 
L 186.850827 62.151029 
L 183.786294 59.995254 
L 180.394439 59.47388 
L 176.086231 67.586328 
L 172.936863 67.303307 
L 170.474891 50.764788 
L 166.799392 50.666518 
L 163.12262 50.683861 
L 159.448212 50.816802 
L 152.795111 15.332841 
L 148.014295 15.80798 
L 147.339666 44.195558 
L 143.469054 44.827958 
L 149.329831 91.332516 
L 146.940324 91.879035 
L 138.495627 70.726233 
L 135.463571 71.623591 
L 115.807497 24.763767 
L 111.341497 26.397215 
L 124.745671 70.569234 
L 121.715477 71.898999 
L 104.866699 45.394369 
L 101.05478 47.361619 
L 108.219542 68.349519 
L 105.127726 70.199999 
L 98.644364 66.952926 
L 95.51337 69.10516 
L 78.78214 53.350636 
L 75.233281 56.134109 
L 84.509943 73.777246 
L 81.600509 76.370524 
L 64.59041 64.577427 
L 61.401562 67.801568 
L 102.932718 111.272354 
L 101.193104 113.267841 
L 75.074357 95.958978 
L 72.867031 98.837964 
L 45.78047 84.446038 
L 43.225636 88.251781 
L 64.135182 106.257223 
L 62.257064 109.475068 
L 46.661125 105.535451 
L 44.768953 109.303077 
L 58.666868 120.093568 
L 57.226498 123.476508 
L 74.893882 133.954392 
L 73.881304 136.820267 
L 61.763391 136.345525 
L 60.832488 139.623069 
L 26.607078 135.123631 
L 25.655138 139.50717 
L 42.521456 146.892804 
L 41.931696 150.770142 
L 15.879169 151.999418 
L 15.463145 156.711923 
L 65.820388 163.505958 
L 65.741463 166.642512 
L 40.823375 170.329045 
L 40.971341 174.248187 
L 67.64984 175.913139 
L 67.960119 178.986036 
L 15.168071 189.968343 
L 15.946225 194.684433 
L 29.068397 196.76532 
L 30.05339 201.040993 
L 77.703557 192.225557 
L 78.521763 194.974278 
L 72.803952 200.012231 
L 73.869411 202.911157 
L 62.816929 210.92795 
L 64.23054 214.135492 
L 86.67469 206.867659 
L 87.94884 209.327069 
L 87.950791 212.526818 
L 89.402247 214.943306 
L 45.530302 247.582888 
L 48.104971 251.315837 
L 93.581983 222.374793 
L 95.340297 224.609355 
L 79.492704 242.098836 
L 81.87815 244.766644 
L 60.997123 270.306909 
L 64.278638 273.542311 
L 96.287239 244.758562 
L 98.748009 246.896997 
L 84.853137 269.759176 
L 88.105635 272.244765 
L 91.878257 273.985882 
L 95.260178 276.248495 
L 108.771947 261.713917 
L 111.759659 263.451423 
L 113.361887 267.860381 
L 116.540587 269.45053 
L 120.398675 269.514346 
L 123.6259 270.882426 
L 123.923935 280.191785 
L 127.485139 281.443744 
L 123.482842 307.972569 
L 127.917753 309.224661 
L 141.199053 272.370496 
L 144.505798 273.083154 
L 144.118128 295.989481 
L 148.166062 296.598679 
L 157.480058 245.902043 
L 159.946527 246.115877 
L 160.274156 300.774606 
L 164.464557 300.873457 
L 167.975818 272.007182 
L 171.2579 271.8781 
L 174.534301 271.645885 
L 177.80178 271.310768 
L 188.017388 317.122011 
L 192.708069 316.340472 
L 189.489126 278.835825 
L 192.975279 278.026941 
L 201.940896 296.613304 
L 205.979855 295.404119 
L 214.632249 307.305313 
L 219.001113 305.691798 
L 202.324887 254.422261 
L 205.037077 253.221863 
L 225.14725 286.793385 
L 228.865976 284.859396 
L 216.455431 255.182239 
L 219.18453 253.53717 
L 243.966339 284.848556 
L 247.61461 282.323816 
L 219.469886 238.189363 
L 221.663201 236.457915 
L 265.727815 282.904972 
L 269.304216 279.696965 
L 234.468875 237.522989 
L 236.633822 235.320269 
L 225.363622 221.100284 
L 227.016706 219.191973 
L 250.049525 234.10359 
L 252.099256 231.412671 
L 256.630057 230.428919 
L 258.560994 227.532911 
L 243.694384 214.543498 
L 245.132245 212.062069 
L 252.720518 212.763801 
L 254.097959 209.999451 
L 236.128803 198.705439 
L 237.072421 196.469719 
L 280.380652 209.80195 
L 281.651289 206.169369 
L 273.841889 199.829983 
L 274.802219 196.407926 
L 258.943277 189.107583 
L 259.573837 186.159272 
L 298.566223 189.53763 
L 299.190714 185.343275 
L 291.927494 180.348261 
L 292.266334 176.367185 
L 252.753851 170.877578 
L 252.81428 168.13289 
L 302.660322 164.132721 
L 302.484003 159.822198 
L 244.713022 160.591904 
L 244.454023 158.105122 
L 285.731098 149.298021 
L 285.096714 145.527125 
L 309.481531 136.319129 
L 308.427319 131.807885 
L 287.736008 132.8693 
L 286.584077 129.043488 
L 277.227765 128.112279 
L 275.931459 124.619222 
L 256.596115 128.802721 
L 255.331719 125.958026 
L 267.910161 116.157752 
L 266.242585 112.963571 
L 261.109316 111.788041 
L 259.307709 108.809854 
L 291.714383 82.863147 
L 288.988182 78.936971 
L 237.270319 112.566877 
L 235.504987 110.337855 
L 278.913229 68.723944 
L 275.74879 65.207255 
L 231.463675 102.354537 
L 229.380116 100.313138 
L 235.013349 89.609831 
L 232.527314 87.463124 
L 216.024164 103.182633 
L 213.974276 101.626277 
L 216.292084 93.711462 
L 213.944269 92.151364 
L 225.159229 67.924902 
L 221.996244 66.098752 
L 225.927059 50.519151 
L 222.216419 48.677464 
L 223.774754 34.818935 
L 219.571529 33.052684 
L 207.549963 52.649389 
L 203.915388 51.384465 
L 189.182215 87.606852 
L 186.655862 86.902166 
L 189.496262 62.721163 
L 186.187292 62.018908 
L 183.109261 59.88245 
L 179.714195 59.382419 
L 175.457094 67.521802 
L 172.306009 67.258595 
L 169.740068 50.735888 
L 166.064023 50.660736 
L 162.387433 50.701204 
L 158.713933 50.857253 
L 151.83779 15.415838 
L 147.060057 15.921036 
L 146.563983 44.312295 
L 142.697426 44.969027 
L 148.850573 91.435804 
L 146.464551 91.997341 
L 137.886982 70.898069 
L 134.86063 71.81448 
L 114.910223 25.079208 
L 110.454585 26.740712 
L 124.136311 70.827553 
L 121.11454 72.17635 
L 104.099396 45.778213 
L 100.299926 47.769399 
L 107.596547 68.711822 
L 104.516431 70.581711 
L 98.012775 67.375479 
L 94.89538 69.547363 
L 78.065393 53.898381 
L 74.534111 56.704118 
L 83.921555 74.288562 
L 81.028489 76.900087 
L 63.944554 65.214207 
L 60.776048 68.45834 
L 102.579789 111.667059 
L 100.85276 113.673447 
L 74.625666 96.529199 
L 72.436491 99.422011 
L 45.259949 85.200729 
L 42.729101 89.022465 
L 63.751478 106.896041 
L 61.893635 110.125636 
L 46.273227 106.284186 
L 44.404788 110.063638 
L 58.370295 120.766505 
L 56.95123 124.158438 
L 74.684164 134.524997 
L 73.689631 137.397183 
L 61.568972 136.998666 
L 60.658701 140.282 
L 26.405669 135.997909 
L 25.481318 140.387349 
L 42.393754 147.666757 
L 41.828392 151.547727 
L 15.784112 152.940835 
L 15.397735 157.655863 
L 65.796713 164.133045 
L 65.737516 167.270033 
L 40.843107 171.113215 
L 41.01572 175.031348 
L 67.704162 176.528474 
L 68.033762 179.59936 
L 15.311831 190.913481 
L 16.119631 195.624584 
L 29.254631 197.622899 
L 30.266496 201.892292 
L 77.860276 192.777338 
L 78.695754 195.520859 
L 73.009742 200.594674 
L 74.093412 203.486841 
L 63.09157 211.572989 
L 64.525327 214.771577 
L 86.923323 207.362727 
L 88.212916 209.814074 
L 88.234991 213.013748 
L 89.701616 215.42106 
L 46.035824 248.335926 
L 48.63392 252.052608 
L 93.92801 222.826111 
L 95.700343 225.049571 
L 79.963062 242.638378 
L 82.365241 245.29113 
L 61.645261 270.962219 
L 64.94706 274.176919 
L 96.773993 245.192423 
L 99.248165 247.315339 
L 85.497358 270.264457 
L 88.765424 272.72954 
L 92.548922 274.446895 
L 95.945007 276.688193 
L 109.365095 262.068921 
L 112.363675 263.787602 
L 113.993601 268.186395 
L 117.182239 269.756521 
L 121.040653 269.79607 
L 124.276419 271.143825 
L 124.632998 280.451126 
L 128.202006 281.680662 
L 124.366639 308.234135 
L 128.809338 309.458309 
L 141.858583 272.521341 
L 145.169744 273.213188 
L 144.92615 296.1215 
L 148.977835 296.705226 
L 157.972794 245.951013 
L 160.440559 246.14933 
L 161.111954 300.804918 
L 165.302894 300.877412 
L 168.632533 271.989624 
L 171.913739 271.839901 
L 175.188614 271.587085 
L 178.453921 271.231424 
L 188.957453 316.977511 
L 193.643127 316.166485 
L 190.188364 278.682825 
L 193.66936 277.852031 
L 202.751698 296.381638 
L 206.782972 295.147074 
L 215.510047 306.993614 
L 219.868676 305.352653 
L 202.870323 254.189014 
L 205.57491 252.971582 
L 225.895832 286.415958 
L 229.60232 284.458619 
L 217.005368 254.860104 
L 219.724067 253.197903 
L 244.702316 284.352807 
L 248.334636 281.805171 
L 219.912887 237.848605 
L 222.09527 236.103396 
L 266.451138 282.272394 
L 270.007292 279.041956 
L 234.907389 237.087909 
L 237.058439 234.871616 
L 225.699027 220.722796 
L 227.340076 218.804126 
L 250.466225 233.570584 
L 252.498991 230.866827 
L 257.023515 229.854599 
L 258.936199 226.946503 
L 243.988188 214.050849 
L 245.410413 211.560426 
L 253.00295 212.214418 
L 254.362977 209.44146 
L 236.323144 198.260686 
L 237.252682 196.019076 
L 280.643908 209.078659 
L 281.891673 205.438158 
L 274.042557 199.148015 
L 274.981344 195.719985 
L 259.076801 188.519531 
L 259.688806 185.567312 
L 298.701668 188.700363 
L 299.299767 184.502163 
L 292.005275 179.55293 
L 292.319069 175.569802 
L 252.772841 170.328815 
L 302.703736 167.5838 
z
" clip-path="url(#pb0a0108067)" style="fill: #0000ff; opacity: 0.5; stroke: #000000; stroke-width: 1.5; stroke-linejoin: miter"/>
   </g>
  </g>
 </g>
 <defs>
  <clipPath id="pb0a0108067">
   <rect x="0" y="-0" width="324.994941" height="332.64"/>
  </clipPath>
 </defs>
</svg>
