<?xml version="1.0" encoding="utf-8" standalone="no"?>
<!DOCTYPE svg PUBLIC "-//W3C//DTD SVG 1.1//EN"
  "http://www.w3.org/Graphics/SVG/1.1/DTD/svg11.dtd">
<svg xmlns:xlink="http://www.w3.org/1999/xlink" width="323.237287pt" height="332.64pt" viewBox="0 0 323.237287 332.64" xmlns="http://www.w3.org/2000/svg" version="1.1">
 <metadata>
  <rdf:RDF xmlns:dc="http://purl.org/dc/elements/1.1/" xmlns:cc="http://creativecommons.org/ns#" xmlns:rdf="http://www.w3.org/1999/02/22-rdf-syntax-ns#">
   <cc:Work>
    <dc:type rdf:resource="http://purl.org/dc/dcmitype/StillImage"/>
    <dc:date>2023-12-09T18:06:20.794305</dc:date>
    <dc:format>image/svg+xml</dc:format>
    <dc:creator>
     <cc:Agent>
      <dc:title>Matplotlib v3.8.2, https://matplotlib.org/</dc:title>
     </cc:Agent>
    </dc:creator>
   </cc:Work>
  </rdf:RDF>
 </metadata>
 <defs>
  <style type="text/css">*{stroke-linejoin: round; stroke-linecap: butt}</style>
 </defs>
 <g id="figure_1">
  <g id="patch_1">
   <path d="M 0 332.64 
L 323.237287 332.64 
L 323.237287 0 
L 0 0 
L 0 332.64 
z
" style="fill: none"/>
  </g>
  <g id="axes_1">
   <g id="patch_2">
    <path d="M 291.851863 157.156284 
L 291.781385 152.674335 
L 308.544683 147.12779 
L 308.150634 142.125941 
L 255.37074 143.743657 
L 254.896576 140.415386 
L 302.846196 127.83693 
L 301.848417 123.023791 
L 302.268642 117.841173 
L 300.956859 113.051136 
L 289.48252 111.561484 
L 287.979612 107.176575 
L 245.681311 118.956587 
L 244.432578 115.945228 
L 226.97072 120.568344 
L 225.781915 118.14449 
L 233.741517 110.682214 
L 232.238524 108.05036 
L 275.086954 77.233457 
L 272.511816 73.318149 
L 264.575337 73.297508 
L 261.881641 69.714655 
L 226.644442 93.086318 
L 224.591704 90.686311 
L 248.423936 63.937622 
L 245.44393 60.867232 
L 217.995295 83.889832 
L 215.657675 81.76632 
L 247.291432 38.499865 
L 243.512168 35.47766 
L 216.343191 64.704435 
L 213.403157 62.642355 
L 197.401107 81.201937 
L 194.989156 79.72728 
L 206.161811 53.4738 
L 202.873696 51.737397 
L 214.32533 18.576506 
L 209.935931 16.600679 
L 188.246027 58.460993 
L 185.123578 57.285436 
L 181.716401 56.979229 
L 178.55059 56.009711 
L 172.550509 66.126558 
L 169.676842 65.440712 
L 175.220142 20.281762 
L 170.903694 19.534645 
L 161.347833 60.714887 
L 158.30955 60.383954 
L 156.70178 36.705218 
L 152.910878 36.532238 
L 149.121505 39.718209 
L 145.429086 39.78208 
L 141.949209 43.194962 
L 138.369653 43.482626 
L 138.607254 73.606972 
L 135.98557 73.984678 
L 127.25048 42.632454 
L 123.660505 43.382557 
L 123.138627 56.00674 
L 119.971201 56.879516 
L 113.812005 48.613792 
L 110.41674 49.783473 
L 114.850017 70.623307 
L 112.146266 71.749468 
L 85.236801 21.710223 
L 81.009758 23.791672 
L 99.566158 67.1227 
L 96.759897 68.73115 
L 99.666285 79.304836 
L 97.243008 80.904114 
L 65.266244 42.019108 
L 61.68763 44.718434 
L 62.337045 52.512006 
L 59.0898 55.298245 
L 80.386965 84.106203 
L 78.124186 86.309291 
L 32.735596 48.21235 
L 29.367795 51.931449 
L 68.640193 90.756197 
L 66.592312 93.325342 
L 65.282657 96.432014 
L 63.414897 99.103921 
L 36.973732 86.273625 
L 34.800566 89.84065 
L 48.37747 102.016952 
L 46.69367 105.217634 
L 59.786667 115.326944 
L 58.515722 118.162315 
L 42.257243 115.114927 
L 40.988298 118.501566 
L 71.4368 132.098429 
L 70.687426 134.559202 
L 69.230743 136.843172 
L 68.631646 139.370962 
L 37.067621 136.089301 
L 36.460723 139.628743 
L 21.496381 141.402014 
L 21.064225 145.428423 
L 57.140187 151.642803 
L 57.012401 154.543429 
L 35.108181 157.515408 
L 35.175935 161.105865 
L 37.781008 164.532073 
L 38.06806 168.035022 
L 56.135423 169.236195 
L 56.561308 172.159714 
L 50.718404 176.303716 
L 51.369186 179.394064 
L 42.711392 184.911403 
L 43.636778 188.249253 
L 42.35843 192.315182 
L 43.516781 195.66047 
L 50.043662 196.862072 
L 51.341178 199.963471 
L 14.692604 221.091064 
L 16.76941 225.291998 
L 17.560658 230.211092 
L 19.9228 234.317339 
L 55.159536 217.394768 
L 57.100114 220.325161 
L 48.023444 231.328057 
L 50.405644 234.475935 
L 58.484254 232.879486 
L 60.910062 235.697686 
L 34.599575 265.717774 
L 38.0697 269.270725 
L 62.629006 250.194103 
L 65.597175 252.873422 
L 80.464266 241.057189 
L 83.136331 243.180246 
L 59.364795 282.020249 
L 63.335261 284.786466 
L 85.498359 258.629907 
L 88.720461 260.585993 
L 99.746214 248.212299 
L 102.633719 249.725552 
L 91.215586 281.988058 
L 95.169293 283.752832 
L 113.920541 247.67591 
L 116.784172 248.743756 
L 113.507838 269.005359 
L 117.042317 270.075635 
L 117.442085 283.600095 
L 121.43351 284.539454 
L 132.415989 247.929008 
L 135.278433 248.415191 
L 137.763471 252.027092 
L 140.752124 252.343113 
L 139.981829 317.248888 
L 145.020102 317.462911 
L 150.028228 310.229226 
L 154.84082 310.130839 
L 154.778001 237.963109 
L 157.316039 237.751109 
L 160.794757 244.686694 
L 163.541224 244.28219 
L 170.009568 262.867182 
L 173.323114 262.163955 
L 183.38827 287.211176 
L 187.460629 286.075257 
L 180.82091 252.513458 
L 183.803566 251.475418 
L 197.019548 275.895611 
L 200.729381 274.33669 
L 202.993879 269.737701 
L 206.507141 267.993978 
L 193.420836 236.417643 
L 195.891175 234.991392 
L 196.127534 230.0805 
L 198.397281 228.572277 
L 208.77091 238.089057 
L 211.286212 236.17934 
L 230.368371 254.071531 
L 233.37552 251.47484 
L 230.723037 242.911253 
L 233.379106 240.308928 
L 254.942917 255.26122 
L 257.975321 251.891264 
L 255.884802 244.325545 
L 258.572899 240.93138 
L 237.467746 220.450072 
L 239.414251 217.646784 
L 257.743085 225.105005 
L 259.825927 221.661915 
L 271.767244 223.559991 
L 273.794574 219.676714 
L 247.774847 202.790553 
L 249.161003 199.671919 
L 230.8238 188.875206 
L 231.780808 186.29643 
L 240.373862 186.145557 
L 241.240321 183.267856 
L 250.658302 182.527796 
L 251.405927 179.328519 
L 235.326427 173.022264 
L 235.782757 170.309754 
L 272.339997 171.929217 
L 272.743659 168.05346 
L 281.111475 164.625138 
L 281.281143 160.477198 
L 291.849044 156.259752 
L 291.750378 151.778335 
L 308.47846 146.126469 
L 308.052959 141.127196 
L 255.284284 143.076836 
L 254.789197 139.751613 
L 302.658757 126.87183 
L 301.630726 122.065062 
L 302.018346 116.879903 
L 300.676464 112.098211 
L 289.192982 110.680756 
L 287.662525 106.305386 
L 245.43915 118.351197 
L 244.171502 115.347752 
L 226.739066 120.080602 
L 225.53504 117.664273 
L 233.447552 110.152083 
L 231.928035 107.529734 
L 274.581797 76.443948 
L 271.982084 72.544914 
L 264.045633 72.574189 
L 261.329456 69.008348 
L 226.239948 92.601172 
L 224.172156 90.214123 
L 247.835683 63.316071 
L 244.836425 60.264485 
L 217.533132 83.459265 
L 215.182203 81.350497 
L 246.543213 37.88594 
L 242.745015 34.887564 
L 215.760395 64.284639 
L 212.80745 62.24109 
L 196.922446 80.900949 
L 194.501268 79.441492 
L 205.508582 53.118261 
L 202.209611 51.402573 
L 213.452456 18.170313 
L 209.050717 16.222132 
L 187.624519 58.218035 
L 184.494738 57.06214 
L 181.085703 56.777369 
L 177.913857 55.82778 
L 171.977524 65.982164 
L 169.0996 65.314406 
L 174.358766 20.121485 
L 170.037705 19.40153 
L 160.741033 60.641059 
L 157.700729 60.329241 
L 155.944065 36.661086 
L 152.15215 36.511952 
L 148.38289 39.721693 
L 144.690946 39.808786 
L 141.232602 43.243487 
L 137.654926 43.553659 
L 138.081987 73.675914 
L 135.462731 74.070102 
L 126.530627 42.773437 
L 122.94544 43.546104 
L 122.502971 56.17332 
L 119.341097 57.066 
L 113.130036 48.839177 
L 109.742195 50.030189 
L 114.306455 70.841728 
L 111.609841 71.984872 
L 84.38619 22.115862 
L 80.172321 24.223856 
L 99.000881 67.437317 
L 96.204793 69.063385 
L 99.177626 79.618582 
L 96.764455 81.23307 
L 64.543758 42.549949 
L 60.982193 45.271729 
L 61.680612 53.061062 
L 58.450955 55.867669 
L 79.928884 84.54111 
L 77.680006 86.758387 
L 32.052706 48.947668 
L 28.708363 52.687875 
L 68.224169 91.264853 
L 66.192488 93.846827 
L 64.902398 96.961676 
L 63.051479 99.645277 
L 36.530142 86.981535 
L 34.379454 90.562156 
L 48.032671 102.652827 
L 46.369035 105.864036 
L 59.525354 115.890798 
L 58.272267 118.734107 
L 41.994943 115.789036 
L 40.747324 119.183589 
L 71.28074 132.588679 
L 70.546859 135.054116 
L 69.104569 137.347203 
L 68.521382 139.87871 
L 36.937342 136.795634 
L 36.352717 140.338823 
L 21.399823 142.206177 
L 20.993 146.235224 
L 57.107334 152.222584 
L 56.997793 155.123957 
L 35.112699 158.233641 
L 35.203033 161.823601 
L 37.829603 165.233357 
L 38.138681 168.734431 
L 56.213242 169.821947 
L 56.657506 172.74273 
L 50.840781 176.923398 
L 51.510986 180.009592 
L 42.888065 185.581275 
L 43.834425 188.913239 
L 42.581675 192.987127 
L 43.761043 196.325063 
L 50.295353 197.485592 
L 51.612348 200.578768 
L 15.09738 221.936443 
L 17.200567 226.124232 
L 18.022737 231.038251 
L 20.410658 235.12956 
L 55.540264 217.985706 
L 57.499234 220.903835 
L 48.491946 231.963601 
L 50.893897 235.096434 
L 58.962306 233.449207 
L 61.405791 236.252094 
L 35.284634 266.437067 
L 38.777036 269.968122 
L 63.215876 250.737413 
L 66.200837 253.398011 
L 80.993316 241.488506 
L 83.678682 243.594715 
L 60.151897 282.583459 
L 64.139683 285.32465 
L 86.137833 259.029215 
L 89.372173 260.964997 
L 100.319885 248.522202 
L 103.21685 250.017264 
L 92.001857 282.350945 
L 95.966584 284.090819 
L 114.490558 247.896675 
L 117.360848 248.94649 
L 114.212013 269.228298 
L 117.753154 270.276323 
L 118.237975 283.798001 
L 122.235229 284.712238 
L 132.987232 248.033442 
L 135.852678 248.501612 
L 138.360383 252.097813 
L 141.350965 252.39503 
L 140.988905 317.304366 
L 146.028424 317.486697 
L 150.990956 310.221657 
L 155.802834 310.093004 
L 155.286122 237.927096 
L 157.822777 237.699137 
L 161.345046 244.612706 
L 164.088915 244.190936 
L 170.674021 262.734878 
L 173.983078 262.010825 
L 184.205567 286.994247 
L 188.270702 285.832738 
L 181.420029 252.313362 
L 184.396098 251.256584 
L 197.765407 275.593173 
L 201.465363 274.010949 
L 203.70089 269.397809 
L 207.203115 267.632024 
L 193.918472 236.138619 
L 196.379792 234.696859 
L 196.58526 229.784578 
L 198.845476 228.26211 
L 209.278755 237.713457 
L 211.781997 235.787957 
L 230.97631 253.559778 
L 233.967067 250.944225 
L 231.260777 242.397491 
L 233.900427 239.778513 
L 255.557852 254.594885 
L 258.569001 251.205922 
L 256.43094 243.653501 
L 259.097636 240.242497 
L 237.864084 219.894334 
L 239.79292 217.078859 
L 258.168299 224.421655 
L 260.229445 220.965533 
L 272.182464 222.788467 
L 274.18533 218.892516 
L 248.059913 202.170338 
L 249.426427 199.043047 
L 231.021682 188.361879 
L 231.962451 185.777135 
L 240.554387 185.572219 
L 241.40273 182.689126 
L 250.81587 181.889847 
L 251.543358 178.685931 
L 235.424514 172.480932 
L 235.863775 169.765605 
L 272.430477 171.155112 
L 272.809755 167.276892 
L 281.155842 163.79601 
L 281.29942 159.647084 
L 291.840586 155.363256 
L 291.713736 150.882548 
L 308.405941 145.125583 
L 307.949006 140.129086 
L 255.193636 142.410572 
L 254.677645 139.088529 
L 302.465252 125.907928 
L 301.407009 121.107721 
L 301.76201 115.920226 
L 300.39008 111.147069 
L 288.89791 109.801866 
L 287.339965 105.436209 
L 245.193187 117.747343 
L 243.906674 114.751929 
L 226.504349 119.594326 
L 225.28515 117.185617 
L 233.150258 109.623811 
L 231.614278 107.01107 
L 274.071684 75.657631 
L 271.4475 71.775025 
L 263.51139 71.854215 
L 260.77284 68.305529 
L 225.832412 92.118579 
L 223.749647 89.744582 
L 247.243532 62.698233 
L 244.225141 59.66557 
L 217.06827 83.031614 
L 214.704124 80.937674 
L 245.791147 37.276733 
L 241.974166 34.302305 
L 215.174971 63.868516 
L 212.209232 61.84358 
L 196.441901 80.602978 
L 194.011592 79.158777 
L 204.853131 52.766837 
L 201.543434 51.071932 
L 212.577044 17.769619 
L 208.163139 15.84916 
L 187.001496 57.978991 
L 183.864507 56.842803 
L 180.453748 56.579479 
L 177.275993 55.649858 
L 171.403642 65.841378 
L 168.521575 65.191733 
L 173.496399 19.966629 
L 169.170896 19.273865 
L 160.13378 60.571049 
L 157.091576 60.278359 
L 155.186087 36.621721 
L 151.393309 36.496439 
L 147.644311 39.729823 
L 143.952988 39.840134 
L 140.516315 43.296518 
L 136.940661 43.629185 
L 137.557165 73.748159 
L 134.94044 74.158813 
L 125.811674 42.918944 
L 122.231418 43.714145 
L 121.868375 56.343894 
L 118.712179 57.256442 
L 112.449498 49.068847 
L 109.069215 50.281142 
L 113.764277 71.063563 
L 111.074907 72.223645 
L 83.538146 22.526843 
L 79.337619 24.661298 
L 98.437595 67.755483 
L 95.651788 69.399105 
L 98.690949 79.935396 
L 96.287981 81.565029 
L 63.824626 43.085323 
L 60.280249 45.82945 
L 61.027646 53.614236 
L 57.815704 56.4411 
L 79.473548 84.97889 
L 77.23866 87.210267 
L 31.374454 49.687266 
L 28.053701 53.448433 
L 67.811353 91.776116 
L 65.795951 94.370817 
L 64.525477 97.493718 
L 62.691473 100.188907 
L 36.091013 87.69222 
L 33.962888 91.286297 
L 47.691878 103.290858 
L 46.048472 106.512466 
L 59.267594 116.456285 
L 58.032414 119.307418 
L 41.736889 116.464781 
L 40.510645 119.867113 
L 71.127767 133.079901 
L 70.409406 135.549905 
L 68.981567 137.852017 
L 68.414313 140.387143 
L 36.811507 137.502773 
L 36.249178 141.049569 
L 21.308326 143.010931 
L 20.92685 147.042457 
L 57.078127 152.80256 
L 56.986836 155.704564 
L 35.121733 158.951832 
L 35.234645 162.541153 
L 37.882608 165.934322 
L 38.2137 169.433383 
L 56.294743 170.407198 
L 56.757368 173.325129 
L 50.967052 177.542299 
L 51.656655 180.624216 
L 43.068947 186.250022 
L 44.036244 189.575968 
L 42.809141 193.657655 
L 44.00948 196.988108 
L 50.550959 198.107516 
L 51.887383 201.192348 
L 15.507465 222.779259 
L 17.636949 226.953737 
L 18.490009 231.862488 
L 20.903615 235.938698 
L 55.924701 218.574237 
L 57.901986 221.479988 
L 48.964436 232.596186 
L 51.386043 235.71385 
L 59.443932 234.01591 
L 61.904998 236.803373 
L 35.974203 267.152036 
L 39.488745 270.661056 
L 63.806151 251.277021 
L 66.807786 253.918793 
L 81.525069 241.916487 
L 84.223629 244.005765 
L 60.942527 283.141708 
L 64.947474 285.857764 
L 86.779805 259.424493 
L 90.026257 261.339894 
L 100.895494 248.828491 
L 103.801805 250.305303 
L 92.790393 282.708881 
L 96.765985 284.423784 
L 115.061952 248.113851 
L 117.938789 249.145592 
L 114.917576 269.446803 
L 118.465239 270.472536 
L 119.035094 283.990898 
L 123.038019 284.879976 
L 133.559121 248.134281 
L 136.427454 248.584421 
L 138.957728 252.164778 
L 141.95012 252.44318 
L 141.996311 317.35351 
L 147.036876 317.504141 
L 151.953617 310.208034 
L 156.76459 310.049119 
L 155.794007 237.887888 
L 158.329177 237.64398 
L 161.894859 244.535259 
L 164.636021 244.09624 
L 171.337628 262.598398 
L 174.642066 261.853547 
L 185.021484 286.772181 
L 189.079233 285.585128 
L 182.017878 252.109502 
L 184.987241 251.034027 
L 198.509349 275.286049 
L 202.199281 273.680586 
L 204.40575 269.053477 
L 207.8968 267.2657 
L 194.414344 235.856471 
L 196.866548 234.399259 
L 197.041116 229.485782 
L 199.291712 227.949129 
L 209.784228 237.33467 
L 212.27531 235.393465 
L 231.581018 253.044213 
L 234.555266 250.409901 
L 231.795275 241.880357 
L 234.4184 239.244828 
L 256.168584 253.924695 
L 259.158359 250.516861 
L 256.972839 242.978036 
L 259.61803 239.550327 
L 238.256919 219.336114 
L 240.16801 216.508564 
L 258.589207 223.735643 
L 260.628575 220.266626 
L 272.592823 222.014346 
L 274.571146 218.105876 
L 248.341073 201.548343 
L 249.687891 198.412519 
L 231.216331 187.847317 
L 232.140826 185.256708 
L 240.731302 184.997758 
L 241.561496 182.109385 
L 250.969423 181.250919 
L 251.676745 178.042491 
L 235.519194 171.938993 
L 235.941368 169.220957 
L 272.516086 170.380453 
L 272.870965 166.499925 
L 281.194995 162.966619 
L 281.312475 158.816872 
L 291.82649 154.466831 
L 291.671461 149.987009 
L 308.327128 144.125174 
L 307.838777 139.131649 
L 255.0988 141.744891 
L 254.561925 138.426159 
L 302.265688 124.945262 
L 301.177276 120.151806 
L 301.499644 114.962181 
L 300.09772 110.197746 
L 288.597317 108.92485 
L 287.011945 104.569077 
L 244.94343 117.145047 
L 243.638103 114.157784 
L 226.266579 119.109536 
L 225.032255 116.708543 
L 232.849647 109.097419 
L 231.297265 106.494391 
L 273.556636 74.874539 
L 270.908085 71.008514 
L 262.972629 71.137616 
L 260.211814 67.606224 
L 225.421848 91.638558 
L 223.324193 89.277708 
L 246.647508 62.08413 
L 243.610102 59.070511 
L 216.600727 82.606894 
L 214.223459 80.527865 
L 245.035264 36.672268 
L 241.199651 33.721906 
L 214.586941 63.456084 
L 211.608525 61.449841 
L 195.959492 80.308035 
L 193.520148 78.879148 
L 204.195481 52.419543 
L 200.87519 50.745487 
L 211.69913 17.374437 
L 207.273234 15.481778 
L 186.376981 57.74387 
L 183.232908 56.627435 
L 179.820561 56.385567 
L 176.637021 55.475952 
L 170.828886 65.704203 
L 167.942791 65.072698 
L 172.633076 19.817199 
L 168.3033 19.151654 
L 159.5261 60.50486 
L 156.482114 60.23131 
L 154.427877 36.587124 
L 150.634386 36.485698 
L 146.905798 39.742597 
L 143.215242 39.876123 
L 139.800376 43.354053 
L 136.226884 43.709203 
L 137.032808 73.823703 
L 134.418717 74.250807 
L 125.09365 43.068971 
L 121.518467 43.886673 
L 121.234865 56.518456 
L 118.084471 57.450837 
L 111.770419 49.302792 
L 108.397827 50.536324 
L 113.223506 71.288805 
L 110.541485 72.465778 
L 82.692704 22.943149 
L 78.505684 25.103981 
L 97.87632 68.077186 
L 95.100907 69.738296 
L 98.206274 80.255264 
L 95.813603 81.899979 
L 63.108875 43.62521 
L 59.581827 46.391574 
L 60.378171 54.171506 
L 57.184072 57.018515 
L 79.020974 85.419525 
L 76.800164 87.664914 
L 30.700867 50.431115 
L 27.403836 54.213093 
L 67.401761 92.289966 
L 65.402718 94.897291 
L 64.15191 98.028121 
L 62.334894 100.734791 
L 35.656363 88.405653 
L 33.550884 92.013044 
L 47.355105 103.93102 
L 45.731993 107.1629 
L 59.013395 117.023382 
L 57.796171 119.882227 
L 41.48309 117.142135 
L 40.278269 120.552113 
L 70.977886 133.572075 
L 70.275075 136.046548 
L 68.861743 138.357595 
L 68.310445 140.896238 
L 36.690123 138.21069 
L 36.150112 141.760952 
L 21.221891 143.816245 
L 20.865779 147.850091 
L 57.052569 153.382708 
L 56.979532 156.285229 
L 35.135284 159.669952 
L 35.270769 163.258492 
L 37.940021 166.634939 
L 38.293113 170.131848 
L 56.379923 170.991925 
L 56.860891 173.906889 
L 51.097214 178.160393 
L 51.806186 181.237912 
L 43.254031 186.917619 
L 44.242228 190.237415 
L 43.040821 194.326739 
L 44.262082 197.649576 
L 50.810473 198.72782 
L 52.166272 201.804186 
L 15.922843 223.619479 
L 18.07854 227.780481 
L 18.962456 232.68377 
L 21.401652 236.744719 
L 56.312832 219.160339 
L 58.308354 222.053596 
L 49.440894 233.225786 
L 51.882062 236.328158 
L 59.929113 234.579572 
L 62.407661 237.351502 
L 36.668256 267.862654 
L 40.204798 271.3495 
L 64.399808 251.812906 
L 67.418 254.435747 
L 82.059504 242.341115 
L 84.77115 244.41338 
L 61.736651 283.694974 
L 65.758602 286.385787 
L 87.424251 259.815725 
L 90.682685 261.710671 
L 101.473018 249.131153 
L 104.388559 250.589657 
L 93.581166 283.06185 
L 97.567465 284.751715 
L 115.634701 248.327429 
L 118.51797 249.341056 
L 115.6245 269.660867 
L 119.178544 270.664267 
L 119.833411 284.178777 
L 123.841848 285.042661 
L 134.131632 248.231522 
L 137.00274 248.663612 
L 139.555482 252.227984 
L 142.549566 252.487561 
L 143.004005 317.396316 
L 148.045419 317.515242 
L 152.916174 310.188355 
L 157.726052 309.999185 
L 156.301634 237.845486 
L 158.835221 237.585638 
L 162.444174 244.454355 
L 165.182521 243.998104 
L 172.000363 262.457747 
L 175.300051 261.692128 
L 185.835988 286.544989 
L 189.886191 285.332437 
L 182.614433 251.901886 
L 185.576974 250.807756 
L 199.251345 274.974252 
L 202.931106 273.345614 
L 205.10843 268.704719 
L 208.588167 266.895021 
L 194.908431 235.571209 
L 197.351422 234.098604 
L 197.495083 229.184126 
L 199.73597 227.633348 
L 210.287308 236.952711 
L 212.766132 234.995877 
L 232.182471 252.524854 
L 235.140092 249.871888 
L 232.32651 241.359871 
L 234.933007 238.707897 
L 256.775089 253.250677 
L 259.743372 249.824106 
L 257.51048 242.299176 
L 260.13406 238.854899 
L 238.646236 218.775434 
L 240.539505 215.93592 
L 259.005792 223.046998 
L 261.023302 219.565223 
L 272.998305 221.23766 
L 274.952007 217.316825 
L 248.618315 200.924591 
L 249.945384 197.780359 
L 231.40774 187.331542 
L 232.315923 184.735169 
L 240.904601 184.422195 
L 241.716612 181.528658 
L 251.118953 180.611039 
L 251.806083 177.398225 
L 235.610463 171.396469 
L 236.015535 168.675832 
L 272.596822 169.605271 
L 272.927287 165.722587 
L 281.22893 162.136998 
L 281.320308 157.986595 
L 291.806756 153.570512 
L 291.623555 149.091754 
L 308.242024 143.12528 
L 307.722276 138.134925 
L 254.999779 141.079821 
L 254.442041 137.76453 
L 302.060074 123.983871 
L 300.941535 119.197354 
L 301.231256 114.005805 
L 299.799395 109.250282 
L 288.291213 108.049741 
L 286.678478 103.704026 
L 244.68989 116.544334 
L 243.365801 113.56534 
L 226.025765 118.626251 
L 224.776364 116.233069 
L 232.545732 108.572929 
L 230.977009 105.979715 
L 273.036673 74.094701 
L 270.363859 70.245411 
L 262.429372 70.42442 
L 259.646401 66.910461 
L 225.008273 91.16113 
L 222.895811 88.813519 
L 246.047632 61.473789 
L 242.991333 58.479333 
L 216.130523 82.185124 
L 213.740226 80.121088 
L 244.275594 36.072569 
L 240.421501 33.146389 
L 213.996329 63.047358 
L 211.005353 61.059887 
L 195.475237 80.016132 
L 193.026955 78.602615 
L 203.535661 52.076392 
L 200.204906 50.423252 
L 210.818747 16.984786 
L 206.381035 15.12 
L 185.751 57.512682 
L 182.599968 56.416043 
L 179.186166 56.195642 
L 175.996969 55.306067 
L 170.253278 65.570646 
L 167.363268 64.957305 
L 171.768829 19.673203 
L 167.434954 19.034903 
L 158.918015 60.442494 
L 155.872369 60.188094 
L 153.669464 36.557296 
L 149.87541 36.479731 
L 146.16738 39.760017 
L 142.477736 39.916751 
L 139.084812 43.41609 
L 135.513625 43.793708 
L 136.508936 73.902544 
L 133.897583 74.34608 
L 124.376585 43.22351 
L 120.806615 44.063682 
L 120.602466 56.696999 
L 117.457997 57.649176 
L 111.092824 49.541004 
L 107.728057 50.795723 
L 112.684162 71.517442 
L 110.009596 72.71126 
L 81.849897 23.364764 
L 77.67655 25.551887 
L 97.31708 68.402412 
L 94.552169 70.080945 
L 97.723621 80.578175 
L 95.341341 82.237905 
L 62.396534 44.169587 
L 58.886955 46.95808 
L 59.732214 54.73285 
L 56.556084 57.599892 
L 78.571181 85.862998 
L 76.364537 88.12231 
L 30.031972 51.179186 
L 26.758793 54.981826 
L 66.995409 92.806381 
L 65.012803 95.426228 
L 63.781712 98.564862 
L 61.981755 101.282907 
L 35.226208 89.121806 
L 33.143459 92.742367 
L 47.022364 104.573287 
L 45.419612 107.815312 
L 58.762767 117.592066 
L 57.563549 120.45851 
L 41.233557 117.821073 
L 40.050206 121.238561 
L 70.831104 134.065182 
L 70.14387 136.544026 
L 68.745101 138.863917 
L 68.20978 141.405977 
L 36.573193 138.919356 
L 36.055523 142.472944 
L 21.140523 144.622086 
L 20.809789 148.658092 
L 57.03066 153.963006 
L 56.97588 156.865928 
L 35.153352 160.387972 
L 35.311404 163.975589 
L 38.001839 167.335182 
L 38.376918 170.829801 
L 56.46878 171.576105 
L 56.968072 174.487986 
L 51.23126 178.777656 
L 51.959574 181.850656 
L 43.44331 187.584038 
L 44.452367 190.897553 
L 43.276704 194.994353 
L 44.518839 198.309443 
L 51.073882 199.34648 
L 52.449003 202.414258 
L 16.343497 224.45707 
L 18.525321 228.604432 
L 19.44006 233.502064 
L 21.904748 237.547592 
L 56.704642 219.743988 
L 58.718321 222.624637 
L 49.921304 233.852377 
L 52.381936 236.939334 
L 60.417829 235.140172 
L 62.913762 237.896458 
L 37.366764 268.568893 
L 40.925166 272.033428 
L 64.996824 252.345047 
L 68.031452 254.948853 
L 82.596598 242.762374 
L 85.321224 244.817543 
L 62.53424 284.243233 
L 66.573034 286.908697 
L 88.071145 260.202897 
L 91.341432 262.077311 
L 102.052434 249.430177 
L 104.977091 250.870315 
L 94.374143 283.409838 
L 98.370991 285.074598 
L 116.208782 248.5374 
L 119.098369 249.532873 
L 116.332757 269.87048 
L 119.893041 270.851508 
L 120.632893 284.361632 
L 124.646685 285.200288 
L 134.704744 248.32516 
L 137.578512 248.739184 
L 140.153622 252.28743 
L 143.149279 252.528171 
L 144.011949 317.432784 
L 149.05401 317.52 
L 153.878587 310.162624 
L 158.687181 309.943206 
L 156.808985 237.799892 
L 159.340887 237.524115 
L 162.99297 244.369997 
L 165.728393 243.896533 
L 172.662201 262.312931 
L 175.957008 261.526573 
L 186.649047 286.312678 
L 190.691544 285.074677 
L 183.20967 251.690522 
L 186.165271 250.577781 
L 199.991366 274.657795 
L 203.660811 273.006045 
L 205.808903 268.351548 
L 209.277189 266.52 
L 195.400715 235.282846 
L 197.834395 233.794904 
L 197.947144 228.87962 
L 200.178234 227.314779 
L 210.787976 236.567596 
L 213.254444 234.59521 
L 232.780646 252.001723 
L 235.721523 249.330208 
L 232.85446 240.836055 
L 235.444227 238.16774 
L 257.377343 252.572857 
L 260.324015 249.127686 
L 258.04384 241.616949 
L 260.645706 238.156238 
L 239.032018 218.212317 
L 240.907391 215.360952 
L 259.418037 222.355746 
L 261.413609 218.861351 
L 273.398894 220.458439 
L 275.327897 216.525394 
L 248.891629 200.299108 
L 250.198896 197.146592 
L 231.595901 186.814573 
L 232.487737 184.212539 
L 241.074276 183.845553 
L 241.868073 180.946967 
L 251.264457 179.97023 
L 251.931366 176.753158 
L 235.698319 170.853383 
L 236.086271 168.130252 
L 272.67268 168.829596 
L 272.978719 164.944911 
L 281.257647 161.30718 
L 291.851863 157.156284 
z
" clip-path="url(#pe98af4792b)" style="fill: #0000ff; opacity: 0.5; stroke: #000000; stroke-width: 1.5; stroke-linejoin: miter"/>
   </g>
  </g>
 </g>
 <defs>
  <clipPath id="pe98af4792b">
   <rect x="0" y="-0" width="323.237287" height="332.64"/>
  </clipPath>
 </defs>
</svg>
