<?xml version="1.0" encoding="utf-8" standalone="no"?>
<!DOCTYPE svg PUBLIC "-//W3C//DTD SVG 1.1//EN"
  "http://www.w3.org/Graphics/SVG/1.1/DTD/svg11.dtd">
<svg xmlns:xlink="http://www.w3.org/1999/xlink" width="332.672406pt" height="332.64pt" viewBox="0 0 332.672406 332.64" xmlns="http://www.w3.org/2000/svg" version="1.1">
 <metadata>
  <rdf:RDF xmlns:dc="http://purl.org/dc/elements/1.1/" xmlns:cc="http://creativecommons.org/ns#" xmlns:rdf="http://www.w3.org/1999/02/22-rdf-syntax-ns#">
   <cc:Work>
    <dc:type rdf:resource="http://purl.org/dc/dcmitype/StillImage"/>
    <dc:date>2023-12-09T18:06:20.911935</dc:date>
    <dc:format>image/svg+xml</dc:format>
    <dc:creator>
     <cc:Agent>
      <dc:title>Matplotlib v3.8.2, https://matplotlib.org/</dc:title>
     </cc:Agent>
    </dc:creator>
   </cc:Work>
  </rdf:RDF>
 </metadata>
 <defs>
  <style type="text/css">*{stroke-linejoin: round; stroke-linecap: butt}</style>
 </defs>
 <g id="figure_1">
  <g id="patch_1">
   <path d="M 0 332.64 
L 332.672406 332.64 
L 332.672406 0 
L 0 0 
L 0 332.64 
z
" style="fill: none"/>
  </g>
  <g id="axes_1">
   <g id="patch_2">
    <path d="M 308.395948 162.76974 
L 308.327838 158.438432 
L 317.550933 153.517692 
L 317.187392 148.903105 
L 315.897989 144.400987 
L 315.248616 139.842881 
L 299.765472 138.112733 
L 298.926359 134.064977 
L 270.514356 137.09991 
L 269.657861 133.972374 
L 255.977827 135.012545 
L 255.062887 132.343101 
L 261.38229 126.803219 
L 260.206559 123.967906 
L 243.275959 128.551391 
L 242.164146 126.284516 
L 272.703713 106.593554 
L 270.886948 103.412263 
L 277.608129 94.801553 
L 275.418173 91.471886 
L 250.845625 104.42077 
L 248.97135 101.92782 
L 288.845848 64.844598 
L 285.708423 61.176404 
L 236.584013 100.751674 
L 234.601425 98.708954 
L 273.472868 53.085649 
L 269.973317 49.90663 
L 252.842427 63.2273 
L 249.671952 60.691933 
L 233.947016 75.463788 
L 231.170625 73.516484 
L 246.442431 43.060147 
L 242.641021 40.73598 
L 208.489691 93.749044 
L 206.300815 92.593133 
L 232.831114 30.220331 
L 228.632722 28.330483 
L 210.220806 62.45321 
L 207.047066 61.258343 
L 211.348837 36.946465 
L 207.372551 35.728741 
L 194.790771 68.195311 
L 191.805203 67.482759 
L 196.705972 25.099216 
L 192.364422 24.347753 
L 188.976677 15.922127 
L 184.350401 15.418228 
L 176.237227 71.629711 
L 173.368818 71.498825 
L 170.442014 36.035609 
L 166.457314 36.104535 
L 165.113744 77.1465 
L 162.424295 77.362632 
L 156.543465 52.67782 
L 153.088904 53.175519 
L 149.6517 53.78159 
L 146.235252 54.495436 
L 143.631543 58.364672 
L 140.362174 59.265538 
L 125.868345 25.852366 
L 121.5855 27.327822 
L 132.493712 66.966125 
L 129.500298 68.212936 
L 126.88416 70.264827 
L 123.997237 71.686384 
L 129.911451 89.045315 
L 127.613531 90.362402 
L 98.272925 49.272644 
L 94.740109 51.60418 
L 123.768463 98.552583 
L 121.77251 100.058118 
L 79.574263 53.194716 
L 76.17401 56.11224 
L 63.683968 49.401605 
L 60.172308 52.82063 
L 60.220535 59.573268 
L 57.030407 63.096162 
L 60.637911 72.220604 
L 57.845237 75.724121 
L 45.594169 72.397469 
L 42.814494 76.373907 
L 66.789806 97.238627 
L 64.780711 100.536346 
L 88.435942 117.859341 
L 87.064505 120.466263 
L 45.125818 104.120736 
L 43.343823 108.096215 
L 74.658793 125.074504 
L 73.521028 128.111041 
L 85.21788 135.281043 
L 84.395811 137.980533 
L 94.341058 143.414298 
L 93.770206 145.822914 
L 47.629475 139.680632 
L 46.964323 143.559809 
L 15.952459 143.702267 
L 15.429418 148.57545 
L 59.062688 156.094972 
L 58.907986 159.606548 
L 73.032753 163.076694 
L 73.090665 166.145569 
L 88.954112 168.172175 
L 89.164365 170.737928 
L 44.178323 179.166104 
L 44.756387 183.13427 
L 23.049747 191.434546 
L 24.024005 196.060975 
L 37.331563 197.480892 
L 38.48887 201.65528 
L 27.812109 209.724607 
L 29.359091 214.192254 
L 80.744705 198.729087 
L 81.919793 201.537853 
L 61.85123 214.439635 
L 63.529634 217.834686 
L 64.625541 221.557021 
L 66.526359 224.861322 
L 102.346164 206.467479 
L 103.753884 208.593222 
L 102.052331 212.999085 
L 103.665564 215.130837 
L 105.345026 217.210812 
L 107.089057 219.236952 
L 109.467648 220.666166 
L 111.318284 222.560974 
L 71.374602 269.320951 
L 74.773885 272.389431 
L 85.258382 266.829963 
L 88.572479 269.463138 
L 84.606461 282.210325 
L 88.404473 284.856393 
L 100.245261 274.720624 
L 103.800047 276.878678 
L 117.581345 260.256262 
L 120.672769 261.876383 
L 118.499826 274.817368 
L 122.048629 276.40141 
L 138.542369 244.881682 
L 141.140019 245.850344 
L 132.969074 280.473637 
L 136.688568 281.599938 
L 139.095156 287.951872 
L 143.046754 288.881858 
L 154.513527 249.445036 
L 157.246762 249.909273 
L 151.912138 316.706951 
L 156.761521 317.219726 
L 164.691209 264.928644 
L 167.90625 265.065217 
L 171.04602 248.57026 
L 173.743577 248.515112 
L 176.172158 244.448319 
L 178.737577 244.234033 
L 187.134038 288.426291 
L 191.076801 287.845595 
L 198.327787 304.136077 
L 202.758966 303.195657 
L 207.158384 302.116377 
L 211.521693 300.899302 
L 204.729014 265.91222 
L 207.955185 264.789431 
L 215.253476 273.791442 
L 218.722184 272.333845 
L 217.060907 260.110191 
L 220.098553 258.602528 
L 227.298286 264.566042 
L 230.470972 262.734291 
L 215.296941 232.320853 
L 217.461702 230.882393 
L 223.30884 234.451387 
L 225.536627 232.759962 
L 258.012173 267.227427 
L 261.253353 264.428648 
L 261.694999 258.67502 
L 264.665451 255.764673 
L 233.511994 221.157814 
L 235.316758 219.152153 
L 281.538195 253.470855 
L 284.335207 249.939168 
L 284.462022 244.484985 
L 286.975052 240.865809 
L 263.358783 220.868357 
L 265.139689 217.92439 
L 284.126765 224.306485 
L 286.005505 220.707828 
L 254.916944 201.8264 
L 256.103302 199.157278 
L 269.676217 201.304728 
L 270.838876 198.1718 
L 268.902123 194.048779 
L 269.837021 190.943778 
L 256.9289 184.370145 
L 257.565401 181.646393 
L 266.631179 180.474565 
L 267.140397 177.447678 
L 269.117304 174.593964 
L 269.440394 171.491816 
L 266.522151 168.202907 
L 266.645576 165.185516 
L 308.393223 161.903341 
L 308.297874 157.572547 
L 317.489838 152.593897 
L 317.097281 147.981688 
L 315.779587 143.487768 
L 315.101559 138.933836 
L 299.607839 137.301103 
L 298.743285 133.258704 
L 270.350932 136.472273 
L 269.474783 133.350185 
L 255.801562 134.476375 
L 254.869851 131.812739 
L 261.154286 126.233221 
L 259.960746 123.405358 
L 243.059308 128.095236 
L 241.93326 125.835399 
L 272.348378 105.95275 
L 270.511641 102.782948 
L 277.178532 94.130136 
L 274.967678 90.814309 
L 250.477057 103.917484 
L 248.58714 101.436371 
L 288.227616 64.103095 
L 285.067182 60.454707 
L 236.19265 100.338159 
L 234.197254 98.307948 
L 272.780984 52.441066 
L 269.261508 49.28412 
L 252.214736 62.712271 
L 249.028377 60.196894 
L 233.396659 75.067358 
L 230.608076 73.137554 
L 245.688026 42.585768 
L 241.872074 40.285556 
L 208.054841 93.512364 
L 205.858739 92.370243 
L 231.996224 29.831814 
L 227.786028 27.968409 
L 209.589089 62.206262 
L 206.407896 61.031379 
L 210.556675 36.692927 
L 206.572808 35.500235 
L 194.195474 68.045295 
L 191.205484 67.351534 
L 195.839587 24.938007 
L 191.493396 24.213865 
L 188.052726 15.809712 
L 183.423372 15.33492 
L 175.663897 71.596318 
L 172.794722 71.483475 
L 169.644932 36.039369 
L 165.660744 36.133355 
L 164.575332 77.182958 
L 161.887295 77.416002 
L 155.851328 52.768665 
L 152.399966 53.288081 
L 148.966642 53.915759 
L 145.554751 54.651078 
L 142.975429 58.536613 
L 139.71179 59.458024 
L 125.008098 26.136671 
L 120.734617 27.639034 
L 131.891916 67.207947 
L 128.906403 68.47356 
L 126.303222 70.541864 
L 123.425297 71.98155 
L 129.448571 89.302941 
L 127.158981 90.634455 
L 97.560524 49.730045 
L 94.042441 52.083754 
L 123.365501 98.848657 
L 121.379056 100.366715 
L 78.8869 53.769644 
L 75.505064 56.708495 
L 62.973062 50.076548 
L 59.482976 53.517592 
L 59.573671 60.269793 
L 56.405763 63.812681 
L 60.070584 72.914254 
L 57.3 76.435266 
L 45.028252 73.185732 
L 42.273641 77.179574 
L 66.379706 97.89309 
L 64.391392 101.20338 
L 88.155107 118.377255 
L 86.800094 120.99275 
L 44.759431 104.911317 
L 43.002475 108.897925 
L 74.423609 125.678925 
L 73.304966 128.722558 
L 85.046681 135.818851 
L 84.241607 138.523458 
L 94.220833 143.894566 
L 93.66514 146.306725 
L 47.486691 140.454763 
L 46.84595 144.338047 
L 15.835595 144.67555 
L 15.343214 149.551926 
L 59.022914 156.796871 
L 58.890301 160.30935 
L 73.036614 163.69059 
L 73.113826 166.75904 
L 88.989706 168.685834 
L 89.216092 171.250214 
L 44.283948 179.96116 
L 44.886958 183.925612 
L 23.232952 192.362246 
L 24.236288 196.982456 
L 37.552514 198.318648 
L 38.736052 202.485675 
L 28.110253 210.621993 
L 29.685304 215.079822 
L 80.972647 199.293774 
L 82.165377 202.095094 
L 62.178356 215.122841 
L 63.878079 218.507268 
L 64.997377 222.222637 
L 66.918939 225.514918 
L 102.622349 206.896152 
L 104.04341 209.013 
L 102.369601 213.429477 
L 103.99621 215.551041 
L 105.688721 217.620411 
L 107.44546 219.635543 
L 109.832993 221.049769 
L 111.695511 222.932899 
L 72.046712 269.943175 
L 75.465227 272.990215 
L 85.91455 267.364915 
L 89.245143 269.977194 
L 85.359377 282.749073 
L 89.173956 285.371202 
L 100.950761 275.161161 
L 104.51905 277.296814 
L 118.195529 260.588051 
L 121.297082 262.188696 
L 119.205573 275.143092 
L 122.764269 276.704783 
L 139.059442 245.081942 
L 141.663133 246.034247 
L 133.71011 280.708246 
L 137.436614 281.811131 
L 139.883105 288.147804 
L 143.840473 289.052918 
L 155.058985 249.544756 
L 157.795086 249.991794 
L 152.880686 316.821702 
L 157.733199 317.303967 
L 165.333848 264.964046 
L 168.549685 265.080396 
L 171.585649 248.566017 
L 174.282805 248.493904 
L 176.68576 244.411918 
L 179.249781 244.1815 
L 187.92402 288.320076 
L 191.863053 287.714593 
L 199.216354 303.959148 
L 203.64153 302.990878 
L 208.034074 301.883949 
L 212.389641 300.639456 
L 205.377047 265.695788 
L 208.596093 264.55273 
L 215.950857 273.50866 
L 219.410329 272.029276 
L 217.672205 259.816312 
L 220.700309 258.289575 
L 227.937406 264.207689 
L 231.098509 262.356019 
L 215.733495 232.038619 
L 217.889166 230.586572 
L 223.758635 234.11872 
L 225.975741 232.413317 
L 258.667424 266.675848 
L 261.890938 263.856739 
L 262.296388 258.100446 
L 265.248477 255.171475 
L 233.877979 220.761238 
L 235.670092 218.744265 
L 282.106461 252.771582 
L 284.881204 249.222373 
L 284.973713 243.767501 
L 287.463931 240.132591 
L 263.722357 220.284068 
L 265.484711 217.328958 
L 284.511552 223.591509 
L 286.367621 219.981106 
L 255.160921 201.295581 
L 256.330469 198.619051 
L 269.916621 200.681092 
L 271.059553 197.540914 
L 269.096907 193.430156 
L 270.012258 190.319336 
L 257.063048 183.827017 
L 257.682405 181.099316 
L 266.740634 179.870493 
L 267.230805 176.840463 
L 269.189723 173.974372 
L 269.493297 170.870253 
L 266.554426 167.599763 
L 266.658871 164.581655 
L 308.38505 161.036977 
L 308.262463 156.706868 
L 317.422933 151.670504 
L 317.001376 147.060855 
L 315.655443 142.575312 
L 314.948787 138.025734 
L 299.445105 136.49048 
L 298.555143 132.453599 
L 270.183564 135.845676 
L 269.287796 132.729161 
L 255.621929 133.941325 
L 254.673483 131.283601 
L 260.922702 125.664668 
L 259.711399 122.844368 
L 242.839793 127.640454 
L 241.699554 125.387744 
L 271.98902 105.314194 
L 270.132383 102.156007 
L 276.744721 93.461435 
L 274.513055 90.159579 
L 250.10533 103.416527 
L 248.199846 100.947349 
L 287.604733 63.365495 
L 284.421416 59.737056 
L 235.798694 99.927112 
L 233.790569 97.909492 
L 272.085059 51.800847 
L 268.545797 48.666099 
L 251.583817 62.201199 
L 248.381702 59.705912 
L 232.843819 74.674397 
L 230.043154 72.76217 
L 244.930653 42.116144 
L 241.100309 39.839978 
L 207.618511 93.278424 
L 205.41527 92.150138 
L 231.158906 29.448556 
L 226.937074 27.611667 
L 208.955832 61.963291 
L 205.767312 60.808439 
L 209.762934 36.444375 
L 205.771645 35.276764 
L 193.599245 67.899026 
L 190.60495 67.224084 
L 194.972205 24.78225 
L 190.621546 24.085458 
L 187.128087 15.703111 
L 182.495838 15.257444 
L 175.090368 71.566532 
L 172.22054 71.471737 
L 168.84789 36.048142 
L 164.864372 36.167185 
L 164.037159 77.222802 
L 161.350642 77.472747 
L 155.159776 52.863861 
L 151.711749 53.404974 
L 148.282441 54.054233 
L 144.875242 54.810996 
L 142.320409 58.712677 
L 139.062629 59.654596 
L 124.149656 26.42638 
L 119.885709 27.955591 
L 131.291653 67.453548 
L 128.314159 68.737914 
L 125.724037 70.82255 
L 122.855225 72.280308 
L 128.987322 89.563473 
L 126.706151 90.90936 
L 96.851014 50.191917 
L 93.347804 52.567707 
L 122.964408 99.147259 
L 120.987551 100.677781 
L 78.203166 54.348883 
L 74.83988 57.308946 
L 62.266415 50.755949 
L 58.79804 54.218875 
L 58.931202 60.970373 
L 55.785639 64.533115 
L 59.507631 73.611458 
L 56.759247 77.149826 
L 44.467304 73.977538 
L 41.737866 77.988626 
L 65.973731 98.55012 
L 64.006276 101.872849 
L 87.877535 118.896924 
L 86.538998 121.52089 
L 44.398024 105.704187 
L 42.666177 109.701767 
L 74.192232 126.284813 
L 73.092753 129.335422 
L 84.878869 136.357726 
L 84.09082 139.067343 
L 94.10363 144.375581 
L 93.56312 146.791187 
L 47.348778 141.229777 
L 46.732474 145.117014 
L 15.724854 145.649547 
L 15.263153 150.528924 
L 58.987556 157.499005 
L 58.877037 161.012249 
L 73.044336 164.30445 
L 73.140846 167.372353 
L 89.02853 169.199259 
L 89.27104 171.762164 
L 44.394571 180.755536 
L 45.022504 184.716117 
L 23.421987 193.288776 
L 24.454362 197.902584 
L 37.778728 199.154998 
L 38.988452 203.314498 
L 28.414036 211.517486 
L 30.017093 215.96532 
L 81.204136 199.857017 
L 82.414461 202.65078 
L 62.509773 215.803976 
L 64.230749 219.177646 
L 65.373391 222.885902 
L 67.315623 226.166032 
L 102.901224 207.32308 
L 104.335571 209.430948 
L 102.689573 213.857865 
L 104.329493 215.969157 
L 106.034985 218.027841 
L 107.804364 220.031884 
L 110.200745 221.431066 
L 112.075069 223.302445 
L 72.722722 270.561159 
L 76.160334 273.586638 
L 86.57407 267.895729 
L 89.921027 270.48701 
L 86.115665 283.283074 
L 89.946661 285.88116 
L 101.659017 275.597252 
L 105.240668 277.71042 
L 118.811789 260.91597 
L 121.923347 262.497077 
L 119.913355 275.464371 
L 123.481802 277.003649 
L 139.577764 245.278946 
L 142.187393 246.214856 
L 134.452606 280.938189 
L 138.185974 282.017615 
L 140.67227 288.338775 
L 144.635253 289.218982 
L 155.605059 249.641044 
L 158.343917 250.070864 
L 153.849937 316.930359 
L 158.705387 317.382095 
L 165.976697 264.995406 
L 169.193202 265.091527 
L 172.12524 248.558381 
L 174.821889 248.469306 
L 177.199124 244.372287 
L 179.761644 244.125748 
L 188.713319 288.208894 
L 192.648465 287.578649 
L 200.10379 303.776635 
L 204.522789 302.780552 
L 208.908284 301.646018 
L 213.255938 300.374155 
L 206.023707 265.475284 
L 209.2355 264.312002 
L 216.646446 273.221499 
L 220.096545 271.720385 
L 218.281643 259.518595 
L 221.300084 257.972843 
L 228.57426 263.845322 
L 231.723654 261.973808 
L 216.168265 231.753644 
L 218.314761 230.288069 
L 224.206329 233.783231 
L 226.412665 232.063918 
L 259.319194 266.120158 
L 262.524913 263.280831 
L 262.894151 257.522102 
L 265.82776 254.574622 
L 234.241462 220.362368 
L 236.020854 218.334164 
L 282.670317 252.068749 
L 285.422683 248.502159 
L 285.480882 243.046813 
L 287.948189 239.396313 
L 264.082248 219.697503 
L 265.825982 216.731368 
L 284.891834 222.874126 
L 286.725159 219.252121 
L 255.401555 200.763239 
L 256.554246 198.079405 
L 270.153099 200.055957 
L 271.276258 196.908652 
L 269.287796 192.810319 
L 270.183564 189.693804 
L 257.193777 183.283057 
L 257.795966 180.551515 
L 266.846287 179.265744 
L 267.317391 176.232692 
L 269.258245 173.354336 
L 269.542289 170.24837 
L 266.582907 166.996428 
L 266.668367 163.977723 
L 308.371427 160.170681 
L 308.221609 155.841428 
L 317.350222 150.74755 
L 316.899681 146.140644 
L 315.525564 141.663655 
L 314.790307 137.118611 
L 299.277276 135.680897 
L 298.361942 131.649693 
L 270.012258 135.220144 
L 269.096907 132.109324 
L 255.438934 133.407415 
L 254.473791 130.755709 
L 260.687546 125.097583 
L 259.45853 122.284957 
L 242.617421 127.187061 
L 241.463037 124.941567 
L 271.625653 104.67791 
L 269.749189 101.531463 
L 276.306712 92.795475 
L 274.054324 89.50772 
L 249.730461 102.917917 
L 247.809484 100.460772 
L 286.977223 62.631827 
L 283.771148 59.023482 
L 235.402161 99.518552 
L 233.381386 97.513602 
L 271.385121 51.165018 
L 267.826213 48.052592 
L 250.949697 61.694105 
L 247.731951 59.219008 
L 232.288519 74.284921 
L 229.475882 72.390346 
L 244.170341 41.651292 
L 240.325756 39.399262 
L 207.180719 93.047233 
L 204.970424 91.932826 
L 230.319194 29.070571 
L 226.085893 27.260271 
L 208.321058 61.724308 
L 205.125339 60.589533 
L 208.967645 36.200821 
L 204.969091 35.058335 
L 193.002107 67.75651 
L 190.003628 67.100414 
L 194.10386 24.631952 
L 189.748905 23.962536 
L 186.202795 15.602327 
L 181.567835 15.185803 
L 174.516664 71.540354 
L 171.646296 71.46361 
L 168.050918 36.061927 
L 164.068228 36.206022 
L 163.499248 77.266031 
L 160.814356 77.532867 
L 154.468837 52.963404 
L 151.024281 53.526193 
L 147.599124 54.197008 
L 144.196752 54.975185 
L 141.666509 58.892858 
L 138.414718 59.855248 
L 123.293053 26.721483 
L 119.038808 28.277481 
L 130.692947 67.70292 
L 127.723589 69.005987 
L 125.14663 71.106872 
L 122.287043 72.582645 
L 128.527719 89.826901 
L 126.255059 91.187109 
L 96.144422 50.658243 
L 92.656225 53.056019 
L 122.565202 99.448378 
L 120.59801 100.991303 
L 77.523088 54.93241 
L 74.178486 57.913568 
L 61.564056 51.439781 
L 58.117529 54.924453 
L 58.293151 61.674979 
L 55.170058 65.257435 
L 58.949074 74.312189 
L 56.222999 77.867773 
L 43.911347 74.772858 
L 41.207191 78.801033 
L 65.571896 99.209689 
L 63.625378 102.544727 
L 87.603237 119.418329 
L 86.28123 122.050661 
L 44.041611 106.499314 
L 42.33494 110.507707 
L 73.96467 126.892145 
L 72.8844 129.949608 
L 84.714448 136.897645 
L 83.943457 139.612165 
L 93.989455 144.857323 
L 93.464148 147.276281 
L 47.215742 142.005643 
L 46.623899 145.896679 
L 15.620242 146.624223 
L 15.189238 151.506407 
L 58.956614 158.201348 
L 58.868194 161.715218 
L 73.055919 164.918249 
L 73.171722 167.985485 
L 89.070582 169.71243 
L 89.329206 172.273759 
L 44.510189 181.549201 
L 45.163019 185.505754 
L 23.616846 194.214098 
L 24.678219 198.821322 
L 38.010199 199.989909 
L 39.246059 204.141718 
L 28.723444 212.411051 
L 30.354444 216.848715 
L 81.439163 200.418792 
L 82.667036 203.204888 
L 62.845467 216.483013 
L 64.587627 219.845792 
L 65.75357 223.546788 
L 67.716393 226.814638 
L 103.182779 207.748246 
L 104.630355 209.84705 
L 103.012232 214.284233 
L 104.665398 216.385168 
L 106.383805 218.433086 
L 108.165753 220.42596 
L 110.570886 221.810042 
L 112.456943 223.669596 
L 73.402606 271.17488 
L 76.859178 274.178678 
L 87.236916 268.422385 
L 90.600104 270.992564 
L 86.875298 283.812309 
L 90.722558 286.386249 
L 102.370003 276.02888 
L 105.964874 278.11948 
L 119.430098 261.240007 
L 122.551539 262.801513 
L 120.623144 275.781192 
L 124.201202 277.297996 
L 140.097314 245.472686 
L 142.712778 246.392165 
L 135.196535 281.163458 
L 138.936618 282.219382 
L 141.462621 288.52478 
L 145.431061 289.380044 
L 156.151727 249.733895 
L 158.893235 250.146481 
L 154.819852 317.032918 
L 159.678047 317.454107 
L 166.619731 265.022721 
L 169.836777 265.098611 
L 172.664773 248.547351 
L 175.360808 248.441317 
L 177.712228 244.329428 
L 180.273147 244.066777 
L 189.501903 288.09275 
L 193.433007 287.437768 
L 200.990061 303.588544 
L 205.402707 302.564687 
L 209.78098 301.402593 
L 214.120549 300.103412 
L 206.668967 265.250717 
L 209.87338 264.067258 
L 217.340215 272.929968 
L 220.780805 271.407185 
L 218.889196 259.217051 
L 221.897856 257.652344 
L 229.208823 263.478958 
L 232.346384 261.587672 
L 216.601235 231.465941 
L 218.73847 229.986894 
L 224.651904 233.444933 
L 226.847383 231.711777 
L 259.967456 265.56038 
L 263.155253 262.700947 
L 263.488265 256.94001 
L 266.403278 253.974137 
L 234.602429 219.96122 
L 236.36903 217.921865 
L 283.229741 251.362384 
L 285.959621 247.778553 
L 285.983508 242.322949 
L 288.427806 238.657004 
L 264.438444 219.108686 
L 266.163488 216.131643 
L 285.267597 222.154366 
L 287.078105 218.520903 
L 255.638836 200.229393 
L 256.774625 197.538363 
L 270.38564 199.429346 
L 271.488982 196.27504 
L 269.474783 192.189295 
L 270.350932 189.067207 
L 257.321082 182.738285 
L 257.90608 180.003009 
L 266.948135 178.660343 
L 267.400153 175.624388 
L 269.322866 172.733882 
L 269.587369 169.626191 
L 266.607593 166.392926 
L 266.674066 163.373744 
L 308.352357 159.304488 
L 308.175313 154.976263 
L 317.271707 149.825072 
L 316.7922 145.22109 
L 315.389953 140.752832 
L 314.626125 136.212503 
L 299.104358 134.872385 
L 298.163689 130.847018 
L 269.837021 134.595702 
L 268.902123 131.4907 
L 255.252584 132.874667 
L 254.270783 130.229083 
L 260.448829 124.531988 
L 259.202147 121.727148 
L 242.392203 126.735076 
L 241.223718 124.496886 
L 271.258291 104.043925 
L 269.362074 100.909342 
L 275.864524 92.132284 
L 273.591502 88.85876 
L 249.352462 102.421675 
L 247.41607 99.976661 
L 286.345111 61.902121 
L 283.116405 58.314011 
L 235.003066 99.112494 
L 232.969721 97.120293 
L 270.681198 50.533604 
L 267.102785 47.443623 
L 250.3124 61.19101 
L 247.079151 58.736199 
L 231.73078 73.898945 
L 228.906284 72.022097 
L 243.40712 41.191231 
L 239.548448 38.963426 
L 206.741481 92.8188 
L 204.524221 91.718316 
L 229.477122 28.697875 
L 225.232519 26.914236 
L 207.684795 61.489322 
L 204.482001 60.374669 
L 208.17084 35.962273 
L 204.16518 34.844959 
L 192.404086 67.617752 
L 189.401539 66.980528 
L 193.234588 24.487118 
L 188.875508 23.845105 
L 185.276887 15.507365 
L 180.639399 15.12 
L 173.942806 71.517784 
L 171.072012 71.459095 
L 167.254049 36.080726 
L 163.272344 36.249866 
L 162.96162 77.312641 
L 160.278458 77.596359 
L 153.778537 53.067292 
L 150.337589 53.651734 
L 146.916719 54.344077 
L 143.519309 55.143638 
L 141.013755 59.077147 
L 137.768082 60.05997 
L 122.438323 27.021967 
L 118.193948 28.604692 
L 130.09582 67.956053 
L 127.134717 69.27777 
L 124.571022 71.394821 
L 121.720773 72.888549 
L 128.069783 90.093214 
L 125.805723 91.467689 
L 95.440778 51.129003 
L 91.96773 53.54867 
L 122.167897 99.752002 
L 120.210448 101.307269 
L 76.846694 55.520204 
L 73.520908 58.522339 
L 60.866011 52.128017 
L 57.441469 55.634297 
L 57.659544 62.383585 
L 54.559045 65.985612 
L 58.394936 75.01642 
L 55.691277 78.589079 
L 43.360403 75.571657 
L 40.681635 79.616761 
L 65.174217 99.871774 
L 63.248713 103.218988 
L 87.332223 119.941449 
L 86.026798 122.582044 
L 43.690206 107.296668 
L 42.008779 111.315715 
L 73.740933 127.500895 
L 72.679913 130.565093 
L 84.553427 137.438588 
L 83.799524 140.157904 
L 93.878312 145.339774 
L 93.36823 147.761988 
L 47.087589 142.782331 
L 46.52023 146.677012 
L 15.521762 147.599537 
L 15.121473 152.484335 
L 58.930091 158.903872 
L 58.863772 162.418228 
L 73.071362 165.531964 
L 73.206454 168.59841 
L 89.115861 170.225326 
L 89.390589 172.784978 
L 44.630796 182.342122 
L 45.308497 186.294491 
L 23.817522 195.138177 
L 24.90785 199.738634 
L 38.246916 200.823347 
L 39.508864 204.967301 
L 29.038467 213.302652 
L 30.697345 217.72997 
L 81.677718 200.979078 
L 82.92309 203.757396 
L 63.185425 217.159925 
L 64.948701 220.511681 
L 66.137898 224.20527 
L 68.121235 227.46071 
L 103.467003 208.171632 
L 104.927751 210.261291 
L 103.337567 214.708562 
L 105.003914 216.799058 
L 106.735167 218.836128 
L 108.529614 220.817755 
L 110.943405 222.186683 
L 112.84112 224.034338 
L 74.086336 271.784312 
L 77.561732 274.766311 
L 87.903061 268.944862 
L 91.282347 271.493837 
L 87.638244 284.336756 
L 91.501616 286.886447 
L 103.083689 276.456027 
L 106.691637 278.523976 
L 120.050433 261.560149 
L 123.181633 263.101992 
L 121.334911 276.093543 
L 124.922438 277.587813 
L 140.618073 245.663154 
L 143.239268 246.566165 
L 135.941865 281.384044 
L 139.688515 282.416424 
L 142.254126 288.70581 
L 146.227867 289.536098 
L 156.698969 249.823306 
L 159.443017 250.218641 
L 155.790393 317.129375 
L 160.651141 317.52 
L 167.262924 265.045992 
L 170.480384 265.101647 
L 173.204225 248.532928 
L 175.899541 248.40994 
L 178.225052 244.283342 
L 180.784269 244.00459 
L 190.28974 287.971649 
L 194.216648 287.291955 
L 201.875131 303.394882 
L 206.281251 302.343292 
L 210.652128 301.153685 
L 214.98344 299.827235 
L 207.312801 265.022096 
L 210.509708 263.818507 
L 218.032137 272.634079 
L 221.463081 271.089687 
L 219.494841 258.911691 
L 222.4936 257.328093 
L 229.841068 263.108609 
L 232.966672 261.197628 
L 217.032386 231.17552 
L 219.160276 229.683061 
L 225.095343 233.103839 
L 227.279877 231.356909 
L 260.612184 264.996536 
L 263.781934 262.11711 
L 264.078706 256.354192 
L 266.975008 253.370045 
L 234.960866 219.55781 
L 236.714606 217.507384 
L 283.784712 250.652514 
L 286.491997 247.051585 
L 286.481571 241.595938 
L 288.902765 237.914692 
L 264.790928 218.517641 
L 266.497214 215.529807 
L 285.638825 221.432257 
L 287.426445 217.787478 
L 255.872755 199.694066 
L 256.991596 196.995945 
L 270.614235 198.801286 
L 271.697716 195.640102 
L 269.657861 191.567106 
L 270.514356 188.43957 
L 257.444958 182.192723 
L 258.012741 179.453822 
L 267.046173 178.054313 
L 267.479088 175.015575 
L 269.383583 172.113034 
L 269.628535 169.00374 
L 266.628483 165.789281 
L 308.395948 162.76974 
z
" clip-path="url(#pbeabadd7be)" style="fill: #0000ff; opacity: 0.5; stroke: #000000; stroke-width: 1.5; stroke-linejoin: miter"/>
   </g>
  </g>
 </g>
 <defs>
  <clipPath id="pbeabadd7be">
   <rect x="0" y="-0" width="332.672406" height="332.64"/>
  </clipPath>
 </defs>
</svg>
