<?xml version="1.0" encoding="utf-8" standalone="no"?>
<!DOCTYPE svg PUBLIC "-//W3C//DTD SVG 1.1//EN"
  "http://www.w3.org/Graphics/SVG/1.1/DTD/svg11.dtd">
<svg xmlns:xlink="http://www.w3.org/1999/xlink" width="316.503629pt" height="332.64pt" viewBox="0 0 316.503629 332.64" xmlns="http://www.w3.org/2000/svg" version="1.1">
 <metadata>
  <rdf:RDF xmlns:dc="http://purl.org/dc/elements/1.1/" xmlns:cc="http://creativecommons.org/ns#" xmlns:rdf="http://www.w3.org/1999/02/22-rdf-syntax-ns#">
   <cc:Work>
    <dc:type rdf:resource="http://purl.org/dc/dcmitype/StillImage"/>
    <dc:date>2023-12-09T18:06:21.029172</dc:date>
    <dc:format>image/svg+xml</dc:format>
    <dc:creator>
     <cc:Agent>
      <dc:title>Matplotlib v3.8.2, https://matplotlib.org/</dc:title>
     </cc:Agent>
    </dc:creator>
   </cc:Work>
  </rdf:RDF>
 </metadata>
 <defs>
  <style type="text/css">*{stroke-linejoin: round; stroke-linecap: butt}</style>
 </defs>
 <g id="figure_1">
  <g id="patch_1">
   <path d="M 0 332.64 
L 316.503629 332.64 
L 316.503629 0 
L 0 0 
L 0 332.64 
z
" style="fill: none"/>
  </g>
  <g id="axes_1">
   <g id="patch_2">
    <path d="M 246.409733 165.391464 
L 246.367352 162.696327 
L 247.010951 159.955319 
L 246.797349 157.243966 
L 297.062891 148.146453 
L 296.453245 143.867197 
L 297.984915 139.174693 
L 297.092721 134.870882 
L 242.215569 144.438043 
L 241.51644 141.88514 
L 277.455211 127.41237 
L 276.203335 123.759874 
L 302.1171 109.335772 
L 300.284662 104.916789 
L 273.86364 112.076313 
L 272.13134 108.544326 
L 261.494077 109.90928 
L 259.699757 106.76729 
L 235.647063 117.764336 
L 234.112502 115.431149 
L 258.732625 94.066913 
L 256.441551 91.019583 
L 271.301239 73.759016 
L 268.365426 70.326542 
L 245.634585 85.50484 
L 243.080777 82.873574 
L 231.466688 89.901048 
L 229.058111 87.713079 
L 257.559781 48.088927 
L 253.823639 45.101207 
L 245.915576 47.85899 
L 242.177961 45.237502 
L 217.290465 76.008704 
L 214.452092 74.273334 
L 207.476264 80.076223 
L 204.770635 78.647422 
L 218.42177 42.349214 
L 214.524509 40.594916 
L 197.820228 71.289221 
L 194.84309 70.168372 
L 205.85691 25.792548 
L 201.445284 24.441502 
L 194.509619 32.956684 
L 190.328859 31.95888 
L 178.074327 73.582925 
L 175.179071 73.081796 
L 179.253935 16.733727 
L 174.570633 16.223617 
L 166.418873 72.127625 
L 163.483623 71.993689 
L 160.465473 20.985188 
L 155.925136 21.063726 
L 150.991522 15.12 
L 146.271455 15.499319 
L 150.589614 86.496314 
L 148.113973 86.85298 
L 131.777299 15.249497 
L 127.070803 16.23289 
L 125.298689 28.577997 
L 121.014474 29.758502 
L 130.930474 74.377946 
L 128.083525 75.35873 
L 130.982323 90.777402 
L 128.650983 91.748447 
L 114.133783 66.963771 
L 111.062021 68.476346 
L 89.741417 36.963985 
L 85.738455 39.258341 
L 105.889662 79.442763 
L 103.214343 81.208381 
L 73.279192 45.632599 
L 69.556931 48.440278 
L 82.706577 71.556038 
L 79.794744 74.054482 
L 65.834286 64.847596 
L 62.719868 67.879859 
L 49.54689 61.517527 
L 46.335819 65.063548 
L 53.969733 77.542729 
L 51.260343 80.941763 
L 45.529742 82.162652 
L 42.969785 85.824774 
L 42.485473 90.801866 
L 40.198657 94.555434 
L 66.493892 113.928891 
L 64.92237 116.916148 
L 27.765004 103.279063 
L 25.877777 107.489306 
L 35.624382 116.273408 
L 34.14184 120.23011 
L 46.751414 128.725952 
L 45.654906 132.326639 
L 76.109934 143.934994 
L 75.477115 146.605065 
L 31.667091 141.173608 
L 30.969422 145.242424 
L 25.035045 148.669859 
L 24.576354 152.943495 
L 21.939716 157.091102 
L 21.747337 161.457898 
L 64.936855 165.692591 
L 64.993668 168.703211 
L 31.241189 173.952813 
L 31.574381 178.018814 
L 52.712315 179.391475 
L 53.205895 182.779688 
L 14.386529 193.806597 
L 15.3523 198.392729 
L 34.397222 198.276205 
L 35.493634 202.230947 
L 50.652282 201.567023 
L 51.844127 205.009044 
L 33.784802 216.155564 
L 35.443684 220.120722 
L 83.962179 201.834586 
L 85.145968 204.229138 
L 81.001693 209.581199 
L 82.430517 212.065005 
L 78.732947 217.83223 
L 80.422323 220.383291 
L 79.698964 224.705005 
L 81.603957 227.222294 
L 93.07705 221.766198 
L 94.883026 223.864304 
L 51.324124 268.900755 
L 54.632757 272.28836 
L 99.631166 230.933721 
L 101.722148 232.821219 
L 109.749488 227.478185 
L 111.726818 229.049249 
L 107.433727 239.329696 
L 109.78484 240.967713 
L 114.652712 238.608646 
L 116.977584 240.020039 
L 92.027229 291.549568 
L 96.027866 293.646179 
L 108.23762 278.112672 
L 111.807757 279.706237 
L 120.76822 267.521477 
L 123.999151 268.726289 
L 122.087665 286.009369 
L 125.899243 287.163554 
L 125.593759 304.67128 
L 129.990376 305.705999 
L 144.023332 254.976621 
L 146.848328 255.456444 
L 150.246616 251.247761 
L 152.951291 251.533754 
L 151.847035 317.26281 
L 156.626576 317.465843 
L 161.224362 278.135355 
L 164.769014 278.06289 
L 170.86606 315.631677 
L 175.584911 315.237517 
L 172.952909 258.801994 
L 175.883879 258.370316 
L 176.870361 247.994908 
L 179.459596 247.4454 
L 199.257071 312.550987 
L 203.865021 311.265673 
L 199.221984 281.973692 
L 202.868535 280.7046 
L 213.671626 297.235005 
L 217.790881 295.504039 
L 199.583041 246.943609 
L 202.127991 245.680485 
L 223.409503 278.075788 
L 226.921536 276.048115 
L 219.937607 257.665576 
L 222.809615 255.757158 
L 226.534672 255.004 
L 229.319732 252.889472 
L 245.909452 267.27394 
L 249.070726 264.54416 
L 255.334796 265.076502 
L 258.422319 262.051455 
L 268.203358 265.236849 
L 271.289559 261.807107 
L 243.78078 233.348242 
L 245.876409 230.702166 
L 252.906236 231.594387 
L 254.942208 228.662253 
L 269.972388 233.868383 
L 272.071422 230.398528 
L 284.921901 232.754012 
L 286.978505 228.814663 
L 272.094794 217.019661 
L 273.663018 213.491404 
L 275.839196 210.195608 
L 277.191005 206.552992 
L 299.767096 209.662599 
L 301.090316 205.267901 
L 276.804894 194.457907 
L 277.661397 190.792708 
L 282.199322 187.802744 
L 282.843906 183.971224 
L 277.233941 179.384838 
L 277.616302 175.713602 
L 243.188483 170.066163 
L 243.294678 167.469999 
L 246.408038 164.852351 
L 246.348707 162.157534 
L 246.975054 159.412532 
L 246.744403 156.702577 
L 296.951732 147.289102 
L 296.315184 143.013765 
L 297.817311 138.31172 
L 296.898066 134.013606 
L 242.082171 143.925724 
L 241.367 141.377268 
L 277.214035 126.678751 
L 275.939211 123.0342 
L 301.761745 108.4474 
L 299.90155 104.04003 
L 273.52608 111.365585 
L 271.7716 107.844563 
L 261.143132 109.276393 
L 259.329086 106.14575 
L 235.346033 117.293856 
L 233.796828 114.970367 
L 258.282095 93.451707 
L 255.9719 90.418847 
L 270.722735 73.065162 
L 267.765391 69.65122 
L 245.130463 84.972183 
L 242.560156 82.357031 
L 230.990496 89.457412 
L 228.568206 87.284634 
L 256.820099 47.482007 
L 253.065239 44.517844 
L 245.174678 47.32531 
L 241.420649 44.727382 
L 216.727179 75.654503 
L 213.877947 73.937019 
L 206.938754 79.783667 
L 204.224192 78.371912 
L 217.646762 41.988564 
L 213.738545 40.258812 
L 197.227644 71.05757 
L 194.243516 69.955468 
L 204.978019 25.51125 
L 200.557983 24.187978 
L 193.67601 32.746613 
L 189.489057 31.775124 
L 177.496559 73.475419 
L 174.598209 72.992509 
L 178.318595 16.619927 
L 173.632177 16.139282 
L 165.832183 72.093454 
L 162.896148 71.977981 
L 159.557244 20.989473 
L 155.01749 21.096565 
L 150.046592 15.183986 
L 145.329003 15.592985 
L 150.093608 86.561416 
L 147.620259 86.933646 
L 130.833563 15.434327 
L 126.133346 16.447302 
L 124.43891 28.803311 
L 120.162204 30.010737 
L 130.358639 74.566933 
L 127.517915 75.565603 
L 130.513631 90.965738 
L 128.188444 91.951427 
L 113.51565 67.258546 
L 110.453462 68.790411 
L 88.935084 37.412767 
L 84.946632 39.732255 
L 105.350178 79.789142 
L 102.686016 81.571552 
L 72.527706 46.184748 
L 68.823177 49.015782 
L 82.117948 72.048381 
L 79.221886 74.56509 
L 65.203799 65.446189 
L 62.108513 68.49798 
L 48.89578 62.218625 
L 45.707075 65.784771 
L 53.419325 78.215693 
L 50.731366 81.6317 
L 45.008558 82.888607 
L 42.471684 86.566757 
L 42.018684 91.546797 
L 39.755522 95.314674 
L 66.172084 114.522365 
L 64.619382 117.519446 
L 27.376981 104.11633 
L 25.516272 108.338359 
L 35.317931 117.060987 
L 33.860304 121.026936 
L 46.523063 129.443303 
L 45.449222 133.050815 
L 75.976658 144.467395 
L 75.360645 147.141393 
L 31.517326 141.985584 
L 30.845262 146.058708 
L 24.932559 149.523399 
L 24.500756 153.799835 
L 21.890255 157.963942 
L 21.725346 162.331862 
L 64.940643 166.294834 
L 65.01639 169.305037 
L 31.297596 174.76682 
L 31.656354 178.830645 
L 52.802503 180.070333 
L 53.317383 183.455374 
L 14.568137 194.726217 
L 15.562734 199.306184 
L 34.606546 199.069881 
L 35.72781 203.017649 
L 50.881982 202.258398 
L 52.095452 205.692855 
L 34.10659 216.952738 
L 35.790377 220.907384 
L 84.192903 202.316456 
L 85.391729 204.703515 
L 81.281198 210.081536 
L 82.725615 212.556306 
L 79.064391 218.346673 
L 80.769778 220.887058 
L 80.073615 225.213236 
L 81.994403 227.718493 
L 93.432953 222.190346 
L 95.252089 224.277052 
L 51.977302 269.586573 
L 55.307176 272.953301 
L 100.044597 231.316466 
L 102.14741 233.190775 
L 110.140986 227.79736 
L 112.128158 229.355956 
L 107.89981 239.663202 
L 110.261178 241.286399 
L 115.114117 238.896763 
L 117.44782 240.293505 
L 92.82205 291.978938 
L 96.835795 294.050347 
L 108.94761 278.440354 
L 112.527699 280.011433 
L 121.411349 267.770559 
L 124.649794 268.955026 
L 122.847046 286.249786 
L 126.665809 287.379975 
L 126.470445 304.889277 
L 130.873482 305.896323 
L 144.587102 255.079689 
L 147.415059 255.541735 
L 150.78681 251.311762 
L 153.49323 251.580738 
L 152.802394 317.31544 
L 157.583118 317.488407 
L 161.933447 278.129781 
L 165.477573 278.035023 
L 171.810784 315.56472 
L 176.527063 315.140888 
L 173.540166 258.723035 
L 176.468363 258.272932 
L 177.38957 247.891525 
L 179.975297 247.325743 
L 200.181858 312.305527 
L 204.781634 310.991258 
L 199.954458 281.729058 
L 203.592955 280.437056 
L 214.499799 296.899189 
L 218.608086 295.142349 
L 200.095189 246.697397 
L 202.632144 245.418291 
L 224.116983 277.679105 
L 227.616193 275.629383 
L 220.516787 257.291133 
L 223.376735 255.364689 
L 227.096982 254.588118 
L 229.868688 252.456115 
L 246.548549 266.735959 
L 249.692593 263.98635 
L 255.959887 264.479284 
L 259.028322 261.434878 
L 268.829202 264.558692 
L 271.893771 261.109608 
L 244.206546 232.82432 
L 246.285491 230.165116 
L 253.320791 231.013105 
L 255.338281 228.068225 
L 270.400908 233.17972 
L 272.478076 229.696732 
L 285.343116 231.971347 
L 287.374903 228.019141 
L 272.417303 216.317983 
L 273.963305 212.779932 
L 276.118711 209.470515 
L 277.447583 205.819469 
L 300.042786 208.787023 
L 301.338339 204.38409 
L 276.985408 193.727051 
L 277.818843 190.056538 
L 282.337873 187.038092 
L 282.958346 183.202594 
L 277.319646 178.651581 
L 277.67891 174.978013 
L 243.216253 169.547218 
L 243.306117 166.950437 
L 246.402952 164.31326 
L 246.326673 161.61887 
L 246.935743 158.869982 
L 246.688053 156.161531 
L 296.835184 146.432467 
L 296.171759 142.161218 
L 297.644283 137.449818 
L 296.698023 133.15757 
L 241.945554 143.414254 
L 241.214369 140.870347 
L 276.968249 125.946662 
L 275.670528 122.310201 
L 301.400809 107.561281 
L 299.512931 103.165698 
L 273.184056 110.656995 
L 271.407465 107.147077 
L 260.788213 108.645725 
L 258.954513 105.526554 
L 235.042049 116.825279 
L 233.478262 114.51158 
L 257.827704 92.839347 
L 255.498481 89.821076 
L 270.139878 72.374961 
L 267.161122 68.979686 
L 244.623001 84.442706 
L 242.036297 81.843772 
L 230.511523 89.01678 
L 228.075615 86.859279 
L 256.076614 46.879752 
L 252.303185 43.939263 
L 244.430438 46.7963 
L 240.660144 44.222034 
L 216.161676 75.303851 
L 213.301699 73.604322 
L 206.399415 79.494498 
L 203.676028 78.099843 
L 216.869502 41.632795 
L 212.950482 39.927657 
L 196.633615 70.829651 
L 193.642614 69.746339 
L 204.097376 25.235486 
L 199.669104 23.94004 
L 192.841097 32.54179 
L 188.648117 31.596653 
L 176.918127 73.371549 
L 174.016797 72.906878 
L 177.382558 16.512011 
L 172.69321 16.060851 
L 165.24529 72.062974 
L 162.308587 71.96597 
L 158.64906 20.999469 
L 154.110069 21.135112 
L 149.102083 15.253914 
L 144.38716 15.692575 
L 149.598022 86.629637 
L 147.127063 87.017415 
L 129.891009 15.625089 
L 125.197255 16.667605 
L 123.580565 29.034027 
L 119.311538 30.268327 
L 129.788004 74.759512 
L 126.953617 75.776029 
L 130.046132 91.157018 
L 127.727191 92.157312 
L 112.899383 67.557203 
L 109.846889 69.108297 
L 88.13159 37.866612 
L 84.157805 40.211139 
L 104.812882 80.138908 
L 102.159984 81.938037 
L 71.779707 46.741612 
L 68.093057 49.59589 
L 81.532427 72.544417 
L 78.652251 75.079291 
L 64.577088 66.048736 
L 61.501057 69.119934 
L 48.249093 62.923804 
L 45.08288 66.509935 
L 52.87316 78.892105 
L 50.20674 82.32495 
L 44.491949 83.617826 
L 41.97826 87.311858 
L 41.556591 92.294649 
L 39.317171 96.076685 
L 65.854016 115.117851 
L 64.320194 118.124639 
L 26.994232 104.956021 
L 25.160114 109.18967 
L 35.01644 117.850479 
L 33.583785 121.825516 
L 46.299227 130.162075 
L 45.248097 133.776269 
L 75.846733 145.000623 
L 75.24755 147.678443 
L 31.372671 142.798486 
L 30.726238 146.875756 
L 24.835443 150.377566 
L 24.430545 154.656634 
L 21.846286 158.837077 
L 21.708851 163.205948 
L 64.948219 166.897041 
L 65.042896 169.906708 
L 31.35912 175.580455 
L 31.743431 179.641943 
L 52.896959 180.74861 
L 53.433118 184.130346 
L 14.755527 195.644676 
L 15.778909 200.218298 
L 34.820858 199.862224 
L 35.966929 203.802862 
L 51.116026 202.948315 
L 52.351073 206.375072 
L 34.433385 217.747872 
L 36.142011 221.69185 
L 84.426654 202.796865 
L 85.640469 205.176337 
L 81.563844 210.580104 
L 83.023797 213.045741 
L 79.399063 218.85902 
L 81.120394 221.388629 
L 80.451454 225.7191 
L 82.387961 228.212227 
L 93.791516 222.612247 
L 95.62374 224.68747 
L 52.63478 270.26827 
L 55.985763 273.613988 
L 100.460428 231.696604 
L 102.574987 233.55765 
L 110.534483 228.114066 
L 112.531419 229.660133 
L 108.367981 239.993769 
L 110.739512 241.602082 
L 115.577325 239.181971 
L 117.919766 240.564008 
L 93.619556 292.403301 
L 97.646249 294.449425 
L 109.659647 278.763565 
L 113.249547 280.312096 
L 122.056033 268.01559 
L 125.301863 269.179666 
L 123.607925 286.485422 
L 127.43372 287.591571 
L 127.348484 305.101755 
L 131.757768 306.081088 
L 145.151509 255.179209 
L 147.982316 255.62346 
L 151.327396 251.372364 
L 154.035454 251.624313 
L 153.758066 317.362059 
L 158.539783 317.504956 
L 162.642482 278.119746 
L 166.185942 278.002699 
L 172.755069 315.491822 
L 177.468589 315.038336 
L 174.126915 258.640385 
L 177.052223 258.171874 
L 177.908119 247.784878 
L 180.490236 247.202845 
L 201.105083 312.054256 
L 205.696502 310.711082 
L 200.685379 281.479822 
L 204.315678 280.164962 
L 215.325844 296.558171 
L 219.423 294.775527 
L 200.605778 246.447969 
L 203.134638 245.152932 
L 224.821954 277.27798 
L 228.308204 275.206291 
L 221.093601 256.913054 
L 223.941376 254.968662 
L 227.656665 254.168707 
L 230.414907 252.019314 
L 247.184251 266.193969 
L 250.310938 263.42464 
L 256.581209 263.878147 
L 259.630436 260.814502 
L 269.450769 263.876613 
L 272.493585 260.408322 
L 244.629009 232.29773 
L 246.691188 229.625503 
L 253.731682 230.429228 
L 255.73061 227.471717 
L 270.825088 232.488376 
L 272.880309 228.992392 
L 285.759401 231.186049 
L 287.76629 227.221142 
L 272.735392 215.61429 
L 274.259111 212.066586 
L 276.39366 208.743678 
L 277.699543 205.084346 
L 300.312963 207.909731 
L 301.580799 203.498737 
L 277.161323 192.995074 
L 277.971656 189.319392 
L 282.471612 186.272584 
L 283.06795 182.433259 
L 277.400738 177.917801 
L 277.73689 174.242046 
L 243.240758 169.028109 
L 243.314288 166.430813 
L 246.394475 163.774211 
L 246.301252 161.080354 
L 246.893021 158.32769 
L 246.628301 155.620851 
L 296.71325 145.576582 
L 296.022974 141.30959 
L 297.465837 136.589022 
L 296.4926 132.302811 
L 241.805723 142.903653 
L 241.058552 140.364395 
L 276.717864 125.216134 
L 275.397298 121.587907 
L 301.034306 106.67745 
L 299.11882 102.293827 
L 272.837582 109.950569 
L 271.038951 106.451895 
L 260.429335 108.017302 
L 258.576053 104.909726 
L 234.735125 116.358624 
L 233.156816 114.054805 
L 257.369472 92.229857 
L 255.021311 89.226295 
L 269.552693 71.688439 
L 266.552641 68.311966 
L 244.112219 83.916432 
L 241.509221 81.333818 
L 230.029789 88.579168 
L 227.58036 86.437031 
L 255.329356 46.282184 
L 251.537508 43.365486 
L 243.682885 46.271982 
L 239.896475 43.72148 
L 215.593979 74.956764 
L 212.723369 73.275255 
L 205.858268 79.208726 
L 203.126163 77.831228 
L 216.090019 41.281921 
L 212.160353 39.601466 
L 196.038164 70.605472 
L 193.040408 69.540993 
L 203.215016 24.965267 
L 198.778684 23.697697 
L 192.004912 32.342221 
L 187.80607 31.423474 
L 176.339053 73.271319 
L 173.434858 72.824905 
L 176.445861 16.409985 
L 171.753768 15.988327 
L 164.658217 72.036186 
L 161.720962 71.957653 
L 157.740956 21.015177 
L 153.202909 21.179365 
L 148.158032 15.329781 
L 143.445961 15.798088 
L 149.102874 86.700973 
L 146.634402 87.104284 
L 128.949672 15.821775 
L 124.262568 16.893792 
L 122.723688 29.270137 
L 118.462508 30.531263 
L 129.218592 74.955677 
L 126.390654 75.990001 
L 129.579846 91.351235 
L 127.267242 92.366094 
L 112.285006 67.85973 
L 109.242328 69.429991 
L 87.330966 38.325501 
L 83.372005 40.694975 
L 104.277797 80.492045 
L 101.636267 82.307825 
L 71.035225 47.30317 
L 67.3666 50.180579 
L 80.950037 73.044126 
L 78.085862 75.597064 
L 63.95418 66.655213 
L 60.897526 69.745696 
L 47.606853 63.633036 
L 44.463258 67.239009 
L 52.331261 79.571938 
L 49.686484 83.021486 
L 43.979938 84.350279 
L 41.489531 88.060048 
L 41.099209 93.045392 
L 38.883621 96.841438 
L 65.539699 115.715326 
L 64.024819 118.731701 
L 26.616772 105.798103 
L 24.809317 110.043203 
L 34.71992 118.64185 
L 33.312294 122.62582 
L 46.079917 130.882241 
L 45.051539 134.502975 
L 75.720164 145.534659 
L 75.137835 148.216194 
L 31.233132 143.612281 
L 30.612355 147.693537 
L 24.743701 151.232327 
L 24.365724 155.513857 
L 21.807809 159.710471 
L 21.697854 164.08012 
L 64.959582 167.499189 
L 65.073186 170.508201 
L 31.425761 176.393688 
L 31.835609 180.452678 
L 52.995679 181.426279 
L 53.553097 184.804576 
L 14.948689 196.561939 
L 16.000816 201.129033 
L 35.040149 200.653204 
L 36.210981 204.586556 
L 51.354405 203.636747 
L 52.61098 207.055668 
L 34.765174 218.540935 
L 36.498572 222.474088 
L 84.663421 203.275794 
L 85.892178 205.647585 
L 81.84962 211.076885 
L 83.325052 213.533291 
L 79.736952 219.369252 
L 81.474159 221.887985 
L 80.832468 226.222577 
L 82.784617 228.703476 
L 94.152725 223.031885 
L 95.997965 225.095543 
L 53.296533 270.945817 
L 56.668493 274.270394 
L 100.878641 232.074118 
L 103.004863 233.921828 
L 110.929965 228.428291 
L 112.936585 229.961768 
L 108.838222 240.321385 
L 111.219822 241.914751 
L 116.042318 239.464261 
L 118.393405 240.831538 
L 94.419715 292.82264 
L 98.459198 294.843397 
L 110.373703 279.08229 
L 113.973271 280.608212 
L 122.702245 268.256562 
L 125.955332 269.400201 
L 124.370271 286.716268 
L 128.202948 287.798333 
L 128.227842 305.308707 
L 132.643198 306.260289 
L 145.71653 255.275178 
L 148.550075 255.701615 
L 151.868352 251.429565 
L 154.577941 251.664477 
L 154.714012 317.402667 
L 159.496533 317.515487 
L 163.351441 278.105252 
L 166.894095 277.965922 
L 173.698877 315.412987 
L 178.409451 314.929864 
L 174.713132 258.554046 
L 177.635435 258.067145 
L 178.425986 247.674973 
L 181.004392 247.076711 
L 202.02671 311.797183 
L 206.60959 310.425159 
L 201.414718 281.225993 
L 205.036675 279.888327 
L 216.149727 296.211964 
L 220.235591 294.403587 
L 201.114788 246.195334 
L 203.635453 244.884418 
L 225.524388 276.872429 
L 228.997539 274.778855 
L 221.668025 256.531356 
L 224.503515 254.569091 
L 228.213699 253.745785 
L 230.958368 251.579087 
L 247.816531 265.647991 
L 250.925739 262.859052 
L 257.198738 263.273113 
L 260.228636 260.190352 
L 270.068034 263.190637 
L 273.088976 259.703277 
L 245.048151 231.768494 
L 247.093483 229.08335 
L 254.138892 229.842778 
L 256.11918 226.872754 
L 271.244911 231.794377 
L 273.278104 228.285537 
L 286.170738 230.398148 
L 288.15265 226.420697 
L 273.049049 214.908611 
L 274.550425 211.351393 
L 276.664033 208.015126 
L 277.946875 204.347653 
L 300.577618 207.030757 
L 301.817685 202.611876 
L 277.332631 192.262005 
L 278.119829 188.5813 
L 282.600534 185.50625 
L 283.172712 181.66325 
L 277.477213 177.183524 
L 277.79024 173.505728 
L 243.261998 168.508855 
L 243.319191 165.911149 
L 246.382609 163.235227 
L 246.272444 160.542009 
L 246.846889 157.785678 
L 246.565149 155.080557 
L 296.585935 144.721481 
L 295.868836 140.458914 
L 297.281981 135.729365 
L 296.281806 131.44936 
L 241.662683 142.393942 
L 240.899556 139.859433 
L 276.462889 124.487195 
L 275.119529 120.867345 
L 300.662253 105.795941 
L 298.719234 101.424452 
L 272.486672 109.246337 
L 270.666072 105.759044 
L 260.066511 107.391149 
L 258.193721 104.295291 
L 234.425272 115.893907 
L 232.832505 113.600061 
L 256.907414 91.623261 
L 254.540409 88.634527 
L 268.9612 71.005623 
L 265.939972 67.648086 
L 243.598138 83.393381 
L 240.978948 80.82719 
L 229.545312 88.144596 
L 227.082458 86.017906 
L 254.578354 45.689328 
L 250.768237 42.796536 
L 242.93205 45.752376 
L 239.129673 43.225738 
L 215.02411 74.613253 
L 212.142981 72.949833 
L 205.315334 78.926364 
L 202.574619 77.566076 
L 215.308344 40.935957 
L 211.368187 39.28025 
L 195.441314 70.385043 
L 192.436923 69.339439 
L 202.330974 24.700602 
L 197.886757 23.460959 
L 191.167488 32.147915 
L 186.962951 31.255595 
L 175.75936 73.174734 
L 172.852414 72.746594 
L 175.50854 16.313852 
L 170.813888 15.921713 
L 164.070987 72.01309 
L 161.133296 71.953033 
L 156.83297 21.036596 
L 152.296045 21.229323 
L 147.214477 15.411584 
L 142.505445 15.909518 
L 148.608184 86.775422 
L 146.142299 87.19425 
L 128.009591 16.024378 
L 123.329322 17.125853 
L 121.868313 29.511632 
L 117.615149 30.799533 
L 128.650425 75.155419 
L 125.829048 76.207508 
L 129.11479 91.548381 
L 126.808614 92.577764 
L 111.672544 68.166115 
L 108.639803 69.755482 
L 86.533244 38.789417 
L 82.589265 41.183743 
L 103.744944 80.848541 
L 101.114886 82.680898 
L 70.29429 47.869399 
L 66.643834 50.769824 
L 80.370802 73.547487 
L 77.52274 76.118389 
L 63.335098 67.265595 
L 60.297942 70.375242 
L 46.969087 64.346293 
L 43.848233 67.971967 
L 51.793648 80.255167 
L 49.170619 83.72128 
L 43.472543 85.085938 
L 41.005518 88.811297 
L 40.646559 93.798997 
L 38.454889 97.608903 
L 65.229147 116.314766 
L 63.733267 119.340609 
L 26.244615 106.642542 
L 24.463895 110.898927 
L 34.428383 119.435071 
L 33.045841 123.427815 
L 45.86514 131.603772 
L 44.859555 135.230902 
L 75.596957 146.069479 
L 75.031505 148.754624 
L 31.098714 144.426938 
L 30.503618 148.512017 
L 24.657337 152.087648 
L 24.306296 156.37147 
L 21.774825 160.584089 
L 21.692356 164.954343 
L 64.974732 168.101254 
L 65.107259 171.109491 
L 31.497516 177.206485 
L 31.932884 181.262817 
L 53.098659 182.103314 
L 53.677313 185.478038 
L 15.147616 197.477969 
L 16.228447 202.038355 
L 35.264411 201.442789 
L 36.459958 205.368699 
L 51.597108 204.323665 
L 52.875162 207.734615 
L 35.101945 219.331895 
L 36.860046 223.254069 
L 84.903196 203.753225 
L 86.146846 206.117241 
L 82.138515 211.571859 
L 83.629367 214.018936 
L 80.078043 219.877349 
L 81.831057 222.385106 
L 81.216641 226.723649 
L 83.184354 229.192221 
L 94.516567 223.449243 
L 96.37475 225.501255 
L 53.962534 271.61919 
L 57.355337 274.922493 
L 101.29922 232.448995 
L 103.437021 234.283295 
L 111.327415 228.740023 
L 113.34364 230.260849 
L 109.310515 240.646038 
L 111.702088 242.224393 
L 116.509077 239.74362 
L 118.868717 241.096083 
L 95.222496 293.236938 
L 99.274608 295.232249 
L 111.089749 279.396518 
L 114.698843 280.899771 
L 123.349959 268.493465 
L 126.610175 269.616621 
L 125.134054 286.942315 
L 128.97346 288.000253 
L 129.108484 305.510124 
L 133.529738 306.433917 
L 146.282144 255.367591 
L 149.118315 255.776198 
L 152.409657 251.483362 
L 155.120671 251.701228 
L 155.670195 317.437262 
L 160.453331 317.52 
L 164.060294 278.0863 
L 167.602002 277.924691 
L 174.64217 315.328217 
L 179.349613 314.815477 
L 175.298794 258.464022 
L 178.217978 257.958751 
L 178.943152 247.561812 
L 181.517744 246.947345 
L 202.946701 311.534319 
L 207.520861 310.133498 
L 202.142446 280.967583 
L 205.755919 279.607163 
L 216.971417 295.860582 
L 221.045826 294.026543 
L 201.622199 245.939502 
L 204.134569 244.612759 
L 226.224258 276.462469 
L 229.684173 274.347091 
L 222.240037 256.146052 
L 225.06313 254.165992 
L 228.768062 253.319367 
L 231.49905 251.13545 
L 248.445364 265.098048 
L 251.53697 262.289609 
L 257.812449 262.664208 
L 260.822899 259.562451 
L 270.680972 262.500793 
L 273.67992 258.994502 
L 245.463957 231.236632 
L 247.49236 228.538677 
L 254.542406 229.253779 
L 256.503975 226.271358 
L 271.660361 231.097752 
L 273.671445 227.576194 
L 286.577111 229.607675 
L 288.533969 225.617838 
L 273.358262 214.200973 
L 274.837235 210.634382 
L 276.929818 207.284888 
L 278.189568 203.609419 
L 300.836739 206.150135 
L 302.048989 201.723542 
L 277.499324 191.527874 
L 278.263358 187.84229 
L 282.724634 184.739119 
L 283.27263 180.892597 
L 277.549069 176.448782 
L 277.838958 172.769089 
L 243.279971 167.989478 
L 246.409733 165.391464 
z
" clip-path="url(#pd15b3ef459)" style="fill: #0000ff; opacity: 0.5; stroke: #000000; stroke-width: 1.5; stroke-linejoin: miter"/>
   </g>
  </g>
 </g>
 <defs>
  <clipPath id="pd15b3ef459">
   <rect x="0" y="-0" width="316.503629" height="332.64"/>
  </clipPath>
 </defs>
</svg>
