<?xml version="1.0" encoding="utf-8" standalone="no"?>
<!DOCTYPE svg PUBLIC "-//W3C//DTD SVG 1.1//EN"
  "http://www.w3.org/Graphics/SVG/1.1/DTD/svg11.dtd">
<svg xmlns:xlink="http://www.w3.org/1999/xlink" width="332.340019pt" height="332.64pt" viewBox="0 0 332.340019 332.64" xmlns="http://www.w3.org/2000/svg" version="1.1">
 <metadata>
  <rdf:RDF xmlns:dc="http://purl.org/dc/elements/1.1/" xmlns:cc="http://creativecommons.org/ns#" xmlns:rdf="http://www.w3.org/1999/02/22-rdf-syntax-ns#">
   <cc:Work>
    <dc:type rdf:resource="http://purl.org/dc/dcmitype/StillImage"/>
    <dc:date>2023-12-09T18:06:21.138827</dc:date>
    <dc:format>image/svg+xml</dc:format>
    <dc:creator>
     <cc:Agent>
      <dc:title>Matplotlib v3.8.2, https://matplotlib.org/</dc:title>
     </cc:Agent>
    </dc:creator>
   </cc:Work>
  </rdf:RDF>
 </metadata>
 <defs>
  <style type="text/css">*{stroke-linejoin: round; stroke-linecap: butt}</style>
 </defs>
 <g id="figure_1">
  <g id="patch_1">
   <path d="M 0 332.64 
L 332.340019 332.64 
L 332.340019 0 
L 0 0 
L 0 332.64 
z
" style="fill: none"/>
  </g>
  <g id="axes_1">
   <g id="patch_2">
    <path d="M 251.802735 170.861955 
L 251.757849 168.007495 
L 317.233654 161.023858 
L 316.847086 156.116971 
L 310.871343 151.91197 
L 310.201423 147.209634 
L 308.615248 142.67748 
L 307.65609 138.050646 
L 258.040742 145.924823 
L 257.208693 142.886557 
L 280.097316 132.129454 
L 278.820605 128.404501 
L 265.786502 129.335575 
L 264.429021 126.061967 
L 275.713146 116.828998 
L 273.957524 113.249459 
L 292.659082 98.405581 
L 290.315808 94.302333 
L 284.541909 92.373416 
L 282.012984 88.528372 
L 250.252551 105.943737 
L 248.16726 103.170116 
L 244.790438 101.461993 
L 242.566932 98.862329 
L 261.356624 76.495449 
L 258.339925 73.387252 
L 257.903369 67.520713 
L 254.606191 64.525531 
L 251.714801 61.032039 
L 248.216665 58.234648 
L 247.848223 51.1135 
L 244.040138 48.442587 
L 223.821216 71.680028 
L 220.671668 69.754408 
L 235.149156 35.676369 
L 230.861973 33.412374 
L 199.911874 87.965579 
L 197.2862 86.783669 
L 191.75233 92.964989 
L 189.287883 92.037161 
L 185.590944 94.910394 
L 183.190711 94.175331 
L 190.256386 56.359758 
L 186.64173 55.497064 
L 186.059026 38.600213 
L 181.888047 37.878274 
L 177.405533 39.617617 
L 173.270822 39.16726 
L 166.629955 79.467075 
L 163.753525 79.335823 
L 160.773484 15.12 
L 155.876737 15.204703 
L 155.068977 78.704176 
L 152.174277 78.936803 
L 143.323891 32.683235 
L 138.987998 33.307907 
L 133.637871 28.689087 
L 129.181182 29.620284 
L 123.383885 25.387389 
L 118.828453 26.642626 
L 134.017834 88.293287 
L 131.435044 89.183067 
L 122.801561 74.884471 
L 119.802714 76.133545 
L 106.135837 54.837343 
L 102.514905 56.620336 
L 118.253005 93.453057 
L 115.840244 94.835966 
L 106.319188 85.075875 
L 103.648931 86.838152 
L 110.724959 101.958495 
L 108.58335 103.573898 
L 74.979271 67.336708 
L 71.76675 70.093152 
L 60.586451 64.410341 
L 57.289035 67.620774 
L 95.262859 109.408502 
L 93.363139 111.506383 
L 70.986029 96.751951 
L 68.700362 99.619408 
L 64.603051 101.182051 
L 62.459833 104.248011 
L 70.34213 113.644526 
L 68.587921 116.523875 
L 56.622932 113.828673 
L 54.881297 117.139293 
L 60.334994 123.816123 
L 58.905551 127.00509 
L 54.663243 129.093072 
L 53.402523 132.457762 
L 37.348199 131.065698 
L 36.158064 134.973835 
L 63.918053 146.230056 
L 63.191581 149.295281 
L 41.793673 148.483682 
L 41.149 152.243432 
L 60.04149 158.4152 
L 59.700062 161.596288 
L 23.52237 162.636777 
L 23.331734 166.964019 
L 17.798911 171.312344 
L 17.883884 175.815254 
L 61.841797 177.421062 
L 62.097066 180.536148 
L 15.106364 189.779954 
L 15.773331 194.358394 
L 49.619461 192.497531 
L 50.35481 195.98946 
L 29.993204 204.978254 
L 31.130678 209.081104 
L 37.600941 211.435239 
L 38.937675 215.295693 
L 40.395129 219.112208 
L 41.971862 222.881011 
L 38.010795 229.284467 
L 39.908545 233.123208 
L 72.725791 219.821479 
L 74.30884 222.573384 
L 75.977633 225.274154 
L 77.730518 227.921118 
L 53.04631 249.932493 
L 55.585845 253.288276 
L 51.016394 262.576629 
L 53.954492 265.989986 
L 77.461394 249.942589 
L 79.989175 252.530703 
L 77.79578 260.191699 
L 80.64565 262.764232 
L 99.957249 245.280055 
L 102.327307 247.163156 
L 75.937786 288.977779 
L 79.693673 291.594499 
L 98.527731 270.240888 
L 101.683319 272.156595 
L 111.257937 262.286316 
L 114.157123 263.80569 
L 98.611817 304.968399 
L 102.859273 306.864291 
L 125.400558 261.975541 
L 128.282979 263.050394 
L 136.207632 248.381168 
L 138.657273 249.122944 
L 128.124455 301.392386 
L 132.244882 302.362104 
L 136.250595 303.971206 
L 140.448087 304.684146 
L 147.028991 285.842385 
L 150.651144 286.225392 
L 155.785232 260.711429 
L 158.612884 260.831546 
L 161.549974 283.558536 
L 165.093138 283.486101 
L 169.266766 292.672325 
L 173.092672 292.352751 
L 180.26762 317.52 
L 184.869352 316.84225 
L 187.040801 303.731621 
L 191.205648 302.847725 
L 181.254624 248.082062 
L 183.672588 247.40761 
L 188.524011 254.088398 
L 191.127233 253.182411 
L 206.540162 284.147296 
L 210.079594 282.65998 
L 213.907385 281.768522 
L 217.36838 280.050741 
L 225.721544 287.114919 
L 229.344801 285.023031 
L 237.551689 290.062485 
L 241.261775 287.597174 
L 236.088043 273.033362 
L 239.263419 270.62249 
L 253.910128 281.920213 
L 257.356115 278.944582 
L 222.986876 236.132299 
L 225.008479 234.151602 
L 272.270516 274.18191 
L 275.464115 270.632815 
L 232.503362 229.328586 
L 234.306337 227.052033 
L 233.493841 222.894224 
L 235.094016 220.58971 
L 230.652316 214.495964 
L 231.989836 212.284946 
L 269.032585 229.431945 
L 270.820749 226.006783 
L 251.908123 212.983849 
L 253.18759 210.105249 
L 278.444656 216.553112 
L 279.823227 212.838382 
L 301.965352 215.729132 
L 303.306387 211.275266 
L 269.583628 198.039129 
L 270.38446 194.612163 
L 307.250309 197.833658 
L 308.026058 193.22247 
L 263.587974 183.177704 
L 263.924494 179.946602 
L 253.220071 176.086639 
L 253.338759 173.185032 
L 251.800939 170.290972 
L 251.738101 167.436852 
L 317.168689 160.041547 
L 316.751266 155.137188 
L 310.749195 150.969855 
L 310.049712 146.271825 
L 308.435064 141.749737 
L 307.446825 137.129027 
L 257.881983 145.315101 
L 257.030842 142.282128 
L 279.851355 131.381281 
L 278.551242 127.664432 
L 265.523252 128.677464 
L 264.145209 125.412459 
L 275.371041 116.108702 
L 273.59294 112.540275 
L 292.200769 97.579069 
L 289.831734 93.49064 
L 284.045817 91.598075 
L 281.492759 87.769013 
L 249.842487 105.383789 
L 247.739793 102.623338 
L 244.352295 100.936487 
L 242.112482 98.350859 
L 260.761128 75.866245 
L 257.724939 72.777083 
L 257.251495 66.913405 
L 253.935545 63.93902 
L 251.022239 60.463782 
L 247.506578 57.688447 
L 247.093356 50.569758 
L 243.268548 47.922848 
L 223.196176 71.286996 
L 220.034579 69.381222 
L 234.297449 35.212802 
L 229.996111 32.975816 
L 199.389733 87.722601 
L 196.756678 86.557227 
L 191.261794 92.773231 
L 188.791561 91.86092 
L 185.112765 94.757349 
L 182.707957 94.037396 
L 189.535654 56.178132 
L 185.915644 55.338189 
L 185.22668 38.445337 
L 181.051242 37.749645 
L 176.579757 39.517147 
L 172.442294 39.092803 
L 166.055022 79.433589 
L 163.177824 79.320431 
L 159.79396 15.124621 
L 154.897843 15.24012 
L 154.489475 78.743417 
L 151.596294 78.994246 
L 142.455175 32.797256 
L 138.123296 33.449187 
L 132.744225 28.864107 
L 128.293481 29.823316 
L 122.469677 25.626966 
L 117.92223 26.910829 
L 133.499058 88.464738 
L 130.921915 89.370745 
L 122.198673 75.126731 
L 119.207741 76.394642 
L 105.407194 55.184818 
L 101.797547 56.990549 
L 117.766993 93.723558 
L 115.362977 95.121615 
L 105.780724 85.421599 
L 103.121603 87.200636 
L 110.29259 102.276175 
L 108.161183 103.905016 
L 74.329857 67.879893 
L 71.134737 70.656487 
L 59.918917 65.044107 
L 56.641758 68.275214 
L 94.877652 109.823282 
L 92.991165 111.93307 
L 70.521699 97.31967 
L 68.254113 100.201445 
L 64.166711 101.789827 
L 62.042818 104.869206 
L 69.984058 114.215959 
L 68.247994 117.106285 
L 56.26629 114.486389 
L 54.545511 117.807897 
L 60.041094 124.450295 
L 58.631736 127.648189 
L 54.402644 129.762811 
L 53.163111 133.135364 
L 37.100349 131.8443 
L 35.934817 135.759846 
L 63.765053 146.841249 
L 63.057874 149.910983 
L 41.655285 149.233981 
L 41.03427 152.997711 
L 59.965204 159.050534 
L 59.64379 162.233706 
L 23.473358 163.501711 
L 23.309942 167.830067 
L 17.804576 172.213104 
L 17.917868 176.715391 
L 61.885012 178.044697 
L 62.159867 181.158115 
L 15.228234 190.697284 
L 15.923983 195.271438 
L 49.75774 193.197739 
L 50.515037 196.684974 
L 30.210368 205.801653 
L 31.373624 209.897268 
L 37.858565 212.210662 
L 39.219553 216.062632 
L 40.700982 219.869906 
L 42.301387 223.628717 
L 38.380672 230.056959 
L 40.302528 233.883689 
L 73.035465 220.375821 
L 74.635791 223.117715 
L 76.321536 225.807936 
L 78.091035 228.443823 
L 53.545754 250.610012 
L 56.106345 253.949757 
L 51.595403 263.266665 
L 54.554911 266.661475 
L 77.960419 250.466551 
L 80.504428 253.038716 
L 78.359259 260.713355 
L 81.225253 263.267913 
L 100.426504 245.662623 
L 102.808359 247.530781 
L 76.682351 289.510552 
L 80.454621 292.103598 
L 99.154004 270.631953 
L 102.321579 272.527775 
L 111.833929 262.597472 
L 114.742613 264.098582 
L 99.456505 305.358248 
L 103.715801 307.227389 
L 125.974316 262.197755 
L 128.86344 263.254458 
L 136.695674 248.53568 
L 139.149932 249.262035 
L 128.946068 301.596688 
L 133.072512 302.540472 
L 137.088266 304.124349 
L 141.29016 304.810875 
L 147.752429 285.928096 
L 151.37692 286.288315 
L 156.350438 260.742565 
L 159.178789 260.844896 
L 162.258761 283.552963 
L 165.8014 283.458245 
L 170.032721 292.618038 
L 173.856542 292.274407 
L 181.189635 317.396032 
L 185.787014 316.689353 
L 187.875961 303.565327 
L 192.035167 302.655253 
L 181.739894 247.95326 
L 184.153568 247.263614 
L 189.046914 253.913757 
L 191.644386 252.991415 
L 207.251762 283.858749 
L 210.78177 282.349201 
L 214.603878 281.433687 
L 218.054001 279.694171 
L 226.451429 286.705674 
L 230.061458 284.591039 
L 238.299879 289.578776 
L 241.994386 287.090179 
L 236.729158 272.559195 
L 239.889309 270.1284 
L 254.606784 281.33378 
L 258.033988 278.336535 
L 223.396164 235.741261 
L 225.40527 233.747888 
L 272.918139 273.480154 
L 276.089354 269.911043 
L 232.86967 228.877829 
L 234.658291 226.589982 
L 233.819661 222.437365 
L 235.40531 220.122832 
L 230.925372 214.057143 
L 232.24896 211.837757 
L 269.398821 228.751438 
L 271.165407 225.315097 
L 252.171248 212.41137 
L 253.432585 209.524781 
L 278.729705 215.813664 
L 280.084885 212.090336 
L 302.244754 214.841767 
L 303.557749 210.379556 
L 269.75241 197.355778 
L 270.531672 193.923842 
L 307.417054 196.913409 
L 308.163785 192.297433 
L 263.663404 182.532356 
L 263.979596 179.299201 
L 253.251108 175.506639 
L 253.351544 172.604343 
L 251.795553 169.720013 
L 251.714765 166.866344 
L 317.097546 159.059664 
L 316.649286 154.158028 
L 310.621123 150.028526 
L 309.892107 145.334988 
L 308.249049 140.823145 
L 307.231768 136.208742 
L 257.719392 144.706389 
L 256.849192 141.678829 
L 279.600694 130.63467 
L 278.27723 126.926071 
L 265.255869 128.021022 
L 263.857318 124.764749 
L 275.024413 115.390571 
L 273.223903 111.833398 
L 291.737266 96.755455 
L 289.342564 92.682007 
L 283.544859 90.82587 
L 280.967769 87.01294 
L 249.42891 104.82643 
L 247.308896 102.079259 
L 243.910855 100.413747 
L 241.654825 97.842257 
L 260.161686 75.240798 
L 257.106128 72.170793 
L 256.595814 66.310209 
L 253.261222 63.356738 
L 250.326117 59.899893 
L 246.79307 57.146724 
L 246.335083 50.030775 
L 242.493703 47.407972 
L 222.568676 70.897902 
L 219.395155 69.012051 
L 233.442844 34.754601 
L 229.127521 32.544712 
L 198.866075 87.482911 
L 196.225742 86.334121 
L 190.770062 92.584561 
L 188.29414 91.687805 
L 184.633634 94.607314 
L 182.224345 93.902501 
L 188.813794 56.001043 
L 185.188572 55.183884 
L 184.393375 38.2957 
L 180.213645 37.626283 
L 175.753365 39.421872 
L 171.613315 39.02356 
L 165.47989 79.40372 
L 162.602037 79.30866 
L 158.814485 15.135402 
L 153.91919 15.281692 
L 153.910231 78.786302 
L 151.018685 79.055322 
L 141.587193 32.916739 
L 137.259501 33.595901 
L 131.851699 29.044744 
L 127.407076 30.031926 
L 121.556993 25.872288 
L 117.017711 27.184727 
L 132.98137 88.639449 
L 130.409977 89.561646 
L 121.59732 75.372779 
L 118.614422 76.659475 
L 104.68075 55.536869 
L 101.082531 57.365267 
L 117.282691 93.99711 
L 114.887516 95.410259 
L 105.244445 85.770702 
L 102.596566 87.566428 
L 109.862228 102.596568 
L 107.741107 104.238782 
L 73.683873 68.427151 
L 70.506279 71.223786 
L 59.255382 65.682058 
L 55.99861 68.933713 
L 94.495062 110.240477 
L 92.621881 112.362088 
L 70.06095 97.890297 
L 67.811533 100.786277 
L 63.734202 102.400335 
L 61.629719 105.493012 
L 69.629587 114.789634 
L 67.911736 117.690821 
L 55.913791 115.146335 
L 54.213937 118.478601 
L 59.751188 125.086303 
L 58.361971 128.292998 
L 54.146263 130.434177 
L 52.927965 133.814459 
L 36.857401 132.624446 
L 35.716519 136.547245 
L 63.6159 147.453392 
L 62.928042 150.527513 
L 41.521618 149.985135 
L 40.924288 153.752696 
L 59.892915 159.686334 
L 59.591529 162.871466 
L 23.429786 164.366937 
L 23.293596 168.696235 
L 17.815907 173.113811 
L 17.957513 177.615297 
L 61.932148 178.668047 
L 62.22658 181.779676 
L 15.35587 191.613829 
L 16.080374 196.183517 
L 49.90042 193.897064 
L 50.679634 197.379466 
L 30.432706 206.62367 
L 31.621698 210.711888 
L 38.121061 212.98445 
L 39.506248 216.827784 
L 41.011594 220.625664 
L 42.635608 224.374336 
L 38.755401 230.82711 
L 40.701287 234.641677 
L 73.34862 220.928204 
L 74.966159 223.659979 
L 76.668791 226.339544 
L 78.454832 228.96425 
L 54.04945 251.284377 
L 56.630996 254.607951 
L 52.178741 263.953046 
L 55.159542 267.329175 
L 78.46273 250.987364 
L 81.022866 253.543478 
L 78.926008 261.231456 
L 81.808012 263.767939 
L 100.898157 246.042232 
L 103.291714 247.895372 
L 77.430251 290.038631 
L 81.218755 292.6079 
L 99.782724 271.019072 
L 102.96216 272.894934 
L 112.411866 262.905 
L 115.329934 264.387786 
L 100.303628 305.742777 
L 104.574595 307.585093 
L 126.549459 262.416356 
L 129.445172 263.454867 
L 137.184679 248.68712 
L 139.643457 249.398024 
L 129.76895 301.795819 
L 133.901248 302.713631 
L 137.926885 304.27222 
L 142.133013 304.932305 
L 148.476393 286.009256 
L 152.103077 286.346671 
L 156.915828 260.770146 
L 159.744767 260.854686 
L 162.967499 283.542933 
L 166.509472 283.425935 
L 170.798319 292.558935 
L 174.619903 292.191261 
L 182.110852 317.266268 
L 186.703696 316.530688 
L 188.710059 303.393783 
L 192.863459 302.457569 
L 182.224345 247.821409 
L 184.633634 247.116595 
L 189.568708 253.73583 
L 192.160328 252.79717 
L 207.961534 283.565732 
L 211.481978 282.034013 
L 215.298252 281.094478 
L 218.737366 279.333297 
L 227.178727 286.291846 
L 230.775384 284.154547 
L 239.045012 289.090371 
L 242.723794 286.578587 
L 237.367279 272.081006 
L 240.512079 269.630383 
L 255.299738 280.742977 
L 258.708023 277.724236 
L 223.802984 235.347657 
L 225.799513 233.341687 
L 273.561336 272.774338 
L 276.710041 269.185352 
L 233.233136 228.424778 
L 235.007332 226.125727 
L 234.142602 221.978466 
L 235.713662 219.654006 
L 231.195663 213.616613 
L 232.505265 211.388946 
L 269.760769 228.068642 
L 271.505708 224.621258 
L 252.430768 211.837249 
L 253.673924 208.942783 
L 279.010097 215.072437 
L 280.341834 211.34066 
L 302.518569 213.952664 
L 303.803473 209.482282 
L 269.91689 196.671378 
L 270.674552 193.234609 
L 307.578007 195.992128 
L 308.295692 191.371547 
L 263.734774 181.886546 
L 264.030625 178.651467 
L 253.278496 174.926455 
L 253.360677 172.023585 
L 251.786575 169.149098 
L 251.687841 166.295994 
L 317.020229 158.078247 
L 316.54115 153.179528 
L 310.487134 149.088022 
L 309.728612 144.399162 
L 308.05721 139.897742 
L 307.010927 135.289828 
L 257.552975 144.098711 
L 256.663751 141.076684 
L 279.345342 129.88965 
L 277.998579 126.189448 
L 264.984362 127.366275 
L 263.565359 124.118862 
L 274.673274 114.674635 
L 272.850428 111.128857 
L 291.268593 95.934773 
L 288.848319 91.876467 
L 283.039054 90.056831 
L 280.438034 86.260185 
L 249.011835 104.271684 
L 246.874585 101.537901 
L 243.466136 99.893794 
L 241.193977 97.336544 
L 259.558322 74.619134 
L 256.483516 71.568407 
L 255.936353 65.711149 
L 252.583251 62.778709 
L 249.626462 59.340392 
L 246.07617 56.609499 
L 245.573436 49.496571 
L 241.715636 46.897981 
L 221.938741 70.512763 
L 218.753422 68.646908 
L 232.585373 34.301784 
L 228.256237 32.11908 
L 198.34092 87.24652 
L 195.693414 86.114359 
L 190.277153 92.398988 
L 187.79564 91.517822 
L 184.153568 94.460295 
L 181.739894 93.770649 
L 188.090834 55.828497 
L 184.460545 55.034155 
L 183.559146 38.151306 
L 179.375288 37.508191 
L 174.926389 39.331797 
L 170.783917 38.959531 
L 164.904581 79.377469 
L 162.026187 79.30051 
L 157.835097 15.152343 
L 152.940819 15.329419 
L 153.331268 78.83283 
L 150.441471 79.120031 
L 140.71998 33.041678 
L 136.396645 33.748046 
L 130.960326 29.230991 
L 126.521999 30.246108 
L 120.645871 26.123345 
L 116.114933 27.464308 
L 132.464792 88.817412 
L 129.899249 89.755764 
L 120.997527 75.622603 
L 118.022781 76.928035 
L 103.956535 55.893481 
L 100.369887 57.744474 
L 116.80012 94.273703 
L 114.41388 95.701889 
L 104.710373 86.123172 
L 102.07384 87.935516 
L 109.433889 102.919661 
L 107.323139 104.575183 
L 73.041344 68.978462 
L 69.881402 71.795026 
L 58.595873 66.32417 
L 55.359616 69.596244 
L 94.115103 110.66007 
L 92.255303 112.793421 
L 69.603799 98.463811 
L 67.37264 101.373881 
L 63.305541 103.013551 
L 61.220551 106.119403 
L 69.278732 115.365527 
L 67.579161 118.277461 
L 55.565451 115.808485 
L 53.886588 119.151376 
L 59.465288 125.724122 
L 58.096266 128.93949 
L 53.894109 131.107141 
L 52.697095 134.495019 
L 36.619365 133.406105 
L 35.503177 137.336001 
L 63.4706 148.066462 
L 62.80209 151.144848 
L 41.392678 150.737114 
L 40.819055 154.508358 
L 59.824627 160.322577 
L 59.543279 163.509541 
L 23.391658 165.23242 
L 23.282699 169.562488 
L 17.832902 174.014429 
L 18.002817 178.514935 
L 61.983204 179.291089 
L 62.2972 182.400804 
L 15.489269 192.529553 
L 16.242499 197.094594 
L 50.047496 194.595477 
L 50.848597 198.07291 
L 30.66021 207.444273 
L 31.874891 211.524931 
L 38.388418 213.756571 
L 39.797751 217.591117 
L 41.326953 221.379455 
L 42.974512 225.117838 
L 39.134966 231.594888 
L 41.104805 235.397142 
L 73.665242 221.478607 
L 75.29993 224.200154 
L 77.019382 226.868958 
L 78.821896 229.482379 
L 54.557377 251.95556 
L 57.159775 255.262832 
L 52.766384 264.635744 
L 55.76836 267.993059 
L 78.968306 251.505007 
L 81.544468 254.044969 
L 79.496005 261.745983 
L 82.393905 264.26429 
L 101.372187 246.418867 
L 103.777353 248.256917 
L 78.181458 290.561995 
L 81.986047 293.107386 
L 100.413867 271.402228 
L 103.605038 273.258057 
L 112.991726 263.208887 
L 115.919062 264.673291 
L 101.153153 306.121971 
L 105.435623 307.937388 
L 127.125966 262.631335 
L 130.028154 263.651613 
L 137.674627 248.835481 
L 140.137827 249.530907 
L 130.593068 301.98977 
L 134.731057 302.881575 
L 138.766416 304.414813 
L 142.976613 305.048431 
L 149.200852 286.08586 
L 152.829587 286.400459 
L 157.481381 260.794171 
L 160.310796 260.860916 
L 163.67616 283.528445 
L 167.217327 283.389173 
L 171.563531 292.495017 
L 175.382727 292.103315 
L 183.031235 317.130713 
L 187.619362 316.366261 
L 189.543062 303.216997 
L 193.690491 302.254678 
L 182.707957 247.686513 
L 185.112765 246.96656 
L 190.089373 253.554626 
L 192.675039 252.599684 
L 208.669448 283.268257 
L 212.180189 281.714426 
L 215.990478 280.750908 
L 219.418448 278.968132 
L 227.903407 285.873451 
L 231.48655 283.713574 
L 239.787058 288.597289 
L 243.44997 286.062418 
L 238.002379 271.598812 
L 241.131704 269.128459 
L 255.988963 280.147827 
L 259.378194 277.10771 
L 224.207321 234.951502 
L 226.191194 232.933015 
L 274.200082 272.064491 
L 277.326151 268.455772 
L 233.593745 227.969449 
L 235.353447 225.659285 
L 234.462649 221.517545 
L 236.019059 219.18325 
L 231.463177 213.174392 
L 232.758743 210.938533 
L 270.118416 227.383582 
L 271.841638 223.925292 
L 252.686671 211.261506 
L 253.911598 208.359279 
L 279.285823 214.329462 
L 280.594062 210.589382 
L 302.786786 213.061855 
L 304.043549 208.583481 
L 270.077063 195.985958 
L 270.813095 192.544492 
L 307.733163 195.069854 
L 308.421773 190.444851 
L 263.802081 181.2403 
L 264.07758 178.003424 
L 253.302234 174.346111 
L 253.366156 171.442781 
L 251.774007 168.578251 
L 251.65733 165.725824 
L 316.936741 157.097337 
L 316.426861 152.201727 
L 310.347232 148.148378 
L 309.559235 143.464382 
L 307.859555 138.973563 
L 306.784311 134.372321 
L 257.38274 143.492093 
L 256.474527 140.475718 
L 279.085309 129.14625 
L 277.7153 125.454593 
L 264.708742 126.713248 
L 263.269343 123.474824 
L 274.31764 113.960922 
L 272.472528 110.426678 
L 290.794767 95.117055 
L 288.349016 91.074051 
L 282.528422 89.290988 
L 279.903574 85.510776 
L 248.59128 103.719572 
L 246.436878 100.999285 
L 243.018156 99.376647 
L 240.729958 96.833739 
L 258.95106 74.001277 
L 255.857128 70.96995 
L 255.273136 65.116249 
L 251.901657 62.204956 
L 248.923302 58.785303 
L 245.355904 56.076793 
L 244.808444 48.967168 
L 240.934377 46.392892 
L 221.306397 70.131593 
L 218.109406 68.285809 
L 231.725071 33.854369 
L 227.382293 31.698936 
L 197.814288 87.013436 
L 195.159714 85.897948 
L 189.783087 92.216519 
L 187.29608 91.350978 
L 183.672588 94.316299 
L 181.254624 93.641847 
L 187.366803 55.660502 
L 183.73159 54.889008 
L 182.724026 38.012162 
L 178.536205 37.395373 
L 174.098864 39.246925 
L 169.954132 38.90072 
L 164.329119 79.354836 
L 161.450298 79.295982 
L 156.855834 15.175444 
L 151.962767 15.383299 
L 152.752609 78.882997 
L 149.864675 79.188368 
L 139.85357 33.17207 
L 135.534763 33.905615 
L 130.070142 29.42284 
L 125.638288 30.465851 
L 119.736346 26.380128 
L 115.213932 27.749561 
L 131.949343 88.99862 
L 129.389753 89.95309 
L 120.399317 75.876195 
L 117.43284 77.200311 
L 103.234577 56.254642 
L 99.659642 58.128156 
L 116.319298 94.553325 
L 113.942088 95.996491 
L 104.178527 86.478993 
L 101.553445 88.307884 
L 109.007591 103.245442 
L 106.907295 104.914207 
L 72.402294 69.533803 
L 69.260129 72.370186 
L 57.940415 66.970417 
L 54.724802 70.26278 
L 93.73779 111.082044 
L 91.891444 113.22705 
L 69.150263 99.040189 
L 66.937452 101.964234 
L 62.880746 103.629452 
L 60.815331 106.748355 
L 68.931505 115.943615 
L 67.250283 118.86618 
L 55.221281 116.472813 
L 53.563476 119.826197 
L 59.183405 126.363726 
L 57.834634 129.587641 
L 53.646192 131.781679 
L 52.470511 135.177017 
L 36.386249 134.189245 
L 35.2948 138.126084 
L 63.329158 148.680433 
L 62.680023 151.762963 
L 41.26847 151.48989 
L 40.718578 155.264667 
L 59.760342 160.959237 
L 59.499044 164.147907 
L 23.358973 166.098125 
L 23.277251 170.428793 
L 17.855561 174.914922 
L 18.053779 179.41427 
L 62.038177 179.913798 
L 62.371725 183.021476 
L 15.628424 193.44442 
L 16.410351 198.004633 
L 50.198961 195.292952 
L 51.021917 198.765277 
L 30.89287 208.263428 
L 32.133192 212.336366 
L 38.660627 214.526996 
L 40.094048 218.352602 
L 41.647047 222.131247 
L 43.318086 225.859194 
L 39.519352 232.360265 
L 41.513066 236.150054 
L 73.98532 222.027008 
L 75.637093 224.73822 
L 77.373295 227.396156 
L 79.192211 229.998188 
L 55.069516 252.623535 
L 57.692663 255.914374 
L 53.358309 265.314733 
L 56.381341 268.653101 
L 79.477128 252.01946 
L 82.069214 254.543169 
L 80.069226 262.256915 
L 82.982908 264.756945 
L 101.848577 246.792514 
L 104.265255 248.615399 
L 78.935942 291.080625 
L 82.756464 293.602037 
L 101.047407 271.781408 
L 104.250187 273.617129 
L 113.573486 263.509121 
L 116.509974 264.955084 
L 102.005045 306.495814 
L 106.298849 308.284261 
L 127.703814 262.842684 
L 130.612361 263.844688 
L 138.165498 248.980757 
L 140.633023 249.660678 
L 131.41839 302.178534 
L 135.561906 303.044296 
L 139.606828 304.552124 
L 143.820927 305.159249 
L 149.925779 286.157907 
L 153.556421 286.449677 
L 158.047074 260.814638 
L 160.876852 260.863587 
L 164.384716 283.509501 
L 167.924937 283.34796 
L 172.328325 292.426288 
L 176.144982 292.010574 
L 183.950747 316.989371 
L 188.533975 316.196078 
L 190.374936 303.034975 
L 194.51623 302.04659 
L 183.190711 247.548578 
L 185.590944 246.813515 
L 190.608888 253.37015 
L 193.188496 252.398965 
L 209.375478 282.966336 
L 212.876376 281.390455 
L 216.68053 280.402991 
L 220.097219 278.59869 
L 228.625441 285.450508 
L 232.194929 283.268137 
L 240.525989 288.09955 
L 244.172885 285.541691 
L 238.634434 271.112634 
L 241.74816 268.622648 
L 256.674431 279.548354 
L 260.044474 276.486981 
L 224.609158 234.552811 
L 226.580297 232.521887 
L 274.83435 271.35064 
L 277.93766 267.722332 
L 233.951484 227.511862 
L 235.696621 225.190676 
L 234.779791 221.05462 
L 236.321489 218.710583 
L 231.727905 212.730497 
L 233.009383 210.486534 
L 270.471747 226.696287 
L 272.173184 223.227227 
L 252.938948 210.684165 
L 254.145598 207.774292 
L 279.556869 213.584767 
L 280.84156 209.836533 
L 303.049395 212.169378 
L 304.277967 207.683187 
L 270.232922 195.299544 
L 270.947294 191.853516 
L 307.882515 194.146623 
L 308.542022 189.517379 
L 263.865322 180.593644 
L 264.120457 177.355098 
L 253.322323 173.765629 
L 251.802735 170.861955 
z
" clip-path="url(#p9913711fbd)" style="fill: #0000ff; opacity: 0.5; stroke: #000000; stroke-width: 1.5; stroke-linejoin: miter"/>
   </g>
  </g>
 </g>
 <defs>
  <clipPath id="p9913711fbd">
   <rect x="0" y="-0" width="332.340019" height="332.64"/>
  </clipPath>
 </defs>
</svg>
