<?xml version="1.0" encoding="utf-8" standalone="no"?>
<!DOCTYPE svg PUBLIC "-//W3C//DTD SVG 1.1//EN"
  "http://www.w3.org/Graphics/SVG/1.1/DTD/svg11.dtd">
<svg xmlns:xlink="http://www.w3.org/1999/xlink" width="327.492701pt" height="332.64pt" viewBox="0 0 327.492701 332.64" xmlns="http://www.w3.org/2000/svg" version="1.1">
 <metadata>
  <rdf:RDF xmlns:dc="http://purl.org/dc/elements/1.1/" xmlns:cc="http://creativecommons.org/ns#" xmlns:rdf="http://www.w3.org/1999/02/22-rdf-syntax-ns#">
   <cc:Work>
    <dc:type rdf:resource="http://purl.org/dc/dcmitype/StillImage"/>
    <dc:date>2023-12-09T18:06:21.248202</dc:date>
    <dc:format>image/svg+xml</dc:format>
    <dc:creator>
     <cc:Agent>
      <dc:title>Matplotlib v3.8.2, https://matplotlib.org/</dc:title>
     </cc:Agent>
    </dc:creator>
   </cc:Work>
  </rdf:RDF>
 </metadata>
 <defs>
  <style type="text/css">*{stroke-linejoin: round; stroke-linecap: butt}</style>
 </defs>
 <g id="figure_1">
  <g id="patch_1">
   <path d="M 0 332.64 
L 327.492701 332.64 
L 327.492701 0 
L 0 0 
L 0 332.64 
z
" style="fill: none"/>
  </g>
  <g id="axes_1">
   <g id="patch_2">
    <path d="M 272.940854 170.539071 
L 272.888173 167.188969 
L 296.968832 162.315684 
L 296.64571 158.214156 
L 248.004234 160.218731 
L 247.639389 157.657794 
L 250.272348 154.521806 
L 249.727258 151.892371 
L 290.073806 138.750041 
L 289.013138 134.876959 
L 265.480605 138.309068 
L 264.418231 135.209469 
L 303.316306 116.267477 
L 301.54219 111.989138 
L 251.440683 130.472875 
L 250.138864 127.818596 
L 303.661791 94.984888 
L 301.218332 90.70621 
L 271.530576 103.733156 
L 269.378069 100.460428 
L 256.987288 104.631294 
L 254.870211 101.815394 
L 229.740017 118.05991 
L 228.058636 116.094085 
L 229.740471 110.9617 
L 227.835907 108.99937 
L 251.590668 79.663872 
L 248.691228 77.029998 
L 228.74943 95.027688 
L 226.344355 93.104397 
L 255.61288 47.494348 
L 251.699971 44.749913 
L 212.496396 97.729727 
L 210.184315 96.316131 
L 224.403347 64.750675 
L 221.048446 62.979004 
L 202.997612 92.520945 
L 200.526452 91.408587 
L 212.110664 54.664794 
L 208.444719 53.284619 
L 211.730805 30.403777 
L 207.302228 29.04754 
L 201.670209 32.385724 
L 197.308923 31.344835 
L 195.540335 16.585794 
L 190.685296 15.745453 
L 185.223834 19.722608 
L 180.472523 19.20509 
L 175.563253 21.183124 
L 170.862641 20.968634 
L 166.230288 67.125002 
L 162.978804 67.181245 
L 158.065146 41.539851 
L 154.013245 41.865474 
L 146.490703 15.12 
L 141.613827 15.822612 
L 149.502973 82.838384 
L 146.753822 83.412801 
L 145.005179 87.86573 
L 142.416323 88.579082 
L 120.127514 29.057768 
L 115.701907 30.582406 
L 127.266719 72.277807 
L 124.196515 73.556602 
L 123.513029 79.88874 
L 120.683985 81.281797 
L 103.882704 57.390379 
L 100.355968 59.41178 
L 123.851473 103.820307 
L 121.774723 105.19089 
L 97.571416 76.251609 
L 94.640839 78.462125 
L 80.764724 67.508267 
L 77.567547 70.251546 
L 93.812877 93.608747 
L 91.429904 95.928858 
L 86.25914 95.64807 
L 83.944023 98.204679 
L 87.154308 105.313932 
L 85.142665 107.837616 
L 64.162161 96.656333 
L 61.889672 99.907221 
L 55.745153 100.719465 
L 53.604579 104.232993 
L 59.138357 111.943806 
L 57.349023 115.345094 
L 42.891513 112.83118 
L 41.138113 116.742867 
L 75.240363 134.740708 
L 74.159853 137.624443 
L 63.475423 137.420898 
L 62.485001 140.673223 
L 16.793427 132.589463 
L 15.674174 137.311961 
L 79.383505 154.207557 
L 78.913027 156.951397 
L 80.861721 159.996207 
L 80.57252 162.690707 
L 15.458627 161.509999 
L 15.249359 166.260168 
L 41.042972 170.933265 
L 41.117343 174.874346 
L 38.970394 178.966241 
L 39.298364 182.968517 
L 22.659377 189.174622 
L 23.316386 193.684705 
L 76.411661 188.014968 
L 77.005631 190.835535 
L 53.426822 199.953148 
L 54.407518 203.490506 
L 90.47892 195.49567 
L 91.301144 197.870232 
L 31.095637 224.659048 
L 32.864182 228.886332 
L 52.45672 224.653116 
L 54.214518 228.208764 
L 61.564468 228.667965 
L 63.443998 231.93526 
L 57.506305 240.208727 
L 59.750708 243.597913 
L 88.015629 227.936629 
L 89.859085 230.372603 
L 86.964374 236.762981 
L 89.08587 239.227645 
L 58.281337 272.858842 
L 61.551948 276.207516 
L 69.732547 274.292681 
L 73.04258 277.280595 
L 68.49372 289.853467 
L 72.29363 292.872639 
L 117.855492 237.922663 
L 119.998178 239.415469 
L 108.424449 262.726356 
L 111.351681 264.503431 
L 97.479528 297.152936 
L 101.494618 299.257121 
L 100.285273 312.598802 
L 104.784628 314.607132 
L 118.757822 292.393901 
L 122.612757 293.831404 
L 134.153027 271.270022 
L 137.336169 272.23391 
L 143.994024 259.422814 
L 146.799798 260.083137 
L 146.901948 275.289111 
L 150.205155 275.850157 
L 148.604052 316.747771 
L 153.209969 317.234801 
L 160.197681 276.906769 
L 163.545177 277.048969 
L 167.054399 310.773429 
L 171.463347 310.683294 
L 174.014748 283.096796 
L 177.550041 282.801496 
L 177.403949 254.431157 
L 180.036256 254.043467 
L 190.334433 292.783765 
L 194.166237 291.970549 
L 199.360789 296.342207 
L 203.300015 295.243423 
L 203.515108 282.86329 
L 207.028473 281.64055 
L 209.625323 278.127108 
L 212.986751 276.714591 
L 221.360471 285.804313 
L 224.957485 284.019022 
L 211.351396 251.316546 
L 213.868988 249.863013 
L 218.032743 250.968057 
L 220.536074 249.304621 
L 214.172206 235.56772 
L 216.193226 234.033282 
L 217.159717 231.234174 
L 219.043003 229.607944 
L 228.965513 236.445715 
L 231.006825 234.445709 
L 243.891446 242.512037 
L 246.116117 240.039727 
L 250.081265 238.986683 
L 252.19203 236.321494 
L 254.217952 233.591257 
L 256.157027 230.79867 
L 237.427283 215.050624 
L 238.791702 212.79514 
L 259.368322 220.954378 
L 260.90752 218.0061 
L 238.185462 203.810576 
L 239.196094 201.53681 
L 248.896142 202.641499 
L 249.864721 200.031544 
L 285.837658 208.561519 
L 286.97411 204.787114 
L 280.391423 199.076358 
L 281.232333 195.477884 
L 285.811911 192.565273 
L 286.445419 188.799587 
L 311.85153 188.004597 
L 312.328765 183.422424 
L 249.304618 175.237331 
L 249.411348 172.628081 
L 272.938746 169.868944 
L 272.864997 166.519241 
L 296.914529 161.494598 
L 296.565617 157.395184 
L 247.937711 159.705646 
L 247.556766 157.147055 
L 250.169949 153.994568 
L 249.608332 151.368614 
L 289.871425 137.972787 
L 288.786419 134.106453 
L 265.275937 137.6865 
L 264.194089 134.593643 
L 302.97226 115.40738 
L 301.171271 111.140284 
L 251.187007 129.938765 
L 249.86852 127.292726 
L 303.183883 94.123039 
L 300.713562 89.859813 
L 271.108325 103.073221 
L 268.935277 99.814096 
L 256.570974 104.06281 
L 254.436228 101.260281 
L 229.4087 117.662531 
L 227.714989 115.70732 
L 229.36451 110.564458 
L 227.447642 108.614145 
L 251.017429 79.129823 
L 248.101481 76.514238 
L 228.273272 94.636994 
L 225.856149 92.728868 
L 254.837233 46.935639 
L 250.907141 44.215868 
L 212.037554 97.441203 
L 209.716629 96.042176 
L 223.736851 64.387914 
L 220.370873 62.637379 
L 202.506198 92.292265 
L 200.028091 91.195471 
L 211.380977 54.379547 
L 207.706423 53.022456 
L 210.848536 30.121399 
L 206.411517 28.793042 
L 200.800605 32.166583 
L 196.432859 31.153144 
L 194.57148 16.405518 
L 189.711251 15.59573 
L 184.274912 19.607155 
L 179.52044 19.11953 
L 174.623708 21.128402 
L 169.921839 20.94348 
L 165.579876 67.12807 
L 162.328809 67.204762 
L 157.253979 41.594779 
L 153.204206 41.94588 
L 145.513599 15.248247 
L 140.641238 15.981518 
L 148.951719 82.946346 
L 146.206236 83.538043 
L 144.485634 88.001881 
L 141.901315 88.731502 
L 119.238592 29.35155 
L 114.822662 30.903991 
L 126.649485 72.525832 
L 123.587385 73.823912 
L 122.943738 80.160223 
L 120.123512 81.571045 
L 103.1723 57.785771 
L 99.658347 59.829313 
L 123.432691 104.089188 
L 121.364602 105.472806 
L 96.979762 76.686322 
L 94.063146 78.915226 
L 80.118413 68.048858 
L 76.938552 70.81219 
L 93.330464 94.066756 
L 90.962131 96.401809 
L 85.789703 96.153547 
L 83.490711 98.724666 
L 86.745646 105.813588 
L 84.749915 108.349874 
L 63.699503 97.300768 
L 61.447505 100.565884 
L 55.308216 101.416757 
L 53.189782 104.943679 
L 58.771947 112.619535 
L 57.004041 116.03201 
L 42.531005 113.609075 
L 40.802242 117.531712 
L 75.017015 135.314714 
L 73.954663 138.205187 
L 63.269164 138.068845 
L 62.299217 141.327336 
L 16.557704 133.531109 
L 15.468175 138.260554 
L 79.28251 154.755119 
L 78.829298 157.501865 
L 80.797104 160.534358 
L 80.524855 163.230624 
L 15.404824 162.459469 
L 15.225437 167.210859 
L 41.04793 171.721637 
L 41.147087 175.662172 
L 39.025916 179.76749 
L 39.379051 183.767624 
L 22.779427 190.078256 
L 23.464789 194.584117 
L 76.523354 188.580553 
L 77.135052 191.397328 
L 53.614054 200.663059 
L 54.616979 204.194179 
L 90.637385 195.972632 
L 91.474527 198.341976 
L 31.438697 225.508921 
L 33.233794 229.724998 
L 52.799321 225.36864 
L 54.579446 228.913162 
L 61.932139 229.326127 
L 63.832182 232.581536 
L 57.946641 240.892184 
L 60.212316 244.267187 
L 88.378177 228.428443 
L 90.236918 230.852774 
L 87.382455 237.261232 
L 89.519411 239.712504 
L 58.927009 273.536779 
L 62.218616 276.864816 
L 70.387011 274.898567 
L 73.71577 277.865604 
L 69.246076 290.466837 
L 73.0649 293.46205 
L 118.280257 238.226603 
L 120.432289 239.705903 
L 109.005402 263.089121 
L 111.943752 264.84775 
L 98.27722 297.583857 
L 102.305465 299.662749 
L 101.180056 313.011772 
L 105.691953 314.991764 
L 119.525162 292.691089 
L 123.389062 294.104318 
L 134.787205 271.4708 
L 137.976347 272.414649 
L 144.553495 259.561932 
L 147.363367 260.204595 
L 147.561151 275.409626 
L 150.867822 275.949886 
L 149.523974 316.856761 
L 154.132863 317.314813 
L 160.866796 276.943629 
L 164.21512 277.064772 
L 167.93638 310.766495 
L 172.344675 310.648632 
L 174.722521 283.046633 
L 178.255887 282.729104 
L 177.931365 254.360244 
L 180.561181 253.956006 
L 191.102809 292.630768 
L 194.929423 291.793469 
L 200.151367 296.132369 
L 204.083605 295.008832 
L 204.220829 282.627591 
L 207.726435 281.382778 
L 210.301135 277.853073 
L 213.653613 276.419442 
L 222.084337 285.456318 
L 225.670051 283.648439 
L 211.858551 251.032185 
L 214.366951 249.562847 
L 218.537574 250.641681 
L 221.030394 248.962533 
L 214.580254 235.265929 
L 216.591583 233.71881 
L 217.54045 230.913679 
L 219.413471 229.275637 
L 229.378791 236.050865 
L 231.407483 234.03806 
L 244.342583 242.023191 
L 246.55166 239.536938 
L 250.510106 238.458976 
L 252.604067 235.780565 
L 254.612777 233.03764 
L 256.534251 230.232913 
L 237.70583 214.602978 
L 239.056037 212.338956 
L 259.683567 220.368618 
L 261.204191 217.410718 
L 238.393301 203.358383 
L 239.389613 201.078306 
L 249.096416 202.121965 
L 250.048561 199.50597 
L 286.074435 207.809527 
L 287.187126 204.028049 
L 280.568651 198.358807 
L 281.386913 194.755116 
L 285.948081 191.813759 
L 286.557893 188.044164 
L 311.958501 187.0894 
L 312.406908 182.504315 
L 249.332528 174.71577 
L 249.422845 172.105901 
L 272.932424 169.198845 
L 272.837608 165.849671 
L 296.855063 160.67387 
L 296.480375 156.576731 
L 247.867962 159.19299 
L 247.470932 156.636845 
L 250.064237 153.467985 
L 249.486115 150.845615 
L 289.66416 137.196821 
L 288.554857 133.337387 
L 265.067357 137.065231 
L 263.966079 133.97924 
L 302.622812 114.549464 
L 300.79502 110.293779 
L 250.929977 129.406261 
L 249.594874 126.768567 
L 302.700564 93.264213 
L 300.203479 89.016608 
L 270.681932 102.415955 
L 268.488429 99.170561 
L 256.151092 103.496956 
L 253.998762 100.707909 
L 229.07489 117.267243 
L 227.368915 115.322723 
L 228.986058 110.169588 
L 227.056962 108.23137 
L 250.440843 78.599391 
L 247.508502 76.002197 
L 227.794667 94.249303 
L 225.365591 92.356416 
L 254.058089 46.381819 
L 250.110968 43.68682 
L 211.576907 97.155569 
L 209.247229 95.771168 
L 223.068086 64.029353 
L 219.691165 62.300022 
L 202.013356 92.06668 
L 199.5284 90.985494 
L 210.649509 54.098895 
L 206.966493 52.764941 
L 209.96451 29.844575 
L 205.519223 28.544151 
L 199.92964 31.952914 
L 195.555606 30.966966 
L 193.60151 16.231339 
L 188.736284 15.452135 
L 183.325282 19.497673 
L 178.567837 19.03996 
L 173.683836 21.07959 
L 168.980898 20.924244 
L 164.929495 67.135229 
L 161.678975 67.232367 
L 156.443173 41.654808 
L 152.395689 42.031373 
L 144.53732 15.382638 
L 139.669668 16.146539 
L 148.401156 83.057774 
L 145.659448 83.666727 
L 143.966955 88.141298 
L 141.387276 88.887159 
L 118.351535 29.650916 
L 113.945456 31.231101 
L 126.033824 72.777734 
L 122.979948 74.095047 
L 122.376166 80.435281 
L 119.564868 81.863813 
L 102.464396 58.185623 
L 98.963365 60.251225 
L 123.015609 104.360698 
L 120.956263 105.757295 
L 96.390855 77.124747 
L 93.488314 79.371951 
L 79.475514 68.593502 
L 76.313096 71.37678 
L 92.850941 94.52779 
L 90.497341 96.877692 
L 85.323454 96.661967 
L 83.040679 99.247494 
L 86.340135 106.315805 
L 84.360395 108.864592 
L 63.240907 97.9481 
L 61.009489 101.227315 
L 54.875673 102.116784 
L 52.779464 105.65696 
L 58.409794 113.297555 
L 56.663386 116.721082 
L 42.175398 114.389222 
L 40.47134 118.322655 
L 74.797281 135.890113 
L 73.753129 138.787211 
L 63.066985 138.718077 
L 62.11755 141.982604 
L 16.327908 134.47422 
L 15.268147 139.210423 
L 79.184961 155.303307 
L 78.749033 158.052848 
L 80.735873 161.072905 
L 80.480588 163.770829 
L 15.356995 163.409258 
L 15.207494 168.161683 
L 41.057847 172.509962 
L 41.181786 176.449796 
L 39.086477 180.568374 
L 39.464764 184.566208 
L 22.905158 190.981117 
L 23.618845 195.482578 
L 76.638602 189.145425 
L 77.268004 191.958297 
L 53.805747 201.371778 
L 54.830861 204.89652 
L 90.798846 196.448588 
L 91.650874 198.81262 
L 31.787095 226.356619 
L 33.608674 230.561322 
L 53.146414 226.081995 
L 54.948798 229.61525 
L 62.303943 229.981963 
L 64.224422 233.225357 
L 58.391267 241.572858 
L 60.678124 244.933544 
L 88.743811 228.917966 
L 90.617763 231.330559 
L 87.803663 237.756843 
L 89.955993 240.194626 
L 59.576931 274.210641 
L 62.889405 277.517911 
L 71.045272 275.500326 
L 74.392626 278.446368 
L 70.002276 291.075464 
L 73.839862 294.046599 
L 118.706925 238.527865 
L 120.868219 239.993601 
L 109.588624 263.448225 
L 112.537977 265.188339 
L 99.077607 298.009754 
L 103.118847 300.063269 
L 102.077418 313.419106 
L 106.601679 315.370681 
L 120.294356 292.983444 
L 124.167068 294.372344 
L 135.422634 271.667586 
L 138.617648 272.591358 
L 145.113831 259.697529 
L 147.927689 260.322507 
L 148.2211 275.525993 
L 151.531104 276.045445 
L 150.444563 316.959963 
L 155.056242 317.389018 
L 161.536129 276.976281 
L 164.88515 277.076362 
L 168.818301 310.754013 
L 173.225767 310.608427 
L 175.429965 282.992019 
L 178.961264 282.652273 
L 178.458324 254.286016 
L 181.085546 253.865246 
L 191.870208 292.472942 
L 195.69148 291.611592 
L 200.94061 295.917563 
L 204.865703 294.769317 
L 204.925054 282.387458 
L 208.422761 281.120621 
L 210.975211 277.574792 
L 214.318606 276.120105 
L 222.805999 285.103778 
L 226.380273 283.273382 
L 212.363908 250.744639 
L 214.863017 249.259554 
L 219.040343 250.312136 
L 221.522552 248.617343 
L 214.986396 234.961578 
L 216.987955 233.401839 
L 217.919161 230.590796 
L 219.781842 228.941006 
L 229.789577 235.653424 
L 231.80557 233.627899 
L 244.790636 241.531518 
L 246.984032 239.031421 
L 250.93562 237.928583 
L 253.012694 235.237056 
L 255.004113 232.481551 
L 256.907908 229.664794 
L 237.981557 214.153588 
L 239.317497 211.88112 
L 259.995121 219.780887 
L 261.497112 216.813482 
L 238.598291 202.904892 
L 239.580243 200.618594 
L 249.293419 201.601182 
L 250.229092 198.97925 
L 286.306478 207.05606 
L 287.395363 203.26766 
L 280.741363 197.640156 
L 281.536944 194.03139 
L 286.079522 191.061404 
L 286.665613 187.288048 
L 312.059714 186.173547 
L 312.479274 181.585733 
L 249.357157 174.194044 
L 249.431057 171.583659 
L 272.921888 168.528798 
L 272.806009 165.180287 
L 296.790436 159.853532 
L 296.389987 155.75883 
L 247.79499 158.680782 
L 247.381892 156.127185 
L 249.955214 152.942078 
L 249.360611 150.323396 
L 289.452018 136.422174 
L 288.318464 132.569794 
L 264.854874 136.445287 
L 263.734208 133.366283 
L 302.267975 113.693762 
L 300.413453 109.449658 
L 250.669603 128.875384 
L 249.317936 126.24614 
L 302.211853 92.408443 
L 299.688102 88.176627 
L 270.251414 101.761383 
L 268.037542 98.529849 
L 255.72766 102.933754 
L 253.557831 100.158299 
L 228.7386 116.874062 
L 227.02043 114.94031 
L 228.60513 109.777107 
L 226.663882 107.85106 
L 249.860932 78.072595 
L 246.912315 75.493895 
L 227.313634 93.864629 
L 224.8727 91.987058 
L 253.275476 45.83291 
L 249.311484 43.162789 
L 211.114473 96.872839 
L 208.776134 95.503117 
L 222.397079 63.675005 
L 219.009349 61.966947 
L 201.519104 91.8442 
L 199.027398 90.778664 
L 209.916291 53.822849 
L 206.224958 52.512086 
L 209.078759 29.573317 
L 204.625382 28.300877 
L 199.057348 31.744728 
L 194.6772 30.78631 
L 192.630463 16.063265 
L 187.760433 15.314675 
L 182.374982 19.394165 
L 177.614753 18.966383 
L 172.743677 21.03669 
L 168.039854 20.910926 
L 164.279172 67.146478 
L 161.029328 67.264058 
L 155.632761 41.719935 
L 151.587725 42.121949 
L 143.561907 15.523166 
L 138.699155 16.317666 
L 147.851304 83.172662 
L 145.11348 83.798847 
L 143.449163 88.283974 
L 140.874227 89.046045 
L 117.466379 29.955856 
L 113.070325 31.563721 
L 125.419759 73.033503 
L 122.374228 74.369997 
L 121.810335 80.713903 
L 119.008077 82.160089 
L 101.759021 58.589919 
L 98.271051 60.6775 
L 122.600242 104.634825 
L 120.549721 106.044347 
L 95.804716 77.566868 
L 92.916367 79.832283 
L 78.836053 69.14218 
L 75.691203 71.945292 
L 92.374328 94.99183 
L 90.035554 97.356489 
L 84.860412 97.173309 
L 82.593944 99.773143 
L 85.937791 106.820561 
L 83.97412 109.38175 
L 62.786391 98.598303 
L 60.575641 101.891488 
L 54.447541 102.819517 
L 52.373639 106.372807 
L 58.051913 113.97784 
L 56.327071 117.412283 
L 41.824704 115.171591 
L 40.145419 119.115663 
L 74.58117 136.466883 
L 73.55526 139.370491 
L 62.868892 139.368568 
L 61.940009 142.639001 
L 16.104049 135.418757 
L 15.074096 140.161532 
L 79.090862 155.852096 
L 78.672236 158.604325 
L 80.678031 161.611826 
L 80.439718 164.311303 
L 15.315139 164.359329 
L 15.195532 169.1126 
L 41.072722 173.29821 
L 41.221437 177.237186 
L 39.152073 181.368861 
L 39.555497 185.364236 
L 23.036565 191.883169 
L 23.77855 196.380053 
L 76.757401 189.709561 
L 77.404481 192.518418 
L 54.001894 202.079278 
L 55.049157 205.597502 
L 90.963297 196.923519 
L 91.830176 199.282146 
L 32.140818 227.202109 
L 33.988806 231.395273 
L 53.497988 226.793152 
L 55.322558 230.315002 
L 62.679864 230.635448 
L 64.620704 233.866699 
L 58.840166 242.250722 
L 61.148114 245.596959 
L 89.112517 229.40518 
L 91.001606 231.80594 
L 88.227979 238.249795 
L 90.395599 240.673993 
L 60.231079 274.880402 
L 63.564289 278.166773 
L 71.707304 276.097932 
L 75.073121 279.022863 
L 70.762288 291.679322 
L 74.618485 294.626262 
L 119.135479 238.826438 
L 121.305949 240.278552 
L 110.174094 263.803654 
L 113.134333 265.525184 
L 99.880657 298.430607 
L 103.934733 300.458665 
L 102.977325 313.820788 
L 107.51377 315.74387 
L 121.065374 293.270956 
L 124.946744 294.635471 
L 136.059287 271.860371 
L 139.260049 272.76403 
L 145.675008 259.829599 
L 148.492741 260.436867 
L 148.881768 275.638206 
L 152.194973 276.13683 
L 151.365783 317.057373 
L 155.980069 317.457415 
L 162.205655 277.004722 
L 165.555239 277.083738 
L 169.700125 310.735986 
L 174.106588 310.562682 
L 176.137052 282.932956 
L 179.666144 282.571008 
L 178.984807 254.208475 
L 181.60933 253.771189 
L 192.636599 292.310292 
L 196.452378 291.424926 
L 201.728487 295.697798 
L 205.64628 294.524888 
L 205.627755 282.1429 
L 209.117425 280.85409 
L 211.647523 277.292278 
L 214.981703 275.816591 
L 223.525431 284.746706 
L 227.088121 282.893866 
L 212.867446 250.453921 
L 215.357166 248.953147 
L 219.541029 249.979435 
L 222.01253 248.269064 
L 215.390616 234.654678 
L 217.382326 233.082382 
L 218.295833 230.265537 
L 220.148102 228.604064 
L 230.197856 235.253407 
L 232.201069 233.215243 
L 245.235587 241.037036 
L 247.413216 238.523193 
L 251.35779 237.395525 
L 253.417894 234.690987 
L 255.391943 231.923011 
L 257.277985 229.094336 
L 238.254451 213.702474 
L 239.576073 211.421648 
L 260.302973 219.191208 
L 261.786271 216.214415 
L 238.800426 202.450121 
L 239.767979 200.157692 
L 249.487143 201.079171 
L 250.406306 198.451405 
L 286.533777 206.30115 
L 287.598814 202.505975 
L 280.909552 196.920433 
L 281.68242 193.306735 
L 286.206229 190.308237 
L 286.768576 186.531269 
L 312.155165 185.257076 
L 312.545862 180.666714 
L 249.378503 173.672174 
L 249.435985 171.061375 
L 272.907137 167.858831 
L 272.770201 164.511115 
L 296.720651 159.033616 
L 296.294456 154.941515 
L 247.718798 158.169043 
L 247.289647 155.618095 
L 249.842887 152.416866 
L 249.231825 149.801976 
L 289.235008 135.648876 
L 288.077247 131.803702 
L 264.638496 135.826691 
L 263.498487 132.754797 
L 301.907762 112.840309 
L 300.026585 108.607953 
L 250.405895 128.346156 
L 249.037719 125.725464 
L 301.717769 91.555764 
L 299.167453 87.339905 
L 269.816787 101.109532 
L 267.582634 97.891986 
L 255.300694 102.373226 
L 253.113452 99.611473 
L 228.399845 116.483005 
L 226.669546 114.560097 
L 228.221742 109.387029 
L 226.268418 107.47323 
L 249.277719 77.549458 
L 246.312942 74.989354 
L 226.83019 93.482989 
L 224.377496 91.620807 
L 252.489426 45.288934 
L 248.508719 42.643798 
L 210.65027 96.593023 
L 208.303362 95.238035 
L 221.723857 63.324884 
L 218.325451 61.638167 
L 201.023463 91.624832 
L 198.525104 90.574989 
L 209.181352 53.55142 
L 205.481848 52.263899 
L 208.19132 29.307635 
L 203.730028 28.06323 
L 198.183764 31.542033 
L 193.797675 30.611182 
L 191.658379 15.901301 
L 186.783737 15.183356 
L 181.42405 19.296636 
L 176.661225 18.898802 
L 171.803266 20.999704 
L 167.098745 20.903527 
L 163.628933 67.161817 
L 160.379893 67.299835 
L 154.822774 41.790158 
L 150.780347 42.217605 
L 142.587396 15.669826 
L 137.729738 16.494894 
L 147.302185 83.291006 
L 144.568354 83.934398 
L 142.932279 88.429904 
L 140.362187 89.208154 
L 116.583158 30.266356 
L 112.197304 31.901838 
L 124.807314 73.293129 
L 121.77025 74.648752 
L 121.246267 80.996079 
L 118.453161 82.45986 
L 101.056202 58.998644 
L 97.581431 61.108121 
L 122.186608 104.91156 
L 120.144992 106.33395 
L 95.22137 78.012666 
L 92.347326 80.296203 
L 78.200056 69.694868 
L 75.072898 72.517704 
L 91.900643 95.458859 
L 89.576788 97.838181 
L 84.400596 97.687553 
L 82.150524 100.30159 
L 85.538629 107.327839 
L 83.591106 109.901327 
L 62.335973 99.251352 
L 60.14598 102.558376 
L 54.023838 103.52493 
L 51.972325 107.091193 
L 57.698318 114.660362 
L 55.995111 118.105585 
L 41.478938 115.956149 
L 39.824492 119.910705 
L 74.368691 137.045 
L 73.361064 139.955003 
L 62.674895 140.020292 
L 61.766599 143.296502 
L 15.886135 136.364683 
L 14.886032 141.113842 
L 79.000216 156.401467 
L 78.598908 159.156274 
L 80.623579 162.151101 
L 80.402249 164.852023 
L 15.27926 165.309645 
L 15.189551 170.063574 
L 41.092554 174.086348 
L 41.26604 178.024311 
L 39.222703 182.168919 
L 39.651248 186.161678 
L 23.173643 192.784377 
L 23.943895 197.276505 
L 76.879745 190.272938 
L 77.544479 193.07767 
L 54.202487 202.785529 
L 55.271857 206.297098 
L 91.130732 197.397407 
L 92.012429 199.750535 
L 32.499852 228.045358 
L 34.374176 232.226816 
L 53.854027 227.502085 
L 55.700711 231.012389 
L 63.059887 231.286555 
L 65.021012 234.505536 
L 59.293319 242.925749 
L 61.622267 246.257404 
L 89.48428 229.890066 
L 91.388431 232.278896 
L 88.655387 238.740069 
L 90.838211 241.150586 
L 60.889427 275.546036 
L 64.24324 278.811378 
L 72.373082 276.691363 
L 75.757229 279.595067 
L 71.526083 292.278388 
L 75.400738 295.201017 
L 119.565902 239.12231 
L 121.745462 240.560744 
L 110.761787 264.155394 
L 113.732795 265.858271 
L 100.686338 298.846402 
L 104.753089 300.848921 
L 103.87974 314.216802 
L 108.428191 316.111314 
L 121.838184 293.553613 
L 125.72806 294.893689 
L 136.697141 272.049148 
L 139.903523 272.932658 
L 146.237004 259.958137 
L 149.058501 260.547671 
L 149.543128 275.746263 
L 152.859404 276.224039 
L 152.287597 317.148987 
L 156.904308 317.52 
L 162.875347 277.028951 
L 166.225361 277.086899 
L 170.581819 310.712412 
L 174.987105 310.511398 
L 176.843753 282.869448 
L 180.370499 282.485311 
L 179.510791 254.127624 
L 182.132512 253.67384 
L 193.401952 292.142826 
L 197.212087 291.233478 
L 202.514965 295.473082 
L 206.425304 294.275554 
L 206.328904 281.893927 
L 209.810399 280.583195 
L 212.318046 277.00554 
L 215.642878 275.508913 
L 224.242602 284.385115 
L 227.793569 282.509905 
L 213.369146 250.160042 
L 215.849378 248.643639 
L 220.039612 249.643593 
L 222.500307 247.917711 
L 215.792898 234.345242 
L 217.774679 232.76045 
L 218.670452 229.937915 
L 220.512234 228.264826 
L 230.60361 234.85083 
L 232.593965 232.800107 
L 245.67742 240.539766 
L 247.839195 238.012277 
L 251.776598 236.859821 
L 253.819652 234.14238 
L 255.776253 231.362044 
L 257.644467 228.521562 
L 238.524503 213.249651 
L 239.831754 210.960558 
L 260.60711 218.599605 
L 262.071656 215.613541 
L 238.999696 201.994087 
L 239.952812 199.695618 
L 249.677579 200.555951 
L 250.580197 197.922457 
L 286.756324 205.544824 
L 287.797471 201.743027 
L 281.073211 196.199666 
L 281.823335 192.581178 
L 286.328196 189.554288 
L 286.866777 185.773858 
L 312.24485 184.340023 
L 312.606669 179.747294 
L 249.396567 173.150179 
L 272.940854 170.539071 
z
" clip-path="url(#pb2e1048e6a)" style="fill: #0000ff; opacity: 0.5; stroke: #000000; stroke-width: 1.5; stroke-linejoin: miter"/>
   </g>
  </g>
 </g>
 <defs>
  <clipPath id="pb2e1048e6a">
   <rect x="0" y="-0" width="327.492701" height="332.64"/>
  </clipPath>
 </defs>
</svg>
