<?xml version="1.0" encoding="utf-8" standalone="no"?>
<!DOCTYPE svg PUBLIC "-//W3C//DTD SVG 1.1//EN"
  "http://www.w3.org/Graphics/SVG/1.1/DTD/svg11.dtd">
<svg xmlns:xlink="http://www.w3.org/1999/xlink" width="334.8pt" height="328.086486pt" viewBox="0 0 334.8 328.086486" xmlns="http://www.w3.org/2000/svg" version="1.1">
 <metadata>
  <rdf:RDF xmlns:dc="http://purl.org/dc/elements/1.1/" xmlns:cc="http://creativecommons.org/ns#" xmlns:rdf="http://www.w3.org/1999/02/22-rdf-syntax-ns#">
   <cc:Work>
    <dc:type rdf:resource="http://purl.org/dc/dcmitype/StillImage"/>
    <dc:date>2023-12-09T18:06:21.357577</dc:date>
    <dc:format>image/svg+xml</dc:format>
    <dc:creator>
     <cc:Agent>
      <dc:title>Matplotlib v3.8.2, https://matplotlib.org/</dc:title>
     </cc:Agent>
    </dc:creator>
   </cc:Work>
  </rdf:RDF>
 </metadata>
 <defs>
  <style type="text/css">*{stroke-linejoin: round; stroke-linecap: butt}</style>
 </defs>
 <g id="figure_1">
  <g id="patch_1">
   <path d="M 0 328.086486 
L 334.8 328.086486 
L 334.8 0 
L 0 0 
L 0 328.086486 
z
" style="fill: none"/>
  </g>
  <g id="axes_1">
   <g id="patch_2">
    <path d="M 270.003635 165.132295 
L 269.953885 161.968496 
L 280.875021 158.110639 
L 280.599119 154.608491 
L 302.222498 148.333521 
L 301.628628 144.164995 
L 319.581818 136.450563 
L 318.605738 131.742098 
L 256.092996 142.845156 
L 255.349366 140.129757 
L 277.124223 130.086901 
L 275.969047 126.716542 
L 243.773098 135.645858 
L 242.809199 133.321383 
L 267.575706 118.872507 
L 266.072647 115.807919 
L 305.426468 90.251441 
L 303.004785 86.010893 
L 239.597003 120.516022 
L 238.159453 118.330333 
L 295.597853 73.308961 
L 292.648321 69.385824 
L 266.391879 84.764712 
L 263.816981 81.75421 
L 266.92026 73.398098 
L 263.98771 70.376603 
L 243.62088 85.945089 
L 241.094354 83.649973 
L 264.226237 50.278205 
L 260.568078 47.352847 
L 231.704332 79.181032 
L 228.971022 77.263943 
L 232.112894 66.062253 
L 228.966898 64.138804 
L 221.571494 69.957033 
L 218.553171 68.363103 
L 219.188111 58.974779 
L 215.82566 57.461218 
L 200.495039 86.271728 
L 198.000106 85.332422 
L 217.182877 17.380775 
L 212.51361 15.950829 
L 202.313006 36.163243 
L 198.241654 35.191551 
L 185.593367 79.499951 
L 182.892882 79.032535 
L 181.946006 64.498652 
L 178.775651 64.153333 
L 174.770561 77.351738 
L 172.007883 77.225676 
L 169.226412 66.886588 
L 166.137428 66.94002 
L 160.805793 32.301545 
L 156.633543 32.63684 
L 158.411473 79.470531 
L 155.723503 79.857787 
L 145.707196 42.20695 
L 141.853859 43.012081 
L 144.97306 70.784814 
L 142.018636 71.598898 
L 142.785126 83.801427 
L 140.241055 84.677868 
L 111.639659 20.121274 
L 107.108743 22.008483 
L 116.190977 52.685966 
L 112.681716 54.41397 
L 111.144204 59.719001 
L 107.858573 61.602209 
L 110.597328 72.940577 
L 107.727683 74.834443 
L 88.102859 53.778985 
L 84.641853 56.389601 
L 82.277472 60.32642 
L 79.025212 63.116961 
L 105.222789 97.12868 
L 103.116328 99.179574 
L 98.759952 99.131733 
L 96.719667 101.384843 
L 95.362951 104.204524 
L 93.483845 106.561935 
L 53.150319 81.131793 
L 50.566627 84.827869 
L 92.994299 116.931747 
L 91.516536 119.35734 
L 42.834819 95.997685 
L 40.723644 100.010753 
L 66.016425 116.833683 
L 64.548918 120.107569 
L 60.972661 122.557096 
L 59.687603 125.986738 
L 41.918246 124.115645 
L 40.691614 128.143629 
L 72.615385 140.585329 
L 71.891419 143.639986 
L 82.944454 148.908323 
L 82.477074 151.634096 
L 87.600104 155.051717 
L 87.323584 157.628068 
L 52.328993 158.130108 
L 52.166702 161.813939 
L 22.012876 165.59573 
L 22.10031 170.229075 
L 15.218182 175.327947 
L 15.614978 180.17012 
L 63.307538 178.885075 
L 63.792402 182.213454 
L 61.270589 186.129169 
L 61.984229 189.518012 
L 86.573001 186.693793 
L 87.291884 189.286794 
L 81.317862 194.082877 
L 82.271673 196.837458 
L 48.001153 213.685155 
L 49.587774 217.477594 
L 93.518273 201.163286 
L 94.688675 203.530758 
L 61.287676 225.071563 
L 63.225742 228.440615 
L 49.251533 241.99549 
L 51.727675 245.734617 
L 89.477605 223.647396 
L 91.356955 226.130799 
L 59.843788 256.459381 
L 62.76947 259.858313 
L 62.923344 265.886666 
L 66.143918 269.184108 
L 108.352149 230.639534 
L 110.442014 232.526022 
L 73.892054 281.5091 
L 77.598408 284.453938 
L 111.49578 245.493143 
L 114.051121 247.273445 
L 109.491294 260.374793 
L 112.515537 262.210762 
L 109.156978 275.781112 
L 112.665796 277.619976 
L 116.899252 277.910935 
L 120.471208 279.505312 
L 130.149342 265.490156 
L 133.32421 266.674062 
L 122.768328 310.769616 
L 127.370531 312.16321 
L 142.662794 271.155705 
L 146.009612 271.94336 
L 153.872598 248.478393 
L 156.50085 248.924799 
L 153.878773 292.54613 
L 157.892608 292.970554 
L 163.990883 257.675156 
L 166.903298 257.798874 
L 170.06483 310.122511 
L 174.623302 310.029319 
L 175.108431 249.71524 
L 177.765072 249.493333 
L 181.135177 254.686977 
L 183.945161 254.273118 
L 194.506992 293.42532 
L 198.528383 292.571868 
L 203.926893 296.957372 
L 208.054681 295.805992 
L 196.729536 247.883696 
L 199.3179 246.98288 
L 227.873275 310.69619 
L 232.421202 308.78509 
L 210.305679 250.950261 
L 212.98375 249.621065 
L 244.517336 300.130839 
L 248.724837 297.701637 
L 236.587347 269.806247 
L 239.845296 267.641375 
L 257.107327 284.52982 
L 260.818072 281.712475 
L 222.247099 228.337352 
L 224.208266 226.643872 
L 231.024917 230.060869 
L 233.035936 228.090543 
L 284.331485 271.887001 
L 287.631252 268.21992 
L 266.895427 244.888145 
L 269.354912 241.78264 
L 286.518661 249.228938 
L 289.104928 245.50429 
L 293.586957 242.962273 
L 295.972691 239.018481 
L 254.353794 211.208287 
L 255.760511 208.513771 
L 308.120872 229.429869 
L 310.073931 225.03579 
L 277.184095 207.079063 
L 278.449692 203.668754 
L 287.1572 202.623629 
L 288.277777 198.901947 
L 291.586551 195.724076 
L 292.488001 191.866536 
L 306.513478 190.425671 
L 307.240955 186.101416 
L 269.286031 177.128117 
L 269.61381 173.98095 
L 301.483916 172.61802 
L 301.653968 168.46071 
L 270.001645 164.499435 
L 269.931997 161.336011 
L 280.828653 157.409543 
L 280.53073 153.909199 
L 302.114216 147.498354 
L 301.494139 143.333647 
L 319.398456 135.506452 
L 318.392781 130.804219 
L 255.951107 142.300227 
L 255.190414 139.589559 
L 276.901676 129.40995 
L 275.725326 126.046923 
L 243.586174 135.178556 
L 242.607674 132.86019 
L 267.282816 118.255833 
L 265.760512 115.200759 
L 304.952819 89.397272 
L 302.504514 85.172039 
L 239.315004 120.075285 
L 237.863735 117.89868 
L 295.01784 72.516944 
L 292.043692 68.612435 
L 265.884494 84.156158 
L 263.290713 81.16191 
L 266.341375 72.786445 
L 263.389879 69.783453 
L 243.121369 85.479727 
L 240.580458 83.200548 
L 263.501994 49.683953 
L 259.825509 46.781661 
L 231.162515 78.790753 
L 228.417201 76.890893 
L 231.488558 65.669663 
L 228.330528 63.766039 
L 220.971863 69.630666 
L 217.943575 68.055751 
L 218.519455 58.663619 
L 215.147552 57.171236 
L 199.998435 86.077598 
L 197.497644 85.154002 
L 216.252658 17.08305 
L 211.57449 15.682499 
L 201.501213 35.95867 
L 197.42383 35.012603 
L 185.054467 79.399678 
L 182.351096 78.949255 
L 181.312829 64.421615 
L 178.140365 64.096243 
L 174.218365 77.319576 
L 171.454949 77.210892 
L 168.608506 66.889502 
L 165.519919 66.962362 
L 159.970532 32.358104 
L 155.800474 32.719634 
L 157.872926 79.541216 
L 155.187445 79.945371 
L 144.934534 42.358275 
L 141.086336 43.187625 
L 144.38015 70.940192 
L 141.430905 71.772841 
L 142.274127 83.970308 
L 139.735619 84.862733 
L 110.728764 20.487302 
L 106.209807 22.40297 
L 115.484805 53.022724 
L 111.986482 54.772766 
L 110.482366 60.087362 
L 107.208644 61.991198 
L 110.018657 73.312116 
L 107.16098 75.223993 
L 87.404117 54.29238 
L 83.959599 56.924712 
L 81.620026 60.876324 
L 78.385381 63.687265 
L 104.796353 97.533543 
L 102.702833 99.597645 
L 98.346243 99.577204 
L 96.320168 101.843101 
L 94.981214 104.67126 
L 93.116972 107.040443 
L 52.624302 81.864479 
L 50.063907 85.576732 
L 92.692656 117.413129 
L 91.230177 119.847968 
L 42.402505 96.794955 
L 40.316611 100.821222 
L 65.714699 117.484743 
L 64.267811 120.767793 
L 60.707031 123.239764 
L 59.443569 126.677421 
L 41.662796 124.918124 
L 40.461521 128.953743 
L 72.462913 141.194415 
L 71.758172 144.253564 
L 82.844124 149.45228 
L 82.393896 152.180939 
L 87.538321 155.566271 
L 87.278009 158.14431 
L 52.287268 158.866437 
L 52.14815 162.551215 
L 22.018705 166.522583 
L 22.135279 171.155285 
L 15.285356 176.297342 
L 15.712598 181.136923 
L 63.396134 179.551944 
L 63.901921 182.877208 
L 61.404785 186.808706 
L 62.139726 190.192994 
L 86.710248 187.214181 
L 87.445426 189.802609 
L 81.501687 194.636171 
L 82.472803 197.384698 
L 48.308923 214.447604 
L 49.919366 218.229989 
L 93.746388 201.639706 
L 94.931657 203.99977 
L 61.666798 225.750223 
L 63.626015 229.107019 
L 49.737334 242.749516 
L 52.236945 246.472995 
L 89.847213 224.148785 
L 91.742144 226.620318 
L 60.42035 257.146501 
L 63.367352 260.526965 
L 63.559138 266.55423 
L 66.800387 269.831352 
L 108.765359 231.022074 
L 110.867048 232.895381 
L 74.625887 282.107368 
L 78.350689 285.028838 
L 112.002349 245.855618 
L 114.568836 247.619814 
L 110.091499 260.74958 
L 113.127231 262.566493 
L 109.854088 276.157698 
L 113.374401 277.974457 
L 117.609604 278.238784 
L 121.191517 279.810664 
L 130.781312 265.734915 
L 133.963563 266.89883 
L 123.685227 311.059902 
L 128.296103 312.424524 
L 143.330149 271.32165 
L 146.681855 272.088239 
L 154.397105 248.574283 
L 157.028112 249.00415 
L 154.680441 292.641109 
L 158.696866 293.04028 
L 164.573032 257.707225 
L 167.486168 257.812623 
L 170.976723 310.115341 
L 175.534519 309.993481 
L 175.640296 249.677544 
L 178.295489 249.438933 
L 181.698193 254.611278 
L 184.505518 254.179754 
L 195.313385 293.264753 
L 199.329329 292.386027 
L 204.755314 296.73749 
L 208.87578 295.560171 
L 197.249455 247.710052 
L 199.832101 246.792974 
L 228.787632 310.325427 
L 233.32345 308.385761 
L 210.844616 250.69117 
L 213.514274 249.345157 
L 245.364914 299.655603 
L 249.557053 297.199987 
L 237.244357 269.381486 
L 240.488627 267.196167 
L 257.856534 283.975709 
L 261.549487 281.135081 
L 222.643577 228.003603 
L 224.594054 226.297823 
L 231.432062 229.671879 
L 233.430648 227.688944 
L 285.000638 271.161915 
L 288.277276 267.474153 
L 267.395117 244.273256 
L 269.835022 241.152344 
L 287.045265 248.490544 
L 289.608054 244.749704 
L 294.074007 242.179548 
L 296.43489 238.220829 
L 254.641905 210.672944 
L 256.031648 207.969634 
L 308.522523 228.556002 
L 310.447908 224.149725 
L 277.445784 206.400212 
L 278.689907 202.982011 
L 287.390669 201.882142 
L 288.487818 198.153485 
L 291.776538 194.954866 
L 292.65371 191.091734 
L 306.669847 189.562685 
L 307.370112 185.23394 
L 269.359502 176.499533 
L 269.66748 173.350366 
L 301.528384 171.787019 
L 301.672286 167.628722 
L 269.995675 163.8666 
L 269.906132 160.703677 
L 280.777877 156.708752 
L 280.457945 153.210352 
L 302.000683 146.663886 
L 301.354425 142.50316 
L 319.209159 134.563512 
L 318.17393 129.867697 
L 255.805794 141.756201 
L 255.028068 139.050371 
L 276.674876 128.734412 
L 275.477398 125.37885 
L 243.396314 134.712439 
L 242.403252 132.400273 
L 266.986053 117.641012 
L 265.444564 114.595573 
L 304.473807 88.5461 
L 301.998976 84.336349 
L 239.030237 119.63633 
L 237.565308 117.468896 
L 294.432857 71.728591 
L 291.434211 67.842865 
L 265.373291 83.550806 
L 262.760729 80.572931 
L 265.758654 72.178445 
L 262.788329 69.194076 
L 242.618941 85.017517 
L 240.063746 82.754363 
L 262.774028 49.094268 
L 259.079362 46.215156 
L 230.618254 78.403889 
L 227.861045 76.521333 
L 230.861766 65.281009 
L 227.691825 63.397284 
L 220.370192 69.308077 
L 217.332058 67.75224 
L 217.848856 58.356671 
L 214.467632 56.885525 
L 199.50062 85.886594 
L 196.99407 84.978745 
L 215.320585 16.791182 
L 210.633701 15.420081 
L 200.688149 35.759206 
L 196.604896 34.838803 
L 184.514948 79.302796 
L 181.808797 78.869384 
L 180.67918 64.348562 
L 177.504732 64.043149 
L 173.665977 77.290888 
L 170.901932 77.199586 
L 167.990629 66.896303 
L 164.902562 66.988587 
L 159.135644 32.419916 
L 154.967942 32.807666 
L 157.334834 79.615288 
L 154.651948 80.036324 
L 144.162838 42.514457 
L 140.319933 43.367994 
L 143.78823 71.099295 
L 140.84428 71.950477 
L 141.7642 84.142399 
L 139.231355 85.050772 
L 109.820189 20.859052 
L 105.31337 22.803103 
L 114.780765 53.363918 
L 111.293519 55.135927 
L 109.822858 60.459878 
L 106.561175 62.384266 
L 109.442334 73.687287 
L 106.596738 75.617099 
L 86.708619 54.81016 
L 83.280724 57.464104 
L 80.96605 61.430352 
L 77.749149 64.261582 
L 104.372473 97.94108 
L 102.291976 100.018308 
L 97.935343 100.025268 
L 95.92356 102.303864 
L 94.60242 105.140388 
L 92.753116 107.521249 
L 52.102904 82.600458 
L 49.565908 86.328741 
L 92.394046 117.896398 
L 90.94691 120.340388 
L 41.975213 97.594929 
L 39.914683 101.634235 
L 65.417073 118.137687 
L 63.990862 121.429772 
L 60.4457 123.92409 
L 59.203884 127.369625 
L 41.412397 125.722193 
L 40.236529 129.765289 
L 72.314274 141.804448 
L 71.628788 144.867969 
L 82.747218 149.996858 
L 82.31416 152.728294 
L 87.479775 156.081203 
L 87.235683 158.660829 
L 52.250175 159.603013 
L 52.134235 163.288594 
L 22.030364 167.44938 
L 22.176073 172.081258 
L 15.358625 177.266295 
L 15.816298 182.103093 
L 63.488921 180.218243 
L 64.015612 183.54026 
L 61.543253 187.487386 
L 62.299464 190.866984 
L 86.850766 187.733696 
L 87.602209 190.317449 
L 81.688988 195.188298 
L 82.677372 197.930663 
L 48.621483 215.208103 
L 50.255683 218.980284 
L 93.977495 202.114682 
L 95.177584 204.467245 
L 62.050181 226.426484 
L 64.030472 229.770892 
L 50.227869 243.500471 
L 52.750849 247.208155 
L 90.219966 224.647839 
L 92.130404 227.107406 
L 61.001223 257.829981 
L 63.969427 261.191843 
L 64.199117 267.217783 
L 67.460914 270.474455 
L 109.180967 231.402008 
L 111.294397 233.26206 
L 75.363468 282.70101 
L 79.106571 285.598995 
L 112.511187 246.2149 
L 115.08872 247.962919 
L 110.694051 261.120586 
L 113.741149 262.918369 
L 110.553552 276.529891 
L 114.085222 278.324474 
L 118.322004 278.562159 
L 121.913732 280.111479 
L 131.414809 265.975695 
L 134.604317 267.119572 
L 124.603932 311.344416 
L 129.223301 312.68001 
L 143.998535 271.483394 
L 147.354997 272.228888 
L 154.922204 248.666872 
L 157.555863 249.080183 
L 155.48269 292.731045 
L 159.501546 293.104946 
L 165.155371 257.735633 
L 168.069112 257.822707 
L 171.888553 310.102437 
L 176.445492 309.951913 
L 176.171914 249.636503 
L 178.825554 249.381197 
L 182.260721 254.53204 
L 185.065277 254.082868 
L 196.118753 293.099118 
L 200.12909 292.195151 
L 205.582337 296.512402 
L 209.695316 295.309191 
L 197.768271 247.533141 
L 200.345098 246.599838 
L 229.69964 309.94892 
L 234.223168 307.980765 
L 211.381913 250.428694 
L 214.043052 249.065917 
L 246.209487 299.175046 
L 250.386099 296.693112 
L 237.898683 268.952602 
L 241.129144 266.746921 
L 258.602242 283.416897 
L 262.277256 280.553099 
L 223.037949 227.667368 
L 224.977659 225.949353 
L 231.836752 229.280335 
L 233.822827 227.28487 
L 285.665218 270.432636 
L 288.918597 266.724338 
L 267.890931 243.655237 
L 270.311158 240.519041 
L 287.567214 247.748853 
L 290.106425 243.991968 
L 294.556124 241.393775 
L 296.892062 237.420286 
L 254.926644 210.1358 
L 256.299357 207.423803 
L 308.91867 227.679625 
L 310.816304 223.261327 
L 277.703199 205.719729 
L 278.925799 202.293771 
L 287.619471 201.1392 
L 288.693147 197.403717 
L 291.961685 194.184477 
L 292.814542 190.315904 
L 306.820785 188.698732 
L 307.493811 184.365668 
L 269.429018 175.870499 
L 269.717184 172.719458 
L 301.567625 170.955754 
L 301.68537 166.796634 
L 269.985724 163.233815 
L 269.87629 160.071518 
L 280.722695 156.008295 
L 280.380766 152.511976 
L 301.881905 145.830148 
L 301.209491 141.673569 
L 319.013935 133.621782 
L 317.949193 128.932571 
L 255.657062 141.2131 
L 254.862333 138.512214 
L 276.443832 128.060313 
L 275.225273 124.712349 
L 243.203527 134.247526 
L 242.195942 131.941651 
L 266.685429 117.02807 
L 265.124817 113.992387 
L 303.989452 87.697957 
L 301.488192 83.503854 
L 238.742716 119.199175 
L 237.264184 117.040998 
L 293.842927 70.943932 
L 290.819901 67.077143 
L 264.858291 82.948682 
L 262.227052 79.987297 
L 265.172121 71.574122 
L 262.183085 68.608494 
L 242.113616 84.558476 
L 239.544237 82.311437 
L 262.042367 48.509174 
L 258.329666 45.653355 
L 230.07157 78.020456 
L 227.302576 76.155279 
L 230.232542 64.896304 
L 227.050817 63.032554 
L 219.766503 68.989278 
L 216.718644 67.45258 
L 217.176339 58.053947 
L 213.78593 56.604096 
L 199.001614 85.698726 
L 196.489403 84.80666 
L 214.386695 16.505181 
L 209.69128 15.163585 
L 199.873846 35.56486 
L 195.784885 34.670156 
L 183.974829 79.209308 
L 181.266007 78.792926 
L 180.045083 64.279495 
L 176.868778 63.994054 
L 173.113419 77.265674 
L 170.348855 77.191759 
L 167.372808 66.90699 
L 164.285382 67.018694 
L 158.301161 32.486978 
L 154.13598 32.900932 
L 156.797219 79.692742 
L 154.117034 80.130644 
L 143.39214 42.67549 
L 139.554679 43.553179 
L 143.197322 71.262119 
L 140.258784 72.131799 
L 141.255366 84.317694 
L 138.728284 85.24198 
L 108.91397 21.236508 
L 104.419467 23.208867 
L 114.078886 53.709532 
L 110.602853 55.503439 
L 109.165705 60.836534 
L 105.91619 62.781398 
L 108.868383 74.066075 
L 106.03498 76.013746 
L 86.01639 55.332304 
L 82.605255 58.007754 
L 80.315573 61.988483 
L 77.116542 64.839889 
L 103.951164 98.351275 
L 101.883773 100.441547 
L 97.52727 100.475908 
L 95.529858 102.767111 
L 94.226584 105.611889 
L 92.39229 108.004333 
L 51.586145 83.339703 
L 49.072648 87.083868 
L 92.098482 118.381536 
L 90.666746 120.834579 
L 41.552961 98.397574 
L 39.517877 102.44976 
L 65.12356 118.79249 
L 63.718083 122.09348 
L 60.188678 124.610045 
L 58.968558 128.063323 
L 41.167061 126.527822 
L 40.016644 130.578233 
L 72.169475 142.415403 
L 71.50327 145.483175 
L 82.653738 150.542034 
L 82.237868 153.276139 
L 87.424468 156.596494 
L 87.196606 159.177604 
L 52.217716 160.339809 
L 52.124958 164.026045 
L 22.047852 168.376085 
L 22.222689 173.006955 
L 15.437988 178.234767 
L 15.926072 183.068591 
L 63.585898 180.883945 
L 64.133472 184.202584 
L 61.685987 188.165181 
L 62.463439 191.539957 
L 86.994548 188.252317 
L 87.762226 190.831292 
L 81.879757 195.739236 
L 82.88537 198.47533 
L 48.93882 215.966621 
L 50.596713 219.728449 
L 94.211585 202.588195 
L 95.426446 204.933164 
L 62.437809 227.100321 
L 64.439095 230.432208 
L 50.723117 244.248325 
L 53.269366 247.940069 
L 90.595851 225.144539 
L 92.521721 227.592042 
L 61.586382 258.509795 
L 64.575672 261.852922 
L 64.843258 267.877298 
L 68.125472 271.11339 
L 109.598957 231.779321 
L 111.724043 233.626044 
L 76.104768 283.290001 
L 79.866023 286.164386 
L 113.022276 246.570975 
L 115.610752 248.302748 
L 111.298923 261.487794 
L 114.357269 263.266378 
L 111.255343 276.897679 
L 114.798231 278.670013 
L 119.036423 278.881047 
L 122.637825 280.407747 
L 132.049807 266.212485 
L 135.246448 267.336279 
L 125.524409 311.623146 
L 130.152086 312.929661 
L 144.667926 271.640931 
L 148.029009 272.3653 
L 155.447875 248.756157 
L 158.084081 249.152896 
L 156.285488 292.815933 
L 160.306617 293.164551 
L 165.737877 257.760378 
L 168.652108 257.829124 
L 172.800283 310.083798 
L 177.356185 309.904617 
L 176.703264 249.59212 
L 179.355245 249.32013 
L 182.82274 254.449264 
L 185.624415 253.982462 
L 196.923063 292.928421 
L 200.927636 291.999249 
L 206.407927 296.282116 
L 210.513258 295.053061 
L 198.285964 247.352971 
L 200.856871 246.40348 
L 230.609261 309.566685 
L 235.120322 307.570119 
L 211.917548 250.162845 
L 214.570064 248.783357 
L 247.05102 298.689187 
L 251.211939 296.181033 
L 238.550299 268.51961 
L 241.766824 266.293655 
L 259.34442 282.853405 
L 263.00135 279.96655 
L 223.430197 227.328658 
L 225.359064 225.598478 
L 232.238972 228.886255 
L 234.212457 226.878337 
L 286.325197 269.69919 
L 289.555189 265.970504 
L 268.382847 243.034111 
L 270.783301 239.882756 
L 288.084488 247.003894 
L 290.60002 243.231114 
L 295.03329 240.604986 
L 297.344191 236.616883 
L 255.207998 209.596875 
L 256.563627 206.876298 
L 309.309298 226.800775 
L 311.179105 222.370628 
L 277.956328 205.03764 
L 279.157357 201.60406 
L 287.843595 200.394834 
L 288.893756 196.652673 
L 292.141982 193.412939 
L 292.970491 189.539078 
L 306.966286 187.833847 
L 307.612046 183.496636 
L 269.494576 175.241041 
L 269.762918 172.088249 
L 301.601637 170.124259 
L 301.693221 165.964481 
L 269.971794 162.601105 
L 269.842473 159.439559 
L 280.663108 155.308199 
L 280.299196 151.814099 
L 301.757884 144.997173 
L 301.059341 140.844906 
L 318.812792 132.681298 
L 317.718578 127.998876 
L 255.504918 140.670945 
L 254.693217 137.975111 
L 276.208552 127.387681 
L 274.968961 124.047448 
L 243.007819 133.783834 
L 241.985751 131.484342 
L 266.380956 116.417031 
L 264.801282 113.391223 
L 303.499771 86.852876 
L 300.972183 82.674589 
L 238.452451 118.763837 
L 236.960374 116.615001 
L 293.248074 70.163 
L 290.200788 66.3153 
L 264.339514 82.349809 
L 261.689702 79.405032 
L 264.581798 70.9735 
L 261.574169 68.02673 
L 241.605413 84.102622 
L 239.021953 81.871788 
L 261.307041 47.928692 
L 257.576452 45.096281 
L 229.522485 77.640469 
L 226.741815 75.792744 
L 229.600911 64.515564 
L 226.407526 62.671862 
L 219.160822 68.674283 
L 216.103358 67.156784 
L 216.501932 57.755459 
L 213.102471 56.32696 
L 198.501436 85.513999 
L 195.983664 84.637751 
L 213.451024 16.22506 
L 208.747265 14.913022 
L 199.058337 35.375639 
L 194.96383 34.50667 
L 183.434134 79.11922 
L 180.722746 78.719883 
L 179.410566 64.214418 
L 176.232527 63.94896 
L 172.560714 77.243937 
L 169.795739 77.187411 
L 166.755066 66.921563 
L 163.668404 67.052683 
L 157.467116 32.559287 
L 153.304621 32.99943 
L 156.260101 79.773576 
L 153.582724 80.228326 
L 142.62247 42.841366 
L 138.790606 43.743174 
L 142.607449 71.428655 
L 139.674439 72.3168 
L 140.747644 84.496187 
L 138.226425 85.436347 
L 108.010143 21.619657 
L 103.528134 23.620244 
L 113.379193 54.059554 
L 109.914512 55.875288 
L 108.510935 61.217317 
L 105.273716 63.18258 
L 108.296825 74.448465 
L 105.475728 76.413919 
L 85.327459 55.858791 
L 81.933219 58.555643 
L 79.668618 62.550693 
L 76.487584 65.422163 
L 103.532443 98.764112 
L 101.47824 100.867346 
L 97.122039 100.929105 
L 95.139077 103.232826 
L 93.853721 106.085744 
L 92.034511 108.489678 
L 51.074046 84.082183 
L 48.584147 87.842083 
L 91.805974 118.868523 
L 90.389695 121.330522 
L 41.135766 99.20286 
L 39.126208 103.267765 
L 64.834171 119.449126 
L 63.449483 122.758891 
L 59.935976 125.297604 
L 58.737599 128.758487 
L 40.926797 127.334978 
L 39.801878 131.392544 
L 72.028521 143.027257 
L 71.381624 146.099158 
L 82.563689 151.087787 
L 82.165023 153.824454 
L 87.372404 157.112122 
L 87.160779 159.694614 
L 52.189891 161.076793 
L 52.12032 164.76354 
L 22.071167 169.302662 
L 22.275127 173.932341 
L 15.52344 179.202722 
L 16.041916 184.03338 
L 63.687059 181.549024 
L 64.255495 184.864153 
L 61.832981 188.842065 
L 62.631643 192.211885 
L 87.14159 188.770023 
L 87.925473 191.344119 
L 82.073988 196.288963 
L 83.096789 199.018679 
L 49.260921 216.723128 
L 50.942441 220.474455 
L 94.448648 203.060227 
L 95.678234 205.397508 
L 62.829668 227.771707 
L 64.85187 231.09094 
L 51.223059 244.993051 
L 53.792477 248.668707 
L 90.974852 225.638866 
L 92.916077 228.074207 
L 62.175806 259.185914 
L 65.186063 262.510174 
L 65.491533 268.532748 
L 68.794036 271.748133 
L 110.019311 232.153997 
L 112.155971 233.987318 
L 76.849758 283.874318 
L 80.629017 286.72499 
L 113.535594 246.923828 
L 116.13491 248.639286 
L 111.906094 261.851191 
L 114.975565 263.610504 
L 111.959434 277.261045 
L 115.513398 279.011062 
L 119.752834 279.195435 
L 123.363767 280.699454 
L 132.686283 266.445277 
L 135.889928 267.548944 
L 126.446621 311.896081 
L 131.082424 313.173464 
L 145.338293 271.794255 
L 148.703866 272.49747 
L 155.974097 248.842134 
L 158.612747 249.222284 
L 157.088805 292.89577 
L 161.112046 293.219091 
L 166.320527 257.781458 
L 169.235133 257.831874 
L 173.711878 310.059425 
L 178.266563 309.851593 
L 177.234323 249.544396 
L 179.884542 249.255731 
L 183.384227 254.362956 
L 186.182911 253.878543 
L 197.726283 292.752669 
L 201.724933 291.798329 
L 207.232053 296.046643 
L 211.329572 294.791792 
L 198.802514 247.169548 
L 201.367398 246.203906 
L 231.516461 309.178737 
L 236.014875 307.153838 
L 212.451501 249.893631 
L 215.095288 248.497489 
L 247.889481 298.198044 
L 252.034543 295.66377 
L 239.199179 268.082529 
L 242.401639 265.836388 
L 260.08304 282.285257 
L 263.72174 279.375459 
L 223.820308 226.987489 
L 225.738255 225.245211 
L 232.638705 228.489652 
L 234.599522 226.469362 
L 286.980551 268.961609 
L 290.187027 265.212682 
L 268.870847 242.409904 
L 271.251434 239.243514 
L 288.597066 246.255697 
L 291.088819 242.467169 
L 295.505485 239.813211 
L 297.791257 235.810653 
L 255.485958 209.056192 
L 256.824449 206.327143 
L 309.69439 225.919484 
L 311.536297 221.477666 
L 278.205163 204.353973 
L 279.384572 200.912907 
L 288.063034 199.649074 
L 289.089637 195.900381 
L 292.317423 192.640282 
L 293.121551 188.761287 
L 307.106344 186.968063 
L 307.724813 182.626877 
L 269.556174 174.611183 
L 269.804682 171.456766 
L 301.630418 169.292567 
L 270.003635 165.132295 
z
" clip-path="url(#p31978df3ed)" style="fill: #0000ff; opacity: 0.5; stroke: #000000; stroke-width: 1.5; stroke-linejoin: miter"/>
   </g>
  </g>
 </g>
 <defs>
  <clipPath id="p31978df3ed">
   <rect x="0" y="0" width="334.8" height="328.086486"/>
  </clipPath>
 </defs>
</svg>
