<?xml version="1.0" encoding="utf-8" standalone="no"?>
<!DOCTYPE svg PUBLIC "-//W3C//DTD SVG 1.1//EN"
  "http://www.w3.org/Graphics/SVG/1.1/DTD/svg11.dtd">
<svg xmlns:xlink="http://www.w3.org/1999/xlink" width="326.817684pt" height="332.64pt" viewBox="0 0 326.817684 332.64" xmlns="http://www.w3.org/2000/svg" version="1.1">
 <metadata>
  <rdf:RDF xmlns:dc="http://purl.org/dc/elements/1.1/" xmlns:cc="http://creativecommons.org/ns#" xmlns:rdf="http://www.w3.org/1999/02/22-rdf-syntax-ns#">
   <cc:Work>
    <dc:type rdf:resource="http://purl.org/dc/dcmitype/StillImage"/>
    <dc:date>2023-12-09T18:06:21.484798</dc:date>
    <dc:format>image/svg+xml</dc:format>
    <dc:creator>
     <cc:Agent>
      <dc:title>Matplotlib v3.8.2, https://matplotlib.org/</dc:title>
     </cc:Agent>
    </dc:creator>
   </cc:Work>
  </rdf:RDF>
 </metadata>
 <defs>
  <style type="text/css">*{stroke-linejoin: round; stroke-linecap: butt}</style>
 </defs>
 <g id="figure_1">
  <g id="patch_1">
   <path d="M 0 332.64 
L 326.817684 332.64 
L 326.817684 0 
L 0 0 
L 0 332.64 
z
" style="fill: none"/>
  </g>
  <g id="axes_1">
   <g id="patch_2">
    <path d="M 271.414786 162.337923 
L 271.360036 158.856198 
L 292.987574 154.00552 
L 292.660169 149.849619 
L 272.860837 148.151929 
L 272.359333 144.631751 
L 308.51433 134.108224 
L 307.553633 129.473965 
L 276.236905 132.63712 
L 275.245913 129.018462 
L 242.253895 135.804794 
L 241.379303 133.25307 
L 292.621179 110.041354 
L 290.911625 105.918711 
L 275.66966 108.166337 
L 273.909533 104.577613 
L 269.304756 102.550103 
L 267.371189 99.164282 
L 252.168409 104.205333 
L 250.295359 101.357499 
L 245.180705 100.863777 
L 243.206044 98.237303 
L 248.35597 89.704332 
L 246.028862 86.983539 
L 252.706315 75.789242 
L 249.939534 72.938545 
L 240.684203 77.003041 
L 237.961531 74.529745 
L 259.989715 42.078396 
L 256.159391 39.01536 
L 221.106279 79.003914 
L 218.456199 77.145201 
L 227.430158 56.923146 
L 224.082683 54.876514 
L 212.048678 68.662651 
L 209.077924 67.093843 
L 208.377932 60.677385 
L 205.157919 59.22794 
L 203.89735 52.802663 
L 200.431953 51.497992 
L 202.44826 33.237992 
L 198.368424 31.988556 
L 180.552929 84.513783 
L 178.096142 83.927433 
L 185.196311 32.848967 
L 181.112773 32.142163 
L 172.56461 67.159344 
L 169.566111 66.832744 
L 166.080922 74.384109 
L 163.312792 74.257798 
L 160.508952 53.163523 
L 157.076354 53.222899 
L 155.05398 75.179724 
L 152.316317 75.399732 
L 142.455268 20.01357 
L 137.98929 20.656984 
L 138.854745 49.007387 
L 135.302176 49.749674 
L 122.595122 15.12 
L 117.985099 16.39028 
L 134.019255 80.806464 
L 131.468909 81.685066 
L 111.349967 38.449201 
L 107.479025 40.061519 
L 95.324445 24.171479 
L 91.012503 26.294734 
L 99.590777 51.760188 
L 96.144176 53.735659 
L 92.342137 55.160995 
L 89.006048 57.362698 
L 76.086016 46.440819 
L 72.483783 49.157961 
L 61.990689 43.590758 
L 58.305813 46.752497 
L 68.100762 64.209012 
L 65.061148 67.168444 
L 78.068728 85.130922 
L 75.682017 87.766594 
L 89.033375 103.361591 
L 87.214454 105.643497 
L 75.987622 101.129811 
L 74.10498 103.823007 
L 88.135888 116.561623 
L 86.732449 118.865221 
L 81.980385 119.342438 
L 80.667424 121.838204 
L 19.381433 96.313741 
L 17.37535 100.789141 
L 30.02794 111.026656 
L 28.4792 115.160032 
L 83.478279 137.494713 
L 82.735325 139.934407 
L 68.463669 138.944812 
L 67.773733 141.855881 
L 31.153271 138.025861 
L 30.452888 142.110505 
L 70.901191 151.271405 
L 70.597625 154.099739 
L 78.94583 157.448449 
L 78.832506 160.020787 
L 14.855349 162.796507 
L 14.941868 167.381346 
L 23.731803 171.395123 
L 24.084292 175.696615 
L 19.158439 180.686766 
L 19.805339 185.127461 
L 44.32248 184.936667 
L 45.090565 188.584048 
L 42.199673 193.187961 
L 43.228246 196.898008 
L 65.856542 193.511188 
L 66.883581 196.477251 
L 32.525366 213.60104 
L 34.200554 217.605176 
L 58.541794 210.84881 
L 60.117583 214.036293 
L 33.149451 233.055818 
L 35.436031 237.030712 
L 76.601622 216.134764 
L 78.334683 218.751793 
L 48.691579 244.350191 
L 51.325594 247.830823 
L 98.38995 214.273064 
L 100.053703 216.205941 
L 103.476538 216.477445 
L 105.207087 218.249298 
L 83.603605 245.071105 
L 86.243026 247.453669 
L 96.375838 240.709224 
L 98.871797 242.692358 
L 100.517311 245.861543 
L 103.173223 247.711913 
L 83.054914 285.786167 
L 86.974777 288.165852 
L 88.357944 295.21567 
L 92.57167 297.423955 
L 95.536707 302.326716 
L 99.970471 304.305768 
L 117.808552 272.008546 
L 121.278034 273.302314 
L 135.958826 239.579226 
L 138.399685 240.318343 
L 123.902909 308.280116 
L 128.509835 309.36433 
L 134.575104 302.636563 
L 138.999308 303.38801 
L 142.597296 310.966965 
L 147.27946 311.462058 
L 154.423364 269.770755 
L 157.804382 269.914378 
L 161.41263 317.52 
L 166.291533 317.420257 
L 170.954148 314.055015 
L 175.719386 313.65698 
L 172.249649 250.481196 
L 175.015347 250.07386 
L 185.110962 287.078452 
L 189.020998 286.248633 
L 192.705327 284.541939 
L 196.531855 283.474591 
L 197.631169 274.142734 
L 201.128288 272.925649 
L 203.713129 269.428454 
L 207.059013 268.022468 
L 227.142287 301.705914 
L 231.491461 299.547306 
L 235.391372 296.571628 
L 239.575034 294.156189 
L 238.20352 283.07973 
L 241.961577 280.582542 
L 249.794846 283.624267 
L 253.564293 280.762353 
L 238.229827 255.053149 
L 241.106655 252.568991 
L 257.863996 264.699477 
L 261.034418 261.593208 
L 248.106158 243.530093 
L 250.615792 240.741098 
L 224.665733 214.670505 
L 226.279548 212.632798 
L 241.131377 220.095886 
L 242.907637 217.537781 
L 264.426674 227.347256 
L 266.419415 224.05311 
L 290.929827 232.964692 
L 293.086088 228.834451 
L 261.149953 208.899374 
L 262.564272 205.717376 
L 284.226592 210.410283 
L 285.677008 206.501959 
L 243.162237 188.594019 
L 243.947005 185.987635 
L 304.411028 198.318002 
L 305.471256 193.781013 
L 297.952598 187.65701 
L 298.680815 183.32836 
L 240.429058 171.913488 
L 240.690704 169.401287 
L 311.723022 170.896863 
L 311.917454 166.143527 
L 271.412595 161.641468 
L 271.335948 158.160156 
L 292.932551 153.173549 
L 292.579014 149.01979 
L 272.769396 147.446659 
L 272.245763 143.929705 
L 308.333857 133.178992 
L 307.344032 128.550867 
L 276.047818 131.910924 
L 275.034086 128.298571 
L 242.085403 135.292269 
L 241.194779 132.746096 
L 292.289653 109.212557 
L 290.554204 105.100747 
L 275.326678 107.444192 
L 273.544014 103.86661 
L 268.926576 101.868101 
L 266.971753 98.494508 
L 251.800979 103.631076 
L 249.910055 100.795079 
L 244.792396 100.333535 
L 242.801255 97.719533 
L 247.897412 89.15434 
L 245.553238 86.448237 
L 252.160152 75.212165 
L 249.375498 72.378925 
L 240.145912 76.501551 
L 237.407739 74.045428 
L 259.231387 41.456177 
L 255.381873 38.417292 
L 220.58096 78.625519 
L 217.919243 76.78351 
L 226.765838 56.505414 
L 223.405558 54.479876 
L 211.458497 68.341428 
L 208.477936 66.791335 
L 207.737602 60.379406 
L 204.508536 58.950243 
L 203.20758 52.533021 
L 199.734047 51.250171 
L 201.635468 32.97785 
L 197.547855 31.754099 
L 180.063066 84.390337 
L 177.60264 83.81945 
L 184.381414 32.697338 
L 180.293511 32.016231 
L 171.965755 67.086483 
L 168.965262 66.778749 
L 165.527636 74.351883 
L 162.758766 74.242985 
L 159.82231 53.166762 
L 156.390154 53.247726 
L 154.505915 75.216837 
L 151.76969 75.454058 
L 141.560489 20.131012 
L 137.098646 20.802502 
L 138.142392 49.146901 
L 134.594562 49.911517 
L 121.669958 15.362448 
L 117.068015 16.661697 
L 133.506995 80.975761 
L 130.962226 81.870387 
L 110.571753 38.761913 
L 106.711028 40.398545 
L 94.456749 24.585265 
L 90.158247 26.735597 
L 98.896514 52.146596 
L 95.462405 54.143705 
L 91.669406 55.592925 
L 88.347231 57.815566 
L 75.358762 46.975163 
L 71.77369 49.714908 
L 61.245788 44.21381 
L 57.580871 47.398663 
L 67.485418 64.793228 
L 64.464477 67.771718 
L 77.584774 85.652031 
L 75.214686 88.302662 
L 88.663864 103.813378 
L 86.859331 106.106679 
L 75.604333 101.663692 
L 73.738666 104.368676 
L 87.849416 117.018793 
L 86.460493 119.331173 
L 81.711524 119.838269 
L 80.414287 122.342243 
L 18.968973 97.203739 
L 16.991078 101.691667 
L 29.707805 111.849402 
L 28.185092 115.992437 
L 83.323556 137.980764 
L 82.595961 140.425082 
L 68.318363 139.525267 
L 67.64675 142.440618 
L 31.002924 138.840996 
L 30.328245 142.929964 
L 70.833365 151.836286 
L 70.547593 154.666472 
L 78.916694 157.962611 
L 78.819551 160.535611 
L 14.861118 163.713656 
L 14.976471 168.29786 
L 23.791476 172.256274 
L 24.171012 176.555465 
L 19.276642 181.576498 
L 19.951459 186.013036 
L 44.466915 185.668046 
L 45.257925 189.310525 
L 42.396046 193.932529 
L 43.447933 197.636033 
L 66.054479 194.106961 
L 67.100153 197.066506 
L 32.850316 214.40605 
L 34.550655 218.399571 
L 58.84892 211.490246 
L 60.444725 214.667755 
L 33.596749 233.856518 
L 35.908284 237.816952 
L 76.941636 216.662509 
L 78.691123 219.268587 
L 49.209604 245.052917 
L 51.865459 248.516913 
L 98.717825 214.66381 
L 100.393701 216.586184 
L 103.818176 216.836155 
L 105.559835 218.59709 
L 84.125474 245.554239 
L 86.779828 247.920156 
L 96.870021 241.112115 
L 99.378404 243.079511 
L 101.043818 246.238284 
L 103.711315 248.071913 
L 83.832868 286.271947 
L 87.767621 288.626932 
L 89.1951 295.667911 
L 93.422632 297.84965 
L 96.418446 302.733665 
L 100.864569 304.684793 
L 118.499166 272.276018 
L 121.976716 273.547939 
L 136.445119 239.733184 
L 138.890578 240.456935 
L 124.82153 308.508541 
L 129.435184 309.563758 
L 135.45802 302.797977 
L 139.886862 303.521584 
L 143.532446 311.077759 
L 148.217631 311.543394 
L 155.09918 269.807984 
L 158.481034 269.930341 
L 162.388623 317.512327 
L 167.266802 317.381901 
L 171.908159 313.9874 
L 176.6708 313.559402 
L 172.803792 250.40669 
L 175.566873 249.981967 
L 185.895026 286.922332 
L 189.799766 286.067938 
L 193.473287 284.338105 
L 197.293027 283.246711 
L 198.333627 273.908125 
L 201.823022 272.669068 
L 204.385816 269.155685 
L 207.722792 267.728684 
L 228.017518 301.285151 
L 232.35303 299.099232 
L 236.234148 296.099085 
L 240.402536 293.657381 
L 238.961384 282.589767 
L 242.703661 280.068992 
L 250.555905 283.06139 
L 254.307279 280.175825 
L 238.81142 254.563575 
L 241.672566 252.061372 
L 258.50587 264.086224 
L 261.656692 260.960077 
L 248.615081 242.97863 
L 251.107124 240.173906 
L 224.99361 214.26704 
L 226.594577 212.219223 
L 241.493051 219.588754 
L 243.253186 217.019528 
L 264.833493 226.693467 
L 266.805477 223.386853 
L 291.371453 232.144101 
L 293.501695 228.000381 
L 261.440811 208.266557 
L 262.835089 205.075728 
L 284.526497 209.632298 
L 285.952303 205.714929 
L 243.325742 188.074737 
L 244.094102 185.463468 
L 304.634479 197.413307 
L 305.666151 192.86974 
L 298.109126 186.793146 
L 298.810103 182.460001 
L 240.487705 171.411726 
L 240.733546 168.89793 
L 311.773865 169.946723 
L 311.938398 165.192258 
L 271.406025 160.94504 
L 271.307484 157.464279 
L 292.872297 152.341941 
L 292.492642 148.190487 
L 272.673522 146.741979 
L 272.127779 143.228388 
L 308.147543 132.250913 
L 307.12863 127.629106 
L 275.854168 131.185932 
L 274.817736 127.580025 
L 241.913691 134.780814 
L 241.007071 132.240293 
L 291.952922 108.385862 
L 290.191646 104.285048 
L 274.97916 106.724219 
L 273.17403 103.15792 
L 268.544114 101.188491 
L 266.568112 97.82726 
L 251.429944 103.059142 
L 249.52122 100.235094 
L 244.40076 99.805746 
L 242.393217 97.204319 
L 247.435404 88.607243 
L 245.074256 85.915937 
L 251.610371 74.638533 
L 248.807952 71.822864 
L 239.604479 76.003457 
L 236.850912 73.564604 
L 258.46916 40.838739 
L 254.60061 37.824126 
L 220.053272 78.250435 
L 217.380022 76.425204 
L 226.098905 56.091869 
L 222.725951 54.087505 
L 210.866308 68.023923 
L 207.876056 66.492606 
L 207.09541 60.085461 
L 203.85742 58.676635 
L 202.516128 52.267722 
L 199.034595 51.006744 
L 200.821056 32.722826 
L 196.725827 31.524808 
L 179.572436 84.269974 
L 177.108468 83.714573 
L 183.565579 32.550838 
L 179.473474 31.895455 
L 171.366455 67.01739 
L 168.364085 66.728533 
L 164.974158 74.323139 
L 162.204657 74.231657 
L 159.135702 53.174319 
L 155.704123 53.276868 
L 153.958095 75.257395 
L 151.223416 75.511821 
L 140.666466 20.254079 
L 136.208934 20.953618 
L 137.43093 49.290892 
L 133.887979 50.077807 
L 120.746337 15.61071 
L 116.152657 16.938877 
L 132.995811 81.148277 
L 130.456719 82.05889 
L 109.795521 39.079514 
L 105.945166 40.740395 
L 93.591673 25.0045 
L 89.30678 27.181825 
L 98.204695 52.537362 
L 94.783215 54.55603 
L 90.999405 56.029078 
L 87.691275 58.27257 
L 74.634883 47.514071 
L 71.067113 50.27631 
L 60.504821 44.841535 
L 56.860007 48.049375 
L 66.87376 65.381302 
L 63.871612 68.378733 
L 77.104107 86.176173 
L 74.750737 88.841658 
L 88.297202 104.26748 
L 86.507129 106.572085 
L 75.224409 102.199974 
L 73.375792 104.916638 
L 87.565825 117.477756 
L 86.191473 119.798826 
L 81.445787 120.33578 
L 80.164324 122.847864 
L 18.562119 98.096313 
L 16.612489 102.596592 
L 29.392852 112.674145 
L 27.896226 116.826675 
L 83.171893 138.467777 
L 82.459686 140.916623 
L 68.176711 140.106624 
L 67.523447 143.026142 
L 30.857706 139.65706 
L 30.208758 143.75019 
L 70.769092 152.401582 
L 70.501127 155.23351 
L 78.890793 158.476946 
L 78.809835 161.050506 
L 14.872654 164.630751 
L 15.016837 169.214139 
L 23.856564 173.117033 
L 24.263133 177.413751 
L 19.400439 182.465468 
L 20.103146 186.897675 
L 44.615947 186.398503 
L 45.42985 190.035934 
L 42.597098 194.675847 
L 43.672257 198.372662 
L 66.25616 194.701477 
L 67.320427 197.654387 
L 33.180324 215.209001 
L 34.905746 219.191748 
L 59.160074 212.129737 
L 60.775833 215.297147 
L 34.049074 234.654389 
L 36.385472 238.600206 
L 77.284963 217.188106 
L 79.050806 219.783128 
L 49.732039 245.75237 
L 52.409628 249.199594 
L 99.04815 215.052486 
L 100.736085 216.964282 
L 104.162064 217.19271 
L 105.914763 218.942655 
L 84.650372 246.034082 
L 87.319554 248.383258 
L 97.366728 241.511889 
L 99.887435 243.463471 
L 101.572683 246.611706 
L 104.25166 248.428522 
L 84.613863 286.752824 
L 88.56335 289.083015 
L 90.035084 296.114877 
L 94.276254 298.269984 
L 97.302727 303.135061 
L 101.761033 305.058187 
L 119.191449 272.539141 
L 122.67693 273.789165 
L 136.93237 239.884081 
L 139.382333 240.592437 
L 125.74157 308.731183 
L 130.361769 309.757362 
L 136.341933 302.953835 
L 140.775239 303.649572 
L 144.468275 311.18267 
L 149.156296 311.618828 
L 155.775216 269.840963 
L 159.157772 269.942047 
L 163.364548 317.498515 
L 168.24181 317.337411 
L 172.861726 313.913786 
L 177.621581 313.455841 
L 173.357455 250.328701 
L 176.11781 249.886608 
L 186.678092 286.761283 
L 190.577381 285.882347 
L 194.239951 284.129444 
L 198.05275 283.014048 
L 199.034595 273.669102 
L 202.516128 272.408124 
L 205.056775 268.878692 
L 208.38471 267.430731 
L 228.890085 300.858892 
L 233.211763 298.645748 
L 237.073935 295.62125 
L 241.226884 293.153378 
L 239.716152 282.095047 
L 243.442501 279.550785 
L 251.31341 282.493737 
L 255.046561 279.584635 
L 239.389922 254.070352 
L 242.235274 251.550204 
L 259.143874 263.468946 
L 262.274972 260.323044 
L 249.120526 242.423977 
L 251.59488 239.603635 
L 225.318942 213.861521 
L 226.906998 211.803675 
L 241.851527 219.079357 
L 243.595469 216.499111 
L 265.236193 226.037131 
L 267.187341 222.71818 
L 291.807909 231.320749 
L 293.912047 227.163713 
L 261.727683 207.631924 
L 263.101865 204.432389 
L 284.821502 208.852442 
L 286.222642 204.926183 
L 243.485977 187.554437 
L 244.237898 184.938387 
L 304.852236 196.507225 
L 305.855311 191.957259 
L 298.260217 185.928315 
L 298.933928 181.590847 
L 240.543196 170.909605 
L 240.773222 168.394312 
L 311.818732 168.996281 
L 311.953358 164.240876 
L 271.395075 160.248668 
L 271.274643 156.768596 
L 292.806813 151.510728 
L 292.401055 147.361744 
L 272.573217 146.037915 
L 272.005386 142.527826 
L 307.955397 131.324025 
L 306.907435 126.708717 
L 275.655962 130.462171 
L 274.596871 126.862855 
L 241.738766 134.270449 
L 240.816185 131.73568 
L 291.610998 107.5613 
L 289.823965 103.471645 
L 274.62712 106.006446 
L 272.799597 102.45157 
L 268.157386 100.5113 
L 266.160282 97.162564 
L 251.055319 102.489553 
L 249.128871 99.677565 
L 244.005812 99.28043 
L 241.981948 96.691681 
L 246.969964 88.063063 
L 244.591936 85.386661 
L 251.056993 74.068371 
L 248.236921 71.270383 
L 239.059923 75.508779 
L 236.291071 73.087292 
L 257.703065 40.226108 
L 253.815631 37.235885 
L 219.523235 77.878678 
L 216.838558 76.070296 
L 225.429383 55.682526 
L 222.04389 53.699416 
L 210.272134 67.710149 
L 207.27231 66.19767 
L 206.451382 59.795561 
L 203.204595 58.407127 
L 201.823022 52.006778 
L 198.333627 50.767721 
L 200.005057 32.472929 
L 195.902374 31.300691 
L 179.08106 84.152699 
L 176.613647 83.612806 
L 182.748839 32.409471 
L 178.652693 31.779838 
L 170.766731 66.952067 
L 167.762604 66.682099 
L 164.42051 74.297876 
L 161.650489 74.223814 
L 158.449156 53.186195 
L 155.018289 53.310325 
L 153.410541 75.301398 
L 150.677516 75.573019 
L 139.773235 20.382767 
L 135.320191 21.110328 
L 136.720388 49.439355 
L 133.182456 50.248538 
L 119.824296 15.864776 
L 115.23906 17.221808 
L 132.485722 81.324004 
L 129.952407 82.250569 
L 109.021302 39.40199 
L 105.181469 41.087055 
L 92.729251 25.429168 
L 88.458136 27.633399 
L 97.515348 52.932472 
L 94.106631 54.972619 
L 90.332161 56.469436 
L 87.038206 58.73369 
L 73.914408 48.057521 
L 70.364082 50.842144 
L 59.767817 45.473908 
L 56.14325 48.704608 
L 66.265813 65.973212 
L 63.282577 68.989466 
L 76.626745 86.703328 
L 74.290187 89.383562 
L 87.933404 104.723879 
L 86.15786 107.039697 
L 74.847866 102.738635 
L 73.016372 105.466872 
L 87.285126 117.938494 
L 85.925399 120.268162 
L 81.183185 120.834953 
L 79.917546 123.355046 
L 18.160887 98.991428 
L 16.2396 103.503881 
L 29.083091 113.500853 
L 27.612612 117.662714 
L 83.023297 138.955735 
L 82.326505 141.409012 
L 68.038719 140.688861 
L 67.403829 143.612429 
L 30.717624 140.474021 
L 30.094432 144.571152 
L 70.708377 152.967271 
L 70.458228 155.800828 
L 78.868127 158.991434 
L 78.803357 161.565453 
L 14.889959 165.547755 
L 15.062966 170.130145 
L 23.927065 173.977366 
L 24.360649 178.271442 
L 19.529824 183.353642 
L 20.260393 187.781342 
L 44.76957 187.128008 
L 45.606334 190.760249 
L 42.80282 195.417885 
L 43.901209 199.107866 
L 66.461576 195.294713 
L 67.544395 198.240872 
L 33.515375 216.00986 
L 35.265812 219.981676 
L 59.475245 212.767259 
L 61.110892 215.924444 
L 34.506408 235.449399 
L 36.867577 239.380444 
L 77.631589 217.711532 
L 79.413719 220.295397 
L 50.258863 246.448524 
L 52.958081 249.878839 
L 99.380914 215.439076 
L 101.080839 217.340218 
L 104.508187 217.547095 
L 106.271858 219.285982 
L 85.178277 246.510614 
L 87.862181 248.842955 
L 97.865939 241.908532 
L 100.398871 243.844221 
L 102.103886 246.981795 
L 104.794237 248.781725 
L 85.397867 287.22878 
L 89.361931 289.534085 
L 90.877863 296.556552 
L 95.132503 298.684942 
L 98.189514 303.530887 
L 102.659828 305.425935 
L 119.885372 272.797905 
L 123.378646 274.025982 
L 137.420562 240.03191 
L 139.874931 240.724843 
L 126.662991 308.948034 
L 131.289554 309.945135 
L 137.226808 303.10413 
L 141.664403 303.771971 
L 145.404745 311.281692 
L 150.095416 311.688357 
L 156.451446 269.869689 
L 159.834572 269.949496 
L 164.340367 317.478566 
L 169.21652 317.286789 
L 173.814812 313.834175 
L 178.571692 313.346303 
L 173.910616 250.24723 
L 176.668136 249.787785 
L 187.46013 286.595313 
L 191.353814 285.69187 
L 195.005286 283.915966 
L 198.810995 282.776612 
L 199.734047 273.425675 
L 203.20758 272.142825 
L 205.725979 268.597484 
L 209.04474 267.128621 
L 229.759955 300.427153 
L 234.067628 298.186872 
L 237.910701 295.138143 
L 242.048046 292.6442 
L 240.467793 281.595589 
L 244.178066 279.027941 
L 252.067329 281.921332 
L 255.78211 278.988808 
L 239.96531 253.573501 
L 242.794756 251.035507 
L 259.777984 262.847668 
L 262.889234 259.682135 
L 249.622473 241.866156 
L 252.07904 239.030308 
L 225.641718 213.453963 
L 227.2168 211.38617 
L 242.206793 218.567716 
L 243.934473 215.976553 
L 265.634757 225.378276 
L 267.564992 222.047119 
L 292.239179 230.494668 
L 294.31713 226.32448 
L 262.010558 206.9955 
L 263.36459 203.787384 
L 285.111597 208.070746 
L 286.488015 204.135752 
L 243.642937 187.03314 
L 244.37839 184.412412 
L 305.06429 195.599792 
L 306.038729 191.043607 
L 298.405866 185.062551 
L 299.052283 180.720931 
L 240.595527 170.407145 
L 240.809729 167.890455 
L 311.85762 168.045576 
L 311.962335 163.289418 
L 271.379745 159.552378 
L 271.237428 156.073132 
L 292.736103 150.679943 
L 292.304258 146.533593 
L 272.468486 145.334497 
L 271.87859 141.828048 
L 307.757424 130.398363 
L 306.680455 125.789738 
L 275.453207 129.739672 
L 274.3715 126.147088 
L 241.560634 133.761194 
L 240.62213 131.232278 
L 291.263894 106.738906 
L 289.451175 102.660571 
L 274.270573 105.290902 
L 272.420728 101.74759 
L 267.766406 99.836555 
L 265.748279 96.500446 
L 250.677119 101.922331 
L 248.733024 99.122515 
L 243.607568 98.757609 
L 241.567462 96.18164 
L 246.50111 87.521821 
L 244.106296 84.860428 
L 250.50004 73.501701 
L 247.662426 70.721504 
L 238.512266 75.017535 
L 235.72824 72.61351 
L 256.933131 39.618307 
L 253.026968 36.652593 
L 218.99087 77.510262 
L 216.294873 75.718801 
L 224.757301 55.277402 
L 221.359402 53.315625 
L 209.675998 67.400118 
L 206.666721 65.906536 
L 205.805543 59.509717 
L 202.550088 58.141731 
L 201.128288 51.750198 
L 197.631169 50.533112 
L 199.187502 32.228169 
L 195.077527 31.081758 
L 178.588955 84.038517 
L 176.118196 83.514153 
L 181.931227 32.273245 
L 177.831201 31.669386 
L 170.166609 66.890518 
L 167.160843 66.639449 
L 163.866714 74.276095 
L 161.096282 74.219457 
L 157.762697 53.202389 
L 154.33268 53.348094 
L 152.863274 75.348844 
L 150.132012 75.637648 
L 138.880831 20.51707 
L 134.432451 21.272624 
L 136.010794 49.592285 
L 132.478022 50.423702 
L 118.903871 16.124636 
L 114.327261 17.51048 
L 131.976748 81.502937 
L 129.449311 82.445416 
L 108.249127 39.729329 
L 104.419967 41.438511 
L 91.869516 25.859252 
L 87.61235 28.090302 
L 96.828499 53.331909 
L 93.432681 55.393456 
L 89.6677 56.913982 
L 86.388051 59.198908 
L 73.197365 48.605492 
L 69.664623 51.412389 
L 59.034804 46.110904 
L 55.430629 49.364337 
L 65.661601 66.568934 
L 62.697395 69.60389 
L 76.152709 87.233476 
L 73.833054 89.928352 
L 87.572483 105.182558 
L 85.81154 107.509497 
L 74.474718 103.279653 
L 72.660419 106.019355 
L 87.00733 118.400989 
L 85.662283 120.739162 
L 80.923727 121.335768 
L 79.673964 123.863771 
L 17.765292 99.889049 
L 15.872424 104.413497 
L 28.778537 114.329493 
L 27.334262 118.50052 
L 82.877772 139.444618 
L 82.196424 141.902229 
L 67.904391 141.271955 
L 67.287902 144.199458 
L 30.582683 141.291847 
L 29.985272 145.392816 
L 70.65122 153.53333 
L 70.418897 156.368405 
L 78.848698 159.506055 
L 78.800118 162.08043 
L 14.91303 166.464632 
L 15.114855 171.045844 
L 24.002975 174.837238 
L 24.463558 179.128502 
L 19.664793 184.240985 
L 20.423195 188.664002 
L 44.927778 187.856533 
L 45.78737 191.483439 
L 43.013206 196.158616 
L 44.134781 199.841615 
L 66.670719 195.886646 
L 67.772046 198.825935 
L 33.855456 216.808595 
L 35.630839 220.769324 
L 59.794418 213.402786 
L 61.44989 216.549621 
L 34.968733 236.241517 
L 37.35458 240.157634 
L 77.981501 218.232768 
L 79.779846 220.805374 
L 50.790055 247.141351 
L 53.510794 250.554621 
L 99.716103 215.823566 
L 101.427951 217.713979 
L 104.856533 217.899296 
L 106.631105 219.627056 
L 85.709169 246.983816 
L 88.407689 249.299231 
L 98.367636 242.302027 
L 100.912692 244.221747 
L 102.637407 247.348535 
L 105.339025 249.131509 
L 86.184849 287.699796 
L 90.163333 289.980123 
L 91.723403 296.992917 
L 95.991345 299.094505 
L 99.078774 303.921128 
L 103.560918 305.788022 
L 120.58091 273.052299 
L 124.081839 274.258381 
L 137.909673 240.176666 
L 140.368352 240.854149 
L 127.585759 309.159086 
L 132.218501 310.127068 
L 138.112612 303.248857 
L 142.554319 303.888775 
L 146.341819 311.374823 
L 151.034955 311.751978 
L 157.127844 269.894161 
L 160.511404 269.952689 
L 165.316042 317.45248 
L 170.190891 317.230039 
L 174.767377 313.748572 
L 179.521095 313.230792 
L 174.463254 250.162282 
L 177.21783 249.685503 
L 188.241109 286.424428 
L 192.129034 285.496513 
L 195.769265 283.697679 
L 199.567732 282.534411 
L 200.431953 273.177854 
L 203.89735 271.873183 
L 206.3934 268.312072 
L 209.702858 266.822365 
L 230.627091 299.989952 
L 234.920589 297.722622 
L 238.744412 294.649783 
L 242.865989 292.129868 
L 241.216278 281.091414 
L 244.910329 278.500482 
L 252.817634 281.344196 
L 256.513897 278.388366 
L 240.537562 253.073041 
L 243.350989 250.517301 
L 260.408173 262.222414 
L 263.499452 259.037375 
L 250.120901 241.305189 
L 252.559583 238.453947 
L 225.961924 213.044384 
L 227.523969 210.966725 
L 242.558835 218.05385 
L 244.270182 215.451872 
L 266.02917 224.716927 
L 267.938415 221.373696 
L 292.665244 229.665891 
L 294.716926 225.482717 
L 262.289425 206.357309 
L 263.623253 203.140741 
L 285.396769 207.287242 
L 286.748411 203.343668 
L 243.796615 186.510865 
L 244.51557 183.885564 
L 305.270633 194.691042 
L 306.216396 190.128819 
L 298.546067 184.195888 
L 299.165165 179.850289 
L 240.644697 169.904366 
L 240.843066 167.386379 
L 311.890528 167.094646 
L 271.414786 162.337923 
z
" clip-path="url(#p9e4c58f825)" style="fill: #0000ff; opacity: 0.5; stroke: #000000; stroke-width: 1.5; stroke-linejoin: miter"/>
   </g>
  </g>
 </g>
 <defs>
  <clipPath id="p9e4c58f825">
   <rect x="0" y="-0" width="326.817684" height="332.64"/>
  </clipPath>
 </defs>
</svg>
