<?xml version="1.0" encoding="utf-8" standalone="no"?>
<!DOCTYPE svg PUBLIC "-//W3C//DTD SVG 1.1//EN"
  "http://www.w3.org/Graphics/SVG/1.1/DTD/svg11.dtd">
<svg xmlns:xlink="http://www.w3.org/1999/xlink" width="334.315171pt" height="332.64pt" viewBox="0 0 334.315171 332.64" xmlns="http://www.w3.org/2000/svg" version="1.1">
 <metadata>
  <rdf:RDF xmlns:dc="http://purl.org/dc/elements/1.1/" xmlns:cc="http://creativecommons.org/ns#" xmlns:rdf="http://www.w3.org/1999/02/22-rdf-syntax-ns#">
   <cc:Work>
    <dc:type rdf:resource="http://purl.org/dc/dcmitype/StillImage"/>
    <dc:date>2023-12-09T18:06:21.594171</dc:date>
    <dc:format>image/svg+xml</dc:format>
    <dc:creator>
     <cc:Agent>
      <dc:title>Matplotlib v3.8.2, https://matplotlib.org/</dc:title>
     </cc:Agent>
    </dc:creator>
   </cc:Work>
  </rdf:RDF>
 </metadata>
 <defs>
  <style type="text/css">*{stroke-linejoin: round; stroke-linecap: butt}</style>
 </defs>
 <g id="figure_1">
  <g id="patch_1">
   <path d="M 0 332.64 
L 334.315171 332.64 
L 334.315171 0 
L 0 0 
L 0 332.64 
z
" style="fill: none"/>
  </g>
  <g id="axes_1">
   <g id="patch_2">
    <path d="M 287.107975 173.893952 
L 287.047826 170.068898 
L 315.623152 164.436654 
L 315.251546 159.719697 
L 259.149809 162.045499 
L 258.730942 159.105369 
L 317.967049 144.770789 
L 316.975946 139.989857 
L 302.657331 138.629439 
L 301.480701 134.332915 
L 291.036331 133.046253 
L 289.689898 129.117879 
L 268.875641 132.901445 
L 267.535612 129.669924 
L 285.643458 117.272644 
L 283.803735 113.521632 
L 294.467861 102.883662 
L 292.171354 98.862307 
L 280.292305 100.924404 
L 277.941204 97.349727 
L 277.420477 92.438215 
L 274.803971 88.958031 
L 243.111875 109.559579 
L 241.050665 107.149668 
L 228.420378 114.675499 
L 226.527288 112.724991 
L 242.090657 92.150827 
L 239.482583 89.781633 
L 256.676506 63.427504 
L 253.158096 60.6139 
L 227.001399 89.013535 
L 224.302143 87.120331 
L 247.66306 44.065283 
L 243.540316 41.544654 
L 228.950148 58.102579 
L 225.27802 56.163385 
L 220.186921 57.238873 
L 216.491969 55.575641 
L 214.802726 48.817907 
L 210.845662 47.32813 
L 200.438229 65.762267 
L 197.021035 64.715763 
L 193.37461 64.55269 
L 189.922877 63.72888 
L 186.298065 63.80039 
L 182.826176 63.199454 
L 179.535434 61.119607 
L 175.982599 60.732629 
L 172.517451 58.859854 
L 168.897035 58.694653 
L 165.303418 77.851799 
L 162.283717 77.904033 
L 158.029695 58.882634 
L 154.417158 59.172949 
L 145.122631 15.12 
L 140.140483 15.837779 
L 140.783514 45.79054 
L 136.76786 46.629586 
L 144.607307 93.310238 
L 142.083886 94.00556 
L 118.687883 30.880054 
L 114.214335 32.421207 
L 122.522882 66.075888 
L 119.154072 67.479058 
L 115.488817 68.263965 
L 112.192283 69.887219 
L 95.015428 46.393441 
L 91.04136 48.671237 
L 85.419698 48.373496 
L 81.512631 50.952024 
L 80.047868 56.884431 
L 76.41106 59.627654 
L 67.746716 56.328616 
L 64.098513 59.458888 
L 60.550537 62.70232 
L 57.106296 66.055704 
L 72.480858 87.003177 
L 69.794791 89.969431 
L 103.043346 122.520348 
L 101.458905 124.50809 
L 35.718422 80.132992 
L 32.834517 84.258534 
L 83.553962 122.214102 
L 81.969528 124.814784 
L 77.658168 125.929124 
L 76.193458 128.713346 
L 79.16761 133.575127 
L 77.94256 136.308109 
L 44.770715 126.497796 
L 43.340145 130.315791 
L 17.65026 126.33153 
L 16.227872 131.002333 
L 68.48189 149.294466 
L 67.756374 152.355658 
L 30.156529 148.498766 
L 29.424944 152.765384 
L 28.827872 157.052896 
L 28.365905 161.357061 
L 48.811522 166.916231 
L 48.649799 170.58719 
L 66.211242 174.206046 
L 66.270123 177.326315 
L 32.885563 182.661481 
L 33.226779 186.825402 
L 68.621942 186.448621 
L 69.064565 189.48704 
L 34.247284 199.376628 
L 35.113388 203.489469 
L 51.598925 203.53962 
L 52.587343 207.104829 
L 22.514245 220.885313 
L 24.06243 225.356432 
L 77.024772 209.266518 
L 78.180685 212.029451 
L 50.504737 228.48937 
L 52.278171 232.076647 
L 26.865749 250.743402 
L 29.350586 255.062937 
L 34.666665 257.576789 
L 37.362502 261.647668 
L 37.602128 267.523272 
L 40.609253 271.496936 
L 86.155526 240.009795 
L 88.27356 242.470437 
L 105.000186 231.109524 
L 106.829059 232.982049 
L 103.260277 240.652124 
L 105.390051 242.574637 
L 68.488067 292.071488 
L 72.251771 295.061893 
L 90.141166 278.449989 
L 93.465874 280.766307 
L 87.488858 297.882695 
L 91.425884 300.2728 
L 97.349182 299.023072 
L 101.317189 301.102583 
L 118.855543 274.031055 
L 122.027112 275.446716 
L 112.128754 310.30587 
L 116.444209 311.9151 
L 140.081669 253.169171 
L 142.586801 253.92775 
L 143.158787 262.368076 
L 145.951631 263.025356 
L 142.760975 295.85522 
L 146.606924 296.508451 
L 155.594704 254.932282 
L 158.147601 255.202226 
L 157.310571 313.718635 
L 161.710992 313.905563 
L 166.096238 309.952323 
L 170.373894 309.864872 
L 174.754829 311.240012 
L 179.068692 310.87968 
L 177.328102 264.358212 
L 180.166626 263.940149 
L 189.29747 295.635701 
L 193.113508 294.825831 
L 188.583755 262.1538 
L 191.347402 261.382925 
L 212.921638 317.52 
L 217.414087 315.956514 
L 221.556738 313.509911 
L 225.918831 311.676902 
L 216.785488 281.533528 
L 220.144533 279.866347 
L 234.737127 298.374993 
L 238.616828 296.135047 
L 214.317251 249.997718 
L 216.685961 248.423736 
L 232.272933 264.835338 
L 235.099292 262.689454 
L 229.640913 250.633147 
L 232.022026 248.577041 
L 264.094718 277.790038 
L 267.312668 274.637202 
L 238.761319 241.974115 
L 240.865664 239.635525 
L 239.178269 234.191704 
L 241.037712 231.843852 
L 282.48163 257.911212 
L 285.065456 254.19008 
L 286.174596 249.539595 
L 288.493374 245.706488 
L 258.32611 224.253002 
L 259.863591 221.308014 
L 246.058328 211.248974 
L 247.192999 208.696141 
L 284.048966 220.03968 
L 285.441253 216.287993 
L 242.481515 198.413723 
L 243.214386 195.979699 
L 279.58455 202.464179 
L 280.426432 198.861552 
L 289.81246 196.831128 
L 290.472169 192.909699 
L 302.92792 190.400685 
L 303.378957 186.070056 
L 318.875944 182.587706 
L 319.073439 177.759499 
L 287.105569 173.12882 
L 287.021364 169.30422 
L 315.5607 163.492365 
L 315.159435 158.777838 
L 259.073436 161.456442 
L 258.636085 158.519005 
L 317.780864 143.812147 
L 316.759712 139.037543 
L 302.432824 137.767208 
L 301.229194 133.478169 
L 290.776938 132.257222 
L 289.405825 128.337394 
L 268.615776 132.251795 
L 267.255449 129.028766 
L 285.284965 116.517843 
L 283.421686 112.778477 
L 294.018694 102.073645 
L 291.696941 98.066813 
L 279.831097 100.203582 
L 277.457559 96.643763 
L 276.905952 91.735623 
L 274.267609 88.271965 
L 242.705712 109.07243 
L 240.629386 106.67553 
L 228.046682 114.28065 
L 226.141361 112.342087 
L 241.575023 91.670446 
L 238.9521 89.317701 
L 255.979931 62.855954 
L 252.443894 60.064534 
L 226.466332 88.628118 
L 223.755222 86.751928 
L 246.844886 43.550805 
L 242.70637 41.056156 
L 228.22063 57.705518 
L 224.536378 55.789458 
L 219.452144 56.896944 
L 215.746804 55.256984 
L 214.015093 48.510008 
L 210.048737 47.045148 
L 199.75745 65.544377 
L 196.333741 64.519386 
L 192.686364 64.379251 
L 189.229517 63.577166 
L 185.605227 63.671473 
L 182.129627 63.092385 
L 178.825869 61.033276 
L 175.27067 60.668651 
L 171.793812 58.817707 
L 168.172429 58.67528 
L 164.69937 77.854648 
L 161.680057 77.925873 
L 157.306486 58.931606 
L 153.695846 59.244636 
L 144.124435 15.251016 
L 139.1469 16.000115 
L 139.978304 45.94824 
L 135.968006 46.812525 
L 144.100893 93.442949 
L 141.581895 94.154128 
L 117.789331 31.177018 
L 113.325565 32.746276 
L 121.845616 66.348036 
L 118.485699 67.772366 
L 114.825452 68.580309 
L 111.539193 70.224265 
L 94.214915 46.838984 
L 90.255252 49.14173 
L 84.631828 48.879352 
L 80.741056 51.482402 
L 79.313634 57.423905 
L 75.694151 60.189946 
L 67.009229 56.945467 
L 63.380786 60.098622 
L 59.85328 63.364305 
L 56.430198 66.739286 
L 71.936203 87.589647 
L 69.268845 90.572736 
L 102.721469 122.913894 
L 101.149562 124.911562 
L 35.131284 80.950812 
L 32.273384 85.094411 
L 83.230544 122.730232 
L 81.662499 125.340828 
L 77.358233 126.482262 
L 75.911063 129.275641 
L 78.915734 134.11862 
L 77.707897 136.859252 
L 44.475007 127.257766 
L 43.068479 131.084682 
L 17.354042 127.262075 
L 15.961059 131.941732 
L 68.329091 149.904855 
L 67.622843 152.970549 
L 29.999484 149.350215 
L 29.294748 153.62135 
L 28.724654 157.912533 
L 28.289766 162.219518 
L 48.769944 167.649987 
L 48.631312 171.32189 
L 66.215167 174.830224 
L 66.293672 177.950061 
L 32.943327 183.49509 
L 33.310725 187.656783 
L 68.702819 187.057395 
L 69.164543 190.092969 
L 34.410151 200.201343 
L 35.302105 204.308655 
L 51.787631 204.25512 
L 52.798453 207.814042 
L 22.812621 221.783396 
L 24.388896 226.244689 
L 77.248994 209.821991 
L 78.422261 212.577599 
L 50.850384 229.211259 
L 52.646345 232.78731 
L 27.351829 251.613526 
L 29.863785 255.917348 
L 35.19557 258.397715 
L 37.916957 262.451558 
L 38.193533 268.325539 
L 41.22559 272.280211 
L 86.572925 240.507233 
L 88.706394 242.954505 
L 105.361235 231.488615 
L 107.201849 233.3496 
L 103.681378 241.041969 
L 105.823201 242.95105 
L 69.233255 292.679015 
L 73.015692 295.645688 
L 90.800254 278.921599 
L 94.139464 281.216961 
L 88.270219 298.370602 
L 92.222199 300.735898 
L 98.137521 299.44894 
L 102.118528 301.503454 
L 119.48627 274.322155 
L 122.666681 275.71784 
L 112.987762 310.63856 
L 117.313253 312.220616 
L 140.580767 253.327183 
L 143.09062 254.069992 
L 143.71568 262.506553 
L 146.512602 263.146254 
L 143.528491 295.995537 
L 147.378473 296.624566 
L 156.104584 254.992691 
L 158.659129 255.246573 
L 158.19015 313.76709 
L 162.59166 313.926338 
L 166.951955 309.945595 
L 171.228977 309.831242 
L 175.618474 311.178802 
L 179.929985 310.791344 
L 177.896836 264.281744 
L 180.732674 263.845837 
L 190.062685 295.483334 
L 193.873554 294.649479 
L 189.138402 262.006584 
L 191.897146 261.218343 
L 213.824026 317.218617 
L 218.306552 315.626908 
L 222.433734 313.154298 
L 226.784212 311.29389 
L 217.461465 281.208555 
L 220.809957 279.520281 
L 235.518672 297.936783 
L 239.384208 295.672479 
L 214.794934 249.688894 
L 217.153698 248.100045 
L 232.843581 264.413288 
L 235.656388 262.249671 
L 230.12229 250.227932 
L 232.490424 248.156891 
L 264.746215 277.167592 
L 267.944271 273.994579 
L 239.188055 241.51171 
L 241.27765 239.159931 
L 239.55605 233.72683 
L 241.400689 231.36733 
L 283.007737 257.173515 
L 285.568107 253.436206 
L 286.647977 248.778838 
L 288.9426 244.931222 
L 258.641003 223.667895 
L 260.159931 220.713296 
L 246.291676 210.741282 
L 247.410269 208.181363 
L 284.336851 219.292875 
L 285.705514 215.532505 
L 242.634207 197.928781 
L 243.351755 195.490196 
L 279.761983 201.7458 
L 280.58119 198.13795 
L 289.954262 196.048533 
L 290.589294 192.123032 
L 303.029019 189.535728 
L 303.45281 185.202348 
L 318.927588 181.622599 
L 319.094712 176.793246 
L 287.098351 172.363718 
L 286.990093 168.539723 
L 315.492311 162.548488 
L 315.061402 157.836577 
L 258.993359 160.867878 
L 258.537542 157.933249 
L 317.588654 142.854695 
L 316.537492 138.086608 
L 302.202898 136.906406 
L 300.972316 132.625022 
L 290.512588 131.469838 
L 289.116849 127.558711 
L 268.35183 131.603793 
L 266.971259 128.389382 
L 284.921731 115.765311 
L 283.034971 112.037738 
L 293.564443 101.266469 
L 291.217534 97.274319 
L 279.365364 99.485675 
L 276.969484 95.940855 
L 276.387018 91.036281 
L 273.726943 87.589285 
L 242.296494 108.587846 
L 240.205134 106.204052 
L 227.67051 113.888159 
L 225.753035 111.961618 
L 241.056378 91.193317 
L 238.418709 88.857115 
L 255.279774 62.288796 
L 251.726251 59.519671 
L 225.928852 88.246074 
L 223.205995 86.386973 
L 246.023491 43.041483 
L 241.869367 40.572913 
L 227.48863 57.313052 
L 223.792399 55.420202 
L 218.715231 56.559643 
L 214.99965 54.94302 
L 213.225538 48.207069 
L 209.250048 46.767184 
L 199.075314 65.330774 
L 195.645227 64.327336 
L 191.99704 64.210143 
L 188.535217 63.429816 
L 184.911591 63.546916 
L 181.432418 62.989699 
L 178.115774 60.95141 
L 174.558353 60.609151 
L 171.069923 58.780112 
L 167.447715 58.660464 
L 164.095352 77.861297 
L 161.076547 77.95151 
L 156.583599 58.985126 
L 152.975 59.320859 
L 143.127083 15.388307 
L 138.154358 16.168698 
L 139.174102 46.111001 
L 135.169319 47.000492 
L 143.595324 93.578842 
L 141.080849 94.30585 
L 116.892666 31.479627 
L 112.438857 33.076929 
L 121.170076 66.624438 
L 117.819183 68.069872 
L 114.164091 68.90082 
L 110.888236 70.565412 
L 93.417221 47.289553 
L 89.472118 49.617157 
L 83.847156 49.390153 
L 79.972833 52.017622 
L 78.582807 57.967985 
L 74.980792 60.756736 
L 66.275636 57.566945 
L 62.667097 60.742859 
L 59.1602 64.030663 
L 55.758412 67.427106 
L 71.395248 88.17953 
L 68.746704 91.179337 
L 102.402075 123.309457 
L 100.842762 125.316972 
L 34.549302 81.772309 
L 31.717519 85.933801 
L 82.91038 123.248386 
L 81.358784 125.868792 
L 77.061783 127.037275 
L 75.63221 129.8397 
L 78.667281 134.663686 
L 77.476706 137.411861 
L 44.184085 128.01958 
L 42.801653 131.855267 
L 17.063684 128.194465 
L 15.70016 132.88279 
L 68.180134 150.516193 
L 67.493181 153.586268 
L 29.847797 150.202635 
L 29.169938 154.478119 
L 28.626844 158.772802 
L 28.219053 163.082437 
L 48.73298 168.38399 
L 48.617446 172.056692 
L 66.223019 175.454364 
L 66.321144 178.573645 
L 33.006334 184.32832 
L 33.399899 188.48762 
L 68.787523 187.665647 
L 69.26833 190.698257 
L 34.578201 201.025016 
L 35.49597 205.126638 
L 51.980834 204.969419 
L 53.014019 208.521913 
L 23.11664 222.679585 
L 24.720943 227.130876 
L 77.476706 210.376042 
L 78.667281 213.124217 
L 51.200566 229.930959 
L 53.018982 233.495645 
L 27.843373 252.480576 
L 30.382347 256.768514 
L 35.729627 259.215298 
L 38.476456 263.251945 
L 38.789971 269.12407 
L 41.846841 273.059594 
L 86.993445 241.002035 
L 89.142264 243.435841 
L 105.724662 231.865428 
L 107.576944 233.7148 
L 104.104923 241.429159 
L 106.258711 243.324731 
L 69.982249 293.281842 
L 73.78327 296.224668 
L 91.462295 279.389054 
L 94.815876 281.663369 
L 89.054633 298.853585 
L 93.021412 301.193979 
L 98.928522 299.869842 
L 102.922372 301.899277 
L 120.118816 274.609283 
L 123.307941 275.984937 
L 113.848846 310.965841 
L 118.184202 312.520661 
L 141.080849 253.482053 
L 143.595324 254.209062 
L 144.273433 262.641525 
L 147.074323 263.263622 
L 144.296874 296.131023 
L 148.150736 296.735826 
L 156.614834 255.049892 
L 159.170925 255.287703 
L 159.070016 313.810012 
L 163.472441 313.941573 
L 167.807613 309.933485 
L 172.083831 309.792234 
L 176.481717 311.11216 
L 180.790706 310.697594 
L 178.465078 264.2017 
L 181.298119 263.747967 
L 190.826926 295.326157 
L 194.632476 294.468351 
L 189.692112 261.855882 
L 192.445844 261.050306 
L 214.7245 316.911565 
L 219.196927 315.291695 
L 223.308476 312.793176 
L 227.647167 310.905443 
L 218.135384 280.879338 
L 221.473192 279.170037 
L 236.297445 297.493665 
L 240.148664 295.205094 
L 215.270665 249.377071 
L 217.61939 247.773418 
L 233.411563 263.987658 
L 236.210707 261.806393 
L 230.601108 249.819698 
L 232.95617 247.733804 
L 265.393783 276.54106 
L 268.571821 273.347996 
L 239.611874 241.04663 
L 241.686636 238.681755 
L 239.930899 233.259589 
L 241.760662 230.888534 
L 283.529193 256.432524 
L 286.066007 252.679186 
L 287.116563 248.015118 
L 289.386942 244.153146 
L 258.95221 223.08082 
L 260.452525 220.116726 
L 246.521826 210.232133 
L 247.624296 207.66523 
L 284.620033 218.544274 
L 285.965019 214.77537 
L 242.783846 197.442889 
L 243.486042 194.999839 
L 279.934895 201.02632 
L 280.731394 197.413388 
L 290.091139 195.265061 
L 290.70147 191.335644 
L 303.124676 188.670152 
L 303.521204 184.334192 
L 318.973162 180.657187 
L 319.109909 175.826878 
L 287.086321 171.598677 
L 286.954014 167.775439 
L 315.417987 161.605059 
L 314.957451 156.895952 
L 258.909582 160.279828 
L 258.435318 157.348125 
L 317.390425 141.898471 
L 316.309296 137.13709 
L 301.967562 136.047067 
L 300.710077 131.773508 
L 290.243291 130.684132 
L 288.82298 126.781861 
L 268.083813 130.957463 
L 266.683053 127.751799 
L 284.553772 115.015079 
L 282.643605 111.299447 
L 293.105123 100.462166 
L 290.733153 96.484856 
L 278.895125 98.770711 
L 276.476998 95.24103 
L 275.863696 90.340217 
L 273.181994 86.910019 
L 241.884235 108.105844 
L 239.777924 105.735251 
L 227.291877 113.498042 
L 225.362323 111.583599 
L 240.534743 90.719459 
L 237.882433 88.399893 
L 254.576064 61.726053 
L 251.005196 58.979332 
L 225.388979 87.867418 
L 222.654483 86.025479 
L 245.19891 42.537338 
L 241.029342 40.094943 
L 226.754175 56.925198 
L 223.046113 55.055632 
L 217.976212 56.226983 
L 214.250536 54.633761 
L 212.434094 47.909102 
L 208.449627 46.494249 
L 198.391848 65.121465 
L 194.955518 64.13962 
L 191.306666 64.045375 
L 187.840004 63.286836 
L 184.217186 63.426724 
L 180.734577 62.8914 
L 177.405179 60.874011 
L 173.845676 60.554134 
L 170.345811 58.747071 
L 166.722922 58.650207 
L 163.491388 77.871744 
L 160.47321 77.980942 
L 155.861063 59.043192 
L 152.254647 59.401613 
L 142.130614 15.531869 
L 137.162895 16.343519 
L 138.370939 46.278817 
L 134.371831 47.193478 
L 143.09062 93.717911 
L 140.580767 94.46072 
L 115.997921 31.78787 
L 111.554247 33.413152 
L 120.496287 66.905083 
L 117.154552 68.371564 
L 113.504758 69.225484 
L 110.239437 70.910646 
L 92.622375 47.74513 
L 88.69199 50.097501 
L 83.065712 49.905879 
L 79.20799 52.557664 
L 77.855417 58.516651 
L 74.271013 61.328002 
L 65.545967 58.193024 
L 61.957474 61.391571 
L 58.471324 64.701366 
L 55.090965 68.119137 
L 70.858013 88.772804 
L 68.228389 91.789209 
L 102.085174 123.707021 
L 100.538518 125.724303 
L 33.972499 82.59745 
L 31.166945 86.77667 
L 82.593481 123.768543 
L 81.058397 126.398656 
L 76.768829 127.594141 
L 75.35691 130.405503 
L 78.422261 135.210304 
L 77.248994 137.965912 
L 43.897959 128.78321 
L 42.53968 132.627515 
L 16.779195 129.128662 
L 15.445185 133.825471 
L 68.035025 151.128455 
L 67.367395 154.202791 
L 29.701474 151.055993 
L 29.050518 155.335655 
L 28.534447 159.633669 
L 28.153769 163.945784 
L 48.700635 169.11821 
L 48.608201 172.791567 
L 66.234796 176.078442 
L 66.352538 179.197045 
L 33.07458 185.161137 
L 33.494297 189.317879 
L 68.876051 188.273355 
L 69.375922 191.302881 
L 34.751429 201.847617 
L 35.694977 205.943385 
L 52.178526 205.682489 
L 53.234034 209.228415 
L 23.426289 223.573844 
L 25.058556 228.014957 
L 77.707897 210.928651 
L 78.915734 213.669283 
L 51.555266 230.648443 
L 53.396067 234.201621 
L 28.34036 253.344518 
L 30.906253 257.616402 
L 36.268815 260.029506 
L 39.040979 264.048797 
L 39.39142 269.918834 
L 42.472981 273.835054 
L 87.417069 241.494183 
L 89.581152 243.914425 
L 106.090451 232.239948 
L 107.954328 234.077633 
L 104.530894 241.813677 
L 106.696562 243.695665 
L 70.735019 293.879946 
L 74.554474 296.798808 
L 92.127263 279.852336 
L 95.495082 282.105514 
L 89.842069 299.331625 
L 93.823489 301.647024 
L 99.722154 300.285761 
L 103.72869 302.290036 
L 120.753155 274.892426 
L 123.95087 276.247995 
L 114.711971 311.2877 
L 119.05702 312.815222 
L 141.581895 253.633775 
L 144.100893 254.344955 
L 144.832024 262.772986 
L 147.636772 263.377455 
L 145.066095 296.261675 
L 148.923685 296.842227 
L 157.125434 255.103883 
L 159.68297 255.325613 
L 159.950135 313.847399 
L 164.3533 313.951269 
L 168.663178 309.915994 
L 172.938423 309.747851 
L 177.344524 311.040091 
L 181.65082 310.598431 
L 179.032805 264.118085 
L 181.862936 263.646542 
L 191.590164 295.164176 
L 195.390243 294.282452 
L 190.244863 261.701701 
L 192.993474 260.878821 
L 215.623025 316.598856 
L 220.085175 314.950888 
L 224.180929 312.42656 
L 228.507661 310.511576 
L 218.80722 280.545889 
L 222.134211 278.815628 
L 237.073416 297.045658 
L 240.910165 294.73291 
L 215.744426 249.062262 
L 218.083018 247.443869 
L 233.976858 263.558465 
L 236.762227 261.359637 
L 231.07735 249.408461 
L 233.419245 247.307796 
L 266.037399 275.910468 
L 269.195291 272.697479 
L 240.03276 240.578893 
L 242.092607 238.201016 
L 240.302802 232.79 
L 242.117616 230.407484 
L 284.045978 255.688268 
L 286.559136 251.919049 
L 287.580337 247.248466 
L 289.826381 243.372291 
L 259.259718 222.491799 
L 260.741361 219.518327 
L 246.748769 209.721546 
L 247.835073 207.14776 
L 284.898502 217.793907 
L 286.219756 214.016618 
L 242.930426 196.956065 
L 243.617243 194.508647 
L 280.103278 200.305766 
L 280.877038 196.687896 
L 290.223086 194.480744 
L 290.808691 190.547566 
L 303.214887 187.803992 
L 303.584136 183.465624 
L 319.012662 179.691508 
L 319.119026 174.860434 
L 287.069479 170.833727 
L 286.913129 167.011396 
L 315.337731 160.662116 
L 314.847587 155.955999 
L 258.822109 159.692318 
L 258.329415 156.763655 
L 317.186187 140.943512 
L 316.075133 136.189025 
L 301.726827 135.189226 
L 300.442489 130.92366 
L 289.969057 129.900135 
L 288.524232 126.006875 
L 267.811737 130.312831 
L 266.390843 127.116041 
L 284.181102 114.267177 
L 282.247604 110.563631 
L 292.640754 99.660768 
L 290.243816 95.698455 
L 278.420399 98.058719 
L 275.980119 94.544317 
L 275.336007 89.647458 
L 272.632784 86.234194 
L 241.468954 107.626445 
L 239.347775 105.269147 
L 226.910798 113.110314 
L 224.969241 111.208045 
L 240.010137 90.248891 
L 237.343291 87.946053 
L 253.868829 61.167747 
L 250.280756 58.443539 
L 224.846736 87.492166 
L 222.100709 85.667461 
L 244.371174 42.038388 
L 240.186328 39.622266 
L 226.017295 56.54197 
L 222.297548 54.695763 
L 217.235114 55.898978 
L 213.499492 54.32922 
L 211.640792 47.616118 
L 207.647504 46.226353 
L 197.707079 64.916458 
L 194.264642 63.956246 
L 190.615269 63.884952 
L 187.143905 63.148231 
L 183.522039 63.310901 
L 180.036132 62.797492 
L 176.694112 60.801083 
L 173.132667 60.503599 
L 169.621505 58.718584 
L 165.998079 58.644508 
L 162.887501 77.885989 
L 159.87007 78.014168 
L 155.138906 59.1058 
L 151.534816 59.486897 
L 141.135068 15.681694 
L 136.172552 16.524573 
L 137.568848 46.451681 
L 133.575571 47.391476 
L 142.586801 93.860153 
L 140.081669 94.618732 
L 115.105132 32.101734 
L 110.671768 33.754932 
L 119.824277 67.18996 
L 116.491831 68.67743 
L 112.84748 69.554288 
L 109.592823 71.259954 
L 91.830411 48.205698 
L 87.914899 50.582742 
L 82.287527 50.426509 
L 78.44656 53.102505 
L 77.131491 59.069881 
L 73.56484 61.90372 
L 64.82025 58.82368 
L 61.251944 62.044733 
L 57.786681 65.376389 
L 54.427885 68.815353 
L 70.32452 89.369446 
L 67.71392 92.40233 
L 101.77078 124.106571 
L 100.236843 126.133541 
L 33.400896 83.426203 
L 30.621683 87.622985 
L 82.279859 124.290682 
L 80.761347 126.930398 
L 76.479384 128.152839 
L 75.085175 130.973025 
L 78.180685 135.758452 
L 77.024772 138.521385 
L 43.616643 129.548623 
L 42.282568 133.401396 
L 16.500587 130.064631 
L 15.196144 134.769737 
L 67.89377 151.741618 
L 67.245489 154.820092 
L 29.560521 151.910254 
L 28.936495 156.193925 
L 28.447466 160.4951 
L 28.093917 164.809524 
L 48.672907 169.85262 
L 48.603579 173.526485 
L 66.250497 176.702434 
L 66.387851 179.820235 
L 33.148062 185.993509 
L 33.593915 190.147529 
L 68.9684 188.880494 
L 69.487315 191.906816 
L 34.929827 202.669112 
L 35.899116 206.758864 
L 52.380698 206.394302 
L 53.458487 209.933519 
L 23.741556 224.466138 
L 25.401724 228.896897 
L 77.94256 211.479794 
L 79.16761 214.212776 
L 51.914473 231.363681 
L 53.777584 234.905212 
L 28.842771 254.205316 
L 31.435481 258.460978 
L 36.813114 260.840306 
L 39.610502 264.842083 
L 39.997855 270.7098 
L 43.103987 274.606561 
L 87.843779 241.983657 
L 90.023042 244.39024 
L 106.458588 232.612159 
L 108.333986 234.438086 
L 104.959276 242.195508 
L 107.136737 244.063838 
L 71.491537 294.473305 
L 75.329274 297.368086 
L 92.795131 280.311426 
L 96.177055 282.543378 
L 90.632497 299.804703 
L 94.628401 302.095015 
L 100.518387 300.69668 
L 104.537449 302.675716 
L 121.389262 275.171574 
L 124.595439 276.507005 
L 115.577104 311.604123 
L 119.931674 313.104288 
L 142.083886 253.782343 
L 144.607307 254.477665 
L 145.39143 262.900931 
L 148.199925 263.487748 
L 145.836122 296.387486 
L 149.697286 296.943764 
L 157.636363 255.154662 
L 160.195243 255.360301 
L 160.830472 313.87925 
L 165.234203 313.955424 
L 169.518617 309.893123 
L 173.792719 309.698094 
L 178.20686 310.962596 
L 182.510293 310.493861 
L 179.599995 264.0309 
L 182.427104 263.541566 
L 192.352368 294.997399 
L 196.146827 294.091792 
L 190.796634 261.544047 
L 193.540015 260.703896 
L 216.519566 316.280501 
L 220.971263 314.604502 
L 225.051059 312.054463 
L 229.365662 310.112304 
L 219.476945 280.20822 
L 222.792988 278.457069 
L 237.846554 296.592779 
L 241.668681 294.255946 
L 216.216198 248.74448 
L 218.544564 247.11141 
L 234.539441 263.125724 
L 237.310926 260.909421 
L 231.550995 248.994236 
L 233.879633 246.878884 
L 266.677036 275.27584 
L 269.814657 272.043054 
L 240.450695 240.108519 
L 242.495546 237.717734 
L 240.671745 232.318082 
L 242.471538 229.924198 
L 284.558073 254.940777 
L 287.047474 251.155826 
L 288.03928 246.478912 
L 290.260901 242.588688 
L 259.563516 221.900856 
L 261.026428 218.918124 
L 246.972497 209.209542 
L 248.042591 206.628974 
L 285.172245 217.041803 
L 286.469716 213.256279 
L 243.073941 196.468328 
L 243.745352 194.016639 
L 280.267126 199.584167 
L 281.018116 195.961503 
L 290.350098 193.695613 
L 290.910954 189.758829 
L 303.299648 186.937282 
L 303.641605 182.596677 
L 319.046088 178.725599 
L 287.107975 173.893952 
z
" clip-path="url(#p14e936931b)" style="fill: #0000ff; opacity: 0.5; stroke: #000000; stroke-width: 1.5; stroke-linejoin: miter"/>
   </g>
  </g>
 </g>
 <defs>
  <clipPath id="p14e936931b">
   <rect x="0" y="-0" width="334.315171" height="332.64"/>
  </clipPath>
 </defs>
</svg>
