<?xml version="1.0" encoding="utf-8" standalone="no"?>
<!DOCTYPE svg PUBLIC "-//W3C//DTD SVG 1.1//EN"
  "http://www.w3.org/Graphics/SVG/1.1/DTD/svg11.dtd">
<svg xmlns:xlink="http://www.w3.org/1999/xlink" width="330.252104pt" height="332.64pt" viewBox="0 0 330.252104 332.64" xmlns="http://www.w3.org/2000/svg" version="1.1">
 <metadata>
  <rdf:RDF xmlns:dc="http://purl.org/dc/elements/1.1/" xmlns:cc="http://creativecommons.org/ns#" xmlns:rdf="http://www.w3.org/1999/02/22-rdf-syntax-ns#">
   <cc:Work>
    <dc:type rdf:resource="http://purl.org/dc/dcmitype/StillImage"/>
    <dc:date>2023-12-09T18:06:17.323989</dc:date>
    <dc:format>image/svg+xml</dc:format>
    <dc:creator>
     <cc:Agent>
      <dc:title>Matplotlib v3.8.2, https://matplotlib.org/</dc:title>
     </cc:Agent>
    </dc:creator>
   </cc:Work>
  </rdf:RDF>
 </metadata>
 <defs>
  <style type="text/css">*{stroke-linejoin: round; stroke-linecap: butt}</style>
 </defs>
 <g id="figure_1">
  <g id="patch_1">
   <path d="M 0 332.64 
L 330.252104 332.64 
L 330.252104 0 
L 0 0 
L 0 332.64 
z
" style="fill: none"/>
  </g>
  <g id="axes_1">
   <g id="patch_2">
    <path d="M 304.894086 167.709332 
L 304.826724 163.425585 
L 285.200047 160.369397 
L 284.911639 156.708503 
L 258.247534 156.379345 
L 257.846996 153.56787 
L 304.005463 141.862826 
L 303.12587 137.619799 
L 259.134269 144.453192 
L 258.358308 141.619733 
L 267.118142 135.681536 
L 266.062433 132.601384 
L 243.921747 137.875106 
L 242.946478 135.523215 
L 257.392015 125.903766 
L 256.033681 123.134258 
L 251.178746 122.285833 
L 249.709729 119.713473 
L 239.618325 122.616424 
L 238.165418 120.407385 
L 268.750952 94.887022 
L 266.411767 91.7757 
L 273.568246 80.792812 
L 270.783527 77.536993 
L 245.780197 95.171601 
L 243.461318 92.782389 
L 233.081363 98.986615 
L 230.888715 96.994796 
L 221.198685 104.077419 
L 219.171978 102.456701 
L 245.887038 61.193376 
L 242.499756 58.817605 
L 211.96739 99.303289 
L 209.795138 97.975183 
L 243.517683 31.183759 
L 239.188005 28.897323 
L 233.135164 30.272182 
L 228.781957 28.312646 
L 203.796787 78.633123 
L 200.97866 77.572139 
L 209.391932 41.786262 
L 205.412492 40.567572 
L 198.892702 49.280792 
L 195.154097 48.388516 
L 186.899777 71.327276 
L 183.860292 70.801183 
L 184.085331 44.104997 
L 180.191309 43.680855 
L 178.003477 15.405117 
L 173.210075 15.186392 
L 168.418287 19.011114 
L 163.743005 19.091986 
L 159.824895 30.973446 
L 155.529984 31.318599 
L 156.686813 74.270719 
L 153.754815 74.693132 
L 149.070815 66.033792 
L 145.883595 66.699742 
L 146.61862 82.539824 
L 143.951598 83.274715 
L 124.854749 33.775368 
L 120.665227 35.218673 
L 119.403208 44.025939 
L 115.538681 45.635585 
L 110.06219 43.847131 
L 106.196659 45.750567 
L 119.710636 79.121179 
L 116.949428 80.703807 
L 87.451532 40.360476 
L 83.487553 42.976564 
L 92.918536 63.952113 
L 89.693627 66.384642 
L 84.556364 66.522411 
L 81.416405 69.216594 
L 114.692167 110.515148 
L 112.920535 112.240045 
L 111.204015 114.019793 
L 109.544302 115.852632 
L 80.894448 95.471738 
L 78.66653 98.266747 
L 77.158584 101.586445 
L 75.124773 104.495894 
L 85.034727 114.946105 
L 83.417078 117.601306 
L 32.008976 93.058505 
L 29.729351 97.391774 
L 56.505424 115.307101 
L 54.913231 118.859147 
L 45.462413 119.329007 
L 44.002138 123.226282 
L 32.289726 123.828807 
L 30.977448 128.138035 
L 44.139163 136.123544 
L 43.207599 140.05412 
L 73.006631 149.756841 
L 72.489455 152.77302 
L 58.159169 154.089597 
L 57.785566 157.57047 
L 24.881865 159.108822 
L 24.682531 163.633525 
L 40.974519 168.110845 
L 41.050271 172.12511 
L 24.161973 177.265281 
L 24.533873 181.803642 
L 15.011459 187.629376 
L 15.713753 192.450325 
L 57.072282 189.380043 
L 57.808825 192.877643 
L 68.44924 193.800126 
L 69.319135 196.937823 
L 38.485089 210.50153 
L 39.894928 214.573108 
L 76.128454 204.719523 
L 77.337882 207.61037 
L 77.23113 211.129768 
L 78.641565 213.982775 
L 46.779135 235.28967 
L 48.964266 239.088209 
L 65.694878 233.585158 
L 67.817063 236.789787 
L 77.576269 234.406353 
L 79.7184 237.236999 
L 49.060893 267.419072 
L 52.255115 271.129982 
L 71.396709 259.754523 
L 74.338897 262.766936 
L 78.435717 264.546094 
L 81.525082 267.334816 
L 98.034076 253.774883 
L 100.775081 255.952716 
L 77.646656 294.050529 
L 81.664096 296.849473 
L 115.605989 252.068617 
L 118.284657 253.694793 
L 127.712361 242.927513 
L 130.097627 244.177558 
L 121.024766 270.056468 
L 124.266333 271.503372 
L 134.9215 253.995253 
L 137.651196 255.013155 
L 132.580135 280.413364 
L 136.141631 281.491821 
L 137.832854 290.007003 
L 141.693399 290.91556 
L 141.023269 316.19472 
L 145.705636 316.990015 
L 157.838893 256.584391 
L 160.638666 256.88044 
L 162.903156 266.414813 
L 166.009515 266.54677 
L 169.063402 254.903235 
L 171.804766 254.847192 
L 178.33003 310.630757 
L 182.819008 310.255797 
L 180.708529 259.566044 
L 183.590745 259.141547 
L 196.333835 309.051361 
L 200.764252 308.111103 
L 191.34801 254.315319 
L 194.05987 253.55889 
L 201.632608 267.501608 
L 204.753989 266.415288 
L 210.742454 272.455217 
L 214.015084 271.080015 
L 213.221552 261.170048 
L 216.138125 259.722477 
L 233.016455 283.35354 
L 236.620738 281.272606 
L 228.801021 261.391191 
L 231.716845 259.453658 
L 245.172536 271.855261 
L 248.409278 269.397798 
L 262.555895 279.97755 
L 266.039425 276.9695 
L 223.327653 225.298139 
L 225.111338 223.550546 
L 227.980117 222.807311 
L 229.683185 220.914666 
L 259.649641 242.13502 
L 261.944756 239.23706 
L 246.439839 223.555435 
L 248.157302 221.082006 
L 288.718902 242.945568 
L 291.02513 239.133206 
L 274.04754 224.85931 
L 275.792351 221.51719 
L 282.37572 220.41334 
L 283.976621 216.811562 
L 312.308336 223.606696 
L 313.994844 219.062191 
L 310.344706 212.813861 
L 311.692835 208.336434 
L 297.795074 200.037733 
L 298.747698 195.961211 
L 255.931816 183.807612 
L 256.394828 181.055387 
L 253.679181 177.918714 
L 253.958146 175.240228 
L 279.802955 174.007785 
L 279.946036 170.509844 
L 304.891391 166.852447 
L 304.797089 162.569208 
L 285.151578 159.636521 
L 284.84015 155.977514 
L 258.174503 155.816065 
L 257.75629 153.007165 
L 303.840226 141.012042 
L 302.933964 136.774631 
L 258.986212 143.884571 
L 258.192445 141.056048 
L 266.914757 135.062874 
L 265.839697 131.989422 
L 243.732618 137.402293 
L 242.742576 135.056582 
L 257.127326 125.346469 
L 255.7516 122.585559 
L 250.891426 121.767685 
L 249.406259 119.204615 
L 239.333313 122.170978 
L 237.86654 119.971121 
L 268.290961 94.258897 
L 265.932254 91.162349 
L 273.019515 80.134668 
L 270.214374 76.896427 
L 245.32245 94.687944 
L 242.98859 92.313364 
L 232.647862 98.58275 
L 230.44273 96.604761 
L 220.797437 103.74819 
L 218.760577 102.14025 
L 245.215585 60.709719 
L 241.813428 58.355299 
L 211.536298 99.032213 
L 209.355736 97.717796 
L 242.657534 30.715597 
L 238.313561 28.456438 
L 232.269487 29.869338 
L 227.904041 27.93722 
L 203.235853 78.413845 
L 200.411108 77.370606 
L 208.599142 41.532522 
L 204.612115 40.338885 
L 198.147255 49.092938 
L 194.403113 48.224193 
L 186.293228 71.214414 
L 183.250494 70.707448 
L 183.307624 44.010375 
L 179.411012 43.610733 
L 177.045385 15.349314 
L 172.250702 15.160742 
L 167.483064 19.015526 
L 162.808383 19.125801 
L 158.965079 31.031669 
L 154.672423 31.403827 
L 156.099374 74.347822 
L 153.17009 74.788667 
L 148.431721 66.158958 
L 145.248752 66.844941 
L 146.083387 82.680087 
L 143.42104 83.431737 
L 124.013247 34.053477 
L 119.832885 35.523104 
L 118.626284 44.338133 
L 114.771957 45.972052 
L 109.284326 44.218078 
L 105.430843 46.145788 
L 119.154434 79.430746 
L 116.403235 81.030708 
L 86.652186 40.8737 
L 82.704739 43.514668 
L 92.26746 64.430486 
L 89.057914 66.88325 
L 83.921619 67.053327 
L 80.798667 69.767205 
L 114.333515 110.855657 
L 112.572767 112.591662 
L 110.867474 114.382171 
L 109.219322 116.225412 
L 80.441851 96.025113 
L 78.231555 98.834079 
L 76.744518 102.163195 
L 74.729046 105.085378 
L 84.70453 115.473055 
L 83.103613 118.138377 
L 31.542167 93.919389 
L 29.289841 98.26691 
L 56.178062 116.013476 
L 54.608241 119.575466 
L 45.160565 120.104758 
L 43.72483 124.011139 
L 32.01644 124.687317 
L 30.73129 129.004713 
L 43.942969 136.907284 
L 43.036145 140.843642 
L 72.895611 150.358751 
L 72.397416 153.378124 
L 58.075694 154.784804 
L 57.723991 158.267958 
L 24.830617 160.013225 
L 24.659744 164.539093 
L 40.979569 168.913857 
L 41.080567 172.927565 
L 24.224932 178.173853 
L 24.625368 182.709785 
L 15.139784 188.595294 
L 15.872385 193.411731 
L 57.210786 190.081389 
L 57.969312 193.574286 
L 68.615318 194.429829 
L 69.50493 197.561993 
L 38.756802 211.31936 
L 40.192221 215.381991 
L 76.363057 205.300712 
L 77.590643 208.183896 
L 77.506028 211.703895 
L 78.934379 214.547975 
L 47.206588 236.054845 
L 49.415566 239.839566 
L 66.111236 234.231397 
L 68.253534 237.422616 
L 77.997557 234.977849 
L 80.157449 237.794967 
L 49.690376 268.169261 
L 52.907874 271.860008 
L 71.977545 260.364384 
L 74.938621 263.358232 
L 79.046549 265.111589 
L 82.153393 267.880825 
L 98.576776 254.217329 
L 101.331424 256.377878 
L 78.443071 294.620403 
L 82.478035 297.394024 
L 116.137611 252.400579 
L 118.826454 254.009875 
L 128.186251 243.183513 
L 130.579332 244.418531 
L 121.669414 270.353992 
L 124.920016 271.780481 
L 135.464857 254.205693 
L 138.200901 255.206406 
L 133.289693 280.638007 
L 136.857902 281.694043 
L 138.602647 290.19842 
L 142.468829 291.082679 
L 141.957705 316.365552 
L 146.64498 317.131383 
L 158.398081 256.650643 
L 161.19966 256.929076 
L 163.524071 266.449019 
L 166.631199 266.561435 
L 169.611794 254.898924 
L 172.352751 254.82564 
L 179.228733 310.567061 
L 183.715264 310.163876 
L 181.286017 259.488399 
L 184.165506 259.045783 
L 197.222249 308.874463 
L 201.646664 307.906358 
L 191.892263 254.170862 
L 194.599313 253.397391 
L 202.259592 267.292206 
L 205.37408 266.186276 
L 211.400414 272.188421 
L 214.66433 270.792663 
L 213.808485 260.887883 
L 216.715896 259.421997 
L 233.742518 282.946437 
L 237.333643 280.842875 
L 229.389037 261.011035 
L 232.292617 259.055202 
L 245.826041 271.37193 
L 249.047264 268.894159 
L 263.260141 279.384727 
L 266.724683 276.354828 
L 223.688773 224.953122 
L 225.461431 223.194345 
L 228.325479 222.433081 
L 230.016609 220.529763 
L 260.115936 241.561225 
L 262.392779 238.648887 
L 246.789541 223.065089 
L 248.491414 220.580908 
L 289.189721 242.188928 
L 291.471925 238.362136 
L 274.404897 224.195302 
L 276.128652 220.842274 
L 282.704949 219.697041 
L 284.283165 216.085265 
L 312.657058 222.702074 
L 314.31495 218.147052 
L 310.625586 211.921803 
L 311.945527 207.435985 
L 297.995847 199.224858 
L 298.922813 195.142424 
L 256.031339 183.258353 
L 256.477032 180.50327 
L 253.74171 177.38374 
L 254.003824 174.703553 
L 279.84037 173.308584 
L 279.961448 169.809813 
L 304.883307 165.995596 
L 304.762067 161.713035 
L 285.0985 158.903965 
L 284.764066 155.246989 
L 258.097931 155.253255 
L 257.66206 152.44704 
L 303.669641 140.162313 
L 302.736746 135.930686 
L 258.834581 143.316892 
L 258.02304 140.493417 
L 266.707486 134.445503 
L 265.613117 131.378874 
L 243.540519 136.930679 
L 242.535744 134.59124 
L 256.859138 124.790847 
L 255.466075 122.038645 
L 250.600853 121.251355 
L 249.099594 118.697677 
L 239.045504 121.727334 
L 237.564925 119.536746 
L 267.827029 93.633678 
L 265.448893 90.552026 
L 272.466656 79.479988 
L 269.641203 76.259454 
L 244.861671 94.207175 
L 242.512922 91.847321 
L 232.211829 98.18162 
L 229.9943 96.21754 
L 220.394127 103.42149 
L 218.347193 101.826393 
L 244.541104 60.230295 
L 241.124206 57.897318 
L 211.10351 98.763854 
L 208.914724 97.463177 
L 241.794457 30.252855 
L 237.436361 28.021061 
L 231.401293 29.471947 
L 227.023782 27.567323 
L 202.673551 78.198099 
L 199.842301 77.172647 
L 207.804771 41.283774 
L 203.810316 40.115236 
L 197.400642 48.909777 
L 193.65111 48.064597 
L 185.685981 71.10537 
L 182.640118 70.617551 
L 182.529338 43.920647 
L 178.630289 43.54552 
L 176.086961 15.299539 
L 171.291187 15.141126 
L 166.547888 19.02582 
L 161.873993 19.165494 
L 158.105645 31.095298 
L 153.815415 31.494447 
L 155.512431 74.428618 
L 152.585978 74.887878 
L 147.793426 66.288142 
L 144.614835 66.994129 
L 145.549048 82.823713 
L 142.891481 83.592093 
L 123.17351 34.336874 
L 119.002474 35.832763 
L 117.851338 44.655207 
L 114.007364 46.313336 
L 108.50881 44.59391 
L 104.667528 46.545819 
L 118.600191 79.743804 
L 115.859109 81.361038 
L 85.856084 41.391942 
L 81.925325 44.057685 
L 91.619405 64.912945 
L 88.425349 67.385847 
L 83.290226 67.588224 
L 80.184404 70.321691 
L 113.977012 111.198414 
L 112.227218 112.945459 
L 110.53322 114.746658 
L 108.896693 116.600229 
L 79.992742 96.581323 
L 77.800157 99.404135 
L 76.334088 102.742538 
L 74.337034 105.67734 
L 84.377654 116.002071 
L 82.793532 118.677409 
L 31.080782 94.783193 
L 28.855844 99.144793 
L 55.855149 116.721897 
L 54.307762 120.293689 
L 44.863602 120.882391 
L 43.452464 124.797725 
L 31.748558 125.547529 
L 30.490588 129.872922 
L 43.751708 137.692243 
L 42.869659 141.634226 
L 72.78838 150.961349 
L 72.309184 153.983795 
L 57.996594 155.480522 
L 57.666804 158.96582 
L 24.785057 160.917933 
L 24.642653 165.444786 
L 40.98967 169.716821 
L 41.11591 173.729815 
L 24.293605 179.082011 
L 24.722561 183.615335 
L 15.274181 189.560386 
L 16.03706 194.37212 
L 57.353697 190.781849 
L 58.134177 194.269907 
L 68.785354 195.058475 
L 69.694647 198.184982 
L 39.033654 212.135465 
L 40.494596 216.188988 
L 76.601311 205.880415 
L 77.847006 208.75582 
L 77.784532 212.276282 
L 79.230742 215.111322 
L 47.638844 236.817317 
L 49.871583 240.58807 
L 66.53165 234.875005 
L 68.693977 238.052687 
L 78.422431 235.546684 
L 80.599998 238.350162 
L 50.324565 268.915475 
L 53.565212 272.585913 
L 72.562204 260.970579 
L 75.542052 263.945745 
L 79.660927 265.67323 
L 82.785126 268.422872 
L 99.122249 254.656352 
L 101.890431 256.799533 
L 79.243054 295.185256 
L 83.295383 297.933445 
L 116.671309 252.72919 
L 119.370221 254.321544 
L 128.661741 243.436527 
L 131.062542 244.65647 
L 122.31592 270.647457 
L 125.57543 272.053472 
L 136.009527 254.412711 
L 138.75181 255.396196 
L 134.000649 280.858183 
L 137.57543 281.891756 
L 139.373628 290.384991 
L 143.245295 291.244916 
L 142.893196 316.530505 
L 147.585196 317.26684 
L 158.957674 256.713375 
L 161.760949 256.974183 
L 164.145189 266.479318 
L 167.252963 266.57219 
L 170.160148 254.891163 
L 172.90059 254.800642 
L 180.127018 310.497715 
L 184.610924 310.066319 
L 181.863006 259.407124 
L 184.739654 258.946406 
L 198.109533 308.69198 
L 202.527771 307.696068 
L 192.435598 254.022984 
L 195.137729 253.232503 
L 202.885248 267.078864 
L 205.992718 265.953368 
L 212.056683 271.917492 
L 215.311755 270.501233 
L 214.393632 260.602032 
L 217.291766 259.117889 
L 234.466007 282.534776 
L 238.04383 280.40867 
L 229.974651 260.627189 
L 232.865872 258.653132 
L 246.476494 270.8845 
L 249.682069 268.386518 
L 263.960644 278.787488 
L 267.406062 275.735858 
L 224.047715 224.60584 
L 225.809277 222.835949 
L 228.66848 222.056687 
L 230.347606 220.14277 
L 260.578614 240.984509 
L 262.837095 238.057908 
L 247.136151 222.572554 
L 248.822367 220.077718 
L 289.655771 241.429341 
L 291.913862 237.588271 
L 274.75807 223.52906 
L 276.460703 220.165257 
L 283.029666 218.978684 
L 284.585136 215.357054 
L 313.000083 221.795276 
L 314.629293 217.229918 
L 310.900849 211.027996 
L 312.192551 206.533965 
L 298.191504 198.410735 
L 299.092776 194.322553 
L 256.127405 182.70848 
L 256.555761 179.950648 
L 253.800874 176.848383 
L 254.046126 174.1666 
L 279.873387 172.609162 
L 279.972457 169.109699 
L 304.869835 165.138812 
L 304.721662 160.857099 
L 285.040816 158.171758 
L 284.683388 154.516957 
L 258.01782 154.690938 
L 257.564308 151.88752 
L 303.493716 139.313674 
L 302.534225 135.087998 
L 258.679382 142.750177 
L 257.8501 139.931863 
L 266.496336 133.829448 
L 265.382701 130.769762 
L 243.345457 136.460282 
L 242.325988 134.127209 
L 256.58746 124.236924 
L 255.177115 121.493537 
L 250.307037 120.736863 
L 248.789748 118.192677 
L 238.754911 121.285509 
L 237.260584 119.104276 
L 267.359173 93.011389 
L 264.961703 89.944755 
L 271.90969 78.828799 
L 269.064038 75.626099 
L 244.397876 93.729314 
L 242.034332 91.384278 
L 231.773282 97.783241 
L 229.543444 95.833146 
L 219.988769 103.097333 
L 217.931844 101.515142 
L 243.863621 59.755121 
L 240.432117 57.443682 
L 210.669042 98.498222 
L 208.472119 97.211337 
L 240.928487 29.795549 
L 236.55644 27.59121 
L 230.530617 29.080024 
L 226.141214 27.20297 
L 202.109903 77.985894 
L 199.272259 76.978269 
L 207.008851 41.040026 
L 203.007126 39.896635 
L 196.652892 48.731314 
L 192.898118 47.909734 
L 185.078059 71.000148 
L 182.029189 70.531495 
L 181.750503 43.835815 
L 177.849172 43.485219 
L 175.128243 15.255792 
L 170.331567 15.127545 
L 165.612794 19.041995 
L 160.93987 19.211062 
L 157.246629 31.164331 
L 152.958994 31.590456 
L 154.926008 74.513104 
L 152.002501 74.990761 
L 147.155957 66.421337 
L 143.981869 67.147302 
L 145.015623 82.970697 
L 142.362941 83.755777 
L 122.335572 34.625546 
L 118.174027 36.14764 
L 117.078402 44.977149 
L 113.244933 46.659421 
L 107.735673 44.974612 
L 103.906744 46.950642 
L 118.047928 80.060342 
L 115.317072 81.694784 
L 85.063257 41.91518 
L 81.149342 44.605593 
L 90.974398 65.39947 
L 87.795958 67.892412 
L 82.662209 68.127082 
L 79.573641 70.880029 
L 113.622672 111.543407 
L 111.8839 113.301423 
L 110.201264 115.11324 
L 108.576427 116.977067 
L 79.547141 97.140347 
L 77.372353 99.976893 
L 75.92731 103.324451 
L 73.948754 106.271755 
L 84.054111 116.533132 
L 82.486847 119.218381 
L 30.624839 95.64988 
L 28.427376 100.025388 
L 55.536698 117.432334 
L 54.011806 121.013788 
L 44.571535 121.661877 
L 43.185051 125.586008 
L 31.486092 126.409409 
L 30.255351 130.742628 
L 43.565388 138.47839 
L 42.708149 142.425842 
L 72.684941 151.564608 
L 72.224764 154.590008 
L 57.92187 156.176725 
L 57.614008 159.664028 
L 24.745189 161.822909 
L 24.631258 166.350568 
L 41.004821 170.519706 
L 41.156298 174.531826 
L 24.367988 179.989719 
L 24.825448 184.520256 
L 15.414645 190.524614 
L 16.207773 195.331455 
L 57.501012 191.481396 
L 58.303414 194.964476 
L 68.959339 195.68604 
L 69.888279 198.806766 
L 39.315633 212.949813 
L 40.80204 216.994067 
L 76.843206 206.458607 
L 78.106961 209.326121 
L 78.06663 212.846906 
L 79.530642 215.672794 
L 48.075888 237.577055 
L 50.332298 241.33369 
L 66.956104 235.515957 
L 69.138374 238.679976 
L 78.850874 236.112836 
L 81.04603 238.902562 
L 50.963435 269.657687 
L 54.227103 273.30767 
L 73.150665 261.573086 
L 76.149166 264.529451 
L 80.278824 266.230997 
L 83.420255 268.960934 
L 99.670471 255.091935 
L 102.452078 257.217664 
L 80.046574 295.745067 
L 84.116107 298.467714 
L 117.207064 253.054438 
L 119.915937 254.629786 
L 129.138813 243.686546 
L 131.547239 244.891365 
L 122.964259 270.936849 
L 126.232547 272.322336 
L 136.555487 254.616299 
L 139.303902 255.582518 
L 134.712977 281.073883 
L 138.294187 282.084953 
L 140.145767 290.56671 
L 144.022767 291.402267 
L 143.829706 316.68957 
L 148.526244 317.39638 
L 159.517651 256.772587 
L 162.322511 257.015759 
L 164.766486 266.50571 
L 167.874782 266.579035 
L 170.708442 254.879954 
L 173.448261 254.772199 
L 181.024849 310.42272 
L 185.505953 309.963132 
L 182.439472 259.322221 
L 185.313165 258.84342 
L 198.995651 308.503921 
L 203.407539 307.480241 
L 192.977991 253.871692 
L 195.675097 253.064232 
L 203.509549 266.861591 
L 206.609878 265.716573 
L 212.711235 271.64244 
L 215.957335 270.205737 
L 214.97697 260.312506 
L 217.865712 258.810165 
L 235.186892 282.118573 
L 238.751273 279.970006 
L 230.557838 260.239667 
L 233.436587 258.247465 
L 247.123868 270.392988 
L 250.313668 267.874894 
L 264.657378 278.185854 
L 268.083534 275.112615 
L 224.404466 224.256307 
L 226.154862 222.475372 
L 229.009107 221.678143 
L 230.676162 219.753703 
L 261.037655 240.404894 
L 263.277685 237.464147 
L 247.479658 222.077849 
L 249.150148 219.572456 
L 290.117035 240.666839 
L 292.350923 236.811643 
L 275.107046 222.860609 
L 276.788488 219.486164 
L 283.349859 218.2583 
L 284.88252 214.626959 
L 313.337397 220.88634 
L 314.937863 216.310825 
L 311.170485 210.132475 
L 312.433897 205.630409 
L 298.382036 197.595399 
L 299.257578 193.501629 
L 256.220011 182.158013 
L 256.631013 179.397542 
L 253.856669 176.312665 
L 254.085049 173.629392 
L 279.902004 171.909547 
L 279.979063 168.409529 
L 304.850973 164.282131 
L 304.675874 160.001434 
L 284.978528 157.439927 
L 284.598121 153.787447 
L 257.934174 154.129135 
L 257.463039 151.328626 
L 303.312456 138.466158 
L 302.326407 134.2466 
L 258.520623 142.18445 
L 257.673631 139.371407 
L 266.281316 133.214734 
L 265.148459 130.162112 
L 243.147441 135.991121 
L 242.113319 133.664506 
L 256.312304 123.68472 
L 254.884732 120.950258 
L 250.009992 120.224228 
L 248.476731 117.689636 
L 238.461545 120.84552 
L 236.953529 118.673729 
L 266.887413 92.392055 
L 264.470703 89.34056 
L 271.34864 78.181125 
L 268.482901 74.996386 
L 243.931086 93.254379 
L 241.552839 90.924255 
L 231.332238 97.387627 
L 229.090179 95.451595 
L 219.581381 102.775733 
L 217.514545 101.206509 
L 243.183163 59.284219 
L 239.737189 56.994407 
L 210.232912 98.235329 
L 208.027939 96.962286 
L 240.059658 29.3437 
L 235.673834 27.166901 
L 229.657493 28.693585 
L 225.256371 26.844175 
L 201.544932 77.777238 
L 198.701007 76.78748 
L 206.211415 40.801289 
L 202.202577 39.683089 
L 195.904033 48.557558 
L 192.144167 47.75961 
L 184.469489 70.89875 
L 181.417731 70.449283 
L 180.971149 43.755883 
L 177.067691 43.429831 
L 174.169268 15.218076 
L 169.371881 15.12 
L 164.677821 19.064051 
L 160.006053 19.262505 
L 156.388064 31.238766 
L 152.103194 31.691849 
L 154.340128 74.601276 
L 151.419683 75.097311 
L 146.519338 66.558539 
L 143.349879 67.304453 
L 144.483132 83.121033 
L 141.83544 83.922781 
L 121.499467 34.919483 
L 117.347577 36.46772 
L 116.307506 45.303946 
L 112.484694 47.010295 
L 106.964946 45.36017 
L 103.14852 47.360242 
L 117.497666 80.380347 
L 114.777144 82.031932 
L 84.273736 42.443395 
L 80.37682 45.15837 
L 90.332463 65.890042 
L 87.169765 68.402926 
L 82.037594 68.669879 
L 78.966401 71.442197 
L 113.270508 111.890622 
L 111.542828 113.659539 
L 109.87162 115.481903 
L 108.258538 117.355913 
L 79.105064 97.702163 
L 76.94816 100.552331 
L 75.524199 103.908911 
L 73.564219 106.868601 
L 83.733915 117.066217 
L 82.183571 119.76127 
L 30.174356 96.519419 
L 28.004456 100.908661 
L 55.222721 118.14476 
L 53.720385 121.735734 
L 44.284377 122.443184 
L 42.922601 126.375958 
L 31.229052 127.272922 
L 30.025588 131.613796 
L 43.384016 139.265692 
L 42.551621 143.218459 
L 72.585298 152.168507 
L 72.144158 155.196741 
L 57.851526 156.873383 
L 57.565603 160.362553 
L 24.711013 162.728119 
L 24.625561 167.256404 
L 41.025022 171.322479 
L 41.201729 175.333567 
L 24.448078 180.896941 
L 24.934024 185.424511 
L 15.561171 191.48794 
L 16.384515 196.289697 
L 57.652723 192.180003 
L 58.477016 195.657968 
L 69.137269 196.312497 
L 70.085818 199.427319 
L 39.602728 213.762372 
L 41.114542 217.797197 
L 77.088733 207.035266 
L 78.370498 209.894775 
L 78.352311 213.415744 
L 79.834068 216.232369 
L 48.517701 238.334029 
L 50.797694 242.076399 
L 67.38458 236.154226 
L 69.586707 239.304457 
L 79.28287 236.676282 
L 81.495528 239.452147 
L 51.60696 270.395865 
L 54.89352 274.02525 
L 73.742904 262.171879 
L 76.759939 265.109327 
L 80.900218 266.784866 
L 84.058756 269.494992 
L 100.221423 255.524062 
L 103.016344 257.632254 
L 80.853598 296.299813 
L 84.940175 298.996812 
L 117.744854 253.37631 
L 120.463581 254.934589 
L 129.617448 243.93356 
L 132.033405 245.123207 
L 123.614405 271.222158 
L 126.891343 272.587062 
L 137.102718 254.81645 
L 139.857155 255.765363 
L 135.426647 281.285099 
L 139.014146 282.273624 
L 140.919034 290.743569 
L 144.801212 291.554725 
L 144.767199 316.842742 
L 149.468089 317.52 
L 160.077989 256.828276 
L 162.884323 257.053802 
L 165.387936 266.528195 
L 168.496631 266.581968 
L 171.256656 254.865297 
L 173.995742 254.740311 
L 181.922191 310.342079 
L 186.400316 309.854317 
L 183.015392 259.233694 
L 185.886017 258.736829 
L 199.880569 308.310293 
L 204.285931 307.258884 
L 193.519423 253.716992 
L 196.211397 252.892584 
L 204.132471 266.640397 
L 207.225538 265.475902 
L 213.364044 271.363278 
L 216.601044 269.906187 
L 215.558475 260.019317 
L 218.437711 258.498837 
L 235.905145 281.697844 
L 239.455942 279.526902 
L 231.138577 259.848485 
L 234.004739 257.838217 
L 247.768138 269.897414 
L 250.942038 267.359308 
L 265.350314 277.57985 
L 268.757073 274.485123 
L 224.759012 223.904538 
L 226.498172 222.112629 
L 229.347346 221.297464 
L 231.002265 219.362577 
L 261.493042 239.822403 
L 263.714531 236.867626 
L 247.820046 221.580993 
L 249.474746 219.065143 
L 290.573494 239.90145 
L 292.783091 236.03228 
L 275.451811 222.189977 
L 277.111997 218.805023 
L 283.665515 217.535917 
L 285.175306 213.895007 
L 313.668989 219.975299 
L 315.240645 215.389809 
L 311.434484 209.235276 
L 312.669555 204.725353 
L 298.567437 196.77888 
L 299.417213 192.679684 
L 256.309153 181.606975 
L 256.702786 178.843973 
L 253.909094 175.776606 
L 254.120593 173.09195 
L 279.926221 171.209765 
L 304.894086 167.709332 
z
" clip-path="url(#p1fd08b9fd9)" style="fill: #0000ff; opacity: 0.5; stroke: #000000; stroke-width: 1.5; stroke-linejoin: miter"/>
   </g>
  </g>
 </g>
 <defs>
  <clipPath id="p1fd08b9fd9">
   <rect x="0" y="-0" width="330.252104" height="332.64"/>
  </clipPath>
 </defs>
</svg>
