<?xml version="1.0" encoding="utf-8" standalone="no"?>
<!DOCTYPE svg PUBLIC "-//W3C//DTD SVG 1.1//EN"
  "http://www.w3.org/Graphics/SVG/1.1/DTD/svg11.dtd">
<svg xmlns:xlink="http://www.w3.org/1999/xlink" width="312.210666pt" height="332.64pt" viewBox="0 0 312.210666 332.64" xmlns="http://www.w3.org/2000/svg" version="1.1">
 <metadata>
  <rdf:RDF xmlns:dc="http://purl.org/dc/elements/1.1/" xmlns:cc="http://creativecommons.org/ns#" xmlns:rdf="http://www.w3.org/1999/02/22-rdf-syntax-ns#">
   <cc:Work>
    <dc:type rdf:resource="http://purl.org/dc/dcmitype/StillImage"/>
    <dc:date>2023-12-09T18:06:21.703547</dc:date>
    <dc:format>image/svg+xml</dc:format>
    <dc:creator>
     <cc:Agent>
      <dc:title>Matplotlib v3.8.2, https://matplotlib.org/</dc:title>
     </cc:Agent>
    </dc:creator>
   </cc:Work>
  </rdf:RDF>
 </metadata>
 <defs>
  <style type="text/css">*{stroke-linejoin: round; stroke-linecap: butt}</style>
 </defs>
 <g id="figure_1">
  <g id="patch_1">
   <path d="M 0 332.64 
L 312.210666 332.64 
L 312.210666 0 
L 0 0 
L 0 332.64 
z
" style="fill: none"/>
  </g>
  <g id="axes_1">
   <g id="patch_2">
    <path d="M 236.095453 164.517292 
L 236.053257 161.833884 
L 237.461401 159.056479 
L 237.246829 156.332823 
L 234.658351 153.906641 
L 234.283243 151.273665 
L 298.019272 136.395622 
L 297.062252 131.779098 
L 278.833304 131.59707 
L 277.734893 127.586167 
L 255.307255 130.508643 
L 254.186253 127.237989 
L 239.382396 129.387057 
L 238.234002 126.61767 
L 273.863087 106.519058 
L 271.978626 102.676829 
L 270.647864 98.525008 
L 268.513642 94.787825 
L 244.847882 104.727033 
L 242.921422 101.797992 
L 256.447358 87.622985 
L 253.977374 84.337687 
L 254.957808 78.188654 
L 252.191924 74.954856 
L 247.645484 73.389867 
L 244.732331 70.388357 
L 213.329436 97.769047 
L 211.199784 95.834455 
L 226.14538 73.217924 
L 223.23745 70.892509 
L 204.460898 90.445498 
L 202.105363 88.793373 
L 222.733287 50.83911 
L 219.123406 48.632044 
L 212.118762 52.606997 
L 208.569715 50.732801 
L 196.799005 66.372653 
L 193.690355 64.973337 
L 199.286953 41.500896 
L 195.39505 40.035651 
L 191.695675 37.961967 
L 187.696254 36.737158 
L 188.415938 17.014632 
L 183.759509 15.903302 
L 172.777294 48.178566 
L 169.108459 47.543541 
L 167.136169 33.291226 
L 163.002033 32.840931 
L 155.840155 81.635802 
L 153.231663 81.516776 
L 150.626764 85.324152 
L 148.136819 85.367223 
L 145.253202 79.350408 
L 142.578087 79.565388 
L 138.543818 69.187429 
L 135.552474 69.618393 
L 124.288303 27.10861 
L 119.980957 28.008603 
L 116.28174 31.276666 
L 112.109405 32.426342 
L 103.912757 21.283279 
L 99.432324 22.826803 
L 114.344005 73.084246 
L 111.487151 74.274177 
L 108.99789 76.248377 
L 106.243166 77.604838 
L 108.365877 87.796145 
L 105.974553 89.166769 
L 99.907208 84.777267 
L 97.425146 86.415341 
L 70.064507 53.974018 
L 66.628679 56.565643 
L 58.361695 53.350911 
L 54.91206 56.310806 
L 64.220272 72.799777 
L 61.379256 75.565849 
L 51.32405 71.595087 
L 48.451532 74.76724 
L 67.050569 95.619157 
L 64.925645 98.284956 
L 68.494038 105.069507 
L 66.66554 107.685248 
L 33.058648 90.2523 
L 30.781784 93.989533 
L 25.249859 95.953392 
L 23.156111 99.933332 
L 68.555563 126.110096 
L 67.388596 128.713499 
L 43.403122 122.358413 
L 42.13063 125.754519 
L 73.169365 139.551934 
L 72.422758 142.003624 
L 28.528462 133.512447 
L 27.614032 137.37073 
L 29.088378 141.681371 
L 28.43052 145.518011 
L 60.706537 153.418069 
L 60.402073 156.254761 
L 60.186952 159.099623 
L 60.061387 161.949843 
L 45.417111 164.848541 
L 45.479606 168.160315 
L 14.191394 173.54877 
L 14.542882 177.838047 
L 53.153281 177.171213 
L 53.599404 180.233652 
L 18.667725 190.170183 
L 19.539613 194.310496 
L 14.588793 199.971247 
L 15.770866 204.234965 
L 47.033189 198.614453 
L 48.156559 201.858718 
L 30.106822 212.776035 
L 31.683833 216.545501 
L 18.79381 227.190564 
L 20.829639 231.308609 
L 27.70079 232.75059 
L 29.907034 236.58583 
L 23.165786 246.1512 
L 25.795617 250.122406 
L 30.409959 252.646143 
L 33.240423 256.386364 
L 79.886834 223.600869 
L 81.779588 225.79979 
L 60.286787 250.135398 
L 63.023536 252.937468 
L 84.190546 235.962483 
L 86.469849 238.019974 
L 65.402864 268.535486 
L 68.715623 271.167598 
L 94.578583 242.500832 
L 97.05833 244.228468 
L 98.363329 247.82992 
L 101.008762 249.43592 
L 84.590174 286.074464 
L 88.44491 288.094613 
L 85.873477 303.934259 
L 90.289129 305.905228 
L 106.52178 277.660375 
L 110.101115 278.995106 
L 112.31442 284.610282 
L 116.109411 285.759444 
L 117.496193 296.480961 
L 121.661863 297.461328 
L 131.622932 267.318647 
L 134.86469 267.869256 
L 138.865047 262.211761 
L 141.942652 262.537188 
L 144.447794 272.744039 
L 147.853797 272.888724 
L 151.47302 317.52 
L 156.283404 317.421658 
L 157.348285 261.94022 
L 160.408213 261.684627 
L 161.057212 243.037078 
L 163.52095 242.674214 
L 167.89313 252.042978 
L 170.636654 251.460726 
L 185.639665 297.648861 
L 189.808364 296.48607 
L 178.738492 249.200849 
L 181.38729 248.279 
L 186.299209 252.981704 
L 189.063148 251.82026 
L 201.717731 271.392292 
L 205.052916 269.736953 
L 208.708321 268.649387 
L 211.953806 266.775605 
L 215.138772 264.800704 
L 218.260067 262.726638 
L 203.559963 236.391015 
L 205.793721 234.695058 
L 225.238236 253.571382 
L 228.001464 251.185318 
L 211.101086 228.08268 
L 213.069882 226.153722 
L 229.061653 237.244192 
L 231.309627 234.745984 
L 241.810122 238.993111 
L 244.106783 236.093199 
L 260.676334 243.43571 
L 263.103352 239.940407 
L 280.404291 245.760431 
L 282.894649 241.643687 
L 248.080126 217.293209 
L 249.691395 214.206883 
L 282.596557 225.619586 
L 284.452559 221.443871 
L 279.011002 214.423792 
L 280.516757 210.36635 
L 250.390588 196.235135 
L 251.338603 193.086574 
L 246.966186 188.602798 
L 247.675916 185.565682 
L 266.436502 185.854815 
L 267.050203 182.206868 
L 230.906511 174.1417 
L 231.169493 171.616685 
L 265.128889 170.998591 
L 265.276124 167.399104 
L 236.093765 163.980525 
L 236.034692 161.297436 
L 237.425341 158.511229 
L 237.193643 155.788976 
L 234.589957 153.379123 
L 234.198296 150.748559 
L 297.83949 135.469946 
L 296.853453 130.859532 
L 278.623721 130.792157 
L 277.500106 126.788242 
L 255.091292 129.851718 
L 253.949742 126.588179 
L 239.159693 128.830313 
L 237.993905 126.068203 
L 273.495876 105.745901 
L 271.587287 101.915601 
L 270.230439 97.772232 
L 268.072754 94.048546 
L 244.469974 104.136402 
L 242.52513 101.219535 
L 255.961646 86.959737 
L 253.471048 83.69004 
L 254.412789 77.534962 
L 251.626621 74.318624 
L 247.070427 72.78226 
L 244.138454 69.799131 
L 212.908389 97.376786 
L 210.766613 95.455626 
L 225.569667 72.745543 
L 222.64717 70.438464 
L 203.993966 90.10916 
L 201.628087 88.471883 
L 222.016892 50.388632 
L 218.393201 48.204314 
L 211.413696 52.223244 
L 207.852932 50.371406 
L 196.18082 66.08498 
L 193.063431 64.705243 
L 198.512289 41.198067 
L 194.611248 39.757329 
L 190.898903 37.706953 
L 186.891858 36.507322 
L 187.487485 16.78066 
L 182.824158 15.698638 
L 172.045153 48.042336 
L 168.372397 47.430399 
L 166.310507 33.19077 
L 162.173621 32.766485 
L 155.318777 81.605435 
L 152.709588 81.502817 
L 150.128686 85.326502 
L 147.639062 85.385232 
L 144.71766 79.386672 
L 142.04395 79.618473 
L 137.944489 69.266093 
L 134.955914 69.715862 
L 123.424603 27.277765 
L 119.123003 28.204831 
L 115.444414 31.496095 
L 111.279392 32.67199 
L 103.012822 21.580699 
L 98.542186 23.152373 
L 113.769663 73.315035 
L 110.920349 74.522911 
L 108.443554 76.512728 
L 105.697416 77.886488 
L 107.884183 88.064243 
L 105.501526 89.449879 
L 99.406694 85.098624 
L 96.934983 86.752277 
L 69.370849 54.483679 
L 65.951388 57.096862 
L 57.664349 53.934188 
L 54.233398 56.915721 
L 63.645132 73.345822 
L 60.821569 76.129708 
L 50.741589 72.222266 
L 47.889078 75.412423 
L 66.618894 96.14695 
L 64.510778 98.82606 
L 68.121772 105.588034 
L 66.309762 108.215224 
L 32.593891 90.993989 
L 30.340577 94.745468 
L 24.821113 96.744081 
L 22.752438 100.737111 
L 68.315629 126.62782 
L 67.165059 129.238512 
L 43.14009 123.034406 
L 41.888983 126.438448 
L 73.013881 140.040374 
L 72.282709 142.496711 
L 28.335877 134.281773 
L 27.445731 138.145731 
L 28.947159 142.447014 
L 28.313445 146.287715 
L 60.63851 153.984619 
L 60.351894 156.82317 
L 60.15467 159.669329 
L 60.047033 162.520282 
L 45.421278 165.511027 
L 45.504601 168.822342 
L 14.250898 174.407476 
L 14.629356 178.694457 
L 53.234798 177.784799 
L 53.700172 180.844371 
L 18.831679 191.000406 
L 19.729591 195.135154 
L 14.814471 200.826931 
L 16.023337 205.08313 
L 47.249692 199.266106 
L 48.393445 202.503242 
L 30.412728 213.533866 
L 32.013416 217.293339 
L 19.1906 228.019262 
L 21.252288 232.124421 
L 28.132373 233.523158 
L 30.362695 237.344447 
L 23.681741 246.952026 
L 26.336496 250.906613 
L 30.96662 253.401279 
L 33.820552 257.123624 
L 80.259838 224.045397 
L 82.166385 226.23237 
L 60.827066 250.702675 
L 63.581384 253.487477 
L 84.641212 236.3797 
L 86.93341 238.422814 
L 66.058768 269.070222 
L 69.388015 271.681447 
L 95.070167 242.852584 
L 97.56073 244.564589 
L 98.888354 248.157763 
L 101.543836 249.747093 
L 85.356009 286.488176 
L 89.223374 288.484041 
L 86.751614 304.339546 
L 91.179575 306.282704 
L 107.234261 277.936316 
L 110.821919 279.248509 
L 113.070497 284.849652 
L 116.872641 285.974923 
L 118.326828 296.687507 
L 122.498581 297.641654 
L 132.269873 267.43692 
L 135.515029 267.96713 
L 139.479725 262.284587 
L 142.559316 262.59065 
L 145.128604 272.781544 
L 148.535449 272.904805 
L 152.435306 317.512435 
L 157.244976 317.38384 
L 157.960889 261.896802 
L 161.01915 261.621969 
L 161.550853 242.970706 
L 164.01226 242.592354 
L 168.443278 251.933435 
L 171.183086 251.333938 
L 186.476297 297.4268 
L 190.6376 296.237813 
L 179.27055 249.023151 
L 181.913498 248.08466 
L 186.854897 252.756378 
L 189.611477 251.577574 
L 202.388906 271.069628 
L 205.713614 269.393345 
L 209.362106 268.282811 
L 212.595743 266.388653 
L 215.768224 264.39376 
L 218.876413 262.300103 
L 204.010964 236.057457 
L 206.23401 234.347484 
L 225.796863 253.10114 
L 228.545029 250.697744 
L 211.499682 227.701857 
L 213.456308 225.760554 
L 229.517515 236.750225 
L 231.749733 234.237928 
L 242.276732 238.418929 
L 244.555108 235.50463 
L 261.170512 242.742783 
L 263.575498 239.232284 
L 280.9127 244.94338 
L 283.377117 240.811055 
L 248.410132 216.680022 
L 250.001957 213.583623 
L 282.978248 224.789146 
L 284.80795 220.60184 
L 279.322349 213.616124 
L 280.802555 209.549292 
L 250.588105 195.607833 
L 251.516298 192.453372 
L 247.115768 187.997184 
L 247.806382 184.955665 
L 266.568415 185.126798 
L 267.15916 181.475064 
L 230.965458 173.637379 
L 231.212553 171.11076 
L 265.16739 170.279093 
L 265.291984 166.678751 
L 236.088701 163.44378 
L 236.012755 160.761116 
L 237.385852 157.966217 
L 237.137037 155.245476 
L 234.518246 152.852046 
L 234.110048 150.223997 
L 297.653889 134.545419 
L 296.638875 129.941298 
L 278.40908 129.988579 
L 277.260304 125.99181 
L 254.871201 129.196164 
L 253.709148 125.939869 
L 238.933494 128.27498 
L 237.750356 125.520257 
L 273.12381 104.97507 
L 271.191168 101.156849 
L 269.808287 97.022096 
L 267.627225 93.312054 
L 244.088359 103.548158 
L 242.125208 100.643581 
L 255.471772 86.299558 
L 252.960658 83.045589 
L 253.863669 76.88471 
L 251.057327 73.685959 
L 246.491561 72.178281 
L 243.540883 69.213652 
L 212.484884 96.987181 
L 210.331067 95.07953 
L 224.990995 72.276793 
L 222.054045 69.98814 
L 203.524928 89.775765 
L 201.148798 88.1534 
L 221.297678 49.942669 
L 217.66032 47.781185 
L 210.70623 51.843933 
L 207.13389 50.014527 
L 195.560838 65.801201 
L 192.434833 64.441098 
L 197.735737 40.900117 
L 193.825711 39.483942 
L 190.100544 37.456955 
L 186.086033 36.28255 
L 186.557578 16.552532 
L 181.887539 15.499862 
L 171.312171 47.910713 
L 167.635638 47.321888 
L 165.48423 33.095509 
L 161.344757 32.697251 
L 154.797218 81.578348 
L 152.187435 81.492143 
L 149.630633 85.331984 
L 147.141428 85.406371 
L 144.182356 79.426304 
L 141.510156 79.674917 
L 137.345666 69.348524 
L 134.35998 69.81708 
L 122.561985 27.452349 
L 118.2663 28.406451 
L 114.608484 31.720787 
L 110.450941 32.922854 
L 102.114776 21.883774 
L 97.654113 23.483535 
L 113.196784 73.549432 
L 110.355123 74.775205 
L 107.890892 76.780561 
L 105.153448 78.171565 
L 107.404185 88.335365 
L 105.03029 89.735959 
L 98.908211 85.423123 
L 96.44695 87.092289 
L 68.680409 54.997692 
L 65.277451 57.63233 
L 56.970685 54.521839 
L 53.558554 57.524892 
L 63.073438 73.895473 
L 60.26744 76.697063 
L 50.163083 72.853095 
L 47.330694 76.06113 
L 66.190548 96.677447 
L 64.099324 99.369764 
L 67.752775 106.108893 
L 65.957324 108.747427 
L 32.133808 91.738586 
L 29.904134 95.504163 
L 24.397349 97.537451 
L 22.353829 101.543412 
L 68.078956 127.147043 
L 66.944829 129.764919 
L 42.881314 123.71204 
L 41.651642 127.123883 
L 72.861473 140.529783 
L 72.145764 142.990669 
L 28.148133 135.052295 
L 27.282308 138.921775 
L 28.810759 143.213529 
L 28.201213 147.05814 
L 60.574048 154.551586 
L 60.30529 157.391883 
L 60.125971 160.239226 
L 60.036266 163.0908 
L 45.429611 166.173473 
L 45.533759 169.484199 
L 14.315801 175.26579 
L 14.721215 179.550306 
L 53.320172 178.39786 
L 53.80478 181.454445 
L 19.000852 191.829582 
L 19.924751 195.9586 
L 15.045527 201.681178 
L 16.281138 205.92969 
L 47.470289 199.916385 
L 48.634379 203.146264 
L 30.723395 214.289758 
L 32.347695 218.039089 
L 19.592593 228.845449 
L 21.68006 232.93756 
L 28.568806 234.292997 
L 30.823117 238.100183 
L 24.202722 247.749591 
L 26.882297 251.687403 
L 31.528019 254.152898 
L 34.405306 257.857221 
L 80.63563 224.487571 
L 82.555894 226.66251 
L 61.370902 251.266542 
L 64.14268 254.033966 
L 85.094494 236.794073 
L 87.399496 238.822731 
L 66.718022 269.600822 
L 70.063626 272.191056 
L 95.563952 243.201238 
L 98.065234 244.897545 
L 99.415431 248.482297 
L 102.080857 250.054894 
L 86.12443 286.897063 
L 90.004271 288.868565 
L 87.632283 304.739302 
L 92.072378 306.654572 
L 107.948463 278.20777 
L 111.544304 279.497372 
L 113.828065 285.084263 
L 117.63721 286.185599 
L 119.158745 296.888824 
L 123.336416 297.816715 
L 132.917545 267.551122 
L 136.165972 268.060911 
L 140.094849 262.353545 
L 143.176303 262.640233 
L 145.809636 272.814766 
L 149.217189 272.916597 
L 153.397525 317.498817 
L 158.206291 317.339975 
L 158.573209 261.849531 
L 161.62968 261.555469 
L 162.044067 242.901231 
L 164.503046 242.507406 
L 168.992726 251.820433 
L 171.728709 251.203717 
L 187.311516 297.199481 
L 191.465258 295.984346 
L 179.801479 248.842109 
L 182.438473 247.887015 
L 187.409157 252.527562 
L 190.158268 251.331443 
L 203.058039 270.742749 
L 206.372138 269.045589 
L 210.013573 267.912129 
L 213.235233 265.997672 
L 216.395104 263.982865 
L 219.490064 261.869701 
L 204.459858 235.721069 
L 206.672105 233.997148 
L 226.352521 252.627394 
L 229.085516 250.206761 
L 211.895876 227.318534 
L 213.840253 225.364964 
L 229.970261 236.253402 
L 232.186634 233.727115 
L 242.739721 237.841824 
L 244.999723 234.913253 
L 261.660322 242.046762 
L 264.043182 238.521206 
L 281.41596 244.123147 
L 283.854338 239.975404 
L 248.736274 216.064771 
L 250.308593 212.958422 
L 283.354708 223.956321 
L 285.158039 219.75759 
L 279.62861 212.806513 
L 281.083208 208.730452 
L 250.781672 194.979301 
L 251.690007 191.819065 
L 247.261537 187.390642 
L 247.933008 184.344839 
L 266.695747 184.397967 
L 267.263512 180.742589 
L 231.021231 173.132696 
L 231.252431 170.604574 
L 265.201366 169.559366 
L 265.303312 165.958312 
L 236.080262 162.907078 
L 235.987444 160.224944 
L 237.342936 157.421464 
L 237.077014 154.702342 
L 234.443221 152.32543 
L 234.018503 149.7 
L 297.462478 133.622077 
L 296.418526 129.024431 
L 278.189389 129.186367 
L 277.015499 125.196902 
L 254.646992 128.542007 
L 253.464481 125.293086 
L 238.703806 127.72108 
L 237.503366 124.973853 
L 272.746903 104.206594 
L 270.790284 100.400604 
L 269.381426 96.27463 
L 267.177073 92.578379 
L 243.703052 102.962327 
L 241.721671 100.070154 
L 254.977755 85.642472 
L 252.446226 82.404362 
L 253.31047 76.237925 
L 250.484066 73.056887 
L 245.908907 71.577955 
L 242.939642 68.631943 
L 212.058937 96.600247 
L 209.893164 94.70618 
L 224.409386 71.811692 
L 221.4581 69.541556 
L 203.053802 89.445327 
L 200.667515 87.837939 
L 220.575673 49.501239 
L 216.924793 47.362674 
L 209.996393 51.469079 
L 206.412617 49.662177 
L 194.939084 65.521326 
L 191.804586 64.180911 
L 196.957325 40.607056 
L 193.038471 39.215502 
L 189.300628 37.211984 
L 185.278811 36.062851 
L 185.626256 16.330257 
L 180.949688 15.30698 
L 170.578375 47.783703 
L 166.898212 47.218013 
L 164.65737 33.005446 
L 160.515474 32.633232 
L 154.275499 81.554542 
L 151.665226 81.484752 
L 149.132625 85.340598 
L 146.643936 85.43064 
L 143.647311 79.469302 
L 140.976729 79.734716 
L 136.747374 69.43472 
L 133.764693 69.922046 
L 121.700482 27.632354 
L 117.410883 28.613455 
L 113.773984 31.950731 
L 109.624084 33.178923 
L 101.218654 22.192491 
L 96.768141 23.820275 
L 112.625391 73.787428 
L 109.791495 75.031049 
L 107.339925 77.051863 
L 104.611284 78.460057 
L 106.925901 88.6095 
L 104.560862 90.024997 
L 98.411779 85.750751 
L 95.961064 87.435364 
L 67.993216 55.516037 
L 64.606896 58.172026 
L 56.280731 55.113842 
L 52.887555 58.138295 
L 62.505212 74.44871 
L 59.71689 77.267892 
L 49.588557 73.487551 
L 46.7764 76.713337 
L 65.765546 97.210628 
L 63.691296 99.916044 
L 67.387061 106.632062 
L 65.60824 109.281836 
L 31.678417 92.486062 
L 29.47247 96.265588 
L 23.978583 98.33347 
L 21.960298 102.352205 
L 67.845554 127.667744 
L 66.727914 130.292702 
L 42.626806 124.391288 
L 41.418616 127.810798 
L 72.712146 141.02014 
L 72.011928 143.485479 
L 27.96524 135.823982 
L 27.123769 139.698831 
L 28.679182 143.980888 
L 28.093828 147.829256 
L 60.513152 155.118947 
L 60.262264 157.960878 
L 60.100856 160.809293 
L 60.029089 163.661374 
L 45.442111 166.835854 
L 45.567079 170.145859 
L 14.386102 176.12368 
L 14.818455 180.405561 
L 53.4094 179.010372 
L 53.913222 182.063848 
L 19.175237 192.657677 
L 20.125087 196.780803 
L 15.281951 202.533956 
L 16.544258 206.774612 
L 47.694972 200.565264 
L 48.879353 203.787757 
L 31.03881 215.043681 
L 32.686659 218.782722 
L 19.999775 229.66909 
L 22.112937 233.747991 
L 29.010072 235.060075 
L 31.288284 238.853007 
L 24.728709 248.543864 
L 27.432997 252.464744 
L 32.094134 254.900972 
L 34.994663 258.587125 
L 81.014196 224.927373 
L 82.948101 227.090191 
L 61.918273 251.826979 
L 64.707402 254.576915 
L 85.550372 237.205588 
L 87.868089 239.219708 
L 67.380599 270.127266 
L 70.742429 272.696406 
L 96.059921 243.546778 
L 98.571823 245.22732 
L 99.944539 248.80351 
L 102.619802 250.359312 
L 86.895408 287.301109 
L 90.787572 289.24817 
L 88.515448 305.133512 
L 92.967501 307.020818 
L 108.664358 278.474727 
L 112.268239 279.741688 
L 114.587093 285.314105 
L 118.40309 286.391461 
L 119.991912 297.084905 
L 124.175336 297.986502 
L 133.565922 267.661248 
L 136.817491 268.150596 
L 140.710394 262.418632 
L 143.793591 262.685935 
L 146.490864 272.843704 
L 149.89899 272.924102 
L 154.35964 317.479148 
L 159.167312 317.290065 
L 159.185219 261.798411 
L 162.23978 261.485131 
L 162.536834 242.828656 
L 164.993288 242.419373 
L 169.541453 251.703978 
L 172.273503 251.070066 
L 188.145289 296.966914 
L 192.291306 295.725678 
L 180.33126 248.657732 
L 182.962195 247.686071 
L 187.961967 252.295264 
L 190.7035 251.081879 
L 203.725102 270.411668 
L 207.028461 268.693698 
L 210.662696 267.537358 
L 213.872251 265.602676 
L 217.019388 263.568035 
L 220.100996 261.435447 
L 204.906627 235.381864 
L 207.107988 233.644064 
L 226.905188 252.150162 
L 229.622905 249.712388 
L 212.289651 226.932727 
L 214.221702 224.966966 
L 230.419874 235.75374 
L 232.620314 233.213564 
L 243.199071 237.261819 
L 245.44061 234.319091 
L 262.145745 241.347673 
L 264.506384 237.8072 
L 281.914051 243.299766 
L 284.326294 239.136769 
L 249.058541 215.447481 
L 250.611291 212.331305 
L 283.725924 223.121145 
L 285.502811 218.911156 
L 279.929773 211.994993 
L 281.358706 207.909864 
L 250.971283 194.349564 
L 251.859723 191.183677 
L 247.403488 186.783195 
L 248.05579 183.733229 
L 266.818491 183.668348 
L 267.363256 180.009472 
L 231.07383 172.627674 
L 231.289124 170.098147 
L 265.230814 168.839441 
L 265.31011 165.237816 
L 236.068447 162.370438 
L 235.958762 159.688941 
L 237.296594 156.876992 
L 237.013576 154.159596 
L 234.364886 151.799296 
L 233.923663 149.176589 
L 297.265263 132.699958 
L 296.192415 128.108969 
L 277.964657 128.385552 
L 276.765698 124.40355 
L 254.418673 127.889274 
L 253.215752 124.647854 
L 238.470639 127.168637 
L 237.252945 124.429014 
L 272.36517 103.440503 
L 270.384652 99.646894 
L 268.949872 95.529863 
L 266.722315 91.84755 
L 243.314067 102.378931 
L 241.314536 99.499277 
L 254.479616 84.988507 
L 251.927771 81.766382 
L 252.753215 75.594632 
L 249.906859 72.431433 
L 245.322489 70.981306 
L 242.334754 68.054027 
L 211.630565 96.216 
L 209.452922 94.335592 
L 223.824864 71.350258 
L 220.859358 69.098729 
L 202.580608 89.117859 
L 200.184258 87.525511 
L 219.850906 49.064358 
L 216.186648 46.948797 
L 209.284212 51.098696 
L 205.689142 49.31437 
L 194.315581 65.245368 
L 191.172715 63.924694 
L 196.177086 40.318897 
L 192.249557 38.952017 
L 188.499188 36.972048 
L 184.470222 35.848233 
L 184.693553 16.113844 
L 180.010642 15.12 
L 169.843794 47.661311 
L 166.160146 47.118778 
L 163.82996 32.920586 
L 159.685805 32.574429 
L 153.753641 81.534018 
L 151.14298 81.480646 
L 148.63468 85.352345 
L 146.146607 85.458037 
L 143.112548 79.515664 
L 140.443688 79.797869 
L 136.149635 69.524678 
L 133.170079 70.030753 
L 120.840127 27.817775 
L 116.556784 28.825835 
L 112.940947 32.185919 
L 108.798853 33.440187 
L 100.324492 22.506839 
L 95.884304 24.162581 
L 112.055505 74.029013 
L 109.229488 75.290433 
L 106.790676 77.326626 
L 104.070946 78.751954 
L 106.449351 88.886639 
L 104.093261 90.316982 
L 97.917417 86.081495 
L 95.477347 87.781488 
L 67.309297 56.038695 
L 63.939748 58.715928 
L 55.594513 55.710172 
L 52.220427 58.755906 
L 61.940477 75.005509 
L 59.169941 77.842173 
L 49.018032 74.125608 
L 46.22622 77.369016 
L 65.343906 97.746471 
L 63.286713 100.46488 
L 67.024644 107.15752 
L 65.262524 109.81843 
L 31.227737 93.236388 
L 29.045605 97.029713 
L 23.564831 99.132108 
L 21.571862 103.163457 
L 67.615431 128.189903 
L 66.514323 130.821838 
L 42.376575 125.072123 
L 41.189916 128.499164 
L 72.565905 141.511427 
L 71.881208 143.981121 
L 27.787204 136.596804 
L 26.97012 140.476869 
L 28.552434 144.749058 
L 27.991296 148.601032 
L 60.455827 155.686679 
L 60.222818 158.530132 
L 60.079328 161.379506 
L 60.0255 164.231982 
L 45.458776 167.498144 
L 45.60456 170.807297 
L 14.461796 176.98111 
L 14.921071 181.260187 
L 53.502478 179.622311 
L 54.025496 182.672558 
L 19.354826 193.484659 
L 20.33059 197.60173 
L 15.523734 203.385229 
L 16.812687 207.617862 
L 47.923732 201.212717 
L 49.128357 204.427697 
L 31.35896 215.795605 
L 33.030293 219.524208 
L 20.412129 230.490154 
L 22.550904 234.555684 
L 29.456154 235.824363 
L 31.758177 239.602892 
L 25.259681 249.334812 
L 27.988576 253.238607 
L 32.664943 255.645471 
L 35.588598 259.313308 
L 81.39552 225.364785 
L 83.34299 227.515397 
L 62.469158 252.383961 
L 65.275528 255.116301 
L 86.00883 237.614227 
L 88.339168 239.61373 
L 68.046475 270.649531 
L 71.424397 273.197477 
L 96.558054 243.889193 
L 99.080475 245.553903 
L 100.475656 249.121388 
L 103.160652 250.660334 
L 87.668911 287.700298 
L 91.573244 289.62284 
L 89.401075 305.522159 
L 93.86491 307.381427 
L 109.381918 278.737176 
L 112.993696 279.981446 
L 115.347552 285.539168 
L 119.170249 286.592502 
L 120.826295 297.275742 
L 125.015308 298.15101 
L 134.214979 267.767294 
L 137.469561 268.236182 
L 141.326336 262.479848 
L 144.411154 262.727753 
L 147.17226 272.868357 
L 150.580824 272.927318 
L 155.321612 317.453428 
L 160.128 317.234111 
L 159.796895 261.743442 
L 162.849426 261.410957 
L 163.029135 242.752982 
L 165.482966 242.328258 
L 170.089436 251.584074 
L 172.817445 250.932992 
L 188.977582 296.729107 
L 193.115711 295.461819 
L 180.859871 248.470027 
L 183.484642 247.481838 
L 188.513304 252.059494 
L 191.247152 250.82889 
L 204.39007 270.076398 
L 207.682559 268.337686 
L 211.309449 267.158512 
L 214.506772 265.203682 
L 217.64105 263.149287 
L 220.709184 260.99736 
L 205.351254 235.039856 
L 207.541642 233.288245 
L 227.454843 251.669464 
L 230.157174 249.214645 
L 212.680991 226.544452 
L 214.600641 224.566578 
L 230.866335 235.251261 
L 233.050755 232.697296 
L 243.654765 236.678936 
L 245.877751 233.722168 
L 262.626761 240.645546 
L 264.965086 237.090296 
L 282.406954 242.473269 
L 284.792967 238.295182 
L 249.376918 214.828177 
L 250.910039 211.702296 
L 284.091878 222.283651 
L 285.842252 218.062569 
L 280.225826 211.181594 
L 281.629038 207.087559 
L 251.156928 193.718647 
L 252.02544 190.547235 
L 247.541617 186.174867 
L 248.174723 183.120859 
L 266.936645 182.937973 
L 267.458386 179.275743 
L 231.123251 172.12233 
L 231.322632 169.591499 
L 265.255734 168.119344 
L 236.095453 164.517292 
z
" clip-path="url(#p3bc7b00258)" style="fill: #0000ff; opacity: 0.5; stroke: #000000; stroke-width: 1.5; stroke-linejoin: miter"/>
   </g>
  </g>
 </g>
 <defs>
  <clipPath id="p3bc7b00258">
   <rect x="0" y="-0" width="312.210666" height="332.64"/>
  </clipPath>
 </defs>
</svg>
