<?xml version="1.0" encoding="utf-8" standalone="no"?>
<!DOCTYPE svg PUBLIC "-//W3C//DTD SVG 1.1//EN"
  "http://www.w3.org/Graphics/SVG/1.1/DTD/svg11.dtd">
<svg xmlns:xlink="http://www.w3.org/1999/xlink" width="334.8pt" height="327.881942pt" viewBox="0 0 334.8 327.881942" xmlns="http://www.w3.org/2000/svg" version="1.1">
 <metadata>
  <rdf:RDF xmlns:dc="http://purl.org/dc/elements/1.1/" xmlns:cc="http://creativecommons.org/ns#" xmlns:rdf="http://www.w3.org/1999/02/22-rdf-syntax-ns#">
   <cc:Work>
    <dc:type rdf:resource="http://purl.org/dc/dcmitype/StillImage"/>
    <dc:date>2023-12-09T18:06:21.828546</dc:date>
    <dc:format>image/svg+xml</dc:format>
    <dc:creator>
     <cc:Agent>
      <dc:title>Matplotlib v3.8.2, https://matplotlib.org/</dc:title>
     </cc:Agent>
    </dc:creator>
   </cc:Work>
  </rdf:RDF>
 </metadata>
 <defs>
  <style type="text/css">*{stroke-linejoin: round; stroke-linecap: butt}</style>
 </defs>
 <g id="figure_1">
  <g id="patch_1">
   <path d="M 0 327.881942 
L 334.8 327.881942 
L 334.8 0 
L 0 0 
L 0 327.881942 
z
" style="fill: none"/>
  </g>
  <g id="axes_1">
   <g id="patch_2">
    <path d="M 303.450864 165.328941 
L 303.384463 161.10627 
L 257.723511 159.75086 
L 257.504331 156.968716 
L 303.948098 148.282925 
L 303.345486 144.053049 
L 266.352578 146.767808 
L 265.720917 143.720766 
L 276.403572 137.76249 
L 275.483793 134.403875 
L 281.927486 128.646542 
L 280.718351 125.11875 
L 282.319357 120.473152 
L 280.85304 116.93708 
L 295.61738 105.750526 
L 293.681576 101.803615 
L 279.925935 104.357499 
L 277.954089 100.90465 
L 301.72688 81.08865 
L 299.012632 76.961836 
L 258.699479 100.182332 
L 256.606852 97.398953 
L 287.086785 67.626759 
L 283.956504 63.966917 
L 276.707931 64.173726 
L 273.47421 60.841925 
L 242.205039 87.407095 
L 239.718886 85.148653 
L 235.162611 85.391836 
L 232.616575 83.35582 
L 260.435993 39.436827 
L 256.432536 36.628882 
L 225.872775 75.751165 
L 223.028209 74.01201 
L 220.130366 72.363153 
L 217.182113 70.806226 
L 227.196477 41.61343 
L 223.277891 39.849533 
L 210.08198 61.587965 
L 206.799899 60.352309 
L 217.018877 17.374861 
L 212.34321 15.942954 
L 198.103619 51.945831 
L 194.52429 51.091568 
L 184.199391 85.847041 
L 181.692866 85.413196 
L 180.925458 71.03051 
L 177.954687 70.70693 
L 177.2855 32.84967 
L 173.11604 32.659416 
L 169.014284 78.152176 
L 166.273323 78.199588 
L 163.332824 75.198176 
L 160.501793 75.425687 
L 154.985877 54.708666 
L 151.514737 55.208754 
L 146.42728 47.334472 
L 142.728511 48.107306 
L 143.186624 64.963315 
L 140.043746 65.829327 
L 141.079417 79.48387 
L 138.394139 80.408957 
L 111.33393 20.126563 
L 106.797036 22.016261 
L 130.531262 83.683988 
L 127.983261 84.938656 
L 117.500463 71.836483 
L 114.586393 73.506726 
L 86.391686 35.534897 
L 82.351596 38.201216 
L 84.879768 49.874367 
L 81.291289 52.581135 
L 112.426807 97.07598 
L 110.30883 98.89327 
L 82.37903 73.355647 
L 79.530091 76.129433 
L 92.836137 94.006645 
L 90.63134 96.441426 
L 77.589533 89.959944 
L 75.265038 92.876113 
L 70.48721 94.023794 
L 68.294003 97.161267 
L 39.632572 83.601555 
L 37.126922 87.714317 
L 63.699416 107.718469 
L 61.940155 111.062593 
L 37.517876 103.821203 
L 35.649021 107.990459 
L 60.960016 122.83892 
L 59.67753 126.261701 
L 57.008053 129.241954 
L 55.928846 132.785828 
L 18.420877 127.092423 
L 17.293163 131.850625 
L 69.576555 146.63892 
L 69.038132 149.779011 
L 81.070354 154.471776 
L 80.77253 157.246604 
L 15.492116 156.136858 
L 15.27907 160.972786 
L 23.071915 165.788324 
L 23.158585 170.381154 
L 79.813519 171.237357 
L 80.043464 174.043413 
L 56.216919 179.971284 
L 56.733144 183.514951 
L 18.041004 194.677161 
L 19.03849 199.413891 
L 50.585832 196.201002 
L 51.615139 199.913698 
L 89.319286 191.573609 
L 90.183947 194.070728 
L 74.355039 203.248221 
L 75.594174 206.210077 
L 91.823795 202.055708 
L 93.016797 204.468897 
L 63.376993 223.982372 
L 65.273483 227.27915 
L 93.734684 213.58331 
L 95.289195 215.930718 
L 52.562159 250.710019 
L 55.304372 254.333624 
L 59.968819 256.360407 
L 62.885031 259.748337 
L 56.779692 271.680597 
L 60.17918 275.161226 
L 85.100626 255.5476 
L 87.978856 258.145732 
L 111.362666 235.758778 
L 113.605707 237.540959 
L 95.706277 267.291411 
L 98.948514 269.550272 
L 90.972283 289.657215 
L 94.920091 292.053865 
L 99.316757 293.635383 
L 103.385521 295.767697 
L 123.42436 263.592424 
L 126.536588 264.981597 
L 131.12068 262.614862 
L 134.198366 263.762529 
L 138.507636 261.072862 
L 141.533186 261.989029 
L 137.293219 291.749189 
L 141.2839 292.688373 
L 142.716078 307.399858 
L 147.19617 308.160798 
L 156.535595 269.019468 
L 159.80209 269.364867 
L 160.794548 308.809815 
L 165.310033 309.001631 
L 169.84784 312.978217 
L 174.489913 312.883316 
L 176.79205 278.164863 
L 180.336081 277.868833 
L 186.730825 299.265075 
L 190.933379 298.646116 
L 187.265104 257.817117 
L 190.164179 257.201852 
L 189.6579 243.580442 
L 192.10816 242.896982 
L 196.507319 248.102478 
L 199.096375 247.201421 
L 212.783473 273.911635 
L 216.175978 272.486059 
L 227.297313 287.25914 
L 231.102317 285.370619 
L 212.693195 243.561077 
L 215.131457 242.153347 
L 252.743111 295.522969 
L 256.795367 292.830289 
L 226.349228 243.176445 
L 228.768644 241.339529 
L 269.928185 285.81432 
L 273.666683 282.586105 
L 226.471108 225.70283 
L 228.341055 223.870721 
L 262.954957 252.444416 
L 265.64768 249.451953 
L 279.187835 255.32632 
L 281.963145 251.822035 
L 233.587986 211.589887 
L 235.010672 209.540986 
L 266.98186 226.631469 
L 268.860975 223.525154 
L 271.331902 220.735661 
L 273.023489 217.495486 
L 288.86385 220.808427 
L 290.549057 217.016973 
L 269.424644 204.34578 
L 270.601841 201.173677 
L 281.407592 201.063088 
L 282.475649 197.515838 
L 317.715731 202.519106 
L 318.811617 197.829529 
L 282.686734 186.269937 
L 283.28903 182.689782 
L 249.468307 174.972767 
L 249.731819 172.442658 
L 308.724598 173.237971 
L 308.904267 168.845572 
L 303.448208 164.484273 
L 303.35525 160.262103 
L 257.686676 159.193902 
L 257.450003 156.413191 
L 303.838222 147.435467 
L 303.209019 143.209464 
L 266.233917 146.156834 
L 265.583103 143.113825 
L 276.228073 137.088479 
L 275.287189 133.735716 
L 281.694544 127.93797 
L 280.463245 124.417853 
L 282.035001 119.762277 
L 280.546473 116.235497 
L 295.240164 104.956305 
L 293.279575 101.021647 
L 279.540268 103.661996 
L 277.546745 100.221616 
L 301.194434 80.256491 
L 298.454284 76.14683 
L 258.287972 99.620414 
L 256.177881 96.850251 
L 286.469961 66.886944 
L 283.316723 63.246863 
L 276.069594 63.499256 
L 272.814983 60.18786 
L 241.71351 86.949169 
L 239.213202 84.70641 
L 234.658546 84.978243 
L 232.099755 82.958281 
L 259.642398 38.865188 
L 255.621359 36.082479 
L 225.30826 75.396192 
L 222.452812 73.674961 
L 219.544656 72.044363 
L 216.586669 70.506009 
L 226.417228 41.250806 
L 222.487626 39.511589 
L 209.428698 61.332586 
L 206.138911 60.117597 
L 216.087383 17.076728 
L 211.402802 15.674256 
L 197.38993 51.76598 
L 193.8053 50.934246 
L 183.699197 85.753969 
L 181.189993 85.335897 
L 180.332141 70.958323 
L 177.359394 70.653434 
L 176.45212 32.801131 
L 172.281546 32.637104 
L 168.465994 78.154762 
L 165.725386 78.219413 
L 162.766068 75.236554 
L 159.936523 75.481866 
L 154.290419 54.799947 
L 150.822493 55.321856 
L 145.685611 47.479727 
L 141.991776 48.27581 
L 142.555894 65.128603 
L 139.418526 66.014365 
L 140.540055 79.662124 
L 137.860649 80.604083 
L 110.421833 20.493073 
L 105.896913 22.411269 
L 130.018525 83.928502 
L 127.478466 85.19917 
L 116.91347 72.163188 
L 114.009962 73.851725 
L 85.576992 36.057976 
L 81.553751 38.749652 
L 84.155291 50.406672 
L 80.583907 53.135955 
L 111.998656 97.434095 
L 109.892152 99.264671 
L 81.802286 73.903215 
L 78.970849 76.694864 
L 92.389069 94.488035 
L 90.199629 96.936635 
L 77.117316 90.537307 
L 74.811207 93.468038 
L 70.040693 94.645746 
L 67.867261 97.79695 
L 39.121115 84.417771 
L 36.641381 88.546211 
L 63.339165 108.382841 
L 61.600971 111.737964 
L 37.133631 104.65032 
L 35.291035 108.831247 
L 60.694918 123.520223 
L 59.433984 126.951002 
L 56.783305 129.947986 
L 55.726408 133.498577 
L 18.183372 128.041189 
L 17.085606 132.806389 
L 69.460975 147.265558 
L 68.942312 150.408974 
L 81.00381 155.02597 
L 80.723445 157.802616 
L 15.437342 157.103469 
L 15.254716 161.940642 
L 23.077694 166.707072 
L 23.193248 171.299266 
L 79.852446 171.799125 
L 80.100035 174.603679 
L 56.311245 180.681288 
L 56.849747 184.221638 
L 18.228577 195.626979 
L 19.255834 200.357342 
L 50.782345 196.946102 
L 51.834983 200.652251 
L 89.485929 192.075188 
L 90.366278 194.56682 
L 74.595404 203.843686 
L 75.853143 206.79769 
L 92.056315 202.541328 
L 93.264471 204.946966 
L 63.747982 224.646473 
L 65.665169 227.931258 
L 94.039668 214.056684 
L 95.608913 216.394268 
L 53.101464 251.44161 
L 55.866413 255.047896 
L 60.543515 257.045303 
L 63.480977 260.414824 
L 57.450806 272.385248 
L 60.872119 275.844427 
L 85.669713 256.074447 
L 88.564226 258.654426 
L 111.806773 236.120843 
L 114.060978 237.888881 
L 96.349016 267.751322 
L 99.605395 269.989747 
L 91.755784 290.146458 
L 95.718587 292.518231 
L 100.125113 294.072065 
L 104.207207 296.178747 
L 124.043286 263.878077 
L 127.164189 265.247648 
L 131.733306 262.852129 
L 134.818149 263.980416 
L 139.110417 261.2637 
L 142.141669 262.16082 
L 138.088961 291.947058 
L 142.08547 292.861124 
L 143.610147 307.563311 
L 148.094935 308.296058 
L 157.187999 269.096763 
L 160.456602 269.421611 
L 161.697127 308.859537 
L 166.213729 309.022949 
L 170.776457 312.970916 
L 175.41784 312.846821 
L 177.501573 278.114575 
L 181.043672 277.796262 
L 187.57286 299.151861 
L 191.771438 298.506483 
L 187.846444 257.701362 
L 190.741592 257.067876 
L 190.149652 243.44992 
L 192.595565 242.751062 
L 197.027377 247.928787 
L 199.610714 247.011465 
L 213.465534 273.635066 
L 216.849005 272.188182 
L 228.063035 286.891024 
L 231.856086 284.978608 
L 213.18437 243.285677 
L 215.613729 241.862638 
L 253.560305 294.994649 
L 257.595544 292.276537 
L 226.837713 242.815164 
L 229.245528 240.963067 
L 270.683977 285.178108 
L 274.402097 281.926444 
L 226.849692 225.341127 
L 228.708079 223.497293 
L 263.501009 251.852722 
L 266.174857 248.843382 
L 279.751691 254.632473 
L 282.504906 251.110802 
L 233.877667 211.183702 
L 235.287438 209.125893 
L 267.365483 226.014958 
L 269.225024 222.896886 
L 271.678358 220.091907 
L 273.349533 216.841157 
L 289.210417 220.054406 
L 290.871745 216.252428 
L 269.668055 203.714346 
L 270.825278 200.534902 
L 281.630119 200.356353 
L 282.675845 196.802456 
L 317.946698 201.583985 
L 319.013067 196.887608 
L 282.816196 185.555449 
L 283.395962 181.971577 
L 249.527373 174.467428 
L 249.774967 171.935712 
L 308.771581 172.359978 
L 308.92362 167.966536 
L 303.440239 163.639639 
L 303.320728 159.418137 
L 257.646339 158.637186 
L 257.392181 155.858019 
L 303.723018 146.588717 
L 303.067249 142.366755 
L 266.111415 145.546619 
L 265.441476 142.507764 
L 276.048339 136.415586 
L 275.086387 133.068806 
L 281.45715 127.230876 
L 280.203736 123.718573 
L 281.74618 119.053204 
L 280.2355 115.535856 
L 294.857961 104.164472 
L 292.872663 100.242223 
L 279.150235 102.968932 
L 277.135113 99.541158 
L 300.656765 79.427697 
L 297.890822 75.335351 
L 257.87294 99.061095 
L 255.745467 96.304258 
L 285.848496 66.151024 
L 282.672427 62.530846 
L 275.427029 62.828815 
L 272.151655 59.537954 
L 241.219111 86.494345 
L 238.704746 84.267355 
L 234.15189 84.567829 
L 231.580445 82.564001 
L 258.845223 38.298552 
L 254.806762 35.541188 
L 224.741523 75.044775 
L 221.875306 73.341538 
L 218.956952 71.729262 
L 215.989348 70.209544 
L 225.635714 40.89309 
L 221.695251 39.178623 
L 208.773823 61.081321 
L 205.476459 59.887047 
L 215.154033 16.784459 
L 210.460724 15.411479 
L 196.675125 51.590622 
L 193.085335 50.78145 
L 183.198428 85.664045 
L 180.686644 85.261763 
L 179.738383 70.889868 
L 176.763777 70.603683 
L 175.618451 32.757834 
L 171.446927 32.620041 
L 167.917731 78.160797 
L 165.177584 78.242683 
L 162.199564 75.278496 
L 159.371618 75.541599 
L 153.595548 54.8956 
L 150.130973 55.43931 
L 144.944871 47.629644 
L 141.256115 48.448943 
L 141.926217 65.297856 
L 138.794481 66.203332 
L 140.001826 79.843768 
L 137.328397 80.802559 
L 109.512059 20.865313 
L 104.999293 22.81193 
L 129.507337 84.176235 
L 126.975319 85.462854 
L 116.328543 72.493577 
L 113.435713 74.200342 
L 84.765604 36.586168 
L 80.759372 39.303095 
L 83.434176 50.943522 
L 79.880029 53.695213 
L 111.572767 97.794896 
L 109.477817 99.638684 
L 81.228998 74.454399 
L 78.415175 77.263802 
L 91.945038 94.972227 
L 89.771042 97.43455 
L 76.648739 91.117628 
L 74.361109 94.062805 
L 69.598096 95.270494 
L 67.444527 98.435306 
L 38.614802 85.237188 
L 36.161082 89.381143 
L 62.983099 109.049467 
L 61.266042 112.415455 
L 36.754608 105.481836 
L 34.938344 109.67427 
L 60.43411 124.203179 
L 59.194779 127.641821 
L 56.563001 130.655417 
L 55.528456 134.212585 
L 17.951839 128.991429 
L 16.884066 133.76344 
L 69.349338 147.892912 
L 68.850456 151.039527 
L 80.940754 155.580572 
L 80.677858 158.358926 
L 15.388649 158.070406 
L 15.236449 162.908631 
L 23.089251 167.625765 
L 23.233685 172.217142 
L 79.894906 172.360636 
L 80.160129 175.163578 
L 56.410034 181.390685 
L 56.970793 184.927578 
L 18.422119 196.575598 
L 19.479107 201.299407 
L 50.98354 197.689951 
L 52.059467 201.389405 
L 89.655723 192.575709 
L 90.551726 195.061755 
L 74.839511 204.437628 
L 76.115804 207.383663 
L 92.291884 203.025476 
L 93.515147 205.423468 
L 64.12314 225.308227 
L 66.060949 228.580889 
L 94.347624 214.52813 
L 95.931539 216.855798 
L 53.645359 252.169795 
L 56.432935 255.75862 
L 61.122507 257.726571 
L 64.081103 261.077551 
L 58.126339 273.085664 
L 61.56934 276.523256 
L 86.242102 256.597704 
L 89.152784 259.159427 
L 112.253148 236.480108 
L 114.518429 238.233933 
L 96.994635 268.207182 
L 100.265028 270.425082 
L 92.542346 290.630763 
L 96.519988 292.977566 
L 100.936199 294.503655 
L 105.031463 296.584621 
L 124.663996 264.159832 
L 127.793452 265.509748 
L 132.347412 263.085539 
L 135.43929 264.194402 
L 139.714387 261.450743 
L 142.751221 262.328781 
L 138.885931 292.139918 
L 142.888111 293.028831 
L 144.505225 307.721138 
L 148.994534 308.425664 
L 157.840876 269.169953 
L 161.111457 269.474238 
L 162.600001 308.903581 
L 167.117541 309.038583 
L 171.705009 312.957775 
L 176.34552 312.804491 
L 178.210765 278.059826 
L 181.750792 277.719242 
L 188.414166 299.033353 
L 192.608602 298.361581 
L 188.427044 257.581954 
L 191.31815 256.930271 
L 190.640573 243.316307 
L 193.082042 242.60208 
L 197.546332 247.751829 
L 200.123848 246.818277 
L 214.145841 273.354213 
L 217.520146 271.886077 
L 228.826427 286.518098 
L 232.607374 284.581864 
L 213.673803 243.007192 
L 216.094164 241.568903 
L 254.374159 294.4612 
L 258.392223 291.717762 
L 227.323917 242.450816 
L 229.720035 240.583613 
L 271.435752 284.537155 
L 275.133347 281.26217 
L 227.225993 224.97705 
L 229.072747 223.121565 
L 264.043328 251.257604 
L 266.698197 248.231507 
L 280.311172 253.935093 
L 283.042183 250.396176 
L 234.164787 210.775703 
L 235.561588 208.709069 
L 267.745221 225.396046 
L 269.585115 222.26634 
L 272.020758 219.445987 
L 273.671455 216.184791 
L 289.552234 219.29822 
L 291.189617 215.485869 
L 269.907489 203.081393 
L 271.044692 199.894734 
L 281.848197 199.648233 
L 282.87155 196.087829 
L 318.171778 200.647429 
L 319.208589 195.944438 
L 282.941161 184.840162 
L 283.498376 181.252714 
L 249.583259 173.961728 
L 249.814925 171.428504 
L 308.813041 171.481707 
L 308.937445 167.087396 
L 303.426958 162.795071 
L 303.280898 158.574405 
L 257.602501 158.080735 
L 257.330869 155.303221 
L 303.602491 145.742708 
L 302.920181 141.524954 
L 265.985078 144.937187 
L 265.296039 141.902605 
L 275.864376 135.743836 
L 274.881393 132.403173 
L 281.215313 126.52529 
L 279.939834 123.02094 
L 281.452905 118.345961 
L 279.920132 114.838184 
L 294.470785 103.375059 
L 292.460858 99.465373 
L 278.75585 102.278334 
L 276.719209 98.863303 
L 300.113894 78.602302 
L 297.322267 74.527433 
L 257.454398 98.504397 
L 255.309628 95.760996 
L 285.222415 65.419026 
L 282.02364 61.818896 
L 274.780259 62.162429 
L 271.484252 58.892233 
L 240.72186 86.042639 
L 238.193539 83.831507 
L 233.642663 84.16061 
L 231.058666 82.172994 
L 258.0445 37.736941 
L 253.988776 35.005031 
L 224.172587 74.69693 
L 221.295714 73.011753 
L 218.367278 71.417865 
L 215.390174 69.916841 
L 224.851966 40.540297 
L 220.900798 38.850647 
L 208.117381 60.83418 
L 204.812571 59.660668 
L 214.218862 16.498066 
L 209.517011 15.154631 
L 195.959231 51.419763 
L 192.364423 50.633184 
L 182.697103 85.577273 
L 180.182839 85.190797 
L 179.144205 70.82515 
L 176.167858 70.557678 
L 174.784526 32.719782 
L 170.612218 32.608228 
L 167.369517 78.17028 
L 164.629939 78.269399 
L 161.633336 75.324 
L 158.8071 75.604884 
L 152.901293 54.995622 
L 149.440206 55.561111 
L 144.205088 47.784217 
L 140.521558 48.6267 
L 141.297617 65.471065 
L 138.171638 66.39622 
L 139.464749 80.028793 
L 136.797403 81.004379 
L 108.604644 21.243268 
L 104.104211 23.218229 
L 128.997716 84.427179 
L 126.473841 85.729697 
L 115.745706 72.827639 
L 112.863668 74.552565 
L 83.957554 37.119453 
L 79.968489 39.861523 
L 82.716452 51.484897 
L 79.179682 54.258887 
L 111.149155 98.158369 
L 109.065843 100.015296 
L 80.659188 75.009178 
L 77.86309 77.836223 
L 91.504061 95.459203 
L 89.345595 97.93515 
L 76.183822 91.700885 
L 73.91476 94.660391 
L 69.159437 95.898013 
L 67.025815 99.076307 
L 38.113652 86.059773 
L 35.686044 90.219078 
L 62.631233 109.718318 
L 60.93538 113.095039 
L 36.380822 106.315721 
L 34.590963 110.519495 
L 60.177603 124.887762 
L 58.959923 128.334131 
L 56.347151 131.36422 
L 55.334999 134.927824 
L 17.726288 129.943107 
L 16.688548 134.721739 
L 69.241649 148.520955 
L 68.762567 151.670645 
L 80.881187 156.135559 
L 80.63577 158.915513 
L 15.346038 159.03763 
L 15.224271 163.876717 
L 23.106585 168.544367 
L 23.279894 173.134745 
L 79.940897 172.92187 
L 80.223744 175.723088 
L 56.513283 182.099446 
L 57.096276 185.632742 
L 18.621624 197.522982 
L 19.708301 202.240049 
L 51.18941 198.432519 
L 52.288582 202.125134 
L 89.828662 193.075153 
L 90.740283 195.555514 
L 75.087347 205.030023 
L 76.382144 207.967972 
L 92.530494 203.508133 
L 93.768815 205.898384 
L 64.502453 225.967609 
L 66.460807 229.228018 
L 94.658539 214.99763 
L 96.257062 217.31529 
L 54.193823 252.894545 
L 57.003916 256.465766 
L 61.705772 258.404183 
L 64.685386 261.736489 
L 58.806263 273.781817 
L 62.270817 277.197686 
L 86.81777 257.117351 
L 89.744507 259.660717 
L 112.701774 236.836558 
L 114.97804 238.576101 
L 97.643108 268.658972 
L 100.927386 270.856259 
L 93.331939 291.110112 
L 97.324262 293.431851 
L 101.749984 294.930134 
L 105.858255 296.985303 
L 125.286467 264.437678 
L 128.42435 265.767884 
L 132.962973 263.315081 
L 136.061765 264.404476 
L 140.319521 261.633984 
L 143.361817 262.492904 
L 139.684099 292.327763 
L 143.69179 293.191486 
L 145.401279 307.873332 
L 149.89493 308.549608 
L 158.494201 269.239036 
L 161.766631 269.522744 
L 163.503133 308.941946 
L 168.021434 309.048532 
L 172.63346 312.938794 
L 177.272916 312.756327 
L 178.9196 278.000618 
L 182.457414 277.637775 
L 189.25471 298.909557 
L 193.444838 298.211417 
L 189.006882 257.458896 
L 191.893832 256.789043 
L 191.130645 243.17961 
L 193.567573 242.450041 
L 198.064163 247.571611 
L 200.635758 246.621866 
L 214.824369 273.069086 
L 218.189373 271.579757 
L 229.587457 286.140379 
L 233.356152 284.180403 
L 214.161474 242.725635 
L 216.572742 241.272151 
L 255.184642 293.922643 
L 259.185372 291.153988 
L 227.807819 242.083419 
L 230.192147 240.201181 
L 272.183481 283.891487 
L 275.860405 280.59331 
L 227.599997 224.610614 
L 229.435044 222.74355 
L 264.581894 250.659088 
L 267.217677 247.616353 
L 280.866256 253.234209 
L 283.574955 249.678185 
L 234.449336 210.365907 
L 235.833111 208.290528 
L 268.121059 224.774759 
L 269.941232 221.633543 
L 272.359089 218.797927 
L 273.989242 215.526413 
L 289.889289 218.539899 
L 291.502662 214.717325 
L 270.142938 202.446948 
L 271.260076 199.253199 
L 282.061817 198.938755 
L 283.062757 195.371985 
L 318.390964 199.709477 
L 319.398175 195.000058 
L 283.061625 184.124103 
L 283.596265 180.533221 
L 249.635963 173.455686 
L 249.851692 170.921056 
L 308.848976 170.603192 
L 308.94574 166.208186 
L 303.408366 161.950604 
L 303.235763 157.73094 
L 257.555165 157.524571 
L 257.266069 154.748821 
L 303.476646 144.897474 
L 302.767821 140.684095 
L 265.85491 144.328561 
L 265.146799 141.298372 
L 275.676192 135.073257 
L 274.672218 131.738842 
L 280.969044 125.821239 
L 279.671549 122.32498 
L 281.155188 117.640578 
L 279.600383 114.14251 
L 294.078651 102.588096 
L 292.044174 98.691129 
L 278.357129 101.590231 
L 276.29905 98.188077 
L 299.565842 77.780337 
L 296.748642 73.723107 
L 257.032363 97.950342 
L 254.870381 95.220485 
L 284.591743 64.690981 
L 281.370388 61.111041 
L 274.129311 61.500123 
L 270.812801 58.250722 
L 240.221779 85.594069 
L 237.679601 83.398882 
L 233.130884 83.756602 
L 230.534438 81.785277 
L 257.24026 37.180377 
L 253.167435 34.474029 
L 223.601475 74.352671 
L 220.71406 72.685621 
L 217.775657 71.110182 
L 214.789172 69.627912 
L 224.066015 40.19244 
L 220.104298 38.527674 
L 207.459398 60.591173 
L 204.147272 59.43847 
L 213.281909 16.217561 
L 208.571701 14.903725 
L 195.242277 51.253409 
L 191.642592 50.489456 
L 182.195243 85.493655 
L 179.678597 85.123 
L 178.549632 70.76417 
L 175.571662 70.515423 
L 173.950378 32.686975 
L 169.777451 32.601666 
L 166.821374 78.183211 
L 164.082473 78.299558 
L 161.067404 75.373064 
L 158.242991 75.671718 
L 152.20768 55.100008 
L 148.750218 55.687254 
L 143.466291 47.94344 
L 139.788134 48.809074 
L 140.670118 65.648224 
L 137.55002 66.593022 
L 138.928846 80.217192 
L 136.267689 81.209535 
L 107.699624 21.626922 
L 103.211702 23.63015 
L 128.489684 84.681322 
L 125.974051 85.999689 
L 115.164982 73.165359 
L 112.293849 74.908378 
L 83.152874 37.657809 
L 79.181134 40.424914 
L 82.002147 52.030775 
L 78.482893 54.826955 
L 110.727837 98.524498 
L 108.656245 100.394492 
L 80.092878 75.56753 
L 77.314615 78.412104 
L 91.066156 95.948942 
L 88.923305 98.438416 
L 75.722582 92.287054 
L 73.472179 95.260773 
L 68.724734 96.528279 
L 66.611144 99.719929 
L 37.617685 86.885494 
L 35.216285 91.059985 
L 62.28358 110.389369 
L 60.608998 113.77669 
L 36.012288 107.151939 
L 34.248904 111.366888 
L 59.925406 125.573945 
L 58.729426 129.027905 
L 56.135763 132.074366 
L 55.146045 135.644266 
L 17.506726 130.896185 
L 16.499062 135.681249 
L 69.137913 149.149663 
L 68.67865 152.302304 
L 80.825112 156.690911 
L 80.597184 159.472352 
L 15.309511 160.005103 
L 15.218182 164.84486 
L 23.129697 169.462843 
L 23.331873 174.05204 
L 79.990417 173.482803 
L 80.290876 176.282187 
L 56.620988 182.807544 
L 57.226192 186.337104 
L 18.827084 198.469092 
L 19.943407 203.179231 
L 51.399946 199.173778 
L 52.522321 202.859407 
L 90.004739 193.573499 
L 90.931942 196.048077 
L 75.338905 205.620847 
L 76.652154 208.550594 
L 92.772135 203.98928 
L 94.025465 206.371695 
L 64.885906 226.624592 
L 66.864727 229.87262 
L 94.9724 215.465166 
L 96.585469 217.772726 
L 54.746835 253.61583 
L 57.579333 257.169308 
L 62.293288 259.078114 
L 65.293801 262.391614 
L 59.490553 274.47368 
L 62.976522 277.867692 
L 87.396696 257.633368 
L 90.339371 260.158275 
L 113.152633 237.19018 
L 115.439795 238.915372 
L 98.294409 269.106675 
L 101.592442 271.283262 
L 94.124531 291.584486 
L 98.131377 293.881069 
L 102.566435 295.351487 
L 106.687551 297.380777 
L 125.910672 264.711603 
L 129.05686 266.022047 
L 133.579966 263.540747 
L 136.685548 264.610631 
L 140.925795 261.813415 
L 143.973434 262.653184 
L 140.483433 292.510583 
L 144.496476 293.349083 
L 146.298272 308.019887 
L 150.796088 308.667888 
L 159.147948 269.304008 
L 162.422097 269.567129 
L 164.40649 308.97463 
L 168.925371 309.052796 
L 173.561774 312.913974 
L 178.19999 312.702331 
L 179.628047 277.936953 
L 183.16351 277.551866 
L 190.094459 298.780476 
L 194.280113 298.055997 
L 189.585934 257.332194 
L 192.468615 256.644197 
L 191.619847 243.039833 
L 194.052138 242.294952 
L 198.580851 247.388139 
L 201.146421 246.422239 
L 215.50109 272.779698 
L 218.856661 271.269234 
L 230.346098 285.757881 
L 234.102391 283.774241 
L 214.647365 242.441016 
L 217.049443 240.972395 
L 255.991722 293.378999 
L 259.97496 290.585236 
L 228.289401 241.712985 
L 230.661843 239.815789 
L 272.927135 283.241128 
L 276.583242 279.919891 
L 227.971689 224.241832 
L 229.794957 222.363264 
L 265.116685 250.057196 
L 267.733279 246.997944 
L 281.416921 252.529846 
L 284.103201 248.956857 
L 234.731301 209.954329 
L 236.101996 207.870288 
L 268.492982 224.15112 
L 270.293363 220.998518 
L 272.693337 218.147751 
L 274.302882 214.866049 
L 290.221568 217.779473 
L 291.810867 213.946828 
L 270.374391 201.811034 
L 271.471421 198.610322 
L 282.27097 198.227947 
L 283.249458 194.654953 
L 318.604247 198.770164 
L 319.581818 194.054504 
L 283.177583 183.4073 
L 283.689628 179.813127 
L 249.685484 172.949323 
L 249.885267 170.413386 
L 308.879385 169.724469 
L 303.450864 165.328941 
z
" clip-path="url(#pb1b33c44c2)" style="fill: #0000ff; opacity: 0.5; stroke: #000000; stroke-width: 1.5; stroke-linejoin: miter"/>
   </g>
  </g>
 </g>
 <defs>
  <clipPath id="pb1b33c44c2">
   <rect x="0" y="0" width="334.8" height="327.881942"/>
  </clipPath>
 </defs>
</svg>
