<?xml version="1.0" encoding="utf-8" standalone="no"?>
<!DOCTYPE svg PUBLIC "-//W3C//DTD SVG 1.1//EN"
  "http://www.w3.org/Graphics/SVG/1.1/DTD/svg11.dtd">
<svg xmlns:xlink="http://www.w3.org/1999/xlink" width="305.10407pt" height="332.64pt" viewBox="0 0 305.10407 332.64" xmlns="http://www.w3.org/2000/svg" version="1.1">
 <metadata>
  <rdf:RDF xmlns:dc="http://purl.org/dc/elements/1.1/" xmlns:cc="http://creativecommons.org/ns#" xmlns:rdf="http://www.w3.org/1999/02/22-rdf-syntax-ns#">
   <cc:Work>
    <dc:type rdf:resource="http://purl.org/dc/dcmitype/StillImage"/>
    <dc:date>2023-12-09T18:06:21.956848</dc:date>
    <dc:format>image/svg+xml</dc:format>
    <dc:creator>
     <cc:Agent>
      <dc:title>Matplotlib v3.8.2, https://matplotlib.org/</dc:title>
     </cc:Agent>
    </dc:creator>
   </cc:Work>
  </rdf:RDF>
 </metadata>
 <defs>
  <style type="text/css">*{stroke-linejoin: round; stroke-linecap: butt}</style>
 </defs>
 <g id="figure_1">
  <g id="patch_1">
   <path d="M 0 332.64 
L 305.10407 332.64 
L 305.10407 0 
L 0 0 
L 0 332.64 
z
" style="fill: none"/>
  </g>
  <g id="axes_1">
   <g id="patch_2">
    <path d="M 230.191006 168.125384 
L 230.146685 165.306917 
L 268.575144 160.062727 
L 268.258337 156.041366 
L 226.416157 157.267166 
L 226.032297 154.572758 
L 249.853203 147.25357 
L 249.142906 143.827201 
L 265.539106 136.00047 
L 264.467231 132.086465 
L 253.719655 131.315432 
L 252.506316 127.775373 
L 253.337416 123.420991 
L 251.876048 119.896853 
L 237.721424 122.348366 
L 236.23405 119.315761 
L 212.311611 128.627829 
L 211.034241 126.391059 
L 244.255072 102.230645 
L 242.131923 99.002554 
L 230.535028 102.661925 
L 228.432223 99.865009 
L 245.284992 81.360084 
L 242.505118 78.109928 
L 208.101183 104.595885 
L 206.070278 102.503382 
L 242.557035 59.322254 
L 239.085592 56.168768 
L 198.121036 98.410726 
L 195.900591 96.635079 
L 212.224006 69.280504 
L 209.08067 67.075831 
L 184.785848 98.267724 
L 182.567499 96.911435 
L 211.889651 38.032253 
L 207.763967 35.853543 
L 184.534393 74.381389 
L 181.56513 73.044816 
L 196.13922 27.234851 
L 191.681829 25.556708 
L 181.940739 40.19469 
L 177.897854 38.95657 
L 170.37666 51.323339 
L 166.689401 50.443317 
L 159.957557 65.624281 
L 156.725102 65.064788 
L 158.263795 26.267141 
L 153.794703 25.780362 
L 149.738733 18.492616 
L 145.029409 18.277728 
L 140.310796 15.12 
L 135.50009 15.203215 
L 133.780914 63.248959 
L 130.486717 63.513691 
L 126.417243 57.749897 
L 122.953784 58.248878 
L 118.630908 54.303641 
L 115.062941 55.049145 
L 111.133096 54.410213 
L 107.572187 55.391412 
L 93.956295 25.635837 
L 89.499149 27.171339 
L 103.102333 74.076055 
L 100.163732 75.300035 
L 81.734866 43.784126 
L 77.854385 45.694924 
L 73.288537 46.373995 
L 69.493663 48.549083 
L 87.372837 84.724162 
L 84.776813 86.437447 
L 58.545296 55.774625 
L 55.053288 58.408625 
L 83.256688 99.186413 
L 81.117424 101.021969 
L 35.552582 56.833163 
L 32.105225 60.189581 
L 47.960728 81.59248 
L 45.285724 84.546518 
L 43.898172 88.565424 
L 41.444421 91.643749 
L 66.646444 114.713864 
L 65.003609 117.064005 
L 67.356628 121.938913 
L 65.940614 124.263153 
L 67.310986 128.112716 
L 66.089112 130.435338 
L 42.537757 122.327036 
L 41.146218 125.431442 
L 57.115558 135.357607 
L 56.126521 137.997214 
L 47.864897 138.299477 
L 46.972932 141.22849 
L 15.463242 136.393682 
L 14.527375 140.342416 
L 34.981918 148.310176 
L 34.411081 151.639308 
L 33.945201 154.984743 
L 33.584739 158.343172 
L 20.216653 160.926814 
L 20.049811 164.713961 
L 43.957427 168.429147 
L 44.014737 171.466123 
L 27.203947 175.62169 
L 27.495689 179.181876 
L 30.198251 182.433051 
L 30.702677 185.895721 
L 48.004507 186.099572 
L 48.615413 189.000561 
L 15.66529 200.643192 
L 16.749469 204.553806 
L 21.626587 207.221721 
L 22.914662 210.941647 
L 40.103697 208.305254 
L 41.416704 211.443683 
L 17.698807 226.474277 
L 19.594165 230.308182 
L 34.449489 226.960432 
L 36.351852 230.267418 
L 36.404499 234.762398 
L 38.551206 238.004057 
L 57.632027 228.849221 
L 59.582316 231.426363 
L 29.562368 260.663003 
L 32.52683 264.106988 
L 70.956699 233.991715 
L 73.06209 236.147358 
L 45.736147 269.898477 
L 48.982995 272.829356 
L 63.594351 261.916586 
L 66.581401 264.28991 
L 52.478721 290.395051 
L 56.366693 293.103795 
L 59.92656 296.343125 
L 63.99787 298.814752 
L 73.686194 290.976143 
L 77.581951 293.01779 
L 96.211318 263.408451 
L 99.22915 264.755489 
L 109.040231 248.733752 
L 111.590315 249.684676 
L 111.342358 259.38669 
L 114.226255 260.259963 
L 109.016399 293.263258 
L 112.9666 294.192915 
L 116.802717 295.757626 
L 120.827496 296.441231 
L 124.218463 302.36764 
L 128.447409 302.814809 
L 132.643392 303.900238 
L 136.916361 304.081752 
L 141.123667 289.446635 
L 144.93799 289.368656 
L 148.434729 284.544846 
L 152.091314 284.239415 
L 151.11056 248.574701 
L 153.634842 248.202921 
L 169.81021 317.52 
L 174.493038 316.526173 
L 164.842112 260.817093 
L 167.744532 260.00751 
L 176.439808 276.716427 
L 179.836404 275.534325 
L 185.499168 279.982262 
L 188.99397 278.5137 
L 184.125245 259.498384 
L 186.976668 258.083149 
L 215.712914 303.169009 
L 219.921819 300.738997 
L 223.634735 297.527586 
L 227.662345 294.851283 
L 229.316065 288.935991 
L 233.070727 286.085303 
L 207.482515 248.145997 
L 209.965446 246.001971 
L 210.78355 242.099702 
L 213.07474 239.854874 
L 219.25785 241.220146 
L 221.517195 238.709302 
L 239.248797 248.848698 
L 241.738116 245.705523 
L 213.368443 220.402892 
L 214.97616 218.087517 
L 253.180097 238.700768 
L 255.343455 235.124579 
L 254.676046 230.008726 
L 256.565367 226.389799 
L 279.373644 232.461093 
L 281.327862 228.064407 
L 242.093806 207.636052 
L 243.285902 204.423801 
L 284.875535 214.067605 
L 286.248702 209.507022 
L 260.491309 198.149984 
L 261.376047 194.363965 
L 255.301873 189.290502 
L 255.910615 185.67203 
L 243.362128 180.470088 
L 243.69944 177.23139 
L 290.997335 176.650525 
L 291.191 171.91596 
L 230.189233 167.561601 
L 230.127187 164.743469 
L 268.521902 159.25769 
L 268.17981 155.2384 
L 226.346167 156.72734 
L 225.945368 154.035399 
L 249.71977 146.566537 
L 248.987936 143.144703 
L 265.334586 135.215003 
L 264.238116 131.307818 
L 253.485903 130.604395 
L 252.250323 127.072038 
L 253.05402 122.712514 
L 251.570516 119.197638 
L 237.43159 121.738127 
L 235.925173 118.714936 
L 212.061774 128.177279 
L 210.770361 125.948587 
L 243.83858 101.579711 
L 241.69517 98.365037 
L 230.12152 102.097274 
L 228.001166 99.313639 
L 244.737216 80.703085 
L 241.936955 77.470478 
L 207.700282 104.172292 
L 205.656257 102.092603 
L 241.870707 58.682848 
L 238.379499 55.551258 
L 197.681432 98.050024 
L 195.449862 96.288377 
L 211.60091 68.831679 
L 208.44377 66.64682 
L 184.345608 97.990896 
L 182.118773 96.648586 
L 211.070028 37.586148 
L 206.930722 35.43343 
L 183.943927 74.106615 
L 180.966316 72.788744 
L 195.251999 26.888022 
L 190.784142 25.237946 
L 181.135309 39.936904 
L 177.084717 38.724237 
L 169.641451 51.138065 
L 165.948731 50.281251 
L 159.312499 65.504255 
L 156.07659 64.965103 
L 157.371236 26.158546 
L 152.899172 25.699885 
L 148.797446 18.437792 
L 144.086864 18.252528 
L 139.348484 15.124539 
L 134.538397 15.238009 
L 133.121435 63.293615 
L 129.828968 63.579061 
L 125.723323 57.840976 
L 122.263071 58.36173 
L 117.915467 54.44376 
L 114.35226 55.21169 
L 110.418474 54.597487 
L 106.863807 55.601063 
L 93.061038 25.931712 
L 88.613638 27.495217 
L 102.511556 74.313448 
L 99.580712 75.555887 
L 80.953993 44.156508 
L 77.085606 46.091674 
L 72.52412 46.799448 
L 68.743001 48.998361 
L 86.849342 85.060274 
L 84.264145 86.789853 
L 57.840295 56.292619 
L 54.364923 58.94853 
L 82.824234 99.548128 
L 80.696557 101.397102 
L 34.854694 57.495747 
L 31.428515 60.873781 
L 47.418317 82.176535 
L 44.761944 85.147338 
L 43.399697 89.174891 
L 40.965355 92.268588 
L 66.311977 115.17974 
L 64.683956 117.540167 
L 67.067589 122.40018 
L 65.666221 124.73328 
L 67.060777 128.574148 
L 65.853536 130.904409 
L 42.25165 122.944392 
L 40.879663 126.057489 
L 56.911118 135.88302 
L 55.938701 138.528794 
L 47.679142 138.883012 
L 46.805617 141.817577 
L 15.266142 137.181043 
L 14.355128 141.135585 
L 34.859379 148.97454 
L 34.309492 152.307197 
L 33.864662 155.655495 
L 33.525331 159.016125 
L 20.173758 161.683794 
L 20.030739 165.471915 
L 43.961248 169.036663 
L 44.037658 172.073217 
L 27.253336 176.334433 
L 27.567464 179.892713 
L 30.290421 183.126827 
L 30.816615 186.586256 
L 48.119385 186.681284 
L 48.748524 189.578373 
L 15.872279 201.428011 
L 16.981031 205.331729 
L 21.874833 207.968917 
L 23.186278 211.680668 
L 40.358392 208.936218 
L 41.691113 212.066327 
L 18.068218 227.245796 
L 19.987652 231.067704 
L 34.821627 227.626589 
L 36.744751 230.921545 
L 36.825668 235.416105 
L 38.99272 238.644198 
L 58.015586 229.369535 
L 59.982044 231.934361 
L 30.146573 261.359231 
L 33.132636 264.784503 
L 71.372337 234.428123 
L 73.491245 236.570482 
L 46.378117 270.492798 
L 49.643335 273.403198 
L 64.185766 262.398747 
L 67.187685 264.753237 
L 53.24947 290.94656 
L 57.154401 293.630797 
L 60.734572 296.847674 
L 64.821346 299.293645 
L 74.460178 291.394257 
L 78.368699 293.411362 
L 96.811472 263.68544 
L 99.837716 265.013471 
L 109.547835 248.930345 
L 112.103849 249.865212 
L 111.916917 259.568593 
L 114.80625 260.423711 
L 109.804069 293.45912 
L 113.760039 294.363914 
L 117.605921 295.904467 
L 121.63492 296.562745 
L 125.063094 302.46771 
L 129.294768 302.888273 
L 133.497496 303.94729 
L 137.771522 304.101925 
L 141.886697 289.440636 
L 145.700454 289.338669 
L 149.166786 284.492962 
L 152.821377 284.164539 
L 151.616332 248.506699 
L 154.138226 248.11905 
L 170.749239 317.333024 
L 175.425724 316.309764 
L 165.42461 260.662485 
L 168.321881 259.834663 
L 177.122074 276.488561 
L 180.511168 275.285121 
L 186.201795 279.697354 
L 189.687292 278.20684 
L 184.699068 259.222522 
L 187.541534 257.789381 
L 216.560775 302.693615 
L 220.754314 300.237179 
L 224.446958 297.002479 
L 228.457656 294.300898 
L 230.074139 288.375322 
L 233.810798 285.501075 
L 207.984476 247.723456 
L 210.453873 245.563856 
L 211.247418 241.656518 
L 213.524444 239.397324 
L 219.716018 240.723681 
L 221.959527 238.198677 
L 239.754549 248.226351 
L 242.22405 245.067582 
L 213.695799 219.94388 
L 215.288921 217.618439 
L 253.621748 237.991001 
L 255.762571 234.401277 
L 255.063 229.289722 
L 256.929523 225.658985 
L 279.775534 231.586707 
L 281.702061 227.177817 
L 242.340297 206.996626 
L 243.512167 203.776941 
L 285.161631 213.158979 
L 286.506087 208.58985 
L 260.677775 197.395036 
L 261.538683 193.603527 
L 255.43272 188.568368 
L 256.018691 184.946139 
L 243.437736 179.823223 
L 243.754671 176.582467 
L 291.047978 175.704137 
L 291.211861 170.968447 
L 230.183914 166.997841 
L 230.104145 164.180155 
L 268.463598 158.453003 
L 268.096234 154.435945 
L 226.272783 156.187965 
L 225.855061 153.498598 
L 249.582018 145.880356 
L 248.828677 142.463192 
L 265.125131 134.430839 
L 264.004108 130.530626 
L 253.247683 129.894843 
L 251.989911 126.370327 
L 252.766174 122.005835 
L 251.260592 118.500358 
L 237.137925 121.129723 
L 235.612523 118.116067 
L 211.809109 127.728309 
L 210.503704 125.507784 
L 243.418002 100.931409 
L 241.254416 97.73028 
L 229.704469 101.535235 
L 227.566649 98.76499 
L 244.185319 80.049544 
L 241.364782 76.834613 
L 207.296726 103.751228 
L 205.23966 101.684436 
L 241.180372 58.047772 
L 237.669537 54.938201 
L 197.239568 97.692095 
L 194.996963 95.944518 
L 210.975004 68.386782 
L 207.804185 66.221822 
L 183.903636 97.716842 
L 181.668402 96.388564 
L 210.247616 37.145208 
L 206.094852 35.018566 
L 183.351744 73.83556 
L 180.365903 72.536442 
L 194.362614 26.54678 
L 189.884467 24.924837 
L 180.328274 39.68419 
L 176.270134 38.497022 
L 168.905092 50.957419 
L 165.207055 50.123847 
L 158.666699 65.388288 
L 155.427463 64.869498 
L 156.478013 26.055566 
L 152.003152 25.625041 
L 147.855833 18.38889 
L 143.144178 18.233256 
L 138.386219 15.135131 
L 133.576941 15.278851 
L 132.46225 63.342419 
L 129.171643 63.648566 
L 125.02999 57.936417 
L 121.573082 58.478924 
L 117.200922 54.588375 
L 113.642615 55.3787 
L 109.705044 54.789251 
L 106.156759 55.815164 
L 92.16766 26.233211 
L 87.730181 27.824657 
L 101.922285 74.554552 
L 98.999312 75.8154 
L 80.175478 44.533794 
L 76.319339 46.493252 
L 71.762394 47.229701 
L 67.99518 49.452351 
L 86.327972 85.399672 
L 83.753704 87.145477 
L 57.138567 56.815036 
L 53.679967 59.492753 
L 82.394064 99.912555 
L 80.278058 101.774875 
L 34.160987 58.162707 
L 30.756122 61.562223 
L 46.879589 82.763989 
L 44.241954 85.75144 
L 42.905065 89.787482 
L 40.490228 92.896428 
L 65.980448 115.647711 
L 64.367305 118.018331 
L 66.781457 122.863256 
L 65.39479 125.205123 
L 66.813476 129.037144 
L 65.620914 131.374952 
L 41.969432 123.563535 
L 40.617051 126.6852 
L 56.709986 136.409707 
L 55.754229 139.061545 
L 47.497061 139.467704 
L 46.64201 142.407705 
L 15.073997 137.969628 
L 14.187874 141.929822 
L 34.741022 149.639661 
L 34.212106 152.975711 
L 33.788344 156.326741 
L 33.470155 159.689438 
L 20.135625 162.441028 
L 20.016434 166.229974 
L 43.96889 169.644142 
L 44.064396 172.680156 
L 27.307207 177.046851 
L 27.643709 180.603085 
L 30.386952 183.820009 
L 30.934894 187.27606 
L 48.23792 187.262261 
L 48.885267 190.155337 
L 16.0842 202.211513 
L 17.217482 206.108181 
L 22.127774 208.714537 
L 23.462538 212.417966 
L 40.617051 209.565568 
L 41.969432 212.687233 
L 18.442474 228.014976 
L 20.385909 231.824737 
L 35.197947 228.290392 
L 37.141756 231.573187 
L 37.25094 236.06715 
L 39.438252 239.28155 
L 58.402409 229.887427 
L 60.38496 232.439834 
L 30.735144 262.051771 
L 33.742692 265.458194 
L 71.790712 234.861909 
L 73.923052 236.990898 
L 47.023813 271.08307 
L 50.307271 273.972876 
L 64.780203 262.877178 
L 67.79687 265.212742 
L 54.023672 291.49321 
L 57.945409 294.152834 
L 61.545741 297.34713 
L 65.647818 299.76735 
L 75.236776 291.807495 
L 79.157906 293.799978 
L 97.413356 263.958649 
L 100.447892 265.267621 
L 110.056666 249.123741 
L 112.618509 250.042514 
L 112.49261 259.746879 
L 115.387263 260.583808 
L 110.592955 293.650024 
L 114.554537 294.52992 
L 118.410033 296.046253 
L 122.443092 296.679178 
L 125.908337 302.562465 
L 130.142573 302.956405 
L 134.351878 303.988968 
L 138.626792 304.116719 
L 142.649675 289.429838 
L 146.462715 289.303886 
L 149.898501 284.436474 
L 153.550955 284.085073 
L 152.121666 248.435517 
L 154.641072 248.032014 
L 171.687073 317.140145 
L 176.35703 316.087494 
L 166.006124 260.504216 
L 168.898131 259.658188 
L 177.802894 276.256409 
L 181.184352 275.031677 
L 186.902617 279.408032 
L 190.37867 277.895626 
L 185.271144 258.943056 
L 188.10454 257.492066 
L 217.40563 302.212897 
L 221.583636 299.730135 
L 225.255862 296.472275 
L 229.24949 293.745522 
L 230.828673 287.809896 
L 234.54718 284.912205 
L 208.483769 247.297765 
L 210.939534 245.122677 
L 211.708489 241.210426 
L 213.971261 238.936955 
L 220.171055 240.224345 
L 222.398638 237.68528 
L 240.256377 247.600835 
L 242.705962 244.426596 
L 214.020261 219.482818 
L 215.598726 217.147403 
L 254.058927 237.278471 
L 256.17713 233.675353 
L 255.445424 228.568299 
L 257.289075 224.925894 
L 280.171916 230.70981 
L 282.070675 226.288891 
L 242.582762 206.355663 
L 243.734359 203.128671 
L 285.442007 212.248572 
L 286.757699 207.671077 
L 260.859488 196.63893 
L 261.696533 192.842081 
L 255.559022 187.845425 
L 256.122201 184.219582 
L 243.509273 179.175895 
L 243.80582 175.933209 
L 291.092667 174.757449 
L 291.226762 170.020822 
L 230.175049 166.434126 
L 230.07756 163.616997 
L 268.400234 157.648699 
L 268.007612 153.634031 
L 226.196008 155.649062 
L 225.76138 152.962376 
L 249.439952 145.195055 
L 248.665135 141.782697 
L 264.910747 133.648007 
L 263.765216 129.754922 
L 253.005006 129.186804 
L 251.725091 125.670267 
L 252.473889 121.300979 
L 250.946289 117.805042 
L 236.840438 120.523178 
L 235.296112 117.519175 
L 211.553625 127.280938 
L 210.23428 125.068666 
L 242.993356 100.285765 
L 240.809679 97.098307 
L 229.283892 100.975829 
L 227.128691 98.219085 
L 243.629322 79.399487 
L 240.788621 76.202359 
L 206.890529 103.332711 
L 204.820505 101.278898 
L 240.486056 57.41705 
L 236.955733 54.329622 
L 196.795461 97.336951 
L 194.541909 95.603514 
L 210.346312 67.94583 
L 207.161939 65.800856 
L 183.459948 97.445573 
L 181.216405 96.13138 
L 209.422446 36.709449 
L 205.256389 34.608967 
L 182.757868 73.568235 
L 179.763916 72.287922 
L 193.471101 26.211138 
L 188.982841 24.617392 
L 179.519665 39.436556 
L 175.454139 38.274935 
L 168.167611 50.781407 
L 164.464405 49.97111 
L 158.020183 65.276384 
L 154.777748 64.777978 
L 155.584159 25.958206 
L 151.106679 25.555834 
L 146.913931 18.345911 
L 142.20139 18.219913 
L 137.42404 15.151775 
L 132.61576 15.325739 
L 131.803384 63.395367 
L 128.514768 63.722205 
L 124.337271 58.036217 
L 120.883843 58.600455 
L 116.487301 54.737482 
L 112.934034 55.550171 
L 108.992834 54.985499 
L 105.451072 56.033708 
L 91.276195 26.540324 
L 86.848814 28.159647 
L 101.334541 74.799358 
L 98.419557 76.078564 
L 79.399351 44.915969 
L 75.555612 46.899641 
L 71.003389 47.664736 
L 67.250229 49.911036 
L 85.808747 85.742343 
L 83.24551 87.504304 
L 56.440137 57.341857 
L 52.998448 60.041273 
L 81.966194 100.279681 
L 79.861943 102.155272 
L 33.471488 58.834018 
L 30.088071 62.254881 
L 46.344567 83.35482 
L 43.725773 86.358801 
L 42.414295 90.403171 
L 40.01906 93.527244 
L 65.651868 116.117758 
L 64.053666 118.498477 
L 66.498243 123.328122 
L 65.126332 125.678664 
L 66.569091 129.501687 
L 65.391257 131.846949 
L 41.691113 124.184441 
L 40.358392 127.31455 
L 56.512171 136.937649 
L 55.573111 139.595446 
L 47.318661 140.05353 
L 46.482118 142.99885 
L 14.886816 138.759406 
L 14.025618 142.725095 
L 34.62685 150.305514 
L 34.118926 153.644824 
L 33.716249 156.998453 
L 33.419216 160.363085 
L 20.102256 163.198487 
L 20.006897 166.988108 
L 43.980353 170.251561 
L 44.094952 173.286914 
L 27.365558 177.758917 
L 27.72442 181.312964 
L 30.487841 184.51257 
L 31.057509 187.965107 
L 48.360105 187.842482 
L 49.025636 190.731429 
L 16.301044 202.993667 
L 17.458812 206.88313 
L 22.385399 209.458552 
L 23.743429 213.153513 
L 40.879663 210.193278 
L 42.25165 213.306376 
L 18.821561 228.781788 
L 20.788918 232.57925 
L 35.578435 228.951815 
L 37.542852 232.22232 
L 37.680298 236.715508 
L 39.887784 239.916087 
L 58.792482 230.402876 
L 60.791047 232.942763 
L 31.32806 262.740595 
L 34.356973 266.128035 
L 72.211807 235.293054 
L 74.357495 237.40859 
L 47.673208 271.669269 
L 50.974777 274.538367 
L 65.377637 263.351862 
L 68.408934 265.668407 
L 54.801297 292.034981 
L 58.739684 294.669887 
L 62.360035 297.841475 
L 66.477253 300.235847 
L 76.015959 292.215841 
L 79.949543 294.183622 
L 98.016946 264.228068 
L 101.059655 265.517928 
L 110.566703 249.313934 
L 113.134274 250.216576 
L 113.069412 259.92154 
L 115.969272 260.740247 
L 111.383027 293.835963 
L 115.350064 294.690925 
L 119.21502 296.18298 
L 123.251981 296.790526 
L 126.75416 302.651902 
L 130.99079 303.019203 
L 135.206506 304.025272 
L 139.482138 304.126134 
L 143.41257 289.414241 
L 147.224742 289.264311 
L 150.629847 284.375386 
L 154.280019 284.001019 
L 152.626542 248.361158 
L 155.143361 247.941817 
L 172.623676 316.941372 
L 177.286919 315.85937 
L 166.586631 260.342293 
L 169.47326 259.478093 
L 178.48224 276.019979 
L 181.855928 274.774004 
L 187.601605 279.114308 
L 191.068077 277.58007 
L 185.841451 258.659998 
L 188.665665 257.191216 
L 218.247444 301.726876 
L 222.409753 299.217885 
L 226.061416 295.936993 
L 230.037815 293.185176 
L 231.579635 287.239736 
L 235.279844 284.318715 
L 208.980374 246.868943 
L 211.422411 244.678452 
L 212.166745 240.761442 
L 214.415173 238.473785 
L 220.622942 239.722156 
L 222.834511 237.169131 
L 240.75426 246.972175 
L 243.183833 243.782593 
L 214.341817 219.019725 
L 215.905563 216.674428 
L 254.491616 236.563205 
L 256.587116 232.946836 
L 255.823303 227.844486 
L 257.644009 224.190557 
L 280.562775 229.830438 
L 282.433692 225.397665 
L 242.821191 205.713187 
L 243.952469 202.479016 
L 285.716651 211.336419 
L 287.003527 206.75074 
L 261.036443 195.881696 
L 261.849591 192.079658 
L 255.680776 187.121702 
L 256.221138 183.492389 
L 243.576739 178.528129 
L 243.852885 175.283643 
L 291.131402 173.810498 
L 291.235703 169.073121 
L 230.16264 165.870477 
L 230.047434 163.054017 
L 268.331813 156.844809 
L 267.913949 152.83269 
L 226.115845 155.110652 
L 225.664328 152.426753 
L 249.29358 144.510661 
L 248.497316 141.103244 
L 264.691444 132.866539 
L 263.521451 128.980736 
L 252.75788 128.480304 
L 251.455874 124.971888 
L 252.177176 120.597976 
L 250.627619 117.111716 
L 236.539143 119.918516 
L 234.975954 116.924285 
L 211.295332 126.835182 
L 209.9621 124.631252 
L 242.564657 99.642805 
L 240.360976 96.469144 
L 228.859804 100.41908 
L 226.687307 97.675946 
L 243.069247 78.75294 
L 240.208494 75.573742 
L 206.481707 102.916757 
L 204.398807 100.876004 
L 239.787787 56.790707 
L 236.238115 53.725544 
L 196.349129 96.984608 
L 194.08472 95.265378 
L 209.714859 67.50884 
L 206.517058 65.383937 
L 183.014564 97.177101 
L 180.762799 95.877044 
L 208.594552 36.278888 
L 204.415367 34.20465 
L 182.162322 73.30465 
L 179.160377 72.043193 
L 192.577494 25.881109 
L 188.079299 24.315624 
L 178.709514 39.194013 
L 174.636763 38.057985 
L 167.429038 50.610038 
L 163.720809 49.823048 
L 157.372975 65.16855 
L 154.12747 64.690547 
L 154.689711 25.866471 
L 150.209788 25.492267 
L 145.971777 18.308856 
L 141.258537 18.2125 
L 136.461984 15.174469 
L 131.654894 15.378672 
L 131.144865 63.452459 
L 127.858369 63.799973 
L 123.645193 58.140372 
L 120.195382 58.726319 
L 115.774631 54.891074 
L 112.226546 55.726095 
L 108.281872 55.186222 
L 104.746773 56.256686 
L 90.38668 26.853037 
L 85.969571 28.500174 
L 100.748349 75.047856 
L 97.841468 76.34537 
L 78.625643 45.303017 
L 74.794456 47.310825 
L 70.247136 48.104536 
L 66.508178 50.374397 
L 85.291687 86.088273 
L 82.739582 87.86632 
L 55.745035 57.873061 
L 52.320392 60.59407 
L 81.540642 100.649491 
L 79.448229 102.538279 
L 32.786225 59.509651 
L 29.424391 62.951726 
L 45.813272 83.949004 
L 43.213423 86.969396 
L 41.927407 91.021935 
L 39.551868 94.161011 
L 65.326251 116.589862 
L 63.743054 118.980585 
L 66.217958 123.794761 
L 64.860858 126.153885 
L 66.327634 129.967758 
L 65.164573 132.320381 
L 41.416704 124.807085 
L 40.103697 127.945514 
L 56.31768 137.466825 
L 55.395355 140.130476 
L 47.143949 140.640466 
L 46.325946 143.59099 
L 14.704606 139.550346 
L 13.868367 143.521372 
L 34.516868 150.972072 
L 34.029957 154.31451 
L 33.64838 157.670606 
L 33.372514 161.037039 
L 20.07365 163.956142 
L 20.002128 167.746287 
L 43.995635 170.858896 
L 44.129323 173.893468 
L 27.428386 178.470601 
L 27.809594 182.02232 
L 30.593084 185.204484 
L 31.184455 188.653369 
L 48.485938 188.421923 
L 49.169626 191.306627 
L 16.522803 203.774442 
L 17.705011 207.656546 
L 22.647698 210.200931 
L 24.028941 213.887278 
L 41.146218 210.819325 
L 42.537757 213.923732 
L 19.205463 229.5462 
L 21.196665 233.331213 
L 35.963075 229.610833 
L 37.948023 232.868918 
L 38.113726 237.361152 
L 40.341298 240.547784 
L 59.18579 230.915862 
L 61.200289 233.443128 
L 31.925297 263.425676 
L 34.975454 266.793999 
L 72.635605 235.721543 
L 74.794556 237.823542 
L 48.326278 272.251372 
L 51.645826 275.099648 
L 65.978044 263.822779 
L 69.023851 266.120212 
L 55.582314 292.571849 
L 59.537195 295.181933 
L 63.177422 298.330689 
L 67.309618 300.699118 
L 76.797694 292.619278 
L 80.743576 294.56228 
L 98.622218 264.493684 
L 101.67298 265.764382 
L 111.077926 249.500915 
L 113.651124 250.38739 
L 113.647301 260.092571 
L 116.552253 260.893023 
L 112.174252 294.016929 
L 116.146588 294.846924 
L 120.020852 296.314641 
L 124.061554 296.896785 
L 127.600528 302.736018 
L 131.839385 303.076666 
L 136.061345 304.056201 
L 140.337527 304.130169 
L 144.175351 289.393847 
L 147.986506 289.219943 
L 151.360795 284.309698 
L 155.008539 283.912382 
L 153.130941 248.283625 
L 155.645072 247.848463 
L 173.55901 316.736712 
L 178.215356 315.625402 
L 167.166108 260.176722 
L 170.047244 259.294384 
L 179.160086 275.779282 
L 182.525871 274.512112 
L 188.298732 278.816193 
L 191.755486 277.260183 
L 186.409967 258.373359 
L 189.224887 256.886843 
L 219.086185 301.235569 
L 223.232631 298.700449 
L 226.863588 295.396655 
L 230.8226 292.619884 
L 232.326996 286.664864 
L 236.008761 283.720628 
L 209.474273 246.437006 
L 211.902485 244.2312 
L 212.622168 240.309586 
L 214.856164 238.007832 
L 221.071661 239.217135 
L 223.26713 236.650251 
L 241.24818 246.340396 
L 243.657644 243.135596 
L 214.660454 218.554618 
L 216.209418 216.199533 
L 254.919797 235.845231 
L 256.992511 232.215755 
L 256.196622 227.118309 
L 257.994311 223.453002 
L 280.948096 228.948626 
L 282.791095 224.504173 
L 243.055574 205.069225 
L 244.166488 201.828002 
L 285.985553 210.422557 
L 287.243562 205.828875 
L 261.208631 195.123364 
L 261.997851 191.316287 
L 255.797975 186.397228 
L 256.3155 182.764588 
L 243.640128 177.879952 
L 243.895863 174.633793 
L 291.16418 172.863323 
L 230.191006 168.125384 
z
" clip-path="url(#p73a2e33a57)" style="fill: #0000ff; opacity: 0.5; stroke: #000000; stroke-width: 1.5; stroke-linejoin: miter"/>
   </g>
  </g>
 </g>
 <defs>
  <clipPath id="p73a2e33a57">
   <rect x="0" y="-0" width="305.10407" height="332.64"/>
  </clipPath>
 </defs>
</svg>
