<?xml version="1.0" encoding="utf-8" standalone="no"?>
<!DOCTYPE svg PUBLIC "-//W3C//DTD SVG 1.1//EN"
  "http://www.w3.org/Graphics/SVG/1.1/DTD/svg11.dtd">
<svg xmlns:xlink="http://www.w3.org/1999/xlink" width="318.694259pt" height="332.64pt" viewBox="0 0 318.694259 332.64" xmlns="http://www.w3.org/2000/svg" version="1.1">
 <metadata>
  <rdf:RDF xmlns:dc="http://purl.org/dc/elements/1.1/" xmlns:cc="http://creativecommons.org/ns#" xmlns:rdf="http://www.w3.org/1999/02/22-rdf-syntax-ns#">
   <cc:Work>
    <dc:type rdf:resource="http://purl.org/dc/dcmitype/StillImage"/>
    <dc:date>2023-12-09T18:06:22.064072</dc:date>
    <dc:format>image/svg+xml</dc:format>
    <dc:creator>
     <cc:Agent>
      <dc:title>Matplotlib v3.8.2, https://matplotlib.org/</dc:title>
     </cc:Agent>
    </dc:creator>
   </cc:Work>
  </rdf:RDF>
 </metadata>
 <defs>
  <style type="text/css">*{stroke-linejoin: round; stroke-linecap: butt}</style>
 </defs>
 <g id="figure_1">
  <g id="patch_1">
   <path d="M -0 332.64 
L 318.694259 332.64 
L 318.694259 0 
L -0 0 
L -0 332.64 
z
" style="fill: none"/>
  </g>
  <g id="axes_1">
   <g id="patch_2">
    <path d="M 234.021133 166.737257 
L 233.9808 164.172341 
L 304.208156 157.179577 
L 303.832606 152.412552 
L 232.59086 156.602301 
L 232.232568 154.087366 
L 255.13358 147.128377 
L 254.466262 143.909333 
L 278.244136 134.40392 
L 277.165306 130.464522 
L 261.653175 131.215559 
L 260.4823 127.799393 
L 284.237759 114.49947 
L 282.530127 110.381461 
L 276.395032 108.344366 
L 274.497747 104.475992 
L 245.420021 115.563144 
L 243.765026 112.665123 
L 272.769091 90.282008 
L 270.305679 86.536572 
L 229.298979 110.826048 
L 227.50301 108.43725 
L 264.056164 74.274747 
L 261.093757 70.811179 
L 218.215657 104.881487 
L 216.238257 102.844112 
L 230.990062 82.958625 
L 228.317044 80.530434 
L 222.0389 82.462306 
L 219.354701 80.315805 
L 245.429327 38.501756 
L 241.351348 35.641544 
L 220.661163 59.007094 
L 217.240163 56.915508 
L 219.467164 44.515931 
L 215.59112 42.469052 
L 218.380718 26.205035 
L 213.929477 24.20137 
L 205.929359 31.179383 
L 201.640679 29.564757 
L 198.034729 25.825153 
L 193.581604 24.461398 
L 188.695904 24.773082 
L 184.214316 23.703481 
L 173.513506 55.45857 
L 170.004244 54.851165 
L 168.243899 40.208305 
L 164.257741 39.774128 
L 160.405512 37.093976 
L 156.325307 36.907795 
L 152.281116 62.193852 
L 148.994124 62.25071 
L 144.945208 50.555621 
L 141.295912 50.84889 
L 133.030148 15.12 
L 128.272568 15.805425 
L 123.988218 18.973216 
L 119.356263 19.941034 
L 128.443893 73.960033 
L 125.538641 74.760567 
L 110.84426 39.51908 
L 106.864811 40.890015 
L 94.140778 20.311098 
L 89.565646 22.216724 
L 90.132553 35.004354 
L 86.021391 37.028742 
L 98.444348 68.990644 
L 95.39768 70.736887 
L 80.059168 53.211985 
L 76.525475 55.5441 
L 70.265256 54.147895 
L 66.765832 56.787489 
L 58.288953 53.444816 
L 54.773344 56.461319 
L 86.681881 97.031897 
L 84.522707 99.134114 
L 62.178485 82.375967 
L 59.570612 85.25587 
L 52.162737 84.189634 
L 49.616841 87.383557 
L 55.517429 96.686785 
L 53.362812 99.769051 
L 75.418861 118.132836 
L 73.928715 120.578754 
L 71.821174 122.690603 
L 70.476114 125.247386 
L 67.777051 127.174644 
L 66.574978 129.856366 
L 63.246268 131.706015 
L 62.188911 134.527955 
L 16.739345 123.0679 
L 15.433382 127.35639 
L 58.788406 142.978818 
L 58.087695 145.935349 
L 39.577014 145.552035 
L 38.966709 149.111342 
L 64.408184 155.885478 
L 64.110509 158.658929 
L 29.905108 159.406742 
L 29.735208 163.263305 
L 49.486465 167.061038 
L 49.547551 170.298135 
L 61.564439 172.747736 
L 61.798356 175.602264 
L 39.344657 181.401175 
L 39.861643 184.950063 
L 33.492737 189.839922 
L 34.277949 193.568634 
L 58.173244 191.283843 
L 58.991653 194.235832 
L 74.950121 192.21374 
L 75.789473 194.637768 
L 64.203707 202.034674 
L 65.357164 204.791737 
L 76.612428 202.754214 
L 77.782374 205.120764 
L 62.402903 216.667192 
L 64.017329 219.473642 
L 51.042439 231.618674 
L 53.13259 234.774929 
L 53.404014 239.26772 
L 55.7335 242.34594 
L 61.808434 242.306344 
L 64.229305 245.118808 
L 62.710855 251.664607 
L 65.425525 254.444071 
L 80.103318 244.38815 
L 82.5806 246.624354 
L 66.539017 271.435585 
L 69.873436 274.084908 
L 93.657131 248.352078 
L 96.252346 250.16016 
L 101.011096 248.533446 
L 103.608378 250.110214 
L 78.61475 302.38578 
L 82.91634 304.640112 
L 117.359983 242.133084 
L 119.74794 243.198972 
L 100.829967 298.774463 
L 105.007026 300.332086 
L 123.233459 258.007993 
L 126.117654 258.881357 
L 126.124874 271.183398 
L 129.421903 271.959335 
L 128.250393 296.768818 
L 132.350833 297.465274 
L 139.723407 271.301699 
L 143.017432 271.65001 
L 145.169518 291.66099 
L 149.100991 291.827997 
L 152.987205 281.575468 
L 156.597702 281.501656 
L 161.648797 302.649406 
L 165.917623 302.292835 
L 166.874963 276.673854 
L 170.324476 276.165805 
L 181.976194 317.52 
L 186.702533 316.516939 
L 177.140283 260.970797 
L 180.090982 260.147747 
L 198.423031 305.85586 
L 202.774492 304.341441 
L 192.606435 266.681595 
L 195.729047 265.369432 
L 219.263282 306.852005 
L 223.63576 304.681831 
L 204.05761 259.469354 
L 206.947792 257.800707 
L 211.495678 258.707825 
L 214.358238 256.805685 
L 213.408035 249.708554 
L 215.986693 247.750735 
L 216.469994 243.282789 
L 218.845097 241.231872 
L 251.146585 270.697385 
L 254.366518 267.542605 
L 219.183726 228.717103 
L 221.099511 226.588062 
L 256.052652 251.476179 
L 258.665803 248.176646 
L 266.964188 248.953586 
L 269.492629 245.312218 
L 252.44277 229.397527 
L 254.363505 226.222413 
L 265.930648 228.273825 
L 267.809382 224.675178 
L 277.478418 224.68244 
L 279.238522 220.722481 
L 246.921082 203.498182 
L 248.030215 200.509487 
L 233.951183 192.682687 
L 234.726665 190.107141 
L 243.10368 189.431748 
L 243.772421 186.570036 
L 265.380044 187.567434 
L 265.979152 184.006225 
L 271.97043 181.088869 
L 272.362579 177.323648 
L 275.79906 173.727187 
L 275.957849 169.845224 
L 234.01952 166.224193 
L 233.963056 163.659581 
L 304.145042 156.225265 
L 303.739518 151.460697 
L 232.525531 156.098433 
L 232.15143 153.585801 
L 255.00822 146.482915 
L 254.320669 143.268132 
L 278.038289 133.613357 
L 276.934704 129.680822 
L 261.427604 130.529407 
L 260.235266 127.120673 
L 283.906606 113.671605 
L 282.173108 109.564417 
L 276.025322 107.565948 
L 274.103745 103.709584 
L 245.096326 114.979399 
L 243.423136 112.091844 
L 272.285851 89.526753 
L 269.798931 85.796885 
L 228.94581 110.343789 
L 227.134851 107.966334 
L 263.47242 73.574607 
L 260.488287 70.12974 
L 217.825318 104.469053 
L 215.835144 102.444156 
L 230.461589 82.466281 
L 227.773351 80.05495 
L 221.507481 82.02627 
L 218.809836 79.896693 
L 244.62096 37.919477 
L 240.525072 35.08497 
L 219.982252 58.580186 
L 216.548164 56.510159 
L 218.697135 44.09682 
L 214.808295 42.07436 
L 217.495546 25.793119 
L 213.031791 23.81749 
L 205.075719 30.845681 
L 200.776968 29.25806 
L 197.14757 25.541209 
L 192.685955 24.20549 
L 187.802312 24.547895 
L 183.314086 23.506502 
L 172.81321 55.328265 
L 169.300196 54.742944 
L 167.447792 40.111445 
L 163.458981 39.702347 
L 159.589971 37.046476 
L 155.508677 36.885961 
L 151.6236 62.196954 
L 148.337031 62.274484 
L 144.21464 50.605091 
L 140.56726 50.921307 
L 132.076945 15.24511 
L 127.323771 15.960444 
L 123.059429 19.155119 
L 118.433652 20.15205 
L 127.860852 74.112824 
L 124.960692 74.931615 
L 110.044953 39.783245 
L 106.074204 41.17918 
L 93.220993 20.680698 
L 88.657937 22.615061 
L 89.30526 35.398873 
L 85.206912 37.449078 
L 97.830646 69.332214 
L 94.795021 71.097584 
L 79.346591 53.669499 
L 75.827635 56.023793 
L 69.558758 54.666989 
L 66.076005 57.32854 
L 57.57827 54.039248 
L 54.081703 57.077803 
L 86.244775 97.446892 
L 84.098865 99.562647 
L 61.649686 82.945364 
L 59.059977 85.841612 
L 51.645542 84.821988 
L 49.119785 88.031861 
L 55.078768 97.297794 
L 52.94358 100.39355 
L 75.11469 118.618251 
L 73.639957 121.073493 
L 71.545741 123.198555 
L 70.216787 125.763747 
L 67.529899 127.707943 
L 66.344717 130.397173 
L 63.027705 132.267721 
L 61.988118 135.096255 
L 16.467373 123.922278 
L 15.188408 128.218897 
L 58.640831 143.568338 
L 57.958729 146.529217 
L 39.446003 146.262333 
L 38.858097 149.825408 
L 64.341674 156.439397 
L 64.061448 159.214666 
L 29.861427 160.177597 
L 29.715786 164.035152 
L 49.490538 167.708585 
L 49.571982 170.945234 
L 61.604039 173.319207 
L 61.855905 176.172207 
L 39.439122 182.112226 
L 39.978418 185.657792 
L 33.640393 190.58761 
L 34.449041 194.311311 
L 58.329493 191.876276 
L 59.166452 194.82306 
L 75.111886 192.700638 
L 75.966468 195.119339 
L 64.427453 202.588967 
L 65.598228 205.338721 
L 76.840454 203.230448 
L 78.025261 205.589593 
L 62.718715 217.232521 
L 64.35076 220.028762 
L 51.452512 232.255159 
L 53.562472 235.398205 
L 53.862149 239.889201 
L 56.210949 242.952709 
L 62.285514 242.874905 
L 64.724026 245.672088 
L 63.246775 252.227308 
L 65.978872 254.989642 
L 80.593129 244.841606 
L 83.084427 247.062185 
L 67.199209 271.973818 
L 70.550225 274.602116 
L 94.171604 248.720209 
L 96.77814 250.511933 
L 101.526565 248.855322 
L 104.133712 250.415723 
L 79.469362 302.847451 
L 83.785046 305.074684 
L 117.834874 242.352261 
L 120.229488 243.403109 
L 101.661427 299.096484 
L 105.8482 300.627805 
L 123.808078 258.189915 
L 126.697709 259.045122 
L 126.782302 271.346874 
L 130.084146 272.10206 
L 129.068696 296.91842 
L 133.173435 297.589072 
L 140.38131 271.379646 
L 143.67746 271.707232 
L 145.955361 291.704281 
L 149.887807 291.846558 
L 153.709461 281.56979 
L 157.319423 281.473271 
L 162.503426 302.588834 
L 166.769924 302.205422 
L 167.566116 276.580927 
L 171.012366 276.051192 
L 182.923948 317.331286 
L 187.643884 316.298519 
L 177.73247 260.813617 
L 180.677934 259.972025 
L 199.297098 305.563935 
L 203.638949 304.022179 
L 193.234234 266.427029 
L 196.348532 265.095252 
L 220.143203 306.428988 
L 224.501946 304.231357 
L 204.639822 259.142909 
L 207.519451 257.456117 
L 212.072953 258.334613 
L 214.923493 256.414507 
L 213.928672 249.323493 
L 216.494965 247.349495 
L 216.950155 242.878597 
L 219.312313 240.812783 
L 251.798483 270.074555 
L 254.998511 266.899586 
L 219.572224 228.296131 
L 221.474581 226.155083 
L 256.583563 250.822873 
L 259.17591 247.50697 
L 267.479018 248.231703 
L 269.984506 244.574503 
L 252.83489 228.767361 
L 254.735617 225.580229 
L 266.315433 227.558851 
L 268.171497 223.948459 
L 277.840388 223.894908 
L 279.575551 219.923957 
L 247.150419 202.903257 
L 248.240733 199.907645 
L 234.112753 192.169549 
L 234.872021 189.589177 
L 243.244623 188.861111 
L 243.895351 185.995249 
L 265.50882 186.856727 
L 266.085518 183.291821 
L 272.058329 180.336841 
L 272.42679 176.569228 
L 275.840583 172.951224 
L 275.974954 169.06834 
L 234.01468 165.711149 
L 233.942086 163.146942 
L 304.075927 155.271369 
L 303.640444 150.509445 
L 232.457035 155.594985 
L 232.067138 153.084756 
L 254.878803 145.838254 
L 254.171047 142.627859 
L 277.827474 132.824105 
L 276.699178 128.898588 
L 261.197722 129.844688 
L 259.983968 126.44352 
L 283.570253 112.845839 
L 281.810957 108.749634 
L 275.650724 106.789872 
L 273.70493 102.945669 
L 244.768966 114.397701 
L 243.077648 111.520727 
L 271.797871 88.774552 
L 269.287541 85.060399 
L 228.589614 109.863761 
L 226.763738 107.497743 
L 262.884283 72.878154 
L 259.878543 69.452123 
L 217.432394 104.059083 
L 215.429523 102.046742 
L 229.930029 81.977271 
L 227.226679 79.582895 
L 220.973331 81.593584 
L 218.262346 79.481016 
L 243.808946 37.342294 
L 239.695312 34.533603 
L 219.300669 58.157558 
L 215.853631 56.109169 
L 217.924486 43.68256 
L 214.023002 41.684599 
L 216.607801 25.386779 
L 212.131708 23.439263 
L 204.219997 30.517355 
L 199.911346 28.956802 
L 196.258643 25.262851 
L 191.788715 23.955219 
L 186.907323 24.328333 
L 182.412635 23.315189 
L 172.112107 55.202367 
L 168.595482 54.639152 
L 166.65109 40.019593 
L 162.659786 39.635591 
L 158.774149 37.004107 
L 154.691925 36.869264 
L 150.966117 62.204191 
L 147.6801 62.30239 
L 143.484397 50.659156 
L 139.839078 50.998305 
L 131.124548 15.376213 
L 126.375967 16.121428 
L 122.131802 19.34286 
L 117.512387 20.368864 
L 127.278783 74.26928 
L 124.38383 75.106295 
L 109.247322 40.052431 
L 105.285432 41.473313 
L 92.303552 21.056076 
L 87.752752 23.019099 
L 88.480465 35.798587 
L 84.395092 37.874527 
L 97.219103 69.677637 
L 94.194642 71.462065 
L 78.636904 54.131486 
L 75.132825 56.507865 
L 68.855539 55.190516 
L 65.389595 57.873919 
L 56.87134 54.638138 
L 53.393953 57.698624 
L 85.810287 97.864627 
L 83.677727 99.993837 
L 61.124478 83.518076 
L 58.553036 86.430554 
L 51.132335 85.457583 
L 48.626816 88.683278 
L 54.643959 97.911549 
L 52.528284 101.020672 
L 74.813578 119.10557 
L 73.354317 121.570038 
L 71.273507 123.70823 
L 69.960714 126.28173 
L 67.286107 128.242786 
L 66.117861 130.939416 
L 62.81268 132.83079 
L 61.790904 135.665806 
L 16.200781 124.77835 
L 14.948864 129.082928 
L 58.496967 144.158774 
L 57.833501 147.123885 
L 39.319463 146.973441 
L 38.753978 150.540143 
L 64.278649 156.993724 
L 64.015883 159.770701 
L 29.822595 160.948711 
L 29.701219 164.807106 
L 49.498683 168.356094 
L 49.600483 171.592167 
L 61.647233 173.890418 
L 61.917037 176.741778 
L 39.538057 182.822668 
L 40.099642 186.364772 
L 33.792748 191.334355 
L 34.6248 195.052896 
L 58.489465 192.467715 
L 59.344941 195.409177 
L 75.276711 193.186509 
L 76.146488 195.599788 
L 64.654681 203.141841 
L 65.842727 205.884178 
L 77.071471 203.705239 
L 78.271092 206.056886 
L 63.038076 217.795853 
L 64.687676 220.581774 
L 51.86658 232.889051 
L 53.996267 236.018766 
L 54.324183 240.507787 
L 56.692204 243.556462 
L 62.76616 243.440454 
L 65.222216 246.222245 
L 63.786223 252.786626 
L 66.53564 255.531723 
L 81.085782 245.291972 
L 83.590997 247.496838 
L 67.862774 272.507887 
L 71.230254 275.115057 
L 94.688383 249.085097 
L 97.306136 250.860392 
L 102.044048 249.173949 
L 104.660958 250.717922 
L 80.326862 303.303737 
L 84.656468 305.503783 
L 118.311134 242.568447 
L 120.71231 243.604213 
L 102.494896 299.413269 
L 106.691217 300.918227 
L 124.38383 258.36822 
L 127.278783 259.205235 
L 127.440745 271.506212 
L 130.747273 272.240616 
L 129.887924 297.062872 
L 133.9968 297.707694 
L 141.03969 271.453453 
L 144.337836 271.760302 
L 146.741462 291.742629 
L 150.674725 291.86017 
L 154.431668 281.559569 
L 158.040951 281.440348 
L 163.357656 302.522888 
L 167.621659 302.11265 
L 168.256671 276.483654 
L 171.699521 275.932254 
L 183.870496 317.136616 
L 188.583844 316.074183 
L 178.323657 260.652716 
L 181.26377 259.792615 
L 200.169313 305.26652 
L 204.50138 303.697486 
L 193.860419 266.168519 
L 196.966279 264.817181 
L 221.020446 306.000445 
L 225.36528 303.775443 
L 205.219968 258.812809 
L 208.088932 257.107939 
L 212.647869 257.957779 
L 215.486277 256.019782 
L 214.446876 248.935166 
L 217.000703 246.945065 
L 217.427765 242.471393 
L 219.776883 240.390763 
L 252.446451 269.447637 
L 255.626447 266.252605 
L 219.958067 227.872724 
L 221.84692 225.719754 
L 257.110354 250.16624 
L 259.681794 246.834098 
L 267.989296 247.506595 
L 270.471733 243.83371 
L 253.223038 228.134742 
L 255.103682 224.935719 
L 266.695715 226.841471 
L 268.529034 223.219476 
L 278.197397 223.105114 
L 279.90755 219.123329 
L 247.37601 202.306901 
L 248.447461 199.304491 
L 234.271092 191.655405 
L 235.014116 189.070309 
L 243.381973 188.289598 
L 244.014664 185.4197 
L 265.633124 186.145225 
L 266.18739 182.576762 
L 272.141497 179.584275 
L 272.486254 175.814419 
L 275.877225 172.175016 
L 275.987172 168.291364 
L 234.006613 165.198145 
L 233.917894 162.634446 
L 304.000814 154.317926 
L 303.53539 149.558835 
L 232.385374 155.091978 
L 231.979697 152.584251 
L 254.745334 145.19442 
L 254.0174 141.98854 
L 277.6117 132.036194 
L 276.458737 128.117852 
L 260.963537 129.161428 
L 259.728417 125.767961 
L 283.228713 112.022204 
L 281.443689 107.937146 
L 275.271252 106.016166 
L 273.301319 102.184278 
L 244.437954 113.818074 
L 242.728575 110.951795 
L 271.305169 88.025435 
L 268.771529 84.327144 
L 228.230405 109.385982 
L 226.389686 107.031495 
L 262.291778 72.185413 
L 259.26455 68.778354 
L 217.036898 103.651592 
L 215.021411 101.651888 
L 229.395404 81.491613 
L 226.677048 79.114287 
L 220.43647 81.164267 
L 217.712252 79.068792 
L 242.993318 36.770229 
L 238.8621 33.987466 
L 218.616442 57.739224 
L 215.156589 55.712556 
L 217.149247 43.273168 
L 213.235274 41.299785 
L 215.717517 24.98603 
L 211.229265 23.066705 
L 203.362227 30.194417 
L 199.043846 28.660994 
L 195.367983 24.99009 
L 190.889919 23.710596 
L 186.01097 24.114405 
L 181.509999 23.129549 
L 171.410227 55.080882 
L 167.890129 54.539795 
L 165.853827 39.932755 
L 161.860186 39.573863 
L 157.958075 36.966869 
L 153.875084 36.857704 
L 150.308693 62.215563 
L 147.023358 62.334427 
L 142.754509 50.717812 
L 139.111395 51.079881 
L 130.172995 15.513304 
L 125.429194 16.288369 
L 121.205374 19.536431 
L 116.592504 20.591469 
L 126.697709 74.429393 
L 123.808078 75.284599 
L 108.451401 40.326629 
L 104.498526 41.772401 
L 91.388489 21.437216 
L 86.850126 23.428822 
L 87.6582 36.203481 
L 83.585965 38.305075 
L 96.609746 70.026899 
L 93.596567 71.830314 
L 77.930138 54.597928 
L 74.441074 56.996299 
L 68.155627 55.718456 
L 64.706628 58.423605 
L 56.168191 55.241463 
L 52.710121 58.323759 
L 85.378435 98.285087 
L 83.259309 100.427667 
L 60.602883 84.094079 
L 58.04981 87.022673 
L 50.623136 86.096393 
L 48.137954 89.337782 
L 54.213019 98.528026 
L 52.11694 101.650395 
L 74.515537 119.594773 
L 73.071805 122.06837 
L 71.004484 124.219607 
L 69.707903 126.801313 
L 67.045682 128.779152 
L 65.894421 131.483076 
L 62.601201 133.3952 
L 61.597275 136.236587 
L 15.939578 125.636082 
L 14.714759 129.948449 
L 58.356819 144.750104 
L 57.712015 147.719329 
L 39.197397 147.68533 
L 38.654356 151.255519 
L 64.219112 157.548436 
L 63.973816 160.32701 
L 29.788614 161.720054 
L 29.691507 165.579136 
L 49.510901 169.003539 
L 49.633051 172.238908 
L 61.694018 174.461347 
L 61.98175 177.310953 
L 39.641458 183.532473 
L 40.22531 187.070975 
L 33.949796 192.080127 
L 34.805219 195.793362 
L 58.653153 193.058137 
L 59.527113 195.99416 
L 75.444588 193.671334 
L 76.329526 196.079094 
L 64.885382 203.693276 
L 66.090652 206.428086 
L 77.305469 204.178568 
L 78.519857 206.522623 
L 63.360974 218.357165 
L 65.028063 221.132656 
L 52.284627 233.520327 
L 54.433955 236.636585 
L 54.790099 241.123456 
L 57.177247 244.157177 
L 63.250353 244.00297 
L 65.723857 246.769258 
L 64.329179 253.342541 
L 67.095806 256.070291 
L 81.581258 245.73923 
L 84.100291 247.928296 
L 68.529684 273.037773 
L 71.913495 275.623712 
L 95.207447 249.446728 
L 97.836314 251.205524 
L 102.563525 249.489315 
L 105.190094 251.016798 
L 81.187214 303.754622 
L 85.530572 305.927393 
L 118.788744 242.781632 
L 121.196387 243.802276 
L 103.330341 299.724806 
L 107.536045 301.203342 
L 124.960692 258.542899 
L 127.860852 259.36169 
L 128.100177 271.661406 
L 131.411259 272.374999 
L 130.708045 297.202168 
L 134.820895 297.821136 
L 141.698521 271.523118 
L 144.998531 271.809217 
L 147.527787 291.776032 
L 151.461712 291.868833 
L 155.153796 281.544806 
L 158.762258 281.402887 
L 164.211455 302.451571 
L 168.472793 302.014523 
L 168.946601 276.38204 
L 172.385915 275.808998 
L 184.815801 316.935995 
L 189.522374 315.84394 
L 178.91382 260.488099 
L 181.848465 259.609524 
L 201.039639 304.963624 
L 205.361753 303.367375 
L 194.484966 265.906076 
L 197.582266 264.535231 
L 221.894976 305.566393 
L 226.225731 303.314108 
L 205.798028 258.479066 
L 208.656212 256.756186 
L 213.220404 257.577336 
L 216.046566 255.621526 
L 214.962628 248.543586 
L 217.503888 246.537463 
L 217.902805 242.061193 
L 220.238791 239.96583 
L 253.090463 268.816656 
L 256.250301 265.601687 
L 220.341239 227.446899 
L 222.216514 225.282092 
L 257.633005 249.506308 
L 260.183437 246.158059 
L 268.495004 246.778292 
L 270.954292 243.089867 
L 253.6072 227.499694 
L 255.467687 224.288906 
L 267.071476 226.121713 
L 268.881979 222.488259 
L 278.549431 222.313091 
L 280.234508 218.320629 
L 247.597845 201.709139 
L 248.650391 198.700049 
L 234.426195 191.140276 
L 235.152945 188.550557 
L 243.515727 187.717233 
L 244.130355 184.843412 
L 265.75295 185.432955 
L 266.284761 181.861077 
L 272.21993 178.831201 
L 272.54097 175.059251 
L 275.908984 171.398593 
L 275.994503 167.514326 
L 233.995319 164.685202 
L 233.890478 162.122112 
L 303.919706 153.364975 
L 303.424359 148.608905 
L 232.310551 154.589432 
L 231.889109 152.084306 
L 254.607818 144.551438 
L 253.859736 141.3502 
L 277.390974 131.249656 
L 276.21339 127.338642 
L 260.72506 128.479654 
L 259.468621 125.094023 
L 282.882 111.200734 
L 281.071318 107.126983 
L 274.886921 105.244863 
L 272.892927 101.42544 
L 244.103302 113.240541 
L 242.37593 110.385069 
L 270.807765 87.279432 
L 268.250915 83.597149 
L 227.868199 108.910473 
L 226.012708 106.567609 
L 261.694928 71.496412 
L 258.646332 68.10846 
L 216.638847 103.246596 
L 214.610823 101.259608 
L 228.857735 81.009328 
L 226.124481 78.649146 
L 219.89692 80.738335 
L 217.159576 78.660035 
L 242.174108 36.203305 
L 238.02547 33.44658 
L 217.929598 57.325202 
L 214.457066 55.320335 
L 216.371448 42.86866 
L 212.445141 40.919933 
L 214.824731 24.590888 
L 210.324496 22.69983 
L 202.502443 29.87688 
L 198.174503 28.370648 
L 194.475624 24.722935 
L 189.989602 23.471632 
L 185.113289 23.906118 
L 180.606213 22.94959 
L 170.707597 54.963813 
L 167.184165 54.444876 
L 165.056033 39.850932 
L 161.060214 39.517165 
L 157.141784 36.934765 
L 153.058187 36.851281 
L 149.651353 62.23107 
L 146.366831 62.370594 
L 142.025004 50.781057 
L 138.38424 51.166032 
L 129.222322 15.656376 
L 124.48349 16.461262 
L 120.280182 19.735825 
L 115.674039 20.819854 
L 126.117654 74.593158 
L 123.233459 75.466521 
L 107.65722 40.605827 
L 103.713516 42.076432 
L 90.475842 21.824103 
L 85.950094 23.844214 
L 86.838498 36.613538 
L 82.779561 38.740702 
L 96.002597 70.379987 
L 93.00082 72.202318 
L 77.226319 55.068805 
L 73.752408 57.489073 
L 67.459049 56.250787 
L 64.027132 58.977575 
L 55.468849 55.849198 
L 52.030234 58.953182 
L 84.949236 98.708255 
L 82.843627 100.864121 
L 60.084921 84.673352 
L 57.550317 87.617945 
L 50.117965 86.738393 
L 47.653219 89.995348 
L 53.785964 99.147202 
L 51.709565 102.282692 
L 74.220579 120.08584 
L 72.792433 122.568469 
L 70.738683 124.732666 
L 69.458365 127.322475 
L 66.808637 129.317019 
L 65.674404 132.028131 
L 62.393275 133.960929 
L 61.40724 136.808574 
L 15.683775 126.49544 
L 14.486103 130.815425 
L 58.220394 145.342303 
L 57.594277 148.315525 
L 39.079811 148.397974 
L 38.559235 151.971507 
L 64.163064 158.103512 
L 63.93525 160.883574 
L 29.759484 162.491596 
L 29.686651 166.351212 
L 49.52719 169.650895 
L 49.669687 172.885431 
L 61.744393 175.031969 
L 62.050042 177.879709 
L 39.749322 184.241614 
L 40.355417 187.776374 
L 34.111532 192.824897 
L 34.990292 196.532678 
L 58.820551 193.647517 
L 59.71296 196.577985 
L 75.615511 194.155093 
L 76.515575 196.55724 
L 65.119546 204.243248 
L 66.341993 206.970424 
L 77.54244 204.650416 
L 78.771547 206.986787 
L 63.687396 218.916436 
L 65.371908 221.681386 
L 52.706636 234.148962 
L 54.875521 237.25164 
L 55.259877 241.736181 
L 57.666059 244.754829 
L 63.738075 244.562428 
L 66.228928 247.313105 
L 64.87562 253.89503 
L 67.659348 256.605325 
L 82.079538 246.183364 
L 84.612288 248.356543 
L 69.199914 273.563453 
L 72.599922 276.128059 
L 95.728775 249.805087 
L 98.368652 251.547314 
L 103.084975 249.801408 
L 105.721099 251.312341 
L 82.050385 304.200086 
L 86.407323 306.345497 
L 119.267686 242.99181 
L 121.6817 243.997291 
L 104.167729 300.031082 
L 108.382648 301.483137 
L 125.538641 258.713947 
L 128.443893 259.514482 
L 128.760572 271.812449 
L 132.076076 272.505203 
L 131.529025 297.336304 
L 135.645687 297.929392 
L 142.357777 271.588638 
L 145.659522 271.853976 
L 148.314308 291.804488 
L 152.248738 291.872545 
L 155.875817 281.525501 
L 159.483315 281.36089 
L 165.064788 302.374886 
L 169.323293 301.911045 
L 169.635878 276.276089 
L 173.07152 275.681427 
L 185.759826 316.729434 
L 190.459437 315.607798 
L 179.502936 260.319774 
L 182.431997 259.422759 
L 201.908044 304.65526 
L 206.220032 303.031859 
L 195.107851 265.63971 
L 198.196467 264.249412 
L 222.766759 305.126849 
L 227.083262 302.847371 
L 206.373976 258.141694 
L 209.221268 256.400872 
L 213.790534 257.193299 
L 216.60434 255.219753 
L 215.475907 248.148771 
L 218.004499 246.126705 
L 218.375255 241.648014 
L 220.698016 239.538 
L 253.730494 268.181637 
L 256.870049 264.946858 
L 220.721726 227.018673 
L 222.583348 224.842114 
L 258.151495 248.843101 
L 260.680818 245.478877 
L 268.996122 246.046824 
L 271.432162 242.343004 
L 253.987361 226.862243 
L 255.827617 223.639816 
L 267.442704 225.399606 
L 269.230319 221.754837 
L 278.896478 221.51887 
L 280.556411 217.515888 
L 247.815916 201.109992 
L 248.849516 198.094343 
L 234.578054 190.624181 
L 235.288503 188.029943 
L 243.645877 187.144038 
L 244.242419 184.266408 
L 265.868294 184.719946 
L 266.37763 181.144793 
L 272.293625 178.077649 
L 272.590936 174.303754 
L 275.935859 170.621986 
L 234.021133 166.737257 
z
" clip-path="url(#pa6d85112b5)" style="fill: #0000ff; opacity: 0.5; stroke: #000000; stroke-width: 1.5; stroke-linejoin: miter"/>
   </g>
  </g>
 </g>
 <defs>
  <clipPath id="pa6d85112b5">
   <rect x="0" y="-0" width="318.694259" height="332.64"/>
  </clipPath>
 </defs>
</svg>
