<?xml version="1.0" encoding="utf-8" standalone="no"?>
<!DOCTYPE svg PUBLIC "-//W3C//DTD SVG 1.1//EN"
  "http://www.w3.org/Graphics/SVG/1.1/DTD/svg11.dtd">
<svg xmlns:xlink="http://www.w3.org/1999/xlink" width="319.114541pt" height="332.64pt" viewBox="0 0 319.114541 332.64" xmlns="http://www.w3.org/2000/svg" version="1.1">
 <metadata>
  <rdf:RDF xmlns:dc="http://purl.org/dc/elements/1.1/" xmlns:cc="http://creativecommons.org/ns#" xmlns:rdf="http://www.w3.org/1999/02/22-rdf-syntax-ns#">
   <cc:Work>
    <dc:type rdf:resource="http://purl.org/dc/dcmitype/StillImage"/>
    <dc:date>2023-12-09T18:06:22.189073</dc:date>
    <dc:format>image/svg+xml</dc:format>
    <dc:creator>
     <cc:Agent>
      <dc:title>Matplotlib v3.8.2, https://matplotlib.org/</dc:title>
     </cc:Agent>
    </dc:creator>
   </cc:Work>
  </rdf:RDF>
 </metadata>
 <defs>
  <style type="text/css">*{stroke-linejoin: round; stroke-linecap: butt}</style>
 </defs>
 <g id="figure_1">
  <g id="patch_1">
   <path d="M -0 332.64 
L 319.114541 332.64 
L 319.114541 0 
L -0 0 
L -0 332.64 
z
" style="fill: none"/>
  </g>
  <g id="axes_1">
   <g id="patch_2">
    <path d="M 301.78174 160.220869 
L 301.710064 155.662762 
L 266.323988 153.324164 
L 266.052995 149.884337 
L 287.128155 143.741697 
L 286.545583 139.65248 
L 247.285824 142.944736 
L 246.697893 140.108643 
L 300.321093 123.336002 
L 299.090398 118.842058 
L 270.299641 123.30766 
L 269.082899 119.757671 
L 282.646578 110.345255 
L 281.016164 106.41346 
L 251.730017 115.505689 
L 250.277144 112.543427 
L 278.201723 93.407797 
L 276.040956 89.624132 
L 280.522313 81.614868 
L 277.989603 77.76407 
L 265.622056 81.062519 
L 263.079346 77.680491 
L 275.234075 62.117114 
L 272.090928 58.44223 
L 228.576646 92.729181 
L 226.419078 90.506173 
L 231.314013 80.756217 
L 228.778636 78.453061 
L 227.702055 74.378037 
L 224.967919 72.191602 
L 209.942185 86.950812 
L 207.612146 85.316569 
L 200.090144 91.876517 
L 197.919851 90.549609 
L 199.944999 81.566626 
L 197.450612 80.249379 
L 214.307302 37.681297 
L 210.425964 35.934166 
L 195.909379 61.1312 
L 192.774453 59.950946 
L 188.124716 63.442071 
L 185.066298 62.505441 
L 180.989153 65.545572 
L 178.000402 64.83226 
L 176.4806 56.343798 
L 173.204754 55.776794 
L 166.836469 79.950508 
L 164.307638 79.675064 
L 165.354527 21.12148 
L 160.976715 20.921719 
L 156.675385 72.118983 
L 153.905337 72.166899 
L 149.022659 39.532085 
L 145.231792 39.836731 
L 139.417736 24.371619 
L 135.15494 24.98576 
L 134.700162 45.395507 
L 131.100734 46.147585 
L 135.951813 79.579265 
L 133.426579 80.275087 
L 122.460616 55.167168 
L 119.174482 56.299252 
L 99.036905 15.12 
L 94.503183 17.008378 
L 108.867261 58.859076 
L 105.70393 60.41674 
L 108.788029 73.289984 
L 106.078476 74.843004 
L 110.308748 87.285666 
L 108.038499 88.783951 
L 64.735218 34.070329 
L 60.814295 37.027858 
L 95.894694 86.920736 
L 93.620097 88.872411 
L 76.018361 74.582586 
L 73.365654 77.165317 
L 90.690888 98.423944 
L 88.78055 100.533551 
L 47.979835 70.634238 
L 45.216845 74.100514 
L 73.723219 100.170746 
L 71.876194 102.81299 
L 22.698686 75.593091 
L 20.104114 79.85181 
L 47.868339 100.701756 
L 46.050793 104.156672 
L 61.032042 115.465339 
L 59.672187 118.499059 
L 37.534493 113.376223 
L 36.12057 117.149791 
L 18.815081 115.813741 
L 17.487054 120.174683 
L 39.58693 130.483342 
L 38.709878 134.183919 
L 78.095834 145.445619 
L 77.670188 147.927993 
L 22.473938 143.661665 
L 22.019702 147.893795 
L 39.287713 153.190308 
L 39.124765 156.889066 
L 32.670808 160.611267 
L 32.744463 164.514406 
L 16.957178 169.470386 
L 17.317152 173.863215 
L 59.117582 172.887538 
L 59.564154 175.953062 
L 14.505206 187.859658 
L 15.444592 192.32049 
L 39.001197 190.896914 
L 40.023969 194.586037 
L 42.683962 197.74091 
L 43.920104 201.310855 
L 82.449892 189.967068 
L 83.421945 192.290528 
L 38.887748 216.229963 
L 40.707102 219.910128 
L 72.760433 206.829752 
L 74.267477 209.449533 
L 58.315298 223.243916 
L 60.345581 226.309768 
L 90.257108 208.96202 
L 91.822545 211.030613 
L 62.694158 238.693667 
L 65.20805 241.6142 
L 96.897947 216.926998 
L 98.710536 218.78285 
L 50.898706 273.908493 
L 54.525661 277.182489 
L 93.816705 236.998574 
L 96.261912 238.941383 
L 93.617673 247.955061 
L 96.407474 249.898711 
L 104.799525 242.939412 
L 107.426095 244.53396 
L 116.610608 234.086015 
L 118.952968 235.313574 
L 123.022345 232.836115 
L 125.322235 233.862693 
L 111.906516 275.098064 
L 115.54071 276.453252 
L 114.821123 291.424071 
L 118.967202 292.679546 
L 129.022195 270.504648 
L 132.5035 271.323953 
L 127.804028 316.128474 
L 132.720448 316.963523 
L 140.949629 290.611394 
L 145.057237 291.045733 
L 152.110366 240.977658 
L 154.651862 241.08562 
L 157.486405 302.784328 
L 161.96858 302.692696 
L 164.010667 266.500803 
L 167.348782 266.221974 
L 169.529952 257.103046 
L 172.569853 256.655325 
L 178.518968 271.046146 
L 181.992826 270.308897 
L 197.014755 313.624412 
L 201.818223 312.284563 
L 192.000066 266.686962 
L 195.330197 265.527993 
L 209.671583 291.762238 
L 213.781398 290.035239 
L 203.355328 257.816719 
L 206.400944 256.305101 
L 230.041463 291.789676 
L 234.142068 289.42219 
L 232.108058 277.491384 
L 235.758073 275.065989 
L 210.401961 233.155329 
L 212.668685 231.434343 
L 229.268277 246.844865 
L 231.956102 244.523912 
L 241.187129 249.089699 
L 243.939643 246.392881 
L 258.343531 254.511503 
L 261.258036 251.272569 
L 262.829315 246.929463 
L 265.503206 243.553235 
L 266.768383 239.160408 
L 269.19605 235.664169 
L 228.076404 204.875355 
L 229.445204 202.612627 
L 230.038104 199.926199 
L 231.250323 197.604238 
L 286.163469 220.166549 
L 287.984338 216.069877 
L 271.761577 204.947581 
L 273.11105 201.311261 
L 246.8706 188.888309 
L 247.727441 186.042556 
L 271.026021 188.811621 
L 271.868507 185.206406 
L 303.315242 187.242259 
L 304.092419 182.622576 
L 272.915347 174.161414 
L 273.296265 170.504038 
L 268.764131 166.564618 
L 268.908241 163.041521 
L 301.778873 159.309103 
L 301.67853 154.751538 
L 266.278445 152.635544 
L 265.985824 149.19749 
L 287.021933 142.922421 
L 286.413654 138.836948 
L 247.175377 142.376061 
L 246.56962 139.543721 
L 300.08627 122.434152 
L 298.827335 117.948038 
L 270.065234 122.594629 
L 268.826188 119.052363 
L 282.3304 109.554825 
L 280.67529 105.633363 
L 251.446906 114.909605 
L 249.975432 111.956539 
L 277.779106 92.645658 
L 275.594585 88.875658 
L 280.025479 80.838367 
L 277.4686 77.003574 
L 265.122042 80.379743 
L 262.558112 77.013774 
L 274.614716 61.374259 
L 271.448518 57.719216 
L 228.150742 92.279169 
L 225.979235 90.069775 
L 230.812752 80.289226 
L 228.262939 78.002061 
L 227.16075 73.933889 
L 224.412917 71.764693 
L 209.480307 86.618114 
L 207.140036 84.998559 
L 199.659441 91.605686 
L 197.480845 90.292454 
L 199.449455 81.296911 
L 196.946833 79.995379 
L 213.535461 37.32212 
L 209.64321 35.599435 
L 195.285388 60.887272 
L 192.1431 59.726758 
L 187.515413 63.247058 
L 184.451164 62.329682 
L 180.393221 65.395396 
L 177.400042 64.700895 
L 175.826883 56.22216 
L 172.547536 55.675771 
L 166.331416 79.889059 
L 163.800902 79.629526 
L 164.479502 21.070515 
L 160.10052 20.898292 
L 156.121277 72.121597 
L 153.351585 72.186934 
L 148.263749 39.583475 
L 144.474873 39.911957 
L 138.563666 24.483718 
L 134.304816 25.124658 
L 133.978413 45.536861 
L 130.383787 46.311562 
L 135.445035 79.712071 
L 132.924228 80.423761 
L 121.800567 55.385308 
L 118.521619 56.538038 
L 98.125446 15.486255 
L 93.60369 17.403109 
L 108.230701 59.162638 
L 105.07723 60.740167 
L 108.242232 73.593759 
L 105.542502 75.16379 
L 109.850947 87.5796 
L 107.590166 89.092134 
L 63.943624 34.651947 
L 60.041379 37.634077 
L 95.434882 87.305333 
L 93.172606 89.271276 
L 75.481343 75.092438 
L 72.844932 77.691802 
L 90.303528 98.841042 
L 88.406496 100.962622 
L 47.418538 71.320515 
L 44.677404 74.8041 
L 73.347182 100.694528 
L 71.516811 103.348336 
L 22.169078 76.438274 
L 19.601342 80.713227 
L 47.496152 101.388139 
L 45.700372 104.854418 
L 60.752449 116.068637 
L 59.411702 119.11085 
L 37.242226 114.127349 
L 35.852064 117.909735 
L 18.538515 116.682554 
L 17.237942 121.051762 
L 39.402217 131.221222 
L 38.548456 134.927241 
L 78.004462 145.941003 
L 77.594438 148.426005 
L 22.372447 144.506915 
L 21.944837 148.741818 
L 39.245819 153.929621 
L 39.106137 157.62933 
L 32.675719 161.392049 
L 32.773921 165.294647 
L 17.018118 170.349822 
L 17.405714 174.7403 
L 59.199181 173.501742 
L 59.665024 176.564397 
L 14.681853 188.754153 
L 15.649276 193.208988 
L 39.196462 191.637282 
L 40.242417 195.3199 
L 42.9222 198.457981 
L 44.180769 202.02008 
L 82.638449 190.434187 
L 83.625097 192.751488 
L 39.242345 216.970544 
L 41.08481 220.639194 
L 73.055239 207.357479 
L 74.57873 209.967729 
L 58.713626 223.86217 
L 60.763151 226.915192 
L 90.564979 209.37966 
L 92.143395 211.438367 
L 63.189569 239.284075 
L 65.72178 242.188739 
L 97.255782 217.302714 
L 99.080007 219.147129 
L 51.615831 274.572391 
L 55.263306 277.823511 
L 94.300839 237.393272 
L 96.758217 239.320664 
L 94.170721 248.350794 
L 96.972691 250.27686 
L 105.320807 243.264917 
L 107.957353 244.842913 
L 117.075973 234.33741 
L 119.426007 235.550213 
L 123.479722 233.047209 
L 125.786023 234.059301 
L 112.629916 275.378234 
L 116.272562 276.710538 
L 115.647147 291.685587 
L 119.80104 292.91496 
L 129.716367 270.677261 
L 133.202756 271.474655 
L 128.785172 316.307846 
L 133.706747 317.111957 
L 141.770026 290.708593 
L 145.880284 291.117089 
L 152.618374 241.005644 
L 155.160498 241.097619 
L 158.383035 302.777278 
L 162.864546 302.657458 
L 164.678965 266.453438 
L 168.015261 266.153619 
L 170.139035 257.021153 
L 173.17606 256.554321 
L 179.215567 270.907442 
L 182.684719 270.148358 
L 197.978782 313.368537 
L 202.773727 311.998503 
L 192.668982 266.463556 
L 195.991757 265.283664 
L 210.497858 291.427191 
L 214.59673 289.674379 
L 203.96823 257.52207 
L 207.004279 255.991326 
L 230.867507 291.326514 
L 234.953142 288.933284 
L 232.844134 277.015507 
L 236.478822 274.567204 
L 210.859618 232.816848 
L 213.115473 231.081639 
L 229.81166 246.387455 
L 232.484834 244.049642 
L 241.744395 248.557282 
L 244.479893 245.843205 
L 258.934558 253.871074 
L 261.828634 250.613874 
L 263.372566 246.260971 
L 266.02517 242.867993 
L 267.262693 238.467296 
L 269.668323 234.955857 
L 228.355846 204.426271 
L 229.710388 202.154979 
L 230.28638 199.464875 
L 231.483971 197.135336 
L 286.537935 219.351828 
L 288.333002 215.243785 
L 272.04061 204.223741 
L 273.367185 200.579005 
L 247.049121 188.321337 
L 247.888046 185.47025 
L 271.203582 188.092726 
L 272.023377 184.482283 
L 303.482293 186.320314 
L 304.2304 181.695835 
L 273.000729 173.430926 
L 273.358636 169.771226 
L 268.801816 165.860389 
L 268.923765 162.336456 
L 301.770271 158.397374 
L 301.641266 153.84053 
L 266.228573 151.947224 
L 265.914334 148.511078 
L 286.91056 142.103828 
L 286.276598 138.022262 
L 247.061356 141.808091 
L 246.437798 138.979618 
L 299.845779 121.533798 
L 298.558654 117.05569 
L 269.826346 121.883087 
L 268.565046 118.348684 
L 282.009257 108.7664 
L 280.329515 104.855425 
L 251.160052 114.315313 
L 249.670034 111.371561 
L 277.351704 91.886192 
L 275.143515 88.130006 
L 279.523771 80.065006 
L 276.942824 76.246371 
L 264.617745 79.700126 
L 262.032695 76.350349 
L 273.990697 60.635313 
L 270.801573 57.000257 
L 227.722016 91.831844 
L 225.536657 89.636152 
L 230.308564 79.825396 
L 227.744416 77.554313 
L 226.616663 73.493154 
L 223.855241 71.341283 
L 209.016346 86.288328 
L 206.665934 84.683524 
L 199.227043 91.337569 
L 197.040231 90.038065 
L 198.952225 81.030319 
L 196.441466 79.744552 
L 212.761376 36.967805 
L 208.858367 35.269634 
L 194.659875 60.647273 
L 191.510351 59.506545 
L 186.904896 63.055881 
L 183.834938 62.157795 
L 179.796356 65.248971 
L 176.798869 64.57331 
L 175.172414 56.104636 
L 171.889695 55.578883 
L 165.825986 79.830788 
L 163.29389 79.587176 
L 163.604173 21.025055 
L 159.224195 20.880377 
L 155.567196 72.127696 
L 152.79797 72.210451 
L 147.505177 39.639637 
L 143.718442 39.991942 
L 137.710317 24.601186 
L 133.455582 25.268899 
L 133.257567 45.682752 
L 129.667884 46.480046 
L 134.939103 79.848062 
L 132.422822 80.575592 
L 121.141903 55.607596 
L 117.87027 56.780926 
L 97.216308 15.858234 
L 92.706697 17.803491 
L 107.596063 59.470198 
L 104.452576 61.067529 
L 107.698358 73.900961 
L 105.008555 75.48794 
L 109.395004 87.876407 
L 107.14378 89.40313 
L 63.155703 35.238532 
L 59.272292 38.245146 
L 94.977499 87.692815 
L 92.727632 89.672947 
L 74.947542 75.605658 
L 72.327531 78.221552 
L 89.918799 99.260569 
L 88.035149 101.394038 
L 46.861569 72.010308 
L 44.142399 75.511064 
L 72.974446 101.220663 
L 71.160802 103.885931 
L 21.644796 77.286771 
L 19.103998 81.577789 
L 47.12829 102.07685 
L 45.354346 105.554354 
L 60.476657 116.673683 
L 59.15507 119.724268 
L 36.954689 114.880299 
L 35.588344 118.671354 
L 18.267418 117.553089 
L 16.994351 121.93039 
L 39.222148 131.960248 
L 38.391712 135.671564 
L 77.916209 146.436953 
L 77.521822 148.924484 
L 22.276274 145.352786 
L 21.875308 149.590296 
L 39.208576 154.669182 
L 39.092166 158.369696 
L 32.68554 162.172785 
L 32.808285 166.074688 
L 17.084588 171.228858 
L 17.49979 175.616812 
L 59.284641 174.115421 
L 59.769737 177.175085 
L 14.864123 189.647518 
L 15.859545 194.096181 
L 39.39638 192.376408 
L 40.465475 196.052374 
L 43.164942 199.173539 
L 44.44589 202.727652 
L 82.829941 190.900111 
L 83.831143 193.211161 
L 39.601594 217.708881 
L 41.467096 221.365869 
L 73.353359 207.883341 
L 74.893236 210.483958 
L 59.115834 224.477906 
L 61.18452 227.517978 
L 90.87547 209.795356 
L 92.466803 211.844094 
L 63.688683 239.871356 
L 66.239113 242.760035 
L 97.615972 217.676172 
L 99.451762 219.509077 
L 52.337118 275.231766 
L 56.004969 278.459881 
L 94.787446 237.784918 
L 97.256898 239.696816 
L 94.726247 248.743041 
L 97.540276 250.651446 
L 105.844125 243.587137 
L 108.490544 245.14852 
L 117.54291 234.585873 
L 119.900526 235.783872 
L 123.938418 233.255421 
L 126.251039 234.252989 
L 113.355065 275.653848 
L 117.006018 276.963216 
L 116.4748 291.941902 
L 120.636343 293.145126 
L 130.411611 270.845505 
L 133.902946 271.620955 
L 129.767425 316.481044 
L 134.69396 317.254185 
L 142.591017 290.800629 
L 146.703763 291.183266 
L 153.126547 241.030434 
L 155.6692 241.106418 
L 159.279603 302.76459 
L 163.760271 302.616585 
L 165.346952 266.40187 
L 168.681296 266.081073 
L 170.74759 256.935431 
L 173.781619 256.449507 
L 179.91128 270.764359 
L 183.375589 269.983471 
L 198.94118 313.106605 
L 203.727413 311.70644 
L 193.336479 266.235946 
L 196.651767 265.03518 
L 211.32201 291.086955 
L 215.409776 289.308397 
L 204.579267 257.223572 
L 207.605628 255.673763 
L 231.690623 290.858166 
L 235.761125 288.439287 
L 233.577202 276.53501 
L 237.19642 274.063895 
L 211.315137 232.475496 
L 213.560033 230.726133 
L 230.352155 245.926636 
L 233.010573 243.572057 
L 242.298301 248.02137 
L 245.016675 245.290142 
L 259.521544 253.226941 
L 262.395078 249.951603 
L 263.911602 245.589076 
L 266.542813 242.179482 
L 267.752634 237.771088 
L 270.136132 234.244589 
L 228.632457 203.975438 
L 229.972688 201.695672 
L 230.53175 199.001998 
L 231.714665 196.664974 
L 286.907269 218.534768 
L 288.676464 214.415516 
L 272.315084 203.49816 
L 273.61871 199.845153 
L 247.224072 187.753252 
L 248.045049 184.896946 
L 271.376618 187.372728 
L 272.173688 183.757201 
L 303.643543 185.397337 
L 304.36255 180.768244 
L 273.081515 172.699915 
L 273.416397 169.038037 
L 268.83507 165.155937 
L 268.934853 161.631307 
L 301.755935 157.485716 
L 301.598273 152.929774 
L 266.174372 151.259231 
L 265.838528 147.82513 
L 286.794041 141.285952 
L 286.13442 137.208454 
L 246.943766 141.24085 
L 246.30243 138.416355 
L 299.59963 120.634973 
L 298.284366 116.16505 
L 269.582988 121.173061 
L 268.299483 117.646661 
L 281.683161 107.98001 
L 279.978855 104.079676 
L 250.869467 113.722837 
L 249.360963 110.788514 
L 276.919533 91.129429 
L 274.687763 87.387206 
L 279.017209 79.294816 
L 276.412296 75.492489 
L 264.109183 79.023693 
L 261.503116 75.690241 
L 273.362042 59.900308 
L 270.15012 56.28538 
L 227.290486 91.387225 
L 225.091359 89.205321 
L 229.801468 79.364746 
L 227.223088 77.109835 
L 226.069814 73.055849 
L 223.294913 70.921389 
L 208.55032 85.961467 
L 206.189861 84.371477 
L 198.792967 91.072177 
L 196.598025 89.786453 
L 198.453328 80.766859 
L 195.934532 79.496909 
L 211.985077 36.618365 
L 208.071465 34.944775 
L 194.032865 60.411213 
L 190.876228 59.290316 
L 186.293188 62.868547 
L 183.217642 61.989788 
L 179.198582 65.106303 
L 176.196905 64.449507 
L 174.517219 55.991231 
L 171.231258 55.486134 
L 165.3202 79.775697 
L 162.786622 79.548015 
L 162.728576 20.985102 
L 158.347774 20.867974 
L 155.013164 72.137279 
L 152.244514 72.23745 
L 146.746974 39.700568 
L 142.962529 40.076683 
L 136.857724 24.724019 
L 132.607273 25.418479 
L 132.537653 45.833173 
L 128.953056 46.653028 
L 134.434037 79.987232 
L 131.922381 80.730574 
L 120.484651 55.834022 
L 117.220462 57.027905 
L 96.309527 16.235925 
L 91.81224 18.209506 
L 106.963372 59.781743 
L 103.829993 61.398813 
L 107.156426 74.211577 
L 104.476657 75.815443 
L 108.940936 88.176076 
L 106.699359 89.716928 
L 62.371487 35.830061 
L 58.507063 38.86104 
L 94.522562 88.083165 
L 92.285193 90.077409 
L 74.41698 76.122225 
L 71.813473 78.754545 
L 89.536717 99.682507 
L 87.666522 101.827781 
L 46.308949 72.70359 
L 43.611851 76.22138 
L 72.605026 101.749133 
L 70.808182 104.425755 
L 21.125861 78.138548 
L 18.612101 82.445462 
L 46.764766 102.76786 
L 45.012729 106.256453 
L 60.204675 117.280451 
L 58.902301 120.339288 
L 36.671893 115.635043 
L 35.329419 119.434616 
L 18.001802 118.425312 
L 16.756291 122.810534 
L 39.04673 132.700393 
L 38.239653 136.416858 
L 77.831076 146.933447 
L 77.452342 149.42341 
L 22.185423 146.199246 
L 21.811117 150.439193 
L 39.175985 155.408962 
L 39.082852 159.110136 
L 32.700272 162.953444 
L 32.847555 166.854497 
L 17.156586 172.107459 
L 17.599377 176.492714 
L 59.373958 174.72855 
L 59.878289 177.785103 
L 15.052007 190.53972 
L 16.075389 194.982034 
L 39.600943 193.114262 
L 40.693136 196.783431 
L 43.41218 199.887556 
L 44.715457 203.433543 
L 83.024359 191.364822 
L 84.040077 193.669528 
L 39.965479 218.444943 
L 41.853945 222.090126 
L 73.654779 208.407318 
L 75.210983 210.998199 
L 59.521906 225.091101 
L 61.609673 228.118101 
L 91.18857 210.209091 
L 92.792756 212.24778 
L 64.191482 240.455485 
L 66.760029 243.328067 
L 97.978504 218.047357 
L 99.825786 219.86868 
L 53.062538 275.886591 
L 56.750619 279.091573 
L 95.276507 238.173495 
L 97.757934 240.069824 
L 95.284229 249.131787 
L 98.110206 251.022455 
L 106.36946 243.906059 
L 109.025647 245.450767 
L 118.011401 234.831395 
L 120.376504 236.014541 
L 124.398414 233.460745 
L 126.717263 234.443748 
L 114.081933 275.924897 
L 117.741049 277.211276 
L 117.304049 292.193007 
L 121.473077 293.370033 
L 131.1079 271.009372 
L 134.604043 271.762849 
L 130.750748 316.64806 
L 135.682048 317.390201 
L 143.412571 290.887501 
L 147.527642 291.244263 
L 153.634866 241.052027 
L 156.177947 241.112018 
L 160.176074 302.746263 
L 164.655722 302.57008 
L 166.014601 266.346102 
L 169.346862 266.004341 
L 171.355594 256.845883 
L 174.386507 256.340887 
L 180.606079 270.616903 
L 184.065409 269.814242 
L 199.901911 312.838624 
L 204.679244 311.408385 
L 194.002531 266.004143 
L 197.310202 264.782549 
L 212.144005 290.741541 
L 216.220505 288.937309 
L 205.188414 256.921236 
L 208.204968 255.352424 
L 232.510777 290.38465 
L 236.565984 287.940218 
L 234.307234 276.049912 
L 237.910838 273.556083 
L 211.768499 232.131285 
L 214.002349 230.367838 
L 230.889742 245.462427 
L 233.533298 243.091175 
L 242.848826 247.481985 
L 245.549968 244.733715 
L 260.104468 252.579129 
L 262.957345 249.285783 
L 264.446401 244.913804 
L 267.056116 241.487728 
L 268.238187 237.071812 
L 270.599458 233.530392 
L 228.906228 203.522875 
L 230.232094 201.234725 
L 230.774203 198.537588 
L 231.942396 196.19317 
L 287.271457 217.715401 
L 289.01471 213.585103 
L 272.584989 202.770867 
L 273.865614 199.109733 
L 247.395447 187.184079 
L 248.198443 184.322666 
L 271.545121 186.651657 
L 272.319437 183.031188 
L 303.798985 184.473364 
L 304.488863 179.83984 
L 273.157701 171.968411 
L 273.469546 168.304499 
L 268.863893 164.45129 
L 268.941506 160.926102 
L 301.735866 156.574167 
L 301.549552 152.019307 
L 266.115846 150.571593 
L 265.758409 147.139672 
L 286.672381 140.468825 
L 285.987128 136.395557 
L 246.822609 140.67436 
L 246.163522 137.853954 
L 299.347833 119.737715 
L 298.004481 115.276152 
L 269.335169 120.46458 
L 268.02951 116.946322 
L 281.352126 107.195686 
L 279.623323 103.306149 
L 250.57516 113.132201 
L 249.048231 110.207424 
L 276.482612 90.375399 
L 274.22735 86.647287 
L 278.505813 78.527827 
L 275.877037 74.741959 
L 263.596376 78.350473 
L 260.969395 75.033477 
L 272.728778 59.16927 
L 269.494183 55.574616 
L 226.856167 90.945329 
L 224.643361 88.777299 
L 229.291485 78.907295 
L 226.698974 76.668645 
L 225.520226 72.621993 
L 222.731955 70.505027 
L 208.082247 85.637543 
L 205.711835 84.06243 
L 198.357231 90.80952 
L 196.154246 89.537626 
L 197.952783 80.506542 
L 195.42605 79.252459 
L 211.206596 36.273814 
L 207.282536 34.624872 
L 193.404382 60.179101 
L 190.240759 59.07808 
L 185.680314 62.685065 
L 182.599302 61.825666 
L 178.599923 64.967397 
L 175.594174 64.329494 
L 173.861324 55.881949 
L 170.572251 55.397529 
L 164.814077 79.723789 
L 162.279117 79.512046 
L 161.852745 20.950656 
L 157.471293 20.861083 
L 154.459204 72.150347 
L 151.691238 72.267929 
L 145.989169 39.766267 
L 142.207164 40.166177 
L 136.00592 24.852212 
L 131.759921 25.573391 
L 131.818699 45.988119 
L 128.23933 46.830504 
L 133.929855 80.129575 
L 131.422924 80.8887 
L 119.828835 56.064577 
L 116.572219 57.278967 
L 95.40514 16.619311 
L 90.920355 18.621138 
L 106.332653 60.097261 
L 103.209507 61.734006 
L 106.616458 74.525596 
L 103.94683 76.146284 
L 108.488762 88.478595 
L 106.256921 90.033515 
L 61.591008 36.426511 
L 57.745723 39.481735 
L 94.070088 88.476369 
L 91.845307 90.484645 
L 73.889676 76.642118 
L 71.302777 79.290761 
L 89.157295 100.10684 
L 87.30063 102.263834 
L 45.760701 73.400335 
L 43.085781 76.935018 
L 72.238937 102.279916 
L 70.458963 104.967786 
L 20.612294 78.993573 
L 18.125671 83.316211 
L 46.405596 103.461143 
L 44.675535 106.960686 
L 59.936515 117.888918 
L 58.653405 120.955885 
L 36.39385 116.39155 
L 35.075299 120.199491 
L 17.741677 119.299188 
L 16.523771 123.692157 
L 38.875971 133.441626 
L 38.092285 137.163094 
L 77.749068 147.430467 
L 77.386002 149.922763 
L 22.099898 147.04626 
L 21.752266 151.288478 
L 39.148048 156.148934 
L 39.078194 159.850619 
L 32.719913 163.733994 
L 32.891729 167.634044 
L 17.234108 172.985589 
L 17.704471 177.367973 
L 59.467131 175.341105 
L 59.990675 178.394426 
L 15.2455 191.430722 
L 16.296801 195.866513 
L 39.810142 193.850815 
L 40.925391 197.513042 
L 43.663904 200.600004 
L 44.989457 204.137724 
L 83.221697 191.8283 
L 84.25189 194.126573 
L 40.333987 219.178701 
L 42.245341 222.811935 
L 73.959489 208.929389 
L 75.531958 211.510431 
L 59.931828 225.70173 
L 62.038591 228.715539 
L 91.504266 210.620849 
L 93.121242 212.649408 
L 64.697944 241.036441 
L 67.284507 243.892811 
L 98.343364 218.416255 
L 100.202064 220.225923 
L 53.792062 276.536841 
L 57.500228 279.718564 
L 95.768002 238.558988 
L 98.261307 240.439673 
L 95.844646 249.517015 
L 98.682457 251.389872 
L 106.89679 244.221671 
L 109.56264 245.749642 
L 118.481426 235.073965 
L 120.853924 236.242213 
L 124.859692 233.663172 
L 127.184678 234.63157 
L 114.81049 276.191368 
L 118.477625 277.454709 
L 118.13486 292.438892 
L 122.311208 293.589674 
L 131.805205 271.168857 
L 135.306018 271.90033 
L 131.735102 316.808889 
L 136.670972 317.52 
L 144.234655 290.969203 
L 148.351889 291.300077 
L 154.143311 241.070422 
L 156.686719 241.114418 
L 161.072411 302.722298 
L 165.550863 302.517944 
L 166.681887 266.286135 
L 170.011932 265.923423 
L 171.963023 256.752513 
L 174.9907 256.228464 
L 181.299937 270.46508 
L 184.75415 269.640678 
L 200.860938 312.564607 
L 205.629181 311.104349 
L 194.667113 265.768155 
L 197.967035 264.525782 
L 212.963812 290.390965 
L 217.028883 288.561129 
L 205.795648 256.615075 
L 208.802275 255.027322 
L 233.327936 289.905985 
L 237.367689 287.436096 
L 235.034201 275.560232 
L 238.622049 273.043788 
L 212.219688 231.784229 
L 214.442403 230.006767 
L 231.424398 244.994846 
L 234.052988 242.607014 
L 243.395947 246.939148 
L 246.079751 244.173943 
L 260.683307 251.927663 
L 263.515413 248.616439 
L 264.976943 244.235181 
L 267.565058 240.79276 
L 268.719332 236.369497 
L 271.058282 232.813295 
L 229.177148 203.068599 
L 230.488596 200.772155 
L 231.01373 198.071662 
L 232.167156 195.719943 
L 287.630485 216.89376 
L 289.347726 212.75258 
L 272.850314 202.041891 
L 274.107887 198.372775 
L 247.563239 186.613839 
L 248.348223 183.747432 
L 271.709087 185.92954 
L 272.460616 182.304273 
L 303.948612 183.548431 
L 304.609334 178.91066 
L 273.229285 171.236442 
L 273.51808 167.570642 
L 268.888284 163.746475 
L 301.78174 160.220869 
z
" clip-path="url(#pf190aac8db)" style="fill: #0000ff; opacity: 0.5; stroke: #000000; stroke-width: 1.5; stroke-linejoin: miter"/>
   </g>
  </g>
 </g>
 <defs>
  <clipPath id="pf190aac8db">
   <rect x="0" y="-0" width="319.114541" height="332.64"/>
  </clipPath>
 </defs>
</svg>
