<?xml version="1.0" encoding="utf-8" standalone="no"?>
<!DOCTYPE svg PUBLIC "-//W3C//DTD SVG 1.1//EN"
  "http://www.w3.org/Graphics/SVG/1.1/DTD/svg11.dtd">
<svg xmlns:xlink="http://www.w3.org/1999/xlink" width="330.908631pt" height="332.64pt" viewBox="0 0 330.908631 332.64" xmlns="http://www.w3.org/2000/svg" version="1.1">
 <metadata>
  <rdf:RDF xmlns:dc="http://purl.org/dc/elements/1.1/" xmlns:cc="http://creativecommons.org/ns#" xmlns:rdf="http://www.w3.org/1999/02/22-rdf-syntax-ns#">
   <cc:Work>
    <dc:type rdf:resource="http://purl.org/dc/dcmitype/StillImage"/>
    <dc:date>2023-12-09T18:06:22.298447</dc:date>
    <dc:format>image/svg+xml</dc:format>
    <dc:creator>
     <cc:Agent>
      <dc:title>Matplotlib v3.8.2, https://matplotlib.org/</dc:title>
     </cc:Agent>
    </dc:creator>
   </cc:Work>
  </rdf:RDF>
 </metadata>
 <defs>
  <style type="text/css">*{stroke-linejoin: round; stroke-linecap: butt}</style>
 </defs>
 <g id="figure_1">
  <g id="patch_1">
   <path d="M 0 332.64 
L 330.908631 332.64 
L 330.908631 0 
L 0 0 
L 0 332.64 
z
" style="fill: none"/>
  </g>
  <g id="axes_1">
   <g id="patch_2">
    <path d="M 315.86733 166.141096 
L 315.792085 161.356041 
L 250.472896 160.675166 
L 250.258123 157.948957 
L 263.538254 153.513496 
L 263.091842 150.380025 
L 314.748167 137.294051 
L 313.766461 132.558448 
L 283.001353 135.472972 
L 281.978085 131.736459 
L 278.540656 128.781165 
L 277.309188 125.188214 
L 285.696625 117.77863 
L 284.115675 113.96612 
L 275.131333 113.636853 
L 273.42538 110.158587 
L 244.099496 121.878236 
L 242.668014 119.371604 
L 250.673133 110.865445 
L 248.892134 108.157568 
L 278.932516 82.29555 
L 276.239245 78.713262 
L 226.929101 113.744406 
L 225.250362 111.78167 
L 252.838789 82.290134 
L 250.158249 79.528293 
L 270.522776 52.180139 
L 266.886769 48.877162 
L 232.898378 82.322133 
L 230.228703 80.187246 
L 218.512318 90.523066 
L 216.107611 88.836454 
L 233.466569 55.93248 
L 229.966865 53.792775 
L 232.983352 39.76165 
L 228.975441 37.645134 
L 217.72056 50.964027 
L 214.072422 49.321868 
L 208.89683 51.540349 
L 205.271176 50.175343 
L 206.06591 35.134882 
L 201.925831 33.866997 
L 186.990121 74.85976 
L 184.108512 74.172019 
L 190.493549 24.52322 
L 186.027516 23.750211 
L 179.244801 41.495274 
L 175.317968 41.067559 
L 170.392692 56.837572 
L 166.952632 56.680601 
L 163.454895 22.00763 
L 158.923135 22.086019 
L 157.871638 76.144254 
L 155.044813 76.371427 
L 150.487823 63.109571 
L 147.254809 63.575351 
L 134.596984 15.12 
L 129.86293 16.109151 
L 129.195743 32.837702 
L 125.021443 33.987919 
L 126.14104 51.340851 
L 122.55003 52.577967 
L 127.63818 75.622032 
L 124.809883 76.800069 
L 104.804529 41.67197 
L 100.920057 43.584732 
L 121.239171 89.31687 
L 118.844633 90.689334 
L 100.909706 67.694495 
L 97.845365 69.716854 
L 103.391211 83.54158 
L 100.82391 85.478079 
L 100.892104 90.590671 
L 98.547678 92.602262 
L 62.008154 58.373618 
L 58.669978 61.623735 
L 46.022959 56.180344 
L 42.623726 59.934155 
L 100.891177 114.455302 
L 99.297107 116.455123 
L 78.188045 104.354467 
L 76.287609 107.073118 
L 34.295973 84.497781 
L 31.7929 88.606313 
L 81.711481 121.359247 
L 80.34397 123.958706 
L 41.854079 109.215377 
L 40.124444 113.074044 
L 47.510849 120.517348 
L 46.133776 124.192567 
L 74.000207 137.282231 
L 73.137162 140.116277 
L 28.655953 131.888517 
L 27.645737 136.150952 
L 24.395853 139.997413 
L 23.642705 144.389786 
L 26.224706 149.1977 
L 25.759931 153.528021 
L 27.039098 157.96698 
L 26.849646 162.267359 
L 67.056096 166.444959 
L 67.113425 169.482924 
L 15.041301 175.971515 
L 15.423883 180.640229 
L 55.87968 180.117981 
L 56.372444 183.500597 
L 70.408903 184.256238 
L 71.024599 187.179977 
L 31.990988 200.430645 
L 33.134238 204.554331 
L 26.757176 211.154761 
L 28.240203 215.437706 
L 63.500159 206.214439 
L 64.809685 209.344547 
L 75.672497 207.941031 
L 77.030292 210.687561 
L 37.630388 236.038295 
L 39.890433 239.967059 
L 33.455501 249.464511 
L 36.139759 253.517905 
L 64.935844 238.454937 
L 67.258372 241.523964 
L 40.608828 268.75355 
L 43.896038 272.572491 
L 66.016044 258.574413 
L 68.970638 261.599528 
L 58.296937 279.259164 
L 61.905722 282.516757 
L 63.572099 288.149234 
L 67.457799 291.23657 
L 96.852504 258.918613 
L 99.802674 260.973992 
L 112.67451 247.257613 
L 115.250211 248.821279 
L 106.325637 271.52052 
L 109.667355 273.271812 
L 102.191283 298.278471 
L 106.376374 300.146527 
L 129.087711 254.635212 
L 131.887264 255.679163 
L 118.027559 308.783359 
L 122.535117 310.148293 
L 134.166878 283.261845 
L 137.864004 284.131943 
L 140.408267 291.218392 
L 144.352478 291.888312 
L 153.275625 251.668493 
L 155.969938 251.95339 
L 155.488176 306.815475 
L 159.915338 307.003539 
L 164.395601 317.52 
L 169.154933 317.422702 
L 173.691249 313.962304 
L 178.334123 313.574489 
L 175.836927 258.751832 
L 178.742801 258.32385 
L 189.990867 300.475707 
L 194.201634 299.582065 
L 185.318429 248.705976 
L 187.903752 247.984842 
L 199.056088 273.177277 
L 202.40405 272.012102 
L 212.01855 286.432406 
L 215.776873 284.853109 
L 204.58 251.903882 
L 207.256348 250.575541 
L 217.329892 262.531753 
L 220.3341 260.797273 
L 208.925899 236.609139 
L 211.119199 235.151716 
L 253.791026 288.782022 
L 257.602573 285.888145 
L 241.689979 259.405375 
L 244.583843 256.906506 
L 226.330058 232.127698 
L 228.373846 230.125265 
L 256.904514 252.717357 
L 259.580569 249.743417 
L 236.606788 225.785703 
L 238.446088 223.463284 
L 279.457577 249.260121 
L 282.013778 245.578772 
L 291.276211 246.094451 
L 293.727034 242.043063 
L 240.83705 207.978166 
L 242.114351 205.531542 
L 261.578444 211.510386 
L 262.956551 208.40986 
L 295.003306 217.23906 
L 296.545009 213.084751 
L 261.125943 197.160248 
L 262.053074 194.081045 
L 292.565239 198.404596 
L 293.515951 194.336258 
L 269.790643 185.712358 
L 270.353543 182.366379 
L 262.016752 177.948415 
L 262.339381 174.850702 
L 311.60395 174.52324 
L 311.794366 169.86809 
L 315.86432 165.183934 
L 315.758981 160.399447 
L 250.436802 160.129405 
L 250.204887 157.404602 
L 263.456858 152.885704 
L 262.990748 149.755103 
L 314.563747 136.344498 
L 313.552277 131.615163 
L 282.806108 134.723125 
L 281.75936 130.993121 
L 278.303411 128.059505 
L 277.049371 124.47437 
L 285.390039 117.012181 
L 283.785142 113.20969 
L 274.798906 112.936936 
L 273.071112 109.469467 
L 243.819517 121.373328 
L 242.372298 118.875749 
L 250.32376 110.319411 
L 248.525765 107.622789 
L 278.402895 81.572345 
L 275.687147 78.007067 
L 226.598304 113.347651 
L 224.907255 111.395512 
L 252.30965 81.731044 
L 249.611793 78.986116 
L 269.803913 51.510422 
L 266.147204 48.230379 
L 232.369835 81.888456 
L 229.686786 79.770402 
L 218.035639 90.179707 
L 215.620372 88.508252 
L 232.772039 55.495751 
L 229.258947 53.3781 
L 232.187126 39.32828 
L 228.165982 37.237014 
L 216.995092 50.62643 
L 213.336699 49.007249 
L 208.175162 51.258237 
L 204.540995 49.916061 
L 205.241117 34.870899 
L 201.093146 33.629078 
L 186.415553 74.714967 
L 183.529674 74.045363 
L 189.602322 24.357388 
L 185.131516 23.612483 
L 178.460541 41.399856 
L 174.531096 40.996846 
L 169.705102 56.797524 
L 166.264123 56.662192 
L 162.548381 22.011906 
L 158.017204 22.118796 
L 157.305724 76.182575 
L 154.480383 76.427523 
L 149.840074 63.19459 
L 146.610054 63.680695 
L 133.647722 15.305912 
L 128.919983 16.324818 
L 128.358022 33.057234 
L 124.191039 34.233683 
L 125.419754 51.57923 
L 121.836595 52.838907 
L 127.06958 75.850515 
L 124.248748 77.046317 
L 104.022853 42.044734 
L 100.150489 43.981891 
L 120.756829 89.585328 
L 118.370971 90.972825 
L 100.291774 68.091242 
L 97.240213 70.132833 
L 102.872899 83.922405 
L 100.317829 85.875013 
L 100.418176 90.987075 
L 98.086448 93.013372 
L 61.332368 59.015217 
L 58.0147 62.286265 
L 45.333695 56.922525 
L 41.958138 60.69764 
L 100.567344 114.85124 
L 98.985884 116.861047 
L 77.801133 104.893394 
L 75.917833 107.623944 
L 33.785042 85.313158 
L 31.307859 89.437351 
L 81.43145 121.875678 
L 80.080315 124.483687 
L 41.498458 109.982728 
L 39.793126 113.852198 
L 47.226199 121.248899 
L 45.872269 124.932705 
L 73.820475 137.846846 
L 72.975272 140.686264 
L 28.443194 132.738429 
L 27.459806 137.007134 
L 24.234179 140.873958 
L 23.508672 145.270981 
L 26.12086 150.06256 
L 25.68333 154.395719 
L 26.99039 158.826545 
L 26.827989 163.12803 
L 67.059919 167.052672 
L 67.136353 170.090216 
L 15.106069 176.906184 
L 15.518007 181.572399 
L 55.969719 180.795717 
L 56.483748 184.175167 
L 70.524681 184.842512 
L 71.158754 187.76232 
L 32.209255 201.258226 
L 33.378418 205.374639 
L 27.042994 212.015047 
L 28.55293 216.28858 
L 63.754179 206.84373 
L 65.083366 209.96554 
L 75.937135 208.493731 
L 77.312178 211.231667 
L 38.072495 236.829702 
L 40.357204 240.744175 
L 33.982134 250.28191 
L 36.691833 254.318342 
L 65.39261 239.074562 
L 67.734395 242.12892 
L 41.256636 269.525578 
L 44.567801 273.323769 
L 66.599329 259.186845 
L 69.572891 262.193318 
L 59.01047 279.919736 
L 62.639672 283.154568 
L 64.341441 288.776453 
L 68.246481 291.839288 
L 97.437343 259.337095 
L 100.400383 261.373878 
L 113.185696 247.576814 
L 115.77118 249.124249 
L 106.989548 271.879172 
L 110.342215 273.609412 
L 103.023568 298.662597 
L 107.220325 300.504293 
L 129.644973 254.851037 
L 132.451036 255.87736 
L 118.925601 309.067675 
L 123.441655 310.404232 
L 134.904085 283.445159 
L 138.60661 284.291987 
L 141.195392 291.362294 
L 145.143739 292.007394 
L 153.813749 251.732248 
L 156.509802 252.000194 
L 156.3731 306.864225 
L 160.801357 307.02444 
L 165.347675 317.512515 
L 170.1063 317.385285 
L 174.620763 313.896424 
L 179.261105 313.479417 
L 176.419155 258.67355 
L 179.322281 258.2273 
L 190.835235 300.307579 
L 195.040298 299.387472 
L 185.837288 248.568259 
L 188.418024 247.830879 
L 199.728585 272.952674 
L 203.069152 271.766465 
L 212.774158 286.126014 
L 216.522474 284.52311 
L 205.11859 251.644957 
L 207.786531 250.29981 
L 217.935074 262.192429 
L 220.928313 260.439088 
L 209.368209 236.323184 
L 211.552298 234.851995 
L 254.560586 288.212859 
L 258.353857 285.295067 
L 242.275016 258.912901 
L 245.153106 256.395881 
L 226.743837 231.732369 
L 228.774991 229.717122 
L 257.447186 252.129325 
L 260.104483 249.138612 
L 236.980476 225.325865 
L 238.805134 222.991923 
L 279.978059 248.530311 
L 282.511056 244.832958 
L 291.776549 245.290371 
L 294.201842 241.223649 
L 241.098655 207.492074 
L 242.360543 205.037465 
L 261.861855 210.893772 
L 263.220434 207.784641 
L 295.322086 216.41211 
L 296.83763 212.248187 
L 261.319109 196.546764 
L 262.226855 193.461791 
L 292.765609 197.593352 
L 293.690714 193.519115 
L 269.911636 185.044605 
L 270.453481 181.695151 
L 262.089069 177.329709 
L 262.392208 174.230028 
L 311.653743 173.592726 
L 311.814877 168.936471 
L 315.85529 164.226809 
L 315.719861 159.443079 
L 250.397276 159.583883 
L 250.148228 156.860592 
L 263.371516 152.258436 
L 262.885725 149.130828 
L 314.373359 135.396124 
L 313.332164 130.673243 
L 282.606151 133.97452 
L 281.535963 130.251173 
L 278.061633 127.339352 
L 276.785068 123.762175 
L 285.078639 116.247675 
L 283.449858 112.455353 
L 274.462085 112.239123 
L 272.712516 108.78259 
L 243.536368 120.870191 
L 242.07347 118.381763 
L 249.970959 109.775584 
L 248.15604 107.090324 
L 277.868737 80.852485 
L 275.130618 77.304358 
L 226.265019 112.952984 
L 224.561725 111.01152 
L 251.777006 81.175293 
L 249.061938 78.447387 
L 269.080852 50.84524 
L 265.403585 47.58826 
L 231.838575 81.458112 
L 229.142258 79.356974 
L 217.556809 89.839353 
L 215.131078 88.183122 
L 232.074776 55.063399 
L 228.548434 52.967886 
L 231.388191 38.899927 
L 227.353973 36.833993 
L 216.267516 50.293403 
L 212.599011 48.697262 
L 207.451734 50.98067 
L 203.809197 49.661377 
L 204.41468 34.612109 
L 200.25898 33.396401 
L 185.840084 74.573792 
L 182.950052 73.922351 
L 188.710071 24.197165 
L 184.234668 23.480394 
L 177.675697 41.309371 
L 173.743795 40.931084 
L 169.017274 56.761802 
L 165.575511 56.648114 
L 161.641913 22.021883 
L 157.111497 22.15727 
L 156.740062 76.224455 
L 153.916318 76.487167 
L 149.192872 63.283681 
L 145.965973 63.790091 
L 132.699648 15.497791 
L 127.978411 16.546412 
L 127.521698 33.282031 
L 123.362197 34.484665 
L 124.699981 51.822141 
L 121.124817 53.104329 
L 126.502427 76.082569 
L 123.689172 77.296089 
L 103.243537 42.422408 
L 99.383433 44.383881 
L 120.276186 89.856814 
L 117.899102 91.25929 
L 99.67635 68.491867 
L 96.63769 70.55261 
L 102.356993 84.306483 
L 99.814254 86.275122 
L 99.946751 91.386452 
L 97.627814 93.427374 
L 60.660632 59.661054 
L 57.363602 62.952904 
L 44.649113 57.669026 
L 41.297366 61.465297 
L 100.246008 115.249207 
L 98.67722 117.268921 
L 77.417619 105.434745 
L 75.551529 108.177086 
L 33.279249 86.131732 
L 30.828054 90.271424 
L 81.154673 122.39386 
L 79.819967 125.010315 
L 41.14767 110.752301 
L 39.466709 114.63242 
L 46.946156 121.982224 
L 45.615421 125.674474 
L 73.644298 138.412581 
L 72.816969 141.257259 
L 28.235785 133.589662 
L 27.279265 137.864467 
L 24.078021 141.751502 
L 23.380183 146.153001 
L 26.022456 150.928057 
L 25.612187 155.263882 
L 26.94709 159.6864 
L 26.811745 163.988821 
L 67.067563 167.660349 
L 67.1631 170.697353 
L 15.176714 177.840426 
L 15.617991 182.503958 
L 56.064018 181.472874 
L 56.599292 184.849023 
L 70.644145 185.428046 
L 71.29657 188.343809 
L 32.432722 202.084417 
L 33.627752 206.193396 
L 27.334218 212.873518 
L 28.871002 217.137471 
L 64.012152 207.471411 
L 65.360947 210.5848 
L 76.205245 209.044756 
L 77.597481 211.773989 
L 38.519571 237.618314 
L 40.828855 241.51834 
L 34.513897 251.095982 
L 37.248929 255.115291 
L 65.853264 239.691301 
L 68.214213 242.73087 
L 41.909287 270.293516 
L 45.244275 274.070806 
L 67.186454 259.795597 
L 70.178866 262.783308 
L 59.728143 280.575807 
L 63.377618 283.787749 
L 65.114712 289.39882 
L 69.038939 292.437034 
L 98.024804 259.75189 
L 101.000595 261.769997 
L 113.698879 247.892793 
L 116.294045 249.423937 
L 107.655702 272.233641 
L 111.019185 273.94276 
L 103.858253 299.04148 
L 108.066511 300.856745 
L 130.203581 255.063353 
L 133.016044 256.072008 
L 119.825414 309.346337 
L 124.349784 310.654465 
L 135.64243 283.623833 
L 139.350208 284.447357 
L 141.983407 291.501242 
L 145.935733 292.121497 
L 154.352264 251.792618 
L 157.049949 252.043602 
L 157.258314 306.907407 
L 161.687491 307.039768 
L 166.299682 317.499042 
L 171.057413 317.341886 
L 175.549844 313.8247 
L 180.187472 313.378516 
L 177.00088 258.591607 
L 179.901141 258.127107 
L 191.67853 300.134144 
L 195.877722 299.187607 
L 186.35527 248.427281 
L 188.931317 247.673685 
L 200.399656 272.723846 
L 203.732697 271.51665 
L 213.527824 285.814876 
L 217.265984 284.188429 
L 205.655542 251.38265 
L 208.31497 250.02075 
L 218.538109 261.849305 
L 221.520262 260.077173 
L 209.808711 236.034452 
L 211.983504 234.549555 
L 255.326551 287.638867 
L 259.101395 284.697275 
L 242.856943 258.416758 
L 245.719146 255.881686 
L 227.155122 231.334446 
L 229.17356 229.306463 
L 257.986148 251.537891 
L 260.624584 248.530525 
L 237.351265 224.863686 
L 239.161207 222.518314 
L 280.49394 247.797242 
L 283.003633 244.084031 
L 292.27182 244.48316 
L 294.671487 240.401265 
L 241.357198 207.004346 
L 242.603623 204.541849 
L 262.141382 210.275388 
L 263.480379 207.157774 
L 295.635659 215.583171 
L 297.124984 211.409798 
L 261.508412 195.932078 
L 262.396737 192.841457 
L 292.960873 196.780864 
L 293.860335 192.700889 
L 270.028428 184.376104 
L 270.549195 181.023308 
L 262.157493 176.71056 
L 262.44113 173.609034 
L 311.697683 172.661917 
L 311.829529 168.004741 
L 315.84024 163.26976 
L 315.674727 158.486977 
L 250.35432 159.038619 
L 250.088149 156.316949 
L 263.28223 151.631717 
L 262.776778 148.507226 
L 314.177011 134.448966 
L 313.106131 129.732727 
L 282.401489 133.227188 
L 281.307905 129.510646 
L 277.81533 126.620733 
L 276.516292 123.051656 
L 284.762436 115.485143 
L 283.109837 111.70314 
L 274.120881 111.543442 
L 272.349607 108.097981 
L 243.250061 120.368845 
L 241.77154 117.889667 
L 249.614745 109.233987 
L 247.782973 106.560195 
L 277.330061 80.135999 
L 274.569681 76.605164 
L 225.929258 112.560421 
L 224.213787 110.629708 
L 251.240877 80.622903 
L 248.508706 77.912128 
L 268.353622 50.184618 
L 264.655943 46.95083 
L 231.304619 81.031117 
L 228.59514 78.94698 
L 217.075849 89.502017 
L 214.639749 87.861075 
L 231.374808 54.635442 
L 227.835356 52.562148 
L 230.586577 38.476607 
L 226.539446 36.436087 
L 215.53786 49.964958 
L 211.859388 48.391922 
L 206.726575 50.707658 
L 203.075812 49.4113 
L 203.586631 34.358522 
L 199.423368 33.168975 
L 185.26374 74.436238 
L 182.369667 73.802987 
L 187.816829 24.042557 
L 183.337006 23.353948 
L 176.8903 41.223825 
L 172.956096 40.870274 
L 168.329235 56.730406 
L 164.886825 56.638368 
L 160.735525 22.037562 
L 156.206051 22.201439 
L 156.174674 76.269891 
L 153.352638 76.550358 
L 148.546244 63.37684 
L 145.322594 63.903536 
L 131.7528 15.695629 
L 127.038251 16.773923 
L 126.686805 33.512084 
L 122.53495 34.740855 
L 123.981751 52.069574 
L 120.414721 53.374222 
L 125.936745 76.318185 
L 123.131178 77.549375 
L 102.466612 42.804976 
L 98.618921 44.790688 
L 119.79726 90.131318 
L 117.429043 91.548716 
L 99.063457 68.896354 
L 96.037818 70.976168 
L 101.843512 84.693798 
L 99.313205 86.678391 
L 99.477848 91.788786 
L 97.171792 93.844252 
L 59.99297 60.311103 
L 56.71671 63.623624 
L 43.969239 58.419818 
L 40.641435 62.237094 
L 99.927182 115.649187 
L 98.371128 117.678728 
L 77.037516 105.978496 
L 75.188712 108.73252 
L 32.778615 86.953471 
L 30.353505 91.108498 
L 80.88116 122.913772 
L 79.562937 125.53857 
L 40.801729 111.524065 
L 39.145206 115.414679 
L 46.67073 122.717297 
L 45.363244 126.417843 
L 73.471682 138.979413 
L 72.662261 141.829237 
L 28.033734 134.442183 
L 27.104119 138.722919 
L 23.927386 142.630012 
L 23.257244 147.035812 
L 25.929497 151.794155 
L 25.546507 156.132475 
L 26.909198 160.546509 
L 26.800916 164.849697 
L 67.079029 168.267966 
L 67.193665 171.304309 
L 15.253233 178.774206 
L 15.723833 183.43487 
L 56.162575 182.149424 
L 56.719072 185.52214 
L 70.767289 186.012816 
L 71.438039 188.924418 
L 32.661381 202.909187 
L 33.88223 207.010568 
L 27.630835 213.730141 
L 29.194406 217.984344 
L 64.274068 208.097458 
L 65.642417 211.202302 
L 76.476815 209.594084 
L 77.886188 212.314507 
L 38.971598 238.404098 
L 41.305365 242.289522 
L 35.05077 251.906693 
L 37.811027 255.908721 
L 66.317788 240.30513 
L 68.697807 243.329791 
L 42.566755 271.057335 
L 45.925434 274.813575 
L 67.777396 260.400644 
L 70.788541 263.369475 
L 60.449928 281.227351 
L 64.119533 284.416277 
L 65.891883 290.016311 
L 69.835141 293.029785 
L 98.614861 260.162982 
L 101.603286 262.162333 
L 114.21404 248.205539 
L 116.818784 249.72033 
L 108.324072 272.583913 
L 111.698238 274.271844 
L 104.695304 299.415106 
L 108.914896 301.203867 
L 130.763514 255.272152 
L 133.582265 256.263097 
L 120.726961 309.619335 
L 125.259469 310.898981 
L 136.381885 283.797859 
L 140.094769 284.598047 
L 142.772281 291.635231 
L 146.72843 292.230616 
L 154.891148 251.8496 
L 157.590358 252.083612 
L 158.143781 306.945021 
L 162.573703 307.049523 
L 167.251586 317.479581 
L 172.008235 317.292505 
L 176.478455 313.747134 
L 181.113185 313.27179 
L 177.582078 258.506007 
L 180.47936 258.023276 
L 192.520716 299.955409 
L 196.713872 298.98248 
L 186.872355 248.283049 
L 189.443611 247.513265 
L 201.069275 272.490802 
L 204.394657 271.262667 
L 214.279518 285.499004 
L 218.007375 283.849079 
L 206.190832 251.116972 
L 208.841642 249.738372 
L 219.138974 261.502395 
L 222.109923 259.711542 
L 210.247388 235.742956 
L 212.412799 234.24441 
L 256.08889 287.060069 
L 259.845159 284.094793 
L 243.435739 257.916964 
L 246.281941 255.36394 
L 227.563895 230.933943 
L 229.569539 228.893306 
L 258.52138 250.94308 
L 261.140849 247.919179 
L 237.71914 224.399183 
L 239.514295 222.042474 
L 281.0052 247.060943 
L 283.49149 243.332021 
L 292.762003 243.672851 
L 295.135951 239.575944 
L 241.612669 206.515002 
L 242.843581 204.044714 
L 262.417014 209.655259 
L 263.736377 206.529284 
L 295.944011 214.752276 
L 297.407059 210.569619 
L 261.693845 195.316213 
L 262.562715 192.220066 
L 293.151023 195.967165 
L 294.024806 191.881613 
L 270.141012 183.706881 
L 270.640682 180.350877 
L 262.222021 176.090993 
L 262.486146 172.987744 
L 311.735768 171.73085 
L 311.83832 167.072937 
L 315.819171 162.312825 
L 315.623581 157.531177 
L 250.307935 158.493637 
L 250.024652 155.773694 
L 263.189004 151.005572 
L 262.663911 147.884322 
L 313.974708 133.503061 
L 312.874188 128.793651 
L 282.192131 132.481158 
L 281.075194 128.771567 
L 277.564511 125.903678 
L 276.243052 122.342842 
L 284.441444 114.724615 
L 282.765091 110.95308 
L 273.775308 110.849921 
L 271.982399 107.415668 
L 242.960605 119.869309 
L 241.466521 117.399479 
L 249.255132 108.694642 
L 247.40658 106.032423 
L 276.78689 79.422915 
L 274.004358 75.909511 
L 225.591035 112.169978 
L 223.863455 110.250092 
L 250.701284 80.073896 
L 247.952118 77.380358 
L 267.622251 49.528584 
L 263.904307 46.318116 
L 230.767988 80.60749 
L 228.045455 78.540435 
L 216.592777 89.167713 
L 214.146404 87.542125 
L 230.672161 54.211895 
L 227.11974 52.160903 
L 229.782316 38.058337 
L 225.722431 36.043311 
L 214.806152 49.641109 
L 211.11786 48.09124 
L 205.999712 50.439212 
L 202.340868 49.165841 
L 202.757004 34.110148 
L 198.586342 32.946809 
L 184.686541 74.302312 
L 181.788543 73.687276 
L 186.922632 23.893571 
L 182.438567 23.23315 
L 176.10438 41.14322 
L 172.16803 40.81442 
L 167.641012 56.703339 
L 164.198091 56.632953 
L 159.829254 22.058941 
L 155.3009 22.251303 
L 155.609584 76.318882 
L 152.789368 76.617093 
L 147.900215 63.474065 
L 144.679941 64.021026 
L 130.807215 15.899418 
L 126.099541 17.007342 
L 125.853376 33.747383 
L 121.709331 35.002242 
L 123.265091 52.321519 
L 119.706337 53.648576 
L 125.372557 76.557355 
L 122.574789 77.806166 
L 101.692109 43.192422 
L 97.856982 45.202295 
L 119.320069 90.408828 
L 116.960814 91.841094 
L 98.453121 69.304689 
L 95.440623 71.403491 
L 101.332478 85.084335 
L 98.814703 87.084803 
L 99.011484 92.194062 
L 96.718401 94.263991 
L 59.32941 60.965339 
L 56.074049 64.2984 
L 43.294101 59.174871 
L 39.990372 63.013002 
L 99.610877 116.051164 
L 98.067619 118.090452 
L 76.660841 106.524628 
L 74.829394 109.290225 
L 32.283159 87.778342 
L 29.884229 91.948539 
L 80.610922 123.435395 
L 79.309233 126.068431 
L 40.46065 112.29799 
L 38.828628 116.198946 
L 46.399934 123.454088 
L 45.115748 127.162784 
L 73.302634 139.547319 
L 72.511154 142.402178 
L 27.837048 135.295958 
L 26.934375 139.582456 
L 23.782279 143.509451 
L 23.13986 147.919379 
L 25.841988 152.660821 
L 25.48629 157.001464 
L 26.876716 161.406841 
L 26.795501 165.710624 
L 67.094317 168.875499 
L 67.228048 171.911061 
L 15.335624 179.707486 
L 15.835528 184.365098 
L 56.265385 182.82534 
L 56.843084 186.19449 
L 70.894109 186.596801 
L 71.583158 189.504127 
L 32.895223 203.732502 
L 34.141843 207.826124 
L 27.932834 214.584882 
L 29.523131 218.829166 
L 64.539915 208.721845 
L 65.927766 211.818021 
L 76.751834 210.141693 
L 78.17829 212.853197 
L 39.428558 239.187023 
L 41.786716 243.057693 
L 35.592731 252.714011 
L 38.378104 256.698599 
L 66.786164 240.916026 
L 69.185159 243.925658 
L 43.229015 271.817003 
L 46.611252 275.552045 
L 68.372132 261.001962 
L 71.401889 263.951797 
L 61.175798 281.874343 
L 64.865386 285.040126 
L 66.672922 290.628903 
L 70.635055 293.617516 
L 99.207492 260.570355 
L 102.208433 262.550871 
L 114.731157 248.515038 
L 117.345377 250.013417 
L 108.994632 272.929975 
L 112.379347 274.596651 
L 105.534689 299.78346 
L 109.765447 301.545647 
L 131.324749 255.477425 
L 134.149677 256.450622 
L 121.630207 309.886657 
L 126.170674 311.137771 
L 137.122419 283.967231 
L 140.840262 284.744051 
L 143.561981 291.764257 
L 147.521797 292.334747 
L 155.43038 251.903191 
L 158.131008 252.120222 
L 159.029467 306.977066 
L 163.459959 307.053703 
L 168.203349 317.454134 
L 172.958727 317.237145 
L 177.40656 313.66373 
L 182.038209 313.159245 
L 178.162726 258.416754 
L 181.056915 257.91581 
L 193.361762 299.77138 
L 197.548716 298.772098 
L 187.388522 248.135567 
L 189.954887 247.349627 
L 201.737415 272.25355 
L 205.055007 271.004525 
L 215.029211 285.178411 
L 218.746617 283.505072 
L 206.724442 250.847932 
L 209.366529 249.452687 
L 219.737646 261.151713 
L 222.697272 259.34221 
L 210.684223 235.448707 
L 212.840167 233.936571 
L 256.847574 286.476487 
L 260.585119 283.487645 
L 244.01138 257.41354 
L 246.841468 254.842666 
L 227.970142 230.530878 
L 229.962912 228.477667 
L 259.052861 250.344914 
L 261.653259 247.304597 
L 238.084086 223.932376 
L 239.864383 221.564423 
L 281.51182 246.321443 
L 283.974607 242.576957 
L 293.247081 242.859474 
L 295.595214 238.747718 
L 241.865056 206.024061 
L 243.080408 203.54608 
L 262.688741 209.033408 
L 263.988417 205.899197 
L 296.247132 213.919459 
L 297.683844 209.727683 
L 261.875402 194.699194 
L 262.724781 191.597644 
L 293.336051 195.152285 
L 294.184122 191.061319 
L 270.249385 183.036964 
L 270.727938 179.677883 
L 262.282651 175.471032 
L 262.527253 172.366184 
L 311.767996 170.799563 
L 315.86733 166.141096 
z
" clip-path="url(#pd12466d679)" style="fill: #0000ff; opacity: 0.5; stroke: #000000; stroke-width: 1.5; stroke-linejoin: miter"/>
   </g>
  </g>
 </g>
 <defs>
  <clipPath id="pd12466d679">
   <rect x="0" y="-0" width="330.908631" height="332.64"/>
  </clipPath>
 </defs>
</svg>
