<?xml version="1.0" encoding="utf-8" standalone="no"?>
<!DOCTYPE svg PUBLIC "-//W3C//DTD SVG 1.1//EN"
  "http://www.w3.org/Graphics/SVG/1.1/DTD/svg11.dtd">
<svg xmlns:xlink="http://www.w3.org/1999/xlink" width="317.614854pt" height="332.64pt" viewBox="0 0 317.614854 332.64" xmlns="http://www.w3.org/2000/svg" version="1.1">
 <metadata>
  <rdf:RDF xmlns:dc="http://purl.org/dc/elements/1.1/" xmlns:cc="http://creativecommons.org/ns#" xmlns:rdf="http://www.w3.org/1999/02/22-rdf-syntax-ns#">
   <cc:Work>
    <dc:type rdf:resource="http://purl.org/dc/dcmitype/StillImage"/>
    <dc:date>2023-12-09T18:06:22.423448</dc:date>
    <dc:format>image/svg+xml</dc:format>
    <dc:creator>
     <cc:Agent>
      <dc:title>Matplotlib v3.8.2, https://matplotlib.org/</dc:title>
     </cc:Agent>
    </dc:creator>
   </cc:Work>
  </rdf:RDF>
 </metadata>
 <defs>
  <style type="text/css">*{stroke-linejoin: round; stroke-linecap: butt}</style>
 </defs>
 <g id="figure_1">
  <g id="patch_1">
   <path d="M 0 332.64 
L 317.614854 332.64 
L 317.614854 0 
L 0 0 
L 0 332.64 
z
" style="fill: none"/>
  </g>
  <g id="axes_1">
   <g id="patch_2">
    <path d="M 275.976234 168.843905 
L 275.922763 165.443473 
L 251.862543 163.551565 
L 251.654591 160.911938 
L 291.982258 153.143652 
L 291.427222 149.247719 
L 251.29339 152.905624 
L 250.750988 150.289156 
L 298.009656 135.383911 
L 296.893235 131.307244 
L 286.099295 130.373965 
L 284.831239 126.674263 
L 290.628844 120.169823 
L 289.037708 116.332747 
L 302.700873 105.304798 
L 300.636379 101.095501 
L 251.744718 122.655057 
L 250.250949 120.039354 
L 246.719672 118.714784 
L 245.104496 116.259028 
L 244.037576 113.40082 
L 242.256644 111.032023 
L 280.853501 75.208927 
L 277.853529 71.70144 
L 277.558368 65.643857 
L 274.259278 62.244705 
L 222.247152 110.79789 
L 220.395152 109.115518 
L 230.296283 93.196669 
L 227.886881 91.269918 
L 237.208277 73.159838 
L 234.165457 71.025665 
L 237.256006 59.198448 
L 233.774186 57.069677 
L 223.541483 67.243485 
L 220.319396 65.541952 
L 203.592526 92.6156 
L 201.178058 91.528761 
L 221.978778 31.594582 
L 217.636584 29.959809 
L 195.648798 82.851029 
L 192.931238 82.018786 
L 192.100076 73.787656 
L 189.099299 73.071473 
L 188.232989 61.064888 
L 184.834092 60.476586 
L 180.078438 70.726981 
L 176.987369 70.390299 
L 177.248474 15.407237 
L 172.419431 15.186886 
L 167.616213 34.430719 
L 163.390073 34.503822 
L 160.362698 53.211028 
L 156.730638 53.502912 
L 153.011431 53.142617 
L 149.380855 53.665675 
L 139.194633 20.167809 
L 134.534088 21.141601 
L 146.738788 87.32611 
L 144.186117 88.029492 
L 123.889534 34.479736 
L 119.686554 35.927677 
L 127.8194 68.367625 
L 124.679987 69.675248 
L 128.189572 85.047072 
L 125.574414 86.334809 
L 94.237353 35.63945 
L 90.085498 38.019147 
L 91.409613 48.995745 
L 87.679108 51.457749 
L 80.384392 49.044175 
L 76.66086 51.852812 
L 102.652505 90.423002 
L 100.219004 92.511022 
L 89.370516 85.684296 
L 86.794587 88.192274 
L 63.416595 71.264029 
L 60.400094 74.595185 
L 98.642817 111.894573 
L 96.886412 114.09805 
L 95.826256 116.808148 
L 94.225737 119.097755 
L 41.087258 88.869764 
L 38.63536 92.894298 
L 76.986373 119.215575 
L 75.470864 122.096359 
L 85.244399 130.255672 
L 84.071932 132.871347 
L 62.84951 127.615841 
L 61.605114 130.936965 
L 62.67182 135.005471 
L 61.659858 138.328528 
L 47.274948 138.26275 
L 46.373014 142.068309 
L 88.867415 154.02322 
L 88.44046 156.513227 
L 39.023975 152.967135 
L 38.588459 157.024852 
L 89.945247 164.18489 
L 89.837264 166.635984 
L 21.827573 169.303038 
L 21.914195 173.89337 
L 14.437039 178.988488 
L 14.831847 183.806406 
L 88.921479 179.074353 
L 89.28216 181.550275 
L 16.921708 198.152407 
L 17.917843 202.882727 
L 27.285428 205.43823 
L 28.505522 209.839089 
L 63.620577 203.101786 
L 64.749242 206.361344 
L 79.60735 204.13269 
L 80.760525 206.889079 
L 76.417504 212.25916 
L 77.82777 215.111826 
L 65.139926 225.785699 
L 66.981072 228.98627 
L 59.812213 237.956108 
L 62.038658 241.318177 
L 57.514072 249.629129 
L 60.108679 253.057684 
L 101.968967 223.753823 
L 103.728018 225.797413 
L 80.302978 251.679594 
L 82.950788 254.390602 
L 77.783968 265.495201 
L 80.867417 268.278582 
L 113.437103 235.132151 
L 115.548243 236.809532 
L 120.871579 234.032041 
L 122.944453 235.476209 
L 92.164902 289.17032 
L 95.985638 291.489827 
L 123.512248 250.264003 
L 126.094185 251.617117 
L 107.532715 298.412471 
L 111.636446 300.244211 
L 138.858494 242.949404 
L 141.202856 243.823615 
L 130.622374 285.088611 
L 134.295758 286.200949 
L 130.829135 315.661964 
L 135.46371 316.752684 
L 150.304796 263.016362 
L 153.274448 263.520755 
L 155.885295 266.998868 
L 158.977407 267.325829 
L 162.57235 259.072385 
L 165.411929 259.193009 
L 168.472532 305.573207 
L 172.771282 305.485325 
L 174.977554 274.433303 
L 178.293981 274.156285 
L 178.684712 251.563409 
L 181.280226 251.181138 
L 183.417024 248.443182 
L 185.912092 247.913659 
L 190.543362 255.52578 
L 193.257598 254.768688 
L 215.581597 313.33784 
L 220.101192 311.764907 
L 206.423325 264.89316 
L 209.424242 263.632135 
L 208.061383 253.212936 
L 210.694237 251.906183 
L 213.284703 250.517292 
L 215.830218 249.047638 
L 214.989375 242.298359 
L 217.275626 240.779171 
L 218.598194 237.943805 
L 220.745744 236.3133 
L 242.169999 257.72522 
L 244.927865 255.343785 
L 247.609491 252.876815 
L 250.212223 250.326748 
L 231.790027 228.245896 
L 233.62613 226.205406 
L 270.676876 252.963 
L 273.270913 249.687601 
L 258.190174 233.717876 
L 260.185276 230.844602 
L 298.746295 250.880174 
L 301.260965 246.723241 
L 263.577931 220.763906 
L 265.163068 217.727634 
L 242.821959 203.599264 
L 243.877664 201.224092 
L 242.69843 197.976536 
L 243.577406 195.608028 
L 272.353098 202.117166 
L 273.347602 198.814203 
L 257.751674 191.354636 
L 258.415 188.516095 
L 251.391982 184.256918 
L 251.835284 181.621848 
L 256.797404 179.526702 
L 257.089305 176.724014 
L 264.234219 174.306866 
L 264.35832 171.272928 
L 275.974095 168.163711 
L 275.899238 164.763683 
L 251.827595 163.023138 
L 251.603045 160.38487 
L 291.881057 152.3631 
L 291.301529 148.470735 
L 251.191497 152.380986 
L 250.632649 149.767981 
L 297.796637 134.565801 
L 296.654598 130.496237 
L 285.855001 129.630863 
L 284.563701 125.93921 
L 290.320283 119.398435 
L 288.705045 115.571443 
L 302.29858 104.457778 
L 300.207653 100.261549 
L 251.452557 122.128179 
L 249.942366 119.521923 
L 246.402827 118.219588 
L 244.772238 115.77404 
L 243.687363 112.922599 
L 241.891568 110.565049 
L 280.262355 74.49991 
L 277.240382 71.01136 
L 276.907128 64.955754 
L 273.586725 61.577418 
L 221.880999 110.45677 
L 220.018454 108.786079 
L 229.819269 92.805272 
L 227.397797 90.893713 
L 236.605107 72.725365 
L 233.548924 70.610372 
L 236.565025 58.763951 
L 233.069885 56.657121 
L 222.901372 66.895086 
L 219.668647 65.213851 
L 203.112386 92.392167 
L 200.69113 91.320534 
L 221.114486 31.256716 
L 216.762097 29.649286 
L 195.107402 82.67775 
L 192.384661 81.862615 
L 191.501746 73.636875 
L 188.496523 72.93958 
L 187.554717 60.938681 
L 184.152186 60.371768 
L 179.461095 70.651871 
L 176.367971 70.334636 
L 176.283258 15.351019 
L 171.452924 15.161045 
L 166.770835 34.434707 
L 162.545237 34.534388 
L 159.63558 53.260265 
L 156.005428 53.574986 
L 152.284029 53.238091 
L 148.656814 53.783972 
L 138.260111 20.350835 
L 133.605782 21.353919 
L 146.226504 87.460359 
L 143.678307 88.179782 
L 123.045329 34.758739 
L 118.851539 36.233086 
L 127.188252 68.621241 
L 124.057126 69.948583 
L 127.663321 85.29803 
L 125.056314 86.602189 
L 93.401028 36.104925 
L 89.264222 38.510688 
L 90.657348 49.478741 
L 86.942401 51.964159 
L 79.632649 49.596513 
L 75.926856 52.428513 
L 102.160571 90.834467 
L 99.740251 92.937751 
L 88.849041 86.179391 
L 86.288937 88.70352 
L 62.804938 71.922645 
L 59.809447 75.272707 
L 98.286006 112.330832 
L 96.543495 114.545312 
L 95.500404 117.262025 
L 93.914318 119.561652 
L 40.586773 89.66847 
L 38.160235 93.708346 
L 76.676035 119.787897 
L 75.178675 122.678155 
L 85.003334 130.775836 
L 83.847342 133.398833 
L 62.592285 128.276909 
L 61.368801 131.605794 
L 62.461076 135.66751 
L 61.470033 138.996867 
L 47.084994 139.021563 
L 46.207013 142.832719 
L 88.775763 154.520127 
L 88.364477 157.012771 
L 38.926667 153.777551 
L 38.51668 157.837927 
L 89.917485 164.674818 
L 89.82492 167.126543 
L 21.833348 170.221286 
L 21.94884 174.810983 
L 14.503876 179.953026 
L 14.928979 184.768366 
L 88.987383 179.570425 
L 89.363629 182.04403 
L 17.109026 199.10094 
L 18.134893 203.824901 
L 27.518365 206.321436 
L 28.766114 210.714535 
L 63.8381 203.756512 
L 64.987245 207.008906 
L 79.831041 204.686847 
L 81.00153 207.435928 
L 76.692369 212.833218 
L 78.120549 215.676959 
L 65.500088 226.43042 
L 67.361328 229.619348 
L 60.249026 238.634097 
L 62.496573 241.982095 
L 58.024348 250.32134 
L 60.640466 253.733509 
L 102.315622 224.16695 
L 104.087491 226.199436 
L 80.825698 252.228435 
L 83.490507 254.922737 
L 78.393631 266.059612 
L 81.494525 268.823545 
L 113.855095 235.472925 
L 115.976743 237.136995 
L 121.282504 234.326078 
L 123.36442 235.75718 
L 92.923183 289.643815 
L 96.758432 291.939246 
L 124.025211 250.54111 
L 126.615607 251.877959 
L 108.34882 298.789129 
L 112.463991 300.595022 
L 139.325148 243.130137 
L 141.674963 243.989586 
L 131.354223 285.320312 
L 135.03453 286.409524 
L 131.753269 315.891759 
L 136.394612 316.953309 
L 150.897434 263.124708 
L 153.8702 263.610413 
L 156.502871 267.072037 
L 159.596978 267.379544 
L 163.13994 259.103653 
L 165.980222 259.206415 
L 169.332469 305.566446 
L 173.630581 305.451529 
L 175.64151 274.386245 
L 178.956129 274.088374 
L 179.204756 251.493488 
L 181.797814 251.0949 
L 183.91735 248.343559 
L 186.409038 247.798353 
L 191.088092 255.381196 
L 193.797514 254.607048 
L 216.489437 313.034636 
L 220.99905 311.433308 
L 207.026657 264.648514 
L 210.019583 263.36864 
L 208.59122 252.95822 
L 211.215804 251.634933 
L 213.797483 250.229777 
L 216.333704 248.744142 
L 215.450429 242.000285 
L 217.72708 240.466747 
L 219.031789 237.62312 
L 221.169041 235.97914 
L 242.727542 257.25589 
L 245.470376 254.857157 
L 248.136432 252.373369 
L 250.723074 249.806983 
L 232.162366 227.842434 
L 233.9856 225.790436 
L 271.203903 252.314472 
L 273.777289 249.022823 
L 258.596407 233.148264 
L 260.573398 230.262498 
L 299.259667 250.055147 
L 301.748143 245.88248 
L 263.902585 220.160664 
L 265.468594 217.114482 
L 243.039067 203.126904 
L 244.079813 200.745139 
L 242.880177 197.505064 
L 243.744238 195.131075 
L 272.560301 201.459101 
L 273.534011 198.149948 
L 257.891475 190.788619 
L 258.536935 187.945962 
L 251.487268 183.73104 
L 251.913989 181.093235 
L 256.862833 178.966921 
L 257.137101 176.162452 
L 264.266671 173.700415 
L 264.371688 170.665756 
L 275.967678 167.483544 
L 275.871438 164.084054 
L 251.789324 162.49494 
L 251.548186 159.858137 
L 291.774948 151.5832 
L 291.170951 147.694556 
L 251.086305 151.857 
L 250.511034 149.247561 
L 297.578476 133.749048 
L 296.410865 129.686746 
L 285.606039 128.889313 
L 284.291546 125.205854 
L 290.006876 118.629003 
L 288.367601 114.812246 
L 301.890968 103.613305 
L 299.773691 99.43031 
L 251.157087 121.603149 
L 249.630534 119.006443 
L 246.082875 117.726396 
L 244.436937 115.291151 
L 243.33415 112.446589 
L 241.523562 110.100381 
L 279.666761 73.794625 
L 276.622907 70.325151 
L 276.251573 64.27176 
L 272.909987 60.914375 
L 221.512708 110.117959 
L 219.639693 108.459016 
L 229.339803 92.416884 
L 226.906356 90.520592 
L 235.999215 72.294695 
L 232.929791 70.198965 
L 235.871325 58.333808 
L 232.363003 56.249003 
L 222.259082 66.550719 
L 219.015848 64.889849 
L 202.63085 92.171757 
L 200.202902 91.115375 
L 220.248087 30.924293 
L 215.885674 29.344268 
L 194.564926 82.507879 
L 191.837112 81.709885 
L 190.90248 73.489861 
L 187.892931 72.811481 
L 186.875664 60.816743 
L 183.469635 60.27124 
L 178.843293 70.580645 
L 175.748234 70.28287 
L 175.317707 15.300874 
L 170.486275 15.141283 
L 165.925498 34.444011 
L 161.700611 34.570268 
L 158.908787 53.314074 
L 155.280686 53.651621 
L 151.557241 53.338137 
L 147.933531 53.906821 
L 137.326758 20.539734 
L 132.678831 21.572072 
L 145.715075 87.597827 
L 143.171453 88.333262 
L 122.202895 35.043046 
L 118.018461 36.54374 
L 126.558712 68.878822 
L 123.435996 70.22583 
L 127.138659 85.552293 
L 124.539906 86.872823 
L 92.567647 36.575651 
L 88.446054 39.007385 
L 89.908135 49.966458 
L 86.208893 52.475192 
L 78.884395 50.153567 
L 75.196487 53.008819 
L 101.671235 91.249018 
L 99.264191 93.367483 
L 88.33069 86.677756 
L 85.786512 89.217937 
L 62.197435 72.585095 
L 59.223074 75.95393 
L 97.931946 112.769327 
L 96.203397 114.994723 
L 95.177414 117.717942 
L 93.605822 120.027499 
L 40.091321 90.470309 
L 37.69024 94.525366 
L 76.369304 120.362158 
L 74.890151 123.261777 
L 84.765546 131.297507 
L 83.626073 133.927722 
L 62.339223 128.939581 
L 61.1367 132.276096 
L 62.254499 136.330862 
L 61.284416 139.666386 
L 46.899817 139.781555 
L 46.045823 143.598157 
L 88.687238 155.017602 
L 88.291638 157.512783 
L 38.834458 154.588563 
L 38.450016 158.651437 
L 89.892804 165.16491 
L 89.815662 167.617169 
L 21.844899 171.13948 
L 21.989254 175.728359 
L 14.576779 180.917126 
L 15.032159 185.729697 
L 89.056406 180.066073 
L 89.448203 182.537262 
L 17.302307 200.048276 
L 18.357865 204.765691 
L 27.756853 207.20316 
L 29.032207 211.588324 
L 64.059738 204.409856 
L 65.229315 207.654959 
L 80.058213 205.239586 
L 81.245969 207.981252 
L 76.970839 213.405537 
L 78.416877 216.240239 
L 65.864299 227.072863 
L 67.745558 230.250021 
L 60.690095 239.309324 
L 62.958654 242.643121 
L 58.538966 251.010329 
L 61.176494 254.405976 
L 102.664869 224.577889 
L 104.449485 226.599191 
L 81.351861 252.773978 
L 84.033562 255.451467 
L 79.006832 266.620178 
L 82.125047 269.364553 
L 114.275221 235.811064 
L 116.407293 237.461756 
L 121.69527 234.617525 
L 123.786146 236.035505 
L 93.684428 290.112532 
L 97.534038 292.383796 
L 124.539906 250.814986 
L 127.138659 252.135516 
L 109.167279 299.160646 
L 113.293726 300.940622 
L 139.79293 243.307932 
L 142.148104 244.152585 
L 132.087515 285.547404 
L 135.7746 286.613448 
L 132.678831 316.115737 
L 137.326758 317.148075 
L 151.490742 263.229324 
L 154.466503 263.696323 
L 157.120894 267.14132 
L 160.216874 267.42936 
L 163.707715 259.13135 
L 166.548587 259.216247 
L 170.192346 305.554277 
L 174.489651 305.412329 
L 176.305157 274.335012 
L 179.617837 274.0163 
L 179.72435 251.420297 
L 182.31485 251.005408 
L 184.41704 248.24079 
L 186.90525 247.679925 
L 191.631903 255.233189 
L 194.336401 254.442015 
L 217.395353 312.725729 
L 221.894805 311.09607 
L 207.628439 264.400079 
L 210.613256 263.101407 
L 209.119445 252.700176 
L 211.735654 251.360408 
L 214.308445 249.939043 
L 216.835272 248.437486 
L 215.9096 241.699318 
L 218.17656 240.151491 
L 219.463358 237.299714 
L 221.590229 235.642325 
L 243.282122 256.783063 
L 246.009815 254.367126 
L 248.660197 251.86662 
L 251.230647 249.284016 
L 232.532161 227.436637 
L 234.342453 225.373213 
L 271.726841 251.662643 
L 274.279473 248.354874 
L 258.99905 232.576107 
L 260.957852 229.677965 
L 299.767841 249.226907 
L 302.230023 245.038672 
L 264.223438 219.555391 
L 265.770257 216.49942 
L 243.2532 202.653188 
L 244.278945 200.264925 
L 243.058955 197.032459 
L 243.908068 194.653082 
L 272.76336 200.799746 
L 273.716239 197.484535 
L 258.027714 190.221734 
L 258.655282 187.375073 
L 251.579245 183.204573 
L 251.989367 180.564136 
L 256.92474 178.406739 
L 257.181364 175.600601 
L 264.295308 173.093771 
L 264.381237 170.058513 
L 275.956983 166.803431 
L 275.839364 163.404614 
L 251.747732 161.966994 
L 251.490015 159.33176 
L 291.663937 150.803982 
L 291.035494 146.919215 
L 250.977821 151.333686 
L 250.386149 148.727917 
L 297.355183 132.933682 
L 296.162045 128.878805 
L 285.352418 128.149343 
L 284.014784 124.474225 
L 289.688637 117.861558 
L 288.025388 114.055186 
L 301.478053 102.771412 
L 299.334509 98.601816 
L 250.858322 121.079988 
L 249.315467 118.492935 
L 245.759827 117.235225 
L 244.098605 114.810381 
L 242.977949 111.972811 
L 241.152641 109.638037 
L 279.066743 73.0931 
L 276.001128 69.642838 
L 275.591729 63.591903 
L 272.229094 60.255601 
L 221.142294 109.781471 
L 219.258881 108.134342 
L 228.857903 92.031518 
L 226.412579 90.150569 
L 235.390627 71.867843 
L 232.308082 69.79146 
L 235.174934 57.908037 
L 231.653568 55.845338 
L 221.614639 66.210399 
L 218.361023 64.56996 
L 202.147937 91.954381 
L 199.713393 90.913289 
L 219.379614 30.597325 
L 215.00735 29.044769 
L 194.021392 82.341424 
L 191.288614 81.560602 
L 190.3023 73.346619 
L 187.288544 72.68718 
L 186.195857 60.699078 
L 182.786465 60.175008 
L 178.225055 70.513306 
L 175.128185 70.235003 
L 174.35186 15.256802 
L 169.51952 15.127601 
L 165.080236 34.458633 
L 160.856227 34.611458 
L 158.182346 53.372453 
L 154.55644 53.732812 
L 150.831097 53.442753 
L 147.211035 54.034217 
L 136.394612 20.7345 
L 131.753269 21.796051 
L 145.204521 87.738509 
L 142.665575 88.489928 
L 121.362265 35.332646 
L 117.187353 36.859628 
L 125.930805 69.140356 
L 122.816622 70.506978 
L 126.615607 85.80985 
L 124.025211 87.146699 
L 91.737243 37.05161 
L 87.631026 39.509218 
L 89.162004 50.458879 
L 85.478614 52.990829 
L 78.139659 50.715317 
L 74.469782 53.593707 
L 101.184515 91.666638 
L 98.790843 93.8002 
L 87.815484 87.179372 
L 85.287332 89.735504 
L 61.594111 73.251352 
L 58.640997 76.638828 
L 97.580651 113.21004 
L 95.866133 115.446263 
L 94.857298 118.175881 
L 93.300263 120.495278 
L 39.600922 91.275247 
L 37.225392 95.345326 
L 76.06619 120.938338 
L 74.605303 123.847202 
L 84.531043 131.820662 
L 83.408136 134.457993 
L 62.090334 129.603832 
L 60.90882 132.947844 
L 62.052098 136.9955 
L 61.103013 140.337059 
L 46.719423 140.542697 
L 45.88945 144.364595 
L 88.601844 155.515623 
L 88.221945 158.013243 
L 38.747351 155.400138 
L 38.38847 159.46535 
L 89.871207 165.655149 
L 89.809489 168.107844 
L 21.862224 172.057582 
L 22.035438 176.645463 
L 14.655744 181.880748 
L 15.141383 186.690359 
L 89.128545 180.561277 
L 89.535876 183.029953 
L 17.501542 200.994377 
L 18.586749 205.70506 
L 28.000881 208.083367 
L 29.30379 212.460423 
L 64.28548 205.061793 
L 65.475444 208.299476 
L 80.288858 205.790886 
L 81.493833 208.525027 
L 77.252904 213.976093 
L 78.716741 216.801644 
L 66.232543 227.713002 
L 68.133748 230.878266 
L 61.135401 239.981765 
L 63.424883 243.301227 
L 59.057908 251.696067 
L 61.71674 255.075059 
L 103.016693 224.986623 
L 104.813987 226.99666 
L 81.881444 253.316202 
L 84.579932 255.97677 
L 79.623546 267.176876 
L 82.75896 269.901585 
L 114.697466 236.146553 
L 116.839877 237.783803 
L 122.109861 234.90637 
L 124.209614 236.311171 
L 94.448605 290.576452 
L 98.312424 292.823459 
L 125.056314 251.08562 
L 127.663321 252.389779 
L 109.988057 299.527008 
L 114.125618 301.280996 
L 140.261822 243.482781 
L 142.622261 244.312604 
L 132.822221 285.769881 
L 136.515938 286.812714 
L 133.605782 316.33389 
L 138.260111 317.336974 
L 152.084695 263.330207 
L 155.063336 263.77848 
L 157.739341 267.206715 
L 160.837071 267.475277 
L 164.275654 259.155476 
L 167.117003 259.222503 
L 171.05213 305.5367 
L 175.348457 305.367727 
L 176.968468 274.279606 
L 180.279078 273.940066 
L 180.243473 251.34384 
L 182.831313 250.912666 
L 184.916073 248.134882 
L 187.400706 247.558378 
L 192.174771 255.081765 
L 194.874241 254.273597 
L 218.299307 312.41113 
L 222.788421 310.753204 
L 208.228646 264.147864 
L 211.205236 262.830445 
L 209.646037 252.438815 
L 212.253768 251.082619 
L 214.817568 249.6451 
L 217.334901 248.127681 
L 216.366868 241.395468 
L 218.624049 239.833414 
L 219.892885 236.9736 
L 222.00929 235.302867 
L 243.833717 256.306757 
L 246.546161 253.873713 
L 249.180764 251.356586 
L 251.73492 248.757867 
L 232.899396 227.028523 
L 234.696675 224.953754 
L 272.245669 251.007537 
L 274.777447 247.683779 
L 259.398086 232.00143 
L 261.338622 229.091025 
L 300.270795 248.395487 
L 302.706587 244.19185 
L 264.540478 218.948113 
L 266.068046 215.882474 
L 243.464349 202.178135 
L 244.475054 199.783467 
L 243.234757 196.558739 
L 244.068889 194.174068 
L 272.962269 200.139128 
L 273.894278 196.817989 
L 258.160384 189.654003 
L 258.770036 186.803452 
L 251.667909 182.677539 
L 252.061416 180.034575 
L 256.983122 177.84618 
L 257.222093 175.038482 
L 264.320129 172.48696 
L 264.386966 169.451221 
L 275.942011 166.123398 
L 275.803018 162.725388 
L 251.70282 161.43932 
L 251.428534 158.805759 
L 291.548027 150.025478 
L 290.895163 146.14474 
L 250.866047 150.811064 
L 250.257998 148.209068 
L 297.126766 132.119737 
L 295.908149 128.072444 
L 285.094148 127.410984 
L 283.733426 123.744351 
L 289.365576 117.096129 
L 287.678421 113.300293 
L 301.059851 101.932133 
L 298.890125 97.776101 
L 250.556272 120.558716 
L 248.997176 117.981418 
L 245.433696 116.746096 
L 243.757257 114.331748 
L 242.618776 111.501283 
L 240.778819 109.178035 
L 278.462324 72.395362 
L 275.37507 68.96445 
L 274.927622 62.916209 
L 271.54407 59.601122 
L 220.76977 109.44732 
L 218.876035 107.812068 
L 228.37359 91.649191 
L 225.916483 89.783658 
L 234.779366 71.444828 
L 231.683823 69.387873 
L 234.475878 57.486655 
L 230.941609 55.446144 
L 220.968069 65.874139 
L 217.7042 64.254196 
L 201.663667 91.740046 
L 199.222623 90.714287 
L 218.509101 30.275827 
L 214.127159 28.7508 
L 193.476823 82.178391 
L 190.739187 81.414772 
L 189.701232 73.207154 
L 186.683388 72.566684 
L 185.515324 60.585691 
L 182.102704 60.083074 
L 177.606406 70.449856 
L 174.507846 70.191036 
L 173.385756 15.218805 
L 168.552698 15.12 
L 164.235083 34.47857 
L 160.012119 34.657959 
L 157.456287 53.4354 
L 153.832719 53.818556 
L 150.105625 53.551934 
L 146.489355 54.166154 
L 135.46371 20.935125 
L 130.829135 22.025846 
L 144.694861 87.882399 
L 142.160691 88.649772 
L 120.523474 35.627527 
L 116.358248 37.180737 
L 125.304555 69.405835 
L 122.199029 70.792017 
L 126.094185 86.070693 
L 123.512248 87.423807 
L 90.90985 37.532781 
L 86.81917 40.016167 
L 88.418985 50.955982 
L 84.751593 53.511049 
L 77.398471 51.281739 
L 73.74677 54.183154 
L 100.700432 92.087312 
L 98.320226 94.235887 
L 87.303443 87.684217 
L 84.791418 90.2562 
L 60.994989 73.921391 
L 58.063239 77.327374 
L 97.232135 113.652953 
L 95.531715 115.899916 
L 94.540068 118.635825 
L 92.997651 120.964968 
L 39.115595 92.083254 
L 36.765711 96.168193 
L 75.766706 121.516412 
L 74.324144 124.434407 
L 84.299836 132.345283 
L 83.193537 134.989623 
L 61.845628 130.269636 
L 60.685169 133.621012 
L 61.853882 137.661397 
L 60.925832 141.008859 
L 46.54382 141.304958 
L 45.737901 145.132001 
L 88.519583 156.014171 
L 88.1554 158.514131 
L 38.66535 156.212245 
L 38.332045 160.279634 
L 89.852693 166.145513 
L 89.806403 168.598548 
L 21.885323 172.975558 
L 22.087389 177.562259 
L 14.740768 182.843854 
L 15.256647 187.650316 
L 89.203798 181.056018 
L 89.626647 183.522083 
L 17.706723 201.939206 
L 18.821536 206.642971 
L 28.250441 208.962022 
L 29.580853 213.330797 
L 64.515318 205.712298 
L 65.725621 208.942432 
L 80.522965 206.340724 
L 81.745113 209.067232 
L 77.538551 214.544864 
L 79.020131 217.361152 
L 66.604805 228.350813 
L 68.52588 231.504056 
L 61.584928 240.651391 
L 63.895242 243.956388 
L 59.581153 252.378528 
L 62.261184 255.74073 
L 103.37108 225.393136 
L 105.180981 227.39183 
L 82.414426 253.855083 
L 85.129595 256.498627 
L 80.243749 267.729685 
L 83.396238 270.43462 
L 115.121812 236.47938 
L 117.274479 238.103123 
L 122.526261 235.192602 
L 124.634808 236.584169 
L 95.215685 291.035556 
L 99.09356 293.258218 
L 125.574414 251.353 
L 128.189572 252.640737 
L 110.811124 299.888201 
L 114.959634 301.616131 
L 140.731803 243.654677 
L 143.097414 244.469639 
L 133.558312 285.987732 
L 137.258514 287.007313 
L 134.534088 316.546208 
L 139.194633 317.52 
L 152.679272 263.427352 
L 155.660673 263.856882 
L 158.358187 267.268219 
L 161.457545 267.517293 
L 164.843732 259.176029 
L 167.685448 259.225185 
L 171.911787 305.513715 
L 176.206966 305.317725 
L 177.631418 274.22003 
L 180.939827 273.859674 
L 180.762105 251.264119 
L 183.347182 250.816678 
L 185.414431 248.025836 
L 187.895388 247.433717 
L 192.716677 254.926929 
L 195.41101 254.101799 
L 219.201266 312.090851 
L 223.679863 310.404724 
L 208.827255 263.891879 
L 211.7955 262.555765 
L 210.170975 252.174147 
L 212.770124 250.801576 
L 215.324832 249.347961 
L 217.832572 247.81474 
L 216.822216 241.088748 
L 219.069528 239.512529 
L 220.320353 236.644791 
L 222.426207 234.96078 
L 244.382305 255.826991 
L 247.079393 253.376936 
L 249.698113 250.843289 
L 252.235874 248.228557 
L 233.264058 226.618107 
L 235.048252 224.532075 
L 272.760367 250.349181 
L 275.27119 247.009565 
L 259.7935 231.424254 
L 261.715693 228.501702 
L 300.768509 247.560921 
L 303.177815 243.342047 
L 264.853692 218.338852 
L 266.361949 215.263666 
L 243.672507 201.701763 
L 244.66813 199.300786 
L 243.407576 196.083922 
L 244.226693 193.694052 
L 273.157019 199.477271 
L 274.068121 196.150336 
L 258.289481 189.085449 
L 258.881193 186.23112 
L 251.753257 182.149957 
L 252.130133 179.50457 
L 257.037978 177.285264 
L 257.259285 174.476119 
L 264.341134 171.880004 
L 275.976234 168.843905 
z
" clip-path="url(#p8c57e976e2)" style="fill: #0000ff; opacity: 0.5; stroke: #000000; stroke-width: 1.5; stroke-linejoin: miter"/>
   </g>
  </g>
 </g>
 <defs>
  <clipPath id="p8c57e976e2">
   <rect x="0" y="-0" width="317.614854" height="332.64"/>
  </clipPath>
 </defs>
</svg>
