<?xml version="1.0" encoding="utf-8" standalone="no"?>
<!DOCTYPE svg PUBLIC "-//W3C//DTD SVG 1.1//EN"
  "http://www.w3.org/Graphics/SVG/1.1/DTD/svg11.dtd">
<svg xmlns:xlink="http://www.w3.org/1999/xlink" width="334.8pt" height="326.756636pt" viewBox="0 0 334.8 326.756636" xmlns="http://www.w3.org/2000/svg" version="1.1">
 <metadata>
  <rdf:RDF xmlns:dc="http://purl.org/dc/elements/1.1/" xmlns:cc="http://creativecommons.org/ns#" xmlns:rdf="http://www.w3.org/1999/02/22-rdf-syntax-ns#">
   <cc:Work>
    <dc:type rdf:resource="http://purl.org/dc/dcmitype/StillImage"/>
    <dc:date>2023-12-09T18:06:22.535219</dc:date>
    <dc:format>image/svg+xml</dc:format>
    <dc:creator>
     <cc:Agent>
      <dc:title>Matplotlib v3.8.2, https://matplotlib.org/</dc:title>
     </cc:Agent>
    </dc:creator>
   </cc:Work>
  </rdf:RDF>
 </metadata>
 <defs>
  <style type="text/css">*{stroke-linejoin: round; stroke-linecap: butt}</style>
 </defs>
 <g id="figure_1">
  <g id="patch_1">
   <path d="M 0 326.756636 
L 334.8 326.756636 
L 334.8 0 
L 0 0 
L 0 326.756636 
z
" style="fill: none"/>
  </g>
  <g id="axes_1">
   <g id="patch_2">
    <path d="M 271.219175 171.42641 
L 271.168214 168.185621 
L 268.659635 165.096397 
L 268.410909 161.939215 
L 308.653592 153.658448 
L 308.025459 149.249424 
L 305.713326 145.157486 
L 304.819358 140.845114 
L 319.030961 132.645743 
L 317.737011 127.920821 
L 244.46614 146.602551 
L 243.64789 144.21521 
L 257.383834 136.056417 
L 256.227603 133.26813 
L 281.319917 118.110797 
L 279.587602 114.57878 
L 293.598781 102.376945 
L 291.365688 98.466632 
L 300.300144 87.455031 
L 297.59456 83.341391 
L 286.489761 85.332192 
L 283.724259 81.653829 
L 274.785509 83.083711 
L 271.955096 79.774468 
L 275.89982 70.087408 
L 272.660224 66.749554 
L 245.639324 88.771023 
L 243.002143 86.375388 
L 244.298894 79.210381 
L 241.361768 76.861619 
L 244.35657 66.325706 
L 241.014294 63.981501 
L 245.17656 49.77814 
L 241.313587 47.416334 
L 213.166527 89.329901 
L 210.562974 87.955005 
L 205.243889 92.361055 
L 202.73956 91.233765 
L 201.067327 87.990082 
L 198.427629 86.996274 
L 200.359683 71.862547 
L 197.213251 70.898963 
L 197.931347 54.787925 
L 194.249252 53.909135 
L 196.39586 22.223714 
L 191.690634 21.409304 
L 179.065971 83.983327 
L 176.311171 83.683271 
L 174.657323 65.407499 
L 171.320637 65.255245 
L 167.901637 14.852574 
L 162.978734 14.93773 
L 161.811846 73.280191 
L 158.729046 73.527935 
L 151.258282 39.533504 
L 147.119631 40.12976 
L 142.555393 38.538029 
L 138.389745 39.408415 
L 140.165321 63.261161 
L 136.778204 64.194472 
L 142.959453 94.399391 
L 140.550009 95.229453 
L 132.3465 81.515145 
L 129.537194 82.685272 
L 101.869725 31.310946 
L 97.496957 33.464151 
L 116.022615 77.075395 
L 113.081784 78.760975 
L 104.696271 71.913759 
L 101.598747 73.958017 
L 99.958647 78.005212 
L 97.054995 80.195419 
L 72.094077 55.851181 
L 68.50763 58.928465 
L 75.818469 73.563006 
L 72.787079 76.514429 
L 61.802211 72.038457 
L 58.729816 75.431336 
L 52.120791 75.918905 
L 49.175193 79.614271 
L 40.607947 79.252605 
L 37.77286 83.308311 
L 43.051563 92.489669 
L 40.63147 96.461998 
L 52.837565 108.430143 
L 50.913837 112.086897 
L 38.41366 110.806155 
L 36.571771 114.915254 
L 34.12764 118.792618 
L 32.538982 123.03253 
L 27.339519 126.115211 
L 25.984455 130.564936 
L 17.143489 133.120421 
L 16.013725 137.887268 
L 31.273704 145.73537 
L 30.533595 150.051695 
L 34.614933 154.96669 
L 34.163425 159.173395 
L 18.136407 162.452545 
L 17.928419 167.173669 
L 25.736979 171.874257 
L 25.821472 176.351744 
L 40.178309 179.889759 
L 40.507687 183.909216 
L 26.918363 189.737303 
L 27.563925 194.168813 
L 16.762926 200.827953 
L 17.762224 205.573289 
L 43.275553 203.940622 
L 44.359612 207.850804 
L 62.757422 206.073341 
L 63.898905 209.369916 
L 60.029784 214.674487 
L 61.443055 218.052572 
L 79.308313 213.620786 
L 80.678921 216.393233 
L 74.566985 223.318357 
L 76.24485 226.235087 
L 78.676346 228.673566 
L 80.520559 231.458441 
L 56.425107 253.24365 
L 59.052859 256.716005 
L 77.500666 247.003919 
L 79.921807 249.816696 
L 59.000702 274.726274 
L 62.302642 278.107024 
L 62.491281 284.836394 
L 66.109379 288.102394 
L 90.789885 265.706229 
L 93.792497 268.091918 
L 94.569307 273.574135 
L 97.817435 275.8371 
L 96.109155 285.989599 
L 99.746891 288.198009 
L 120.37843 259.192669 
L 123.161612 260.651249 
L 133.624292 245.614597 
L 135.974 246.663412 
L 123.459372 285.743537 
L 127.075848 287.092118 
L 136.489075 270.341721 
L 139.614842 271.288235 
L 146.998659 255.351069 
L 149.64789 255.97455 
L 142.240244 310.661345 
L 146.630905 311.407094 
L 151.708037 306.547112 
L 155.964656 306.997207 
L 162.657998 265.683173 
L 165.624351 265.809182 
L 168.678563 283.938155 
L 172.215916 283.865838 
L 177.609734 311.157562 
L 181.998509 310.790972 
L 180.53725 265.820115 
L 183.499069 265.383893 
L 192.494593 295.740167 
L 196.391252 294.913187 
L 188.891084 250.581189 
L 191.369627 249.889839 
L 197.775574 261.073899 
L 200.579639 260.098014 
L 221.2469 303.568529 
L 225.375484 301.833643 
L 218.609971 277.2439 
L 221.912155 275.60494 
L 229.752852 282.112887 
L 233.202618 280.121164 
L 212.357664 240.283161 
L 214.500813 238.859062 
L 250.606505 283.654404 
L 254.09443 281.006234 
L 244.372574 262.558148 
L 247.200268 260.116416 
L 246.157647 253.592785 
L 248.702567 251.09936 
L 262.698387 259.235586 
L 265.412551 256.219294 
L 244.27794 233.692221 
L 246.198073 231.267738 
L 248.041025 228.78408 
L 249.804974 226.243704 
L 293.491712 249.969367 
L 295.899301 245.989447 
L 251.147446 216.4324 
L 252.521496 213.800458 
L 253.812112 211.126614 
L 255.018018 208.413513 
L 253.205016 204.522589 
L 254.203578 201.831841 
L 291.104304 210.566729 
L 292.274168 206.681356 
L 275.003222 198.175554 
L 275.791442 194.802561 
L 318.255866 199.113039 
L 319.052177 194.379625 
L 260.328599 182.494751 
L 260.631036 179.590913 
L 273.410723 177.391217 
L 273.546225 174.078572 
L 271.217137 170.77815 
L 271.145794 167.537746 
L 268.617835 164.46436 
L 268.349257 161.308805 
L 308.539063 152.775098 
L 307.883211 148.370112 
L 305.545389 144.292797 
L 304.624315 139.986132 
L 318.784068 131.69754 
L 317.460427 126.98085 
L 244.308503 146.123043 
L 243.475253 143.740896 
L 257.159612 135.495873 
L 255.985867 132.714913 
L 280.982354 117.400063 
L 279.227858 113.879011 
L 293.162017 101.589295 
L 290.904375 97.693104 
L 299.769398 86.625529 
L 297.037995 82.528986 
L 285.945937 84.589591 
L 283.157354 80.928695 
L 274.227774 82.414768 
L 271.376604 79.123391 
L 275.260324 69.411713 
L 271.999799 66.094301 
L 245.117936 88.285281 
L 242.46574 85.906279 
L 243.717401 78.733258 
L 240.765561 76.403015 
L 243.694039 65.848475 
L 240.337085 63.525337 
L 244.409938 49.296079 
L 240.532186 46.958616 
L 212.649296 89.048383 
L 210.037147 87.689889 
L 204.745879 92.129305 
L 202.234509 91.017789 
L 200.541908 87.784688 
L 197.896013 86.807502 
L 199.732846 71.661922 
L 196.580415 70.718146 
L 197.197168 54.60291 
L 193.509618 53.747296 
L 195.456901 22.049001 
L 190.746645 21.264201 
L 178.515788 83.916387 
L 175.759154 83.633664 
L 173.990395 65.368655 
L 170.652818 65.23739 
L 166.916881 14.85722 
L 161.994612 14.973335 
L 161.194687 73.321982 
L 158.113506 73.58911 
L 150.429084 39.642339 
L 146.294265 40.264612 
L 141.720107 38.701619 
L 137.560015 39.598188 
L 139.485576 63.439294 
L 136.104396 64.39389 
L 142.475495 94.559335 
L 140.071319 95.404535 
L 131.781717 81.742093 
L 128.979826 82.929866 
L 100.989789 31.730569 
L 96.63065 33.911234 
L 115.430231 77.405099 
L 112.50006 79.109143 
L 104.071648 72.314802 
L 100.987043 74.378501 
L 99.372429 78.435931 
L 96.48261 80.644358 
L 71.369074 56.45759 
L 67.802052 59.55737 
L 75.204789 74.14564 
L 72.192022 77.116072 
L 61.17922 72.709276 
L 58.128226 76.121412 
L 51.522398 76.650538 
L 48.6001 80.364357 
L 40.030749 80.056581 
L 37.221226 84.130039 
L 42.55757 93.278015 
L 40.162508 97.265487 
L 52.443635 109.156625 
L 50.542944 112.825406 
L 38.034959 111.623309 
L 36.21895 115.743911 
L 33.799254 119.63657 
L 32.237294 123.88639 
L 27.057322 127.001712 
L 25.730272 131.459872 
L 16.905553 134.070911 
L 15.805792 138.844769 
L 31.114829 146.596739 
L 30.401882 150.917633 
L 34.514051 155.806862 
L 34.089011 160.016323 
L 18.082934 163.396209 
L 17.904643 168.118549 
L 25.742612 172.769931 
L 25.855265 177.246799 
L 40.23407 180.694447 
L 40.588721 184.711754 
L 27.036322 190.625194 
L 27.709743 195.052557 
L 16.950839 201.779497 
L 17.979963 206.518454 
L 43.482519 204.725355 
L 44.591149 208.628642 
L 62.977416 206.735501 
L 64.13961 210.024832 
L 60.303929 215.353633 
L 61.738418 218.722763 
L 79.575449 214.178701 
L 80.963467 216.942473 
L 74.895206 223.905901 
L 76.591383 226.81202 
L 79.038168 229.235158 
L 80.89986 232.008379 
L 56.941901 253.944705 
L 59.59144 257.400463 
L 77.977798 247.572543 
L 80.416582 250.370038 
L 59.652559 275.410704 
L 62.975696 278.77062 
L 63.206655 285.498671 
L 66.845223 288.741851 
L 91.384382 266.190902 
L 94.401939 268.557659 
L 95.213214 274.034882 
L 98.47551 276.277373 
L 96.831117 286.440415 
L 100.482671 288.625903 
L 120.931375 259.491375 
L 123.723675 260.932422 
L 134.091576 245.830263 
L 136.447835 246.864279 
L 124.179245 286.022341 
L 127.804132 287.34815 
L 137.111823 270.53888 
L 140.243481 271.465716 
L 147.526915 255.482425 
L 150.180016 256.089232 
L 143.116465 310.821535 
L 147.51173 311.539655 
L 152.558194 306.647836 
L 156.81756 307.071151 
L 163.250928 265.715837 
L 166.218015 265.823186 
L 169.386188 283.932591 
L 172.923016 283.838029 
L 178.488376 311.095288 
L 182.874759 310.701103 
L 181.130687 265.740325 
L 184.089704 265.285484 
L 193.275975 295.584581 
L 197.167356 294.73311 
L 189.388512 250.44916 
L 191.862659 249.742236 
L 198.33882 260.885784 
L 201.136691 259.892282 
L 222.076949 303.231953 
L 226.19454 301.471135 
L 219.274505 276.924429 
L 222.566315 275.264733 
L 230.447789 281.723237 
L 233.88496 279.709856 
L 212.78986 240.003744 
L 214.924009 238.566194 
L 251.310725 283.133566 
L 254.781925 280.463511 
L 244.944234 262.076935 
L 247.756515 259.617467 
L 246.672884 253.100522 
L 249.202072 250.591141 
L 263.248787 258.63918 
L 265.943927 255.605877 
L 244.668051 233.212174 
L 246.572897 230.775662 
L 248.400192 228.280463 
L 250.148129 225.729042 
L 293.983223 249.179471 
L 296.365733 245.184488 
L 251.428867 215.90949 
L 252.786336 213.268958 
L 254.060109 210.587049 
L 255.248928 207.866417 
L 253.41149 203.986973 
L 254.393109 201.289998 
L 291.348043 209.792629 
L 292.493447 205.899975 
L 275.169346 197.502965 
L 275.936335 194.125081 
L 318.427031 198.168397 
L 319.193555 193.430068 
L 260.39639 181.914767 
L 260.680557 179.009085 
L 273.446156 176.729055 
L 273.560821 173.415624 
L 271.211021 170.129915 
L 271.119299 166.890024 
L 268.57206 163.832598 
L 268.283641 160.678795 
L 308.41898 151.892486 
L 307.735436 147.491711 
L 305.372016 143.429181 
L 304.423875 139.128394 
L 318.531217 130.750909 
L 317.177936 126.042637 
L 244.147852 145.644536 
L 243.299637 143.267676 
L 256.931868 134.93675 
L 255.740656 132.163227 
L 280.640327 116.691467 
L 278.863721 113.181519 
L 292.720309 100.804408 
L 290.438206 96.922494 
L 299.233445 85.799381 
L 296.476331 81.720099 
L 285.397453 83.850425 
L 282.5859 80.20714 
L 273.665843 81.749345 
L 270.794029 78.475967 
L 274.616591 68.740054 
L 271.335265 65.443214 
L 244.593503 87.802827 
L 241.926397 85.440553 
L 243.132919 78.259801 
L 240.166482 75.94817 
L 243.028519 65.37542 
L 239.657021 63.073442 
L 243.640299 48.818849 
L 239.747923 46.505821 
L 212.130304 88.770123 
L 209.509663 87.428085 
L 204.246421 91.900693 
L 201.72811 90.804994 
L 200.015209 87.582602 
L 197.363219 86.622076 
L 199.104759 71.465243 
L 195.946455 70.541313 
L 196.46184 54.422517 
L 192.768982 53.590112 
L 194.516861 21.880197 
L 189.801763 21.125037 
L 177.965194 83.85291 
L 175.206837 83.587529 
L 173.323236 65.334006 
L 169.9849 65.223735 
L 165.932174 14.868058 
L 161.010732 15.01513 
L 160.577803 73.367654 
L 157.498364 73.654155 
L 149.600588 39.756386 
L 145.469764 40.404653 
L 140.885866 38.87046 
L 136.731496 39.793175 
L 138.806965 63.6217 
L 135.431856 64.597542 
L 141.992552 94.72232 
L 139.59374 95.582624 
L 131.218373 81.972589 
L 128.424008 83.177961 
L 100.112509 32.155718 
L 95.767172 34.363757 
L 114.839933 77.738522 
L 111.920537 79.460961 
L 103.449559 72.719765 
L 100.377995 74.802824 
L 98.788932 78.870329 
L 95.913059 81.096887 
L 70.647899 57.068548 
L 67.100444 60.190701 
L 74.594787 74.732124 
L 71.600762 77.721445 
L 60.560461 73.384001 
L 57.530987 76.815258 
L 50.928618 77.385921 
L 48.029736 81.118046 
L 39.458618 80.864172 
L 36.674771 84.955219 
L 42.068545 94.069452 
L 39.69861 98.071909 
L 52.054282 109.885571 
L 50.176703 113.566234 
L 37.661405 112.442828 
L 35.871348 116.57477 
L 33.476183 120.482571 
L 31.940982 124.74213 
L 26.780707 127.88997 
L 25.481722 132.356388 
L 16.673599 135.022878 
L 15.603885 139.803558 
L 30.961375 147.45909 
L 30.275618 151.784383 
L 34.418456 156.647652 
L 34.019899 160.859703 
L 18.035396 164.340191 
L 17.88681 169.063558 
L 25.753879 173.665553 
L 25.894686 178.141624 
L 40.29489 181.498769 
L 40.674801 185.513765 
L 27.159862 191.512326 
L 27.861116 195.935365 
L 17.144733 202.72984 
L 18.203642 207.46223 
L 43.694416 205.508771 
L 44.827574 209.405007 
L 63.20157 207.396265 
L 64.38443 210.678221 
L 60.582339 216.031041 
L 62.03799 219.391082 
L 79.846088 214.734926 
L 81.251462 217.489913 
L 75.227117 224.491369 
L 76.941538 227.386763 
L 79.403515 229.794464 
L 81.282612 232.555921 
L 57.463094 254.642495 
L 60.134316 258.081521 
L 78.458498 248.138155 
L 80.914828 250.920256 
L 60.308707 276.091021 
L 63.65291 279.42997 
L 63.926181 286.156435 
L 67.585074 289.376666 
L 91.981915 266.671827 
L 95.014298 269.019558 
L 95.860006 274.49157 
L 99.136341 276.713499 
L 97.555901 286.886682 
L 101.221127 289.04916 
L 121.486187 259.786598 
L 124.287496 261.210055 
L 134.560208 246.042986 
L 136.922923 247.062162 
L 124.900859 286.296612 
L 128.534012 287.599596 
L 137.735798 270.732119 
L 140.873223 271.63924 
L 148.055988 255.610456 
L 150.712853 256.200565 
L 143.993677 310.976211 
L 148.393371 311.666673 
L 153.408969 306.743212 
L 157.670913 307.139729 
L 163.844052 265.74477 
L 166.811756 265.833457 
L 170.093763 283.922578 
L 173.629927 283.805772 
L 179.36661 311.02749 
L 183.750427 310.605724 
L 181.723612 265.656805 
L 184.679709 265.183363 
L 194.056362 295.424083 
L 197.942311 294.548154 
L 189.8851 250.314005 
L 192.354752 249.591534 
L 198.900871 260.694131 
L 201.692439 259.683051 
L 222.904864 302.890162 
L 227.011299 301.103482 
L 219.937017 276.600784 
L 223.218323 274.920417 
L 231.140261 281.329224 
L 234.564701 279.294265 
L 213.220289 239.721615 
L 215.345355 238.270671 
L 252.011655 282.608309 
L 255.465993 279.916475 
L 245.512855 261.592136 
L 248.309612 259.115029 
L 247.185014 252.605029 
L 249.69837 250.07979 
L 263.795424 258.039324 
L 266.471433 254.98913 
L 245.055135 232.729684 
L 246.944619 230.281239 
L 248.756185 227.774596 
L 250.48804 225.212233 
L 294.469757 248.3865 
L 296.827094 244.376611 
L 251.706993 215.384819 
L 253.047827 212.735802 
L 254.304708 210.045935 
L 255.476392 207.31788 
L 253.614591 203.450069 
L 254.579228 200.746973 
L 291.586908 209.01701 
L 292.707807 205.117229 
L 275.331236 196.829344 
L 276.076965 193.446703 
L 318.59225 197.222697 
L 319.328958 192.47964 
L 260.460531 181.334368 
L 260.726417 178.426956 
L 273.477424 176.066684 
L 273.571247 172.752596 
L 271.200828 169.481732 
L 271.088731 166.242481 
L 268.522313 163.201137 
L 268.214065 160.04921 
L 308.293348 151.010646 
L 307.58214 146.614258 
L 305.193215 142.566672 
L 304.218043 138.271934 
L 318.272416 129.805888 
L 316.88955 125.10622 
L 243.984196 145.167049 
L 243.121048 142.795571 
L 256.700613 134.37907 
L 255.491981 131.613094 
L 280.29385 115.985035 
L 278.495204 112.48633 
L 292.273673 100.022314 
L 289.9672 96.15483 
L 298.692307 84.976621 
L 295.909591 80.914759 
L 284.84433 83.114723 
L 282.009919 79.489193 
L 273.099739 81.08747 
L 270.207393 77.832219 
L 273.968646 68.072457 
L 270.66665 64.79632 
L 244.066046 87.323681 
L 241.384136 84.978228 
L 242.545471 77.79003 
L 239.564553 75.497102 
L 242.360038 64.906561 
L 238.974128 62.625833 
L 242.867674 48.346469 
L 238.960827 46.057968 
L 211.609573 88.495133 
L 208.980543 87.169604 
L 203.745536 91.675226 
L 201.220383 90.595387 
L 199.487248 87.383832 
L 196.82927 86.440005 
L 198.475448 71.272519 
L 195.311395 70.368471 
L 195.725392 54.246752 
L 192.027371 53.43759 
L 193.575779 21.717309 
L 188.856024 20.991819 
L 177.414212 83.792896 
L 174.654241 83.544869 
L 172.655873 65.303554 
L 169.316909 65.214281 
L 164.947555 14.88509 
L 160.027135 15.063112 
L 159.961219 73.417205 
L 156.883642 73.723068 
L 148.772825 39.875642 
L 144.64616 40.549877 
L 140.052703 39.044544 
L 135.904218 39.993369 
L 138.129515 63.808369 
L 134.76061 64.80542 
L 141.510644 94.888339 
L 139.11729 95.763713 
L 130.65649 82.206624 
L 127.869761 83.429546 
L 99.237921 32.586376 
L 94.906557 34.821701 
L 114.251744 78.075652 
L 111.343239 79.816418 
L 102.83003 73.128633 
L 99.771627 75.230969 
L 98.208179 79.308388 
L 95.346367 81.552989 
L 69.930582 57.684029 
L 66.402833 60.828432 
L 73.988485 75.322432 
L 71.01332 78.330524 
L 59.945958 74.062603 
L 56.938124 77.512847 
L 50.339475 78.125023 
L 47.464123 81.875307 
L 38.891578 81.675346 
L 36.133516 85.783821 
L 41.584507 94.86395 
L 39.239792 98.881232 
L 51.669521 110.61695 
L 49.815129 114.30935 
L 37.293012 113.26468 
L 35.528979 117.407799 
L 33.158439 121.330587 
L 31.650059 125.599718 
L 26.509683 128.77995 
L 25.238815 133.25445 
L 16.447637 135.976285 
L 15.408013 140.763599 
L 30.813347 148.322389 
L 30.154808 152.651909 
L 34.328151 157.489026 
L 33.956094 161.703501 
L 17.993797 165.284453 
L 17.874921 170.008662 
L 25.770778 174.561086 
L 25.939734 179.036182 
L 40.360768 182.302692 
L 40.765924 186.31522 
L 27.28898 192.398663 
L 28.018038 196.817204 
L 17.344601 203.678944 
L 18.433252 208.404582 
L 43.911236 206.290838 
L 45.068876 210.179871 
L 63.429876 208.055606 
L 64.633353 211.330058 
L 60.865004 216.706685 
L 62.341759 220.057504 
L 80.120221 215.289437 
L 81.542894 218.035531 
L 75.562704 225.074738 
L 77.295301 227.959292 
L 79.772372 230.351461 
L 81.6688 233.101045 
L 57.988665 255.336993 
L 60.681463 258.759151 
L 78.942745 248.700733 
L 81.416525 251.46733 
L 60.969121 276.767198 
L 64.334258 280.085048 
L 64.649829 286.809661 
L 68.328903 290.006816 
L 92.582462 267.148983 
L 95.629551 269.477596 
L 96.509657 274.944181 
L 99.799902 277.14546 
L 98.283477 287.328382 
L 101.962232 289.467765 
L 122.042846 260.078326 
L 124.853052 261.484136 
L 135.030168 246.252757 
L 137.399247 247.257053 
L 125.624182 286.566339 
L 129.265459 287.846447 
L 138.360976 270.921429 
L 141.504045 271.8088 
L 148.585855 255.735158 
L 151.246379 256.308544 
L 144.871844 311.125367 
L 149.275793 311.788144 
L 154.260326 306.833234 
L 158.52468 307.202939 
L 164.437346 265.769973 
L 167.405549 265.839993 
L 170.801262 283.908114 
L 174.336621 283.76907 
L 180.2444 310.954169 
L 184.625477 310.50484 
L 182.315999 265.569557 
L 185.269061 265.077532 
L 194.835725 295.258681 
L 198.716088 294.358329 
L 190.380829 250.17573 
L 192.845887 249.43774 
L 199.461707 260.498946 
L 202.24686 259.470329 
L 223.730614 302.543171 
L 227.82573 300.730699 
L 220.597479 276.272979 
L 223.868153 274.572008 
L 231.830242 280.930864 
L 235.241815 278.874407 
L 213.648936 239.436784 
L 215.764834 237.972503 
L 252.709267 282.078654 
L 256.146607 279.365147 
L 246.078416 261.10377 
L 248.859538 258.609123 
L 247.694019 252.106324 
L 250.191442 249.565327 
L 264.338279 257.436042 
L 266.995051 254.369078 
L 245.439177 232.244768 
L 247.313224 229.784488 
L 249.108988 227.266501 
L 250.824694 224.693296 
L 294.951294 247.590485 
L 297.283364 243.565848 
L 251.981813 214.85841 
L 253.305961 212.201012 
L 254.545899 209.503294 
L 255.700402 206.767923 
L 253.814312 202.911898 
L 254.761928 200.202788 
L 291.82089 208.239905 
L 292.917239 204.333151 
L 275.488886 196.154719 
L 276.213326 192.767455 
L 318.751519 196.275977 
L 319.458381 191.52838 
L 260.521021 180.753578 
L 260.768615 177.844551 
L 273.504526 175.404128 
L 273.577502 172.089516 
L 271.186559 168.833625 
L 271.054091 165.595144 
L 268.468595 162.570001 
L 268.140529 159.420075 
L 308.162173 150.129614 
L 307.423328 145.737786 
L 305.008993 141.705305 
L 304.006829 137.416785 
L 318.007678 128.862512 
L 316.595281 124.171635 
L 243.817539 144.690601 
L 242.939494 142.324598 
L 256.465855 133.822856 
L 255.23985 131.064536 
L 279.942937 115.280797 
L 278.122321 111.793474 
L 291.822126 99.243045 
L 289.491375 95.390144 
L 298.146004 84.15728 
L 295.337797 80.113 
L 284.286592 82.382515 
L 281.429434 78.774884 
L 272.529482 80.429169 
L 269.61672 77.192173 
L 273.316515 67.408948 
L 269.99398 64.153644 
L 243.535586 86.847862 
L 240.838977 84.519323 
L 241.955079 77.323963 
L 238.9598 75.049829 
L 241.68862 64.441915 
L 238.288433 62.182527 
L 242.092093 47.878958 
L 238.17093 45.615074 
L 211.087123 88.223423 
L 208.449808 86.914456 
L 203.243242 91.452914 
L 200.711348 90.388978 
L 198.958048 87.188387 
L 196.294187 86.261296 
L 197.844936 71.083756 
L 194.67526 70.199626 
L 194.987852 54.075623 
L 191.284816 53.289735 
L 192.633691 21.560342 
L 187.909467 20.864551 
L 176.862864 83.736349 
L 174.101387 83.505686 
L 171.988331 65.2773 
L 168.648872 65.209029 
L 163.963062 14.908314 
L 159.043859 15.117279 
L 159.344958 73.470632 
L 156.269366 73.795846 
L 147.945828 40.000102 
L 143.823485 40.700278 
L 139.220652 39.223865 
L 135.078217 40.198763 
L 137.453252 63.999296 
L 134.090685 65.017516 
L 141.02979 95.057385 
L 138.641989 95.947795 
L 130.096089 82.444188 
L 127.317107 83.684613 
L 98.366059 33.022526 
L 94.04884 35.285049 
L 113.665686 78.416474 
L 110.768188 80.175499 
L 102.213085 73.541389 
L 99.167965 75.662919 
L 97.630192 79.75009 
L 94.782554 82.012647 
L 69.217149 58.30401 
L 65.709247 61.470538 
L 73.385908 75.916541 
L 70.429721 78.943287 
L 59.335735 74.745058 
L 56.349661 78.21415 
L 49.754993 78.867816 
L 46.903284 82.63611 
L 38.329652 82.490069 
L 35.597484 86.61581 
L 41.105476 95.661476 
L 38.786074 99.693426 
L 51.289368 111.350736 
L 49.458235 115.054725 
L 36.929796 114.088833 
L 35.191855 118.242965 
L 32.846034 122.180584 
L 31.364534 126.459118 
L 26.244263 129.671617 
L 25.001562 134.154021 
L 16.227677 136.931094 
L 15.218182 141.724852 
L 30.670752 149.186602 
L 30.039456 153.520179 
L 34.24314 158.330951 
L 33.897596 162.547683 
L 17.958137 166.228959 
L 17.868976 170.953821 
L 25.793309 175.456495 
L 25.990408 179.93044 
L 40.431702 183.106185 
L 40.862086 187.116085 
L 27.423669 193.28417 
L 28.180503 197.698039 
L 17.550433 204.626773 
L 18.668785 209.34547 
L 44.132971 207.071526 
L 45.315048 210.953201 
L 63.662324 208.713499 
L 64.886372 211.980316 
L 61.151914 217.380537 
L 62.649714 220.722002 
L 80.397835 215.842213 
L 81.837751 218.579305 
L 75.901952 225.655985 
L 77.652658 228.529585 
L 80.144725 230.906127 
L 82.058409 233.643729 
L 58.518594 256.028172 
L 61.232862 259.433326 
L 79.430521 249.260254 
L 81.921652 252.011238 
L 61.633775 277.439208 
L 65.019713 280.735828 
L 65.377571 287.458323 
L 69.076681 290.632275 
L 93.185997 267.622353 
L 96.247671 269.931755 
L 97.162142 275.392697 
L 100.466167 277.573238 
L 99.013816 287.765497 
L 102.705954 289.8817 
L 122.601328 260.366547 
L 125.42032 261.754654 
L 135.501439 246.459568 
L 137.876787 247.448944 
L 126.349188 286.831511 
L 129.998444 288.088692 
L 138.987332 271.106804 
L 142.13592 271.974389 
L 149.116496 255.856524 
L 151.780574 256.413166 
L 145.750931 311.268996 
L 150.158962 311.904062 
L 155.112233 306.917901 
L 159.378828 307.260778 
L 165.030787 265.791444 
L 167.999372 265.842794 
L 171.508656 283.8892 
L 175.04307 283.727924 
L 181.121711 310.875329 
L 185.499876 310.398454 
L 182.907826 265.478586 
L 185.857734 264.967997 
L 195.614032 295.08838 
L 199.488655 294.16364 
L 190.875678 250.03434 
L 193.336046 249.28086 
L 200.021303 260.300238 
L 202.799932 259.254124 
L 224.554164 302.190994 
L 228.6378 300.352801 
L 221.255868 275.941027 
L 224.515778 274.219519 
L 232.517703 280.528172 
L 235.916275 278.450299 
L 214.075783 239.149262 
L 216.18243 237.671703 
L 253.403535 281.544622 
L 256.82374 278.80955 
L 246.640895 260.611857 
L 249.406271 258.099768 
L 248.199876 251.604428 
L 250.681269 249.047774 
L 264.877328 256.829357 
L 267.514758 253.745744 
L 245.820161 231.757446 
L 247.678698 229.285428 
L 249.45859 226.756197 
L 251.158077 224.172252 
L 295.427815 246.791456 
L 297.734526 242.752232 
L 252.253318 214.330283 
L 253.560726 211.664609 
L 254.783672 208.959146 
L 255.920949 206.216568 
L 254.010643 202.372481 
L 254.941202 199.657466 
L 292.04998 207.461343 
L 293.121736 203.547772 
L 275.64229 195.479116 
L 276.345411 192.087362 
L 318.90483 195.328273 
L 319.581818 190.576325 
L 260.577856 180.172418 
L 260.80715 177.261892 
L 273.527459 174.741416 
L 271.219175 171.42641 
z
" clip-path="url(#p693a9b4ebd)" style="fill: #0000ff; opacity: 0.5; stroke: #000000; stroke-width: 1.5; stroke-linejoin: miter"/>
   </g>
  </g>
 </g>
 <defs>
  <clipPath id="p693a9b4ebd">
   <rect x="0" y="0" width="334.8" height="326.756636"/>
  </clipPath>
 </defs>
</svg>
