<?xml version="1.0" encoding="utf-8" standalone="no"?>
<!DOCTYPE svg PUBLIC "-//W3C//DTD SVG 1.1//EN"
  "http://www.w3.org/Graphics/SVG/1.1/DTD/svg11.dtd">
<svg xmlns:xlink="http://www.w3.org/1999/xlink" width="317.22745pt" height="332.64pt" viewBox="0 0 317.22745 332.64" xmlns="http://www.w3.org/2000/svg" version="1.1">
 <metadata>
  <rdf:RDF xmlns:dc="http://purl.org/dc/elements/1.1/" xmlns:cc="http://creativecommons.org/ns#" xmlns:rdf="http://www.w3.org/1999/02/22-rdf-syntax-ns#">
   <cc:Work>
    <dc:type rdf:resource="http://purl.org/dc/dcmitype/StillImage"/>
    <dc:date>2023-12-09T18:06:22.644602</dc:date>
    <dc:format>image/svg+xml</dc:format>
    <dc:creator>
     <cc:Agent>
      <dc:title>Matplotlib v3.8.2, https://matplotlib.org/</dc:title>
     </cc:Agent>
    </dc:creator>
   </cc:Work>
  </rdf:RDF>
 </metadata>
 <defs>
  <style type="text/css">*{stroke-linejoin: round; stroke-linecap: butt}</style>
 </defs>
 <g id="figure_1">
  <g id="patch_1">
   <path d="M 0 332.64 
L 317.22745 332.64 
L 317.22745 0 
L 0 0 
L 0 332.64 
z
" style="fill: none"/>
  </g>
  <g id="axes_1">
   <g id="patch_2">
    <path d="M 240.045282 166.057235 
L 240.005747 163.543113 
L 247.560456 160.548231 
L 247.343991 157.80054 
L 247.041239 155.061013 
L 246.6525 152.332359 
L 281.672647 142.839401 
L 280.882511 139.027903 
L 259.86752 140.410716 
L 259.011802 137.28602 
L 270.487685 130.146887 
L 269.303999 126.693344 
L 235.133836 136.31059 
L 234.161431 133.965603 
L 240.766602 128.048028 
L 239.531618 125.530019 
L 274.590298 103.032446 
L 272.552046 99.463315 
L 289.870363 83.589941 
L 287.213241 79.549983 
L 281.321777 77.857111 
L 278.488629 74.088774 
L 219.884009 116.517587 
L 218.296807 114.661874 
L 227.293341 102.849015 
L 225.272706 100.767094 
L 255.264698 64.53509 
L 252.025559 61.592631 
L 243.310345 65.274697 
L 240.100373 62.707744 
L 234.103295 63.977609 
L 230.857092 61.700787 
L 207.797755 90.706693 
L 205.404979 89.24376 
L 199.270642 94.598202 
L 197.00444 93.401455 
L 209.72402 60.258524 
L 206.372934 58.750078 
L 200.436481 63.784491 
L 197.200851 62.566323 
L 192.745184 65.108071 
L 189.554973 64.13108 
L 184.433413 70.704325 
L 181.42327 69.985907 
L 188.403603 16.482552 
L 183.686645 15.666111 
L 177.326953 27.968085 
L 172.976603 27.49424 
L 169.037567 20.250793 
L 164.448667 20.0414 
L 159.936449 71.489112 
L 156.963093 71.540545 
L 151.516272 33.322923 
L 147.347051 33.657974 
L 145.827175 54.714694 
L 142.333371 55.218047 
L 139.584108 59.605874 
L 136.24718 60.303104 
L 137.555326 78.969135 
L 134.828225 79.720581 
L 120.894687 46.211314 
L 117.145846 47.502803 
L 107.466543 33.91116 
L 103.337597 35.630941 
L 125.236711 92.385779 
L 122.93755 93.517916 
L 103.944451 64.437865 
L 100.777073 66.253294 
L 113.375882 92.80194 
L 111.095669 94.306801 
L 88.919344 68.557981 
L 85.888941 70.843796 
L 79.983375 69.675988 
L 76.992542 72.242217 
L 94.133251 96.152311 
L 91.967896 98.260546 
L 98.85745 108.835363 
L 97.088541 110.788788 
L 80.54174 100.581185 
L 78.522358 103.114577 
L 44.180057 82.291962 
L 41.6036 85.977688 
L 85.309894 118.873456 
L 83.863304 121.247882 
L 48.081251 104.867302 
L 46.212683 108.419204 
L 88.339796 132.533134 
L 87.321198 134.80554 
L 49.877075 122.775184 
L 48.570682 126.261767 
L 46.642675 129.552185 
L 45.550965 133.137114 
L 71.401253 143.560371 
L 70.73775 146.359909 
L 27.846107 141.236193 
L 27.131062 145.40635 
L 63.938033 154.205814 
L 63.612936 157.234749 
L 72.592942 160.823345 
L 72.471635 163.576879 
L 23.230971 166.487607 
L 23.312167 170.790389 
L 56.516988 172.906783 
L 56.78356 176.159806 
L 22.841328 183.851374 
L 23.468672 188.157822 
L 14.41943 194.348013 
L 15.380975 198.914074 
L 47.735251 195.310872 
L 48.710598 198.828935 
L 55.639208 200.393672 
L 56.770462 203.660704 
L 38.015939 214.885887 
L 39.611573 218.699868 
L 60.077729 213.55581 
L 61.620635 216.676778 
L 88.811748 205.579375 
L 90.08965 207.800826 
L 53.226822 234.429131 
L 55.429418 237.755186 
L 59.596406 239.647558 
L 61.959932 242.770759 
L 76.821463 235.47873 
L 79.045395 238.062399 
L 72.414918 249.030766 
L 75.067134 251.746285 
L 81.472032 250.439244 
L 84.164056 252.869291 
L 94.734247 245.703493 
L 97.270811 247.71889 
L 75.154109 283.965448 
L 78.903394 286.577569 
L 79.049518 294.928287 
L 83.141573 297.412507 
L 118.184139 243.041551 
L 120.625411 244.320947 
L 117.266845 258.07017 
L 120.181104 259.370978 
L 106.339221 303.544182 
L 110.688685 305.166094 
L 128.445821 264.911838 
L 131.56967 265.857771 
L 130.588416 283.106876 
L 134.283298 283.976446 
L 135.753354 296.823389 
L 139.876959 297.52378 
L 142.349085 311.832115 
L 146.941336 312.317701 
L 151.278357 317.263936 
L 156.036982 317.46608 
L 160.585632 272.157006 
L 163.921394 272.088811 
L 169.590825 306.434852 
L 173.999905 306.066566 
L 176.894399 294.125192 
L 180.912825 293.533352 
L 179.590903 265.65298 
L 182.712767 264.990433 
L 186.396963 266.461256 
L 189.540876 265.584313 
L 189.036716 253.65876 
L 191.776785 252.705147 
L 201.36559 268.787574 
L 204.575247 267.438834 
L 194.83414 238.924761 
L 197.108074 237.796148 
L 230.753599 293.028086 
L 234.7109 290.743337 
L 238.179015 287.688318 
L 241.964751 285.172738 
L 244.303811 280.680612 
L 247.866181 277.97592 
L 229.637475 249.211658 
L 232.217644 246.983666 
L 242.137681 252.481734 
L 244.814487 249.859092 
L 227.689555 228.841503 
L 229.630205 226.68483 
L 246.380613 236.637157 
L 248.557134 233.888942 
L 258.140874 236.45432 
L 260.305831 233.336427 
L 246.735525 220.354078 
L 248.399895 217.602754 
L 236.459371 207.470651 
L 237.723738 205.048802 
L 243.096793 204.528104 
L 244.265358 201.899014 
L 239.618544 197.00408 
L 240.552257 194.488074 
L 237.010656 190.544673 
L 237.742561 188.113859 
L 279.418522 195.929996 
L 280.298785 192.163123 
L 284.840644 189.067723 
L 285.502462 185.13376 
L 302.070911 183.105767 
L 302.536752 178.632994 
L 273.69232 172.494877 
L 273.838563 168.919636 
L 240.043701 165.554331 
L 239.988354 163.040507 
L 247.524077 159.99817 
L 247.290335 157.251894 
L 246.970359 154.514326 
L 246.564466 151.788171 
L 281.524215 142.075144 
L 280.710122 138.268691 
L 259.704244 139.783648 
L 258.828891 136.664396 
L 270.259645 129.453228 
L 269.054262 126.007198 
L 234.945262 135.839165 
L 233.958127 133.500339 
L 240.52595 127.541339 
L 239.275153 125.031147 
L 274.191643 102.313521 
L 272.130984 98.757279 
L 289.349124 82.775296 
L 286.666645 78.752131 
L 280.76465 77.096345 
L 277.907857 73.345902 
L 219.57125 116.142466 
L 217.972408 114.296772 
L 226.894468 102.427563 
L 224.860779 100.358392 
L 254.624298 63.938472 
L 251.366718 61.016444 
L 242.674834 64.753251 
L 239.44878 62.206537 
L 233.459808 63.514096 
L 230.199349 61.257736 
L 207.3229 90.408098 
L 204.920969 88.960243 
L 198.820431 94.35316 
L 196.546746 93.170691 
L 209.057624 59.948416 
L 205.697117 58.461077 
L 199.792445 63.532727 
L 196.549218 62.334933 
L 192.109625 64.904654 
L 188.913333 63.947747 
L 183.833215 70.553074 
L 180.818613 69.853603 
L 187.462302 16.307403 
L 182.740304 15.520646 
L 176.45811 27.862375 
L 172.104865 27.415901 
L 168.12035 20.197371 
L 163.530224 20.016844 
L 159.341672 71.491918 
L 156.368699 71.56205 
L 150.681618 33.379441 
L 146.514587 33.740709 
L 145.127175 54.806571 
L 141.636606 55.331887 
L 138.914995 59.736919 
L 135.582518 60.455123 
L 137.008037 79.112558 
L 134.285716 79.88114 
L 120.1417 46.46017 
L 116.401055 47.775212 
L 106.63646 34.244715 
L 102.518412 35.990431 
L 124.774049 92.606413 
L 122.482053 93.752988 
L 103.306433 64.792968 
L 100.150536 66.628283 
L 112.916071 93.097164 
L 110.645368 94.616336 
L 88.307537 69.007502 
L 85.29157 71.312332 
L 79.378776 70.181689 
L 76.404142 72.766677 
L 93.694893 96.568494 
L 91.54284 98.690306 
L 98.498768 109.221583 
L 96.74218 111.186094 
L 80.131506 101.082763 
L 78.128098 103.628806 
L 43.655514 83.022596 
L 41.102289 86.724453 
L 85.014614 119.344683 
L 83.582986 121.728161 
L 47.698616 105.572954 
L 45.852425 109.136537 
L 88.130367 132.985035 
L 87.126082 135.263803 
L 49.607035 123.469186 
L 48.322597 126.963917 
L 46.415322 130.266396 
L 45.346181 133.85812 
L 71.261515 144.118587 
L 70.615633 146.922243 
L 27.692612 142.068392 
L 27.003809 146.242964 
L 63.865396 154.810759 
L 63.559356 157.841679 
L 72.561754 161.373725 
L 72.457768 164.127968 
L 23.236385 167.348333 
L 23.344641 171.65052 
L 56.562117 173.558032 
L 56.849143 176.809315 
L 22.955958 184.714208 
L 23.610374 189.016625 
L 14.600244 195.263608 
L 15.590488 199.823532 
L 47.921462 196.016911 
L 48.918917 199.52877 
L 55.857231 201.049899 
L 57.00901 204.309751 
L 38.325458 215.652667 
L 39.945049 219.456537 
L 60.378446 214.18386 
L 61.940951 217.295062 
L 89.06173 206.026863 
L 90.353578 208.240233 
L 53.658956 235.099857 
L 55.882428 238.411993 
L 60.061235 240.27812 
L 62.444357 243.386394 
L 77.259731 236.001038 
L 79.499869 238.570669 
L 72.938508 249.580521 
L 75.607751 252.279306 
L 82.004302 250.932007 
L 84.711556 253.345075 
L 95.23647 246.112938 
L 97.785659 248.112341 
L 75.897365 284.497284 
L 79.663004 287.085772 
L 79.861647 295.435406 
L 83.969245 297.893841 
L 118.669155 243.303562 
L 121.118426 244.567578 
L 117.846401 258.337653 
L 120.768784 259.620106 
L 107.204999 303.879494 
L 111.564578 305.474019 
L 129.068186 265.108876 
L 132.197922 266.035143 
L 131.325176 283.290079 
L 135.025453 284.136392 
L 136.57628 296.973836 
L 140.704208 297.648277 
L 143.266278 311.940782 
L 147.861492 312.397475 
L 152.229536 317.316335 
L 156.989337 317.488546 
L 161.25293 272.15176 
L 164.588197 272.062586 
L 170.473532 306.37229 
L 174.880209 305.976281 
L 177.699541 294.016938 
L 181.714165 293.399836 
L 180.216918 265.52833 
L 183.334554 264.846162 
L 187.027927 266.293784 
L 190.166263 265.397084 
L 189.587107 253.474939 
L 192.321125 252.504111 
L 202.010889 268.525912 
L 205.212 267.157011 
L 195.291748 238.704768 
L 197.558539 237.561876 
L 231.550776 292.58111 
L 235.493629 290.271517 
L 238.942461 287.194746 
L 242.7123 284.655405 
L 245.023062 280.148657 
L 248.56835 277.421613 
L 230.159094 248.772568 
L 232.725199 246.528393 
L 242.679619 251.963961 
L 245.339877 249.324535 
L 228.083096 228.415068 
L 230.010143 226.246232 
L 246.822814 236.093012 
L 248.982007 233.331162 
L 258.581692 235.836213 
L 260.726997 232.704765 
L 247.075308 219.808022 
L 248.72234 217.046285 
L 236.718327 206.989481 
L 237.967437 204.559728 
L 243.337111 204.005247 
L 244.489118 201.36886 
L 239.811609 196.503248 
L 240.72948 193.98142 
L 237.163147 190.060371 
L 237.879749 187.625002 
L 279.604045 195.178866 
L 280.460599 191.406531 
L 284.9829 188.282626 
L 285.619962 184.344579 
L 302.175328 182.21242 
L 302.613029 177.736805 
L 273.730562 171.780225 
L 273.854316 168.204135 
L 240.038956 165.051447 
L 239.9678 162.538021 
L 247.48424 159.448349 
L 247.233229 156.703597 
L 246.896042 153.968095 
L 246.473011 151.244548 
L 281.370979 141.311835 
L 280.532962 137.510578 
L 259.537028 139.15762 
L 258.642073 136.043935 
L 270.027248 128.761017 
L 268.800215 125.322636 
L 234.753727 135.368935 
L 233.751902 133.036364 
L 240.282115 127.036173 
L 239.015556 124.533898 
L 273.788474 101.597116 
L 271.705489 98.053905 
L 288.822771 81.963946 
L 286.115042 77.957732 
L 280.202749 76.339099 
L 277.322425 72.606698 
L 219.256137 115.76932 
L 217.645719 113.933718 
L 226.492952 102.008629 
L 224.446289 99.95229 
L 253.980159 63.345894 
L 250.704265 60.444413 
L 242.036056 64.235812 
L 238.794049 61.709439 
L 232.813419 63.054639 
L 229.538833 60.81883 
L 206.846175 90.112496 
L 204.435186 88.679776 
L 198.368687 94.110956 
L 196.087609 92.942809 
L 208.389291 59.642505 
L 205.019496 58.176332 
L 199.146839 63.285018 
L 195.896142 62.107646 
L 191.472799 64.705239 
L 188.270552 63.768454 
L 183.232078 70.405601 
L 180.213137 69.725104 
L 186.519919 16.138178 
L 181.793066 15.381135 
L 175.588619 27.762132 
L 171.232652 27.343046 
L 167.202815 20.149719 
L 162.611644 19.998065 
L 158.746924 71.498465 
L 155.774451 71.587294 
L 149.847336 33.441209 
L 145.682659 33.828677 
L 144.427767 54.902848 
L 140.940571 55.450108 
L 138.246719 59.872171 
L 134.918825 60.611319 
L 136.46166 79.259419 
L 133.744227 80.045109 
L 119.390292 46.713757 
L 115.657992 48.052299 
L 105.808491 34.583484 
L 101.701504 36.355065 
L 124.312783 92.829953 
L 122.028044 93.99092 
L 102.670661 65.152076 
L 99.526369 67.007204 
L 112.458127 93.395273 
L 110.197023 94.928697 
L 87.698569 69.460862 
L 84.697157 71.784615 
L 78.777369 70.691182 
L 75.819052 73.294829 
L 93.259161 96.987426 
L 91.120496 99.122731 
L 98.142522 109.61005 
L 96.398325 111.585571 
L 79.724435 101.586911 
L 77.737079 104.145504 
L 43.135576 83.756515 
L 40.605684 87.474357 
L 84.722303 119.817758 
L 83.305694 122.210193 
L 47.320427 106.280998 
L 45.496685 109.856122 
L 87.923785 133.438244 
L 86.933851 135.723283 
L 49.341366 124.164873 
L 48.078933 127.667613 
L 46.192466 130.982023 
L 45.145937 134.5804 
L 71.12529 144.677671 
L 70.497054 147.485334 
L 27.544355 142.901541 
L 26.881821 147.080362 
L 63.796565 155.416149 
L 63.509593 158.448934 
L 72.534028 161.92429 
L 72.447367 164.679132 
L 23.247212 168.209009 
L 23.382525 172.51043 
L 56.61134 174.208985 
L 56.918809 177.458398 
L 23.076012 185.576304 
L 23.757475 189.87452 
L 14.786813 196.178048 
L 15.805717 200.731653 
L 48.11211 196.721764 
L 49.131632 200.22728 
L 56.079376 201.704741 
L 57.251635 204.957285 
L 38.639794 216.417486 
L 40.283276 220.211094 
L 60.683107 214.810007 
L 62.265149 217.91132 
L 89.314521 206.472769 
L 90.620265 208.67797 
L 54.0953 235.767852 
L 56.339559 239.065938 
L 60.530021 240.905746 
L 62.932645 243.99897 
L 77.701277 236.52058 
L 79.957531 239.07607 
L 73.465546 250.126972 
L 76.15171 252.808915 
L 82.539661 251.421412 
L 85.262038 253.817406 
L 95.741257 246.519216 
L 98.302972 248.502546 
L 76.643951 285.024435 
L 80.425796 287.589188 
L 80.676949 295.937408 
L 84.799928 298.369959 
L 119.15581 243.562517 
L 121.612983 244.811104 
L 118.427628 258.601486 
L 121.358019 259.865533 
L 108.072868 304.209354 
L 112.44239 305.776428 
L 129.691778 265.301996 
L 132.827278 266.208561 
L 132.063073 283.468644 
L 135.7686 284.291668 
L 137.400136 297.119104 
L 141.532225 297.76757 
L 144.184135 312.043678 
L 148.782131 312.47146 
L 153.181025 317.362751 
L 157.941816 317.505022 
L 161.920181 272.142316 
L 165.254821 272.032167 
L 171.355829 306.304178 
L 175.759928 305.880461 
L 178.503987 293.903623 
L 182.51465 293.261283 
L 180.842137 265.399745 
L 183.95542 264.697982 
L 187.657825 266.122347 
L 190.790459 265.205926 
L 190.136331 253.287659 
L 192.864189 252.299655 
L 202.65453 268.260196 
L 205.846968 266.871189 
L 195.747964 238.481902 
L 198.007521 237.324776 
L 232.345126 292.129129 
L 236.273375 289.794784 
L 239.702787 286.696382 
L 243.456581 284.133382 
L 245.738952 279.612189 
L 249.267019 276.862901 
L 230.67794 248.330207 
L 233.22988 246.069937 
L 243.21829 251.442789 
L 245.861895 248.786684 
L 228.473946 227.986166 
L 230.387314 225.805253 
L 247.261584 235.546096 
L 249.403364 232.77072 
L 259.018614 235.215345 
L 261.144181 232.070466 
L 247.411649 219.25984 
L 249.041279 216.487798 
L 236.974252 206.506692 
L 238.208056 204.069131 
L 243.574136 203.480888 
L 244.709538 200.837308 
L 240.001521 196.001211 
L 240.903512 193.47366 
L 237.312589 189.575119 
L 238.013859 187.135291 
L 279.784839 194.426584 
L 280.617651 190.648936 
L 285.120215 187.496651 
L 285.732496 183.554674 
L 302.274125 181.318433 
L 302.683668 176.840155 
L 273.764309 171.065347 
L 273.865569 167.488549 
L 240.031049 164.548603 
L 239.944087 162.035674 
L 247.440945 158.898788 
L 247.172677 156.15567 
L 246.818291 153.422343 
L 246.378139 150.70151 
L 281.212946 140.549505 
L 280.351038 136.753594 
L 259.365878 138.532656 
L 258.451357 135.424661 
L 269.790501 128.070281 
L 268.541867 124.639686 
L 234.559238 134.899919 
L 233.542762 132.573695 
L 240.035109 126.532552 
L 238.752837 124.038292 
L 273.380808 100.883261 
L 271.275579 97.353221 
L 288.291325 81.155923 
L 285.558453 77.166817 
L 279.636097 75.585402 
L 276.732355 71.87119 
L 218.938685 115.398162 
L 217.316754 113.572725 
L 226.088809 101.592229 
L 224.029254 99.548802 
L 253.332306 62.757379 
L 250.038228 59.876559 
L 241.394036 63.722401 
L 238.136203 61.216468 
L 232.164153 62.599256 
L 228.875569 60.384087 
L 206.367601 89.819897 
L 203.947649 88.40237 
L 197.915428 93.871597 
L 195.627049 92.717821 
L 207.719047 59.340804 
L 204.340098 57.895854 
L 198.499687 63.041375 
L 195.24165 61.884471 
L 190.834732 64.509833 
L 187.626656 63.593207 
L 182.630026 70.261912 
L 179.606864 69.600415 
L 185.576491 15.974884 
L 180.844969 15.247585 
L 174.718514 27.667359 
L 170.359998 27.275678 
L 166.284999 20.107839 
L 161.692965 19.985063 
L 158.15223 71.508751 
L 155.180374 71.616274 
L 149.013459 33.508222 
L 144.851302 33.921876 
L 143.728979 55.003523 
L 140.245294 55.572704 
L 137.579307 60.011622 
L 134.256128 60.771687 
L 135.916219 79.409714 
L 133.203781 80.212479 
L 118.640494 46.972065 
L 114.916687 48.334055 
L 104.982669 34.927454 
L 100.886905 36.724831 
L 123.852933 93.056389 
L 121.57554 94.231703 
L 102.03716 65.515177 
L 98.904598 67.390043 
L 112.002066 93.696258 
L 109.750652 95.243872 
L 87.092464 69.918043 
L 84.105727 72.260627 
L 78.179179 71.204449 
L 75.237296 73.826649 
L 92.826073 97.409089 
L 90.70088 99.557803 
L 97.788726 110.000751 
L 96.056988 111.987202 
L 79.320543 102.093609 
L 77.349318 104.664651 
L 42.620264 84.493689 
L 40.113805 88.22737 
L 84.432974 120.292662 
L 83.03144 122.693959 
L 46.946699 106.991406 
L 45.145478 110.57793 
L 87.720058 133.892743 
L 86.744515 136.183963 
L 49.080077 124.862217 
L 47.839699 128.372828 
L 45.974116 131.699037 
L 44.950238 135.303925 
L 70.992584 145.237601 
L 70.382019 148.04916 
L 27.40134 143.735605 
L 26.765102 147.918511 
L 63.731543 156.02196 
L 63.463652 159.05649 
L 72.509766 162.475019 
L 72.440433 165.230352 
L 23.263452 169.0696 
L 23.425815 173.370084 
L 56.664656 174.859616 
L 56.992556 178.10703 
L 23.201485 186.437628 
L 23.909969 190.731473 
L 14.979129 197.091297 
L 16.026653 201.638403 
L 48.307187 197.425404 
L 49.348737 200.924439 
L 56.305636 202.358173 
L 57.498329 205.60328 
L 38.958933 217.180312 
L 40.626243 220.963509 
L 60.991701 215.434225 
L 62.593216 218.525527 
L 89.570111 206.917077 
L 90.889699 209.114022 
L 54.535837 236.433089 
L 56.800795 239.716995 
L 61.002745 241.530411 
L 63.424776 244.608462 
L 78.14608 237.037334 
L 80.418363 239.578583 
L 73.99601 250.670097 
L 76.698989 253.335093 
L 83.078087 251.907441 
L 85.81548 254.286265 
L 96.24859 246.922311 
L 98.822728 248.889491 
L 77.393837 285.54688 
L 81.191738 288.087796 
L 81.495392 296.434272 
L 85.633589 298.840843 
L 119.644084 243.818406 
L 122.109061 245.051515 
L 119.010503 258.861657 
L 121.948786 260.107249 
L 108.942796 304.53375 
L 113.322087 306.073311 
L 130.316573 265.49119 
L 133.457713 266.378016 
L 132.802078 283.642565 
L 136.512708 284.442267 
L 138.22489 297.259188 
L 142.360975 297.881652 
L 145.102622 312.140799 
L 149.703217 312.539654 
L 154.132788 317.403181 
L 158.894379 317.515506 
L 162.58736 272.128677 
L 165.921241 271.997557 
L 172.23768 306.230518 
L 176.639027 305.77911 
L 179.307704 293.78525 
L 183.314248 293.117698 
L 181.466534 265.267231 
L 184.575342 264.545901 
L 188.286633 265.946951 
L 191.413441 265.010846 
L 190.684367 253.096929 
L 193.405956 252.091787 
L 203.296487 267.990437 
L 206.480125 266.581379 
L 196.202768 238.25617 
L 198.455003 237.084856 
L 233.136618 291.672162 
L 237.050107 289.313156 
L 240.459964 286.193246 
L 244.197564 283.606687 
L 246.451454 279.071229 
L 249.96216 276.299806 
L 231.193994 247.884591 
L 233.731668 245.608315 
L 243.753672 250.91824 
L 246.38052 248.24556 
L 228.862092 227.554814 
L 230.761705 225.36191 
L 247.696905 234.996431 
L 249.821187 232.20764 
L 259.451623 234.591742 
L 261.557368 231.433557 
L 247.744536 218.709553 
L 249.356699 215.927317 
L 237.227136 206.022303 
L 238.445584 203.57703 
L 243.807858 202.95505 
L 244.926612 200.304381 
L 240.188271 195.49799 
L 241.074347 192.964816 
L 237.458975 189.088937 
L 238.144887 186.644747 
L 279.960899 193.673179 
L 280.769935 189.890369 
L 285.252583 186.709827 
L 285.84006 182.764077 
L 302.367297 180.423843 
L 302.748666 175.943077 
L 273.793558 170.35027 
L 273.87232 166.772906 
L 240.019979 164.045818 
L 239.917214 161.533486 
L 247.394195 158.349512 
L 247.108679 155.608135 
L 246.737109 152.87709 
L 246.279854 150.159079 
L 281.050121 139.788185 
L 280.164356 135.997769 
L 259.1908 137.908781 
L 258.25675 134.8066 
L 269.549415 127.381048 
L 268.279229 123.958374 
L 234.361804 134.432135 
L 233.330717 132.112351 
L 239.78494 126.030493 
L 238.487005 123.544348 
L 272.96866 100.171985 
L 270.84127 96.655256 
L 287.754809 80.351258 
L 284.996901 76.37942 
L 279.064716 74.835284 
L 276.137672 71.139408 
L 218.618904 115.029009 
L 216.985524 113.213809 
L 225.682055 101.178378 
L 223.609689 99.147945 
L 252.680764 62.172951 
L 249.368633 59.312905 
L 240.7488 63.213038 
L 237.475271 60.727645 
L 231.512035 62.147967 
L 228.209584 59.953524 
L 205.887196 89.530315 
L 203.458376 88.128035 
L 197.460673 93.635094 
L 195.165083 92.495733 
L 207.046919 59.043325 
L 203.658948 57.619654 
L 197.851016 62.801806 
L 194.585767 61.665417 
L 190.195448 64.318444 
L 186.98167 63.422013 
L 182.027082 70.122012 
L 178.99982 69.479543 
L 184.632053 15.817526 
L 179.896051 15.12 
L 173.847831 27.578061 
L 169.486937 27.2138 
L 165.366937 20.071732 
L 160.774222 19.97784 
L 157.557611 71.522778 
L 154.586491 71.64899 
L 148.18002 33.580478 
L 144.020546 34.020301 
L 143.030837 55.10859 
L 139.550801 55.699671 
L 136.912785 60.155269 
L 133.594452 60.936219 
L 135.371733 79.563437 
L 132.664397 80.383246 
L 117.892335 47.235084 
L 114.177168 48.620467 
L 104.159027 35.276611 
L 100.074649 37.099712 
L 123.394515 93.285713 
L 121.12456 94.475327 
L 101.405956 65.882254 
L 98.285248 67.776786 
L 111.547907 94.000104 
L 109.306272 95.561848 
L 86.489247 70.379028 
L 83.517302 72.74035 
L 77.584228 71.721467 
L 74.658896 74.362118 
L 92.395646 97.833469 
L 90.284008 99.995506 
L 97.437395 110.393669 
L 95.718185 112.390973 
L 78.919845 102.602838 
L 76.96483 105.186227 
L 42.109599 85.23409 
L 39.626672 88.983461 
L 84.146637 120.769376 
L 82.760233 123.179441 
L 46.577446 107.704151 
L 44.798818 111.301933 
L 87.519192 134.348515 
L 86.558079 136.645825 
L 48.823179 125.561191 
L 47.604906 129.079533 
L 45.760279 132.41741 
L 44.759095 136.028667 
L 70.863403 145.798355 
L 70.270533 148.613698 
L 27.263574 144.570553 
L 26.653656 148.757377 
L 63.670332 156.628168 
L 63.421532 159.664323 
L 72.488968 163.025889 
L 72.436966 165.781603 
L 23.285104 169.930071 
L 23.474512 174.229449 
L 56.722064 175.509898 
L 57.070382 178.755186 
L 23.332374 187.298145 
L 24.067849 191.58745 
L 15.177186 198.003317 
L 16.253287 202.543746 
L 48.506686 198.127804 
L 49.570222 201.620219 
L 56.536001 203.01017 
L 57.74908 206.247711 
L 39.282864 217.941116 
L 40.973935 221.713752 
L 61.304214 216.05649 
L 62.92514 219.137658 
L 89.828491 207.359769 
L 91.16187 209.548371 
L 54.980549 237.095543 
L 57.266116 240.365138 
L 61.479388 242.15209 
L 63.92073 245.214848 
L 78.594126 237.55128 
L 80.882347 240.078188 
L 74.52988 251.209875 
L 77.249566 253.857819 
L 83.619559 252.390074 
L 86.371859 254.751634 
L 96.758448 247.322208 
L 99.344907 249.273158 
L 78.146995 286.064598 
L 81.960802 288.581578 
L 82.316944 296.925978 
L 86.470195 299.306475 
L 120.133957 244.07122 
L 122.606641 245.2888 
L 119.595002 259.118158 
L 122.541061 260.345245 
L 109.814746 304.852667 
L 114.203634 306.364654 
L 130.942545 265.676451 
L 134.0892 266.543504 
L 133.542163 283.811834 
L 137.257749 284.588183 
L 139.050508 297.394081 
L 143.190427 297.99052 
L 146.021701 312.232141 
L 150.624713 312.602053 
L 155.084786 317.437624 
L 159.846989 317.52 
L 163.25444 272.110841 
L 166.58743 271.958756 
L 173.11905 306.151313 
L 177.517471 305.672232 
L 180.11066 293.661825 
L 184.112927 292.969087 
L 182.090086 265.130791 
L 185.194296 264.389923 
L 188.914325 265.767604 
L 192.035183 264.811852 
L 191.231192 252.902755 
L 193.946406 251.880517 
L 203.936734 267.716646 
L 207.111447 266.287593 
L 196.656144 238.027583 
L 198.900968 236.842126 
L 233.925219 291.210225 
L 237.823795 288.826652 
L 241.213962 285.685358 
L 244.93522 283.075343 
L 247.16054 278.525799 
L 250.653746 275.73235 
L 231.707236 247.435738 
L 234.230542 245.143547 
L 244.285745 250.390334 
L 246.895731 247.701186 
L 229.247516 227.12103 
L 231.1333 224.916222 
L 248.128761 234.444039 
L 250.235461 231.641943 
L 259.880701 233.965427 
L 261.966541 230.794061 
L 248.073956 218.157184 
L 249.668588 215.364863 
L 237.476968 205.536334 
L 238.680012 203.083445 
L 244.038269 202.427751 
L 245.140329 199.770099 
L 240.371852 194.993605 
L 241.241979 192.454908 
L 237.602301 188.601844 
L 238.272827 186.153388 
L 280.132217 192.918682 
L 280.917445 189.130858 
L 285.380001 185.922186 
L 285.942649 181.97282 
L 302.454841 179.528685 
L 302.808021 175.045609 
L 273.81831 169.635024 
L 240.045282 166.057235 
z
" clip-path="url(#p9214a73058)" style="fill: #0000ff; opacity: 0.5; stroke: #000000; stroke-width: 1.5; stroke-linejoin: miter"/>
   </g>
  </g>
 </g>
 <defs>
  <clipPath id="p9214a73058">
   <rect x="0" y="-0" width="317.22745" height="332.64"/>
  </clipPath>
 </defs>
</svg>
