<?xml version="1.0" encoding="utf-8" standalone="no"?>
<!DOCTYPE svg PUBLIC "-//W3C//DTD SVG 1.1//EN"
  "http://www.w3.org/Graphics/SVG/1.1/DTD/svg11.dtd">
<svg xmlns:xlink="http://www.w3.org/1999/xlink" width="328.882695pt" height="332.64pt" viewBox="0 0 328.882695 332.64" xmlns="http://www.w3.org/2000/svg" version="1.1">
 <metadata>
  <rdf:RDF xmlns:dc="http://purl.org/dc/elements/1.1/" xmlns:cc="http://creativecommons.org/ns#" xmlns:rdf="http://www.w3.org/1999/02/22-rdf-syntax-ns#">
   <cc:Work>
    <dc:type rdf:resource="http://purl.org/dc/dcmitype/StillImage"/>
    <dc:date>2023-12-09T18:06:22.769594</dc:date>
    <dc:format>image/svg+xml</dc:format>
    <dc:creator>
     <cc:Agent>
      <dc:title>Matplotlib v3.8.2, https://matplotlib.org/</dc:title>
     </cc:Agent>
    </dc:creator>
   </cc:Work>
  </rdf:RDF>
 </metadata>
 <defs>
  <style type="text/css">*{stroke-linejoin: round; stroke-linecap: butt}</style>
 </defs>
 <g id="figure_1">
  <g id="patch_1">
   <path d="M 0 332.64 
L 328.882695 332.64 
L 328.882695 0 
L 0 0 
L 0 332.64 
z
" style="fill: none"/>
  </g>
  <g id="axes_1">
   <g id="patch_2">
    <path d="M 270.975733 167.402104 
L 270.921866 163.976546 
L 301.141433 158.641039 
L 300.797185 154.271336 
L 276.472988 152.929702 
L 275.961359 149.338454 
L 284.779496 143.961981 
L 283.981796 140.113992 
L 291.598061 134.099395 
L 290.486888 130.041891 
L 274.774467 130.729323 
L 273.565649 127.202456 
L 302.780076 111.612927 
L 300.956351 107.214954 
L 251.890076 125.067844 
L 250.514564 122.263312 
L 285.545337 99.416868 
L 283.346661 95.566824 
L 231.670018 123.150559 
L 230.24422 120.982738 
L 274.744529 85.400321 
L 272.110483 81.896807 
L 261.347951 85.121612 
L 258.711765 82.039454 
L 234.388505 99.348134 
L 232.212962 97.106606 
L 250.240468 73.311219 
L 247.238429 70.584144 
L 262.005222 46.333396 
L 258.149125 43.24975 
L 214.696519 94.765972 
L 212.386639 93.145869 
L 215.169717 83.477454 
L 212.504668 81.848054 
L 216.722868 67.659873 
L 213.559711 65.989459 
L 221.23409 41.211941 
L 217.237121 39.412761 
L 212.30353 39.975694 
L 208.272107 38.457922 
L 207.400637 27.15919 
L 202.968659 25.801912 
L 195.919633 34.675019 
L 191.729645 33.675013 
L 189.596564 21.787781 
L 185.0045 20.992958 
L 177.213619 45.780178 
L 173.382051 45.362839 
L 170.422943 30.673718 
L 166.119752 30.477362 
L 161.866678 64.863101 
L 158.642707 64.918869 
L 153.512587 35.497332 
L 149.369422 35.830289 
L 147.579078 54.569118 
L 144.038506 55.079209 
L 142.788136 67.499849 
L 139.656503 68.154184 
L 139.957824 82.091091 
L 137.28637 82.827203 
L 112.23059 15.12 
L 107.467129 16.761029 
L 112.537217 43.11145 
L 108.653716 44.728998 
L 121.60767 81.951555 
L 118.940902 83.264705 
L 94.235924 44.692921 
L 90.411196 46.88512 
L 99.577965 69.460312 
L 96.529338 71.472301 
L 83.627334 59.990997 
L 80.288857 62.50919 
L 108.776963 103.328708 
L 106.788684 105.034714 
L 80.666503 81.164053 
L 77.995217 83.764873 
L 60.775122 72.773785 
L 57.849862 76.004181 
L 60.594109 83.907005 
L 58.018992 87.137588 
L 79.569918 107.809241 
L 77.736958 110.431366 
L 50.920414 97.29239 
L 48.770946 100.820517 
L 41.109353 101.341917 
L 39.092062 105.176524 
L 32.115981 106.698789 
L 30.271568 110.813518 
L 62.111471 128.161889 
L 60.927074 131.322882 
L 79.669641 140.899749 
L 78.877069 143.502377 
L 50.989485 139.23446 
L 50.158733 142.739678 
L 60.461333 148.338231 
L 59.91214 151.541132 
L 15.735096 149.369553 
L 15.240444 153.978236 
L 42.878954 160.274469 
L 42.713756 164.024297 
L 22.639468 167.840446 
L 22.722167 172.222907 
L 37.330754 175.649032 
L 37.651709 179.565707 
L 31.740154 184.294365 
L 32.335702 188.382546 
L 60.583243 187.104396 
L 61.252883 190.284298 
L 48.843125 196.873129 
L 49.825721 200.417336 
L 31.893816 210.183482 
L 33.303298 214.25403 
L 28.889762 220.65842 
L 30.630084 224.818243 
L 28.158634 230.983386 
L 30.223958 235.161093 
L 40.826641 234.609978 
L 42.999729 238.387582 
L 75.655735 222.666206 
L 77.436065 225.354612 
L 70.251683 234.612044 
L 72.410287 237.464459 
L 65.428243 247.942539 
L 68.008373 250.940022 
L 58.463161 265.418648 
L 61.596221 268.626489 
L 58.275831 278.76786 
L 61.828712 281.97499 
L 75.643543 272.682854 
L 78.996511 275.346914 
L 99.755491 253.853769 
L 102.50451 255.769006 
L 97.636604 269.80367 
L 100.888171 271.777643 
L 99.987581 281.388201 
L 103.602228 283.282527 
L 103.218852 293.777831 
L 107.221459 295.564433 
L 131.98645 244.250876 
L 134.417597 245.157449 
L 126.375756 278.794475 
L 129.895803 279.860381 
L 131.490071 288.583095 
L 135.315366 289.483356 
L 135.356937 310.739695 
L 139.876972 311.507419 
L 148.482525 278.733288 
L 151.989719 279.104139 
L 155.41368 280.963997 
L 158.987585 281.115814 
L 162.526709 273.144405 
L 165.851232 273.07644 
L 168.793122 267.309181 
L 171.931075 267.047071 
L 181.731274 317.52 
L 186.441567 316.826261 
L 189.434079 307.337094 
L 193.820392 306.406196 
L 196.34759 298.363565 
L 200.448337 297.219727 
L 191.942102 257.916332 
L 194.773277 256.931011 
L 216.986952 304.172946 
L 221.260153 302.37729 
L 227.888523 305.509697 
L 232.198365 303.370611 
L 211.894905 256.998731 
L 214.687364 255.386505 
L 236.038635 282.673698 
L 239.626433 280.289645 
L 233.176671 264.237068 
L 236.186196 261.952117 
L 230.898979 249.742036 
L 233.453875 247.535868 
L 251.933639 262.098237 
L 254.866641 259.224583 
L 254.772872 253.534424 
L 257.435205 250.575733 
L 232.718937 225.219362 
L 234.501887 222.968095 
L 288.923751 258.504354 
L 291.725464 254.469427 
L 260.457639 229.080121 
L 262.348265 225.954779 
L 280.336729 231.554275 
L 282.295318 227.802668 
L 255.061868 210.517707 
L 256.371519 207.571198 
L 238.177258 197.032199 
L 239.071243 194.623246 
L 306.300011 213.327755 
L 307.672682 208.768817 
L 299.576035 201.834569 
L 300.590659 197.49273 
L 310.13405 194.719494 
L 310.919741 190.049206 
L 313.148947 185.547528 
L 313.64476 180.786979 
L 299.594176 175.197408 
L 299.771261 170.868169 
L 270.973578 166.716884 
L 270.898167 163.291732 
L 301.08358 157.766267 
L 300.711855 153.398816 
L 276.379701 152.210194 
L 275.845496 148.622234 
L 284.629644 143.190407 
L 283.807757 139.347511 
L 291.386044 133.285131 
L 290.249373 129.234696 
L 274.541586 130.020937 
L 273.31061 126.501742 
L 302.42641 110.728779 
L 300.57506 106.342364 
L 251.62204 124.503499 
L 250.228916 121.707674 
L 285.115305 98.641358 
L 282.892459 94.805218 
L 231.390324 122.713425 
L 229.950919 120.554614 
L 274.226555 84.693019 
L 271.570526 81.206141 
L 260.828489 84.498573 
L 258.17297 81.433056 
L 233.959053 98.894373 
L 231.769455 96.666572 
L 249.646944 72.758273 
L 246.627814 70.050133 
L 261.241791 45.70699 
L 257.366376 42.647658 
L 214.238637 94.436153 
L 211.918613 92.83061 
L 214.640828 83.144882 
L 211.965583 81.532276 
L 216.094464 67.317845 
L 212.920864 65.667359 
L 220.439254 40.842063 
L 216.431049 39.068057 
L 211.501096 39.66201 
L 207.460207 38.169622 
L 206.517691 26.876595 
L 202.077264 25.547218 
L 195.084184 34.464485 
L 190.88799 33.490851 
L 188.680187 21.61727 
L 184.083215 20.851344 
L 176.448385 45.687074 
L 172.614268 45.293842 
L 169.562833 30.623623 
L 165.258492 30.454335 
L 161.221769 64.866143 
L 157.998213 64.942187 
L 152.683149 35.553497 
L 148.542161 35.912506 
L 146.869709 54.662225 
L 143.332414 55.194573 
L 142.160188 67.622833 
L 139.032733 68.296851 
L 139.421702 82.231586 
L 136.754932 82.984486 
L 111.273807 15.436209 
L 106.520761 17.107165 
L 111.756478 43.425176 
L 107.883227 45.067118 
L 121.071034 82.207466 
L 118.412578 83.537362 
L 93.465493 45.121721 
L 89.654629 47.337932 
L 98.963202 69.855024 
L 95.927289 71.886147 
L 82.95333 60.486217 
L 79.630757 63.025357 
L 108.375031 103.664894 
L 106.397521 105.383371 
L 80.125724 81.677476 
L 77.470848 84.295045 
L 60.181966 73.412479 
L 57.277082 76.661209 
L 60.070978 84.546617 
L 57.516231 87.793333 
L 79.196744 108.329034 
L 77.380311 110.962635 
L 50.481661 97.99258 
L 48.354425 101.534156 
L 40.696264 102.103733 
L 38.70313 105.950951 
L 31.736761 107.517062 
L 29.918264 111.64331 
L 61.866648 128.791083 
L 60.702155 131.959463 
L 79.504585 141.41826 
L 78.728398 144.025822 
L 50.814523 139.933386 
L 50.005833 143.443759 
L 60.343441 148.977404 
L 59.814403 152.183696 
L 15.624575 150.290009 
L 15.158919 154.901711 
L 42.836481 161.023989 
L 42.694871 164.774782 
L 22.644981 168.717111 
L 22.755243 173.098966 
L 37.385089 176.433144 
L 37.730671 180.347722 
L 31.848974 185.113467 
L 32.470222 189.197821 
L 60.709165 187.742036 
L 61.398792 190.917663 
L 49.03072 197.584415 
L 50.035587 201.122371 
L 32.16546 211.001105 
L 33.600516 215.062709 
L 29.227347 221.49473 
L 30.993798 225.643526 
L 28.561172 231.824091 
L 30.65273 235.988725 
L 41.251737 235.370936 
L 43.448541 239.134798 
L 76.005024 223.208345 
L 77.802226 225.885501 
L 70.67621 235.187935 
L 72.852712 238.026717 
L 65.936708 248.548503 
L 68.535638 251.529699 
L 59.081678 266.068073 
L 62.234852 269.256145 
L 58.978311 279.418199 
L 62.551293 282.60292 
L 76.307407 273.22408 
L 79.677065 275.866999 
L 100.300454 254.243717 
L 103.061465 256.141626 
L 98.281926 270.206629 
L 101.545843 272.160113 
L 100.705716 281.776145 
L 104.332205 283.647699 
L 104.014847 294.145207 
L 108.028611 295.9066 
L 132.47038 244.4383 
L 134.90718 245.329564 
L 127.077056 279.016504 
L 130.603738 280.06025 
L 132.252835 288.772764 
L 136.083716 289.648948 
L 136.258977 310.904606 
L 140.78375 311.643886 
L 149.183003 278.816279 
L 152.69246 279.165065 
L 156.128051 281.00335 
L 159.70284 281.132687 
L 163.191758 273.139176 
L 166.515788 273.050303 
L 169.421347 267.264656 
L 172.557589 266.982815 
L 182.67504 317.393108 
L 187.380878 316.669757 
L 190.313649 307.161957 
L 194.69402 306.20349 
L 197.170585 298.145123 
L 201.264056 296.975517 
L 192.510794 257.726398 
L 195.335716 256.72329 
L 217.846076 303.824579 
L 222.107899 302.002083 
L 228.755839 305.09274 
L 233.052142 302.926589 
L 212.457431 256.683324 
L 215.239694 255.053566 
L 236.762164 282.205933 
L 240.334897 279.799362 
L 233.784301 263.787667 
L 236.779396 261.483833 
L 231.415488 249.307248 
L 233.956458 247.085054 
L 252.527446 261.530908 
L 255.442316 258.638864 
L 255.312761 252.949407 
L 257.956433 249.97403 
L 233.081176 224.773612 
L 234.849932 222.511176 
L 289.494223 257.704449 
L 292.270503 253.651981 
L 260.843612 228.459834 
L 262.714544 225.322663 
L 280.73787 230.808911 
L 282.672825 227.04506 
L 255.331201 209.931724 
L 256.622293 206.977036 
L 238.362108 196.552676 
L 239.240925 194.138149 
L 306.586004 212.419457 
L 307.929975 207.851976 
L 299.789875 200.968788 
L 300.777171 196.620654 
L 310.302931 193.78745 
L 311.059233 189.112313 
L 313.260082 184.596703 
L 313.725945 179.833131 
L 299.640483 174.33204 
L 299.790336 170.001773 
L 270.967113 166.031691 
L 270.870162 162.607081 
L 301.020225 156.891876 
L 300.621039 152.52685 
L 276.281891 151.491286 
L 275.72513 147.906758 
L 284.474941 142.41979 
L 283.628901 138.582139 
L 291.168909 132.472216 
L 290.006785 128.42901 
L 274.304254 129.314029 
L 273.051169 125.802646 
L 302.06719 109.846873 
L 300.188288 105.472188 
L 251.35046 123.940851 
L 249.939779 121.153843 
L 284.680404 97.868569 
L 282.433475 94.046485 
L 231.107886 122.278059 
L 229.654932 120.128343 
L 273.704143 83.988989 
L 271.026236 80.518885 
L 260.305118 83.878813 
L 257.630372 80.830058 
L 233.526755 98.443322 
L 231.323189 96.229337 
L 249.049955 72.209071 
L 246.013852 69.519973 
L 260.474435 45.085398 
L 256.579855 42.0505 
L 213.77869 94.10922 
L 211.448614 92.5183 
L 214.109857 82.815643 
L 211.424523 81.219894 
L 215.463921 66.979777 
L 212.280003 65.349283 
L 219.642108 40.477192 
L 215.622824 38.728431 
L 210.696705 39.353378 
L 206.646509 37.886435 
L 205.632986 26.599559 
L 201.184285 25.298136 
L 194.247428 34.259209 
L 190.045194 33.311986 
L 187.762756 21.452526 
L 183.161057 20.715527 
L 175.682582 45.598785 
L 171.846067 45.229675 
L 168.702425 30.578937 
L 164.397105 30.436725 
L 160.576892 64.873242 
L 157.353877 64.969558 
L 151.854081 35.614878 
L 147.715432 35.999925 
L 146.160938 54.759791 
L 142.627062 55.314377 
L 141.533026 67.749763 
L 138.409872 68.443438 
L 138.886475 82.375451 
L 136.224492 83.145108 
L 110.319032 15.758429 
L 105.576589 17.459246 
L 110.977728 43.743807 
L 107.114881 45.410077 
L 120.536018 82.466746 
L 117.885979 83.813337 
L 92.697775 45.555358 
L 88.900925 47.795494 
L 98.350934 70.253595 
L 95.327855 72.303771 
L 82.282454 60.985666 
L 78.975916 63.545653 
L 107.975221 104.003601 
L 106.008559 105.734482 
L 79.588184 82.19429 
L 76.949824 84.828505 
L 59.592839 74.054891 
L 56.708445 77.321828 
L 59.551881 85.189507 
L 57.017604 88.452226 
L 78.826846 108.851163 
L 77.027013 111.496136 
L 50.047321 98.695515 
L 47.942401 102.250401 
L 40.287974 102.868132 
L 38.319076 106.727809 
L 31.362695 108.337704 
L 29.570186 112.475308 
L 61.625788 129.421804 
L 60.481245 132.597446 
L 79.342794 141.937799 
L 78.583022 144.550191 
L 50.64396 140.633398 
L 49.857364 144.148789 
L 60.229571 149.617306 
L 59.72071 152.826862 
L 15.519845 151.211141 
L 15.083203 155.825681 
L 42.798724 161.773762 
L 42.680707 165.525371 
L 22.656009 169.593725 
L 22.793828 173.974799 
L 37.444354 177.216898 
L 37.81455 181.129225 
L 31.962943 185.931869 
L 32.609867 190.012235 
L 60.839096 188.378871 
L 61.548682 191.550098 
L 49.222785 198.294506 
L 50.249883 201.826072 
L 32.442242 211.817004 
L 33.902814 215.869502 
L 29.570186 222.3289 
L 31.362695 226.466504 
L 28.96899 232.662247 
L 31.0867 236.813644 
L 41.681611 236.129206 
L 43.902045 239.879176 
L 76.357715 223.748276 
L 78.171719 226.414076 
L 71.104352 235.761145 
L 73.298665 238.586182 
L 66.448973 249.151257 
L 69.066602 252.116049 
L 59.704267 266.713595 
L 62.87743 269.881772 
L 59.684867 280.064107 
L 63.277808 283.226293 
L 76.974663 273.76112 
L 80.360876 276.382794 
L 100.84786 254.63023 
L 103.620752 256.510737 
L 98.929769 270.605522 
L 102.205908 272.538439 
L 101.426276 282.159565 
L 105.064466 284.008274 
L 104.813137 294.50757 
L 108.8379 296.243683 
L 132.955478 244.622676 
L 135.397836 245.498597 
L 127.779738 279.234117 
L 131.312915 280.255662 
L 133.016777 288.957632 
L 136.853093 289.809705 
L 137.162036 311.063839 
L 141.69137 311.774646 
L 149.883989 278.894862 
L 153.39557 279.221569 
L 156.842655 281.03821 
L 160.418187 281.145061 
L 163.856761 273.129765 
L 167.180166 273.019987 
L 170.04928 267.21618 
L 173.183687 266.91462 
L 183.61799 317.260282 
L 188.319185 316.507349 
L 191.1921 306.981292 
L 195.566356 305.995294 
L 197.992189 297.921509 
L 202.078224 296.726181 
L 193.078279 257.532891 
L 195.896837 256.512037 
L 218.702992 303.470816 
L 222.953269 301.621551 
L 229.620515 304.670336 
L 233.903109 302.477207 
L 213.017962 256.364385 
L 215.78992 254.717161 
L 237.482737 281.733626 
L 241.040263 279.304632 
L 234.389092 263.334454 
L 237.369638 261.011828 
L 231.929252 248.869219 
L 234.456196 246.631088 
L 253.117673 260.959855 
L 256.014296 258.049536 
L 255.84896 252.361006 
L 258.473866 249.369061 
L 233.440605 224.325593 
L 235.195096 222.052076 
L 290.059652 256.900972 
L 292.81039 252.831123 
L 261.225676 227.837132 
L 263.07684 224.688256 
L 281.134315 230.061038 
L 283.045559 226.285092 
L 255.596843 209.344058 
L 256.869326 206.381308 
L 238.543939 196.072001 
L 239.407552 193.651994 
L 306.866278 211.509378 
L 308.181496 206.933534 
L 299.998265 200.10168 
L 300.958195 195.747422 
L 310.465948 192.854362 
L 311.19283 188.174561 
L 313.365235 183.645198 
L 313.801128 178.87879 
L 299.681347 173.466398 
L 299.803962 169.135274 
L 270.95634 165.346552 
L 270.837851 161.92262 
L 300.951373 156.017901 
L 300.524741 151.655472 
L 276.179561 150.773008 
L 275.600266 147.192052 
L 284.315394 141.650162 
L 283.445235 137.817908 
L 290.946665 131.660683 
L 289.759136 127.624866 
L 274.062481 128.608627 
L 272.787336 125.105196 
L 301.702431 108.967244 
L 299.796052 104.604463 
L 251.075347 123.379923 
L 249.647165 120.601842 
L 284.240652 97.098529 
L 281.969728 93.290653 
L 230.822715 121.844477 
L 229.356269 119.703943 
L 273.177313 83.288258 
L 270.477634 79.835066 
L 259.77786 83.262357 
L 257.083992 80.230485 
L 233.091629 97.994999 
L 230.874182 95.794916 
L 248.449524 71.663635 
L 245.396568 68.993685 
L 259.703185 44.468644 
L 255.789595 41.458301 
L 213.316696 93.785187 
L 210.97666 92.208953 
L 213.576826 82.48975 
L 210.881508 80.910922 
L 214.831265 66.645681 
L 211.637155 65.035244 
L 218.842682 40.117342 
L 214.81248 38.393894 
L 209.890388 39.049811 
L 205.831046 37.608371 
L 204.746555 26.328092 
L 200.289758 25.054675 
L 193.409397 34.059199 
L 189.201289 33.138425 
L 186.844307 21.293555 
L 182.238064 20.585513 
L 174.916238 45.515314 
L 171.077478 45.170341 
L 167.841753 30.539665 
L 163.535623 30.424533 
L 159.932072 64.884396 
L 156.709727 65.000981 
L 151.025416 35.681472 
L 146.88927 36.092541 
L 145.452796 54.861813 
L 141.922478 55.438614 
L 140.906675 67.880635 
L 137.787945 68.593939 
L 138.352163 82.522679 
L 135.695074 83.309063 
L 109.366302 16.086648 
L 104.63465 17.817259 
L 110.200997 44.06733 
L 106.348706 45.757861 
L 120.002643 82.729387 
L 117.361126 84.092618 
L 91.932799 45.993816 
L 88.150114 48.257787 
L 97.741184 70.656009 
L 94.73106 72.725158 
L 81.614732 61.489325 
L 78.32436 64.070057 
L 107.57755 104.344816 
L 105.621812 106.088031 
L 79.053906 82.714475 
L 76.432166 85.365231 
L 59.007764 74.700996 
L 56.143974 77.986009 
L 59.036837 85.83565 
L 56.523131 89.114243 
L 78.460239 109.375609 
L 76.677077 112.03185 
L 49.61741 99.401169 
L 47.534891 102.969223 
L 39.884499 103.635083 
L 37.939916 107.507068 
L 30.993798 109.160683 
L 29.227347 113.309478 
L 61.388899 130.054028 
L 60.264352 133.236805 
L 79.184273 142.458345 
L 78.440947 145.075464 
L 50.477803 141.334469 
L 49.713333 144.854738 
L 60.119728 150.257912 
L 59.631063 153.470605 
L 15.420911 152.132914 
L 15.013301 156.750109 
L 42.765683 162.523757 
L 42.671264 166.276035 
L 22.672549 170.470252 
L 22.83792 174.850373 
L 37.508548 178.000264 
L 37.903343 181.910185 
L 32.082057 186.749537 
L 32.754632 190.825754 
L 60.973029 189.014877 
L 61.702547 192.181578 
L 49.419311 199.003375 
L 50.468601 202.528412 
L 32.724149 212.631146 
L 34.210181 216.674377 
L 29.918264 223.160898 
L 31.736761 227.287146 
L 29.382071 233.497821 
L 31.525849 237.635817 
L 42.116246 236.884756 
L 44.360221 240.620688 
L 76.713795 224.285979 
L 78.54453 226.940317 
L 71.53609 236.33165 
L 73.748127 239.142831 
L 66.965019 249.750777 
L 69.601244 252.699047 
L 60.330904 267.355189 
L 63.52393 270.503346 
L 60.395471 280.705558 
L 64.00823 283.845084 
L 77.645283 274.293953 
L 81.047918 276.894278 
L 101.397685 255.013293 
L 104.18235 256.876322 
L 99.580108 271.000332 
L 102.868339 272.912606 
L 102.149234 282.538445 
L 105.798979 284.364235 
L 105.61369 294.864904 
L 109.649292 296.57567 
L 133.441727 244.803998 
L 135.889546 245.66454 
L 128.483776 279.447307 
L 132.023308 280.44661 
L 133.781866 289.137691 
L 137.623465 289.965619 
L 138.066078 311.21739 
L 142.599793 311.899696 
L 150.585456 278.969036 
L 154.099022 279.27365 
L 157.557465 281.068575 
L 161.133598 281.152936 
L 164.521692 273.116172 
L 167.844341 272.985493 
L 170.676895 267.163756 
L 173.809344 266.842488 
L 184.560086 317.121529 
L 189.256453 316.339043 
L 192.069397 306.795105 
L 196.437365 305.781615 
L 198.812371 297.692733 
L 202.890807 296.47173 
L 193.644537 257.335819 
L 196.456618 256.297258 
L 219.557666 303.111671 
L 223.796228 301.235711 
L 230.482517 304.242501 
L 234.751233 302.022481 
L 213.576476 256.041927 
L 216.338019 254.377301 
L 238.200325 281.256797 
L 241.742504 278.805476 
L 234.991021 262.877446 
L 237.9569 260.53612 
L 232.440252 248.427968 
L 234.953069 246.173988 
L 253.704296 260.385102 
L 256.582558 257.456622 
L 256.381447 251.769245 
L 258.987484 248.760849 
L 233.797209 223.875321 
L 235.537366 221.590815 
L 290.620017 256.093955 
L 293.345104 252.006885 
L 261.603816 227.212039 
L 263.435138 224.051582 
L 281.526048 229.310687 
L 283.413506 225.522795 
L 255.858783 208.754733 
L 257.112608 205.784038 
L 238.722743 195.590191 
L 239.571118 193.164801 
L 307.140823 210.597554 
L 308.427235 206.013529 
L 300.201198 199.233278 
L 301.133723 194.873068 
L 310.623092 191.920268 
L 311.320527 187.235987 
L 313.464402 182.693051 
L 313.870308 177.923995 
L 299.716765 172.600516 
L 299.812138 168.268706 
L 270.941257 164.661495 
L 270.801236 161.238376 
L 300.877025 155.144376 
L 300.422964 150.784716 
L 276.072716 150.055388 
L 275.47091 146.478146 
L 284.151011 140.881552 
L 283.256765 137.054847 
L 290.719322 130.850564 
L 289.506433 126.822296 
L 273.816276 127.904761 
L 272.519122 124.409418 
L 301.332146 108.089926 
L 299.398365 103.739221 
L 250.796711 122.820736 
L 249.351085 120.051692 
L 283.796065 96.331271 
L 281.501237 92.537752 
L 230.534822 121.412698 
L 229.054943 119.281429 
L 272.646086 82.590855 
L 269.924742 79.15471 
L 259.246736 82.649229 
L 256.533852 79.634361 
L 232.653692 97.549421 
L 230.422452 95.363329 
L 247.845674 71.121985 
L 244.775985 68.47129 
L 258.928072 43.856754 
L 254.995625 40.871085 
L 212.852673 93.464065 
L 210.50277 91.90258 
L 213.041756 82.167216 
L 210.336562 80.605371 
L 214.19652 66.31557 
L 210.992344 64.725255 
L 218.04101 39.762527 
L 214.000047 38.064461 
L 209.082178 38.751322 
L 205.013851 37.335441 
L 203.858434 26.062207 
L 199.393716 24.816846 
L 192.570126 33.864465 
L 188.356309 32.970176 
L 185.924876 21.140364 
L 181.314271 20.461307 
L 174.149384 45.436664 
L 170.30853 45.115842 
L 166.98085 30.505806 
L 162.674082 30.41776 
L 159.287335 64.899605 
L 156.065787 65.036455 
L 150.197185 35.753277 
L 146.063707 36.190352 
L 144.745309 54.968287 
L 141.218689 55.56728 
L 140.281159 68.015444 
L 137.166977 68.748349 
L 137.818788 82.673265 
L 135.166697 83.476345 
L 108.415655 16.420852 
L 103.694981 18.181188 
L 109.426316 44.395731 
L 105.584734 46.110458 
L 119.470931 82.995376 
L 116.83804 84.375194 
L 91.170596 46.437075 
L 87.402225 48.724793 
L 97.133977 71.062249 
L 94.136927 73.15029 
L 80.950191 61.997173 
L 77.676116 64.598549 
L 107.182032 104.688525 
L 105.237297 106.444006 
L 78.52291 83.238009 
L 75.917893 85.905202 
L 58.426764 75.350768 
L 55.583692 78.653727 
L 58.525867 86.485018 
L 56.032831 89.779357 
L 78.096938 109.90235 
L 76.330518 112.569753 
L 49.191946 100.109512 
L 47.131909 103.690593 
L 39.485857 104.404557 
L 37.565664 108.288696 
L 30.630084 109.985965 
L 28.889762 114.145788 
L 61.155991 130.687729 
L 60.051485 133.877516 
L 79.02903 142.979878 
L 78.302178 145.60162 
L 50.316059 142.036572 
L 49.573744 145.561579 
L 60.013917 150.899196 
L 59.545467 154.114899 
L 15.327776 153.055291 
L 14.949213 157.674958 
L 42.73736 163.273946 
L 42.666542 167.026743 
L 22.694603 171.346657 
L 22.887518 175.725651 
L 37.577667 178.78321 
L 37.997045 182.690571 
L 32.206312 187.56644 
L 32.90451 191.638346 
L 61.11096 189.650027 
L 61.86038 192.812077 
L 49.620293 199.710994 
L 50.691732 203.229362 
L 33.011172 213.443499 
L 34.522604 217.477304 
L 30.271568 223.99069 
L 32.115981 228.105419 
L 29.800399 234.330781 
L 31.97016 238.455212 
L 42.555625 237.637559 
L 44.823051 241.359303 
L 77.073249 224.821431 
L 78.920643 227.464202 
L 71.971407 236.899429 
L 74.201082 239.696641 
L 67.484826 250.34704 
L 70.139541 253.278672 
L 60.961564 267.992828 
L 64.174326 271.120841 
L 61.110096 281.342528 
L 64.742529 284.459269 
L 78.319241 274.822558 
L 81.738164 277.40143 
L 101.949909 255.392889 
L 104.746236 257.238368 
L 100.232917 271.391045 
L 103.53311 273.282599 
L 102.874561 282.912771 
L 106.535717 284.71557 
L 106.416475 295.217197 
L 110.462757 296.902547 
L 133.929106 244.982258 
L 136.382289 245.827388 
L 129.18914 279.656064 
L 132.734887 280.633086 
L 134.548072 289.312935 
L 138.394803 290.116685 
L 138.971069 311.365252 
L 143.508986 312.01903 
L 151.287375 279.038795 
L 154.802787 279.321305 
L 158.272451 281.094443 
L 161.849044 281.15631 
L 165.186525 273.098396 
L 168.508286 272.946823 
L 171.304168 267.107386 
L 174.434534 266.766423 
L 185.501291 316.976853 
L 190.192643 316.164845 
L 192.945506 306.603404 
L 197.307013 305.562462 
L 199.631098 297.458803 
L 203.701773 296.212172 
L 194.209544 257.13519 
L 197.015037 256.078962 
L 220.410065 302.747157 
L 224.636744 300.844576 
L 231.341812 303.809254 
L 235.596481 301.56243 
L 214.13295 255.715963 
L 216.883969 254.034001 
L 238.9149 280.775463 
L 242.441591 278.301913 
L 235.590064 262.416661 
L 238.541158 260.056728 
L 232.948466 247.983512 
L 235.447057 245.713772 
L 254.287293 259.80667 
L 257.14708 256.860145 
L 256.910203 251.174146 
L 259.497267 248.149419 
L 234.150974 223.422816 
L 235.876729 221.127411 
L 291.175295 255.283429 
L 293.874622 251.179301 
L 261.978017 226.58458 
L 263.789426 223.412668 
L 281.913054 228.557887 
L 283.776652 224.758199 
L 256.117012 208.163772 
L 257.352128 205.18525 
L 238.898513 195.107267 
L 239.731617 192.676588 
L 307.409628 209.684022 
L 308.667184 205.091997 
L 300.398665 198.363616 
L 301.303749 193.997628 
L 310.774358 190.985203 
L 311.442318 186.296629 
L 313.557578 181.740299 
L 313.933482 176.968785 
L 299.746737 171.734428 
L 270.975733 167.402104 
z
" clip-path="url(#p03b9103140)" style="fill: #0000ff; opacity: 0.5; stroke: #000000; stroke-width: 1.5; stroke-linejoin: miter"/>
   </g>
  </g>
 </g>
 <defs>
  <clipPath id="p03b9103140">
   <rect x="0" y="-0" width="328.882695" height="332.64"/>
  </clipPath>
 </defs>
</svg>
