<?xml version="1.0" encoding="utf-8" standalone="no"?>
<!DOCTYPE svg PUBLIC "-//W3C//DTD SVG 1.1//EN"
  "http://www.w3.org/Graphics/SVG/1.1/DTD/svg11.dtd">
<svg xmlns:xlink="http://www.w3.org/1999/xlink" width="325.446574pt" height="332.64pt" viewBox="0 0 325.446574 332.64" xmlns="http://www.w3.org/2000/svg" version="1.1">
 <metadata>
  <rdf:RDF xmlns:dc="http://purl.org/dc/elements/1.1/" xmlns:cc="http://creativecommons.org/ns#" xmlns:rdf="http://www.w3.org/1999/02/22-rdf-syntax-ns#">
   <cc:Work>
    <dc:type rdf:resource="http://purl.org/dc/dcmitype/StillImage"/>
    <dc:date>2023-12-09T18:06:17.455825</dc:date>
    <dc:format>image/svg+xml</dc:format>
    <dc:creator>
     <cc:Agent>
      <dc:title>Matplotlib v3.8.2, https://matplotlib.org/</dc:title>
     </cc:Agent>
    </dc:creator>
   </cc:Work>
  </rdf:RDF>
 </metadata>
 <defs>
  <style type="text/css">*{stroke-linejoin: round; stroke-linecap: butt}</style>
 </defs>
 <g id="figure_1">
  <g id="patch_1">
   <path d="M 0 332.64 
L 325.446574 332.64 
L 325.446574 0 
L 0 0 
L 0 332.64 
z
" style="fill: none"/>
  </g>
  <g id="axes_1">
   <g id="patch_2">
    <path d="M 295.808865 165.675201 
L 295.741296 161.378253 
L 247.681943 160.099465 
L 247.462855 157.31849 
L 275.700029 150.936237 
L 275.178976 147.278842 
L 310.653548 136.744157 
L 309.668983 131.994765 
L 261.319505 139.414366 
L 260.44329 136.214823 
L 260.986905 132.550007 
L 259.895024 129.364316 
L 253.502805 128.27591 
L 252.280238 125.327649 
L 257.472401 119.353905 
L 255.967343 116.285243 
L 297.775442 89.372725 
L 295.307783 85.05167 
L 258.304061 102.669471 
L 256.273997 99.582908 
L 263.841853 89.509304 
L 261.395267 86.255127 
L 261.309313 81.040086 
L 258.597688 77.869726 
L 238.322534 91.211917 
L 235.942099 88.759282 
L 259.722912 58.39712 
L 256.300127 55.287835 
L 243.112517 63.996198 
L 239.873992 61.406412 
L 238.901354 55.684719 
L 235.40358 53.23145 
L 210.025387 85.325121 
L 207.473849 83.765121 
L 212.559816 68.271147 
L 209.47081 66.639891 
L 226.020753 23.142676 
L 221.506154 21.110492 
L 191.998198 82.412047 
L 189.363979 81.420302 
L 186.453873 81.272259 
L 183.786558 80.455403 
L 181.490335 78.174126 
L 178.728063 77.514866 
L 187.393807 16.479103 
L 182.688789 15.664729 
L 169.543941 82.406605 
L 166.920653 82.120873 
L 165.954919 54.79631 
L 162.465277 54.637076 
L 158.92209 22.620001 
L 154.424232 22.697804 
L 153.27763 74.756564 
L 150.421851 74.986064 
L 147.5747 75.305241 
L 144.738992 75.713782 
L 139.952764 66.009256 
L 136.828539 66.662043 
L 133.726383 67.41274 
L 130.649365 68.260605 
L 114.187055 28.185887 
L 109.886319 29.667505 
L 114.799459 54.300959 
L 111.319535 55.75041 
L 94.559275 29.133235 
L 90.298031 31.231525 
L 111.998119 80.331721 
L 109.338045 81.856382 
L 82.665677 45.727607 
L 78.932076 48.191653 
L 88.470709 68.846555 
L 85.461149 71.116648 
L 64.135036 51.353456 
L 60.587486 54.397365 
L 76.332758 77.897205 
L 73.613771 80.544467 
L 82.6572 94.189724 
L 80.447359 96.630076 
L 62.889446 86.440899 
L 60.445738 89.506624 
L 76.884084 106.2233 
L 75.055459 108.839221 
L 87.503514 120.467574 
L 86.11751 122.742555 
L 37.813142 99.388111 
L 35.788921 103.235888 
L 40.403118 110.190312 
L 38.717262 113.951313 
L 24.504512 112.797002 
L 22.908476 117.056602 
L 79.265889 139.96997 
L 78.497155 142.494317 
L 69.28696 142.87997 
L 68.614657 145.716638 
L 52.32237 145.624395 
L 51.744746 148.993109 
L 79.82813 155.898083 
L 79.559933 158.396877 
L 73.786076 160.568805 
L 73.667724 163.255265 
L 41.666376 166.044648 
L 41.736078 169.738314 
L 61.858131 172.109465 
L 62.108541 175.16526 
L 75.135841 176.567543 
L 75.519858 179.203654 
L 14.793026 193.711221 
L 15.745913 198.236165 
L 51.643804 193.666862 
L 52.577075 197.033159 
L 36.912934 205.859465 
L 38.236852 209.682905 
L 16.677428 222.664171 
L 18.539727 227.115551 
L 29.203939 227.391738 
L 31.208689 231.446919 
L 70.383146 214.896069 
L 71.974646 217.662664 
L 62.208176 227.700252 
L 64.206309 230.717555 
L 85.641804 219.504845 
L 87.370669 221.789395 
L 67.072663 242.442643 
L 69.531924 245.299706 
L 62.79263 256.867668 
L 65.707562 259.852174 
L 85.058048 245.201078 
L 87.595147 247.491278 
L 65.869817 279.356588 
L 69.490327 282.233221 
L 104.028501 242.195246 
L 106.461711 243.89046 
L 102.991086 254.980057 
L 105.826792 256.701568 
L 94.961095 283.603394 
L 98.700751 285.563234 
L 119.35936 251.175556 
L 122.067351 252.384294 
L 119.283488 267.649744 
L 122.509501 268.852722 
L 116.27075 299.638784 
L 120.504058 300.920673 
L 132.782563 270.295309 
L 136.085083 271.072538 
L 142.334352 256.03142 
L 145.183662 256.515372 
L 146.79197 267.222939 
L 149.990962 267.561201 
L 150.596751 312.47775 
L 155.216772 312.674006 
L 159.863299 317.52 
L 164.637278 317.422402 
L 166.382181 272.52225 
L 169.738109 272.241933 
L 173.915596 278.195403 
L 177.446176 277.675414 
L 184.645134 295.867682 
L 188.726064 295.001594 
L 184.876551 263.857234 
L 187.950888 262.999697 
L 189.742816 258.251798 
L 192.6385 257.244027 
L 193.713162 251.696338 
L 196.400764 250.566972 
L 215.219732 283.257863 
L 218.889064 281.436678 
L 206.175416 250.171669 
L 208.808918 248.651216 
L 214.847612 252.428779 
L 217.547794 250.634537 
L 236.279133 270.653622 
L 239.541748 268.176515 
L 227.34244 247.207341 
L 229.872272 245.022816 
L 251.591414 263.045256 
L 254.607234 260.090459 
L 270.411968 269.007039 
L 273.605935 265.457535 
L 224.103172 218.801973 
L 225.741478 216.733342 
L 238.350478 222.537683 
L 240.099199 220.019239 
L 264.11613 231.450918 
L 266.132363 228.117938 
L 254.694288 217.485068 
L 256.276063 214.455237 
L 236.733642 201.631896 
L 237.825839 199.174625 
L 236.605844 195.814815 
L 237.515202 193.364439 
L 303.077866 211.492218 
L 304.44729 206.944064 
L 253.729951 189.352173 
L 254.427642 186.366572 
L 240.884282 180.751203 
L 241.317891 178.17375 
L 289.279796 181.300518 
L 289.706749 177.201133 
L 276.440092 172.321707 
L 276.59108 168.63047 
L 295.806162 164.815675 
L 295.711569 160.519237 
L 247.645123 159.542741 
L 247.408549 156.763199 
L 275.605024 150.203476 
L 275.060979 146.549431 
L 310.468591 135.791839 
L 309.454176 131.048733 
L 261.152318 138.772278 
L 260.255997 135.57831 
L 260.776552 131.910147 
L 259.664657 128.731387 
L 253.265719 127.683205 
L 252.024632 124.742691 
L 257.179121 118.736411 
L 255.654793 115.677275 
L 297.292801 88.50234 
L 294.798014 84.196891 
L 257.905829 102.047076 
L 255.856392 98.973342 
L 263.360742 88.852339 
L 260.893737 85.613615 
L 260.774985 80.399217 
L 258.043474 77.245974 
L 237.852636 90.71542 
L 235.456822 88.277806 
L 259.046204 57.766676 
L 255.603931 54.67898 
L 242.471353 63.470114 
L 239.216603 60.900747 
L 238.207999 55.185285 
L 234.694864 52.754064 
L 209.519024 85.006714 
L 206.957725 83.462793 
L 211.946143 67.937137 
L 208.846939 66.325341 
L 225.122981 22.724897 
L 220.59569 20.721147 
L 191.47387 82.207079 
L 188.833466 81.231921 
L 185.922486 81.102184 
L 183.250086 80.30212 
L 180.939561 78.03533 
L 178.173197 77.393456 
L 186.454889 16.304398 
L 181.744842 15.519632 
L 169.020023 82.342861 
L 166.39499 82.073634 
L 165.257419 54.755685 
L 161.766845 54.618402 
L 158.022358 22.624245 
L 153.525079 22.730336 
L 152.705919 74.795278 
L 149.85164 75.042734 
L 147.006553 75.379812 
L 144.17347 75.80618 
L 139.326302 66.131948 
L 136.206244 66.804372 
L 133.108871 67.574565 
L 130.037246 68.441765 
L 113.323214 28.471379 
L 109.031882 29.980017 
L 114.099855 54.582083 
L 110.629116 56.053392 
L 93.701781 29.542156 
L 89.453818 31.667206 
L 111.46229 80.629949 
L 108.811857 82.17131 
L 81.912787 46.211003 
L 78.194758 48.698483 
L 87.86311 69.292984 
L 84.867886 71.58196 
L 63.417896 51.953289 
L 59.889561 55.01945 
L 75.782322 78.419796 
L 73.080039 81.084106 
L 82.20911 94.672216 
L 80.014661 97.126418 
L 62.393011 87.047872 
L 59.968633 90.128906 
L 76.511792 106.741863 
L 74.699656 109.369234 
L 87.220601 120.919065 
L 85.848932 123.202718 
L 37.398633 100.152543 
L 35.398653 104.012976 
L 40.056498 110.938241 
L 38.39433 114.709771 
L 24.174601 113.644873 
L 22.605387 117.914427 
L 79.105797 140.472885 
L 78.352956 143.002018 
L 69.145368 143.44559 
L 68.49092 146.28643 
L 52.198375 146.296658 
L 51.641949 149.668939 
L 79.768206 156.397147 
L 79.515731 158.897578 
L 73.755648 161.105778 
L 73.654195 163.792929 
L 41.671023 166.783527 
L 41.763954 170.476682 
L 61.900523 172.72123 
L 62.170147 175.77539 
L 75.206009 177.095711 
L 75.606598 179.729354 
L 14.972212 194.618571 
L 15.953539 199.137433 
L 51.821982 194.342443 
L 52.776407 197.702804 
L 37.168088 206.627454 
L 38.516027 210.442491 
L 17.038674 223.559097 
L 18.928933 227.998676 
L 29.594671 228.207786 
L 31.624887 232.250278 
L 70.694473 215.45337 
L 72.303341 218.2099 
L 62.600196 228.308716 
L 64.617266 231.313392 
L 85.981816 219.966086 
L 87.725015 222.239718 
L 67.557308 243.02022 
L 70.034489 245.86176 
L 63.368085 257.471879 
L 66.30173 260.437992 
L 85.559686 245.665483 
L 88.111139 247.939681 
L 66.586653 279.941 
L 70.225184 282.794805 
L 104.510859 242.540397 
L 106.954683 244.220274 
L 103.553874 255.33148 
L 106.40035 257.035122 
L 95.704066 284.004755 
L 99.455974 285.941035 
L 119.897896 251.424107 
L 122.613435 252.615789 
L 119.925639 267.898446 
L 123.159154 269.08111 
L 117.114153 299.905802 
L 121.355439 301.16104 
L 133.441085 270.459057 
L 136.748429 271.2155 
L 142.902974 256.135375 
L 145.755272 256.601397 
L 147.430892 267.298637 
L 150.631948 267.616773 
L 151.520225 312.528622 
L 156.141389 312.695817 
L 160.818302 317.512492 
L 165.591573 317.384871 
L 167.054045 272.474632 
L 170.408144 272.173213 
L 174.622992 278.100292 
L 178.150232 277.558107 
L 185.463466 295.704738 
L 189.538868 294.813001 
L 185.493552 263.693468 
L 188.562434 262.816612 
L 190.324465 258.057537 
L 193.213753 257.031573 
L 194.253502 251.477235 
L 196.933948 250.330988 
L 215.958151 282.902872 
L 219.615957 281.058645 
L 206.705921 249.874216 
L 209.329808 248.33723 
L 215.392141 252.076738 
L 218.080985 250.265549 
L 236.937862 270.166428 
L 240.184833 267.66885 
L 227.853883 246.776818 
L 230.369924 244.576425 
L 252.201988 262.461907 
L 255.199165 259.488201 
L 271.059666 268.305201 
L 274.231245 264.73568 
L 224.436024 218.392385 
L 226.061287 216.313491 
L 238.706544 222.038414 
L 240.439391 219.50902 
L 264.527746 230.789421 
L 266.522977 227.443826 
L 255.018253 216.883105 
L 256.580941 213.843385 
L 236.958255 201.143209 
L 238.034975 198.679117 
L 236.793873 195.327047 
L 237.687801 192.871 
L 303.363182 210.586069 
L 304.703974 206.029391 
L 253.876995 188.756832 
L 254.555895 185.766902 
L 240.977485 180.236823 
L 241.394875 177.656695 
L 289.375496 180.481748 
L 289.776658 176.379758 
L 276.479575 171.583869 
L 276.607344 167.891755 
L 295.798054 163.956183 
L 295.67644 159.660426 
L 247.604803 158.986259 
L 247.350752 156.20826 
L 275.505412 149.471327 
L 274.938396 145.820776 
L 310.277649 134.840704 
L 309.233422 130.104071 
L 260.981096 138.131255 
L 260.064705 134.942987 
L 260.562179 131.271623 
L 259.430313 128.099918 
L 253.024909 127.092003 
L 251.765353 124.159353 
L 256.881964 118.120773 
L 255.338426 115.071284 
L 296.804695 87.635008 
L 294.282878 83.345335 
L 257.503691 101.427197 
L 255.434963 98.366414 
L 262.875509 88.198413 
L 260.388183 84.975269 
L 260.236638 79.761721 
L 257.485348 76.62572 
L 237.379625 90.221889 
L 234.968527 87.799391 
L 258.365545 57.140501 
L 254.90392 54.074516 
L 241.826893 62.948073 
L 238.556048 60.399228 
L 237.511517 54.690221 
L 233.98316 52.281144 
L 209.010669 84.691498 
L 206.43971 83.163717 
L 211.330381 67.606994 
L 208.221101 66.014722 
L 224.2226 22.312773 
L 219.682796 20.337537 
L 190.948263 82.005412 
L 188.301778 81.04688 
L 185.39004 80.935454 
L 182.712661 80.152214 
L 180.387925 77.900001 
L 177.617578 77.275539 
L 185.514892 16.135601 
L 180.800002 15.380474 
L 168.495714 82.282414 
L 165.86904 82.029702 
L 164.559677 54.719448 
L 161.068309 54.604122 
L 157.122671 22.634148 
L 152.626148 22.768522 
L 152.134463 74.837586 
L 149.281797 75.102989 
L 146.438886 75.457955 
L 143.608541 75.902133 
L 138.700623 66.258578 
L 135.584856 66.950612 
L 132.492388 67.740271 
L 129.426279 68.626773 
L 112.461186 28.762298 
L 108.179427 30.297897 
L 113.402033 54.867601 
L 109.940617 56.36071 
L 92.846876 29.956462 
L 88.612362 32.108187 
L 110.928347 80.931541 
L 108.287661 82.489542 
L 81.162953 46.699126 
L 77.460642 49.209941 
L 87.25833 69.743225 
L 84.277562 72.050995 
L 62.704543 52.55762 
L 59.195562 55.645912 
L 75.235184 78.945838 
L 72.549711 81.627092 
L 81.764063 95.157516 
L 79.585093 97.625472 
L 61.900403 87.657955 
L 59.495452 90.754176 
L 76.142769 107.262757 
L 74.347193 109.901474 
L 86.940533 121.372327 
L 85.583254 123.664561 
L 36.988941 100.919568 
L 35.01328 104.792503 
L 39.714589 111.688335 
L 38.076175 115.470246 
L 23.850029 114.494802 
L 22.3077 118.774141 
L 78.948872 140.976798 
L 78.211952 143.510615 
L 69.007337 144.012089 
L 68.370769 146.856989 
L 52.07861 146.969687 
L 51.543405 150.345401 
L 79.711422 156.896578 
L 79.474678 159.398548 
L 73.728597 161.642931 
L 73.644047 164.330668 
L 41.680317 167.522363 
L 41.796475 171.21486 
L 61.946762 173.332716 
L 62.23559 176.385119 
L 75.279498 177.623426 
L 75.696643 180.254498 
L 15.157101 195.524777 
L 16.16683 200.037377 
L 52.004405 195.01689 
L 52.979946 198.371181 
L 37.428067 207.393822 
L 38.799973 211.200306 
L 17.405542 224.451733 
L 19.323686 228.879335 
L 29.990528 229.02136 
L 32.046128 233.051003 
L 71.009299 216.008702 
L 72.635473 218.755059 
L 62.996035 228.914702 
L 65.031963 231.906632 
L 86.324722 220.42518 
L 88.082186 222.687803 
L 68.045576 243.594738 
L 70.54058 246.420641 
L 63.947329 258.072459 
L 66.89957 261.020062 
L 86.064235 246.126724 
L 88.629941 248.384829 
L 67.307151 280.520893 
L 70.963559 283.351757 
L 104.995378 242.882507 
L 107.449719 244.54698 
L 104.118861 255.679356 
L 106.975996 257.365061 
L 96.449547 284.401435 
L 100.213559 286.314079 
L 120.437984 251.669266 
L 123.160965 252.843845 
L 120.569341 268.143104 
L 123.81023 269.305408 
L 117.959219 300.16751 
L 122.208316 301.396048 
L 134.100625 270.61866 
L 137.412661 271.354287 
L 143.472239 256.235752 
L 146.327411 256.683826 
L 148.070278 267.370315 
L 151.273272 267.668311 
L 152.444 312.573686 
L 157.066125 312.711813 
L 161.77324 317.498977 
L 166.545614 317.341337 
L 167.725597 272.422789 
L 171.077733 272.100281 
L 175.329776 278.000733 
L 178.853536 277.436375 
L 186.280758 295.536651 
L 190.350471 294.619299 
L 186.10951 263.525824 
L 189.172817 262.629685 
L 190.904881 257.859621 
L 193.787659 256.815506 
L 194.792454 251.254738 
L 197.465638 250.091655 
L 216.694323 282.543244 
L 220.340457 280.676048 
L 207.234545 249.573432 
L 209.848713 248.019974 
L 215.934445 251.721279 
L 218.611845 249.893214 
L 237.593514 269.675101 
L 240.824713 267.157151 
L 228.362607 246.343087 
L 230.86476 244.126913 
L 252.808881 261.87473 
L 255.787296 258.882232 
L 271.702937 267.599304 
L 274.852003 264.009906 
L 224.766294 217.980712 
L 226.37845 215.891637 
L 239.059463 221.536914 
L 240.776367 218.996673 
L 264.935193 230.125348 
L 266.909342 226.76727 
L 255.338426 216.279117 
L 256.881964 213.229628 
L 237.17979 200.653119 
L 238.240991 198.182304 
L 236.978831 194.838106 
L 237.857294 192.376485 
L 303.642794 209.678142 
L 304.9549 205.113123 
L 254.020292 188.160578 
L 254.680373 185.166437 
L 241.067451 179.721868 
L 241.468605 177.139165 
L 289.466045 179.662391 
L 289.8414 175.55796 
L 276.514417 170.845796 
L 276.618962 167.152952 
L 295.784539 163.09676 
L 295.63591 158.801852 
L 247.560984 158.430042 
L 247.289466 155.653696 
L 275.401197 148.739819 
L 274.811233 145.092907 
L 310.080728 133.890788 
L 309.006731 129.160816 
L 260.805846 137.491321 
L 259.869421 134.30888 
L 260.343794 130.634459 
L 259.192002 127.469936 
L 252.780386 126.502328 
L 251.50241 123.577658 
L 256.580941 117.507016 
L 255.018253 114.467296 
L 296.311144 86.770763 
L 293.762397 82.497035 
L 257.097662 100.80986 
L 255.009724 97.762149 
L 262.386172 87.547552 
L 259.878623 84.340116 
L 259.694291 79.127624 
L 256.923332 76.008989 
L 236.903519 89.731343 
L 234.477233 87.324057 
L 257.680961 56.51862 
L 254.200121 53.474467 
L 241.179162 62.430095 
L 237.892351 59.901872 
L 236.811934 54.199548 
L 233.268496 51.81271 
L 208.500341 84.379486 
L 205.919824 82.867904 
L 210.712556 67.280729 
L 207.593323 65.708045 
L 223.319645 21.90632 
L 218.767507 19.959676 
L 190.421399 81.807055 
L 187.768937 80.865187 
L 184.856556 80.772077 
L 182.174304 80.005691 
L 179.835449 77.768144 
L 177.061229 77.161118 
L 184.573851 15.97272 
L 179.854305 15.247262 
L 167.971036 82.225265 
L 165.342824 81.989079 
L 163.861721 54.6876 
L 160.369697 54.594235 
L 156.223064 22.649709 
L 151.727475 22.812361 
L 151.563285 74.883488 
L 148.712344 75.166827 
L 145.871722 75.539666 
L 143.044227 76.001636 
L 138.075753 66.389141 
L 134.9644 67.100758 
L 131.87696 67.90985 
L 128.816487 68.815619 
L 111.601005 29.058634 
L 107.328989 30.621132 
L 112.706021 55.157503 
L 109.254064 56.672353 
L 91.994593 30.376137 
L 87.773696 32.554452 
L 110.396311 81.236486 
L 107.765476 82.811064 
L 80.416203 47.191955 
L 76.729757 49.726005 
L 86.656394 70.197262 
L 83.6902 72.523733 
L 61.995005 53.166426 
L 58.505517 56.276726 
L 74.691365 79.475312 
L 72.022809 82.173402 
L 81.322077 95.645605 
L 79.158672 98.127217 
L 61.411643 88.271124 
L 59.026212 91.38241 
L 75.777029 107.785962 
L 73.998085 110.43592 
L 86.663321 121.827341 
L 85.320486 124.128067 
L 36.584081 101.689154 
L 34.632818 105.574438 
L 39.377405 112.440566 
L 37.762809 116.232706 
L 23.530809 115.346756 
L 22.015425 119.635711 
L 78.795119 141.481687 
L 78.074151 144.020089 
L 68.872871 144.579445 
L 68.254208 147.428293 
L 51.963081 147.643457 
L 51.449118 151.02247 
L 79.657781 157.396357 
L 79.436778 159.899766 
L 73.704926 162.180245 
L 73.637282 164.86846 
L 41.694258 168.261125 
L 41.833637 171.952819 
L 61.996846 173.943899 
L 62.304866 176.994426 
L 75.356304 178.150669 
L 75.789989 180.779065 
L 15.347686 196.429801 
L 16.385776 200.935962 
L 52.191067 195.690176 
L 53.187685 199.038265 
L 37.692861 208.15854 
L 39.088681 211.95632 
L 17.778016 225.342044 
L 19.723969 229.757495 
L 30.391494 229.832428 
L 32.472398 233.849063 
L 71.327612 216.562043 
L 72.971026 219.298118 
L 63.395677 229.518186 
L 65.450383 232.497253 
L 86.670508 220.882108 
L 88.442169 223.133633 
L 68.537448 244.166173 
L 71.050176 246.976328 
L 64.530338 258.669384 
L 67.50106 261.598361 
L 86.571675 246.584782 
L 89.151533 248.826706 
L 68.031282 281.096242 
L 71.705422 283.904053 
L 105.482039 243.221564 
L 107.9468 244.870567 
L 104.686024 256.023672 
L 107.553705 257.691374 
L 97.197508 284.793418 
L 100.973475 286.682351 
L 120.979604 251.911023 
L 123.709918 253.068453 
L 121.214569 268.383709 
L 124.462704 269.525607 
L 118.805914 300.423898 
L 123.062654 301.625687 
L 134.761155 270.774113 
L 138.077752 271.488894 
L 144.042123 256.332546 
L 146.900057 256.762654 
L 148.710101 267.43797 
L 151.914906 267.715816 
L 153.368041 312.612939 
L 157.990943 312.721993 
L 162.728073 317.479457 
L 167.499361 317.291805 
L 168.396809 272.366723 
L 171.746851 272.023139 
L 176.03592 277.896731 
L 179.556061 277.310222 
L 187.096976 295.363426 
L 191.160839 294.420497 
L 186.724402 263.35431 
L 189.782012 262.438922 
L 191.484041 257.658059 
L 194.360195 256.595833 
L 195.329996 251.028856 
L 197.995812 249.848983 
L 217.428219 282.178992 
L 221.062537 280.288901 
L 207.761266 249.269329 
L 210.365612 247.69946 
L 216.474503 251.362416 
L 219.140353 249.517549 
L 238.246063 269.17966 
L 241.461361 266.641438 
L 228.868593 245.906164 
L 231.356758 243.674297 
L 253.412069 261.283747 
L 256.371604 258.272576 
L 272.341756 266.889376 
L 275.468185 263.280242 
L 225.093968 217.566969 
L 226.692953 215.467796 
L 239.409221 221.033206 
L 241.110114 218.482216 
L 265.338456 229.458726 
L 267.291446 226.088298 
L 255.654793 215.673126 
L 257.179121 212.61399 
L 237.398238 200.161645 
L 238.443877 197.684205 
L 237.160709 194.348011 
L 238.023673 191.880914 
L 303.916689 208.768476 
L 305.200058 204.195294 
L 254.159835 187.563434 
L 254.801072 184.565201 
L 241.154176 179.206357 
L 241.539079 176.621183 
L 289.551439 178.842482 
L 289.900972 174.735771 
L 276.544616 170.10752 
L 276.625933 166.414091 
L 295.76562 162.237438 
L 295.589981 157.94355 
L 247.513667 157.874112 
L 247.224693 155.099528 
L 275.292384 148.008981 
L 274.679494 144.365852 
L 309.877837 132.942129 
L 308.774112 128.219006 
L 260.626575 136.852502 
L 259.670152 133.676014 
L 260.121406 129.998682 
L 258.949734 126.841466 
L 252.532159 125.914202 
L 251.235814 122.997627 
L 256.276063 116.895165 
L 254.694288 113.865333 
L 295.812167 85.909639 
L 293.236591 81.652026 
L 256.687759 100.195089 
L 254.580694 97.16057 
L 261.892752 86.899782 
L 259.365079 83.70818 
L 259.147967 78.496951 
L 256.357449 75.395805 
L 236.424338 89.243801 
L 233.982959 86.851823 
L 256.992479 55.901056 
L 253.492562 52.878856 
L 240.528187 61.916201 
L 237.225539 59.408701 
L 236.109279 53.713285 
L 232.550899 51.34878 
L 207.988061 84.070689 
L 205.398088 82.575368 
L 210.092691 66.958358 
L 206.963628 65.405323 
L 222.414151 21.505554 
L 217.84986 19.587579 
L 189.893297 81.612016 
L 187.234964 80.686849 
L 184.322055 80.612058 
L 181.635036 79.862557 
L 179.282154 77.639764 
L 176.504171 77.050198 
L 183.631804 15.81576 
L 178.907789 15.12 
L 167.446009 82.171418 
L 164.816364 81.951766 
L 163.163579 54.660142 
L 159.671036 54.588742 
L 155.323572 22.670928 
L 150.829095 22.861851 
L 150.992407 74.932981 
L 148.143304 75.234246 
L 145.305083 75.624943 
L 142.480549 76.104688 
L 137.451717 66.523631 
L 134.344901 67.254802 
L 131.262611 68.083297 
L 128.207895 69.008296 
L 110.742705 29.360373 
L 106.4806 30.949709 
L 112.011846 55.451777 
L 108.569485 56.988307 
L 91.144967 30.801163 
L 86.937854 33.005983 
L 109.866203 81.54477 
L 107.245324 83.135863 
L 79.672568 47.68947 
L 76.002132 50.246657 
L 86.057326 70.655075 
L 83.105823 73.000156 
L 61.28931 53.779682 
L 57.819453 56.911868 
L 74.150887 80.008195 
L 71.499353 82.723016 
L 80.88317 96.136465 
L 78.735416 98.631634 
L 60.926748 88.887355 
L 58.560933 92.013582 
L 75.414588 108.311457 
L 73.652346 110.972551 
L 86.388976 122.284089 
L 85.060638 124.593216 
L 36.184069 102.461271 
L 34.257281 106.35875 
L 39.044958 113.194902 
L 37.454244 116.997121 
L 23.216954 116.200701 
L 21.728575 120.499101 
L 78.644545 141.987534 
L 77.939556 144.53042 
L 68.741976 145.147636 
L 68.141243 148.000318 
L 51.851791 148.31794 
L 51.359091 151.700119 
L 79.607284 157.896463 
L 79.40203 160.401213 
L 73.684635 162.717696 
L 73.633899 165.406283 
L 41.712845 168.999785 
L 41.87544 172.690529 
L 62.050773 174.554755 
L 62.377973 177.603284 
L 75.436425 178.677419 
L 75.886632 181.303035 
L 15.543959 197.333609 
L 16.61037 201.833152 
L 52.381959 196.362275 
L 53.399616 199.70403 
L 37.96246 208.921578 
L 39.382137 212.710504 
L 18.156083 226.229995 
L 20.129768 230.633119 
L 30.797553 230.640959 
L 32.903678 234.644427 
L 71.649398 217.113371 
L 73.309988 219.839055 
L 63.799107 230.119145 
L 65.872509 233.08523 
L 87.019162 221.336853 
L 88.804948 223.57719 
L 69.032903 244.734503 
L 71.563256 247.5288 
L 65.11709 259.26263 
L 68.106175 262.172865 
L 87.081986 247.039639 
L 89.675893 249.265293 
L 68.759017 281.667025 
L 72.450744 284.451673 
L 105.970823 243.557552 
L 108.445907 245.191021 
L 105.255342 256.364414 
L 108.133455 258.014047 
L 97.947919 285.180689 
L 101.735692 287.045837 
L 121.522733 252.149369 
L 124.260273 253.289604 
L 121.861297 268.620252 
L 125.11655 269.741698 
L 119.654205 300.674956 
L 123.918419 301.849949 
L 135.42265 270.925407 
L 138.743677 271.619315 
L 144.612605 256.425754 
L 147.473188 256.837878 
L 149.350338 267.5016 
L 152.556827 267.759283 
L 154.292311 312.646379 
L 158.915807 312.726355 
L 163.682765 317.453932 
L 168.452779 317.236274 
L 169.067655 272.306437 
L 172.41547 271.941789 
L 176.741396 277.78829 
L 180.257778 277.179652 
L 187.912089 295.185072 
L 191.969941 294.216602 
L 187.338202 263.178932 
L 190.389995 262.244331 
L 192.061921 257.452858 
L 194.931338 256.372564 
L 195.866106 250.799598 
L 198.524449 249.602981 
L 218.159809 281.810132 
L 221.782168 279.897221 
L 208.286064 248.96192 
L 210.880485 247.375702 
L 217.012293 251.000164 
L 219.666487 249.138566 
L 238.895483 268.680125 
L 242.094754 266.12173 
L 229.371821 245.466068 
L 231.8459 243.218596 
L 254.011528 260.688982 
L 256.952066 257.659257 
L 272.976097 266.175443 
L 276.079764 262.546717 
L 225.419034 217.151174 
L 227.004784 215.041986 
L 239.755804 220.527307 
L 241.440619 217.96567 
L 265.737518 228.78958 
L 267.669271 225.406936 
L 255.967343 215.065158 
L 257.472401 211.996496 
L 237.61359 199.668807 
L 238.643627 197.184839 
L 237.339502 193.856782 
L 238.186932 191.384306 
L 304.184858 207.857104 
L 305.439439 203.275941 
L 254.295621 186.965424 
L 254.917988 183.963217 
L 241.237657 178.690311 
L 241.606293 176.102767 
L 289.631675 178.022052 
L 289.955372 173.913224 
L 276.57017 169.369068 
L 295.808865 165.675201 
z
" clip-path="url(#p9bcf124cb3)" style="fill: #0000ff; opacity: 0.5; stroke: #000000; stroke-width: 1.5; stroke-linejoin: miter"/>
   </g>
  </g>
 </g>
 <defs>
  <clipPath id="p9bcf124cb3">
   <rect x="0" y="-0" width="325.446574" height="332.64"/>
  </clipPath>
 </defs>
</svg>
