<?xml version="1.0" encoding="utf-8" standalone="no"?>
<!DOCTYPE svg PUBLIC "-//W3C//DTD SVG 1.1//EN"
  "http://www.w3.org/Graphics/SVG/1.1/DTD/svg11.dtd">
<svg xmlns:xlink="http://www.w3.org/1999/xlink" width="334.8pt" height="321.862788pt" viewBox="0 0 334.8 321.862788" xmlns="http://www.w3.org/2000/svg" version="1.1">
 <metadata>
  <rdf:RDF xmlns:dc="http://purl.org/dc/elements/1.1/" xmlns:cc="http://creativecommons.org/ns#" xmlns:rdf="http://www.w3.org/1999/02/22-rdf-syntax-ns#">
   <cc:Work>
    <dc:type rdf:resource="http://purl.org/dc/dcmitype/StillImage"/>
    <dc:date>2023-12-09T18:06:22.878971</dc:date>
    <dc:format>image/svg+xml</dc:format>
    <dc:creator>
     <cc:Agent>
      <dc:title>Matplotlib v3.8.2, https://matplotlib.org/</dc:title>
     </cc:Agent>
    </dc:creator>
   </cc:Work>
  </rdf:RDF>
 </metadata>
 <defs>
  <style type="text/css">*{stroke-linejoin: round; stroke-linecap: butt}</style>
 </defs>
 <g id="figure_1">
  <g id="patch_1">
   <path d="M 0 321.862788 
L 334.8 321.862788 
L 334.8 0 
L 0 0 
L 0 321.862788 
z
" style="fill: none"/>
  </g>
  <g id="axes_1">
   <g id="patch_2">
    <path d="M 257.970614 154.123798 
L 257.928645 151.45485 
L 265.720205 148.289919 
L 265.490974 145.380191 
L 308.457742 137.00511 
L 307.852561 132.7572 
L 319.581818 126.149639 
L 318.629818 121.557331 
L 273.738621 128.253687 
L 272.875442 125.101749 
L 277.94884 120.015439 
L 276.824551 116.735195 
L 302.147385 102.968561 
L 300.475141 98.935891 
L 246.287703 119.63847 
L 245.167216 117.353909 
L 281.504991 94.449071 
L 279.575082 91.069655 
L 273.522426 90.30533 
L 271.466175 87.178952 
L 257.765483 92.519377 
L 255.786637 89.887337 
L 240.896971 97.946883 
L 239.097118 95.842543 
L 262.081213 70.425543 
L 259.405555 67.668731 
L 246.335409 75.993524 
L 243.842605 73.729042 
L 251.382577 59.310023 
L 248.362712 56.895096 
L 263.896046 28.886641 
L 259.913417 26.093305 
L 220.619469 79.056674 
L 218.235693 77.599243 
L 239.456367 33.090773 
L 235.618008 31.063796 
L 217.565385 59.322543 
L 214.562634 57.970896 
L 217.050827 42.693271 
L 213.52547 41.366025 
L 203.85519 59.020068 
L 200.849707 58.099649 
L 200.368325 47.281764 
L 196.995488 46.476783 
L 199.206794 16.158604 
L 194.855951 15.405533 
L 190.287002 16.364032 
L 185.947029 15.891317 
L 179.114859 55.938115 
L 176.024705 55.797111 
L 172.945367 64.479749 
L 170.126831 64.528503 
L 164.347013 18.749388 
L 160.094865 19.091104 
L 155.855565 19.566347 
L 151.633303 20.174649 
L 155.833587 64.539208 
L 153.025381 65.125965 
L 138.911704 22.023205 
L 134.775069 23.163044 
L 127.470911 14.630127 
L 123.107478 16.133345 
L 140.510608 72.313329 
L 137.954414 73.37803 
L 125.934816 54.442989 
L 122.823946 55.974821 
L 117.461042 53.437373 
L 114.322743 55.236136 
L 112.09557 58.470493 
L 109.118176 60.435469 
L 112.751953 71.463928 
L 110.182777 73.401842 
L 73.702898 34.542194 
L 69.992129 37.726151 
L 93.603462 69.876889 
L 90.993853 72.417659 
L 112.228825 97.247905 
L 110.470612 99.189519 
L 57.937208 59.338956 
L 55.013898 63.006361 
L 56.065184 69.55195 
L 53.463919 73.273166 
L 57.01912 80.88447 
L 54.773702 84.570088 
L 45.683368 84.521057 
L 43.557897 88.561299 
L 63.122119 102.74136 
L 61.560912 106.22428 
L 57.894765 108.884581 
L 56.529299 112.528824 
L 29.603156 107.951849 
L 28.222351 112.486102 
L 33.905394 118.817111 
L 32.86409 123.210721 
L 70.166521 134.805927 
L 69.610012 138.051502 
L 90.414336 143.933367 
L 90.134801 146.537794 
L 15.499118 144.69674 
L 15.280627 149.656288 
L 46.157164 154.522958 
L 46.232472 158.513692 
L 39.308983 162.97125 
L 39.653309 167.173129 
L 44.063213 170.852094 
L 44.65298 174.900592 
L 61.7237 175.752327 
L 62.458809 179.243119 
L 21.846793 193.503509 
L 23.159754 198.23934 
L 52.505326 193.76461 
L 53.811339 197.536341 
L 95.010018 185.35494 
L 96.030596 187.794388 
L 29.767549 222.193125 
L 31.978659 226.665725 
L 103.014027 192.979909 
L 104.270394 195.163924 
L 48.126791 234.077515 
L 50.702494 237.966985 
L 52.75918 242.242261 
L 55.589311 245.982042 
L 65.238063 244.042802 
L 68.118637 247.389329 
L 86.083608 236.465575 
L 88.71563 239.160419 
L 82.778872 251.058313 
L 85.871357 253.84985 
L 112.701001 227.718271 
L 115.044828 229.58053 
L 116.518713 232.65558 
L 119.015893 234.395361 
L 102.563343 266.276573 
L 106.12454 268.438519 
L 120.750137 250.280566 
L 123.799393 251.878588 
L 112.839885 283.588337 
L 116.940321 285.418606 
L 142.181128 233.182083 
L 144.682174 234.114721 
L 130.525552 287.101604 
L 134.727709 288.37406 
L 151.374533 240.281048 
L 154.09424 240.921115 
L 156.397364 243.815127 
L 159.225708 244.295518 
L 154.881738 303.749533 
L 159.595299 304.247946 
L 164.183821 306.973815 
L 168.994162 307.178155 
L 173.643896 272.325845 
L 177.360152 272.249871 
L 180.161043 258.601612 
L 183.442556 258.32751 
L 186.61059 257.163801 
L 189.843707 256.687623 
L 189.248434 236.647003 
L 191.835153 236.098029 
L 206.067358 279.977083 
L 210.008154 278.877862 
L 215.157139 281.42148 
L 219.138856 280.035742 
L 211.539177 249.817411 
L 214.528982 248.561055 
L 233.868508 281.58209 
L 237.846023 279.607946 
L 245.617545 284.44151 
L 249.679157 282.096536 
L 230.091472 242.909235 
L 232.854896 241.07297 
L 226.164797 226.364721 
L 228.409966 224.660099 
L 231.109403 223.49424 
L 233.261873 221.635569 
L 238.632129 223.16205 
L 240.770435 221.067012 
L 261.443276 236.180971 
L 263.979647 233.362263 
L 292.831481 252.061781 
L 295.85166 248.248308 
L 267.817735 222.134261 
L 269.909296 219.122071 
L 281.988662 222.36416 
L 284.080444 218.906291 
L 265.14096 204.039814 
L 266.664914 201.120734 
L 271.695197 199.823037 
L 273.083327 196.699963 
L 266.979416 190.658073 
L 268.08171 187.687805 
L 285.720638 189.9783 
L 286.792293 186.419103 
L 301.603679 186.295588 
L 302.551688 182.238814 
L 310.39304 179.449292 
L 311.121441 175.119546 
L 281.78251 167.17518 
L 282.139132 163.751081 
L 318.029741 162.337134 
L 318.216322 157.775735 
L 257.968935 153.589924 
L 257.910181 150.921293 
L 265.681681 147.70742 
L 265.434154 144.799191 
L 308.347397 136.15404 
L 307.715512 131.91002 
L 319.402979 125.228819 
L 318.422115 120.642589 
L 273.573921 127.621153 
L 272.690936 124.474706 
L 277.732244 119.356588 
L 276.587346 116.08348 
L 301.823095 102.157852 
L 300.125521 98.135779 
L 246.069362 119.178757 
L 244.934529 116.901288 
L 281.127527 93.768359 
L 279.176401 90.401149 
L 273.119058 89.674906 
L 271.043184 86.561523 
L 257.376351 91.988011 
L 255.38099 89.36847 
L 240.542308 97.521504 
L 238.729256 95.428526 
L 261.553038 69.867471 
L 258.860094 67.127542 
L 245.842565 75.534374 
L 243.335568 73.285615 
L 250.784703 58.81946 
L 247.74971 56.423573 
L 263.106579 28.317976 
L 259.10646 25.549744 
L 220.146399 78.759202 
L 217.753504 77.316792 
L 238.693825 32.675737 
L 234.842794 30.672941 
L 216.968259 59.04467 
L 213.957067 57.711935 
L 216.349123 42.418963 
L 212.815487 41.113915 
L 203.256433 58.82843 
L 200.24522 57.926932 
L 199.695809 47.112288 
L 196.317977 46.328537 
L 198.338555 15.99705 
L 193.983062 15.271358 
L 189.420231 16.258574 
L 185.077371 15.813164 
L 178.497207 55.902141 
L 175.406228 55.780575 
L 172.38156 64.482408 
L 169.563386 64.548889 
L 163.495757 18.80703 
L 159.245843 19.175483 
L 155.009616 19.67738 
L 150.791263 20.312226 
L 155.270492 64.649489 
L 152.466032 65.253897 
L 138.081542 22.240757 
L 133.952158 23.406591 
L 126.594477 14.919781 
L 122.240585 16.450413 
L 139.996711 72.519829 
L 137.447264 73.600587 
L 125.308812 54.741517 
L 122.207638 56.292884 
L 116.828882 53.789216 
L 113.701958 55.607681 
L 111.495171 58.855982 
L 108.530195 60.839646 
L 112.233263 71.845032 
L 109.676326 73.799067 
L 72.952764 35.169624 
L 69.262092 38.376857 
L 93.075168 70.378458 
L 90.481591 72.93559 
L 111.872311 97.63179 
L 110.126345 99.584423 
L 57.343343 60.065054 
L 54.443156 63.750772 
L 55.53559 70.28962 
L 52.95778 74.027122 
L 56.560782 81.615915 
L 54.338589 85.315583 
L 45.248126 85.323726 
L 43.148108 89.377256 
L 62.801128 103.433989 
L 61.261857 106.926659 
L 57.612515 109.609966 
L 56.269996 113.262724 
L 29.315599 108.85519 
L 27.963339 113.398038 
L 33.686088 119.693178 
L 32.672437 124.093251 
L 70.047059 135.453616 
L 69.510973 138.702628 
L 90.351879 144.453529 
L 90.08873 147.059662 
L 15.442944 145.688061 
L 15.25565 150.648885 
L 46.162185 155.321263 
L 46.262591 159.311444 
L 39.367274 163.812459 
L 39.738021 168.012088 
L 44.170976 171.663245 
L 44.786194 175.707954 
L 61.861934 176.452307 
L 62.618984 179.938406 
L 22.09746 194.453941 
L 23.440181 199.181421 
L 52.757029 194.522212 
L 54.086738 198.285655 
L 95.207988 185.845378 
L 96.243889 188.278359 
L 30.198501 223.093172 
L 32.437697 227.551778 
L 103.259796 193.419856 
L 104.529874 195.595926 
L 48.632126 234.861858 
L 51.232241 238.735052 
L 53.315775 242.997308 
L 56.169371 246.719215 
L 65.805736 244.719328 
L 68.7073 248.047671 
L 86.603212 237.011144 
L 89.252131 239.689381 
L 83.390322 251.624379 
L 86.500302 254.39641 
L 113.165062 228.096604 
L 115.520556 229.944086 
L 117.013752 233.009805 
L 119.521825 234.733846 
L 103.270115 266.717905 
L 106.844839 268.857409 
L 121.355944 250.607829 
L 124.41519 252.186641 
L 113.655335 283.964692 
L 117.767201 285.769135 
L 142.678971 233.374895 
L 145.185834 234.291785 
L 131.362749 287.366657 
L 135.572826 288.612659 
L 151.916843 240.415899 
L 154.640522 241.038848 
L 156.961802 243.918317 
L 159.793111 244.38091 
L 155.823159 303.86107 
L 160.539762 304.329827 
L 165.145337 307.026783 
L 169.956868 307.200865 
L 174.387309 272.32 
L 178.103014 272.220655 
L 180.818009 258.555049 
L 184.097734 258.260314 
L 187.258386 257.076703 
L 190.488444 256.5802 
L 189.767138 236.543721 
L 192.350354 235.978489 
L 206.858252 279.767162 
L 210.792057 278.643177 
L 215.956937 281.154361 
L 219.92986 279.743607 
L 212.140275 249.573672 
L 215.122119 248.298537 
L 234.668946 281.197284 
L 238.633967 279.198163 
L 246.435735 283.982752 
L 250.482519 281.61228 
L 230.648755 242.548948 
L 233.400575 240.695339 
L 226.618101 226.029458 
L 228.852505 224.31075 
L 231.544556 223.127936 
L 233.685294 221.255763 
L 239.065044 222.748439 
L 241.190131 220.639993 
L 261.957621 235.623633 
L 264.476214 232.789028 
L 293.445087 251.306715 
L 296.441222 247.474321 
L 268.243609 221.537109 
L 270.316183 218.511824 
L 282.415701 221.677876 
L 284.485694 218.20692 
L 265.453083 203.459855 
L 266.958648 200.531249 
L 271.980669 199.201939 
L 273.349129 196.070197 
L 267.207339 190.066816 
L 268.29093 187.089674 
L 285.943915 189.269184 
L 286.993163 185.703318 
L 301.803479 185.48665 
L 302.725955 181.423994 
L 310.549608 178.58521 
L 311.250762 174.250968 
L 281.862446 166.491284 
L 282.197525 163.06501 
L 318.078531 161.42536 
L 318.23642 156.862877 
L 257.963899 153.056071 
L 257.888361 150.387862 
L 265.639494 147.125174 
L 265.373681 144.21856 
L 308.231702 135.303679 
L 307.573137 131.063718 
L 319.218352 124.309141 
L 318.208662 119.729171 
L 273.405247 126.989667 
L 272.50249 123.848836 
L 277.511508 118.699112 
L 276.346047 115.43327 
L 301.493713 101.349198 
L 299.770875 97.337882 
L 245.848134 118.720426 
L 244.698999 116.45014 
L 280.745788 93.090035 
L 278.773523 89.735163 
L 272.711732 89.047032 
L 270.616318 85.946766 
L 256.983885 91.459104 
L 254.972088 88.852163 
L 240.184978 97.098363 
L 238.358798 95.01683 
L 261.021364 69.312732 
L 258.311241 66.589795 
L 245.346843 75.078333 
L 242.825753 72.845386 
L 250.183756 58.332666 
L 247.133754 55.955915 
L 262.313551 27.754288 
L 258.296101 25.011269 
L 219.671468 78.464711 
L 217.269548 77.03738 
L 237.928688 32.265505 
L 234.065136 30.286969 
L 216.369397 58.770558 
L 213.349882 57.456788 
L 215.645707 42.149074 
L 212.103933 40.866277 
L 202.656482 58.640562 
L 199.63966 57.758021 
L 199.022241 46.947046 
L 195.639546 46.184555 
L 197.469316 15.84096 
L 193.109345 15.142676 
L 188.552814 16.15857 
L 184.207238 15.740483 
L 177.879342 55.870053 
L 174.787659 55.767929 
L 171.81778 64.488614 
L 169.000081 64.572818 
L 162.644881 18.870026 
L 158.397369 19.265201 
L 154.164381 19.793732 
L 149.950105 20.455095 
L 154.708101 64.763311 
L 151.907499 65.385344 
L 137.252765 22.463526 
L 133.130795 23.655308 
L 125.719882 15.214941 
L 121.375703 16.772926 
L 139.484123 72.729558 
L 136.941523 73.826329 
L 124.684699 55.043976 
L 121.593343 56.614817 
L 116.198947 54.145028 
L 113.083522 55.983124 
L 110.897209 59.245239 
L 107.944767 61.247512 
L 111.71698 72.229391 
L 109.172383 74.199468 
L 72.20659 35.80176 
L 68.536163 39.032142 
L 92.55004 70.883339 
L 89.972597 73.456732 
L 111.518219 98.017908 
L 109.784568 99.981485 
L 56.754056 60.794872 
L 53.877108 64.498757 
L 55.010645 71.030605 
L 52.456393 74.784247 
L 56.107053 82.350229 
L 53.908173 86.0638 
L 44.817941 86.129117 
L 42.743459 90.195774 
L 62.484499 104.128623 
L 60.967226 107.630905 
L 57.334832 110.337111 
L 56.015313 113.998241 
L 29.033729 109.760321 
L 27.710067 114.311585 
L 33.472296 120.570608 
L 32.486339 124.976968 
L 69.931672 136.102044 
L 69.416031 139.354363 
L 90.292695 144.974073 
L 90.045943 147.58181 
L 15.393006 146.679715 
L 15.236916 151.641619 
L 46.172227 156.11952 
L 46.297726 160.108991 
L 39.430855 164.653284 
L 39.828008 168.850499 
L 44.283839 172.473703 
L 44.924484 176.514462 
L 62.004567 177.151404 
L 62.783528 180.632672 
L 22.3541 195.402777 
L 23.726528 200.121719 
L 53.013493 195.278216 
L 54.366845 199.033221 
L 95.409039 186.334561 
L 96.460222 188.760979 
L 30.635106 223.990491 
L 32.9023 228.434926 
L 103.508327 193.858248 
L 104.792066 196.026287 
L 49.142384 235.643008 
L 51.766808 239.499771 
L 53.877108 243.748839 
L 56.754056 247.452725 
L 66.377652 245.39227 
L 69.300092 248.702298 
L 87.126237 237.553435 
L 89.791948 240.214958 
L 84.005319 252.186587 
L 87.132672 254.939004 
L 113.631495 228.472012 
L 115.998562 230.304642 
L 117.511009 233.36091 
L 120.029876 235.069142 
L 103.979649 267.154782 
L 107.567759 269.271762 
L 121.963797 250.931276 
L 125.032912 252.490816 
L 114.473136 284.335911 
L 118.59627 286.114458 
L 143.178017 233.564573 
L 145.690597 234.465678 
L 132.201596 287.62644 
L 136.419426 288.845937 
L 152.45999 240.547336 
L 155.187533 241.153143 
L 157.526878 244.017955 
L 160.36104 244.462732 
L 156.765263 303.966684 
L 161.484721 304.405767 
L 166.107167 307.073703 
L 170.919698 307.21752 
L 175.130671 272.30948 
L 178.845677 272.186767 
L 181.47467 258.504356 
L 184.752476 258.188999 
L 187.905621 256.985533 
L 191.132492 256.468724 
L 190.285183 236.437178 
L 192.864793 235.85571 
L 207.647809 279.552271 
L 211.574467 278.403566 
L 216.75504 280.882216 
L 220.719011 279.446503 
L 212.739828 249.326157 
L 215.713593 248.032293 
L 235.466948 280.807451 
L 239.419317 278.783431 
L 247.251023 283.518857 
L 251.282818 281.12298 
L 231.20376 242.185164 
L 233.943868 240.314285 
L 227.069288 225.691352 
L 229.292838 223.958624 
L 231.977397 222.758902 
L 234.106317 220.873302 
L 239.495349 222.332113 
L 241.607134 220.210343 
L 262.468451 235.063071 
L 264.969166 232.212682 
L 294.053932 250.547804 
L 297.025904 246.696643 
L 268.665719 220.93729 
L 270.719224 217.89903 
L 282.838416 220.98892 
L 284.886537 217.505014 
L 265.761552 202.877945 
L 267.248668 199.939927 
L 272.262229 198.579058 
L 273.610965 195.438771 
L 267.431538 189.474137 
L 268.496384 186.490239 
L 286.162727 188.558679 
L 287.189527 184.986284 
L 301.998188 184.676472 
L 302.895093 180.608094 
L 310.700737 177.72016 
L 311.374618 173.381594 
L 281.938079 165.8069 
L 282.251602 162.378585 
L 318.121586 160.513297 
L 318.250776 155.949911 
L 257.955504 152.52226 
L 257.863187 149.854579 
L 265.593646 146.543206 
L 265.309558 143.638321 
L 308.110661 134.454064 
L 307.425442 130.218328 
L 319.027944 123.390644 
L 317.989469 118.817114 
L 273.232605 126.359254 
L 272.310112 123.224163 
L 277.286641 118.043037 
L 276.100663 114.78459 
L 301.159251 100.542633 
L 299.411219 96.542231 
L 245.624028 118.263496 
L 244.460637 116.000482 
L 280.359791 92.414125 
L 278.366465 89.071723 
L 272.300466 88.421731 
L 270.185595 85.334706 
L 256.5881 90.932675 
L 254.559947 88.338439 
L 239.824993 96.677479 
L 237.985757 94.607472 
L 260.486211 68.761348 
L 257.759016 66.055509 
L 244.848262 74.625419 
L 242.313178 72.408372 
L 249.579759 57.849661 
L 246.514869 55.492141 
L 261.516994 27.195599 
L 257.482371 24.477901 
L 219.194694 78.173214 
L 216.783844 76.761017 
L 237.160986 31.860094 
L 233.285067 29.905896 
L 215.768823 58.500218 
L 212.741105 57.205465 
L 214.940607 41.883614 
L 211.390836 40.623118 
L 202.055362 58.456471 
L 199.033048 57.592921 
L 198.347647 46.786044 
L 194.960223 46.044843 
L 196.599113 15.69034 
L 192.234837 15.019491 
L 187.684785 16.064023 
L 183.336665 15.673276 
L 177.261287 55.84185 
L 174.169023 55.759174 
L 171.254051 64.498365 
L 168.436937 64.600289 
L 161.794418 18.938372 
L 157.549475 19.360254 
L 153.319896 19.915397 
L 149.109863 20.603253 
L 154.146438 64.880667 
L 151.349803 65.520302 
L 136.425405 22.691503 
L 132.311012 23.909186 
L 124.847161 15.515597 
L 120.512866 17.100874 
L 138.972864 72.942507 
L 136.437213 74.055247 
L 124.0625 55.350355 
L 120.981086 56.940607 
L 115.571262 54.504795 
L 112.467459 56.362448 
L 110.301707 59.63825 
L 107.361916 61.659052 
L 111.203124 72.616989 
L 108.670968 74.603032 
L 71.464406 36.438577 
L 67.81437 39.691979 
L 92.028098 71.391513 
L 89.466891 73.981066 
L 111.166563 98.406246 
L 109.445296 100.380688 
L 56.169371 61.528382 
L 53.315775 65.250288 
L 54.490372 71.774878 
L 51.959778 75.54451 
L 55.657952 83.087382 
L 53.482471 86.814709 
L 44.39283 86.937197 
L 42.343966 91.016821 
L 62.172245 104.825234 
L 60.677029 108.33699 
L 57.061728 111.065988 
L 55.765262 114.735345 
L 28.757557 110.667208 
L 27.462546 115.226707 
L 33.264027 121.449365 
L 32.305803 125.861839 
L 69.820365 136.751185 
L 69.32519 140.006682 
L 90.236785 145.494979 
L 90.00644 148.104216 
L 15.349306 147.671664 
L 15.224427 152.634451 
L 46.187289 156.917698 
L 46.337877 160.906301 
L 39.499723 165.493693 
L 39.923266 169.688327 
L 44.401797 173.283434 
L 45.067844 177.320085 
L 62.151595 177.84959 
L 62.952435 181.32589 
L 22.616703 196.349981 
L 24.018783 201.060198 
L 53.274705 196.032592 
L 54.651648 199.779011 
L 95.613163 186.82247 
L 96.679586 189.242228 
L 31.077345 224.885047 
L 33.372447 229.315134 
L 103.75961 194.295068 
L 105.05696 196.45499 
L 49.657545 236.420932 
L 52.306174 240.261114 
L 54.443156 244.496825 
L 57.343343 248.182543 
L 66.95379 246.061602 
L 69.89699 249.353184 
L 87.652662 238.092425 
L 90.33506 240.73713 
L 84.623841 252.744917 
L 87.768443 255.47761 
L 114.100279 228.844479 
L 116.478825 230.662185 
L 118.010465 233.70888 
L 120.540025 235.401236 
L 104.691917 267.587188 
L 108.29327 269.681559 
L 122.573672 251.250893 
L 125.652535 252.791099 
L 115.293256 284.701979 
L 119.427494 286.454559 
L 143.678246 233.751108 
L 146.196443 234.636392 
L 133.042061 287.880941 
L 137.267478 289.073887 
L 153.003953 240.675354 
L 155.735253 241.263995 
L 158.092569 244.114037 
L 160.929472 244.54098 
L 157.708012 304.066371 
L 162.430139 304.475762 
L 167.069274 307.114573 
L 171.882614 307.228119 
L 175.873951 272.294285 
L 179.588112 272.148209 
L 182.130998 258.449533 
L 185.406756 258.113567 
L 188.55227 256.890293 
L 191.775827 256.353199 
L 190.802547 236.327378 
L 193.378449 235.729698 
L 208.436 279.332418 
L 212.355355 278.15904 
L 217.551415 280.605058 
L 221.506278 279.144442 
L 213.337813 249.074876 
L 216.303381 247.762334 
L 236.262483 280.412606 
L 240.202043 278.363769 
L 248.063378 283.049844 
L 252.080024 280.628656 
L 231.756467 241.817897 
L 234.484753 239.929821 
L 227.51834 225.350414 
L 229.730948 223.603735 
L 232.407908 222.387153 
L 234.524927 220.488201 
L 239.923027 221.913088 
L 242.021425 219.778079 
L 262.975746 234.499307 
L 265.458484 231.633246 
L 294.657992 249.785079 
L 297.605683 245.915302 
L 269.084047 220.334828 
L 271.118403 217.283713 
L 283.256789 220.297319 
L 285.282958 216.8006 
L 266.066355 202.294106 
L 267.534963 199.346793 
L 272.539866 197.954419 
L 273.868824 194.80571 
L 267.652006 188.88006 
L 268.698063 185.889523 
L 286.377067 187.846811 
L 287.381378 184.268029 
L 302.187797 183.865085 
L 303.059097 179.791147 
L 310.846423 176.854176 
L 311.493004 172.511458 
L 282.009406 165.122053 
L 282.301361 161.691834 
L 318.158904 159.600981 
L 318.25939 155.036873 
L 257.943753 151.988513 
L 257.834659 149.321465 
L 265.544139 145.961537 
L 265.241786 143.058496 
L 307.984279 133.605226 
L 307.272433 129.373884 
L 318.831764 122.473361 
L 317.764544 117.906454 
L 273.056001 125.72994 
L 272.113808 122.600713 
L 277.057653 117.38839 
L 275.851205 114.137466 
L 300.819722 99.738186 
L 299.046565 95.748858 
L 245.397052 117.807984 
L 244.219451 115.552332 
L 279.96955 91.740657 
L 277.955242 88.410858 
L 271.885275 87.79903 
L 269.75103 84.725367 
L 256.189012 90.408746 
L 254.144583 87.827318 
L 239.462368 96.258867 
L 237.61015 94.200468 
L 259.947601 68.213341 
L 257.203441 65.524708 
L 244.346843 74.175649 
L 241.797865 71.974591 
L 248.972737 57.370465 
L 245.89308 55.032267 
L 260.716938 26.64193 
L 256.665302 23.949662 
L 218.716096 77.88472 
L 216.296412 76.487715 
L 236.390749 31.459519 
L 232.502616 29.529737 
L 215.166561 58.23366 
L 212.130759 56.957976 
L 214.233852 41.622594 
L 210.676224 40.384449 
L 201.453095 58.276164 
L 198.42541 57.43164 
L 197.672054 46.629288 
L 194.280035 45.909407 
L 195.72798 15.545196 
L 191.359571 14.901809 
L 186.816179 15.974938 
L 182.465687 15.611545 
L 176.643066 55.817536 
L 173.550343 55.75431 
L 170.690394 64.511662 
L 167.873976 64.631302 
L 160.944402 19.012065 
L 156.702196 19.460637 
L 152.476192 20.042371 
L 148.270568 20.756692 
L 153.585524 65.001553 
L 150.792967 65.658765 
L 135.599496 22.924679 
L 131.492842 24.168215 
L 123.976348 15.821735 
L 119.652109 17.434241 
L 138.462954 73.158667 
L 135.934352 74.287333 
L 123.442241 55.66064 
L 120.370889 57.270242 
L 114.945853 54.868502 
L 111.853795 56.74564 
L 109.708688 60.034999 
L 106.781665 62.074251 
L 110.691716 73.007811 
L 108.172102 75.00974 
L 70.726243 37.080049 
L 67.096741 40.356344 
L 91.509362 71.90296 
L 88.964492 74.50857 
L 110.817356 98.796789 
L 109.108541 100.782017 
L 55.589311 62.265554 
L 52.75918 66.005335 
L 53.974789 72.522408 
L 51.467955 76.307881 
L 55.213496 83.827345 
L 53.061501 87.568281 
L 43.97281 87.747935 
L 41.949645 91.840365 
L 61.864379 105.523796 
L 60.391279 109.044887 
L 56.793213 111.796569 
L 55.519851 115.474007 
L 28.487094 111.575814 
L 27.220786 116.143367 
L 33.061289 122.329414 
L 32.130836 126.747828 
L 69.713144 137.401013 
L 69.238454 140.65956 
L 90.184154 146.016226 
L 89.970223 148.626861 
L 15.311846 148.663868 
L 15.218182 153.627343 
L 46.207371 157.715766 
L 46.383042 161.703342 
L 39.573875 166.333652 
L 40.023792 170.525539 
L 44.524846 174.092408 
L 45.216267 178.12479 
L 62.303011 178.546837 
L 63.125699 182.018032 
L 22.885258 197.295515 
L 24.316935 201.99682 
L 53.540658 196.785311 
L 54.941136 200.522995 
L 95.820351 187.309085 
L 96.901972 189.722089 
L 31.525202 225.776803 
L 33.848121 230.192368 
L 104.013636 194.730299 
L 105.324545 196.882019 
L 50.177589 237.195602 
L 52.850318 241.019049 
L 55.013898 245.241236 
L 57.937208 248.90864 
L 67.534125 246.727297 
L 70.49797 250.000303 
L 88.182467 238.628093 
L 90.881446 241.255875 
L 85.245861 253.299345 
L 88.407588 256.012206 
L 114.571396 229.21399 
L 116.961328 231.0167 
L 118.512099 234.053701 
L 121.052254 235.730115 
L 105.40689 268.015106 
L 109.021345 270.086785 
L 123.185545 251.566668 
L 126.274035 253.087479 
L 116.115661 285.062882 
L 120.260841 286.789425 
L 144.179639 233.934493 
L 146.703354 234.803922 
L 133.88411 288.130151 
L 138.116946 289.296498 
L 153.54871 240.799949 
L 156.283658 241.3714 
L 158.658853 244.206559 
L 161.498386 244.615651 
L 158.65137 304.160126 
L 163.375978 304.53981 
L 168.031618 307.149391 
L 172.845577 307.232662 
L 176.617121 272.274415 
L 180.33029 272.104982 
L 182.786969 258.390584 
L 186.060549 258.034022 
L 189.198307 256.790989 
L 192.418422 256.233631 
L 191.319211 236.214328 
L 193.891302 235.600458 
L 209.222792 279.107612 
L 213.13469 277.909606 
L 218.346031 280.322896 
L 222.291629 278.837435 
L 213.934205 248.819838 
L 216.89146 247.488671 
L 237.055518 280.012766 
L 240.982115 277.939192 
L 248.872767 282.575731 
L 252.874106 280.129329 
L 232.306853 241.44716 
L 235.02321 239.541962 
L 227.965238 225.006658 
L 230.166817 223.246099 
L 232.836072 222.012703 
L 234.941106 220.100474 
L 240.348062 221.491383 
L 242.43299 219.343218 
L 263.479484 233.932363 
L 265.944147 231.050745 
L 295.257242 249.01857 
L 298.180537 245.13033 
L 269.498578 219.729747 
L 271.513704 216.665897 
L 283.670803 219.6031 
L 285.67494 216.093707 
L 266.367479 201.708361 
L 267.817522 198.75187 
L 272.813569 197.328046 
L 274.122697 194.171041 
L 267.868733 188.284608 
L 268.89596 185.287551 
L 286.586925 187.13361 
L 287.568708 183.548581 
L 302.3723 183.052522 
L 303.217959 178.973184 
L 310.98666 175.987294 
L 311.605914 171.640595 
L 282.076425 164.436771 
L 282.3468 161.004784 
L 318.190483 158.688448 
L 257.970614 154.123798 
z
" clip-path="url(#p431c576e69)" style="fill: #0000ff; opacity: 0.5; stroke: #000000; stroke-width: 1.5; stroke-linejoin: miter"/>
   </g>
  </g>
 </g>
 <defs>
  <clipPath id="p431c576e69">
   <rect x="0" y="-0" width="334.8" height="321.862788"/>
  </clipPath>
 </defs>
</svg>
