<?xml version="1.0" encoding="utf-8" standalone="no"?>
<!DOCTYPE svg PUBLIC "-//W3C//DTD SVG 1.1//EN"
  "http://www.w3.org/Graphics/SVG/1.1/DTD/svg11.dtd">
<svg xmlns:xlink="http://www.w3.org/1999/xlink" width="334.757934pt" height="332.64pt" viewBox="0 0 334.757934 332.64" xmlns="http://www.w3.org/2000/svg" version="1.1">
 <metadata>
  <rdf:RDF xmlns:dc="http://purl.org/dc/elements/1.1/" xmlns:cc="http://creativecommons.org/ns#" xmlns:rdf="http://www.w3.org/1999/02/22-rdf-syntax-ns#">
   <cc:Work>
    <dc:type rdf:resource="http://purl.org/dc/dcmitype/StillImage"/>
    <dc:date>2023-12-09T18:06:22.988349</dc:date>
    <dc:format>image/svg+xml</dc:format>
    <dc:creator>
     <cc:Agent>
      <dc:title>Matplotlib v3.8.2, https://matplotlib.org/</dc:title>
     </cc:Agent>
    </dc:creator>
   </cc:Work>
  </rdf:RDF>
 </metadata>
 <defs>
  <style type="text/css">*{stroke-linejoin: round; stroke-linecap: butt}</style>
 </defs>
 <g id="figure_1">
  <g id="patch_1">
   <path d="M 0 332.64 
L 334.757934 332.64 
L 334.757934 0 
L 0 0 
L 0 332.64 
z
" style="fill: none"/>
  </g>
  <g id="axes_1">
   <g id="patch_2">
    <path d="M 319.541664 168.53459 
L 319.465962 163.720506 
L 281.81698 161.267936 
L 281.531452 157.643592 
L 304.382001 151.089901 
L 303.765296 146.761096 
L 308.383919 141.428173 
L 307.461449 136.978316 
L 304.886366 132.948581 
L 303.699009 128.612887 
L 304.604493 123.591785 
L 303.123077 119.26958 
L 308.042326 112.405518 
L 306.207489 107.980751 
L 280.914129 114.602109 
L 279.161771 111.029225 
L 288.931954 101.109727 
L 286.751401 97.291417 
L 240.27707 121.612825 
L 238.765236 119.314194 
L 276.346639 88.571716 
L 273.778086 85.155314 
L 256.064483 94.28016 
L 253.685444 91.498651 
L 253.4963 86.652615 
L 250.878704 83.955627 
L 265.808874 62.53609 
L 262.426914 59.463892 
L 223.634247 99.265613 
L 221.427997 97.501317 
L 215.49886 100.866555 
L 213.346969 99.357262 
L 234.551484 60.95731 
L 231.135339 58.868694 
L 221.270035 68.532589 
L 218.09864 66.857824 
L 202.59937 91.449949 
L 200.157778 90.350901 
L 208.290706 62.442919 
L 204.934256 61.179264 
L 205.627547 47.386713 
L 201.799013 46.214238 
L 203.540314 23.213123 
L 198.952742 22.118227 
L 187.939173 54.939599 
L 184.356864 54.319551 
L 184.144312 26.682208 
L 179.675405 26.195449 
L 172.177398 74.97056 
L 169.2327 74.836192 
L 166.211535 27.924423 
L 161.790553 28.000896 
L 160.896897 82.784547 
L 158.203465 83.000999 
L 152.144611 56.957423 
L 148.643445 57.461837 
L 136.887131 15.12 
L 132.078048 16.124828 
L 140.020086 66.437989 
L 136.823005 67.318937 
L 124.671761 40.828262 
L 120.677042 42.204456 
L 123.952141 61.849326 
L 120.618726 63.237753 
L 102.633413 33.659634 
L 98.424193 35.732307 
L 92.39347 34.517499 
L 88.216286 36.911714 
L 99.235745 63.148056 
L 95.955385 65.312979 
L 82.152081 53.067747 
L 78.563221 55.774802 
L 115.005022 106.6551 
L 113.084822 108.302692 
L 64.043182 60.008119 
L 60.681496 63.281126 
L 61.419449 70.391902 
L 58.38555 73.742271 
L 48.221049 71.228884 
L 45.219992 74.993826 
L 42.338796 78.851266 
L 39.580311 82.797389 
L 79.888839 113.92477 
L 78.214576 116.672897 
L 41.665267 100.371725 
L 39.583765 104.328386 
L 77.967704 127.198015 
L 76.711731 129.999984 
L 66.092112 129.127827 
L 64.902688 132.302236 
L 57.121121 133.358858 
L 56.069166 136.813243 
L 23.324549 132.231683 
L 22.253863 136.749264 
L 19.790226 141.010061 
L 18.997299 145.634428 
L 16.024261 149.994742 
L 15.515694 154.733077 
L 40.109147 160.977766 
L 39.934002 164.953389 
L 25.041816 168.979228 
L 25.125704 173.424645 
L 63.543147 175.339253 
L 63.807972 178.570959 
L 75.794544 180.286133 
L 76.208853 183.130183 
L 73.64502 186.555533 
L 74.257515 189.464069 
L 55.306131 197.469679 
L 56.270858 200.949433 
L 68.475958 200.73769 
L 69.536927 203.80174 
L 83.749018 201.60869 
L 84.829821 204.192091 
L 34.480655 231.205248 
L 36.516399 235.323121 
L 45.512269 235.586696 
L 47.680321 239.355544 
L 63.783899 234.213032 
L 65.899726 237.40806 
L 98.366553 218.381015 
L 99.967488 220.496516 
L 56.035216 260.578961 
L 58.983877 264.004588 
L 86.435174 244.246394 
L 88.855272 246.724255 
L 75.909985 265.700089 
L 79.009839 268.498278 
L 106.971577 241.002609 
L 109.27953 242.836364 
L 111.643998 244.596646 
L 114.062645 246.281713 
L 109.048146 259.793197 
L 111.945889 261.55237 
L 114.150626 264.591807 
L 117.196725 266.188175 
L 127.542258 252.10673 
L 130.189178 253.288208 
L 127.75251 267.481836 
L 130.882752 268.649101 
L 119.522758 315.10082 
L 124.154315 316.503302 
L 143.526059 259.432991 
L 146.39543 260.108281 
L 142.85411 295.252428 
L 146.850054 295.931136 
L 151.90318 287.953915 
L 155.665169 288.351708 
L 161.163801 258.996835 
L 164.010737 259.117772 
L 167.047995 298.988288 
L 171.149441 298.904439 
L 172.976853 265.178173 
L 176.012304 264.924625 
L 184.731157 307.949193 
L 189.105611 307.304917 
L 187.001667 273.559419 
L 190.293708 272.860756 
L 196.53254 283.393711 
L 200.12908 282.390515 
L 211.291312 304.267786 
L 215.536881 302.79022 
L 196.14153 242.468039 
L 198.45147 241.497371 
L 224.603236 290.516489 
L 228.409853 288.627166 
L 231.395385 285.253951 
L 235.033178 283.15367 
L 244.089782 289.485492 
L 247.854348 286.983979 
L 245.525491 276.181643 
L 248.871045 273.641566 
L 253.63863 272.79515 
L 256.873693 270.001653 
L 242.807977 248.979409 
L 245.299576 246.538227 
L 266.602332 261.562273 
L 269.477799 258.366722 
L 274.065406 256.566017 
L 276.78009 253.138281 
L 262.252332 237.326368 
L 264.36792 234.279574 
L 240.570721 214.990987 
L 241.994756 212.636953 
L 272.185862 225.878578 
L 273.936595 222.525112 
L 238.016964 201.709593 
L 239.024666 199.442422 
L 308.392545 223.771907 
L 310.059138 219.281065 
L 309.350612 214.029189 
L 310.710399 209.513041 
L 244.484573 188.073358 
L 245.060323 185.609573 
L 273.213906 188.229829 
L 273.780371 184.862653 
L 308.366978 185.576948 
L 308.832651 181.105795 
L 264.702219 174.103116 
L 264.828718 171.010551 
L 319.538636 167.571621 
L 319.432658 162.758109 
L 281.768995 160.542377 
L 281.460677 156.919901 
L 304.269556 150.222623 
L 303.625637 145.897782 
L 308.210627 140.535916 
L 307.260188 136.091948 
L 304.659812 132.078489 
L 303.445209 127.750348 
L 304.319096 122.723651 
L 302.810524 118.410849 
L 307.686505 111.515984 
L 305.823875 107.102844 
L 280.57266 113.883152 
L 278.797865 110.32136 
L 288.505467 100.34061 
L 286.300943 96.536089 
L 239.980498 121.149314 
L 238.454237 118.860236 
L 275.841544 87.882 
L 273.251555 84.481821 
L 255.595692 93.717895 
L 253.199206 90.951404 
L 252.979586 86.106653 
L 250.34508 83.426182 
L 265.140238 61.913166 
L 261.739023 58.862299 
L 223.197453 98.907217 
L 220.98015 97.156832 
L 215.072296 100.559295 
L 212.910955 99.063566 
L 233.873537 60.531009 
L 230.444323 58.463919 
L 220.639994 68.189671 
L 217.458128 66.534886 
L 202.113836 91.224006 
L 199.66538 90.140335 
L 207.622622 62.181754 
L 204.25829 60.939234 
L 204.86482 47.142595 
L 201.028988 45.994222 
L 202.62559 22.982611 
L 198.031223 21.91659 
L 187.2243 54.806582 
L 183.638162 54.209077 
L 183.251791 26.573617 
L 178.779911 26.114975 
L 171.58882 74.936279 
L 168.643334 74.820434 
L 165.327181 27.928595 
L 160.906767 28.032872 
L 160.357688 82.821059 
L 157.66567 83.054448 
L 151.443137 57.049494 
L 147.945212 57.575918 
L 135.922825 15.308859 
L 131.120157 16.343913 
L 139.378479 66.606128 
L 136.187001 67.507166 
L 123.869386 41.09344 
L 119.883402 42.494732 
L 123.281991 62.118614 
L 119.957374 63.52798 
L 101.786388 34.063563 
L 97.590287 36.162668 
L 91.552043 34.985814 
L 87.389999 37.406254 
L 98.574252 63.57277 
L 95.307574 65.758282 
L 81.427527 53.600108 
L 77.855764 56.329681 
L 114.616852 106.979774 
L 112.707053 108.63941 
L 63.362637 60.654237 
L 60.021603 63.948322 
L 60.804264 71.054317 
L 57.791497 74.423701 
L 47.61139 71.974292 
L 44.634071 75.758034 
L 41.777193 79.633519 
L 39.043582 83.596914 
L 79.547086 114.470162 
L 77.890141 117.228764 
L 41.239028 101.157789 
L 39.182453 105.127463 
L 77.70947 127.755227 
L 76.471145 130.56504 
L 65.84625 129.759691 
L 64.676815 132.941519 
L 56.902048 134.047061 
L 55.871839 137.507994 
L 23.099055 133.13247 
L 22.056803 137.656696 
L 19.620013 141.932903 
L 18.856186 146.562166 
L 15.910631 150.941092 
L 15.431875 155.682532 
L 40.064118 161.772418 
L 39.91398 165.749065 
L 25.047409 169.868488 
L 25.159255 174.313289 
L 63.587979 175.986235 
L 63.873124 179.216212 
L 75.870248 180.855963 
L 76.302435 183.69735 
L 73.760197 187.138758 
L 74.390973 190.043384 
L 55.490315 198.168029 
L 56.476908 201.641647 
L 68.680435 201.353145 
L 69.760654 204.410462 
L 83.958671 202.128069 
L 85.055701 204.704621 
L 34.877428 232.033912 
L 36.93903 236.1389 
L 45.936381 236.34589 
L 48.128093 240.101028 
L 64.19901 234.857335 
L 66.334889 238.038992 
L 98.681405 218.808126 
L 100.295613 220.913516 
L 56.616307 261.271478 
L 59.586454 264.678492 
L 86.912941 244.748035 
L 89.348575 247.210626 
L 76.522892 266.267503 
L 79.640283 269.046141 
L 107.428536 241.375152 
L 109.747976 243.194355 
L 112.123469 244.939731 
L 114.552666 246.609553 
L 109.623246 260.152307 
L 112.531996 261.893221 
L 114.755805 264.918732 
L 117.811884 266.495909 
L 128.068648 252.349676 
L 130.722947 253.514483 
L 128.375597 267.723155 
L 131.513119 268.87071 
L 120.445504 315.392957 
L 125.08579 316.766282 
L 144.098212 259.575263 
L 146.971773 260.232492 
L 143.65156 295.398218 
L 147.651694 296.051779 
L 152.654548 288.042935 
L 156.418964 288.417059 
L 161.732861 259.028184 
L 164.580502 259.131213 
L 167.868463 298.981837 
L 171.9693 298.872195 
L 173.584557 265.135102 
L 176.618353 264.862468 
L 185.607634 307.831348 
L 189.977949 307.159572 
L 187.661807 273.427974 
L 190.949389 272.70862 
L 197.254343 283.202128 
L 200.844503 282.176331 
L 212.144109 303.982966 
L 216.380302 302.478727 
L 196.605942 242.279724 
L 198.909732 241.294547 
L 225.369283 290.148216 
L 229.163942 288.234989 
L 232.128199 284.843063 
L 235.752711 282.719944 
L 244.848959 288.99468 
L 248.597717 286.46954 
L 246.200966 275.682064 
L 249.530477 273.120996 
L 254.292645 272.244611 
L 257.510075 269.430823 
L 243.312419 248.49746 
L 245.788615 246.040655 
L 267.185442 260.930422 
L 270.040754 257.71685 
L 274.616945 255.887326 
L 277.310017 252.442585 
L 262.683098 236.722356 
L 264.779482 233.662316 
L 240.861439 214.523781 
L 242.27064 212.160838 
L 272.544432 225.212316 
L 274.274039 221.847905 
L 238.2242 201.258712 
L 239.217623 198.985248 
L 308.737149 222.877967 
L 310.375464 218.376732 
L 309.633921 213.129416 
L 310.965277 208.604805 
L 244.605917 187.582069 
L 245.16616 185.114712 
L 273.335666 187.557845 
L 273.880942 184.187174 
L 308.471357 184.683925 
L 308.9089 180.209931 
L 264.735298 173.484946 
L 264.842344 170.391647 
L 319.529551 166.60869 
L 319.393301 161.795939 
L 281.716448 159.817135 
L 281.385352 156.196669 
L 304.151658 149.356069 
L 303.480551 145.035363 
L 308.031727 139.644766 
L 307.053357 135.206864 
L 304.42779 131.209839 
L 303.185989 126.889424 
L 304.028243 121.85733 
L 302.492577 117.554101 
L 307.325096 110.628705 
L 305.434747 106.227367 
L 280.226676 113.166356 
L 278.429514 109.615798 
L 288.074151 99.57419 
L 285.845742 95.783609 
L 239.681017 120.687677 
L 238.140389 118.408244 
L 275.332121 87.195475 
L 272.720798 83.811653 
L 255.123373 93.158589 
L 252.709536 90.407226 
L 252.45945 85.563952 
L 249.808137 82.900103 
L 264.467697 61.29446 
L 261.047361 58.265045 
L 222.758414 98.551576 
L 220.530145 96.815171 
L 214.643808 100.254723 
L 212.473102 98.772618 
L 233.192922 60.10898 
L 229.750775 58.063499 
L 220.007809 67.850722 
L 216.815599 66.215982 
L 201.62689 91.00112 
L 199.171667 89.93287 
L 206.952908 61.924795 
L 203.580828 60.70346 
L 204.100573 46.90328 
L 200.257594 45.779055 
L 201.709435 22.757857 
L 197.108453 21.720752 
L 186.508604 54.678064 
L 182.918779 54.103125 
L 182.358604 26.470642 
L 177.883928 26.040134 
L 171.000037 74.905701 
L 168.053882 74.808384 
L 164.442871 27.938328 
L 160.0232 28.070405 
L 159.818718 82.860962 
L 157.128222 83.111278 
L 150.742255 57.145974 
L 147.247711 57.694388 
L 134.959725 15.503779 
L 130.163662 16.569018 
L 138.737942 66.7783 
L 135.552194 67.699392 
L 123.068695 41.363659 
L 119.091603 42.789993 
L 122.613548 62.392112 
L 119.297862 63.822359 
L 100.94192 34.472811 
L 96.759104 36.598266 
L 90.713577 35.459412 
L 86.56684 37.905981 
L 97.915444 64.001637 
L 94.662576 66.207651 
L 80.706335 54.137015 
L 77.15181 56.888999 
L 114.230732 107.306884 
L 112.331409 108.978498 
L 62.686169 61.304622 
L 59.365919 64.619656 
L 60.193258 71.720588 
L 57.201741 75.108854 
L 47.00643 72.72352 
L 44.052968 76.525913 
L 41.220521 80.41929 
L 38.511892 84.399799 
L 79.20877 115.017692 
L 77.569207 117.786661 
L 40.817743 101.946518 
L 38.786175 105.929048 
L 77.454746 128.314052 
L 76.234117 131.131598 
L 65.604367 130.393089 
L 64.454967 133.582209 
L 56.687307 134.736629 
L 55.678886 138.203972 
L 22.87923 134.034657 
L 21.865454 138.565348 
L 19.455607 142.856797 
L 18.72091 147.490773 
L 15.802955 151.888138 
L 15.354029 156.632495 
L 40.024087 162.567338 
L 39.898963 166.54485 
L 25.058595 170.757694 
L 25.198394 175.201704 
L 63.63688 176.632922 
L 63.942334 179.861042 
L 75.949533 181.425305 
L 76.399583 184.263918 
L 73.87904 187.721247 
L 74.528071 190.621848 
L 55.678886 198.865207 
L 56.687307 202.332551 
L 68.888779 201.967302 
L 69.988205 205.017764 
L 84.171586 202.646119 
L 85.284799 205.215721 
L 35.279405 232.860064 
L 37.366784 236.952004 
L 46.365259 237.102402 
L 48.580546 240.843681 
L 64.618164 235.499015 
L 66.774012 238.667176 
L 98.998937 219.233248 
L 100.626355 221.328444 
L 57.201741 261.960326 
L 60.193258 265.348592 
L 87.393853 245.246662 
L 89.844928 247.693885 
L 77.139355 266.831052 
L 80.27416 269.590027 
L 107.887829 241.744814 
L 110.218665 243.549393 
L 112.605089 245.279794 
L 115.04474 246.934305 
L 110.200593 260.507794 
L 113.120235 262.230378 
L 115.363029 265.241843 
L 118.428967 266.799768 
L 128.596557 252.589305 
L 131.258128 253.737395 
L 129.000189 267.96055 
L 132.144867 269.088349 
L 121.37007 315.679286 
L 126.018902 317.023399 
L 144.671248 259.713933 
L 147.548886 260.353077 
L 144.449911 295.538988 
L 148.454076 296.167379 
L 153.40646 288.127227 
L 157.173155 288.477668 
L 162.302107 259.055953 
L 165.15034 259.141069 
L 168.688873 298.970227 
L 172.78894 298.834794 
L 174.191978 265.08821 
L 177.223999 264.7965 
L 186.483353 307.707993 
L 190.849356 307.008743 
L 188.321107 273.29238 
L 191.604099 272.552363 
L 197.974928 283.006009 
L 201.558564 281.957652 
L 212.995099 303.692787 
L 217.221747 302.161935 
L 197.06916 242.088493 
L 199.366708 241.088846 
L 226.132998 289.775133 
L 229.915549 287.838077 
L 232.858414 284.427575 
L 236.469501 282.281702 
L 245.605034 288.499103 
L 249.337836 285.950435 
L 246.873285 275.178248 
L 250.186623 272.596289 
L 254.943185 271.68997 
L 258.142854 268.856001 
L 243.813819 248.012348 
L 246.274515 245.540018 
L 267.764567 260.294917 
L 270.599611 257.063449 
L 275.164204 255.20518 
L 277.835557 251.743569 
L 263.110056 236.115646 
L 265.187153 233.042482 
L 241.149213 214.054756 
L 242.543524 211.682997 
L 272.898804 224.543812 
L 274.607217 221.16859 
L 238.428597 200.806536 
L 239.407701 198.526869 
L 309.076123 221.981877 
L 310.686096 217.470427 
L 309.911565 212.227879 
L 311.214437 207.694984 
L 244.724168 187.090026 
L 245.268882 184.619194 
L 273.453197 186.88511 
L 273.977263 183.511075 
L 308.570118 183.790262 
L 308.979513 179.313605 
L 264.764489 172.86658 
L 264.852078 169.772668 
L 319.51441 165.645835 
L 319.347893 160.834037 
L 281.659339 159.092238 
L 281.30548 155.473926 
L 304.028312 148.490274 
L 303.330043 144.173874 
L 307.847226 138.75476 
L 306.840963 134.323099 
L 304.190309 130.342666 
L 302.92136 126.030146 
L 303.731949 120.992855 
L 302.169248 116.699369 
L 306.958114 109.743716 
L 305.040121 105.354355 
L 279.87619 112.451751 
L 278.056733 108.912566 
L 287.638023 98.810497 
L 285.385818 95.034007 
L 239.378638 120.227932 
L 237.823705 117.958234 
L 274.81839 86.512168 
L 272.185836 83.144836 
L 254.647547 92.602266 
L 252.216452 89.866138 
L 251.93591 85.024533 
L 249.267896 82.377413 
L 263.791278 60.679996 
L 260.351957 57.672153 
L 222.317146 98.198702 
L 220.078001 96.476347 
L 214.213413 99.952853 
L 212.033428 98.484429 
L 232.509666 59.69124 
L 229.054722 57.667449 
L 219.373505 67.515756 
L 216.171076 65.901125 
L 201.138553 90.781302 
L 198.676659 89.728515 
L 206.281592 61.672054 
L 202.901897 60.471951 
L 203.334836 46.668775 
L 199.484862 45.568743 
L 200.791884 22.538869 
L 196.184471 21.530723 
L 185.792114 54.554049 
L 182.198744 54.0017 
L 181.464787 26.373286 
L 176.987492 25.970931 
L 170.411074 74.878826 
L 167.464365 74.800041 
L 163.55864 27.953624 
L 159.139887 28.113495 
L 159.280011 82.904255 
L 156.591142 83.171487 
L 150.041994 57.246861 
L 146.550968 57.817242 
L 133.997871 15.704752 
L 129.208602 16.800135 
L 138.0985 66.954496 
L 134.918609 67.895607 
L 122.26972 41.638909 
L 118.301677 43.090228 
L 121.946839 62.669808 
L 118.640213 64.120881 
L 100.100043 34.887362 
L 95.930678 37.039082 
L 89.878108 35.938274 
L 85.74684 38.410875 
L 97.259346 64.434639 
L 94.020417 66.661068 
L 79.988535 54.678447 
L 76.451389 57.452733 
L 113.846677 107.636415 
L 111.957905 109.319942 
L 62.013805 61.95925 
L 58.714471 65.2951 
L 59.586454 72.390688 
L 56.616307 75.797702 
L 46.406195 73.476539 
L 43.476706 77.297432 
L 40.668803 81.208546 
L 37.985262 85.206012 
L 78.873904 115.567339 
L 77.251789 118.346566 
L 40.401426 102.737882 
L 38.394947 106.733111 
L 77.203541 128.874468 
L 76.000657 131.699635 
L 65.366473 131.027996 
L 64.237154 134.224282 
L 56.476908 135.427533 
L 55.490315 138.901151 
L 22.665085 134.938209 
L 21.679824 139.475187 
L 19.297015 143.781707 
L 18.591478 148.420212 
L 15.701237 152.835842 
L 15.28216 157.582929 
L 39.989056 163.362494 
L 39.888952 167.340715 
L 25.075374 171.646813 
L 25.24312 176.089856 
L 63.689847 177.279289 
L 64.015598 180.505424 
L 76.032398 181.994138 
L 76.500292 184.829864 
L 74.001543 188.302977 
L 74.668805 191.199439 
L 55.871839 199.561186 
L 56.902048 203.022119 
L 69.100981 202.580136 
L 70.219571 205.623623 
L 84.387755 203.16282 
L 85.517108 205.725369 
L 35.68657 233.683671 
L 37.799644 237.762402 
L 46.798886 237.856201 
L 49.03766 241.583474 
L 65.041346 236.138046 
L 67.217078 239.292585 
L 99.319137 219.656365 
L 100.9597 221.741284 
L 57.791497 262.645479 
L 60.804264 266.014863 
L 87.877892 245.742253 
L 90.344309 248.174013 
L 77.75935 267.390711 
L 80.911445 270.129916 
L 108.349438 242.111579 
L 110.691577 243.901463 
L 113.088837 245.616821 
L 115.538846 247.255955 
L 110.780165 260.859643 
L 113.710583 262.56383 
L 115.972273 265.561129 
L 119.047949 267.099741 
L 129.125962 252.82561 
L 131.794701 253.956938 
L 129.626263 268.194013 
L 132.777971 269.302011 
L 122.296418 315.959793 
L 126.953611 317.274641 
L 145.245145 259.848996 
L 148.126745 260.470029 
L 145.249131 295.674735 
L 149.257169 296.277929 
L 154.158888 288.206789 
L 157.927712 288.533533 
L 162.871517 259.080141 
L 165.720228 259.147342 
L 169.509195 298.953456 
L 173.608329 298.792239 
L 174.799092 265.037498 
L 177.829219 264.726725 
L 187.358278 307.579133 
L 191.719797 306.852437 
L 188.979541 273.152642 
L 192.257814 272.391991 
L 198.694264 282.805362 
L 202.271236 281.734487 
L 213.844246 303.397262 
L 218.061182 301.839857 
L 197.531166 241.894351 
L 199.822382 240.880274 
L 226.894351 289.397253 
L 230.664644 287.436446 
L 233.586002 284.007502 
L 237.18352 281.83896 
L 246.357977 287.998781 
L 250.074675 285.426686 
L 247.542422 274.670212 
L 250.839456 272.067466 
L 255.590223 271.131249 
L 258.772005 268.277212 
L 244.312159 247.524093 
L 246.757256 245.036335 
L 268.339683 259.655781 
L 271.154347 256.406547 
L 275.707162 254.519606 
L 278.356691 251.041262 
L 263.533191 235.506263 
L 265.590918 232.420096 
L 241.434031 213.583931 
L 242.813398 211.203449 
L 273.248964 223.873092 
L 274.936115 220.487192 
L 238.630145 200.353084 
L 239.594892 198.067304 
L 309.409455 221.083673 
L 310.991021 216.562187 
L 310.183533 211.324614 
L 311.45787 206.783614 
L 244.839323 186.59725 
L 245.368486 184.123041 
L 273.566494 186.211648 
L 274.06933 182.834384 
L 308.663257 182.895996 
L 309.044488 178.416853 
L 264.789789 172.248042 
L 264.857918 169.153641 
L 319.493214 164.683094 
L 319.296437 159.872439 
L 281.597673 158.367714 
L 281.221064 154.751699 
L 303.899523 147.625271 
L 303.174121 143.313349 
L 307.657131 137.865931 
L 306.623015 133.440687 
L 303.947379 129.477004 
L 302.651332 125.17255 
L 303.430222 120.13026 
L 301.840549 115.846688 
L 306.585574 108.861053 
L 304.640011 104.483842 
L 279.521217 111.739365 
L 277.679537 108.211693 
L 287.197101 98.049563 
L 284.921188 94.287313 
L 239.073374 119.770098 
L 237.504196 117.510225 
L 274.300372 85.832105 
L 271.646691 82.481398 
L 254.168231 92.048946 
L 251.719976 89.328163 
L 251.408988 84.488418 
L 248.724377 81.85813 
L 263.111008 60.069799 
L 259.652837 57.083647 
L 221.873668 97.848612 
L 219.623734 96.140373 
L 213.781127 99.653695 
L 211.591951 98.199011 
L 231.823796 59.277806 
L 228.356192 57.275784 
L 218.737107 67.184785 
L 215.524586 65.590328 
L 200.648842 90.564559 
L 198.180376 89.527277 
L 205.608699 61.42354 
L 202.221523 60.244718 
L 202.567639 46.439092 
L 198.710823 45.363295 
L 199.872974 22.325656 
L 195.259311 21.346508 
L 185.074858 54.434543 
L 181.478085 53.904805 
L 180.570376 26.281554 
L 176.090639 25.907366 
L 169.821954 74.855656 
L 166.874807 74.795406 
L 162.674522 27.97448 
L 158.256862 28.16214 
L 158.741586 82.950934 
L 156.054451 83.235072 
L 149.342382 57.35215 
L 145.855012 57.944476 
L 133.037299 15.911771 
L 128.255015 17.037254 
L 137.460179 67.134711 
L 134.28627 68.095803 
L 121.472491 41.919178 
L 117.513655 43.395426 
L 121.281889 62.951693 
L 117.984455 64.423534 
L 99.260789 35.307199 
L 95.10504 37.4851 
L 89.045666 36.422381 
L 84.930031 38.920917 
L 96.605985 64.871758 
L 93.381122 67.118515 
L 79.274154 55.224384 
L 75.754526 58.020861 
L 113.464702 107.968355 
L 111.586556 109.663729 
L 61.345572 62.618093 
L 58.067283 65.974628 
L 58.983877 73.064591 
L 56.035216 76.490218 
L 45.810708 74.233317 
L 42.905308 78.072559 
L 40.122059 82.001256 
L 37.463713 86.015521 
L 78.542502 116.119081 
L 76.937899 118.908455 
L 39.990095 103.531848 
L 38.008783 107.539617 
L 76.955866 129.436453 
L 75.770775 132.269129 
L 65.132577 131.664387 
L 64.023382 134.867712 
L 56.270858 136.119747 
L 55.306131 139.599501 
L 22.456626 135.84309 
L 21.499919 140.386175 
L 19.144244 144.707596 
L 18.467894 149.350447 
L 15.605482 153.784168 
L 15.21627 158.533797 
L 39.959028 164.157855 
L 39.883946 168.136626 
L 25.097744 172.535808 
L 25.293431 176.977708 
L 63.746878 177.92531 
L 64.092914 181.149332 
L 76.118839 182.562438 
L 76.604559 185.395165 
L 74.127704 188.883925 
L 74.813169 191.776133 
L 56.069166 200.255937 
L 57.121121 203.710322 
L 69.317033 203.191624 
L 70.454743 206.228015 
L 84.60717 203.67815 
L 85.752617 206.233546 
L 36.098906 234.504701 
L 38.237592 238.570061 
L 47.237246 238.607259 
L 49.499418 242.320377 
L 65.468539 236.774403 
L 67.664068 239.915195 
L 99.641991 220.07746 
L 101.295635 222.15202 
L 58.38555 263.326908 
L 61.419449 266.677277 
L 88.365038 246.234791 
L 90.846701 248.65099 
L 78.382853 267.946461 
L 81.552114 270.665787 
L 108.813344 242.475434 
L 111.166695 244.250552 
L 113.574696 245.950798 
L 116.034965 247.574491 
L 111.361938 261.207839 
L 114.303016 262.893562 
L 116.583513 265.876577 
L 119.668805 267.395814 
L 129.656842 253.058581 
L 132.332645 254.173101 
L 130.253792 268.423533 
L 133.412407 269.511687 
L 123.224512 316.234469 
L 127.889883 317.52 
L 145.81988 259.980447 
L 148.705329 260.583344 
L 146.049189 295.805453 
L 150.060942 296.383426 
L 154.911801 288.281617 
L 158.682606 288.584651 
L 163.441068 259.100748 
L 166.290145 259.150031 
L 170.329395 298.931527 
L 174.427434 298.744532 
L 175.405875 264.982969 
L 178.433987 264.653144 
L 188.232375 307.444772 
L 192.589238 306.690659 
L 189.637084 273.008765 
L 192.910508 272.227512 
L 199.412324 282.600194 
L 202.982491 281.506843 
L 214.691518 303.096403 
L 218.898576 301.512506 
L 197.991942 241.697308 
L 200.276735 240.668841 
L 227.653313 289.014593 
L 231.411199 287.030111 
L 234.310933 283.582861 
L 237.894741 281.391736 
L 247.107758 287.493733 
L 250.808206 284.898313 
L 248.208351 274.157978 
L 251.488949 271.534547 
L 256.233734 270.568469 
L 259.397503 267.694477 
L 244.807418 247.032712 
L 247.23682 244.529625 
L 268.910768 259.013041 
L 271.704941 255.746169 
L 276.245798 253.830631 
L 278.873398 250.335691 
L 263.952484 234.894231 
L 265.99076 231.795183 
L 241.715882 213.111324 
L 243.08025 210.722213 
L 273.594899 223.200184 
L 275.260721 219.803739 
L 238.828837 199.898373 
L 239.779189 197.606571 
L 309.737131 220.183391 
L 311.290229 215.652046 
L 310.449815 210.419656 
L 311.695567 205.870731 
L 244.951376 186.103759 
L 245.464968 183.626271 
L 273.675554 185.537487 
L 274.157138 182.157128 
L 308.750769 182.001162 
L 309.103821 177.519709 
L 264.8112 171.629358 
L 319.541664 168.53459 
z
" clip-path="url(#p0ab8aa43e6)" style="fill: #0000ff; opacity: 0.5; stroke: #000000; stroke-width: 1.5; stroke-linejoin: miter"/>
   </g>
  </g>
 </g>
 <defs>
  <clipPath id="p0ab8aa43e6">
   <rect x="0" y="-0" width="334.757934" height="332.64"/>
  </clipPath>
 </defs>
</svg>
