<?xml version="1.0" encoding="utf-8" standalone="no"?>
<!DOCTYPE svg PUBLIC "-//W3C//DTD SVG 1.1//EN"
  "http://www.w3.org/Graphics/SVG/1.1/DTD/svg11.dtd">
<svg xmlns:xlink="http://www.w3.org/1999/xlink" width="334.8pt" height="326.169988pt" viewBox="0 0 334.8 326.169988" xmlns="http://www.w3.org/2000/svg" version="1.1">
 <metadata>
  <rdf:RDF xmlns:dc="http://purl.org/dc/elements/1.1/" xmlns:cc="http://creativecommons.org/ns#" xmlns:rdf="http://www.w3.org/1999/02/22-rdf-syntax-ns#">
   <cc:Work>
    <dc:type rdf:resource="http://purl.org/dc/dcmitype/StillImage"/>
    <dc:date>2023-12-09T18:06:23.114975</dc:date>
    <dc:format>image/svg+xml</dc:format>
    <dc:creator>
     <cc:Agent>
      <dc:title>Matplotlib v3.8.2, https://matplotlib.org/</dc:title>
     </cc:Agent>
    </dc:creator>
   </cc:Work>
  </rdf:RDF>
 </metadata>
 <defs>
  <style type="text/css">*{stroke-linejoin: round; stroke-linecap: butt}</style>
 </defs>
 <g id="figure_1">
  <g id="patch_1">
   <path d="M 0 326.169988 
L 334.8 326.169988 
L 334.8 0 
L 0 0 
L 0 326.169988 
z
" style="fill: none"/>
  </g>
  <g id="axes_1">
   <g id="patch_2">
    <path d="M 289.084144 166.006497 
L 289.027006 162.372966 
L 255.677442 160.832519 
L 255.474141 158.251926 
L 261.471949 154.884579 
L 261.078766 152.124735 
L 280.035861 145.667038 
L 279.343681 142.328061 
L 299.245212 133.692514 
L 298.167028 129.755474 
L 310.514289 121.44733 
L 309.045518 117.16202 
L 279.481236 124.007958 
L 278.108321 120.697128 
L 279.496154 116.081787 
L 277.874015 112.774408 
L 293.484297 99.977973 
L 291.348903 96.238738 
L 296.445702 87.899025 
L 293.929055 84.072649 
L 242.008544 116.182178 
L 240.408096 114.053441 
L 255.198798 98.342235 
L 253.030902 95.807589 
L 247.324868 96.595978 
L 245.105959 94.309768 
L 243.898989 90.939581 
L 241.503924 88.763886 
L 261.721551 59.20006 
L 258.319714 56.479677 
L 231.601982 85.907285 
L 229.054771 84.120722 
L 243.390492 55.665897 
L 239.886597 53.52363 
L 247.734386 30.671882 
L 243.442477 28.405391 
L 217.564445 72.135573 
L 214.591162 70.79719 
L 210.124771 73.234389 
L 207.189715 72.129383 
L 217.378291 30.450369 
L 213.094426 29.13845 
L 193.692453 87.014296 
L 191.198793 86.419145 
L 190.307298 77.347919 
L 187.511379 76.863984 
L 186.662986 60.759724 
L 183.347299 60.398576 
L 180.021897 60.141858 
L 176.690067 59.989826 
L 173.284164 14.825909 
L 168.530833 14.908131 
L 166.485003 57.00331 
L 163.061184 57.278459 
L 158.943946 52.165344 
L 155.371738 52.679993 
L 152.266535 55.638424 
L 148.80683 56.361308 
L 136.054209 21.176752 
L 131.51897 22.426426 
L 145.968329 81.746694 
L 143.332639 82.654698 
L 116.130497 21.874097 
L 111.627035 23.74987 
L 127.492052 68.696983 
L 124.455186 70.192374 
L 119.93581 69.011218 
L 116.91256 70.744038 
L 118.626307 79.912416 
L 115.946462 81.68102 
L 114.723512 85.450998 
L 112.219742 87.339576 
L 78.409864 51.564403 
L 74.85858 54.611516 
L 94.218236 81.949549 
L 91.614511 84.484589 
L 98.344394 95.747504 
L 96.172467 98.145987 
L 70.854688 81.496134 
L 68.248258 84.766 
L 95.897533 109.906938 
L 94.17202 112.375355 
L 44.997863 84.906821 
L 42.511458 88.987995 
L 49.184678 98.078638 
L 47.110353 102.021657 
L 37.272935 102.342116 
L 35.338552 106.657558 
L 91.006723 133.600294 
L 90.028599 136.210774 
L 91.393453 139.578104 
L 90.603093 142.173469 
L 86.825841 144.013902 
L 86.177211 146.750689 
L 55.275394 143.811834 
L 54.63601 147.540736 
L 40.759379 149.641739 
L 40.310476 153.824174 
L 15.499894 156.55343 
L 15.280799 161.526661 
L 28.673996 166.462007 
L 28.759935 171.016116 
L 89.013595 171.595508 
L 89.231109 174.24987 
L 16.531407 186.360858 
L 17.249013 191.286919 
L 82.612452 183.662665 
L 83.212548 186.512327 
L 79.306054 190.538389 
L 80.123974 193.488611 
L 26.895152 214.209801 
L 28.483266 218.796234 
L 37.563883 220.390774 
L 39.341065 224.638702 
L 43.395867 227.809914 
L 45.40344 231.870803 
L 41.999937 238.937334 
L 44.358071 243.036613 
L 78.846778 226.583117 
L 80.79825 229.529958 
L 102.637851 217.916575 
L 104.305065 220.119658 
L 82.33113 242.037219 
L 84.76679 244.866865 
L 85.565582 249.250769 
L 88.226453 251.975149 
L 71.54809 275.463465 
L 75.040075 278.615626 
L 75.616987 285.327859 
L 79.417119 288.347207 
L 117.081817 244.361204 
L 119.573366 246.097063 
L 109.899371 267.18544 
L 113.112116 269.135846 
L 108.816745 284.888612 
L 112.586651 286.864304 
L 135.785782 247.098197 
L 138.354141 248.244609 
L 142.974551 244.149323 
L 145.446636 245.071162 
L 136.606451 281.345865 
L 140.251226 282.44954 
L 148.377517 265.784957 
L 151.527203 266.526217 
L 154.553844 267.946244 
L 157.768431 268.492239 
L 155.931926 310.580484 
L 160.486346 311.062069 
L 167.953101 261.61867 
L 170.96211 261.746492 
L 174.134199 295.814724 
L 178.215352 295.73129 
L 183.361373 311.313855 
L 187.92529 310.932636 
L 184.131485 246.840006 
L 186.667822 246.46645 
L 199.688058 299.610143 
L 203.875912 298.721363 
L 197.599928 257.886626 
L 200.476936 257.084131 
L 216.988103 297.5264 
L 221.101886 296.094699 
L 217.790513 276.173237 
L 221.232509 274.726865 
L 226.671544 277.459643 
L 230.149596 275.733395 
L 212.785191 236.551362 
L 214.983863 235.281958 
L 259.050621 299.217386 
L 263.196775 296.462312 
L 251.31975 271.89104 
L 254.610526 269.392552 
L 241.570662 247.363333 
L 244.095054 245.183504 
L 254.179427 250.961683 
L 256.810725 248.383629 
L 244.860036 232.258302 
L 246.907866 229.982517 
L 242.756197 222.632333 
L 244.502406 220.427457 
L 284.114147 245.403933 
L 286.555896 241.887414 
L 292.239476 240.397294 
L 294.519788 236.627771 
L 286.243284 227.12893 
L 288.109374 223.554502 
L 298.479953 223.916994 
L 300.239003 219.959405 
L 282.693882 208.485872 
L 283.975549 205.032262 
L 264.783769 195.057587 
L 265.652076 192.173749 
L 314.034728 201.181122 
L 315.071221 196.745699 
L 318.302921 192.71059 
L 319.070973 188.145154 
L 256.039017 175.914505 
L 256.309748 173.315086 
L 279.415998 172.007073 
L 279.552312 168.674563 
L 289.081858 165.279676 
L 289.001869 161.646576 
L 255.643276 160.31591 
L 255.423748 157.736646 
L 261.400259 154.331643 
L 260.989726 151.574326 
L 279.905831 144.997528 
L 279.192664 141.66297 
L 299.039488 132.902425 
L 297.936564 128.972244 
L 310.231327 120.586607 
L 308.735633 116.310619 
L 279.214993 123.342364 
L 277.821282 120.040235 
L 279.18006 115.416256 
L 277.537151 112.119145 
L 293.066642 99.224784 
L 290.907773 95.499053 
L 295.952019 87.127449 
L 293.411356 83.316977 
L 241.693822 115.752421 
L 240.080018 113.633793 
L 254.771613 97.829872 
L 252.587818 95.308911 
L 246.886856 96.133171 
L 244.653611 93.860963 
L 243.425468 90.498434 
L 241.016767 88.337845 
L 261.048055 58.647446 
L 257.629176 55.948513 
L 231.097055 85.543578 
L 228.538658 83.773071 
L 242.695131 55.228645 
L 239.177831 53.108458 
L 246.88174 30.207804 
L 242.575661 27.968352 
L 216.973179 71.860426 
L 213.991537 70.540771 
L 209.540563 73.006012 
L 206.598615 71.919488 
L 216.524853 30.177218 
L 212.232821 28.892268 
L 193.195238 86.888997 
L 190.697884 86.309541 
L 189.749354 77.244102 
L 186.950446 76.777761 
L 186.000783 60.679156 
L 182.682891 60.338868 
L 179.35594 60.103071 
L 176.023219 59.971997 
L 172.333328 14.830394 
L 167.580608 14.94251 
L 165.799574 57.049724 
L 162.377553 57.346401 
L 158.228238 52.259283 
L 154.659338 52.796388 
L 151.572803 55.774291 
L 148.117713 56.51892 
L 135.144053 21.415267 
L 130.616763 22.69344 
L 145.438927 81.921657 
L 142.809001 82.84622 
L 115.225121 22.237907 
L 110.733545 24.141967 
L 126.880941 68.988409 
L 123.85354 70.502871 
L 119.326824 69.350162 
L 116.314533 71.101963 
L 118.085909 80.25938 
L 115.417241 82.044804 
L 114.218027 85.8224 
L 111.726184 87.726688 
L 77.69197 52.164867 
L 74.15992 55.234256 
L 93.691134 82.449987 
L 91.103404 85.001353 
L 97.903992 96.221717 
L 95.747193 98.633813 
L 70.325196 82.143524 
L 67.739384 85.429718 
L 95.546234 110.396261 
L 93.83628 112.875481 
L 44.490334 85.716768 
L 42.029646 89.8135 
L 48.75991 98.861992 
L 46.710425 102.81798 
L 36.875217 103.200304 
L 34.968014 107.527827 
L 90.804539 134.119909 
L 89.842852 136.736489 
L 91.228858 140.095168 
L 90.454837 142.695452 
L 86.689235 144.559606 
L 86.05783 147.300418 
L 55.138141 144.555976 
L 54.522222 148.288826 
L 40.659079 150.477063 
L 40.236491 154.662239 
L 15.443565 157.547485 
L 15.255753 162.521996 
L 28.679726 167.373009 
L 28.794306 171.926488 
L 89.050419 172.126906 
L 89.284623 174.779848 
L 16.662529 187.347837 
L 17.411103 192.269287 
L 82.725297 184.234084 
L 83.343305 187.079916 
L 79.462209 191.130468 
L 80.298668 194.075488 
L 27.201224 215.131047 
L 28.818152 219.7074 
L 37.908618 221.244797 
L 39.712482 225.481464 
L 43.787149 228.62711 
L 45.820223 232.675293 
L 42.461232 239.76309 
L 44.845101 243.847457 
L 79.229643 227.177371 
L 81.19961 230.111881 
L 102.965738 218.361369 
L 104.646775 220.553923 
L 82.811124 242.609254 
L 85.264532 245.423524 
L 86.090881 249.802318 
L 88.768834 252.509909 
L 72.238529 276.102657 
L 75.750271 279.232793 
L 76.369387 285.941265 
L 80.188434 288.936653 
L 117.57574 244.71463 
L 120.078158 246.434784 
L 110.536988 267.583589 
L 113.761936 269.513749 
L 109.565726 285.293219 
L 113.347984 287.245162 
L 136.296549 247.333932 
L 138.872067 248.464167 
L 143.466629 244.339903 
L 145.944463 245.246175 
L 137.332601 281.575761 
L 140.984245 282.65649 
L 149.005565 265.941127 
L 152.15985 266.662563 
L 155.195362 268.063526 
L 158.41332 268.589292 
L 156.841562 310.688255 
L 161.398921 311.141186 
L 168.554557 261.651804 
L 171.564311 261.760697 
L 174.950608 295.808305 
L 179.031154 295.699205 
L 184.27508 311.249096 
L 188.836509 310.83918 
L 184.639672 246.771679 
L 187.173609 246.382178 
L 200.527832 299.44293 
L 204.710013 298.527829 
L 198.177326 257.733371 
L 201.049229 256.912797 
L 217.814429 297.250421 
L 221.919126 295.792875 
L 218.482524 275.892633 
L 221.915355 274.424641 
L 227.37147 277.123157 
L 230.838596 275.375069 
L 213.228102 236.303023 
L 215.418747 235.019815 
L 259.88675 298.676824 
L 264.015495 295.895728 
L 251.984165 271.399641 
L 255.259162 268.880506 
L 242.081004 246.933735 
L 244.591636 244.738073 
L 254.712152 250.452713 
L 257.327183 247.85816 
L 245.275311 231.808315 
L 247.308788 229.519695 
L 243.110972 222.195768 
L 244.843279 219.979953 
L 284.611324 244.7068 
L 287.030908 241.174993 
L 292.705004 239.649156 
L 294.961563 235.865366 
L 286.62548 226.418768 
L 288.469052 222.832673 
L 298.841705 223.129933 
L 300.57583 219.161359 
L 282.958894 207.798402 
L 284.218814 204.336799 
L 264.964679 194.483027 
L 265.814831 191.593785 
L 314.253177 200.29668 
L 315.261754 195.854826 
L 318.468011 191.799471 
L 319.207334 187.229295 
L 256.099701 175.395323 
L 256.354077 172.794253 
L 279.451643 171.34094 
L 279.566995 168.007639 
L 289.075001 164.552883 
L 288.972164 160.920359 
L 255.605861 159.799525 
L 255.370115 157.221694 
L 261.325092 153.779168 
L 260.897226 151.024488 
L 279.771592 144.328848 
L 279.037467 140.998842 
L 298.8288 132.113645 
L 297.701179 128.190478 
L 309.942958 119.72768 
L 308.4204 115.461184 
L 278.94457 122.678458 
L 277.530117 119.38516 
L 278.859786 114.752727 
L 277.196173 111.466014 
L 292.644259 98.474236 
L 290.461999 94.762157 
L 295.453493 86.358993 
L 292.888914 82.564575 
L 241.376404 115.324652 
L 239.749307 113.216215 
L 254.341214 97.320206 
L 252.141607 94.813029 
L 246.445941 95.673129 
L 244.19845 93.415012 
L 242.949183 90.060273 
L 240.52694 87.914876 
L 260.371096 58.099079 
L 256.93531 55.421702 
L 230.58985 85.183054 
L 228.020368 83.428674 
L 241.997033 54.795775 
L 238.466468 52.697752 
L 246.026192 29.749098 
L 241.706113 27.536773 
L 216.380194 71.589004 
L 213.390311 70.288128 
L 208.95493 72.781315 
L 206.006207 71.713315 
L 215.669713 29.90944 
L 211.369684 28.65151 
L 192.697245 86.766827 
L 190.196295 86.20309 
L 189.190768 77.143796 
L 186.388982 76.695067 
L 185.338087 60.602754 
L 182.01812 60.283341 
L 178.689752 60.068472 
L 175.356273 59.958362 
L 171.38254 14.840859 
L 166.630619 14.982865 
L 165.114451 57.100448 
L 161.694363 57.418642 
L 157.513135 52.357721 
L 153.947683 52.917262 
L 150.879939 55.914519 
L 147.429601 56.680863 
L 134.235415 21.659502 
L 129.716254 22.966123 
L 144.910637 82.099945 
L 142.286577 83.041031 
L 114.322051 22.607404 
L 109.84254 24.539676 
L 126.271675 69.283673 
L 123.253859 70.817146 
L 118.719983 69.69293 
L 115.718769 71.463642 
L 117.547705 80.609737 
L 114.890319 82.41191 
L 113.714887 86.196973 
L 111.235071 88.116896 
L 76.977866 52.769835 
L 73.465191 55.861377 
L 93.167189 82.953729 
L 90.595558 85.52132 
L 97.466581 96.698691 
L 95.324995 99.124304 
L 69.799787 82.794232 
L 67.234694 86.096624 
L 95.19802 110.887784 
L 93.503692 113.377709 
L 43.98791 86.529891 
L 41.553036 90.642018 
L 48.340077 99.648002 
L 46.315513 103.616802 
L 36.482904 104.060976 
L 34.602957 108.400409 
L 90.605626 134.640785 
L 89.660415 137.263361 
L 91.067518 140.613257 
L 90.309866 143.218358 
L 86.556064 145.106158 
L 85.94191 147.850887 
L 55.005571 145.300967 
L 54.413141 149.037616 
L 40.564036 151.313002 
L 40.167778 155.500753 
L 15.393489 158.541876 
L 15.236968 163.517469 
L 28.691185 168.283957 
L 28.834402 172.836625 
L 89.090583 172.658063 
L 89.341468 175.309479 
L 16.799857 188.333971 
L 17.579369 193.250615 
L 82.841734 184.804783 
L 83.477628 187.646671 
L 79.622085 191.721553 
L 80.47705 194.661254 
L 27.513083 216.050349 
L 29.158762 220.616443 
L 38.258718 222.096635 
L 40.089193 226.321873 
L 44.183563 229.441829 
L 46.242058 233.477145 
L 42.927712 240.585929 
L 45.337222 244.655221 
L 79.616239 227.769206 
L 81.604623 230.691268 
L 103.296416 218.804091 
L 104.99121 220.986029 
L 83.294706 243.178258 
L 85.765766 245.977042 
L 86.619639 250.350552 
L 89.314568 253.041246 
L 72.932974 276.737495 
L 76.464334 279.845482 
L 77.12563 286.549927 
L 80.963441 289.521236 
L 118.071876 245.064943 
L 120.585063 246.769324 
L 111.177096 267.977719 
L 114.41412 269.887558 
L 110.317237 285.693108 
L 114.111696 287.621224 
L 136.808789 247.56645 
L 139.391365 248.680464 
L 143.959897 244.527384 
L 146.443382 245.418054 
L 138.060182 281.801085 
L 141.718551 282.858826 
L 149.634582 266.093344 
L 152.793342 266.794927 
L 155.837605 268.176771 
L 159.058806 268.682287 
L 157.751858 310.790304 
L 162.311976 311.214562 
L 169.15621 261.681154 
L 172.16659 261.771116 
L 175.766959 295.796752 
L 179.846739 295.661989 
L 185.188361 311.178592 
L 189.747121 310.739995 
L 185.147419 246.700157 
L 187.678857 246.294727 
L 201.366537 299.270438 
L 205.54288 298.329052 
L 198.753748 257.576488 
L 201.620434 256.737868 
L 218.639003 296.96925 
L 222.734451 295.485917 
L 219.172756 275.607683 
L 222.596286 274.118129 
L 228.069266 276.782276 
L 231.525329 275.012416 
L 213.669442 236.051903 
L 215.851973 234.754943 
L 260.719463 298.131014 
L 264.830634 295.324005 
L 252.645476 270.904074 
L 255.904565 268.36439 
L 242.588635 246.500936 
L 245.085408 244.289527 
L 255.241665 249.940402 
L 257.840326 247.329453 
L 245.687748 231.355725 
L 247.70679 229.054361 
L 243.462995 221.756981 
L 245.181331 219.530314 
L 285.104107 244.006554 
L 287.501431 240.459599 
L 293.165817 238.898105 
L 295.398533 235.100198 
L 287.003201 225.706215 
L 288.824183 222.108596 
L 299.198501 222.340612 
L 300.907631 218.361211 
L 283.219577 207.109279 
L 284.457701 203.63982 
L 265.141971 193.90734 
L 265.973936 191.012808 
L 314.466059 199.410882 
L 315.44668 194.962772 
L 318.627368 190.887332 
L 319.337932 186.312596 
L 256.157118 174.875769 
L 256.39513 172.273151 
L 279.483099 170.674596 
L 279.577484 167.340635 
L 289.063573 163.826148 
L 288.937891 160.194342 
L 255.565199 159.283386 
L 255.313245 156.707088 
L 261.246453 153.227178 
L 260.801269 150.475243 
L 279.633151 143.661027 
L 278.878096 140.335704 
L 298.613155 131.326206 
L 297.460882 127.410209 
L 309.649192 118.870584 
L 308.099831 114.613749 
L 278.669976 122.016266 
L 277.234838 118.731929 
L 278.535346 114.091225 
L 276.851094 110.81504 
L 292.217163 97.726359 
L 290.0116 94.028079 
L 294.950143 85.593687 
L 292.361751 81.815475 
L 241.056302 114.898888 
L 239.415976 112.800727 
L 253.907617 96.813257 
L 251.692285 94.319964 
L 246.002142 95.215869 
L 243.740493 92.971932 
L 242.470151 89.625117 
L 240.034463 87.494997 
L 259.690702 57.554981 
L 256.238144 54.899266 
L 230.080388 84.825728 
L 227.499922 83.087542 
L 241.296226 54.367305 
L 237.752536 52.291529 
L 245.167777 29.295782 
L 240.833868 27.110672 
L 215.785514 71.321317 
L 212.787508 70.039271 
L 208.367896 72.560305 
L 205.412514 71.510872 
L 214.812906 29.647046 
L 210.505051 28.416186 
L 192.198493 86.647792 
L 189.694047 86.099796 
L 188.631562 77.047005 
L 185.82701 76.615907 
L 184.674924 60.530521 
L 181.353013 60.231995 
L 178.023359 60.038065 
L 174.689254 59.948922 
L 170.431836 14.857304 
L 165.680902 15.029194 
L 164.42966 57.15548 
L 161.011641 57.495178 
L 156.798665 52.460655 
L 153.236803 53.042609 
L 150.187971 56.059101 
L 146.742521 56.847131 
L 133.328331 21.909446 
L 128.817477 23.244465 
L 144.383478 82.281553 
L 141.765389 83.239124 
L 113.421323 22.982573 
L 108.954053 24.942981 
L 125.664277 69.582763 
L 122.656166 71.135186 
L 118.115309 70.039508 
L 115.125291 71.829061 
L 117.011715 80.963472 
L 114.365716 82.782323 
L 113.214113 86.574704 
L 110.746422 88.510185 
L 76.267581 53.379281 
L 72.774419 56.492856 
L 92.646424 83.460758 
L 90.090992 86.044472 
L 97.032178 97.178407 
L 94.905891 99.617441 
L 69.27848 83.448231 
L 66.734208 86.766691 
L 94.852903 111.381486 
L 93.174269 113.882019 
L 43.490609 87.346158 
L 41.081646 91.473518 
L 47.925195 100.436637 
L 45.925634 104.418092 
L 36.096012 104.924099 
L 34.243395 109.27527 
L 90.409993 135.162901 
L 89.481296 137.791371 
L 90.909439 141.132351 
L 90.168188 143.742165 
L 86.426333 145.653537 
L 85.829453 148.402075 
L 54.877689 146.046777 
L 54.308772 149.787079 
L 40.474252 152.149522 
L 40.104341 156.339682 
L 15.349668 159.536561 
L 15.224444 164.513041 
L 28.708373 169.194815 
L 28.880221 173.746492 
L 89.134088 173.188956 
L 89.401644 175.838742 
L 16.943384 189.319222 
L 17.753804 194.230867 
L 82.961758 185.374738 
L 83.615513 188.21257 
L 79.785676 192.311621 
L 80.659112 195.245886 
L 27.830719 216.967672 
L 29.505083 221.523325 
L 38.614168 222.946254 
L 40.471181 227.159896 
L 44.585094 230.25404 
L 46.668927 234.276329 
L 43.399357 241.405817 
L 45.834413 245.459875 
L 80.006548 228.358598 
L 82.013272 231.268096 
L 103.629872 219.244726 
L 105.338355 221.415961 
L 83.781857 243.744209 
L 86.270471 246.527396 
L 87.151834 250.895449 
L 89.863632 253.569141 
L 73.631399 277.367952 
L 77.182236 280.453667 
L 77.885687 287.153821 
L 81.742109 290.100933 
L 118.570206 245.412129 
L 121.094063 247.100669 
L 111.81967 268.367815 
L 115.068642 270.257258 
L 111.071248 286.088262 
L 114.877759 287.992475 
L 137.322481 247.795741 
L 139.912012 248.89349 
L 144.454333 244.711759 
L 146.943371 245.586792 
L 138.789165 282.021829 
L 142.454114 283.05654 
L 150.264544 266.241602 
L 153.427654 266.923305 
L 156.480548 268.285974 
L 159.704865 268.771221 
L 158.662778 310.886624 
L 163.225474 311.282194 
L 169.758036 261.706719 
L 172.768922 261.777745 
L 176.583222 295.780064 
L 180.662073 295.619645 
L 186.10118 311.102345 
L 190.657092 310.635085 
L 185.654707 246.625443 
L 188.183544 246.2041 
L 202.204141 299.092676 
L 206.374481 298.125041 
L 199.329172 257.415983 
L 202.190527 256.559349 
L 219.461792 296.682898 
L 223.54783 295.173837 
L 219.861182 275.318397 
L 223.275277 273.807341 
L 228.764904 276.437013 
L 232.209767 274.645451 
L 214.109194 235.798012 
L 216.283524 234.487351 
L 261.548727 297.579978 
L 265.642162 294.747167 
L 253.303657 270.404356 
L 256.546708 267.844225 
L 243.093533 246.064954 
L 245.576348 243.837885 
L 255.767945 249.42477 
L 258.350134 246.797529 
L 246.097331 230.90055 
L 248.101858 228.586533 
L 243.81225 221.315988 
L 245.516548 219.078558 
L 285.592477 243.303222 
L 287.967444 239.741259 
L 293.621897 238.144171 
L 295.830683 234.332296 
L 287.376434 224.991301 
L 289.174753 221.382301 
L 299.550325 221.549063 
L 301.234393 217.558991 
L 283.47592 206.418529 
L 284.692199 202.941352 
L 265.31564 193.33055 
L 266.129383 190.430843 
L 314.673366 198.523762 
L 315.625991 194.069573 
L 318.780984 189.974209 
L 319.462761 185.395094 
L 256.211266 174.355865 
L 256.432904 171.751801 
L 279.510363 170.008068 
L 279.583777 166.673579 
L 289.047575 163.0995 
L 288.899053 159.468556 
L 255.521292 158.767513 
L 255.253139 156.192851 
L 261.164343 152.675693 
L 260.70186 149.926613 
L 279.490512 142.994089 
L 278.714557 139.673581 
L 298.392561 130.540138 
L 297.215681 126.631466 
L 309.350041 118.015353 
L 307.773937 113.768346 
L 278.391222 121.355814 
L 276.935457 118.080569 
L 278.206751 113.431777 
L 276.501927 110.166249 
L 291.785372 96.981183 
L 289.556592 93.296848 
L 294.441991 84.831563 
L 291.829887 81.069704 
L 240.733529 114.475145 
L 239.080039 112.387342 
L 253.470841 96.309044 
L 251.239872 93.829734 
L 245.555475 94.76141 
L 243.279758 92.531741 
L 241.988391 89.192982 
L 239.539355 87.078223 
L 259.006899 57.015173 
L 255.537707 54.381225 
L 229.568688 84.471612 
L 226.977341 82.749691 
L 240.592738 53.943251 
L 237.036062 51.889803 
L 244.306527 28.847874 
L 239.958961 26.690064 
L 215.189162 71.057376 
L 212.183152 69.79421 
L 207.779483 72.342991 
L 204.817559 71.312167 
L 213.954466 29.390046 
L 209.638954 28.186304 
L 191.699002 86.531897 
L 189.191159 85.999662 
L 188.071758 76.953733 
L 185.26455 76.540283 
L 184.011319 60.462461 
L 180.687597 60.184834 
L 177.356789 60.011849 
L 174.022189 59.943678 
L 169.481254 14.879728 
L 164.731495 15.081496 
L 163.745228 57.214818 
L 160.329413 57.576006 
L 156.084857 52.56808 
L 152.526726 53.172425 
L 149.496925 56.208033 
L 146.0565 57.017717 
L 132.422838 22.165091 
L 127.920469 23.528454 
L 143.857472 82.466473 
L 141.245457 83.440492 
L 112.522972 23.3634 
L 108.06812 25.351866 
L 125.058773 69.885668 
L 122.060485 71.456979 
L 117.512827 70.389882 
L 114.534123 72.198205 
L 116.47796 81.320571 
L 113.843453 83.156028 
L 112.715725 86.955576 
L 110.260255 88.90654 
L 75.561143 53.993183 
L 72.087633 57.128666 
L 92.128858 83.971051 
L 89.589726 86.570786 
L 96.600801 97.660845 
L 94.489896 100.113204 
L 68.761297 84.105496 
L 66.237947 87.439892 
L 94.510899 111.87735 
L 92.848025 114.388391 
L 42.998452 88.165537 
L 40.615496 92.307966 
L 47.515282 101.227866 
L 45.540801 105.221818 
L 35.714557 105.789638 
L 33.889342 110.152374 
L 90.217649 135.686238 
L 89.305501 138.320496 
L 90.754629 141.652428 
L 90.029806 144.266853 
L 86.300047 146.201721 
L 85.720466 148.953959 
L 54.7545 146.793376 
L 54.209119 150.537182 
L 40.389731 152.98659 
L 40.046181 157.178994 
L 15.312104 160.531503 
L 15.218182 165.508672 
L 28.73129 170.105547 
L 28.931762 174.656053 
L 89.180931 173.719565 
L 89.465147 176.367616 
L 17.093104 190.303551 
L 17.9344 195.210001 
L 83.085364 185.943927 
L 83.756955 188.777591 
L 79.952974 192.900648 
L 80.844848 195.829362 
L 28.154117 217.882979 
L 29.857101 222.428011 
L 38.974956 223.793621 
L 40.858433 227.995499 
L 44.991724 231.063708 
L 47.100815 235.072812 
L 43.87615 242.222723 
L 46.336655 246.261385 
L 80.400557 228.945523 
L 82.42554 231.842342 
L 103.966093 219.683254 
L 105.688198 221.843701 
L 84.272558 244.307086 
L 86.778628 247.074566 
L 87.687446 251.436989 
L 90.416006 254.093572 
L 74.333775 277.994004 
L 77.903949 281.057325 
L 78.649526 287.752922 
L 82.524408 290.675722 
L 119.070709 245.756173 
L 121.605136 247.428806 
L 112.464685 268.753863 
L 115.725476 270.622833 
L 111.827729 286.478666 
L 115.646142 288.3589 
L 137.837605 248.021797 
L 140.433989 249.103238 
L 144.94992 244.893021 
L 147.444411 245.752382 
L 139.519523 282.237983 
L 143.190907 283.249623 
L 150.895426 266.385895 
L 154.062761 267.04769 
L 157.124165 268.391132 
L 160.35147 268.85609 
L 159.574286 310.977214 
L 164.139379 311.344079 
L 170.360011 261.728499 
L 173.371283 261.780587 
L 177.399363 295.758243 
L 181.477126 295.572174 
L 187.013502 311.020359 
L 191.566385 310.524454 
L 186.161514 246.547539 
L 188.687652 246.1103 
L 203.040611 298.909648 
L 207.204782 297.915803 
L 199.903576 257.251861 
L 202.759486 256.377249 
L 220.282764 296.391378 
L 224.35923 294.856647 
L 220.547776 275.024787 
L 223.952299 273.492288 
L 229.458356 276.087381 
L 232.891884 274.274189 
L 214.54734 235.54136 
L 216.713384 234.21705 
L 262.374508 297.023736 
L 266.450046 294.165236 
L 253.958683 269.900509 
L 257.185568 267.320032 
L 243.595679 245.625804 
L 246.064438 243.383164 
L 256.290972 248.905839 
L 258.856586 246.26241 
L 246.504042 230.442808 
L 248.493976 228.116229 
L 244.158725 220.872808 
L 245.848918 218.624703 
L 286.076413 242.596833 
L 288.42893 239.020003 
L 294.073227 237.387383 
L 296.257995 233.561692 
L 287.745163 224.274054 
L 289.520748 220.653814 
L 299.897163 220.755317 
L 301.556103 216.754732 
L 283.727914 205.726181 
L 284.922299 202.241424 
L 265.485677 192.752678 
L 266.281166 189.847911 
L 314.87509 197.635356 
L 315.799681 193.175263 
L 318.928854 189.060137 
L 319.581818 184.476825 
L 256.262143 173.835631 
L 256.467399 171.230224 
L 279.533434 169.341381 
L 289.084144 166.006497 
z
" clip-path="url(#p7d258a27d5)" style="fill: #0000ff; opacity: 0.5; stroke: #000000; stroke-width: 1.5; stroke-linejoin: miter"/>
   </g>
  </g>
 </g>
 <defs>
  <clipPath id="p7d258a27d5">
   <rect x="0" y="0" width="334.8" height="326.169988"/>
  </clipPath>
 </defs>
</svg>
