<?xml version="1.0" encoding="utf-8" standalone="no"?>
<!DOCTYPE svg PUBLIC "-//W3C//DTD SVG 1.1//EN"
  "http://www.w3.org/Graphics/SVG/1.1/DTD/svg11.dtd">
<svg xmlns:xlink="http://www.w3.org/1999/xlink" width="334.8pt" height="317.81463pt" viewBox="0 0 334.8 317.81463" xmlns="http://www.w3.org/2000/svg" version="1.1">
 <metadata>
  <rdf:RDF xmlns:dc="http://purl.org/dc/elements/1.1/" xmlns:cc="http://creativecommons.org/ns#" xmlns:rdf="http://www.w3.org/1999/02/22-rdf-syntax-ns#">
   <cc:Work>
    <dc:type rdf:resource="http://purl.org/dc/dcmitype/StillImage"/>
    <dc:date>2023-12-09T18:06:23.224352</dc:date>
    <dc:format>image/svg+xml</dc:format>
    <dc:creator>
     <cc:Agent>
      <dc:title>Matplotlib v3.8.2, https://matplotlib.org/</dc:title>
     </cc:Agent>
    </dc:creator>
   </cc:Work>
  </rdf:RDF>
 </metadata>
 <defs>
  <style type="text/css">*{stroke-linejoin: round; stroke-linecap: butt}</style>
 </defs>
 <g id="figure_1">
  <g id="patch_1">
   <path d="M 0 317.81463 
L 334.8 317.81463 
L 334.8 0 
L 0 0 
L 0 317.81463 
z
" style="fill: none"/>
  </g>
  <g id="axes_1">
   <g id="patch_2">
    <path d="M 257.224055 165.798597 
L 257.1799 162.990596 
L 261.657658 159.895033 
L 261.425689 156.950549 
L 258.809845 154.30458 
L 258.403508 151.452402 
L 265.469913 147.17036 
L 264.835968 144.112302 
L 264.851834 140.884038 
L 264.020539 137.848522 
L 276.272555 130.554159 
L 275.110818 127.164658 
L 267.40165 126.366516 
L 266.112631 123.258006 
L 238.260679 132.659672 
L 237.183939 130.464307 
L 271.111118 108.999672 
L 269.274214 105.783115 
L 281.632739 93.542249 
L 279.304617 90.002512 
L 232.664157 118.694993 
L 231.151104 116.682499 
L 274.040597 77.882019 
L 271.223836 74.588737 
L 240.263682 97.757981 
L 238.088566 95.516893 
L 256.380062 71.44082 
L 253.369509 68.706009 
L 264.00065 49.445312 
L 260.294742 46.481768 
L 222.15006 91.0053 
L 219.771581 89.337083 
L 242.054096 48.717414 
L 238.336151 46.444278 
L 237.13979 39.5638 
L 233.136466 37.449707 
L 220.893333 52.88714 
L 217.316957 51.277283 
L 197.303349 91.317954 
L 194.946985 90.430817 
L 202.517331 58.85305 
L 199.137621 57.818026 
L 195.727039 56.889779 
L 192.288958 56.069227 
L 190.402148 47.036253 
L 186.656883 46.387999 
L 186.040867 20.647344 
L 181.468033 20.149266 
L 174.711443 55.143401 
L 171.228842 54.984489 
L 167.699386 27.219295 
L 163.342257 27.294664 
L 158.146487 14.44612 
L 153.392464 14.828168 
L 150.119643 26.814257 
L 145.758471 27.442572 
L 150.154839 73.567336 
L 147.263668 74.171428 
L 144.778566 76.356823 
L 141.977762 77.128577 
L 138.48474 75.792749 
L 135.669311 76.762674 
L 112.37952 26.321353 
L 108.021509 28.136543 
L 123.474898 71.845011 
L 120.542765 73.28883 
L 128.826324 95.040677 
L 126.620868 96.304767 
L 107.071833 70.373168 
L 104.101532 72.333463 
L 118.442445 98.016602 
L 116.335693 99.605713 
L 104.930319 90.01048 
L 102.578517 92.0284 
L 101.347981 95.239258 
L 99.162355 97.367229 
L 64.983318 69.599087 
L 62.009488 72.883121 
L 59.140385 76.259034 
L 56.378848 79.723489 
L 84.926971 105.82102 
L 83.082178 108.460072 
L 42.906502 86.915796 
L 40.488063 90.885411 
L 33.466197 92.345321 
L 31.223142 96.609075 
L 70.267617 120.170311 
L 68.881244 123.26319 
L 79.775062 131.182473 
L 78.730236 133.970973 
L 90.232485 140.800133 
L 89.484888 143.255073 
L 56.726126 137.592207 
L 55.894231 141.102246 
L 16.582824 137.393376 
L 15.764525 142.165707 
L 54.83004 151.859077 
L 54.447665 155.42168 
L 62.631127 159.500251 
L 62.48515 162.813792 
L 65.522958 166.120601 
L 65.583709 169.339944 
L 17.348565 175.756558 
L 17.736111 180.485845 
L 19.799155 185.002628 
L 20.476205 189.650292 
L 43.971976 189.870899 
L 44.790144 193.756109 
L 65.101211 192.56982 
L 65.993792 195.789346 
L 69.181294 198.257898 
L 70.250704 201.346325 
L 57.120307 210.118268 
L 58.568596 213.580054 
L 53.866108 219.967263 
L 55.62568 223.526499 
L 37.29733 238.229271 
L 39.639291 242.300437 
L 65.454135 231.358299 
L 67.566136 234.547551 
L 56.733458 247.221191 
L 59.348535 250.676796 
L 67.984173 249.118309 
L 70.653337 252.219229 
L 109.205134 221.365401 
L 110.981305 223.183966 
L 79.751674 260.434099 
L 82.770813 263.159428 
L 87.339205 264.002948 
L 90.466805 266.487944 
L 98.620745 262.001722 
L 101.679845 264.132991 
L 110.13215 257.694363 
L 113.050125 259.465818 
L 96.147702 297.66016 
L 100.329204 299.851557 
L 119.844042 269.103961 
L 123.115958 270.564412 
L 115.219985 300.603067 
L 119.484587 302.193335 
L 138.11268 258.92076 
L 141.055381 259.811839 
L 134.806225 297.190714 
L 138.953852 298.166834 
L 146.228516 282.360378 
L 149.904197 282.984689 
L 158.339894 244.516362 
L 160.819688 244.778576 
L 161.47114 276.474611 
L 164.954224 276.62257 
L 168.494712 288.209102 
L 172.343281 288.130423 
L 173.222688 244.147542 
L 175.683528 243.94199 
L 178.337068 245.185844 
L 180.828025 244.818972 
L 187.153448 264.017801 
L 190.232164 263.364412 
L 196.411464 274.530353 
L 199.81614 273.580673 
L 208.504231 288.606385 
L 212.345509 287.269523 
L 208.679374 267.238957 
L 211.848727 265.907152 
L 227.567451 290.883079 
L 231.470889 288.945702 
L 216.965283 253.923718 
L 219.711879 252.33797 
L 228.646568 260.384363 
L 231.590525 258.428135 
L 235.383221 257.621156 
L 238.236966 255.454479 
L 247.442463 260.876221 
L 250.392593 258.328766 
L 247.430218 249.548177 
L 250.024174 247.006708 
L 245.203236 237.57412 
L 247.421803 235.108592 
L 275.783333 254.020811 
L 278.503901 250.585647 
L 281.740517 247.515635 
L 284.253602 243.89638 
L 291.87074 243.470284 
L 294.251622 239.534513 
L 266.728773 219.378469 
L 268.364587 216.245128 
L 300.635912 227.305638 
L 302.504209 223.102263 
L 247.55811 196.787241 
L 248.493084 194.267838 
L 292.631576 205.498475 
L 293.818164 201.557556 
L 273.968707 192.346482 
L 274.750996 188.998867 
L 266.34226 183.95256 
L 266.864396 180.848887 
L 251.236384 175.802897 
L 251.509746 173.178216 
L 319.3419 174.379195 
L 319.536824 169.613831 
L 257.222289 165.236908 
L 257.160473 162.42924 
L 261.618674 159.305576 
L 261.368191 156.362609 
L 258.735757 153.733144 
L 258.311489 150.883578 
L 265.350822 146.557178 
L 264.697656 143.503168 
L 264.693218 140.274868 
L 263.842848 137.24464 
L 276.048744 129.873363 
L 274.865713 126.491235 
L 267.151676 125.741596 
L 265.843132 122.641254 
L 238.050863 132.217908 
L 236.960336 130.029358 
L 270.751844 108.351765 
L 268.894746 105.146824 
L 281.176038 92.828472 
L 278.825699 89.303448 
L 232.366621 118.288704 
L 230.840941 116.285766 
L 273.485552 77.216302 
L 270.648135 73.940802 
L 239.834314 97.304309 
L 237.645146 95.076946 
L 255.784856 70.886305 
L 252.757161 68.170484 
L 263.266953 48.843303 
L 259.542479 45.903126 
L 221.67858 90.665686 
L 219.289656 89.012461 
L 241.316255 48.253451 
L 237.584088 46.003744 
L 236.344476 39.130927 
L 232.327934 37.042054 
L 220.182136 52.556184 
L 216.595706 50.968852 
L 196.834327 91.134605 
L 194.47243 90.262306 
L 201.844019 58.637551 
L 198.457867 57.623803 
L 195.041515 56.717025 
L 191.59834 55.918113 
L 189.654756 46.897185 
L 185.905487 46.272499 
L 185.127589 20.536228 
L 180.551713 20.06692 
L 174.01535 55.102858 
L 170.531818 54.965853 
L 166.827805 27.223407 
L 162.471236 27.326178 
L 157.194759 14.510566 
L 152.443233 14.922507 
L 149.245863 26.928943 
L 144.888728 27.584675 
L 149.575108 73.680876 
L 146.687794 74.30314 
L 144.216486 76.504121 
L 141.42059 77.293476 
L 137.919237 75.979643 
L 135.109964 76.967256 
L 111.503385 26.673412 
L 107.156877 28.515976 
L 122.884862 72.126386 
L 119.961868 73.588619 
L 128.38207 95.287936 
L 126.184608 96.565872 
L 106.472865 70.757739 
L 103.514952 72.736677 
L 118.017113 98.329112 
L 115.920397 99.931441 
L 104.4549 90.408132 
L 102.115837 92.440803 
L 100.90552 95.659336 
L 98.73332 97.801012 
L 64.380313 70.248386 
L 61.427197 73.551058 
L 58.579384 76.94495 
L 55.83969 80.426705 
L 84.551388 106.344169 
L 82.723229 108.994771 
L 42.412846 87.703604 
L 40.019422 91.68835 
L 33.006877 93.192395 
L 30.790683 97.470172 
L 69.982572 120.785374 
L 68.61568 123.886912 
L 79.55909 131.737522 
L 78.531822 134.532538 
L 90.076795 141.289221 
L 89.344653 143.748815 
L 56.550923 138.292094 
L 55.741121 141.807296 
L 16.407164 138.345746 
L 15.618897 143.123129 
L 54.744605 152.570608 
L 54.384644 156.135545 
L 62.593597 160.162565 
L 62.468462 163.47696 
L 65.527009 166.764597 
L 65.608006 169.983494 
L 17.414173 176.703353 
L 17.831456 181.430109 
L 19.922867 185.933828 
L 20.629135 190.577141 
L 44.125829 190.649969 
L 44.968416 194.529956 
L 65.271621 193.215945 
L 66.184433 196.429794 
L 69.387398 198.878249 
L 70.47621 201.959889 
L 57.401244 210.814241 
L 58.871277 214.266851 
L 54.209054 220.683509 
L 55.990977 224.231608 
L 37.755461 239.049364 
L 40.122981 243.105719 
L 65.868495 232.001438 
L 68.000513 235.177343 
L 57.247759 247.918863 
L 59.884518 251.357953 
L 68.510183 249.745184 
L 71.198797 252.829255 
L 109.555779 221.733569 
L 111.343353 223.540926 
L 80.348621 260.986738 
L 83.384841 263.693025 
L 87.958449 264.507796 
L 91.101616 266.973073 
L 99.227179 262.435655 
L 102.299622 264.547642 
L 110.711266 258.055981 
L 113.640324 259.809049 
L 96.978456 298.108942 
L 101.173658 300.273996 
L 120.494725 269.404272 
L 123.775762 270.844115 
L 116.068871 300.931837 
L 120.343391 302.495251 
L 138.698956 259.106372 
L 141.647203 259.978926 
L 135.633262 297.396365 
L 139.786946 298.346379 
L 146.962052 282.494483 
L 150.641587 283.095663 
L 158.835173 244.575042 
L 161.316568 244.821654 
L 162.167357 276.512964 
L 165.651303 276.639014 
L 169.264593 288.203049 
L 173.112591 288.100167 
L 173.715354 244.112624 
L 176.174852 243.8916 
L 178.836163 245.11874 
L 181.324763 244.736208 
L 187.770811 263.894874 
L 190.845357 263.222134 
L 197.094762 274.34899 
L 200.493398 273.377916 
L 209.275819 288.348687 
L 213.108614 286.987692 
L 209.31657 266.98058 
L 212.477484 265.628868 
L 228.352982 290.505439 
L 232.244157 288.54355 
L 217.51857 253.613491 
L 220.255138 252.0105 
L 229.240258 260.000539 
L 232.171853 258.025835 
L 235.959398 257.195017 
L 238.79946 255.010435 
L 248.038875 260.374173 
L 250.972924 257.808213 
L 247.955382 249.046429 
L 250.533303 246.488696 
L 245.653135 237.086615 
L 247.856151 234.607183 
L 276.336067 253.34065 
L 279.034976 249.888443 
L 282.252219 246.798135 
L 284.742492 243.163146 
L 292.3568 242.689151 
L 294.712881 238.738483 
L 267.063806 218.755941 
L 268.67988 215.612373 
L 301.020132 226.469697 
L 302.861954 222.254654 
L 247.751436 196.285733 
L 248.670546 193.760499 
L 292.878799 204.713308 
L 294.040578 200.765003 
L 274.133581 191.678953 
L 274.8948 188.326484 
L 266.454491 183.333163 
L 266.957097 180.226268 
L 251.297658 175.27867 
L 251.554506 172.652321 
L 319.392872 173.42665 
L 319.557821 168.660154 
L 257.21699 164.675241 
L 257.137517 161.868018 
L 261.575983 158.716376 
L 261.306995 155.775043 
L 258.658076 153.162186 
L 258.215894 150.315345 
L 265.227878 145.944757 
L 264.555516 142.894915 
L 264.530774 139.666707 
L 263.661362 136.641887 
L 275.820656 129.193988 
L 274.616376 125.819368 
L 266.897778 125.11826 
L 265.56976 122.02621 
L 237.838272 131.777472 
L 236.734002 129.595823 
L 270.388502 107.70613 
L 268.511283 104.512933 
L 280.714858 92.117582 
L 278.342395 88.607409 
L 232.066536 117.884294 
L 230.528289 115.890991 
L 272.926332 76.554089 
L 270.068369 73.2965 
L 239.402101 96.853347 
L 237.198967 94.639796 
L 255.186173 70.335545 
L 252.141458 67.63882 
L 262.529485 48.245921 
L 258.786592 45.329227 
L 221.204973 90.329044 
L 218.805698 88.690876 
L 240.575511 47.794138 
L 236.829268 45.567949 
L 235.546454 38.703064 
L 231.516854 36.639494 
L 219.468872 52.229707 
L 215.872529 50.664964 
L 196.364161 90.95421 
L 193.996824 90.096783 
L 201.169366 58.426291 
L 197.776905 57.43386 
L 194.354917 56.548587 
L 190.906786 55.771346 
L 188.906503 46.76282 
L 185.15338 46.161727 
L 184.213631 20.430858 
L 179.634893 19.990339 
L 173.319016 55.066694 
L 169.834691 54.951601 
L 165.956267 27.233 
L 161.600431 27.363169 
L 156.243455 14.580997 
L 151.494614 15.022814 
L 148.37282 27.049122 
L 144.019896 27.732245 
L 148.996103 73.79806 
L 146.112759 74.438471 
L 143.655343 76.654952 
L 140.864467 77.461875 
L 137.35492 76.17009 
L 134.551914 77.175353 
L 110.629483 27.030976 
L 106.294649 28.90084 
L 122.296608 72.411468 
L 119.382868 73.892055 
L 127.93938 95.537985 
L 125.749999 96.829716 
L 105.876327 71.146069 
L 102.930919 73.143572 
L 117.593756 98.64429 
L 115.507158 100.259775 
L 103.981992 90.808765 
L 101.655759 92.856108 
L 100.465709 96.08219 
L 98.307022 98.237485 
L 63.781404 70.901465 
L 60.849118 74.222645 
L 58.022707 77.634381 
L 55.304966 81.133298 
L 84.179102 106.869669 
L 82.36765 109.531717 
L 41.924155 88.4945 
L 39.55584 92.494221 
L 32.552894 94.042341 
L 30.363648 98.333972 
L 69.701402 121.402218 
L 68.354043 124.512292 
L 79.346613 132.293919 
L 78.336944 135.095341 
L 89.924185 141.779278 
L 89.207527 144.243428 
L 56.380125 138.993069 
L 55.592448 142.513295 
L 16.237498 139.299202 
L 15.479294 144.081448 
L 54.663647 153.282661 
L 54.326114 156.849792 
L 62.560232 160.825103 
L 62.455946 164.140219 
L 65.535109 167.408555 
L 65.636351 170.626878 
L 17.485735 177.649716 
L 17.932738 182.373754 
L 20.052433 186.86423 
L 20.787891 191.50301 
L 44.284578 191.428056 
L 45.151552 195.302667 
L 65.44609 193.860986 
L 66.379098 197.06903 
L 69.597399 199.497292 
L 70.705572 202.572023 
L 57.686553 211.508434 
L 59.178271 214.95173 
L 54.556498 221.397584 
L 56.360701 224.934405 
L 38.218741 239.866559 
L 40.611727 243.907944 
L 66.286891 232.641957 
L 68.438842 235.80439 
L 57.766437 248.613288 
L 60.424774 252.035726 
L 69.040126 250.368737 
L 71.748084 253.435838 
L 109.908733 222.099523 
L 111.707638 223.895602 
L 80.949033 261.535613 
L 84.002214 264.22275 
L 88.580855 265.00874 
L 91.739466 267.454199 
L 99.83633 262.865765 
L 102.921996 264.958387 
L 111.292644 258.41395 
L 114.23267 260.148561 
L 97.812017 298.55249 
L 102.020752 300.691116 
L 121.147284 269.700484 
L 124.437312 271.119663 
L 116.919808 301.255262 
L 121.204076 302.791761 
L 139.286386 259.288293 
L 142.240063 260.142287 
L 136.461576 297.59681 
L 140.621153 298.520682 
L 147.696418 282.623971 
L 151.379661 283.201998 
L 159.330812 244.630605 
L 161.813709 244.861606 
L 162.863802 276.546938 
L 166.348471 276.651074 
L 170.034421 288.192154 
L 173.881696 288.065072 
L 174.20779 244.074609 
L 176.665849 243.83812 
L 179.334825 245.048497 
L 181.820971 244.650321 
L 188.387388 263.768066 
L 191.457642 263.076003 
L 197.776905 274.163333 
L 201.169366 273.170903 
L 210.045772 288.086142 
L 213.869931 286.701067 
L 209.952128 266.718201 
L 213.104478 265.346635 
L 229.136122 290.122867 
L 233.014881 288.136543 
L 218.069895 253.29979 
L 220.796327 251.679619 
L 229.831521 259.612989 
L 232.750639 257.619886 
L 236.532884 256.765263 
L 239.35915 254.562862 
L 248.632117 259.868383 
L 251.549969 257.284021 
L 248.477381 248.541388 
L 251.039164 245.967492 
L 246.099958 236.596291 
L 248.287337 234.103052 
L 276.884513 252.657026 
L 279.561656 249.187912 
L 282.759399 246.077431 
L 285.22676 242.426851 
L 292.837937 241.904976 
L 295.169124 237.939568 
L 267.394917 218.131318 
L 268.991187 214.977649 
L 301.399086 225.631355 
L 303.214362 221.404812 
L 247.941603 195.783018 
L 248.844813 193.252053 
L 293.121079 203.926601 
L 294.258002 199.971068 
L 274.294253 191.010401 
L 275.034372 187.653211 
L 266.562825 182.713073 
L 267.04588 179.603078 
L 251.355633 174.754067 
L 251.595958 172.126155 
L 319.437852 172.473804 
L 319.572819 167.706365 
L 257.208158 164.113618 
L 257.111031 161.306951 
L 261.529588 158.127456 
L 261.242106 155.187873 
L 258.576805 152.591728 
L 258.116727 149.747724 
L 265.101084 145.333121 
L 264.409554 142.287568 
L 264.364509 139.059579 
L 263.476089 136.040288 
L 275.588299 128.516061 
L 274.362819 125.149082 
L 266.639964 124.496533 
L 265.292525 121.412897 
L 237.622916 131.338381 
L 236.504946 129.163721 
L 270.021107 107.062793 
L 268.123841 103.881466 
L 280.249215 91.409607 
L 277.854722 87.914425 
L 231.763914 117.481779 
L 230.21316 115.49819 
L 272.362957 75.895407 
L 269.484563 72.655857 
L 238.967061 96.405111 
L 236.750049 94.205461 
L 254.584039 69.788562 
L 251.522422 67.111039 
L 261.788274 47.653189 
L 258.027111 44.760094 
L 220.729259 89.995387 
L 218.319728 88.372342 
L 239.831893 47.339493 
L 236.071722 45.136909 
L 234.745758 38.280228 
L 230.703259 36.242043 
L 218.753568 51.907723 
L 215.147455 50.36563 
L 195.892869 90.776776 
L 193.520187 89.934255 
L 200.493398 58.219277 
L 197.094762 57.248203 
L 193.667273 56.38447 
L 190.214322 55.628931 
L 188.157421 46.633164 
L 184.400591 46.055688 
L 183.299028 20.331238 
L 178.71761 19.919525 
L 172.622468 55.03491 
L 169.137489 54.941734 
L 165.084807 27.248074 
L 160.729876 27.405637 
L 155.292613 14.657409 
L 150.546645 15.129085 
L 147.500551 27.17479 
L 143.15201 27.885277 
L 148.417846 73.918883 
L 145.538587 74.577416 
L 143.09516 76.809309 
L 140.309415 77.63377 
L 136.791812 76.364083 
L 133.995184 77.386955 
L 109.757846 27.394028 
L 105.434859 29.291119 
L 121.710158 72.700243 
L 118.805788 74.199127 
L 127.498271 95.790813 
L 125.317058 97.096289 
L 105.282243 71.538144 
L 102.349457 73.554132 
L 117.172388 98.962125 
L 115.095993 100.590701 
L 103.511613 91.212365 
L 101.198303 93.274298 
L 100.028566 96.507801 
L 97.883478 98.67663 
L 63.186615 71.558298 
L 60.275275 74.897854 
L 57.470378 78.327299 
L 54.774697 81.84324 
L 83.810129 107.3975 
L 82.015455 110.070888 
L 41.440448 89.288454 
L 39.097336 93.302992 
L 32.104265 94.895125 
L 29.942054 99.200441 
L 69.424116 122.020819 
L 68.096345 125.139305 
L 79.137639 132.851641 
L 78.14561 135.659358 
L 89.774659 142.270286 
L 89.073514 144.738894 
L 56.21374 139.695105 
L 55.448218 143.220216 
L 16.073832 140.253706 
L 15.34572 145.040626 
L 54.587169 153.99521 
L 54.272078 157.564393 
L 62.531036 161.487838 
L 62.447602 164.803544 
L 65.54726 168.052449 
L 65.668741 171.270072 
L 17.563247 178.595611 
L 18.039952 183.316744 
L 20.187849 187.7938 
L 20.952468 192.427862 
L 44.448218 192.205128 
L 45.339544 196.07421 
L 65.624614 194.504917 
L 66.57778 197.707029 
L 69.811289 200.115002 
L 70.938778 203.182702 
L 57.976222 212.200819 
L 59.489567 215.634664 
L 54.908427 222.109459 
L 56.734838 225.634863 
L 38.687152 240.680824 
L 41.105508 244.707079 
L 66.709308 233.279833 
L 68.881106 236.428669 
L 58.289474 249.304436 
L 60.969283 252.710087 
L 69.573979 250.988946 
L 72.301174 254.038955 
L 110.263981 222.46325 
L 112.074147 224.24798 
L 81.552884 262.080701 
L 84.622906 264.748582 
L 89.2064 265.505759 
L 92.380328 267.931303 
L 100.448174 263.292036 
L 103.54694 265.365209 
L 111.876262 258.768255 
L 114.82714 260.484341 
L 98.64835 298.990787 
L 102.870453 301.1029 
L 121.801693 269.992585 
L 125.100582 271.391044 
L 117.772762 301.573328 
L 122.06661 303.082851 
L 139.87495 259.466516 
L 142.83394 260.301916 
L 137.291134 297.792042 
L 141.45644 298.689734 
L 148.431583 282.748838 
L 152.118389 283.303688 
L 159.826791 244.68305 
L 162.311091 244.89843 
L 163.560446 276.576532 
L 167.045701 276.658748 
L 170.804165 288.176418 
L 174.650565 288.025141 
L 174.699978 244.033497 
L 177.156501 243.781552 
L 179.833037 244.97512 
L 182.316628 244.561315 
L 189.003156 263.637383 
L 192.068996 262.926023 
L 198.457867 273.97339 
L 201.844019 272.959642 
L 210.814058 287.818759 
L 214.62943 286.40966 
L 210.586024 266.451829 
L 213.729685 265.060465 
L 229.91684 289.735376 
L 233.78303 287.724696 
L 218.619236 252.982628 
L 221.335424 251.345341 
L 230.420336 259.221728 
L 233.326861 257.210304 
L 237.103656 256.331911 
L 239.916014 254.111777 
L 249.222166 259.358871 
L 252.123707 256.756209 
L 248.996193 248.033074 
L 251.541737 245.443117 
L 246.543689 236.103166 
L 248.715344 233.596219 
L 277.428648 251.969966 
L 280.083919 248.484083 
L 283.262036 245.353552 
L 285.706389 241.687526 
L 293.314132 241.117791 
L 295.620333 237.137799 
L 267.722092 217.504625 
L 269.298497 214.340978 
L 301.77276 224.790647 
L 303.561417 220.55277 
L 248.128606 195.279118 
L 249.015879 192.742522 
L 293.358406 203.138386 
L 294.470429 199.17578 
L 274.450717 190.340852 
L 275.169706 186.979073 
L 266.667256 182.092314 
L 267.130741 178.979343 
L 251.410307 174.22911 
L 251.6341 171.599738 
L 319.476838 171.520693 
L 319.581818 166.752499 
L 257.195795 163.552063 
L 257.081017 160.746062 
L 261.479489 157.538839 
L 261.173525 154.601122 
L 258.491948 152.021792 
L 258.013993 149.180738 
L 264.970445 144.722295 
L 264.259774 141.681151 
L 264.194428 138.45351 
L 263.287036 135.439866 
L 275.351684 127.839608 
L 274.105052 124.480403 
L 266.378245 123.87644 
L 265.011438 120.80134 
L 237.404802 130.900654 
L 236.273177 128.733068 
L 269.649672 106.421779 
L 267.732436 103.252448 
L 279.779128 90.704574 
L 277.3627 87.224521 
L 231.458766 117.081175 
L 229.895566 115.107379 
L 271.795452 75.240281 
L 268.896739 72.018899 
L 238.52921 95.959621 
L 236.298407 93.773958 
L 253.978476 69.245376 
L 250.90008 66.587162 
L 261.04335 47.06513 
L 257.264065 44.195748 
L 220.251455 89.664729 
L 217.831764 88.056871 
L 239.08543 46.889534 
L 235.311481 44.710643 
L 233.942418 37.862437 
L 229.88718 35.849717 
L 218.036254 51.590244 
L 214.420513 50.070862 
L 195.420471 90.602309 
L 193.042537 89.774727 
L 199.81614 58.01652 
L 196.411464 57.06684 
L 192.978611 56.224681 
L 189.520976 55.490874 
L 187.407537 46.508222 
L 183.64715 45.954386 
L 182.383816 20.237373 
L 177.7999 19.854483 
L 171.925734 55.007508 
L 168.440238 54.936252 
L 164.213459 27.268629 
L 159.859605 27.453579 
L 154.34227 14.739801 
L 149.599362 15.241317 
L 146.62909 27.305942 
L 142.285103 28.043764 
L 147.84036 74.043341 
L 144.9653 74.71997 
L 142.535959 76.967186 
L 139.755454 77.809151 
L 136.229935 76.561613 
L 133.439796 77.602054 
L 108.88851 27.762555 
L 104.57754 29.686798 
L 121.125536 72.992701 
L 118.230651 74.509822 
L 127.058762 96.04641 
L 124.885802 97.365579 
L 104.690637 71.933947 
L 101.770588 73.968341 
L 116.753028 99.282603 
L 114.686917 100.924207 
L 103.043782 91.618915 
L 100.743486 93.695357 
L 99.594109 96.936153 
L 97.462704 99.118431 
L 62.595968 72.218858 
L 59.70569 75.57666 
L 56.922417 79.023677 
L 54.248903 82.556503 
L 83.444482 107.927642 
L 81.666658 110.612264 
L 40.961745 90.085435 
L 38.643927 94.11463 
L 31.661008 95.750715 
L 29.525918 100.069544 
L 69.150727 122.641151 
L 67.842595 125.767926 
L 78.932177 133.410666 
L 77.957827 136.224567 
L 89.628225 142.762224 
L 88.94262 145.235193 
L 56.051773 140.398173 
L 55.308437 143.928029 
L 15.916172 141.20922 
L 15.218182 146.000626 
L 54.515174 154.708226 
L 54.222537 158.27932 
L 62.506008 162.150743 
L 62.44343 165.466908 
L 65.56346 168.696253 
L 65.705176 171.913049 
L 17.646707 179.541 
L 18.153096 184.259041 
L 20.329108 188.722499 
L 21.122857 193.351661 
L 44.616743 192.981156 
L 45.532385 196.844556 
L 65.807183 195.147712 
L 66.78047 198.343766 
L 70.02906 200.731354 
L 71.175821 203.791903 
L 58.27024 212.891368 
L 59.805153 216.315627 
L 55.264825 222.819107 
L 57.113373 226.332955 
L 39.160675 241.492128 
L 41.604306 245.503093 
L 67.135729 233.915039 
L 69.327288 237.050153 
L 58.816846 249.992281 
L 61.518023 253.381011 
L 70.111724 251.605785 
L 72.858047 254.63858 
L 110.62151 222.824736 
L 112.442865 224.598046 
L 82.160152 262.621979 
L 85.246892 265.270499 
L 89.835058 265.998833 
L 93.024179 268.404368 
L 101.062687 263.71445 
L 104.174431 265.768093 
L 112.462097 259.118882 
L 115.42371 260.816375 
L 99.487423 299.423815 
L 103.722727 301.509332 
L 122.457927 270.280565 
L 125.765545 271.658248 
L 118.6277 301.886023 
L 122.930957 303.36851 
L 140.464623 259.641034 
L 143.428808 260.457807 
L 138.121904 297.982052 
L 142.292773 298.853529 
L 149.167519 282.869079 
L 152.857742 283.40073 
L 160.323089 244.732374 
L 162.808695 244.932125 
L 164.257263 276.601743 
L 167.742966 276.662037 
L 171.573795 288.155841 
L 175.419167 287.980375 
L 175.191897 243.98929 
L 177.646786 243.721901 
L 180.330776 244.89861 
L 182.811717 244.469194 
L 189.618089 263.50283 
L 192.679395 262.772201 
L 199.137621 273.779167 
L 202.517331 272.744143 
L 211.580647 287.546549 
L 215.387081 286.113481 
L 211.218232 266.181476 
L 214.35308 264.770367 
L 230.695106 289.342982 
L 234.548573 287.308026 
L 219.166571 252.662017 
L 221.872408 251.00768 
L 231.006679 258.826772 
L 233.900495 256.797107 
L 237.671691 255.894977 
L 240.47003 253.657199 
L 249.808999 258.845659 
L 252.694113 256.224799 
L 249.511797 247.521507 
L 252.041002 244.915591 
L 246.98431 235.60726 
L 249.140155 233.086704 
L 277.968451 251.279497 
L 280.601746 247.776983 
L 283.76011 244.626525 
L 286.181357 240.945198 
L 293.785367 240.327626 
L 296.06649 236.333209 
L 268.04532 216.875887 
L 269.601796 213.702388 
L 302.141139 223.947605 
L 303.903107 219.698563 
L 248.312435 194.774051 
L 249.183737 192.231925 
L 293.590771 202.348694 
L 294.677849 198.379173 
L 274.602967 189.670331 
L 275.300798 186.304097 
L 266.767781 181.47091 
L 267.211679 178.355085 
L 251.461679 173.703819 
L 251.66893 171.073092 
L 319.509829 170.567356 
L 257.224055 165.798597 
z
" clip-path="url(#p4a7a2ff0f9)" style="fill: #0000ff; opacity: 0.5; stroke: #000000; stroke-width: 1.5; stroke-linejoin: miter"/>
   </g>
  </g>
 </g>
 <defs>
  <clipPath id="p4a7a2ff0f9">
   <rect x="0" y="0" width="334.8" height="317.81463"/>
  </clipPath>
 </defs>
</svg>
