<?xml version="1.0" encoding="utf-8" standalone="no"?>
<!DOCTYPE svg PUBLIC "-//W3C//DTD SVG 1.1//EN"
  "http://www.w3.org/Graphics/SVG/1.1/DTD/svg11.dtd">
<svg xmlns:xlink="http://www.w3.org/1999/xlink" width="334.8pt" height="328.153656pt" viewBox="0 0 334.8 328.153656" xmlns="http://www.w3.org/2000/svg" version="1.1">
 <metadata>
  <rdf:RDF xmlns:dc="http://purl.org/dc/elements/1.1/" xmlns:cc="http://creativecommons.org/ns#" xmlns:rdf="http://www.w3.org/1999/02/22-rdf-syntax-ns#">
   <cc:Work>
    <dc:type rdf:resource="http://purl.org/dc/dcmitype/StillImage"/>
    <dc:date>2023-12-09T18:06:23.349352</dc:date>
    <dc:format>image/svg+xml</dc:format>
    <dc:creator>
     <cc:Agent>
      <dc:title>Matplotlib v3.8.2, https://matplotlib.org/</dc:title>
     </cc:Agent>
    </dc:creator>
   </cc:Work>
  </rdf:RDF>
 </metadata>
 <defs>
  <style type="text/css">*{stroke-linejoin: round; stroke-linecap: butt}</style>
 </defs>
 <g id="figure_1">
  <g id="patch_1">
   <path d="M 0 328.153656 
L 334.8 328.153656 
L 334.8 0 
L 0 0 
L 0 328.153656 
z
" style="fill: none"/>
  </g>
  <g id="axes_1">
   <g id="patch_2">
    <path d="M 243.998979 159.584565 
L 243.95991 157.100047 
L 284.445133 152.060937 
L 284.149507 148.308424 
L 289.945485 143.781833 
L 289.386826 139.86047 
L 268.724754 139.773983 
L 268.050572 136.521829 
L 243.026986 139.524677 
L 242.357671 137.08064 
L 269.883633 125.462963 
L 268.758908 122.181447 
L 254.439924 124.125978 
L 253.280797 121.330706 
L 248.495576 120.240388 
L 247.217216 117.633941 
L 270.531916 101.48795 
L 268.653043 98.197904 
L 253.464998 103.360249 
L 251.653433 100.605899 
L 285.81749 71.675111 
L 282.993679 67.919193 
L 266.19624 75.733526 
L 263.509736 72.592536 
L 265.855018 64.713623 
L 262.822193 61.588811 
L 261.297907 56.848638 
L 258.020043 53.871 
L 231.236402 79.351083 
L 228.680926 77.307519 
L 217.336452 87.379493 
L 215.04028 85.769005 
L 222.739702 68.367708 
L 219.843086 66.596729 
L 207.111732 82.753488 
L 204.675164 81.466774 
L 226.125804 29.261213 
L 221.997921 27.403103 
L 206.328166 54.786324 
L 203.012636 53.538075 
L 197.732881 58.349684 
L 194.533641 57.369927 
L 193.240822 48.910856 
L 189.747025 48.077006 
L 185.064446 53.503074 
L 181.719081 52.924037 
L 178.163298 54.00314 
L 174.837069 53.640844 
L 173.370997 22.928538 
L 169.070083 22.732286 
L 164.779888 32.059695 
L 160.770325 32.129052 
L 158.428183 58.088762 
L 155.240172 58.344961 
L 151.962419 57.925246 
L 148.772464 58.384823 
L 141.751753 38.970102 
L 137.970855 39.760097 
L 127.554454 14.916075 
L 123.024264 16.164357 
L 118.77873 18.298074 
L 114.359216 19.820612 
L 122.145587 52.009434 
L 118.784367 53.409443 
L 123.163196 71.180746 
L 120.404262 72.53928 
L 98.39468 39.058813 
L 94.638008 41.212006 
L 100.625206 58.654713 
L 97.483569 60.728084 
L 105.478752 78.06554 
L 102.945034 79.976707 
L 103.473021 85.576734 
L 101.176464 87.547252 
L 106.996341 98.125049 
L 105.092588 99.978582 
L 54.662412 56.48413 
L 51.475253 60.003745 
L 55.648835 69.588426 
L 52.873216 73.070547 
L 89.522603 105.050778 
L 87.84525 107.4503 
L 45.883583 84.433521 
L 43.579554 88.215343 
L 83.277099 114.948441 
L 81.914038 117.539441 
L 64.330701 112.554467 
L 62.901736 115.742367 
L 81.963763 126.981412 
L 80.979695 129.607757 
L 33.159322 117.165397 
L 31.890747 121.331114 
L 17.103613 122.071956 
L 15.997248 126.740073 
L 77.321889 143.13121 
L 76.8479 145.895521 
L 87.331858 150.01334 
L 87.069309 152.459513 
L 85.321872 154.819294 
L 85.211427 157.326289 
L 86.744578 159.830596 
L 86.790996 162.290381 
L 23.681537 168.929458 
L 24.045223 173.367584 
L 32.306955 176.78614 
L 32.913407 180.949179 
L 59.762843 180.019618 
L 60.457388 183.317785 
L 43.841587 191.126659 
L 44.893234 194.919934 
L 23.023504 206.252672 
L 24.561039 210.693034 
L 76.359237 195.033735 
L 77.517653 197.802652 
L 73.108928 203.218971 
L 74.526313 206.086037 
L 60.296322 217.633418 
L 62.173264 220.896214 
L 93.807319 205.12373 
L 95.27436 207.339052 
L 71.562155 227.996998 
L 73.75938 230.900448 
L 67.03327 241.248458 
L 69.64939 244.287754 
L 60.427059 258.536745 
L 63.590027 261.775207 
L 88.185244 242.015214 
L 90.815014 244.389066 
L 83.592805 258.775516 
L 86.751827 261.285478 
L 79.013736 278.930527 
L 82.808739 281.574499 
L 107.508244 250.982608 
L 110.410415 252.744469 
L 91.299753 294.957316 
L 95.592599 297.207065 
L 118.768788 258.889451 
L 121.914 260.293346 
L 128.804811 252.125011 
L 131.732372 253.216696 
L 119.668255 301.158843 
L 124.142065 302.513558 
L 139.744681 259.725581 
L 142.905811 260.469535 
L 136.642953 311.87831 
L 141.445412 312.694003 
L 149.956302 283.069528 
L 153.846368 283.480865 
L 157.06509 295.485263 
L 161.342019 295.666944 
L 165.474927 264.419923 
L 168.770936 264.352541 
L 172.221766 266.523282 
L 175.580574 266.242724 
L 176.281739 245.688263 
L 178.98344 245.290352 
L 180.017242 236.362156 
L 182.423864 235.851403 
L 186.003205 239.806075 
L 188.515151 239.105408 
L 211.13515 299.239375 
L 215.503383 297.719119 
L 213.695771 280.817419 
L 217.483512 279.22576 
L 223.239894 281.752843 
L 227.052328 279.860634 
L 230.422901 277.165876 
L 234.087558 275.050085 
L 240.220047 276.770193 
L 243.867419 274.346554 
L 248.36326 273.070385 
L 251.890276 270.392535 
L 257.841099 270.605683 
L 261.285933 267.631047 
L 224.234806 221.996189 
L 226.167867 220.102243 
L 237.212789 226.666837 
L 239.286289 224.362525 
L 260.665589 237.844212 
L 263.078935 234.796967 
L 257.768829 226.200098 
L 259.81749 223.24969 
L 274.368586 228.129364 
L 276.4697 224.656069 
L 233.75626 196.877815 
L 234.894837 194.696913 
L 235.964279 192.481289 
L 236.963527 190.233136 
L 252.473834 193.628697 
L 253.500996 190.86088 
L 279.042186 195.893466 
L 280.127422 192.289162 
L 250.741045 181.053052 
L 251.373659 178.345935 
L 257.306533 176.613628 
L 257.796316 173.702272 
L 318.78336 178.052011 
L 319.287973 173.206979 
L 304.017816 167.463232 
L 304.196795 163.087696 
L 243.997416 159.087582 
L 243.942721 156.60336 
L 284.395451 151.309721 
L 284.07623 147.559141 
L 289.843623 142.996186 
L 289.260312 139.078415 
L 268.598105 139.121882 
L 267.903482 135.874032 
L 242.899277 139.034205 
L 242.214604 136.594426 
L 269.666953 124.803856 
L 268.521611 121.529478 
L 254.21514 123.564029 
L 253.038456 120.776103 
L 248.246471 119.715903 
L 246.951744 117.117548 
L 270.164433 100.82524 
L 268.264906 97.547076 
L 253.109629 102.804843 
L 251.280776 100.061941 
L 285.2622 70.916853 
L 282.414822 67.17877 
L 265.666863 75.098594 
L 262.960657 71.974563 
L 265.256338 64.081056 
L 262.20392 60.97538 
L 260.649852 56.244887 
L 257.353324 53.287924 
L 230.730468 78.935957 
L 228.16219 76.908506 
L 216.881288 87.051632 
L 214.575032 85.455616 
L 222.164857 68.006239 
L 219.25716 66.253513 
L 206.627675 82.490025 
L 204.183062 81.218661 
L 225.304935 28.879221 
L 221.165446 27.04711 
L 205.668226 54.528343 
L 202.344911 53.300971 
L 197.095523 58.145691 
L 193.890184 57.186076 
L 192.544188 48.735303 
L 189.045216 47.923444 
L 184.396856 53.378854 
L 181.047916 52.82087 
L 177.49899 53.922316 
L 174.170548 53.580946 
L 172.511342 22.878469 
L 168.209279 22.709271 
L 163.977832 32.063479 
L 159.968786 32.158052 
L 157.789961 58.13198 
L 154.603625 58.408224 
L 151.323297 58.009132 
L 148.136295 58.488763 
L 140.993615 39.118583 
L 137.217761 39.932342 
L 126.645312 15.154325 
L 122.123062 16.431074 
L 117.891032 18.591451 
L 113.481181 20.141755 
L 121.469847 52.280968 
L 118.1175 53.70209 
L 122.608013 71.445501 
L 119.857678 72.82136 
L 97.637959 39.479984 
L 93.894903 41.656761 
L 99.991687 59.061467 
L 96.863153 61.154556 
L 104.96722 78.441384 
L 102.445573 80.368449 
L 103.00877 85.965044 
L 100.724652 87.949967 
L 106.610943 98.490951 
L 104.718885 100.356421 
L 54.01615 57.180007 
L 50.851191 60.719598 
L 55.084973 70.27784 
L 52.331309 73.777348 
L 89.181109 105.526444 
L 87.51888 107.936467 
L 45.413281 85.184059 
L 43.133083 88.980297 
L 82.997979 115.463191 
L 81.651241 118.062713 
L 64.036899 113.188426 
L 62.628012 116.385251 
L 81.76035 127.504185 
L 80.792819 130.136667 
L 32.895137 117.995316 
L 31.652787 122.168929 
L 16.870604 123.002759 
L 15.793622 127.677743 
L 77.22014 143.682858 
L 76.763547 146.450096 
L 87.273196 150.501895 
L 87.026038 152.94967 
L 85.293476 155.320396 
L 85.198801 157.828035 
L 86.747673 160.322651 
L 86.80956 162.782094 
L 23.743106 169.817963 
L 24.134698 174.253713 
L 32.417767 177.62024 
L 33.050391 181.779383 
L 59.893449 180.680973 
L 60.608724 183.974706 
L 44.042365 191.88793 
L 45.117848 195.674515 
L 23.319828 207.144577 
L 24.88526 211.575181 
L 76.583945 195.590411 
L 77.759753 198.351987 
L 73.385181 203.795927 
L 74.82057 206.654022 
L 60.663487 218.290674 
L 62.560913 221.5416 
L 94.095142 205.570467 
L 95.576087 207.776519 
L 71.994278 228.583193 
L 74.209721 231.472766 
L 67.548827 241.862875 
L 70.18401 244.885656 
L 61.05148 259.192369 
L 64.234753 262.410874 
L 88.705205 242.496582 
L 91.349853 244.853847 
L 84.21827 259.285436 
L 87.393015 261.77548 
L 79.766055 279.468848 
L 83.577612 282.088899 
L 108.084223 251.342267 
L 110.997417 253.08584 
L 92.152629 295.418048 
L 96.459539 297.640753 
L 119.394274 259.178131 
L 122.548253 260.562217 
L 129.387554 252.350704 
L 132.321922 253.423955 
L 120.559574 301.44103 
L 125.041815 302.767581 
L 140.37501 259.882319 
L 143.540757 260.606376 
L 137.601354 312.053524 
L 142.40885 312.838996 
L 150.73325 283.161579 
L 154.625826 283.548441 
L 157.919985 295.532358 
L 162.197972 295.687136 
L 166.134272 264.41474 
L 169.429792 264.326628 
L 172.894207 266.475623 
L 176.251183 266.173945 
L 176.823059 245.615481 
L 179.522204 245.200586 
L 180.499833 236.266064 
L 182.903194 235.740185 
L 186.507337 239.672266 
L 189.014827 238.955815 
L 212.012587 298.946325 
L 216.371172 297.398626 
L 214.457294 280.508629 
L 218.234949 278.893179 
L 224.007111 281.384008 
L 227.807568 279.467858 
L 231.161126 276.751955 
L 234.812404 274.613157 
L 240.95559 276.294661 
L 244.587647 273.84813 
L 249.075372 272.54371 
L 252.585476 269.84373 
L 258.537522 270.019446 
L 261.963579 267.023203 
L 224.626168 221.622278 
L 226.547279 219.716211 
L 237.63327 226.211209 
L 239.692236 223.893902 
L 261.155906 237.240859 
L 263.550038 234.178495 
L 258.185968 225.615193 
L 260.216032 222.651959 
L 274.79753 227.440018 
L 276.876758 223.953577 
L 233.989454 196.444516 
L 235.114291 194.256496 
L 236.169777 192.03419 
L 237.154866 189.779796 
L 252.686221 193.07774 
L 253.695956 190.303517 
L 279.268293 195.175364 
L 280.330838 191.564305 
L 250.874374 180.513242 
L 251.489949 177.8022 
L 257.41181 176.032612 
L 257.883272 173.118234 
L 318.896468 177.084313 
L 319.370598 172.236202 
L 304.064618 166.588609 
L 304.216074 162.212034 
L 243.992727 158.59062 
L 243.92241 156.106791 
L 284.341045 150.558831 
L 283.998241 146.810334 
L 289.736822 142.211195 
L 289.128882 138.29717 
L 268.467357 138.47059 
L 267.75232 135.227173 
L 242.768486 138.544546 
L 242.068481 136.109121 
L 269.446131 124.146125 
L 268.280218 120.879016 
L 253.986827 123.003506 
L 252.792631 120.223036 
L 247.994073 119.192995 
L 246.683029 116.602834 
L 269.79279 100.164854 
L 267.872682 96.898702 
L 252.750773 102.251684 
L 250.904706 99.520338 
L 284.702151 70.162102 
L 281.831319 66.442001 
L 265.133503 74.467004 
L 262.407701 71.360056 
L 264.653692 63.452266 
L 261.581801 60.36585 
L 259.998011 55.645224 
L 256.682951 52.709053 
L 230.221934 78.524021 
L 227.640955 76.512763 
L 216.42407 86.726639 
L 214.107822 85.14516 
L 221.58775 67.648392 
L 218.669087 65.913989 
L 206.14197 82.229612 
L 203.68941 80.973649 
L 224.481679 28.502399 
L 220.33075 26.696359 
L 205.006677 54.274517 
L 201.675709 53.068072 
L 196.456895 57.945712 
L 193.245584 57.006275 
L 191.846464 48.564134 
L 188.342455 47.774298 
L 183.728498 53.258837 
L 180.376115 52.721926 
L 176.834187 53.845671 
L 173.503664 53.525242 
L 171.651389 22.833808 
L 167.348347 22.691671 
L 163.175817 32.072307 
L 159.167444 32.192092 
L 157.152024 58.17921 
L 153.967488 58.475489 
L 150.684715 58.097037 
L 147.500793 58.596703 
L 140.236427 39.271829 
L 136.465765 40.10932 
L 125.737685 15.398287 
L 121.223556 16.703454 
L 117.005196 18.890405 
L 112.605184 20.468414 
L 120.795829 52.556747 
L 117.452486 53.998925 
L 122.054506 71.713742 
L 119.312879 73.106873 
L 96.883901 39.905905 
L 93.15461 42.106181 
L 99.360739 59.472197 
L 96.245431 61.584922 
L 104.458063 78.820438 
L 101.948586 80.763325 
L 102.546971 86.356267 
L 100.275382 88.355517 
L 106.227853 98.85927 
L 104.347566 100.736604 
L 53.374278 57.879934 
L 50.231643 61.439361 
L 54.525458 70.970786 
L 51.793859 74.487545 
L 88.842613 106.004247 
L 87.195575 108.424678 
L 44.947709 85.93754 
L 42.691432 89.748044 
L 82.722102 115.979687 
L 81.39174 118.587627 
L 63.74709 113.824221 
L 62.358337 117.029844 
L 81.560229 128.028226 
L 80.609273 130.666742 
L 32.636177 118.82688 
L 31.420101 123.008224 
L 16.643455 123.935009 
L 15.595897 128.616674 
L 77.121863 144.235135 
L 76.682683 147.005189 
L 87.217608 150.990809 
L 86.98585 153.44009 
L 85.268233 155.821666 
L 85.189331 158.329851 
L 86.753862 160.814676 
L 86.831217 163.273681 
L 23.810261 170.706063 
L 24.229744 175.139263 
L 32.533823 178.453627 
L 33.192593 182.608709 
L 60.028212 181.341493 
L 60.764188 184.630662 
L 44.247926 192.647923 
L 45.347204 196.427669 
L 23.621756 208.034601 
L 25.215022 212.455272 
L 76.812149 196.145663 
L 78.005303 198.899789 
L 73.665057 204.371135 
L 75.118394 207.220146 
L 61.034778 218.945607 
L 62.952613 222.184535 
L 94.38577 206.015386 
L 95.88056 208.212079 
L 72.43008 229.166658 
L 74.663652 232.04224 
L 68.068238 242.474037 
L 70.722381 245.480185 
L 61.680013 259.844053 
L 64.883465 263.042473 
L 89.228183 242.974669 
L 91.887604 245.315255 
L 84.846929 259.791412 
L 88.037272 262.261439 
L 80.521745 280.002427 
L 84.349705 282.598454 
L 108.662452 251.698297 
L 111.586555 253.423514 
L 93.008385 295.873407 
L 97.329189 298.06898 
L 120.021563 259.462872 
L 123.184184 260.827094 
L 129.971704 252.572728 
L 132.912765 253.627503 
L 121.452649 301.717606 
L 125.943145 303.01594 
L 141.006313 260.035089 
L 144.176551 260.739221 
L 138.560839 312.222707 
L 143.373179 312.977927 
L 151.510761 283.248741 
L 155.405693 283.611113 
L 158.775159 295.574075 
L 163.054035 295.701944 
L 166.793572 264.405409 
L 170.088472 264.296573 
L 173.566335 266.423735 
L 176.921347 266.10095 
L 177.363911 245.539296 
L 180.060393 245.107433 
L 180.981809 236.166939 
L 183.381815 235.625955 
L 187.010618 239.53529 
L 189.513552 238.803082 
L 212.888163 298.647763 
L 217.236928 297.072682 
L 215.216859 280.195055 
L 218.984279 278.555878 
L 224.771993 281.010354 
L 228.560324 279.070339 
L 231.896734 276.333398 
L 235.534488 274.171678 
L 241.688127 275.814511 
L 245.304725 273.345185 
L 249.784158 272.012566 
L 253.277211 269.290563 
L 259.230244 269.42884 
L 262.637389 266.411109 
L 225.01517 221.245913 
L 226.924255 219.327801 
L 238.050877 225.752946 
L 240.095228 223.422735 
L 261.642418 236.634434 
L 264.017242 233.557072 
L 258.599419 225.027677 
L 260.610806 222.051733 
L 275.222131 226.747989 
L 277.279389 223.24854 
L 234.219917 196.00976 
L 235.330971 193.814708 
L 236.372458 191.585808 
L 237.343349 189.325263 
L 252.89514 192.525457 
L 253.887406 189.744938 
L 279.489878 194.455854 
L 280.529691 190.838184 
L 251.004304 179.972603 
L 251.602816 177.257743 
L 257.513431 175.450946 
L 257.966554 172.53366 
L 319.003487 176.115922 
L 319.447116 171.264925 
L 304.105919 165.71371 
L 304.229845 161.336269 
L 243.984913 158.093697 
L 243.898975 155.610359 
L 284.281917 149.808299 
L 283.915544 146.062032 
L 289.625086 141.426892 
L 288.992541 137.516768 
L 268.332515 137.820133 
L 267.597093 134.581278 
L 242.634618 138.05572 
L 241.919309 135.624745 
L 269.221178 123.489796 
L 268.034739 120.230084 
L 253.754992 122.444429 
L 252.543332 119.671525 
L 247.738391 118.671685 
L 246.411083 116.089821 
L 269.417001 99.506819 
L 267.476389 96.252808 
L 252.388446 101.700792 
L 250.525236 98.981111 
L 284.137367 69.410889 
L 281.243194 65.708918 
L 264.59618 73.838781 
L 261.850892 70.749038 
L 264.047103 62.827279 
L 260.955861 59.760244 
L 259.342413 55.049673 
L 256.008951 52.13441 
L 229.710818 78.115292 
L 227.117241 76.120307 
L 215.964818 86.404529 
L 213.638669 84.837649 
L 221.008404 67.294182 
L 218.078891 65.57817 
L 205.654637 81.972259 
L 203.194226 80.731746 
L 223.65607 28.130762 
L 219.493863 26.350865 
L 204.343545 54.024858 
L 201.005054 52.839386 
L 195.817022 57.749753 
L 192.599866 56.830532 
L 191.147677 48.397358 
L 187.63877 47.629576 
L 183.059399 53.143025 
L 179.703705 52.627209 
L 176.168915 53.773208 
L 172.836442 53.473733 
L 170.791172 22.794556 
L 166.487322 22.679485 
L 162.373873 32.086178 
L 158.366333 32.231172 
L 156.514397 58.230452 
L 153.331787 58.546754 
L 150.046699 58.188956 
L 146.865982 58.708637 
L 139.480218 39.429834 
L 135.714898 40.291024 
L 124.831612 15.647954 
L 120.32578 16.981486 
L 116.121259 19.194925 
L 111.731258 20.800576 
L 120.123558 52.83676 
L 116.789352 54.299937 
L 121.502698 71.98546 
L 118.769887 73.395806 
L 96.132537 40.33656 
L 92.417158 42.560248 
L 98.732387 59.886888 
L 95.630428 62.019164 
L 103.951299 79.202686 
L 101.454091 81.161318 
L 102.087641 86.750386 
L 99.828671 88.763883 
L 105.847087 99.229992 
L 103.978644 101.119114 
L 52.736821 58.583885 
L 49.616635 62.163007 
L 53.970312 71.667238 
L 51.260885 75.201107 
L 88.507129 106.484171 
L 86.875347 108.914912 
L 44.486885 86.693934 
L 42.254619 90.518554 
L 82.449479 116.497907 
L 81.135546 119.114163 
L 63.461286 114.461827 
L 62.092722 117.67612 
L 81.363407 128.553516 
L 80.429065 131.19796 
L 32.382452 119.660057 
L 31.192698 123.848967 
L 16.422173 124.86867 
L 15.404081 129.55683 
L 77.027062 144.788019 
L 76.605313 147.560781 
L 87.165097 151.480062 
L 86.948747 153.930753 
L 85.246143 156.323084 
L 85.183018 158.831717 
L 86.763146 161.306652 
L 86.855965 163.765122 
L 23.883002 171.593723 
L 24.330358 176.024197 
L 32.655118 179.286268 
L 33.340008 183.437124 
L 60.167126 182.001152 
L 60.923775 185.285628 
L 44.458264 193.406608 
L 45.581293 197.179365 
L 23.929275 208.922709 
L 25.550314 213.333271 
L 77.043842 196.699468 
L 78.254294 199.446035 
L 73.948545 204.944571 
L 75.419772 207.784384 
L 61.410181 219.598192 
L 63.348349 222.824994 
L 94.679189 206.458468 
L 96.187766 208.645716 
L 72.869542 229.747371 
L 75.121157 232.608848 
L 68.591483 243.08192 
L 71.26448 246.071315 
L 62.312631 260.491771 
L 65.536137 263.66998 
L 89.754158 243.449459 
L 92.428248 245.773272 
L 85.478759 260.293424 
L 88.684574 262.743337 
L 81.280775 280.531242 
L 85.124987 283.103142 
L 109.242909 252.050683 
L 112.177805 253.757475 
L 93.866988 296.323375 
L 98.201516 298.491729 
L 120.65063 259.743663 
L 123.821769 261.087966 
L 130.557239 252.791074 
L 133.504876 253.82733 
L 122.347446 301.98856 
L 126.846019 303.258625 
L 141.638564 260.183885 
L 144.813168 260.868065 
L 139.521369 312.385852 
L 144.338364 313.110791 
L 152.288805 283.331012 
L 156.185939 283.66888 
L 159.630578 295.610413 
L 163.910174 295.711368 
L 167.4528 264.391932 
L 170.746951 264.262375 
L 174.238123 266.367621 
L 177.591039 266.023742 
L 177.904272 245.45971 
L 180.597985 245.010897 
L 181.463152 236.064784 
L 183.859708 235.508717 
L 187.513027 239.395151 
L 190.011306 238.647216 
L 213.761844 298.3437 
L 218.100616 296.741298 
L 215.974437 279.876711 
L 219.731473 278.213871 
L 225.53451 280.631897 
L 229.310564 278.668094 
L 232.629694 275.910223 
L 236.25378 273.725666 
L 242.417631 275.329764 
L 246.018626 272.837741 
L 250.489589 271.476975 
L 253.965453 268.733056 
L 259.919239 268.83389 
L 263.307336 265.794789 
L 225.401798 220.867108 
L 227.298781 218.937028 
L 238.465593 225.292065 
L 240.495248 222.949042 
L 262.125106 236.02496 
L 264.480528 232.932724 
L 259.009168 224.437572 
L 261.001798 221.449037 
L 275.64237 226.053302 
L 277.677578 222.540983 
L 234.447641 195.573562 
L 235.544868 193.371566 
L 236.572316 191.136159 
L 237.52897 188.869553 
L 253.10058 191.971872 
L 254.075339 189.185167 
L 279.706934 193.734965 
L 280.723973 190.110826 
L 251.130832 179.431159 
L 251.712257 176.712588 
L 257.611392 174.868651 
L 258.046157 171.948573 
L 319.104414 175.146877 
L 319.517524 170.293186 
L 304.141716 164.838568 
L 304.238108 160.460434 
L 243.973974 157.596833 
L 243.872419 155.114085 
L 284.218071 149.058154 
L 283.828143 145.314265 
L 289.508419 140.643306 
L 288.851294 136.737238 
L 268.193585 137.170538 
L 267.437807 133.936371 
L 242.497678 137.567744 
L 241.767094 135.141317 
L 268.9921 122.834894 
L 267.785184 119.582709 
L 253.519646 121.886822 
L 252.29057 119.121593 
L 247.479435 118.151994 
L 246.135915 115.578529 
L 269.03708 98.85116 
L 267.07604 95.609419 
L 252.022661 101.152189 
L 250.142383 98.444281 
L 283.567869 68.663243 
L 280.65047 64.979547 
L 264.054918 73.213951 
L 261.290251 70.141535 
L 263.436595 62.206119 
L 260.326124 59.158587 
L 258.683081 54.458257 
L 255.33135 51.564017 
L 229.197142 77.709786 
L 226.591069 75.731152 
L 215.503548 86.085313 
L 213.167591 84.533095 
L 220.426842 66.943623 
L 217.486593 65.24607 
L 205.165696 81.717976 
L 202.697531 80.492962 
L 222.828139 27.764325 
L 218.654821 26.010642 
L 203.678856 53.779374 
L 200.332975 52.614923 
L 195.175929 57.557822 
L 191.953055 56.658854 
L 190.447855 48.23498 
L 186.934188 47.489282 
L 182.389585 53.031423 
L 179.030713 52.536723 
L 175.5032 53.704932 
L 172.16891 53.426422 
L 169.930726 22.760715 
L 165.626236 22.672715 
L 161.572032 32.105094 
L 157.565483 32.27529 
L 155.877104 58.285703 
L 152.696547 58.622016 
L 149.409273 58.284886 
L 146.231888 58.824561 
L 138.725017 39.592592 
L 134.965188 40.477447 
L 123.927126 15.903314 
L 119.42977 17.265159 
L 115.239254 19.504998 
L 110.859439 21.138228 
L 119.453063 53.120996 
L 116.128125 54.605114 
L 120.952609 72.260643 
L 118.228722 73.688148 
L 95.383896 40.771933 
L 91.682577 43.018944 
L 98.106655 60.305522 
L 95.018169 62.457266 
L 103.44695 79.588114 
L 100.96211 81.562414 
L 101.6308 87.147386 
L 99.384538 89.175052 
L 105.468661 99.603101 
L 103.612136 101.503937 
L 52.103804 59.291831 
L 49.006191 62.890507 
L 53.419558 72.367167 
L 50.73241 75.918007 
L 88.17467 106.966195 
L 86.558208 109.407151 
L 44.030827 87.453212 
L 41.82266 91.291795 
L 82.180121 117.017832 
L 80.882668 119.642301 
L 63.179497 115.101217 
L 61.831176 118.324054 
L 81.169893 129.080033 
L 80.252202 131.730302 
L 32.133972 120.494812 
L 30.970587 124.691122 
L 16.206768 125.803703 
L 15.218182 130.498175 
L 76.93574 145.341489 
L 76.531438 148.116848 
L 87.115663 151.969637 
L 86.914732 154.42164 
L 85.227208 156.824632 
L 85.179861 159.333612 
L 86.775524 161.79856 
L 86.883804 164.256398 
L 23.961323 172.480909 
L 24.436536 176.908481 
L 32.781648 180.118129 
L 33.492631 184.264596 
L 60.310187 182.659925 
L 61.087479 185.939577 
L 44.673369 194.163955 
L 45.820104 197.929574 
L 24.242373 209.808864 
L 25.89112 214.209144 
L 77.279013 197.251805 
L 78.506715 199.990705 
L 74.235634 205.516212 
L 75.724693 208.346717 
L 61.789681 220.248403 
L 63.748106 223.462952 
L 94.97539 206.899696 
L 96.497694 209.077413 
L 73.312648 230.325308 
L 75.582215 233.172567 
L 69.11854 243.6865 
L 71.810286 246.659025 
L 62.949311 261.135498 
L 66.192742 264.293369 
L 90.283108 243.92093 
L 92.971761 246.227879 
L 86.113733 260.791453 
L 89.334893 263.221154 
L 82.043117 281.055273 
L 85.903429 283.602945 
L 109.825571 252.399412 
L 112.771143 254.08771 
L 94.728404 296.767933 
L 99.076484 298.908983 
L 121.281451 260.020491 
L 124.460982 261.344823 
L 131.144136 253.005733 
L 134.098232 254.023429 
L 123.24393 302.253881 
L 127.750401 303.495627 
L 142.271738 260.328703 
L 145.450582 260.992902 
L 140.482906 312.542953 
L 145.304365 313.237581 
L 153.067351 283.408387 
L 156.966533 283.721738 
L 160.48621 295.641369 
L 164.766356 295.715407 
L 168.11193 264.374309 
L 171.405201 264.224036 
L 174.909545 266.307284 
L 178.260232 265.942323 
L 178.444123 245.376728 
L 181.134959 244.910981 
L 181.943843 235.959604 
L 184.336855 235.388475 
L 188.014545 239.251855 
L 190.50807 238.488222 
L 214.633595 298.034148 
L 218.962204 296.40449 
L 216.729998 279.553608 
L 220.476501 277.867172 
L 226.294632 280.248652 
L 230.058259 278.261139 
L 233.359979 275.482447 
L 236.970253 273.27514 
L 243.144071 274.840439 
L 246.729322 272.325816 
L 251.191637 270.936957 
L 254.650175 268.171232 
L 260.604477 268.234617 
L 263.973394 265.174267 
L 225.786035 220.48588 
L 227.670842 218.543906 
L 238.877403 224.828586 
L 240.892281 222.472844 
L 262.603951 235.412463 
L 264.939879 232.305474 
L 259.415197 223.844902 
L 261.388991 220.843893 
L 276.058232 225.355986 
L 278.07131 221.830937 
L 234.672618 195.13594 
L 235.755973 192.927087 
L 236.769342 190.685262 
L 237.711721 188.412684 
L 253.302535 191.417005 
L 254.259748 188.624225 
L 279.919451 193.012724 
L 280.913677 189.382261 
L 251.253952 178.888929 
L 251.818267 176.166755 
L 257.705688 174.285753 
L 258.122079 171.362998 
L 319.199243 174.177216 
L 319.581818 169.321023 
L 304.172008 163.963218 
L 243.998979 159.584565 
z
" clip-path="url(#p585004c133)" style="fill: #0000ff; opacity: 0.5; stroke: #000000; stroke-width: 1.5; stroke-linejoin: miter"/>
   </g>
  </g>
 </g>
 <defs>
  <clipPath id="p585004c133">
   <rect x="0" y="0" width="334.8" height="328.153656"/>
  </clipPath>
 </defs>
</svg>
