<?xml version="1.0" encoding="utf-8" standalone="no"?>
<!DOCTYPE svg PUBLIC "-//W3C//DTD SVG 1.1//EN"
  "http://www.w3.org/Graphics/SVG/1.1/DTD/svg11.dtd">
<svg xmlns:xlink="http://www.w3.org/1999/xlink" width="323.208558pt" height="332.64pt" viewBox="0 0 323.208558 332.64" xmlns="http://www.w3.org/2000/svg" version="1.1">
 <metadata>
  <rdf:RDF xmlns:dc="http://purl.org/dc/elements/1.1/" xmlns:cc="http://creativecommons.org/ns#" xmlns:rdf="http://www.w3.org/1999/02/22-rdf-syntax-ns#">
   <cc:Work>
    <dc:type rdf:resource="http://purl.org/dc/dcmitype/StillImage"/>
    <dc:date>2023-12-09T18:06:23.458722</dc:date>
    <dc:format>image/svg+xml</dc:format>
    <dc:creator>
     <cc:Agent>
      <dc:title>Matplotlib v3.8.2, https://matplotlib.org/</dc:title>
     </cc:Agent>
    </dc:creator>
   </cc:Work>
  </rdf:RDF>
 </metadata>
 <defs>
  <style type="text/css">*{stroke-linejoin: round; stroke-linecap: butt}</style>
 </defs>
 <g id="figure_1">
  <g id="patch_1">
   <path d="M 0 332.64 
L 323.208558 332.64 
L 323.208558 0 
L 0 0 
L 0 332.64 
z
" style="fill: none"/>
  </g>
  <g id="axes_1">
   <g id="patch_2">
    <path d="M 291.48079 160.02 
L 291.417959 156.024394 
L 292.017272 151.983129 
L 291.701479 147.974628 
L 302.222745 142.591697 
L 301.606619 138.266957 
L 306.281881 132.927399 
L 305.359882 128.47981 
L 266.075667 133.887614 
L 265.203738 130.703722 
L 308.51726 113.144309 
L 306.972132 108.636216 
L 275.201615 116.103328 
L 273.765996 112.641289 
L 262.225743 113.935468 
L 260.728378 110.882491 
L 250.837996 112.445276 
L 249.299406 109.751091 
L 281.652628 85.517953 
L 279.252149 81.868202 
L 252.483918 95.940744 
L 250.425577 93.202968 
L 272.594991 70.389602 
L 269.723322 67.032122 
L 267.897445 62.685096 
L 264.785851 59.479127 
L 251.857789 66.737321 
L 248.881537 64.03367 
L 264.919986 38.297699 
L 261.043072 35.197406 
L 252.437212 38.610517 
L 248.576305 35.902555 
L 235.764723 47.321307 
L 232.185946 45.133257 
L 237.268872 27.14102 
L 233.054839 24.915654 
L 217.374069 47.119033 
L 213.798025 45.509326 
L 204.669125 57.96308 
L 201.440323 56.747483 
L 204.006026 37.610526 
L 200.137623 36.425841 
L 192.914092 48.364371 
L 189.389297 47.523123 
L 180.994479 72.385496 
L 178.230855 71.907151 
L 182.396864 15.907189 
L 177.856745 15.412674 
L 169.481963 77.29892 
L 166.87852 77.180124 
L 164.201887 32.153006 
L 160.181568 32.222548 
L 157.284099 49.747068 
L 153.820396 50.025422 
L 152.773292 69.202394 
L 149.923537 69.612959 
L 140.072605 33.685055 
L 136.112387 34.512518 
L 142.262124 74.43557 
L 139.582109 75.174041 
L 125.396404 40.736515 
L 121.665156 42.021943 
L 124.399999 59.556826 
L 121.260996 60.864278 
L 116.139619 57.98875 
L 112.955395 59.556701 
L 94.172978 32.89787 
L 90.210704 35.168907 
L 105.417727 67.512027 
L 102.538238 69.41239 
L 106.700105 80.965406 
L 104.242986 82.818797 
L 106.385825 90.21178 
L 104.219587 92.07048 
L 67.447079 57.252789 
L 64.26379 60.352105 
L 92.31955 92.652666 
L 90.237013 94.952434 
L 100.415836 107.349098 
L 98.791385 109.387034 
L 82.518138 100.841382 
L 80.697918 103.445279 
L 64.942566 97.259711 
L 63.018421 100.417993 
L 93.05753 121.042597 
L 91.86727 123.305125 
L 82.167666 121.594322 
L 81.000137 124.198978 
L 82.853791 127.993176 
L 81.887117 130.573095 
L 17.136486 112.630612 
L 15.719272 117.284422 
L 62.648539 134.207477 
L 61.887247 137.419621 
L 29.421312 134.684178 
L 28.691437 138.940823 
L 73.531488 148.818875 
L 73.224229 151.68161 
L 76.946608 154.788256 
L 76.825351 157.540661 
L 17.593233 160.48168 
L 17.680336 165.09747 
L 74.618494 165.957953 
L 74.849588 168.778037 
L 58.73145 173.720677 
L 59.214476 177.036446 
L 35.007107 185.150888 
L 35.861254 189.206951 
L 29.967996 195.024137 
L 31.135072 199.233759 
L 51.179528 197.242019 
L 52.40585 200.783607 
L 31.02464 213.37238 
L 32.768101 217.539707 
L 92.392599 194.22135 
L 93.503569 196.468603 
L 70.524842 212.076778 
L 72.208037 215.002773 
L 33.426128 243.823797 
L 36.125861 247.90056 
L 94.354439 211.318205 
L 96.002001 213.49532 
L 59.52446 247.462938 
L 62.325713 250.717313 
L 73.826896 245.743677 
L 76.56702 248.549203 
L 65.943219 265.705031 
L 69.314869 268.748566 
L 91.805962 248.497404 
L 94.62378 250.736266 
L 109.043761 236.874143 
L 111.487595 238.576758 
L 82.051603 290.98343 
L 86.210097 293.507985 
L 97.992548 282.035178 
L 101.861808 284.062939 
L 104.793877 288.11488 
L 108.850933 289.925786 
L 131.06751 245.295057 
L 133.765226 246.301033 
L 124.944397 283.305148 
L 128.840261 284.484856 
L 133.157044 284.010736 
L 137.071033 284.931871 
L 135.525298 315.216896 
L 140.419306 316.048139 
L 148.578236 290.085227 
L 152.675595 290.518482 
L 159.125141 250.636324 
L 161.976927 250.757466 
L 164.834834 251.578177 
L 167.71341 251.519328 
L 175.068065 317.52 
L 180.014937 317.106793 
L 182.78931 300.103833 
L 187.184762 299.456464 
L 184.579372 263.040175 
L 187.808576 262.354847 
L 197.617537 286.764527 
L 201.58624 285.657521 
L 201.059897 270.936441 
L 204.529228 269.729025 
L 212.961928 280.863685 
L 216.737509 279.277136 
L 224.538314 286.121943 
L 228.473502 284.168807 
L 207.778593 237.95355 
L 210.207549 236.551192 
L 247.559688 289.536507 
L 251.590856 286.85784 
L 235.90719 257.338787 
L 238.931752 255.04242 
L 242.895423 253.862966 
L 245.807242 251.348592 
L 227.443795 226.419827 
L 229.500382 224.404855 
L 247.686651 237.365646 
L 250.07739 234.708782 
L 241.385851 222.983304 
L 243.327492 220.531661 
L 263.785187 231.36943 
L 265.979432 228.209357 
L 268.073232 224.981855 
L 270.064518 221.690115 
L 277.502203 221.347322 
L 279.374549 217.760912 
L 265.3782 206.815914 
L 266.799641 203.617893 
L 268.855407 200.662979 
L 270.081667 197.358669 
L 255.408989 188.989647 
L 256.274862 186.113894 
L 260.112596 183.979027 
L 260.818599 180.95786 
L 303.34463 185.647055 
L 304.081704 181.265753 
L 251.390798 170.464816 
L 251.676197 167.724563 
L 265.271961 165.735825 
L 265.401807 162.561455 
L 291.478277 159.220752 
L 291.390317 155.225621 
L 291.9642 151.180666 
L 291.623202 147.174231 
L 302.110405 141.725233 
L 301.467091 137.404454 
L 306.108678 132.035597 
L 305.158724 127.593894 
L 265.909298 133.248667 
L 265.017361 130.070322 
L 308.219588 112.238839 
L 306.646137 107.740553 
L 274.923212 115.407336 
L 273.465848 111.954394 
L 261.933963 113.32113 
L 260.417426 110.27763 
L 250.537068 111.90259 
L 248.981564 109.218135 
L 281.181733 84.781993 
L 278.758347 81.147412 
L 252.079154 95.388032 
L 250.003634 92.663256 
L 272.029127 69.710908 
L 269.136397 66.371556 
L 267.283216 62.036099 
L 264.151521 58.849764 
L 251.269364 66.189124 
L 248.276166 63.504246 
L 264.152434 37.667911 
L 260.256097 34.592063 
L 251.671874 38.059233 
L 247.794012 35.375607 
L 235.0545 46.874711 
L 231.462032 44.709213 
L 236.431698 26.685363 
L 232.203751 24.486545 
L 216.662938 46.788107 
L 213.07684 45.200923 
L 204.026448 57.711847 
L 200.790065 56.516581 
L 203.235356 37.363866 
L 199.359579 36.203535 
L 192.211277 48.18726 
L 188.681262 47.368198 
L 180.442979 72.282878 
L 177.676401 71.821924 
L 181.49012 15.796867 
L 176.946981 15.330917 
L 168.961594 77.268612 
L 166.357455 77.166192 
L 163.39768 32.156799 
L 159.377878 32.251626 
L 156.590685 49.794022 
L 153.128801 50.094156 
L 152.202331 69.277334 
L 149.355215 69.705814 
L 139.278511 33.840578 
L 135.323576 34.692931 
L 141.724284 74.576516 
L 139.048967 75.331829 
L 124.64695 40.984203 
L 120.92386 42.293073 
L 123.768934 59.810409 
L 120.638216 61.137578 
L 115.498854 58.294317 
L 112.324556 59.882264 
L 93.374841 33.342091 
L 89.426929 35.638003 
L 104.837071 67.88484 
L 101.969591 69.803276 
L 106.204038 81.329888 
L 103.758624 83.198696 
L 105.947919 90.578056 
L 103.793414 92.450344 
L 66.802649 57.864619 
L 63.638916 60.983895 
L 91.897273 93.107362 
L 89.829242 95.420183 
L 100.085832 107.752582 
L 98.47423 109.800695 
L 82.147557 101.357561 
L 80.343751 103.972855 
L 64.549807 97.886501 
L 62.645564 101.056823 
L 92.813795 121.49209 
L 91.637789 123.762059 
L 81.927616 122.112295 
L 80.776493 124.724243 
L 82.653973 128.506707 
L 81.703545 131.092655 
L 16.841346 113.557772 
L 15.45343 118.220404 
L 62.488205 134.847965 
L 61.747131 138.064833 
L 29.264634 135.533637 
L 28.561545 139.794788 
L 73.462836 149.390626 
L 73.173589 152.255238 
L 76.915433 155.33841 
L 76.81149 158.091524 
L 17.599041 161.40502 
L 17.715173 166.020172 
L 74.657616 166.522529 
L 74.906442 169.341104 
L 58.819709 174.38502 
L 59.32358 177.697686 
L 35.167726 185.964218 
L 36.047366 190.014829 
L 30.190812 195.868964 
L 31.38434 200.071163 
L 51.415872 197.953394 
L 52.664445 201.487199 
L 31.362834 214.210199 
L 33.132471 218.366478 
L 92.609131 194.673578 
L 93.734212 196.913799 
L 70.854107 212.666189 
L 72.555671 215.581539 
L 33.955797 244.645909 
L 36.681117 248.705612 
L 94.678462 211.757756 
L 96.339684 213.924466 
L 60.076501 248.120834 
L 62.898166 251.357527 
L 74.367841 246.311654 
L 77.125556 249.09989 
L 66.609865 266.322196 
L 70.000591 269.344466 
L 92.363871 248.952248 
L 95.195714 251.173343 
L 109.528225 237.220801 
L 111.982719 238.908012 
L 82.876917 291.498783 
L 87.051207 293.997133 
L 98.761268 282.450448 
L 102.643204 284.453833 
L 105.6007 288.487254 
L 109.669065 290.272607 
L 131.604501 245.503031 
L 134.308491 246.492021 
L 125.720571 283.550882 
L 129.623778 284.706063 
L 133.937494 284.204802 
L 137.857199 285.101302 
L 136.501969 315.395451 
L 141.401109 316.195896 
L 149.396585 290.182182 
L 153.496589 290.589659 
L 159.695171 250.667726 
L 162.547662 250.77093 
L 165.410675 251.57365 
L 168.288824 251.496698 
L 176.058439 317.449807 
L 181.002615 317.005495 
L 183.669995 299.985423 
L 188.061288 299.310421 
L 185.226911 262.911239 
L 188.451741 262.205615 
L 198.414031 286.553119 
L 202.375694 285.421174 
L 201.756773 270.703695 
L 205.218442 269.474484 
L 213.721006 280.555887 
L 217.486534 278.945622 
L 225.330234 285.741231 
L 229.253061 283.763384 
L 208.267893 237.6792 
L 210.687981 236.261593 
L 248.372629 289.010936 
L 252.38687 286.306969 
L 236.517856 256.887141 
L 239.527916 254.571797 
L 243.484089 253.367437 
L 246.380037 250.834799 
L 227.860165 226.022023 
L 229.904038 223.994155 
L 248.171464 236.840309 
L 250.545446 234.168461 
L 241.780332 222.497879 
L 243.706516 220.034074 
L 264.231969 230.742961 
L 266.406295 227.56915 
L 268.479755 224.328543 
L 270.450298 221.024344 
L 277.885681 220.634779 
L 279.735433 217.036664 
L 265.670523 206.179911 
L 267.071822 202.973014 
L 269.108963 200.005228 
L 270.314416 196.693272 
L 255.589391 188.416698 
L 256.437161 185.535556 
L 260.261392 183.376594 
L 260.948379 180.351046 
L 303.503062 184.772684 
L 304.212565 180.386833 
L 251.454769 169.917505 
L 251.722928 167.175512 
L 265.305916 165.101303 
L 265.415794 161.92618 
L 291.470736 158.421536 
L 291.357651 154.427037 
L 291.906083 150.378553 
L 291.539894 146.374342 
L 301.992617 140.859493 
L 301.322141 136.542845 
L 305.929869 131.144902 
L 304.951998 126.709262 
L 265.738914 132.610779 
L 264.827005 129.438106 
L 307.916227 111.335259 
L 306.314515 106.846958 
L 274.640438 114.713109 
L 273.161385 111.269401 
L 261.638324 112.708639 
L 260.102675 109.674737 
L 250.232733 111.361807 
L 248.660376 108.687188 
L 280.706219 84.049009 
L 278.260021 80.429741 
L 251.670922 94.837877 
L 249.578305 92.126208 
L 271.459005 69.035786 
L 268.54533 65.714694 
L 266.664918 61.390978 
L 263.513244 58.224403 
L 250.677503 65.644639 
L 247.667478 62.97864 
L 263.380936 37.042964 
L 259.465331 33.991682 
L 250.903084 37.512773 
L 247.00842 34.85359 
L 234.341483 46.43259 
L 230.735467 44.28973 
L 235.591674 26.23498 
L 231.349982 24.062797 
L 215.94974 46.461661 
L 212.353731 44.897063 
L 203.382204 57.464661 
L 200.138367 56.289774 
L 202.46315 37.122058 
L 198.580152 35.986126 
L 191.507363 48.014573 
L 187.972265 47.21773 
L 179.890845 72.183731 
L 177.121423 71.740186 
L 180.582701 15.692251 
L 176.03672 15.254884 
L 168.441044 77.241577 
L 165.836313 77.155538 
L 162.593513 32.165651 
L 158.574387 32.285758 
L 155.897581 49.845337 
L 152.437653 50.167238 
L 151.631852 69.355864 
L 148.787487 69.802242 
L 138.485411 34.001092 
L 134.535915 34.878303 
L 141.187342 74.720842 
L 138.516828 75.492966 
L 123.899069 41.2366 
L 120.184285 42.568861 
L 123.139476 60.067956 
L 120.017167 61.414789 
L 114.860025 58.603908 
L 111.695776 60.211788 
L 92.579514 33.791323 
L 88.646119 36.11202 
L 104.258771 68.261298 
L 101.403414 70.197731 
L 105.710273 81.697483 
L 103.276661 83.581634 
L 105.512324 90.947078 
L 103.369638 92.83288 
L 66.16208 58.48049 
L 63.018028 61.619602 
L 91.477865 93.564705 
L 89.424421 95.890487 
L 99.758371 108.158134 
L 98.159683 110.216343 
L 81.780231 101.876061 
L 79.992909 104.502648 
L 64.160997 98.51575 
L 62.276731 101.697986 
L 92.572893 121.943108 
L 91.411186 124.220428 
L 81.69083 122.631768 
L 80.556157 125.250904 
L 82.457389 129.021485 
L 81.523244 131.613359 
L 16.552043 114.486769 
L 15.193481 119.158038 
L 62.331903 135.489449 
L 61.611076 138.710915 
L 29.113301 136.384065 
L 28.437027 140.649554 
L 73.397782 149.962798 
L 73.126557 152.829172 
L 76.887719 155.888749 
L 76.801093 158.642462 
L 17.610655 162.328306 
L 17.755811 166.942636 
L 74.700288 167.086848 
L 74.966837 169.903802 
L 58.912145 175.048795 
L 59.436841 178.358226 
L 35.333456 186.776521 
L 36.238555 190.821519 
L 30.418936 196.712374 
L 31.63887 200.906983 
L 51.656687 198.663268 
L 52.927461 202.189151 
L 31.706291 215.045874 
L 33.502034 219.190941 
L 92.828502 195.124435 
L 93.967651 197.357535 
L 71.187072 213.253517 
L 72.906939 216.158108 
L 34.490626 245.464674 
L 37.241426 249.507156 
L 95.005242 212.19526 
L 96.680058 214.351479 
L 60.632669 248.775246 
L 63.474635 251.994128 
L 74.912347 246.876217 
L 77.687544 249.647053 
L 67.28038 266.935157 
L 70.690047 269.936041 
L 92.924629 249.403574 
L 95.770386 251.606815 
L 110.01486 237.564405 
L 112.479917 239.236145 
L 83.705457 292.008935 
L 87.895377 294.480982 
L 99.532584 282.860876 
L 103.427044 284.839806 
L 106.409849 288.854546 
L 110.489363 290.614276 
L 132.142789 245.707624 
L 134.852946 246.679587 
L 126.498275 283.791729 
L 130.408671 284.922338 
L 134.719148 284.393957 
L 138.644414 285.265786 
L 137.479745 315.567859 
L 142.383822 316.337476 
L 150.215528 290.273989 
L 154.318014 290.655672 
L 160.265387 250.695542 
L 163.11847 250.780803 
L 165.986475 251.565501 
L 168.864083 251.470448 
L 177.048353 317.373387 
L 181.989636 316.897988 
L 184.549917 299.861475 
L 188.936878 299.158869 
L 185.873627 262.778233 
L 189.093955 262.052341 
L 199.20918 286.336706 
L 203.163645 285.179867 
L 202.452172 270.466572 
L 205.906042 269.215613 
L 214.478133 280.24332 
L 218.233459 278.609405 
L 226.119744 285.355546 
L 230.030054 283.353066 
L 208.755458 237.401778 
L 211.166582 235.968978 
L 249.182248 288.480263 
L 253.179403 285.751102 
L 237.125669 256.431663 
L 240.121107 254.097433 
L 244.069628 252.868215 
L 246.949589 250.317413 
L 228.274026 225.621607 
L 230.305104 223.580925 
L 248.652964 236.311933 
L 251.010094 233.625207 
L 242.171752 222.009984 
L 244.082402 219.534112 
L 264.674801 230.113694 
L 266.829124 226.926271 
L 268.882161 223.672687 
L 270.831883 220.35616 
L 278.264669 219.919838 
L 280.091754 216.31016 
L 265.958839 205.542082 
L 267.339941 202.326435 
L 269.358376 199.345896 
L 270.542976 196.026423 
L 255.766187 187.842625 
L 256.595819 184.956208 
L 260.406395 182.773237 
L 261.07434 179.743428 
L 303.655991 183.897333 
L 304.337896 179.507107 
L 251.515297 169.369803 
L 251.766205 166.626177 
L 265.335878 164.466579 
L 265.425785 161.290828 
L 291.45817 157.622383 
L 291.319964 153.628674 
L 291.842922 149.576821 
L 291.451555 145.574992 
L 301.869387 139.994511 
L 301.171775 135.682166 
L 305.745462 130.255349 
L 304.739713 125.825947 
L 265.564521 131.973976 
L 264.632676 128.807101 
L 307.607189 110.433605 
L 305.97728 105.955466 
L 274.353303 114.020673 
L 272.852621 110.586336 
L 261.338839 112.098019 
L 259.784139 109.073836 
L 249.925003 110.822948 
L 248.335856 108.158272 
L 280.226104 83.319029 
L 277.757192 79.715219 
L 251.259237 94.2903 
L 249.149607 91.591846 
L 270.884648 68.364264 
L 267.950144 65.061563 
L 266.042575 60.749759 
L 262.871048 57.603068 
L 250.082229 65.103888 
L 247.055496 62.456873 
L 262.605522 36.42288 
L 258.670804 33.396286 
L 250.130872 36.971159 
L 246.21956 34.336524 
L 233.625699 45.994963 
L 230.006277 43.874825 
L 234.748834 25.789889 
L 230.493564 23.644427 
L 215.234503 46.139707 
L 211.628724 44.597757 
L 202.736418 57.221532 
L 199.485256 56.06707 
L 201.689439 36.885112 
L 197.799373 35.773624 
L 190.802376 47.846317 
L 187.262337 47.071723 
L 179.338099 72.088058 
L 176.565941 71.66194 
L 179.674641 15.593344 
L 175.126 15.184577 
L 167.920335 77.217817 
L 165.315114 77.148162 
L 161.789417 32.17956 
L 157.771126 32.324943 
L 155.204813 49.90101 
L 151.746978 50.244665 
L 151.061879 69.43798 
L 148.220378 69.902239 
L 137.693336 34.166591 
L 133.749435 35.068625 
L 140.651318 74.868542 
L 137.985713 75.657447 
L 123.15279 41.493696 
L 119.446458 42.849294 
L 122.511651 60.329457 
L 119.397874 61.695901 
L 114.223155 58.91751 
L 111.069081 60.545261 
L 91.787028 34.245548 
L 87.868307 36.590938 
L 103.682851 68.641386 
L 100.839729 70.595739 
L 105.21883 82.068175 
L 102.797116 83.967595 
L 105.07906 91.318833 
L 102.948276 93.218073 
L 65.525397 59.100378 
L 62.401151 62.259202 
L 91.061341 94.024677 
L 89.022565 96.363328 
L 99.433468 108.565737 
L 97.847756 110.63396 
L 81.416172 102.396861 
L 79.645406 105.034638 
L 63.776153 99.147431 
L 61.911939 102.341455 
L 92.334831 122.395631 
L 91.187471 124.680213 
L 81.457315 123.15272 
L 80.339137 125.77894 
L 82.264047 129.537489 
L 81.346222 132.135187 
L 16.26859 115.417568 
L 14.939433 120.09729 
L 62.179639 136.131903 
L 61.479087 139.357839 
L 28.967321 137.235427 
L 28.317887 141.505085 
L 73.336328 150.535368 
L 73.083136 153.403391 
L 76.863466 156.439252 
L 76.794162 159.193456 
L 17.628076 163.251501 
L 17.802251 167.864826 
L 74.746509 167.650887 
L 75.030769 170.466109 
L 59.008755 175.711975 
L 59.554254 179.01804 
L 35.504292 187.587766 
L 36.434814 191.626991 
L 30.65236 197.554331 
L 31.898652 201.741185 
L 51.901961 199.371614 
L 53.194886 202.889435 
L 32.054997 215.879372 
L 33.876775 220.013063 
L 93.050705 195.573903 
L 94.203876 197.799795 
L 71.523724 213.838739 
L 73.261825 216.732455 
L 35.030594 246.280059 
L 37.806764 250.30516 
L 95.334767 212.6307 
L 97.023112 214.776343 
L 61.192941 249.426147 
L 64.055097 252.627091 
L 75.460394 247.437344 
L 78.252962 250.190671 
L 67.954737 267.543888 
L 71.38321 270.523268 
L 93.488215 249.851364 
L 96.347772 252.036663 
L 110.503646 237.904942 
L 112.979168 239.561145 
L 84.537189 292.513866 
L 88.742574 294.959512 
L 100.306467 283.266444 
L 104.213296 285.220841 
L 107.221293 289.216741 
L 111.311793 290.950779 
L 132.682354 245.908827 
L 135.39857 246.863726 
L 127.277479 284.02768 
L 131.194908 285.133673 
L 135.501977 284.578191 
L 139.432649 285.425315 
L 138.458585 315.734114 
L 143.367406 316.472872 
L 151.035033 290.360644 
L 155.139838 290.716516 
L 160.835767 250.719772 
L 163.68933 250.787087 
L 166.562213 251.55373 
L 169.439167 251.440581 
L 178.037767 317.290742 
L 182.975962 316.784274 
L 185.429042 299.731997 
L 189.811497 299.001812 
L 186.519493 262.641162 
L 189.735193 261.89503 
L 200.002952 286.115296 
L 203.950063 284.933609 
L 203.146066 270.225079 
L 206.591999 268.952422 
L 215.233279 279.925998 
L 218.978254 278.268496 
L 226.906813 284.964904 
L 230.804451 282.937869 
L 209.241268 237.121295 
L 211.643333 235.673359 
L 249.988514 287.944509 
L 253.968425 285.190261 
L 237.730605 255.972372 
L 240.711303 253.619348 
L 244.652014 252.36532 
L 247.515876 249.796455 
L 228.685359 225.218597 
L 230.703563 223.165181 
L 249.13113 235.780539 
L 251.471316 233.079041 
L 242.560095 221.519636 
L 244.455136 219.031797 
L 265.113668 229.481655 
L 267.2479 226.280745 
L 269.280434 223.014313 
L 271.209259 219.685589 
L 278.639153 219.202528 
L 280.443499 215.581429 
L 266.243139 204.902453 
L 267.603989 201.678183 
L 269.603638 198.685008 
L 270.767336 195.35815 
L 255.939368 187.267452 
L 256.75083 184.375874 
L 260.547602 182.168979 
L 261.196477 179.135029 
L 303.803412 183.021038 
L 304.457691 178.62661 
L 251.572379 168.821731 
L 251.806026 166.076581 
L 265.361849 163.831681 
L 265.431779 160.655427 
L 291.440577 156.823326 
L 291.277256 152.830564 
L 291.774719 148.775502 
L 291.358192 144.776214 
L 301.740719 139.130321 
L 301.015999 134.822449 
L 305.555464 129.366973 
L 304.521876 124.943984 
L 265.386127 131.338281 
L 264.434382 128.17733 
L 307.292487 109.533912 
L 305.634445 105.066113 
L 274.061818 113.330058 
L 272.539566 109.905227 
L 261.03552 111.489295 
L 259.46183 108.47495 
L 249.61389 110.286036 
L 248.008015 107.631407 
L 279.741408 82.592084 
L 277.249878 79.003873 
L 250.844116 93.745323 
L 248.717556 91.060191 
L 270.30608 67.696367 
L 267.350861 64.412188 
L 265.416211 60.112467 
L 262.224955 56.985785 
L 249.483565 64.566891 
L 246.440244 61.938964 
L 261.826224 35.807686 
L 257.872548 32.805899 
L 249.355269 36.434413 
L 245.427464 33.824429 
L 232.907177 45.561846 
L 229.274492 43.464514 
L 233.903211 25.350108 
L 229.634532 23.231452 
L 214.517255 45.822258 
L 210.90185 44.303016 
L 202.089116 56.982469 
L 198.830757 55.848478 
L 200.914253 36.653036 
L 197.017273 35.566037 
L 190.096345 47.682498 
L 186.551504 46.930184 
L 178.784761 71.995863 
L 176.009979 71.587189 
L 178.765977 15.500151 
L 174.214855 15.12 
L 167.399486 77.197332 
L 164.793879 77.144064 
L 160.985425 32.198526 
L 156.968128 32.369179 
L 154.512409 49.961039 
L 151.056804 50.326435 
L 150.492433 69.523679 
L 147.653908 70.0058 
L 136.902318 34.337068 
L 132.964168 35.263889 
L 140.116233 75.019611 
L 137.455643 75.825265 
L 122.408142 41.75548 
L 118.71041 43.134362 
L 121.885482 60.594901 
L 118.780361 61.980902 
L 113.58827 59.235112 
L 110.444497 60.882668 
L 90.997414 34.704749 
L 87.093522 37.074739 
L 103.109332 69.025088 
L 100.278558 70.997284 
L 104.729727 82.441952 
L 102.320008 84.356565 
L 104.648142 91.693305 
L 102.529345 93.60591 
L 64.892625 59.724258 
L 61.788308 62.902669 
L 90.647718 94.48726 
L 88.623692 96.838687 
L 99.111135 108.975376 
L 97.538462 111.053532 
L 81.055397 102.919941 
L 79.301255 105.568802 
L 63.395289 99.781521 
L 61.5512 102.987206 
L 92.099621 122.849643 
L 90.966652 125.141396 
L 81.227081 123.67513 
L 80.125443 126.308331 
L 82.073954 130.054699 
L 81.172485 132.658119 
L 15.990995 116.350132 
L 14.691298 121.03812 
L 62.031418 136.775302 
L 61.351169 140.00558 
L 28.826697 138.087691 
L 28.20413 142.361349 
L 73.278476 151.108313 
L 73.043328 153.977872 
L 76.842677 156.989897 
L 76.790696 159.744482 
L 17.651304 164.174568 
L 17.854491 168.786707 
L 74.796276 168.214624 
L 75.098237 171.028002 
L 59.109533 176.374534 
L 59.675815 179.677103 
L 35.680227 188.39792 
L 36.636135 192.431213 
L 30.891075 198.394804 
L 32.163675 202.573736 
L 52.151685 200.078403 
L 53.46671 203.588022 
L 32.408939 216.710661 
L 34.256679 220.832812 
L 93.27573 196.021965 
L 94.442878 198.24056 
L 71.86405 214.421832 
L 73.620317 217.30456 
L 35.57568 247.092032 
L 38.377111 251.099592 
L 95.667025 213.064059 
L 97.368831 215.199041 
L 61.757297 250.073511 
L 64.639527 253.25639 
L 76.011959 247.995013 
L 78.821789 250.730722 
L 68.632908 268.148366 
L 72.080053 271.106124 
L 94.054606 250.2956 
L 96.927851 252.462871 
L 110.994564 238.242397 
L 113.480454 239.882998 
L 85.37208 293.013556 
L 89.592763 295.432704 
L 101.082885 283.667137 
L 105.001929 285.596924 
L 108.034998 289.573826 
L 112.136324 291.282103 
L 133.223173 246.106633 
L 135.945342 247.044429 
L 128.058151 284.258725 
L 131.982459 285.340058 
L 136.285949 284.757498 
L 140.221871 285.579884 
L 139.438452 315.894209 
L 144.351822 316.602079 
L 151.855066 290.442143 
L 155.962028 290.772191 
L 161.406287 250.740413 
L 164.260218 250.78978 
L 167.137866 251.538339 
L 170.014051 251.407098 
L 179.026641 317.201876 
L 183.961553 316.66436 
L 186.307335 299.596991 
L 190.685112 298.839258 
L 187.164485 262.500031 
L 190.375428 261.73369 
L 200.795316 285.888898 
L 204.734917 284.682409 
L 203.838427 269.979227 
L 207.276288 268.684922 
L 215.986414 279.603932 
L 219.720891 277.922909 
L 227.691409 284.569319 
L 231.576221 282.51781 
L 209.725305 236.837763 
L 212.118215 235.374748 
L 250.791394 287.403694 
L 254.753903 284.624469 
L 238.332641 255.509285 
L 241.298481 253.13756 
L 245.231227 251.858772 
L 248.078875 249.271946 
L 229.09415 224.813007 
L 231.099399 222.746938 
L 249.605946 235.246148 
L 251.929094 232.529985 
L 242.945347 221.026855 
L 244.824703 218.527146 
L 265.54855 228.846867 
L 267.662609 225.632598 
L 269.674558 222.353447 
L 271.582409 219.012657 
L 279.009118 218.482876 
L 280.790654 214.850501 
L 266.52341 204.261048 
L 267.863954 201.028283 
L 269.844738 198.02259 
L 270.98749 194.688479 
L 256.108929 186.691201 
L 256.902188 183.794576 
L 260.685004 181.563846 
L 261.314786 178.525875 
L 303.945318 182.143833 
L 304.571946 177.745377 
L 251.626013 168.27331 
L 251.84239 165.526745 
L 265.383825 163.196631 
L 291.48079 160.02 
z
" clip-path="url(#p42de819151)" style="fill: #0000ff; opacity: 0.5; stroke: #000000; stroke-width: 1.5; stroke-linejoin: miter"/>
   </g>
  </g>
 </g>
 <defs>
  <clipPath id="p42de819151">
   <rect x="0" y="-0" width="323.208558" height="332.64"/>
  </clipPath>
 </defs>
</svg>
