<?xml version="1.0" encoding="utf-8" standalone="no"?>
<!DOCTYPE svg PUBLIC "-//W3C//DTD SVG 1.1//EN"
  "http://www.w3.org/Graphics/SVG/1.1/DTD/svg11.dtd">
<svg xmlns:xlink="http://www.w3.org/1999/xlink" width="331.717562pt" height="332.64pt" viewBox="0 0 331.717562 332.64" xmlns="http://www.w3.org/2000/svg" version="1.1">
 <metadata>
  <rdf:RDF xmlns:dc="http://purl.org/dc/elements/1.1/" xmlns:cc="http://creativecommons.org/ns#" xmlns:rdf="http://www.w3.org/1999/02/22-rdf-syntax-ns#">
   <cc:Work>
    <dc:type rdf:resource="http://purl.org/dc/dcmitype/StillImage"/>
    <dc:date>2023-12-09T18:06:23.568958</dc:date>
    <dc:format>image/svg+xml</dc:format>
    <dc:creator>
     <cc:Agent>
      <dc:title>Matplotlib v3.8.2, https://matplotlib.org/</dc:title>
     </cc:Agent>
    </dc:creator>
   </cc:Work>
  </rdf:RDF>
 </metadata>
 <defs>
  <style type="text/css">*{stroke-linejoin: round; stroke-linecap: butt}</style>
 </defs>
 <g id="figure_1">
  <g id="patch_1">
   <path d="M 0 332.64 
L 331.717562 332.64 
L 331.717562 0 
L 0 0 
L 0 332.64 
z
" style="fill: none"/>
  </g>
  <g id="axes_1">
   <g id="patch_2">
    <path d="M 264.412378 163.577054 
L 264.365955 160.624843 
L 303.139235 155.224927 
L 302.811054 151.059187 
L 282.616579 149.401519 
L 282.115445 145.883937 
L 268.998618 144.771817 
L 268.358649 141.684702 
L 269.163246 138.223079 
L 268.317289 135.134026 
L 306.722194 119.274616 
L 305.261886 115.013996 
L 271.860455 123.408916 
L 270.547375 120.242381 
L 284.971578 109.658231 
L 283.219663 106.086252 
L 277.870856 104.489549 
L 275.959938 101.143388 
L 238.350199 120.47623 
L 236.961477 118.364781 
L 239.367726 113.489386 
L 237.758819 111.349398 
L 278.975991 73.727224 
L 276.097291 70.361525 
L 236.597282 101.431563 
L 234.61062 99.384646 
L 233.649029 96.240226 
L 231.500599 94.288575 
L 230.811852 90.564795 
L 228.486376 88.705157 
L 235.912611 73.391763 
L 233.044655 71.380236 
L 232.243293 66.098552 
L 229.147837 64.206003 
L 220.638166 72.179406 
L 217.739643 70.648741 
L 227.29968 42.55667 
L 223.46646 40.831199 
L 200.890667 86.598515 
L 198.455277 85.681625 
L 215.831961 23.519085 
L 211.405828 22.163597 
L 200.83642 44.847959 
L 197.088327 43.953418 
L 193.313961 43.177167 
L 189.517055 42.519975 
L 188.954711 15.926513 
L 184.303139 15.419858 
L 176.370748 68.271807 
L 173.371249 68.134939 
L 170.372683 70.479564 
L 167.445566 70.530197 
L 163.547523 55.58583 
L 160.15549 55.858424 
L 160.007907 81.493894 
L 157.43223 81.864972 
L 151.709483 65.908542 
L 148.647871 66.548246 
L 144.810729 64.202517 
L 141.698886 65.059977 
L 139.6048 69.040041 
L 136.647634 70.058795 
L 111.646899 15.725807 
L 107.02724 17.649979 
L 106.89353 29.069261 
L 102.695769 31.136292 
L 119.343233 70.944498 
L 116.455965 72.599378 
L 96.510306 47.507281 
L 92.89741 49.891667 
L 119.854084 94.164528 
L 117.696652 95.791866 
L 99.825195 78.515719 
L 97.185634 80.780546 
L 70.046491 57.082345 
L 66.74774 60.294077 
L 60.64488 60.891389 
L 57.470543 64.396845 
L 92.497341 99.353572 
L 90.51659 101.8385 
L 43.470948 71.758649 
L 40.646793 75.798718 
L 35.93226 78.651706 
L 33.328564 82.9254 
L 35.748579 89.949284 
L 33.500195 94.223167 
L 74.640701 118.776436 
L 73.279476 121.813212 
L 34.982581 110.347766 
L 33.375948 114.635648 
L 55.386014 126.527986 
L 54.278035 130.16634 
L 49.428618 132.859465 
L 48.52266 136.682001 
L 25.057912 136.274243 
L 24.271372 140.86136 
L 84.438592 152.966481 
L 84.147533 155.678286 
L 89.501885 158.730508 
L 89.389557 161.280262 
L 32.066902 164.012452 
L 32.149047 168.365476 
L 82.388226 169.405645 
L 82.615064 172.17379 
L 70.303206 176.57039 
L 70.761295 179.714972 
L 15.078071 193.766359 
L 16.104143 198.638838 
L 78.885385 187.436609 
L 79.680888 190.305976 
L 41.259089 206.071069 
L 42.659103 210.114275 
L 37.536421 216.771169 
L 39.274711 220.926134 
L 51.205382 220.245152 
L 53.046143 223.968617 
L 41.085478 235.349871 
L 43.406168 239.384061 
L 55.906306 236.910527 
L 58.268739 240.477945 
L 83.211126 227.514762 
L 85.264635 230.228302 
L 53.78911 260.901217 
L 56.90691 264.523342 
L 67.072051 261.482175 
L 70.201549 264.686369 
L 94.041282 245.667038 
L 96.660184 248.03108 
L 77.143996 277.377711 
L 80.768305 280.257361 
L 82.156022 286.249864 
L 86.056813 288.967539 
L 111.219531 257.881177 
L 114.213978 259.699057 
L 118.405281 259.325212 
L 121.44158 260.916443 
L 108.07648 297.760937 
L 112.326388 299.657925 
L 137.492638 248.061654 
L 140.165348 249.058305 
L 126.859604 299.987645 
L 131.170238 301.292949 
L 149.713937 246.136481 
L 152.320073 246.749821 
L 153.925289 252.756867 
L 156.737502 253.234519 
L 154.181584 297.85686 
L 158.411713 298.304155 
L 165.476052 250.162275 
L 168.200974 250.278028 
L 171.11586 290.092905 
L 175.0935 290.011588 
L 180.410572 309.652445 
L 184.998612 309.26921 
L 184.394815 269.294937 
L 187.711956 268.806383 
L 195.753021 292.420774 
L 199.791674 291.56366 
L 210.861264 317.52 
L 215.681621 316.175439 
L 200.981401 255.749839 
L 203.864454 254.746464 
L 226.889055 303.859164 
L 231.271961 302.017409 
L 228.059707 284.237927 
L 231.8251 282.369065 
L 228.564426 267.867841 
L 231.814858 265.991203 
L 232.855156 260.665418 
L 235.877006 258.657432 
L 231.767141 246.936973 
L 234.357877 244.969984 
L 223.612202 227.053418 
L 225.581787 225.352669 
L 242.837115 239.748388 
L 245.196353 237.436889 
L 242.81734 230.720517 
L 244.892732 228.414103 
L 248.742373 227.554862 
L 250.715299 225.063717 
L 262.950953 229.936618 
L 264.991742 226.997547 
L 277.727368 230.755897 
L 279.786611 227.351818 
L 280.338827 223.126088 
L 282.156881 219.643672 
L 243.435582 197.369441 
L 244.462037 195.060078 
L 250.606206 194.739362 
L 251.54642 192.205839 
L 259.98868 192.057614 
L 260.839935 189.230412 
L 279.355304 190.822063 
L 280.158135 187.386543 
L 304.327758 188.257355 
L 305.037602 184.037914 
L 315.884834 181.03143 
L 316.361765 176.452182 
L 258.700973 168.573953 
L 258.814487 165.79885 
L 264.410521 162.986519 
L 264.345531 160.034658 
L 303.084081 154.390986 
L 302.729707 150.227393 
L 282.525206 148.69677 
L 282.001958 145.182409 
L 268.878396 144.152808 
L 268.219024 141.069779 
L 269.001833 137.603165 
L 268.136465 134.519493 
L 306.440863 118.418852 
L 304.953787 114.167501 
L 271.605816 122.77233 
L 270.272846 119.614116 
L 284.630195 108.939456 
L 282.85585 105.378567 
L 277.497106 103.815536 
L 275.56518 100.48146 
L 238.077778 120.050463 
L 236.675804 117.94779 
L 239.051341 113.057357 
L 237.429007 110.927531 
L 278.408741 73.046869 
L 275.50893 69.699341 
L 236.205115 101.017198 
L 234.205619 98.982816 
L 233.22427 95.844506 
L 231.063607 93.906406 
L 230.351454 90.187031 
L 228.014328 88.342056 
L 235.344103 72.982258 
L 232.463553 70.988809 
L 231.628987 65.71227 
L 228.521689 63.839227 
L 220.062335 71.865993 
L 217.154243 70.353588 
L 226.537408 42.201946 
L 222.693411 40.500618 
L 200.405915 86.409017 
L 197.964806 85.507463 
L 214.95018 23.236863 
L 210.515609 21.909239 
L 200.089081 44.659628 
L 196.335437 43.788678 
L 192.556263 43.036182 
L 188.755298 42.402883 
L 188.025708 15.813483 
L 183.371041 15.336095 
L 175.771216 68.236888 
L 172.770916 68.118888 
L 169.787156 70.482326 
L 166.860415 70.551368 
L 162.868458 55.631813 
L 159.478205 55.925736 
L 159.491858 81.561627 
L 156.918566 81.948897 
L 151.095575 66.028775 
L 148.038047 66.687723 
L 144.186228 64.366174 
L 141.07984 65.243188 
L 139.010827 69.236344 
L 136.060127 70.273677 
L 110.718163 16.099004 
L 106.110697 18.052193 
L 106.048811 29.47209 
L 101.864133 31.565481 
L 118.761639 71.268197 
L 115.884837 72.941204 
L 95.781757 47.97505 
L 92.183929 50.382111 
L 119.418521 94.484555 
L 117.271367 96.125429 
L 99.291606 78.962026 
L 96.666341 81.24341 
L 69.378687 57.716367 
L 66.100201 60.948783 
L 60.001219 61.584467 
L 56.848991 65.109818 
L 92.094954 99.845555 
L 90.129872 102.342891 
L 42.895975 72.559526 
L 40.097285 76.617277 
L 35.400789 79.499861 
L 32.824024 83.789846 
L 35.288168 90.79837 
L 33.066708 95.086309 
L 74.360827 119.380343 
L 73.018729 122.42562 
L 34.650479 111.201267 
L 33.070847 115.499169 
L 55.155273 127.252841 
L 54.070199 130.898091 
L 49.237817 133.621662 
L 48.355918 137.449821 
L 24.889069 137.189651 
L 24.131395 141.781624 
L 84.37356 153.508089 
L 84.099562 156.221671 
L 89.473006 159.240156 
L 89.376716 161.790566 
L 32.072379 164.883229 
L 32.1819 169.23565 
L 82.426628 169.959823 
L 82.670871 172.726487 
L 70.386909 177.200434 
L 70.864766 180.342073 
L 15.271019 194.743398 
L 16.327716 199.609327 
L 79.03726 188.012461 
L 79.850794 190.876768 
L 41.528909 206.8832 
L 42.954325 210.917521 
L 37.873612 217.606502 
L 39.638 221.750452 
L 51.564152 220.994447 
L 53.428296 224.706261 
L 41.539448 236.162516 
L 43.885466 240.182029 
L 56.369799 237.629926 
L 58.754622 241.182415 
L 83.614985 228.062615 
L 85.68552 230.763186 
L 54.403533 261.633457 
L 57.544052 265.235902 
L 67.689865 262.130862 
L 70.839454 265.315309 
L 94.559094 246.146417 
L 97.192812 248.49394 
L 77.861585 277.962736 
L 81.503933 280.819535 
L 82.929312 286.803191 
L 86.847118 289.496278 
L 111.813823 258.252272 
L 114.819645 260.051283 
L 119.008514 259.651085 
L 122.05476 261.223188 
L 108.921655 298.151012 
L 113.183411 300.021232 
L 138.024652 248.2677 
L 140.703577 249.247522 
L 127.718413 300.25954 
L 132.037171 301.537707 
L 150.2336 246.265701 
L 152.843542 246.862637 
L 154.486507 252.859469 
L 157.301669 253.319424 
L 155.026451 297.956958 
L 159.259309 298.377639 
L 166.020724 250.19228 
L 168.74632 250.290893 
L 171.911561 290.08665 
L 175.888611 289.980317 
L 181.329108 309.587344 
L 185.914646 309.175261 
L 185.059446 269.205575 
L 188.373449 268.696168 
L 196.562876 292.259519 
L 200.596058 291.37702 
L 211.82868 317.263226 
L 216.640485 315.888374 
L 201.560513 255.556426 
L 204.437198 254.534937 
L 227.770235 303.501854 
L 232.141471 301.632569 
L 228.817457 283.873643 
L 232.571021 281.981136 
L 229.219208 267.500706 
L 232.457772 265.603662 
L 233.464554 260.271439 
L 236.473715 258.244487 
L 232.290217 246.550108 
L 234.86853 244.566864 
L 224.010382 226.718237 
L 225.969232 225.005134 
L 243.314759 239.292042 
L 245.659412 236.965751 
L 243.238205 230.264474 
L 245.299049 227.945053 
L 249.14321 227.061616 
L 251.10043 224.558112 
L 263.366489 229.353961 
L 265.388752 226.402113 
L 278.147764 230.080289 
L 280.185557 226.663326 
L 280.711184 222.434207 
L 282.5073 218.940424 
L 243.646675 196.910169 
L 244.658585 194.594396 
L 250.800615 194.235043 
L 251.724876 191.695657 
L 260.166037 191.494337 
L 260.999493 188.661837 
L 279.524507 190.137006 
L 280.305715 186.696504 
L 304.480337 187.415287 
L 305.163629 183.191464 
L 315.991737 180.116817 
L 316.439858 175.534659 
L 258.730656 168.01924 
L 258.826714 165.243478 
L 264.40495 162.396006 
L 264.321395 159.444612 
L 303.023684 153.557409 
L 302.643131 149.396127 
L 282.429402 147.992609 
L 281.884061 144.481608 
L 268.754283 143.534568 
L 268.075533 140.455747 
L 268.836524 136.984278 
L 267.951778 133.90611 
L 306.154155 117.564874 
L 304.64037 113.32296 
L 271.347178 122.137359 
L 269.994371 118.987591 
L 284.284299 108.222843 
L 282.487592 104.673183 
L 277.119124 103.143887 
L 275.166267 99.822027 
L 237.802684 119.626418 
L 236.387513 117.532604 
L 238.732245 112.627327 
L 237.096548 110.507746 
L 277.837224 72.370094 
L 274.916416 69.040872 
L 235.810349 100.605307 
L 233.798098 98.583541 
L 232.797031 95.451466 
L 230.624221 93.526993 
L 229.888689 89.812171 
L 227.540005 87.981932 
L 234.773031 72.576337 
L 231.88 70.601045 
L 231.012264 65.329858 
L 227.893248 63.476396 
L 219.484545 71.556207 
L 216.566998 70.062123 
L 225.772919 41.852023 
L 221.918298 40.174905 
L 199.919981 86.222572 
L 197.47325 85.336389 
L 214.066641 22.960192 
L 209.623807 21.660486 
L 199.340573 44.476002 
L 195.581525 43.628677 
L 191.797694 42.899965 
L 187.992821 42.290584 
L 187.096012 15.706299 
L 182.438436 15.258195 
L 175.171477 68.205741 
L 172.170494 68.106613 
L 169.201657 70.488771 
L 166.275409 70.576218 
L 162.189695 55.682066 
L 158.801358 55.997306 
L 158.976246 81.632604 
L 156.40544 82.036051 
L 150.482436 66.152867 
L 147.429113 66.831032 
L 143.562768 64.533755 
L 140.461958 65.430289 
L 138.4181 69.436379 
L 135.473983 70.492249 
L 109.791792 16.478035 
L 105.196702 18.460163 
L 105.206642 29.880224 
L 101.035213 31.999893 
L 118.182092 71.595548 
L 115.315869 73.286615 
L 95.056164 48.447391 
L 91.473546 50.877034 
L 118.984979 94.807315 
L 116.848187 96.461661 
L 98.760834 79.41168 
L 96.14997 81.70953 
L 68.714883 58.354577 
L 65.456793 61.607548 
L 59.361929 62.281578 
L 56.231936 65.826686 
L 91.695671 100.340058 
L 89.746333 102.849705 
L 42.326051 73.364003 
L 39.552937 77.439276 
L 34.874664 80.351341 
L 32.324931 84.657447 
L 34.833106 91.650335 
L 32.638659 95.952161 
L 74.084756 119.985998 
L 72.761838 123.039656 
L 34.323753 112.056839 
L 32.771183 116.364591 
L 54.929096 127.979132 
L 53.866971 131.631135 
L 49.051813 134.385045 
L 48.194009 138.218675 
L 24.725988 138.106104 
L 23.99721 142.702751 
L 84.311936 154.050094 
L 84.055011 156.765346 
L 89.447332 159.749976 
L 89.367085 162.300941 
L 32.083333 165.753954 
L 32.220225 170.1056 
L 82.468514 170.513748 
L 82.730154 173.278821 
L 70.474573 177.829939 
L 70.97218 180.96851 
L 15.470108 195.719204 
L 16.557388 200.578391 
L 79.192755 188.587347 
L 80.024287 191.44648 
L 41.803831 207.693619 
L 43.254593 211.718895 
L 38.21605 218.439698 
L 40.006466 222.57247 
L 51.927628 221.74147 
L 53.815079 225.441487 
L 41.998521 236.972289 
L 44.369772 240.976968 
L 56.837807 238.346395 
L 59.244926 241.883815 
L 84.022281 228.607917 
L 86.109761 231.295412 
L 55.022549 262.361818 
L 58.185663 265.94444 
L 68.311746 262.77565 
L 71.481301 265.940226 
L 95.079911 246.622529 
L 97.728342 248.953441 
L 78.582838 278.543237 
L 82.243083 281.377071 
L 83.706067 287.351644 
L 87.640734 290.020037 
L 112.410438 258.619622 
L 115.427515 260.399693 
L 119.613784 259.973157 
L 122.669857 261.526069 
L 109.769267 298.535763 
L 114.042701 300.379142 
L 138.55795 248.470397 
L 141.242986 249.43335 
L 128.578915 300.526029 
L 132.905627 301.777008 
L 150.754066 246.39165 
L 153.367711 246.972159 
L 155.04836 252.958539 
L 157.866359 253.400779 
L 155.871931 298.05174 
L 160.107351 298.44579 
L 166.565573 250.218859 
L 169.291736 250.300327 
L 172.707207 290.075389 
L 176.68351 289.944045 
L 182.247216 309.516467 
L 186.830072 309.075552 
L 185.723502 269.112035 
L 189.034236 268.581795 
L 197.371701 292.093173 
L 201.399252 291.185325 
L 212.794462 317.000372 
L 217.597525 315.595284 
L 202.138397 255.359373 
L 205.008601 254.319812 
L 228.64915 303.139009 
L 233.008543 301.242269 
L 229.572902 283.5046 
L 233.314489 281.588522 
L 229.871668 267.12946 
L 233.098237 265.212085 
L 234.071462 259.873636 
L 237.067815 257.827797 
L 232.810848 246.159962 
L 235.376637 244.16054 
L 224.406446 226.380558 
L 226.354483 224.655169 
L 243.789524 238.832701 
L 246.119499 236.491709 
L 243.656193 229.805793 
L 245.702408 227.473456 
L 249.540937 226.565859 
L 251.482372 224.050095 
L 263.778352 228.768702 
L 265.78201 225.804193 
L 278.563903 229.40205 
L 280.580165 225.972338 
L 281.079183 221.739997 
L 282.853289 218.234987 
L 243.854875 196.449578 
L 244.8522 194.127487 
L 250.991849 193.729511 
L 251.90012 191.184362 
L 260.339848 190.929957 
L 261.155473 188.09227 
L 279.689398 189.450898 
L 280.448952 186.005551 
L 304.627616 186.572275 
L 305.284329 182.344238 
L 316.092886 179.201549 
L 316.512178 174.616664 
L 258.75685 167.464352 
L 258.835448 164.68804 
L 264.395665 161.805541 
L 264.293549 158.854731 
L 302.958046 152.724228 
L 302.551327 148.565422 
L 282.329171 147.289065 
L 281.761759 143.781563 
L 268.626284 142.917121 
L 267.928184 139.84263 
L 268.667326 136.366443 
L 267.763238 133.2939 
L 305.862082 116.712717 
L 304.321647 112.480407 
L 271.084552 121.504027 
L 269.711961 118.36283 
L 283.933902 107.508419 
L 282.114906 103.97013 
L 276.736925 102.474628 
L 274.763214 99.165117 
L 237.524929 119.204111 
L 236.096617 117.119239 
L 238.410451 112.199313 
L 236.761455 110.090061 
L 277.261461 71.696928 
L 274.319772 68.386141 
L 235.413001 100.195908 
L 233.388074 98.186838 
L 232.367327 95.06112 
L 230.182457 93.150351 
L 229.423575 89.440229 
L 227.063427 87.624797 
L 234.199417 72.174016 
L 231.29402 70.216958 
L 230.393149 64.951334 
L 227.262537 63.117525 
L 218.904817 71.250062 
L 215.977931 69.774357 
L 225.006245 41.506915 
L 221.141152 39.854073 
L 199.432884 86.039187 
L 196.980627 85.16841 
L 213.181379 22.689084 
L 208.730459 21.417346 
L 198.590925 44.297086 
L 194.826622 43.473421 
L 191.038282 42.768521 
L 187.229652 42.183083 
L 186.165661 15.604964 
L 181.505358 15.186163 
L 174.571553 68.178366 
L 171.570006 68.098115 
L 168.61621 70.498898 
L 165.69057 70.604748 
L 161.511261 55.736587 
L 158.124974 56.073131 
L 158.46109 81.706822 
L 155.892872 82.126431 
L 149.87009 66.280813 
L 146.821092 66.978168 
L 142.940375 64.705253 
L 139.845265 65.621273 
L 137.826644 69.640138 
L 134.889225 70.714504 
L 108.867824 16.862885 
L 104.285291 18.873874 
L 104.367057 30.293646 
L 100.209042 32.439509 
L 117.604616 71.926537 
L 114.749085 73.635598 
L 94.333556 48.924287 
L 90.76629 51.376414 
L 118.553475 95.132795 
L 116.427131 96.800548 
L 98.232901 79.864664 
L 95.63654 82.178889 
L 68.055107 58.996949 
L 64.81754 62.270347 
L 58.727036 62.982697 
L 55.619402 66.54742 
L 91.299505 100.837064 
L 89.36599 103.358921 
L 41.761197 74.172048 
L 39.01377 78.264682 
L 34.353904 81.206114 
L 31.831305 85.528171 
L 34.383411 92.505145 
L 32.216064 96.820689 
L 73.812501 120.593377 
L 72.508814 123.655296 
L 34.002413 112.914449 
L 32.476968 117.231881 
L 54.707492 128.706832 
L 53.668356 132.365442 
L 48.870614 135.149583 
L 48.036939 138.988532 
L 24.568674 139.023563 
L 23.86882 143.624703 
L 84.253722 154.592477 
L 84.013879 157.30929 
L 89.424866 160.259947 
L 89.360664 162.811366 
L 32.099762 166.624593 
L 32.264022 170.975293 
L 82.513883 171.067399 
L 82.792909 173.830772 
L 70.566194 178.45888 
L 71.083531 181.59426 
L 15.675331 196.693738 
L 16.793151 201.545991 
L 79.351861 189.161243 
L 80.20136 192.01509 
L 42.083845 208.502292 
L 43.559895 212.518364 
L 38.563722 219.270724 
L 40.380095 223.392153 
L 52.295795 222.486193 
L 54.20648 226.174265 
L 42.462677 237.779159 
L 44.859069 241.768844 
L 57.310312 239.059907 
L 59.739632 242.582117 
L 84.432999 229.150647 
L 86.53734 231.82496 
L 55.646133 263.086272 
L 58.831718 266.648929 
L 68.93767 263.416514 
L 72.127067 266.561092 
L 95.603712 247.095356 
L 98.26675 249.409565 
L 79.307729 279.11919 
L 82.985724 281.929947 
L 84.486256 287.8952 
L 88.437628 290.538794 
L 113.009351 258.983213 
L 116.037564 260.744273 
L 120.221067 260.291416 
L 123.286847 261.825077 
L 110.619283 298.915175 
L 114.904226 300.731641 
L 139.092514 248.669735 
L 141.783552 249.615782 
L 129.441076 300.7871 
L 133.77557 302.010841 
L 151.275314 246.514322 
L 153.892558 247.078382 
L 155.610825 253.054073 
L 158.43155 253.478581 
L 156.71799 298.141202 
L 160.955805 298.508606 
L 167.110579 250.24201 
L 169.837201 250.306331 
L 173.502767 290.059125 
L 177.478165 289.902775 
L 183.16486 309.439817 
L 187.744852 308.970087 
L 186.386957 269.01432 
L 189.69429 268.463268 
L 198.179463 291.921743 
L 202.201225 290.988582 
L 213.758572 316.731449 
L 218.552702 315.296181 
L 202.71503 255.15869 
L 205.578639 254.101098 
L 229.525766 302.770644 
L 233.873143 300.846523 
L 230.32601 283.130813 
L 234.055472 281.19124 
L 230.52178 266.754117 
L 233.736226 264.816487 
L 234.675856 259.472022 
L 237.659283 257.407379 
L 233.329016 245.766548 
L 235.882179 243.751029 
L 224.800379 226.040394 
L 226.737525 224.302787 
L 244.26139 238.370383 
L 246.576596 236.014783 
L 244.071287 229.344492 
L 246.102793 226.999331 
L 249.935538 226.067611 
L 251.861112 223.539686 
L 264.186526 228.180865 
L 266.171499 225.203813 
L 278.975768 228.721207 
L 280.970419 225.278882 
L 281.442808 221.043486 
L 283.194835 217.527387 
L 244.060174 195.987688 
L 245.042875 193.659369 
L 251.179899 193.222787 
L 252.072145 190.671976 
L 260.510105 190.364494 
L 261.307867 187.521734 
L 279.849971 188.763767 
L 280.58784 185.313711 
L 304.76959 185.728353 
L 305.399699 181.49627 
L 316.188276 178.285663 
L 316.578724 173.698232 
L 258.779554 166.909309 
L 258.840689 164.132558 
L 264.382666 161.215145 
L 264.261994 158.265036 
L 302.887168 151.891477 
L 302.454301 147.735311 
L 282.224517 146.586165 
L 281.635056 143.082301 
L 268.494405 142.30049 
L 267.776981 139.230451 
L 268.494246 135.749684 
L 267.57085 132.682888 
L 305.564655 115.862413 
L 303.997632 111.639875 
L 270.817947 120.872359 
L 269.425627 117.739857 
L 283.579019 106.796212 
L 281.737805 103.269434 
L 276.350525 101.807787 
L 274.356038 98.510754 
L 237.244523 118.78356 
L 235.803126 116.707713 
L 238.085971 111.77333 
L 236.423742 109.674492 
L 276.681476 71.027396 
L 273.719022 67.735176 
L 235.013086 99.789015 
L 232.975563 97.792721 
L 231.935178 94.673485 
L 229.738333 92.776495 
L 228.956132 89.071219 
L 226.584612 87.270668 
L 233.623284 71.77531 
L 230.705636 69.836565 
L 229.771665 64.57671 
L 226.629581 62.762627 
L 218.323176 70.94757 
L 215.387066 69.490302 
L 224.237415 41.166636 
L 220.362004 39.538136 
L 198.944642 85.858869 
L 196.486958 85.003533 
L 212.29443 22.423548 
L 207.835599 21.17983 
L 197.840166 44.12289 
L 194.070757 43.322916 
L 190.278059 42.641856 
L 186.465822 42.080384 
L 185.234691 15.509483 
L 180.571846 15.12 
L 173.971469 68.154765 
L 170.969477 68.093393 
L 168.030839 70.512706 
L 165.105922 70.636955 
L 160.833184 55.795374 
L 157.44908 56.15321 
L 157.946411 81.78428 
L 155.380883 82.220032 
L 149.25856 66.412608 
L 146.214009 67.129126 
L 142.319073 64.880663 
L 139.229785 65.816131 
L 137.236481 69.847612 
L 134.305877 70.940432 
L 107.946294 17.253538 
L 103.3765 19.293309 
L 103.530088 30.712341 
L 99.385651 32.884313 
L 117.029233 72.261152 
L 114.184507 73.988138 
L 93.613962 49.405719 
L 90.062189 51.880233 
L 118.124028 95.460983 
L 116.008215 97.142077 
L 97.707827 80.320958 
L 95.126073 82.651467 
L 67.399384 59.643457 
L 64.182469 62.937154 
L 58.096566 63.687796 
L 55.011414 67.271993 
L 90.906473 101.336551 
L 88.988857 103.870518 
L 41.201437 74.983631 
L 38.479804 79.093463 
L 33.838531 82.064145 
L 31.343165 86.401982 
L 33.939102 93.362767 
L 31.79894 97.691856 
L 73.54407 121.202457 
L 72.259667 124.272514 
L 33.686474 113.774064 
L 32.188213 118.101004 
L 54.490468 129.43591 
L 53.474364 133.100984 
L 48.694228 135.915245 
L 47.884713 139.759361 
L 24.417133 139.941994 
L 23.746232 144.547445 
L 84.19892 155.135215 
L 83.976169 157.853483 
L 89.405607 160.770049 
L 89.357453 163.321822 
L 32.121667 167.495112 
L 32.313287 171.844692 
L 82.562734 171.620754 
L 82.859134 174.382317 
L 70.661769 179.087233 
L 71.198816 182.219296 
L 15.886679 197.666963 
L 17.034995 202.512089 
L 79.514575 189.734127 
L 80.382006 192.582575 
L 42.36894 209.309188 
L 43.870219 213.315898 
L 38.916613 220.099547 
L 40.758872 224.20947 
L 52.668638 223.228585 
L 54.602481 226.904567 
L 42.931899 238.583093 
L 45.353336 242.557628 
L 57.787296 239.770433 
L 60.23872 243.277295 
L 84.847123 229.690782 
L 86.968242 232.351807 
L 56.274262 263.80679 
L 59.48219 267.34934 
L 69.567613 264.053429 
L 72.776724 267.177885 
L 96.130476 247.564879 
L 98.808017 249.862293 
L 80.036227 279.690572 
L 83.731828 282.478141 
L 85.269848 288.433839 
L 89.237769 291.052528 
L 113.610539 259.343029 
L 116.649768 261.085009 
L 120.830341 260.605849 
L 123.905706 262.120197 
L 111.471668 299.289234 
L 115.767951 301.078714 
L 139.62832 248.865707 
L 142.325255 249.794811 
L 130.304862 301.042743 
L 134.646967 302.239199 
L 151.797323 246.633714 
L 154.418063 247.181301 
L 156.17388 253.146068 
L 158.997218 253.552826 
L 157.564595 298.225342 
L 161.804637 298.566085 
L 167.65572 250.261734 
L 170.382692 250.308904 
L 174.298208 290.037858 
L 178.272545 289.856508 
L 184.082004 309.357397 
L 188.658952 308.858871 
L 187.049783 268.912435 
L 190.353585 268.340592 
L 198.986131 291.745236 
L 203.001945 290.786799 
L 214.720971 316.456468 
L 219.50598 314.991075 
L 203.29039 254.954384 
L 206.147291 253.878803 
L 230.400048 302.396772 
L 234.735237 300.445346 
L 231.076753 282.752296 
L 234.793942 280.789306 
L 231.169518 266.374694 
L 234.371714 264.416885 
L 235.277712 259.066616 
L 238.248095 256.983249 
L 233.844699 245.369884 
L 236.385135 243.338346 
L 225.192164 225.69776 
L 227.118343 223.948004 
L 244.730339 237.905106 
L 247.030684 235.534991 
L 244.483472 228.880589 
L 246.500189 226.522698 
L 250.326997 225.56689 
L 252.236634 223.026904 
L 264.590994 227.590472 
L 266.557205 224.600994 
L 279.383343 228.037787 
L 281.356304 224.582985 
L 281.802046 220.344702 
L 283.531923 216.817653 
L 244.262564 195.524515 
L 245.230601 193.190062 
L 251.364758 192.714889 
L 252.240943 190.158517 
L 260.676803 189.797971 
L 261.45667 186.95025 
L 280.006219 188.075639 
L 280.722374 184.621011 
L 304.906254 184.883555 
L 305.509733 180.647593 
L 316.277903 177.369195 
L 316.639491 172.779399 
L 258.798766 166.354135 
L 264.412378 163.577054 
z
" clip-path="url(#p52b900443d)" style="fill: #0000ff; opacity: 0.5; stroke: #000000; stroke-width: 1.5; stroke-linejoin: miter"/>
   </g>
  </g>
 </g>
 <defs>
  <clipPath id="p52b900443d">
   <rect x="0" y="-0" width="331.717562" height="332.64"/>
  </clipPath>
 </defs>
</svg>
