<?xml version="1.0" encoding="utf-8" standalone="no"?>
<!DOCTYPE svg PUBLIC "-//W3C//DTD SVG 1.1//EN"
  "http://www.w3.org/Graphics/SVG/1.1/DTD/svg11.dtd">
<svg xmlns:xlink="http://www.w3.org/1999/xlink" width="334.8pt" height="328.045386pt" viewBox="0 0 334.8 328.045386" xmlns="http://www.w3.org/2000/svg" version="1.1">
 <metadata>
  <rdf:RDF xmlns:dc="http://purl.org/dc/elements/1.1/" xmlns:cc="http://creativecommons.org/ns#" xmlns:rdf="http://www.w3.org/1999/02/22-rdf-syntax-ns#">
   <cc:Work>
    <dc:type rdf:resource="http://purl.org/dc/dcmitype/StillImage"/>
    <dc:date>2023-12-09T18:06:23.693918</dc:date>
    <dc:format>image/svg+xml</dc:format>
    <dc:creator>
     <cc:Agent>
      <dc:title>Matplotlib v3.8.2, https://matplotlib.org/</dc:title>
     </cc:Agent>
    </dc:creator>
   </cc:Work>
  </rdf:RDF>
 </metadata>
 <defs>
  <style type="text/css">*{stroke-linejoin: round; stroke-linecap: butt}</style>
 </defs>
 <g id="figure_1">
  <g id="patch_1">
   <path d="M 0 328.045386 
L 334.8 328.045386 
L 334.8 0 
L 0 0 
L 0 328.045386 
z
" style="fill: none"/>
  </g>
  <g id="axes_1">
   <g id="patch_2">
    <path d="M 319.15356 163.458444 
L 319.078543 158.687878 
L 288.727133 155.819328 
L 288.426969 152.009213 
L 271.457157 150.303286 
L 270.992096 147.038904 
L 247.79671 148.11169 
L 247.274438 145.592329 
L 300.528771 129.248433 
L 299.387325 125.080387 
L 267.143377 131.024477 
L 266.07428 127.905262 
L 278.200233 119.55249 
L 276.764965 116.091295 
L 297.498795 102.182096 
L 295.507822 98.122701 
L 292.694276 94.510955 
L 290.464481 90.606417 
L 275.374111 94.868397 
L 273.164118 91.508267 
L 236.16179 113.454779 
L 234.555582 111.31838 
L 242.670567 101.125143 
L 240.67347 98.79019 
L 279.688899 57.879451 
L 276.31376 54.401942 
L 265.224593 59.145503 
L 261.896413 56.122158 
L 227.114454 91.181156 
L 224.812387 89.340237 
L 252.763944 45.771094 
L 249.021404 43.146152 
L 250.297825 32.586524 
L 246.141952 30.045641 
L 225.10258 58.283645 
L 221.767138 56.52225 
L 227.150702 36.168666 
L 223.118904 34.353808 
L 211.743416 51.140038 
L 208.189968 49.802216 
L 209.731213 32.704976 
L 205.599122 31.439538 
L 188.457926 81.103205 
L 185.8581 80.482716 
L 183.092278 80.724784 
L 180.483206 80.273189 
L 185.144378 21.573289 
L 180.674439 21.086418 
L 174.876981 42.14805 
L 171.059034 41.973835 
L 167.195029 14.911154 
L 162.524492 14.991944 
L 161.543432 72.295485 
L 158.679979 72.525601 
L 150.477512 31.084952 
L 146.32378 31.68338 
L 146.847871 56.593283 
L 143.497972 57.293223 
L 129.428156 16.569269 
L 124.828427 17.836713 
L 131.875093 54.734456 
L 128.474151 55.906093 
L 119.822121 43.899788 
L 116.086473 45.455753 
L 123.6108 70.825265 
L 120.719874 72.248793 
L 114.033784 66.809342 
L 111.021324 68.535978 
L 108.491722 71.026277 
L 105.614592 72.925082 
L 95.305253 64.647322 
L 92.234074 66.963893 
L 89.744988 69.986809 
L 86.844444 72.475567 
L 112.370389 105.100149 
L 110.562698 106.860153 
L 78.051635 79.928969 
L 75.469476 82.780476 
L 75.431507 87.731156 
L 73.095961 90.661188 
L 81.798852 101.573332 
L 79.895386 104.296317 
L 66.657786 99.871257 
L 64.70829 103.071151 
L 74.711435 112.805231 
L 73.164629 115.745506 
L 53.719013 110.325917 
L 52.104631 113.927466 
L 63.913387 122.80488 
L 62.686331 126.079725 
L 54.757194 127.201517 
L 53.672905 130.76208 
L 38.071422 130.643793 
L 37.103616 134.727291 
L 45.633533 140.597717 
L 44.97496 144.438524 
L 87.799732 153.643118 
L 87.530487 156.151677 
L 73.067079 157.813623 
L 72.936249 160.783347 
L 84.020004 163.720743 
L 84.06949 166.343162 
L 60.422209 170.535382 
L 60.697631 173.896398 
L 79.985262 174.795777 
L 80.384967 177.539582 
L 79.311144 180.572364 
L 79.892811 183.334508 
L 15.218182 203.090954 
L 16.539572 207.857188 
L 89.700831 189.011325 
L 90.5427 191.442623 
L 91.460599 193.846248 
L 92.453618 196.219824 
L 67.688917 210.829859 
L 69.227692 213.942471 
L 75.726561 214.308565 
L 77.37074 217.166736 
L 75.089218 222.540587 
L 76.992545 225.414727 
L 96.930318 215.086034 
L 98.588459 217.277128 
L 45.403277 265.197643 
L 48.662513 268.984084 
L 71.655391 254.100861 
L 74.552741 257.067364 
L 74.293015 263.428634 
L 77.482345 266.307593 
L 69.675181 282.595203 
L 73.469433 285.60988 
L 105.678207 249.185392 
L 108.404181 251.084574 
L 109.074233 256.259462 
L 112.020953 258.048368 
L 122.2378 246.487067 
L 124.870746 247.866913 
L 112.799184 280.852478 
L 116.51732 282.512104 
L 128.962389 261.858501 
L 132.075321 263.019311 
L 142.487585 241.384702 
L 144.950089 242.130373 
L 145.105449 252.041722 
L 147.901738 252.699812 
L 142.143732 299.346713 
L 146.428859 300.074538 
L 155.723718 259.662333 
L 158.754366 259.982794 
L 160.454122 283.205606 
L 164.222684 283.365692 
L 167.840784 250.838338 
L 170.587995 250.782175 
L 173.385751 251.432218 
L 176.148893 251.201416 
L 181.591207 271.36187 
L 184.976925 270.863217 
L 196.742501 313.134232 
L 201.434142 312.138535 
L 195.419404 270.269353 
L 198.763934 269.33645 
L 212.796194 300.731493 
L 217.089929 299.237165 
L 225.184981 307.190723 
L 229.675682 305.303671 
L 230.685536 296.106205 
L 234.824996 294.051683 
L 241.215732 296.032659 
L 245.347673 293.647081 
L 215.926285 238.993514 
L 218.277295 237.431294 
L 229.514651 247.958865 
L 232.140832 245.964964 
L 267.830579 283.495666 
L 271.55517 280.279458 
L 229.233403 228.55636 
L 231.249666 226.580895 
L 234.366965 225.624154 
L 236.288495 223.488729 
L 236.297237 219.78519 
L 238.034222 217.59196 
L 234.539047 211.639003 
L 236.020768 209.505081 
L 252.243636 216.605223 
L 253.872752 213.912175 
L 295.918703 233.131347 
L 298.045842 229.056888 
L 289.953532 220.241325 
L 291.67833 216.360797 
L 279.954793 207.24295 
L 281.275838 203.683232 
L 282.484304 200.083737 
L 283.578997 196.448025 
L 317.69436 201.074517 
L 318.802796 196.331234 
L 261.953146 180.892993 
L 262.454591 177.912314 
L 265.228187 175.201447 
L 265.549058 172.120608 
L 264.186704 168.94132 
L 264.311258 165.896322 
L 319.150559 162.50418 
L 319.045539 157.734181 
L 288.676688 155.05658 
L 288.352566 151.248428 
L 271.372361 149.649265 
L 270.886778 146.387874 
L 247.698598 147.606524 
L 247.160491 145.090497 
L 300.310977 128.411985 
L 299.143339 124.2512 
L 266.937413 130.397969 
L 265.84872 127.28554 
L 277.921898 118.856668 
L 276.46489 115.404569 
L 297.110829 101.36524 
L 295.094364 97.318448 
L 292.258158 93.724469 
L 290.00385 89.834032 
L 274.940583 94.190838 
L 272.709501 90.844673 
L 235.845936 113.023475 
L 234.226323 110.897221 
L 242.277038 100.653147 
L 240.265295 98.330801 
L 279.022647 57.175485 
L 275.625702 53.719273 
L 264.56659 58.532485 
L 261.21946 55.530132 
L 226.65869 90.807195 
L 224.345091 88.980792 
L 252.02207 45.236711 
L 248.263094 42.635359 
L 249.473075 32.067912 
L 245.301304 29.553217 
L 224.439949 57.922989 
L 221.093496 56.182607 
L 226.34894 35.795566 
L 222.305807 34.006101 
L 211.03612 50.863544 
L 207.474329 49.548098 
L 208.908011 32.441503 
L 204.768043 31.202078 
L 187.939542 80.972571 
L 185.335865 80.368446 
L 182.571621 80.627904 
L 179.95976 80.192728 
L 184.25165 21.464673 
L 179.778737 21.005926 
L 174.11386 42.103603 
L 170.294893 41.953405 
L 166.260755 14.915561 
L 161.590819 15.025724 
L 160.970185 72.334302 
L 158.108236 72.582423 
L 149.645293 31.194183 
L 145.495407 31.818724 
L 146.176157 56.724838 
L 142.830727 57.445833 
L 128.505058 16.811176 
L 123.913391 18.107524 
L 131.191984 54.960218 
L 127.798479 56.153221 
L 119.071107 44.20157 
L 115.345319 45.781 
L 123.029056 71.102686 
L 120.147141 72.544369 
L 113.426972 67.147076 
L 110.425431 68.892625 
L 107.911542 71.398784 
L 105.046411 73.315648 
L 94.685213 65.102891 
L 91.628665 67.438732 
L 89.158641 70.477243 
L 86.273807 72.984195 
L 112.004437 105.447588 
L 110.207852 107.218927 
L 77.52805 80.492751 
L 74.963876 83.360442 
L 74.957045 88.311263 
L 72.639973 91.255926 
L 81.411324 102.113119 
L 79.525021 104.848021 
L 66.259852 100.506306 
L 64.330519 103.718398 
L 74.394689 113.389371 
L 72.866406 116.339317 
L 53.387088 111.042137 
L 51.79539 114.653768 
L 63.659746 123.456736 
L 62.453311 126.739234 
L 54.531387 127.910874 
L 53.469513 131.478185 
L 37.867595 131.458026 
L 36.925491 135.547529 
L 45.492161 141.364191 
L 44.857758 145.209064 
L 87.739574 154.144132 
L 87.486112 156.654335 
L 73.033443 158.407215 
L 72.921293 161.377703 
L 84.023303 164.24533 
L 84.089282 166.867386 
L 60.468836 171.208251 
L 60.765391 174.567469 
L 80.058296 175.345522 
L 80.475251 178.086759 
L 79.420524 181.126234 
L 80.019552 183.884665 
L 15.470458 204.047487 
L 16.821799 208.805316 
L 89.863081 189.499684 
L 90.720225 191.925638 
L 91.653223 194.323442 
L 92.661152 196.690726 
L 67.988829 211.456228 
L 69.547151 214.559101 
L 76.048193 214.884313 
L 77.710316 217.732087 
L 75.462638 223.12018 
L 77.384004 225.982293 
L 97.256421 215.528407 
L 98.928309 217.709029 
L 46.045573 265.963101 
L 49.328559 269.728968 
L 72.227375 254.701427 
L 75.143325 257.649649 
L 74.923613 264.012427 
L 78.130987 266.87127 
L 70.426417 283.20766 
L 74.239555 286.198414 
L 106.218602 249.572071 
L 108.956467 251.454071 
L 109.659053 256.624642 
L 112.616966 258.394979 
L 122.760897 246.769649 
L 125.402469 248.132908 
L 113.538606 281.193745 
L 117.267107 282.829952 
L 129.58203 262.098486 
L 132.702201 263.239694 
L 142.978191 241.540025 
L 145.445336 242.270194 
L 145.663029 252.180369 
L 148.463402 252.82086 
L 142.998893 299.503053 
L 147.288512 300.203912 
L 156.329017 259.734047 
L 159.361621 260.035441 
L 161.207402 283.247103 
L 164.976896 283.383484 
L 168.390345 250.834017 
L 171.137149 250.760577 
L 173.938938 251.393011 
L 176.700574 251.144834 
L 182.269578 271.270661 
L 185.652093 270.750723 
L 197.683297 312.946903 
L 202.368583 311.921718 
L 196.09063 270.091194 
L 199.429226 269.137274 
L 213.658667 300.443441 
L 217.942918 298.922138 
L 226.087833 306.824625 
L 230.566577 304.909366 
L 231.518564 295.705731 
L 235.645021 293.625215 
L 242.048089 295.565958 
L 246.164945 293.15444 
L 216.400399 238.686997 
L 218.741537 237.110021 
L 230.044883 247.566707 
L 232.658472 245.556329 
L 268.583559 282.86182 
L 272.287849 279.622251 
L 229.64161 228.166355 
L 231.645408 226.178248 
L 234.756628 225.20192 
L 236.664689 223.054452 
L 236.650138 219.350932 
L 238.373295 217.14682 
L 234.840748 211.215963 
L 236.309019 209.072765 
L 252.576222 216.070733 
L 254.188368 213.367492 
L 296.354364 232.321839 
L 298.455836 228.234082 
L 290.30824 219.469589 
L 292.008599 215.578291 
L 280.227947 206.534358 
L 281.526577 202.966401 
L 282.712381 199.359377 
L 283.784185 195.716852 
L 317.927972 200.128687 
L 319.006554 195.378526 
L 262.06093 180.298142 
L 262.543618 177.314369 
L 265.30011 174.586111 
L 265.601598 171.503315 
L 264.219274 168.332658 
L 264.324674 165.286937 
L 319.141556 161.549953 
L 319.006538 156.780709 
L 288.621447 154.294164 
L 288.273381 150.488126 
L 271.283453 148.995791 
L 270.777367 145.737518 
L 247.597311 147.101985 
L 247.043391 144.589392 
L 300.087926 127.576924 
L 298.894142 123.423564 
L 266.727513 129.772769 
L 265.619266 126.667249 
L 277.639193 118.162609 
L 276.160502 114.719743 
L 296.717733 100.550841 
L 294.675856 96.51681 
L 291.817102 92.940741 
L 289.53837 89.06456 
L 274.502803 93.516018 
L 272.250719 90.183952 
L 235.527375 112.594166 
L 233.894421 110.47814 
L 241.880548 100.183635 
L 239.854238 97.873987 
L 278.35198 56.475724 
L 274.933365 53.040945 
L 263.904744 57.923617 
L 260.538797 54.942376 
L 226.200583 90.436108 
L 223.875543 88.624292 
L 251.276849 44.707004 
L 247.501586 42.129345 
L 248.645081 31.554498 
L 244.457576 29.066091 
L 223.775064 57.566507 
L 220.41773 55.847207 
L 225.544847 35.427515 
L 221.49054 33.663515 
L 210.327099 50.591505 
L 206.757105 49.298487 
L 208.083169 32.183212 
L 203.935487 30.96985 
L 187.420347 80.845201 
L 184.812922 80.257463 
L 182.050364 80.534302 
L 179.435818 80.115561 
L 183.358257 21.361674 
L 178.882547 20.931068 
L 173.350475 42.063957 
L 169.530638 41.937781 
L 165.326528 14.925844 
L 160.657377 15.065376 
L 160.397194 72.376725 
L 157.536861 72.642841 
L 148.813777 31.308646 
L 144.667902 31.959275 
L 145.505284 56.860615 
L 142.164454 57.602637 
L 127.5835 17.058883 
L 123.000077 18.384085 
L 130.510308 55.190272 
L 127.124373 56.404595 
L 118.322005 44.50807 
L 114.606224 46.110901 
L 122.449069 71.383761 
L 119.576278 72.84354 
L 112.822296 67.488621 
L 109.831793 69.253013 
L 107.333716 71.774934 
L 104.480698 73.70978 
L 94.068051 65.562351 
L 91.026255 67.91737 
L 88.57539 70.971356 
L 85.706381 73.496402 
L 111.640678 105.797322 
L 109.855269 107.579925 
L 77.008021 81.059816 
L 74.461934 83.943577 
L 74.48624 88.894343 
L 72.187735 91.853521 
L 81.027198 102.655332 
L 79.158134 105.402044 
L 65.86592 101.143845 
L 63.956827 104.368008 
L 74.081623 113.975492 
L 72.571924 116.934991 
L 53.059675 111.76043 
L 51.490724 115.382 
L 63.410211 124.110175 
L 62.224445 127.400196 
L 54.310046 128.621636 
L 53.270629 132.195556 
L 37.668893 132.273524 
L 36.752528 136.368872 
L 45.355612 142.131539 
L 44.745404 145.980326 
L 87.682569 154.645515 
L 87.444899 157.157263 
L 73.003541 159.001007 
L 72.910075 161.972141 
L 84.029902 164.769887 
L 84.112371 167.391476 
L 60.519693 171.880814 
L 60.83737 175.2381 
L 80.134788 175.894797 
L 80.568974 178.633356 
L 79.533385 181.679405 
L 80.14975 184.434015 
L 15.728746 205.002415 
L 17.109984 209.751651 
L 90.0284 189.987012 
L 90.900785 192.407527 
L 91.848845 194.799416 
L 92.871643 197.160313 
L 68.292675 212.080698 
L 69.870481 215.173709 
L 76.37344 215.458027 
L 78.053441 218.295291 
L 75.839695 223.697414 
L 77.779024 226.547386 
L 97.585299 215.96872 
L 99.27087 218.138784 
L 46.69267 266.724504 
L 49.999276 270.469649 
L 72.803125 255.298384 
L 75.737559 258.228208 
L 75.55787 264.592242 
L 78.783162 267.430856 
L 71.18149 283.81538 
L 75.013363 286.782093 
L 106.761419 249.955344 
L 109.511067 251.820087 
L 110.246159 256.986137 
L 113.215147 258.737836 
L 123.285761 247.048936 
L 125.935854 248.395554 
L 114.28016 281.530353 
L 118.018878 283.143079 
L 130.203169 262.334568 
L 133.330456 263.45613 
L 143.469763 241.69226 
L 145.941452 242.406898 
L 146.22147 252.315508 
L 149.025816 252.938373 
L 143.855019 299.654011 
L 148.148962 300.327877 
L 156.934756 259.801953 
L 159.969195 260.084267 
L 161.960928 283.283861 
L 165.731205 283.396532 
L 168.939869 250.82624 
L 171.686157 250.735526 
L 174.491868 251.350325 
L 177.251889 251.084785 
L 182.947363 271.175188 
L 186.32654 270.633986 
L 198.622896 312.753662 
L 203.301642 311.699029 
L 196.760723 269.908817 
L 200.093253 268.933918 
L 214.51931 300.149971 
L 218.793908 298.601752 
L 226.988365 306.452856 
L 231.454974 304.509466 
L 232.349057 295.300025 
L 236.462347 293.193598 
L 242.877494 295.09403 
L 246.979102 292.656667 
L 216.872575 238.377504 
L 219.203748 236.785835 
L 230.572638 247.171223 
L 233.173531 245.144446 
L 269.332538 282.223251 
L 273.016379 278.960448 
L 230.047355 227.773791 
L 232.03861 225.773121 
L 235.143628 224.777244 
L 237.038145 222.617818 
L 237.000301 218.914462 
L 238.709561 216.699556 
L 235.139783 210.791034 
L 236.594545 208.638644 
L 252.905439 215.534162 
L 254.500552 212.820836 
L 296.784926 231.509607 
L 298.860646 227.408714 
L 290.658088 218.695638 
L 292.333939 214.793722 
L 280.49664 205.824062 
L 281.772803 202.248008 
L 282.935897 198.633598 
L 283.984771 194.984403 
L 318.15563 199.181406 
L 319.204315 194.424555 
L 262.16497 179.702626 
L 262.628882 176.715875 
L 265.368161 173.970335 
L 265.650254 170.885703 
L 264.248016 167.723803 
L 264.334258 164.677479 
L 319.126552 160.595803 
L 318.961541 155.827502 
L 288.561412 153.532111 
L 288.189415 149.728338 
L 271.190437 148.342889 
L 270.663869 145.087863 
L 247.492853 146.598092 
L 246.92314 144.089033 
L 299.859628 126.743281 
L 298.639745 122.597513 
L 266.513686 129.148901 
L 265.385928 126.050413 
L 277.352128 117.470343 
L 275.851812 114.036844 
L 296.319522 99.73893 
L 294.252314 95.717821 
L 291.371125 92.159802 
L 289.068059 88.29803 
L 274.060787 92.843966 
L 271.787791 89.52613 
L 235.206121 112.16687 
L 233.559891 110.061156 
L 241.481113 99.716626 
L 239.440317 97.419768 
L 277.676925 55.780195 
L 274.236775 52.366985 
L 263.239081 57.318925 
L 259.854451 54.358911 
L 225.740152 90.06791 
L 223.403762 88.270753 
L 250.528311 44.181995 
L 246.736911 41.628131 
L 247.813873 31.046301 
L 243.610801 28.58428 
L 223.107949 57.214214 
L 219.739868 55.516063 
L 224.738456 35.064529 
L 220.673134 33.326063 
L 209.616382 50.32393 
L 206.038326 49.05339 
L 207.256718 31.930115 
L 203.101487 30.742863 
L 186.900361 80.721098 
L 184.289291 80.149771 
L 181.528529 80.443979 
L 178.911401 80.041691 
L 182.464234 21.264296 
L 177.985904 20.861848 
L 172.586855 42.029112 
L 168.7663 41.926964 
L 164.392384 14.942003 
L 159.724203 15.110899 
L 159.82448 72.42275 
L 156.965878 72.70685 
L 147.982998 31.428336 
L 143.841296 32.105028 
L 144.835277 57.000608 
L 141.49918 57.763628 
L 126.663517 17.312382 
L 122.08852 18.666384 
L 129.830093 55.424608 
L 126.451863 56.660203 
L 117.574846 44.819275 
L 113.86922 46.445445 
L 121.870861 71.668478 
L 119.007309 73.146297 
L 112.21978 67.833962 
L 109.240434 69.617127 
L 106.758267 72.15471 
L 103.917475 74.107461 
L 93.453791 66.025684 
L 90.426867 68.399787 
L 87.995259 71.469127 
L 85.142187 74.012168 
L 111.279125 106.149337 
L 109.504963 107.943134 
L 76.491568 81.63014 
L 73.963669 84.529857 
L 74.019113 89.480373 
L 71.739264 92.453948 
L 80.646489 103.199951 
L 78.794738 105.958364 
L 65.476005 101.783849 
L 63.587229 105.019956 
L 73.772249 114.56357 
L 72.281194 117.532506 
L 52.736786 112.480768 
L 51.190643 116.112135 
L 63.16479 124.76517 
L 61.999739 128.062583 
L 54.093179 129.333777 
L 53.076261 132.914163 
L 37.475324 133.090256 
L 36.584735 137.191286 
L 45.223893 142.899731 
L 44.637903 146.752279 
L 87.628717 155.147247 
L 87.406851 157.660439 
L 72.977373 159.594975 
L 72.902597 162.566639 
L 84.0398 165.294391 
L 84.138756 167.91541 
L 60.57478 172.553044 
L 60.913565 175.908266 
L 80.214732 176.443579 
L 80.666134 179.179354 
L 79.649723 182.231856 
L 80.283401 184.982534 
L 15.993034 205.9557 
L 17.404115 210.696154 
L 90.196781 190.47329 
L 91.084372 192.888271 
L 92.047457 195.27415 
L 93.085083 197.628568 
L 68.600442 212.703246 
L 70.19767 215.786271 
L 76.702289 216.029684 
L 78.400102 218.856325 
L 76.220376 224.272265 
L 78.177591 227.109983 
L 97.91694 216.406956 
L 99.616126 218.566376 
L 47.344543 267.481822 
L 50.674639 271.206096 
L 73.382618 255.891708 
L 76.335421 258.803019 
L 76.195761 265.168056 
L 79.438842 267.986329 
L 71.940371 284.41834 
L 75.790827 287.360893 
L 107.306635 250.335196 
L 110.067957 252.182608 
L 110.835526 257.343933 
L 113.815473 259.076923 
L 123.812371 247.324916 
L 126.470881 248.65484 
L 115.023817 281.862292 
L 118.772604 283.451471 
L 130.82578 262.566739 
L 133.960059 263.66861 
L 143.962284 241.8414 
L 146.438418 242.540478 
L 146.78075 252.447131 
L 149.588958 253.052346 
L 144.712079 299.799582 
L 149.010174 300.446428 
L 157.540909 259.866048 
L 160.577064 260.129272 
L 162.71467 283.31588 
L 166.485581 283.404835 
L 169.489333 250.815007 
L 172.234996 250.707022 
L 175.044518 251.304163 
L 177.802814 251.021269 
L 183.624533 271.075453 
L 187.00024 270.513009 
L 199.561262 312.554515 
L 204.233281 311.470476 
L 197.429656 269.722229 
L 200.755988 268.72639 
L 215.378091 299.851094 
L 219.642867 298.27602 
L 227.88654 306.075431 
L 232.340839 304.103987 
L 233.176982 294.889105 
L 237.276942 292.756849 
L 243.703915 294.616896 
L 247.790112 292.153785 
L 217.342796 238.065048 
L 219.663912 236.458749 
L 231.097895 246.772427 
L 233.685989 244.729332 
L 270.077486 281.579984 
L 273.740733 278.294076 
L 230.450624 227.378682 
L 232.429256 225.365528 
L 235.527949 224.350142 
L 237.408847 222.178843 
L 237.347712 218.475798 
L 239.043008 216.250186 
L 235.436139 210.364233 
L 236.877335 208.202736 
L 253.231275 214.995531 
L 254.809291 212.272226 
L 297.210371 230.694683 
L 299.260258 226.580816 
L 291.003062 217.919502 
L 292.654338 214.007123 
L 280.760859 205.11209 
L 282.014506 201.528081 
L 283.154845 197.906426 
L 284.180746 194.250708 
L 318.377326 198.232712 
L 319.396072 193.46936 
L 262.265263 179.106466 
L 262.710381 176.116857 
L 265.432338 173.354142 
L 265.695024 170.267797 
L 264.272928 167.114779 
L 264.340008 164.067973 
L 319.105547 159.641765 
L 318.910549 154.874597 
L 288.496585 152.770451 
L 288.100672 148.969092 
L 271.093317 147.690585 
L 270.546286 144.438935 
L 247.385227 146.094867 
L 246.799745 143.58944 
L 299.626091 125.911091 
L 298.380158 121.773077 
L 266.295938 128.526391 
L 265.148715 125.435056 
L 277.060715 116.779896 
L 275.538834 113.355901 
L 295.916213 98.929539 
L 293.823755 94.921512 
L 290.920246 91.381684 
L 288.592937 87.534473 
L 273.614553 92.174706 
L 271.320734 88.871232 
L 234.882186 111.741602 
L 233.222744 109.646284 
L 241.078748 99.252138 
L 239.023547 96.968162 
L 276.99751 55.088925 
L 273.535961 51.697419 
L 262.569629 56.71843 
L 259.166449 53.779763 
L 225.277414 89.702615 
L 222.929767 87.920188 
L 249.776486 43.661704 
L 245.969099 41.131737 
L 246.979486 30.543342 
L 242.761012 28.107805 
L 222.438632 56.866124 
L 219.059937 55.18919 
L 223.929797 34.706622 
L 219.853622 32.993759 
L 208.903995 50.06083 
L 205.318019 48.81282 
L 206.428691 31.68222 
L 202.266075 30.521125 
L 186.379605 80.600268 
L 183.764993 80.045374 
L 181.006136 80.35694 
L 178.38653 79.971121 
L 181.569616 21.172543 
L 177.088844 20.798269 
L 171.823031 41.999072 
L 168.00191 41.920954 
L 163.458359 14.964036 
L 158.791333 15.162289 
L 159.252068 72.472376 
L 156.395309 72.77445 
L 147.152988 31.553249 
L 143.015624 32.255977 
L 144.166165 57.144813 
L 140.834933 57.928799 
L 125.745148 17.571662 
L 121.178757 18.954411 
L 129.151365 55.663218 
L 125.780973 56.920036 
L 116.829659 45.135174 
L 113.134333 46.784618 
L 121.294455 71.956826 
L 118.440254 73.452625 
L 111.619448 68.183085 
L 108.651376 69.984954 
L 106.185218 72.538098 
L 103.356764 74.508678 
L 92.842457 66.49287 
L 89.830525 68.885965 
L 87.418269 71.970538 
L 84.581248 74.531472 
L 110.919794 106.503618 
L 109.156949 108.308539 
L 75.978713 82.2037 
L 73.469102 85.11926 
L 73.55568 90.069329 
L 71.294579 93.057184 
L 80.269214 103.746953 
L 78.434848 106.516958 
L 65.090123 102.426293 
L 63.221738 105.674215 
L 73.466581 115.153583 
L 71.994227 118.131838 
L 52.418434 113.203123 
L 50.895161 116.844142 
L 62.923493 125.421695 
L 61.779205 128.726371 
L 53.880796 130.047267 
L 52.886417 133.633979 
L 37.286896 133.908189 
L 36.422117 138.01474 
L 45.097007 143.668736 
L 44.535259 147.524894 
L 87.578023 155.649307 
L 87.371967 158.163846 
L 72.954942 160.189096 
L 72.898857 163.161171 
L 84.052996 165.818823 
L 84.168435 168.439168 
L 60.634093 173.224914 
L 60.993974 176.577939 
L 80.298126 176.991848 
L 80.766725 179.72473 
L 79.769533 182.783564 
L 80.420498 185.530202 
L 16.263313 206.907303 
L 17.704181 211.638789 
L 90.368216 190.9585 
L 91.270979 193.367851 
L 92.249051 195.747625 
L 93.301464 198.095471 
L 68.912119 213.323845 
L 70.528706 216.396764 
L 77.034727 216.599261 
L 78.750284 219.415168 
L 76.604664 224.84471 
L 78.579689 227.670063 
L 98.251331 216.843098 
L 99.964065 218.991788 
L 48.001166 268.235025 
L 51.35462 271.938281 
L 73.965831 256.481376 
L 76.936886 259.374057 
L 76.837262 265.739848 
L 80.098004 268.537667 
L 72.703028 285.016514 
L 76.571915 287.934792 
L 107.85423 250.711611 
L 110.627116 252.541619 
L 111.427132 257.698014 
L 114.417919 259.412228 
L 124.340706 247.597578 
L 127.007529 248.910756 
L 115.769546 282.189546 
L 119.528254 283.755116 
L 131.449839 262.79499 
L 134.590986 263.877126 
L 144.455732 241.98744 
L 146.936214 242.67093 
L 147.340847 252.575234 
L 150.152806 253.162775 
L 145.570036 299.939759 
L 149.872116 300.55956 
L 158.147454 259.926329 
L 161.185204 260.170452 
L 163.468599 283.343157 
L 167.239995 283.408394 
L 170.038716 250.800319 
L 172.783645 250.675067 
L 175.596867 251.254526 
L 178.35333 250.954289 
L 184.301063 270.971461 
L 187.673165 270.387797 
L 200.498356 312.349469 
L 205.163465 311.236068 
L 198.097401 269.531437 
L 201.417405 268.514698 
L 216.234975 299.546821 
L 220.489761 297.944956 
L 228.782325 305.692364 
L 233.224136 303.692944 
L 234.002306 294.472985 
L 238.088774 292.314985 
L 244.527319 294.134573 
L 248.597943 291.645811 
L 217.811042 237.74964 
L 220.122009 236.128774 
L 231.620633 246.370335 
L 234.195826 244.311003 
L 270.818373 280.932045 
L 274.460882 277.623162 
L 230.851399 226.981045 
L 232.817331 224.955486 
L 235.909576 223.920631 
L 237.776781 221.737545 
L 237.692357 218.034959 
L 239.373621 215.798728 
L 235.729804 209.935576 
L 237.157377 207.765057 
L 253.553717 214.454862 
L 255.114574 211.721686 
L 297.630682 229.877099 
L 299.654654 225.750421 
L 291.343147 217.141212 
L 292.969784 213.218524 
L 281.020595 204.398471 
L 282.251676 200.806648 
L 283.369214 197.177893 
L 284.372103 193.515794 
L 318.593051 197.282642 
L 319.581818 192.512977 
L 262.361804 178.509688 
L 262.788111 175.517338 
L 265.492638 172.737559 
L 265.735908 169.649623 
L 264.294009 166.505611 
L 319.15356 163.458444 
z
" clip-path="url(#p7f6e78dc01)" style="fill: #0000ff; opacity: 0.5; stroke: #000000; stroke-width: 1.5; stroke-linejoin: miter"/>
   </g>
  </g>
 </g>
 <defs>
  <clipPath id="p7f6e78dc01">
   <rect x="0" y="0" width="334.8" height="328.045386"/>
  </clipPath>
 </defs>
</svg>
