<?xml version="1.0" encoding="utf-8" standalone="no"?>
<!DOCTYPE svg PUBLIC "-//W3C//DTD SVG 1.1//EN"
  "http://www.w3.org/Graphics/SVG/1.1/DTD/svg11.dtd">
<svg xmlns:xlink="http://www.w3.org/1999/xlink" width="334.8pt" height="317.228421pt" viewBox="0 0 334.8 317.228421" xmlns="http://www.w3.org/2000/svg" version="1.1">
 <metadata>
  <rdf:RDF xmlns:dc="http://purl.org/dc/elements/1.1/" xmlns:cc="http://creativecommons.org/ns#" xmlns:rdf="http://www.w3.org/1999/02/22-rdf-syntax-ns#">
   <cc:Work>
    <dc:type rdf:resource="http://purl.org/dc/dcmitype/StillImage"/>
    <dc:date>2023-12-09T18:06:23.803296</dc:date>
    <dc:format>image/svg+xml</dc:format>
    <dc:creator>
     <cc:Agent>
      <dc:title>Matplotlib v3.8.2, https://matplotlib.org/</dc:title>
     </cc:Agent>
    </dc:creator>
   </cc:Work>
  </rdf:RDF>
 </metadata>
 <defs>
  <style type="text/css">*{stroke-linejoin: round; stroke-linecap: butt}</style>
 </defs>
 <g id="figure_1">
  <g id="patch_1">
   <path d="M 0 317.228421 
L 334.8 317.228421 
L 334.8 0 
L 0 0 
L 0 317.228421 
z
" style="fill: none"/>
  </g>
  <g id="axes_1">
   <g id="patch_2">
    <path d="M 271.459535 157.095217 
L 271.407467 153.784107 
L 301.170199 148.592045 
L 300.836084 144.35097 
L 311.807745 138.67596 
L 311.156586 134.10532 
L 302.811757 130.999184 
L 301.923672 126.715194 
L 273.355815 129.541118 
L 272.436449 126.184007 
L 264.833213 124.997324 
L 263.775194 121.910429 
L 241.183088 127.355414 
L 240.210905 125.010966 
L 249.596037 117.784391 
L 248.318761 115.180153 
L 249.653853 111.134769 
L 248.16747 108.532001 
L 242.707324 108.450705 
L 241.139983 106.067678 
L 242.606405 101.474089 
L 240.819754 99.097684 
L 234.815744 100.211283 
L 232.993239 98.080458 
L 268.620583 60.724852 
L 265.539824 57.550653 
L 258.154921 58.961023 
L 255.023878 56.116759 
L 261.593901 41.518306 
L 257.912721 38.574538 
L 241.055236 53.794483 
L 237.770201 51.490425 
L 223.311377 66.825249 
L 220.44483 65.072654 
L 210.871984 75.542818 
L 208.285687 74.177035 
L 222.63554 36.707275 
L 218.822353 34.990821 
L 207.904274 51.270848 
L 204.55628 50.010377 
L 190.049522 83.229127 
L 187.715194 82.514247 
L 193.537158 49.847866 
L 190.151527 49.039832 
L 183.596391 64.954236 
L 180.690651 64.451293 
L 181.67524 32.767292 
L 177.758422 32.340668 
L 171.192125 75.002054 
L 168.608444 74.88416 
L 165.948607 27.95871 
L 161.888373 28.028943 
L 156.941 14.419474 
L 152.459516 14.77962 
L 152.58041 51.115398 
L 149.254883 51.594507 
L 138.677864 14.437914 
L 134.20599 15.372284 
L 135.733772 39.516115 
L 132.051866 40.530655 
L 141.065977 80.382245 
L 138.666356 81.208923 
L 130.606725 67.827865 
L 127.817538 68.989612 
L 104.030534 25.767834 
L 99.932028 27.785991 
L 105.56339 47.425365 
L 102.145086 49.384617 
L 88.045283 34.599055 
L 84.232353 37.115456 
L 78.687706 37.267014 
L 74.963289 40.076319 
L 114.564225 95.023418 
L 112.638058 96.67613 
L 93.885007 80.497043 
L 91.512323 82.807137 
L 60.010623 57.898463 
L 56.944138 61.284815 
L 81.285309 87.237593 
L 79.130793 89.940517 
L 78.308332 93.610341 
L 76.355661 96.403716 
L 53.039474 85.720528 
L 50.851223 89.312312 
L 97.345816 119.505232 
L 96.197924 121.687224 
L 93.726414 123.253425 
L 92.698162 125.547366 
L 45.952324 109.889294 
L 44.527497 113.691964 
L 71.759962 126.720583 
L 70.851587 129.703483 
L 22.352881 120.617098 
L 21.277028 125.156482 
L 67.18406 138.519168 
L 66.648921 141.64011 
L 43.325271 141.955218 
L 42.909965 145.824634 
L 34.176239 149.200287 
L 33.993257 153.353787 
L 61.612967 157.423965 
L 61.674991 160.710728 
L 48.80141 164.856253 
L 49.103455 168.542165 
L 15.218182 176.664268 
L 15.908101 181.400272 
L 82.394271 173.362337 
L 82.947157 175.98781 
L 56.803076 185.567373 
L 57.752368 188.991455 
L 71.952868 188.062921 
L 72.973135 191.009426 
L 80.508759 191.353057 
L 81.628245 194.028919 
L 77.276623 199.306462 
L 78.647779 202.080017 
L 46.49367 223.44732 
L 48.639088 227.176823 
L 100.108979 199.351759 
L 101.47027 201.407393 
L 57.623975 236.572653 
L 60.176579 239.945705 
L 71.689778 235.853263 
L 74.212808 238.784412 
L 81.851278 236.87943 
L 84.401549 239.490572 
L 93.320262 235.271227 
L 95.814297 237.522554 
L 75.461574 267.623552 
L 78.981666 270.420398 
L 111.790326 232.564066 
L 114.190109 234.235991 
L 100.683384 261.209489 
L 103.989334 263.216478 
L 101.844732 275.245714 
L 105.591437 277.209248 
L 125.937657 243.51173 
L 128.674665 244.73342 
L 114.656993 288.823237 
L 118.824271 290.377212 
L 140.377397 237.624886 
L 142.92217 238.395469 
L 140.418394 259.210584 
L 143.641848 259.969206 
L 144.497126 273.472998 
L 148.167005 274.096323 
L 154.546958 252.475683 
L 157.551667 252.793402 
L 160.117937 260.69019 
L 163.378173 260.828683 
L 166.673785 267.782558 
L 170.153779 267.711414 
L 176.018672 302.808948 
L 180.595353 302.426662 
L 176.655025 237.11928 
L 179.165963 236.749465 
L 188.312194 270.246169 
L 191.858951 269.493449 
L 190.313991 249.296959 
L 193.201069 248.491655 
L 197.267438 251.245197 
L 200.212335 250.220299 
L 210.002043 266.221098 
L 213.411519 264.788391 
L 217.766861 265.330641 
L 221.1445 263.654232 
L 214.374588 243.737929 
L 217.074982 242.178856 
L 223.877994 247.003898 
L 226.676378 245.144402 
L 249.895822 271.072787 
L 253.438121 268.383334 
L 221.386191 223.131765 
L 223.435216 221.36242 
L 242.363577 237.367898 
L 244.849845 234.931939 
L 226.418392 213.06498 
L 228.148407 211.142389 
L 233.982145 212.572876 
L 235.692947 210.412707 
L 240.457058 210.441245 
L 242.097635 208.078545 
L 278.185022 227.29754 
L 280.336945 223.740256 
L 284.403122 221.216287 
L 286.360762 217.466499 
L 277.04087 208.485648 
L 278.601871 204.973639 
L 280.768027 201.693022 
L 282.11361 198.067182 
L 283.344524 194.400826 
L 284.459551 190.697581 
L 275.018319 184.347842 
L 275.821374 180.911361 
L 289.366623 179.821562 
L 290.020268 175.936177 
L 318.789409 175.422756 
L 319.290199 170.614429 
L 263.616473 162.61814 
L 263.741937 159.550902 
L 271.457452 156.43289 
L 271.384561 153.122173 
L 301.114048 147.743023 
L 300.753266 143.504134 
L 311.689017 137.76023 
L 311.009125 133.193776 
L 302.644925 130.140186 
L 301.729914 125.861865 
L 273.180395 128.867409 
L 272.239933 125.516148 
L 264.629383 124.377307 
L 263.55197 121.297129 
L 240.994557 126.884097 
L 240.007649 124.54581 
L 249.347143 117.260351 
L 248.053514 114.664198 
L 249.363136 110.610496 
L 247.860413 108.017128 
L 242.399864 107.970175 
L 240.817565 105.597053 
L 242.255068 100.994332 
L 240.453506 98.629212 
L 234.456618 99.78055 
L 232.620748 97.66123 
L 268.012441 60.082287 
L 264.911779 56.927526 
L 257.535893 58.384316 
L 254.387023 55.559801 
L 260.8651 40.920315 
L 257.165478 37.999757 
L 240.404052 53.325425 
L 237.10459 51.042073 
L 222.7425 66.467532 
L 219.864987 64.733001 
L 210.358182 75.263166 
L 207.763346 73.913676 
L 221.877251 36.354404 
L 218.053343 34.661967 
L 207.237873 51.010341 
L 203.882018 49.770952 
L 189.584473 83.080284 
L 187.245696 82.3801 
L 192.862092 49.677748 
L 189.471445 48.891024 
L 183.016531 64.846341 
L 180.107686 64.361683 
L 180.89298 32.672117 
L 176.973557 32.270136 
L 170.675706 74.971976 
L 168.091334 74.870334 
L 165.136415 27.962541 
L 161.076703 28.058309 
L 156.043833 14.480225 
L 151.564702 14.86855 
L 151.914126 51.20285 
L 148.591677 51.702865 
L 137.781174 14.61353 
L 133.315265 15.576008 
L 134.994867 39.709752 
L 131.319416 40.747429 
L 140.583992 80.541537 
L 138.189618 81.383291 
L 130.045987 68.053188 
L 127.264162 69.232455 
L 103.205788 26.161139 
L 99.120056 28.205032 
L 104.874827 47.8086 
L 101.468913 49.789313 
L 87.276397 35.092723 
L 83.479369 37.633055 
L 77.935784 37.819483 
L 74.22911 40.652156 
L 114.174849 95.349101 
L 112.259115 97.013895 
L 93.404677 80.953074 
L 91.04657 83.278045 
L 59.388831 58.567991 
L 56.343705 61.973563 
L 80.847623 87.772736 
L 78.710149 90.489157 
L 77.910785 94.164081 
L 75.975721 96.969683 
L 52.592805 86.433351 
L 50.427187 90.038827 
L 97.110758 119.938725 
L 95.976612 122.127893 
L 93.515 123.709608 
L 92.501197 126.009971 
L 45.657803 110.646213 
L 44.25692 114.45777 
L 71.57079 127.314854 
L 70.681193 130.303408 
L 22.126299 121.522232 
L 21.079016 126.068293 
L 67.069185 139.141985 
L 66.553685 142.266232 
L 43.232478 142.728026 
L 42.841517 146.599978 
L 34.129194 150.030494 
L 33.97234 154.185062 
L 61.617103 158.081448 
L 61.699797 161.367755 
L 48.852544 165.594166 
L 49.177765 169.278105 
L 15.344245 177.613167 
L 16.063938 182.344738 
L 82.498239 173.888802 
L 83.067626 176.510745 
L 56.984312 186.254551 
L 57.955121 189.672594 
L 72.1495 188.654765 
L 73.188279 191.594795 
L 80.725916 191.891024 
L 81.862209 194.559793 
L 77.543865 199.864601 
L 78.932439 202.629477 
L 46.913354 224.198589 
L 49.082185 227.914525 
L 100.376055 199.766294 
L 101.750248 201.813326 
L 58.12599 237.253658 
L 60.699757 240.61059 
L 72.18699 236.445817 
L 74.728405 239.361039 
L 82.354743 237.408054 
L 84.921386 240.003104 
L 93.813385 235.727749 
L 96.32153 237.963345 
L 76.158528 268.191755 
L 79.696142 270.966407 
L 112.266057 232.904475 
L 114.676309 234.561274 
L 101.339499 261.619188 
L 104.658006 263.605345 
L 102.589103 275.647831 
L 106.348084 277.587762 
L 126.481964 243.762945 
L 129.226601 244.967396 
L 115.486506 289.144504 
L 119.663475 290.672238 
L 140.884393 237.785399 
L 143.433962 238.539961 
L 141.061151 259.370412 
L 144.289312 260.108745 
L 145.229504 273.606891 
L 148.903231 274.207122 
L 155.147077 252.546784 
L 158.153724 252.845598 
L 160.76961 260.72609 
L 164.030653 260.844075 
L 167.369935 267.777084 
L 170.849413 267.684055 
L 176.934934 302.744008 
L 181.50912 302.332945 
L 177.158123 237.051637 
L 179.666686 236.666037 
L 189.023411 270.104554 
L 192.565363 269.329541 
L 190.89341 249.143168 
L 193.775366 248.319722 
L 197.858972 251.047635 
L 200.797365 250.004234 
L 210.687515 265.943146 
L 214.087913 264.489023 
L 218.44658 265.00387 
L 221.813608 263.30625 
L 214.918567 243.432921 
L 217.609102 241.856894 
L 224.442326 246.639054 
L 227.22896 244.761994 
L 250.61102 270.54383 
L 254.136334 267.83215 
L 221.800431 222.783065 
L 223.838287 221.000868 
L 242.866939 236.88698 
L 245.337837 234.435432 
L 226.769218 212.68483 
L 228.487106 210.751396 
L 234.329727 212.145164 
L 236.026908 209.974277 
L 240.791105 209.972851 
L 242.41679 207.599879 
L 278.624339 226.591525 
L 280.753846 223.020777 
L 284.804068 220.471284 
L 286.738086 216.709258 
L 277.361893 207.787201 
L 278.900775 204.265444 
L 281.046255 200.971268 
L 282.369007 197.337036 
L 283.576837 193.663012 
L 284.66855 189.952827 
L 275.187569 183.662593 
L 275.968995 180.22113 
L 289.507122 179.04616 
L 290.136317 175.156741 
L 318.90166 174.462388 
L 319.372198 169.651007 
L 263.649282 162.005032 
L 263.755451 158.937066 
L 271.451203 155.77059 
L 271.357491 152.460396 
L 301.052559 146.894371 
L 300.665123 142.657835 
L 311.564532 136.845265 
L 310.855933 132.283177 
L 302.472694 129.282253 
L 301.530792 125.009773 
L 273.000742 128.194817 
L 272.039221 124.849537 
L 264.421659 123.758586 
L 263.324894 120.685244 
L 240.803066 126.413976 
L 239.801471 124.081941 
L 249.094959 116.737886 
L 247.785027 114.149921 
L 249.069128 110.088062 
L 247.550123 107.504197 
L 242.089387 107.491589 
L 240.492194 105.128465 
L 241.90072 100.516794 
L 240.084318 98.163051 
L 234.09479 99.352084 
L 232.245627 97.244353 
L 267.40027 59.443559 
L 264.279828 56.308362 
L 256.91325 57.811513 
L 253.746677 55.006858 
L 260.132553 40.326919 
L 256.414635 37.429687 
L 239.74993 52.860472 
L 236.436172 50.597917 
L 222.171384 66.1134 
L 219.283018 64.397001 
L 209.84263 74.98675 
L 207.239358 73.653607 
L 221.116758 36.00631 
L 217.282281 34.337956 
L 206.569847 50.75403 
L 203.206263 49.535772 
L 189.118498 82.934368 
L 186.775363 82.248908 
L 192.185968 49.511879 
L 188.79044 48.746496 
L 182.436004 64.742095 
L 179.524168 64.275742 
L 180.110138 32.581863 
L 176.188264 32.204541 
L 170.159108 74.945147 
L 167.574148 74.859761 
L 164.324264 27.97148 
L 160.265234 28.09278 
L 155.147065 14.546619 
L 150.670466 14.963107 
L 151.248405 51.29449 
L 147.929166 51.815392 
L 136.885606 14.794783 
L 132.425839 15.785329 
L 134.257195 39.908032 
L 130.588343 40.968805 
L 140.103018 80.703858 
L 137.713986 81.560654 
L 129.486677 68.282034 
L 126.712324 69.478773 
L 102.383532 26.559622 
L 98.310736 28.629172 
L 104.188688 48.196159 
L 100.795299 50.198253 
L 86.51063 35.591217 
L 82.729655 38.15538 
L 77.187352 38.37667 
L 73.498567 41.2326 
L 113.787529 95.677227 
L 111.882303 97.354037 
L 92.927225 81.412118 
L 90.583787 83.751874 
L 58.771262 59.241418 
L 55.747616 62.666074 
L 80.413311 88.310621 
L 78.292964 91.040432 
L 77.51673 94.720311 
L 75.599349 97.538027 
L 52.150628 87.148969 
L 50.00773 90.767995 
L 96.87843 120.373688 
L 95.758075 122.569946 
L 93.30646 124.167112 
L 92.307145 126.473805 
L 45.368049 111.40497 
L 43.991166 115.225262 
L 71.385359 127.910303 
L 70.514576 130.904393 
L 21.905414 122.428774 
L 20.886744 126.981332 
L 66.958229 139.765513 
L 66.462389 142.89294 
L 43.144548 143.501402 
L 42.777947 147.375736 
L 34.087373 150.86098 
L 33.956651 155.016453 
L 61.625373 158.738891 
L 61.728734 162.024614 
L 48.908317 166.331743 
L 49.256702 170.013564 
L 15.476274 178.561255 
L 16.225712 183.288205 
L 82.605515 174.414602 
L 83.191382 177.032913 
L 57.169867 186.940575 
L 58.162154 190.352445 
L 72.349851 189.245361 
L 73.407101 192.1788 
L 80.946451 192.427616 
L 82.099507 195.089185 
L 77.814613 200.421048 
L 79.220548 203.177136 
L 47.337754 224.947203 
L 49.529914 228.649425 
L 100.645732 200.179142 
L 102.032773 202.21749 
L 58.632277 237.931493 
L 61.227108 241.27217 
L 72.687918 237.035232 
L 75.247619 239.934412 
L 82.861523 237.933501 
L 85.444436 240.512356 
L 94.30937 236.181161 
L 96.831526 238.400938 
L 76.859042 268.755563 
L 80.414037 271.507911 
L 112.74392 233.241885 
L 115.164545 234.883493 
L 101.998177 262.024753 
L 105.329111 263.989999 
L 103.335989 276.045259 
L 107.107097 277.961509 
L 127.027839 244.01073 
L 129.779997 245.197895 
L 116.318024 289.460547 
L 120.504519 290.961981 
L 141.392388 237.94272 
L 143.946652 238.681232 
L 141.7049 259.526194 
L 144.937641 260.244209 
L 145.962711 273.736175 
L 149.64014 274.313289 
L 155.747631 252.614108 
L 158.756098 252.894007 
L 161.421496 260.75789 
L 164.683216 260.855363 
L 168.066037 267.767233 
L 171.544862 267.652321 
L 177.850769 302.673306 
L 182.422279 302.233483 
L 177.660786 236.980832 
L 180.166874 236.579462 
L 189.733723 269.958469 
L 193.270731 269.161194 
L 191.47185 248.985736 
L 194.34857 248.14418 
L 198.449253 250.846355 
L 201.381025 249.784495 
L 211.371226 265.660887 
L 214.762411 264.185407 
L 219.12423 264.67283 
L 222.480515 262.954067 
L 215.460618 243.124497 
L 218.141187 241.53158 
L 225.004354 246.270667 
L 227.779127 244.376119 
L 251.322877 270.010384 
L 254.831066 267.276586 
L 222.21247 222.431767 
L 224.239076 220.636788 
L 243.367267 236.402906 
L 245.822697 233.935866 
L 227.117646 212.30248 
L 228.82334 210.35828 
L 234.674611 211.715273 
L 236.358106 209.533756 
L 241.122199 209.502365 
L 242.732927 207.119216 
L 279.059207 225.882761 
L 281.166213 222.29869 
L 285.200321 219.723774 
L 287.110639 215.949658 
L 277.678518 207.086749 
L 279.195219 203.555383 
L 281.319938 200.247778 
L 282.619807 196.605299 
L 283.804505 192.923751 
L 284.872862 189.206773 
L 275.352506 182.976294 
L 276.112272 179.529984 
L 289.642741 178.26989 
L 290.247462 174.37659 
L 319.007868 173.501334 
L 319.448136 168.687088 
L 263.678233 161.39173 
L 263.765105 158.323157 
L 271.440789 155.108341 
L 271.32626 151.798803 
L 300.985733 146.046123 
L 300.57166 141.812107 
L 311.434295 135.9311 
L 310.697017 131.37356 
L 302.295069 128.425421 
L 301.326315 124.158949 
L 272.816861 127.523369 
L 271.834319 124.184202 
L 264.210046 123.141182 
L 263.093974 120.074799 
L 240.608622 125.945067 
L 239.592379 123.619379 
L 248.839494 116.217018 
L 247.513311 113.637343 
L 248.77184 109.567488 
L 247.236614 106.993228 
L 241.775906 107.014964 
L 240.163883 104.661933 
L 241.543376 100.041494 
L 239.712206 97.699222 
L 233.730275 98.925902 
L 231.867892 96.829843 
L 266.784094 58.808694 
L 263.643995 55.693185 
L 256.287016 57.242638 
L 253.102867 54.457955 
L 259.396287 39.738142 
L 255.660221 36.864351 
L 239.092897 52.399642 
L 235.764974 50.157974 
L 221.598052 65.762867 
L 218.698948 64.064669 
L 209.32535 74.713583 
L 206.713745 73.396839 
L 220.35409 35.663005 
L 216.509196 34.018802 
L 205.900221 50.501926 
L 202.529042 49.304847 
L 188.651614 82.791387 
L 186.304214 82.120677 
L 191.508815 49.350266 
L 188.108541 48.606254 
L 181.854834 64.641502 
L 178.940122 64.193472 
L 179.326743 32.496535 
L 175.402574 32.143886 
L 169.642351 74.921567 
L 167.056906 74.852441 
L 163.512185 27.985527 
L 159.453999 28.132354 
L 154.250733 14.618651 
L 149.776842 15.063286 
L 150.583273 51.390316 
L 147.267376 51.932084 
L 135.991196 14.981664 
L 131.537747 16.00024 
L 133.520785 40.110948 
L 129.858677 41.194775 
L 139.623075 80.8692 
L 137.239479 81.741005 
L 128.928818 68.514392 
L 126.162047 69.728557 
L 101.563798 26.963269 
L 97.504099 29.058394 
L 103.505 48.588024 
L 100.124271 50.611422 
L 85.748014 36.094517 
L 81.983241 38.68241 
L 76.442439 38.938553 
L 72.77169 41.817627 
L 113.402281 96.007783 
L 111.507639 97.696542 
L 92.45267 81.874155 
L 90.123993 84.228604 
L 58.157941 59.918715 
L 55.155894 63.362321 
L 79.982391 88.851227 
L 77.879254 91.59432 
L 77.12618 95.279008 
L 75.226559 98.108728 
L 51.71296 87.867355 
L 49.592866 91.499786 
L 96.648842 120.810104 
L 95.542323 123.013365 
L 93.100802 124.625918 
L 92.116015 126.938851 
L 45.083072 112.165534 
L 43.730244 115.99441 
L 71.203676 128.506907 
L 70.351742 131.506414 
L 21.690234 123.336687 
L 20.700218 127.895561 
L 66.851197 140.389726 
L 66.375036 143.52021 
L 43.061483 144.275316 
L 42.719257 148.151879 
L 34.050775 151.691713 
L 33.946191 155.847926 
L 61.637778 159.39627 
L 61.761803 162.681277 
L 48.968729 167.068954 
L 49.340263 170.748511 
L 15.614264 179.508493 
L 16.393416 184.230637 
L 82.716097 174.939717 
L 83.31842 177.554291 
L 57.359733 187.625418 
L 58.373459 191.03098 
L 72.553913 189.834686 
L 73.629591 192.761417 
L 81.170357 192.962809 
L 82.34013 195.617074 
L 78.088855 200.975781 
L 79.512097 203.722972 
L 47.766855 225.693133 
L 49.982256 229.381494 
L 100.918002 200.590285 
L 102.317835 202.619869 
L 59.142818 238.60613 
L 61.758608 241.930421 
L 73.192544 237.621485 
L 75.770428 240.504509 
L 83.371597 238.45575 
L 85.970679 241.018309 
L 94.808197 236.631444 
L 97.344264 238.835314 
L 77.563088 269.314955 
L 81.135324 272.044889 
L 113.223896 233.576284 
L 115.654797 235.202634 
L 102.659393 262.426167 
L 106.002621 264.370424 
L 104.08536 276.437981 
L 107.868445 278.330475 
L 127.575262 244.255078 
L 130.334832 245.42491 
L 117.151512 289.771355 
L 121.347368 291.246428 
L 141.901363 238.096842 
L 144.460221 238.819275 
L 142.349616 259.677925 
L 145.58681 260.375593 
L 146.696715 273.860845 
L 150.377702 274.414818 
L 156.348596 252.677655 
L 159.358764 252.938626 
L 162.073569 260.78559 
L 165.335838 260.862546 
L 168.762064 267.753004 
L 172.240096 267.616215 
L 178.766141 302.596846 
L 183.334795 302.128279 
L 178.162993 236.906866 
L 180.666508 236.489742 
L 190.443103 269.807919 
L 193.975026 268.988414 
L 192.049289 248.824669 
L 194.920659 247.965037 
L 199.038255 250.641367 
L 201.963291 249.561089 
L 212.053148 265.374335 
L 215.434986 263.877555 
L 219.799784 264.337535 
L 223.145193 262.597697 
L 216.000718 242.81267 
L 218.671216 241.202925 
L 225.564053 245.898753 
L 228.326855 243.986791 
L 252.031365 269.472472 
L 255.522291 266.716664 
L 222.622291 222.077884 
L 224.637568 220.270194 
L 243.86454 235.915695 
L 246.304405 233.433261 
L 227.463663 211.917947 
L 229.157095 209.963057 
L 235.016785 211.283222 
L 236.686526 209.09116 
L 241.450327 209.029806 
L 243.046035 206.636573 
L 279.489608 225.171276 
L 281.574031 221.574024 
L 285.591865 218.973787 
L 287.478408 215.187731 
L 277.99073 206.38432 
L 279.485191 202.843484 
L 281.589066 199.522581 
L 282.865999 195.871999 
L 284.027519 192.183072 
L 285.072477 188.459448 
L 275.513124 182.288971 
L 276.251199 178.83795 
L 289.773475 177.492782 
L 290.353697 173.595756 
L 319.10803 172.53963 
L 319.518011 167.722711 
L 263.703327 160.778258 
L 263.770897 157.709199 
L 271.426211 154.446172 
L 271.290868 151.137419 
L 300.913574 145.198311 
L 300.472879 140.966983 
L 311.298312 135.017774 
L 310.532384 130.46496 
L 302.11206 127.569724 
L 301.116491 123.309429 
L 272.628761 126.85309 
L 271.625237 123.520169 
L 263.994555 122.525122 
L 262.859219 119.465819 
L 240.411232 125.477391 
L 239.380383 123.15814 
L 248.580758 115.697767 
L 247.238376 113.126484 
L 248.471283 109.048794 
L 246.919897 106.48424 
L 241.459434 106.540321 
L 239.832643 104.197476 
L 241.183049 99.568452 
L 239.337184 97.237743 
L 233.363086 98.502021 
L 231.487557 96.417717 
L 266.163937 58.177717 
L 263.004305 55.082019 
L 255.657217 56.677712 
L 252.455617 53.913111 
L 258.656334 39.154007 
L 254.902267 36.303771 
L 238.432978 51.942953 
L 235.091023 49.722261 
L 221.022526 65.415948 
L 218.112799 63.736016 
L 208.806362 74.443674 
L 206.186527 73.143382 
L 219.589278 35.324505 
L 215.734119 33.704515 
L 205.229024 50.254038 
L 201.850382 49.078186 
L 188.18384 82.651344 
L 185.832268 81.995411 
L 190.830659 49.192915 
L 187.425772 48.470303 
L 181.273041 64.544567 
L 178.35557 64.114877 
L 178.542828 32.416135 
L 174.616518 32.088175 
L 169.125456 74.901238 
L 166.539627 74.848374 
L 162.700211 28.004682 
L 158.643028 28.177029 
L 153.354871 14.696319 
L 148.883865 15.169084 
L 149.918757 51.490323 
L 146.606333 52.052935 
L 135.097979 15.174167 
L 130.651024 16.220733 
L 132.785666 40.318492 
L 129.130447 41.425329 
L 139.144181 81.037557 
L 136.766115 81.924336 
L 128.372431 68.750255 
L 125.613351 69.981797 
L 100.74662 27.372064 
L 96.700178 29.492681 
L 102.823791 48.984182 
L 99.455854 51.028802 
L 84.988578 36.602603 
L 81.240156 39.214123 
L 75.701075 39.50511 
L 72.048506 42.407214 
L 113.019119 96.340754 
L 111.135135 98.041397 
L 91.981029 82.339167 
L 89.667207 84.708216 
L 57.548892 60.599856 
L 54.568562 64.062275 
L 79.554879 89.394533 
L 77.469037 92.150798 
L 76.739152 95.840151 
L 74.857366 98.681762 
L 51.279819 88.588479 
L 49.182613 92.234172 
L 96.422004 121.247955 
L 95.329364 123.458132 
L 92.898033 125.086009 
L 91.927812 127.40509 
L 44.802884 112.927876 
L 43.474164 116.765185 
L 71.02575 129.104641 
L 70.192698 132.109448 
L 21.480769 124.245935 
L 20.519445 128.810946 
L 66.748093 141.0146 
L 66.291631 144.148017 
L 42.983288 145.049737 
L 42.66545 148.928376 
L 34.019403 152.52266 
L 33.940961 156.679448 
L 61.654318 160.053557 
L 61.799001 163.33772 
L 49.033776 167.805771 
L 49.428445 171.482918 
L 15.758208 180.454844 
L 16.567045 185.171994 
L 82.829979 175.464127 
L 83.448734 178.074861 
L 57.553902 188.309054 
L 58.589028 191.708172 
L 72.761677 190.422715 
L 73.855741 193.342622 
L 81.397625 193.496584 
L 82.584068 196.143439 
L 78.366581 201.528778 
L 79.807073 204.266964 
L 48.200638 226.43635 
L 50.439194 230.110704 
L 101.192851 200.999707 
L 102.605422 203.020447 
L 59.657592 239.277543 
L 62.294238 242.585317 
L 73.700848 238.204553 
L 76.296813 241.071306 
L 83.884946 238.97478 
L 86.500094 241.520942 
L 95.309845 237.078581 
L 97.859724 239.266457 
L 78.270639 269.869907 
L 81.859973 272.57732 
L 113.705965 233.907657 
L 116.147047 235.518686 
L 103.323121 262.823414 
L 106.678511 264.746605 
L 104.837186 276.825983 
L 108.632099 278.694646 
L 128.124211 244.495978 
L 130.891085 245.64843 
L 117.986939 290.076913 
L 122.191989 291.525568 
L 142.411297 238.247761 
L 144.974648 238.954086 
L 142.995274 259.825597 
L 146.236792 260.502892 
L 147.43149 273.980896 
L 151.115887 274.511707 
L 156.949949 252.73742 
L 159.961699 252.979453 
L 162.725803 260.809188 
L 165.988492 260.865625 
L 169.457987 267.734397 
L 172.93509 267.575736 
L 179.681015 302.51463 
L 184.24663 302.017338 
L 178.664726 236.829743 
L 181.165567 236.396881 
L 191.151521 269.65291 
L 194.678221 268.811208 
L 192.625703 248.659973 
L 195.49161 247.782299 
L 199.625957 250.432679 
L 202.544141 249.334025 
L 212.733255 265.083499 
L 216.105612 263.565479 
L 220.473217 263.997998 
L 223.807616 262.237153 
L 216.538847 242.497452 
L 219.199167 240.870943 
L 226.121401 245.523327 
L 228.872124 243.594025 
L 252.736455 268.930115 
L 256.20998 266.152405 
L 223.029878 221.72143 
L 225.033746 219.901101 
L 244.358739 235.425366 
L 246.782943 232.927636 
L 227.807254 211.531245 
L 229.488358 209.565743 
L 235.356235 210.849028 
L 237.012156 208.646507 
L 241.775477 208.555193 
L 243.356101 206.151971 
L 279.915527 224.457098 
L 281.977284 220.846807 
L 285.978684 218.221352 
L 287.841377 214.423505 
L 278.298519 205.67994 
L 279.77068 202.129776 
L 281.853626 198.795706 
L 283.107575 195.137165 
L 284.245871 191.441006 
L 285.267389 187.710883 
L 275.669415 181.600651 
L 276.385771 178.145056 
L 289.899319 176.714868 
L 290.45502 172.81427 
L 319.202142 171.577316 
L 319.581818 166.757913 
L 263.724562 160.164641 
L 271.459535 157.095217 
z
" clip-path="url(#pa7a70d9d86)" style="fill: #0000ff; opacity: 0.5; stroke: #000000; stroke-width: 1.5; stroke-linejoin: miter"/>
   </g>
  </g>
 </g>
 <defs>
  <clipPath id="pa7a70d9d86">
   <rect x="0" y="0" width="334.8" height="317.228421"/>
  </clipPath>
 </defs>
</svg>
