<?xml version="1.0" encoding="utf-8" standalone="no"?>
<!DOCTYPE svg PUBLIC "-//W3C//DTD SVG 1.1//EN"
  "http://www.w3.org/Graphics/SVG/1.1/DTD/svg11.dtd">
<svg xmlns:xlink="http://www.w3.org/1999/xlink" width="332.750405pt" height="332.64pt" viewBox="0 0 332.750405 332.64" xmlns="http://www.w3.org/2000/svg" version="1.1">
 <metadata>
  <rdf:RDF xmlns:dc="http://purl.org/dc/elements/1.1/" xmlns:cc="http://creativecommons.org/ns#" xmlns:rdf="http://www.w3.org/1999/02/22-rdf-syntax-ns#">
   <cc:Work>
    <dc:type rdf:resource="http://purl.org/dc/dcmitype/StillImage"/>
    <dc:date>2023-12-09T18:06:23.928635</dc:date>
    <dc:format>image/svg+xml</dc:format>
    <dc:creator>
     <cc:Agent>
      <dc:title>Matplotlib v3.8.2, https://matplotlib.org/</dc:title>
     </cc:Agent>
    </dc:creator>
   </cc:Work>
  </rdf:RDF>
 </metadata>
 <defs>
  <style type="text/css">*{stroke-linejoin: round; stroke-linecap: butt}</style>
 </defs>
 <g id="figure_1">
  <g id="patch_1">
   <path d="M 0 332.64 
L 332.750405 332.64 
L 332.750405 0 
L 0 0 
L 0 332.64 
z
" style="fill: none"/>
  </g>
  <g id="axes_1">
   <g id="patch_2">
    <path d="M 307.373796 171.118865 
L 307.304454 166.70915 
L 303.051088 162.558566 
L 302.714728 158.288999 
L 257.204679 159.7277 
L 256.801978 156.901044 
L 273.032815 150.895245 
L 272.344576 147.575284 
L 245.641873 150.938219 
L 244.968529 148.479468 
L 251.156557 143.786287 
L 250.255613 141.157679 
L 249.272466 138.558698 
L 248.208087 135.991915 
L 289.599385 113.421134 
L 287.724687 109.598813 
L 270.106087 114.437289 
L 268.272978 111.227378 
L 247.865444 119.815578 
L 246.212436 117.302301 
L 241.203436 117.226845 
L 239.472327 114.924316 
L 240.166817 110.60863 
L 238.228129 108.341968 
L 232.675865 109.469766 
L 230.705073 107.439199 
L 235.325025 98.3746 
L 233.004067 96.266223 
L 244.039144 77.979328 
L 241.072604 75.607044 
L 261.351511 41.170192 
L 257.219052 38.271769 
L 227.843065 75.23007 
L 224.798091 73.368385 
L 234.559164 48.146136 
L 230.659291 46.086674 
L 219.809756 58.829233 
L 216.253075 57.228243 
L 203.42433 79.117316 
L 200.513653 78.021488 
L 206.054493 50.792811 
L 202.25193 49.628289 
L 189.790052 82.359566 
L 186.988059 81.690827 
L 191.857482 40.487283 
L 187.737911 39.774242 
L 182.593536 47.235459 
L 178.690722 46.81036 
L 174.776472 46.508184 
L 170.854657 46.329231 
L 166.907484 32.492064 
L 162.548861 32.567458 
L 160.231589 64.330861 
L 156.877348 64.600419 
L 147.14902 15.12 
L 142.253951 15.825233 
L 137.383476 16.684029 
L 132.542412 17.695539 
L 140.527114 68.304053 
L 137.307542 69.191198 
L 120.763074 29.340923 
L 116.328188 30.868757 
L 124.239505 63.415316 
L 120.874273 64.816996 
L 108.888575 48.002977 
L 105.046336 49.894944 
L 91.856916 34.876487 
L 87.610372 37.310456 
L 119.182071 95.928066 
L 116.841612 97.472688 
L 80.138425 51.944057 
L 76.434317 54.738043 
L 75.410701 60.764469 
L 71.986264 63.702744 
L 99.253788 99.179099 
L 97.025402 101.348702 
L 59.329062 70.375052 
L 56.214753 73.814217 
L 52.584211 76.834387 
L 49.676332 80.482432 
L 84.99372 111.761787 
L 83.168012 114.373536 
L 40.289262 91.084215 
L 37.835509 95.111795 
L 70.370019 118.259465 
L 68.755843 121.327803 
L 58.425423 120.327128 
L 56.882164 123.770008 
L 52.429608 126.074327 
L 51.070018 129.702887 
L 70.661421 140.077365 
L 69.733103 143.125754 
L 80.688015 149.191868 
L 80.04132 151.920492 
L 81.074278 154.967205 
L 80.60898 157.680828 
L 85.861398 161.10198 
L 85.586624 163.662052 
L 68.398496 165.212898 
L 68.261613 168.32001 
L 45.52345 171.501272 
L 45.595598 175.324517 
L 49.832505 178.876111 
L 50.134402 182.560223 
L 76.278546 182.897483 
L 76.693809 185.748085 
L 15.125018 200.639954 
L 16.128379 205.404585 
L 25.910837 207.888292 
L 27.136769 212.310209 
L 30.0414 216.185032 
L 31.526157 220.472973 
L 40.671994 221.701254 
L 42.324937 225.652219 
L 63.873031 220.158659 
L 65.466001 223.380894 
L 78.503152 220.261228 
L 80.092113 223.02341 
L 73.572738 230.977345 
L 75.501075 233.889251 
L 58.55244 250.629499 
L 61.10611 254.003961 
L 98.633335 228.2245 
L 100.462725 230.349808 
L 68.207941 264.73714 
L 71.200413 267.801036 
L 110.207094 232.214089 
L 112.156204 233.97352 
L 94.618895 259.486072 
L 97.433203 261.722146 
L 98.894958 265.842025 
L 101.906997 267.940508 
L 114.477433 254.845078 
L 117.135999 256.459051 
L 123.719527 250.868161 
L 126.248481 252.193509 
L 131.212081 248.293696 
L 133.656383 249.384734 
L 111.045284 314.577031 
L 115.58365 316.269385 
L 135.741435 269.175793 
L 138.840077 270.114093 
L 131.269261 313.4043 
L 135.760755 314.461347 
L 148.291432 272.338415 
L 151.483308 272.880553 
L 156.15933 261.250818 
L 158.998698 261.551054 
L 159.536385 301.418177 
L 163.637034 301.59237 
L 167.523159 255.429068 
L 170.17386 255.374878 
L 172.876317 256.046202 
L 175.543775 255.823392 
L 185.798876 313.389706 
L 190.26295 312.73223 
L 184.73219 261.018252 
L 187.550118 260.420209 
L 195.896563 280.907354 
L 199.334328 279.948445 
L 207.319288 292.737169 
L 211.123361 291.413256 
L 200.072755 253.111371 
L 202.634489 252.034897 
L 214.582786 270.635359 
L 217.688338 269.093993 
L 225.869182 276.664416 
L 229.158721 274.765199 
L 227.130962 264.577348 
L 230.039833 262.644434 
L 223.766347 248.208309 
L 226.162203 246.38928 
L 226.939319 242.630304 
L 229.158222 240.714267 
L 263.690034 272.828644 
L 266.840268 269.742154 
L 256.823334 254.421353 
L 259.398198 251.559868 
L 243.05605 233.221493 
L 244.97115 230.803363 
L 263.272871 240.145915 
L 265.395695 237.088701 
L 246.125641 220.621944 
L 247.643067 218.113529 
L 243.379625 212.467181 
L 244.642005 210.049139 
L 254.654155 211.683113 
L 255.886307 208.910963 
L 275.918341 213.450722 
L 277.195558 210.009106 
L 266.0041 202.594569 
L 266.944876 199.470045 
L 315.758438 208.326205 
L 316.854829 203.634462 
L 281.927517 192.293494 
L 282.536532 188.673396 
L 295.104961 186.485635 
L 295.524849 182.454081 
L 295.008383 178.365454 
L 295.173003 174.340952 
L 307.371022 170.236782 
L 307.273947 165.82759 
L 302.994561 161.70384 
L 302.631354 157.436473 
L 257.131253 159.161378 
L 256.710782 156.337311 
L 272.903525 150.229547 
L 272.194419 146.913981 
L 245.513396 150.444794 
L 244.8246 147.990327 
L 250.982988 143.258319 
L 250.06553 140.63543 
L 249.066056 138.042684 
L 247.985555 135.482646 
L 289.234077 112.651984 
L 287.335376 108.841529 
L 269.747555 113.790721 
L 267.894294 110.592402 
L 247.541178 119.308784 
L 245.872396 116.805953 
L 240.863021 116.762002 
L 239.117464 114.470407 
L 239.784797 110.150438 
L 237.831892 107.896014 
L 232.286831 109.058711 
L 230.303306 107.040579 
L 234.866156 97.947102 
L 232.531983 95.853364 
L 243.451828 77.497426 
L 240.470427 75.143847 
L 260.532344 40.580134 
L 256.381737 37.707759 
L 227.238778 74.850087 
L 224.182155 73.007591 
L 233.784402 47.724449 
L 229.871653 45.689555 
L 219.102475 58.5001 
L 215.535796 56.921511 
L 202.844974 78.890837 
L 199.927462 77.813337 
L 205.29694 50.550349 
L 201.487129 49.409767 
L 189.231358 82.218775 
L 186.425215 81.567671 
L 191.035394 40.334317 
L 186.91142 39.647199 
L 181.814073 47.140624 
L 177.908664 46.74008 
L 173.99259 46.462528 
L 170.069727 46.308244 
L 166.035604 32.496177 
L 161.677542 32.598983 
L 159.560089 64.376332 
L 156.20761 64.66698 
L 146.168271 15.248726 
L 141.277734 15.984732 
L 136.412757 16.874144 
L 131.57815 17.916081 
L 139.880993 68.473376 
L 136.667065 69.380752 
L 119.872288 29.63532 
L 115.447099 31.191017 
L 123.562959 63.687175 
L 120.20661 65.109992 
L 108.115398 48.371689 
L 104.285134 50.287784 
L 91.001517 35.352578 
L 86.770366 37.813208 
L 118.710112 96.23109 
L 116.379414 97.790401 
L 79.390604 52.493513 
L 75.704141 55.310741 
L 74.718449 61.343485 
L 71.312559 64.30324 
L 98.80267 99.607397 
L 96.587974 101.790972 
L 58.697572 71.055023 
L 55.604956 74.513707 
L 51.99348 77.556652 
L 49.108604 81.222913 
L 84.622022 112.279523 
L 82.812776 114.902704 
L 39.788398 91.883526 
L 37.360025 95.926458 
L 70.039477 118.869047 
L 68.444631 121.947477 
L 58.108122 121.011794 
L 56.586547 124.464312 
L 52.148572 126.79659 
L 50.81183 130.433629 
L 70.468096 140.684683 
L 69.558968 143.73885 
L 80.551817 149.735944 
L 79.922295 152.468582 
L 80.974395 155.508738 
L 80.526174 158.225234 
L 85.800005 161.613283 
L 85.541338 164.175033 
L 68.363303 165.833951 
L 68.245965 168.941863 
L 45.528261 172.266072 
L 45.624452 176.088788 
L 49.883613 179.613664 
L 50.208676 183.295804 
L 76.354424 183.468626 
L 76.787607 186.31656 
L 15.313696 201.595367 
L 16.347004 206.353593 
L 26.144889 208.775724 
L 27.398608 213.189844 
L 30.327552 217.046322 
L 31.839248 221.32484 
L 40.99263 222.495574 
L 42.67039 226.436064 
L 64.183506 220.807088 
L 65.79671 224.019241 
L 78.813982 220.81764 
L 80.420284 223.569774 
L 73.951064 231.564554 
L 75.897677 234.464275 
L 59.054664 251.310789 
L 61.629507 254.669123 
L 98.993851 228.654148 
L 100.836573 230.767907 
L 68.798704 265.357424 
L 71.810386 268.402438 
L 110.592475 232.570865 
L 112.552612 234.318002 
L 95.176109 259.940349 
L 98.004425 262.158679 
L 99.492062 266.269283 
L 102.51724 268.34878 
L 115.005065 255.174548 
L 117.673729 256.771768 
L 124.221964 251.139583 
L 126.759203 252.448998 
L 131.698177 248.518044 
L 134.149293 249.593687 
L 111.948663 314.926906 
L 116.497584 316.590683 
L 136.358779 269.371241 
L 139.463261 270.290034 
L 132.164865 313.627001 
L 136.662918 314.655778 
L 148.928418 272.454869 
L 152.123641 272.97692 
L 156.726426 261.318006 
L 159.567626 261.600378 
L 160.356044 301.463331 
L 164.457707 301.61173 
L 168.053415 255.424899 
L 170.703722 255.354038 
L 173.410348 256.008353 
L 176.076352 255.768771 
L 186.69331 313.269447 
L 191.15316 312.583908 
L 185.297258 260.905738 
L 188.111369 260.289983 
L 196.586501 280.724229 
L 200.018168 279.743717 
L 208.083403 292.481967 
L 211.879074 291.134154 
L 200.58779 252.90253 
L 203.142703 251.809965 
L 215.207749 270.334911 
L 218.303546 268.774043 
L 226.531842 276.292863 
L 229.809371 274.372995 
L 227.717576 264.198098 
L 230.614232 262.246928 
L 224.250076 247.850545 
L 226.634444 246.016483 
L 227.387902 242.252694 
L 229.59471 240.32274 
L 264.327821 272.219296 
L 267.458581 269.113053 
L 257.345485 253.855557 
L 259.902301 250.977934 
L 243.445138 232.742704 
L 245.344992 230.312578 
L 263.70511 239.539837 
L 265.808664 236.469332 
L 246.435425 220.124098 
L 247.937044 217.606189 
L 243.638175 211.986767 
L 244.885321 209.560833 
L 254.90755 211.131804 
L 256.122243 208.35196 
L 276.182433 212.765639 
L 277.437978 209.316058 
L 266.200108 201.972056 
L 267.121215 198.841677 
L 315.989511 207.390651 
L 317.056373 202.692106 
L 282.058423 191.571035 
L 282.644658 187.947179 
L 295.199078 185.680413 
L 295.593602 181.646298 
L 295.051431 177.561 
L 295.190736 173.535542 
L 307.362701 169.354734 
L 307.237895 164.94624 
L 302.932658 160.849487 
L 302.542619 156.584488 
L 257.054267 158.59553 
L 256.616043 155.774163 
L 272.770051 149.564676 
L 272.040106 146.253636 
L 245.381817 149.952187 
L 244.677598 147.502101 
L 250.806103 142.731454 
L 249.872166 140.114387 
L 248.856405 137.527978 
L 247.759824 134.974786 
L 288.863938 111.885146 
L 286.941309 108.086708 
L 269.384964 113.14642 
L 267.511623 109.95982 
L 247.213732 118.804039 
L 245.529241 116.311754 
L 240.519688 116.29931 
L 238.759753 114.018738 
L 239.399903 109.694658 
L 237.432857 107.452561 
L 231.895219 108.65011 
L 229.89904 106.644493 
L 234.404608 97.522499 
L 232.057312 95.443483 
L 242.861492 77.019229 
L 239.865347 74.684447 
L 259.709482 39.995239 
L 255.540892 37.149026 
L 226.632113 74.473912 
L 223.563962 72.650677 
L 233.007002 47.307642 
L 229.081533 45.297398 
L 218.393139 58.175421 
L 214.816602 56.619296 
L 202.264206 78.668005 
L 199.339975 77.608876 
L 204.537877 50.312657 
L 200.720968 49.196058 
L 188.67179 82.081499 
L 185.861607 81.448058 
L 190.212361 40.186523 
L 186.084146 39.525357 
L 181.03403 47.050693 
L 177.126178 46.674719 
L 173.208437 46.421803 
L 169.284681 46.292195 
L 165.163767 32.505773 
L 160.806438 32.635987 
L 158.888888 64.426025 
L 155.538304 64.737753 
L 145.18835 15.383618 
L 140.302539 16.150368 
L 135.443252 17.07036 
L 130.615294 18.142684 
L 139.23595 68.646758 
L 136.027792 69.57433 
L 118.983371 29.935314 
L 114.568054 31.518812 
L 122.888136 63.963283 
L 119.540802 65.407182 
L 107.344555 48.745256 
L 103.526418 50.685404 
L 90.14913 35.834039 
L 85.933538 38.321232 
L 118.240068 96.537076 
L 115.919223 98.111015 
L 78.646253 53.047662 
L 74.977582 55.888019 
L 74.029851 61.926844 
L 70.642644 64.907961 
L 98.354255 100.038523 
L 96.153336 102.235984 
L 58.070372 71.738952 
L 54.99957 75.217019 
L 51.407304 78.282617 
L 48.545543 81.96695 
L 84.253588 112.799587 
L 82.460876 115.434094 
L 39.292572 92.685971 
L 36.889674 96.744097 
L 69.712776 119.480696 
L 68.137322 122.569096 
L 57.795133 121.698443 
L 56.295303 125.160462 
L 51.872084 127.520606 
L 50.558243 131.16598 
L 70.278594 141.293205 
L 69.388693 144.353029 
L 80.419042 150.280866 
L 79.80672 153.017409 
L 80.87792 156.050888 
L 80.446793 158.770149 
L 85.741828 162.124962 
L 85.499279 164.688288 
L 68.332018 166.455214 
L 68.234228 169.563802 
L 45.537881 173.030827 
L 45.658114 176.852862 
L 49.93936 180.350881 
L 50.287575 184.030904 
L 76.433892 184.03928 
L 76.884979 186.884433 
L 15.508378 202.549574 
L 16.571592 207.301207 
L 26.384518 209.661667 
L 27.665974 214.067814 
L 30.619115 217.905795 
L 32.157691 222.174721 
L 41.318255 223.287862 
L 43.020765 227.217722 
L 64.498053 221.453552 
L 66.131427 224.655495 
L 79.128306 221.372086 
L 80.751886 224.114063 
L 74.333076 232.149373 
L 76.297888 235.036793 
L 59.561164 251.988907 
L 62.157078 255.33098 
L 99.357063 229.081519 
L 101.213043 231.183647 
L 69.393356 265.973979 
L 72.42413 268.999992 
L 110.980091 232.92521 
L 112.951178 234.659984 
L 95.736169 260.391113 
L 98.578381 262.59161 
L 100.091842 266.692777 
L 103.130039 268.753206 
L 115.534758 255.500694 
L 118.213416 257.081097 
L 124.726097 251.407839 
L 127.271522 252.70127 
L 132.185675 248.739331 
L 134.643508 249.799536 
L 112.854226 315.271093 
L 117.413521 316.906226 
L 136.977339 269.562803 
L 140.087538 270.462052 
L 133.061852 313.844064 
L 137.566287 314.844531 
L 149.566124 272.567313 
L 152.764567 273.069258 
L 157.293933 261.381626 
L 160.136853 261.646123 
L 161.175971 301.503328 
L 165.278486 301.625928 
L 168.583634 255.417395 
L 171.233443 255.329867 
L 173.94413 255.967146 
L 176.608575 255.7108 
L 187.586969 313.143565 
L 192.04242 312.429989 
L 185.861607 260.789671 
L 188.67179 260.15623 
L 197.275274 280.536768 
L 200.700706 279.534692 
L 208.845898 292.221965 
L 212.633017 290.850306 
L 201.101501 252.690453 
L 203.649492 251.581841 
L 215.830811 270.030538 
L 218.916729 268.45023 
L 227.192152 275.917151 
L 230.457541 273.976707 
L 228.301793 263.815167 
L 231.18612 261.845818 
L 224.731545 247.489746 
L 227.10433 245.640724 
L 227.834102 241.87227 
L 230.028728 239.928475 
L 264.961763 271.605948 
L 268.072924 268.480077 
L 257.864068 253.286487 
L 260.402734 250.392841 
L 243.831208 232.261478 
L 245.71574 229.81945 
L 264.133529 238.931052 
L 266.21773 235.847378 
L 246.742072 219.624314 
L 248.227824 217.097011 
L 243.893697 211.504737 
L 245.125561 209.071008 
L 255.157472 210.578913 
L 256.354657 207.791484 
L 276.442211 212.078909 
L 277.676035 208.621499 
L 266.392198 201.348322 
L 267.293598 198.212212 
L 316.214695 206.453664 
L 317.251985 201.748501 
L 282.184782 190.847767 
L 282.748213 187.220296 
L 295.288129 184.874614 
L 295.657272 180.838098 
L 295.089418 176.75629 
L 295.203402 172.730036 
L 307.348832 168.472757 
L 307.196302 164.065135 
L 302.865383 159.995539 
L 302.448528 155.733078 
L 256.973724 158.030176 
L 256.517763 155.211621 
L 272.632397 148.900658 
L 271.881643 145.594274 
L 245.247143 149.460418 
L 244.527528 147.014809 
L 250.625907 142.205712 
L 249.675529 139.59457 
L 248.643521 137.014601 
L 247.530903 134.468357 
L 288.488984 111.120652 
L 286.542503 107.334381 
L 269.018328 112.504412 
L 267.124982 109.329657 
L 246.883117 118.301364 
L 245.182985 115.819723 
L 240.173453 115.838786 
L 238.399209 113.569329 
L 239.01215 109.241308 
L 237.031042 107.011627 
L 231.501045 108.243981 
L 229.492292 106.250958 
L 233.940397 97.100807 
L 231.580072 95.036595 
L 242.268161 76.544753 
L 239.257391 74.228862 
L 258.882957 39.415532 
L 254.696548 36.595593 
L 226.023094 74.101561 
L 222.943537 72.297658 
L 232.226997 46.895733 
L 228.288961 44.910218 
L 217.681775 57.855211 
L 214.095521 56.32161 
L 201.682047 78.448831 
L 198.751213 77.408115 
L 203.777335 50.079743 
L 199.953478 48.987173 
L 188.111369 81.947746 
L 185.297258 81.331992 
L 189.388414 40.043909 
L 185.256123 39.40872 
L 180.253437 46.96567 
L 176.343297 46.614282 
L 172.424043 46.386011 
L 168.499549 46.281084 
L 164.292008 32.520853 
L 159.935584 32.678469 
L 158.218014 64.479939 
L 154.869457 64.812733 
L 144.209298 15.52467 
L 139.328406 16.322134 
L 134.475001 17.27267 
L 129.653883 18.375338 
L 138.59201 68.824194 
L 135.38975 69.771925 
L 118.096359 30.240893 
L 113.691088 31.85213 
L 122.215063 64.24363 
L 118.876876 65.708554 
L 106.576076 49.123665 
L 102.770217 51.087788 
L 89.299788 36.320853 
L 85.099922 38.83451 
L 117.771958 96.846013 
L 115.461058 98.434517 
L 77.905402 53.606481 
L 74.254668 56.469856 
L 73.344937 62.514522 
L 69.976546 65.516884 
L 97.90856 100.47246 
L 95.721505 102.683721 
L 57.447486 72.426812 
L 54.398619 75.924124 
L 50.825705 79.012255 
L 47.987174 82.714514 
L 83.888432 113.321957 
L 82.112325 115.967688 
L 38.801801 93.491519 
L 36.424474 97.564677 
L 69.389928 120.094388 
L 67.83393 123.192635 
L 57.486469 122.387046 
L 56.008442 125.85843 
L 51.600155 128.246346 
L 50.309268 131.899912 
L 70.092923 141.902907 
L 69.222284 144.968268 
L 80.289698 150.826613 
L 79.694599 153.566952 
L 80.784857 156.593634 
L 80.370841 159.315553 
L 85.686871 162.636996 
L 85.460448 165.201798 
L 68.30464 167.076661 
L 68.226404 170.185802 
L 45.552311 173.795506 
L 45.69658 177.616709 
L 49.999742 181.087732 
L 50.371095 184.765492 
L 76.516948 184.609423 
L 76.98592 187.451683 
L 15.709058 203.502538 
L 16.802137 208.24739 
L 26.629714 210.546086 
L 27.938857 214.944086 
L 30.916078 218.763417 
L 32.481473 223.022582 
L 41.648856 224.078086 
L 43.37605 227.997161 
L 64.816659 222.098024 
L 66.47014 225.289632 
L 79.446111 221.924545 
L 81.086904 224.656256 
L 74.718759 232.731777 
L 76.701693 235.606783 
L 60.071918 252.663826 
L 62.6888 255.989506 
L 99.722956 229.506597 
L 101.59212 231.597011 
L 69.991874 266.586783 
L 73.04162 269.593673 
L 111.369928 233.27711 
L 113.351887 234.999453 
L 96.299053 260.838346 
L 99.155048 263.020923 
L 100.694274 267.11249 
L 103.745369 269.15377 
L 116.066492 255.823501 
L 118.755037 257.387026 
L 125.231908 251.672919 
L 127.785417 252.950315 
L 132.674555 248.957547 
L 135.139007 250.002273 
L 113.761935 315.609577 
L 118.331424 317.216003 
L 137.597092 269.75047 
L 140.712885 270.63014 
L 133.960186 314.055482 
L 138.470824 315.027599 
L 150.204525 272.675745 
L 153.406062 273.157564 
L 157.861829 261.441676 
L 160.706357 261.688286 
L 161.996133 301.538168 
L 166.099338 301.634963 
L 169.113795 255.406557 
L 171.763001 255.302365 
L 174.477643 255.922582 
L 177.140423 255.649484 
L 188.479819 313.012065 
L 192.930694 312.270481 
L 186.425215 260.670058 
L 189.231358 260.018955 
L 197.962854 280.344978 
L 201.381916 279.321379 
L 209.606743 291.957171 
L 213.38516 290.561721 
L 201.613868 252.47515 
L 204.154836 251.350534 
L 216.451946 269.722253 
L 219.527864 268.122568 
L 227.850086 275.537292 
L 231.103206 273.576349 
L 228.88359 263.428569 
L 231.755474 261.441118 
L 225.210735 247.125926 
L 227.571844 245.262017 
L 228.2779 241.489048 
L 230.460257 239.531488 
L 265.591835 270.988626 
L 268.683275 267.843249 
L 258.379061 252.714168 
L 260.899478 249.804612 
L 244.214243 231.777833 
L 246.083379 229.324001 
L 264.558111 238.319585 
L 266.622875 235.222863 
L 247.045569 219.122611 
L 248.515397 216.586013 
L 244.146183 211.02111 
L 245.362716 208.579681 
L 255.403913 210.024461 
L 256.583542 207.229557 
L 276.697664 211.390559 
L 277.909719 207.925457 
L 266.580361 200.723393 
L 267.462019 197.581675 
L 316.433983 205.515278 
L 317.441659 200.803684 
L 282.30659 190.123719 
L 282.847195 186.492776 
L 295.37211 184.068271 
L 295.715859 180.029513 
L 295.122343 175.951358 
L 295.211002 171.924466 
L 307.329416 167.590883 
L 307.149168 163.184308 
L 302.792739 159.142032 
L 302.349084 154.882277 
L 256.889626 157.46534 
L 256.415948 154.649709 
L 272.490571 148.237519 
L 271.719036 144.935922 
L 245.109378 148.969505 
L 244.374396 146.528471 
L 250.442408 141.681113 
L 249.475626 139.076 
L 248.427412 136.502573 
L 247.298802 133.963377 
L 288.109228 110.358531 
L 286.138973 106.584577 
L 268.647661 111.864723 
L 266.734385 108.701939 
L 246.549348 117.800778 
L 244.833641 115.329879 
L 239.824327 115.380449 
L 238.035845 113.122195 
L 238.621554 108.790405 
L 236.626461 106.573228 
L 231.104324 107.840338 
L 229.083076 105.859989 
L 233.473544 96.682043 
L 231.100283 94.632717 
L 241.671857 76.074018 
L 238.646581 73.777109 
L 258.052803 38.841034 
L 253.848741 36.047481 
L 225.411746 73.733047 
L 222.320904 71.948549 
L 231.444416 46.488739 
L 227.493971 44.52803 
L 216.968411 57.53948 
L 213.372582 56.028465 
L 201.098522 78.233322 
L 198.1612 77.21106 
L 203.015342 49.851618 
L 199.184689 48.783119 
L 187.550118 81.81752 
L 184.73219 81.219477 
L 188.563586 39.906481 
L 184.427382 39.297294 
L 179.472324 46.885558 
L 175.560052 46.558769 
L 171.639439 46.355153 
L 167.714363 46.27491 
L 163.420361 32.541415 
L 159.065015 32.726428 
L 157.547492 64.538071 
L 154.201094 64.891919 
L 143.231152 15.671877 
L 138.355372 16.500024 
L 133.508042 17.481066 
L 128.693954 18.614034 
L 137.949199 69.005676 
L 134.752962 69.973529 
L 117.211286 30.552045 
L 112.816236 32.190956 
L 121.543767 64.528205 
L 118.21486 66.014095 
L 105.809993 49.506899 
L 102.016563 51.49492 
L 88.453524 36.812998 
L 84.269551 39.353021 
L 117.3058 97.157887 
L 115.004937 98.760895 
L 77.16808 54.169949 
L 73.535427 57.056229 
L 72.663732 63.106497 
L 69.314291 66.129985 
L 97.465603 100.909193 
L 95.292499 103.134165 
L 56.828938 73.118576 
L 53.802128 76.634995 
L 50.248707 79.745536 
L 47.433517 83.465575 
L 83.526568 113.846614 
L 81.767137 116.503463 
L 38.316108 94.300137 
L 35.964445 98.388167 
L 69.070946 120.710098 
L 67.534465 123.818071 
L 57.182142 123.077577 
L 55.725978 126.558188 
L 51.332796 128.973783 
L 50.064913 132.635396 
L 69.91109 142.513765 
L 69.059748 145.58454 
L 80.163789 151.373162 
L 79.585937 154.11719 
L 80.695209 157.136955 
L 80.298321 159.861424 
L 85.635136 163.149367 
L 85.424849 165.715541 
L 68.281171 167.698268 
L 68.222491 170.80784 
L 45.57155 174.56008 
L 45.739849 178.380299 
L 50.064757 181.824189 
L 50.459234 185.499541 
L 76.603588 185.179032 
L 77.090427 188.018286 
L 15.915728 204.454221 
L 17.038627 209.192104 
L 26.880467 211.428945 
L 28.217246 215.818624 
L 31.218429 219.619155 
L 32.810581 223.868389 
L 41.984422 224.866215 
L 43.736229 228.77435 
L 65.139313 222.74048 
L 66.812834 225.921625 
L 79.767384 222.474993 
L 81.425325 225.19633 
L 75.108097 233.311744 
L 77.109073 236.174222 
L 60.586907 253.33552 
L 63.224654 256.644675 
L 100.091515 229.929366 
L 101.973789 232.007982 
L 70.594234 267.19581 
L 73.662831 270.18346 
L 111.761971 233.626551 
L 113.754723 235.336395 
L 96.864738 261.282029 
L 99.734405 263.446601 
L 101.299333 267.528406 
L 104.363207 269.550456 
L 116.600246 256.142957 
L 119.298571 257.689542 
L 125.739376 251.934812 
L 128.300869 253.196123 
L 133.164797 249.172684 
L 135.635772 250.20189 
L 114.671755 315.942345 
L 119.251257 317.52 
L 138.218013 269.934236 
L 141.339277 270.794292 
L 134.859832 314.261246 
L 139.376495 315.204974 
L 150.843594 272.78016 
L 154.048099 273.241833 
L 158.430092 261.498152 
L 161.276114 261.726868 
L 162.816498 301.56785 
L 166.920231 301.638835 
L 169.643877 255.392384 
L 172.292376 255.271532 
L 175.010865 255.874663 
L 177.671874 255.584823 
L 189.371825 312.874951 
L 193.817947 312.105389 
L 186.988059 260.546902 
L 189.790052 259.878163 
L 198.649215 280.148868 
L 202.061771 279.103785 
L 210.365907 291.687598 
L 214.135473 290.268411 
L 202.124871 252.256628 
L 204.658715 251.116053 
L 217.07113 269.410067 
L 220.136926 267.791067 
L 228.505618 275.153303 
L 231.74634 273.171939 
L 229.462944 263.03832 
L 232.322272 261.032845 
L 225.687627 246.759099 
L 228.036967 244.880377 
L 228.719279 241.103042 
L 230.889281 239.131795 
L 266.218012 270.367353 
L 269.289607 267.202595 
L 258.890444 252.13862 
L 261.392512 249.21327 
L 244.594229 231.291788 
L 246.447895 228.826249 
L 264.978838 237.70546 
L 267.024085 234.595813 
L 247.345904 218.61901 
L 248.79975 216.073218 
L 244.395622 210.535904 
L 245.596776 208.086872 
L 255.646861 209.468471 
L 256.808889 206.666203 
L 276.948783 210.700615 
L 278.13902 207.227959 
L 266.764589 200.097292 
L 267.62647 196.950092 
L 316.647363 204.575531 
L 317.625386 199.857693 
L 282.423841 189.398919 
L 282.9416 185.764647 
L 295.451017 183.261416 
L 295.769358 179.220576 
L 295.150205 175.146235 
L 307.373796 171.118865 
z
" clip-path="url(#pb8f5067125)" style="fill: #0000ff; opacity: 0.5; stroke: #000000; stroke-width: 1.5; stroke-linejoin: miter"/>
   </g>
  </g>
 </g>
 <defs>
  <clipPath id="pb8f5067125">
   <rect x="0" y="-0" width="332.750405" height="332.64"/>
  </clipPath>
 </defs>
</svg>
