<?xml version="1.0" encoding="utf-8" standalone="no"?>
<!DOCTYPE svg PUBLIC "-//W3C//DTD SVG 1.1//EN"
  "http://www.w3.org/Graphics/SVG/1.1/DTD/svg11.dtd">
<svg xmlns:xlink="http://www.w3.org/1999/xlink" width="334.8pt" height="329.457958pt" viewBox="0 0 334.8 329.457958" xmlns="http://www.w3.org/2000/svg" version="1.1">
 <metadata>
  <rdf:RDF xmlns:dc="http://purl.org/dc/elements/1.1/" xmlns:cc="http://creativecommons.org/ns#" xmlns:rdf="http://www.w3.org/1999/02/22-rdf-syntax-ns#">
   <cc:Work>
    <dc:type rdf:resource="http://purl.org/dc/dcmitype/StillImage"/>
    <dc:date>2023-12-09T18:06:17.572613</dc:date>
    <dc:format>image/svg+xml</dc:format>
    <dc:creator>
     <cc:Agent>
      <dc:title>Matplotlib v3.8.2, https://matplotlib.org/</dc:title>
     </cc:Agent>
    </dc:creator>
   </cc:Work>
  </rdf:RDF>
 </metadata>
 <defs>
  <style type="text/css">*{stroke-linejoin: round; stroke-linecap: butt}</style>
 </defs>
 <g id="figure_1">
  <g id="patch_1">
   <path d="M 0 329.457958 
L 334.8 329.457958 
L 334.8 0 
L 0 0 
L 0 329.457958 
z
" style="fill: none"/>
  </g>
  <g id="axes_1">
   <g id="patch_2">
    <path d="M 275.21198 163.982938 
L 275.158667 160.592607 
L 277.3048 157.060401 
L 277.032793 153.607691 
L 262.898369 151.90453 
L 262.471373 148.907338 
L 289.941825 140.579921 
L 289.145388 136.738023 
L 271.071683 137.332801 
L 270.182478 134.085827 
L 242.824323 139.44484 
L 242.015492 137.08498 
L 259.032936 127.656763 
L 257.845448 124.793098 
L 260.052256 120.326984 
L 258.633799 117.434893 
L 298.959055 91.563008 
L 296.61696 87.461824 
L 281.145788 91.697501 
L 278.816729 88.156338 
L 235.271575 114.594863 
L 233.685141 112.484765 
L 267.026419 81.435835 
L 264.381692 78.34369 
L 235.271671 100.136202 
L 233.230625 98.03325 
L 262.731035 62.282739 
L 259.486216 59.33512 
L 259.583252 52.333836 
L 256.027174 49.490109 
L 250.574954 49.253713 
L 246.926484 46.69475 
L 220.537324 80.040976 
L 217.871725 78.41124 
L 209.231035 87.671308 
L 206.81094 86.393294 
L 204.679003 84.494739 
L 202.16128 83.361421 
L 218.830869 33.589338 
L 214.705572 32.036224 
L 214.800958 17.42321 
L 210.169355 16.004797 
L 203.971009 20.702723 
L 199.447875 19.623206 
L 189.591922 46.686286 
L 185.892878 46.046033 
L 182.652661 41.701094 
L 178.800303 41.281491 
L 172.671025 77.883137 
L 169.961245 77.759488 
L 167.238018 70.789348 
L 164.30788 70.840033 
L 159.743392 45.619155 
L 156.025554 45.917932 
L 148.699289 18.067026 
L 144.120611 18.726676 
L 139.273634 18.017368 
L 134.698055 18.973406 
L 136.520508 44.679228 
L 132.784598 45.708648 
L 136.025077 68.084459 
L 133.025323 69.117884 
L 111.254582 23.01843 
L 106.850101 24.852976 
L 123.582945 71.383992 
L 120.693088 72.806994 
L 96.247607 35.219094 
L 92.234162 37.519459 
L 112.311743 77.610887 
L 109.623246 79.385201 
L 114.711233 91.81893 
L 112.468282 93.510775 
L 96.987973 79.279314 
L 94.359511 81.534617 
L 66.961857 57.541099 
L 63.664744 60.751237 
L 97.608867 98.772328 
L 95.593002 100.998471 
L 87.106993 97.902569 
L 85.068973 100.459344 
L 98.718314 114.357453 
L 97.191931 116.541006 
L 49.488401 89.589527 
L 47.207601 93.333222 
L 92.35903 122.995018 
L 91.107375 125.37425 
L 57.13556 112.467427 
L 55.57031 115.959367 
L 87.092657 132.449875 
L 86.140887 134.990019 
L 29.548496 119.628191 
L 28.222035 123.983989 
L 46.443482 133.303241 
L 45.538642 137.121063 
L 46.268243 141.249613 
L 45.613341 145.069015 
L 63.424708 151.168493 
L 63.073194 154.443554 
L 19.770826 155.152505 
L 19.566162 159.79817 
L 71.880732 164.283273 
L 71.937395 167.285974 
L 15.218182 174.046561 
L 15.609839 178.826029 
L 57.396936 178.243216 
L 57.899692 181.694417 
L 39.609003 188.799139 
L 40.452455 192.804413 
L 30.986609 199.4982 
L 32.170725 203.769291 
L 69.340484 196.214771 
L 70.402399 199.281555 
L 65.124253 204.88787 
L 66.460954 208.082933 
L 57.461744 216.190834 
L 59.157624 219.621235 
L 67.022652 219.635079 
L 68.822099 222.763161 
L 59.690056 232.889849 
L 61.909887 236.241931 
L 58.641519 243.61808 
L 61.199188 246.997826 
L 52.030694 260.159772 
L 55.111739 263.739197 
L 61.100747 264.572875 
L 64.316065 267.864936 
L 81.283473 256.402406 
L 84.231915 259.063918 
L 82.865645 266.990166 
L 86.146206 269.596696 
L 106.162972 248.975746 
L 108.865602 250.858663 
L 105.06628 263.08776 
L 108.213165 264.998183 
L 97.427063 292.515161 
L 101.502987 294.651228 
L 131.965006 240.096574 
L 134.375698 241.172609 
L 121.115643 282.343004 
L 124.860019 283.739279 
L 136.86362 259.343213 
L 139.877047 260.255709 
L 135.954024 288.706332 
L 139.891141 289.63291 
L 139.628659 313.151221 
L 144.33256 313.950174 
L 151.756889 292.428654 
L 155.80323 292.856515 
L 160.443202 283.161331 
L 164.193863 283.320657 
L 167.929515 279.511039 
L 171.561702 279.436784 
L 176.906904 304.606754 
L 181.323717 304.237822 
L 177.60807 241.874854 
L 180.052108 241.514892 
L 196.250415 311.371058 
L 200.870348 310.390579 
L 195.69496 272.013431 
L 199.077678 271.069876 
L 198.32039 257.588446 
L 201.248256 256.569475 
L 204.142637 255.458948 
L 207.000669 254.257965 
L 207.16734 247.406165 
L 209.77068 246.11406 
L 226.190934 269.641062 
L 229.483981 267.73982 
L 211.909548 233.330551 
L 214.067975 231.8963 
L 223.476789 240.325652 
L 225.849438 238.524244 
L 233.599858 243.147726 
L 236.056234 241.026631 
L 224.126613 223.748356 
L 225.977714 221.934712 
L 250.3452 241.028556 
L 252.726665 238.381998 
L 256.216109 236.637093 
L 258.456594 233.808112 
L 231.201277 209.798837 
L 232.610276 207.769646 
L 240.481269 209.786787 
L 241.885302 207.465819 
L 287.901854 229.332643 
L 289.897005 225.511004 
L 298.060211 224.543187 
L 299.899748 220.404515 
L 254.235178 197.776952 
L 255.254795 195.02947 
L 288.479509 202.530686 
L 289.631662 198.704136 
L 304.858622 198.396864 
L 305.8727 194.057363 
L 247.671073 178.791359 
L 248.096986 176.259654 
L 318.795777 182.163204 
L 319.292542 177.393515 
L 305.028808 171.782661 
L 305.205994 167.450967 
L 275.209847 163.304764 
L 275.135212 159.914836 
L 277.259087 156.369202 
L 276.965369 152.918271 
L 262.820514 151.304041 
L 262.374675 148.309594 
L 289.79221 139.809568 
L 288.971624 135.972755 
L 270.902018 136.681195 
L 269.992409 133.439877 
L 242.6685 138.970851 
L 241.844843 136.616126 
L 258.802653 127.081065 
L 257.597177 124.224925 
L 259.775852 119.74502 
L 258.339234 116.861908 
L 298.500973 90.736911 
L 296.133129 86.650539 
L 280.688904 90.983437 
L 278.337619 87.456993 
L 234.95961 114.168869 
L 233.359935 112.068791 
L 266.505274 80.810777 
L 263.841151 77.735327 
L 234.868769 99.710493 
L 232.814536 97.62042 
L 262.089512 61.685075 
L 258.826219 58.757923 
L 258.879219 51.756166 
L 255.305326 48.934862 
L 249.851727 48.732762 
L 246.187235 46.196796 
L 220.008326 79.708336 
L 217.332529 78.095397 
L 208.750251 87.409627 
L 206.322166 86.146859 
L 204.178329 84.26175 
L 201.653529 83.14429 
L 218.00975 33.268349 
L 213.874766 31.741211 
L 213.878243 17.127886 
L 209.23781 15.738632 
L 203.069134 20.475449 
L 198.5393 19.424401 
L 188.853753 46.548935 
L 185.150756 45.931959 
L 181.883276 41.607485 
L 178.028355 41.212119 
L 172.129402 77.851591 
L 169.418898 77.744988 
L 166.651886 70.792113 
L 163.722124 70.861226 
L 158.999102 45.669555 
L 155.283216 45.991709 
L 147.78193 18.187431 
L 143.207492 18.875866 
L 138.356149 18.197056 
L 133.786674 19.181853 
L 135.770766 44.875705 
L 132.041404 45.928602 
L 135.42255 68.283589 
L 132.429356 69.335861 
L 110.369105 23.374244 
L 105.976249 25.236455 
L 123.001417 71.661311 
L 120.120567 73.102461 
L 95.439163 35.669052 
L 91.440265 37.994614 
L 111.769601 77.958972 
L 109.092317 79.75016 
L 114.258404 92.151643 
L 112.026138 93.857561 
L 96.456627 79.723744 
L 93.842402 81.995534 
L 66.294385 58.174807 
L 63.017527 61.405617 
L 97.200109 99.212468 
L 95.198285 101.451245 
L 86.692973 98.408777 
L 84.671074 100.978318 
L 98.407556 114.790306 
L 96.894936 116.983416 
L 49.022841 90.332498 
L 46.765631 94.090465 
L 92.102723 123.467697 
L 90.866057 125.854754 
L 56.813738 113.161849 
L 55.270481 116.663565 
L 86.89592 132.95549 
L 85.960144 135.501569 
L 29.272256 120.495979 
L 27.973217 124.860033 
L 46.252916 134.064499 
L 45.372105 137.887936 
L 46.127659 142.011815 
L 45.496792 145.835261 
L 63.346168 151.822595 
L 63.01526 155.099802 
L 19.718207 156.081087 
L 19.542766 160.727947 
L 71.88451 164.883932 
L 71.960057 167.886217 
L 15.284486 175.003402 
L 15.706196 179.780313 
L 57.488801 178.934693 
L 58.013252 182.382664 
L 39.76761 189.602284 
L 40.636236 193.602173 
L 31.212677 200.355364 
L 32.423633 204.618922 
L 69.545143 196.830775 
L 70.626326 199.89082 
L 65.383544 205.53022 
L 66.740314 208.716813 
L 57.792277 216.881153 
L 59.509698 220.30082 
L 67.374658 220.265197 
L 69.193743 223.3819 
L 60.125571 233.565824 
L 62.366442 236.903878 
L 59.14453 244.300437 
L 61.723405 247.664029 
L 52.637873 260.88338 
L 55.74137 264.443357 
L 61.735503 265.23935 
L 64.971462 268.511124 
L 81.866442 256.942105 
L 84.831565 259.58502 
L 83.515173 267.519704 
L 86.812064 270.10555 
L 106.698739 249.359114 
L 109.413158 251.224996 
L 105.690826 263.477747 
L 108.849664 265.36834 
L 98.236842 292.952612 
L 102.326119 295.063001 
L 132.444418 240.317837 
L 134.86183 241.378689 
L 121.860976 282.631668 
L 125.61406 284.004366 
L 137.463986 259.533286 
L 140.483092 260.426812 
L 136.739085 288.901546 
L 140.681952 289.803343 
L 140.567392 313.322839 
L 145.276225 314.092192 
L 152.565048 292.524402 
L 156.614001 292.926806 
L 161.192903 283.202631 
L 164.944493 283.338364 
L 168.65611 279.505326 
L 172.287759 279.408228 
L 177.79116 304.544083 
L 182.205565 304.147379 
L 178.097764 241.809013 
L 180.539489 241.433687 
L 197.176832 311.186593 
L 201.790507 310.177077 
L 196.37385 271.833238 
L 199.750567 270.868426 
L 198.908503 257.392026 
L 201.829903 256.35466 
L 204.717242 255.225952 
L 207.567664 254.007017 
L 207.691238 247.154304 
L 210.286399 245.845851 
L 226.8543 269.269113 
L 230.135325 267.347197 
L 212.344825 233.049142 
L 214.494188 231.601345 
L 223.955832 239.971354 
L 226.317104 238.155058 
L 234.09645 242.729704 
L 236.539437 240.593201 
L 224.501381 223.390299 
L 226.341039 221.565048 
L 250.828133 240.505256 
L 253.192905 237.843773 
L 256.671306 236.076956 
L 258.893954 233.23394 
L 231.48817 209.39656 
L 232.88438 207.358548 
L 240.767904 209.326144 
L 242.157311 206.996392 
L 288.310483 228.573365 
L 290.281558 224.739253 
L 298.438516 223.720114 
L 300.251987 219.569954 
L 254.446006 197.230043 
L 255.448322 194.476202 
L 288.719557 201.768305 
L 289.84762 197.934584 
L 305.072347 197.531549 
L 306.059112 193.185756 
L 247.762622 178.28611 
L 248.172603 175.751775 
L 318.907125 181.210554 
L 319.373882 176.437835 
L 305.075142 170.916802 
L 305.22508 166.58408 
L 275.203449 162.626618 
L 275.107495 159.237226 
L 277.209028 155.678304 
L 276.893612 152.229288 
L 262.738883 150.704054 
L 262.27422 147.71247 
L 289.637752 139.040171 
L 288.793051 135.208595 
L 270.728258 136.030668 
L 269.798281 132.795136 
L 242.509699 138.497853 
L 241.671248 136.148354 
L 258.568753 126.506827 
L 257.345338 123.658325 
L 259.495793 119.164806 
L 258.04107 116.290787 
L 298.037703 89.913712 
L 295.644206 85.842312 
L 280.227537 90.27226 
L 277.854119 86.760674 
L 234.644971 113.744845 
L 233.03212 111.65487 
L 265.980208 80.189009 
L 263.296795 77.130375 
L 234.463197 99.287327 
L 232.39586 97.210215 
L 261.444244 61.091458 
L 258.162604 58.184888 
L 258.171566 51.182936 
L 254.579999 48.384165 
L 249.125237 48.216369 
L 245.444868 45.703501 
L 219.477245 79.379029 
L 216.791357 77.782951 
L 208.26783 87.150974 
L 205.831851 85.903502 
L 203.676201 84.031915 
L 201.144422 82.930356 
L 217.186628 32.952531 
L 213.042121 31.451429 
L 212.953688 16.838372 
L 208.30461 15.478331 
L 202.165847 20.253851 
L 197.629493 19.231315 
L 188.114735 46.416228 
L 184.407931 45.822554 
L 181.113317 41.518717 
L 177.255985 41.147604 
L 171.587591 77.823452 
L 168.876469 77.733899 
L 166.065783 70.798564 
L 163.136514 70.886102 
L 158.255144 45.724635 
L 154.541358 46.070153 
L 146.865347 18.313604 
L 142.295329 19.030796 
L 137.439813 18.382512 
L 132.876622 19.396029 
L 135.022274 45.076893 
L 131.299608 46.153225 
L 134.821287 68.486505 
L 131.83477 69.557581 
L 109.485884 23.73562 
L 105.104827 25.625423 
L 122.421644 71.942282 
L 119.549915 73.401522 
L 94.633564 36.124085 
L 90.649372 38.474753 
L 111.229659 78.31046 
L 108.563694 80.118452 
L 113.807677 92.487197 
L 111.586184 94.207121 
L 95.928087 80.171507 
L 93.328202 82.459694 
L 65.630911 58.812699 
L 62.374438 62.064056 
L 96.794128 99.655169 
L 94.806424 101.906492 
L 86.282145 98.917578 
L 84.276446 101.499785 
L 98.099527 115.225105 
L 96.60073 117.427686 
L 48.561962 91.078383 
L 46.328433 94.850472 
L 91.849394 123.941978 
L 90.627765 126.336766 
L 56.496289 113.858282 
L 54.975086 117.369635 
L 86.702366 133.462331 
L 85.782623 136.014246 
L 29.001479 121.365487 
L 27.729913 125.737625 
L 46.067142 134.82694 
L 45.210396 138.655841 
L 45.991871 142.774887 
L 45.385064 146.602225 
L 63.271744 152.477178 
L 62.961454 155.756401 
L 19.67143 157.009981 
L 19.525218 161.657852 
L 71.892066 165.484556 
L 71.986494 168.486306 
L 15.356807 175.959807 
L 15.808553 180.733971 
L 57.585013 179.62558 
L 58.131139 183.070184 
L 39.931266 190.404416 
L 40.825031 194.398763 
L 31.444133 201.211088 
L 32.68188 205.466946 
L 69.753673 197.44548 
L 70.85408 200.498664 
L 65.646871 206.170927 
L 67.023656 209.348924 
L 58.127144 217.56938 
L 59.866039 220.978178 
L 67.730619 220.89309 
L 69.569271 223.99829 
L 60.56533 234.239046 
L 62.82715 237.56294 
L 59.651822 244.979617 
L 62.251801 248.326923 
L 53.249592 261.603155 
L 56.375417 265.143542 
L 62.374438 265.90182 
L 65.630911 269.153177 
L 82.452794 257.478127 
L 85.434481 260.102341 
L 84.16802 268.045147 
L 87.481108 270.610206 
L 107.236907 249.739104 
L 109.963008 251.587878 
L 106.317812 263.863797 
L 109.488478 265.734486 
L 99.049356 293.384961 
L 103.151826 295.469589 
L 132.925212 240.536081 
L 135.349248 241.581708 
L 122.608109 282.915639 
L 126.369753 284.264705 
L 138.065535 259.71958 
L 141.090201 260.594099 
L 137.525359 289.091818 
L 141.473819 289.968799 
L 141.507186 313.48855 
L 146.220764 314.228271 
L 153.373794 292.615066 
L 157.425198 292.991996 
L 161.94285 283.239215 
L 165.695219 283.35135 
L 169.382656 279.495044 
L 173.013621 279.375107 
L 178.675004 304.475851 
L 183.086826 304.051391 
L 178.587034 241.740094 
L 181.02635 241.349418 
L 198.10207 310.996305 
L 202.709305 309.957792 
L 197.051594 271.648778 
L 200.422176 270.662748 
L 199.49537 257.191911 
L 202.410188 256.136191 
L 205.29037 254.989345 
L 208.13307 253.752507 
L 208.213542 246.899152 
L 210.800422 245.574404 
L 227.515315 268.893 
L 230.784186 266.950486 
L 212.778323 232.765002 
L 214.918538 231.303714 
L 224.432637 239.61405 
L 226.782439 237.782939 
L 234.590403 242.308566 
L 237.019904 240.156741 
L 224.87389 223.029891 
L 226.702031 221.193106 
L 251.307764 239.97893 
L 253.655751 237.302626 
L 257.12297 235.513967 
L 259.327693 232.657028 
L 231.772529 208.992486 
L 233.155892 206.945733 
L 241.051635 208.863707 
L 242.426362 206.525263 
L 288.714328 227.811531 
L 290.66125 223.965099 
L 298.811637 222.894677 
L 300.59897 218.733194 
L 254.653389 196.681818 
L 255.638366 193.921727 
L 288.954806 201.004429 
L 290.058735 197.163689 
L 305.280625 196.664907 
L 306.240038 192.312994 
L 247.850991 177.780294 
L 248.245025 175.243431 
L 319.01248 180.257222 
L 319.449211 175.481661 
L 305.116028 170.050669 
L 305.238713 165.71709 
L 275.192786 161.948525 
L 275.075516 158.559804 
L 277.154624 154.987735 
L 276.817522 151.540771 
L 262.653481 150.104592 
L 262.170011 147.11599 
L 289.478458 138.271761 
L 288.609676 134.445574 
L 270.55041 135.381248 
L 269.600102 132.151629 
L 242.347927 138.025862 
L 241.494715 135.681683 
L 258.331246 125.934071 
L 257.089939 123.09332 
L 259.21209 118.586365 
L 257.739321 115.721552 
L 297.569266 89.093443 
L 295.150209 85.037177 
L 279.761707 89.564 
L 277.36625 86.067411 
L 234.327671 113.322809 
L 232.701708 111.243019 
L 265.451241 79.570555 
L 262.748644 76.52886 
L 234.054971 98.86672 
L 231.974611 96.802651 
L 260.795254 60.501911 
L 257.495399 57.616038 
L 257.460322 50.614169 
L 253.851224 47.838042 
L 248.395515 47.704556 
L 244.699413 45.214886 
L 218.944104 79.053069 
L 216.248231 77.473915 
L 207.783792 86.895361 
L 205.340015 85.663235 
L 203.172636 83.805243 
L 200.633979 82.719629 
L 216.361536 32.641895 
L 212.20767 31.166891 
L 212.027331 16.554678 
L 207.369791 15.223904 
L 201.261185 20.037939 
L 196.718489 19.043954 
L 187.374897 46.288172 
L 183.664432 45.717824 
L 180.342815 41.434793 
L 176.483225 41.087948 
L 171.045613 77.798721 
L 168.333982 77.726221 
L 165.479732 70.808702 
L 162.551072 70.914661 
L 157.511547 45.784392 
L 153.800007 46.153262 
L 145.949575 18.44554 
L 141.384158 19.19146 
L 136.524661 18.573727 
L 131.967935 19.615924 
L 134.275063 45.282786 
L 130.55924 46.382509 
L 134.221313 68.693198 
L 131.241592 69.783037 
L 108.604953 24.102543 
L 104.235869 26.019863 
L 121.843649 72.226894 
L 118.981155 73.704166 
L 93.830843 36.584176 
L 89.861514 38.959856 
L 110.691939 78.665337 
L 108.037397 80.49006 
L 113.359069 92.82558 
L 111.148437 94.559441 
L 95.402374 80.622586 
L 92.816932 82.927079 
L 64.971462 59.454752 
L 61.735503 62.726526 
L 96.390939 100.100415 
L 94.417434 102.364195 
L 85.874524 99.428953 
L 83.885107 102.023724 
L 97.794238 115.661833 
L 96.309324 117.873797 
L 48.105784 91.827152 
L 45.896023 95.613213 
L 91.599053 124.417843 
L 90.392511 126.820268 
L 56.183226 114.556698 
L 54.684138 118.077549 
L 86.512005 133.97038 
L 85.60833 136.528029 
L 28.736176 122.236681 
L 27.492134 126.61673 
L 45.886166 135.590535 
L 45.053519 139.424748 
L 45.860886 143.538798 
L 45.278162 147.369876 
L 63.201439 153.132216 
L 62.91178 156.413326 
L 19.630495 157.93915 
L 19.513519 162.58785 
L 71.903399 166.08512 
L 72.016704 169.086217 
L 15.435141 176.915739 
L 15.916905 181.686967 
L 57.685568 180.315847 
L 58.253348 183.756948 
L 40.099963 191.205502 
L 41.018833 195.194149 
L 31.680965 202.06534 
L 32.945455 206.313329 
L 69.966064 198.058861 
L 71.085652 201.105063 
L 65.914222 206.809965 
L 67.310967 209.97924 
L 58.466333 218.255488 
L 60.226633 221.653281 
L 68.090523 221.518731 
L 69.948668 224.612305 
L 61.009314 234.909489 
L 63.291995 238.219091 
L 60.163376 245.655593 
L 62.784357 248.98648 
L 53.865825 262.319068 
L 57.013855 265.839726 
L 63.017527 266.560258 
L 66.294385 269.791069 
L 83.042506 258.01045 
L 86.040638 260.615859 
L 84.824158 268.566474 
L 88.153314 271.110645 
L 107.777455 250.115703 
L 110.515129 251.947294 
L 106.947214 264.245897 
L 110.129583 266.096607 
L 99.864573 293.812191 
L 103.980073 295.870976 
L 133.40737 240.751296 
L 135.837934 241.781657 
L 123.357014 283.194905 
L 127.127068 284.520286 
L 138.668245 259.902086 
L 141.698351 260.757565 
L 138.312813 289.27714 
L 142.266711 290.129271 
L 142.448003 313.648347 
L 147.166141 314.358408 
L 154.183095 292.700642 
L 158.236789 293.052083 
L 162.693012 283.271081 
L 166.446012 283.359614 
L 170.109122 279.480192 
L 173.739261 279.337421 
L 179.558401 304.402062 
L 183.967467 303.949862 
L 179.075861 241.668099 
L 181.512672 241.262088 
L 199.026093 310.800202 
L 203.626705 309.732732 
L 197.728164 271.46006 
L 201.092478 270.45285 
L 200.080967 256.988108 
L 202.989087 255.914077 
L 205.861999 254.749139 
L 208.696863 253.494447 
L 208.73423 246.640721 
L 211.312728 245.299729 
L 228.17395 268.512736 
L 231.43054 266.549702 
L 213.210025 232.47814 
L 215.341007 231.003421 
L 224.907186 239.253754 
L 227.245424 237.4079 
L 235.081698 241.88433 
L 237.497617 239.717267 
L 225.244125 222.667148 
L 227.060678 220.818901 
L 251.784076 239.449597 
L 254.115184 236.758579 
L 257.571085 234.948149 
L 259.757796 232.077399 
L 232.05434 208.586632 
L 233.424803 206.531219 
L 241.332453 208.399495 
L 242.692445 206.052451 
L 289.113374 227.047173 
L 291.036066 223.188572 
L 299.179559 222.06691 
L 300.940683 217.894268 
L 254.857321 196.1323 
L 255.824918 193.366069 
L 289.185245 200.239089 
L 290.264997 196.391482 
L 305.483449 195.796973 
L 306.415472 191.439111 
L 247.936177 177.273933 
L 248.314248 174.734642 
L 319.111838 179.303247 
L 319.518523 174.525034 
L 305.151467 169.184296 
L 305.246893 164.850031 
L 275.177858 161.270513 
L 275.039278 157.882596 
L 277.095878 154.297521 
L 276.737103 150.852745 
L 262.564309 149.505679 
L 262.062053 146.520177 
L 289.314334 137.504368 
L 288.421505 133.68372 
L 270.368481 134.732959 
L 269.397879 131.509381 
L 242.183189 137.554899 
L 241.315251 135.216132 
L 258.090141 125.362821 
L 256.830993 122.529933 
L 258.924755 118.00972 
L 257.433997 115.154226 
L 297.095678 88.276136 
L 294.651158 84.235165 
L 279.291431 88.858683 
L 276.87403 85.377229 
L 234.007724 112.902777 
L 232.368711 110.833254 
L 264.918396 78.955441 
L 262.196722 75.930803 
L 233.644109 98.448689 
L 231.550808 96.397745 
L 260.14257 59.916457 
L 256.824629 57.051396 
L 256.745516 50.049885 
L 253.119028 47.296513 
L 247.662587 47.197343 
L 243.950901 44.730968 
L 218.408924 78.730468 
L 215.703172 77.168301 
L 207.298155 86.642798 
L 204.846678 85.426066 
L 202.667656 83.581742 
L 200.122221 82.512116 
L 215.534506 32.336456 
L 211.371446 30.887605 
L 211.099208 16.276816 
L 206.43339 14.975362 
L 200.355182 19.827722 
L 195.806325 18.862327 
L 186.634269 46.164772 
L 182.92029 45.617772 
L 179.5718 41.355716 
L 175.710106 41.033153 
L 170.503491 77.7774 
L 167.791458 77.721956 
L 164.893756 70.822525 
L 161.96582 70.946902 
L 156.76834 45.848826 
L 153.059194 46.241032 
L 145.034651 18.583232 
L 140.474016 19.357852 
L 135.61073 18.770694 
L 131.060648 19.84153 
L 133.529161 45.493373 
L 129.820328 46.616446 
L 133.62265 68.903661 
L 130.649842 70.012219 
L 107.726347 24.475 
L 103.369408 26.419762 
L 121.267457 72.515135 
L 118.41431 74.010382 
L 93.031032 37.049307 
L 89.076723 39.449905 
L 110.156461 79.023589 
L 107.513448 80.864971 
L 112.912598 93.166777 
L 110.712915 94.914508 
L 94.879509 81.076962 
L 92.308612 83.39767 
L 64.316065 60.10094 
L 61.100747 63.393001 
L 95.990558 100.548188 
L 94.03133 102.824336 
L 85.470129 99.942882 
L 83.49707 102.550114 
L 97.491702 116.100473 
L 96.020729 118.321731 
L 47.654324 92.578775 
L 45.468419 96.37866 
L 91.35171 124.895274 
L 90.160301 127.305239 
L 55.874563 115.257069 
L 54.397648 118.787279 
L 86.324842 134.479616 
L 85.437272 137.042898 
L 28.476358 123.109526 
L 27.259889 127.497313 
L 45.709997 136.355252 
L 44.901482 140.194627 
L 45.734707 144.303517 
L 45.17609 148.138185 
L 63.135255 153.787683 
L 62.866237 157.07055 
L 19.595406 158.868559 
L 19.507669 163.517902 
L 71.918509 166.6856 
L 72.050687 169.685926 
L 15.519487 177.871159 
L 16.031249 182.639262 
L 57.790462 181.005469 
L 58.379874 184.44293 
L 40.273695 192.005512 
L 41.217633 195.9883 
L 31.923166 202.918085 
L 33.214348 207.158038 
L 70.182309 198.670894 
L 71.321034 201.709995 
L 66.185586 207.447309 
L 67.602237 210.607736 
L 58.809831 218.939448 
L 60.591467 222.326103 
L 68.454355 222.142096 
L 70.33192 225.223923 
L 61.457505 235.577126 
L 63.760957 238.872306 
L 60.679172 246.328338 
L 63.32105 249.642675 
L 54.486549 263.031092 
L 57.65666 266.53188 
L 63.664744 267.214639 
L 66.961857 270.424776 
L 83.635554 258.539054 
L 86.650013 261.125555 
L 85.483562 269.083664 
L 88.828653 271.606845 
L 108.32036 250.488894 
L 111.0695 252.303231 
L 107.579006 264.624031 
L 110.772952 266.454688 
L 100.68246 294.234286 
L 104.810828 296.267146 
L 133.890871 240.963475 
L 136.327868 241.978529 
L 124.107661 283.469456 
L 127.885976 284.771098 
L 139.27209 260.080798 
L 142.307517 260.917202 
L 139.101418 289.457507 
L 143.060597 290.284753 
L 143.389807 313.802224 
L 148.112317 314.482596 
L 154.992917 292.781126 
L 159.048741 293.107064 
L 163.44336 283.298229 
L 167.196843 283.363156 
L 170.83548 279.460772 
L 174.46465 279.295172 
L 180.441317 304.322718 
L 184.847452 303.842797 
L 179.564225 241.59303 
L 181.998434 241.171702 
L 199.948865 310.59829 
L 204.542672 309.501906 
L 198.403535 271.26709 
L 201.761447 270.238741 
L 200.66527 256.780627 
L 203.566577 255.688327 
L 206.432106 254.505343 
L 209.259023 253.232845 
L 209.253283 246.37902 
L 211.823295 245.021837 
L 228.830181 268.128338 
L 232.07436 266.14486 
L 213.639915 232.188569 
L 215.761579 230.700476 
L 225.379459 238.89048 
L 227.706042 237.029957 
L 235.570314 241.457013 
L 237.972556 239.274798 
L 225.612071 222.302084 
L 227.416963 220.442448 
L 252.257049 238.91728 
L 254.571186 236.211653 
L 258.015632 234.379523 
L 260.184244 231.495077 
L 232.333592 208.179013 
L 233.691101 206.115021 
L 241.610345 207.933527 
L 242.955549 205.577975 
L 289.507605 226.280321 
L 291.40599 222.409703 
L 299.542268 221.236845 
L 301.277113 217.053209 
L 255.057792 195.58151 
L 256.007972 192.809248 
L 289.410867 199.472314 
L 290.466398 195.617993 
L 305.68081 194.92778 
L 306.585406 190.564143 
L 248.018176 176.767046 
L 248.380269 174.225428 
L 319.205193 178.348665 
L 319.581818 173.567989 
L 305.181456 168.317718 
L 275.21198 163.982938 
z
" clip-path="url(#pc36e7054f0)" style="fill: #0000ff; opacity: 0.5; stroke: #000000; stroke-width: 1.5; stroke-linejoin: miter"/>
   </g>
  </g>
 </g>
 <defs>
  <clipPath id="pc36e7054f0">
   <rect x="0" y="0" width="334.8" height="329.457958"/>
  </clipPath>
 </defs>
</svg>
