<?xml version="1.0" encoding="utf-8" standalone="no"?>
<!DOCTYPE svg PUBLIC "-//W3C//DTD SVG 1.1//EN"
  "http://www.w3.org/Graphics/SVG/1.1/DTD/svg11.dtd">
<svg xmlns:xlink="http://www.w3.org/1999/xlink" width="334.8pt" height="319.040321pt" viewBox="0 0 334.8 319.040321" xmlns="http://www.w3.org/2000/svg" version="1.1">
 <metadata>
  <rdf:RDF xmlns:dc="http://purl.org/dc/elements/1.1/" xmlns:cc="http://creativecommons.org/ns#" xmlns:rdf="http://www.w3.org/1999/02/22-rdf-syntax-ns#">
   <cc:Work>
    <dc:type rdf:resource="http://purl.org/dc/dcmitype/StillImage"/>
    <dc:date>2023-12-09T18:06:24.038006</dc:date>
    <dc:format>image/svg+xml</dc:format>
    <dc:creator>
     <cc:Agent>
      <dc:title>Matplotlib v3.8.2, https://matplotlib.org/</dc:title>
     </cc:Agent>
    </dc:creator>
   </cc:Work>
  </rdf:RDF>
 </metadata>
 <defs>
  <style type="text/css">*{stroke-linejoin: round; stroke-linecap: butt}</style>
 </defs>
 <g id="figure_1">
  <g id="patch_1">
   <path d="M 0 319.040321 
L 334.8 319.040321 
L 334.8 0 
L 0 0 
L 0 319.040321 
z
" style="fill: none"/>
  </g>
  <g id="axes_1">
   <g id="patch_2">
    <path d="M 291.430844 156.467607 
L 291.36952 152.567841 
L 249.41784 151.302374 
L 249.214882 148.726143 
L 251.195742 145.871177 
L 250.821137 143.24173 
L 252.606282 140.197192 
L 252.052576 137.5262 
L 309.635415 119.909905 
L 308.415636 115.455822 
L 292.584364 115.749581 
L 291.242206 111.833678 
L 291.899722 107.120772 
L 290.286594 103.230662 
L 278.226595 104.257492 
L 276.5302 100.798711 
L 275.392505 97.028067 
L 273.470201 93.66197 
L 247.038125 105.865176 
L 245.407699 103.386233 
L 255.391113 92.454549 
L 253.334897 89.719601 
L 254.709478 84.138058 
L 252.392111 81.428654 
L 249.9907 78.793453 
L 247.50762 76.23506 
L 260.03782 57.657774 
L 256.885221 54.793928 
L 237.655262 71.392535 
L 234.94558 69.225655 
L 222.342241 80.697433 
L 219.932696 79.007427 
L 217.878279 76.751143 
L 215.346861 75.203445 
L 225.573207 50.384472 
L 222.208959 48.607865 
L 216.204884 52.448844 
L 212.910176 50.965776 
L 217.669214 29.060303 
L 213.638395 27.542758 
L 194.571374 72.48689 
L 191.917403 71.67412 
L 202.229068 20.074112 
L 197.923338 19.046482 
L 187.076238 52.546049 
L 183.798989 51.978802 
L 180.694077 50.004768 
L 177.340079 49.639447 
L 173.836358 51.658228 
L 170.537739 51.507711 
L 167.247984 59.07016 
L 164.185671 59.123131 
L 160.734375 53.197659 
L 157.490638 53.458336 
L 157.542807 79.482557 
L 155.127103 79.830588 
L 140.060515 14.501833 
L 135.610318 15.431673 
L 145.675386 72.48763 
L 143.045613 73.212257 
L 137.365401 64.617201 
L 134.492274 65.607004 
L 134.466605 73.756021 
L 131.882255 74.832449 
L 102.97819 20.274062 
L 98.727819 22.366998 
L 101.536567 37.247219 
L 97.820582 39.377091 
L 95.400682 43.547522 
L 91.885826 45.867205 
L 92.931751 54.442355 
L 89.760674 56.83428 
L 91.529911 65.176708 
L 88.697038 67.607402 
L 69.232425 52.41486 
L 66.009316 55.552946 
L 92.350708 86.327362 
L 90.182452 88.721791 
L 65.178611 72.323274 
L 62.58347 75.578977 
L 79.826995 93.177277 
L 77.880308 95.962092 
L 74.091601 97.588551 
L 72.28645 100.551519 
L 66.568769 101.380904 
L 64.886577 104.57853 
L 90.88069 120.712273 
L 89.794297 123.135922 
L 74.619515 120.029454 
L 73.519694 122.964727 
L 31.949718 112.880223 
L 30.646206 117.160663 
L 73.731359 132.705951 
L 73.030554 135.662882 
L 20.072955 128.81436 
L 19.276319 133.460353 
L 66.20394 143.993696 
L 65.861768 147.181725 
L 28.401532 148.152482 
L 28.208812 152.527045 
L 15.218182 156.946184 
L 15.308473 161.730913 
L 28.456579 165.656796 
L 28.814205 170.020974 
L 76.094228 168.305865 
L 76.511593 171.170901 
L 42.658625 180.694739 
L 43.482055 184.604938 
L 56.209878 185.419557 
L 57.175167 188.901339 
L 51.020865 194.727435 
L 52.28138 198.367769 
L 55.775211 201.118861 
L 57.234335 204.606548 
L 96.605754 190.091908 
L 97.697979 192.301245 
L 34.975325 229.899651 
L 37.349664 234.027102 
L 67.413342 220.443481 
L 69.47432 223.555685 
L 59.354058 235.593079 
L 61.895358 238.951194 
L 97.853647 214.453154 
L 99.711226 216.61121 
L 71.792623 246.954145 
L 74.684989 249.915547 
L 71.96353 258.90874 
L 75.231691 261.858858 
L 100.310864 238.233716 
L 102.914941 240.302753 
L 98.467004 252.167599 
L 101.510105 254.287722 
L 121.225416 229.900897 
L 123.55715 231.316455 
L 103.015222 274.763215 
L 106.76653 276.72916 
L 122.777155 252.360783 
L 125.81431 253.716446 
L 136.926744 234.423845 
L 139.392927 235.343483 
L 139.335373 244.156876 
L 142.106392 244.995968 
L 137.092956 276.737241 
L 140.889482 277.630732 
L 150.976032 244.740875 
L 153.759658 245.213671 
L 149.480373 303.760532 
L 154.120445 304.251175 
L 159.879738 285.604901 
L 163.943816 285.777541 
L 167.961063 275.169572 
L 171.693036 275.093277 
L 177.117226 299.952616 
L 181.623905 299.576178 
L 178.392708 240.211304 
L 181.020358 239.824299 
L 188.606939 264.743757 
L 192.000893 264.023465 
L 198.4568 274.973832 
L 202.167541 273.938781 
L 210.858177 287.959737 
L 214.971091 286.528339 
L 216.199832 277.90785 
L 219.994052 276.313468 
L 201.464234 227.896844 
L 203.693284 226.790509 
L 221.428594 253.539396 
L 224.454031 251.792659 
L 213.445343 228.181401 
L 215.677416 226.698212 
L 228.224201 239.249088 
L 230.796959 237.295747 
L 217.684889 216.585177 
L 219.550256 214.974421 
L 232.366204 224.894183 
L 234.485565 222.817707 
L 236.538589 220.67562 
L 238.523246 218.47004 
L 232.191523 209.458814 
L 233.825649 207.395461 
L 249.6108 215.488342 
L 251.425894 212.874308 
L 295.069105 236.466886 
L 297.521335 232.413172 
L 244.994446 198.542067 
L 246.278995 196.08156 
L 237.129802 188.782622 
L 238.111381 186.574222 
L 292.207623 205.03044 
L 293.672837 201.08224 
L 242.808254 180.471702 
L 243.525712 178.088869 
L 304.695535 190.836558 
L 305.708288 186.502728 
L 303.591089 181.587121 
L 304.313566 177.29259 
L 307.167131 173.249607 
L 307.62569 168.84676 
L 319.341083 165.077407 
L 319.536671 160.295825 
L 291.428391 155.68753 
L 291.342541 151.788227 
L 249.383731 150.786638 
L 249.164575 148.211734 
L 251.127439 145.344366 
L 250.736303 142.717327 
L 252.502265 139.661622 
L 251.931771 136.994165 
L 309.402674 119.016055 
L 308.154906 114.569732 
L 292.325795 114.963055 
L 290.959034 111.05567 
L 291.586896 106.338723 
L 289.949333 102.458835 
L 277.896031 103.561495 
L 276.177916 100.113452 
L 275.016528 96.350038 
L 273.073092 92.996098 
L 246.718289 105.365305 
L 245.072304 102.896666 
L 254.986766 91.902408 
L 252.91339 89.180447 
L 254.252839 83.590369 
L 251.918477 80.895593 
L 249.50054 78.275547 
L 247.001418 75.732822 
L 259.41453 57.077097 
L 256.243981 54.233135 
L 237.118799 70.952359 
L 234.395542 68.802564 
L 221.864602 80.353383 
L 219.444476 78.678565 
L 217.375909 76.435247 
L 214.834807 74.903501 
L 224.904853 50.020701 
L 221.529498 48.265288 
L 215.5497 52.143953 
L 212.245729 50.681637 
L 216.8669 28.746665 
L 212.826616 27.254502 
L 194.042645 72.317665 
L 191.383615 71.521604 
L 201.370541 19.857761 
L 197.058433 18.857232 
L 186.422241 52.424359 
L 183.141489 51.877735 
L 180.024223 49.923269 
L 176.667994 49.579049 
L 173.177039 51.619827 
L 169.877539 51.490059 
L 166.635412 59.073049 
L 163.573493 59.14528 
L 160.084997 53.241632 
L 156.842964 53.522705 
L 157.05881 79.546083 
L 154.645342 79.909301 
L 139.168171 14.676598 
L 134.72391 15.634409 
L 145.147629 72.625933 
L 142.522466 73.367086 
L 136.788308 64.807926 
L 133.921463 65.815779 
L 133.947047 73.964796 
L 131.369519 75.057457 
L 102.122884 20.681939 
L 97.88576 22.801567 
L 100.788041 37.663827 
L 97.085525 39.817029 
L 94.691903 44.002598 
L 91.191706 46.344341 
L 92.291543 54.912743 
L 89.135572 57.324565 
L 90.957243 65.6557 
L 88.139714 68.104164 
L 68.579934 53.034344 
L 65.376625 56.192639 
L 91.91105 86.800774 
L 89.757897 89.208793 
L 64.651412 72.96786 
L 62.0768 76.239821 
L 79.430667 93.729321 
L 77.501533 96.526324 
L 73.723131 98.17658 
L 71.93665 101.150842 
L 66.224299 102.016172 
L 64.562251 105.224315 
L 90.657322 121.19425 
L 89.586195 123.624684 
L 74.392175 120.613718 
L 73.310836 123.555851 
L 31.678257 113.732998 
L 30.401693 118.021552 
L 73.583765 133.295551 
L 72.901571 136.256831 
L 19.901945 129.741517 
L 19.134546 134.392429 
L 66.127488 144.630416 
L 65.805373 147.820534 
L 28.351984 149.026875 
L 28.186781 153.402564 
L 15.224202 157.903319 
L 15.344584 162.687385 
L 28.517122 166.530497 
L 28.902189 170.892339 
L 76.17049 168.879899 
L 76.605866 171.742254 
L 42.813467 181.478819 
L 43.661474 185.383762 
L 56.394168 186.118314 
L 57.381337 189.593956 
L 51.2638 195.458644 
L 52.547185 199.090978 
L 56.058249 201.820042 
L 57.53928 205.298482 
L 96.818632 190.536506 
L 97.92473 192.738929 
L 35.43979 230.731082 
L 37.840042 234.843518 
L 67.817692 221.071083 
L 69.898203 224.170262 
L 59.853849 236.271069 
L 62.41622 239.613134 
L 98.219719 214.889422 
L 100.090834 217.035751 
L 72.363623 247.553679 
L 75.274558 250.49683 
L 72.609714 259.506963 
L 75.896365 262.436467 
L 100.826453 238.654058 
L 103.443492 240.706677 
L 99.070267 252.599263 
L 102.126641 254.700204 
L 121.688183 230.189864 
L 124.028774 231.590728 
L 103.760508 275.165826 
L 107.524106 277.108139 
L 123.381152 252.639546 
L 126.426773 253.976081 
L 137.417648 234.61397 
L 139.889565 235.518079 
L 139.887444 244.331659 
L 142.663685 245.153307 
L 137.849984 276.925484 
L 141.652054 277.795079 
L 151.531546 244.842434 
L 154.318091 245.297713 
L 150.407116 303.870331 
L 155.050183 304.33178 
L 160.692087 285.649653 
L 164.757171 285.796728 
L 168.70762 275.163702 
L 172.439039 275.063937 
L 178.019473 299.888669 
L 182.523696 299.483894 
L 178.919191 240.140516 
L 181.544355 239.736993 
L 189.287515 264.608243 
L 192.676872 263.866619 
L 199.201523 274.776166 
L 202.90568 273.717797 
L 211.684329 287.683816 
L 215.788159 286.226578 
L 216.962657 277.598532 
L 220.746774 275.980318 
L 201.91281 227.681194 
L 204.134858 226.560861 
L 222.038052 253.197674 
L 225.052443 251.431943 
L 213.895472 227.89039 
L 216.118172 226.393193 
L 228.743646 238.864908 
L 231.304068 236.895425 
L 218.062 216.267731 
L 219.917199 214.645276 
L 232.795283 224.484236 
L 234.901542 222.394471 
L 236.941053 220.239514 
L 238.911799 218.021496 
L 232.523526 209.050271 
L 234.144642 206.976682 
L 249.980381 214.970123 
L 251.778999 212.344725 
L 295.56973 235.662345 
L 297.996416 231.593287 
L 245.257536 198.053217 
L 246.526584 195.58468 
L 237.331666 188.343429 
L 238.299336 186.128899 
L 292.510587 204.244518 
L 293.95094 200.28718 
L 242.957735 179.996959 
L 243.660192 177.609661 
L 304.908981 189.972374 
L 305.894456 185.63226 
L 303.746383 180.730066 
L 304.441835 176.431076 
L 307.269916 172.370226 
L 307.700774 167.964582 
L 319.392229 164.121621 
L 319.557739 159.338903 
L 291.421031 154.907485 
L 291.310659 151.008799 
L 249.34638 150.271126 
L 249.111033 147.697651 
L 251.055824 144.817995 
L 250.648174 142.193468 
L 252.394881 139.126716 
L 251.807623 136.4629 
L 309.164317 118.123686 
L 307.888608 113.685299 
L 292.062284 114.17817 
L 290.670975 110.279459 
L 291.269157 105.558656 
L 289.607225 101.689145 
L 277.561097 102.867591 
L 275.821328 99.430422 
L 274.636294 95.674387 
L 272.671802 92.332737 
L 246.395316 104.867456 
L 244.733837 102.409218 
L 254.578956 91.352821 
L 252.488501 88.643954 
L 253.792765 83.045562 
L 251.441501 80.365522 
L 249.007132 77.760735 
L 246.492068 75.233779 
L 258.7876 56.50035 
L 255.599227 53.676386 
L 236.579577 70.515566 
L 233.842853 68.382941 
L 221.38481 80.012344 
L 218.954198 78.352781 
L 216.871562 76.122517 
L 214.320877 74.606783 
L 224.234225 49.661141 
L 220.847896 47.926992 
L 214.892611 51.843189 
L 211.579509 50.401682 
L 216.062629 28.43808 
L 212.01304 26.971357 
L 193.512863 72.15177 
L 190.848878 71.372448 
L 200.510671 19.646815 
L 196.192355 18.673426 
L 185.767492 52.306784 
L 182.483367 51.780806 
L 179.35387 49.845984 
L 175.995543 49.52288 
L 172.517491 51.585574 
L 169.217241 51.476561 
L 166.022871 59.079792 
L 162.961466 59.171278 
L 159.435909 53.289688 
L 156.195707 53.591146 
L 156.575222 79.612652 
L 154.164086 79.991041 
L 138.276944 14.856971 
L 133.838796 15.842716 
L 144.620753 72.767554 
L 142.000303 73.525202 
L 136.212426 65.002276 
L 133.351977 66.02814 
L 133.428813 74.176835 
L 130.858208 75.285686 
L 101.27016 21.095188 
L 97.046452 23.241423 
L 100.04215 38.085136 
L 96.35325 40.261581 
L 93.986 44.462122 
L 90.5006 46.825833 
L 91.654306 55.387149 
L 88.513566 57.818772 
L 90.3876 66.138285 
L 87.585526 68.604421 
L 67.931352 53.657919 
L 64.747971 56.836298 
L 91.474378 87.276942 
L 89.336413 89.698455 
L 64.128279 73.615749 
L 61.574296 76.903838 
L 79.037819 94.283846 
L 77.126314 97.092928 
L 73.358366 98.766915 
L 71.590628 101.752354 
L 65.883832 102.653593 
L 64.241994 105.872127 
L 90.436991 121.677623 
L 89.381171 124.114745 
L 74.168514 121.199401 
L 73.105701 124.148276 
L 31.412165 114.587463 
L 30.162598 118.883961 
L 73.439881 133.886067 
L 72.776325 136.85158 
L 19.736771 130.669732 
L 18.998638 135.325378 
L 66.055042 145.267604 
L 65.752998 148.459685 
L 28.307936 149.901563 
L 28.170257 154.278204 
L 15.236241 158.860397 
L 15.386711 163.643612 
L 28.583159 167.4038 
L 28.995652 171.763133 
L 76.250361 169.453443 
L 76.703731 172.313002 
L 42.973238 182.26191 
L 43.845788 186.161443 
L 56.58285 186.815899 
L 57.591859 190.285263 
L 51.511328 196.188311 
L 52.817533 199.812501 
L 56.345693 202.519428 
L 57.848572 205.988485 
L 97.034302 190.979756 
L 98.154231 193.175179 
L 35.909475 231.559575 
L 38.335545 235.656833 
L 68.22598 221.696128 
L 70.325943 224.782161 
L 60.357895 236.945902 
L 62.941234 240.271785 
L 98.588527 215.323378 
L 100.473104 217.457897 
L 72.938382 248.149609 
L 75.86777 251.074395 
L 73.259648 260.101109 
L 76.564659 263.009884 
L 101.344676 239.07115 
L 103.974573 241.107268 
L 99.676232 253.027124 
L 102.745759 255.108801 
L 122.152759 230.475914 
L 124.502114 231.86203 
L 104.508311 275.563742 
L 108.284051 277.482345 
L 123.986889 252.914505 
L 127.040856 254.231857 
L 137.909737 234.801004 
L 140.387292 235.689547 
L 140.440603 244.502967 
L 143.221958 245.307137 
L 138.60818 277.108961 
L 142.415644 277.954626 
L 152.087688 244.940497 
L 154.87704 245.378241 
L 151.334532 303.974298 
L 155.980409 304.406535 
L 161.504702 285.689294 
L 165.57063 285.810799 
L 169.454125 275.153138 
L 173.184843 275.029906 
L 178.9213 299.819049 
L 183.422888 299.385953 
L 179.445218 240.066419 
L 182.067793 239.646393 
L 189.967225 264.468451 
L 193.351851 263.705525 
L 199.944988 274.573819 
L 203.642415 273.492174 
L 212.508728 287.402704 
L 216.603312 285.919685 
L 217.723522 277.284422 
L 221.497386 275.642441 
L 202.360021 227.462727 
L 204.574978 226.32844 
L 222.645349 252.852125 
L 225.648575 251.067471 
L 214.343761 227.596554 
L 216.557001 226.085407 
L 229.260665 238.477468 
L 231.80865 236.491921 
L 218.437107 215.94792 
L 220.282065 214.313829 
L 233.221776 224.071598 
L 235.31485 221.968628 
L 237.340767 219.800886 
L 239.297524 217.570517 
L 232.852954 208.639648 
L 234.460996 206.555904 
L 250.346695 214.449589 
L 252.128765 211.812931 
L 296.065285 234.854671 
L 298.466331 230.770431 
L 245.517546 197.562722 
L 246.771043 195.086252 
L 237.530763 187.902975 
L 238.484486 185.682403 
L 292.808602 203.456705 
L 294.224038 199.490387 
L 243.104226 179.521286 
L 243.791655 177.129616 
L 305.116987 189.106865 
L 306.075146 184.760639 
L 303.896283 179.872052 
L 304.564683 175.568773 
L 307.367168 171.490216 
L 307.770309 167.08195 
L 319.437362 163.165532 
L 319.572788 158.381868 
L 291.408766 154.127501 
L 291.273875 150.229586 
L 249.305787 149.755859 
L 249.054259 147.183916 
L 250.9809 144.292084 
L 250.556751 141.670173 
L 252.284136 138.592497 
L 251.680135 135.932427 
L 308.920351 117.232835 
L 307.616753 112.802559 
L 291.793841 113.394959 
L 290.37804 109.505076 
L 290.946519 104.780603 
L 289.260282 100.921621 
L 277.221804 102.175808 
L 275.460452 98.749649 
L 274.251818 95.001141 
L 272.266348 91.671912 
L 246.069218 104.371648 
L 244.392311 101.923908 
L 254.167696 90.80581 
L 252.060246 88.110144 
L 253.329273 82.50366 
L 250.961199 79.838461 
L 248.510497 77.249036 
L 245.979589 74.737948 
L 258.157056 55.927558 
L 254.950984 53.123703 
L 236.037619 70.082173 
L 233.287536 67.966803 
L 220.902882 79.67433 
L 218.46188 78.030086 
L 216.365259 75.812965 
L 213.805091 74.313304 
L 223.561349 49.305805 
L 220.16418 47.592988 
L 214.233643 51.546564 
L 210.91154 50.125923 
L 215.256433 28.134559 
L 211.1977 26.693334 
L 192.982048 71.989209 
L 190.313214 71.226658 
L 199.649491 19.441281 
L 195.325139 18.495071 
L 185.112016 52.193331 
L 181.824648 51.688018 
L 178.683044 49.772917 
L 175.322751 49.470941 
L 171.857742 51.555469 
L 168.556871 51.467215 
L 165.410384 59.090386 
L 162.349615 59.201126 
L 158.787136 53.341825 
L 155.548894 53.663656 
L 156.092062 79.682261 
L 153.683354 80.075808 
L 137.38687 15.042947 
L 132.955009 16.056585 
L 144.094777 72.912485 
L 141.479144 73.686599 
L 135.637778 65.200244 
L 132.783837 66.244079 
L 132.911923 74.392129 
L 130.348342 75.517126 
L 100.420052 21.513792 
L 96.209926 23.686549 
L 99.298923 38.511127 
L 95.623785 40.710731 
L 93.283001 44.926077 
L 89.812537 47.311663 
L 91.020066 55.865552 
L 87.894682 58.316881 
L 89.821003 66.624443 
L 87.034495 69.108153 
L 67.286705 54.285561 
L 64.123376 57.483899 
L 91.04071 87.755846 
L 88.918016 90.190758 
L 63.60923 74.266916 
L 61.075978 77.571003 
L 78.648466 94.840831 
L 76.754667 97.661879 
L 72.997322 99.359531 
L 71.248395 102.35603 
L 65.54738 103.293144 
L 63.925818 106.52194 
L 90.219704 122.162372 
L 89.179233 124.606087 
L 73.948541 121.786479 
L 72.904296 124.74198 
L 31.151452 115.443585 
L 29.928933 119.747857 
L 73.299715 134.477477 
L 72.654823 137.447104 
L 19.577437 131.598967 
L 18.868601 136.259164 
L 65.986605 145.905235 
L 65.704643 149.099152 
L 28.269391 150.77651 
L 28.159241 155.153931 
L 15.2543 159.817381 
L 15.43485 164.599554 
L 28.654687 168.27667 
L 29.09459 172.633323 
L 76.333837 170.026473 
L 76.805184 172.883124 
L 43.13793 183.043981 
L 44.034989 186.937948 
L 56.775916 187.512283 
L 57.806724 190.975232 
L 51.763441 196.916407 
L 53.092415 200.53231 
L 56.637529 203.216993 
L 58.162197 206.676529 
L 97.252755 191.421641 
L 98.38647 193.609977 
L 36.384362 232.385098 
L 38.836153 236.467016 
L 68.638192 222.318593 
L 70.757523 225.391358 
L 60.866175 237.617552 
L 63.470381 240.927121 
L 98.960058 215.755006 
L 100.858022 217.87763 
L 73.516878 248.741913 
L 76.464604 251.648216 
L 73.913306 260.691156 
L 77.236546 263.579087 
L 101.865512 239.484974 
L 104.508163 241.504511 
L 100.284876 253.451165 
L 103.367436 255.513496 
L 122.619124 230.759037 
L 124.977151 232.130349 
L 105.258602 275.956946 
L 109.046334 277.851764 
L 124.594344 253.185648 
L 127.656536 254.483767 
L 138.402993 234.984938 
L 140.886087 235.857882 
L 140.994829 244.670792 
L 143.781186 245.457454 
L 139.367515 277.287666 
L 143.180223 278.109368 
L 152.644435 245.03506 
L 155.436486 245.455252 
L 152.262583 304.07243 
L 156.911087 304.475439 
L 162.317549 285.723823 
L 166.384161 285.819754 
L 170.200549 275.137878 
L 173.930418 274.991184 
L 179.822672 299.743759 
L 184.321446 299.282358 
L 179.970769 239.989016 
L 182.59065 239.552503 
L 190.646043 264.324387 
L 194.025804 263.540189 
L 200.687165 274.366801 
L 204.377717 273.261922 
L 213.331344 287.116413 
L 217.416519 285.60767 
L 218.482396 276.965533 
L 222.245858 275.299849 
L 202.805848 227.241451 
L 205.013628 226.093256 
L 223.25046 252.502764 
L 226.242402 250.699256 
L 214.790193 227.299905 
L 216.993885 225.774868 
L 229.775237 238.086785 
L 232.310684 236.085251 
L 218.810195 215.625757 
L 220.644839 213.980093 
L 233.645665 223.656287 
L 235.725471 221.540193 
L 237.737714 219.359753 
L 239.680405 217.117121 
L 233.179792 208.226961 
L 234.774696 206.133144 
L 250.709729 213.926761 
L 252.47518 211.278947 
L 296.55575 234.043896 
L 298.931061 229.944636 
L 245.774466 197.070601 
L 247.012363 194.586296 
L 237.727087 187.461277 
L 238.666825 185.234751 
L 293.101657 202.667034 
L 294.492118 198.691891 
L 243.247724 179.0447 
L 243.920096 176.648754 
L 305.319546 188.240065 
L 306.250351 183.887898 
L 304.040784 179.013112 
L 304.682106 174.705714 
L 307.458883 170.609612 
L 307.834291 166.198897 
L 319.476481 162.209177 
L 319.581818 157.424756 
L 291.391595 153.347609 
L 291.232191 149.45062 
L 249.261954 149.240858 
L 248.994254 146.670547 
L 250.90267 143.766656 
L 250.462039 141.147464 
L 252.170033 138.058984 
L 251.549313 135.402766 
L 308.670788 116.343535 
L 307.339351 111.921546 
L 291.520479 112.613451 
L 290.08024 108.732549 
L 290.618993 104.004595 
L 288.908519 100.156294 
L 276.878167 101.486172 
L 275.095302 98.071158 
L 273.863115 94.330327 
L 271.856745 91.013651 
L 245.740008 103.8779 
L 244.047739 101.440756 
L 253.753005 90.261396 
L 251.628642 87.579038 
L 252.862382 81.964683 
L 250.477593 79.314431 
L 248.010653 76.740471 
L 245.464001 74.245351 
L 257.522921 55.358743 
L 254.299278 52.575108 
L 235.492947 69.652197 
L 232.729613 67.554165 
L 220.418837 79.339353 
L 217.967543 77.710494 
L 215.857018 75.506604 
L 213.287469 74.023074 
L 222.886251 48.954709 
L 219.478377 47.263292 
L 213.572823 51.254089 
L 210.241851 49.85437 
L 214.448345 27.836114 
L 210.380627 26.420446 
L 192.450221 71.829991 
L 189.776644 71.08424 
L 198.787035 19.241167 
L 194.456817 18.322174 
L 184.45584 52.084002 
L 181.165358 51.599374 
L 178.011771 49.70407 
L 174.649646 49.423235 
L 171.197816 51.529514 
L 167.896455 51.462023 
L 164.797976 59.104833 
L 161.737964 59.234821 
L 158.138703 53.398042 
L 154.90255 53.740233 
L 155.609349 79.754907 
L 153.203164 80.163596 
L 136.497983 15.234517 
L 132.072584 16.276009 
L 143.569724 73.060721 
L 140.959012 73.851271 
L 135.064386 65.401823 
L 132.217067 66.463586 
L 132.396397 74.61067 
L 129.839943 75.751768 
L 99.572594 21.937734 
L 95.376216 24.136927 
L 98.558391 38.941784 
L 94.897159 41.164459 
L 92.582934 45.394444 
L 89.127542 47.80181 
L 90.388846 56.347936 
L 87.278942 58.818873 
L 89.257475 67.114155 
L 86.486643 69.615342 
L 66.646018 54.917245 
L 63.502868 58.135415 
L 90.610062 88.237469 
L 88.502725 90.685684 
L 63.094287 74.921334 
L 60.581866 78.241288 
L 78.262624 95.400254 
L 76.386605 98.233157 
L 72.640011 99.954407 
L 70.909965 102.961846 
L 65.214957 103.934798 
L 63.613734 107.173729 
L 90.00547 122.648478 
L 88.980389 125.098688 
L 73.732265 122.374929 
L 72.706629 125.336939 
L 30.896129 116.30133 
L 29.700706 120.613205 
L 73.16327 135.069757 
L 72.537069 138.043381 
L 19.423951 132.529187 
L 18.744439 137.193749 
L 65.922179 146.543284 
L 65.660311 149.738911 
L 28.236349 151.651682 
L 28.153732 156.029709 
L 15.278378 160.774232 
L 15.489001 165.555175 
L 28.731703 169.149073 
L 29.198998 173.502873 
L 76.420916 170.598966 
L 76.91022 173.452597 
L 43.307538 183.825001 
L 44.22907 187.713249 
L 56.973357 188.207438 
L 58.025925 191.663837 
L 52.020128 197.642902 
L 53.371817 201.250376 
L 56.933747 203.912709 
L 58.480143 207.362587 
L 97.473984 191.862143 
L 98.62144 194.043305 
L 36.864431 233.207618 
L 39.341846 237.274035 
L 69.054311 222.938454 
L 71.192926 225.997828 
L 61.37867 238.285991 
L 64.003639 241.579116 
L 99.334295 216.184289 
L 101.245573 218.294934 
L 74.099088 249.330567 
L 77.065034 252.218273 
L 74.570662 261.27708 
L 77.912 264.144052 
L 102.38894 239.895514 
L 105.04424 241.89839 
L 100.896175 253.87137 
L 103.991645 255.914272 
L 123.087261 231.039221 
L 125.453866 232.395676 
L 106.011352 276.345424 
L 109.810926 278.216382 
L 125.203493 253.452965 
L 128.273789 254.731799 
L 138.897396 235.165767 
L 141.385932 236.023077 
L 141.550099 244.835128 
L 144.341349 245.60425 
L 140.127959 277.461592 
L 143.94576 278.259298 
L 153.201766 245.126119 
L 155.996404 245.528743 
L 153.191233 304.164724 
L 157.84218 304.538488 
L 163.130598 285.753239 
L 167.197733 285.823592 
L 170.946863 275.117924 
L 174.675735 274.947775 
L 180.723552 299.6628 
L 185.219336 299.173115 
L 180.495823 239.908308 
L 183.112907 239.455326 
L 191.323941 264.176057 
L 194.698703 263.370617 
L 201.428026 274.155119 
L 205.111555 273.027051 
L 214.152142 286.824954 
L 218.227748 285.290548 
L 219.239249 276.641878 
L 222.992161 274.952556 
L 203.250275 227.017375 
L 205.45079 225.855318 
L 223.853362 252.149604 
L 226.833902 250.327314 
L 215.234751 227.000454 
L 217.428808 225.461586 
L 230.287342 237.692873 
L 232.81015 235.675432 
L 219.181249 215.301253 
L 221.005507 213.644083 
L 234.066933 223.238317 
L 236.133389 221.109185 
L 238.131879 218.916132 
L 240.060426 216.661326 
L 233.504028 207.812227 
L 235.085732 205.708421 
L 251.069466 213.401661 
L 252.81823 210.742795 
L 297.041107 233.230052 
L 299.390588 229.115934 
L 246.028286 196.576874 
L 247.250533 194.084833 
L 237.920629 187.018354 
L 238.846344 184.785961 
L 293.389739 201.875535 
L 294.755171 197.891726 
L 243.388221 178.567222 
L 244.045511 176.167094 
L 305.516649 187.372008 
L 306.420062 183.014073 
L 304.17988 178.15328 
L 304.794098 173.841934 
L 307.545058 169.728448 
L 307.892717 165.31546 
L 319.509584 161.252596 
L 291.430844 156.467607 
z
" clip-path="url(#p29068bb950)" style="fill: #0000ff; opacity: 0.5; stroke: #000000; stroke-width: 1.5; stroke-linejoin: miter"/>
   </g>
  </g>
 </g>
 <defs>
  <clipPath id="p29068bb950">
   <rect x="0" y="-0" width="334.8" height="319.040321"/>
  </clipPath>
 </defs>
</svg>
