<?xml version="1.0" encoding="utf-8" standalone="no"?>
<!DOCTYPE svg PUBLIC "-//W3C//DTD SVG 1.1//EN"
  "http://www.w3.org/Graphics/SVG/1.1/DTD/svg11.dtd">
<svg xmlns:xlink="http://www.w3.org/1999/xlink" width="334.8pt" height="325.693953pt" viewBox="0 0 334.8 325.693953" xmlns="http://www.w3.org/2000/svg" version="1.1">
 <metadata>
  <rdf:RDF xmlns:dc="http://purl.org/dc/elements/1.1/" xmlns:cc="http://creativecommons.org/ns#" xmlns:rdf="http://www.w3.org/1999/02/22-rdf-syntax-ns#">
   <cc:Work>
    <dc:type rdf:resource="http://purl.org/dc/dcmitype/StillImage"/>
    <dc:date>2023-12-09T18:06:24.148841</dc:date>
    <dc:format>image/svg+xml</dc:format>
    <dc:creator>
     <cc:Agent>
      <dc:title>Matplotlib v3.8.2, https://matplotlib.org/</dc:title>
     </cc:Agent>
    </dc:creator>
   </cc:Work>
  </rdf:RDF>
 </metadata>
 <defs>
  <style type="text/css">*{stroke-linejoin: round; stroke-linecap: butt}</style>
 </defs>
 <g id="figure_1">
  <g id="patch_1">
   <path d="M 0 325.693953 
L 334.8 325.693953 
L 334.8 0 
L 0 0 
L 0 325.693953 
z
" style="fill: none"/>
  </g>
  <g id="axes_1">
   <g id="patch_2">
    <path d="M 287.449793 160.901951 
L 287.391277 157.180741 
L 314.593866 151.738999 
L 314.233826 147.16885 
L 250.745655 150.577137 
L 250.380652 148.01509 
L 251.475013 145.171764 
L 250.939692 142.589458 
L 298.906326 127.538266 
L 297.793119 123.473333 
L 269.72029 128.173104 
L 268.641473 125.02553 
L 252.891588 127.68951 
L 251.805887 125.071306 
L 252.056478 121.820475 
L 250.786654 119.231431 
L 244.629558 119.329136 
L 243.285074 116.974843 
L 273.620667 94.48742 
L 271.48077 91.233865 
L 262.267812 93.121229 
L 260.090572 90.225308 
L 245.752005 97.39964 
L 243.717454 95.020897 
L 279.291572 57.267561 
L 275.978597 53.854103 
L 225.922074 100.292221 
L 223.988277 98.535544 
L 257.434068 53.93148 
L 254.027007 51.206919 
L 233.972501 71.43377 
L 231.12735 69.438239 
L 240.799995 47.66745 
L 237.204203 45.468998 
L 213.190919 80.495405 
L 210.640961 79.148812 
L 204.387864 85.688256 
L 202.005533 84.615882 
L 218.000761 36.957507 
L 214.079498 35.481208 
L 213.73271 22.943077 
L 209.372913 21.607904 
L 193.726195 64.45645 
L 190.681561 63.7298 
L 196.509408 16.123134 
L 191.943693 15.332872 
L 181.917295 58.240078 
L 178.683043 57.887799 
L 177.264574 27.90971 
L 173.078969 27.718719 
L 168.911612 41.76746 
L 165.165855 41.832253 
L 163.999134 81.90456 
L 161.517805 82.103968 
L 152.67251 32.625632 
L 148.647343 33.205538 
L 142.715522 23.906427 
L 138.421127 24.803713 
L 141.223962 53.152375 
L 137.849862 54.0821 
L 129.634511 40.218229 
L 125.859463 41.518747 
L 139.814071 87.356099 
L 137.516107 88.313242 
L 110.113562 36.203711 
L 106.22194 38.119994 
L 103.529536 42.215832 
L 99.830204 44.33616 
L 89.457212 35.997863 
L 85.569331 38.563729 
L 109.02732 78.60206 
L 106.469332 80.531534 
L 100.46651 78.32102 
L 97.903918 80.519804 
L 69.05645 54.863111 
L 65.77182 58.061095 
L 69.460951 67.782784 
L 66.582344 70.961662 
L 88.010588 94.154184 
L 85.951985 96.736781 
L 101.127318 111.778472 
L 99.616375 113.939937 
L 70.334502 98.580806 
L 68.42382 101.71699 
L 60.422248 101.529737 
L 58.609188 104.976125 
L 64.006244 111.7958 
L 62.5142 115.124423 
L 47.266362 113.054605 
L 45.822174 116.908945 
L 84.043299 133.5316 
L 83.224769 136.219468 
L 17.155463 122.357728 
L 16.018673 127.154221 
L 25.817855 134.008336 
L 25.043103 138.526704 
L 17.409763 142.204226 
L 16.896865 146.982911 
L 79.125021 155.519602 
L 79.000274 158.35124 
L 33.505576 161.328358 
L 33.586025 165.591499 
L 67.429573 167.625921 
L 67.691257 170.819304 
L 25.303108 179.545581 
L 25.960402 184.057619 
L 64.460023 181.224621 
L 65.150749 184.504649 
L 26.502772 198.031104 
L 27.740698 202.496282 
L 67.091847 194.43662 
L 68.196686 197.627366 
L 79.589382 196.706483 
L 80.759411 199.503157 
L 70.689037 207.641784 
L 72.207296 210.712898 
L 52.572413 225.517611 
L 54.661685 229.149512 
L 56.203914 233.13635 
L 58.53094 236.650302 
L 70.452533 233.143087 
L 72.772726 236.209028 
L 57.730402 253.756001 
L 60.705001 257.211762 
L 76.310392 248.719598 
L 79.117449 251.593653 
L 90.561749 245.202462 
L 93.251173 247.630163 
L 73.643149 277.238475 
L 77.34822 280.182294 
L 109.088029 244.214001 
L 111.737214 246.059683 
L 98.171542 273.697868 
L 101.753162 275.872211 
L 122.637186 246.265676 
L 125.344181 247.684329 
L 104.285382 300.180841 
L 108.696661 302.149858 
L 114.02376 301.789243 
L 118.480796 303.451268 
L 136.845092 261.676571 
L 140.029614 262.640876 
L 139.795408 277.184927 
L 143.466088 278.048801 
L 153.04061 247.204087 
L 155.762077 247.666326 
L 152.72232 295.50339 
L 156.962581 295.951756 
L 160.440106 309.568303 
L 165.118783 309.767051 
L 169.498229 245.549305 
L 172.15953 245.494898 
L 175.347329 253.176739 
L 178.245561 252.934652 
L 185.826676 288.348864 
L 189.825615 287.759894 
L 198.47393 310.889683 
L 203.175349 309.89191 
L 197.312614 268.563334 
L 200.683774 267.623004 
L 200.088516 254.670078 
L 203.02147 253.649336 
L 217.318146 280.900072 
L 221.067309 279.324624 
L 205.534959 237.307122 
L 207.91929 236.123717 
L 243.808143 295.132872 
L 247.991719 292.717483 
L 231.771156 258.513839 
L 234.809301 256.495025 
L 245.671792 265.11922 
L 248.910751 262.660073 
L 230.95068 234.849813 
L 233.245182 232.868497 
L 235.476252 230.816016 
L 237.641685 228.694401 
L 278.218257 262.24115 
L 281.350632 258.760094 
L 282.551905 253.693634 
L 285.413384 250.080546 
L 256.325378 223.524373 
L 258.251237 220.750821 
L 252.78317 213.340148 
L 254.390566 210.683006 
L 306.900024 235.623674 
L 309.181306 231.253962 
L 287.145794 215.609517 
L 288.807554 211.870816 
L 273.550963 201.544759 
L 274.777218 198.240464 
L 249.01225 186.340486 
L 249.772582 183.815259 
L 294.55168 192.306575 
L 295.477082 188.346539 
L 270.07102 179.525715 
L 270.606669 176.341723 
L 250.808978 170.713049 
L 251.07706 168.139055 
L 319.343769 169.415696 
L 319.537174 164.68746 
L 287.447453 160.157591 
L 287.365533 156.436823 
L 314.533358 150.824099 
L 314.144582 146.256305 
L 250.679103 150.06383 
L 250.297994 147.504129 
L 251.37445 144.653977 
L 250.822898 142.075088 
L 298.69392 126.722511 
L 297.555168 122.66466 
L 269.512454 127.5409 
L 268.413862 124.400174 
L 252.681043 127.163158 
L 251.578896 124.551835 
L 251.809036 121.299492 
L 250.522954 118.718486 
L 244.366595 118.854913 
L 243.00733 116.509123 
L 273.20089 93.831351 
L 271.040572 90.59132 
L 261.839667 92.53659 
L 259.644256 89.65442 
L 245.351095 96.918792 
L 243.301624 94.552892 
L 278.637591 56.576561 
L 275.303213 53.184007 
L 225.53975 99.936035 
L 223.594942 98.191555 
L 256.759538 53.378017 
L 253.335408 50.674939 
L 233.408513 71.027522 
L 230.550868 69.049924 
L 240.086396 47.21873 
L 236.476848 45.042937 
L 212.684335 80.219682 
L 210.125958 78.889153 
L 203.914115 85.467796 
L 201.525086 84.410427 
L 217.220254 36.652393 
L 213.289783 35.200786 
L 212.864144 22.665085 
L 208.496036 21.357359 
L 193.119121 64.303466 
L 190.069976 63.59598 
L 195.598289 15.953602 
L 191.027694 15.19207 
L 181.271356 58.161488 
L 178.034953 57.829558 
L 176.427967 27.860983 
L 172.241243 27.696321 
L 168.162327 41.770994 
L 164.417052 41.859345 
L 163.502386 81.938198 
L 161.02236 82.153207 
L 151.86605 32.731482 
L 147.84461 33.336693 
L 141.854419 24.075073 
L 137.565753 24.999351 
L 140.54683 53.329824 
L 137.178644 54.280752 
L 128.876259 40.468825 
L 125.109465 41.79306 
L 139.352088 87.541739 
L 137.06019 88.513316 
L 109.330447 36.577162 
L 105.450955 38.517883 
L 102.784365 42.630574 
L 99.098441 44.774126 
L 88.673211 36.501234 
L 84.801545 39.091503 
L 108.510888 78.981504 
L 105.965087 80.927028 
L 99.94848 78.754312 
L 97.399768 80.96917 
L 68.391504 55.494419 
L 65.127053 58.712998 
L 68.877255 68.411293 
L 66.018698 71.608212 
L 87.592386 94.665504 
L 85.550067 97.260997 
L 100.819703 112.206947 
L 99.322385 114.377872 
L 69.94449 99.203211 
L 68.053571 102.35135 
L 60.050979 102.214426 
L 58.259631 105.672149 
L 63.699473 112.457744 
L 62.228393 115.795686 
L 46.967839 113.821809 
L 45.547921 117.685156 
L 83.872837 134.067093 
L 83.071228 136.760056 
L 16.916047 123.314129 
L 15.809447 128.117677 
L 25.651543 134.910025 
L 24.905225 139.433176 
L 17.295165 143.158635 
L 16.812332 147.940451 
L 79.092949 156.085593 
L 78.986014 158.91796 
L 33.51094 162.181155 
L 33.618199 166.443706 
L 67.473873 168.265231 
L 67.755637 171.456905 
L 25.42321 180.449607 
L 26.108869 184.957421 
L 64.589911 181.882338 
L 65.301252 185.157958 
L 26.739114 198.927219 
L 28.005098 203.384523 
L 67.304779 195.077524 
L 68.429664 198.261258 
L 79.816342 197.26874 
L 81.003938 200.057999 
L 70.98495 208.259803 
L 72.522495 211.321306 
L 52.981114 226.249219 
L 55.093187 229.867908 
L 56.66046 233.844967 
L 59.009541 237.344214 
L 70.90884 233.762088 
L 73.24827 236.813376 
L 58.316604 254.454609 
L 61.312879 257.891593 
L 76.864551 249.301448 
L 79.689628 252.157792 
L 91.093505 245.694749 
L 93.798144 248.105487 
L 74.376728 277.836536 
L 78.100241 280.756994 
L 109.613202 244.589788 
L 112.273942 246.418772 
L 98.882368 274.14173 
L 102.477591 276.293504 
L 123.174995 246.556206 
L 125.890858 247.957806 
L 105.162649 300.585727 
L 109.586225 302.52696 
L 114.910951 302.132848 
L 119.378352 303.766808 
L 137.479546 261.877436 
L 140.67007 262.821694 
L 140.527342 277.36693 
L 144.203382 278.2077 
L 153.583719 247.303378 
L 156.30804 247.748491 
L 153.569211 295.603727 
L 157.812208 296.025415 
L 161.375305 309.619822 
L 166.055139 309.789139 
L 170.030605 245.54512 
L 172.691511 245.473976 
L 175.927561 253.135615 
L 178.824214 252.875305 
L 186.627914 288.241135 
L 190.62307 287.627025 
L 199.416687 310.701964 
L 204.111737 309.674642 
L 197.989185 268.383757 
L 201.354364 267.422242 
L 200.677652 254.473316 
L 203.604127 253.434148 
L 218.071913 280.594427 
L 221.811093 278.99543 
L 206.014784 237.076449 
L 208.391625 235.878071 
L 244.650902 294.660339 
L 248.819204 292.218685 
L 232.38384 258.117735 
L 235.409227 256.079853 
L 246.325745 264.635559 
L 249.549174 262.15609 
L 231.414547 234.459338 
L 233.696542 232.46363 
L 235.914659 230.397158 
L 238.066705 228.261965 
L 278.853465 261.552846 
L 281.963884 258.052159 
L 283.133268 252.978244 
L 285.971967 249.34723 
L 256.717512 222.97453 
L 258.625889 220.188919 
L 253.111322 212.812785 
L 254.701974 210.145585 
L 307.367256 234.755506 
L 309.62101 230.371532 
L 287.487539 214.865987 
L 289.125752 211.116909 
L 273.804518 200.887011 
L 275.009966 197.575069 
L 249.170663 185.837374 
L 249.915098 183.307414 
L 294.746716 191.516927 
L 295.647194 187.551149 
L 270.186156 178.890289 
L 270.701768 175.702992 
L 250.869068 170.198945 
L 251.120956 167.623316 
L 319.394344 168.470573 
L 319.558008 163.741214 
L 287.44043 159.413261 
L 287.335111 155.693081 
L 314.467098 149.909599 
L 314.0496 145.34434 
L 250.609324 149.550951 
L 250.212123 146.993698 
L 251.270632 144.136832 
L 250.702872 141.561463 
L 298.476388 125.908108 
L 297.312137 121.857499 
L 269.300645 126.910016 
L 268.182322 123.776261 
L 252.467192 126.638142 
L 251.348643 124.033802 
L 251.558324 120.780076 
L 250.256034 118.207209 
L 244.100654 118.382354 
L 242.726662 116.045159 
L 272.776995 93.177936 
L 270.596342 89.951555 
L 261.407853 91.954655 
L 259.194359 89.08635 
L 244.947169 96.440474 
L 242.882858 94.087511 
L 277.979277 55.889689 
L 274.623627 52.518173 
L 225.155192 99.58226 
L 223.199451 97.850046 
L 256.081539 52.828809 
L 252.640476 50.147319 
L 232.841982 70.624829 
L 229.971955 68.665243 
L 239.369989 46.774508 
L 235.746828 44.62146 
L 212.176027 79.94715 
L 209.609332 78.632739 
L 203.438988 85.25032 
L 201.043357 84.207998 
L 216.437843 36.352195 
L 212.49832 34.925337 
L 211.993847 22.39256 
L 207.6176 21.112333 
L 192.511096 64.154303 
L 189.457562 63.466008 
L 194.686122 15.789803 
L 190.110827 15.057033 
L 180.624936 58.086963 
L 177.386509 57.775394 
L 175.591069 27.817519 
L 171.403393 27.679193 
L 167.413079 41.779241 
L 163.668434 41.891146 
L 163.00586 81.974959 
L 160.527235 82.205562 
L 151.060271 32.842402 
L 147.042717 33.472894 
L 140.994394 24.249132 
L 136.711626 25.200365 
L 139.870827 53.511529 
L 136.508688 54.483621 
L 128.119599 40.724185 
L 124.361208 42.072084 
L 138.891282 87.73028 
L 136.60554 88.716253 
L 108.549697 36.955531 
L 104.682487 38.920614 
L 102.041816 43.049995 
L 98.369447 45.216687 
L 87.892392 37.009527 
L 84.037093 39.624095 
L 107.996854 79.364188 
L 105.463338 81.325686 
L 99.433186 79.190854 
L 96.898454 81.421698 
L 67.730542 56.129897 
L 64.486399 59.368943 
L 68.297523 69.04346 
L 65.45913 72.258294 
L 87.177409 95.179444 
L 85.151454 97.787731 
L 100.51479 112.637348 
L 99.031155 114.817647 
L 69.558401 99.828057 
L 67.68732 102.988026 
L 59.684025 102.901437 
L 57.91446 106.370358 
L 63.396871 113.121605 
L 61.946814 116.468734 
L 46.674147 114.590875 
L 45.278555 118.463077 
L 83.705747 134.603648 
L 82.921091 137.301599 
L 16.682651 124.272016 
L 15.606284 129.082429 
L 25.490906 135.812742 
L 24.77305 140.340498 
L 17.186572 144.113746 
L 16.733824 148.898504 
L 79.064437 156.651775 
L 78.975318 159.484759 
L 33.521667 163.033901 
L 33.655734 167.295693 
L 67.522194 168.904249 
L 67.824026 172.094088 
L 25.548996 181.352859 
L 26.262992 185.856272 
L 64.723932 182.539226 
L 65.455862 185.810307 
L 26.981087 199.821829 
L 28.27508 204.271083 
L 67.521737 195.717076 
L 68.666624 198.893672 
L 80.046835 197.829557 
L 81.251949 200.611292 
L 71.284745 208.875947 
L 72.841514 211.92772 
L 53.394408 226.978242 
L 55.529199 230.583575 
L 57.121454 234.550699 
L 59.492497 238.035102 
L 71.369031 234.378207 
L 73.727606 237.414721 
L 58.907189 255.149517 
L 61.92502 258.567588 
L 77.422358 249.879802 
L 80.265344 252.718321 
L 91.628346 246.183682 
L 94.348094 248.577362 
L 75.114054 278.429973 
L 78.855861 281.326954 
L 110.140727 244.962264 
L 112.812918 246.774478 
L 99.59597 274.581112 
L 103.204656 276.710232 
L 123.71462 246.843348 
L 126.439245 248.227838 
L 106.042446 300.985087 
L 110.478143 302.89846 
L 115.800285 302.470866 
L 120.277874 304.076697 
L 138.11525 262.074307 
L 141.311649 262.998479 
L 141.260405 277.544325 
L 144.941661 278.361959 
L 154.127442 247.399251 
L 156.854508 247.82722 
L 154.416716 295.698736 
L 158.662281 296.09373 
L 162.310809 309.665458 
L 166.991615 309.805338 
L 170.562944 245.537586 
L 173.22335 245.449708 
L 176.507524 253.090842 
L 179.402482 252.812319 
L 187.428458 288.128369 
L 191.419673 287.489144 
L 200.358244 310.50832 
L 205.046741 309.451489 
L 198.664613 268.199928 
L 202.023678 267.217267 
L 201.265538 254.272853 
L 204.18542 253.2153 
L 218.823742 280.284048 
L 222.552791 278.661565 
L 206.493148 236.842762 
L 208.862405 235.629459 
L 245.490672 294.182514 
L 249.643535 291.714693 
L 232.99402 257.717786 
L 236.006531 255.660916 
L 246.976643 264.147794 
L 250.184414 261.648101 
L 231.875949 234.065954 
L 234.145347 232.055932 
L 236.350423 229.97555 
L 238.488997 227.826864 
L 279.484331 260.860562 
L 282.572671 257.340381 
L 283.71012 252.259212 
L 286.525926 248.610415 
L 257.10618 222.422231 
L 258.996999 219.624673 
L 253.43615 212.283368 
L 255.009995 209.606216 
L 307.829018 233.884416 
L 310.055154 229.486353 
L 287.824601 214.120322 
L 289.439202 210.361015 
L 274.05393 200.227682 
L 275.238525 196.908223 
L 249.325909 185.333275 
L 250.054417 182.798683 
L 294.936781 190.726068 
L 295.812299 186.754705 
L 270.297293 178.254152 
L 270.792849 175.063675 
L 250.925923 169.684473 
L 251.161608 167.107311 
L 319.438973 167.52515 
L 319.572889 162.794855 
L 287.428727 158.668989 
L 287.300012 154.949545 
L 314.395087 148.995533 
L 313.948885 144.43299 
L 250.536321 149.038521 
L 250.123043 146.483817 
L 251.163563 143.62035 
L 250.579617 141.048603 
L 298.253737 125.095089 
L 297.064033 121.051883 
L 269.084874 126.280476 
L 267.946863 123.153817 
L 252.250043 126.11448 
L 251.115137 123.517227 
L 251.304349 120.262246 
L 249.985903 117.697621 
L 243.831747 117.911477 
L 242.443082 115.582969 
L 272.348998 92.527199 
L 270.148097 89.314597 
L 260.972388 91.375448 
L 258.740897 88.521122 
L 244.540243 95.964707 
L 242.461174 93.624773 
L 277.316655 55.20697 
L 273.939868 51.856626 
L 224.768417 99.23091 
L 222.80182 97.511032 
L 255.4001 52.283875 
L 251.94224 49.624081 
L 232.27293 70.225706 
L 229.390635 68.284211 
L 238.650802 46.3348 
L 235.014171 44.204582 
L 211.666015 79.677821 
L 209.091105 78.379578 
L 202.962503 85.035837 
L 200.560363 84.008602 
L 215.653559 36.056924 
L 211.70514 34.654871 
L 211.121853 22.125515 
L 206.737641 20.872838 
L 191.902145 64.008967 
L 188.844343 63.339891 
L 193.772943 15.631744 
L 189.19313 14.927765 
L 179.97806 58.016504 
L 176.737737 57.72531 
L 174.753915 27.779319 
L 170.565452 27.667334 
L 166.663898 41.7922 
L 162.920031 41.927654 
L 162.509574 82.014842 
L 160.032449 82.26103 
L 150.255206 32.958388 
L 146.241697 33.614135 
L 140.135482 24.428596 
L 135.858781 25.406747 
L 139.19598 53.697481 
L 135.840022 54.6907 
L 127.364559 40.984299 
L 123.61472 42.355809 
L 138.431671 87.921717 
L 136.152176 88.922046 
L 107.771342 37.338802 
L 103.916568 39.328169 
L 101.301921 43.474077 
L 97.643252 45.663823 
L 87.114785 37.522721 
L 83.276007 40.161484 
L 107.485236 79.750099 
L 104.964107 81.727492 
L 98.920647 79.630628 
L 96.399997 81.87737 
L 67.07359 56.769519 
L 63.849883 60.028905 
L 67.721779 69.67926 
L 64.903662 72.911883 
L 86.765672 95.695983 
L 84.756161 98.316961 
L 100.212589 113.069658 
L 98.742697 115.259245 
L 69.17625 100.455318 
L 67.32508 103.626993 
L 59.321399 103.590742 
L 57.573686 107.070724 
L 63.09845 113.787356 
L 61.669474 117.143539 
L 46.385298 115.361774 
L 45.014088 119.242676 
L 83.542034 135.141243 
L 82.774363 137.844076 
L 16.455284 125.231353 
L 15.409193 130.04844 
L 25.33595 136.716451 
L 24.646585 141.248632 
L 17.083988 145.06952 
L 16.661342 149.857031 
L 79.039487 157.218125 
L 78.968187 160.051613 
L 33.537757 163.886563 
L 33.698625 168.147428 
L 67.574533 169.542951 
L 67.896422 172.730828 
L 25.68046 182.255302 
L 26.422766 186.754136 
L 64.862083 183.195258 
L 65.614571 186.46167 
L 27.228682 200.7149 
L 28.550633 205.155927 
L 67.742714 196.35525 
L 68.907557 199.524583 
L 80.28085 198.388914 
L 81.503436 201.163015 
L 71.588409 209.490194 
L 73.164341 212.532115 
L 53.812279 227.704651 
L 55.969703 231.296487 
L 57.586878 235.253517 
L 59.979789 238.722939 
L 71.833088 234.99142 
L 74.210714 238.013039 
L 59.502132 255.840697 
L 62.541402 259.23972 
L 77.983791 250.454636 
L 80.844574 253.275218 
L 92.166252 246.669241 
L 94.901001 249.045768 
L 75.855097 279.01876 
L 79.615051 281.89215 
L 110.670585 245.331415 
L 113.354121 247.126786 
L 100.312323 275.015998 
L 103.934328 277.122379 
L 124.25604 247.127089 
L 126.989319 248.494416 
L 106.924736 301.378906 
L 111.37238 303.264343 
L 116.691727 302.803285 
L 121.179328 304.380922 
L 138.752179 262.267176 
L 141.954328 263.171226 
L 141.994571 277.717107 
L 145.680896 278.511571 
L 154.671757 247.491702 
L 157.401461 247.902512 
L 155.264802 295.788413 
L 159.512767 296.156697 
L 163.246581 309.705209 
L 167.928175 309.815647 
L 171.095225 245.526704 
L 173.755026 245.422095 
L 177.087193 253.042423 
L 179.980342 252.745698 
L 188.228278 288.01057 
L 192.215393 287.346256 
L 201.298565 310.308757 
L 205.980322 309.22246 
L 199.338872 268.011854 
L 202.69169 267.008086 
L 201.852152 254.068697 
L 204.765324 252.9928 
L 219.573604 279.968946 
L 223.292375 278.323042 
L 206.970033 236.606072 
L 209.331612 235.377891 
L 246.32742 293.699417 
L 250.46468 291.205526 
L 233.601673 257.314008 
L 236.601187 255.238231 
L 247.62446 263.655945 
L 250.816446 261.136126 
L 232.334867 233.669675 
L 234.591578 231.64542 
L 236.783527 229.55121 
L 238.908545 227.389116 
L 280.110831 260.164323 
L 283.17697 256.624788 
L 284.282439 251.536565 
L 287.07524 247.870131 
L 257.491367 221.867499 
L 259.364554 219.058104 
L 253.757642 211.751918 
L 255.314618 209.064921 
L 308.285292 233.010438 
L 310.483724 228.598462 
L 288.156966 213.372553 
L 289.747891 209.603164 
L 274.299191 199.566796 
L 275.462884 196.239953 
L 249.477982 184.828209 
L 250.190534 182.289086 
L 295.121869 189.93403 
L 295.972392 185.957238 
L 270.404427 177.617329 
L 270.879907 174.423797 
L 250.979542 169.169654 
L 251.199013 166.591061 
L 319.477656 166.579465 
L 319.581818 161.848422 
L 287.412342 157.924806 
L 287.260237 154.206245 
L 314.317328 148.081938 
L 313.842439 143.522292 
L 250.460096 148.526561 
L 250.030759 145.974507 
L 251.053249 143.104552 
L 250.453139 140.536528 
L 298.025978 124.283487 
L 296.810868 120.247843 
L 268.865146 125.652306 
L 267.707493 122.532866 
L 252.029605 125.592195 
L 250.878386 123.002131 
L 251.047122 119.746025 
L 249.712572 117.189743 
L 243.559883 117.4423 
L 242.156601 115.122572 
L 271.916918 91.879167 
L 269.695854 88.680471 
L 260.533288 90.798992 
L 258.28389 87.958756 
L 244.130333 95.491508 
L 242.036587 93.164697 
L 276.649753 54.528432 
L 273.251961 51.199393 
L 224.37944 98.882001 
L 222.402065 97.174525 
L 254.715247 51.743238 
L 251.240727 49.105244 
L 231.701378 69.830171 
L 228.806929 67.906842 
L 237.928864 45.899624 
L 234.278907 43.792321 
L 211.15432 79.411705 
L 208.571295 78.129682 
L 202.484679 84.824355 
L 200.076125 83.812249 
L 214.867434 35.766591 
L 210.910275 34.389399 
L 210.248197 21.86396 
L 205.856193 20.638881 
L 191.292292 63.867465 
L 188.230342 63.217633 
L 192.858788 15.479431 
L 188.274638 14.804271 
L 179.330754 57.950116 
L 176.088664 57.679307 
L 173.916538 27.746386 
L 169.727453 27.660745 
L 165.914814 41.809871 
L 162.171872 41.968869 
L 162.013549 82.057845 
L 159.538021 82.319608 
L 149.450886 33.079435 
L 145.44158 33.760412 
L 139.277714 24.613459 
L 135.00725 25.618489 
L 138.522316 53.887674 
L 135.172671 54.901981 
L 126.611171 41.249156 
L 122.870032 42.644224 
L 137.973274 88.11604 
L 135.700114 89.130686 
L 106.995413 37.726962 
L 103.153227 39.740534 
L 100.564707 43.902804 
L 96.919882 46.115518 
L 86.340421 38.040795 
L 82.518315 40.70365 
L 106.976055 80.139219 
L 104.467413 82.13243 
L 98.410884 80.073617 
L 95.904415 82.336168 
L 66.420674 57.41326 
L 63.21753 60.692857 
L 67.150045 70.318669 
L 64.352315 73.568953 
L 86.357192 96.215103 
L 84.364205 98.848667 
L 99.913114 113.50386 
L 98.457021 115.702649 
L 68.798051 101.084971 
L 66.966866 104.268225 
L 58.963115 104.282314 
L 57.237324 107.773219 
L 62.804223 114.454971 
L 61.396383 117.820075 
L 46.101303 116.134474 
L 44.754529 120.023923 
L 83.381706 135.679857 
L 82.631049 138.387465 
L 16.233955 126.1921 
L 15.218182 131.015672 
L 25.18668 137.621117 
L 24.525834 142.157544 
L 16.987418 146.025921 
L 16.594891 150.815996 
L 79.018099 157.784621 
L 78.964621 160.618501 
L 33.55921 164.739107 
L 33.746873 168.998876 
L 67.630888 170.181311 
L 67.97282 173.367101 
L 25.817597 183.156901 
L 26.588183 187.650976 
L 65.004357 183.850407 
L 65.777374 187.112023 
L 27.481889 201.606396 
L 28.831745 206.039021 
L 67.9677 196.992022 
L 69.152453 200.153966 
L 80.518378 198.946788 
L 81.758388 201.713144 
L 71.89593 210.102519 
L 73.490963 213.134468 
L 54.23471 228.428417 
L 56.414682 232.006613 
L 58.056713 235.953394 
L 60.471397 239.407697 
L 72.300993 235.601701 
L 74.697576 238.608307 
L 60.10141 256.528121 
L 63.161998 259.907961 
L 78.548829 251.025927 
L 81.427295 253.828461 
L 92.707202 247.151408 
L 95.456844 249.510687 
L 76.599829 279.602874 
L 80.37778 282.45256 
L 111.202754 245.697226 
L 113.897529 247.475684 
L 101.031396 275.44637 
L 104.666578 277.529929 
L 124.799234 247.40742 
L 127.541059 248.757529 
L 107.809486 301.767168 
L 112.268901 303.624595 
L 117.585243 303.13009 
L 122.082677 304.679471 
L 139.390309 262.456035 
L 142.598081 263.339928 
L 142.729808 277.885268 
L 146.421057 278.656531 
L 155.216642 247.580728 
L 157.948877 247.974361 
L 156.113435 295.872754 
L 160.363633 296.214313 
L 164.182585 309.739074 
L 168.864781 309.820065 
L 171.627427 245.512475 
L 174.286517 245.39114 
L 177.666547 252.990359 
L 180.557772 252.675444 
L 189.027341 287.887744 
L 193.010199 287.198365 
L 202.237612 310.103285 
L 206.912445 308.987563 
L 200.011934 267.819544 
L 203.358373 266.794708 
L 202.43747 253.860855 
L 205.343818 252.766657 
L 220.32147 279.649134 
L 224.029816 277.979873 
L 207.44542 236.366387 
L 209.799228 235.123378 
L 247.161114 293.211067 
L 251.282606 290.691204 
L 234.206775 256.906415 
L 237.193174 254.811815 
L 248.269172 263.160032 
L 251.445246 260.620187 
L 232.791284 233.270517 
L 235.035219 231.232109 
L 237.213953 229.124155 
L 239.32533 226.948738 
L 280.732939 259.464158 
L 283.776756 255.905409 
L 284.850201 250.810334 
L 287.619887 247.126407 
L 257.873058 221.310354 
L 259.728538 218.489234 
L 254.075785 211.218457 
L 255.615831 208.521721 
L 308.736061 232.133609 
L 310.9067 227.707893 
L 288.484621 212.622707 
L 290.051808 208.843388 
L 274.54029 198.904382 
L 275.683037 195.570285 
L 249.626874 184.322197 
L 250.323443 181.778643 
L 295.301972 189.140843 
L 296.127466 185.158781 
L 270.507554 176.979844 
L 270.962938 173.783385 
L 251.029922 168.654508 
L 251.23317 166.074585 
L 319.51039 165.633556 
L 287.449793 160.901951 
z
" clip-path="url(#p6254797ce0)" style="fill: #0000ff; opacity: 0.5; stroke: #000000; stroke-width: 1.5; stroke-linejoin: miter"/>
   </g>
  </g>
 </g>
 <defs>
  <clipPath id="p6254797ce0">
   <rect x="0" y="0" width="334.8" height="325.693953"/>
  </clipPath>
 </defs>
</svg>
