<?xml version="1.0" encoding="utf-8" standalone="no"?>
<!DOCTYPE svg PUBLIC "-//W3C//DTD SVG 1.1//EN"
  "http://www.w3.org/Graphics/SVG/1.1/DTD/svg11.dtd">
<svg xmlns:xlink="http://www.w3.org/1999/xlink" width="325.475728pt" height="332.64pt" viewBox="0 0 325.475728 332.64" xmlns="http://www.w3.org/2000/svg" version="1.1">
 <metadata>
  <rdf:RDF xmlns:dc="http://purl.org/dc/elements/1.1/" xmlns:cc="http://creativecommons.org/ns#" xmlns:rdf="http://www.w3.org/1999/02/22-rdf-syntax-ns#">
   <cc:Work>
    <dc:type rdf:resource="http://purl.org/dc/dcmitype/StillImage"/>
    <dc:date>2023-12-09T18:06:24.273877</dc:date>
    <dc:format>image/svg+xml</dc:format>
    <dc:creator>
     <cc:Agent>
      <dc:title>Matplotlib v3.8.2, https://matplotlib.org/</dc:title>
     </cc:Agent>
    </dc:creator>
   </cc:Work>
  </rdf:RDF>
 </metadata>
 <defs>
  <style type="text/css">*{stroke-linejoin: round; stroke-linecap: butt}</style>
 </defs>
 <g id="figure_1">
  <g id="patch_1">
   <path d="M 0 332.64 
L 325.475728 332.64 
L 325.475728 0 
L 0 0 
L 0 332.64 
z
" style="fill: none"/>
  </g>
  <g id="axes_1">
   <g id="patch_2">
    <path d="M 301.121739 164.941668 
L 301.052365 160.529986 
L 288.600949 156.893727 
L 288.284721 152.879705 
L 303.816474 146.857579 
L 303.177165 142.37011 
L 310.681377 136.323026 
L 309.707444 131.624918 
L 268.486407 137.266405 
L 267.562998 133.894533 
L 262.159274 131.976326 
L 261.072662 128.806008 
L 263.450793 124.258824 
L 262.120887 121.051714 
L 271.094963 112.986581 
L 269.406853 109.544695 
L 292.464309 92.478274 
L 290.120808 88.374628 
L 266.29396 97.916258 
L 264.13438 94.632777 
L 282.953002 76.082767 
L 280.098693 72.286284 
L 238.748186 100.375413 
L 236.679547 97.956815 
L 230.0677 99.806711 
L 227.985472 97.661329 
L 222.690399 98.938566 
L 220.584522 97.025571 
L 235.018654 75.078839 
L 232.15648 72.790013 
L 229.223754 70.592312 
L 226.223379 68.487909 
L 235.463743 47.045441 
L 231.719917 44.756481 
L 208.367279 78.217307 
L 205.616962 76.764907 
L 215.84916 47.63475 
L 212.133561 45.962225 
L 207.241616 47.260236 
L 203.518498 45.858536 
L 203.057343 34.361627 
L 198.930733 33.097867 
L 181.298009 84.709623 
L 178.765209 84.10513 
L 176.642537 81.320543 
L 174.005478 80.864104 
L 178.195069 25.711868 
L 173.808784 25.234109 
L 169.080729 30.251496 
L 164.841686 30.058067 
L 160.621563 44.565799 
L 156.836776 44.631267 
L 152.759552 40.224904 
L 148.842164 40.539718 
L 141.625423 15.12 
L 136.924188 15.797308 
L 143.701278 76.100504 
L 140.916377 76.682392 
L 139.87943 84.032157 
L 137.345806 84.73029 
L 130.069249 70.932708 
L 127.128601 71.945772 
L 110.039252 37.434177 
L 106.05524 39.093591 
L 124.747145 88.701087 
L 122.367805 89.872704 
L 112.240374 77.025049 
L 109.500098 78.59568 
L 117.940389 97.706879 
L 115.847576 99.088063 
L 110.634982 96.199259 
L 108.498379 97.810886 
L 63.28769 47.59841 
L 59.646379 50.722769 
L 59.788221 57.86395 
L 56.471412 61.093264 
L 75.104494 84.842664 
L 72.628381 87.577062 
L 63.135832 84.540613 
L 60.656139 87.651482 
L 66.975455 97.126298 
L 64.889586 100.110217 
L 33.070991 84.336806 
L 30.599756 88.39308 
L 39.695912 98.7742 
L 37.675345 102.615033 
L 63.56194 119.500648 
L 62.181257 122.580834 
L 53.761481 122.900139 
L 52.492532 126.286792 
L 76.146193 137.697136 
L 75.331426 140.372648 
L 16.632625 128.367296 
L 15.553932 132.918658 
L 47.775817 143.725187 
L 47.164612 147.289746 
L 69.494797 153.685742 
L 69.186036 156.562483 
L 16.158175 156.28837 
L 15.957617 160.840845 
L 51.936252 165.284052 
L 52.000848 168.707138 
L 26.926229 173.796215 
L 27.270832 178.001463 
L 17.86278 183.475382 
L 18.516198 187.960819 
L 53.180129 185.845397 
L 53.890604 189.219207 
L 37.641123 197.012568 
L 38.710401 200.869437 
L 24.604522 209.71928 
L 26.079773 213.979766 
L 34.095222 215.628921 
L 35.751592 219.588077 
L 83.934477 201.454137 
L 85.120519 203.853246 
L 86.381407 206.213876 
L 87.715896 208.533694 
L 71.039162 222.380899 
L 72.889563 225.175118 
L 97.096125 211.601488 
L 98.594714 213.581748 
L 46.565534 260.19424 
L 49.61697 263.739267 
L 85.633598 236.09149 
L 87.907874 238.420049 
L 62.554243 270.408666 
L 65.918938 273.445922 
L 84.454246 258.001093 
L 87.417991 260.355901 
L 110.172064 235.242559 
L 112.407515 236.799994 
L 116.323397 235.690099 
L 118.569878 237.053902 
L 117.925821 243.733899 
L 120.424425 245.043341 
L 100.318939 294.933688 
L 104.436081 296.771414 
L 127.312314 250.633932 
L 130.023229 251.644831 
L 136.27037 241.616452 
L 138.693326 242.350148 
L 124.83793 307.690248 
L 129.344044 308.750736 
L 136.826695 293.839464 
L 140.891383 294.529847 
L 142.938507 311.836585 
L 147.566042 312.325901 
L 151.939187 317.26205 
L 156.73286 317.465683 
L 161.396747 289.149936 
L 165.301837 289.070102 
L 171.067297 316.406601 
L 175.824615 316.009227 
L 179.868634 310.141027 
L 184.424597 309.470017 
L 189.399299 310.913385 
L 193.974835 309.942328 
L 199.683764 313.277976 
L 204.328563 311.982385 
L 204.118379 295.981419 
L 208.217144 294.554945 
L 195.973936 252.448402 
L 198.707954 251.299531 
L 212.625508 273.595365 
L 216.0162 271.912477 
L 220.843804 272.80361 
L 224.205538 270.862712 
L 227.91883 269.462262 
L 231.172006 267.300562 
L 223.460085 250.20861 
L 226.110089 248.196623 
L 227.219767 244.337946 
L 229.683325 242.210648 
L 219.408923 226.662004 
L 221.320573 224.789036 
L 257.443149 254.68417 
L 260.217072 251.601467 
L 242.713725 231.928956 
L 244.779457 229.320629 
L 237.419621 219.941361 
L 239.111055 217.50542 
L 284.255572 242.29458 
L 286.626682 238.374962 
L 272.023045 225.245747 
L 273.86415 221.719176 
L 252.636938 207.497501 
L 253.929585 204.589247 
L 265.848255 205.812254 
L 267.081383 202.48944 
L 271.131834 200.059778 
L 272.181479 196.573681 
L 304.35958 200.876269 
L 305.418468 196.345015 
L 303.318328 191.226417 
L 304.074319 186.732673 
L 248.355534 175.453346 
L 248.64276 172.695551 
L 244.250143 169.669824 
L 244.357552 167.043972 
L 301.118964 164.059192 
L 301.021845 159.648034 
L 288.547805 156.090159 
L 288.206337 152.078205 
L 303.699907 145.958513 
L 303.032386 141.475153 
L 310.498417 135.380991 
L 309.494955 130.689101 
L 268.310215 136.589734 
L 267.365618 133.223736 
L 261.949936 131.339554 
L 260.843406 128.176133 
L 263.192891 123.614082 
L 261.84284 120.415399 
L 270.766013 112.293984 
L 269.05629 108.862783 
L 292.005952 91.651681 
L 289.636687 87.562856 
L 265.870322 97.254154 
L 263.690133 93.984321 
L 282.391714 75.316319 
L 279.513584 71.537863 
L 238.340559 99.886508 
L 236.25675 97.480969 
L 229.656669 99.372413 
L 227.560988 97.240169 
L 222.274053 98.550684 
L 220.156186 96.650972 
L 234.452 74.613891 
L 231.575487 72.343112 
L 228.628997 70.1639 
L 225.615445 68.078409 
L 234.720766 46.578249 
L 230.962618 44.312881 
L 207.820892 77.919919 
L 205.061494 76.484846 
L 215.110277 47.290911 
L 211.384232 45.641787 
L 206.500549 46.97054 
L 202.768688 45.592284 
L 202.235233 34.098503 
L 198.100756 32.860722 
L 180.79299 84.582357 
L 178.256437 83.993806 
L 176.116295 81.222624 
L 173.476417 80.78278 
L 177.319048 25.605285 
L 172.929845 25.155122 
L 168.233441 30.202147 
L 163.993265 30.035383 
L 159.864471 44.56937 
L 156.08017 44.658641 
L 151.975313 40.278009 
L 148.059983 40.617454 
L 140.683509 15.243629 
L 135.986627 15.950491 
L 143.142856 76.209871 
L 140.361669 76.809262 
L 139.370969 84.165404 
L 136.841786 84.879458 
L 129.478594 71.127915 
L 126.544375 72.159453 
L 109.238306 37.756024 
L 105.26481 39.440461 
L 124.268348 88.929415 
L 121.896424 90.115974 
L 111.688389 77.332269 
L 108.958045 78.920103 
L 117.518368 97.97784 
L 115.434283 99.372159 
L 110.203624 96.516197 
L 108.077199 98.14123 
L 62.551596 48.214096 
L 58.930008 51.361296 
L 59.116761 58.501443 
L 55.820328 61.751554 
L 74.602412 85.383292 
L 72.143546 88.13321 
L 62.632086 85.156524 
L 60.172009 88.282927 
L 66.550791 97.71781 
L 64.48373 100.71479 
L 32.566559 85.141812 
L 30.120884 89.213548 
L 39.282152 99.537253 
L 37.285781 103.390719 
L 63.278065 120.113187 
L 61.916782 123.201996 
L 53.499181 123.574251 
L 52.251557 126.968818 
L 75.976515 138.230167 
L 75.178591 140.910751 
L 16.405445 129.274818 
L 15.355399 133.832875 
L 47.644613 144.436533 
L 47.05584 148.004866 
L 69.42581 154.260291 
L 69.135148 157.138917 
L 16.106612 157.198325 
L 15.93469 161.751971 
L 51.940559 165.968804 
L 52.026683 169.391416 
L 26.984567 174.638098 
L 27.355612 178.841095 
L 17.982174 184.374078 
L 18.66379 188.855316 
L 53.31373 186.521919 
L 54.04541 189.891194 
L 37.845267 197.786601 
L 38.938782 201.636669 
L 24.888842 210.575055 
L 26.39086 214.826178 
L 34.416523 216.424888 
L 36.097761 220.373548 
L 84.16564 201.936924 
L 85.366748 204.328525 
L 86.642458 206.681179 
L 87.991511 208.992558 
L 71.402197 222.944376 
L 73.270136 225.726901 
L 97.390849 212.001294 
L 98.901863 213.97209 
L 47.166879 260.910894 
L 50.24055 264.43666 
L 86.082577 236.562905 
L 88.371454 238.877114 
L 63.219514 271.024558 
L 66.603245 274.040593 
L 85.041047 258.479492 
L 88.019544 260.815613 
L 110.615218 235.559658 
L 112.860421 237.103003 
L 116.769244 235.968501 
L 119.024259 237.318147 
L 118.422228 244.002063 
L 120.929018 245.295764 
L 101.137711 295.311577 
L 105.266331 297.123372 
L 127.851932 250.842924 
L 130.569152 251.836752 
L 136.753096 241.769281 
L 139.180619 242.487723 
L 125.736449 307.913674 
L 130.249144 308.9458 
L 137.637864 293.987761 
L 141.706813 294.652566 
L 143.862747 311.946086 
L 148.493267 312.406288 
L 152.897371 317.314835 
L 157.69223 317.488314 
L 162.177935 289.143794 
L 166.082446 289.039401 
L 172.019723 316.339098 
L 176.774448 315.911811 
L 180.781478 310.018292 
L 185.333131 309.318641 
L 190.316813 310.730692 
L 194.886151 309.730878 
L 200.615946 313.030554 
L 205.252505 311.705775 
L 204.941689 295.706447 
L 209.0314 294.254223 
L 196.523608 252.225515 
L 199.250346 251.059472 
L 213.307854 273.267331 
L 216.687894 271.563151 
L 221.521007 272.423903 
L 224.870467 270.4619 
L 228.574878 269.038124 
L 231.814394 266.856006 
L 223.995126 249.812896 
L 226.632424 247.784281 
L 227.717811 243.918701 
L 230.167941 241.775951 
L 219.79595 226.292235 
L 221.695782 224.40728 
L 258.005667 254.074632 
L 260.760147 250.974544 
L 243.133417 231.412508 
L 245.182703 228.791241 
L 237.764023 219.458448 
L 239.440102 217.011917 
L 284.739636 241.516653 
L 287.086047 237.582199 
L 272.400123 224.545093 
L 274.219013 221.007011 
L 252.902774 206.919125 
L 254.177104 204.002798 
L 266.103231 205.15082 
L 267.315435 201.820316 
L 271.350525 199.365227 
L 272.378223 195.872597 
L 304.582749 199.972718 
L 305.613117 195.434894 
L 303.480826 190.329605 
L 304.208538 185.831196 
L 248.419915 174.902531 
L 248.68979 172.142985 
L 244.27823 169.144945 
L 244.369122 166.518469 
L 301.110639 163.176751 
L 300.985778 158.766291 
L 288.489607 155.286941 
L 288.122914 151.277214 
L 303.577687 145.060197 
L 302.881982 140.581124 
L 310.309537 134.440126 
L 309.276585 129.75464 
L 268.129771 135.914185 
L 267.164022 132.554194 
L 261.736597 130.704111 
L 260.610193 127.547712 
L 262.930938 122.970974 
L 261.560797 119.780846 
L 270.432714 111.60347 
L 268.701444 108.18309 
L 291.542404 90.827988 
L 289.14747 86.754145 
L 265.442528 96.594729 
L 263.241817 93.338672 
L 281.825617 74.553417 
L 278.923779 70.793138 
L 237.929866 99.400177 
L 235.830968 97.007791 
L 229.242913 98.940709 
L 227.133864 96.821687 
L 221.855276 98.165429 
L 219.725503 96.279074 
L 233.882433 74.152517 
L 230.991695 71.899874 
L 228.031557 69.739237 
L 225.004949 67.672741 
L 233.974866 46.115738 
L 230.202544 43.874052 
L 207.272644 77.625974 
L 204.504276 76.208284 
L 214.369247 46.951725 
L 210.632903 45.326069 
L 205.757673 46.685511 
L 202.017218 45.330753 
L 201.411484 33.840555 
L 197.269304 32.628802 
L 180.28718 84.45827 
L 177.746976 83.885684 
L 175.589447 81.128017 
L 172.946855 80.704785 
L 176.442375 25.504213 
L 172.050427 25.081665 
L 167.385859 30.158128 
L 163.144718 30.018036 
L 159.107416 44.577703 
L 155.323752 44.690774 
L 151.191424 40.336045 
L 147.278306 40.700109 
L 139.742392 15.373179 
L 135.050048 16.109568 
L 142.585133 76.322747 
L 139.807771 76.939619 
L 138.863356 84.301846 
L 136.338714 85.031794 
L 128.889178 71.326832 
L 125.961505 72.376805 
L 108.4394 38.082901 
L 104.476577 39.792297 
L 123.790997 89.16075 
L 121.426582 90.362203 
L 111.138347 77.642954 
L 108.418044 79.247929 
L 117.09806 98.25145 
L 115.022786 99.658849 
L 109.774267 96.835841 
L 107.658105 98.474216 
L 61.819389 48.8344 
L 58.217667 52.004315 
L 58.449324 59.143146 
L 55.173397 62.413926 
L 74.10374 85.927068 
L 71.662218 88.692396 
L 62.132225 85.775591 
L 59.691859 88.917405 
L 66.129855 98.311982 
L 64.081685 101.321903 
L 32.067199 85.949974 
L 29.647182 90.037012 
L 38.873199 100.302893 
L 36.901103 104.168839 
L 62.998048 120.7275 
L 61.656219 123.824809 
L 53.241126 124.249998 
L 52.014876 127.652345 
L 75.810192 138.764255 
L 75.029144 141.449805 
L 16.183977 130.183752 
L 15.162619 134.748322 
L 47.517886 145.14869 
L 46.951567 148.720655 
L 69.360438 154.835262 
L 69.087886 157.71566 
L 16.060773 158.108585 
L 15.917494 162.663223 
L 51.949172 166.653516 
L 52.056821 170.075519 
L 27.048199 175.479598 
L 27.445671 179.680178 
L 18.107218 185.272005 
L 18.817005 189.748868 
L 53.451584 187.197588 
L 54.20444 190.562195 
L 38.054275 198.559335 
L 39.171983 202.402449 
L 25.178539 211.429025 
L 26.707263 215.670617 
L 34.742823 217.218819 
L 36.448863 221.156826 
L 84.399835 202.418247 
L 85.615961 204.802247 
L 86.906443 207.14683 
L 88.270006 209.449679 
L 71.76877 223.505558 
L 73.654172 226.27628 
L 97.688082 212.399239 
L 99.211462 214.360493 
L 47.772718 261.623752 
L 50.868504 265.130116 
L 86.534512 237.031487 
L 88.837899 239.331255 
L 63.888646 271.636254 
L 67.291278 274.630947 
L 85.630846 258.954191 
L 88.623976 261.271533 
L 111.060358 235.873963 
L 113.315223 237.403156 
L 117.216834 236.244093 
L 119.480292 237.57953 
L 118.920311 244.2671 
L 121.435189 245.545009 
L 101.958844 295.684308 
L 106.098777 297.470101 
L 128.392854 251.048518 
L 131.116271 252.025237 
L 137.236774 241.919071 
L 139.668768 242.622231 
L 126.636356 308.131444 
L 131.155453 309.135167 
L 138.449949 294.130954 
L 142.522999 294.770154 
L 144.787656 312.049773 
L 149.42098 312.480842 
L 153.855868 317.361592 
L 158.651723 317.504911 
L 162.959069 289.13274 
L 166.862846 289.003791 
L 172.971705 316.265606 
L 177.723648 315.808423 
L 181.693533 309.889819 
L 186.240696 309.161555 
L 191.23316 310.542233 
L 195.796119 309.513699 
L 201.546554 312.777273 
L 206.174689 311.423359 
L 205.763252 295.426303 
L 209.843749 293.948385 
L 197.071868 251.999176 
L 199.791218 250.816006 
L 213.988122 272.935012 
L 217.357377 271.209607 
L 222.195808 272.039945 
L 225.532862 270.056915 
L 229.228245 268.609868 
L 232.453973 266.407418 
L 224.527668 249.413824 
L 227.152155 247.368662 
L 228.213209 243.496332 
L 230.649814 241.338214 
L 220.180644 225.920039 
L 222.068583 224.023172 
L 258.56434 253.461569 
L 261.299268 250.344218 
L 243.549853 230.893431 
L 245.582612 228.259327 
L 238.105381 218.973378 
L 239.766039 216.516353 
L 285.218798 240.735696 
L 287.540418 236.786563 
L 272.772788 223.84208 
L 274.569389 220.292629 
L 253.164967 206.339089 
L 254.42093 203.414805 
L 266.354041 204.487795 
L 267.545274 201.149733 
L 271.564844 198.669314 
L 272.570555 195.17029 
L 304.800231 199.067781 
L 305.802038 194.523566 
L 303.63768 189.43179 
L 304.337085 184.928892 
L 248.48083 174.351323 
L 248.733344 171.590134 
L 244.303015 168.619899 
L 244.377386 165.992903 
L 301.096763 162.29438 
L 300.944165 157.884792 
L 288.426359 154.484105 
L 288.034454 150.476764 
L 303.44982 144.162668 
L 302.725958 139.688059 
L 310.114742 133.500467 
L 309.052342 128.821571 
L 267.945082 135.239783 
L 266.95822 131.885934 
L 261.519266 130.070022 
L 260.373032 126.92077 
L 262.664947 122.329527 
L 261.274768 119.148079 
L 270.095079 110.915065 
L 268.342331 107.505641 
L 291.073686 90.007226 
L 288.653177 85.948527 
L 265.010595 95.938006 
L 262.789449 92.695855 
L 281.254732 73.79409 
L 278.329302 70.052136 
L 237.516122 98.916438 
L 235.402219 96.537301 
L 228.826451 98.511615 
L 226.704116 96.4059 
L 221.434084 97.782814 
L 219.292489 95.909892 
L 233.309976 73.694733 
L 230.405126 71.460317 
L 227.431459 69.31834 
L 224.391913 67.27092 
L 233.226071 45.657928 
L 229.439724 43.440012 
L 206.722559 77.335482 
L 203.945329 75.935232 
L 213.626097 46.617207 
L 209.879604 45.015082 
L 205.01302 46.40516 
L 201.264118 45.073954 
L 200.58613 33.587793 
L 196.43641 32.402116 
L 179.7806 84.337366 
L 177.236845 83.780769 
L 175.062014 81.036726 
L 172.416813 80.630123 
L 175.565083 25.408658 
L 171.170565 25.013741 
L 166.538017 30.119441 
L 162.296079 30.006025 
L 158.350429 44.590797 
L 154.56755 44.727663 
L 150.407916 40.39901 
L 146.497165 40.787678 
L 138.802107 15.508646 
L 134.114488 16.274532 
L 142.02813 76.439129 
L 139.254703 77.073457 
L 138.356611 84.441478 
L 135.836611 85.18729 
L 128.301025 71.529453 
L 125.380014 72.597818 
L 107.642567 38.414797 
L 103.690572 40.149083 
L 123.31511 89.395083 
L 120.958299 90.611383 
L 110.59027 77.957093 
L 107.880115 79.579145 
L 116.67948 98.527697 
L 114.613099 99.948121 
L 109.34693 97.158179 
L 107.241113 98.809831 
L 61.091098 49.459297 
L 57.509384 52.651801 
L 57.785936 59.789034 
L 54.530645 63.080354 
L 73.608498 86.473969 
L 71.184416 89.254598 
L 61.636267 86.397789 
L 59.21571 89.554889 
L 65.712665 98.90879 
L 63.683466 101.931533 
L 31.572933 86.761261 
L 29.178668 90.863438 
L 38.469069 101.07109 
L 36.521328 104.949363 
L 62.721901 121.343561 
L 61.399579 124.449248 
L 52.987326 124.927356 
L 51.782499 128.337347 
L 75.647232 139.299379 
L 74.88309 141.989788 
L 15.968229 131.09406 
L 14.975601 135.664964 
L 47.39564 145.86163 
L 46.851798 149.437086 
L 69.298683 155.410633 
L 69.044253 158.292688 
L 16.020659 159.019116 
L 15.90603 163.574565 
L 51.962092 167.338161 
L 52.091261 170.759419 
L 27.117122 176.320681 
L 27.541005 180.518678 
L 18.237907 186.169128 
L 18.975836 190.641438 
L 53.593685 187.872377 
L 54.367687 191.232182 
L 38.268139 199.33074 
L 39.409996 203.166748 
L 25.4736 212.281156 
L 27.028972 216.513049 
L 35.07411 218.010681 
L 36.804884 221.937881 
L 84.637053 202.898088 
L 85.868148 205.274392 
L 87.173351 207.610812 
L 88.551371 209.905039 
L 72.138865 224.064424 
L 74.041656 226.823233 
L 97.987812 212.795307 
L 99.523496 214.74694 
L 48.38303 262.332786 
L 51.500807 265.81961 
L 86.989386 237.497217 
L 89.30719 239.782452 
L 64.561611 272.243729 
L 67.983012 275.216963 
L 86.223618 259.425171 
L 89.231264 261.723642 
L 111.507466 236.185462 
L 113.771904 237.700444 
L 117.666148 236.516864 
L 119.937961 237.838039 
L 119.420052 244.528998 
L 121.942917 245.791065 
L 102.782306 296.051868 
L 106.933388 297.811588 
L 128.935059 251.250706 
L 131.664564 252.210276 
L 137.721385 242.065816 
L 140.157753 242.753666 
L 127.537614 308.34355 
L 132.062935 309.318831 
L 139.262919 294.269036 
L 143.339908 294.882606 
L 145.7132 312.14764 
L 150.349143 312.54956 
L 154.814641 317.402321 
L 159.611303 317.515473 
L 163.740117 289.116772 
L 167.643006 288.963274 
L 173.923206 316.186128 
L 178.67218 315.699067 
L 182.604762 309.755611 
L 187.147254 308.998763 
L 192.148303 310.348014 
L 196.704703 309.290802 
L 202.475551 312.518145 
L 207.095078 311.135149 
L 206.583037 295.140997 
L 210.654159 293.637445 
L 197.618693 251.769393 
L 200.330548 250.569143 
L 214.666288 272.598421 
L 218.024624 270.851859 
L 222.868182 271.65175 
L 226.192698 269.647771 
L 229.878906 268.17751 
L 233.090718 265.954816 
L 225.05769 249.01141 
L 227.669262 246.949782 
L 228.70594 243.070855 
L 231.128923 240.897455 
L 220.562989 225.54543 
L 222.438961 223.636727 
L 259.119147 252.845004 
L 261.834414 249.710513 
L 243.963015 230.371745 
L 245.979168 227.724908 
L 238.443681 218.48617 
L 240.088853 216.01875 
L 285.693039 239.951742 
L 287.989775 235.988085 
L 273.141024 223.136738 
L 274.915265 219.576058 
L 253.423507 205.757415 
L 254.661053 202.82529 
L 266.600676 203.823206 
L 267.770891 200.477718 
L 271.774781 197.972067 
L 272.758465 194.466786 
L 305.012017 198.161495 
L 305.985224 193.611069 
L 303.788884 188.533006 
L 304.459955 184.025798 
L 248.538278 173.799742 
L 248.77342 171.037019 
L 244.324498 168.094708 
L 244.382345 165.467296 
L 301.077339 161.412113 
L 300.89701 157.003572 
L 288.358063 153.681682 
L 287.940961 149.676885 
L 303.316311 143.26596 
L 302.564321 138.795993 
L 309.914042 132.562052 
L 308.822235 127.88993 
L 267.756155 134.566557 
L 266.748219 131.21898 
L 261.297952 129.437313 
L 260.131933 126.295332 
L 262.394926 121.689765 
L 260.984765 118.517124 
L 269.753121 110.228798 
L 267.978964 106.830465 
L 290.599814 89.189429 
L 288.153826 85.146033 
L 264.57454 95.284014 
L 262.333047 92.055896 
L 280.679083 73.038369 
L 277.730176 69.314889 
L 237.099343 98.435311 
L 234.970519 96.069516 
L 228.407299 98.08515 
L 226.271762 95.992825 
L 221.010494 97.402857 
L 218.857161 95.543441 
L 232.73465 73.24056 
L 229.815805 71.024457 
L 226.828724 68.901225 
L 223.776361 66.872963 
L 232.474411 45.204837 
L 228.67419 43.010778 
L 206.170658 77.048456 
L 203.384675 75.665701 
L 212.880859 46.287369 
L 209.124363 44.708839 
L 204.266618 46.129498 
L 200.509418 44.821897 
L 199.759201 33.340227 
L 195.602107 32.180673 
L 179.27327 84.219652 
L 176.726064 83.679064 
L 174.534018 80.948754 
L 171.886311 80.558795 
L 174.687208 25.318622 
L 170.290293 24.951352 
L 165.689948 30.086086 
L 161.447381 29.999353 
L 157.593539 44.608652 
L 153.811596 44.769307 
L 149.624819 40.466902 
L 145.71659 40.880159 
L 137.862694 15.650024 
L 133.179983 16.445378 
L 141.471871 76.559012 
L 138.702488 77.210771 
L 137.850755 84.584295 
L 135.335495 85.345941 
L 127.714158 71.735769 
L 124.799924 72.822485 
L 106.847836 38.751698 
L 102.906827 40.510805 
L 122.840706 89.632404 
L 120.491592 90.863503 
L 110.04418 78.274672 
L 107.34428 79.913738 
L 116.262647 98.806572 
L 114.205241 100.239964 
L 108.921628 97.483199 
L 106.826241 99.148062 
L 60.366752 50.088761 
L 56.805187 53.30373 
L 57.126623 60.439082 
L 53.892097 63.75081 
L 73.116705 87.023974 
L 70.71016 89.819795 
L 61.144232 87.023095 
L 58.743579 90.195356 
L 65.299237 99.508209 
L 63.289089 102.543656 
L 31.083778 87.57564 
L 28.715361 91.692795 
L 38.069779 101.841814 
L 36.146468 105.73226 
L 62.449634 121.961347 
L 61.146871 125.07529 
L 52.737791 125.606296 
L 51.554435 129.023798 
L 75.487641 139.835517 
L 74.740435 142.530678 
L 15.758212 132.005708 
L 14.794351 136.582764 
L 47.277881 146.575325 
L 46.756537 150.154131 
L 69.240548 155.986381 
L 69.004249 158.869979 
L 15.986274 159.929882 
L 15.900297 164.485961 
L 51.979317 168.02271 
L 52.130001 171.443088 
L 27.191334 177.161313 
L 27.641612 181.356562 
L 18.374235 187.065411 
L 19.140279 191.532991 
L 53.740026 188.546259 
L 54.535145 191.901129 
L 38.486851 200.100784 
L 39.652811 203.929534 
L 25.774016 213.131414 
L 27.355973 217.353441 
L 35.410371 218.800444 
L 37.16581 222.71668 
L 84.877284 203.376427 
L 86.123301 205.744941 
L 87.443173 208.073106 
L 88.835594 210.358621 
L 72.512467 224.620951 
L 74.432572 227.367738 
L 98.290026 213.189482 
L 99.837955 215.131418 
L 48.997788 263.037967 
L 52.137434 266.505113 
L 87.447179 237.960078 
L 89.779311 240.230689 
L 65.238384 272.84696 
L 68.678417 275.798616 
L 86.819341 259.892414 
L 89.841384 262.171923 
L 111.956524 236.494144 
L 114.230446 237.994853 
L 118.117169 236.786804 
L 120.397246 238.093664 
L 119.92143 244.787749 
L 122.452182 246.033923 
L 103.608062 296.414241 
L 107.77013 298.147818 
L 129.478524 251.449479 
L 132.214011 252.391864 
L 138.206908 242.20951 
L 140.647555 242.882024 
L 128.440189 308.549983 
L 132.971554 309.496783 
L 140.076741 294.402002 
L 144.157509 294.989919 
L 146.639341 312.239684 
L 151.27772 312.612438 
L 155.773651 317.437018 
L 160.570929 317.52 
L 164.521051 289.095893 
L 168.422897 288.91785 
L 174.874189 316.100667 
L 179.620006 315.583748 
L 183.515129 309.615676 
L 188.052771 308.830272 
L 193.062207 310.148043 
L 197.611868 309.062195 
L 203.402899 312.253178 
L 208.013637 310.841156 
L 207.401012 294.850541 
L 211.462596 293.321413 
L 198.164062 251.536175 
L 200.868315 250.318893 
L 215.342322 272.257572 
L 218.689608 270.489922 
L 223.5381 271.259334 
L 226.849947 269.234485 
L 230.526835 267.74107 
L 233.724604 265.498219 
L 225.585171 248.605671 
L 228.183724 246.527658 
L 229.195985 242.642288 
L 231.605251 240.453692 
L 220.94297 225.168424 
L 222.8069 223.247961 
L 259.670065 252.224962 
L 262.365564 249.073456 
L 244.372889 229.847471 
L 246.372354 227.188006 
L 238.77891 217.996844 
L 240.408531 215.519126 
L 286.16234 239.16482 
L 288.434101 235.186796 
L 273.504816 222.429094 
L 275.256628 218.857325 
L 253.678383 205.174127 
L 254.897463 202.234276 
L 266.843127 203.157079 
L 267.992277 199.804297 
L 271.980329 197.273513 
L 272.941947 193.762115 
L 305.218099 197.253894 
L 306.162667 192.697437 
L 303.934432 187.633288 
L 304.577142 183.121949 
L 248.592255 173.247811 
L 248.810017 170.483664 
L 244.342677 167.569392 
L 301.121739 164.941668 
z
" clip-path="url(#pbb62bbd02f)" style="fill: #0000ff; opacity: 0.5; stroke: #000000; stroke-width: 1.5; stroke-linejoin: miter"/>
   </g>
  </g>
 </g>
 <defs>
  <clipPath id="pbb62bbd02f">
   <rect x="0" y="-0" width="325.475728" height="332.64"/>
  </clipPath>
 </defs>
</svg>
