<?xml version="1.0" encoding="utf-8" standalone="no"?>
<!DOCTYPE svg PUBLIC "-//W3C//DTD SVG 1.1//EN"
  "http://www.w3.org/Graphics/SVG/1.1/DTD/svg11.dtd">
<svg xmlns:xlink="http://www.w3.org/1999/xlink" width="327.937712pt" height="332.64pt" viewBox="0 0 327.937712 332.64" xmlns="http://www.w3.org/2000/svg" version="1.1">
 <metadata>
  <rdf:RDF xmlns:dc="http://purl.org/dc/elements/1.1/" xmlns:cc="http://creativecommons.org/ns#" xmlns:rdf="http://www.w3.org/1999/02/22-rdf-syntax-ns#">
   <cc:Work>
    <dc:type rdf:resource="http://purl.org/dc/dcmitype/StillImage"/>
    <dc:date>2023-12-09T18:06:24.398881</dc:date>
    <dc:format>image/svg+xml</dc:format>
    <dc:creator>
     <cc:Agent>
      <dc:title>Matplotlib v3.8.2, https://matplotlib.org/</dc:title>
     </cc:Agent>
    </dc:creator>
   </cc:Work>
  </rdf:RDF>
 </metadata>
 <defs>
  <style type="text/css">*{stroke-linejoin: round; stroke-linecap: butt}</style>
 </defs>
 <g id="figure_1">
  <g id="patch_1">
   <path d="M 0 332.64 
L 327.937712 332.64 
L 327.937712 0 
L 0 0 
L 0 332.64 
z
" style="fill: none"/>
  </g>
  <g id="axes_1">
   <g id="patch_2">
    <path d="M 290.154726 167.350269 
L 290.089775 163.219822 
L 309.175374 157.879223 
L 308.803228 153.155408 
L 293.716618 150.28762 
L 293.113419 146.053615 
L 290.859334 142.130552 
L 290.001071 137.99042 
L 256.08267 142.343239 
L 255.248289 139.296456 
L 288.121511 125.282404 
L 286.734859 121.236686 
L 272.291004 122.361832 
L 270.82035 118.815303 
L 263.646478 117.951376 
L 262.041424 114.67883 
L 247.471784 118.53801 
L 245.893172 115.773743 
L 272.925858 94.825737 
L 270.589096 91.272862 
L 245.021337 104.615427 
L 243.00618 101.935091 
L 245.073221 95.868602 
L 242.783019 93.190958 
L 230.840351 99.586521 
L 228.674086 97.354552 
L 214.811306 107.594036 
L 212.90474 105.862096 
L 210.94466 104.19096 
L 208.933006 102.582279 
L 231.820711 66.63015 
L 228.617741 64.383651 
L 222.86532 66.156162 
L 219.651874 64.191475 
L 198.172403 95.529133 
L 195.894717 94.326322 
L 222.792485 30.933885 
L 218.47161 28.988902 
L 193.672009 78.935642 
L 190.874812 77.882538 
L 188.283752 76.182682 
L 185.40266 75.300358 
L 183.451174 70.76546 
L 180.402142 70.037761 
L 173.881803 87.628425 
L 171.367711 87.19327 
L 169.319886 83.003432 
L 166.66263 82.714001 
L 166.081285 48.57146 
L 162.343013 48.400881 
L 158.54898 15.12 
L 153.762645 15.202793 
L 149.628446 25.460835 
L 145.17166 25.818996 
L 142.887688 43.179772 
L 138.991357 43.741116 
L 130.14604 18.625498 
L 125.483969 19.599608 
L 128.015749 48.40006 
L 124.290909 49.42643 
L 128.285849 74.072476 
L 125.368072 75.07766 
L 120.48228 71.14863 
L 117.476429 72.400621 
L 104.598689 52.790437 
L 101.023469 54.55092 
L 95.263311 52.364629 
L 91.679319 54.418847 
L 75.698162 37.03788 
L 71.641937 39.714847 
L 74.050039 51.256285 
L 70.441687 53.978043 
L 91.6163 86.526522 
L 89.108236 88.67852 
L 89.320519 93.718679 
L 87.039728 95.939305 
L 71.280244 85.567391 
L 68.752078 88.359273 
L 83.614793 105.47126 
L 81.706349 107.865475 
L 83.005645 112.581678 
L 81.321069 114.991531 
L 33.967089 88.587063 
L 31.552316 92.55066 
L 39.435481 102.145451 
L 37.44431 105.930405 
L 39.773649 111.738851 
L 38.083948 115.50843 
L 17.812765 111.984885 
L 16.141659 116.44484 
L 61.689726 136.104565 
L 60.755301 139.173007 
L 82.38839 147.96953 
L 81.816792 150.381294 
L 36.511943 144.399197 
L 35.850768 148.255182 
L 65.988721 155.911471 
L 65.674943 158.83495 
L 25.342288 159.367364 
L 25.157267 163.567147 
L 49.832056 167.692909 
L 49.896701 171.118564 
L 43.900551 174.948448 
L 44.196258 178.557015 
L 49.969585 181.459 
L 50.466998 184.873524 
L 70.035753 184.587542 
L 70.621612 187.369596 
L 81.016177 187.600566 
L 81.691343 190.035881 
L 83.910932 191.966099 
L 84.721929 194.308238 
L 48.297607 211.54744 
L 49.741893 214.999659 
L 68.046373 210.448215 
L 69.446332 213.280032 
L 85.802188 207.822158 
L 87.110799 210.096992 
L 39.672197 243.565172 
L 42.127455 247.272762 
L 54.673179 243.59631 
L 57.121999 246.832221 
L 43.64645 263.350375 
L 46.721833 266.923223 
L 77.40873 244.370187 
L 79.870641 246.89086 
L 83.99082 247.636686 
L 86.552183 249.948788 
L 66.147244 280.256398 
L 69.743064 283.113413 
L 100.977444 247.608088 
L 103.529509 249.386108 
L 97.497977 264.820408 
L 100.592956 266.699319 
L 91.185365 291.556569 
L 95.124108 293.620744 
L 108.906549 274.542057 
L 112.301557 276.057452 
L 109.834285 292.579185 
L 113.795961 294.056491 
L 118.744339 292.464635 
L 122.698008 293.661847 
L 130.65278 278.998497 
L 134.177156 279.827939 
L 143.662942 248.638591 
L 146.226303 249.073975 
L 142.64234 300.05627 
L 146.82289 300.498322 
L 150.341307 312.380251 
L 154.905544 312.574138 
L 159.389783 294.851517 
L 163.398405 294.769566 
L 164.322265 249.073922 
L 166.889099 248.859517 
L 178.498512 317.52 
L 183.210432 316.826021 
L 186.413005 308.400867 
L 190.834286 307.462547 
L 189.738959 285.455616 
L 193.437147 284.424066 
L 197.82853 285.477883 
L 201.523418 284.191968 
L 191.922418 249.807587 
L 194.498674 248.725009 
L 199.035337 251.746922 
L 201.669053 250.439741 
L 232.821308 300.366178 
L 236.967015 297.972652 
L 215.568048 255.784573 
L 218.320542 253.955571 
L 227.877311 261.381809 
L 230.799709 259.163009 
L 244.062247 269.300877 
L 247.225636 266.569271 
L 221.570675 233.477801 
L 223.618828 231.471091 
L 269.768411 270.417544 
L 272.9542 266.877129 
L 244.922937 237.798615 
L 247.0954 235.055523 
L 276.800378 252.074572 
L 279.405947 248.322125 
L 282.547051 244.899924 
L 284.924192 240.970336 
L 277.666362 231.811084 
L 279.634374 228.041427 
L 285.689558 226.161293 
L 287.475962 222.142163 
L 235.12402 197.052864 
L 236.020192 194.638017 
L 256.721074 198.524864 
L 257.652851 195.430231 
L 293.718674 201.12742 
L 294.713988 196.868215 
L 249.979375 184.16997 
L 250.463136 181.294408 
L 312.234844 185.774915 
L 312.738287 180.941112 
L 263.713127 173.295916 
L 263.848193 169.993912 
L 290.152128 166.524049 
L 290.0612 162.394092 
L 309.112832 156.933561 
L 308.710984 152.21218 
L 293.606635 149.439335 
L 292.976818 145.209208 
L 290.698104 141.300399 
L 289.813819 137.165747 
L 255.923466 141.731807 
L 255.069939 138.690332 
L 287.85437 124.469804 
L 286.4423 120.432887 
L 272.005807 121.648854 
L 270.512877 118.111645 
L 263.333713 117.292855 
L 261.708109 114.030469 
L 247.163028 117.981207 
L 245.567062 115.226923 
L 272.467463 94.109312 
L 270.1084 90.571203 
L 244.625065 104.074311 
L 242.59309 101.406702 
L 244.621935 95.327332 
L 242.314938 92.664146 
L 230.41273 99.134695 
L 228.23247 96.916395 
L 214.434365 107.242865 
L 212.516944 105.522951 
L 210.546393 103.864175 
L 208.52466 102.268178 
L 231.185795 66.172809 
L 227.968758 63.9465 
L 222.227599 65.755156 
L 219.00186 63.810718 
L 197.71991 95.28285 
L 195.434704 94.094388 
L 221.933237 30.534033 
L 217.600215 28.616265 
L 193.115241 78.717993 
L 190.311476 77.682502 
L 187.709776 75.998976 
L 184.823192 75.134789 
L 182.843222 70.612255 
L 179.789674 69.903747 
L 173.380099 87.535073 
L 170.86332 87.115739 
L 168.789184 82.938863 
L 166.13016 82.66615 
L 165.334089 48.527941 
L 161.594819 48.380877 
L 157.591542 15.124516 
L 152.805823 15.237411 
L 148.736223 25.521252 
L 144.281778 25.907437 
L 142.10704 43.282234 
L 138.214317 43.868073 
L 129.211212 18.808583 
L 124.55536 19.811996 
L 127.268228 48.595955 
L 123.549917 49.645732 
L 127.699788 74.266164 
L 124.788391 75.28968 
L 119.877984 71.391456 
L 116.880067 72.662328 
L 103.879244 53.133525 
L 100.315168 54.91646 
L 94.541373 52.76644 
L 90.970372 54.843159 
L 74.880214 37.563048 
L 70.840906 40.265473 
L 73.32155 51.791537 
L 69.730387 54.535935 
L 91.109293 86.950595 
L 88.614814 89.118324 
L 88.858793 94.157048 
L 86.592012 96.391975 
L 70.767607 86.119384 
L 68.25705 88.927112 
L 83.227096 105.945282 
L 81.333748 108.351454 
L 82.66268 113.059391 
L 80.993295 115.479792 
L 33.474182 89.373676 
L 31.084386 93.352381 
L 39.02774 102.897402 
L 37.060414 106.694805 
L 39.426239 112.488486 
L 37.76028 116.268617 
L 17.467337 112.872636 
L 15.824314 117.343013 
L 61.495129 136.715878 
L 60.580021 139.790137 
L 82.268007 148.450425 
L 81.711589 150.865737 
L 36.370012 145.1687 
L 35.733102 149.028768 
L 65.918613 156.495354 
L 65.623228 159.420749 
L 25.294719 160.206821 
L 25.136117 164.407685 
L 49.836366 168.378175 
L 49.922555 171.803356 
L 43.950612 175.670877 
L 44.269009 179.277513 
L 50.060474 182.143129 
L 50.579352 185.554457 
L 70.145921 185.145405 
L 70.749266 187.923718 
L 81.145078 188.089308 
L 81.835548 190.520328 
L 84.067232 192.436549 
L 84.892944 194.773541 
L 48.577768 212.24149 
L 50.043737 215.684557 
L 68.31923 211.018078 
L 69.736972 213.841035 
L 86.058177 208.280399 
L 87.381069 210.546958 
L 40.153901 244.312838 
L 42.632429 248.004912 
L 55.154783 244.249628 
L 57.623906 247.470072 
L 44.252513 264.072653 
L 47.350307 267.626088 
L 77.894751 244.880496 
L 80.372467 247.385634 
L 84.497256 248.105532 
L 87.07311 250.401479 
L 66.859192 280.836825 
L 70.47291 283.671168 
L 101.483363 247.970099 
L 104.046561 249.732032 
L 98.112222 265.203962 
L 101.218956 267.06337 
L 91.967889 291.979297 
L 95.919537 294.018658 
L 109.581712 274.853665 
L 112.986183 276.347677 
L 110.622872 292.884601 
L 114.593761 294.336961 
L 119.53203 292.714015 
L 123.49315 293.886336 
L 131.35554 279.173246 
L 134.885063 279.980505 
L 144.174498 248.732113 
L 146.740547 249.151367 
L 143.477305 300.155194 
L 147.660553 300.570944 
L 151.253631 312.43051 
L 155.818997 312.595686 
L 160.191682 294.845213 
L 164.199709 294.738051 
L 164.836151 249.037501 
L 167.401586 248.806956 
L 179.442604 317.393064 
L 184.150066 316.669463 
L 187.299587 308.224333 
L 191.714879 307.258225 
L 190.481163 285.258618 
L 194.17279 284.203829 
L 198.570713 285.230006 
L 202.257441 283.920878 
L 192.440372 249.597561 
L 195.009769 248.498802 
L 199.565348 251.492122 
L 202.190791 250.168402 
L 233.656438 299.897921 
L 237.78701 297.478369 
L 216.123126 255.425712 
L 218.864063 253.579434 
L 228.46735 260.945419 
L 231.375735 258.708282 
L 244.701772 268.762536 
L 247.847918 266.011088 
L 221.985338 233.081627 
L 224.020829 231.062076 
L 270.41445 269.717504 
L 273.57791 266.157121 
L 245.364313 237.255483 
L 247.519481 234.498782 
L 277.330912 251.330668 
L 279.912829 247.561907 
L 283.032347 244.120018 
L 285.384726 240.175557 
L 278.069433 231.062134 
L 280.013697 227.280174 
L 286.056936 225.361993 
L 287.818027 221.331707 
L 235.309322 196.572168 
L 236.190289 194.151733 
L 256.915207 197.908306 
L 257.827502 194.807874 
L 293.928444 200.278117 
L 294.896951 196.012735 
L 250.083358 183.596097 
L 250.549023 180.717549 
L 312.34769 184.80946 
L 312.820721 179.972585 
L 263.748446 172.635881 
L 263.862742 169.333092 
L 290.144333 165.697861 
L 290.027432 161.568558 
L 309.044344 155.988311 
L 308.612808 151.269551 
L 293.491319 148.591758 
L 292.83491 144.365676 
L 290.531656 140.471277 
L 289.621384 136.342268 
L 255.760419 141.121389 
L 254.88778 138.085343 
L 287.582123 123.6589 
L 286.144692 119.630944 
L 271.716132 120.937684 
L 270.200984 117.409935 
L 263.016813 116.636314 
L 261.370722 113.384216 
L 246.850777 117.426357 
L 245.237519 114.682165 
L 272.00457 93.395783 
L 269.623302 89.872582 
L 244.225397 103.535699 
L 242.176685 100.880922 
L 244.167254 94.788912 
L 241.843552 92.140288 
L 229.982277 98.685567 
L 227.788108 96.481024 
L 214.055223 106.894072 
L 212.127022 105.186252 
L 210.146077 103.539902 
L 208.114347 101.956652 
L 230.548014 65.719472 
L 227.317039 63.513439 
L 221.587369 65.358168 
L 218.349464 63.434057 
L 197.265877 95.039418 
L 194.973241 93.865352 
L 221.071492 30.139593 
L 216.726493 28.249115 
L 192.557115 78.503849 
L 189.746893 77.486013 
L 187.134656 75.818883 
L 184.242694 74.972869 
L 182.234319 70.462877 
L 179.176375 69.773588 
L 172.877818 87.444877 
L 170.358452 87.041381 
L 168.258087 82.877633 
L 165.5974 82.621649 
L 164.586635 48.489122 
L 160.846513 48.365579 
L 156.634152 15.135054 
L 151.849237 15.278046 
L 147.844398 25.587279 
L 143.39247 26.001472 
L 141.327053 43.389603 
L 137.438091 43.999914 
L 128.277554 18.997544 
L 123.628105 20.03022 
L 126.521954 48.796547 
L 122.810319 49.869689 
L 127.114956 74.463534 
L 124.210054 75.505341 
L 119.275227 71.638078 
L 116.285362 72.92778 
L 103.161971 53.481132 
L 99.609179 55.286447 
L 93.821977 53.172783 
L 90.264108 55.27192 
L 74.065586 38.093349 
L 70.043354 40.821126 
L 72.596441 52.33136 
L 69.02261 55.098291 
L 90.604963 87.377848 
L 88.124167 89.561223 
L 88.399832 94.598313 
L 86.147153 96.847453 
L 70.258452 86.674592 
L 67.765603 89.498054 
L 82.842388 106.421734 
L 80.964211 108.839766 
L 82.322727 113.539252 
L 80.668598 115.970105 
L 32.986232 90.163373 
L 30.621507 94.157031 
L 38.624737 103.651903 
L 36.681333 107.461605 
L 39.08355 113.240291 
L 37.441399 117.030826 
L 17.127498 113.762543 
L 15.512624 118.243165 
L 61.30438 137.328404 
L 60.408625 140.408357 
L 82.150652 148.932069 
L 81.609435 151.350832 
L 36.232924 145.939081 
L 35.620304 149.803078 
L 65.852179 157.079667 
L 65.575199 160.006862 
L 25.252431 161.046562 
L 25.120253 165.24834 
L 49.844986 169.063401 
L 49.952715 172.487972 
L 44.005215 176.392977 
L 44.34629 179.997539 
L 50.155663 182.826673 
L 50.695986 186.234671 
L 70.259596 185.702564 
L 70.880403 188.477027 
L 81.27705 188.57723 
L 81.982796 191.00386 
L 84.226489 192.906006 
L 85.066883 195.237759 
L 48.862288 212.933764 
L 50.349883 216.367543 
L 68.595665 211.586214 
L 70.031134 214.400198 
L 86.317043 208.737021 
L 87.654165 210.995215 
L 40.640299 245.057459 
L 43.141999 248.733872 
L 55.640486 244.899903 
L 58.129815 248.104755 
L 44.863108 264.791106 
L 47.983189 268.324987 
L 78.383972 245.387737 
L 80.877396 247.877243 
L 85.00663 248.571184 
L 87.596873 250.850885 
L 67.574776 281.412762 
L 71.206249 284.224321 
L 101.99155 248.32892 
L 104.565778 250.074697 
L 98.728866 265.583645 
L 101.847234 267.423477 
L 92.753057 292.397095 
L 96.717453 294.411562 
L 110.25882 275.161021 
L 113.672621 276.633591 
L 111.413365 293.185052 
L 115.39331 294.612409 
L 120.321273 292.958435 
L 124.289688 294.10582 
L 132.059386 279.343571 
L 135.593916 280.128615 
L 144.686633 248.822416 
L 147.255268 249.225523 
L 144.312875 300.248865 
L 148.498655 300.638297 
L 152.166252 312.475029 
L 156.732567 312.611489 
L 160.993525 294.833865 
L 165.000799 294.701497 
L 165.349798 248.997848 
L 167.913732 248.751172 
L 180.38588 317.260193 
L 185.088698 316.506999 
L 188.185041 308.042227 
L 192.59417 307.048369 
L 191.222113 285.056956 
L 194.907033 283.97897 
L 199.311323 284.977465 
L 202.989744 283.645176 
L 192.956995 249.384282 
L 195.51943 248.269385 
L 200.093746 251.233994 
L 202.710811 249.893787 
L 234.488607 299.424422 
L 238.603879 296.978938 
L 216.675937 255.063367 
L 219.405208 253.199886 
L 229.054632 260.505326 
L 231.948889 258.249942 
L 245.337899 268.220183 
L 248.466677 265.449003 
L 222.397501 232.682854 
L 224.42025 230.65054 
L 271.056075 269.013414 
L 274.197078 265.433206 
L 245.802265 236.709587 
L 247.940052 233.939385 
L 277.856756 250.583441 
L 280.414919 246.798516 
L 283.512727 243.337075 
L 285.840252 239.377897 
L 278.467785 230.310663 
L 280.388225 226.51655 
L 286.41928 224.560398 
L 288.154987 220.519115 
L 235.491598 196.090317 
L 236.357324 193.664388 
L 257.105459 197.290539 
L 257.998236 194.18443 
L 294.132869 199.427511 
L 295.074529 195.156122 
L 250.183729 183.021582 
L 250.631281 180.140162 
L 312.454461 183.843313 
L 312.897062 179.003559 
L 263.779614 171.975637 
L 263.873135 168.672195 
L 290.131342 164.871739 
L 289.988472 160.743253 
L 308.969912 155.043511 
L 308.508706 150.327558 
L 293.370675 147.744924 
L 292.687698 143.523054 
L 290.359997 139.643218 
L 289.423774 135.520016 
L 255.593536 140.512008 
L 254.701819 137.48151 
L 287.304782 122.849724 
L 285.842045 118.830888 
L 271.421989 120.228351 
L 269.884684 116.7102 
L 262.695789 115.981779 
L 261.029277 112.740099 
L 246.535042 116.873481 
L 244.904557 114.13949 
L 271.537199 92.68518 
L 269.133819 89.177025 
L 243.82235 102.99961 
L 241.756981 100.357771 
L 243.709196 94.253362 
L 241.368881 91.619406 
L 229.549006 98.239156 
L 227.341015 96.048456 
L 213.673895 106.547671 
L 211.734991 104.852011 
L 209.74373 103.218153 
L 207.702082 101.647713 
L 229.907394 65.270154 
L 226.662609 63.084487 
L 220.944654 64.965215 
L 217.694712 63.061507 
L 196.810322 94.798846 
L 194.510347 93.639223 
L 220.207283 29.750582 
L 215.85048 27.887469 
L 191.997654 78.29322 
L 189.181085 77.293079 
L 186.558415 75.642411 
L 183.661189 74.814602 
L 181.624489 70.317331 
L 178.56227 69.647289 
L 172.37498 87.357843 
L 169.853125 86.9702 
L 167.726614 82.819744 
L 165.06437 82.5805 
L 163.838951 48.455005 
L 160.098126 48.354988 
L 155.676847 15.151614 
L 150.892927 15.324697 
L 146.953006 25.658914 
L 142.503771 26.101099 
L 140.547756 43.501877 
L 136.662709 44.136635 
L 127.345103 19.192374 
L 122.702241 20.254272 
L 125.776957 49.001829 
L 122.072144 50.098294 
L 126.531378 74.664579 
L 123.633085 75.724635 
L 118.674033 71.888486 
L 115.692339 73.196967 
L 102.446899 53.833242 
L 98.905532 55.660866 
L 93.10515 53.583643 
L 89.560554 55.705116 
L 73.254308 38.628764 
L 69.249313 41.381785 
L 71.874742 52.875733 
L 68.318384 55.665087 
L 90.103331 87.808264 
L 87.636316 90.0072 
L 87.943655 95.042456 
L 85.705167 97.305719 
L 69.752798 87.23299 
L 67.277757 90.072075 
L 82.460684 106.900596 
L 80.597752 109.330393 
L 81.985799 114.021242 
L 80.346991 116.46245 
L 32.503258 90.956124 
L 30.163698 94.964575 
L 38.226487 104.408924 
L 36.307082 108.230773 
L 38.745597 113.994237 
L 37.127319 117.795024 
L 16.793264 114.654569 
L 15.206602 119.14526 
L 61.117487 137.942116 
L 60.241122 141.027642 
L 82.036327 149.414441 
L 81.510334 151.83656 
L 36.100684 146.710308 
L 35.512379 150.578082 
L 65.78942 157.664386 
L 65.530856 160.593265 
L 25.215426 161.886552 
L 25.109677 166.089078 
L 49.857916 169.748559 
L 49.987181 173.172385 
L 44.064359 177.114719 
L 44.428097 180.717064 
L 50.255149 183.509605 
L 50.816896 186.914137 
L 70.376772 186.258996 
L 71.015017 189.029501 
L 81.412089 189.064312 
L 82.133083 191.486455 
L 84.388695 193.374453 
L 85.243737 195.700873 
L 49.151156 213.624235 
L 50.660319 217.04859 
L 68.875668 212.1526 
L 70.328806 214.9575 
L 86.578775 209.192006 
L 87.930073 211.441745 
L 41.13137 245.799006 
L 43.656143 249.459612 
L 56.130269 245.547111 
L 58.639706 248.736243 
L 45.478209 265.505704 
L 48.620454 269.019892 
L 78.876374 245.891891 
L 81.385406 248.365666 
L 85.518923 249.033623 
L 88.123453 251.296987 
L 68.293968 281.984188 
L 71.943053 284.772851 
L 102.501983 248.684538 
L 105.08714 250.41409 
L 99.347886 265.959442 
L 102.477764 267.779625 
L 93.540837 292.809946 
L 97.517824 294.79944 
L 110.937849 275.464112 
L 114.360843 276.915182 
L 112.205731 293.480525 
L 116.194575 294.882822 
L 121.112038 293.197887 
L 125.087591 294.32029 
L 132.764289 279.509466 
L 136.303687 280.272264 
L 145.199326 248.909497 
L 147.770445 249.29644 
L 145.149019 300.337279 
L 149.337165 300.700377 
L 153.079136 312.513808 
L 157.646218 312.621545 
L 161.795281 294.817474 
L 165.801643 294.659906 
L 165.863185 248.954965 
L 168.425517 248.692169 
L 181.328301 317.121391 
L 186.026289 316.338635 
L 189.069332 307.854556 
L 193.472123 306.832986 
L 191.96178 284.850638 
L 195.639847 283.749497 
L 200.05033 284.720272 
L 203.720299 283.364874 
L 193.472267 249.167758 
L 196.027639 248.036767 
L 200.62051 250.972547 
L 203.229094 249.615907 
L 235.317781 298.945698 
L 239.417592 296.47438 
L 217.226458 254.697552 
L 219.943954 252.816942 
L 229.639135 260.061549 
L 232.51915 257.788006 
L 245.970602 267.673841 
L 249.081889 264.883037 
L 222.807148 232.281496 
L 224.817075 230.236501 
L 271.693258 268.305303 
L 274.811682 264.70541 
L 246.236775 236.160947 
L 248.357096 233.377355 
L 278.377891 249.832922 
L 280.912197 246.031983 
L 283.988174 242.551127 
L 286.290752 238.577388 
L 278.861403 229.556702 
L 280.757942 225.750585 
L 286.776575 223.75654 
L 288.48683 219.704421 
L 235.67084 195.607328 
L 236.521291 193.176003 
L 257.291822 196.671588 
L 258.165046 193.559926 
L 294.331939 198.575636 
L 295.246717 194.29841 
L 250.280485 182.446447 
L 250.709906 179.562269 
L 312.555154 182.876514 
L 312.967306 178.034072 
L 263.806628 171.31521 
L 263.879371 168.011245 
L 290.113156 164.045715 
L 289.944323 159.918209 
L 308.889539 154.099197 
L 308.398682 149.386238 
L 293.244706 146.898865 
L 292.53519 142.681374 
L 290.183133 138.816254 
L 289.220996 134.699022 
L 255.422824 139.903689 
L 254.512065 136.87886 
L 287.022357 122.042309 
L 285.534373 118.032752 
L 271.123391 119.520881 
L 269.563989 116.012469 
L 262.370656 115.329276 
L 260.683788 112.098141 
L 246.215836 116.322603 
L 244.568188 113.59892 
L 271.065368 91.97753 
L 268.639971 88.484561 
L 243.415939 102.466067 
L 241.333995 99.837271 
L 243.247778 93.720704 
L 240.890944 91.101519 
L 229.112937 97.795478 
L 226.891212 95.618709 
L 213.290395 106.203674 
L 211.340865 104.520243 
L 209.339368 102.898941 
L 207.287883 101.341373 
L 229.263962 64.824875 
L 226.005493 62.659658 
L 220.299481 64.576312 
L 217.03763 62.693082 
L 196.353262 94.561144 
L 194.04604 93.41601 
L 219.340644 29.367013 
L 214.972209 27.531338 
L 191.436878 78.086113 
L 188.614075 77.103707 
L 185.981075 75.469567 
L 183.0787 74.659996 
L 181.013755 70.175624 
L 177.947382 69.524854 
L 171.871604 87.273973 
L 169.347361 86.902198 
L 167.194788 82.7652 
L 164.531092 82.542704 
L 163.091067 48.425591 
L 159.349687 48.349104 
L 154.719666 15.174193 
L 149.936928 15.377362 
L 146.062081 25.736154 
L 141.615716 26.206314 
L 139.76918 43.619049 
L 135.888203 44.27823 
L 126.413896 19.393065 
L 121.777804 20.484143 
L 125.033265 49.211793 
L 121.335422 50.331538 
L 125.949075 74.86929 
L 123.057507 75.947554 
L 118.074426 72.142671 
L 115.10102 73.469879 
L 101.734056 54.189843 
L 98.204253 56.039704 
L 92.390921 53.999003 
L 88.859738 56.142727 
L 72.446415 39.16927 
L 68.458813 41.947426 
L 71.156481 53.424635 
L 67.617737 56.2363 
L 89.604415 88.241828 
L 87.151279 90.456235 
L 87.490281 95.489459 
L 85.266072 97.766756 
L 69.250667 87.794558 
L 66.793531 90.649153 
L 82.081999 107.38185 
L 80.234387 109.823315 
L 81.651908 114.505341 
L 80.028487 116.956808 
L 32.02528 91.751896 
L 29.710977 95.774983 
L 37.833006 105.168435 
L 35.937677 109.00228 
L 38.412392 114.750293 
L 36.81805 118.561183 
L 16.464646 115.54868 
L 14.90626 120.049261 
L 60.934459 138.556992 
L 60.077517 141.647969 
L 81.925039 149.897522 
L 81.41429 152.322902 
L 35.973297 147.482352 
L 35.409329 151.35375 
L 65.730341 158.249488 
L 65.490203 161.179935 
L 25.183704 162.726758 
L 25.104389 166.929866 
L 49.875154 170.433622 
L 50.025951 173.856567 
L 44.128041 177.836074 
L 44.514429 181.436061 
L 50.358929 184.191898 
L 50.942077 187.592829 
L 70.497446 186.814681 
L 71.153103 189.581116 
L 81.550188 189.550535 
L 82.286402 191.968096 
L 84.553843 193.841869 
L 85.423501 196.162867 
L 49.444362 214.312876 
L 50.975032 217.727671 
L 69.159227 212.717213 
L 70.629979 215.512918 
L 86.843364 209.645336 
L 88.208785 211.886532 
L 41.627095 246.537451 
L 44.174841 250.182104 
L 56.624113 246.191225 
L 59.153559 249.364511 
L 46.097792 266.216419 
L 49.262078 269.710774 
L 79.371937 246.392939 
L 81.896477 248.850884 
L 86.034114 249.49283 
L 88.652828 251.739769 
L 69.016741 282.551079 
L 72.683292 285.316736 
L 103.014643 249.036938 
L 105.610627 250.750198 
L 99.969258 266.331338 
L 103.110521 268.1318 
L 94.331198 293.217834 
L 98.320619 295.182276 
L 111.61877 275.762926 
L 115.050823 277.192438 
L 112.99994 293.771008 
L 116.997525 295.14819 
L 121.904294 293.432361 
L 125.886827 294.529737 
L 133.470222 279.670924 
L 137.014347 280.411447 
L 145.712556 248.993351 
L 148.286058 249.364116 
L 145.985701 300.420433 
L 150.176049 300.757182 
L 153.992245 312.546845 
L 158.559915 312.625855 
L 162.596918 294.796041 
L 166.602209 294.613278 
L 166.376292 248.908854 
L 168.936921 248.629948 
L 182.269831 316.976666 
L 186.962803 316.164377 
L 189.952426 307.661327 
L 194.348704 306.612086 
L 192.700134 284.639672 
L 196.371203 283.515419 
L 200.787705 284.458436 
L 204.449076 283.079983 
L 193.986167 248.947998 
L 196.534375 247.800957 
L 201.145619 250.707793 
L 203.74562 249.334773 
L 236.143928 298.461768 
L 240.228114 295.964714 
L 217.774667 254.328282 
L 220.480281 252.430618 
L 230.220835 259.614104 
L 233.086494 257.322492 
L 246.599856 267.123529 
L 249.693529 264.313212 
L 223.214262 231.87757 
L 225.211288 229.819974 
L 272.325974 267.593199 
L 275.421696 263.973764 
L 246.667825 235.609585 
L 248.770598 232.812712 
L 278.894294 249.07914 
L 281.404645 245.262337 
L 284.458669 241.762203 
L 286.736208 237.774062 
L 279.250271 228.80028 
L 281.122835 224.98231 
L 287.128807 222.950451 
L 288.813543 218.887655 
L 235.84704 195.123222 
L 236.682182 192.686596 
L 257.474288 196.051477 
L 258.327924 192.934384 
L 294.525648 197.722526 
L 295.413506 193.439631 
L 250.373622 181.870714 
L 250.784894 178.983893 
L 312.649764 181.909101 
L 313.031452 177.064162 
L 263.829488 170.654626 
L 290.154726 167.350269 
z
" clip-path="url(#pff3c91116b)" style="fill: #0000ff; opacity: 0.5; stroke: #000000; stroke-width: 1.5; stroke-linejoin: miter"/>
   </g>
  </g>
 </g>
 <defs>
  <clipPath id="pff3c91116b">
   <rect x="0" y="-0" width="327.937712" height="332.64"/>
  </clipPath>
 </defs>
</svg>
