<?xml version="1.0" encoding="utf-8" standalone="no"?>
<!DOCTYPE svg PUBLIC "-//W3C//DTD SVG 1.1//EN"
  "http://www.w3.org/Graphics/SVG/1.1/DTD/svg11.dtd">
<svg xmlns:xlink="http://www.w3.org/1999/xlink" width="334.8pt" height="313.043608pt" viewBox="0 0 334.8 313.043608" xmlns="http://www.w3.org/2000/svg" version="1.1">
 <metadata>
  <rdf:RDF xmlns:dc="http://purl.org/dc/elements/1.1/" xmlns:cc="http://creativecommons.org/ns#" xmlns:rdf="http://www.w3.org/1999/02/22-rdf-syntax-ns#">
   <cc:Work>
    <dc:type rdf:resource="http://purl.org/dc/dcmitype/StillImage"/>
    <dc:date>2023-12-09T18:06:24.508253</dc:date>
    <dc:format>image/svg+xml</dc:format>
    <dc:creator>
     <cc:Agent>
      <dc:title>Matplotlib v3.8.2, https://matplotlib.org/</dc:title>
     </cc:Agent>
    </dc:creator>
   </cc:Work>
  </rdf:RDF>
 </metadata>
 <defs>
  <style type="text/css">*{stroke-linejoin: round; stroke-linecap: butt}</style>
 </defs>
 <g id="figure_1">
  <g id="patch_1">
   <path d="M 0 313.043608 
L 334.8 313.043608 
L 334.8 -0 
L 0 -0 
L 0 313.043608 
z
" style="fill: none"/>
  </g>
  <g id="axes_1">
   <g id="patch_2">
    <path d="M 319.581818 157.966398 
L 319.509414 153.361974 
L 276.964274 151.427828 
L 276.707354 148.166626 
L 309.691866 140.698547 
L 309.081412 136.413622 
L 299.6903 133.801058 
L 298.867919 129.834016 
L 316.522007 121.113931 
L 315.292393 116.623935 
L 297.941628 117.372784 
L 296.603571 113.468846 
L 249.020515 127.890399 
L 248.037342 125.519448 
L 289.691032 103.059374 
L 287.907009 99.421929 
L 259.369702 110.50519 
L 257.834783 107.817433 
L 244.058764 112.904212 
L 242.606847 110.696679 
L 293.501224 70.40378 
L 290.688554 66.662681 
L 244.623553 98.747444 
L 242.726236 96.529152 
L 273.986798 63.12245 
L 270.954835 59.998527 
L 238.818524 87.91212 
L 236.583391 85.881707 
L 236.323678 81.454449 
L 233.886735 79.505673 
L 235.147713 72.45178 
L 232.428288 70.54443 
L 218.091506 86.977752 
L 215.837242 85.599504 
L 249.708264 18.337421 
L 245.280166 15.999012 
L 215.288328 68.134685 
L 212.442983 66.853892 
L 217.782169 44.820538 
L 214.202543 43.472861 
L 205.163159 58.988506 
L 202.035245 58.030593 
L 207.392054 23.831652 
L 203.157629 22.82104 
L 190.855126 64.401905 
L 187.904495 63.891191 
L 190.987175 15.03597 
L 186.484305 14.545512 
L 181.232628 26.177671 
L 177.084901 25.988409 
L 172.94334 32.331435 
L 168.993199 32.399764 
L 166.078207 48.563488 
L 162.641832 48.839646 
L 156.776415 30.173901 
L 152.76643 30.75162 
L 152.105874 48.742389 
L 148.682032 49.457779 
L 137.666382 20.84115 
L 133.372403 22.024345 
L 129.11775 23.341966 
L 124.906629 24.792712 
L 120.151141 24.888241 
L 115.993072 26.620152 
L 129.342451 65.374164 
L 126.452804 66.797063 
L 125.931116 72.512753 
L 123.267608 74.039383 
L 129.688145 89.818391 
L 127.566907 91.218335 
L 104.732254 64.244549 
L 101.819256 66.441805 
L 94.373497 63.190728 
L 91.432487 65.714207 
L 99.555211 79.970142 
L 97.139221 82.3224 
L 106.491296 95.677361 
L 104.565745 97.803767 
L 54.517089 60.321376 
L 51.505567 64.099446 
L 76.503085 88.125705 
L 74.354921 91.19874 
L 68.920669 92.202612 
L 66.90444 95.512039 
L 97.999356 116.915102 
L 96.745766 119.298013 
L 54.968679 102.748646 
L 53.29094 106.49154 
L 80.035693 121.401166 
L 78.932036 124.346676 
L 28.407477 111.392129 
L 27.01464 115.965892 
L 32.747202 122.352066 
L 31.696824 126.783959 
L 45.729611 134.051519 
L 45.040671 138.069433 
L 88.954322 147.589276 
L 88.669667 150.241416 
L 53.321532 150.798659 
L 53.155404 154.569586 
L 45.905948 158.36652 
L 45.981437 162.366867 
L 91.695991 163.35281 
L 91.90562 165.910952 
L 15.218182 178.441627 
L 15.940049 183.396939 
L 81.232082 175.816663 
L 81.838776 178.697651 
L 83.310157 181.356501 
L 84.090008 184.169411 
L 75.835541 189.955377 
L 76.889455 192.999053 
L 37.91725 212.056926 
L 39.684833 216.28191 
L 48.812764 217.016105 
L 50.730887 220.896058 
L 35.274297 234.415436 
L 37.746187 238.712466 
L 98.994786 205.407807 
L 100.523108 207.715666 
L 49.182811 248.743881 
L 52.098342 252.596511 
L 86.479261 230.220943 
L 88.79395 232.91005 
L 88.286059 238.275355 
L 90.853103 240.90367 
L 74.409889 263.942609 
L 77.790828 266.99453 
L 83.804034 266.845482 
L 87.271602 269.600596 
L 80.066772 287.179496 
L 84.175534 290.042063 
L 123.30205 237.225155 
L 125.818761 238.753009 
L 127.999714 240.903837 
L 130.629768 242.282168 
L 134.989953 239.949549 
L 137.586546 241.108563 
L 120.989175 291.375199 
L 125.209625 292.949002 
L 129.721402 293.627187 
L 134.008343 294.925316 
L 143.222589 276.68891 
L 146.970278 277.570907 
L 157.770367 240.572049 
L 160.375269 241.014489 
L 161.156474 256.467757 
L 164.259498 256.795871 
L 166.626842 269.808175 
L 170.146614 269.957693 
L 173.695769 275.597971 
L 177.394089 275.522364 
L 180.601633 268.144953 
L 184.062199 267.855895 
L 186.262306 257.937149 
L 189.399118 257.475154 
L 189.751429 242.77928 
L 192.409919 242.215074 
L 203.772172 274.853205 
L 207.432204 273.832299 
L 200.260645 240.025241 
L 202.827346 239.131964 
L 211.630431 253.75132 
L 214.623089 252.493766 
L 240.30832 298.814353 
L 244.703679 296.632822 
L 229.569968 259.353203 
L 232.729891 257.528821 
L 246.639511 272.440397 
L 250.202484 270.07284 
L 226.68186 230.836793 
L 228.946593 229.117318 
L 240.39751 238.376154 
L 242.892516 236.221702 
L 242.0127 230.507875 
L 244.25951 228.306528 
L 290.413062 266.87716 
L 293.779472 263.136018 
L 279.063161 244.598828 
L 281.734704 241.225566 
L 269.997836 227.502846 
L 272.136326 224.423071 
L 293.163561 233.174982 
L 295.468941 229.364021 
L 282.17723 217.090631 
L 283.982315 213.633057 
L 251.553698 194.305986 
L 252.657525 191.822548 
L 269.343634 195.399371 
L 270.473043 192.356038 
L 271.506205 189.278698 
L 272.442098 186.170395 
L 279.489961 184.588795 
L 280.274446 181.231785 
L 288.822488 179.303254 
L 289.436169 175.655422 
L 274.044515 170.082111 
L 274.37557 166.90349 
L 317.749387 166.160756 
L 317.935537 161.609896 
L 319.578922 157.045368 
L 319.47756 152.44149 
L 276.921097 150.774967 
L 276.643671 147.515446 
L 309.58056 139.84006 
L 308.943169 135.55906 
L 299.535811 133.005612 
L 298.688496 129.04382 
L 316.28739 120.212874 
L 315.02956 115.730701 
L 297.683849 116.588661 
L 296.321265 112.693216 
L 248.829853 127.413754 
L 247.831788 125.049033 
L 289.343393 102.327425 
L 287.536528 98.701273 
L 259.069492 109.963798 
L 257.5177 107.285748 
L 243.773946 112.45907 
L 242.308173 110.260712 
L 292.948124 69.648514 
L 290.11198 65.925178 
L 244.249685 98.29903 
L 242.338454 96.092714 
L 273.388288 62.490062 
L 270.336738 59.38527 
L 238.376624 87.50043 
L 236.128765 85.484116 
L 235.841211 81.058579 
L 233.39206 79.125168 
L 234.608648 72.063483 
L 231.877281 70.173275 
L 217.644138 86.696442 
L 215.381251 85.3324 
L 248.828563 17.858618 
L 244.385845 15.548104 
L 214.722503 67.871378 
L 211.86916 66.608506 
L 217.069662 44.542008 
L 213.481631 43.216871 
L 204.540011 58.789062 
L 201.406133 57.85084 
L 206.547745 23.618884 
L 202.307048 22.634925 
L 190.266308 64.292343 
L 187.312524 63.800197 
L 190.08787 14.926554 
L 185.582005 14.464427 
L 180.403591 26.129385 
L 176.254756 25.966213 
L 172.153171 32.335163 
L 168.203538 32.428334 
L 165.390264 48.610072 
L 161.955694 48.907837 
L 155.972996 30.279352 
L 151.966724 30.88228 
L 151.419333 48.876848 
L 148.000058 49.613758 
L 136.804643 21.066977 
L 132.518191 22.277155 
L 128.271909 23.62151 
L 124.069996 25.098712 
L 119.315203 25.224149 
L 115.168108 26.982177 
L 128.760965 65.651463 
L 125.880324 67.092508 
L 125.394595 72.811366 
L 122.740741 74.354717 
L 129.260392 90.093032 
L 127.148001 91.506289 
L 104.144149 64.676654 
L 101.245029 66.892188 
L 93.77897 63.688004 
L 90.853889 66.229931 
L 99.066115 80.434497 
L 96.664966 82.801904 
L 106.100851 96.097781 
L 104.188713 98.236256 
L 53.905303 61.069383 
L 50.917602 64.86632 
L 76.065738 88.734883 
L 73.936944 91.821369 
L 68.509113 92.859398 
L 66.513739 96.181441 
L 97.742653 117.388512 
L 96.504075 119.77926 
L 54.623728 103.492974 
L 52.969563 107.246346 
L 79.80756 121.987468 
L 78.72245 124.939861 
L 28.117414 112.303341 
L 26.753371 116.885774 
L 32.525985 123.235767 
L 31.503502 127.674179 
L 45.58172 134.853337 
L 44.918064 138.875504 
L 88.890721 148.118967 
L 88.622752 150.772845 
L 53.278821 151.552397 
L 53.136413 155.324294 
L 45.910981 159.166748 
L 46.011628 163.166541 
L 91.731479 163.864945 
L 91.957194 166.421719 
L 15.350083 179.434466 
L 16.103102 184.38514 
L 81.346168 176.394364 
L 81.970969 179.27148 
L 83.459044 181.921022 
L 84.256571 184.728972 
L 76.038658 190.566739 
L 77.111694 193.603728 
L 38.260123 212.906336 
L 40.054244 217.120119 
L 49.186612 217.79689 
L 51.1291 221.664702 
L 35.757845 235.281027 
L 38.256712 239.562424 
L 99.294632 205.873206 
L 100.837439 208.171407 
L 49.756202 249.521711 
L 52.695906 253.355929 
L 86.935415 230.764567 
L 89.266971 233.439062 
L 88.792835 238.807455 
L 91.376359 241.419573 
L 75.078372 264.561475 
L 78.47844 267.592071 
L 84.490589 267.405207 
L 87.975416 270.138457 
L 80.88129 287.762324 
L 85.007974 290.598993 
L 123.801528 237.537045 
L 126.327799 239.049041 
L 128.522236 241.186109 
L 131.160907 242.547871 
L 135.506335 240.187875 
L 138.110166 241.330536 
L 121.829272 291.700565 
L 126.059537 293.247793 
L 130.575491 293.897588 
L 134.870511 295.168729 
L 143.969879 276.874731 
L 147.72304 277.733139 
L 158.290214 240.667087 
L 160.897847 241.093135 
L 161.776229 256.541184 
L 164.881255 256.849775 
L 167.330393 269.846932 
L 170.851035 269.97431 
L 174.435594 275.592154 
L 178.133365 275.493288 
L 181.294446 268.09585 
L 184.753126 267.785033 
L 186.890806 257.852645 
L 190.02465 257.370931 
L 190.284525 242.673131 
L 192.939414 242.092216 
L 204.506718 274.65824 
L 208.160257 273.614334 
L 200.776212 239.85305 
L 203.337244 238.943648 
L 212.232103 253.507348 
L 215.216792 252.230997 
L 241.192846 298.389122 
L 245.574397 296.17999 
L 230.206517 258.996291 
L 233.354904 257.152071 
L 247.358034 271.975868 
L 250.906046 269.585949 
L 227.139115 230.49861 
L 229.392988 228.764925 
L 240.901912 237.951558 
L 243.383318 235.781456 
L 242.467582 230.073276 
L 244.700503 227.857841 
L 291.095729 266.137431 
L 294.438543 262.375189 
L 279.605935 243.930923 
L 282.256209 240.540925 
L 270.433265 226.892295 
L 272.552342 223.799131 
L 293.634206 232.41862 
L 295.915572 228.593235 
L 282.546931 216.403685 
L 284.330234 212.934826 
L 251.780703 193.812095 
L 252.868888 191.321764 
L 269.577163 194.79357 
L 270.68741 191.743194 
L 271.701196 188.659417 
L 272.617521 185.545289 
L 279.655298 183.919393 
L 280.418653 180.557515 
L 288.954396 178.575261 
L 289.545123 174.923641 
L 274.11872 169.447245 
L 274.429777 166.266604 
L 317.798065 165.251088 
L 317.955589 160.699148 
L 319.570233 156.124374 
L 319.439917 151.521225 
L 276.873814 150.122391 
L 276.575893 146.864679 
L 309.463857 138.98229 
L 308.799554 134.705383 
L 299.376321 132.211154 
L 298.504106 128.254769 
L 316.04711 119.31331 
L 314.761115 114.839137 
L 297.421143 115.806175 
L 296.034086 111.919376 
L 248.636197 126.938318 
L 247.623279 124.579921 
L 288.991157 101.597678 
L 287.161521 97.982962 
L 258.765883 109.424305 
L 257.197278 106.756068 
L 243.486334 112.015728 
L 242.006763 109.826633 
L 292.390285 68.896741 
L 289.530779 65.191317 
L 243.873005 97.852976 
L 241.947935 95.658725 
L 272.785814 61.861451 
L 269.714796 58.775913 
L 237.932142 87.091528 
L 235.671646 85.089391 
L 235.356264 80.66575 
L 232.895002 78.747782 
L 234.067152 71.678585 
L 231.32395 69.805593 
L 217.19501 86.417951 
L 214.923589 85.068168 
L 247.945867 17.385356 
L 243.488706 15.102831 
L 214.155034 67.611635 
L 211.293804 66.366734 
L 216.355418 44.267964 
L 212.759124 42.96542 
L 203.915621 58.593541 
L 200.775904 57.675048 
L 205.702115 23.411431 
L 201.455313 22.454163 
L 189.676813 64.186486 
L 186.719991 63.712928 
L 189.187896 14.822796 
L 184.679213 14.389017 
L 179.574268 26.086314 
L 175.424488 25.94924 
L 171.363041 32.34386 
L 167.414072 32.46187 
L 164.702628 48.660982 
L 161.269999 48.980343 
L 155.170256 30.389853 
L 151.167855 31.017967 
L 150.733651 49.015622 
L 147.319079 49.774022 
L 135.944342 21.298219 
L 131.665586 22.535332 
L 127.427843 23.906367 
L 123.235304 25.409968 
L 118.481394 25.565307 
L 114.345439 27.349384 
L 128.181234 65.932413 
L 125.309713 67.391547 
L 124.859962 73.113348 
L 122.215868 74.673359 
L 128.834375 90.370358 
L 126.730914 91.796873 
L 103.558774 65.11245 
L 100.673646 67.346173 
L 93.187582 64.189011 
L 90.278547 66.749284 
L 98.579948 80.901919 
L 96.193737 83.284381 
L 105.713059 96.520648 
L 103.814408 98.671108 
L 53.298234 61.821224 
L 50.334473 65.636876 
L 75.632231 89.3468 
L 73.522891 92.446614 
L 68.101696 93.518761 
L 66.127256 96.853288 
L 97.488933 117.863527 
L 96.265415 120.262018 
L 54.283465 104.239457 
L 52.652939 108.003159 
L 79.583119 122.575194 
L 78.516599 125.534353 
L 27.833087 113.216359 
L 26.497892 117.807281 
L 32.31033 124.120842 
L 31.315783 128.565597 
L 45.438875 135.656069 
L 44.800529 139.682331 
L 88.830453 148.649047 
L 88.57918 151.304559 
L 53.240851 152.306388 
L 53.12217 156.079106 
L 45.921047 159.966928 
L 46.046849 163.966009 
L 91.770188 164.376848 
L 92.011979 166.932151 
L 15.488226 180.426456 
L 16.272367 185.372297 
L 81.463885 176.971336 
L 82.106769 179.844465 
L 83.611479 182.484596 
L 84.42665 185.287475 
L 76.245616 191.176812 
L 77.337732 194.206992 
L 38.608332 213.753573 
L 40.42892 217.955989 
L 49.565363 218.575309 
L 51.53214 222.430828 
L 36.246827 236.143559 
L 38.772572 240.409156 
L 99.597399 206.336709 
L 101.15463 208.625162 
L 50.334473 250.29592 
L 53.298234 254.111572 
L 87.394979 231.305311 
L 89.74331 233.965089 
L 89.302948 239.336358 
L 91.902849 241.932175 
L 75.750734 265.176124 
L 79.169795 268.185276 
L 85.18065 267.960602 
L 88.682599 270.671881 
L 81.699458 288.340017 
L 85.843901 291.150676 
L 124.302959 237.845788 
L 126.838688 239.341865 
L 129.046523 241.465089 
L 131.693707 242.810228 
L 136.024206 240.422949 
L 138.635172 241.54921 
L 122.671399 292.020641 
L 126.911312 293.541232 
L 131.431263 294.162612 
L 135.734192 295.406714 
L 144.718322 277.055848 
L 148.476808 277.890634 
L 158.810648 240.758854 
L 161.42091 241.168493 
L 162.396433 256.610711 
L 165.503339 256.899768 
L 168.034173 269.881264 
L 171.555546 269.986496 
L 175.175368 275.581685 
L 178.872444 275.459564 
L 181.986936 268.04239 
L 185.443593 267.709826 
L 187.518762 257.76419 
L 190.649515 257.262776 
L 190.816944 242.563632 
L 193.468126 241.966031 
L 205.240023 274.458659 
L 208.886924 273.391794 
L 201.290686 239.67762 
L 203.845948 238.752128 
L 212.832228 253.259597 
L 215.808831 251.964499 
L 242.074679 297.958336 
L 246.44225 295.721691 
L 230.840809 258.635382 
L 233.977534 256.771397 
L 248.073621 271.50683 
L 251.606532 269.094643 
L 227.594233 230.157557 
L 229.837158 228.409731 
L 241.403633 237.523798 
L 243.871341 235.338132 
L 242.919722 229.635824 
L 245.138666 227.406389 
L 291.773731 265.393422 
L 295.092816 261.61023 
L 280.144497 243.259618 
L 282.773398 239.853019 
L 270.864846 226.279018 
L 272.964427 223.172587 
L 294.100085 231.659313 
L 296.357347 227.819654 
L 282.912305 215.714427 
L 284.673755 212.234421 
L 252.004596 193.316786 
L 253.077098 190.81966 
L 269.806878 194.186312 
L 270.897917 191.129013 
L 271.892289 188.038921 
L 272.789009 184.919092 
L 279.816421 183.248965 
L 280.558616 179.882352 
L 289.081724 177.846452 
L 289.649472 174.191188 
L 274.188931 168.811924 
L 274.479977 165.62939 
L 317.84102 164.341133 
L 317.969912 159.788291 
L 319.555751 155.203453 
L 319.396487 150.601214 
L 276.822428 149.470125 
L 276.504024 146.214351 
L 309.341762 138.125271 
L 308.650572 133.852627 
L 299.211839 131.417714 
L 298.314757 127.466893 
L 315.801177 118.415276 
L 314.487068 113.949279 
L 297.153521 115.025356 
L 295.742045 111.147358 
L 248.439555 126.464109 
L 247.411824 124.112129 
L 288.634338 100.87016 
L 286.782004 97.267023 
L 258.458888 108.886732 
L 256.873532 106.228414 
L 243.195939 111.574204 
L 241.702629 109.394457 
L 291.827728 68.148491 
L 288.944975 64.461126 
L 243.493526 97.4093 
L 241.554694 95.2272 
L 272.179397 61.236642 
L 269.089034 58.17048 
L 237.485098 86.685429 
L 235.212055 84.69755 
L 234.868857 80.27598 
L 232.39558 78.373529 
L 233.523245 71.2971 
L 230.768318 69.441398 
L 216.74414 86.142291 
L 214.464274 84.806821 
L 247.060213 16.917656 
L 242.588783 14.663208 
L 213.585943 67.355467 
L 210.71694 66.128586 
L 215.639465 43.998418 
L 212.035049 42.718518 
L 203.290013 58.40195 
L 200.144582 57.503223 
L 204.855196 23.209301 
L 200.602457 22.278761 
L 189.086663 64.084339 
L 186.126922 63.629387 
L 188.287286 14.724701 
L 183.775964 14.319288 
L 178.744689 26.04846 
L 174.59413 25.937488 
L 170.572982 32.357526 
L 166.624833 32.500371 
L 164.015326 48.716216 
L 160.584773 49.057159 
L 154.368228 30.505402 
L 150.369856 31.158676 
L 150.048856 49.158705 
L 146.639121 49.938567 
L 135.085513 21.534867 
L 130.814622 22.798867 
L 126.585586 24.196528 
L 122.402586 25.726468 
L 117.649747 25.911703 
L 113.525094 27.721757 
L 127.603282 66.217004 
L 124.740995 67.69417 
L 124.327239 73.418686 
L 121.693009 74.995296 
L 128.410111 90.650358 
L 126.315663 92.090074 
L 102.976152 65.551918 
L 100.10513 67.803744 
L 92.599357 64.693726 
L 89.706482 67.272245 
L 98.096731 81.372389 
L 95.725551 83.769812 
L 105.327933 96.945947 
L 103.442845 99.108305 
L 52.695906 62.576868 
L 49.756202 66.411085 
L 75.202581 89.961432 
L 73.112779 93.07445 
L 67.698435 94.180672 
L 65.745005 97.527551 
L 97.238205 118.340128 
L 96.029796 120.746267 
L 53.947904 104.988066 
L 52.341082 108.761948 
L 79.362378 123.164319 
L 78.314492 126.130128 
L 27.554509 114.131148 
L 26.248215 118.730376 
L 32.100246 125.007255 
L 31.133673 129.458178 
L 45.301082 136.459684 
L 44.688071 140.489881 
L 88.77352 149.179496 
L 88.538954 151.836535 
L 53.207624 153.060603 
L 53.112673 156.833993 
L 45.936145 160.767029 
L 46.087097 164.76524 
L 91.812116 164.888497 
L 92.069973 167.442229 
L 15.632605 181.417558 
L 16.447837 186.358369 
L 81.585228 177.547557 
L 82.24617 180.416586 
L 83.767455 183.047201 
L 84.600239 185.844896 
L 76.456407 191.785572 
L 77.56756 194.808823 
L 38.961862 214.598603 
L 40.808845 218.789485 
L 49.949003 219.35133 
L 51.93999 223.194403 
L 36.741225 237.002999 
L 39.293748 241.252625 
L 99.903076 206.798299 
L 101.474669 209.076913 
L 50.917602 251.066477 
L 53.905303 254.863413 
L 87.857935 231.843153 
L 90.222949 234.488109 
L 89.816377 239.862042 
L 92.432553 242.441455 
L 76.426949 265.786532 
L 79.864868 268.774121 
L 85.874191 268.511647 
L 89.393123 271.200846 
L 82.521243 288.912553 
L 86.683282 291.69709 
L 124.806321 238.151371 
L 127.35141 239.63147 
L 129.572555 241.740766 
L 132.228146 243.069229 
L 136.543545 240.654761 
L 139.161543 241.764578 
L 123.515523 292.335414 
L 127.764915 293.829308 
L 132.288685 294.422248 
L 136.599354 295.639263 
L 145.467889 277.232254 
L 149.231551 278.043386 
L 159.331649 240.847345 
L 161.944435 241.240559 
L 163.017062 256.676337 
L 166.125725 256.945847 
L 168.738155 269.911169 
L 172.260121 269.994252 
L 175.915061 275.566563 
L 179.611296 275.421192 
L 182.679077 267.984577 
L 186.133574 267.630279 
L 188.146149 257.671788 
L 191.273686 257.150692 
L 191.348663 242.450786 
L 193.996034 241.836523 
L 205.972058 274.254469 
L 209.612177 273.164689 
L 201.804047 239.498957 
L 204.353437 238.557413 
L 213.430784 253.008076 
L 216.399182 251.694282 
L 242.953786 297.522013 
L 247.307202 295.257942 
L 231.472819 258.270491 
L 234.597759 256.386815 
L 248.786244 271.033299 
L 252.303914 268.59894 
L 228.047198 229.813648 
L 230.279085 228.05175 
L 241.902654 237.09289 
L 244.356566 234.891747 
L 243.369102 229.195537 
L 245.57398 226.95219 
L 292.447039 264.645164 
L 295.742265 260.841172 
L 280.678827 242.584939 
L 283.28625 239.161873 
L 271.292561 225.663039 
L 273.372562 222.543464 
L 294.56118 230.89709 
L 296.794247 227.043311 
L 283.273336 215.022885 
L 285.012864 211.531869 
L 252.225371 192.820079 
L 253.282145 190.316257 
L 270.032769 193.577621 
L 271.104558 190.513521 
L 272.079475 187.417236 
L 272.956555 184.291829 
L 279.973324 182.577536 
L 280.694331 179.206322 
L 289.204465 177.116856 
L 289.749212 173.458095 
L 274.255145 168.176175 
L 274.526169 164.991873 
L 317.878252 163.430925 
L 317.978506 158.877363 
L 319.535478 154.282641 
L 319.347271 149.681495 
L 276.766941 148.818195 
L 276.428066 145.564488 
L 309.214278 137.269037 
L 308.49623 133.000825 
L 299.042369 130.625324 
L 298.120457 126.680223 
L 315.549602 117.518805 
L 314.20743 113.061162 
L 296.880994 114.246236 
L 295.445155 110.377193 
L 248.239934 125.991146 
L 247.197431 123.645676 
L 288.272951 100.144901 
L 286.397992 96.553485 
L 258.148517 108.351101 
L 256.546473 105.702806 
L 242.902772 111.134515 
L 241.395783 108.964204 
L 291.260477 67.403795 
L 288.354589 63.734633 
L 243.111265 96.968019 
L 241.158747 94.798156 
L 271.569063 60.615659 
L 268.459477 57.568994 
L 237.035508 86.282151 
L 234.750007 84.308606 
L 234.379007 79.889282 
L 231.893814 78.002425 
L 232.97695 70.919043 
L 230.210406 69.080705 
L 216.291544 85.869472 
L 214.003324 84.548367 
L 246.171634 16.455535 
L 241.686114 14.229255 
L 213.015252 67.102882 
L 210.138589 65.89407 
L 214.92183 43.73338 
L 211.309436 42.476175 
L 202.663213 58.214299 
L 199.512191 57.335372 
L 204.007023 23.012501 
L 199.748516 22.108727 
L 188.495883 63.985906 
L 185.533338 63.549578 
L 187.386077 14.632272 
L 182.872295 14.25524 
L 177.914889 26.015825 
L 173.763714 25.93096 
L 169.783024 32.376161 
L 165.835852 32.543835 
L 163.328385 48.775771 
L 159.900044 49.138284 
L 153.566941 30.625992 
L 149.572758 31.304401 
L 149.364974 49.306093 
L 145.960211 50.107385 
L 134.228188 21.776912 
L 129.965332 23.067749 
L 125.74517 24.49198 
L 121.571876 26.048199 
L 116.820295 26.263323 
L 112.707109 28.099283 
L 127.027131 66.505225 
L 124.174191 68.000363 
L 123.796448 73.727368 
L 121.172185 75.320515 
L 127.987616 90.93302 
L 125.902265 92.385881 
L 102.396305 65.995043 
L 99.539502 68.26488 
L 92.014317 65.202132 
L 89.137717 67.798794 
L 97.616482 81.845889 
L 95.260428 84.258178 
L 104.94549 97.373659 
L 103.07404 99.54783 
L 52.098342 63.336285 
L 49.182811 67.188916 
L 74.776805 90.578753 
L 72.706624 93.704854 
L 67.299344 94.845107 
L 65.367004 98.204206 
L 96.990479 118.818296 
L 95.797228 121.231988 
L 53.617058 105.73877 
L 52.034003 109.522684 
L 79.145348 123.754821 
L 78.116135 126.727162 
L 27.28169 115.047671 
L 26.004348 119.655024 
L 31.895742 125.894973 
L 30.957181 130.351887 
L 45.168345 137.264149 
L 44.580694 141.298122 
L 88.719924 149.710293 
L 88.502074 152.368755 
L 53.179141 153.815012 
L 53.107925 157.588925 
L 45.956275 161.567019 
L 46.132371 165.564202 
L 91.85726 165.399872 
L 92.131174 167.951931 
L 15.783215 182.407732 
L 16.629506 187.343318 
L 81.710194 178.123003 
L 82.389167 180.987818 
L 83.926967 183.608813 
L 84.77733 186.401216 
L 76.671023 192.392994 
L 77.801168 195.409196 
L 39.320701 215.441393 
L 41.194005 219.620576 
L 50.337516 220.124923 
L 52.352634 223.955397 
L 37.241018 237.859313 
L 39.820219 242.092801 
L 100.211649 207.257958 
L 101.797542 209.526642 
L 51.505567 251.833351 
L 54.517089 255.611421 
L 88.324265 232.378073 
L 90.705867 235.008102 
L 90.333102 240.384486 
L 92.96545 242.947394 
L 77.106989 266.392676 
L 80.563631 269.358583 
L 86.571184 269.058318 
L 90.10696 271.725333 
L 83.346612 289.479909 
L 87.526082 292.238214 
L 125.311595 238.453782 
L 127.865943 239.917845 
L 130.10031 242.013129 
L 132.764204 243.324864 
L 137.064332 240.883302 
L 139.689258 241.976632 
L 124.361609 292.644872 
L 128.620313 294.11201 
L 133.147723 294.676486 
L 137.465961 295.866365 
L 146.218551 277.403943 
L 149.98724 278.191387 
L 159.853196 240.932558 
L 162.468404 241.309331 
L 163.638092 256.738058 
L 166.748388 256.988011 
L 169.442311 269.936645 
L 172.96473 269.997575 
L 176.654644 275.546789 
L 180.349892 275.378174 
L 183.37084 267.922411 
L 186.82304 267.546393 
L 188.772943 257.575441 
L 191.897141 257.034686 
L 191.879661 242.334599 
L 194.523118 241.703697 
L 206.702795 274.04568 
L 210.335988 272.933027 
L 202.316273 239.31707 
L 204.859691 238.359509 
L 214.027745 252.752796 
L 216.987821 251.420358 
L 243.830131 297.080169 
L 248.169222 294.788763 
L 232.102521 257.901633 
L 235.215552 255.998339 
L 249.495874 270.555297 
L 252.998164 268.098861 
L 228.49799 229.466897 
L 230.718752 227.690997 
L 242.398955 236.658852 
L 244.838975 234.442319 
L 243.815704 228.752433 
L 246.006429 226.495263 
L 293.115629 263.892686 
L 296.386864 260.068044 
L 281.208903 241.906913 
L 283.794745 238.467515 
L 271.716393 225.044381 
L 273.776733 221.911786 
L 295.017471 230.131983 
L 297.226256 226.264235 
L 283.630011 214.329086 
L 285.347548 210.827198 
L 252.443016 192.321993 
L 253.484022 189.811574 
L 270.254827 192.967522 
L 271.307323 189.896741 
L 272.262747 186.794386 
L 273.120153 183.663524 
L 280.126001 181.905134 
L 280.825791 178.529451 
L 289.322615 176.386503 
L 289.84434 172.724388 
L 274.317359 167.540022 
L 274.56835 164.354078 
L 317.909758 162.520501 
L 319.581818 157.966398 
z
" clip-path="url(#p95282cbc7f)" style="fill: #0000ff; opacity: 0.5; stroke: #000000; stroke-width: 1.5; stroke-linejoin: miter"/>
   </g>
  </g>
 </g>
 <defs>
  <clipPath id="p95282cbc7f">
   <rect x="0" y="0" width="334.8" height="313.043608"/>
  </clipPath>
 </defs>
</svg>
