<?xml version="1.0" encoding="utf-8" standalone="no"?>
<!DOCTYPE svg PUBLIC "-//W3C//DTD SVG 1.1//EN"
  "http://www.w3.org/Graphics/SVG/1.1/DTD/svg11.dtd">
<svg xmlns:xlink="http://www.w3.org/1999/xlink" width="328.343482pt" height="332.64pt" viewBox="0 0 328.343482 332.64" xmlns="http://www.w3.org/2000/svg" version="1.1">
 <metadata>
  <rdf:RDF xmlns:dc="http://purl.org/dc/elements/1.1/" xmlns:cc="http://creativecommons.org/ns#" xmlns:rdf="http://www.w3.org/1999/02/22-rdf-syntax-ns#">
   <cc:Work>
    <dc:type rdf:resource="http://purl.org/dc/dcmitype/StillImage"/>
    <dc:date>2023-12-09T18:06:24.630544</dc:date>
    <dc:format>image/svg+xml</dc:format>
    <dc:creator>
     <cc:Agent>
      <dc:title>Matplotlib v3.8.2, https://matplotlib.org/</dc:title>
     </cc:Agent>
    </dc:creator>
   </cc:Work>
  </rdf:RDF>
 </metadata>
 <defs>
  <style type="text/css">*{stroke-linejoin: round; stroke-linecap: butt}</style>
 </defs>
 <g id="figure_1">
  <g id="patch_1">
   <path d="M 0 332.64 
L 328.343482 332.64 
L 328.343482 0 
L 0 0 
L 0 332.64 
z
" style="fill: none"/>
  </g>
  <g id="axes_1">
   <g id="patch_2">
    <path d="M 313.418778 174.315886 
L 313.342199 169.445966 
L 254.842057 168.25061 
L 254.603734 165.225469 
L 303.345428 156.00343 
L 302.698046 151.459292 
L 258.099321 155.303296 
L 257.452296 152.182142 
L 274.771388 144.44 
L 273.774554 140.80001 
L 248.758184 144.968868 
L 247.79084 142.146529 
L 242.212089 141.148816 
L 241.127871 138.534189 
L 276.641292 118.675242 
L 274.833433 114.989197 
L 258.702289 119.182199 
L 256.919239 116.059945 
L 255.0389 112.995298 
L 253.063131 109.991288 
L 251.649632 106.573829 
L 249.473634 103.67956 
L 246.583247 101.37247 
L 244.246212 98.640071 
L 222.330894 114.315849 
L 220.412819 112.339597 
L 249.492632 77.295833 
L 246.397137 74.48386 
L 259.221504 52.387049 
L 255.338011 49.281495 
L 221.845238 87.002202 
L 219.068602 85.054725 
L 235.754054 52.365314 
L 231.881481 49.997639 
L 233.005098 38.509532 
L 228.698228 36.235141 
L 195.389001 95.764108 
L 192.900939 94.644142 
L 189.486042 95.865938 
L 187.004101 94.931523 
L 202.466385 38.524645 
L 198.175089 37.21045 
L 179.198682 93.388287 
L 176.643924 92.778554 
L 188.401828 16.557105 
L 183.426778 15.695992 
L 170.690865 76.951125 
L 167.623493 76.617024 
L 167.379811 30.244225 
L 162.845508 30.037323 
L 158.312043 33.21675 
L 153.875687 33.293489 
L 150.332037 47.266607 
L 146.341384 47.587309 
L 144.0108 60.902887 
L 140.452028 61.415599 
L 130.470311 28.59606 
L 125.902436 29.550488 
L 126.647396 51.05989 
L 122.787723 52.123413 
L 118.711357 52.537014 
L 114.902052 53.849333 
L 106.636081 43.979975 
L 102.563694 45.676198 
L 104.441354 59.96134 
L 100.872542 61.718668 
L 114.222579 94.108669 
L 111.722597 95.541571 
L 98.369569 79.958671 
L 95.432519 81.897022 
L 88.255081 78.03182 
L 85.262447 80.289145 
L 91.671856 93.865136 
L 89.175366 96.007202 
L 86.747462 98.226705 
L 84.390545 100.521448 
L 54.261464 76.865474 
L 51.248965 80.192211 
L 85.2817 114.018431 
L 83.422034 116.351453 
L 38.915942 87.867298 
L 36.256951 91.671092 
L 60.464953 112.433597 
L 58.567726 115.547696 
L 26.880462 102.39102 
L 24.68408 106.566054 
L 42.456131 120.076789 
L 40.808127 123.753346 
L 63.429927 136.965671 
L 62.302577 139.974415 
L 17.270222 128.858152 
L 15.910776 133.322267 
L 20.194499 139.222672 
L 19.15949 143.589717 
L 58.909187 155.616497 
L 58.370495 158.758162 
L 58.735674 162.014416 
L 58.398231 165.158373 
L 51.684061 167.923999 
L 51.535916 171.286752 
L 58.79178 174.62955 
L 58.850958 177.765506 
L 72.764222 179.98832 
L 72.984983 182.682303 
L 17.801604 192.562319 
L 18.444894 196.97823 
L 55.844602 194.259908 
L 56.522458 197.478824 
L 67.502935 198.018507 
L 68.293206 200.869001 
L 47.602768 210.784322 
L 48.804263 214.254209 
L 56.890493 214.974058 
L 58.21913 218.149847 
L 33.277114 233.806665 
L 35.209565 237.715599 
L 82.651544 216.393763 
L 84.012083 218.758867 
L 71.10202 230.25803 
L 72.904193 232.97942 
L 35.536574 264.389793 
L 38.429508 268.212563 
L 90.02222 231.437831 
L 91.852133 233.563746 
L 64.29984 263.501613 
L 67.150627 266.420442 
L 62.353093 277.55477 
L 65.646704 280.527862 
L 68.517789 284.022821 
L 72.011722 286.798883 
L 86.492252 274.33 
L 89.672534 276.545698 
L 91.625917 280.719734 
L 95.004569 282.770859 
L 85.653142 308.219009 
L 89.899384 310.444334 
L 99.345443 301.506923 
L 103.373872 303.305052 
L 115.723653 283.828386 
L 119.188133 285.120288 
L 128.129674 269.31153 
L 131.131578 270.220537 
L 134.160579 271.034708 
L 137.213681 271.753239 
L 141.919626 263.605866 
L 144.735313 264.084108 
L 148.446103 257.228767 
L 151.058054 257.504955 
L 151.649923 292.509257 
L 155.369585 292.667267 
L 158.935545 259.461075 
L 161.612497 259.406348 
L 168.230979 317.52 
L 172.728836 317.144299 
L 170.775345 267.582163 
L 173.701789 267.151152 
L 185.341186 311.192973 
L 189.631648 310.282417 
L 184.640861 273.938174 
L 187.760296 273.068058 
L 189.324046 267.480555 
L 192.238124 266.466382 
L 206.003658 292.448914 
L 209.694548 290.897953 
L 200.070926 261.417688 
L 202.78906 260.068607 
L 198.759214 246.589181 
L 201.011756 245.288675 
L 225.566489 278.719037 
L 228.81601 276.559766 
L 240.638636 286.062156 
L 244.111589 283.425352 
L 252.182339 286.278802 
L 255.656396 283.278932 
L 232.234277 251.9432 
L 234.63861 249.587517 
L 243.503836 253.227528 
L 245.942979 250.516872 
L 270.89306 266.212955 
L 273.726951 262.6347 
L 266.565954 251.875265 
L 268.951176 248.440154 
L 230.685107 219.527258 
L 232.070978 217.236313 
L 244.789881 221.087616 
L 246.217839 218.352414 
L 298.32552 239.10083 
L 300.293383 234.673444 
L 261.312084 214.307392 
L 262.518688 211.056048 
L 259.758916 206.538503 
L 260.722017 203.339835 
L 260.010784 199.718625 
L 260.759329 196.51541 
L 274.963679 195.790739 
L 275.58133 192.119314 
L 279.303766 188.81698 
L 279.700001 185.012541 
L 273.499485 180.830504 
L 273.647476 177.212513 
L 313.415715 173.341748 
L 313.308508 168.472406 
L 254.802005 167.645006 
L 254.54466 164.621424 
L 303.227389 155.093009 
L 302.551439 150.553033 
L 257.977774 154.677462 
L 257.311131 151.560439 
L 274.581187 143.709523 
L 273.561479 140.075875 
L 248.571824 144.401989 
L 247.586748 141.58579 
L 242.001832 140.623183 
L 240.90119 138.015427 
L 276.289008 117.933514 
L 274.458002 114.258912 
L 258.353548 118.553287 
L 256.550896 115.442309 
L 254.651319 112.389549 
L 252.656696 109.398025 
L 251.221731 105.989524 
L 249.027573 103.108998 
L 246.122732 100.820132 
L 243.768558 98.102485 
L 221.952266 113.915789 
L 220.021799 111.95164 
L 248.880632 76.725673 
L 245.767512 73.933225 
L 258.452649 51.756192 
L 254.549701 48.675125 
L 221.294833 86.605736 
L 218.506003 84.675762 
L 234.985526 51.882055 
L 231.098139 49.538783 
L 232.14948 38.043837 
L 227.82839 35.796578 
L 194.894226 95.533864 
L 192.399169 94.429568 
L 188.992025 95.672818 
L 186.504255 94.754031 
L 201.611466 38.25102 
L 197.31199 36.963841 
L 178.689285 93.259918 
L 176.130742 92.666265 
L 187.409024 16.372373 
L 182.428657 15.542567 
L 170.078255 76.876591 
L 167.008843 76.561788 
L 166.473507 30.191438 
L 161.937993 30.013059 
L 157.424614 33.220936 
L 152.988828 33.325576 
L 149.533131 47.320705 
L 145.544574 47.666499 
L 143.297784 60.996472 
L 139.742306 61.531557 
L 129.554371 28.775446 
L 124.992589 29.758585 
L 125.872817 51.262876 
L 122.019909 52.350653 
L 117.946224 52.789884 
L 114.145248 54.126136 
L 105.817368 44.30896 
L 101.75573 46.030763 
L 103.723199 60.303813 
L 100.16551 62.083553 
L 113.718998 94.388949 
L 111.228077 95.837546 
L 97.777306 80.338937 
L 94.852504 82.295722 
L 87.650899 78.475738 
L 84.672521 80.751841 
L 91.167188 94.287252 
L 88.684221 96.444977 
L 86.270324 98.679706 
L 83.927886 100.989228 
L 53.650618 77.523216 
L 50.659102 80.868834 
L 84.903912 114.480338 
L 83.058956 116.825011 
L 38.374595 88.621337 
L 35.739581 92.441779 
L 60.077688 113.051619 
L 58.200084 116.177589 
L 26.430699 103.220468 
L 24.260619 107.409233 
L 42.117293 120.807926 
L 40.492445 124.494775 
L 63.196897 137.56456 
L 62.088492 140.580335 
L 16.987113 129.74752 
L 15.65577 134.220097 
L 19.976519 140.093443 
L 18.968997 144.466911 
L 58.793549 156.24345 
L 58.274626 159.38844 
L 58.660278 162.642334 
L 58.342616 165.788351 
L 51.645973 168.59615 
L 51.51898 171.959769 
L 58.795725 175.256865 
L 58.874625 178.392387 
L 72.801595 180.527651 
L 73.039295 183.220191 
L 17.919147 193.447085 
L 18.590198 197.858862 
L 55.972069 194.905371 
L 56.670157 198.11996 
L 67.653812 198.590571 
L 68.461995 201.436038 
L 47.834328 211.481295 
L 49.057623 214.943556 
L 57.14822 215.612533 
L 58.496805 218.779903 
L 33.653754 234.593282 
L 35.610752 238.489985 
L 82.917691 216.870188 
L 84.293078 219.226687 
L 71.455594 230.80682 
L 73.274847 233.516822 
L 36.10552 265.161595 
L 39.022441 268.966094 
L 90.38284 231.867601 
L 92.226087 233.981965 
L 64.862632 264.092528 
L 67.73172 266.993369 
L 63.004309 278.157651 
L 66.316554 281.109969 
L 69.209564 284.586802 
L 72.720888 287.340834 
L 87.122709 274.781123 
L 90.316864 276.976775 
L 92.296461 281.138443 
L 95.687946 283.168277 
L 86.496758 308.674739 
L 90.756912 310.873314 
L 100.146573 301.87667 
L 104.186232 303.649426 
L 116.413272 284.095473 
L 119.885808 285.36556 
L 128.727744 269.500877 
L 131.735306 270.390985 
L 134.769368 271.18609 
L 137.826929 271.885404 
L 142.481538 263.708594 
L 145.300177 264.169117 
L 148.967778 257.290573 
L 151.581414 257.550328 
L 152.393428 292.550216 
L 156.114011 292.684828 
L 159.471052 259.456865 
L 162.147607 259.385302 
L 169.13146 317.456178 
L 173.626865 317.052196 
L 171.361695 267.503327 
L 174.28537 267.053918 
L 186.201536 311.021663 
L 190.486185 310.084141 
L 185.266912 273.772006 
L 188.380813 272.882288 
L 189.90939 267.28506 
L 192.817032 266.252579 
L 206.745709 292.14802 
L 210.426772 290.573875 
L 200.617925 261.154721 
L 203.327521 259.788571 
L 199.212976 246.334757 
L 201.457295 245.020109 
L 226.2218 278.295375 
L 229.457676 276.115709 
L 241.339833 285.543553 
L 244.796133 282.884959 
L 252.88467 285.687591 
L 256.339791 282.665931 
L 232.721051 251.478131 
L 235.110521 249.107373 
L 243.998464 252.691555 
L 246.420511 249.965611 
L 271.468818 265.504462 
L 274.280148 261.908454 
L 267.051621 251.194271 
L 269.415192 247.744225 
L 230.968034 219.072574 
L 232.339469 216.772957 
L 245.082342 220.54419 
L 246.493069 217.800061 
L 298.730215 238.220339 
L 300.670195 233.780663 
L 261.561575 213.660185 
L 262.747706 210.401316 
L 259.959576 205.901217 
L 260.90254 202.696555 
L 260.168546 199.079891 
L 260.896929 195.872031 
L 275.096441 195.058037 
L 275.690988 191.3828 
L 279.392581 188.057119 
L 279.76488 184.250263 
L 273.538184 180.107307 
L 273.663418 176.488457 
L 313.406525 172.367649 
L 313.268694 167.499077 
L 254.758145 167.039666 
L 254.481788 164.017763 
L 303.103626 154.183349 
L 302.399136 149.647715 
L 257.852292 154.052405 
L 257.166058 150.939636 
L 274.386395 142.980257 
L 273.343853 139.353094 
L 248.381901 143.836293 
L 247.379133 141.026345 
L 241.788273 140.098884 
L 240.671252 137.498102 
L 275.932066 117.194016 
L 274.077984 113.531003 
L 258.000858 117.926581 
L 256.178676 114.827002 
L 254.259937 111.78625 
L 252.246538 108.80733 
L 250.790164 105.407921 
L 248.577932 102.541252 
L 245.658753 100.270701 
L 243.287534 97.567915 
L 221.57113 113.518118 
L 219.628347 111.566149 
L 248.265058 76.159373 
L 245.134436 73.38656 
L 257.679842 51.130184 
L 253.757593 48.073725 
L 220.741944 86.212741 
L 217.941031 84.300344 
L 234.213975 51.403639 
L 230.311926 49.084863 
L 231.29095 37.583532 
L 226.955812 35.363495 
L 194.398012 95.306737 
L 191.89606 94.218155 
L 188.496802 95.482809 
L 186.003303 94.579687 
L 200.754843 37.982778 
L 196.447356 36.722666 
L 178.17909 93.134755 
L 175.616864 92.557206 
L 186.415077 16.193889 
L 181.42959 15.395423 
L 169.465189 76.80591 
L 166.393857 76.510418 
L 165.566889 30.144353 
L 161.030342 29.994503 
L 156.537228 33.230704 
L 152.102188 33.36324 
L 148.734581 47.379827 
L 144.748278 47.7507 
L 142.58537 61.09454 
L 139.033329 61.651976 
L 128.639577 28.960589 
L 124.084069 29.9724 
L 125.099529 51.47073 
L 121.253539 52.582718 
L 117.182697 53.047561 
L 113.390201 54.407692 
L 105.000741 44.643089 
L 100.950013 46.390403 
L 103.007212 60.650797 
L 99.460786 62.452877 
L 113.217189 94.67239 
L 110.735429 96.136625 
L 97.187446 80.72292 
L 94.275009 82.698062 
L 87.049521 78.923448 
L 84.085517 81.218238 
L 90.665186 94.712533 
L 88.195838 96.885832 
L 85.796045 99.135699 
L 83.468179 101.459907 
L 53.043922 78.184787 
L 50.073507 81.549153 
L 84.529036 114.944612 
L 82.698864 117.300842 
L 37.838002 89.378766 
L 35.227068 93.215705 
L 59.694318 113.672065 
L 57.836412 116.809782 
L 25.986162 104.052728 
L 23.84247 108.25506 
L 41.783061 121.541178 
L 40.181434 125.238174 
L 62.967637 138.164902 
L 61.878222 141.187589 
L 16.709603 130.63865 
L 15.406417 135.119512 
L 19.76402 140.965567 
L 18.784024 145.345285 
L 58.681856 156.871117 
L 58.182724 160.01931 
L 58.588834 163.270713 
L 58.290965 166.418666 
L 51.612113 169.268528 
L 51.506278 172.632879 
L 58.803616 175.884143 
L 58.902235 179.019107 
L 72.842359 181.066736 
L 73.096989 183.757728 
L 18.042253 194.331094 
L 18.741038 198.738563 
L 56.103594 195.55002 
L 56.821886 198.760154 
L 67.808283 199.161675 
L 68.634346 202.002003 
L 48.070267 212.176797 
L 49.315313 215.631296 
L 57.409958 216.249375 
L 58.778437 219.4082 
L 34.035335 235.377515 
L 36.016802 239.261833 
L 83.186829 217.34493 
L 84.57701 219.692732 
L 71.812612 231.353376 
L 73.648873 234.051883 
L 36.67931 265.929803 
L 39.6201 269.715882 
L 90.746155 232.295094 
L 92.602665 234.397823 
L 65.429129 264.679891 
L 68.316405 267.562631 
L 63.659304 278.756424 
L 66.990052 281.687851 
L 69.904872 285.14642 
L 73.433448 287.878313 
L 87.755991 275.228272 
L 90.963892 277.403791 
L 92.969624 281.552926 
L 96.373808 283.56139 
L 87.343224 309.125154 
L 91.617121 311.296892 
L 100.950013 302.24137 
L 105.000741 303.988684 
L 117.104556 284.358216 
L 120.585012 285.606438 
L 129.326994 269.686458 
L 132.340094 270.557633 
L 135.379096 271.333639 
L 138.440995 272.013709 
L 143.044085 263.807786 
L 145.865565 264.250573 
L 149.489831 257.349098 
L 152.105049 257.592409 
L 153.137177 292.586498 
L 156.858532 292.697706 
L 160.006522 259.449286 
L 162.682574 259.360892 
L 170.031522 317.386695 
L 174.524297 316.954446 
L 171.947538 267.420804 
L 174.868328 266.953016 
L 187.06079 310.844945 
L 191.339458 309.880494 
L 185.891906 273.601903 
L 189.000149 272.692618 
L 190.493493 267.085887 
L 193.394583 266.035139 
L 207.485852 291.842464 
L 211.156942 290.245199 
L 201.16326 260.888318 
L 203.86421 259.505154 
L 199.66513 246.077484 
L 201.901135 244.748747 
L 226.874433 277.8676 
L 230.096537 275.667625 
L 242.037754 285.020551 
L 245.477265 282.340271 
L 253.583269 285.091976 
L 257.019317 282.048645 
L 233.204891 251.010009 
L 235.579402 248.62427 
L 244.489713 252.152481 
L 246.894567 249.411358 
L 272.040109 264.792362 
L 274.828767 261.178744 
L 267.532996 250.510236 
L 269.874822 247.045393 
L 231.248095 218.616119 
L 232.60504 216.307922 
L 245.37138 219.998935 
L 246.764821 217.245988 
L 299.129365 237.337319 
L 301.041383 232.88553 
L 261.806991 213.011421 
L 262.972602 209.745157 
L 260.156224 205.262682 
L 261.079014 202.052153 
L 260.322287 198.440177 
L 261.030481 195.227799 
L 275.224592 194.324514 
L 275.796012 190.645611 
L 279.476616 187.296715 
L 279.824964 183.487593 
L 273.572334 179.38388 
L 273.674805 175.764314 
L 313.391208 171.393626 
L 313.22276 166.526018 
L 254.710478 166.434614 
L 254.415121 163.414508 
L 302.974145 153.274486 
L 302.241142 148.743372 
L 257.722882 153.428149 
L 257.017084 150.319758 
L 274.18702 142.25223 
L 273.121686 138.631696 
L 248.188425 143.271803 
L 247.168003 140.468218 
L 241.571421 139.575938 
L 240.438064 136.982233 
L 275.57048 116.456778 
L 273.693397 112.805499 
L 257.644234 117.302105 
L 255.802593 114.214049 
L 253.864767 111.185424 
L 251.832673 108.219226 
L 250.354947 104.829045 
L 248.124729 101.976346 
L 245.191328 99.7242 
L 242.803156 97.036381 
L 221.187499 113.122852 
L 219.232479 111.183141 
L 247.645934 75.596956 
L 244.497935 72.843888 
L 256.903112 50.509049 
L 252.961718 47.477319 
L 220.186595 85.82323 
L 217.373709 83.928487 
L 233.43943 50.930085 
L 229.522874 48.635897 
L 230.429542 37.128636 
L 226.080527 34.935908 
L 193.90038 95.082735 
L 191.39163 94.00991 
L 188.000394 95.295919 
L 185.501264 94.408497 
L 199.89655 37.719928 
L 195.581223 36.486933 
L 177.668118 93.012804 
L 175.102311 92.451381 
L 185.420028 16.021659 
L 180.429618 15.254566 
L 168.85169 76.739087 
L 165.778561 76.462918 
L 164.659992 30.102971 
L 160.122593 29.981657 
L 155.649922 33.246052 
L 151.215803 33.40648 
L 147.936419 47.44397 
L 143.952528 47.839907 
L 141.873588 61.197086 
L 138.325122 61.776852 
L 127.725966 29.151483 
L 123.176911 30.191925 
L 124.327564 51.683443 
L 120.488644 52.819598 
L 116.420806 53.310035 
L 112.636939 54.693992 
L 104.186232 44.982347 
L 100.146573 46.755103 
L 102.293421 61.002276 
L 98.7584 62.826626 
L 112.717173 94.958982 
L 110.244671 96.438796 
L 96.600012 81.110606 
L 93.700056 83.104026 
L 86.45097 79.374931 
L 83.501458 81.688317 
L 90.165868 95.140963 
L 87.710238 97.32975 
L 85.324643 99.594666 
L 83.011441 101.933469 
L 52.441398 78.850161 
L 49.492202 82.233142 
L 84.157089 115.411235 
L 82.341771 117.77893 
L 37.306183 90.139555 
L 34.719433 93.992839 
L 59.314857 114.294909 
L 57.476723 117.444249 
L 25.546868 104.887768 
L 23.429649 109.103499 
L 41.453447 122.276519 
L 39.875103 125.983515 
L 62.742158 138.766675 
L 61.671775 141.796154 
L 16.437703 131.531509 
L 15.162724 136.020478 
L 19.55701 141.83901 
L 18.60458 146.224806 
L 58.574114 157.499475 
L 58.094792 160.650744 
L 58.521342 163.899529 
L 58.243278 167.049294 
L 51.582483 169.941105 
L 51.49781 173.306055 
L 58.815452 176.511359 
L 58.933786 179.64564 
L 72.886513 181.605553 
L 73.158062 184.294891 
L 18.170916 195.214311 
L 18.897407 199.617298 
L 56.239171 196.193829 
L 56.977638 199.399382 
L 67.966343 199.731797 
L 68.810255 202.566873 
L 48.310576 212.870802 
L 49.577324 216.317402 
L 57.675696 216.884558 
L 59.064015 220.034714 
L 34.421841 236.159333 
L 36.427698 240.031111 
L 83.458948 217.817969 
L 84.863868 220.156981 
L 72.173061 231.897676 
L 74.026258 234.58458 
L 37.25792 266.694387 
L 40.222464 270.461895 
L 91.112152 232.720294 
L 92.98185 234.811305 
L 65.999309 265.26368 
L 68.904658 268.128203 
L 64.318053 279.351066 
L 67.667172 282.261487 
L 70.603687 285.701654 
L 74.149374 288.411301 
L 88.392073 275.671429 
L 91.613593 277.826729 
L 93.645381 281.963167 
L 97.06213 283.950181 
L 88.192506 309.570237 
L 92.479978 311.715051 
L 101.75573 302.60101 
L 105.817368 304.322812 
L 117.797479 284.616607 
L 121.285717 285.842914 
L 129.927398 269.868266 
L 132.945918 270.720474 
L 135.989741 271.477351 
L 139.055857 272.13815 
L 143.607245 263.903438 
L 146.431454 264.328471 
L 150.012242 257.404338 
L 152.628938 257.631196 
L 153.881139 292.618101 
L 157.60312 292.705902 
L 160.541933 259.438341 
L 163.217377 259.333117 
L 170.931129 317.311551 
L 175.421096 316.851054 
L 172.53285 267.334598 
L 175.45064 266.84845 
L 187.918916 310.662827 
L 192.191434 309.671484 
L 186.515818 273.427873 
L 189.618281 272.499057 
L 191.076332 266.883044 
L 193.970756 265.814071 
L 208.22406 291.53226 
L 211.885031 289.911937 
L 201.706908 260.618492 
L 204.399105 259.218367 
L 200.115656 245.817372 
L 202.34326 244.474599 
L 227.524363 277.435729 
L 230.732566 275.215532 
L 242.732372 284.493169 
L 246.154957 281.79131 
L 254.278108 284.491978 
L 257.694947 281.427096 
L 233.685776 250.538854 
L 236.045236 248.138228 
L 244.977561 251.610328 
L 247.365127 248.854134 
L 272.606909 264.076682 
L 275.372785 260.445597 
L 268.01006 249.823186 
L 270.330047 246.343683 
L 231.525281 218.157912 
L 232.867681 215.841226 
L 245.656983 219.451873 
L 247.033082 216.690216 
L 299.522954 236.451807 
L 301.406934 231.988081 
L 262.048321 212.361126 
L 263.193366 209.087596 
L 260.348852 204.622924 
L 261.251431 201.406654 
L 260.472002 197.799508 
L 261.159978 194.58274 
L 275.348127 193.5902 
L 275.896397 189.907775 
L 279.555866 186.535797 
L 279.88025 182.724559 
L 273.601934 178.660254 
L 273.681637 175.040115 
L 313.369766 170.419719 
L 313.170707 165.553267 
L 254.659007 165.829874 
L 254.344661 162.811685 
L 302.838949 152.366455 
L 302.077463 147.84004 
L 257.589548 152.80472 
L 256.864214 149.700829 
L 273.98307 141.525471 
L 272.894987 137.911709 
L 247.991402 142.708541 
L 246.953367 139.911429 
L 241.351284 139.054366 
L 240.201637 136.46784 
L 275.204264 115.721829 
L 273.304253 112.082427 
L 257.28369 116.679885 
L 255.422663 113.603473 
L 253.465827 110.587096 
L 251.415117 107.633737 
L 249.916098 104.252917 
L 247.667983 101.414301 
L 244.720474 99.180649 
L 242.315445 96.507903 
L 220.801391 112.730006 
L 218.834209 110.80263 
L 247.023286 75.038445 
L 243.858034 72.30523 
L 256.122492 49.892811 
L 252.162107 46.88593 
L 219.628807 85.43722 
L 216.80406 83.560206 
L 232.661921 50.461412 
L 228.731014 48.191902 
L 229.56529 36.679166 
L 225.20257 34.513835 
L 193.401349 94.861867 
L 190.885901 93.804842 
L 187.50282 95.112154 
L 184.998158 94.240468 
L 199.036621 37.462482 
L 194.713624 36.256652 
L 177.15639 92.894068 
L 174.587102 92.348794 
L 184.423915 15.855692 
L 179.428779 15.12 
L 168.237784 76.676124 
L 165.162978 76.419289 
L 163.752854 30.067294 
L 159.214781 29.974519 
L 154.76273 33.266981 
L 150.329708 33.455293 
L 147.138676 47.513131 
L 143.157354 47.934117 
L 141.162464 61.304108 
L 137.617715 61.90618 
L 126.813574 29.348118 
L 122.271153 30.417151 
L 123.556952 51.901007 
L 119.725253 53.061284 
L 115.660581 53.577296 
L 111.885493 54.985024 
L 103.373872 45.326721 
L 99.345443 47.124849 
L 101.581855 61.358238 
L 98.058378 63.204785 
L 112.218969 95.248713 
L 109.755823 96.744049 
L 96.015029 81.501978 
L 93.127667 83.513598 
L 85.855271 79.830169 
L 82.920367 82.162061 
L 89.669255 95.572525 
L 87.22744 97.776714 
L 84.856137 100.056588 
L 82.55769 102.409894 
L 51.843071 79.519311 
L 48.91521 82.920774 
L 83.788083 115.880189 
L 81.987693 118.259253 
L 36.779159 90.903674 
L 34.216695 94.773151 
L 58.939322 114.920128 
L 57.121031 118.080966 
L 25.112835 105.725554 
L 23.022172 109.954518 
L 41.128465 123.013918 
L 39.573467 126.730767 
L 62.520468 139.369854 
L 61.46916 142.406005 
L 16.171424 132.426059 
L 14.924704 136.922959 
L 19.355497 142.713739 
L 18.43067 147.105438 
L 58.470325 158.128498 
L 58.010832 161.28272 
L 58.457808 164.528758 
L 58.199559 167.680209 
L 51.557083 170.613856 
L 51.493576 173.979271 
L 58.831233 177.138488 
L 58.969278 180.271963 
L 72.934055 182.144083 
L 73.222513 184.831659 
L 18.305131 196.096701 
L 19.059301 200.495032 
L 56.378794 196.836772 
L 57.137408 200.037617 
L 68.127986 200.300913 
L 68.989712 203.130625 
L 48.555244 213.563282 
L 49.843645 217.001847 
L 57.945423 217.518057 
L 59.353528 220.659418 
L 34.813256 236.938704 
L 36.843425 240.79779 
L 83.734036 218.289287 
L 85.153639 220.619417 
L 72.536926 232.439698 
L 74.406985 235.114893 
L 37.841327 267.455317 
L 40.829508 271.204106 
L 91.480817 233.143184 
L 93.363629 235.222394 
L 66.573149 265.843871 
L 69.496457 268.690065 
L 64.980528 279.941553 
L 68.347886 282.830852 
L 71.305979 286.252483 
L 74.868639 288.939775 
L 89.030929 276.110577 
L 92.265941 278.245573 
L 94.323705 282.36915 
L 97.752884 284.334635 
L 89.04457 310.009969 
L 93.345447 312.127775 
L 102.563694 302.955575 
L 106.636081 304.651798 
L 118.492014 284.870634 
L 121.987895 286.074978 
L 130.528934 270.046295 
L 133.552754 270.879501 
L 136.601277 271.617219 
L 139.671489 272.258721 
L 144.170995 263.995547 
L 146.997821 264.402808 
L 150.534989 257.456291 
L 153.153061 257.666687 
L 154.625285 292.645024 
L 158.347744 292.709414 
L 161.077266 259.424028 
L 163.751995 259.301979 
L 171.830245 317.230752 
L 176.317228 316.742024 
L 173.117608 267.244713 
L 176.032283 266.740223 
L 188.77588 310.475315 
L 193.042078 309.45712 
L 187.138623 273.249923 
L 190.235182 272.301612 
L 191.657883 266.67654 
L 194.545527 265.589384 
L 208.960301 291.217418 
L 212.61101 289.574102 
L 202.248849 260.345251 
L 204.932186 258.928222 
L 200.564537 245.554433 
L 202.783652 244.197675 
L 228.171564 276.999779 
L 231.36574 274.759448 
L 243.423659 283.96143 
L 246.829184 281.238098 
L 254.969159 283.887622 
L 258.366655 280.801311 
L 234.163689 250.064684 
L 236.508004 247.649266 
L 245.461989 251.065118 
L 247.832173 248.293961 
L 273.169198 263.357452 
L 275.912181 259.709043 
L 268.482793 249.13315 
L 270.78085 245.639124 
L 231.799578 217.69797 
L 233.127382 215.372888 
L 245.93914 218.903025 
L 247.297842 216.132768 
L 299.910965 235.563837 
L 301.766834 231.088349 
L 262.285557 211.709327 
L 263.409991 208.428659 
L 260.537452 203.981966 
L 261.419785 200.760083 
L 260.617685 197.157911 
L 261.285415 193.936879 
L 275.467041 192.855124 
L 275.99214 189.169323 
L 279.630328 185.774395 
L 279.930735 181.961193 
L 273.626982 177.936455 
L 313.418778 174.315886 
z
" clip-path="url(#pcc9a7f6763)" style="fill: #0000ff; opacity: 0.5; stroke: #000000; stroke-width: 1.5; stroke-linejoin: miter"/>
   </g>
  </g>
 </g>
 <defs>
  <clipPath id="pcc9a7f6763">
   <rect x="0" y="-0" width="328.343482" height="332.64"/>
  </clipPath>
 </defs>
</svg>
