<?xml version="1.0" encoding="utf-8" standalone="no"?>
<!DOCTYPE svg PUBLIC "-//W3C//DTD SVG 1.1//EN"
  "http://www.w3.org/Graphics/SVG/1.1/DTD/svg11.dtd">
<svg xmlns:xlink="http://www.w3.org/1999/xlink" width="334.8pt" height="319.185663pt" viewBox="0 0 334.8 319.185663" xmlns="http://www.w3.org/2000/svg" version="1.1">
 <metadata>
  <rdf:RDF xmlns:dc="http://purl.org/dc/elements/1.1/" xmlns:cc="http://creativecommons.org/ns#" xmlns:rdf="http://www.w3.org/1999/02/22-rdf-syntax-ns#">
   <cc:Work>
    <dc:type rdf:resource="http://purl.org/dc/dcmitype/StillImage"/>
    <dc:date>2023-12-09T18:06:24.753750</dc:date>
    <dc:format>image/svg+xml</dc:format>
    <dc:creator>
     <cc:Agent>
      <dc:title>Matplotlib v3.8.2, https://matplotlib.org/</dc:title>
     </cc:Agent>
    </dc:creator>
   </cc:Work>
  </rdf:RDF>
 </metadata>
 <defs>
  <style type="text/css">*{stroke-linejoin: round; stroke-linecap: butt}</style>
 </defs>
 <g id="figure_1">
  <g id="patch_1">
   <path d="M 0 319.185663 
L 334.8 319.185663 
L 334.8 0 
L 0 0 
L 0 319.185663 
z
" style="fill: none"/>
  </g>
  <g id="axes_1">
   <g id="patch_2">
    <path d="M 280.668899 155.006927 
L 280.613581 151.489073 
L 286.920841 147.567033 
L 286.628505 143.856283 
L 278.98056 141.071994 
L 278.487931 137.614115 
L 285.054052 132.804812 
L 284.298482 129.160057 
L 253.590097 133.210111 
L 252.862828 130.554451 
L 300.624681 112.123998 
L 299.211163 107.999893 
L 315.003812 97.051237 
L 313.109263 92.482473 
L 312.538869 87.284492 
L 310.338452 82.798061 
L 250.466414 110.04903 
L 249.012454 107.503038 
L 278.272261 85.437665 
L 276.030718 82.029564 
L 244.836328 99.679784 
L 243.05912 97.315941 
L 236.838126 98.629701 
L 235.031855 96.517857 
L 283.950884 46.69592 
L 280.488407 43.128426 
L 228.118439 91.720343 
L 226.099235 89.886081 
L 254.997751 50.607405 
L 251.672576 47.948327 
L 246.837657 47.364189 
L 243.414543 44.963285 
L 235.580317 49.520938 
L 232.230581 47.472924 
L 241.682199 22.07217 
L 237.466397 19.845871 
L 222.85161 39.772536 
L 219.201657 38.12956 
L 214.311629 39.618841 
L 210.661065 38.244457 
L 202.726492 50.099022 
L 199.411176 49.083718 
L 191.652652 65.45509 
L 188.82564 64.780379 
L 194.726193 17.992274 
L 190.405326 17.244391 
L 181.341931 54.444288 
L 178.173814 54.099213 
L 176.636045 27.149528 
L 172.612047 26.965912 
L 168.642905 64.203269 
L 165.78791 64.252654 
L 161.421198 40.928932 
L 157.837977 41.216891 
L 152.205993 25.533747 
L 148.14327 26.119064 
L 152.226986 69.026118 
L 149.531748 69.589271 
L 132.438518 14.508439 
L 128.038909 15.72074 
L 126.703464 26.317891 
L 122.678006 27.704676 
L 124.996574 45.035196 
L 121.560473 46.466394 
L 111.930912 34.812896 
L 108.179859 36.659962 
L 111.545718 51.397786 
L 108.316321 53.248763 
L 92.506103 35.375773 
L 88.782352 37.833319 
L 119.074889 86.901669 
L 116.958089 88.498358 
L 91.573391 62.102401 
L 88.690445 64.576059 
L 78.097535 58.883107 
L 75.120031 61.782067 
L 55.057445 48.719362 
L 51.771762 52.347779 
L 44.220084 52.470916 
L 41.057716 56.438228 
L 83.361944 93.2707 
L 81.463058 95.987134 
L 43.310801 75.831276 
L 40.883383 79.815628 
L 32.890498 80.764712 
L 30.62335 85.074262 
L 61.546116 104.897615 
L 60.023592 108.294238 
L 31.44167 101.067768 
L 29.813612 105.412834 
L 22.920565 108.06848 
L 21.516837 112.678007 
L 54.836438 126.10088 
L 53.983908 129.697986 
L 64.400563 135.414018 
L 63.83613 138.705802 
L 31.189154 138.046309 
L 30.723907 142.381032 
L 76.525349 149.487801 
L 76.397432 152.391397 
L 35.823676 155.425059 
L 35.902563 159.605469 
L 66.854118 161.748238 
L 67.116478 164.949856 
L 15.218182 174.917488 
L 15.920142 179.736143 
L 80.443386 172.164515 
L 81.026537 174.933707 
L 61.297195 182.994752 
L 62.230339 186.360588 
L 18.597491 204.381058 
L 20.224179 209.078892 
L 21.245014 214.024366 
L 23.1736 218.634188 
L 92.621862 191.180973 
L 93.796911 193.557845 
L 82.992529 202.580484 
L 84.530765 205.254487 
L 78.640192 212.685337 
L 80.498298 215.491191 
L 88.984766 213.44706 
L 90.861708 215.927281 
L 69.77563 237.557034 
L 72.42014 240.629312 
L 98.713586 221.325099 
L 100.833421 223.49553 
L 58.808529 273.054576 
L 62.574581 276.454133 
L 110.673007 225.831618 
L 112.928623 227.62379 
L 74.013632 286.577242 
L 78.197349 289.492031 
L 104.480979 257.270772 
L 107.728172 259.242091 
L 129.252167 227.641475 
L 131.555503 228.848583 
L 126.028294 246.888968 
L 128.938407 248.187925 
L 111.520361 301.496811 
L 116.154637 303.22493 
L 122.570923 299.401344 
L 127.133849 300.783044 
L 131.539848 302.806763 
L 136.205414 303.904777 
L 142.237997 297.681948 
L 146.737138 298.446123 
L 157.427014 248.365237 
L 160.36802 248.67622 
L 163.411631 247.275824 
L 166.315424 247.399176 
L 169.382284 281.4822 
L 173.358649 281.400908 
L 178.645077 300.608125 
L 183.218223 300.226134 
L 180.602563 245.03851 
L 183.427511 244.622448 
L 193.87336 283.103761 
L 197.888601 282.251615 
L 189.749141 235.001989 
L 192.253996 234.3033 
L 205.166511 265.087866 
L 208.60971 263.889546 
L 221.082306 285.15208 
L 225.148498 283.443413 
L 216.944709 255.994858 
L 220.09618 254.430702 
L 213.339805 235.057849 
L 215.834753 233.61739 
L 217.407114 230.734732 
L 219.764122 229.168526 
L 222.07072 227.528984 
L 224.324627 225.817729 
L 235.886521 235.230429 
L 238.375748 233.080967 
L 251.402353 242.02562 
L 254.097564 239.384946 
L 247.797325 228.385101 
L 250.06543 225.864521 
L 240.956811 214.034738 
L 242.777091 211.736335 
L 266.257868 224.985069 
L 268.409941 221.88573 
L 289.012831 230.343637 
L 291.322139 226.526183 
L 245.758574 196.744965 
L 247.032852 194.304132 
L 304.134843 217.733061 
L 306.040169 213.446373 
L 257.186869 189.404272 
L 258.224689 186.607738 
L 299.346682 196.567968 
L 300.588899 192.442296 
L 290.690064 185.523288 
L 291.589292 181.675259 
L 297.150881 178.683205 
L 297.831848 174.635415 
L 287.115683 169.215061 
L 287.503912 165.487481 
L 319.343273 163.538394 
L 319.537081 158.800316 
L 280.666686 154.303245 
L 280.589244 150.785809 
L 286.871711 146.824177 
L 286.556043 143.115339 
L 278.890737 140.379206 
L 278.376371 136.924494 
L 284.912113 132.073989 
L 284.133635 128.434058 
L 253.45133 132.67717 
L 252.707373 130.026137 
L 300.352364 111.295653 
L 298.912935 107.180521 
L 314.636411 96.132754 
L 312.713165 91.575996 
L 312.11009 86.381706 
L 309.881499 81.909203 
L 250.182039 109.536194 
L 248.712094 106.999396 
L 277.832545 84.750432 
L 275.569611 81.356496 
L 244.486848 99.202563 
L 242.694808 96.849944 
L 236.482199 98.202805 
L 234.662682 96.102363 
L 283.267391 45.973738 
L 279.782546 42.428092 
L 227.719229 91.348425 
L 225.688528 89.5269 
L 254.339432 50.067245 
L 250.997599 47.429133 
L 246.159102 46.875415 
L 242.720955 44.496088 
L 234.915549 49.102924 
L 231.552999 47.076018 
L 240.844673 21.616322 
L 236.614952 19.416581 
L 222.125782 39.434772 
L 218.465567 37.814784 
L 213.585003 39.334791 
L 209.925867 37.983394 
L 202.066009 49.887628 
L 198.744373 48.893196 
L 191.08897 65.313041 
L 188.25777 64.656124 
L 193.863935 17.831833 
L 189.538451 17.111141 
L 180.709201 54.367305 
L 177.538976 54.042163 
L 175.831739 27.102682 
L 171.806666 26.944378 
L 168.071805 64.205963 
L 165.217176 64.273303 
L 160.703858 40.977507 
L 157.122519 41.287996 
L 151.392008 25.640584 
L 147.333047 26.251442 
L 151.686543 69.131963 
L 148.9949 69.712057 
L 131.555581 14.739821 
L 127.163684 15.979769 
L 125.894916 26.58511 
L 121.878259 27.997185 
L 124.305781 45.312779 
L 120.878748 46.765561 
L 111.176084 35.172858 
L 107.436723 37.043479 
L 110.895208 51.759842 
L 107.677516 53.631093 
L 91.7552 35.857894 
L 88.046979 38.338812 
L 118.647529 87.215668 
L 116.540813 88.82564 
L 90.990601 62.58986 
L 88.12327 65.081601 
L 77.494765 59.455385 
L 74.535552 62.373015 
L 54.391206 49.436751 
L 51.128408 53.085761 
L 43.577654 53.256391 
L 40.440301 57.243514 
L 82.975348 93.809188 
L 81.093584 96.537511 
L 42.815313 76.622008 
L 40.413002 80.621548 
L 32.426244 81.620884 
L 30.186246 85.944608 
L 61.233078 105.573083 
L 59.731947 108.979214 
L 31.10514 101.932651 
L 29.504442 106.28787 
L 22.628233 108.986817 
L 21.253525 113.605081 
L 54.656889 126.818128 
L 53.827 130.420525 
L 64.279399 136.070928 
L 63.735681 139.366197 
L 31.085203 138.912049 
L 30.647228 143.249612 
L 76.492462 150.068176 
L 76.382809 152.972519 
L 35.828936 156.261306 
L 35.934114 160.441137 
L 66.898533 162.389196 
L 67.181024 165.589101 
L 15.346445 175.882947 
L 16.078698 180.697091 
L 80.553045 172.719798 
L 81.153601 175.485268 
L 61.475348 183.67024 
L 62.429643 187.03014 
L 18.910996 205.32468 
L 20.567199 210.01219 
L 21.619119 214.951146 
L 23.576659 219.548747 
L 92.850883 191.659285 
L 94.040858 194.02872 
L 83.293437 203.119134 
L 84.84846 205.783409 
L 79.00474 213.25116 
L 80.880456 216.045272 
L 89.3539 213.947806 
L 91.246404 216.416174 
L 70.296782 238.178118 
L 72.960562 241.233703 
L 99.132076 221.764501 
L 101.265519 223.921556 
L 59.553157 273.743936 
L 63.340516 277.119739 
L 111.119604 226.195713 
L 113.386447 227.973663 
L 74.843009 287.170702 
L 79.044975 290.05912 
L 105.125433 257.67319 
L 108.38496 259.624046 
L 129.709779 227.888682 
L 132.020661 229.081279 
L 126.607026 247.15607 
L 129.525251 248.436698 
L 112.442832 301.85408 
L 117.087886 303.553018 
L 123.479996 299.689152 
L 128.051522 301.042127 
L 132.470161 303.038095 
L 137.142541 304.106743 
L 143.135867 297.846096 
L 147.639725 298.581959 
L 158.014409 248.43483 
L 160.957313 248.727309 
L 163.992056 247.307799 
L 166.896568 247.412885 
L 170.17773 281.475946 
L 174.153505 281.369647 
L 179.560631 300.543235 
L 184.131284 300.132489 
L 181.168577 244.962408 
L 183.990852 244.528586 
L 194.67852 282.94344 
L 198.688322 282.066057 
L 190.25185 234.868558 
L 192.752261 234.154129 
L 205.858139 264.856874 
L 209.293732 263.636922 
L 221.899811 284.82059 
L 225.955176 283.086382 
L 217.578914 255.689968 
L 220.720484 254.106021 
L 213.842399 234.776045 
L 216.328237 233.319923 
L 217.882437 230.427433 
L 220.229548 228.846433 
L 222.525789 227.192417 
L 224.768888 225.46702 
L 236.389755 234.806816 
L 238.865413 232.641741 
L 251.948018 241.504286 
L 254.626566 238.846714 
L 248.25727 227.886711 
L 250.509477 225.351916 
L 241.326635 213.579655 
L 243.132424 211.269849 
L 266.696063 224.37064 
L 268.8286 221.257828 
L 289.484279 229.585986 
L 291.769531 225.754084 
L 246.01956 196.260024 
L 247.278462 193.811225 
L 304.526677 216.880551 
L 306.405006 212.581964 
L 257.401461 188.847599 
L 258.421671 186.044593 
L 299.605495 195.745992 
L 300.821739 191.612588 
L 290.879583 184.755975 
L 291.754592 180.902366 
L 297.297253 177.875392 
L 297.952748 173.8234 
L 287.202704 168.470551 
L 287.567481 164.740604 
L 319.393954 162.591304 
L 319.557958 157.8521 
L 280.660048 153.599591 
L 280.560484 150.082711 
L 286.817911 146.081645 
L 286.478922 142.374866 
L 278.79656 139.686997 
L 278.260475 136.235588 
L 284.765581 131.344073 
L 283.964226 127.709111 
L 253.309214 132.145113 
L 252.548598 129.498812 
L 300.074842 110.469038 
L 298.609561 106.36304 
L 314.263241 95.2166 
L 312.311374 90.672029 
L 311.675642 85.481634 
L 309.418965 81.023236 
L 249.894443 109.025157 
L 248.408573 106.497654 
L 277.388514 84.065979 
L 275.104279 80.686343 
L 244.134373 98.727549 
L 242.327571 96.386248 
L 236.123594 97.778155 
L 234.290903 95.689199 
L 282.57937 45.25587 
L 279.072293 41.732211 
L 227.317688 90.979025 
L 225.27557 89.170308 
L 253.677729 49.531236 
L 250.319369 46.914194 
L 245.477486 46.390919 
L 242.024442 44.033263 
L 234.248165 48.6891 
L 230.872933 46.683382 
L 240.004296 21.16575 
L 235.760824 18.992656 
L 221.397844 39.101578 
L 217.727513 37.504644 
L 212.856604 39.055316 
L 209.189042 37.72696 
L 201.40421 49.680393 
L 198.076386 48.706871 
L 190.524405 65.17454 
L 187.689129 64.535442 
L 193.000686 17.676818 
L 188.670754 16.983345 
L 180.075999 54.294304 
L 176.903791 53.989107 
L 175.027155 27.060896 
L 171.001165 26.927911 
L 167.500732 64.212249 
L 164.646584 64.297542 
L 159.986837 41.030592 
L 156.407522 41.3636 
L 150.578711 25.752539 
L 146.523672 26.388913 
L 151.146777 69.241206 
L 148.458836 69.838216 
L 130.674117 14.976752 
L 126.290105 16.244298 
L 125.088063 26.857408 
L 121.080367 28.294718 
L 123.616746 45.594702 
L 120.198919 47.069009 
L 110.423536 35.537559 
L 106.696013 37.431662 
L 110.246987 52.125982 
L 107.041128 54.017434 
L 91.007343 36.344729 
L 87.3148 38.84892 
L 118.222152 87.53235 
L 116.125604 89.155539 
L 90.410889 63.080975 
L 87.559286 65.590701 
L 76.895605 60.031443 
L 73.954801 62.967627 
L 53.729492 50.158315 
L 50.489709 53.827774 
L 42.940177 54.045891 
L 39.827963 58.052668 
L 82.592146 94.350097 
L 80.727579 97.090201 
L 42.324807 77.415841 
L 39.9477 81.430411 
L 31.967384 82.479959 
L 29.754624 86.817685 
L 60.924294 106.250505 
L 59.444615 109.66601 
L 30.774056 102.799633 
L 29.200781 107.164834 
L 22.341684 109.906975 
L 20.996048 114.533794 
L 54.481855 127.536491 
L 53.674639 131.144036 
L 64.162369 136.728588 
L 63.639387 140.027212 
L 30.986699 139.778425 
L 30.576013 144.118657 
L 76.463225 150.648746 
L 76.371841 153.553721 
L 35.839455 157.097504 
L 35.97092 161.276591 
L 66.946979 163.029863 
L 67.249589 166.227928 
L 15.480778 176.84758 
L 16.243295 181.657024 
L 80.666194 173.274381 
L 81.284132 176.036019 
L 61.657747 184.344595 
L 62.633154 187.698426 
L 19.230431 206.266312 
L 20.916083 210.943313 
L 21.999045 215.875554 
L 23.985463 220.460753 
L 93.082907 192.136147 
L 94.287761 194.498051 
L 83.597727 203.65588 
L 85.169475 206.310322 
L 79.372839 213.814679 
L 81.266091 216.596939 
L 89.726176 214.446221 
L 91.634167 216.902637 
L 70.821829 238.795913 
L 73.504775 241.834683 
L 99.553321 222.201262 
L 101.700289 224.344857 
L 60.302106 274.428598 
L 64.110622 277.780514 
L 111.568481 226.556992 
L 113.846462 228.32065 
L 75.676102 287.758934 
L 79.896152 290.620867 
L 105.772404 258.071546 
L 109.044137 260.001864 
L 130.168937 228.133006 
L 132.487274 229.311045 
L 127.187426 247.419527 
L 130.113648 248.681776 
L 113.367532 302.205541 
L 118.023179 303.87523 
L 124.390861 299.971238 
L 128.970807 301.295434 
L 133.401912 303.263571 
L 138.08092 304.302812 
L 144.034752 298.004594 
L 148.543149 298.712115 
L 158.602231 248.500727 
L 161.546916 248.774692 
L 164.572671 247.336122 
L 167.477787 247.422939 
L 170.973121 281.464689 
L 174.948149 281.333387 
L 180.475759 300.472588 
L 185.043738 300.033104 
L 181.734101 244.882747 
L 184.553592 244.431184 
L 195.482656 282.778058 
L 199.48686 281.875473 
L 190.75371 234.731969 
L 193.249578 234.001827 
L 206.548299 264.621537 
L 209.976152 263.380001 
L 222.715215 284.483965 
L 226.759593 282.724285 
L 218.211188 255.381095 
L 221.342734 253.777421 
L 214.34321 234.491086 
L 216.819842 233.019358 
L 218.355818 230.11715 
L 220.692939 228.52142 
L 222.978732 226.852995 
L 225.210935 225.113524 
L 236.890314 234.380047 
L 239.352305 232.199443 
L 252.490392 240.979532 
L 255.152173 238.305165 
L 248.71407 227.385438 
L 250.950291 224.836529 
L 241.693589 213.122255 
L 243.484815 210.801137 
L 267.130384 223.753467 
L 269.243302 220.627304 
L 289.950951 228.825385 
L 292.212058 224.979186 
L 246.277491 195.773451 
L 247.520966 193.316782 
L 304.913143 216.025593 
L 306.764398 211.715278 
L 257.612546 188.289586 
L 258.615108 185.480219 
L 299.859133 194.922403 
L 301.049357 190.781432 
L 291.064273 183.987485 
L 291.915027 180.12845 
L 297.438541 177.066675 
L 298.068538 173.01064 
L 287.28504 167.725509 
L 287.626351 163.993341 
L 319.438676 161.643913 
L 319.57287 156.903771 
L 280.648984 152.895992 
L 280.527303 149.379808 
L 286.759441 145.339465 
L 286.397146 141.634892 
L 278.69803 138.995394 
L 278.140249 135.547425 
L 284.614462 130.615093 
L 283.79026 126.985243 
L 253.163754 131.61396 
L 252.386509 128.972495 
L 299.792128 109.644185 
L 298.30105 105.547484 
L 313.884317 94.302811 
L 311.903905 89.770606 
L 311.235541 84.584312 
L 308.950868 80.140195 
L 249.60364 108.515938 
L 248.101903 105.997831 
L 276.940188 83.384331 
L 274.634742 80.019129 
L 243.778917 98.254762 
L 241.957426 95.92487 
L 235.762326 97.35577 
L 233.916532 95.278382 
L 281.886847 44.542343 
L 278.357678 41.040811 
L 226.913831 90.612159 
L 224.860378 88.816321 
L 253.012668 48.999399 
L 249.637915 46.403531 
L 244.792836 45.910719 
L 241.325032 43.574828 
L 233.578191 48.27948 
L 230.190411 46.295031 
L 239.161103 20.720472 
L 234.904047 18.57411 
L 220.667824 38.77297 
L 216.987522 37.199151 
L 212.126463 38.780429 
L 208.450618 37.475165 
L 200.741121 49.477324 
L 197.407239 48.524752 
L 189.95898 65.039592 
L 187.119741 64.41834 
L 192.136478 17.527235 
L 187.80227 16.861009 
L 179.44235 54.225286 
L 176.268286 53.940046 
L 174.222323 27.024172 
L 170.195577 26.91651 
L 166.929711 64.222126 
L 164.076155 64.325368 
L 159.270164 41.088186 
L 155.693014 41.443699 
L 149.766134 25.869607 
L 145.715178 26.531473 
L 150.607708 69.353841 
L 147.923575 69.967745 
L 129.79416 15.219221 
L 125.418207 16.514315 
L 124.28294 27.134776 
L 120.284363 28.597264 
L 122.929499 45.880953 
L 119.521012 47.376727 
L 109.673295 35.906987 
L 105.957759 37.824497 
L 109.601082 52.496192 
L 106.407183 54.40777 
L 90.262564 36.836257 
L 86.585843 39.363623 
L 117.798775 87.8517 
L 115.712477 89.488044 
L 89.834277 63.575726 
L 86.998515 66.103337 
L 76.300081 60.611258 
L 73.377802 63.56588 
L 53.072329 50.884027 
L 49.855689 54.57379 
L 42.307679 54.839385 
L 39.220726 58.865656 
L 82.212353 94.893405 
L 80.365057 97.645182 
L 41.839305 78.212743 
L 39.487493 82.242184 
L 31.513937 83.341903 
L 29.328503 87.693461 
L 60.619778 106.929857 
L 59.161609 110.3546 
L 30.448431 103.668681 
L 28.902642 108.04369 
L 22.060927 110.828917 
L 20.744418 115.464107 
L 54.311342 128.255941 
L 53.526832 131.868491 
L 64.049478 137.386971 
L 63.547253 140.688819 
L 30.893646 140.645404 
L 30.510266 144.988133 
L 76.437641 151.229488 
L 76.364529 154.13498 
L 35.855233 157.933619 
L 36.012979 162.111797 
L 66.999453 163.670212 
L 67.322171 166.86631 
L 15.621176 177.811349 
L 16.413926 182.615902 
L 80.782829 173.828241 
L 81.418124 176.585938 
L 61.844383 185.017788 
L 62.840865 188.365419 
L 19.555781 207.205916 
L 21.270815 211.872222 
L 22.384777 216.797555 
L 24.399994 221.37017 
L 93.317926 192.61154 
L 94.537611 194.965819 
L 83.905386 204.190702 
L 85.493799 206.835206 
L 79.744474 214.375872 
L 81.655189 217.146169 
L 90.101579 214.942285 
L 92.024982 217.386652 
L 71.350752 239.410393 
L 74.052757 242.432229 
L 99.977305 222.635366 
L 102.137712 224.765414 
L 61.055346 275.108536 
L 64.884869 278.436432 
L 112.019622 226.915441 
L 114.30865 228.664737 
L 76.512879 288.341915 
L 80.750845 291.17725 
L 106.421869 258.465825 
L 109.705677 260.375527 
L 130.629622 228.374437 
L 132.955323 229.537872 
L 127.769472 247.679329 
L 130.703575 248.923149 
L 114.294424 302.551178 
L 118.96048 304.191553 
L 125.303483 300.247589 
L 129.891666 301.542953 
L 134.335062 303.483182 
L 139.020514 304.492974 
L 144.934615 298.157435 
L 149.447374 298.836587 
L 159.190455 248.562926 
L 162.136805 248.818365 
L 165.153453 247.360794 
L 168.059057 247.429337 
L 171.768425 281.44843 
L 175.742549 281.29213 
L 181.390425 300.396187 
L 185.955549 299.927982 
L 182.299113 244.799532 
L 185.115708 244.330244 
L 196.285736 282.607622 
L 200.284185 281.679871 
L 191.254701 234.592225 
L 193.745927 233.846401 
L 207.236966 264.381863 
L 210.656942 263.118792 
L 223.528486 284.142218 
L 227.561716 282.357136 
L 218.841507 255.068251 
L 221.962905 253.444913 
L 214.84222 234.202983 
L 217.309545 232.715708 
L 218.827239 229.803897 
L 221.154277 228.193499 
L 223.429531 226.51073 
L 225.65075 224.757254 
L 237.388178 233.950137 
L 239.836407 231.754093 
L 253.029456 240.451376 
L 255.674364 237.760321 
L 249.167709 226.881302 
L 251.387854 224.318379 
L 242.05766 212.662556 
L 243.834251 210.330218 
L 267.560816 223.133575 
L 269.65403 219.994185 
L 290.412831 228.061864 
L 292.649703 224.20152 
L 246.532357 195.285265 
L 247.760356 192.820824 
L 305.294223 215.168222 
L 307.118332 210.846349 
L 257.820119 187.730257 
L 258.804991 184.91464 
L 300.107586 194.097236 
L 301.271742 189.94886 
L 291.244126 183.217849 
L 292.070592 179.353539 
L 297.57474 176.257085 
L 298.179214 172.197168 
L 287.362689 166.979963 
L 287.68052 163.245723 
L 319.477439 160.69626 
L 319.581818 155.955368 
L 280.633495 152.192477 
L 280.489701 148.677128 
L 286.696305 144.597669 
L 286.310717 140.895447 
L 278.595153 138.304424 
L 278.015696 134.860032 
L 284.45876 129.887078 
L 283.611745 126.262483 
L 253.014957 131.083733 
L 252.221114 128.447208 
L 299.504231 108.821126 
L 297.987417 104.733884 
L 313.499652 93.391423 
L 311.490775 88.871764 
L 310.789805 83.689776 
L 308.477227 79.260116 
L 249.30964 108.008558 
L 247.792095 105.499946 
L 276.487583 82.705517 
L 274.161018 79.354882 
L 243.420495 97.784219 
L 241.584386 95.46583 
L 235.398408 96.935665 
L 233.539585 94.869927 
L 281.18985 43.833185 
L 277.638729 40.353919 
L 226.507674 90.247839 
L 224.442967 88.464952 
L 252.344275 48.471756 
L 248.953262 45.897165 
L 244.105179 45.434835 
L 240.622752 43.1208 
L 232.905654 47.874083 
L 229.50546 45.91098 
L 238.315125 20.280507 
L 234.044654 18.160961 
L 219.935752 38.44896 
L 216.245624 36.898319 
L 211.394607 38.510138 
L 207.710625 37.22802 
L 200.076767 49.27843 
L 196.736961 48.346844 
L 189.392718 64.908204 
L 186.549628 64.304821 
L 191.271347 17.383091 
L 186.933035 16.744138 
L 178.80828 54.160255 
L 175.632485 53.894984 
L 173.417277 26.99251 
L 169.389933 26.910176 
L 166.358762 64.235595 
L 163.505913 64.356782 
L 158.553868 41.150286 
L 154.979025 41.528291 
L 148.95431 25.991784 
L 144.907596 26.679114 
L 150.069358 69.469864 
L 147.389139 70.100638 
L 128.915746 15.467221 
L 124.548025 16.789811 
L 123.479577 27.417203 
L 119.490277 28.90481 
L 122.244065 46.171521 
L 118.845053 47.688703 
L 108.925393 36.281126 
L 105.221991 38.221966 
L 108.957518 52.870457 
L 105.775705 54.802085 
L 89.52089 37.332461 
L 85.860138 39.882901 
L 117.377415 88.173707 
L 115.30145 89.82314 
L 89.260788 64.074094 
L 86.44098 66.619491 
L 75.708215 61.194807 
L 72.804576 64.16775 
L 52.419744 51.613858 
L 49.226374 55.323779 
L 41.680183 55.636841 
L 38.618614 59.682448 
L 81.835986 95.439091 
L 80.006033 98.202432 
L 41.358824 79.012682 
L 39.032402 83.056836 
L 31.06592 84.206682 
L 28.907897 88.571899 
L 60.319539 107.61111 
L 58.88294 111.044957 
L 30.128279 104.539759 
L 28.610037 108.924404 
L 21.785974 111.752606 
L 20.498645 116.395985 
L 54.145358 128.976449 
L 53.383584 132.593862 
L 63.94073 138.046051 
L 63.459281 141.350992 
L 30.806047 141.512951 
L 30.449988 145.858005 
L 76.415709 151.810379 
L 76.360873 154.716274 
L 35.876269 158.769618 
L 36.060291 162.946721 
L 67.055953 164.310218 
L 67.398767 167.504224 
L 15.767632 178.774216 
L 16.590584 183.573688 
L 80.902945 174.381357 
L 81.555571 177.135004 
L 62.035249 185.689795 
L 63.052766 189.031092 
L 19.887035 208.143455 
L 21.631384 212.798882 
L 22.776301 217.717112 
L 24.820237 222.276961 
L 93.555931 193.085446 
L 94.790399 195.432007 
L 84.216403 204.723578 
L 85.821416 207.35804 
L 80.119633 214.934717 
L 82.047733 217.692942 
L 90.480095 215.435978 
L 92.418833 217.8682 
L 71.883529 240.021534 
L 74.604486 243.026316 
L 100.40401 223.066794 
L 102.577771 225.183213 
L 61.812848 275.783723 
L 65.663226 279.087468 
L 112.473009 227.271045 
L 114.772994 229.005909 
L 77.353305 288.919622 
L 81.60902 291.728246 
L 107.0738 258.856012 
L 110.369555 260.745023 
L 131.091817 228.612966 
L 133.424789 229.761751 
L 128.35314 247.935465 
L 131.295008 249.160806 
L 115.223471 302.890979 
L 119.899752 304.501974 
L 126.217824 300.518194 
L 130.814064 301.784676 
L 135.269575 303.69692 
L 139.961285 304.677224 
L 145.835423 298.304613 
L 150.352363 298.955369 
L 159.779059 248.621425 
L 162.726958 248.858327 
L 165.734378 247.381812 
L 168.640356 247.432079 
L 172.563612 281.42717 
L 176.536673 281.245878 
L 182.304591 300.314035 
L 186.866681 299.817126 
L 182.86359 244.712764 
L 185.677178 244.225771 
L 197.087728 282.432139 
L 201.080263 281.479258 
L 191.754803 234.449334 
L 194.241289 233.687856 
L 207.924112 264.137863 
L 211.336077 262.853308 
L 224.339591 283.795363 
L 228.361514 281.984949 
L 219.469846 254.751449 
L 222.580973 253.108512 
L 215.339407 233.911747 
L 217.79733 232.408983 
L 219.296679 229.487684 
L 221.613544 227.862683 
L 223.878169 226.165637 
L 226.088315 224.398226 
L 237.88333 233.517105 
L 240.317698 231.305706 
L 253.565186 239.91984 
L 256.193117 237.212204 
L 249.618169 226.374323 
L 251.82215 223.797487 
L 242.418832 212.200577 
L 244.180719 209.857111 
L 267.98734 222.510988 
L 270.060768 219.358494 
L 290.8699 227.295454 
L 293.082447 223.421117 
L 246.784147 194.795485 
L 247.996622 192.32337 
L 305.669904 214.30847 
L 307.466795 209.97521 
L 258.024169 187.169634 
L 258.991313 184.347878 
L 300.350845 193.270523 
L 301.488887 189.114907 
L 291.419134 182.447097 
L 292.22128 178.577665 
L 297.705844 175.446654 
L 298.284772 171.383016 
L 287.435647 166.233944 
L 287.729985 162.497779 
L 319.510241 159.748381 
L 280.668899 155.006927 
z
" clip-path="url(#p022ded25ef)" style="fill: #0000ff; opacity: 0.5; stroke: #000000; stroke-width: 1.5; stroke-linejoin: miter"/>
   </g>
  </g>
 </g>
 <defs>
  <clipPath id="p022ded25ef">
   <rect x="0" y="0" width="334.8" height="319.185663"/>
  </clipPath>
 </defs>
</svg>
