<?xml version="1.0" encoding="utf-8" standalone="no"?>
<!DOCTYPE svg PUBLIC "-//W3C//DTD SVG 1.1//EN"
  "http://www.w3.org/Graphics/SVG/1.1/DTD/svg11.dtd">
<svg xmlns:xlink="http://www.w3.org/1999/xlink" width="310.253553pt" height="332.64pt" viewBox="0 0 310.253553 332.64" xmlns="http://www.w3.org/2000/svg" version="1.1">
 <metadata>
  <rdf:RDF xmlns:dc="http://purl.org/dc/elements/1.1/" xmlns:cc="http://creativecommons.org/ns#" xmlns:rdf="http://www.w3.org/1999/02/22-rdf-syntax-ns#">
   <cc:Work>
    <dc:type rdf:resource="http://purl.org/dc/dcmitype/StillImage"/>
    <dc:date>2023-12-09T18:06:24.885778</dc:date>
    <dc:format>image/svg+xml</dc:format>
    <dc:creator>
     <cc:Agent>
      <dc:title>Matplotlib v3.8.2, https://matplotlib.org/</dc:title>
     </cc:Agent>
    </dc:creator>
   </cc:Work>
  </rdf:RDF>
 </metadata>
 <defs>
  <style type="text/css">*{stroke-linejoin: round; stroke-linecap: butt}</style>
 </defs>
 <g id="figure_1">
  <g id="patch_1">
   <path d="M 0 332.64 
L 310.253553 332.64 
L 310.253553 0 
L 0 0 
L 0 332.64 
z
" style="fill: none"/>
  </g>
  <g id="axes_1">
   <g id="patch_2">
    <path d="M 244.091013 165.540619 
L 244.050081 162.937633 
L 296.151118 157.048281 
L 295.817429 152.81261 
L 253.509741 153.880618 
L 253.097536 150.987251 
L 274.841693 143.860058 
L 274.103873 140.300923 
L 257.369727 140.849526 
L 256.545888 137.841236 
L 292.020307 123.023063 
L 290.618833 118.934096 
L 286.185283 116.04234 
L 284.567204 112.140292 
L 267.283645 115.613668 
L 265.661433 112.30614 
L 279.672845 100.389551 
L 277.565828 96.700006 
L 236.451852 117.791038 
L 234.913345 115.451853 
L 271.195441 85.594608 
L 268.62743 82.178927 
L 235.280402 104.256265 
L 233.316912 101.960604 
L 252.332386 79.930468 
L 249.595609 77.110684 
L 253.715711 66.971409 
L 250.570788 64.114536 
L 229.932077 82.435377 
L 227.285135 80.318668 
L 224.572948 78.286232 
L 221.798197 76.340078 
L 236.929842 46.108833 
L 233.137254 43.79006 
L 227.396036 45.015685 
L 223.573791 42.997217 
L 195.80505 92.007482 
L 193.475949 90.95907 
L 212.039661 36.949759 
L 207.971398 35.418117 
L 207.463122 22.868921 
L 202.954389 21.488137 
L 188.936277 57.329228 
L 185.520212 56.51393 
L 185.857581 35.854776 
L 181.767835 35.146897 
L 179.496383 19.843222 
L 174.906343 19.34327 
L 166.90458 74.334928 
L 164.034105 74.203948 
L 161.119177 47.609189 
L 157.411246 47.673328 
L 151.593969 15.12 
L 146.869217 15.499696 
L 144.440371 33.845355 
L 140.307921 34.440718 
L 140.184035 55.872321 
L 136.746266 56.590621 
L 139.983426 83.124452 
L 137.402623 83.835585 
L 120.766273 41.572834 
L 116.888498 42.908741 
L 129.234272 84.999348 
L 126.717735 86.047531 
L 119.560003 77.290284 
L 116.805859 78.64646 
L 121.64914 93.76089 
L 119.411835 95.043235 
L 90.762764 54.908095 
L 87.319113 57.180785 
L 86.250884 62.714793 
L 83.054923 65.125487 
L 64.960586 49.616125 
L 61.363301 52.702709 
L 100.205473 100.779318 
L 98.199445 102.732428 
L 48.325131 59.952826 
L 45.06108 63.557354 
L 53.971838 77.189788 
L 51.246963 80.608249 
L 38.502947 76.791151 
L 35.773185 80.696185 
L 68.174071 106.774507 
L 66.372382 109.731791 
L 73.574642 117.61201 
L 72.111038 120.39413 
L 51.63124 114.294076 
L 50.074162 117.767785 
L 19.549001 109.868893 
L 17.868648 114.353525 
L 75.063382 137.788752 
L 74.233443 140.514087 
L 15.955635 128.669253 
L 14.868183 133.257574 
L 43.86191 143.496824 
L 43.226872 147.200379 
L 63.637304 153.501813 
L 63.307067 156.57864 
L 25.65245 157.425741 
L 25.464371 161.694955 
L 55.869616 165.872185 
L 55.932171 169.187128 
L 31.940582 174.096193 
L 32.273549 178.159452 
L 35.057673 181.908974 
L 35.63475 185.870361 
L 26.369282 191.747371 
L 27.259996 195.977076 
L 75.898856 187.778547 
L 76.640293 190.452896 
L 78.949329 192.614787 
L 79.841318 195.190831 
L 66.311027 203.538806 
L 67.552741 206.506825 
L 77.352882 205.413536 
L 78.648082 208.033448 
L 85.489191 207.581376 
L 86.84853 209.944393 
L 33.020761 247.621357 
L 35.664986 251.614299 
L 87.581914 219.529524 
L 89.315894 221.820833 
L 61.128091 249.063272 
L 63.803756 252.171745 
L 55.798311 265.394701 
L 58.990107 268.662679 
L 105.937731 224.970505 
L 107.833712 226.681977 
L 85.012356 258.521629 
L 87.973604 260.874453 
L 104.701633 244.121501 
L 107.200375 245.86237 
L 100.606296 262.069217 
L 103.671378 263.929979 
L 106.420086 266.379426 
L 109.617815 268.055258 
L 106.276458 283.7915 
L 110.021732 285.463239 
L 117.514302 277.560194 
L 121.058094 278.881672 
L 117.737627 301.66226 
L 122.03913 302.964799 
L 124.470984 311.704715 
L 129.084915 312.790577 
L 139.731245 281.482183 
L 143.387368 282.103172 
L 142.910814 316.721509 
L 147.673367 317.225102 
L 153.811739 294.188227 
L 157.860406 294.360212 
L 161.69512 248.326101 
L 164.297884 248.272891 
L 167.425337 255.930065 
L 170.264352 255.692925 
L 176.550169 281.694953 
L 180.194778 281.158169 
L 182.019419 271.309741 
L 185.33479 270.606127 
L 188.626399 269.798618 
L 191.89099 268.888013 
L 209.584922 311.626959 
L 214.154325 310.036691 
L 209.935398 286.562991 
L 213.716562 284.974096 
L 197.611551 241.675108 
L 199.987435 240.495895 
L 228.152763 285.64749 
L 231.896134 283.486254 
L 219.535193 256.234663 
L 222.358021 254.358925 
L 251.479205 288.270141 
L 255.293505 285.374173 
L 212.915667 227.24506 
L 214.830272 225.591787 
L 223.144841 230.675852 
L 225.16226 228.699255 
L 244.857138 243.135917 
L 247.255594 240.470477 
L 244.732648 233.775308 
L 246.836847 231.118411 
L 239.974395 222.019966 
L 241.711332 219.518491 
L 275.797335 237.284026 
L 277.996497 233.648652 
L 285.572783 232.924209 
L 287.630029 228.983629 
L 237.834094 201.007398 
L 238.911409 198.583607 
L 283.582745 213.119655 
L 285.018276 209.251438 
L 240.190606 190.652131 
L 240.941164 188.159367 
L 269.645137 192.661536 
L 270.444312 189.241663 
L 264.223125 184.523391 
L 264.769099 181.278022 
L 283.823177 180.251683 
L 284.225149 176.392157 
L 276.70804 172.080047 
L 276.856596 168.448277 
L 244.089375 165.019939 
L 244.032073 162.417262 
L 296.095039 156.20034 
L 295.734716 151.966852 
L 253.434583 153.30093 
L 253.004188 150.410214 
L 274.703089 143.146403 
L 273.942898 139.591979 
L 257.212534 140.245819 
L 256.36979 137.24277 
L 291.75031 122.201776 
L 290.323146 118.121705 
L 285.871497 115.257891 
L 284.228908 111.366096 
L 266.967536 114.948107 
L 265.324554 111.650847 
L 279.26074 99.64637 
L 277.13056 95.970151 
L 236.150047 117.319349 
L 234.596859 114.989886 
L 270.690452 84.905039 
L 268.101009 81.505576 
L 234.893495 103.792211 
L 232.915606 101.508945 
L 251.792146 79.359649 
L 249.037688 76.557132 
L 253.093939 66.392145 
L 249.93111 63.555109 
L 229.408035 82.005392 
L 226.747832 79.905374 
L 224.022915 77.890036 
L 221.235979 75.961372 
L 236.177188 45.635555 
L 232.370091 43.340682 
L 226.636696 44.602391 
L 222.801831 42.608003 
L 195.341886 91.791948 
L 193.006237 90.758205 
L 211.229894 36.633208 
L 207.152078 35.127183 
L 206.564885 22.581432 
L 202.047557 21.229032 
L 188.255142 57.15758 
L 184.834017 56.363784 
L 185.041445 35.702917 
L 180.947327 35.020774 
L 178.579669 19.731688 
L 173.986576 19.260614 
L 166.330837 74.301512 
L 163.459595 74.188587 
L 160.377459 47.612688 
L 156.670005 47.700146 
L 150.648101 15.18405 
L 145.92583 15.593454 
L 143.612416 33.954026 
L 139.483792 34.575368 
L 139.494701 56.007326 
L 136.061518 56.747234 
L 139.465497 83.26018 
L 136.889217 83.987531 
L 119.987388 41.830249 
L 116.118091 43.190519 
L 128.728348 85.202645 
L 126.218453 86.266635 
L 119.005784 77.55458 
L 116.260224 78.92805 
L 121.198471 94.01172 
L 118.969275 95.308111 
L 90.068343 55.353951 
L 86.639054 57.648255 
L 85.605652 63.188872 
L 82.424917 65.619619 
L 64.233392 50.224367 
L 60.655591 53.333515 
L 99.799369 101.164878 
L 97.805665 103.130566 
L 47.663278 60.665491 
L 44.421962 64.290477 
L 53.418285 77.866598 
L 50.714963 81.302129 
L 37.947192 77.56526 
L 35.242045 81.487384 
L 67.806307 107.361407 
L 66.023254 110.329964 
L 73.274934 118.16473 
L 71.828856 120.956 
L 51.311097 114.984873 
L 49.775898 118.468306 
L 19.201661 110.761556 
L 17.549547 115.256668 
L 74.890544 138.33171 
L 74.077762 141.06221 
L 15.72661 129.584145 
L 14.668038 134.179214 
L 43.72559 144.235908 
L 43.113858 147.943384 
L 63.563518 154.116324 
L 63.252639 157.195166 
L 25.604095 158.279077 
L 25.44287 162.549389 
L 55.873787 166.535305 
L 55.95719 169.849789 
L 31.99695 174.909651 
L 32.355467 178.970734 
L 35.163117 182.702672 
L 35.765098 186.660351 
L 26.536777 192.59552 
L 27.454075 196.819539 
L 76.04041 188.315261 
L 76.798651 190.984894 
L 79.121239 193.13222 
L 80.029413 195.702603 
L 66.551893 204.13551 
L 67.812249 207.095661 
L 77.60532 205.940756 
L 78.916972 208.55247 
L 85.755103 208.05738 
L 87.129277 210.411801 
L 33.539539 248.426566 
L 36.208826 252.402799 
L 87.922932 219.99213 
L 89.671289 222.272488 
L 61.655383 249.691673 
L 64.350546 252.783257 
L 56.428423 266.056301 
L 59.64071 269.30414 
L 106.312607 225.317556 
L 108.219314 227.01707 
L 85.598663 258.999625 
L 88.57465 261.333777 
L 105.196982 244.475947 
L 107.706623 246.201066 
L 101.214607 262.449066 
L 104.291331 264.290513 
L 107.05539 266.722624 
L 110.263597 268.378311 
L 107.021277 284.135257 
L 110.776992 285.783407 
L 118.219708 277.833395 
L 121.771741 279.132558 
L 118.594617 301.93358 
L 122.904227 303.209039 
L 125.391001 311.933487 
L 130.011671 312.990308 
L 140.460878 281.615574 
L 144.120835 282.213556 
L 143.86202 316.834206 
L 148.627646 317.307835 
L 154.621008 294.232809 
L 158.670677 294.379327 
L 162.215786 248.322008 
L 164.818164 248.252429 
L 167.993714 255.889781 
L 170.831182 255.63479 
L 177.280412 281.596769 
L 180.921573 281.037074 
L 182.684237 271.177365 
L 185.995117 270.452913 
L 189.281582 269.624717 
L 192.540382 268.693598 
L 210.502767 311.320414 
L 215.062078 309.701438 
L 210.695598 286.254737 
L 214.466694 284.642092 
L 198.089675 241.445252 
L 200.458096 240.25112 
L 228.906845 285.224678 
L 232.636549 283.03994 
L 220.104455 255.866632 
L 222.91543 253.973177 
L 252.24932 287.700566 
L 256.045331 284.780666 
L 213.302732 226.919235 
L 215.206901 225.253953 
L 223.553282 230.285624 
L 225.558229 228.296377 
L 245.343516 242.608884 
L 247.72516 239.928412 
L 245.160156 233.249244 
L 247.247603 230.579165 
L 240.328062 221.524061 
L 242.049232 219.01171 
L 276.246296 236.562513 
L 278.42255 232.913379 
L 285.99413 232.1413 
L 288.026551 228.187859 
L 238.055647 200.525369 
L 239.117696 198.094851 
L 283.879572 212.349654 
L 285.290746 208.472485 
L 240.346983 190.155487 
L 241.081848 187.658051 
L 269.813569 191.979599 
L 270.591219 188.554768 
L 264.34048 183.875717 
L 264.866032 180.626978 
L 283.913278 179.480819 
L 284.290968 175.618842 
L 276.746887 171.354096 
L 276.872598 167.721463 
L 244.084463 164.49928 
L 244.010793 161.897015 
L 296.033628 155.35277 
L 295.646686 151.121631 
L 253.35578 152.721727 
L 252.907213 149.833775 
L 274.559999 142.433634 
L 273.777468 138.884061 
L 257.051547 139.643113 
L 256.189933 136.645424 
L 291.475154 121.382203 
L 290.022356 117.31119 
L 285.552783 114.47543 
L 283.88575 110.594043 
L 266.647248 114.284548 
L 264.983561 110.997687 
L 278.84397 98.905796 
L 276.69071 95.243047 
L 235.845283 116.849567 
L 234.277474 114.529919 
L 270.181137 84.218658 
L 267.570364 80.83555 
L 234.503677 103.3306 
L 232.511466 101.059819 
L 251.248327 78.792238 
L 248.476297 76.007101 
L 252.468536 65.816803 
L 249.287926 62.999716 
L 228.881299 81.578713 
L 226.207941 79.495467 
L 223.470403 77.497307 
L 220.671391 75.586209 
L 235.421572 45.167021 
L 231.600117 42.896137 
L 225.874771 44.193882 
L 222.027438 42.223652 
L 194.877375 91.579332 
L 192.535271 90.560299 
L 210.418152 36.321756 
L 206.330945 34.841408 
L 205.664857 22.299598 
L 201.139113 20.975637 
L 187.572941 56.99022 
L 184.146891 56.217957 
L 184.22437 35.556194 
L 180.126043 34.899814 
L 177.662272 19.625921 
L 173.066306 19.183745 
L 165.756896 74.271704 
L 162.885 74.17684 
L 159.635777 47.620851 
L 155.928947 47.731626 
L 149.702654 15.254047 
L 144.983051 15.693144 
L 142.785161 34.067903 
L 138.660527 34.715199 
L 138.80623 56.146665 
L 135.377769 56.90815 
L 138.948431 83.399163 
L 136.376778 84.142703 
L 119.210137 42.092558 
L 115.349472 43.477136 
L 128.223712 85.40912 
L 125.720558 86.488875 
L 118.453238 77.822356 
L 115.716371 79.213067 
L 120.749388 94.26538 
L 118.52839 95.575765 
L 89.37674 55.804166 
L 85.961949 58.119993 
L 84.963415 63.667 
L 81.798031 66.117704 
L 63.510038 50.837171 
L 59.951863 53.968759 
L 99.395699 101.552984 
L 97.414397 103.531173 
L 47.005921 61.382305 
L 43.787468 65.027605 
L 52.868998 78.546876 
L 50.187338 81.999341 
L 37.396316 78.342848 
L 34.715891 82.281909 
L 67.442243 107.950609 
L 65.677895 110.930322 
L 72.978707 118.719324 
L 71.550214 121.519634 
L 50.995306 115.67767 
L 49.482045 119.170689 
L 18.859943 111.656387 
L 17.236133 116.161801 
L 74.721125 138.875743 
L 73.925532 141.611302 
L 15.503344 130.50046 
L 14.473692 135.102096 
L 43.593921 144.975835 
L 43.005519 148.687084 
L 63.493599 154.731286 
L 63.20209 157.812022 
L 25.561108 159.1327 
L 25.426744 163.403941 
L 55.882128 167.198385 
L 55.986375 170.512279 
L 32.058434 175.722737 
L 32.442485 179.781486 
L 35.273552 183.495691 
L 35.900412 187.449506 
L 26.709602 193.442598 
L 27.653449 197.660764 
L 76.185336 188.851074 
L 76.960353 191.515885 
L 79.2964 193.648561 
L 80.220722 196.213181 
L 66.796507 204.730688 
L 68.075456 207.682853 
L 77.86107 206.466378 
L 79.189122 209.069791 
L 86.024004 208.531703 
L 87.412959 210.877434 
L 34.063372 249.228497 
L 36.757614 253.187862 
L 88.266852 220.452582 
L 90.029517 222.721899 
L 62.186616 250.316746 
L 64.90117 253.391317 
L 57.062684 266.713924 
L 60.295335 269.941496 
L 106.689658 225.662242 
L 108.607016 227.34973 
L 86.187964 259.473924 
L 89.178573 261.789313 
L 105.69455 244.827271 
L 108.214992 246.536572 
L 101.825294 262.825081 
L 104.913539 264.647141 
L 107.692841 267.061819 
L 110.911397 268.697296 
L 107.768244 284.474323 
L 111.53425 286.098819 
L 118.926818 278.102153 
L 122.486952 279.37895 
L 119.453296 302.199504 
L 123.770843 303.447833 
L 126.31244 312.156467 
L 130.939665 313.184207 
L 141.191336 281.744374 
L 144.854981 282.319325 
L 144.813916 316.940917 
L 149.582426 317.384564 
L 155.430541 294.272299 
L 159.481051 294.393344 
L 162.736416 248.31464 
L 165.338304 248.228695 
L 168.561827 255.845924 
L 171.397635 255.573091 
L 178.010024 281.493995 
L 181.647592 280.91141 
L 183.34821 271.04081 
L 186.654468 270.295548 
L 189.935659 269.446699 
L 193.188538 268.495102 
L 211.418666 311.008102 
L 215.967705 309.360483 
L 211.453845 285.941709 
L 215.214724 284.305377 
L 198.566345 241.212394 
L 200.927208 240.003389 
L 229.658252 284.797131 
L 233.374143 282.588979 
L 220.671391 255.495028 
L 223.470403 253.58393 
L 253.015838 287.126159 
L 256.79341 284.182442 
L 213.68774 226.590983 
L 215.581398 224.913757 
L 223.95926 229.892834 
L 225.951656 227.891017 
L 245.82657 242.078803 
L 248.191308 239.383405 
L 245.584346 232.720501 
L 247.654958 230.037346 
L 240.678603 221.025941 
L 242.383938 218.502815 
L 276.69071 235.83819 
L 278.84397 232.175441 
L 286.410544 231.355756 
L 288.41806 227.389611 
L 238.274163 200.041957 
L 239.320904 197.604807 
L 284.17155 211.577801 
L 285.558311 207.691833 
L 240.500234 189.657868 
L 241.219376 187.15586 
L 269.977709 191.296617 
L 270.733803 187.866962 
L 264.45376 183.227317 
L 264.958868 179.975337 
L 283.998529 178.709405 
L 284.351921 174.845128 
L 276.781167 170.627914 
L 276.884028 166.994563 
L 244.076277 163.978662 
L 243.986241 161.376912 
L 295.966888 154.505602 
L 295.553342 150.276981 
L 253.273335 152.143031 
L 252.806614 149.257957 
L 274.412429 141.721779 
L 273.607589 138.177198 
L 256.886773 139.041431 
L 256.006322 136.04922 
L 291.194848 120.564378 
L 289.716475 116.502582 
L 285.229155 113.694989 
L 283.537743 109.824164 
L 266.322793 113.623016 
L 264.638466 110.346684 
L 278.42255 98.167858 
L 276.246296 94.518724 
L 235.537569 116.381712 
L 233.955203 114.07197 
L 269.667514 83.535495 
L 267.035516 80.168874 
L 234.110964 102.87145 
L 232.10451 100.613244 
L 250.70095 78.228258 
L 247.911458 75.460611 
L 251.839526 65.245406 
L 248.641262 62.448378 
L 228.351889 81.155354 
L 225.665482 79.088963 
L 222.91543 77.108061 
L 220.104455 75.214605 
L 234.663025 44.703248 
L 230.827363 42.456444 
L 225.110291 43.790172 
L 221.250643 41.844178 
L 194.411536 91.369641 
L 192.063069 90.365359 
L 209.604467 36.015415 
L 205.50803 34.560803 
L 204.763075 22.02343 
L 200.229093 20.727959 
L 186.889701 56.827154 
L 183.458861 56.076454 
L 183.406388 35.414612 
L 179.304014 34.784022 
L 176.744228 19.525927 
L 172.145572 19.112665 
L 165.182778 74.245507 
L 162.310342 74.168708 
L 158.894162 47.63368 
L 155.188101 47.767766 
L 148.757666 15.329989 
L 144.040918 15.798761 
L 141.958638 34.18698 
L 137.838157 34.860205 
L 138.118649 56.29033 
L 134.695045 57.073364 
L 138.43225 83.541396 
L 135.865324 84.301095 
L 118.434551 42.35975 
L 114.582671 43.768582 
L 127.720384 85.618765 
L 125.224071 86.714242 
L 117.902388 78.093601 
L 115.174321 79.501499 
L 120.301909 94.521859 
L 118.089196 95.846187 
L 88.687983 56.258722 
L 85.287824 58.59598 
L 84.324198 64.149158 
L 81.174289 66.619722 
L 62.790552 51.454512 
L 59.252143 54.608417 
L 98.994477 101.943622 
L 97.025656 103.934233 
L 46.353085 62.103239 
L 43.157622 65.768709 
L 52.324002 79.230595 
L 49.664109 82.699858 
L 36.850342 79.123885 
L 34.194745 83.079727 
L 67.08189 108.54209 
L 65.336318 111.53284 
L 72.685975 119.27577 
L 71.275122 122.085009 
L 50.683878 116.372439 
L 49.192617 119.874907 
L 18.523859 112.553349 
L 16.928418 117.068887 
L 74.55513 139.420832 
L 73.776758 142.16134 
L 15.285845 131.41816 
L 14.285155 136.026181 
L 43.466908 145.716575 
L 42.901859 149.431452 
L 63.427549 155.346675 
L 63.155422 158.429185 
L 25.523491 159.986577 
L 25.415993 164.258578 
L 55.894639 167.8614 
L 56.019727 171.174573 
L 32.12503 176.535421 
L 32.534601 180.591674 
L 35.388972 184.288 
L 36.040687 188.237794 
L 26.887752 194.288572 
L 27.85811 198.500719 
L 76.333629 189.385965 
L 77.125391 192.045849 
L 79.474805 194.16379 
L 80.415239 196.722546 
L 67.044859 205.324315 
L 68.342351 208.268378 
L 78.12012 206.990381 
L 79.46452 209.58539 
L 86.295883 209.004325 
L 87.699563 211.341274 
L 34.592238 250.027117 
L 37.311329 253.969459 
L 88.613662 220.910862 
L 90.390564 223.169048 
L 62.72177 250.938465 
L 65.455608 253.995903 
L 57.701069 267.367546 
L 60.953955 270.574722 
L 107.068869 226.00455 
L 108.996803 227.679946 
L 86.780237 259.944508 
L 89.785349 262.241041 
L 106.194318 245.175459 
L 108.72546 246.868873 
L 102.438335 263.197248 
L 105.537978 264.999849 
L 108.332412 267.396999 
L 111.561191 269.0122 
L 108.517329 284.808684 
L 112.293477 286.409462 
L 119.635604 278.366459 
L 123.203698 279.62084 
L 120.313631 302.460022 
L 124.638944 303.681171 
L 127.235263 312.373648 
L 131.86886 313.372265 
L 141.92259 281.868577 
L 145.589778 282.420474 
L 145.766464 317.04164 
L 150.537671 317.455287 
L 156.240306 294.306698 
L 160.291498 294.402265 
L 163.256989 248.303997 
L 165.858286 248.20169 
L 169.129652 255.798494 
L 171.963689 255.507831 
L 178.738974 281.386634 
L 182.372807 280.781182 
L 184.01131 270.900081 
L 187.312816 270.13404 
L 190.588603 269.264571 
L 193.835432 268.292534 
L 212.332583 310.690036 
L 216.871169 309.013838 
L 212.210108 285.623917 
L 215.96062 283.963964 
L 199.041541 240.976542 
L 201.394753 239.752712 
L 230.406956 284.364866 
L 234.108885 282.133387 
L 221.235979 255.119865 
L 224.022915 253.191201 
L 253.778729 286.546943 
L 257.537711 283.579525 
L 214.070676 226.260315 
L 215.953747 224.571213 
L 224.36276 229.497499 
L 226.342526 227.483191 
L 246.30628 241.545694 
L 248.654019 238.835476 
L 246.005202 232.1891 
L 248.058898 229.492975 
L 241.026004 220.525626 
L 242.715437 217.991824 
L 277.13056 235.111086 
L 279.26074 231.434867 
L 286.82201 230.567609 
L 288.804541 226.588916 
L 238.489634 199.557179 
L 239.521027 197.113494 
L 284.458667 210.804127 
L 285.82096 206.909514 
L 240.650351 189.159295 
L 241.353743 186.652814 
L 270.137551 190.612615 
L 270.872059 187.178272 
L 264.562959 182.578217 
L 265.047604 179.323125 
L 284.078927 177.937469 
L 284.408008 174.071046 
L 276.81088 169.901531 
L 276.890887 166.267605 
L 244.064816 163.458106 
L 243.958418 160.856974 
L 295.89482 153.658871 
L 295.454687 149.432934 
L 253.187253 151.564865 
L 252.702396 148.682783 
L 274.260385 141.010866 
L 273.433267 137.471417 
L 256.718217 138.440797 
L 255.818964 135.454183 
L 290.909403 119.748331 
L 289.405513 115.695914 
L 284.900624 112.9166 
L 283.1849 109.056489 
L 265.994184 112.963538 
L 264.289284 109.697864 
L 277.996497 97.432585 
L 275.797335 93.797211 
L 235.226919 115.915801 
L 233.630057 113.616057 
L 269.149605 82.855576 
L 266.496485 79.505575 
L 233.71537 102.414779 
L 231.694754 100.169237 
L 250.150036 77.667733 
L 247.343193 74.917685 
L 251.206935 64.677976 
L 247.991143 61.901119 
L 227.819828 80.735334 
L 225.120477 78.68588 
L 222.358021 76.722312 
L 219.535193 74.846574 
L 233.901575 44.244255 
L 230.051858 42.02162 
L 224.343288 43.391278 
L 220.471477 41.469598 
L 193.944388 91.162884 
L 191.589651 90.173392 
L 208.788872 35.714198 
L 204.683367 34.285379 
L 203.859574 21.752939 
L 199.317534 20.486011 
L 186.205449 56.668389 
L 182.769956 55.939281 
L 182.587532 35.278178 
L 178.481273 34.673402 
L 175.825573 19.431709 
L 171.224409 19.047378 
L 164.608506 74.222921 
L 161.735644 74.164189 
L 158.152642 47.651172 
L 154.447498 47.808565 
L 147.813174 15.411873 
L 143.099468 15.910301 
L 141.132881 34.311253 
L 137.016715 35.01038 
L 137.431986 56.438318 
L 134.013374 57.242868 
L 137.916974 83.686872 
L 135.354876 84.462701 
L 117.660661 42.631814 
L 113.817718 44.064845 
L 127.218385 85.831571 
L 124.729012 86.942727 
L 117.353254 78.368306 
L 114.634096 79.793334 
L 119.856052 94.781147 
L 117.651713 96.119366 
L 88.002098 56.717601 
L 84.616707 59.076198 
L 83.688025 64.635327 
L 80.553718 67.125653 
L 62.074964 52.076366 
L 58.556461 55.252463 
L 98.595721 102.336775 
L 96.639459 104.339729 
L 45.704796 62.828265 
L 42.53245 66.51376 
L 51.783316 79.917728 
L 49.145295 83.403652 
L 36.309292 79.908341 
L 33.678626 83.880807 
L 66.725266 109.135824 
L 64.998538 112.137494 
L 72.396748 119.834046 
L 71.003592 122.652103 
L 50.376826 117.069153 
L 48.907623 120.580931 
L 18.193423 113.452407 
L 16.626414 117.97789 
L 74.392567 139.966953 
L 73.631447 142.712303 
L 15.074122 132.33721 
L 14.102434 136.951434 
L 43.344557 146.458099 
L 42.802884 150.176457 
L 63.365371 155.962468 
L 63.112637 159.046628 
L 25.491244 160.840673 
L 25.410618 165.113266 
L 55.911321 168.524323 
L 56.057244 171.836644 
L 32.196736 177.34767 
L 32.63181 181.401267 
L 35.509373 185.079567 
L 36.185917 189.025184 
L 27.071219 195.13341 
L 28.06805 199.33937 
L 76.485283 189.919913 
L 77.293759 192.574764 
L 79.656447 194.677887 
L 80.612955 197.230678 
L 67.296941 205.916368 
L 68.612923 208.852213 
L 78.382461 207.512745 
L 79.743155 210.099246 
L 86.570728 209.475228 
L 87.989079 211.803302 
L 35.126116 250.822395 
L 37.869948 254.747557 
L 88.963347 221.366952 
L 90.754417 223.613917 
L 63.260824 251.556807 
L 66.013837 254.596989 
L 58.343552 268.01714 
L 61.616545 271.203794 
L 107.450225 226.344466 
L 109.388659 228.007703 
L 87.375458 260.411357 
L 90.394955 262.688944 
L 106.696266 245.520496 
L 109.238009 247.197958 
L 103.053704 263.565552 
L 106.164624 265.348622 
L 108.974079 267.72815 
L 112.212952 269.323012 
L 109.268501 285.138327 
L 113.054643 286.715324 
L 120.346039 278.626302 
L 123.921952 279.858216 
L 121.175587 302.715124 
L 125.508495 303.909045 
L 128.159433 312.585021 
L 132.799219 313.554475 
L 142.65461 281.988178 
L 146.325197 282.517 
L 146.719627 317.136369 
L 151.493341 317.52 
L 157.050272 294.336002 
L 161.101985 294.406088 
L 163.777485 248.290081 
L 166.378087 248.171415 
L 169.697168 255.747493 
L 172.529321 255.439012 
L 179.467235 281.274691 
L 183.097188 280.646396 
L 184.673512 270.755185 
L 187.970135 269.968394 
L 191.240388 269.07834 
L 194.48104 268.085902 
L 213.244482 310.366228 
L 217.772435 308.661519 
L 212.964357 285.301375 
L 216.704355 283.617866 
L 199.515243 240.737706 
L 201.860712 239.4991 
L 231.152927 283.927902 
L 234.840747 281.673184 
L 221.798197 254.741159 
L 224.572948 252.795005 
L 254.537961 285.96294 
L 258.278205 282.971939 
L 214.451525 225.927245 
L 216.323936 224.226333 
L 224.763765 229.099634 
L 226.730824 227.072914 
L 246.782628 241.009578 
L 249.113274 238.284648 
L 246.422708 231.655063 
L 248.459407 228.946075 
L 241.370252 220.023136 
L 243.043715 217.478759 
L 277.565828 234.381231 
L 279.672845 230.691686 
L 287.22851 229.77689 
L 289.185979 225.785806 
L 238.702053 199.071056 
L 239.718055 196.620933 
L 284.740913 210.028662 
L 286.078684 206.125558 
L 240.79733 188.659788 
L 241.484944 186.148932 
L 270.293087 189.927621 
L 271.005981 186.488727 
L 264.668073 181.928444 
L 265.132237 178.670367 
L 284.154468 177.165043 
L 284.459225 173.296627 
L 276.836023 169.174976 
L 244.091013 165.540619 
z
" clip-path="url(#p4a2763a11f)" style="fill: #0000ff; opacity: 0.5; stroke: #000000; stroke-width: 1.5; stroke-linejoin: miter"/>
   </g>
  </g>
 </g>
 <defs>
  <clipPath id="p4a2763a11f">
   <rect x="0" y="-0" width="310.253553" height="332.64"/>
  </clipPath>
 </defs>
</svg>
