<?xml version="1.0" encoding="utf-8" standalone="no"?>
<!DOCTYPE svg PUBLIC "-//W3C//DTD SVG 1.1//EN"
  "http://www.w3.org/Graphics/SVG/1.1/DTD/svg11.dtd">
<svg xmlns:xlink="http://www.w3.org/1999/xlink" width="317.402743pt" height="332.64pt" viewBox="0 0 317.402743 332.64" xmlns="http://www.w3.org/2000/svg" version="1.1">
 <metadata>
  <rdf:RDF xmlns:dc="http://purl.org/dc/elements/1.1/" xmlns:cc="http://creativecommons.org/ns#" xmlns:rdf="http://www.w3.org/1999/02/22-rdf-syntax-ns#">
   <cc:Work>
    <dc:type rdf:resource="http://purl.org/dc/dcmitype/StillImage"/>
    <dc:date>2023-12-09T18:06:25.001628</dc:date>
    <dc:format>image/svg+xml</dc:format>
    <dc:creator>
     <cc:Agent>
      <dc:title>Matplotlib v3.8.2, https://matplotlib.org/</dc:title>
     </cc:Agent>
    </dc:creator>
   </cc:Work>
  </rdf:RDF>
 </metadata>
 <defs>
  <style type="text/css">*{stroke-linejoin: round; stroke-linecap: butt}</style>
 </defs>
 <g id="figure_1">
  <g id="patch_1">
   <path d="M 0 332.64 
L 317.402743 332.64 
L 317.402743 0 
L 0 0 
L 0 332.64 
z
" style="fill: none"/>
  </g>
  <g id="axes_1">
   <g id="patch_2">
    <path d="M 266.627925 170.379671 
L 266.576098 167.083864 
L 247.542975 164.980193 
L 247.330813 162.287128 
L 245.470277 159.799821 
L 245.096257 157.174488 
L 247.736441 153.970907 
L 247.178028 151.277203 
L 296.914253 135.653734 
L 295.755593 131.422828 
L 240.502023 144.782673 
L 239.658288 142.320978 
L 274.638605 125.657129 
L 273.176643 122.131561 
L 302.975345 103.874856 
L 300.81449 99.469089 
L 261.922247 115.275109 
L 260.140139 112.154505 
L 257.595593 109.514154 
L 255.634487 106.532437 
L 249.75669 106.395765 
L 247.701411 103.662063 
L 272.872418 78.368681 
L 269.924477 74.922027 
L 224.959307 110.985739 
L 223.060608 109.029451 
L 245.897243 80.685569 
L 243.035488 78.085928 
L 230.558498 87.123964 
L 227.906764 85.003423 
L 252.948595 44.68452 
L 248.951401 41.880969 
L 226.737911 67.836632 
L 223.48163 65.845755 
L 215.995962 71.559777 
L 212.862055 69.90481 
L 195.617682 98.31619 
L 193.335131 97.288731 
L 199.120508 75.805911 
L 196.128453 74.679445 
L 193.830265 71.398031 
L 190.702232 70.440081 
L 184.620757 81.035357 
L 181.800296 80.36221 
L 179.399892 77.454959 
L 176.469437 76.947738 
L 180.262163 22.571018 
L 175.60561 22.063821 
L 171.32181 15.410106 
L 166.444523 15.187554 
L 161.667984 82.10934 
L 158.89264 82.157348 
L 154.190796 52.405907 
L 150.485208 52.7037 
L 146.991028 54.681348 
L 143.360544 55.204392 
L 133.935595 25.658927 
L 129.399038 26.606812 
L 141.870215 93.315697 
L 139.457012 93.980649 
L 112.81496 20.560814 
L 108.128549 22.175299 
L 108.74326 37.116236 
L 104.579401 38.850559 
L 126.758409 96.285541 
L 124.446056 97.424173 
L 89.394617 39.30758 
L 85.309226 41.649183 
L 82.146925 45.44715 
L 78.258159 48.013601 
L 102.331192 88.896357 
L 99.798584 90.806687 
L 78.184947 69.762964 
L 75.062682 72.441965 
L 106.640395 111.906722 
L 104.829154 113.670184 
L 63.34343 78.35829 
L 60.498759 81.499691 
L 51.060831 79.219289 
L 48.249305 82.746456 
L 83.237684 113.597335 
L 81.49117 116.095795 
L 71.825764 113.600934 
L 70.085005 116.458207 
L 38.694289 103.120894 
L 36.640396 107.025075 
L 52.560907 119.332883 
L 51.009898 122.793052 
L 29.028104 118.233459 
L 27.454163 122.434094 
L 53.021768 135.373362 
L 51.97488 138.811109 
L 50.272666 142.086283 
L 49.438206 145.607148 
L 61.108496 151.478775 
L 60.563999 154.654295 
L 36.653348 154.952832 
L 36.230173 158.895558 
L 79.987637 165.48515 
L 79.874196 168.060143 
L 14.427397 170.843142 
L 14.514838 175.476843 
L 15.534341 180.053494 
L 15.910828 184.647837 
L 26.592217 187.91071 
L 27.210286 192.153484 
L 42.661226 193.519779 
L 43.447711 197.254535 
L 72.571073 193.614841 
L 73.345759 196.409119 
L 77.202752 198.193111 
L 78.119098 200.839495 
L 65.946567 208.724516 
L 67.199609 211.719613 
L 38.645867 228.87501 
L 40.545983 232.718538 
L 88.745959 210.892963 
L 90.055909 213.170124 
L 58.907298 236.218554 
L 61.028293 239.421386 
L 81.052939 229.517652 
L 82.952294 232.02749 
L 44.372386 268.29116 
L 47.509 271.935144 
L 77.089641 250.558315 
L 79.652519 253.182365 
L 71.014793 267.834279 
L 74.123869 270.640794 
L 68.321023 284.315223 
L 71.949628 287.198287 
L 85.34053 276.536372 
L 88.716136 278.888152 
L 99.296109 269.790461 
L 102.452709 271.706782 
L 122.999436 241.680028 
L 125.260462 242.864963 
L 112.926924 275.418377 
L 116.253738 276.903333 
L 113.025822 295.165778 
L 116.973489 296.63786 
L 122.166705 294.231991 
L 126.080492 295.417126 
L 126.370418 310.999101 
L 130.809322 312.043771 
L 137.441478 301.325909 
L 141.570762 302.027264 
L 147.718998 286.168888 
L 151.36663 286.554589 
L 155.391191 280.531046 
L 158.857763 280.678304 
L 162.487112 314.605659 
L 167.021557 314.512959 
L 168.036591 262.38007 
L 170.926205 262.138704 
L 172.883722 254.77376 
L 175.531781 254.38375 
L 183.165 279.434033 
L 186.583348 278.708564 
L 200.366285 317.52 
L 204.973635 316.234854 
L 200.140382 286.369309 
L 203.768397 285.106668 
L 205.297906 278.611506 
L 208.679449 277.190536 
L 220.834941 294.159833 
L 224.697676 292.242658 
L 212.400286 261.281628 
L 215.233427 259.645913 
L 223.123462 265.880313 
L 226.095894 263.905164 
L 236.004544 271.364392 
L 239.143039 268.981522 
L 249.284154 274.964675 
L 252.529285 272.162485 
L 238.320001 250.969709 
L 240.816098 248.524119 
L 229.9516 233.66582 
L 231.907763 231.491908 
L 256.36706 247.719275 
L 258.752034 244.707854 
L 262.321586 242.542201 
L 264.540836 239.346116 
L 277.344023 242.777595 
L 279.563248 239.109055 
L 251.874423 219.218252 
L 253.365483 216.362181 
L 244.03994 208.489758 
L 245.197546 205.885325 
L 278.590084 215.820641 
L 279.961106 212.126251 
L 254.930399 200.023398 
L 255.816419 197.080731 
L 239.025106 189.709759 
L 239.594708 187.272288 
L 240.087388 184.818113 
L 240.50266 182.34966 
L 287.008102 185.412859 
L 287.418875 181.468822 
L 294.787236 177.915116 
L 294.958418 173.730193 
L 266.625851 169.720405 
L 266.553297 166.42499 
L 247.50732 164.441067 
L 247.278224 161.749391 
L 245.402081 159.273834 
L 245.011557 156.650906 
L 247.63154 153.430782 
L 247.056196 150.740644 
L 296.693175 134.804671 
L 295.507927 130.581137 
L 240.339475 144.28823 
L 239.480275 141.831891 
L 274.355094 124.948365 
L 272.870987 121.432062 
L 302.554275 102.988301 
L 300.365754 98.596211 
L 261.57369 114.646529 
L 259.771991 111.537195 
L 257.210889 108.9129 
L 255.231069 105.943577 
L 249.352528 105.843876 
L 247.280096 103.123154 
L 272.291524 77.671961 
L 269.321964 74.243916 
L 224.584504 110.58972 
L 222.673538 108.645413 
L 245.331455 80.158462 
L 242.453406 77.576871 
L 230.033507 86.693201 
L 227.368488 84.58938 
L 252.156241 44.113776 
L 248.141493 41.33542 
L 226.09169 67.43028 
L 222.822951 65.459922 
L 215.373369 71.220912 
L 212.229116 69.585688 
L 195.163775 98.104963 
L 192.874807 97.091881 
L 198.524955 75.573099 
L 195.525874 74.465474 
L 193.207093 71.198579 
L 190.073097 70.260322 
L 184.05838 80.893637 
L 181.233741 80.238242 
L 178.8151 77.346146 
L 175.881513 76.857366 
L 179.332165 22.457867 
L 174.672515 21.979967 
L 170.346951 15.353327 
L 165.46836 15.161455 
L 161.112816 82.111959 
L 158.337829 82.177421 
L 153.448958 52.456141 
L 149.745316 52.777234 
L 146.263644 54.776819 
L 142.636522 55.322687 
L 133.025935 25.837083 
L 128.495429 26.813482 
L 141.38592 93.442611 
L 138.976947 94.122727 
L 111.873653 20.871908 
L 107.19749 22.515836 
L 107.906158 37.452612 
L 103.75329 39.213088 
L 126.293092 96.507441 
L 123.987946 97.660594 
L 88.57168 39.765604 
L 84.501097 42.132855 
L 81.362746 45.950637 
L 77.490198 48.541495 
L 101.819884 89.272036 
L 99.299341 91.198258 
L 77.553779 70.290888 
L 74.448425 72.989473 
L 106.273725 112.254844 
L 104.47361 114.029663 
L 62.766615 78.979389 
L 59.941758 82.138619 
L 50.489674 79.917621 
L 47.700387 83.462402 
L 82.88211 114.092614 
L 81.151344 116.602008 
L 71.470438 114.167987 
L 69.747684 117.036152 
L 38.273704 103.896532 
L 36.244407 107.813554 
L 52.242012 120.020987 
L 50.712797 123.490842 
L 28.70276 119.069593 
L 27.155269 123.280044 
L 52.80375 136.05825 
L 51.778503 139.502514 
L 50.096923 142.788329 
L 49.284623 146.314373 
L 60.991612 152.112484 
L 60.467098 155.291365 
L 36.558797 155.740281 
L 36.160429 159.68559 
L 79.958471 165.999843 
L 79.861228 168.575499 
L 14.433227 171.770065 
L 14.54981 176.403125 
L 15.598077 180.973274 
L 16.003453 185.565158 
L 26.705152 188.760786 
L 27.349893 192.999589 
L 42.809121 194.268679 
L 43.619079 197.998415 
L 72.718974 194.175623 
L 73.511219 196.964974 
L 77.379356 198.724672 
L 78.312328 201.365241 
L 66.18963 209.326664 
L 67.461485 212.31382 
L 39.016206 229.648466 
L 40.940458 233.479966 
L 89.00221 211.351672 
L 90.326456 213.62055 
L 59.323422 236.864431 
L 61.464519 240.05386 
L 81.426481 230.024378 
L 83.341583 232.52222 
L 44.990516 269.027819 
L 48.149987 272.652004 
L 77.595595 251.089552 
L 80.174926 253.697431 
L 71.629523 268.403382 
L 74.756189 271.190287 
L 69.039462 284.900942 
L 72.686128 287.761127 
L 86.009708 277.015202 
L 89.400039 279.345704 
L 99.922582 270.181652 
L 103.091173 272.078082 
L 123.448642 241.922693 
L 125.717077 243.093384 
L 113.588525 275.723726 
L 116.924613 277.187728 
L 113.811621 295.470114 
L 117.768469 296.917339 
L 122.94645 294.478855 
L 126.867613 295.639351 
L 127.255536 311.219194 
L 131.700922 312.235926 
L 138.265538 301.476563 
L 142.399151 302.151934 
L 148.447525 286.255202 
L 152.097511 286.617954 
L 156.084107 280.569217 
L 159.551537 280.69467 
L 163.394198 314.598528 
L 167.92797 314.47731 
L 168.615098 262.339068 
L 171.503137 262.079533 
L 173.414294 254.702423 
L 176.059847 254.295766 
L 183.850467 279.297545 
L 187.264185 278.550591 
L 201.290952 317.274572 
L 205.890127 315.960474 
L 200.869133 286.125919 
L 204.489135 284.840484 
L 205.977763 278.33583 
L 209.350301 276.893621 
L 221.612281 293.786131 
L 225.462881 291.844699 
L 212.971007 260.961625 
L 215.793805 259.308124 
L 223.722894 265.492777 
L 226.682845 263.498972 
L 236.638213 270.895733 
L 239.761659 268.49317 
L 249.940205 274.412424 
L 253.167647 271.589879 
L 238.825353 250.48689 
L 241.306019 248.02565 
L 230.348287 233.235976 
L 232.290738 231.049803 
L 256.851612 247.123015 
L 259.217598 244.096653 
L 262.773459 241.908592 
L 264.972564 238.698613 
L 277.79708 242.049499 
L 279.993188 238.367074 
L 252.179808 218.650812 
L 253.652876 215.785419 
L 244.278004 207.971805 
L 245.419207 205.360142 
L 278.873572 215.085242 
L 280.221332 211.382302 
L 255.114999 199.437117 
L 255.982495 196.488935 
L 239.145154 189.223717 
L 239.699414 186.782712 
L 240.176649 184.325487 
L 240.576388 181.854471 
L 287.100176 184.625116 
L 287.486135 180.678574 
L 294.831999 177.078595 
L 294.976857 172.892679 
L 266.619632 169.061166 
L 266.526353 165.766272 
L 247.468274 163.902177 
L 247.222254 161.211995 
L 245.330578 158.748287 
L 244.923565 156.127866 
L 247.523244 152.891328 
L 246.930991 150.204862 
L 296.46676 133.957016 
L 295.254972 129.741019 
L 240.173822 143.79482 
L 239.299189 141.343933 
L 274.067131 124.241399 
L 272.560938 120.734499 
L 302.127638 102.104412 
L 299.911536 97.726174 
L 261.221187 114.020154 
L 259.399967 110.922213 
L 256.822411 108.314078 
L 254.823954 105.357265 
L 248.944903 105.294539 
L 246.8554 102.586905 
L 271.70626 76.978908 
L 268.715198 73.569608 
L 224.207218 110.196066 
L 222.284061 108.263816 
L 244.762363 79.634923 
L 241.868134 77.071485 
L 229.505817 86.265749 
L 226.827619 84.178731 
L 251.360313 43.548026 
L 247.32817 40.794976 
L 225.442925 67.028 
L 222.161858 65.07824 
L 214.748657 70.88597 
L 211.594181 69.270554 
L 194.708548 97.896596 
L 192.413254 96.89793 
L 197.927949 75.344038 
L 194.921961 74.255297 
L 192.582679 71.00305 
L 189.442844 70.084523 
L 183.495124 80.755457 
L 180.666419 80.117841 
L 178.229636 77.241014 
L 175.293032 76.770693 
L 178.401474 22.350568 
L 173.73891 21.901984 
L 169.371754 15.302681 
L 164.492053 15.141496 
L 160.557676 82.11807 
L 157.783156 82.200983 
L 152.707451 52.511039 
L 149.005902 52.85542 
L 145.536875 54.876863 
L 141.913258 55.445532 
L 132.117413 26.020957 
L 127.593138 27.025831 
L 140.902434 93.572568 
L 138.497786 94.267822 
L 110.934321 21.188916 
L 106.26859 22.862222 
L 107.071188 37.794245 
L 102.929474 39.580806 
L 125.82918 96.732263 
L 123.531333 97.899891 
L 87.75164 40.228794 
L 83.696026 42.6216 
L 80.581749 46.459045 
L 76.725573 49.074208 
L 101.310949 89.650924 
L 98.802572 91.59296 
L 76.925943 70.822771 
L 73.837624 73.540834 
L 105.909251 112.605265 
L 104.120334 114.391371 
L 62.193718 79.604103 
L 59.388787 82.781038 
L 49.922921 80.619532 
L 47.155984 84.181785 
L 82.529657 114.590118 
L 80.814708 117.110349 
L 71.118685 114.737263 
L 69.414004 117.616206 
L 37.858006 104.6748 
L 35.853385 108.604508 
L 51.927451 120.711084 
L 50.42009 124.190488 
L 28.382682 119.907757 
L 26.861703 124.127857 
L 52.590044 136.744496 
L 51.58648 140.19514 
L 49.925599 143.491466 
L 49.135492 147.02255 
L 60.878716 152.746915 
L 60.374205 155.929033 
L 36.469201 156.52831 
L 36.095654 160.476046 
L 79.932543 166.514709 
L 79.851502 169.090925 
L 14.444887 172.696934 
L 14.590607 177.329169 
L 15.667596 181.892634 
L 16.101844 186.481878 
L 26.823431 189.610135 
L 27.494818 193.844799 
L 42.961723 195.016634 
L 43.795123 198.741202 
L 72.870399 194.735465 
L 73.680172 197.519777 
L 77.5593 199.255112 
L 78.508861 201.889761 
L 66.436476 209.927272 
L 67.727093 212.906369 
L 39.391401 230.419577 
L 41.339713 234.238899 
L 89.261341 211.808761 
L 90.599831 214.069265 
L 59.7436 237.507678 
L 61.904715 240.683578 
L 81.803202 230.528745 
L 83.733976 233.014493 
L 45.613267 269.760576 
L 48.79547 273.364818 
L 78.10488 251.617596 
L 80.700562 254.209201 
L 72.24782 268.968607 
L 75.391952 271.735792 
L 69.76157 285.482131 
L 73.426154 288.319324 
L 86.681884 277.489814 
L 90.086806 279.798947 
L 100.551504 270.568894 
L 103.731959 272.445358 
L 123.899366 242.162529 
L 126.175119 243.31893 
L 114.252033 276.024908 
L 117.597263 277.467899 
L 114.599318 295.769503 
L 118.56519 297.191812 
L 123.727732 294.72081 
L 127.656117 295.856621 
L 128.14202 311.433716 
L 132.593713 312.422469 
L 139.090529 301.622032 
L 143.228308 302.27139 
L 149.17658 286.336932 
L 152.828776 286.676721 
L 156.77725 280.60303 
L 160.245401 280.706672 
L 164.301222 314.585691 
L 168.834142 314.435961 
L 169.193336 262.294429 
L 172.079685 262.016734 
L 173.944407 254.62775 
L 176.58735 254.204462 
L 184.535063 279.156748 
L 187.944015 278.388339 
L 202.214057 317.023334 
L 206.804876 315.680336 
L 201.596339 285.877949 
L 205.208185 284.569773 
L 206.655872 278.055885 
L 210.019273 276.592493 
L 222.387255 293.407548 
L 226.225568 291.441936 
L 213.539704 260.63804 
L 216.352047 258.966817 
L 224.319877 265.101478 
L 227.26723 263.089096 
L 237.268922 270.423097 
L 240.377196 268.000938 
L 250.592768 273.856057 
L 253.802394 271.013269 
L 239.327659 250.000902 
L 241.792796 247.524109 
L 230.742262 232.803646 
L 232.670924 230.605299 
L 257.332405 246.523719 
L 259.67931 243.482536 
L 263.221338 241.272154 
L 265.400211 238.048407 
L 278.245549 241.318568 
L 280.418452 237.622404 
L 252.481619 218.081462 
L 253.936636 215.206861 
L 244.512806 207.452364 
L 245.637561 204.833575 
L 279.152429 214.348074 
L 280.476873 210.63673 
L 255.295908 198.849687 
L 256.144844 195.896107 
L 239.262143 188.73693 
L 239.801039 186.292487 
L 240.262811 183.832309 
L 240.647 181.358828 
L 287.187293 183.83681 
L 287.548424 179.887918 
L 294.871501 176.241809 
L 294.990028 172.055065 
L 266.609266 168.401978 
L 266.495266 165.107736 
L 247.42584 163.363543 
L 247.162905 160.674961 
L 245.255771 158.223199 
L 244.832285 155.605391 
L 247.411556 152.352566 
L 246.802419 149.669878 
L 296.235019 133.110801 
L 294.996739 128.90251 
L 240.005068 143.302462 
L 239.115038 140.857124 
L 273.774727 123.536257 
L 272.246507 120.0389 
L 301.69545 101.223224 
L 299.451855 96.85901 
L 260.864751 113.396009 
L 259.024083 110.309583 
L 256.430174 107.717711 
L 254.41316 104.773526 
L 248.533831 104.747777 
L 246.42734 102.053338 
L 271.116648 76.28955 
L 268.104203 72.899129 
L 223.827463 109.804793 
L 221.892191 107.884677 
L 244.189989 79.114975 
L 241.279694 76.56979 
L 228.975449 85.841624 
L 226.284178 83.771492 
L 250.560842 42.987294 
L 246.511465 40.259658 
L 224.791643 66.629809 
L 221.498378 64.700724 
L 214.121851 70.554963 
L 210.957278 68.959419 
L 194.25202 97.691096 
L 191.95049 96.706886 
L 197.329514 75.118736 
L 194.316738 74.048923 
L 191.957048 70.811453 
L 188.811498 69.912692 
L 182.931009 80.620822 
L 180.09835 80.001009 
L 177.643522 77.139565 
L 174.704018 76.687724 
L 177.470127 22.249125 
L 172.804834 21.829875 
L 168.396258 15.258168 
L 163.51564 15.127677 
L 160.002585 82.127671 
L 157.228641 82.228033 
L 151.966304 52.5706 
L 148.266994 52.938254 
L 144.810749 54.981476 
L 141.190781 55.572925 
L 131.210066 26.210542 
L 126.6922 27.243851 
L 140.419774 93.705564 
L 138.019546 94.415928 
L 109.997002 21.511826 
L 105.341887 23.214443 
L 106.238383 38.141123 
L 102.107988 39.953698 
L 125.366691 96.959999 
L 123.076233 98.142056 
L 86.93453 40.697133 
L 82.894046 43.1154 
L 79.803965 46.972356 
L 75.964313 49.61172 
L 100.804408 90.033005 
L 98.308294 91.990779 
L 76.301466 71.358592 
L 73.230302 74.096026 
L 105.546988 112.957971 
L 103.769341 114.755293 
L 61.624761 80.232408 
L 58.839867 83.426922 
L 49.360593 81.324993 
L 46.616116 84.904579 
L 82.18034 115.08983 
L 80.481276 117.620796 
L 70.770519 115.30874 
L 69.083979 118.198348 
L 37.447211 105.455667 
L 35.467345 109.397905 
L 51.617237 121.403145 
L 50.131789 124.891961 
L 28.067881 120.747917 
L 26.573474 124.9775 
L 52.380658 137.432073 
L 51.398816 140.88896 
L 49.7587 144.195667 
L 48.990817 147.73165 
L 60.769812 153.382044 
L 60.285325 156.567272 
L 36.384563 157.316886 
L 36.035852 161.266894 
L 79.909854 167.029728 
L 79.845017 169.606403 
L 14.462376 173.623711 
L 14.637227 178.254938 
L 15.742897 182.811539 
L 16.206 187.397961 
L 26.94705 190.458723 
L 27.645057 194.689081 
L 43.119026 195.763615 
L 43.975835 199.482867 
L 73.025343 195.294342 
L 73.85261 198.073507 
L 77.742576 199.78441 
L 78.708689 202.413034 
L 66.687094 210.526315 
L 67.996423 213.497236 
L 39.77144 231.188312 
L 41.743734 234.995305 
L 89.523341 212.264212 
L 90.876022 214.516252 
L 60.167816 238.14827 
L 62.348863 241.310515 
L 82.183088 231.030732 
L 84.129458 233.504288 
L 46.240615 270.489402 
L 49.445424 274.073558 
L 78.617476 252.142427 
L 81.229407 254.717655 
L 72.86966 269.529932 
L 76.031134 272.277287 
L 70.48732 286.058767 
L 74.169675 288.872855 
L 87.357032 277.960188 
L 90.776409 280.24786 
L 101.182849 270.952174 
L 104.375043 272.808597 
L 124.351589 242.399526 
L 126.63457 243.54159 
L 114.917422 276.321911 
L 118.271661 277.743834 
L 115.388883 296.063931 
L 119.363622 297.461269 
L 124.51052 294.957846 
L 128.445971 296.068927 
L 129.029836 311.642659 
L 133.48766 312.603393 
L 139.916418 301.762308 
L 144.058199 302.38563 
L 149.906136 286.414075 
L 153.560396 286.730887 
L 157.470592 280.632483 
L 160.939326 280.71431 
L 165.208146 314.567151 
L 169.740035 314.388914 
L 169.771282 262.246154 
L 172.655827 261.950311 
L 174.474039 254.549745 
L 177.114268 254.109843 
L 185.21876 279.011649 
L 188.622812 278.221814 
L 203.135563 316.766295 
L 207.717845 315.394449 
L 202.321971 285.625411 
L 205.925517 284.294544 
L 207.332207 277.77168 
L 210.686338 276.287163 
L 223.159832 293.024097 
L 226.985707 291.034384 
L 214.106355 260.310884 
L 216.908131 258.622006 
L 224.914387 264.706433 
L 227.849025 262.675553 
L 237.896646 269.946504 
L 240.989624 267.504844 
L 251.24182 273.295596 
L 254.433503 270.432678 
L 239.826898 249.511765 
L 242.276409 247.019516 
L 231.13351 232.368846 
L 233.048308 230.158413 
L 257.809418 245.921411 
L 260.13715 242.865528 
L 263.665206 240.632912 
L 265.82376 237.395525 
L 278.689411 240.584831 
L 280.839025 236.875074 
L 252.779843 217.510225 
L 254.216751 214.62653 
L 244.744337 206.931457 
L 245.852598 204.305646 
L 279.426645 213.609166 
L 280.72772 209.889566 
L 255.47312 198.26113 
L 256.303462 195.302269 
L 239.376068 188.249416 
L 239.899579 185.801632 
L 240.345868 183.338599 
L 240.714494 180.86275 
L 287.269451 183.047972 
L 287.605738 179.096887 
L 294.905738 175.404792 
L 294.997931 171.217384 
L 266.594755 167.742869 
L 266.460038 164.449409 
L 247.380019 162.825186 
L 247.10018 160.138311 
L 245.177663 157.698593 
L 244.737721 155.083499 
L 247.296483 151.814517 
L 246.670485 149.135713 
L 295.99796 132.266061 
L 294.733237 128.065641 
L 239.833221 142.811174 
L 238.927829 140.371483 
L 273.477894 122.832969 
L 271.927708 119.345293 
L 301.257728 100.344771 
L 298.986729 95.994755 
L 260.504397 112.774117 
L 258.644354 109.69933 
L 256.034194 107.123823 
L 253.998703 104.192382 
L 248.119328 104.203611 
L 245.995933 101.522474 
L 270.522713 75.603914 
L 267.489003 72.232506 
L 223.445254 109.415917 
L 221.497944 107.50801 
L 243.614356 78.598636 
L 240.688112 76.071806 
L 228.442424 85.420843 
L 225.738186 83.367678 
L 249.757861 42.431601 
L 245.691408 39.729487 
L 224.137869 66.235722 
L 220.832537 64.327388 
L 213.492975 70.227906 
L 210.318429 68.652296 
L 193.794208 97.488472 
L 191.486534 96.518756 
L 196.729674 74.897202 
L 193.710229 73.846359 
L 191.330224 70.623794 
L 188.179083 69.744834 
L 182.366059 80.489738 
L 179.529558 79.887753 
L 177.056781 77.041805 
L 174.114494 76.608461 
L 176.53816 22.153541 
L 171.870322 21.763641 
L 167.420501 15.219792 
L 162.539159 15.12 
L 159.447566 82.140764 
L 156.674308 82.258571 
L 151.225547 52.634821 
L 147.528622 53.025735 
L 144.085296 55.090654 
L 140.469119 55.704858 
L 130.303929 26.405829 
L 125.792652 27.467533 
L 139.93796 93.841592 
L 137.542248 94.567038 
L 109.061733 21.840624 
L 104.417418 23.572486 
L 105.407777 38.493232 
L 101.288863 40.331749 
L 124.905644 97.190638 
L 122.622665 98.387078 
L 86.120381 41.170602 
L 82.095186 43.614233 
L 79.029425 47.490548 
L 75.206449 50.154009 
L 100.300279 90.418265 
L 97.816528 92.391699 
L 75.68037 71.898331 
L 72.626485 74.655026 
L 105.186951 113.312949 
L 103.420643 115.121416 
L 61.059768 80.864279 
L 58.29502 84.076245 
L 48.802714 82.033977 
L 46.080804 85.630753 
L 81.834173 115.591729 
L 80.151061 118.133331 
L 70.425955 115.882396 
L 68.757622 118.782554 
L 37.041336 106.239103 
L 35.086303 110.193714 
L 51.311382 122.097143 
L 49.847906 125.595233 
L 27.75837 121.590041 
L 26.290595 125.828939 
L 52.1756 138.120953 
L 51.21552 141.583947 
L 49.596234 144.900904 
L 48.850605 148.441646 
L 60.664905 154.017846 
L 60.200461 157.206058 
L 36.304886 158.105979 
L 35.981026 162.058102 
L 79.890405 167.54488 
L 79.841775 170.121912 
L 14.485693 174.55036 
L 14.689669 179.180395 
L 15.823975 183.729952 
L 16.315915 188.313371 
L 27.076003 191.306518 
L 27.800603 195.532402 
L 43.281024 196.509592 
L 44.161208 200.223382 
L 73.183798 195.852234 
L 74.028529 198.626141 
L 77.929178 200.312545 
L 78.911805 202.93504 
L 66.941475 211.12377 
L 68.269463 214.086397 
L 40.156305 231.954643 
L 42.152505 235.749156 
L 89.788201 212.718005 
L 91.155019 214.961494 
L 60.596053 238.786181 
L 62.796945 241.934646 
L 82.566123 231.53032 
L 84.528013 233.991586 
L 46.872534 271.214267 
L 50.099822 274.778196 
L 79.133362 252.664024 
L 81.761439 255.222773 
L 73.495018 270.087335 
L 76.673709 272.814752 
L 71.216682 286.630826 
L 74.916664 289.421699 
L 88.035125 278.426307 
L 91.468823 280.692428 
L 101.816592 271.331475 
L 105.020399 273.167784 
L 124.805294 242.633673 
L 127.095413 243.761357 
L 115.584666 276.614723 
L 118.947782 278.015522 
L 116.180284 296.353387 
L 120.163732 297.725699 
L 125.294784 295.189954 
L 129.237145 296.276262 
L 129.918948 311.846013 
L 134.382726 312.778691 
L 140.743173 301.897387 
L 144.888793 302.494647 
L 150.636162 286.486629 
L 154.292342 286.780451 
L 158.164106 280.657575 
L 161.633286 280.717584 
L 166.114937 314.542906 
L 170.645615 314.33617 
L 170.348912 262.194245 
L 173.23154 261.880266 
L 175.003171 254.468411 
L 177.640581 254.011911 
L 185.90153 278.862252 
L 189.300547 278.051023 
L 204.055434 316.503465 
L 208.628998 315.102827 
L 203.046 285.368314 
L 206.641105 284.014809 
L 208.006742 277.483226 
L 211.35147 275.977643 
L 223.929983 292.635796 
L 227.743268 290.622059 
L 214.670937 259.98017 
L 217.462035 258.273704 
L 225.506401 264.307656 
L 228.428207 262.25836 
L 238.52136 269.465973 
L 241.59892 267.004907 
L 251.887334 272.731065 
L 255.060948 269.84813 
L 240.323051 249.019498 
L 242.756839 246.511892 
L 231.522015 231.931594 
L 233.422873 229.709161 
L 258.282634 245.316115 
L 260.5911 242.245652 
L 264.105044 239.990891 
L 266.243195 236.739991 
L 279.12865 239.848317 
L 281.254889 236.125113 
L 253.074468 216.937124 
L 254.493211 214.044448 
L 244.972586 206.409103 
L 246.064311 203.776374 
L 279.696207 212.868549 
L 280.973863 209.140839 
L 255.646625 197.67147 
L 256.458342 194.707446 
L 239.486924 187.761196 
L 239.99503 185.310168 
L 240.425819 182.844376 
L 240.778866 180.366258 
L 287.346646 182.258632 
L 287.658076 178.30551 
L 294.934711 174.567575 
L 266.627925 170.379671 
z
" clip-path="url(#p2ffbfb7664)" style="fill: #0000ff; opacity: 0.5; stroke: #000000; stroke-width: 1.5; stroke-linejoin: miter"/>
   </g>
  </g>
 </g>
 <defs>
  <clipPath id="p2ffbfb7664">
   <rect x="0" y="-0" width="317.402743" height="332.64"/>
  </clipPath>
 </defs>
</svg>
