<?xml version="1.0" encoding="utf-8" standalone="no"?>
<!DOCTYPE svg PUBLIC "-//W3C//DTD SVG 1.1//EN"
  "http://www.w3.org/Graphics/SVG/1.1/DTD/svg11.dtd">
<svg xmlns:xlink="http://www.w3.org/1999/xlink" width="330.677355pt" height="332.64pt" viewBox="0 0 330.677355 332.64" xmlns="http://www.w3.org/2000/svg" version="1.1">
 <metadata>
  <rdf:RDF xmlns:dc="http://purl.org/dc/elements/1.1/" xmlns:cc="http://creativecommons.org/ns#" xmlns:rdf="http://www.w3.org/1999/02/22-rdf-syntax-ns#">
   <cc:Work>
    <dc:type rdf:resource="http://purl.org/dc/dcmitype/StillImage"/>
    <dc:date>2023-12-09T18:06:25.127219</dc:date>
    <dc:format>image/svg+xml</dc:format>
    <dc:creator>
     <cc:Agent>
      <dc:title>Matplotlib v3.8.2, https://matplotlib.org/</dc:title>
     </cc:Agent>
    </dc:creator>
   </cc:Work>
  </rdf:RDF>
 </metadata>
 <defs>
  <style type="text/css">*{stroke-linejoin: round; stroke-linecap: butt}</style>
 </defs>
 <g id="figure_1">
  <g id="patch_1">
   <path d="M 0 332.64 
L 330.677355 332.64 
L 330.677355 0 
L 0 0 
L 0 332.64 
z
" style="fill: none"/>
  </g>
  <g id="axes_1">
   <g id="patch_2">
    <path d="M 289.84569 171.900402 
L 289.783893 167.970523 
L 264.6505 165.615704 
L 264.403556 162.481125 
L 268.858171 158.748865 
L 268.393238 155.485383 
L 289.211516 148.15443 
L 288.403407 144.256231 
L 302.311873 136.571448 
L 301.133092 132.267072 
L 301.353206 127.503042 
L 299.889769 123.233293 
L 304.289864 116.634647 
L 302.483249 112.277936 
L 310.753188 103.168985 
L 308.519987 98.615711 
L 304.73186 94.91256 
L 302.242036 90.552693 
L 271.711903 104.004137 
L 269.524264 100.677994 
L 258.756226 103.589258 
L 256.561948 100.670675 
L 276.010709 79.817489 
L 273.060464 76.368141 
L 282.338665 61.411975 
L 278.806582 57.772762 
L 221.664589 111.308593 
L 219.731363 109.552436 
L 226.986024 96.666044 
L 224.589773 94.749808 
L 235.388454 74.631062 
L 232.295221 72.46153 
L 231.29225 66.983951 
L 227.9606 64.946995 
L 215.261362 79.984828 
L 212.346414 78.44549 
L 202.876824 90.868833 
L 200.310216 89.71351 
L 214.873574 45.13374 
L 210.863023 43.623826 
L 207.551632 39.939108 
L 203.381371 38.66198 
L 204.360132 17.202776 
L 199.476569 16.037237 
L 186.608634 57.017504 
L 182.98571 56.390426 
L 178.745414 60.678515 
L 175.241488 60.296863 
L 172.715646 43.928473 
L 168.688044 43.744693 
L 164.711174 78.361531 
L 161.77018 78.412404 
L 155.92313 33.492774 
L 151.575708 33.842146 
L 150.109278 56.72354 
L 146.495157 57.244226 
L 134.664549 15.12 
L 129.749958 16.146873 
L 132.746541 47.773889 
L 128.859609 48.844923 
L 128.517077 60.767696 
L 125.040789 61.965289 
L 112.654694 40.796666 
L 108.558316 42.502882 
L 112.448095 61.102522 
L 108.99028 62.805193 
L 114.556279 80.849607 
L 111.718313 82.476229 
L 81.620512 41.356592 
L 77.557084 44.038313 
L 103.530665 87.879792 
L 100.919195 89.849608 
L 103.009601 97.481945 
L 100.700301 99.463396 
L 107.86165 111.487534 
L 105.990318 113.309502 
L 62.34851 76.097363 
L 59.386937 79.367861 
L 62.132862 87.34213 
L 59.524955 90.61385 
L 60.942554 96.79993 
L 58.63261 100.104399 
L 53.699895 101.758592 
L 51.549442 105.288335 
L 82.770663 127.054336 
L 81.40119 129.657522 
L 79.383693 131.96112 
L 78.170176 134.668374 
L 76.291817 137.117677 
L 75.241962 139.919597 
L 30.527173 128.673534 
L 29.234442 132.91857 
L 45.27133 141.564219 
L 44.376621 145.339292 
L 84.812648 156.875978 
L 84.379824 159.400216 
L 77.624073 161.147619 
L 77.329113 163.89577 
L 49.753033 165.014668 
L 49.593441 168.637232 
L 34.226865 172.311204 
L 34.30437 176.418338 
L 69.913937 178.179606 
L 70.158313 181.161759 
L 76.094073 183.408987 
L 76.499816 186.194237 
L 16.041314 200.803201 
L 17.023661 205.468041 
L 15.030789 210.912439 
L 16.331492 215.604054 
L 62.209237 205.646104 
L 63.321028 208.856929 
L 46.564564 219.218817 
L 48.110846 222.914834 
L 83.278531 210.646733 
L 84.537136 213.192621 
L 66.834602 226.255949 
L 68.592125 229.311152 
L 72.482541 231.005789 
L 74.386617 233.881061 
L 55.561781 251.94084 
L 58.132467 255.337786 
L 93.633849 231.28409 
L 95.536217 233.49418 
L 89.307869 243.403376 
L 91.593434 245.743493 
L 99.448098 242.110574 
L 101.688 244.132499 
L 64.605268 294.083499 
L 68.49654 297.175262 
L 106.888131 252.379267 
L 109.447225 254.162183 
L 106.480927 264.73793 
L 109.428806 266.52754 
L 110.889533 271.056611 
L 114.033905 272.704481 
L 114.166624 280.832458 
L 117.61675 282.372454 
L 134.912242 248.505009 
L 137.335665 249.408702 
L 136.836663 259.451673 
L 139.603322 260.289445 
L 144.365418 253.220567 
L 146.932435 253.8247 
L 139.929005 305.877458 
L 144.153863 306.595046 
L 149.860058 295.172425 
L 153.743416 295.583052 
L 158.294173 284.601287 
L 161.840981 284.751953 
L 165.337521 273.501963 
L 168.531859 273.436659 
L 174.718893 317.52 
L 179.292617 317.137961 
L 176.716269 262.245401 
L 179.551051 261.82789 
L 185.780924 278.730862 
L 189.129563 278.020188 
L 193.271859 280.324699 
L 196.666908 279.377705 
L 211.670241 313.543895 
L 216.100677 312.001991 
L 206.3494 275.155094 
L 209.575439 273.799469 
L 233.930009 316.741657 
L 238.449985 314.498276 
L 221.720794 274.066006 
L 224.90499 272.227609 
L 245.456444 297.431963 
L 249.363581 294.835713 
L 226.449757 255.727737 
L 229.05502 253.749718 
L 242.978569 265.298421 
L 245.876583 262.795969 
L 242.031999 253.186158 
L 244.549644 250.719456 
L 237.534646 239.395026 
L 239.620892 237.076549 
L 265.3523 254.093155 
L 267.886934 250.892764 
L 286.695685 259.37107 
L 289.385715 255.496987 
L 296.735726 254.537436 
L 299.268811 250.350061 
L 265.516925 226.481898 
L 267.183319 223.289982 
L 295.086907 232.253492 
L 296.920152 228.128978 
L 284.344567 218.393127 
L 285.747323 214.613228 
L 258.600508 201.741057 
L 259.492415 198.778841 
L 263.419677 196.573313 
L 264.146715 193.462127 
L 255.259637 188.574456 
L 255.739209 185.723794 
L 263.334491 183.724652 
L 263.657582 180.622498 
L 315.408034 180.431427 
L 315.601832 175.693594 
L 289.843218 171.114302 
L 289.756706 167.184889 
L 264.608999 164.988192 
L 264.342345 161.855227 
L 268.773398 158.095025 
L 268.287949 154.834531 
L 289.059708 147.372788 
L 288.227097 143.479749 
L 302.086955 135.707641 
L 300.881125 131.410765 
L 301.071272 126.645444 
L 299.58101 122.384984 
L 303.939516 115.758794 
L 302.105535 111.413532 
L 310.31802 102.252748 
L 308.056226 97.71361 
L 304.244884 94.034357 
L 301.727688 89.690235 
L 271.282761 103.333431 
L 269.074246 100.021113 
L 258.32473 103.000044 
L 256.11214 100.09532 
L 275.429361 79.120225 
L 272.45748 75.6895 
L 281.641432 60.675275 
L 278.08653 57.058349 
L 221.282377 110.952512 
L 219.338145 109.208548 
L 226.511613 96.276783 
L 224.103358 94.375657 
L 234.77529 74.189391 
L 231.668473 72.039357 
L 230.631071 66.568194 
L 227.286676 64.552232 
L 214.682268 79.669639 
L 211.757696 78.148664 
L 202.366429 90.63132 
L 199.792606 89.492163 
L 214.075294 44.821679 
L 210.055326 43.337019 
L 206.720826 39.673201 
L 202.542615 38.422326 
L 203.38639 16.957391 
L 198.495593 15.82259 
L 185.885655 56.882979 
L 182.258859 56.278699 
L 178.045617 60.593372 
L 174.53936 60.233766 
L 171.91062 43.881586 
L 167.881941 43.72314 
L 164.122871 78.364306 
L 161.182254 78.433675 
L 155.052801 33.551708 
L 150.707663 33.928417 
L 149.385172 56.81858 
L 145.774398 57.361987 
L 133.679086 15.313002 
L 128.771051 16.370765 
L 131.966491 47.978309 
L 128.086372 49.073768 
L 127.818834 60.998459 
L 124.350147 62.217893 
L 111.831158 41.12759 
L 107.745593 42.859536 
L 111.752276 61.434343 
L 108.305238 63.158729 
L 113.984616 81.167779 
L 111.156937 82.812218 
L 80.801112 41.882692 
L 76.75463 44.589917 
L 103.003436 88.26717 
L 100.404407 90.253372 
L 102.542774 97.87241 
L 100.245982 99.868346 
L 107.482815 111.847205 
L 105.622979 113.680906 
L 61.747991 76.743986 
L 58.807045 80.033046 
L 61.60307 87.989887 
L 59.015792 91.277944 
L 60.47227 97.454986 
L 58.183155 100.773918 
L 53.260941 102.459103 
L 51.132731 106.0023 
L 82.49023 127.571507 
L 81.137157 130.183255 
L 79.134189 132.499496 
L 77.937722 135.21433 
L 76.074806 137.675398 
L 75.042593 140.483866 
L 30.257957 129.519255 
L 28.991951 133.772338 
L 45.082897 142.316953 
L 44.211949 146.097579 
L 84.719737 157.379717 
L 84.302797 159.906627 
L 77.55817 161.696486 
L 77.2805 164.446437 
L 49.712002 165.73875 
L 49.575198 169.362247 
L 34.232033 173.132794 
L 34.335367 177.239359 
L 69.955308 178.776628 
L 70.218434 181.757185 
L 76.168211 183.967036 
L 76.591464 186.749679 
L 16.22604 201.738604 
L 17.237706 206.397173 
L 15.279116 211.853997 
L 16.609301 216.537339 
L 62.423508 206.29104 
L 63.555472 209.494809 
L 46.864509 219.961881 
L 48.434007 223.6481 
L 83.523837 211.159057 
L 84.798429 213.696979 
L 67.178406 226.871387 
L 68.95511 229.915476 
L 72.856107 231.585611 
L 74.77823 234.44885 
L 56.067352 252.626669 
L 58.659352 256.00738 
L 94.008747 231.730877 
L 95.924979 233.928958 
L 89.759077 243.877131 
L 92.059314 246.202826 
L 99.890974 242.520579 
L 102.143549 244.528375 
L 65.375713 294.711617 
L 69.286354 297.778845 
L 107.395444 252.742274 
L 109.965701 254.50906 
L 107.065977 265.103254 
L 110.025053 266.874288 
L 111.514236 271.394083 
L 114.66891 273.022143 
L 114.852748 281.149125 
L 118.312491 282.667392 
L 135.394634 248.691837 
L 137.823693 249.58027 
L 137.387865 259.626181 
L 140.159738 260.446536 
L 144.877281 253.347847 
L 147.448047 253.935823 
L 140.772138 306.031599 
L 145.001426 306.722601 
L 150.635666 295.264317 
L 154.521529 295.650512 
L 159.003127 284.640342 
L 162.550813 284.768698 
L 165.976527 273.496939 
L 169.170392 273.411546 
L 175.634563 317.455102 
L 180.205793 317.044305 
L 177.284253 262.169034 
L 180.116353 261.733702 
L 186.452414 278.597157 
L 189.796517 277.865436 
L 193.953225 280.143849 
L 197.34225 279.175521 
L 212.560172 313.246673 
L 216.980824 311.676934 
L 206.997992 274.892096 
L 210.215442 273.516208 
L 234.839612 316.30437 
L 239.345389 314.032605 
L 222.362233 273.706352 
L 225.534803 271.847965 
L 246.244372 296.922563 
L 250.135103 294.301791 
L 226.975766 255.338703 
L 229.568536 253.344338 
L 243.564445 264.805241 
L 246.446662 262.284611 
L 242.541714 252.699171 
L 245.043795 250.216684 
L 237.957712 238.936597 
L 240.029334 236.605046 
L 265.867259 253.459479 
L 268.381713 250.243209 
L 287.243417 258.603052 
L 289.909027 254.712126 
L 297.252858 253.706367 
L 299.759557 249.503143 
L 265.858221 225.847732 
L 267.504506 222.645399 
L 295.463918 231.433234 
L 297.271186 227.297271 
L 284.634617 217.640706 
L 286.013572 213.852059 
L 258.786335 201.150881 
L 259.659594 198.183114 
L 263.572906 195.95293 
L 264.280363 192.837233 
L 255.362719 188.005553 
L 255.824353 185.151931 
L 263.406911 183.105059 
L 263.710485 180.000933 
L 315.458711 179.484385 
L 315.622707 174.745427 
L 289.835802 170.328232 
L 289.724577 166.399442 
L 264.563553 164.360953 
L 264.277199 161.229728 
L 268.684515 157.441731 
L 268.178568 154.184354 
L 288.902986 146.592116 
L 288.045907 142.704391 
L 301.856609 134.845266 
L 300.623778 130.556059 
L 300.78395 125.789637 
L 299.266921 121.538633 
L 303.583666 114.885162 
L 301.722392 110.551521 
L 309.877099 101.339266 
L 307.586801 96.814443 
L 303.752394 93.159234 
L 301.207926 88.83103 
L 270.849408 102.665438 
L 268.620104 99.367075 
L 257.889537 102.413556 
L 255.658721 99.522805 
L 274.84364 78.42663 
L 271.85024 75.014664 
L 280.939579 59.942975 
L 277.361999 56.348479 
L 220.897934 110.598842 
L 218.942771 108.867141 
L 226.034764 95.890514 
L 223.614599 94.004572 
L 234.15936 73.751585 
L 231.039082 71.621134 
L 229.96729 66.156604 
L 226.610282 64.161716 
L 214.101203 79.358099 
L 211.167123 77.855548 
L 201.854551 90.397023 
L 199.273614 89.274076 
L 213.275067 44.514645 
L 209.245841 43.055298 
L 205.888364 39.412524 
L 201.702368 38.187953 
L 202.411125 16.718135 
L 197.513287 15.614117 
L 185.161845 56.753003 
L 181.53132 56.171546 
L 177.345298 60.512633 
L 173.836849 60.175086 
L 171.105315 43.839763 
L 167.075719 43.706658 
L 163.534596 78.370781 
L 160.594474 78.458644 
L 154.18286 33.616115 
L 149.840177 34.020145 
L 148.661679 56.918173 
L 145.054394 57.484279 
L 132.694857 15.512199 
L 127.793571 16.600809 
L 131.187742 48.18763 
L 127.314589 49.307472 
L 127.122056 61.23361 
L 123.661108 62.474835 
L 111.00972 41.463687 
L 106.935128 43.221294 
L 111.058557 61.770535 
L 107.622433 63.516566 
L 113.414966 81.48954 
L 110.597685 83.151731 
L 79.985036 42.413935 
L 75.955662 45.146557 
L 102.478654 88.657856 
L 99.892168 90.660365 
L 102.078412 98.265803 
L 99.794219 100.276146 
L 107.106249 112.209252 
L 105.257983 114.054614 
L 61.15155 77.394373 
L 58.231349 80.701865 
L 61.077363 88.640964 
L 58.510816 91.945228 
L 60.006115 98.112987 
L 57.737919 101.446251 
L 52.826402 103.16236 
L 50.720519 106.718873 
L 82.213055 128.090432 
L 80.876436 130.710639 
L 78.888075 133.039431 
L 77.708707 135.761736 
L 75.861306 138.234472 
L 74.846778 141.049377 
L 29.994066 130.366653 
L 28.754835 134.627614 
L 44.899203 143.070857 
L 44.05205 146.856886 
L 84.629995 157.88403 
L 84.228956 160.413512 
L 77.49572 162.245755 
L 77.235351 164.997398 
L 49.675526 166.463077 
L 49.561514 170.087362 
L 34.242367 173.954334 
L 34.371528 178.060168 
L 70.000433 179.373378 
L 70.2823 182.352221 
L 76.245858 184.524607 
L 76.686603 187.304533 
L 16.416645 202.672826 
L 17.457591 207.324941 
L 15.53336 212.793975 
L 16.892974 217.468858 
L 62.641832 206.934617 
L 63.793923 210.131203 
L 47.169123 220.703044 
L 48.761773 224.379319 
L 83.772361 211.669828 
L 85.06289 214.199683 
L 67.526075 227.48465 
L 69.321889 230.517505 
L 73.233313 232.163072 
L 75.173405 235.014165 
L 56.577226 253.309306 
L 59.190437 256.673648 
L 94.386448 232.175297 
L 96.316466 234.361283 
L 90.213255 244.348039 
L 92.528074 246.659221 
L 100.33642 242.927789 
L 102.601578 244.921379 
L 66.150094 295.334877 
L 70.079948 298.377448 
L 107.90503 253.102084 
L 110.486348 254.852669 
L 107.653313 265.464892 
L 110.623469 267.217279 
L 112.14105 271.727619 
L 115.305902 273.335806 
L 115.540849 281.46147 
L 119.010073 282.957947 
L 135.878192 248.875628 
L 138.31279 249.748766 
L 137.940154 259.797219 
L 140.717132 260.600125 
L 145.389935 253.471905 
L 147.964347 254.0437 
L 141.616224 306.180434 
L 145.849774 306.844823 
L 151.411836 295.351329 
L 155.300052 295.713077 
L 159.712313 284.674937 
L 163.260736 284.780978 
L 166.61549 273.487897 
L 169.808755 273.382418 
L 176.549806 317.384446 
L 181.118363 316.944907 
L 177.851746 262.089096 
L 180.681052 261.635961 
L 187.123049 278.459232 
L 190.462483 277.706492 
L 194.633439 279.958718 
L 198.016308 278.969094 
L 213.448217 312.943859 
L 217.858908 311.346348 
L 207.644918 274.625023 
L 210.853651 273.228927 
L 235.746447 315.86137 
L 240.237847 313.561312 
L 223.001397 273.342671 
L 226.162217 271.464367 
L 247.029081 296.408218 
L 250.903252 293.763027 
L 227.499317 254.946369 
L 230.079492 252.935736 
L 244.147207 264.308386 
L 247.013514 261.769679 
L 243.048356 252.208988 
L 245.534774 249.710813 
L 238.377886 238.475517 
L 240.434803 236.130982 
L 266.378221 252.822576 
L 268.872397 249.590556 
L 287.786307 257.831604 
L 290.427393 253.92399 
L 297.764752 252.872062 
L 300.244966 248.653156 
L 266.195522 225.211433 
L 267.821633 221.998808 
L 295.835763 230.610621 
L 297.616982 226.463373 
L 284.919929 216.886476 
L 286.275027 213.089231 
L 258.968446 200.559548 
L 259.823022 197.586348 
L 263.72223 195.331595 
L 264.410077 192.21151 
L 255.462222 187.436013 
L 255.905898 184.579544 
L 263.475433 182.485022 
L 263.759478 179.379048 
L 315.503432 178.537044 
L 315.637619 173.797148 
L 289.823442 169.542226 
L 289.68751 165.614212 
L 264.514162 163.734012 
L 264.20812 160.60465 
L 268.591525 156.789008 
L 268.065101 153.534878 
L 288.741358 145.812446 
L 287.859844 141.930188 
L 301.620843 133.984357 
L 300.36106 129.702988 
L 300.491251 124.935653 
L 298.947516 120.694275 
L 303.222329 114.013786 
L 301.333836 109.691937 
L 309.430441 100.428575 
L 307.11173 95.918246 
L 303.254409 92.287226 
L 300.68277 87.975111 
L 270.411863 102.000183 
L 268.161859 98.715907 
L 257.450664 101.829816 
L 255.201711 98.953153 
L 274.253567 77.736733 
L 271.238767 74.343662 
L 280.233135 59.215104 
L 276.633017 55.643179 
L 220.511273 110.247596 
L 218.545258 108.528226 
L 225.555495 95.507252 
L 223.123517 93.636569 
L 233.540689 73.317661 
L 230.407073 71.206877 
L 229.300934 65.749196 
L 225.931445 63.775461 
L 213.518191 79.050219 
L 210.574719 77.566151 
L 201.341209 90.165949 
L 198.753261 89.059257 
L 212.472925 44.212651 
L 208.434601 42.778673 
L 205.054279 39.157088 
L 200.860664 37.958869 
L 201.434373 16.485018 
L 196.529689 15.411827 
L 184.437231 56.627582 
L 180.803121 56.068971 
L 176.644485 60.436299 
L 173.133982 60.120825 
L 170.299762 43.803005 
L 166.269409 43.695247 
L 162.946374 78.380956 
L 160.006863 78.487309 
L 153.313341 33.685993 
L 148.973285 34.117327 
L 147.938826 57.022315 
L 144.335173 57.611098 
L 131.7119 15.717581 
L 126.817558 16.836996 
L 130.410325 48.401845 
L 126.544292 49.546025 
L 126.426771 61.473138 
L 122.973698 62.736106 
L 110.190412 41.804944 
L 106.126955 43.588143 
L 110.366967 62.111082 
L 106.941892 63.878691 
L 112.84735 81.814877 
L 110.040579 83.494755 
L 79.172319 42.950301 
L 75.16021 45.708211 
L 101.956339 89.051835 
L 99.382499 91.070571 
L 101.616534 98.662109 
L 99.34503 100.686778 
L 106.731968 112.57366 
L 104.895345 114.43061 
L 60.559212 78.048498 
L 57.659871 81.374292 
L 60.555761 89.295333 
L 58.010046 92.615674 
L 59.544108 98.773907 
L 57.296921 102.12137 
L 52.396294 103.868336 
L 50.312821 107.438024 
L 81.93915 128.61109 
L 80.619037 131.239652 
L 78.645362 133.580904 
L 77.483139 136.310572 
L 75.651326 138.794878 
L 74.654522 141.616108 
L 29.73551 131.215694 
L 28.523102 135.484364 
L 44.720254 143.825901 
L 43.89693 147.617184 
L 84.543426 158.388897 
L 84.158305 160.920852 
L 77.436725 162.795407 
L 77.193668 165.548633 
L 49.643607 167.187618 
L 49.552392 170.812549 
L 34.257869 174.775794 
L 34.41285 178.880734 
L 70.04931 179.969832 
L 70.349906 182.946843 
L 76.32701 185.081679 
L 76.78523 187.858778 
L 16.613122 203.605831 
L 17.683307 208.251307 
L 15.793511 213.732335 
L 17.1825 218.398574 
L 62.864199 207.576807 
L 64.036372 210.766084 
L 47.478391 221.442277 
L 49.094132 225.108462 
L 84.024092 212.179026 
L 85.330506 214.700714 
L 67.877593 228.095715 
L 69.692447 231.117215 
L 73.614143 232.738149 
L 75.572129 235.576984 
L 57.091383 253.988722 
L 59.725703 257.336562 
L 94.766937 232.617332 
L 96.710666 234.791136 
L 90.670386 244.81608 
L 92.999695 247.112658 
L 100.784418 243.33219 
L 103.06207 245.311494 
L 66.928379 295.953254 
L 70.877292 298.971048 
L 108.416869 253.458681 
L 111.009146 255.192997 
L 108.242912 265.822828 
L 111.224031 267.5565 
L 112.76995 272.057206 
L 115.944853 273.645456 
L 116.230902 281.769482 
L 119.709469 283.24411 
L 136.362895 249.056374 
L 138.802937 249.914182 
L 138.493508 259.96478 
L 141.27548 260.750204 
L 145.903358 253.592736 
L 148.481316 254.148329 
L 142.461229 306.323957 
L 146.698874 306.961706 
L 152.188538 295.433458 
L 156.078953 295.770743 
L 160.421703 284.705072 
L 163.970723 284.788793 
L 167.254383 273.474835 
L 170.446921 273.349275 
L 177.464587 317.308035 
L 182.030289 316.839771 
L 178.418725 262.005591 
L 181.245125 261.534669 
L 187.792803 278.317092 
L 191.127437 277.543364 
L 195.312476 279.769311 
L 198.689053 278.75843 
L 214.334339 312.635466 
L 218.734895 311.010246 
L 208.290152 274.353888 
L 211.49004 272.937638 
L 236.650478 315.412676 
L 241.127323 313.084415 
L 223.638261 272.974977 
L 226.787205 271.076831 
L 247.81054 295.888947 
L 251.667997 293.219442 
L 228.02039 254.550749 
L 230.587869 252.523929 
L 244.726832 263.807876 
L 247.577115 261.251191 
L 243.551905 251.715628 
L 246.022562 249.201865 
L 238.795151 238.011804 
L 240.837282 235.654378 
L 266.885168 252.182473 
L 269.358967 248.934829 
L 288.324334 257.056756 
L 290.940791 253.132608 
L 298.271389 252.034554 
L 300.725019 247.800132 
L 266.528814 224.573024 
L 268.134687 221.350236 
L 296.202426 229.785685 
L 297.957526 225.627317 
L 285.200491 216.130466 
L 286.53168 212.324774 
L 259.146835 199.967082 
L 259.982694 196.988565 
L 263.867644 194.709333 
L 264.535853 191.584984 
L 255.55814 186.865858 
L 255.983842 184.006655 
L 263.540054 181.864566 
L 263.804558 178.756868 
L 315.542193 177.58944 
L 315.646566 172.848794 
L 289.806139 168.756312 
L 289.645504 164.829231 
L 264.460829 163.107395 
L 264.135111 159.980019 
L 268.494431 156.136884 
L 267.947551 152.886129 
L 288.57483 145.033807 
L 287.668916 141.15717 
L 301.379668 133.124948 
L 300.092983 128.851587 
L 300.193187 124.083527 
L 298.622806 119.851942 
L 302.855518 113.144699 
L 300.93988 108.834813 
L 308.978064 99.520711 
L 306.631031 95.025055 
L 302.75095 91.418368 
L 300.152241 87.122512 
L 269.970143 101.337693 
L 267.699526 98.067633 
L 257.008129 101.248848 
L 254.741128 98.386386 
L 273.659167 77.050561 
L 270.623086 73.676518 
L 279.522126 58.49169 
L 275.899615 54.942479 
L 220.122411 109.89879 
L 218.145621 108.191819 
L 225.073825 95.127012 
L 222.630129 93.271661 
L 232.919301 72.887638 
L 229.772472 70.796604 
L 228.632028 65.345988 
L 225.250193 63.393484 
L 212.933253 78.746012 
L 209.980505 77.280486 
L 200.826424 89.938108 
L 198.231566 88.847715 
L 211.6689 43.915707 
L 207.621636 42.507157 
L 204.218604 38.906904 
L 200.017536 37.735084 
L 200.456175 16.258049 
L 195.544838 15.215726 
L 183.711844 56.506722 
L 180.074292 55.970977 
L 175.943206 60.364375 
L 172.430788 60.070986 
L 169.493995 43.771315 
L 165.463044 43.688907 
L 162.358227 78.394831 
L 159.419443 78.519669 
L 152.444279 33.761337 
L 148.107022 34.21996 
L 147.216643 57.131001 
L 143.616764 57.742437 
L 130.730254 15.929142 
L 125.843049 17.079318 
L 129.63427 48.620946 
L 125.77551 49.789418 
L 125.733006 61.717034 
L 122.287944 63.001695 
L 109.373267 42.151347 
L 105.321105 43.960068 
L 109.677532 62.455973 
L 106.263642 64.245088 
L 112.281792 82.143778 
L 109.485642 83.841275 
L 78.36299 43.491767 
L 74.368307 46.274856 
L 101.436513 89.449091 
L 98.875421 91.483975 
L 101.157158 99.061312 
L 98.898433 101.100228 
L 106.359986 112.940414 
L 104.535078 114.80888 
L 59.971 78.706337 
L 57.092633 82.050299 
L 60.038284 89.952971 
L 57.513504 93.289257 
L 59.086267 99.43772 
L 56.860178 102.79925 
L 51.970635 104.577004 
L 49.909655 108.159724 
L 81.668525 129.13346 
L 80.36497 131.770273 
L 78.406059 134.123892 
L 77.261027 136.860816 
L 75.444876 139.356594 
L 74.465836 142.184037 
L 29.482299 132.066344 
L 28.296762 136.342555 
L 44.546058 144.582057 
L 43.746595 148.378443 
L 84.460035 158.894299 
L 84.090846 161.428626 
L 77.381189 163.345419 
L 77.155453 166.100119 
L 49.616245 167.912347 
L 49.54783 171.53778 
L 34.278536 175.597139 
L 34.459332 179.701024 
L 70.101937 180.565967 
L 70.421251 183.541028 
L 76.411663 185.63823 
L 76.887341 188.412392 
L 16.815463 204.537582 
L 17.914844 209.176235 
L 16.059558 214.66904 
L 17.477868 219.326451 
L 63.090601 208.217586 
L 64.282809 211.399428 
L 47.792303 222.17955 
L 49.43107 225.8355 
L 84.27902 212.68663 
L 85.601269 215.200052 
L 68.232948 228.704557 
L 70.066769 231.714583 
L 73.998583 233.310819 
L 75.974385 236.137283 
L 57.609804 254.664891 
L 60.265127 257.996096 
L 95.150199 233.056966 
L 97.107561 235.218502 
L 91.130452 245.281238 
L 93.474159 247.56312 
L 101.234951 243.733765 
L 103.525006 245.698705 
L 67.710538 296.566724 
L 71.678353 299.559622 
L 108.930941 253.812052 
L 111.534075 255.53003 
L 108.834751 266.177048 
L 111.826715 267.891937 
L 113.400909 272.38283 
L 116.585739 273.951081 
L 116.922878 282.073147 
L 120.410651 283.525868 
L 136.848726 249.234067 
L 139.294115 250.076512 
L 139.047904 260.128858 
L 141.834761 260.896769 
L 146.417532 253.710336 
L 148.998933 254.249704 
L 143.30712 306.462163 
L 147.548692 307.073247 
L 152.965742 295.5107 
L 156.8582 295.82351 
L 161.131268 284.730744 
L 164.680744 284.792142 
L 167.893181 273.457756 
L 171.084866 273.312118 
L 178.378869 317.225873 
L 182.941536 316.728902 
L 178.985167 261.918521 
L 181.808549 261.429832 
L 188.46165 278.170741 
L 191.791352 277.376056 
L 195.990308 279.575638 
L 199.360461 278.54354 
L 215.218504 312.321506 
L 219.608752 310.668641 
L 208.933667 274.078699 
L 212.124585 272.642352 
L 237.551669 314.958306 
L 242.013781 312.601933 
L 224.272801 272.603285 
L 227.409744 270.685371 
L 248.588717 295.364772 
L 252.429308 292.671059 
L 228.538964 254.151861 
L 231.093645 252.108932 
L 245.303299 263.30373 
L 248.137445 260.729169 
L 244.052341 251.219111 
L 246.507139 248.689858 
L 239.209492 237.545475 
L 241.236756 235.175252 
L 267.388079 251.539193 
L 269.841403 248.276055 
L 288.857477 256.27854 
L 291.449202 252.338014 
L 298.772749 251.193876 
L 301.199698 246.944106 
L 266.858084 223.932532 
L 268.443656 220.699708 
L 296.563894 228.95846 
L 298.292805 224.789135 
L 285.476293 215.372707 
L 286.78352 211.558717 
L 259.321493 199.373505 
L 260.138603 196.38979 
L 264.009141 194.086169 
L 264.657687 190.957679 
L 255.65047 186.295111 
L 256.058181 183.433287 
L 263.600771 181.243717 
L 263.845724 178.134416 
L 315.574993 176.64161 
L 289.84569 171.900402 
z
" clip-path="url(#p5fd973524a)" style="fill: #0000ff; opacity: 0.5; stroke: #000000; stroke-width: 1.5; stroke-linejoin: miter"/>
   </g>
  </g>
 </g>
 <defs>
  <clipPath id="p5fd973524a">
   <rect x="0" y="-0" width="330.677355" height="332.64"/>
  </clipPath>
 </defs>
</svg>
