<?xml version="1.0" encoding="utf-8" standalone="no"?>
<!DOCTYPE svg PUBLIC "-//W3C//DTD SVG 1.1//EN"
  "http://www.w3.org/Graphics/SVG/1.1/DTD/svg11.dtd">
<svg xmlns:xlink="http://www.w3.org/1999/xlink" width="322.084963pt" height="332.64pt" viewBox="0 0 322.084963 332.64" xmlns="http://www.w3.org/2000/svg" version="1.1">
 <metadata>
  <rdf:RDF xmlns:dc="http://purl.org/dc/elements/1.1/" xmlns:cc="http://creativecommons.org/ns#" xmlns:rdf="http://www.w3.org/1999/02/22-rdf-syntax-ns#">
   <cc:Work>
    <dc:type rdf:resource="http://purl.org/dc/dcmitype/StillImage"/>
    <dc:date>2023-12-09T18:06:17.690329</dc:date>
    <dc:format>image/svg+xml</dc:format>
    <dc:creator>
     <cc:Agent>
      <dc:title>Matplotlib v3.8.2, https://matplotlib.org/</dc:title>
     </cc:Agent>
    </dc:creator>
   </cc:Work>
  </rdf:RDF>
 </metadata>
 <defs>
  <style type="text/css">*{stroke-linejoin: round; stroke-linecap: butt}</style>
 </defs>
 <g id="figure_1">
  <g id="patch_1">
   <path d="M 0 332.64 
L 322.084963 332.64 
L 322.084963 0 
L 0 0 
L 0 332.64 
z
" style="fill: none"/>
  </g>
  <g id="axes_1">
   <g id="patch_2">
    <path d="M 249.163869 169.031749 
L 249.123704 166.477533 
L 271.4794 162.510344 
L 271.223154 159.257703 
L 263.683169 156.922891 
L 263.255096 153.918144 
L 298.284334 144.139563 
L 297.437217 140.053199 
L 288.672128 137.997689 
L 287.63665 134.216591 
L 258.182755 139.675001 
L 257.21509 136.851727 
L 291.30182 120.130957 
L 289.703272 116.276009 
L 303.26413 105.274872 
L 301.19256 101.051149 
L 257.41621 119.776847 
L 255.823282 116.987512 
L 259.574299 110.7988 
L 257.698015 107.946049 
L 286.952305 82.44151 
L 284.170869 78.741955 
L 264.551317 88.985792 
L 261.986724 85.987338 
L 276.906152 66.54009 
L 273.629708 63.16427 
L 257.046137 73.97554 
L 254.013299 71.220486 
L 233.482556 89.648365 
L 230.954157 87.626453 
L 229.307729 84.382747 
L 226.615832 82.494705 
L 224.726475 79.333165 
L 221.878073 77.591664 
L 217.042695 79.466764 
L 214.202292 77.966791 
L 217.123916 64.178342 
L 213.802772 62.683375 
L 225.491076 23.136299 
L 220.875343 21.398542 
L 214.226589 25.928824 
L 209.704228 24.543866 
L 189.618976 84.087546 
L 186.93742 83.447551 
L 196.80509 16.509403 
L 191.995176 15.676873 
L 181.182323 62.882754 
L 177.838213 62.51851 
L 173.547769 77.512757 
L 170.667433 77.381326 
L 167.73886 48.385401 
L 163.945569 48.451017 
L 158.239037 18.938219 
L 153.524558 19.317089 
L 152.502145 48.564641 
L 148.722022 49.109243 
L 142.527232 37.135683 
L 138.392689 37.99957 
L 138.71913 56.123878 
L 135.183501 57.098111 
L 131.680252 58.183031 
L 128.212848 59.377564 
L 108.717354 20.32904 
L 104.07109 22.264293 
L 132.160616 93.416395 
L 129.800788 94.578404 
L 123.200308 88.069855 
L 120.676804 89.516239 
L 97.876188 59.166876 
L 94.456432 61.423797 
L 118.138318 100.817641 
L 116.018135 102.416882 
L 78.991275 62.019299 
L 75.670542 64.868593 
L 77.960549 73.671227 
L 75.006688 76.547167 
L 50.402367 59.194709 
L 47.006958 62.944296 
L 67.328637 86.223051 
L 64.774689 89.427076 
L 56.455756 88.469712 
L 53.977824 92.014493 
L 41.409417 89.19716 
L 38.961797 93.214672 
L 27.465744 92.294146 
L 25.122394 96.748546 
L 68.098725 122.384746 
L 66.6814 125.546678 
L 51.888583 123.45933 
L 50.51306 127.130414 
L 28.581239 124.190686 
L 27.240235 128.594242 
L 60.341479 141.739622 
L 59.536549 145.13589 
L 80.972956 152.71033 
L 80.502768 155.452474 
L 71.338079 157.125676 
L 71.011483 160.16858 
L 36.257113 161.155003 
L 36.074553 165.298936 
L 19.936257 169.497147 
L 20.024062 174.150119 
L 14.640226 179.169573 
L 15.034771 183.984282 
L 61.045633 182.889493 
L 61.534196 186.243275 
L 51.863732 191.573527 
L 52.629881 195.211715 
L 79.97419 191.933286 
L 80.737752 194.687441 
L 16.640741 218.767381 
L 18.279339 223.499611 
L 71.593809 207.566415 
L 72.853054 210.576338 
L 32.79416 233.213904 
L 34.879002 237.431092 
L 56.790724 230.659304 
L 58.783379 234.123251 
L 43.946526 248.360028 
L 46.502081 252.219073 
L 71.889621 239.363378 
L 74.148486 242.348278 
L 47.465367 269.468516 
L 50.682879 273.206484 
L 71.541289 260.255332 
L 74.457215 263.240856 
L 95.558169 246.712926 
L 98.036417 248.950002 
L 112.318097 236.806876 
L 114.476591 238.521881 
L 100.704628 262.357513 
L 103.672232 264.425038 
L 107.559673 265.036463 
L 110.608119 266.887126 
L 121.018857 255.218498 
L 123.751951 256.650828 
L 111.936985 289.352951 
L 115.747831 291.053959 
L 118.731762 294.881623 
L 122.713082 296.366254 
L 135.565423 270.147852 
L 138.760737 271.115425 
L 138.840205 284.460877 
L 142.483932 285.318407 
L 148.801221 271.827666 
L 152.042807 272.378246 
L 149.957292 316.739851 
L 154.610443 317.231876 
L 159.884729 307.139013 
L 164.231101 307.323645 
L 168.444545 278.416689 
L 171.883592 278.346382 
L 174.666655 268.538312 
L 177.792028 268.277252 
L 186.35049 309.386504 
L 190.754442 308.737883 
L 183.54182 248.75252 
L 186.040696 248.222189 
L 206.056381 314.524786 
L 210.612149 313.254028 
L 198.467892 261.437512 
L 201.358233 260.4316 
L 220.109801 298.889759 
L 224.167022 297.184861 
L 205.318949 247.43819 
L 207.765733 246.223788 
L 228.948484 278.666968 
L 232.365485 276.694161 
L 244.844373 288.828007 
L 248.573 286.350375 
L 240.316046 267.552638 
L 243.377968 265.227905 
L 244.817188 260.957201 
L 247.66951 258.494203 
L 275.917229 282.774322 
L 279.440152 279.322684 
L 230.989557 227.596545 
L 232.799784 225.584813 
L 245.752511 232.682928 
L 247.715365 230.204501 
L 249.599321 227.665584 
L 251.402517 225.068686 
L 302.876821 253.592998 
L 305.468889 249.308119 
L 242.169071 209.288171 
L 243.398114 206.933983 
L 278.121125 220.099325 
L 279.672319 216.60938 
L 269.11996 208.40583 
L 270.307936 205.204683 
L 269.095426 201.235855 
L 270.057974 198.039024 
L 264.677653 193.250979 
L 265.391324 190.197001 
L 266.008617 187.122093 
L 266.528924 184.029297 
L 249.383102 178.812168 
L 249.650347 176.246223 
L 260.276063 174.264694 
L 260.394939 171.358499 
L 249.162262 168.520825 
L 249.106033 165.966912 
L 271.436336 161.859196 
L 271.159638 158.608232 
L 263.605117 156.320889 
L 263.158155 153.318893 
L 298.125198 143.320192 
L 297.252397 139.239237 
L 288.474553 137.238894 
L 287.415315 133.464383 
L 257.996332 139.107934 
L 257.01093 136.290801 
L 290.991821 119.355976 
L 289.36906 115.511159 
L 302.860458 104.424949 
L 300.762365 100.214338 
L 257.104654 119.214994 
L 255.494215 116.435733 
L 259.206234 110.223552 
L 257.312045 107.382658 
L 286.405347 81.69463 
L 283.600698 78.012642 
L 264.045963 88.379673 
L 261.462562 85.397408 
L 276.259382 65.856709 
L 272.961771 62.501564 
L 256.446525 73.416921 
L 253.396419 70.680997 
L 232.981983 89.237638 
L 230.440917 87.231668 
L 228.774121 83.998381 
L 226.070402 82.127307 
L 224.161199 78.977713 
L 221.3019 77.254161 
L 216.47841 79.159635 
L 213.62863 77.677557 
L 216.463475 63.871005 
L 213.132994 62.396955 
L 224.572338 22.777149 
L 219.945767 21.068457 
L 213.325637 25.640466 
L 208.794655 24.283979 
L 189.084296 83.952806 
L 186.398768 83.329689 
L 195.845239 16.330803 
L 191.030184 15.528541 
L 180.514443 62.801495 
L 177.168109 62.45829 
L 172.972055 77.479225 
L 170.09095 77.365913 
L 166.980067 48.388981 
L 163.187263 48.478452 
L 157.295226 19.002129 
L 152.583223 19.410643 
L 151.74478 48.664047 
L 147.968157 49.232414 
L 141.698182 37.298052 
L 137.569155 38.187925 
L 138.009581 56.309822 
L 134.480149 57.306273 
L 130.983794 58.413204 
L 127.523971 59.629522 
L 107.783269 20.704386 
L 103.149269 22.668823 
L 131.685745 93.642851 
L 129.333273 94.819678 
L 122.691989 88.352772 
L 120.177631 89.814999 
L 97.186586 59.609639 
L 93.781092 61.888023 
L 117.710275 101.132143 
L 115.600191 102.744687 
L 78.319986 62.580781 
L 75.017239 65.450903 
L 77.362565 74.238961 
L 74.42685 77.133422 
L 49.713879 59.936055 
L 46.34212 63.706923 
L 66.809806 86.857406 
L 64.276061 90.07743 
L 55.951271 89.172406 
L 53.495683 92.732702 
L 40.909805 89.994473 
L 38.487501 94.027299 
L 26.985886 93.179095 
L 24.670598 97.648146 
L 67.807317 123.013542 
L 66.409906 126.184326 
L 51.604254 124.190057 
L 50.251847 127.86972 
L 28.30197 125.067989 
L 26.988688 129.479891 
L 60.171955 142.416824 
L 59.388401 145.818087 
L 80.872024 153.257554 
L 80.419092 156.002601 
L 71.265107 157.733411 
L 70.957656 160.778308 
L 36.210177 161.983297 
L 36.053683 166.128297 
L 19.942111 170.427926 
L 20.059179 175.080254 
L 14.707019 180.13347 
L 15.131838 184.945602 
L 61.134904 183.561452 
L 61.644552 186.912095 
L 52.007803 192.303064 
L 52.796819 195.93636 
L 80.119968 192.486016 
L 80.900836 195.235314 
L 16.956542 219.717912 
L 18.624871 224.439743 
L 71.838076 208.171543 
L 73.116227 211.173487 
L 33.200502 234.062553 
L 35.311827 238.266546 
L 57.180524 231.357079 
L 59.194926 234.808425 
L 44.447908 249.138236 
L 47.027684 252.981131 
L 72.333867 239.966017 
L 74.61146 242.936652 
L 48.09944 270.224175 
L 51.340398 273.941832 
L 72.11694 260.859749 
L 75.051586 263.826874 
L 96.048171 247.166558 
L 98.54044 249.388003 
L 112.745464 237.155294 
L 114.914702 238.856689 
L 101.292924 262.778467 
L 104.273473 264.827287 
L 108.164682 265.414251 
L 111.224708 267.245704 
L 121.561851 255.511828 
L 124.303899 256.926941 
L 112.694844 289.702726 
L 116.516313 291.379732 
L 119.524259 295.188554 
L 123.514838 296.648116 
L 136.202027 270.349397 
L 139.403362 271.296855 
L 139.566764 284.641543 
L 143.215812 285.476139 
L 149.448127 271.945933 
L 152.693112 272.476114 
L 150.886647 316.849959 
L 155.542802 317.312709 
L 160.753505 307.186873 
L 165.100952 307.344164 
L 169.132504 278.41128 
L 172.571041 278.319345 
L 175.292362 268.493965 
L 178.416031 268.213254 
L 187.232877 309.267864 
L 191.632663 308.591558 
L 184.042909 248.652745 
L 186.5384 248.106707 
L 206.970695 314.282106 
L 211.518381 312.98272 
L 199.048468 261.243609 
L 201.932425 260.219539 
L 220.925503 298.559 
L 224.97192 296.828618 
L 205.811342 247.201475 
L 208.250439 245.971708 
L 229.63682 278.281019 
L 233.041346 276.28676 
L 245.596302 288.341881 
L 249.309273 285.840847 
L 240.934254 267.095413 
L 243.981495 264.751469 
L 245.393826 260.471797 
L 248.230601 257.990908 
L 276.63047 282.092885 
L 280.131614 278.619158 
L 231.35665 227.198768 
L 233.154187 225.175691 
L 246.151301 232.1922 
L 248.098529 229.701478 
L 249.96648 227.150761 
L 251.753307 224.542574 
L 303.405994 252.742577 
L 305.971062 248.441481 
L 242.420792 208.820444 
L 243.635005 206.458572 
L 278.440132 219.405266 
L 279.969345 215.905634 
L 269.365599 207.768615 
L 270.533418 204.560059 
L 269.29597 200.598935 
L 270.238393 197.396114 
L 264.828065 192.642003 
L 265.522513 189.583596 
L 266.120455 186.504867 
L 266.6213 183.40886 
L 249.443005 178.299672 
L 249.694105 175.732097 
L 260.307149 173.683778 
L 260.407744 170.776892 
L 249.157442 168.009921 
L 249.085152 165.456412 
L 271.389177 161.208333 
L 271.092038 157.959173 
L 263.523281 155.719389 
L 263.057446 152.720263 
L 297.960911 142.501837 
L 297.062461 138.426452 
L 288.27221 136.481357 
L 287.189253 132.713583 
L 257.806347 138.542051 
L 256.803246 135.731171 
L 290.676955 118.58296 
L 289.030044 114.748425 
L 302.451449 103.577582 
L 300.326915 99.38025 
L 256.789571 118.655112 
L 255.161684 115.886035 
L 258.834558 109.65063 
L 256.922539 106.821706 
L 285.853703 80.951206 
L 283.025952 77.286931 
L 263.536806 87.776744 
L 260.934699 84.810786 
L 275.608327 65.177411 
L 272.289679 61.843071 
L 255.843411 72.862084 
L 252.776158 70.145397 
L 232.478837 88.830067 
L 229.925205 86.840119 
L 228.238106 83.617379 
L 225.522672 81.763346 
L 223.593698 78.625822 
L 220.723615 76.920288 
L 215.912206 78.856062 
L 213.05316 77.391936 
L 215.801113 63.567828 
L 212.461427 62.114754 
L 223.651359 22.423784 
L 219.014132 20.744225 
L 212.422889 25.35778 
L 207.883465 24.029817 
L 188.54878 83.821431 
L 185.859385 83.215217 
L 194.884285 16.158243 
L 190.064279 15.386281 
L 179.846066 62.724438 
L 176.497639 62.402287 
L 172.396142 77.449315 
L 169.514381 77.354126 
L 166.221311 48.397332 
L 162.429145 48.510657 
L 156.351835 19.071974 
L 151.642495 19.510116 
L 150.988055 48.768214 
L 147.215082 49.360323 
L 140.870171 37.465632 
L 136.746822 38.381457 
L 137.301216 56.500225 
L 133.778121 57.518854 
L 130.288796 58.647754 
L 126.836692 59.885808 
L 106.851564 21.0856 
L 102.230011 23.079143 
L 131.212309 93.872288 
L 128.867284 95.063889 
L 122.185458 88.63888 
L 119.680347 90.116892 
L 96.499782 60.05673 
L 93.108685 62.356488 
L 117.284218 101.44933 
L 115.184318 103.075114 
L 77.652242 63.146474 
L 74.367612 66.037312 
L 76.768163 74.810444 
L 73.850711 77.723313 
L 49.030067 60.681716 
L 45.682091 64.473716 
L 66.294976 87.495011 
L 63.781533 90.730907 
L 55.451216 89.878259 
L 53.018069 93.453929 
L 40.415218 90.794912 
L 38.018326 94.842894 
L 26.511603 94.067045 
L 24.224469 98.550569 
L 67.519868 123.644158 
L 66.142428 126.823668 
L 51.324526 124.922558 
L 49.995288 128.610653 
L 28.028224 125.94703 
L 26.742717 130.367106 
L 60.006693 143.095078 
L 59.244547 146.501202 
L 80.774535 153.805402 
L 80.338877 156.553244 
L 71.195959 158.341593 
L 70.907664 161.388364 
L 36.168451 162.811871 
L 36.038031 166.957772 
L 19.953819 171.358649 
L 20.100145 176.010149 
L 14.779873 181.096927 
L 15.234949 185.906292 
L 61.2284 184.232836 
L 61.759111 187.580207 
L 52.156459 193.031679 
L 52.96831 196.659941 
L 80.269218 193.037818 
L 81.067363 195.782151 
L 17.278316 220.666438 
L 18.976309 225.377682 
L 72.086144 208.775124 
L 73.38315 211.768969 
L 33.612174 234.90863 
L 35.749897 239.09926 
L 57.574706 232.052389 
L 59.610775 235.490997 
L 44.954175 249.913275 
L 47.558069 253.739869 
L 72.781894 240.565851 
L 75.078126 243.522102 
L 48.738253 270.97583 
L 52.002529 274.673031 
L 72.696382 261.460534 
L 75.64963 264.409143 
L 96.541016 247.6171 
L 99.047208 249.822826 
L 113.175014 237.501017 
L 115.354909 239.188735 
L 101.883856 263.195714 
L 104.877231 265.225747 
L 108.772055 265.788225 
L 111.843539 267.600396 
L 122.106679 255.801738 
L 124.857573 257.199577 
L 113.454889 290.047728 
L 117.28683 291.700666 
L 120.318671 295.490494 
L 124.318351 296.924929 
L 136.839885 270.546935 
L 140.047116 271.47424 
L 140.294445 284.817636 
L 143.94867 285.629265 
L 150.095765 272.060129 
L 153.34402 272.569891 
L 151.816677 316.954219 
L 156.47565 317.387675 
L 161.622564 307.229267 
L 165.970915 307.359213 
L 169.820416 278.401544 
L 173.258307 278.287985 
L 175.917777 268.445683 
L 179.039619 268.145332 
L 188.114501 309.143678 
L 192.509946 308.439712 
L 184.543362 248.54982 
L 187.035369 247.988098 
L 207.883465 314.03368 
L 212.422889 312.705718 
L 199.627813 261.046058 
L 202.505272 260.00387 
L 221.739107 298.223117 
L 225.774562 296.46732 
L 206.302236 246.961668 
L 208.73355 245.716585 
L 230.322716 277.890748 
L 233.714632 275.875116 
L 246.345159 287.851035 
L 250.042326 285.326698 
L 241.549575 266.634309 
L 244.582013 264.271246 
L 245.9674 259.982775 
L 248.788515 257.484095 
L 277.33941 281.406975 
L 280.818638 277.911297 
L 231.721233 226.798691 
L 233.506011 224.764348 
L 246.546997 231.698974 
L 248.478521 229.196054 
L 250.330393 226.63364 
L 252.10078 224.014266 
L 303.929808 251.888845 
L 306.467774 247.571701 
L 242.669567 208.351143 
L 243.868901 205.981682 
L 278.754767 218.709214 
L 280.261939 215.200034 
L 269.607226 207.129867 
L 270.754842 203.91403 
L 269.492505 199.960768 
L 270.414765 196.752082 
L 264.974644 192.032093 
L 265.649843 188.969379 
L 266.228409 185.88695 
L 266.709772 182.787854 
L 249.499682 177.786809 
L 249.734629 175.217705 
L 260.33458 173.102677 
L 260.416891 170.195216 
L 249.149409 167.499057 
L 249.06106 164.946054 
L 271.337926 160.557779 
L 271.020357 157.310552 
L 263.437663 155.118415 
L 262.952975 152.122279 
L 297.791481 141.684532 
L 296.867417 137.614878 
L 288.065106 135.725107 
L 286.958474 131.964219 
L 257.612806 137.977374 
L 256.592046 135.172859 
L 290.357233 117.81194 
L 288.686237 113.987839 
L 302.037119 102.732804 
L 299.886228 98.548917 
L 256.470973 118.097223 
L 254.825702 115.338439 
L 258.459286 109.080058 
L 256.529513 106.263215 
L 285.297394 80.211266 
L 282.446653 76.564848 
L 263.023867 87.177029 
L 260.403157 84.227496 
L 274.953012 64.50222 
L 271.613459 61.188819 
L 255.236819 72.311052 
L 252.152541 69.61371 
L 231.973137 88.425669 
L 229.40704 86.451821 
L 227.699705 83.239756 
L 224.972664 81.402838 
L 223.023995 78.277508 
L 220.143242 76.590059 
L 215.344102 78.556056 
L 212.475905 77.109941 
L 215.136858 63.268822 
L 211.788099 61.836782 
L 222.728176 22.076219 
L 218.080478 20.425858 
L 211.518381 25.080777 
L 206.970695 23.781391 
L 188.012447 83.693427 
L 185.319293 83.104139 
L 193.922264 15.991731 
L 189.097498 15.250099 
L 179.177218 62.651586 
L 175.826831 62.350501 
L 171.820052 77.423028 
L 168.937749 77.345965 
L 165.462623 48.410456 
L 161.671244 48.547629 
L 155.408902 19.147751 
L 150.70241 19.615504 
L 150.232001 48.877139 
L 146.462826 49.492966 
L 140.04323 37.638416 
L 135.925723 38.580156 
L 136.594062 56.695079 
L 133.077444 57.735847 
L 129.595288 58.88667 
L 126.151038 60.146411 
L 105.922274 21.472665 
L 101.313351 23.495236 
L 130.740324 94.104699 
L 128.402841 95.311025 
L 121.680737 88.928168 
L 119.184972 90.421907 
L 95.815804 60.508132 
L 92.439238 62.829172 
L 116.860164 101.769191 
L 114.770532 103.40815 
L 76.988069 63.716355 
L 73.721686 66.627794 
L 76.177367 75.385655 
L 73.278293 78.316815 
L 48.350958 61.431663 
L 45.026898 65.244645 
L 65.784167 88.135841 
L 63.291125 91.387482 
L 54.95561 90.587243 
L 52.545 94.178146 
L 39.925674 91.598446 
L 37.55429 95.661423 
L 26.042915 94.957961 
L 23.784025 99.45578 
L 67.236392 124.276569 
L 65.878976 127.46468 
L 51.04941 125.656804 
L 49.743395 129.353186 
L 27.760013 126.827776 
L 26.502331 131.255849 
L 59.845701 143.774358 
L 59.104992 147.185208 
L 80.680494 154.353853 
L 80.262126 157.10438 
L 71.130637 158.950198 
L 70.861511 161.998721 
L 36.131938 163.64069 
L 36.027595 167.78733 
L 19.971381 172.28928 
L 20.146959 176.939768 
L 14.858785 182.059907 
L 15.344101 186.866314 
L 61.326117 184.903619 
L 61.87787 188.247586 
L 52.309695 193.759345 
L 53.14435 197.38243 
L 80.421937 193.588671 
L 81.237326 196.327929 
L 17.606048 221.612921 
L 19.333639 226.313393 
L 72.338003 209.377132 
L 73.653813 212.362761 
L 34.029159 235.752101 
L 36.193196 239.929203 
L 57.973252 232.745206 
L 60.030908 236.17094 
L 45.465306 250.685114 
L 48.093216 254.495256 
L 73.233684 241.162854 
L 75.548464 244.104605 
L 49.381781 271.723454 
L 52.669246 275.400051 
L 73.27959 262.057662 
L 76.251325 264.987638 
L 97.036685 248.064532 
L 99.5567 250.254452 
L 113.60673 237.844032 
L 115.797197 239.518006 
L 102.4774 263.609235 
L 105.483484 265.620401 
L 109.381769 266.158372 
L 112.46459 267.95119 
L 122.653319 256.088216 
L 125.41295 257.468725 
L 114.217088 290.387943 
L 118.059349 292.016748 
L 121.114967 295.787432 
L 125.123589 297.196683 
L 137.478973 270.740458 
L 140.691972 271.647572 
L 141.02322 284.989149 
L 144.682477 285.777779 
L 150.744107 272.170249 
L 153.995504 272.659571 
L 152.747344 317.052628 
L 157.408951 317.456773 
L 162.491873 307.266195 
L 166.840955 307.368789 
L 170.508253 278.387482 
L 173.945361 278.252303 
L 176.542876 268.393469 
L 179.662767 268.073489 
L 188.995326 309.013948 
L 193.386257 308.282352 
L 185.043157 248.443749 
L 187.531582 247.866365 
L 208.794655 313.779519 
L 213.325637 312.423032 
L 200.205904 260.844868 
L 203.076751 259.784603 
L 222.550584 297.882124 
L 226.574915 296.100981 
L 206.791612 246.718778 
L 209.215047 245.458428 
L 231.006143 277.496171 
L 234.385315 275.459246 
L 247.090914 287.355489 
L 250.772131 284.807949 
L 242.161984 266.169344 
L 245.1795 263.787255 
L 246.537887 259.490156 
L 249.343231 256.973782 
L 278.044023 280.71662 
L 281.501196 277.199129 
L 232.083292 226.396329 
L 233.85524 224.350801 
L 246.939584 231.203269 
L 248.855327 228.68825 
L 250.691046 226.11424 
L 252.444925 223.483783 
L 304.448242 251.031836 
L 306.959006 246.698815 
L 242.915386 207.880287 
L 244.099793 205.503329 
L 279.065018 218.011198 
L 280.55009 214.492607 
L 269.84483 206.489612 
L 270.972198 203.266621 
L 269.685022 199.321376 
L 270.587083 196.106954 
L 265.117383 191.421273 
L 265.773306 188.354373 
L 266.332475 185.268367 
L 266.794336 182.166304 
L 249.553133 177.273599 
L 249.771918 174.703069 
L 260.358356 172.521415 
L 260.422379 169.613494 
L 249.138163 166.988255 
L 249.033758 164.435857 
L 271.282584 159.90756 
L 270.944598 156.662395 
L 263.348267 154.517992 
L 262.844744 151.524964 
L 297.616914 140.868309 
L 296.667273 136.804547 
L 287.85325 134.970175 
L 286.722986 131.216321 
L 257.415718 137.413925 
L 256.37734 134.615885 
L 290.032667 117.042946 
L 288.337654 113.229431 
L 301.617484 101.890648 
L 299.440321 97.720372 
L 256.148873 117.541349 
L 254.486283 114.792968 
L 258.080434 108.511856 
L 256.132982 105.707207 
L 284.736442 79.474839 
L 281.862823 75.846423 
L 262.507166 86.580553 
L 259.867958 83.64756 
L 274.293464 63.831164 
L 270.933137 60.538833 
L 254.626774 71.763845 
L 251.525592 69.085955 
L 231.464904 88.024459 
L 228.886443 86.066789 
L 227.15894 82.865526 
L 224.4204 81.045796 
L 222.452112 77.932784 
L 219.560803 76.263486 
L 214.774124 78.259628 
L 211.896888 76.831581 
L 214.470736 62.974001 
L 211.113036 61.563051 
L 221.802825 21.734467 
L 217.144839 20.11337 
L 210.612149 24.809469 
L 206.056381 23.538711 
L 187.47532 83.568799 
L 184.778513 82.996461 
L 192.959215 15.831272 
L 188.12988 15.12 
L 178.507925 62.582942 
L 175.15571 62.302935 
L 171.243808 77.400365 
L 168.361077 77.341431 
L 164.704032 48.428351 
L 160.913591 48.589367 
L 154.466464 19.229457 
L 149.763008 19.726802 
L 149.476646 48.990817 
L 145.71142 49.630337 
L 139.217392 37.816398 
L 135.105889 38.784016 
L 135.888148 56.894377 
L 132.378145 57.957242 
L 128.903296 59.129943 
L 125.467038 60.411321 
L 104.995438 21.865568 
L 100.399326 23.917087 
L 130.269811 94.340074 
L 127.939961 95.561078 
L 121.177846 89.220625 
L 118.691524 90.730031 
L 95.134678 60.963827 
L 91.772777 63.306058 
L 116.438131 102.091713 
L 114.358848 103.743782 
L 76.327494 64.290402 
L 73.079486 67.222327 
L 75.590201 75.96457 
L 72.70962 78.913906 
L 47.67658 62.185866 
L 44.376567 66.01968 
L 65.277398 88.779872 
L 62.804856 92.047128 
L 54.464473 91.299331 
L 52.076495 94.905323 
L 39.441194 92.405043 
L 37.095411 96.482854 
L 25.579839 95.851806 
L 23.349283 100.363744 
L 66.956899 124.910751 
L 65.619561 128.107336 
L 50.778918 126.392766 
L 49.496177 130.097289 
L 27.497346 127.710192 
L 26.267539 132.146087 
L 59.688984 144.454638 
L 58.969742 147.870079 
L 80.589904 154.902884 
L 80.188844 157.655989 
L 71.069144 159.559201 
L 70.819197 162.609357 
L 36.100638 164.469723 
L 36.022377 168.616937 
L 19.994796 173.219783 
L 20.199619 177.869074 
L 14.943752 183.022371 
L 15.459288 187.825631 
L 61.42805 185.573774 
L 62.000824 188.914205 
L 52.467504 194.486033 
L 53.32493 198.103797 
L 80.578117 194.138552 
L 81.410718 196.872628 
L 17.939727 222.557325 
L 19.696847 227.246838 
L 72.593643 209.977545 
L 73.928205 212.954839 
L 34.45144 236.592933 
L 36.641707 240.756342 
L 58.376149 233.435502 
L 60.45531 236.848227 
L 45.981282 251.453724 
L 48.633103 255.247262 
L 73.689221 241.757005 
L 76.022457 244.684139 
L 50.029998 272.467015 
L 53.340522 276.122862 
L 73.866542 262.65111 
L 76.856647 265.562338 
L 97.535159 248.508839 
L 100.068897 250.682866 
L 114.040594 238.184324 
L 116.241547 239.844489 
L 103.073533 264.019015 
L 106.092207 266.011235 
L 109.993798 266.524678 
L 113.087834 268.29807 
L 123.20175 256.371249 
L 125.97001 257.734375 
L 114.981412 290.723358 
L 118.833841 292.327965 
L 121.913114 296.079356 
L 125.93052 297.463367 
L 138.119265 270.929957 
L 141.337906 271.816845 
L 141.753058 285.156075 
L 145.417203 285.921675 
L 151.39313 272.27629 
L 154.64754 272.745153 
L 153.678612 317.145182 
L 158.342668 317.52 
L 163.361397 307.297655 
L 167.711038 307.372894 
L 171.195987 278.369095 
L 174.632177 278.2123 
L 177.167635 268.337325 
L 180.285452 267.997729 
L 189.875318 308.878682 
L 194.261561 308.119483 
L 185.542274 248.334538 
L 188.027019 247.741514 
L 209.704228 313.519631 
L 214.226589 312.134674 
L 200.782718 260.640046 
L 203.64684 259.561746 
L 223.359899 297.536034 
L 227.372949 295.729615 
L 207.27945 246.472815 
L 209.694911 245.197247 
L 231.687075 277.097304 
L 235.053369 275.039166 
L 247.833537 286.855262 
L 251.498659 284.28462 
L 242.771456 265.700537 
L 245.77393 263.299516 
L 247.105265 258.993959 
L 249.894726 256.45999 
L 278.744279 280.021847 
L 282.179261 276.482682 
L 232.442814 225.991697 
L 234.201862 223.935065 
L 247.329045 230.705105 
L 249.228932 228.178087 
L 251.048426 225.592582 
L 252.785725 222.951146 
L 304.961276 250.171582 
L 307.444738 245.822856 
L 243.158238 207.407894 
L 244.327672 205.023534 
L 279.370873 217.311244 
L 280.833785 213.783383 
L 270.078403 205.847876 
L 271.185477 202.617858 
L 269.873514 198.680787 
L 270.755341 195.460755 
L 265.256279 190.809568 
L 265.892899 187.738603 
L 266.432648 184.649141 
L 266.874989 181.544235 
L 249.603355 176.760064 
L 249.805968 174.188209 
L 260.378476 171.940015 
L 249.163869 169.031749 
z
" clip-path="url(#pd40d08ad5d)" style="fill: #0000ff; opacity: 0.5; stroke: #000000; stroke-width: 1.5; stroke-linejoin: miter"/>
   </g>
  </g>
 </g>
 <defs>
  <clipPath id="pd40d08ad5d">
   <rect x="0" y="-0" width="322.084963" height="332.64"/>
  </clipPath>
 </defs>
</svg>
