<?xml version="1.0" encoding="utf-8" standalone="no"?>
<!DOCTYPE svg PUBLIC "-//W3C//DTD SVG 1.1//EN"
  "http://www.w3.org/Graphics/SVG/1.1/DTD/svg11.dtd">
<svg xmlns:xlink="http://www.w3.org/1999/xlink" width="334.8pt" height="325.046517pt" viewBox="0 0 334.8 325.046517" xmlns="http://www.w3.org/2000/svg" version="1.1">
 <metadata>
  <rdf:RDF xmlns:dc="http://purl.org/dc/elements/1.1/" xmlns:cc="http://creativecommons.org/ns#" xmlns:rdf="http://www.w3.org/1999/02/22-rdf-syntax-ns#">
   <cc:Work>
    <dc:type rdf:resource="http://purl.org/dc/dcmitype/StillImage"/>
    <dc:date>2023-12-09T18:06:25.253089</dc:date>
    <dc:format>image/svg+xml</dc:format>
    <dc:creator>
     <cc:Agent>
      <dc:title>Matplotlib v3.8.2, https://matplotlib.org/</dc:title>
     </cc:Agent>
    </dc:creator>
   </cc:Work>
  </rdf:RDF>
 </metadata>
 <defs>
  <style type="text/css">*{stroke-linejoin: round; stroke-linecap: butt}</style>
 </defs>
 <g id="figure_1">
  <g id="patch_1">
   <path d="M 0 325.046517 
L 334.8 325.046517 
L 334.8 0 
L 0 0 
L 0 325.046517 
z
" style="fill: none"/>
  </g>
  <g id="axes_1">
   <g id="patch_2">
    <path d="M 246.535111 167.419537 
L 246.495331 164.889751 
L 286.525646 159.833931 
L 286.227585 156.050506 
L 319.581818 148.007724 
L 318.895571 143.190787 
L 293.741181 143.041286 
L 292.911555 139.039291 
L 285.212951 136.798619 
L 284.191258 133.067857 
L 260.24613 136.78932 
L 259.236488 133.843574 
L 238.716255 138.627824 
L 237.775065 136.358115 
L 259.858464 123.238789 
L 258.422956 120.311932 
L 293.49497 97.287288 
L 291.226859 93.315657 
L 279.040456 95.640886 
L 276.727725 92.12455 
L 239.271981 114.169748 
L 237.561501 111.894659 
L 264.376659 85.984195 
L 261.767552 82.933696 
L 228.068143 109.117673 
L 226.204354 107.197355 
L 227.455889 101.950245 
L 225.367044 100.052722 
L 238.983094 79.132787 
L 236.171118 76.884105 
L 252.817942 47.793413 
L 249.013748 45.125228 
L 210.361765 97.482117 
L 208.140884 96.124279 
L 233.404759 44.639634 
L 229.511001 42.583401 
L 211.424448 70.766987 
L 208.363059 69.388945 
L 222.579906 24.209193 
L 218.049122 22.503418 
L 193.224919 83.507177 
L 190.573108 82.695069 
L 187.514261 83.465913 
L 184.863976 82.833381 
L 194.715597 16.152807 
L 189.945279 15.327131 
L 182.467501 36.146802 
L 178.331894 35.696348 
L 175.274635 17.615926 
L 170.559934 17.400793 
L 165.85783 28.164921 
L 161.479468 28.240657 
L 158.8002 54.703062 
L 155.259745 54.987584 
L 147.013229 18.54945 
L 142.341853 19.222455 
L 150.714942 87.653348 
L 148.214513 88.175796 
L 145.925511 89.525586 
L 143.486317 90.197699 
L 128.325345 51.974172 
L 124.714155 53.218239 
L 116.278518 42.356426 
L 112.370882 43.984027 
L 125.387515 81.40023 
L 122.702998 82.722121 
L 111.082752 67.875711 
L 107.980067 69.654061 
L 118.244645 92.403199 
L 115.909617 93.944237 
L 118.185291 101.806766 
L 116.145961 103.34502 
L 80.036632 63.893014 
L 76.824072 66.649492 
L 106.084817 103.831761 
L 104.11514 105.749479 
L 95.989295 101.917518 
L 93.964421 104.153608 
L 100.373139 113.335662 
L 98.705109 115.428269 
L 97.1037 117.572288 
L 95.570496 119.765599 
L 84.292951 115.813283 
L 82.710774 118.410261 
L 86.642441 124.022988 
L 85.317233 126.542035 
L 90.379955 132.049044 
L 89.305255 134.446607 
L 69.583989 129.523887 
L 68.440175 132.576569 
L 26.151886 122.392612 
L 24.805323 126.81442 
L 50.594353 138.124558 
L 49.730352 141.770063 
L 53.543559 146.297241 
L 52.935068 149.845976 
L 61.652376 154.547827 
L 61.299291 157.837524 
L 80.356245 162.291629 
L 80.237395 164.989406 
L 15.218182 167.893949 
L 15.307687 172.637039 
L 76.530436 173.341743 
L 76.760917 176.154349 
L 52.528803 182.141429 
L 53.047833 185.704347 
L 24.819646 194.854094 
L 25.75209 199.281964 
L 16.341849 206.407483 
L 17.641749 211.096201 
L 62.449995 201.486682 
L 63.572377 204.728092 
L 32.472503 220.862312 
L 34.218919 225.0367 
L 50.072182 222.515986 
L 51.861891 226.136184 
L 76.091675 217.317598 
L 77.705071 220.122256 
L 61.811002 234.132634 
L 63.960159 237.377994 
L 97.418575 217.6996 
L 99.033437 219.833505 
L 82.888542 236.778138 
L 85.110459 239.359466 
L 91.907546 237.615363 
L 94.151328 239.9127 
L 92.247412 246.666764 
L 94.775622 248.948939 
L 78.72653 273.877468 
L 82.116989 276.571316 
L 77.903577 289.828805 
L 81.795987 292.540642 
L 97.302721 276.791018 
L 100.775604 278.899349 
L 96.176521 295.846628 
L 100.249111 297.980948 
L 126.582137 252.290233 
L 129.270185 253.490068 
L 129.459592 261.089647 
L 132.42289 262.194659 
L 123.864015 299.310062 
L 128.031813 300.572114 
L 130.535802 308.454154 
L 134.987812 309.501909 
L 149.51866 256.407763 
L 152.324832 256.884388 
L 150.566165 294.903294 
L 154.582202 295.32795 
L 159.779165 275.545574 
L 163.181998 275.690124 
L 166.638784 286.558419 
L 170.384494 286.481843 
L 171.826186 252.325247 
L 174.492964 252.102494 
L 180.775846 279.410117 
L 184.289807 278.892575 
L 190.313516 291.171443 
L 194.192563 290.348201 
L 201.377792 302.125643 
L 205.595794 300.9491 
L 202.006196 276.134563 
L 205.40667 274.951112 
L 223.4795 310.271675 
L 227.942703 308.396178 
L 227.016653 295.208472 
L 231.004487 293.229207 
L 219.50241 263.409983 
L 222.494144 261.682704 
L 228.355958 264.419246 
L 231.375048 262.413093 
L 217.380892 237.245499 
L 219.551007 235.597862 
L 240.033278 255.839422 
L 242.776827 253.470351 
L 263.02262 269.530882 
L 266.185292 266.432206 
L 271.516491 265.341469 
L 274.543239 261.977798 
L 279.259277 259.989996 
L 282.113934 256.385521 
L 285.482298 253.144254 
L 288.118633 249.347499 
L 288.012024 243.826567 
L 290.35414 239.954878 
L 244.287037 209.828523 
L 245.581799 207.348453 
L 247.499865 205.154198 
L 248.646068 202.575421 
L 283.596743 213.14714 
L 284.976414 209.429446 
L 285.501322 205.435544 
L 286.637581 201.661779 
L 276.397417 195.036133 
L 277.211198 191.553757 
L 315.955318 195.063834 
L 316.750411 190.337656 
L 315.860269 185.404356 
L 316.351694 180.685943 
L 315.92212 175.910643 
L 316.115012 171.19498 
L 246.53352 166.913499 
L 246.477829 164.384014 
L 286.475555 159.076526 
L 286.153704 155.29505 
L 319.456693 147.042648 
L 318.740163 142.230123 
L 293.585331 142.238831 
L 292.730551 138.242133 
L 285.018006 136.049926 
L 283.972869 132.325664 
L 260.05162 136.197654 
L 259.023472 133.258316 
L 238.533735 138.171532 
L 237.578289 135.907788 
L 259.578737 122.649829 
L 258.124849 119.732058 
L 293.051358 96.487287 
L 290.758313 92.529999 
L 278.586775 94.931828 
L 276.251974 91.430107 
L 238.935622 113.710445 
L 237.210867 111.446159 
L 263.862533 85.367555 
L 261.234291 82.333526 
L 227.700231 108.728935 
L 225.824402 106.820378 
L 227.04291 101.5655 
L 224.942172 99.681152 
L 238.426378 78.675994 
L 235.600315 76.445042 
L 252.063846 47.250227 
L 248.242945 44.60602 
L 209.921022 97.204973 
L 207.691645 95.86113 
L 232.631211 44.218607 
L 228.724598 42.186905 
L 210.815661 70.483687 
L 207.745666 69.124927 
L 221.678076 23.856653 
L 217.136654 22.179408 
L 192.696621 83.338091 
L 190.039754 82.542677 
L 186.985816 83.332744 
L 184.331605 82.716894 
L 193.763648 15.975677 
L 188.988232 15.18002 
L 181.641545 36.046311 
L 177.503188 35.621875 
L 174.332274 17.56104 
L 169.616313 17.375563 
L 164.982001 28.169052 
L 160.604202 28.272324 
L 158.091421 54.751057 
L 154.552826 55.057841 
L 146.077298 18.672293 
L 141.410247 19.374666 
L 150.213562 87.751543 
L 147.716469 88.289707 
L 145.436 89.653867 
L 143.001083 90.341308 
L 127.600006 52.21389 
L 123.996712 53.480646 
L 115.492927 42.672102 
L 111.595605 44.324248 
L 124.847307 81.657844 
L 122.171157 82.996592 
L 110.457766 68.223561 
L 107.366327 70.021391 
L 117.773781 92.70552 
L 115.448491 94.261213 
L 117.773571 102.109274 
L 115.743956 103.660324 
L 79.387211 64.436206 
L 76.192051 67.212834 
L 105.686073 104.210334 
L 103.728496 106.140403 
L 95.57871 102.359624 
L 93.56794 104.608406 
L 100.034281 113.74997 
L 98.379446 115.853027 
L 96.791553 118.007076 
L 95.272174 120.209986 
L 83.969995 116.328677 
L 82.404182 118.935556 
L 86.371073 124.523444 
L 85.061734 127.050775 
L 90.158991 132.525834 
L 89.099393 134.930108 
L 69.347555 130.131522 
L 68.222964 133.191337 
L 25.871459 123.273551 
L 24.552734 127.703741 
L 50.412388 138.851456 
L 49.571332 142.502323 
L 53.412938 147.005429 
L 52.826778 150.55792 
L 61.573485 155.204852 
L 61.241098 158.496704 
L 80.325689 162.830864 
L 80.223809 165.529336 
L 15.224149 168.842755 
L 15.343484 173.585188 
L 76.569454 173.904822 
L 76.817621 176.715922 
L 52.623641 182.85529 
L 53.16507 186.414874 
L 24.994988 195.741979 
L 25.955262 200.163897 
L 16.590023 207.348459 
L 17.919386 212.028909 
L 62.666308 202.137762 
L 63.809054 205.372048 
L 32.811271 221.70155 
L 34.583906 225.864872 
L 50.421002 223.2445 
L 52.233444 226.85337 
L 76.407286 217.882566 
L 78.038289 220.677022 
L 62.232651 234.787087 
L 64.402178 238.018866 
L 97.736166 218.130427 
L 99.364417 220.254133 
L 83.326414 237.299973 
L 85.564522 239.867275 
L 92.350505 238.080457 
L 94.608691 240.363636 
L 92.747292 247.129541 
L 95.289806 249.395771 
L 79.397818 274.424746 
L 82.805152 277.097216 
L 78.675205 290.380944 
L 82.584595 293.068246 
L 97.991966 277.221405 
L 101.478041 279.307852 
L 96.985638 296.283721 
L 101.07157 298.392384 
L 127.116707 252.536953 
L 129.812248 253.719859 
L 130.049449 261.318096 
L 133.019638 262.404448 
L 124.694367 299.572948 
L 128.87002 300.808761 
L 131.423533 308.674897 
L 135.882045 309.694631 
L 150.078673 256.510144 
L 152.887787 256.969111 
L 151.368272 294.998325 
L 155.386901 295.397715 
L 160.459341 275.583044 
L 163.863016 275.70619 
L 167.388089 286.552527 
L 171.133243 286.452395 
L 172.360081 252.287407 
L 175.025406 252.047886 
L 181.479912 279.315453 
L 184.990549 278.775821 
L 191.091366 291.01656 
L 194.965159 290.168937 
L 202.224319 301.900956 
L 206.434837 300.697907 
L 202.689241 275.906437 
L 206.082205 274.701623 
L 224.376824 309.907819 
L 228.828142 308.004288 
L 227.819168 294.822668 
L 231.794475 292.81836 
L 220.105078 263.072067 
L 223.08589 261.326006 
L 228.964799 264.025626 
L 231.971213 262.000525 
L 217.819043 236.921445 
L 219.978752 235.260191 
L 240.587926 255.372529 
L 243.31652 252.986249 
L 263.662925 268.919128 
L 266.806046 265.800622 
L 272.130279 264.676376 
L 275.135812 261.293736 
L 279.839254 259.276311 
L 282.671185 255.653954 
L 286.019096 252.391566 
L 288.6315 248.578304 
L 288.490169 243.058152 
L 290.807888 239.171809 
L 244.552219 209.335786 
L 245.831357 206.847622 
L 247.735585 204.641347 
L 248.865545 202.055412 
L 283.882019 212.407102 
L 285.238281 208.680804 
L 285.738059 204.68368 
L 286.850561 200.902843 
L 276.568928 194.341733 
L 277.36079 190.854307 
L 316.126221 194.120636 
L 316.891573 189.389551 
L 315.970421 184.461947 
L 316.43216 179.740537 
L 315.972561 174.968033 
L 316.13579 170.251249 
L 246.528746 166.407482 
L 246.457147 163.878397 
L 286.420701 158.319451 
L 286.075073 154.540074 
L 319.3255 146.078379 
L 318.578717 141.270455 
L 293.424437 141.437373 
L 292.544536 137.44613 
L 284.818357 135.302474 
L 283.749817 131.584858 
L 259.853394 135.607223 
L 258.806779 132.67441 
L 238.348348 137.716398 
L 237.378683 135.458708 
L 259.295311 122.06264 
L 257.823101 119.154071 
L 292.602723 95.690092 
L 290.284834 91.747304 
L 278.128643 94.225638 
L 275.771865 90.738671 
L 238.596382 113.253267 
L 236.85742 110.999873 
L 263.344538 84.754161 
L 260.697266 81.736722 
L 227.329882 108.34252 
L 225.442085 106.445797 
L 226.62752 101.183361 
L 224.514972 99.312262 
L 237.866801 78.222712 
L 235.026762 76.009578 
L 251.306348 46.711794 
L 247.468893 44.091671 
L 209.478545 96.930606 
L 207.24076 95.600811 
L 231.855031 43.802455 
L 227.935716 41.795362 
L 210.205105 70.204222 
L 207.126624 68.864798 
L 220.774047 23.509792 
L 216.222166 21.861143 
L 192.16727 83.17233 
L 189.505453 82.393642 
L 186.456545 83.202902 
L 183.798513 82.603757 
L 192.810604 15.804538 
L 188.030279 15.038931 
L 180.814974 35.951016 
L 176.674029 35.552616 
L 173.389585 17.512081 
L 168.672551 17.356269 
L 164.106216 28.178692 
L 159.729154 28.309496 
L 157.382958 54.803509 
L 153.846362 55.132543 
L 145.142157 18.801021 
L 140.479616 19.532732 
L 149.712809 87.852889 
L 147.21915 88.406748 
L 144.947307 89.785224 
L 142.516761 90.487966 
L 126.876188 52.458166 
L 123.280933 53.747559 
L 114.709337 42.992713 
L 110.822483 44.669339 
L 124.30873 81.91885 
L 121.641053 83.274404 
L 109.834979 68.575336 
L 106.754909 70.392573 
L 117.304827 93.010796 
L 114.989368 94.581083 
L 117.363762 102.414366 
L 115.343942 103.97815 
L 78.741219 64.983471 
L 75.563585 67.78014 
L 105.289717 104.591408 
L 103.344318 106.53375 
L 95.170915 102.804304 
L 93.174328 105.065687 
L 99.698036 114.166402 
L 98.056461 116.279825 
L 96.482147 118.443818 
L 94.976653 120.656241 
L 83.650286 116.846093 
L 82.1009 119.462768 
L 86.102857 125.025596 
L 84.80944 127.561112 
L 89.941031 133.004004 
L 88.896575 135.414895 
L 69.114948 130.740632 
L 68.009623 133.807459 
L 25.596579 124.156236 
L 24.305744 128.594632 
L 50.234998 139.579485 
L 49.416922 143.235569 
L 53.286773 147.714424 
L 52.722967 151.270532 
L 61.498729 155.86236 
L 61.187052 159.156238 
L 80.298525 163.370281 
L 80.213619 166.06934 
L 15.236084 169.791504 
L 15.385244 174.533094 
L 76.612013 174.467644 
L 76.877855 177.277128 
L 52.722967 183.568541 
L 53.286773 187.124649 
L 25.17591 196.628744 
L 26.163977 201.044534 
L 16.84411 208.287857 
L 18.202884 212.959853 
L 62.886711 202.787468 
L 64.049777 206.014504 
L 33.155309 222.538641 
L 34.954095 226.690732 
L 50.774396 223.970805 
L 52.609501 227.568204 
L 76.726443 218.445539 
L 78.37499 221.22968 
L 62.658409 235.438875 
L 64.848219 238.656945 
L 98.056461 218.559248 
L 99.698036 220.672671 
L 83.767559 237.819044 
L 86.02177 240.372219 
L 92.79638 238.542756 
L 95.068882 240.811687 
L 93.250074 247.589166 
L 95.80679 249.839359 
L 80.072534 274.967791 
L 83.49661 277.618779 
L 79.450292 290.928218 
L 83.376506 293.590879 
L 98.683904 277.647448 
L 102.183032 279.711928 
L 97.797487 296.715716 
L 101.896601 298.79864 
L 127.652818 252.780306 
L 130.355745 253.946235 
L 130.64073 261.54283 
L 133.617693 262.61048 
L 125.526355 299.830606 
L 129.709699 301.040133 
L 132.312635 308.890053 
L 136.777472 309.881725 
L 150.639319 256.609001 
L 153.451264 257.050291 
L 152.170961 295.08831 
L 156.192023 295.462417 
L 161.139739 275.616235 
L 164.544122 275.717971 
L 168.137342 286.541924 
L 171.881792 286.418238 
L 172.893727 252.24621 
L 175.557493 251.98993 
L 182.18337 279.216363 
L 185.690543 278.654661 
L 191.868226 290.856788 
L 195.736612 289.984818 
L 203.069416 301.670948 
L 207.272284 300.441441 
L 203.370838 275.67402 
L 206.756157 274.44789 
L 225.271841 309.538327 
L 229.7111 307.606837 
L 228.61924 294.431823 
L 232.581862 292.402553 
L 220.70561 262.730368 
L 223.675381 260.965594 
L 229.571153 263.628186 
L 232.56477 261.584216 
L 218.255147 236.594641 
L 220.404366 234.919837 
L 241.139627 254.902157 
L 243.853159 252.498763 
L 264.29937 268.303359 
L 267.422815 265.165146 
L 272.739872 264.007436 
L 275.72407 260.60596 
L 280.414731 258.558993 
L 283.223823 254.918896 
L 286.551149 251.635516 
L 289.139518 247.8059 
L 288.963472 242.286745 
L 291.256702 238.385902 
L 244.814296 208.841391 
L 246.07776 206.345231 
L 247.968074 204.127023 
L 249.081748 201.534033 
L 284.162636 211.665284 
L 285.495434 207.93053 
L 285.970062 203.930341 
L 287.058764 200.142582 
L 276.736068 193.646267 
L 277.505981 190.15393 
L 316.291188 193.176382 
L 317.026769 188.440577 
L 316.074644 183.518864 
L 316.506679 178.794643 
L 316.017072 174.025124 
L 316.150632 169.307407 
L 246.52079 165.901505 
L 246.433286 163.37292 
L 286.361086 157.562736 
L 285.991695 153.785608 
L 319.188245 145.114953 
L 318.411238 140.311821 
L 293.258505 140.636942 
L 292.353519 136.651312 
L 284.61401 134.556292 
L 283.522109 130.84547 
L 259.651457 135.01805 
L 258.586418 132.091878 
L 238.160103 137.262438 
L 237.176258 135.010891 
L 259.008198 121.477246 
L 257.517724 118.577994 
L 292.149083 94.895734 
L 289.806442 90.967603 
L 277.666078 93.522343 
L 275.287416 90.050268 
L 238.254272 112.798231 
L 236.501172 110.555819 
L 262.822696 84.144037 
L 260.156498 81.143308 
L 226.957109 107.958441 
L 225.057421 106.073629 
L 226.209734 100.803841 
L 224.08546 98.946066 
L 237.304383 77.772957 
L 234.450482 75.577729 
L 250.545479 46.178135 
L 246.69162 43.5822 
L 209.034351 96.659028 
L 206.788247 95.343334 
L 231.076248 43.391192 
L 227.144388 41.408789 
L 209.592803 69.928603 
L 206.505959 68.608567 
L 219.867855 23.168623 
L 215.305694 21.548636 
L 191.636886 83.009902 
L 188.970225 82.247971 
L 185.926467 83.07639 
L 183.264719 82.493974 
L 191.856503 15.639396 
L 187.071457 14.90387 
L 179.98782 35.860921 
L 175.844451 35.488574 
L 172.446608 17.469053 
L 167.728687 17.342912 
L 163.230509 28.19384 
L 158.854356 28.35217 
L 156.674839 54.860416 
L 153.140383 55.211686 
L 144.207845 18.935627 
L 139.549998 19.696649 
L 149.212703 87.957383 
L 146.722577 88.526915 
L 144.459449 89.919652 
L 142.033371 90.637666 
L 126.153922 52.706989 
L 122.566847 54.018969 
L 113.927779 43.318247 
L 110.051546 45.019285 
L 123.771806 82.183239 
L 121.112706 83.555544 
L 109.214418 68.93102 
L 106.145837 70.767593 
L 116.837803 93.319016 
L 114.532266 94.903835 
L 116.95588 102.722029 
L 114.945935 104.298486 
L 78.098681 65.534788 
L 74.9387 68.351388 
L 104.895766 104.974966 
L 102.962622 106.929506 
L 94.765924 103.25154 
L 92.7836 105.525436 
L 99.364417 114.58494 
L 97.736166 116.708646 
L 96.175494 118.882498 
L 94.683945 121.104346 
L 83.333838 117.365509 
L 81.80094 119.991877 
L 85.837805 125.529425 
L 84.560361 128.073026 
L 89.726083 133.483535 
L 88.696811 135.900948 
L 68.886176 131.351192 
L 67.800162 134.424911 
L 25.327256 125.040633 
L 24.064361 129.48706 
L 50.062191 140.308615 
L 49.267126 143.969772 
L 53.16507 148.424199 
L 52.623641 151.983783 
L 61.428109 156.520326 
L 61.137155 159.816098 
L 80.274754 163.909858 
L 80.206825 166.609397 
L 15.253986 170.74016 
L 15.432965 175.480717 
L 76.658112 175.030188 
L 76.941618 177.837944 
L 52.826778 184.281153 
L 53.412938 187.833644 
L 25.362406 197.514353 
L 26.378226 201.923841 
L 17.1041 209.225637 
L 18.492232 213.888995 
L 63.111197 203.435776 
L 64.294535 206.655432 
L 33.504606 223.373552 
L 35.329471 227.514247 
L 51.132352 224.694873 
L 52.990046 228.28066 
L 77.049135 219.006492 
L 78.71516 221.780211 
L 63.088258 236.087973 
L 65.298264 239.292207 
L 98.379446 218.986046 
L 100.034281 221.089103 
L 84.21196 238.33533 
L 86.482184 240.874276 
L 93.245154 239.002241 
L 95.531881 241.256835 
L 93.755735 248.045619 
L 96.326554 250.279688 
L 80.750653 275.506582 
L 84.191334 278.135981 
L 80.228805 291.470607 
L 84.171688 294.108521 
L 99.378508 278.069131 
L 102.890552 280.111563 
L 98.612037 297.142597 
L 102.724171 299.199698 
L 128.190448 253.020283 
L 130.900655 254.169189 
L 131.233413 261.763841 
L 134.217032 262.812747 
L 126.359948 300.083026 
L 130.550816 301.266218 
L 133.203072 309.099612 
L 137.674058 310.063183 
L 151.200576 256.70433 
L 154.01524 257.127926 
L 152.9742 295.173245 
L 156.997535 295.522054 
L 161.820333 275.645146 
L 165.225288 275.725469 
L 168.886514 286.526608 
L 172.630112 286.379374 
L 173.427104 252.201658 
L 176.089205 251.928629 
L 182.88619 279.11285 
L 186.389761 278.529102 
L 192.644066 290.692133 
L 196.506891 289.79585 
L 203.91305 301.43563 
L 208.108102 300.179714 
L 204.05096 275.437321 
L 207.4285 274.189922 
L 226.164517 309.163213 
L 230.59154 307.203841 
L 229.416839 294.035954 
L 233.366619 291.981802 
L 221.303981 262.384899 
L 224.262594 260.601481 
L 230.174995 263.226939 
L 233.155697 261.164181 
L 218.689187 236.2651 
L 220.82783 234.576812 
L 241.688358 254.428324 
L 244.386721 252.007911 
L 264.931929 267.6836 
L 268.035575 264.525804 
L 273.345246 263.334676 
L 276.307991 259.914497 
L 280.985685 257.838069 
L 283.771827 254.180377 
L 287.078437 250.876135 
L 289.642669 247.030315 
L 289.431914 241.512377 
L 291.700565 237.597188 
L 245.073259 208.345357 
L 246.320998 205.8413 
L 248.197323 203.611247 
L 249.294667 201.011304 
L 284.438581 210.921716 
L 285.747863 207.178653 
L 286.197323 203.175558 
L 287.26218 199.381027 
L 276.89883 192.949764 
L 277.646763 189.452654 
L 316.450213 192.231109 
L 317.155994 187.490772 
L 316.172932 182.575144 
L 316.575246 177.8483 
L 316.055652 173.081954 
L 316.159537 168.363491 
L 246.509651 165.395588 
L 246.406245 162.867603 
L 286.296713 156.806411 
L 285.903573 153.031681 
L 319.044934 144.15241 
L 318.237732 139.35426 
L 293.087542 139.837571 
L 292.157507 135.857712 
L 284.404974 133.81141 
L 283.289756 130.107529 
L 259.44582 134.430159 
L 258.362397 131.510743 
L 237.969006 136.809671 
L 236.971019 134.564357 
L 258.717409 120.893669 
L 257.20873 118.003848 
L 291.690456 94.104245 
L 289.323155 90.190926 
L 277.1991 92.821971 
L 274.798647 89.364925 
L 237.909308 112.345356 
L 236.142139 110.114014 
L 262.297027 83.537207 
L 259.612009 80.553306 
L 226.581928 107.576714 
L 224.670423 105.703888 
L 225.78957 100.426956 
L 223.653653 98.582579 
L 236.739148 77.326749 
L 233.871496 75.149514 
L 249.781269 45.649273 
L 245.911159 43.077628 
L 208.588458 96.390248 
L 206.334123 95.088707 
L 230.294895 42.984835 
L 226.350644 41.027201 
L 208.97878 69.65684 
L 205.883694 68.356244 
L 218.959534 22.833161 
L 214.387275 21.241899 
L 191.105492 82.850813 
L 188.434091 82.105669 
L 185.395603 82.953215 
L 182.730245 82.387552 
L 190.901382 15.480258 
L 186.111805 14.774842 
L 179.160116 35.776031 
L 175.014487 35.42975 
L 171.503378 17.431956 
L 166.784757 17.33549 
L 162.354915 28.214495 
L 157.979844 28.400346 
L 155.967092 54.921775 
L 152.434915 55.295268 
L 143.274398 19.076107 
L 138.62143 19.866409 
L 148.713265 88.06502 
L 146.22677 88.650202 
L 143.972446 90.057145 
L 141.550932 90.790405 
L 125.433234 52.960351 
L 121.854482 54.294865 
L 113.148284 43.648689 
L 109.282826 45.374073 
L 123.236554 82.450999 
L 120.586139 83.840001 
L 108.596105 69.2906 
L 105.539137 71.146436 
L 116.372727 93.630167 
L 114.077202 95.229455 
L 116.549941 103.032251 
L 114.549951 104.621319 
L 77.459624 66.090136 
L 74.31742 68.926554 
L 104.504235 105.360996 
L 102.583422 107.327655 
L 94.363754 103.701314 
L 92.39577 105.987633 
L 99.033437 115.005568 
L 97.418575 117.139473 
L 95.871606 119.323097 
L 94.39406 121.554282 
L 83.020663 117.886906 
L 81.504314 120.522862 
L 85.575927 126.034911 
L 84.314506 128.586497 
L 89.514155 133.964409 
L 88.500107 136.388247 
L 68.661249 131.963179 
L 67.594588 135.043668 
L 25.063501 125.926706 
L 23.828596 130.380988 
L 49.893974 141.038817 
L 49.12195 144.704903 
L 53.047833 149.134726 
L 52.528803 152.697644 
L 61.361629 157.178722 
L 61.091409 160.476259 
L 80.254377 164.449573 
L 80.203428 167.149486 
L 15.277854 171.688684 
L 15.486645 176.428022 
L 76.707747 175.59243 
L 77.008907 178.398348 
L 52.935068 184.993098 
L 53.543559 188.541832 
L 25.554469 198.398771 
L 26.598002 202.801784 
L 17.369983 210.161764 
L 18.787417 214.816299 
L 63.339755 204.082659 
L 64.54332 207.294809 
L 33.859148 224.206249 
L 35.710018 228.335385 
L 51.494855 225.416676 
L 53.375065 228.990708 
L 77.375349 219.565405 
L 79.058785 222.328591 
L 63.52218 236.734354 
L 65.752296 239.924625 
L 98.705109 219.410804 
L 100.373139 221.503411 
L 84.659599 238.84881 
L 86.945747 241.373429 
L 93.696809 239.458895 
L 95.997671 241.699062 
L 94.264258 248.498883 
L 96.849077 250.716738 
L 81.432147 276.041097 
L 84.889297 278.648805 
L 81.010714 292.008089 
L 84.97011 294.621152 
L 100.075751 278.486437 
L 103.60057 280.506739 
L 99.429256 297.564347 
L 103.554246 299.595544 
L 128.729578 253.256873 
L 131.446957 254.388711 
L 131.827474 261.98112 
L 134.817631 263.01124 
L 127.195112 300.330199 
L 131.393338 301.487009 
L 134.09481 309.303567 
L 138.571767 310.238999 
L 151.762421 256.796127 
L 154.579694 257.202012 
L 153.777958 295.253126 
L 157.803407 295.576624 
L 162.501095 275.669776 
L 165.906487 275.728682 
L 169.635574 286.506581 
L 173.378172 286.335805 
L 173.96019 252.153752 
L 176.620522 251.863985 
L 183.588345 279.00492 
L 187.088176 278.399147 
L 193.418856 290.522602 
L 197.275967 289.602042 
L 204.755187 301.195011 
L 208.942257 299.912735 
L 204.729579 275.196348 
L 208.099208 273.927732 
L 227.054816 308.782491 
L 231.469428 306.795315 
L 230.211931 293.635077 
L 234.148714 291.556123 
L 221.900167 262.035673 
L 224.847505 260.233683 
L 230.776301 262.821903 
L 233.743971 260.740439 
L 219.121146 235.932836 
L 221.249128 234.23113 
L 242.234099 253.951049 
L 244.917185 251.513712 
L 265.560578 267.059874 
L 268.644301 263.88262 
L 273.946376 262.658121 
L 276.887552 259.219376 
L 281.552093 257.113569 
L 284.315176 253.438425 
L 287.600939 250.113453 
L 290.140932 246.251581 
L 289.895476 240.735077 
L 292.139458 236.805697 
L 245.329096 207.847705 
L 246.561062 205.33585 
L 248.423324 203.09404 
L 249.504294 200.487246 
L 284.709844 210.176427 
L 285.995558 206.425203 
L 286.419833 202.419361 
L 287.460803 198.618207 
L 277.057209 192.252252 
L 277.783132 188.750506 
L 316.603289 191.284855 
L 317.279243 186.540172 
L 316.265284 181.630825 
L 316.637861 176.901543 
L 316.088299 172.13856 
L 246.535111 167.419537 
z
" clip-path="url(#pc3c47c65b2)" style="fill: #0000ff; opacity: 0.5; stroke: #000000; stroke-width: 1.5; stroke-linejoin: miter"/>
   </g>
  </g>
 </g>
 <defs>
  <clipPath id="pc3c47c65b2">
   <rect x="0" y="0" width="334.8" height="325.046517"/>
  </clipPath>
 </defs>
</svg>
