<?xml version="1.0" encoding="utf-8" standalone="no"?>
<!DOCTYPE svg PUBLIC "-//W3C//DTD SVG 1.1//EN"
  "http://www.w3.org/Graphics/SVG/1.1/DTD/svg11.dtd">
<svg xmlns:xlink="http://www.w3.org/1999/xlink" width="318.265583pt" height="332.64pt" viewBox="0 0 318.265583 332.64" xmlns="http://www.w3.org/2000/svg" version="1.1">
 <metadata>
  <rdf:RDF xmlns:dc="http://purl.org/dc/elements/1.1/" xmlns:cc="http://creativecommons.org/ns#" xmlns:rdf="http://www.w3.org/1999/02/22-rdf-syntax-ns#">
   <cc:Work>
    <dc:type rdf:resource="http://purl.org/dc/dcmitype/StillImage"/>
    <dc:date>2023-12-09T18:06:25.372264</dc:date>
    <dc:format>image/svg+xml</dc:format>
    <dc:creator>
     <cc:Agent>
      <dc:title>Matplotlib v3.8.2, https://matplotlib.org/</dc:title>
     </cc:Agent>
    </dc:creator>
   </cc:Work>
  </rdf:RDF>
 </metadata>
 <defs>
  <style type="text/css">*{stroke-linejoin: round; stroke-linecap: butt}</style>
 </defs>
 <g id="figure_1">
  <g id="patch_1">
   <path d="M -0 332.64 
L 318.265583 332.64 
L 318.265583 0 
L -0 0 
L -0 332.64 
z
" style="fill: none"/>
  </g>
  <g id="axes_1">
   <g id="patch_2">
    <path d="M 243.369526 163.247379 
L 243.327191 160.555186 
L 297.29515 154.458875 
L 296.949823 150.075487 
L 276.204239 148.267476 
L 275.674669 144.550294 
L 270.39891 141.735644 
L 269.666835 138.204224 
L 266.541658 135.284207 
L 265.608643 131.877257 
L 262.327925 129.230266 
L 261.206644 125.958798 
L 303.798966 105.357127 
L 301.906557 100.793522 
L 236.625674 126.086963 
L 235.418269 123.625185 
L 267.16676 103.021055 
L 265.219011 99.610402 
L 253.219794 102.581988 
L 251.265136 99.610075 
L 222.538648 116.110425 
L 221.024524 114.096506 
L 267.236547 72.5412 
L 264.330411 69.143423 
L 262.46333 64.762362 
L 259.31497 61.518512 
L 213.621916 103.647921 
L 211.720352 101.920525 
L 220.769536 86.928203 
L 218.338734 84.984337 
L 233.831991 58.315868 
L 230.495095 55.975437 
L 219.942106 65.023549 
L 216.822982 63.11653 
L 230.264212 31.00238 
L 226.070284 28.787632 
L 193.447631 87.15392 
L 191.037434 86.069003 
L 194.648672 69.715297 
L 191.689573 68.601239 
L 188.2133 69.075563 
L 185.237267 68.164164 
L 184.566252 58.213398 
L 181.250493 57.42204 
L 176.011837 66.769072 
L 172.969316 66.242454 
L 176.140637 15.924722 
L 171.499395 15.419192 
L 165.496609 37.013553 
L 161.523709 36.832268 
L 157.595244 67.411916 
L 154.582041 67.464038 
L 150.86348 56.636195 
L 147.514793 56.905306 
L 143.278229 50.266998 
L 139.733031 50.777755 
L 133.977341 39.829282 
L 130.108557 40.63764 
L 123.315963 30.159728 
L 119.148419 31.308084 
L 131.621491 83.357835 
L 129.122505 84.218744 
L 123.164634 76.400091 
L 120.451063 77.530343 
L 97.284747 35.429193 
L 93.295757 37.393422 
L 88.990636 38.794518 
L 85.11156 41.017868 
L 110.867368 89.726564 
L 108.57889 91.236879 
L 102.170905 87.107945 
L 99.804392 88.892991 
L 58.834272 44.233415 
L 55.141117 47.402258 
L 67.182412 67.255655 
L 64.208999 70.150632 
L 44.110607 57.046647 
L 40.827608 60.6721 
L 63.739444 85.86606 
L 61.352885 88.860089 
L 83.891885 109.872634 
L 82.250182 112.221157 
L 60.753098 102.044127 
L 58.87669 105.124055 
L 34.34887 95.833134 
L 32.290229 99.746339 
L 26.797258 102.059628 
L 24.938126 106.207194 
L 47.338991 119.887225 
L 46.030241 123.380099 
L 40.345314 125.468623 
L 39.215513 129.178634 
L 28.304456 130.411344 
L 27.336018 134.497503 
L 24.180372 138.17735 
L 23.458154 142.38934 
L 47.817112 149.697177 
L 47.445416 153.16028 
L 60.513099 157.430793 
L 60.378287 160.490882 
L 43.058017 163.608043 
L 43.126062 167.213904 
L 35.469198 171.334231 
L 35.783923 175.174881 
L 71.275025 174.458633 
L 71.670285 177.171925 
L 43.618904 185.412804 
L 44.372261 188.990248 
L 43.717347 192.938113 
L 44.707268 196.508742 
L 14.466617 210.350228 
L 16.018475 214.831955 
L 73.141181 197.089952 
L 74.247097 199.733378 
L 66.211144 206.721875 
L 67.623335 209.578434 
L 29.9664 234.102997 
L 32.257434 238.085633 
L 36.657612 240.724153 
L 39.153521 244.493128 
L 90.566706 212.444345 
L 92.146781 214.532283 
L 88.361651 221.096857 
L 90.214871 223.249849 
L 88.141152 229.123271 
L 90.246849 231.279227 
L 52.794937 275.900034 
L 56.388874 279.144224 
L 99.945445 233.691593 
L 102.188943 235.474137 
L 109.53776 230.173909 
L 111.665912 231.656589 
L 79.132744 288.266025 
L 83.102473 290.675983 
L 88.648139 290.200091 
L 92.673974 292.309908 
L 114.992405 255.121124 
L 117.902255 256.419964 
L 120.279499 259.089914 
L 123.311522 260.220554 
L 116.320573 292.677688 
L 120.410627 293.916198 
L 119.354798 315.592023 
L 124.163829 316.723801 
L 136.334733 278.317422 
L 139.963374 278.933743 
L 144.937845 268.518647 
L 148.254137 268.869312 
L 152.401964 254.999779 
L 155.289503 255.12244 
L 158.449968 312.497853 
L 163.142382 312.401923 
L 165.388185 276.106334 
L 168.932939 275.810244 
L 172.773312 277.739418 
L 176.365763 277.210317 
L 174.957504 251.129082 
L 177.712187 250.544461 
L 178.455794 242.274732 
L 180.930348 241.584495 
L 206.799514 311.673472 
L 211.442102 310.057734 
L 210.173737 293.718988 
L 214.250129 292.006035 
L 200.011794 251.877531 
L 202.777623 250.504779 
L 215.049519 266.205414 
L 218.258413 264.352758 
L 219.709828 259.75605 
L 222.713635 257.760053 
L 219.606661 247.441132 
L 222.223312 245.454468 
L 257.535358 282.552254 
L 261.237226 279.355668 
L 245.365697 255.535742 
L 248.224124 252.735155 
L 226.817894 227.394563 
L 228.800671 225.191073 
L 234.361548 225.910277 
L 236.293926 223.470332 
L 252.825314 231.507657 
L 254.924557 228.484403 
L 288.878878 245.417877 
L 291.397663 241.254142 
L 267.543385 222.784317 
L 269.36107 219.302608 
L 256.101267 208.829117 
L 257.485827 205.714072 
L 299.035675 218.223927 
L 300.694401 213.754286 
L 250.563362 192.793637 
L 251.44647 189.860646 
L 234.710367 182.513909 
L 235.278095 180.084453 
L 275.939528 185.047559 
L 276.566535 181.320514 
L 298.134302 180.104108 
L 298.594902 175.681656 
L 281.662077 170.269187 
L 281.82159 166.36952 
L 243.367832 162.708855 
L 243.308566 160.016981 
L 297.237115 153.581363 
L 296.864226 149.200234 
L 276.107681 147.522736 
L 275.554742 143.808959 
L 270.261385 141.027546 
L 269.507114 137.5008 
L 266.363634 134.600497 
L 265.40921 131.199482 
L 262.111908 128.573177 
L 260.970074 125.308826 
L 303.43198 104.439681 
L 301.510906 99.888069 
L 236.390396 125.59159 
L 235.167532 123.137453 
L 266.785806 102.334051 
L 264.816645 98.935716 
L 252.836355 101.982712 
L 250.863044 99.023151 
L 222.240902 115.703848 
L 220.714141 113.699491 
L 266.663891 71.85436 
L 263.736442 68.474928 
L 261.841844 64.105697 
L 258.673144 60.881712 
L 213.245964 103.297672 
L 211.333573 101.58227 
L 220.288285 86.533329 
L 217.845305 84.60479 
L 233.170526 57.839406 
L 229.818976 55.520008 
L 219.323104 64.634313 
L 216.192047 62.746949 
L 229.431031 30.548897 
L 225.223257 28.36057 
L 192.96834 86.930882 
L 190.551367 85.861145 
L 194.059679 69.48505 
L 191.093631 68.389625 
L 187.62041 68.885803 
L 184.638704 67.993139 
L 183.905117 58.046791 
L 180.584446 57.276303 
L 175.404682 66.656098 
L 172.358909 66.148626 
L 175.213697 15.811943 
L 170.569367 15.335615 
L 164.702516 36.967302 
L 160.728555 36.811008 
L 156.992496 67.414759 
L 153.979681 67.485832 
L 150.193092 56.68159 
L 146.846164 56.971757 
L 142.567932 50.360227 
L 139.026017 50.893271 
L 133.201581 39.981214 
L 129.337958 40.813888 
L 122.479598 30.378906 
L 118.319359 31.55345 
L 131.119547 83.523723 
L 128.626026 84.400332 
L 122.619098 76.619306 
L 119.912689 77.766602 
L 96.482039 35.811988 
L 92.505482 37.801267 
L 88.209258 39.229411 
L 84.344242 41.477115 
L 110.40589 90.022857 
L 108.126957 91.547536 
L 101.69313 87.458987 
L 99.337891 89.258881 
L 58.087698 44.857867 
L 54.414546 48.049875 
L 66.58047 67.827147 
L 63.625323 70.740767 
L 43.444912 57.76345 
L 40.18478 61.409478 
L 63.254618 86.458838 
L 60.886937 89.467818 
L 83.557649 110.33819 
L 81.930749 112.696992 
L 60.370083 102.655368 
L 58.513082 105.747036 
L 33.927313 96.610565 
L 31.893325 100.536641 
L 26.415012 102.884431 
L 24.582002 107.043608 
L 47.068464 120.582479 
L 45.781708 124.083516 
L 40.110029 126.207753 
L 39.003584 129.924797 
L 28.100496 131.226107 
L 27.157777 135.318276 
L 24.025337 139.017898 
L 23.329624 143.234346 
L 47.734063 150.388835 
L 47.384155 153.854207 
L 60.478439 158.042447 
L 60.362876 161.103324 
L 43.062554 164.329358 
L 43.153277 167.93472 
L 35.522478 172.103123 
L 35.861353 175.941717 
L 71.347247 175.002265 
L 71.759565 177.713017 
L 43.760569 186.130159 
L 44.536412 189.702795 
L 43.906341 193.654701 
L 44.918699 197.219033 
L 14.765702 211.250442 
L 16.345716 215.72232 
L 73.355705 197.621398 
L 74.478224 200.257816 
L 66.486385 207.296717 
L 67.916514 210.144338 
L 30.414569 234.905257 
L 32.730606 238.873404 
L 37.147292 241.484198 
L 39.666857 245.237401 
L 90.877455 212.865891 
L 92.470632 214.94385 
L 88.726864 221.532101 
L 90.593588 223.673394 
L 88.556851 229.559742 
L 90.676066 231.702412 
L 53.505535 276.557888 
L 57.119805 279.77941 
L 100.389642 234.053732 
L 102.644307 235.822131 
L 109.959643 230.475788 
L 112.097078 231.945054 
L 79.920595 288.757985 
L 83.905403 291.142928 
L 89.447966 290.632166 
L 93.486992 292.716621 
L 115.571084 255.388203 
L 118.489046 256.668715 
L 120.883035 259.323661 
L 123.92211 260.435209 
L 117.135436 292.93567 
L 121.233199 294.148432 
L 120.313719 315.830468 
L 125.129773 316.931977 
L 137.058882 278.44981 
L 140.691327 279.043297 
L 145.600195 268.59712 
L 148.918627 268.926921 
L 152.97914 255.031574 
L 155.867393 255.136072 
L 159.388655 312.490473 
L 164.080373 312.365032 
L 166.097852 276.056037 
L 169.640674 275.737658 
L 173.493105 277.64264 
L 177.082157 277.090954 
L 175.50989 251.019092 
L 178.260842 250.417158 
L 178.952422 242.142916 
L 181.422585 241.437129 
L 207.73206 311.362017 
L 212.364394 309.717112 
L 210.993293 293.386667 
L 215.05883 291.648108 
L 200.568391 251.60995 
L 203.325531 250.219829 
L 215.695933 265.84297 
L 218.893112 263.970169 
L 220.315587 259.364424 
L 223.306781 257.349574 
L 220.134969 247.050398 
L 222.739072 245.047315 
L 258.283744 281.922275 
L 261.965434 278.70247 
L 245.944406 254.982838 
L 248.785162 252.164329 
L 227.219977 226.958871 
L 229.188856 224.742954 
L 234.754146 225.427169 
L 236.67114 222.975119 
L 253.252752 230.908311 
L 255.332938 227.871914 
L 289.393091 244.5915 
L 291.885638 240.412006 
L 267.915667 222.092575 
L 269.711418 218.599503 
L 256.386005 208.209616 
L 257.750946 205.085925 
L 299.378652 217.334207 
L 301.009233 212.854222 
L 250.747356 192.209284 
L 251.611999 189.270796 
L 234.83002 182.029466 
L 235.382458 179.596487 
L 276.074301 184.303757 
L 276.677855 180.572843 
L 298.237544 179.220811 
L 298.670321 174.795549 
L 281.703789 169.489686 
L 281.838773 165.589093 
L 243.362752 162.170352 
L 243.286556 159.478905 
L 297.173562 152.704234 
L 296.773126 148.325536 
L 276.006441 146.778619 
L 275.430155 143.068392 
L 270.119409 140.320327 
L 269.342972 136.798395 
L 266.181313 133.91792 
L 265.205517 130.522975 
L 261.891763 127.91746 
L 260.72942 124.660355 
L 303.059231 103.524562 
L 301.109568 98.985122 
L 236.152007 125.097705 
L 234.913732 122.651309 
L 266.400539 101.649457 
L 264.410044 98.263574 
L 252.449154 101.385858 
L 250.457268 98.438768 
L 221.940604 115.299151 
L 220.401267 113.304437 
L 266.086926 71.171136 
L 263.138281 67.810183 
L 261.21624 63.452954 
L 258.027326 60.248962 
L 212.867817 102.949794 
L 210.944675 101.246454 
L 219.804561 86.141491 
L 217.349499 84.228355 
L 232.506078 57.367113 
L 229.140007 55.06884 
L 218.701665 64.248978 
L 215.5588 62.381344 
L 228.595015 30.100663 
L 224.373561 27.938844 
L 192.487656 86.710862 
L 190.064003 85.656348 
L 193.469249 69.258512 
L 190.49637 68.181763 
L 187.026338 68.699776 
L 184.039077 67.825883 
L 183.242948 57.884345 
L 179.917497 57.134758 
L 174.796828 66.546945 
L 171.747924 66.058639 
L 174.286066 15.704997 
L 169.638832 15.257888 
L 163.908149 36.926047 
L 159.933282 36.79475 
L 156.389778 67.421394 
L 153.37747 67.511413 
L 149.523003 56.731201 
L 146.177967 57.042413 
L 141.858236 50.45792 
L 138.319744 51.013231 
L 132.426792 40.138022 
L 128.568483 40.99498 
L 121.644628 30.603339 
L 117.491858 31.804026 
L 130.618658 83.692764 
L 128.130699 84.585039 
L 122.074951 76.841947 
L 119.375812 78.006242 
L 95.681755 36.199824 
L 91.717787 38.214073 
L 87.43063 39.66921 
L 83.579828 41.941178 
L 109.946286 90.322048 
L 107.676987 91.86103 
L 101.217573 87.813026 
L 98.8737 89.627698 
L 57.345066 45.487002 
L 53.692063 48.70205 
L 65.982134 68.402413 
L 63.045371 71.334562 
L 42.783739 58.484425 
L 39.546602 62.150886 
L 62.773531 87.054653 
L 60.424821 90.078465 
L 83.226347 110.805839 
L 81.614315 113.174826 
L 59.990919 103.269005 
L 58.153401 106.372292 
L 33.510654 97.390632 
L 31.501399 101.329423 
L 26.037961 103.711622 
L 24.231146 107.882245 
L 46.802315 121.279422 
L 45.537604 124.788482 
L 39.879397 126.948349 
L 38.796353 130.672278 
L 27.901664 132.042137 
L 26.984702 136.140154 
L 23.875592 139.859404 
L 23.206412 144.080144 
L 47.655366 151.081002 
L 47.32726 154.548506 
L 60.447627 158.654307 
L 60.351317 161.71585 
L 43.071627 165.05063 
L 43.185024 168.65535 
L 35.580593 172.871664 
L 35.943603 176.708051 
L 71.422888 175.545431 
L 71.852246 178.253536 
L 43.906744 186.84661 
L 44.70504 190.414296 
L 44.099837 194.370086 
L 45.134593 197.927981 
L 15.070442 212.148757 
L 16.678551 216.610609 
L 73.573567 198.151485 
L 74.712646 200.780791 
L 66.765235 207.869817 
L 68.213246 210.708387 
L 30.867775 235.704682 
L 33.208724 239.658184 
L 37.641743 242.241147 
L 40.184863 245.978429 
L 91.19085 213.285474 
L 92.797064 215.353372 
L 89.094806 221.965039 
L 90.974961 224.094549 
L 88.975286 229.993591 
L 91.107936 232.12289 
L 54.220255 277.21126 
L 57.854715 280.409987 
L 100.836108 234.41307 
L 103.101851 236.167253 
L 110.383417 230.775007 
L 112.530051 232.2308 
L 80.711525 289.24498 
L 84.711254 291.604813 
L 90.250495 291.059202 
L 94.302551 293.118213 
L 116.151432 255.651636 
L 119.07739 256.913771 
L 121.488029 259.553608 
L 124.534035 260.646019 
L 117.951905 293.188522 
L 122.057214 294.375487 
L 121.27412 316.062877 
L 126.097007 317.134075 
L 137.783849 278.577642 
L 141.419955 279.148271 
L 146.263025 268.671426 
L 149.583466 268.980349 
L 153.556505 255.059739 
L 156.445358 255.14607 
L 160.327277 312.477189 
L 165.018113 312.322243 
L 166.80719 276.001277 
L 170.347939 275.660622 
L 174.212275 277.541337 
L 177.797786 276.967089 
L 176.061573 250.905631 
L 178.808684 250.286407 
L 179.448211 242.007979 
L 181.913886 241.28667 
L 208.662628 311.044703 
L 213.284526 309.370696 
L 211.810742 293.049197 
L 215.865264 291.285103 
L 201.123295 251.338873 
L 203.871637 249.931439 
L 216.340055 265.476468 
L 219.525391 263.583596 
L 220.918871 258.968995 
L 223.897334 256.935372 
L 220.660808 246.656349 
L 223.252262 244.636927 
L 259.028154 281.287602 
L 262.68952 278.044705 
L 246.519625 254.426306 
L 249.342598 251.589985 
L 227.619312 226.520658 
L 229.574216 224.292402 
L 235.143699 224.941601 
L 237.045233 222.477542 
L 253.676412 230.306289 
L 255.73746 227.256869 
L 289.902095 243.761905 
L 292.368307 239.566817 
L 268.283591 221.398506 
L 270.057337 217.894209 
L 256.666841 207.588336 
L 258.012109 204.456123 
L 299.716026 216.442348 
L 301.318399 211.952196 
L 250.92767 191.623785 
L 251.773815 188.679917 
L 234.946624 181.544279 
L 235.483749 179.107874 
L 276.204394 183.559122 
L 276.78447 179.824486 
L 298.335229 178.336883 
L 298.740165 173.908986 
L 281.740598 168.709938 
L 281.851046 164.808573 
L 243.354284 161.631892 
L 243.261163 158.940977 
L 297.104494 151.827521 
L 296.676526 147.451429 
L 275.900522 146.035153 
L 275.300913 142.328624 
L 269.972989 139.614015 
L 269.174416 136.097036 
L 265.994703 133.236503 
L 264.997574 129.847762 
L 261.667498 127.26314 
L 260.484693 124.01341 
L 302.680735 102.611805 
L 300.70256 98.084717 
L 235.910517 124.60533 
L 234.656879 122.16677 
L 266.010974 100.967299 
L 263.999223 97.594002 
L 252.058207 100.791452 
L 250.047825 97.856948 
L 221.637767 114.896351 
L 220.085915 112.911358 
L 265.505676 70.491553 
L 262.53595 67.149212 
L 260.586543 62.804158 
L 257.377541 59.620286 
L 212.487489 102.604301 
L 210.553672 100.91309 
L 219.318381 85.752702 
L 216.851335 83.855045 
L 231.838672 56.899008 
L 228.458213 54.621951 
L 218.077816 63.867559 
L 214.923267 62.019729 
L 227.756196 29.657695 
L 223.521229 27.52247 
L 192.005598 86.49387 
L 189.57536 85.45462 
L 192.877405 69.035691 
L 189.897814 67.977662 
L 186.431108 68.517489 
L 183.43841 67.662401 
L 182.57977 57.726067 
L 179.24967 56.99741 
L 174.1883 66.441617 
L 171.136385 65.972497 
L 173.357781 15.603887 
L 168.707827 15.186016 
L 163.113537 36.889788 
L 159.137924 36.783494 
L 155.787114 67.431818 
L 152.775431 67.540782 
L 148.853239 56.785025 
L 145.510226 57.117269 
L 141.149169 50.560076 
L 137.614239 51.13763 
L 131.653005 40.2997 
L 127.800161 41.180908 
L 120.811086 30.833019 
L 116.66595 32.059801 
L 130.118841 83.864953 
L 127.636543 84.772858 
L 121.532215 77.068006 
L 118.840452 78.249255 
L 94.883925 36.592685 
L 90.932705 38.631826 
L 86.654784 40.113898 
L 82.818347 42.41004 
L 109.488572 90.624123 
L 107.228998 92.177347 
L 100.744251 88.170049 
L 98.411839 89.999427 
L 56.606406 46.120796 
L 52.973696 49.358755 
L 65.387428 68.981431 
L 62.469164 71.931993 
L 42.127113 59.209544 
L 38.913101 62.896292 
L 62.2962 87.653483 
L 59.966555 90.692007 
L 82.897994 111.275562 
L 81.300893 113.654641 
L 59.615623 103.885015 
L 57.797658 106.999797 
L 33.09891 98.173304 
L 31.114467 102.124654 
L 25.666119 104.541168 
L 23.885571 108.723072 
L 46.540554 121.978024 
L 45.297938 125.49497 
L 39.653428 127.690381 
L 38.593826 131.421048 
L 27.707969 132.859401 
L 26.816799 136.963104 
L 23.731143 140.701835 
L 23.088522 144.926701 
L 47.581024 151.77365 
L 47.274733 155.243149 
L 60.420663 159.266349 
L 60.343611 162.328437 
L 43.085237 165.771831 
L 43.221303 169.375766 
L 35.64354 173.639824 
L 36.030673 177.473852 
L 71.501943 176.088111 
L 71.948325 178.793462 
L 44.057421 187.562127 
L 44.878141 191.124721 
L 44.297829 195.08424 
L 45.354942 198.635556 
L 15.380825 213.045138 
L 17.016965 217.496788 
L 73.794759 198.680191 
L 74.950352 201.302281 
L 67.047684 208.441151 
L 68.513519 211.270558 
L 31.326 236.50124 
L 33.691768 240.439941 
L 38.140944 242.994972 
L 40.707519 246.716186 
L 91.506878 213.703079 
L 93.126066 215.760833 
L 89.465465 222.395654 
L 91.358976 224.513297 
L 89.396442 230.424799 
L 91.542442 232.540643 
L 54.939071 277.860124 
L 58.593577 281.035929 
L 101.284826 234.769593 
L 103.561557 236.509491 
L 110.809064 231.071554 
L 112.964812 232.513818 
L 81.505502 289.72699 
L 85.519994 292.061621 
L 91.055694 291.481182 
L 95.12062 293.514667 
L 116.733425 255.911414 
L 119.667263 257.155122 
L 122.094458 259.779745 
L 125.147274 260.852977 
L 118.769948 293.436234 
L 122.882642 294.597355 
L 122.235964 316.289242 
L 127.065493 317.330085 
L 138.509606 278.700911 
L 142.149229 279.248659 
L 146.92631 268.741562 
L 150.248628 269.029596 
L 154.134036 255.084273 
L 157.023375 255.152432 
L 161.265797 312.458003 
L 165.955566 312.273556 
L 167.516168 275.942056 
L 171.054705 275.579139 
L 174.930793 277.435512 
L 178.512622 276.838725 
L 176.612531 250.788702 
L 179.355694 250.152212 
L 179.943141 241.869926 
L 182.404231 241.133124 
L 209.591183 310.721543 
L 214.20246 309.018499 
L 212.626053 292.706593 
L 216.6694 290.917033 
L 201.676482 251.064312 
L 204.415919 249.63962 
L 216.98186 265.105922 
L 220.155227 263.193053 
L 221.519656 258.56978 
L 224.48527 256.517464 
L 221.184159 246.259 
L 223.762861 244.22332 
L 259.768557 280.64826 
L 263.409455 277.382398 
L 247.091333 253.866166 
L 249.896412 251.012146 
L 228.015884 226.079943 
L 229.956734 223.839435 
L 235.53019 224.453593 
L 237.416189 221.977623 
L 254.096277 229.701614 
L 256.138105 226.639292 
L 290.405872 242.929125 
L 292.84565 238.718609 
L 268.647142 220.702137 
L 270.398813 217.186753 
L 256.943764 206.965303 
L 258.269305 203.82469 
L 300.047785 215.548384 
L 301.621885 211.048243 
L 251.104299 191.037163 
L 251.931912 188.088032 
L 235.060174 181.058368 
L 235.581965 178.618633 
L 276.3298 182.813684 
L 276.886376 179.075473 
L 298.427353 177.452357 
L 298.804432 173.022002 
L 281.772502 167.929974 
L 281.858411 164.027991 
L 243.342431 161.093496 
L 243.232386 158.40322 
L 297.029914 150.951261 
L 296.574431 146.577947 
L 275.78993 145.292368 
L 275.167021 141.589684 
L 269.822128 138.908638 
L 269.001451 135.396751 
L 265.80381 132.556273 
L 264.785388 129.173871 
L 261.439122 126.610244 
L 260.235901 123.368018 
L 302.296505 101.701446 
L 300.289896 97.18689 
L 235.665934 124.114483 
L 234.396984 121.683856 
L 265.617126 100.287605 
L 263.584198 96.927028 
L 251.663529 100.199517 
L 249.634731 97.277715 
L 221.332403 114.495464 
L 219.768097 112.520271 
L 264.920163 69.81564 
L 261.929475 66.492043 
L 259.952778 62.159335 
L 256.723815 58.995709 
L 212.104996 102.261207 
L 210.16058 100.582192 
L 218.829765 85.366979 
L 216.350833 83.484876 
L 231.168336 56.43511 
L 227.773622 54.17936 
L 217.45158 63.490071 
L 214.285471 61.662118 
L 226.914608 29.220013 
L 222.666295 27.111465 
L 191.522184 86.279914 
L 189.085458 85.25597 
L 192.284172 68.816598 
L 189.297985 67.777329 
L 185.834743 68.338949 
L 182.836726 67.502701 
L 181.915609 57.571964 
L 178.580993 56.864265 
L 173.579121 66.340119 
L 170.524316 65.890202 
L 172.428878 15.508618 
L 167.776388 15.12 
L 162.318713 36.858528 
L 158.34251 36.77724 
L 155.184527 67.446033 
L 152.173589 67.573936 
L 148.183827 56.843061 
L 144.84297 57.196324 
L 140.440758 50.666689 
L 136.909531 51.266465 
L 130.88025 40.466242 
L 127.033025 41.371664 
L 119.979005 31.067937 
L 115.841667 32.320766 
L 129.620117 84.040282 
L 127.143578 84.963781 
L 120.990912 77.297475 
L 118.306632 78.495629 
L 94.088582 36.990556 
L 90.150265 39.054508 
L 85.881751 40.563457 
L 82.059831 42.883682 
L 109.032768 90.929071 
L 106.783007 92.496475 
L 100.273185 88.530042 
L 97.952324 90.374054 
L 55.871747 46.759223 
L 52.259473 50.019966 
L 64.796375 69.564179 
L 61.896727 72.533036 
L 41.475061 59.938778 
L 38.2843 63.645668 
L 61.822645 88.255303 
L 59.512157 91.308419 
L 82.572601 111.747341 
L 80.990495 114.136418 
L 59.244208 104.503373 
L 57.44587 107.629528 
L 32.692096 98.95855 
L 30.732544 102.922303 
L 25.299503 105.373036 
L 23.545292 109.566057 
L 46.283193 122.678259 
L 45.062721 126.202951 
L 39.43213 128.433819 
L 38.396013 132.171077 
L 27.519418 133.677867 
L 26.654076 137.787094 
L 23.591995 141.545158 
L 22.975959 145.773982 
L 47.511039 152.466752 
L 47.226576 155.938109 
L 60.39755 159.878549 
L 60.339758 162.941061 
L 43.103382 166.492932 
L 43.262112 170.09594 
L 35.711318 174.407573 
L 36.122556 178.239091 
L 71.58441 176.630283 
L 72.047798 179.332773 
L 44.212595 188.276683 
L 45.055706 191.834044 
L 44.500309 195.797135 
L 45.579736 199.341732 
L 15.696841 213.939549 
L 17.360947 218.38082 
L 74.019272 199.207496 
L 75.191333 201.822266 
L 67.333722 209.010698 
L 68.817323 211.830829 
L 31.789226 237.294901 
L 34.179719 241.218645 
L 38.644877 243.745642 
L 41.234806 247.45064 
L 91.825526 214.118687 
L 93.457624 216.166217 
L 89.838825 222.82393 
L 91.745617 224.929622 
L 89.820302 230.85335 
L 91.979566 232.955654 
L 55.661954 278.504454 
L 59.336362 281.657211 
L 101.735777 235.123287 
L 104.023406 236.848831 
L 111.236568 231.365419 
L 113.401344 232.794096 
L 82.302495 290.203998 
L 86.331591 292.513334 
L 91.863531 291.89809 
L 95.941166 293.905969 
L 117.31704 256.167527 
L 120.258643 257.392758 
L 122.702297 260.002063 
L 125.761803 261.056073 
L 119.589533 293.678796 
L 123.709448 294.814028 
L 123.199213 316.509553 
L 128.035193 317.52 
L 139.236124 278.819613 
L 142.87912 279.344459 
L 147.590022 268.807525 
L 150.914086 269.074657 
L 154.711709 255.105173 
L 157.60142 255.155159 
L 162.204178 312.432913 
L 166.892693 312.218975 
L 168.224761 275.878378 
L 171.760945 275.493213 
L 175.648632 277.325171 
L 179.226636 276.705867 
L 177.162743 250.668311 
L 179.901849 250.01458 
L 180.437193 241.728763 
L 182.893601 240.976496 
L 210.517686 310.392549 
L 215.118161 308.660537 
L 213.439192 292.358867 
L 217.471204 290.543913 
L 202.227932 250.786277 
L 204.958354 249.344383 
L 217.62132 264.731347 
L 220.782595 262.798558 
L 222.117919 258.166794 
L 225.070566 256.095867 
L 221.705 245.858368 
L 224.270848 243.806509 
L 260.504924 280.004273 
L 264.125209 276.715577 
L 247.659507 253.302442 
L 250.44658 250.430836 
L 228.409675 225.636742 
L 230.336395 223.384072 
L 235.913604 223.963163 
L 237.783993 221.475381 
L 254.512331 229.094311 
L 256.534858 226.019207 
L 290.904401 242.093193 
L 293.317649 237.867416 
L 269.006307 220.003495 
L 270.735833 216.477163 
L 257.216763 206.34054 
L 258.522525 203.191653 
L 300.373914 214.652352 
L 301.919679 210.142399 
L 251.277234 190.449443 
L 252.086282 187.495164 
L 235.170666 180.571753 
L 235.677102 178.128784 
L 276.450516 182.067471 
L 276.98357 178.325834 
L 298.513912 176.56727 
L 298.863119 172.13463 
L 281.7995 167.149824 
L 243.369526 163.247379 
z
" clip-path="url(#p5d899d6922)" style="fill: #0000ff; opacity: 0.5; stroke: #000000; stroke-width: 1.5; stroke-linejoin: miter"/>
   </g>
  </g>
 </g>
 <defs>
  <clipPath id="p5d899d6922">
   <rect x="0" y="-0" width="318.265583" height="332.64"/>
  </clipPath>
 </defs>
</svg>
