<?xml version="1.0" encoding="utf-8" standalone="no"?>
<!DOCTYPE svg PUBLIC "-//W3C//DTD SVG 1.1//EN"
  "http://www.w3.org/Graphics/SVG/1.1/DTD/svg11.dtd">
<svg xmlns:xlink="http://www.w3.org/1999/xlink" width="315.548182pt" height="332.64pt" viewBox="0 0 315.548182 332.64" xmlns="http://www.w3.org/2000/svg" version="1.1">
 <metadata>
  <rdf:RDF xmlns:dc="http://purl.org/dc/elements/1.1/" xmlns:cc="http://creativecommons.org/ns#" xmlns:rdf="http://www.w3.org/1999/02/22-rdf-syntax-ns#">
   <cc:Work>
    <dc:type rdf:resource="http://purl.org/dc/dcmitype/StillImage"/>
    <dc:date>2023-12-09T18:06:25.523278</dc:date>
    <dc:format>image/svg+xml</dc:format>
    <dc:creator>
     <cc:Agent>
      <dc:title>Matplotlib v3.8.2, https://matplotlib.org/</dc:title>
     </cc:Agent>
    </dc:creator>
   </cc:Work>
  </rdf:RDF>
 </metadata>
 <defs>
  <style type="text/css">*{stroke-linejoin: round; stroke-linecap: butt}</style>
 </defs>
 <g id="figure_1">
  <g id="patch_1">
   <path d="M 0 332.64 
L 315.548182 332.64 
L 315.548182 0 
L 0 0 
L 0 332.64 
z
" style="fill: none"/>
  </g>
  <g id="axes_1">
   <g id="patch_2">
    <path d="M 254.875345 167.690785 
L 254.827612 164.65534 
L 280.120766 160.020973 
L 279.819396 156.195549 
L 261.77479 154.610059 
L 261.31236 151.364148 
L 253.920549 149.438141 
L 253.299385 146.441741 
L 254.828351 142.889581 
L 254.000838 139.867876 
L 261.89211 134.006976 
L 260.781816 130.767563 
L 274.647827 121.58843 
L 273.14076 117.954088 
L 274.314866 113.05234 
L 272.539569 109.432689 
L 246.970149 118.905013 
L 245.392393 116.142245 
L 224.824597 125.442281 
L 223.463337 123.372586 
L 254.513635 97.720326 
L 252.266057 94.730849 
L 230.299002 108.072933 
L 228.388905 105.839699 
L 244.975363 86.206764 
L 242.37049 83.522884 
L 223.307333 98.38863 
L 221.096197 96.380017 
L 242.919913 65.261478 
L 239.65749 62.652582 
L 237.221393 58.89705 
L 233.761676 56.470475 
L 202.957786 97.219602 
L 200.719955 95.851402 
L 210.323288 72.884152 
L 207.316655 71.296396 
L 206.557924 64.909619 
L 203.302416 63.444197 
L 189.231222 89.382126 
L 186.75375 88.449394 
L 199.463353 40.566314 
L 195.445946 39.335997 
L 182.602115 72.655011 
L 179.601984 71.938982 
L 186.062993 21.233957 
L 181.44436 20.434535 
L 177.281321 15.948861 
L 172.500855 15.428167 
L 166.759759 30.475488 
L 162.441244 30.278433 
L 158.118669 30.217259 
L 153.796307 30.292026 
L 149.179902 25.878342 
L 144.725535 26.236309 
L 142.933296 47.418008 
L 139.159272 47.961732 
L 138.617416 65.308389 
L 135.408038 65.978969 
L 136.476864 83.199715 
L 133.831087 83.928752 
L 126.888699 71.527317 
L 123.880656 72.563598 
L 102.049757 26.33676 
L 97.633106 28.176375 
L 94.597461 32.946576 
L 90.392322 35.01724 
L 120.613965 99.412856 
L 118.485808 100.632641 
L 77.365861 40.705148 
L 73.413188 43.313775 
L 86.391887 69.126826 
L 83.328391 71.437602 
L 84.288218 78.595318 
L 81.523472 80.967556 
L 54.454636 57.584214 
L 51.044005 60.904875 
L 47.73947 64.331131 
L 44.544298 67.859595 
L 96.916779 117.134598 
L 95.357548 119.090712 
L 36.89792 79.927634 
L 34.198496 83.789269 
L 49.9103 99.274044 
L 47.812736 102.716975 
L 38.368956 102.151067 
L 36.367558 105.955462 
L 46.38178 115.379028 
L 44.792336 118.924941 
L 20.311238 113.484736 
L 18.675124 117.851301 
L 31.145845 126.762197 
L 29.921846 130.781533 
L 60.266563 142.813342 
L 59.53285 145.909123 
L 15.629925 140.905318 
L 14.858288 145.405516 
L 40.290307 153.140215 
L 39.89117 156.858987 
L 62.737534 161.972039 
L 62.60499 164.980654 
L 64.88407 167.984664 
L 64.939515 170.922815 
L 62.004751 174.061638 
L 62.252693 177.087317 
L 44.213724 182.486984 
L 44.735373 186.067886 
L 59.016192 186.980166 
L 59.671798 190.093424 
L 77.615249 188.708529 
L 78.316003 191.236137 
L 57.81876 200.735284 
L 58.907449 203.879391 
L 73.719035 201.537774 
L 74.825095 204.181545 
L 36.248459 225.67577 
L 38.131997 229.485764 
L 26.625778 240.725379 
L 28.987266 244.830489 
L 93.279357 209.315675 
L 94.6203 211.340581 
L 86.054555 220.62337 
L 87.754609 222.869848 
L 49.780535 258.198449 
L 52.679966 261.566884 
L 50.635468 269.620442 
L 53.893609 272.956349 
L 86.210179 245.108185 
L 88.680012 247.337665 
L 65.254099 281.132712 
L 68.866984 284.003285 
L 109.58335 235.371575 
L 111.735486 236.870965 
L 110.644731 243.532403 
L 113.052937 244.994386 
L 101.844975 271.479049 
L 105.136236 273.203898 
L 125.098344 239.113201 
L 127.360454 240.122916 
L 122.904574 258.324587 
L 125.771817 259.39378 
L 131.967212 250.074347 
L 134.570569 250.86267 
L 136.631244 253.815479 
L 139.349924 254.455304 
L 143.500199 247.416415 
L 146.014282 247.84343 
L 142.290866 299.558107 
L 146.444996 299.997366 
L 153.035843 258.670848 
L 155.899075 258.792477 
L 159.041593 317.52 
L 163.752203 317.423698 
L 164.387533 257.075689 
L 167.194997 256.841184 
L 173.913494 286.383021 
L 177.637735 285.834509 
L 176.592838 260.915568 
L 179.515002 260.295403 
L 181.437303 255.848183 
L 184.197743 255.078203 
L 183.782004 244.68873 
L 186.190407 243.850545 
L 198.074144 266.585875 
L 201.163974 265.287488 
L 212.522435 281.320454 
L 216.068408 279.560496 
L 197.397014 237.874278 
L 199.584423 236.611377 
L 238.033645 291.821571 
L 241.897184 289.254292 
L 243.848913 284.077254 
L 247.466078 281.330959 
L 245.048991 271.363317 
L 248.265809 268.585575 
L 252.988992 267.388359 
L 256.076903 264.362931 
L 264.727336 266.49759 
L 267.781435 263.103523 
L 262.955487 253.258638 
L 265.594201 249.926829 
L 224.837424 215.43495 
L 226.305724 213.320357 
L 267.628425 236.176315 
L 269.727722 232.706024 
L 235.054412 209.291469 
L 236.324496 206.858668 
L 276.057679 222.248193 
L 277.714878 218.519754 
L 260.540342 207.459463 
L 261.740223 204.226235 
L 298.898753 212.436024 
L 300.236143 207.994263 
L 269.966552 195.635589 
L 270.790004 192.111826 
L 282.894948 190.665236 
L 283.555729 186.737434 
L 274.124074 181.593845 
L 274.503967 177.946303 
L 239.298978 172.278684 
L 239.4032 169.730725 
L 254.873435 167.0836 
L 254.806613 164.048515 
L 280.070119 159.25516 
L 279.744695 155.431707 
L 261.690474 153.959739 
L 261.207638 150.7168 
L 253.803859 148.837322 
L 253.163862 145.844888 
L 254.670457 142.283182 
L 253.823955 139.266741 
L 261.67821 133.356326 
L 260.547564 130.12396 
L 274.355569 120.857799 
L 272.825674 117.233008 
L 273.968927 112.323972 
L 272.1709 108.715558 
L 246.661561 118.348512 
L 245.06646 115.595722 
L 224.557562 125.024934 
L 223.183312 122.963841 
L 254.071658 97.1168 
L 251.805323 94.141518 
L 229.922616 107.621498 
L 227.998511 105.400321 
L 244.461161 85.663456 
L 241.839459 82.996012 
L 222.870176 97.981361 
L 220.646451 95.986694 
L 242.274018 64.731512 
L 238.995251 62.143186 
L 236.535582 58.40305 
L 233.060671 55.998282 
L 202.51368 96.940343 
L 200.267288 95.586244 
L 209.72598 72.55905 
L 206.70942 70.990235 
L 205.910535 64.608356 
L 202.645875 63.163439 
L 188.738094 89.189355 
L 186.254805 88.272223 
L 198.662999 40.310153 
L 194.637933 39.105128 
L 182.003914 72.504263 
L 178.999339 71.807118 
L 185.141314 21.062459 
L 180.517744 20.292101 
L 176.326576 15.8327 
L 171.54293 15.342083 
L 165.896586 30.425214 
L 161.576917 30.255324 
L 157.254042 30.221338 
L 152.932236 30.323289 
L 148.288164 25.938726 
L 143.836136 26.324702 
L 142.177153 47.517253 
L 138.406623 48.084703 
L 137.973879 65.434426 
L 134.768782 66.125177 
L 135.945896 83.33886 
L 133.304756 84.084523 
L 126.284507 71.726997 
L 123.283042 72.782176 
L 101.161834 26.693557 
L 96.75684 28.560914 
L 93.751257 33.350113 
L 89.559224 35.447184 
L 120.185282 99.651449 
L 118.064838 100.884595 
L 76.568795 41.216908 
L 72.632606 43.850344 
L 85.773398 69.581256 
L 82.724496 71.911254 
L 83.729322 79.062791 
L 80.979551 81.452372 
L 53.764183 58.239739 
L 50.374505 61.581785 
L 47.091584 65.028758 
L 43.918667 68.577248 
L 96.600024 117.521882 
L 95.053127 119.487765 
L 36.348342 80.693139 
L 33.673259 84.571675 
L 49.482142 99.957326 
L 47.406273 103.413382 
L 37.959121 102.906881 
L 35.98169 106.723788 
L 46.054983 116.084184 
L 44.487872 119.640024 
L 19.973043 114.353898 
L 18.364424 118.730667 
L 30.890943 127.562953 
L 29.692248 131.589908 
L 60.112038 143.430628 
L 59.39781 146.530962 
L 15.464282 141.80338 
L 14.720964 146.308343 
L 40.201127 153.882936 
L 39.825386 157.604145 
L 62.703457 162.573404 
L 62.589838 165.582794 
L 64.887766 168.57241 
L 64.961689 171.510155 
L 62.046726 174.667373 
L 62.313693 177.691433 
L 44.309041 183.204448 
L 44.853202 186.781998 
L 59.139476 187.604442 
L 59.814649 190.713516 
L 77.749035 189.215793 
L 78.465672 191.738945 
L 58.028579 201.366819 
L 59.137022 204.504017 
L 73.933587 202.06929 
L 75.056253 204.706052 
L 36.615567 226.442477 
L 38.52303 230.240549 
L 27.087729 241.552309 
L 29.474989 245.642486 
L 93.542441 209.724013 
L 94.896093 211.740446 
L 86.388901 221.076925 
L 88.10305 223.312667 
L 50.351924 258.879403 
L 53.272484 262.229536 
L 51.278678 270.295794 
L 54.557736 273.611143 
L 86.698517 245.560277 
L 89.182323 247.774179 
L 65.969426 281.715894 
L 69.600293 284.563687 
L 110.009988 235.676856 
L 112.171512 237.162681 
L 111.122675 243.830846 
L 113.540028 245.277654 
L 102.498862 271.832285 
L 105.800905 273.5364 
L 125.548208 239.320827 
L 127.816624 240.316295 
L 123.47531 258.545631 
L 126.349221 259.596769 
L 132.485879 250.238555 
L 135.094143 251.010488 
L 137.173349 253.950278 
L 139.895999 254.572993 
L 144.001922 247.50814 
L 146.518641 247.919334 
L 143.120554 299.656407 
L 147.277364 300.069529 
L 153.60816 258.702376 
L 156.472101 258.805994 
L 159.98392 317.512591 
L 164.693831 317.386664 
L 164.949593 257.035853 
L 167.755528 256.783696 
L 174.659693 286.282692 
L 178.380411 285.710768 
L 177.178808 260.798891 
L 180.097013 260.16036 
L 181.991307 255.701137 
L 184.746848 254.913811 
L 184.265774 244.527159 
L 186.668857 243.673843 
L 198.695352 266.333981 
L 201.776955 265.016186 
L 213.236029 280.977398 
L 216.770864 279.195171 
L 197.837655 237.627211 
L 200.017079 236.350577 
L 238.812781 291.317855 
L 242.660097 288.726328 
L 244.579226 283.537117 
L 248.179047 280.768126 
L 245.699317 270.815883 
L 248.898601 268.017964 
L 253.614161 266.791066 
L 256.682983 263.746277 
L 265.346671 265.826487 
L 268.379363 262.413279 
L 263.491591 252.598941 
L 266.109297 249.250601 
L 225.136392 215.015742 
L 226.591364 212.891956 
L 268.056998 235.487566 
L 270.134428 232.004139 
L 235.314539 208.808123 
L 236.569297 206.367383 
L 276.398486 221.506704 
L 278.032202 217.767916 
L 260.788443 206.815862 
L 261.967965 203.575151 
L 299.177395 211.551072 
L 300.486822 207.100987 
L 270.140101 194.932936 
L 270.941374 191.404064 
L 283.036981 189.881369 
L 283.673045 185.949489 
L 274.209226 180.865321 
L 274.566171 177.215463 
L 239.326232 171.769375 
L 239.414427 169.220811 
L 254.867707 166.476439 
L 254.781797 163.441834 
L 280.014655 158.489681 
L 279.665191 154.66835 
L 261.60207 153.309962 
L 261.098847 150.070124 
L 253.683393 148.237249 
L 253.024589 145.248899 
L 254.508752 141.677788 
L 253.643295 138.666731 
L 261.460222 132.707034 
L 260.309268 129.481842 
L 274.058721 120.12902 
L 272.506058 116.513923 
L 273.618414 111.597795 
L 271.797728 108.00076 
L 246.349479 117.793962 
L 244.737096 115.051259 
L 224.287909 124.609274 
L 222.900723 122.556865 
L 253.625894 96.516065 
L 251.340891 93.555096 
L 229.543398 107.17244 
L 227.605361 104.963408 
L 243.943553 85.123393 
L 241.305126 82.47249 
L 222.430467 97.576849 
L 220.194241 95.596208 
L 241.624802 64.205619 
L 238.329821 61.637965 
L 235.846677 57.913374 
L 232.356711 55.530508 
L 202.067826 96.663882 
L 199.812962 95.323939 
L 209.126638 72.23771 
L 206.100272 70.687899 
L 205.261264 64.311171 
L 201.987581 62.886815 
L 188.243763 88.999688 
L 185.754755 88.098192 
L 197.861049 40.059031 
L 193.828484 38.879345 
L 181.404777 72.357281 
L 178.395876 71.679046 
L 184.218575 20.896761 
L 179.590251 20.155499 
L 175.371119 15.722545 
L 170.584481 15.262024 
L 165.033114 30.38037 
L 160.712462 30.237651 
L 156.389459 30.230854 
L 152.068379 30.359985 
L 147.396822 26.004718 
L 142.94731 26.418686 
L 141.421649 47.621253 
L 137.654763 48.212406 
L 137.331147 65.564507 
L 134.130458 66.275403 
L 135.415813 83.481342 
L 132.779415 84.243602 
L 125.681583 71.930473 
L 122.686814 73.004509 
L 100.276172 27.055931 
L 95.88301 28.950956 
L 92.907608 33.758964 
L 88.728847 35.882359 
L 119.758107 99.892734 
L 117.645462 101.139192 
L 75.774963 41.733672 
L 71.855415 44.391811 
L 85.15778 70.039566 
L 82.123593 72.388695 
L 83.173378 79.53377 
L 80.43869 81.940598 
L 53.077866 58.899594 
L 49.709274 62.262893 
L 46.448098 65.730445 
L 43.297562 69.298821 
L 96.285711 117.911152 
L 94.751209 119.886724 
L 35.803588 81.462086 
L 33.152952 85.35737 
L 49.05829 100.643287 
L 47.004199 104.112331 
L 37.554048 103.665257 
L 35.600662 107.494525 
L 45.732627 116.791381 
L 44.187912 120.357007 
L 19.64032 115.22517 
L 18.059261 119.61197 
L 30.641082 128.365297 
L 29.467738 132.399711 
L 59.961398 144.048873 
L 59.266683 147.153639 
L 15.304291 142.702467 
L 14.589322 147.212015 
L 40.11662 154.626203 
L 39.764291 158.349702 
L 62.673163 163.174973 
L 62.578474 166.185018 
L 64.89516 169.160122 
L 64.987558 172.097343 
L 62.092509 175.272833 
L 62.37849 178.295154 
L 44.408868 183.921299 
L 44.975519 187.495356 
L 59.266683 188.227931 
L 59.961398 191.332696 
L 77.886009 189.722207 
L 78.618501 192.240801 
L 58.242366 201.997023 
L 59.370518 205.127187 
L 74.151477 202.599446 
L 75.290705 205.229095 
L 36.987489 227.206861 
L 38.918802 230.99286 
L 27.554872 242.376318 
L 29.96781 246.4514 
L 93.808088 210.130689 
L 95.174395 212.138568 
L 86.726092 221.528368 
L 88.454269 223.753284 
L 50.927584 259.556751 
L 53.869157 262.888449 
L 51.926123 270.967087 
L 55.225967 274.261747 
L 87.189689 246.009289 
L 89.68737 248.207525 
L 66.688406 282.294564 
L 70.337112 285.119465 
L 110.438538 235.979447 
L 112.609364 237.451648 
L 111.602486 244.126278 
L 114.028891 245.557853 
L 103.154957 272.181402 
L 106.467653 273.864715 
L 125.999369 239.52562 
L 128.274001 240.5068 
L 124.047425 258.76308 
L 126.92789 259.796123 
L 133.005569 250.399497 
L 135.618636 251.155011 
L 137.716291 254.081666 
L 140.442804 254.687244 
L 144.504211 247.596707 
L 147.023466 247.992064 
L 143.950844 299.749486 
L 148.11017 300.136456 
L 154.180665 258.730304 
L 157.045201 258.815908 
L 160.926182 317.499256 
L 165.635207 317.343709 
L 165.511392 256.992483 
L 168.315685 256.722683 
L 175.405246 286.177673 
L 179.122293 285.582358 
L 177.764032 260.678532 
L 180.678164 260.021659 
L 182.544374 255.550611 
L 185.294909 254.745969 
L 184.748519 244.362548 
L 187.146187 243.494135 
L 199.314963 266.078186 
L 202.388217 264.741035 
L 213.947452 280.629859 
L 217.471007 278.825436 
L 198.276735 237.377377 
L 200.448085 236.087061 
L 239.588734 290.80925 
L 243.419674 288.193576 
L 245.306128 282.992397 
L 248.888463 280.20082 
L 246.346188 270.26437 
L 249.527811 267.446385 
L 254.235562 266.189853 
L 257.285172 263.125823 
L 265.961772 265.151502 
L 268.972937 261.719288 
L 264.023535 251.935886 
L 266.620131 248.571148 
L 225.432718 214.594662 
L 226.874304 212.461767 
L 268.481231 234.796134 
L 270.536711 231.299711 
L 235.571621 208.323151 
L 236.811004 205.874567 
L 276.734622 220.763086 
L 278.344792 217.014097 
L 261.032491 206.170713 
L 262.191607 202.922648 
L 299.450466 210.664384 
L 300.731879 206.206152 
L 270.309227 194.229205 
L 271.08829 190.695363 
L 283.17408 189.096625 
L 283.785403 185.160821 
L 274.289795 180.136276 
L 274.623777 176.484245 
L 239.350282 171.259904 
L 239.422446 168.710836 
L 254.85816 165.869326 
L 254.753166 162.835321 
L 279.954379 157.724566 
L 279.580887 153.905508 
L 261.50958 152.660754 
L 260.98599 149.424145 
L 253.559156 147.637945 
L 252.881569 144.653798 
L 254.343243 141.073423 
L 253.458866 138.067869 
L 261.238154 132.059125 
L 260.066938 128.841237 
L 273.757296 119.402123 
L 272.181927 115.796863 
L 273.263341 110.873836 
L 271.420067 107.288323 
L 246.033915 117.241387 
L 244.404315 114.508879 
L 224.015646 124.195319 
L 222.615579 122.151675 
L 253.176361 95.918146 
L 250.87278 92.971607 
L 229.161364 106.725775 
L 227.209472 104.528977 
L 243.422557 84.586595 
L 240.76751 81.95234 
L 221.988223 97.17511 
L 219.739583 95.208573 
L 240.972292 63.683819 
L 237.661227 61.13694 
L 235.154706 57.428039 
L 231.649822 55.067171 
L 201.620242 96.390232 
L 199.356995 95.064496 
L 208.525288 71.920146 
L 205.489234 70.3894 
L 204.610137 64.018075 
L 201.32756 62.614336 
L 187.748249 88.813134 
L 185.25362 87.927311 
L 197.057536 39.812958 
L 193.017631 38.658658 
L 180.804727 72.214069 
L 177.79162 71.554773 
L 183.294812 20.736871 
L 178.661918 20.024732 
L 174.414988 15.618403 
L 169.625548 15.187996 
L 164.169377 30.340957 
L 159.847913 30.225416 
L 155.524952 30.245808 
L 151.20477 30.402113 
L 146.505913 26.076314 
L 142.059093 26.518259 
L 140.666815 47.730002 
L 136.90372 48.344835 
L 136.689246 65.698628 
L 133.493092 66.42964 
L 134.886637 83.627156 
L 132.255085 84.405981 
L 125.079951 72.137738 
L 122.091996 73.230588 
L 99.392806 27.423869 
L 95.01165 29.346487 
L 92.066547 34.173113 
L 87.901223 36.322748 
L 119.332459 100.136701 
L 117.227695 101.396421 
L 74.984397 42.255418 
L 71.081645 44.938157 
L 84.545057 70.50174 
L 81.525704 72.869905 
L 82.620407 80.008237 
L 79.900911 82.432217 
L 52.395713 59.563753 
L 49.048341 62.948172 
L 45.809038 66.436166 
L 42.681007 70.024286 
L 95.973853 118.30239 
L 94.451806 120.287575 
L 35.263682 82.234443 
L 32.637598 86.146322 
L 48.63876 101.331901 
L 46.606528 104.813795 
L 37.153752 104.426166 
L 35.224489 108.267644 
L 45.414726 117.500592 
L 43.892467 121.075863 
L 19.313085 116.098518 
L 17.759647 120.495174 
L 30.396273 129.169196 
L 29.248326 133.21091 
L 59.814649 144.668054 
L 59.139476 147.777127 
L 15.149957 143.602542 
L 14.463365 148.116498 
L 40.036789 155.369987 
L 39.707886 159.095628 
L 62.646653 163.77672 
L 62.570897 166.787301 
L 64.906249 169.747776 
L 65.017119 172.684358 
L 62.142099 175.877993 
L 62.447084 178.898455 
L 44.513202 184.637508 
L 45.102321 188.20793 
L 59.39781 188.850607 
L 60.112038 191.950942 
L 78.026165 190.227748 
L 78.774484 192.741686 
L 58.460113 202.625869 
L 59.607929 205.748876 
L 74.372698 203.128221 
L 75.528442 205.750653 
L 37.364212 227.968889 
L 39.319298 231.742668 
L 28.027188 243.197373 
L 30.465709 247.257198 
L 94.076287 210.535687 
L 95.455196 212.534932 
L 87.066116 221.977681 
L 88.808253 224.191685 
L 51.507494 260.230465 
L 54.469962 263.543596 
L 52.577777 271.634295 
L 55.898277 274.908136 
L 87.683675 246.455202 
L 90.195133 248.637686 
L 67.411011 282.868702 
L 71.077413 285.670599 
L 110.868982 236.279337 
L 113.049025 237.737855 
L 112.084147 244.418686 
L 114.519508 245.834973 
L 103.813235 272.526386 
L 107.136453 274.18883 
L 126.451809 239.727571 
L 128.732567 240.694426 
L 124.620896 258.976927 
L 127.507802 259.991833 
L 133.526261 250.557168 
L 136.144028 251.296232 
L 138.260048 254.209636 
L 140.990316 254.798054 
L 145.007047 247.682113 
L 147.52874 248.061618 
L 144.781703 299.837341 
L 148.943381 300.198144 
L 154.753334 258.754631 
L 157.618352 258.822216 
L 161.868341 317.479995 
L 166.576295 317.294834 
L 166.072908 256.94558 
L 168.875448 256.658148 
L 176.150124 286.067966 
L 179.863353 285.449285 
L 178.348488 260.554494 
L 181.258431 259.879306 
L 183.096484 255.396609 
L 185.841904 254.574684 
L 185.230218 244.194905 
L 187.622378 243.311429 
L 199.932954 265.818498 
L 202.997737 264.462045 
L 214.656675 280.277854 
L 218.168812 278.451305 
L 198.714234 237.124787 
L 200.877426 235.82084 
L 240.361472 290.295773 
L 244.175885 287.656057 
L 246.02959 282.443116 
L 249.594296 279.629064 
L 246.989577 269.7088 
L 250.153413 266.87086 
L 254.853168 265.584743 
L 257.883447 262.501594 
L 266.572616 264.472662 
L 269.562135 261.021577 
L 264.551299 251.269497 
L 267.12668 247.888495 
L 225.72639 214.171727 
L 227.154532 212.029807 
L 268.901107 234.102049 
L 270.934556 230.592767 
L 235.825648 207.836572 
L 237.049606 205.380242 
L 277.066075 220.017369 
L 278.652634 216.258326 
L 261.272477 205.524042 
L 262.411142 202.268751 
L 299.717954 209.775997 
L 300.971302 205.309793 
L 270.473924 193.524425 
L 271.230746 189.985753 
L 283.306242 188.311033 
L 283.892798 184.371463 
L 274.365777 179.406739 
L 274.676783 175.752679 
L 239.371127 170.750292 
L 239.427258 168.20082 
L 254.844795 165.262285 
L 254.72072 162.229 
L 279.889292 156.959845 
L 279.491788 153.143212 
L 261.413009 152.012141 
L 260.869073 148.778889 
L 253.431151 147.039435 
L 252.734809 144.059609 
L 254.173936 140.470111 
L 253.270673 137.470178 
L 261.012016 131.412627 
L 259.820585 128.202168 
L 273.451305 118.677136 
L 271.853291 115.081856 
L 272.903721 110.152124 
L 271.037933 106.578276 
L 245.714883 116.690807 
L 244.068128 113.968603 
L 223.740785 123.783084 
L 222.327892 121.748286 
L 252.723076 95.323066 
L 250.401008 92.391074 
L 228.776527 106.281522 
L 226.810857 104.097043 
L 242.898196 84.053085 
L 240.226633 81.435581 
L 221.54346 96.776161 
L 219.282497 94.823805 
L 240.316512 63.166133 
L 236.989494 60.640129 
L 234.459697 56.947067 
L 230.940033 54.608289 
L 201.170946 96.119401 
L 198.899405 94.807926 
L 207.921952 71.606371 
L 204.876331 70.09475 
L 203.957179 63.72908 
L 200.665838 62.346015 
L 187.251572 88.6297 
L 184.751421 87.759585 
L 196.252491 39.571944 
L 192.205406 38.443075 
L 180.203788 72.074635 
L 177.186594 71.434302 
L 182.370061 20.582793 
L 177.73278 19.899807 
L 173.458221 15.520275 
L 168.666169 15.12 
L 163.305409 30.306978 
L 158.983303 30.218618 
L 154.660557 30.266199 
L 150.341443 30.449673 
L 145.615473 26.153512 
L 141.171519 26.623417 
L 139.912679 47.843496 
L 136.153526 48.481985 
L 136.048202 65.836784 
L 132.856708 66.587884 
L 134.358388 83.776294 
L 131.731787 84.571656 
L 124.479634 72.348782 
L 121.498611 73.460403 
L 98.511773 27.797355 
L 94.142795 29.74749 
L 91.228107 34.592544 
L 87.076386 36.768334 
L 118.908354 100.383339 
L 116.811554 101.656273 
L 74.197128 42.782126 
L 70.311326 45.489357 
L 83.935252 70.967758 
L 80.930854 73.354866 
L 82.070431 80.486172 
L 79.366234 82.927208 
L 51.71775 60.232188 
L 48.391731 63.637593 
L 45.17443 67.145892 
L 42.069028 70.753615 
L 95.664461 118.695582 
L 94.15493 120.6903 
L 34.728645 83.010181 
L 32.127215 86.938499 
L 48.22357 102.023139 
L 46.213278 105.517746 
L 36.758251 105.189578 
L 34.853187 109.043114 
L 45.101291 118.211788 
L 43.601549 121.796562 
L 18.991348 116.973906 
L 17.465594 121.380246 
L 30.156525 129.974619 
L 29.034021 134.023473 
L 59.671798 145.288146 
L 59.016192 148.401404 
L 15.001288 144.50357 
L 14.343099 149.021755 
L 39.961638 156.114258 
L 39.656174 159.841894 
L 62.623928 164.378622 
L 62.567109 167.38962 
L 64.921034 170.335348 
L 65.050371 173.271175 
L 62.195495 176.482828 
L 62.51947 179.501313 
L 44.622039 185.353046 
L 45.233602 188.919693 
L 59.53285 189.472447 
L 60.266563 192.568228 
L 78.169498 190.732399 
L 78.933613 193.24158 
L 58.68181 203.253334 
L 59.849246 206.36906 
L 74.59724 203.655595 
L 75.769455 206.270706 
L 37.745719 228.728534 
L 39.724502 232.489941 
L 28.504659 244.015441 
L 30.968665 248.059849 
L 94.347028 210.938989 
L 95.738484 212.929523 
L 87.40896 222.424847 
L 89.164986 224.62785 
L 52.091629 260.900518 
L 55.074876 264.194951 
L 53.233614 272.297391 
L 56.57464 275.550283 
L 88.180456 246.898 
L 90.705591 249.064645 
L 68.137214 283.438283 
L 71.821165 286.217065 
L 111.301304 236.576514 
L 113.490477 238.021292 
L 112.567636 244.708059 
L 115.011857 246.109 
L 104.47367 272.867222 
L 107.807278 274.508733 
L 126.90551 239.926672 
L 129.192304 240.879163 
L 125.195701 259.187163 
L 128.088933 260.183892 
L 134.047935 250.711561 
L 136.670298 251.434146 
L 138.8046 254.334184 
L 141.538514 254.905418 
L 145.510411 247.764355 
L 148.03444 248.127993 
L 145.613098 299.919969 
L 149.776963 300.25459 
L 155.326145 258.775355 
L 158.191531 258.82492 
L 162.81036 317.454809 
L 167.517057 317.240041 
L 166.634117 256.895147 
L 169.434794 256.590094 
L 176.894297 285.953577 
L 180.603561 285.311554 
L 178.932152 260.426783 
L 181.837791 259.733306 
L 183.647614 255.239137 
L 186.38781 254.399961 
L 185.710854 244.024235 
L 188.097409 243.125731 
L 200.549299 265.554928 
L 203.60549 264.179226 
L 215.363669 279.921394 
L 218.864249 278.072793 
L 199.150136 236.86945 
L 201.305084 235.551924 
L 241.130965 289.777447 
L 244.928701 287.113792 
L 246.749583 281.889296 
L 250.296519 279.05288 
L 247.629459 269.149194 
L 250.775384 266.291411 
L 255.466957 264.975761 
L 258.477785 261.873614 
L 267.179179 263.789993 
L 270.146933 260.320174 
L 265.074861 250.599803 
L 267.628927 247.20267 
L 226.017396 213.746953 
L 227.432039 211.596093 
L 269.31661 233.405336 
L 271.327947 229.883334 
L 236.07661 207.348405 
L 237.285095 204.884425 
L 277.392831 219.269581 
L 278.955716 215.500635 
L 261.50839 204.875874 
L 262.626559 201.613486 
L 299.97985 208.885945 
L 301.205083 204.411947 
L 270.634185 192.818622 
L 271.368736 189.275261 
L 283.43346 187.524626 
L 283.995227 183.581444 
L 274.437168 178.676739 
L 274.725187 175.020795 
L 239.388767 170.240559 
L 254.875345 167.690785 
z
" clip-path="url(#pc747ec91af)" style="fill: #0000ff; opacity: 0.5; stroke: #000000; stroke-width: 1.5; stroke-linejoin: miter"/>
   </g>
  </g>
 </g>
 <defs>
  <clipPath id="pc747ec91af">
   <rect x="0" y="-0" width="315.548182" height="332.64"/>
  </clipPath>
 </defs>
</svg>
