<?xml version="1.0" encoding="utf-8" standalone="no"?>
<!DOCTYPE svg PUBLIC "-//W3C//DTD SVG 1.1//EN"
  "http://www.w3.org/Graphics/SVG/1.1/DTD/svg11.dtd">
<svg xmlns:xlink="http://www.w3.org/1999/xlink" width="328.442882pt" height="332.64pt" viewBox="0 0 328.442882 332.64" xmlns="http://www.w3.org/2000/svg" version="1.1">
 <metadata>
  <rdf:RDF xmlns:dc="http://purl.org/dc/elements/1.1/" xmlns:cc="http://creativecommons.org/ns#" xmlns:rdf="http://www.w3.org/1999/02/22-rdf-syntax-ns#">
   <cc:Work>
    <dc:type rdf:resource="http://purl.org/dc/dcmitype/StillImage"/>
    <dc:date>2023-12-09T18:06:25.673936</dc:date>
    <dc:format>image/svg+xml</dc:format>
    <dc:creator>
     <cc:Agent>
      <dc:title>Matplotlib v3.8.2, https://matplotlib.org/</dc:title>
     </cc:Agent>
    </dc:creator>
   </cc:Work>
  </rdf:RDF>
 </metadata>
 <defs>
  <style type="text/css">*{stroke-linejoin: round; stroke-linecap: butt}</style>
 </defs>
 <g id="figure_1">
  <g id="patch_1">
   <path d="M -0 332.64 
L 328.442882 332.64 
L 328.442882 0 
L -0 0 
L -0 332.64 
z
" style="fill: none"/>
  </g>
  <g id="axes_1">
   <g id="patch_2">
    <path d="M 244.465056 164.792727 
L 244.424279 162.199575 
L 270.214576 157.977069 
L 269.946768 154.577666 
L 311.240827 145.919067 
L 310.573605 141.23567 
L 260.25341 146.029033 
L 259.614855 142.948737 
L 291.422418 131.525782 
L 290.312438 127.472636 
L 299.242299 120.149487 
L 297.770757 115.856091 
L 272.027911 121.178154 
L 270.602168 117.73993 
L 258.015852 119.555408 
L 256.546014 116.558555 
L 284.418759 97.407483 
L 282.239488 93.591416 
L 234.823862 118.513997 
L 233.332747 116.246867 
L 254.619297 97.405578 
L 252.4547 94.526472 
L 221.973692 115.101131 
L 220.381622 113.239725 
L 218.175534 111.952469 
L 216.486342 110.212043 
L 222.0554 100.726184 
L 220.01131 98.869317 
L 243.194704 66.458642 
L 240.062716 63.954052 
L 214.43972 92.460419 
L 212.139501 90.847092 
L 205.704371 95.758669 
L 203.512176 94.41837 
L 224.777995 50.294537 
L 221.146878 48.377 
L 223.620137 33.439233 
L 219.459624 31.566435 
L 215.522551 29.115025 
L 211.23008 27.498972 
L 208.534377 20.932722 
L 203.988091 19.540438 
L 193.543333 41.228803 
L 189.642612 40.297835 
L 176.480992 88.260507 
L 174.067487 87.842762 
L 175.805058 54.159628 
L 172.319681 53.779997 
L 171.16405 15.399667 
L 166.462269 15.185123 
L 161.838918 67.80995 
L 158.789643 67.862696 
L 155.30077 61.152764 
L 152.045411 61.414375 
L 151.321796 81.472164 
L 148.70729 81.848836 
L 137.296694 36.565735 
L 133.277166 37.40559 
L 138.849009 75.336709 
L 136.047758 76.108587 
L 131.848066 72.613223 
L 128.964644 73.606572 
L 113.966371 44.182898 
L 110.197878 45.752544 
L 112.684752 60.555807 
L 109.431693 62.157654 
L 123.955897 95.945252 
L 121.809987 97.175212 
L 112.313745 86.882013 
L 109.888624 88.482508 
L 85.454339 59.934672 
L 82.195214 62.39301 
L 84.384058 71.412849 
L 81.486361 73.899164 
L 87.577036 85.918097 
L 85.133837 88.296846 
L 62.123565 71.458737 
L 59.238317 74.644948 
L 100.084389 113.834042 
L 98.512745 115.80573 
L 64.819566 94.566076 
L 62.659531 97.656094 
L 52.847884 95.922292 
L 50.736411 99.388055 
L 74.200901 116.831043 
L 72.736287 119.615083 
L 35.384079 105.633534 
L 33.586583 109.643596 
L 33.337649 114.266493 
L 31.812603 118.336631 
L 42.047236 126.195471 
L 40.892958 129.985863 
L 73.167424 142.260324 
L 72.502872 145.064285 
L 68.174121 147.183382 
L 67.666831 150.141909 
L 15.715016 146.7622 
L 15.22042 151.370365 
L 31.641166 156.995017 
L 31.460438 161.09737 
L 30.645145 165.205778 
L 30.723073 169.335388 
L 43.884472 172.603807 
L 44.188464 176.313486 
L 73.386584 176.280652 
L 73.791598 179.060902 
L 66.037817 183.42856 
L 66.671211 186.436337 
L 18.624579 202.122547 
L 19.869195 206.611857 
L 35.037876 206.528502 
L 36.412909 210.499564 
L 79.744568 197.692118 
L 80.819662 200.261872 
L 89.562784 199.192742 
L 90.680207 201.453048 
L 86.525421 206.639722 
L 87.878495 208.991848 
L 46.850761 238.463963 
L 49.224074 242.047812 
L 57.25383 241.494581 
L 59.717289 244.749836 
L 62.281883 247.926026 
L 64.945075 251.020008 
L 68.813493 252.978889 
L 71.632329 255.865006 
L 59.965368 274.305787 
L 63.459143 277.459563 
L 77.222609 268.104514 
L 80.51287 270.71875 
L 74.510776 286.240503 
L 78.372613 288.931039 
L 103.048708 258.529377 
L 106.025137 260.336319 
L 116.723284 247.963422 
L 119.360735 249.345629 
L 117.851923 259.644786 
L 120.856103 260.985731 
L 133.076032 238.760888 
L 135.41605 239.633479 
L 138.247906 238.977461 
L 140.592176 239.687329 
L 142.584395 241.804127 
L 145.015397 242.376249 
L 144.250214 260.139108 
L 147.256885 260.649788 
L 151.938276 247.420694 
L 154.541251 247.695933 
L 154.132257 299.729189 
L 158.378841 299.909582 
L 162.711847 317.52 
L 167.513571 317.421835 
L 168.54361 261.554037 
L 171.582758 261.30018 
L 177.991275 286.694021 
L 181.816208 286.130679 
L 191.345604 314.674248 
L 196.043694 313.677182 
L 182.124095 241.617612 
L 184.529684 240.946612 
L 209.677885 309.082231 
L 214.191085 307.511523 
L 208.11766 279.582312 
L 211.70409 278.075247 
L 224.445057 295.756014 
L 228.531951 293.727583 
L 221.040358 270.886671 
L 224.346988 268.977587 
L 221.403227 257.32654 
L 224.283318 255.412751 
L 223.936723 249.101599 
L 226.556951 247.112218 
L 254.590267 275.500799 
L 258.025388 272.534551 
L 254.530287 262.262304 
L 257.54919 259.304488 
L 235.293495 232.868429 
L 237.397702 230.529993 
L 225.831721 217.006872 
L 227.441884 214.973777 
L 243.875306 223.579578 
L 245.683208 220.975903 
L 240.93737 214.261827 
L 242.453754 211.755134 
L 256.64536 216.118201 
L 258.212345 213.116697 
L 281.855592 220.342512 
L 283.542934 216.546254 
L 245.256638 197.191645 
L 246.234162 194.557585 
L 289.333035 205.328956 
L 290.544622 201.305014 
L 240.514804 184.449512 
L 241.094032 181.970846 
L 312.186936 192.495493 
L 312.983711 187.759319 
L 249.942475 175.353198 
L 250.231034 172.582602 
L 290.84069 172.094076 
L 291.006554 168.039162 
L 244.463425 164.274015 
L 244.406339 161.68117 
L 270.169569 157.296542 
L 269.880386 153.89889 
L 311.11917 144.980746 
L 310.422505 140.301639 
L 260.133454 145.411391 
L 259.475538 142.335173 
L 291.210627 130.712392 
L 290.075178 126.666307 
L 298.958804 119.28714 
L 297.460288 115.003084 
L 271.751423 120.48695 
L 270.304084 117.057761 
L 257.729435 118.952363 
L 256.240778 115.964815 
L 283.992523 96.638817 
L 281.789294 92.836532 
L 234.531354 118.056838 
L 233.02601 115.79913 
L 254.193638 96.824334 
L 252.010975 93.958899 
L 221.659973 114.724859 
L 220.056228 112.873504 
L 217.842088 111.600148 
L 216.141983 109.87038 
L 221.651269 100.349683 
L 219.595541 98.505708 
L 242.574633 65.949864 
L 239.426954 63.465022 
L 213.983753 92.131979 
L 211.673433 90.533152 
L 205.269321 95.485104 
L 203.06874 94.158619 
L 224.056624 49.90191 
L 220.413519 48.007249 
L 222.792779 33.054221 
L 218.620569 31.207628 
L 214.668157 28.781028 
L 210.365606 27.192004 
L 207.628658 20.642839 
L 203.073706 19.279175 
L 192.765562 41.032803 
L 188.859063 40.126387 
L 175.999361 88.170889 
L 173.583277 87.768333 
L 175.108965 54.074937 
L 171.62127 53.717234 
L 170.224271 15.344931 
L 165.521234 15.159963 
L 161.228955 67.812827 
L 158.180071 67.88475 
L 154.649066 61.196894 
L 151.395416 61.478975 
L 150.797968 81.540918 
L 148.185883 81.934026 
L 136.490707 36.723587 
L 132.476541 37.588706 
L 138.286839 75.484031 
L 135.490498 76.273512 
L 131.268905 72.80463 
L 128.391788 73.816095 
L 113.208753 44.487334 
L 109.450208 46.08065 
L 112.030136 60.867979 
L 108.787216 62.490254 
L 123.523638 96.185836 
L 121.385506 97.429268 
L 111.824713 87.195998 
L 109.409706 88.811715 
L 84.796355 60.41812 
L 81.552756 62.896908 
L 83.798286 71.902803 
L 80.916284 74.407293 
L 87.082431 86.387681 
L 84.654241 88.781749 
L 61.538522 72.088696 
L 58.673371 75.29299 
L 99.765112 114.22441 
L 98.2059 116.205944 
L 64.379802 95.178621 
L 62.239244 98.282163 
L 52.416887 96.610105 
L 50.327253 100.089079 
L 73.900986 117.384145 
L 72.453911 120.177341 
L 35.014506 106.430993 
L 33.242266 110.45228 
L 33.022412 115.076652 
L 31.522996 119.156301 
L 41.806854 126.950616 
L 40.676437 130.748192 
L 73.027464 142.819422 
L 72.380562 145.627508 
L 68.065224 147.773787 
L 67.576551 150.735447 
L 15.604508 147.682552 
L 15.138904 152.293737 
L 31.594701 157.815001 
L 31.439778 161.918409 
L 30.650341 166.031864 
L 30.75424 170.160902 
L 43.935935 173.346479 
L 44.263254 177.054172 
L 73.460589 176.837699 
L 73.883081 179.615347 
L 66.156924 184.031685 
L 66.809222 187.035419 
L 18.862198 203.023505 
L 20.135024 207.504899 
L 35.302881 207.326142 
L 36.702863 211.288478 
L 79.953113 198.208753 
L 81.044348 200.771695 
L 89.780573 199.647597 
L 90.91219 201.90083 
L 86.790107 207.113533 
L 88.157948 209.457102 
L 47.316388 239.186675 
L 49.712196 242.755527 
L 57.738312 242.151804 
L 60.222197 245.391501 
L 62.806717 248.551498 
L 65.489315 251.628669 
L 69.369977 253.563181 
L 72.206909 256.431512 
L 60.656161 274.945307 
L 64.169703 278.077047 
L 77.874058 268.635618 
L 81.180696 271.229109 
L 75.276344 286.788305 
L 79.155027 289.454498 
L 103.639425 258.898239 
L 106.627159 260.686425 
L 117.247276 248.246488 
L 119.893368 249.61208 
L 118.449361 259.920522 
L 121.461916 261.242546 
L 133.541822 238.941286 
L 135.887282 239.799143 
L 138.714955 239.125327 
L 141.063644 239.820437 
L 143.069137 241.924663 
L 145.503689 242.481484 
L 144.850239 260.248804 
L 147.860063 260.740564 
L 152.458158 247.482288 
L 155.062813 247.741151 
L 154.981087 299.77595 
L 159.228721 299.929631 
L 163.672401 317.512448 
L 168.473413 317.384085 
L 169.152054 261.510913 
L 172.189545 261.237947 
L 178.757648 286.59098 
L 182.578962 286.003593 
L 192.287694 314.486662 
L 196.97942 313.460068 
L 182.606882 241.48947 
L 185.008203 240.803353 
L 210.584441 308.779456 
L 215.087673 307.180394 
L 208.838709 279.289934 
L 212.41559 277.760342 
L 225.267506 295.360626 
L 229.341562 293.30653 
L 221.706461 270.513188 
L 225.001019 268.583345 
L 221.984037 256.951043 
L 224.852035 255.019178 
L 224.465752 248.710331 
L 227.073417 246.70451 
L 255.284726 274.916215 
L 258.701123 271.928421 
L 255.141485 261.678359 
L 258.141725 258.701614 
L 235.720203 232.406054 
L 237.809661 230.05443 
L 226.158856 216.60432 
L 227.7562 214.561138 
L 244.243423 223.063412 
L 246.034913 220.448418 
L 241.246941 213.764323 
L 242.74753 211.248143 
L 256.966296 215.521866 
L 258.514373 212.510566 
L 282.202597 219.587535 
L 283.86603 215.78074 
L 245.458762 196.667313 
L 246.4197 194.027157 
L 289.585467 204.527248 
L 290.771721 200.495765 
L 240.636881 183.955256 
L 241.200508 181.472996 
L 312.3582 191.5503 
L 313.125171 186.809209 
L 250.007155 174.799827 
L 250.278282 172.027471 
L 290.884063 171.283542 
L 291.02442 167.227666 
L 244.458531 163.755323 
L 244.385139 161.162889 
L 270.120283 156.616311 
L 269.809736 153.220545 
L 310.991615 144.043209 
L 310.265534 139.368576 
L 260.009615 144.794517 
L 259.332365 141.722497 
L 290.993726 129.900351 
L 289.832851 125.861487 
L 298.669891 118.426592 
L 297.14446 114.152046 
L 271.470594 119.797498 
L 270.001716 116.377479 
L 257.439232 118.351132 
L 255.931814 115.373005 
L 283.56146 95.872848 
L 281.334361 92.084495 
L 234.235977 117.601527 
L 232.716463 115.353332 
L 253.764332 96.245778 
L 251.56369 93.394128 
L 221.343894 114.350568 
L 219.728537 112.509336 
L 217.506432 111.249931 
L 215.795481 109.53089 
L 221.244779 99.975731 
L 219.177494 98.144722 
L 241.951373 65.444996 
L 238.788128 62.98 
L 213.52573 91.806414 
L 211.2054 90.222149 
L 204.832559 95.214281 
L 202.623679 93.901663 
L 223.332799 49.513827 
L 219.677849 47.642117 
L 221.963015 32.67442 
L 217.779275 30.854105 
L 213.811678 28.452411 
L 209.499219 26.890479 
L 206.721134 20.358657 
L 202.157695 19.023669 
L 191.986573 40.841699 
L 188.074451 39.95987 
L 175.517176 88.084303 
L 173.098608 87.69695 
L 174.412354 53.994624 
L 170.922477 53.658864 
L 169.284166 15.296107 
L 164.580059 15.140722 
L 160.619021 67.819541 
L 157.57065 67.910638 
L 153.997652 61.245123 
L 150.745841 61.547661 
L 150.274582 81.612965 
L 147.665021 82.022494 
L 135.685729 36.886505 
L 131.677083 37.776854 
L 137.725606 75.634886 
L 134.934286 76.441938 
L 130.69096 72.999677 
L 127.820261 74.029217 
L 112.453065 44.796529 
L 108.704615 46.413453 
L 111.377496 61.184263 
L 108.144844 62.826902 
L 123.0929 96.429133 
L 120.962631 97.685988 
L 111.337666 87.513053 
L 108.932869 89.143927 
L 84.141424 60.905698 
L 80.91348 63.404837 
L 83.215608 72.39643 
L 80.349415 74.918997 
L 86.590789 86.860367 
L 84.177705 89.26966 
L 60.957453 72.722321 
L 58.112512 75.944572 
L 99.448297 114.616778 
L 97.901578 116.608079 
L 63.9439 95.79392 
L 61.822904 98.910863 
L 51.990224 97.300615 
L 49.922512 100.792664 
L 73.604555 117.939121 
L 72.175076 120.741363 
L 34.649955 107.23076 
L 32.903042 111.263114 
L 32.712277 115.888777 
L 31.238549 119.977776 
L 41.571225 127.707257 
L 40.464716 131.511867 
L 72.891024 143.37939 
L 72.261796 146.191488 
L 67.960042 148.364867 
L 67.490006 151.329541 
L 15.49979 148.603581 
L 15.063197 153.217603 
L 31.553394 158.63526 
L 31.424282 162.739561 
L 30.660732 166.8579 
L 30.790599 170.986203 
L 43.992068 174.088811 
L 44.3427 177.794373 
L 73.538096 177.394269 
L 73.97805 180.169205 
L 66.279821 184.634049 
L 66.950998 187.633621 
L 19.105479 203.92295 
L 20.406466 208.39625 
L 35.572898 208.1221 
L 36.997773 212.075552 
L 80.164904 198.724067 
L 81.272237 201.280095 
L 90.001219 200.101073 
L 91.146985 202.347144 
L 87.057769 207.585669 
L 88.440322 209.920589 
L 47.786552 239.906445 
L 50.204758 243.460157 
L 58.226919 242.805967 
L 60.73113 246.029978 
L 63.335473 249.173657 
L 66.037373 252.233895 
L 69.930125 254.143962 
L 72.785041 256.994393 
L 61.350963 275.58047 
L 64.884132 278.690049 
L 78.528835 269.162615 
L 81.851719 271.735257 
L 76.045342 287.33128 
L 79.940717 289.973027 
L 104.232449 259.263379 
L 107.231371 261.032738 
L 117.773038 248.526253 
L 120.427666 249.875175 
L 119.048523 260.192496 
L 122.069332 261.495546 
L 134.008737 239.118752 
L 136.359546 239.961839 
L 139.182926 239.270252 
L 141.535939 239.950577 
L 143.554627 242.042148 
L 145.992634 242.583646 
L 145.450943 260.354724 
L 148.4638 260.827544 
L 152.978417 247.540611 
L 155.584648 247.783087 
L 155.830193 299.817371 
L 160.07871 299.944334 
L 164.632888 317.498855 
L 169.432998 317.340299 
L 169.760215 261.463964 
L 172.79593 261.171899 
L 179.523359 286.483121 
L 183.340903 285.871711 
L 193.228584 314.293155 
L 197.913761 313.237073 
L 183.088853 241.358293 
L 185.485811 240.657087 
L 211.489074 308.470986 
L 215.982161 306.843632 
L 209.557905 278.993026 
L 213.125095 277.440968 
L 226.087453 294.960073 
L 230.148508 292.880394 
L 222.370201 270.135523 
L 225.652557 268.184997 
L 222.562474 256.571901 
L 225.418265 254.622036 
L 224.992311 248.315743 
L 227.587308 246.293561 
L 255.975495 274.327275 
L 259.373033 271.318052 
L 255.748998 261.090582 
L 258.730457 258.095026 
L 236.143994 231.941005 
L 238.21862 229.576285 
L 226.483452 216.199719 
L 228.067914 214.14653 
L 244.608285 222.544941 
L 246.383293 219.918731 
L 241.553377 213.264882 
L 243.038111 210.739314 
L 257.283475 214.923524 
L 258.812582 211.902547 
L 282.544848 218.830391 
L 284.184306 215.013209 
L 245.657584 196.14172 
L 246.601898 193.495573 
L 289.832851 203.723967 
L 290.993726 199.685104 
L 240.755847 183.460241 
L 241.303851 180.974485 
L 312.523516 190.604049 
L 313.260653 185.858228 
L 250.068353 174.24606 
L 250.322039 171.472054 
L 290.922337 170.472752 
L 291.037182 166.416073 
L 244.450375 163.236672 
L 244.36068 160.644751 
L 270.066719 155.936403 
L 269.734821 152.542657 
L 310.858165 143.106493 
L 310.102698 138.436518 
L 259.881899 144.178433 
L 259.185341 141.110734 
L 290.771721 129.08969 
L 289.585467 125.058207 
L 298.375571 117.567879 
L 296.823286 113.303012 
L 271.185434 119.109826 
L 269.695075 115.699113 
L 257.145253 117.751738 
L 255.619134 114.783151 
L 283.125589 95.109604 
L 280.874706 91.335333 
L 233.937742 117.148083 
L 232.404118 114.909489 
L 253.331395 95.669934 
L 251.112862 92.832182 
L 221.025468 113.978272 
L 219.398562 112.147236 
L 217.16858 110.901832 
L 215.446851 109.193586 
L 220.835945 99.604342 
L 218.757185 97.786372 
L 241.324951 64.944058 
L 238.146265 62.499006 
L 213.065668 91.483736 
L 210.73542 89.914096 
L 204.394103 94.946211 
L 202.17701 93.647512 
L 222.606547 49.130305 
L 218.939897 47.281619 
L 221.13088 32.299846 
L 216.935773 30.50588 
L 212.95315 28.129188 
L 208.630952 26.59441 
L 205.811841 20.080189 
L 201.240096 18.773929 
L 191.206398 40.655498 
L 187.288807 39.798292 
L 175.034456 88.00075 
L 172.613499 87.628617 
L 173.715251 53.918695 
L 170.223331 53.604891 
L 168.343773 15.253196 
L 163.638781 15.127401 
L 160.009142 67.83009 
L 156.961404 67.940358 
L 153.346555 61.297447 
L 150.09671 61.620431 
L 149.75166 81.688302 
L 147.144727 82.114236 
L 134.881792 37.054482 
L 130.878825 37.970026 
L 137.165334 75.789267 
L 134.379145 76.613859 
L 130.114253 73.198355 
L 127.250086 74.245929 
L 111.699337 45.11047 
L 107.961131 46.750938 
L 110.726859 61.504645 
L 107.504602 63.167583 
L 122.663701 96.675135 
L 120.541379 97.945364 
L 110.852623 87.833165 
L 108.45813 89.479131 
L 83.489574 61.397385 
L 80.277411 63.916776 
L 82.636046 72.893713 
L 79.785775 75.434257 
L 86.10213 87.336136 
L 83.704247 89.760558 
L 60.380381 73.359588 
L 57.555762 76.599669 
L 99.133955 115.011132 
L 97.599791 117.012121 
L 63.511876 96.411948 
L 61.410525 99.54217 
L 51.567913 97.993795 
L 49.522205 101.498779 
L 73.311621 118.495951 
L 71.899794 121.307128 
L 34.290441 108.032804 
L 32.568924 112.076066 
L 32.407256 116.702837 
L 30.959274 120.801024 
L 41.340361 128.465365 
L 40.257802 132.27686 
L 72.758109 143.940204 
L 72.146579 146.756205 
L 67.85858 148.956596 
L 67.407199 151.924168 
L 15.400866 149.525251 
L 14.993302 154.141927 
L 31.517247 159.455763 
L 31.413951 163.560795 
L 30.676318 167.683855 
L 30.832147 171.811259 
L 44.052869 174.830777 
L 44.426799 178.53406 
L 73.619102 177.950341 
L 74.0765 180.722455 
L 66.406505 185.235628 
L 67.096535 188.230919 
L 19.354412 204.820848 
L 20.683507 209.285877 
L 35.847916 208.916344 
L 37.297628 212.860756 
L 80.379931 199.238038 
L 81.503318 201.787051 
L 90.224712 200.553152 
L 91.384582 202.791973 
L 87.328394 208.056113 
L 88.725605 210.382291 
L 48.261234 240.623243 
L 50.701743 244.161676 
L 58.719631 243.457043 
L 61.244069 246.665241 
L 63.868133 249.792478 
L 66.589226 252.835662 
L 70.493914 254.721208 
L 73.366702 257.553627 
L 62.049745 276.21125 
L 65.602402 279.298546 
L 79.186913 269.685483 
L 82.525912 272.237176 
L 76.81774 287.869409 
L 80.729653 290.486603 
L 104.827758 259.624782 
L 107.837749 261.375244 
L 118.300549 248.802705 
L 120.963609 250.134904 
L 119.649382 260.460695 
L 122.678328 261.744721 
L 134.476759 239.293277 
L 136.832824 240.121563 
L 139.651798 239.412231 
L 142.009044 240.077744 
L 144.040847 242.156577 
L 146.482211 242.682731 
L 146.052301 260.456864 
L 149.068072 260.910726 
L 153.499033 247.595661 
L 156.106737 247.82174 
L 156.679544 299.853451 
L 160.928775 299.95369 
L 165.593271 317.479221 
L 170.392288 317.290479 
L 170.368069 261.413191 
L 173.401886 261.102038 
L 180.288375 286.370448 
L 184.101999 285.73504 
L 194.16824 314.093734 
L 198.846681 313.008205 
L 183.56999 241.224088 
L 185.96249 240.50782 
L 212.39175 308.156832 
L 216.874512 306.501251 
L 210.27522 278.691601 
L 213.832577 277.117138 
L 226.904864 294.55437 
L 230.952759 292.449191 
L 223.031554 269.753691 
L 226.301576 267.78256 
L 223.138515 256.189128 
L 225.981986 254.22134 
L 225.516377 247.917851 
L 228.098605 245.879388 
L 256.662547 273.734002 
L 260.041091 270.70347 
L 256.352803 260.498995 
L 259.315363 257.484746 
L 236.564852 231.473299 
L 238.624564 229.095578 
L 226.805497 215.793083 
L 228.377014 213.729971 
L 244.96988 222.024185 
L 246.728336 219.386864 
L 241.856666 212.763524 
L 243.325486 210.228667 
L 257.596884 214.3232 
L 259.106961 211.292665 
L 282.88233 218.071109 
L 284.497747 214.243692 
L 245.853097 195.614887 
L 246.78075 192.962853 
L 290.075178 202.919147 
L 291.210627 198.873062 
L 240.871697 182.964489 
L 241.404056 180.475335 
L 312.682877 189.656777 
L 313.390151 184.906413 
L 250.126067 173.691919 
L 250.362301 170.916372 
L 290.955511 169.661737 
L 291.04484 165.604416 
L 244.438958 162.718082 
L 244.332962 160.126777 
L 270.00888 155.256846 
L 269.655644 151.865255 
L 310.718826 142.170634 
L 309.934003 137.505503 
L 259.750311 143.563166 
L 259.034472 140.499908 
L 290.544622 128.280441 
L 289.333035 124.256499 
L 298.075855 116.711034 
L 296.496778 112.456014 
L 270.895955 118.423961 
L 269.384174 115.022689 
L 256.847509 117.154204 
L 255.30275 114.195275 
L 282.684925 94.349117 
L 280.41035 90.589078 
L 233.636661 116.696524 
L 232.088988 114.46762 
L 252.894845 95.096825 
L 250.658508 92.273081 
L 220.704706 113.607986 
L 219.066316 111.787219 
L 216.828546 110.555865 
L 215.096107 108.858481 
L 220.424783 99.235533 
L 218.33463 97.430673 
L 240.69539 64.44707 
L 237.501389 62.022058 
L 212.603586 91.163958 
L 210.263512 89.609004 
L 203.953969 94.680904 
L 201.728753 93.396174 
L 221.877897 48.751357 
L 218.199692 46.925769 
L 220.296405 31.930513 
L 216.090098 30.162967 
L 212.092606 27.811371 
L 207.76084 26.303807 
L 204.900815 19.807446 
L 200.320944 18.529965 
L 190.425068 40.474207 
L 186.502163 39.641658 
L 174.55122 87.920236 
L 172.127971 87.563336 
L 173.017684 53.847152 
L 169.52386 53.555316 
L 167.403128 15.216201 
L 162.697439 15.12 
L 159.399341 67.844476 
L 156.352357 67.97391 
L 152.695799 61.353865 
L 149.44805 61.697283 
L 149.229223 81.766927 
L 146.62502 82.209248 
L 134.078927 37.227513 
L 130.081797 38.168215 
L 136.606044 75.94717 
L 133.825096 76.789269 
L 129.538807 73.400655 
L 126.681285 74.466223 
L 110.947598 45.429146 
L 107.219783 47.093092 
L 110.078249 61.829113 
L 106.866515 63.512284 
L 122.236058 96.923831 
L 120.121767 98.207383 
L 110.369602 88.156321 
L 107.985509 89.817315 
L 82.840828 61.893162 
L 79.644575 64.432706 
L 82.059622 73.394631 
L 79.225386 75.953051 
L 85.616473 87.814968 
L 83.233885 90.254424 
L 59.807328 74.000472 
L 57.003143 77.258254 
L 98.822101 115.407454 
L 97.300552 117.418053 
L 63.083747 97.032681 
L 61.002126 100.176057 
L 51.14997 98.689618 
L 49.126346 102.207399 
L 73.022194 119.054612 
L 71.628077 121.874614 
L 33.935979 108.837093 
L 32.239926 112.891103 
L 32.107361 117.518799 
L 30.685183 121.626012 
L 41.114268 129.22491 
L 40.055703 133.043138 
L 72.628723 144.501843 
L 72.034917 147.321635 
L 67.760841 149.548951 
L 67.328134 152.519303 
L 15.307742 150.447524 
L 14.929222 155.066673 
L 31.486261 160.276477 
L 31.408786 164.382078 
L 30.697099 168.509695 
L 30.878884 172.636038 
L 44.118335 175.572345 
L 44.51555 179.273203 
L 73.703604 178.505893 
L 74.178428 181.275075 
L 66.53697 185.836399 
L 67.245824 188.827291 
L 19.608987 205.717162 
L 20.966139 210.173743 
L 36.127923 209.708842 
L 37.602415 213.644058 
L 80.598187 199.750647 
L 81.737583 202.292544 
L 90.451045 201.003816 
L 91.624972 203.235298 
L 87.601973 208.524845 
L 89.013787 210.84219 
L 48.740414 241.337041 
L 51.20313 244.860055 
L 59.216427 244.105009 
L 61.760994 247.297265 
L 64.404674 250.407936 
L 67.144853 253.433947 
L 71.061323 255.294897 
L 73.951868 258.109191 
L 62.752481 276.837623 
L 66.324485 279.902514 
L 79.848267 270.204201 
L 83.203248 272.734843 
L 77.593507 288.402669 
L 81.521803 290.995207 
L 105.425329 259.982433 
L 108.44627 261.71393 
L 118.829788 249.075834 
L 121.501174 250.391258 
L 120.251917 260.72511 
L 123.288879 261.99006 
L 134.94587 239.464855 
L 137.307097 240.278306 
L 140.121554 239.551259 
L 142.48294 240.201933 
L 144.527777 242.267945 
L 146.972402 242.778734 
L 146.654289 260.55522 
L 149.672855 260.990105 
L 154.019984 247.647436 
L 156.629059 247.857109 
L 157.529104 299.884189 
L 161.778882 299.9577 
L 166.553511 317.453548 
L 171.351246 317.234626 
L 170.975591 261.358595 
L 174.007391 261.028368 
L 181.052669 286.252966 
L 184.86222 285.593585 
L 195.106622 313.888407 
L 199.778144 312.773475 
L 184.050273 241.086859 
L 186.438221 240.355558 
L 213.292432 307.837007 
L 217.764693 306.153265 
L 210.990624 278.385671 
L 214.538009 276.788865 
L 227.719707 294.143535 
L 231.754282 292.012939 
L 223.690491 269.367707 
L 226.948052 267.376048 
L 223.712138 255.802739 
L 226.543175 253.817107 
L 226.037931 247.516671 
L 228.607286 245.462007 
L 257.345853 273.136419 
L 260.70527 270.084698 
L 256.952875 259.903623 
L 259.896418 256.870801 
L 236.98276 231.002955 
L 239.027477 228.612327 
L 227.124979 215.384431 
L 228.683489 213.311475 
L 245.328192 221.501166 
L 247.070026 218.852837 
L 242.156796 212.260268 
L 243.609643 209.716223 
L 257.906512 213.720916 
L 259.397498 210.680944 
L 283.21503 217.30972 
L 284.806343 213.472218 
L 246.045292 195.086835 
L 246.956247 192.429019 
L 290.312438 202.112819 
L 291.422418 198.059672 
L 240.984427 182.468017 
L 241.501121 179.975564 
L 312.836277 188.708521 
L 313.513661 183.953803 
L 250.180294 173.137425 
L 250.399067 170.360448 
L 290.983584 168.85053 
L 244.465056 164.792727 
z
" clip-path="url(#pcad88df5dc)" style="fill: #0000ff; opacity: 0.5; stroke: #000000; stroke-width: 1.5; stroke-linejoin: miter"/>
   </g>
  </g>
 </g>
 <defs>
  <clipPath id="pcad88df5dc">
   <rect x="0" y="-0" width="328.442882" height="332.64"/>
  </clipPath>
 </defs>
</svg>
