<?xml version="1.0" encoding="utf-8" standalone="no"?>
<!DOCTYPE svg PUBLIC "-//W3C//DTD SVG 1.1//EN"
  "http://www.w3.org/Graphics/SVG/1.1/DTD/svg11.dtd">
<svg xmlns:xlink="http://www.w3.org/1999/xlink" width="326.304158pt" height="332.64pt" viewBox="0 0 326.304158 332.64" xmlns="http://www.w3.org/2000/svg" version="1.1">
 <metadata>
  <rdf:RDF xmlns:dc="http://purl.org/dc/elements/1.1/" xmlns:cc="http://creativecommons.org/ns#" xmlns:rdf="http://www.w3.org/1999/02/22-rdf-syntax-ns#">
   <cc:Work>
    <dc:type rdf:resource="http://purl.org/dc/dcmitype/StillImage"/>
    <dc:date>2023-12-09T18:06:25.824841</dc:date>
    <dc:format>image/svg+xml</dc:format>
    <dc:creator>
     <cc:Agent>
      <dc:title>Matplotlib v3.8.2, https://matplotlib.org/</dc:title>
     </cc:Agent>
    </dc:creator>
   </cc:Work>
  </rdf:RDF>
 </metadata>
 <defs>
  <style type="text/css">*{stroke-linejoin: round; stroke-linecap: butt}</style>
 </defs>
 <g id="figure_1">
  <g id="patch_1">
   <path d="M 0 332.64 
L 326.304158 332.64 
L 326.304158 0 
L 0 0 
L 0 332.64 
z
" style="fill: none"/>
  </g>
  <g id="axes_1">
   <g id="patch_2">
    <path d="M 311.126836 164.941668 
L 311.052534 160.216588 
L 290.169026 156.797344 
L 289.849011 152.73525 
L 278.752077 150.031914 
L 278.224987 146.332139 
L 277.581828 142.650766 
L 276.823237 138.991436 
L 308.623929 126.959755 
L 307.35663 122.332151 
L 281.154191 125.810147 
L 279.864328 122.04682 
L 244.243457 131.886858 
L 243.162909 129.28108 
L 260.034845 118.214766 
L 258.516608 115.119233 
L 264.290507 108.006144 
L 262.449185 104.781851 
L 236.563373 116.831404 
L 235.013245 114.47455 
L 275.550526 81.495492 
L 272.870084 77.930267 
L 238.195407 100.864551 
L 236.14244 98.464276 
L 271.994587 60.410568 
L 268.652947 56.967575 
L 262.058285 56.987442 
L 258.613926 53.85856 
L 219.921821 93.406127 
L 217.64338 91.584101 
L 236.012685 61.281521 
L 232.716219 58.969446 
L 235.091218 47.693223 
L 231.367963 45.41684 
L 215.778027 64.771669 
L 212.601304 63.094091 
L 209.699075 60.823102 
L 206.401207 59.338612 
L 189.551157 92.193147 
L 187.249593 91.326641 
L 196.014579 56.24655 
L 192.57958 55.194593 
L 198.028915 19.335363 
L 193.432351 18.238321 
L 175.967054 85.08726 
L 173.448781 84.651382 
L 174.622885 54.622974 
L 171.147413 54.244422 
L 167.896697 50.148908 
L 164.283876 49.984053 
L 160.686947 62.20048 
L 157.456619 62.256358 
L 155.711477 85.367782 
L 153.21204 85.568645 
L 141.663079 15.12 
L 136.961844 15.797308 
L 141.998979 67.065809 
L 138.930867 67.706872 
L 134.156147 61.763484 
L 130.925197 62.653764 
L 113.902035 21.377597 
L 109.411278 22.924679 
L 113.76423 46.694498 
L 110.069559 48.233395 
L 109.047916 55.432469 
L 105.630319 57.115338 
L 88.919715 34.744538 
L 84.861596 37.07051 
L 82.52748 42.108881 
L 78.704072 44.632197 
L 96.659561 77.000929 
L 93.926248 79.06265 
L 94.689575 85.336945 
L 92.219338 87.456486 
L 85.607691 85.191076 
L 83.137359 87.596242 
L 94.188004 102.642442 
L 92.262139 104.769197 
L 82.116519 100.133545 
L 80.117737 102.641094 
L 66.391685 96.677189 
L 64.292002 99.68087 
L 73.311035 109.704834 
L 71.617549 112.484514 
L 62.610832 111.272499 
L 60.971927 114.387842 
L 85.827916 129.887167 
L 84.762817 132.26331 
L 29.534616 113.370726 
L 27.978038 117.52502 
L 52.828084 130.181403 
L 51.788554 133.594987 
L 61.261481 139.678957 
L 60.516405 142.822682 
L 24.452902 139.340448 
L 23.715382 143.641682 
L 66.488585 153.310544 
L 66.169531 156.283177 
L 81.251262 160.180065 
L 81.140901 162.685131 
L 35.872737 165.334686 
L 35.946885 169.264003 
L 76.692454 170.507383 
L 76.909062 173.150682 
L 49.075279 179.433455 
L 49.586196 182.940685 
L 14.832007 193.300572 
L 15.795868 197.877629 
L 31.742889 198.558153 
L 32.863699 202.600896 
L 56.690723 199.183372 
L 57.818856 202.44139 
L 66.87961 202.529968 
L 68.10793 205.465971 
L 82.586973 202.112019 
L 83.794385 204.554355 
L 74.349426 212.906667 
L 75.900318 215.602672 
L 74.951854 219.901508 
L 76.722381 222.575113 
L 45.172267 249.654156 
L 47.893007 253.249386 
L 87.825723 225.824756 
L 89.776125 228.090649 
L 81.216307 240.307776 
L 83.625355 242.774324 
L 61.023975 272.09165 
L 64.442361 275.177373 
L 107.836593 229.549804 
L 109.894224 231.18467 
L 107.969066 238.353218 
L 110.303431 239.979566 
L 98.402819 264.249099 
L 101.556138 266.163428 
L 120.895786 238.346396 
L 123.223545 239.566303 
L 123.000621 246.273574 
L 125.576588 247.423381 
L 118.696184 272.7711 
L 122.107419 274.043148 
L 116.675651 302.956278 
L 121.036973 304.276931 
L 136.491838 261.594352 
L 139.542852 262.312391 
L 144.859066 250.873532 
L 147.568857 251.333788 
L 145.846849 288.242064 
L 149.7311 288.652786 
L 151.976843 317.26205 
L 156.770515 317.465683 
L 161.242717 248.513898 
L 163.870216 248.460182 
L 169.809945 297.282241 
L 173.966592 296.93504 
L 179.407395 306.339996 
L 183.844092 305.686553 
L 182.216158 274.04424 
L 185.636017 273.31845 
L 182.617333 248.010001 
L 185.21842 247.28447 
L 205.359023 299.621412 
L 209.571642 298.155314 
L 196.011592 252.448402 
L 198.74561 251.299531 
L 208.372778 264.598562 
L 211.482711 263.055022 
L 218.644206 268.78391 
L 221.880658 266.915344 
L 221.742783 259.78443 
L 224.694739 257.822887 
L 210.786299 232.908071 
L 212.898621 231.304313 
L 212.007965 226.106208 
L 213.905818 224.467401 
L 240.035095 248.347528 
L 242.618406 245.81649 
L 233.884543 232.770303 
L 235.981113 230.440353 
L 278.95483 261.539278 
L 281.933676 257.777996 
L 250.536826 229.331553 
L 252.51704 226.479719 
L 248.559226 219.902948 
L 250.243962 217.117956 
L 229.597858 202.220553 
L 230.735996 200.040491 
L 231.805026 197.825721 
L 232.80389 195.578433 
L 237.304301 194.691006 
L 238.201884 192.27236 
L 271.16949 200.059778 
L 272.219135 196.573681 
L 309.603667 202.179596 
L 310.70096 197.483996 
L 282.997772 187.471453 
L 283.645763 183.619672 
L 297.874974 181.394728 
L 298.324545 177.078181 
L 275.673225 171.448305 
L 275.821036 167.834746 
L 311.123864 163.996503 
L 311.019845 159.271983 
L 290.115245 155.984153 
L 289.769688 151.924152 
L 278.655971 149.290662 
L 278.105622 145.594275 
L 277.439322 141.91702 
L 276.657731 138.262533 
L 308.382122 126.031083 
L 307.085743 121.411541 
L 280.905697 125.054266 
L 279.59219 121.299126 
L 244.033912 131.363004 
L 242.936996 128.764075 
L 259.738998 117.591864 
L 258.201322 114.505941 
L 263.930369 107.356678 
L 262.068804 104.14403 
L 236.259289 116.356152 
L 234.694369 114.009094 
L 275.023428 80.775731 
L 272.320615 77.227435 
L 237.790869 100.37935 
L 235.722846 97.992035 
L 271.334947 59.71359 
L 267.971718 56.291681 
L 261.377312 56.353025 
L 257.913343 53.245868 
L 219.470735 93.036004 
L 217.180879 91.228344 
L 235.359235 60.810831 
L 232.048293 58.519535 
L 234.352324 47.228597 
L 230.614824 44.975676 
L 215.146928 64.428175 
L 211.959717 62.77061 
L 209.043262 60.517919 
L 205.736122 59.0542 
L 189.093042 92.014062 
L 186.786074 91.162049 
L 195.330253 56.027525 
L 191.888705 54.997194 
L 197.112399 19.104399 
L 192.509026 18.036288 
L 175.464516 84.993752 
L 172.943551 84.573721 
L 173.92877 54.538523 
L 170.450986 54.181837 
L 167.174576 50.106849 
L 163.56079 49.964721 
L 160.040767 62.203528 
L 156.810854 62.279722 
L 155.211104 85.401665 
L 152.712979 85.618244 
L 140.721165 15.243629 
L 136.024283 15.950491 
L 141.383768 67.186298 
L 138.319749 67.846645 
L 133.507743 61.933404 
L 130.282455 62.843988 
L 113.000027 21.675704 
L 108.519089 23.250999 
L 113.021453 46.99297 
L 109.336535 48.555074 
L 108.36019 55.760432 
L 104.953244 57.464761 
L 88.102272 35.199504 
L 84.058862 37.550953 
L 81.756481 42.603905 
L 77.949018 45.151218 
L 96.107733 77.40638 
L 93.387442 79.485252 
L 94.190214 85.754622 
L 91.733358 87.889657 
L 85.107593 85.665875 
L 82.652437 88.086531 
L 93.797496 103.062931 
L 91.885045 105.201756 
L 81.71047 100.630007 
L 79.727498 103.150077 
L 65.964208 97.272619 
L 63.883458 100.289446 
L 72.965358 110.256488 
L 71.289388 113.046764 
L 62.275226 111.89142 
L 60.655948 115.017009 
L 85.608926 130.359697 
L 84.558794 132.742492 
L 29.212861 114.197636 
L 27.682442 118.361638 
L 52.611598 130.861477 
L 51.593558 134.281533 
L 61.104563 140.305803 
L 60.379273 143.454151 
L 24.294583 140.198805 
L 23.584129 144.504593 
L 66.417298 153.904245 
L 66.116947 156.878825 
L 81.222888 160.680781 
L 81.128286 163.186491 
L 35.87768 166.120705 
L 35.976541 170.049478 
L 76.729124 171.036567 
L 76.962352 173.678451 
L 49.168634 180.136159 
L 49.7016 183.640106 
L 15.013257 194.218372 
L 16.005885 198.789277 
L 31.956872 199.36949 
L 33.103085 203.405103 
L 56.908144 199.837788 
L 58.056746 203.088646 
L 67.117878 203.120236 
L 68.364639 206.048455 
L 82.822301 202.603505 
L 84.04505 205.038198 
L 74.652809 213.449748 
L 76.220627 216.135945 
L 75.299219 220.440662 
L 77.086527 223.103078 
L 45.707349 250.380018 
L 48.450647 253.958065 
L 88.210087 226.282823 
L 90.174702 228.536405 
L 81.691892 240.807127 
L 84.116405 243.258474 
L 61.699862 272.71737 
L 65.137588 275.781533 
L 108.24399 229.881941 
L 110.311863 231.503834 
L 108.431829 238.684348 
L 110.776377 240.295982 
L 99.028642 264.639883 
L 102.193938 266.534341 
L 121.35825 238.596224 
L 123.693636 239.801467 
L 123.512901 246.510007 
L 126.096049 247.64359 
L 119.375204 273.034082 
L 122.794372 274.284649 
L 117.544558 303.231371 
L 121.9141 304.524567 
L 137.10021 261.74563 
L 140.15568 262.444466 
L 145.399845 250.972397 
L 148.112477 251.4156 
L 146.622635 288.333978 
L 150.509393 288.720261 
L 152.935027 317.314835 
L 157.729886 317.488314 
L 161.768331 248.509766 
L 164.39544 248.439525 
L 170.642115 297.223261 
L 174.796496 296.849924 
L 180.296343 306.220475 
L 184.728842 305.53914 
L 182.901929 273.907691 
L 186.317156 273.160407 
L 183.139355 247.871444 
L 185.735827 247.129568 
L 206.205201 299.338802 
L 210.408516 297.846238 
L 196.561264 252.225515 
L 199.288002 251.059472 
L 208.998623 264.29769 
L 212.098787 262.73462 
L 219.296172 268.418354 
L 222.520808 266.529469 
L 222.338086 259.399563 
L 225.277647 257.419493 
L 211.212782 232.592647 
L 213.314975 230.975635 
L 212.391644 225.783234 
L 214.279151 224.132523 
L 240.558104 247.847839 
L 243.125445 245.300604 
L 234.309702 232.309606 
L 236.391576 229.966516 
L 279.560039 260.794546 
L 282.515169 257.014603 
L 250.940028 228.766191 
L 252.902267 225.901959 
L 248.903166 219.35021 
L 250.570353 216.554677 
L 229.830961 201.787422 
L 230.955366 199.600244 
L 232.010445 197.378794 
L 232.995154 195.125269 
L 237.489896 194.209554 
L 238.372248 191.78531 
L 271.388181 199.365227 
L 272.415879 195.872597 
L 309.83493 201.243274 
L 310.902669 196.540866 
L 283.137055 186.702757 
L 283.760809 182.846978 
L 297.975744 180.532584 
L 298.398157 176.213294 
L 275.711877 170.725993 
L 275.836957 167.111577 
L 311.114947 163.051375 
L 310.981216 158.327603 
L 290.05635 155.171315 
L 289.685265 151.113568 
L 278.555205 148.55003 
L 277.981618 144.857177 
L 277.292204 141.184186 
L 276.487644 137.534687 
L 308.134478 125.103949 
L 306.809071 120.492652 
L 280.652453 124.299963 
L 279.315354 120.553159 
L 243.821076 130.840479 
L 242.707836 128.2485 
L 259.439238 116.970836 
L 257.882184 113.894645 
L 263.566153 106.709491 
L 261.68442 103.508614 
L 235.952222 115.882822 
L 234.372571 113.545652 
L 274.491814 80.0593 
L 271.766738 76.528074 
L 237.383287 99.896703 
L 235.30029 97.522442 
L 270.670937 59.020774 
L 267.286253 55.620086 
L 260.692363 55.722903 
L 257.20892 52.637594 
L 219.01733 92.668725 
L 216.71615 90.875503 
L 234.702837 60.34426 
L 231.37755 58.073834 
L 233.610521 46.768628 
L 229.858926 44.539258 
L 214.513681 64.088657 
L 211.316108 62.45117 
L 208.385543 60.216867 
L 205.069262 58.773977 
L 188.633811 91.837862 
L 186.321529 91.000376 
L 194.644563 55.812809 
L 191.196603 54.804143 
L 196.194448 18.879204 
L 191.584448 17.840067 
L 174.961399 84.903407 
L 172.437843 84.49924 
L 173.234138 54.458439 
L 169.75418 54.123633 
L 166.452205 50.069333 
L 162.837596 49.949936 
L 159.394618 62.210641 
L 156.165248 62.307147 
L 154.710954 85.438694 
L 152.214241 85.67098 
L 139.780048 15.373179 
L 135.087703 16.109568 
L 140.769327 67.310653 
L 137.709522 67.990258 
L 132.86042 62.1074 
L 129.640923 63.03825 
L 112.099912 21.979477 
L 107.62897 23.582924 
L 112.280569 47.296108 
L 108.605548 48.881357 
L 107.67454 56.092713 
L 104.278381 57.818436 
L 87.287706 35.659603 
L 83.259165 38.036436 
L 80.98861 43.103769 
L 77.197244 45.674978 
L 95.558466 77.815294 
L 92.851303 79.911234 
L 93.693491 86.175431 
L 91.250111 88.325876 
L 84.610491 86.143811 
L 82.170608 88.57986 
L 93.40964 103.485868 
L 91.510678 105.636679 
L 81.307551 101.129012 
L 79.340469 103.661504 
L 65.540485 97.870726 
L 63.47875 100.90058 
L 72.623158 110.810304 
L 70.96477 113.611066 
L 61.94352 112.512439 
L 60.343932 115.648151 
L 85.392914 130.833595 
L 84.357788 133.222948 
L 28.896314 115.026553 
L 27.392114 119.200098 
L 52.399394 131.5429 
L 51.402884 134.969291 
L 60.95159 140.933623 
L 60.246116 144.086471 
L 24.141665 141.058141 
L 23.458306 145.368312 
L 66.349747 154.498382 
L 66.06811 157.474793 
L 81.197664 161.181665 
L 81.118823 163.687921 
L 35.887568 166.906677 
L 36.011136 170.834751 
L 76.769121 171.56551 
L 77.01896 174.205874 
L 49.266408 180.838262 
L 49.821401 184.338787 
L 15.200275 195.135014 
L 16.221632 199.699585 
L 32.175952 200.179464 
L 33.347525 204.207788 
L 57.129677 200.490823 
L 58.298702 203.734394 
L 67.359854 203.708993 
L 68.625007 206.629313 
L 83.060716 203.093501 
L 84.298754 205.520455 
L 74.959602 213.990911 
L 76.544284 216.667194 
L 75.649968 220.977621 
L 77.453986 223.628743 
L 46.246985 251.102501 
L 49.012732 254.663223 
L 88.597325 226.738464 
L 90.576074 228.979645 
L 82.170608 241.303477 
L 84.610491 243.739526 
L 62.379671 273.338827 
L 65.836601 276.381308 
L 108.653468 230.211509 
L 110.731501 231.820364 
L 108.896665 239.01256 
L 111.251303 240.609417 
L 99.65691 265.026723 
L 102.834058 266.901235 
L 121.822277 238.843139 
L 124.165197 240.033669 
L 124.026659 246.743213 
L 126.616884 247.860527 
L 120.055864 273.292787 
L 123.48283 274.521825 
L 118.415178 303.500993 
L 122.792767 304.766682 
L 137.709522 261.893079 
L 140.769327 262.572683 
L 145.941235 251.067859 
L 148.656601 251.493992 
L 147.398984 288.42101 
L 151.288095 288.78284 
L 153.893524 317.361592 
L 158.689379 317.504911 
L 162.293908 248.502327 
L 164.920524 248.415566 
L 171.473898 297.159048 
L 175.625849 296.75959 
L 181.184522 306.095364 
L 185.612649 305.386165 
L 183.586827 273.766833 
L 186.997287 272.998083 
L 183.660495 247.729607 
L 186.252251 246.971415 
L 207.049586 299.050876 
L 211.24343 297.531905 
L 197.109524 251.999176 
L 199.828874 250.816006 
L 209.622564 263.992888 
L 212.712836 262.410351 
L 219.945826 268.048705 
L 223.158517 266.139576 
L 222.930956 259.01096 
L 225.858006 257.012441 
L 211.637272 232.274546 
L 213.729254 230.644344 
L 212.773283 225.457854 
L 214.650372 223.795304 
L 241.077961 247.344871 
L 243.62923 244.781539 
L 234.731955 231.846244 
L 236.799052 229.490107 
L 280.160551 260.046022 
L 283.091849 256.247567 
L 251.339666 228.198304 
L 253.283852 225.321787 
L 249.243624 218.79532 
L 250.893195 215.989357 
L 230.061336 201.352832 
L 231.171962 199.158626 
L 232.213048 196.930584 
L 233.183565 194.67091 
L 237.672458 193.726945 
L 238.539546 191.297199 
L 271.602499 198.669314 
L 272.608211 195.17029 
L 310.0603 200.305516 
L 311.098442 195.596485 
L 283.271501 185.933201 
L 283.870992 182.073575 
L 298.07109 179.669823 
L 298.466329 175.347962 
L 275.745985 170.003453 
L 275.848331 166.388322 
L 311.100086 162.106321 
L 310.936648 157.383484 
L 289.992345 154.358864 
L 289.595746 150.303531 
L 278.449783 147.810045 
L 277.852982 144.120874 
L 277.14048 140.452291 
L 276.312982 136.807924 
L 307.881008 124.178392 
L 306.526625 119.575522 
L 280.39447 123.547268 
L 279.033833 119.808947 
L 243.604957 130.319303 
L 242.475437 127.734377 
L 259.135579 116.351705 
L 257.559208 113.285367 
L 263.197874 106.064607 
L 261.296046 102.875628 
L 235.642184 115.411432 
L 234.047865 113.084244 
L 273.955704 79.346227 
L 271.208473 75.832209 
L 236.972677 99.416629 
L 234.874788 97.055516 
L 270.002583 58.332148 
L 266.596577 54.952815 
L 260.003464 55.097102 
L 256.500685 52.033763 
L 218.561623 92.304306 
L 216.249211 90.525592 
L 234.043518 59.881827 
L 230.704017 57.632359 
L 232.865841 46.313333 
L 229.100299 44.107603 
L 213.878311 63.753128 
L 210.670502 62.135785 
L 207.725943 59.919957 
L 204.400653 58.497953 
L 188.173479 91.664554 
L 185.855976 90.841627 
L 193.957536 55.602409 
L 190.5033 54.615449 
L 195.275099 18.659787 
L 190.658654 17.649665 
L 174.457725 84.816228 
L 171.931677 84.42794 
L 172.539016 54.382726 
L 169.057021 54.069813 
L 165.729612 50.036361 
L 162.114324 49.9397 
L 158.748527 62.221817 
L 155.519828 62.338632 
L 154.211047 85.478868 
L 151.715844 85.726853 
L 138.839763 15.508646 
L 134.152143 16.274532 
L 140.15568 67.438871 
L 137.10021 68.137707 
L 132.214204 62.285463 
L 129.000626 63.236544 
L 111.201725 22.288906 
L 106.740956 23.92044 
L 111.541605 47.6039 
L 107.876627 49.212231 
L 106.990993 56.4293 
L 103.605755 58.176349 
L 86.47605 36.124816 
L 82.462538 38.526939 
L 80.223898 43.608452 
L 76.448779 46.203456 
L 95.011782 78.227655 
L 92.317855 80.340579 
L 93.199424 86.599356 
L 90.769618 88.765125 
L 84.116405 86.624863 
L 81.691892 89.07621 
L 93.024451 103.911236 
L 91.139055 106.073947 
L 80.907779 101.630541 
L 78.956663 104.175356 
L 65.120532 98.471486 
L 63.077894 101.514247 
L 72.284447 111.366262 
L 70.643708 114.177399 
L 61.615726 113.135532 
L 60.035891 116.281243 
L 85.179885 131.308843 
L 84.159808 133.704659 
L 28.584986 115.857445 
L 27.107065 120.040368 
L 52.19148 132.225644 
L 51.216539 135.658234 
L 60.802569 141.562393 
L 60.116938 144.719615 
L 23.994155 141.918422 
L 23.337918 146.232806 
L 66.285934 155.092932 
L 66.023022 158.071055 
L 81.175592 161.682698 
L 81.112515 164.1894 
L 35.902398 167.692571 
L 36.050669 171.61979 
L 76.812444 172.09419 
L 77.078885 174.732932 
L 49.368595 181.539735 
L 49.945594 185.036701 
L 15.393055 196.050462 
L 16.443101 200.608519 
L 32.400123 200.988044 
L 33.597009 205.00892 
L 57.355312 201.142453 
L 58.544714 204.378607 
L 67.605527 204.296217 
L 68.889022 207.208522 
L 83.302208 203.581987 
L 84.555486 206.001107 
L 75.269793 214.530133 
L 76.871276 217.196397 
L 76.004088 221.512363 
L 77.824744 224.152087 
L 46.791154 251.821575 
L 49.579242 255.364832 
L 88.987421 227.191661 
L 90.980227 229.420353 
L 82.652437 241.796806 
L 85.107593 244.217462 
L 63.063375 273.955996 
L 66.539372 276.976675 
L 109.06501 230.538495 
L 111.153121 232.134249 
L 109.363557 239.337843 
L 111.728191 240.919858 
L 100.287599 265.409604 
L 103.476474 267.264097 
L 122.287847 239.08713 
L 124.638208 240.262901 
L 124.541872 246.973184 
L 127.139074 248.074185 
L 120.738138 273.547207 
L 124.172766 274.754667 
L 119.287477 303.765134 
L 123.67294 305.003265 
L 138.319749 262.036692 
L 141.383768 262.697039 
L 146.483215 251.159913 
L 149.201208 251.56896 
L 148.175865 288.503157 
L 152.067175 288.84052 
L 154.852297 317.402321 
L 159.648958 317.515473 
L 162.819429 248.491584 
L 165.445447 248.388304 
L 172.30526 297.089605 
L 176.454616 296.664042 
L 182.071896 305.964671 
L 186.495475 305.227635 
L 184.270826 273.621669 
L 187.676383 272.831485 
L 184.180733 247.584495 
L 186.767669 246.810018 
L 207.892143 298.757645 
L 212.076351 297.212327 
L 197.656349 251.769393 
L 200.368204 250.569143 
L 210.244575 263.684168 
L 213.324833 262.082226 
L 220.593142 267.674977 
L 223.793763 265.74568 
L 223.521371 258.618636 
L 226.435793 256.601747 
L 212.059753 231.953781 
L 214.14144 230.310455 
L 213.152869 225.130079 
L 215.019463 223.455756 
L 241.594643 246.838644 
L 244.12974 244.259316 
L 235.151286 231.380236 
L 237.203523 229.011144 
L 280.756344 259.293736 
L 283.663693 255.47692 
L 251.735724 227.627914 
L 253.66178 224.739227 
L 249.580584 218.238299 
L 251.212475 215.422017 
L 230.288973 200.916802 
L 231.385776 198.715655 
L 232.412829 196.481109 
L 233.369115 194.215376 
L 237.851982 193.243196 
L 238.703771 190.808045 
L 271.812437 197.972067 
L 272.796121 194.466786 
L 310.279767 199.366359 
L 311.288272 194.650892 
L 283.401105 185.162815 
L 283.976309 181.299494 
L 298.161008 178.806479 
L 298.529057 174.482218 
L 275.775549 169.280713 
L 275.855155 165.665009 
L 311.079281 161.16138 
L 310.886143 156.439664 
L 289.923231 153.546832 
L 289.501134 149.494073 
L 278.339708 147.070739 
L 277.719716 143.385393 
L 276.984155 139.721364 
L 276.133753 136.082274 
L 307.621722 123.254447 
L 306.238416 118.660186 
L 280.131758 122.79621 
L 278.747636 119.066521 
L 243.385566 129.799497 
L 242.23981 127.221726 
L 258.828031 115.734495 
L 257.232406 112.678134 
L 262.825547 105.422052 
L 260.903699 102.245098 
L 235.329188 114.942002 
L 233.720264 112.624887 
L 273.41512 78.63654 
L 270.645842 75.13987 
L 236.559056 98.939148 
L 234.446359 96.591275 
L 269.32991 57.647739 
L 265.902718 54.289895 
L 259.310642 54.475646 
L 255.788666 51.434398 
L 218.103634 91.942759 
L 215.78008 90.178625 
L 233.381303 59.42355 
L 230.02772 57.19513 
L 232.118311 45.862731 
L 228.338971 43.680728 
L 213.240844 63.421602 
L 210.022926 61.824466 
L 207.064489 59.627201 
L 203.730321 58.22614 
L 187.712067 91.494145 
L 185.389434 90.68581 
L 193.269199 55.396335 
L 189.808824 54.431119 
L 194.354388 18.446156 
L 189.731682 17.465089 
L 173.953512 84.732218 
L 171.425072 84.359826 
L 171.843432 54.311386 
L 168.359537 54.020379 
L 165.006826 50.007934 
L 161.391002 49.934013 
L 158.102519 62.237056 
L 154.874618 62.374175 
L 153.711402 85.522186 
L 151.217808 85.785859 
L 137.90035 15.650024 
L 133.217639 16.445378 
L 139.542852 67.570946 
L 136.491838 68.288985 
L 131.569121 62.467586 
L 128.361588 63.43886 
L 110.305502 22.603977 
L 105.855083 24.263535 
L 110.804592 47.916333 
L 107.149803 49.547683 
L 106.309577 56.770179 
L 102.935394 58.538485 
L 85.667336 36.595124 
L 81.669011 39.022443 
L 79.462375 44.117935 
L 75.703652 46.736631 
L 94.467702 78.643446 
L 91.787118 80.773271 
L 92.708034 87.02638 
L 90.291897 89.207389 
L 83.625355 87.109013 
L 81.216307 89.575561 
L 92.641946 104.339018 
L 90.770189 106.513544 
L 80.511169 102.134576 
L 78.576098 104.691611 
L 64.704365 99.074875 
L 62.680905 102.130424 
L 71.94924 111.92434 
L 70.326213 114.74574 
L 61.291858 113.760675 
L 59.731839 116.916259 
L 84.969851 131.785421 
L 83.964862 134.187605 
L 28.27889 116.690278 
L 26.827306 120.882414 
L 51.987864 132.909682 
L 51.034532 136.348336 
L 60.657505 142.192087 
L 59.991746 145.353559 
L 23.852059 142.779614 
L 23.22297 147.09804 
L 66.225861 155.687871 
L 65.981686 158.66759 
L 81.15667 162.18386 
L 81.109361 164.690909 
L 35.922171 168.478357 
L 36.095139 172.404566 
L 76.859092 172.622588 
L 77.142123 175.259601 
L 49.475193 182.240552 
L 50.074174 185.73382 
L 15.591588 196.964679 
L 16.670281 201.516041 
L 32.629375 201.795199 
L 33.851526 205.808467 
L 57.585042 201.79265 
L 58.794774 205.021259 
L 67.854889 204.881884 
L 69.156676 207.786059 
L 83.546768 204.068945 
L 84.815235 206.480135 
L 75.583369 215.067394 
L 77.201589 217.723532 
L 76.361564 222.044867 
L 78.198786 224.673088 
L 47.339836 252.537213 
L 50.150153 256.062864 
L 89.380359 227.642395 
L 91.387143 229.858509 
L 83.137359 242.287094 
L 85.607691 244.692261 
L 63.750948 274.568853 
L 67.245874 277.56761 
L 109.478601 230.862887 
L 111.576708 232.445475 
L 109.832485 239.660182 
L 112.207022 241.227294 
L 100.920683 265.78851 
L 104.121158 267.62291 
L 122.754943 239.328188 
L 125.112652 240.489154 
L 125.058522 247.199909 
L 127.662597 248.284554 
L 121.421999 273.79733 
L 124.864153 274.983164 
L 120.16142 304.023783 
L 124.554583 305.234308 
L 138.930867 262.176465 
L 141.998979 262.817528 
L 147.025763 251.248557 
L 149.746275 251.640502 
L 148.953247 288.580417 
L 152.846602 288.893299 
L 155.811307 317.437018 
L 160.608585 317.52 
L 163.344872 248.477535 
L 165.970188 248.357741 
L 173.136169 297.014935 
L 177.282767 296.563283 
L 182.958431 305.828398 
L 187.377287 305.063555 
L 184.953899 273.472206 
L 188.354418 272.660619 
L 184.700048 247.436114 
L 187.282062 246.645381 
L 208.73284 298.45912 
L 212.907245 296.887517 
L 198.201718 251.536175 
L 200.905971 250.318893 
L 210.864632 263.371542 
L 213.934754 261.750258 
L 221.238094 267.297185 
L 224.426518 265.347796 
L 224.109306 258.222606 
L 227.010985 256.187427 
L 212.480208 231.630366 
L 214.551519 229.973979 
L 213.530385 224.799924 
L 215.386413 223.113894 
L 242.108132 246.329176 
L 244.626956 243.733955 
L 235.567677 230.911599 
L 237.604973 228.529647 
L 281.347393 258.537717 
L 284.23068 254.702691 
L 252.128188 227.055045 
L 254.036037 224.154301 
L 249.914035 217.679171 
L 251.528181 214.85268 
L 230.513862 200.47935 
L 231.5968 198.271347 
L 232.609779 196.030386 
L 233.551795 193.758683 
L 238.028459 192.758328 
L 238.864916 190.317867 
L 272.017984 197.273513 
L 272.979603 193.762115 
L 310.493324 198.42584 
L 311.472151 193.704123 
L 283.52586 184.391628 
L 284.076755 180.524766 
L 298.245494 177.942587 
L 298.586338 173.616096 
L 275.800566 168.557801 
L 311.126836 164.941668 
z
" clip-path="url(#padf2380f65)" style="fill: #0000ff; opacity: 0.5; stroke: #000000; stroke-width: 1.5; stroke-linejoin: miter"/>
   </g>
  </g>
 </g>
 <defs>
  <clipPath id="padf2380f65">
   <rect x="0" y="-0" width="326.304158" height="332.64"/>
  </clipPath>
 </defs>
</svg>
