<?xml version="1.0" encoding="utf-8" standalone="no"?>
<!DOCTYPE svg PUBLIC "-//W3C//DTD SVG 1.1//EN"
  "http://www.w3.org/Graphics/SVG/1.1/DTD/svg11.dtd">
<svg xmlns:xlink="http://www.w3.org/1999/xlink" width="334.8pt" height="331.205401pt" viewBox="0 0 334.8 331.205401" xmlns="http://www.w3.org/2000/svg" version="1.1">
 <metadata>
  <rdf:RDF xmlns:dc="http://purl.org/dc/elements/1.1/" xmlns:cc="http://creativecommons.org/ns#" xmlns:rdf="http://www.w3.org/1999/02/22-rdf-syntax-ns#">
   <cc:Work>
    <dc:type rdf:resource="http://purl.org/dc/dcmitype/StillImage"/>
    <dc:date>2023-12-09T18:06:25.988463</dc:date>
    <dc:format>image/svg+xml</dc:format>
    <dc:creator>
     <cc:Agent>
      <dc:title>Matplotlib v3.8.2, https://matplotlib.org/</dc:title>
     </cc:Agent>
    </dc:creator>
   </cc:Work>
  </rdf:RDF>
 </metadata>
 <defs>
  <style type="text/css">*{stroke-linejoin: round; stroke-linecap: butt}</style>
 </defs>
 <g id="figure_1">
  <g id="patch_1">
   <path d="M 0 331.205401 
L 334.8 331.205401 
L 334.8 0 
L 0 0 
L 0 331.205401 
z
" style="fill: none"/>
  </g>
  <g id="axes_1">
   <g id="patch_2">
    <path d="M 265.790304 170.171142 
L 265.741928 167.094752 
L 270.360227 163.721417 
L 270.106798 160.504527 
L 295.795433 154.003861 
L 295.223886 149.992038 
L 275.77405 149.581053 
L 275.07334 146.200933 
L 301.231696 135.913849 
L 300.088672 131.740041 
L 310.161866 123.913465 
L 308.637109 119.464806 
L 250.771364 137.342719 
L 249.698216 134.754789 
L 246.385389 133.218914 
L 245.184748 130.770927 
L 241.120202 129.896185 
L 239.81769 127.61539 
L 267.98552 106.605662 
L 265.93742 103.491678 
L 241.278529 116.822576 
L 239.564877 114.543267 
L 230.429579 118.408668 
L 228.771161 116.46969 
L 225.314213 116.218735 
L 223.589468 114.441678 
L 255.541545 76.740055 
L 252.560558 74.032104 
L 221.637772 105.154348 
L 219.566956 103.498357 
L 216.044222 103.840262 
L 213.934853 102.360793 
L 213.907799 97.588051 
L 211.602903 96.178848 
L 235.263125 47.413863 
L 231.370084 45.358009 
L 229.779484 38.38456 
L 225.605253 36.505588 
L 202.397401 82.856075 
L 199.634991 81.816068 
L 212.022675 33.93904 
L 207.717447 32.620578 
L 190.974027 79.994688 
L 188.127297 79.315271 
L 185.852511 75.599357 
L 182.870114 75.083146 
L 186.673395 20.196479 
L 181.948604 19.681849 
L 175.601235 45.517183 
L 171.678057 45.338167 
L 167.703661 15.054791 
L 162.826584 15.139154 
L 161.285567 66.974928 
L 158.044146 67.235419 
L 150.872005 36.825665 
L 146.687774 37.428487 
L 151.249617 83.467289 
L 148.531714 84.035178 
L 129.496135 21.538713 
L 124.841817 22.821199 
L 135.559042 71.125809 
L 132.460854 72.193146 
L 119.09819 47.491093 
L 115.265013 49.087681 
L 131.892472 93.948752 
L 129.5137 95.120089 
L 94.476298 37.181985 
L 90.331153 39.557836 
L 92.677797 52.123706 
L 89.003343 54.548718 
L 95.255548 70.580932 
L 92.160155 72.915768 
L 93.207206 80.240937 
L 90.416557 82.635401 
L 83.335501 80.487598 
L 80.557489 83.192329 
L 103.437463 109.881619 
L 101.573724 111.939766 
L 68.453375 88.272632 
L 65.927499 91.44144 
L 62.213061 93.756211 
L 59.862686 97.118517 
L 62.32833 103.524565 
L 60.285036 106.878417 
L 43.688419 102.285927 
L 41.615397 106.226471 
L 55.522162 117.638672 
L 53.926012 121.199546 
L 41.336369 120.447087 
L 39.835535 124.452606 
L 69.507779 138.49386 
L 68.560448 141.604685 
L 26.845882 134.377208 
L 25.790206 138.831452 
L 19.402388 142.289466 
L 18.599171 146.973837 
L 69.260771 158.006672 
L 68.927087 161.115615 
L 15.489974 161.050944 
L 15.278594 165.849054 
L 37.491216 170.581395 
L 37.568617 174.683025 
L 80.636659 175.945506 
L 80.861387 178.687897 
L 38.573431 186.944949 
L 39.164802 191.004462 
L 70.337775 189.128636 
L 70.982101 192.188328 
L 73.261916 194.825367 
L 74.083914 197.790301 
L 28.146473 216.13053 
L 29.660658 220.503459 
L 37.958745 222.167702 
L 39.657901 226.229126 
L 46.513721 227.846209 
L 48.387191 231.635839 
L 93.510592 211.44753 
L 94.845216 213.767583 
L 98.93233 214.329633 
L 100.354893 216.47779 
L 79.38202 235.029821 
L 81.465109 237.782448 
L 64.082679 256.768988 
L 66.856858 259.991911 
L 103.817926 230.865206 
L 105.757988 232.851573 
L 101.252733 241.760263 
L 103.536628 243.821899 
L 96.297195 257.494865 
L 99.07827 259.704534 
L 112.620846 246.980216 
L 115.063246 248.681833 
L 91.727969 291.38325 
L 95.576828 293.719831 
L 128.778773 242.135581 
L 131.060859 243.331552 
L 127.673999 256.715651 
L 130.41506 257.93915 
L 133.772475 257.594114 
L 136.538141 258.625429 
L 123.573638 308.81401 
L 127.954813 310.140674 
L 137.429485 291.273724 
L 141.252304 292.173403 
L 148.302877 275.747417 
L 151.632139 276.312889 
L 152.191382 299.673147 
L 156.270999 300.104526 
L 162.767289 259.112991 
L 165.566377 259.231894 
L 168.476636 282.331087 
L 172.002929 282.258997 
L 177.45993 310.647538 
L 181.872113 310.278993 
L 181.715665 275.068888 
L 185.007072 274.584124 
L 196.53754 316.15061 
L 201.113319 315.179502 
L 205.051348 311.756544 
L 209.484758 310.519916 
L 214.875562 312.165663 
L 219.316978 310.619938 
L 226.080365 314.840188 
L 230.600335 312.940837 
L 220.335064 280.026052 
L 223.763241 278.324559 
L 243.770947 306.403921 
L 248.016915 303.95251 
L 249.605048 297.352554 
L 253.563537 294.722181 
L 215.047457 234.275092 
L 217.039738 232.762473 
L 231.742453 246.442165 
L 234.109039 244.398603 
L 244.625717 250.934901 
L 247.127195 248.48404 
L 232.646935 230.257501 
L 234.504193 228.193503 
L 245.531862 233.626316 
L 247.488672 231.155521 
L 262.29052 237.902721 
L 264.373503 234.902883 
L 274.449922 236.907629 
L 276.495606 233.525965 
L 267.944737 224.393945 
L 269.600179 221.223006 
L 248.781439 207.632747 
L 249.919348 205.07263 
L 265.061413 207.958629 
L 266.201518 204.886474 
L 296.048147 210.948969 
L 297.266955 206.901044 
L 270.57817 195.862694 
L 271.335226 192.62306 
L 246.957267 184.744062 
L 247.376407 182.252619 
L 318.798684 188.284156 
L 319.293612 183.532111 
L 298.9898 177.596757 
L 299.158487 173.47283 
L 265.788369 169.555767 
L 265.720645 166.479742 
L 270.317636 163.077427 
L 270.04398 159.862195 
L 295.691221 153.200091 
L 295.094454 149.191941 
L 275.642417 148.903293 
L 274.920462 145.527646 
L 301.013601 135.076245 
L 299.844349 130.909709 
L 309.868119 123.019932 
L 308.315412 118.580952 
L 250.563253 136.822454 
L 249.47385 134.241324 
L 246.151429 132.726315 
L 244.935415 130.285928 
L 240.865448 129.436767 
L 239.548617 127.164209 
L 267.58375 105.977737 
L 265.516106 102.876696 
L 240.941547 116.362421 
L 239.213592 114.093935 
L 230.102787 118.016716 
L 228.432206 116.088206 
L 224.973748 115.858999 
L 223.23786 114.092824 
L 254.952184 76.190987 
L 251.954224 73.501837 
L 221.227792 104.817953 
L 219.146601 103.175019 
L 215.626087 103.539073 
L 213.507455 102.072901 
L 213.450383 97.300423 
L 211.13667 95.905744 
L 234.48972 46.992915 
L 230.583826 44.961586 
L 228.949398 37.998279 
L 224.763432 36.145598 
L 201.847558 82.641132 
L 199.078661 81.618519 
L 211.16498 33.664527 
L 206.851546 32.373169 
L 190.406413 79.851648 
L 187.555466 79.190149 
L 185.257354 75.488616 
L 182.271769 74.991172 
L 185.729769 20.08167 
L 181.001835 19.596767 
L 174.817081 45.471511 
L 170.892855 45.317173 
L 166.728072 15.059393 
L 161.851622 15.174428 
L 160.636653 67.018869 
L 157.396935 67.299741 
L 150.033675 36.935698 
L 145.853318 37.564825 
L 150.704629 83.574025 
L 147.990352 84.158996 
L 128.562081 21.783491 
L 123.915922 23.095224 
L 134.936744 71.331473 
L 131.845329 72.418275 
L 118.327568 47.800754 
L 114.504509 49.421419 
L 131.41379 94.177026 
L 129.042432 95.363301 
L 93.641324 37.646708 
L 89.511205 40.048583 
L 91.936835 52.599445 
L 88.277705 55.04752 
L 94.63062 71.040093 
L 91.549972 73.394352 
L 92.643074 80.71279 
L 89.867541 83.124759 
L 82.773116 81.021534 
L 80.01217 83.743683 
L 103.059552 110.288543 
L 101.208794 112.358372 
L 67.940247 88.900014 
L 65.434352 92.084646 
L 61.734546 94.422733 
L 59.405364 97.799755 
L 61.911249 104.190169 
L 59.88909 107.556805 
L 43.263917 103.068789 
L 41.215719 107.022293 
L 55.193986 118.346803 
L 53.620264 121.917646 
L 41.026137 121.244384 
L 39.550526 125.259262 
L 69.310494 139.113617 
L 68.382747 142.230339 
L 26.623549 135.265366 
L 25.595909 139.726161 
L 19.229966 143.224283 
L 18.456227 147.913613 
L 69.186215 158.627597 
L 68.872091 161.738577 
L 15.435628 162.009996 
L 15.25443 166.809341 
L 37.496377 171.401883 
L 37.599573 175.502946 
L 80.674703 176.494528 
L 80.916675 179.235452 
L 38.681487 187.758308 
L 39.298379 191.814021 
L 70.458937 189.742171 
L 71.122494 192.79775 
L 73.41885 195.420398 
L 74.259479 198.380104 
L 28.438296 217.008891 
L 29.979955 221.37221 
L 38.288345 222.984229 
L 40.013011 227.034887 
L 46.878866 228.608819 
L 48.776134 232.386591 
L 93.771669 211.91488 
L 95.120859 214.226493 
L 99.211427 214.762826 
L 100.647473 216.901994 
L 79.791696 235.585565 
L 81.892056 238.325036 
L 64.629384 257.420526 
L 67.42378 260.625937 
L 104.200925 231.267344 
L 106.153442 233.241471 
L 101.704308 242.17832 
L 104.001123 244.22555 
L 96.847829 257.943778 
L 99.642746 260.135912 
L 113.105025 247.326671 
L 115.55808 249.012893 
L 92.491832 291.860231 
L 96.355311 294.172558 
L 129.232163 242.380507 
L 131.521726 243.562102 
L 128.219111 256.967237 
L 130.967814 258.173472 
L 134.322991 257.807326 
L 137.09509 258.821227 
L 124.446501 309.090354 
L 128.835933 310.389438 
L 138.191755 291.463271 
L 142.020157 292.338888 
L 148.967281 275.868882 
L 152.300034 276.413404 
L 153.006187 299.769683 
L 157.088437 300.175395 
L 163.326785 259.143812 
L 166.126565 259.245109 
L 169.182048 282.325541 
L 172.707817 282.231274 
L 178.343259 310.584933 
L 182.753036 310.188645 
L 182.37514 274.98022 
L 185.663433 274.474765 
L 197.455103 315.967908 
L 202.024683 314.96804 
L 205.941106 311.520382 
L 210.366651 310.255895 
L 215.767699 311.867704 
L 220.199306 310.294076 
L 226.989102 314.471704 
L 231.497036 312.543963 
L 221.024953 279.694391 
L 224.442361 277.97137 
L 244.626275 305.92434 
L 248.856741 303.446273 
L 250.403332 296.836459 
L 254.345199 294.181242 
L 215.449703 233.977592 
L 217.432431 232.452473 
L 232.220892 246.039423 
L 234.574579 243.981017 
L 245.132159 250.451042 
L 247.618173 247.984496 
L 233.023565 229.84939 
L 234.867804 227.773752 
L 245.929425 233.137099 
L 247.870656 230.654047 
L 262.714647 237.308017 
L 264.778722 234.295138 
L 274.86755 236.236469 
L 276.891925 232.842006 
L 268.28379 223.763947 
L 269.919256 220.582659 
L 249.015453 207.123606 
L 250.137237 204.556384 
L 265.297154 207.347091 
L 266.417915 204.267826 
L 296.302083 210.142482 
L 297.495407 206.086972 
L 270.737726 195.216698 
L 271.474391 191.972367 
L 247.04736 184.246848 
L 247.450822 181.752817 
L 318.909621 187.33503 
L 319.374652 182.579966 
L 299.033912 176.772428 
L 299.176658 172.647523 
L 265.782563 168.940416 
L 265.695494 165.864878 
L 270.270996 162.433717 
L 269.977123 159.22027 
L 295.581956 152.396991 
L 294.959992 148.392674 
L 275.506524 148.226374 
L 274.763352 144.855335 
L 300.790242 134.240029 
L 299.594808 130.080929 
L 309.568757 122.128265 
L 307.988162 117.699138 
L 250.351875 136.303508 
L 249.246259 133.72928 
L 245.914375 132.235198 
L 244.683037 129.802507 
L 240.607809 128.978961 
L 239.276712 126.71473 
L 267.17804 105.352352 
L 265.090932 102.264376 
L 240.601677 115.904395 
L 238.859489 113.646821 
L 229.773536 117.626826 
L 228.090859 115.708861 
L 224.631028 115.501411 
L 222.884066 113.746189 
L 254.359381 75.645636 
L 251.344567 72.975395 
L 220.815703 104.484143 
L 218.724221 102.854331 
L 215.206066 103.24052 
L 213.078255 101.787702 
L 212.991168 97.015677 
L 210.668729 95.635578 
L 233.713682 46.576838 
L 229.79509 44.570116 
L 228.116899 37.617227 
L 223.919364 35.790909 
L 201.296373 82.429652 
L 198.5211 81.424474 
L 210.305576 33.395414 
L 205.984105 32.13121 
L 189.83791 79.712181 
L 186.982859 79.068626 
L 184.661512 75.38162 
L 181.672858 74.902963 
L 184.78544 19.972799 
L 180.054549 19.517641 
L 174.032655 45.430772 
L 170.107536 45.301118 
L 165.752531 15.070131 
L 160.876901 15.215834 
L 159.988029 67.066891 
L 156.750141 67.368133 
L 149.196054 37.051001 
L 145.019736 37.706408 
L 150.160324 83.684186 
L 147.449779 84.286217 
L 127.629586 22.034138 
L 122.991769 23.375067 
L 134.315751 71.541048 
L 131.231233 72.647271 
L 117.558909 48.115256 
L 113.746118 49.759934 
L 130.936553 94.408305 
L 128.572702 95.609472 
L 92.80929 38.116673 
L 88.694359 40.544477 
L 91.198879 53.079835 
L 87.555218 55.550875 
L 94.008592 71.503176 
L 90.942812 73.876763 
L 92.081922 81.188182 
L 89.321612 83.61756 
L 82.2141 81.558996 
L 79.470329 84.298456 
L 102.684208 110.697836 
L 100.846505 112.779264 
L 67.431076 89.530611 
L 64.945259 92.73094 
L 61.260232 95.092251 
L 58.952336 98.483855 
L 61.498364 104.858382 
L 59.497419 108.23767 
L 42.844348 103.854306 
L 40.821056 107.820614 
L 54.870271 119.056984 
L 53.319038 122.637654 
L 40.720925 122.043615 
L 39.270595 126.067695 
L 69.117111 139.734603 
L 68.208984 142.857097 
L 26.406806 136.154904 
L 25.407243 140.622074 
L 19.063427 144.160165 
L 18.319197 148.854269 
L 69.115566 159.248978 
L 68.821014 162.361872 
L 15.387316 162.969371 
L 15.236306 167.769761 
L 37.506698 172.222323 
L 37.635685 176.322655 
L 80.7162 177.0433 
L 80.975405 179.782647 
L 38.794657 188.57097 
L 39.437045 192.622723 
L 70.583956 190.354932 
L 71.266718 193.406278 
L 73.579523 196.014431 
L 74.438751 198.968791 
L 28.735639 217.885399 
L 30.30471 222.238935 
L 38.623074 223.798668 
L 40.373182 227.838398 
L 47.2488 229.369116 
L 49.169791 233.134881 
L 94.035681 212.380579 
L 95.399382 214.683661 
L 99.493243 215.194256 
L 100.942714 217.324349 
L 80.20486 236.138722 
L 82.322407 238.864929 
L 65.180177 258.068613 
L 67.994677 261.256386 
L 104.586447 231.667066 
L 106.551341 233.628873 
L 102.158502 242.593528 
L 104.468148 244.626273 
L 97.401275 258.389219 
L 100.209925 260.563731 
L 113.591375 247.670073 
L 116.054986 249.340833 
L 93.25868 292.332398 
L 97.136625 294.62038 
L 129.687085 242.622577 
L 131.984034 243.789748 
L 128.765795 257.21539 
L 131.52203 258.404313 
L 134.874838 258.017073 
L 137.653259 259.013518 
L 125.321084 309.361204 
L 129.7186 310.632654 
L 138.955202 291.648019 
L 142.789036 292.49954 
L 149.632435 275.986167 
L 152.968547 276.509717 
L 153.821584 299.861092 
L 157.906305 300.241121 
L 163.886464 259.171115 
L 166.686826 259.2548 
L 169.887411 282.315559 
L 173.412518 282.199118 
L 179.226177 310.516772 
L 183.633374 310.092757 
L 183.034044 274.887405 
L 186.319094 274.361279 
L 198.371498 315.779438 
L 202.9347 314.75085 
L 206.829361 311.278628 
L 211.246866 309.986332 
L 216.657944 311.56414 
L 221.079566 309.96267 
L 227.895503 314.097513 
L 232.391223 312.141457 
L 221.712743 279.358398 
L 225.119246 277.613918 
L 245.478569 305.439389 
L 249.693365 302.934764 
L 251.198355 296.315353 
L 255.123443 293.635397 
L 215.85007 233.677569 
L 217.823167 232.140009 
L 232.69679 245.633679 
L 235.037483 243.560511 
L 245.635548 249.964006 
L 248.105999 247.481874 
L 233.39762 229.438919 
L 235.228769 227.351722 
L 246.323902 232.645392 
L 248.249478 230.150179 
L 263.135026 236.710658 
L 265.180111 233.684857 
L 275.280949 235.562696 
L 277.283934 232.155568 
L 268.618874 223.131829 
L 270.234299 219.940318 
L 249.246259 206.613004 
L 250.351875 204.038777 
L 265.529044 206.734082 
L 266.630416 203.647828 
L 296.550941 209.334414 
L 297.718735 205.271479 
L 270.893215 194.56971 
L 271.60946 191.32081 
L 247.134324 183.749076 
L 247.522091 181.252558 
L 319.014587 186.385225 
L 319.449701 181.62733 
L 299.072837 175.947839 
L 299.189637 171.822117 
L 265.772888 168.325114 
L 265.666477 165.250184 
L 270.220308 161.790314 
L 269.90623 158.578778 
L 295.467642 151.594595 
L 294.820506 147.594269 
L 275.366377 147.550323 
L 274.602018 144.184025 
L 300.561628 133.405234 
L 299.340059 129.253736 
L 309.263794 121.238498 
L 307.655373 116.8194 
L 250.137237 135.785901 
L 249.015453 133.218679 
L 245.674238 131.745581 
L 244.427624 129.320683 
L 240.347297 128.522784 
L 239.001985 126.26697 
L 266.768403 104.72953 
L 264.661916 101.654743 
L 240.258933 115.448515 
L 238.50258 113.201943 
L 229.441839 117.239015 
L 227.747132 115.331671 
L 224.286065 115.145985 
L 222.528098 113.401785 
L 253.76316 75.104024 
L 250.731612 72.452797 
L 220.401524 104.152932 
L 218.299832 102.536306 
L 214.784176 102.944615 
L 212.647269 101.505208 
L 212.53017 96.733826 
L 210.199097 95.36836 
L 232.935043 46.165651 
L 229.003908 44.183614 
L 227.28202 37.241417 
L 223.073081 35.441536 
L 200.743869 82.221642 
L 197.962329 81.233939 
L 209.444497 33.131711 
L 205.11516 31.894712 
L 189.268541 79.576292 
L 186.409499 78.950706 
L 184.065009 75.278373 
L 181.073403 74.818523 
L 183.840444 19.869869 
L 179.106785 19.444475 
L 173.247988 45.394967 
L 169.322131 45.290003 
L 164.777077 15.087004 
L 159.90246 15.263369 
L 159.339719 67.118991 
L 156.103789 67.440592 
L 148.359175 37.17157 
L 144.187062 37.853231 
L 149.616721 83.797768 
L 146.910017 84.416835 
L 126.698686 22.290645 
L 122.069394 23.660717 
L 133.696089 71.754523 
L 130.61859 72.880125 
L 116.792244 48.434587 
L 112.989872 50.103212 
L 130.460779 94.642582 
L 128.10453 95.858592 
L 91.980229 38.591862 
L 87.880648 41.045498 
L 90.463959 53.564857 
L 86.835912 56.058764 
L 93.389489 71.970162 
L 90.338698 74.362984 
L 91.52377 81.667094 
L 88.778795 84.113784 
L 81.658476 82.099964 
L 78.931989 84.856626 
L 102.311445 111.109482 
L 100.486869 113.202427 
L 66.925881 90.164397 
L 64.460242 93.380298 
L 60.790138 95.764738 
L 58.50362 99.170791 
L 61.089689 105.529179 
L 59.110037 108.920985 
L 42.429727 104.642446 
L 40.43142 108.6214 
L 54.551028 119.769187 
L 53.022347 123.359543 
L 40.420747 122.84475 
L 38.995754 126.877872 
L 68.927637 140.356792 
L 68.039167 143.484937 
L 26.195663 137.045788 
L 25.224215 141.519157 
L 18.902777 145.097076 
L 18.188085 149.795768 
L 69.048826 159.870791 
L 68.773859 162.985477 
L 15.345038 163.929031 
L 15.224223 168.730275 
L 37.522178 173.042681 
L 37.676952 177.142121 
L 80.761147 177.5918 
L 81.037576 180.329463 
L 38.912936 189.382905 
L 39.580795 193.430537 
L 70.712826 190.966895 
L 71.414766 194.013886 
L 73.743929 196.607441 
L 74.621721 199.556339 
L 29.038488 218.760019 
L 30.634909 223.103601 
L 38.962918 224.610985 
L 40.7384 228.639628 
L 47.623509 230.127072 
L 49.568147 233.88068 
L 94.302616 212.844608 
L 95.680776 215.139067 
L 99.777767 215.623904 
L 101.240606 217.744839 
L 80.621494 236.689269 
L 82.756146 239.402104 
L 65.735035 258.713223 
L 68.569529 261.883231 
L 104.974474 232.064355 
L 106.951668 234.013765 
L 102.615299 243.005872 
L 104.937685 245.02405 
L 97.957512 258.83117 
L 100.779783 260.987975 
L 114.079874 248.01041 
L 116.553945 249.665642 
L 94.028482 292.799733 
L 97.920741 295.063279 
L 130.14352 242.861781 
L 132.447765 244.014482 
L 129.314029 257.460099 
L 132.077687 258.631664 
L 135.427994 258.223344 
L 138.212626 259.202295 
L 126.197354 309.626547 
L 130.60278 310.870315 
L 139.719796 291.827962 
L 143.55891 292.655354 
L 150.298314 276.099266 
L 153.637652 276.601823 
L 154.63754 299.947371 
L 158.72457 300.301703 
L 164.446304 259.194896 
L 167.247137 259.260968 
L 170.592697 282.30114 
L 174.117002 282.162531 
L 180.108648 310.44306 
L 184.513092 309.991335 
L 183.692352 274.790449 
L 186.974027 274.243671 
L 199.28669 315.585209 
L 203.843332 314.527942 
L 207.716079 311.031293 
L 212.125368 309.711238 
L 217.546263 311.254983 
L 221.957725 309.625735 
L 228.799532 313.717627 
L 233.282862 311.733335 
L 222.398405 279.018086 
L 225.79387 277.252215 
L 246.327796 304.949088 
L 250.526756 302.418003 
L 251.990084 295.789258 
L 255.898239 293.084668 
L 216.248542 233.375033 
L 218.21193 231.825094 
L 233.170126 245.224951 
L 235.497734 243.137102 
L 246.135863 249.473815 
L 248.590654 246.976194 
L 233.769086 229.026103 
L 235.587071 226.92743 
L 246.71528 232.151214 
L 248.625124 229.64394 
L 263.551639 236.110667 
L 265.577653 233.072063 
L 275.690102 234.886337 
L 277.671619 231.466678 
L 268.949975 222.497616 
L 270.545296 219.296008 
L 249.47385 206.100961 
L 250.563253 203.519831 
L 265.757074 206.119626 
L 266.839014 203.026507 
L 296.794712 208.524797 
L 297.936929 204.454597 
L 271.044632 193.921758 
L 271.740429 190.668417 
L 247.218155 183.250768 
L 247.590213 180.75186 
L 319.113576 185.434778 
L 319.518758 180.674241 
L 299.106576 175.123021 
L 299.197425 170.996646 
L 265.759342 167.709884 
L 265.633594 164.635684 
L 270.165575 161.147242 
L 269.831304 157.937746 
L 295.348284 150.792933 
L 294.676 146.796756 
L 275.22198 146.875167 
L 274.436464 143.513743 
L 300.327769 132.571894 
L 299.080113 128.428161 
L 308.95324 120.350667 
L 307.317058 115.941772 
L 249.919348 135.269655 
L 248.781439 132.709538 
L 245.431025 131.257484 
L 244.169185 128.840474 
L 240.08392 128.068254 
L 238.724447 125.820946 
L 266.354858 104.109298 
L 264.229074 101.04782 
L 239.913328 114.9948 
L 238.142881 112.759319 
L 229.107709 116.853298 
L 227.40104 114.956651 
L 223.938874 114.792736 
L 222.169972 113.059627 
L 253.163544 74.566173 
L 250.115381 71.934065 
L 219.985269 103.824332 
L 217.873451 102.220956 
L 214.360432 102.651369 
L 212.214515 101.22543 
L 212.067409 96.454879 
L 209.727795 95.104101 
L 232.153834 45.75937 
L 228.21031 43.802096 
L 226.444794 36.870866 
L 222.224618 35.097493 
L 200.190068 82.017111 
L 197.40237 81.046922 
L 208.581776 32.873429 
L 204.244744 31.663684 
L 188.698329 79.443987 
L 185.835409 78.836395 
L 183.467868 75.178881 
L 180.47343 74.737855 
L 182.89482 19.772884 
L 178.158579 19.377271 
L 172.463112 45.364099 
L 168.536673 45.283828 
L 163.801748 15.110012 
L 158.928337 15.317032 
L 158.691749 67.175168 
L 155.457907 67.517115 
L 147.52307 37.297401 
L 143.355327 38.005288 
L 149.073844 83.914767 
L 146.371087 84.550846 
L 125.769417 22.553002 
L 121.148833 23.952162 
L 133.077782 71.971892 
L 130.007423 73.116827 
L 116.027601 48.758732 
L 112.2358 50.451239 
L 129.986489 94.879847 
L 127.637935 96.110652 
L 91.154172 39.072256 
L 87.070105 41.551628 
L 89.732104 54.054491 
L 86.119814 56.571167 
L 92.773335 72.441032 
L 89.737654 74.852995 
L 90.968641 82.149507 
L 88.239108 84.613413 
L 81.106265 82.644415 
L 78.397169 85.418171 
L 101.941279 111.523464 
L 100.129903 113.627843 
L 66.424682 90.801349 
L 63.979318 94.032693 
L 60.324284 96.440169 
L 58.059232 99.860536 
L 60.685241 106.202533 
L 58.726961 109.606723 
L 42.020071 105.433178 
L 40.04683 109.424622 
L 54.236271 120.483384 
L 52.730201 124.083283 
L 40.125613 123.647758 
L 38.726015 127.689762 
L 68.74208 140.980161 
L 67.873302 144.113832 
L 25.990127 137.937983 
L 25.046834 142.417372 
L 18.748023 146.034979 
L 18.062898 150.738073 
L 68.985999 160.493012 
L 68.730627 163.609365 
L 15.308797 164.888938 
L 15.218182 169.690847 
L 37.542818 173.862926 
L 37.723372 177.961312 
L 80.809544 178.140006 
L 81.103186 180.875876 
L 39.03632 190.194079 
L 39.729622 194.237431 
L 70.845543 191.578035 
L 71.566633 194.620551 
L 73.912061 197.199406 
L 74.808383 200.142725 
L 29.346832 219.632717 
L 30.97054 223.966173 
L 39.307865 225.421148 
L 41.108649 229.438545 
L 48.002978 230.882657 
L 49.971185 234.62396 
L 94.572465 213.306949 
L 95.965028 215.592695 
L 100.064987 216.051755 
L 101.541137 218.163447 
L 81.041582 237.237185 
L 83.193254 239.93654 
L 66.293936 259.354331 
L 69.148311 262.506449 
L 105.364993 232.459196 
L 107.354409 234.396132 
L 103.07468 243.415334 
L 105.409713 245.418865 
L 98.516518 259.269614 
L 101.352298 261.408626 
L 114.570504 248.347668 
L 117.054937 249.987307 
L 94.801208 293.262216 
L 98.707627 295.501238 
L 130.601451 243.098109 
L 132.912899 244.236295 
L 129.863792 257.701356 
L 132.634763 258.855515 
L 135.982435 258.426132 
L 138.77317 259.38755 
L 127.075275 309.886374 
L 131.488437 311.102409 
L 140.485507 292.003092 
L 144.329748 292.806322 
L 150.964891 276.208175 
L 154.307324 276.689719 
L 155.454022 300.028517 
L 159.5432 300.357136 
L 165.006282 259.215157 
L 167.807475 259.263611 
L 171.297879 282.282286 
L 174.821243 282.121514 
L 180.990638 310.3638 
L 185.392154 309.884382 
L 184.350036 274.689354 
L 187.628208 274.121947 
L 200.200642 315.385228 
L 204.750545 314.299322 
L 208.601222 310.778386 
L 213.002122 309.430625 
L 218.432619 310.940245 
L 222.833747 309.283284 
L 229.701155 313.332064 
L 234.171915 311.319613 
L 223.081914 278.673468 
L 226.466205 276.886277 
L 247.173923 304.453455 
L 251.356881 301.896011 
L 252.778488 295.258194 
L 256.669556 292.529077 
L 216.645103 233.069997 
L 218.598704 231.507741 
L 233.640882 244.813253 
L 235.955312 242.710806 
L 246.633085 248.980486 
L 249.072119 246.467475 
L 234.137949 228.610958 
L 235.942698 226.500893 
L 247.103541 231.654584 
L 248.997579 229.135347 
L 263.96447 235.508067 
L 265.971333 232.456781 
L 276.094993 234.207417 
L 278.054963 230.775364 
L 269.277081 221.861333 
L 270.852234 218.649754 
L 249.698216 205.587496 
L 250.771364 202.999565 
L 265.981235 205.503749 
L 267.043699 202.403886 
L 297.033386 207.713663 
L 298.149982 203.63636 
L 271.191971 193.272866 
L 271.867293 190.015214 
L 247.298851 182.751942 
L 247.655185 180.250743 
L 319.206586 184.483728 
L 319.581818 179.720736 
L 299.135126 174.298007 
L 265.790304 170.171142 
z
" clip-path="url(#p5d69eafc73)" style="fill: #0000ff; opacity: 0.5; stroke: #000000; stroke-width: 1.5; stroke-linejoin: miter"/>
   </g>
  </g>
 </g>
 <defs>
  <clipPath id="p5d69eafc73">
   <rect x="0" y="0" width="334.8" height="331.205401"/>
  </clipPath>
 </defs>
</svg>
