<?xml version="1.0" encoding="utf-8" standalone="no"?>
<!DOCTYPE svg PUBLIC "-//W3C//DTD SVG 1.1//EN"
  "http://www.w3.org/Graphics/SVG/1.1/DTD/svg11.dtd">
<svg xmlns:xlink="http://www.w3.org/1999/xlink" width="325.633742pt" height="332.64pt" viewBox="0 0 325.633742 332.64" xmlns="http://www.w3.org/2000/svg" version="1.1">
 <metadata>
  <rdf:RDF xmlns:dc="http://purl.org/dc/elements/1.1/" xmlns:cc="http://creativecommons.org/ns#" xmlns:rdf="http://www.w3.org/1999/02/22-rdf-syntax-ns#">
   <cc:Work>
    <dc:type rdf:resource="http://purl.org/dc/dcmitype/StillImage"/>
    <dc:date>2023-12-09T18:06:26.121160</dc:date>
    <dc:format>image/svg+xml</dc:format>
    <dc:creator>
     <cc:Agent>
      <dc:title>Matplotlib v3.8.2, https://matplotlib.org/</dc:title>
     </cc:Agent>
    </dc:creator>
   </cc:Work>
  </rdf:RDF>
 </metadata>
 <defs>
  <style type="text/css">*{stroke-linejoin: round; stroke-linecap: butt}</style>
 </defs>
 <g id="figure_1">
  <g id="patch_1">
   <path d="M 0 332.64 
L 325.633742 332.64 
L 325.633742 0 
L 0 0 
L 0 332.64 
z
" style="fill: none"/>
  </g>
  <g id="axes_1">
   <g id="patch_2">
    <path d="M 282.846892 160.529706 
L 282.788577 156.821265 
L 310.832208 151.339351 
L 310.471091 146.755534 
L 252.26106 149.482545 
L 251.870521 146.741252 
L 289.482128 136.740442 
L 288.672545 132.835137 
L 278.351648 131.370401 
L 277.378723 127.817718 
L 247.870301 133.542871 
L 246.980754 130.947514 
L 265.536017 120.642004 
L 264.232104 117.497577 
L 246.752267 121.969941 
L 245.499395 119.415459 
L 260.44439 107.942297 
L 258.743687 104.96424 
L 239.222419 113.305597 
L 237.700844 110.992153 
L 264.850636 87.816792 
L 262.514965 84.710144 
L 230.844279 105.900746 
L 229.094021 103.854391 
L 237.8728 91.901992 
L 235.678916 89.641567 
L 224.022147 97.470061 
L 222.010183 95.642378 
L 260.578459 44.669353 
L 256.88825 41.718365 
L 224.179658 78.77914 
L 221.579933 76.955745 
L 241.397317 39.724073 
L 237.561102 37.378627 
L 231.710922 38.696619 
L 227.847191 36.656242 
L 206.421377 72.036956 
L 203.618443 70.775254 
L 204.335082 60.584713 
L 201.173096 59.394271 
L 201.953961 46.005988 
L 198.334765 44.897621 
L 199.879081 23.552734 
L 195.554931 22.520708 
L 183.235837 63.693389 
L 180.182026 63.164816 
L 179.014812 47.501815 
L 175.453989 47.113966 
L 173.813532 15.391701 
L 169.245669 15.183268 
L 164.753535 66.012462 
L 161.78178 66.063867 
L 159.697842 79.913449 
L 157.165663 80.116943 
L 153.204593 69.181788 
L 150.338198 69.59475 
L 138.931002 25.67486 
L 134.703711 26.558126 
L 139.8134 63.550155 
L 136.776555 64.38695 
L 124.728436 37.676945 
L 120.885539 39.000836 
L 120.971217 50.201793 
L 117.523986 51.637627 
L 122.068548 69.977173 
L 119.242556 71.368727 
L 114.89912 70.020021 
L 112.07802 71.636977 
L 117.561241 86.283784 
L 115.250193 87.808995 
L 72.981197 34.595277 
L 69.066991 37.547738 
L 83.835974 62.988051 
L 80.809132 65.585176 
L 103.92102 95.893484 
L 101.918867 97.842822 
L 102.930047 102.612128 
L 101.139632 104.589303 
L 101.907122 108.67543 
L 100.307857 110.68177 
L 39.845022 70.1502 
L 37.065125 74.126957 
L 79.502601 106.641909 
L 77.850475 109.353702 
L 46.508876 95.849129 
L 44.533713 99.603653 
L 44.873229 104.444375 
L 43.169129 108.246077 
L 41.585406 112.09948 
L 40.123625 116.000774 
L 74.159489 131.329307 
L 73.286231 134.196893 
L 18.473886 123.384552 
L 17.378359 128.006943 
L 18.016663 132.95955 
L 17.222421 137.591583 
L 69.491208 148.769028 
L 69.1686 151.774772 
L 18.137516 151.750067 
L 17.934029 156.36901 
L 38.879627 160.926015 
L 38.954397 164.888244 
L 21.419957 170.018995 
L 21.789262 174.525698 
L 22.300086 179.018561 
L 22.951922 183.493141 
L 78.462687 177.317731 
L 79.033278 180.027277 
L 14.801534 199.612867 
L 16.104608 204.313036 
L 25.229161 206.446982 
L 26.741959 210.815904 
L 26.1412 216.035189 
L 27.955022 220.370694 
L 80.984546 200.386417 
L 82.279219 203.005265 
L 76.590677 209.49971 
L 78.174065 212.252204 
L 58.748598 228.450666 
L 60.936667 231.754784 
L 57.3617 239.284169 
L 59.891084 242.626538 
L 60.042421 247.95701 
L 62.843173 251.210803 
L 88.040571 233.273634 
L 90.365802 235.654364 
L 67.984712 264.559276 
L 71.303548 267.555137 
L 64.978821 282.311039 
L 68.857298 285.392636 
L 85.579097 270.652461 
L 89.080817 273.092104 
L 96.527762 269.265578 
L 99.980462 271.361656 
L 106.58691 267.671739 
L 109.984523 269.452324 
L 98.098978 304.084122 
L 102.645673 306.113583 
L 110.783413 298.970345 
L 115.163048 300.603508 
L 136.829476 248.240595 
L 139.601178 249.079894 
L 140.226437 258.448483 
L 143.317418 259.175928 
L 138.154104 304.281527 
L 142.687202 305.05147 
L 146.266582 313.697771 
L 151.091735 314.207984 
L 159.829201 247.628893 
L 162.570299 247.745333 
L 165.53091 293.821937 
L 169.721598 293.736264 
L 171.669824 260.473077 
L 174.808916 260.210872 
L 185.507538 317.52 
L 190.433469 316.794501 
L 189.899867 288.167198 
L 193.90071 287.318108 
L 196.848941 282.436377 
L 200.666159 281.371625 
L 191.012559 239.534452 
L 193.483731 238.674421 
L 194.721806 234.738771 
L 197.040358 233.764484 
L 211.497577 258.238815 
L 214.546727 256.725443 
L 212.832341 246.646448 
L 215.516342 245.096839 
L 212.912771 235.306173 
L 215.240169 233.759642 
L 223.736002 240.603815 
L 226.224619 238.714359 
L 247.311262 259.055263 
L 250.368376 256.415426 
L 250.559882 250.751493 
L 253.354301 248.013618 
L 245.406293 235.293965 
L 247.717242 232.725773 
L 233.062534 216.277182 
L 234.781656 214.106507 
L 258.087406 227.430135 
L 260.144829 224.467109 
L 282.644532 234.309411 
L 284.906112 230.570854 
L 260.773245 212.515169 
L 262.36038 209.475068 
L 246.260212 198.234237 
L 247.405499 195.657519 
L 274.819174 203.298971 
L 276.109587 199.821793 
L 284.987832 198.756175 
L 286.130383 194.961518 
L 292.638673 192.506029 
L 293.580922 188.473903 
L 280.890441 181.923129 
L 281.505749 178.265626 
L 265.162084 172.568129 
L 265.491027 169.409785 
L 299.595469 168.162212 
L 299.768855 163.923385 
L 282.844559 159.787901 
L 282.762921 156.0799 
L 310.77152 150.421715 
L 310.38158 145.84026 
L 252.189852 148.933326 
L 251.782079 146.194543 
L 289.330043 135.957375 
L 288.495914 132.057239 
L 278.166008 130.657445 
L 277.170758 127.110951 
L 247.698928 133.021582 
L 246.793075 130.431871 
L 265.283156 120.009863 
L 263.959492 116.873699 
L 246.508129 121.455913 
L 245.239215 118.909361 
L 260.111755 107.342431 
L 258.392356 104.375129 
L 238.923936 112.839098 
L 237.387841 110.535271 
L 264.391336 87.189611 
L 262.036173 84.097715 
L 230.49939 105.487088 
L 228.736296 103.451781 
L 237.439728 91.444406 
L 235.23167 89.197823 
L 223.624368 97.099477 
L 221.600949 95.284484 
L 259.847871 44.069895 
L 256.139175 41.142175 
L 223.664321 78.407935 
L 221.053179 76.600927 
L 240.636005 39.245351 
L 236.785114 36.924079 
L 230.94334 38.278839 
L 227.066852 36.262804 
L 205.863987 71.777574 
L 203.053172 70.533526 
L 203.705705 60.338679 
L 200.536294 59.168147 
L 201.232938 45.775218 
L 197.606843 44.689636 
L 199.016882 23.335458 
L 194.686326 22.330649 
L 182.626428 63.579996 
L 179.569354 63.07064 
L 178.303651 47.41529 
L 174.74046 47.049844 
L 172.90052 15.338525 
L 168.331437 15.158825 
L 164.159078 66.015267 
L 161.187705 66.085361 
L 159.190914 79.947775 
L 156.660066 80.167191 
L 152.630297 69.257165 
L 149.766556 69.688147 
L 138.083355 25.840871 
L 133.861703 26.750707 
L 139.203949 63.709867 
L 136.172428 64.565746 
L 123.956556 37.932045 
L 120.122062 39.280079 
L 120.278186 50.480275 
L 116.840054 51.937762 
L 121.499871 70.248364 
L 118.682687 71.657664 
L 114.330855 70.336302 
L 111.51998 71.970969 
L 117.095213 86.583 
L 114.793803 88.122716 
L 72.190959 35.175898 
L 68.295399 38.15292 
L 83.224096 63.499841 
L 80.213648 66.115952 
L 103.515701 96.278299 
L 101.525848 98.240191 
L 102.567004 103.003043 
L 100.78906 104.99144 
L 101.582234 109.072658 
L 99.995619 111.089017 
L 39.27906 70.938526 
L 36.524229 74.932688 
L 79.165367 107.18009 
L 77.530329 109.90222 
L 46.104413 96.595035 
L 44.152904 100.361907 
L 44.522858 105.200398 
L 42.842703 109.012743 
L 41.283246 112.876031 
L 39.846031 116.786441 
L 73.97763 131.900605 
L 73.122424 134.773626 
L 18.24316 124.306237 
L 17.176727 128.935427 
L 17.846168 133.883922 
L 17.081074 138.520859 
L 69.419127 149.369341 
L 69.11543 152.377055 
L 18.0852 152.673307 
L 17.910768 157.293438 
L 38.884612 161.718618 
L 38.984301 165.680297 
L 21.482477 170.921229 
L 21.88012 175.42552 
L 22.419191 179.915081 
L 23.099157 184.385473 
L 78.569984 177.861055 
L 79.157605 180.566958 
L 15.050313 200.556142 
L 16.382923 205.248022 
L 25.520718 207.324537 
L 27.060964 211.683858 
L 26.493043 216.906819 
L 28.334096 221.23083 
L 81.236881 200.913423 
L 82.548 203.524076 
L 76.900417 210.05417 
L 78.501085 212.796651 
L 59.177882 229.116968 
L 61.386688 232.407259 
L 57.859148 239.95898 
L 60.409503 243.285374 
L 60.594363 248.614789 
L 63.415524 251.850903 
L 88.49961 233.755611 
L 90.839768 236.121669 
L 68.640916 265.166774 
L 71.978529 268.141702 
L 65.746733 282.937092 
L 69.644514 285.994234 
L 86.273276 271.14918 
L 89.79027 273.566751 
L 97.213002 269.693463 
L 100.678817 271.767785 
L 107.261926 268.03639 
L 110.670671 269.79557 
L 99.003176 304.501437 
L 103.562544 306.502262 
L 111.655197 299.307983 
L 116.045017 300.913568 
L 137.381683 248.415421 
L 140.158609 249.237272 
L 140.842778 258.601743 
L 143.938274 259.309733 
L 139.058751 304.446914 
L 143.596601 305.188331 
L 147.230291 313.811949 
L 152.058558 314.291804 
L 160.377106 247.659076 
L 163.118882 247.758274 
L 166.36923 293.815346 
L 170.559297 293.703318 
L 172.298277 260.428535 
L 175.435658 260.146592 
L 186.49451 317.387299 
L 191.415781 316.630833 
L 190.70214 288.007452 
L 194.697563 287.133215 
L 197.615033 282.233038 
L 201.425479 281.1443 
L 191.508937 239.368669 
L 193.974652 238.493114 
L 195.187949 234.549754 
L 197.500328 233.560905 
L 212.11119 257.943824 
L 215.150762 256.411304 
L 213.373019 246.343291 
L 216.047221 244.776832 
L 213.382123 235.002734 
L 215.699748 233.441596 
L 224.238459 240.2322 
L 226.715143 238.327129 
L 247.929302 258.535007 
L 250.969753 255.875995 
L 251.125631 250.21097 
L 253.902775 247.455574 
L 245.874926 234.786161 
L 248.169676 232.203485 
L 233.411806 215.847389 
L 235.117242 213.665945 
L 258.506329 226.842729 
L 260.545075 223.866822 
L 283.106236 233.567419 
L 285.344258 229.814712 
L 261.098308 211.911166 
L 262.666291 208.861143 
L 246.495743 197.721795 
L 247.624801 195.137925 
L 275.085994 202.606809 
L 276.354512 199.121584 
L 285.22588 198.000148 
L 286.344541 194.19838 
L 292.837259 191.702006 
L 293.75413 187.664034 
L 281.022699 181.193205 
L 281.614992 177.531904 
L 265.235816 171.937313 
L 265.544889 168.776962 
L 299.640809 167.314916 
L 299.787532 163.075083 
L 282.837561 159.046124 
L 282.732603 155.33871 
L 310.705061 149.504479 
L 310.286315 144.925568 
L 252.115191 148.384565 
L 251.690201 145.648401 
L 289.173035 135.17528 
L 288.314394 131.280467 
L 277.975889 129.94567 
L 276.958353 126.405506 
L 247.52428 132.501382 
L 246.602157 129.917419 
L 265.026324 119.379325 
L 263.682961 116.251548 
L 246.260763 120.94343 
L 244.975858 118.40491 
L 259.775354 106.744668 
L 258.037327 103.78824 
L 238.622525 112.374486 
L 237.07197 110.080366 
L 263.928101 86.565331 
L 261.553537 83.488309 
L 230.151905 105.075607 
L 228.376046 103.05143 
L 237.003786 90.989552 
L 234.781642 88.756901 
L 223.224267 96.731402 
L 221.189472 94.929171 
L 259.113526 43.475044 
L 255.386491 40.570707 
L 223.146659 78.039979 
L 220.524204 76.249429 
L 239.871697 38.771427 
L 236.006283 36.47442 
L 230.173145 37.865896 
L 226.284054 35.874281 
L 205.304976 71.521703 
L 202.486393 70.295357 
L 203.074793 60.096608 
L 199.898082 58.946033 
L 200.510479 45.548988 
L 196.877628 44.486233 
L 198.153333 23.12361 
L 193.816544 22.146057 
L 182.016319 63.470438 
L 178.956101 62.98032 
L 177.591961 47.333239 
L 174.026541 46.990211 
L 171.987192 15.291091 
L 167.417068 15.140132 
L 163.564651 66.021809 
L 160.593777 66.110591 
L 158.684213 79.98529 
L 156.154794 80.220619 
L 152.056488 69.336154 
L 149.195514 69.785138 
L 137.236769 26.01221 
L 133.020923 26.94858 
L 138.595516 63.87341 
L 135.569437 64.748337 
L 123.186296 38.191994 
L 119.360356 39.564119 
L 119.58692 50.763111 
L 116.158022 52.242193 
L 120.932911 70.523125 
L 118.124647 71.950116 
L 113.76459 70.656151 
L 110.964052 72.308464 
L 116.631076 86.885141 
L 114.339396 88.439301 
L 71.404388 35.761478 
L 67.527629 38.762942 
L 82.615449 64.015468 
L 79.621514 66.650462 
L 103.112811 96.665656 
L 101.135335 98.640024 
L 102.206427 103.396234 
L 100.441024 105.395773 
L 101.259851 109.471922 
L 99.685949 111.49822 
L 38.718067 71.730396 
L 35.988411 75.741805 
L 78.831524 107.720381 
L 77.213638 110.45274 
L 45.70465 97.34347 
L 43.776871 101.122541 
L 44.177249 105.95861 
L 42.521104 109.781447 
L 40.985976 113.654466 
L 39.573384 117.573839 
L 73.799368 132.473035 
L 72.962248 135.351378 
L 18.018236 125.229356 
L 16.980939 129.865161 
L 17.681489 134.809348 
L 16.945575 139.451005 
L 69.350823 149.970096 
L 69.066049 152.97966 
L 18.038691 153.596858 
L 17.893321 158.217995 
L 38.894582 162.511173 
L 39.019186 166.472147 
L 21.55067 171.823052 
L 21.976635 176.324753 
L 22.543932 180.810835 
L 23.252001 185.276862 
L 78.680696 178.403692 
L 79.285323 181.105846 
L 15.305021 201.497834 
L 16.667114 206.181239 
L 25.817787 208.200242 
L 27.385421 212.54979 
L 26.85036 217.776218 
L 28.718573 222.088565 
L 81.492527 201.438832 
L 82.82004 204.041186 
L 77.213638 210.606672 
L 78.831524 213.339031 
L 59.611348 229.780557 
L 61.840805 233.056891 
L 58.36083 240.630648 
L 60.932056 243.940937 
L 61.150432 249.269084 
L 63.99189 252.48739 
L 88.96167 234.234691 
L 91.316664 236.585985 
L 69.300928 265.770133 
L 72.657185 268.724011 
L 66.518567 283.558302 
L 70.435499 286.590869 
L 86.970565 271.641523 
L 90.502695 274.036926 
L 97.900918 270.117031 
L 101.379711 272.169513 
L 107.939222 268.396788 
L 111.358964 270.134495 
L 99.90998 304.913057 
L 104.481842 306.885166 
L 112.529087 299.640131 
L 116.928918 301.218075 
L 137.934978 248.586771 
L 140.717019 249.39114 
L 141.460072 258.751123 
L 144.559959 259.43963 
L 139.96442 304.606608 
L 144.506843 305.319469 
L 148.194699 313.920063 
L 153.025888 314.369542 
L 160.92519 247.685813 
L 163.667535 247.767765 
L 167.207492 293.803483 
L 171.396772 293.665103 
L 172.926438 260.380042 
L 176.061984 260.078372 
L 187.480628 317.248393 
L 192.397044 316.46099 
L 191.503392 287.842663 
L 195.493238 286.943315 
L 198.379831 282.024886 
L 202.183354 280.912203 
L 192.004263 239.199769 
L 194.464422 238.308722 
L 195.652894 234.35781 
L 197.959008 233.354436 
L 212.722936 257.644979 
L 215.752809 256.093373 
L 213.911779 246.036739 
L 216.576076 244.453492 
L 213.849557 234.69635 
L 216.157318 233.120666 
L 224.738569 239.857432 
L 227.203222 237.936822 
L 248.544058 258.010875 
L 251.567725 255.332793 
L 251.68797 249.6669 
L 254.44773 246.894091 
L 246.340355 234.275419 
L 248.618817 231.678362 
L 233.758368 215.415408 
L 235.45005 213.22328 
L 258.921549 226.2527 
L 260.941538 223.264029 
L 283.563263 232.822538 
L 285.777639 229.055829 
L 261.419565 211.30513 
L 262.968335 208.245306 
L 246.728046 197.207882 
L 247.840831 194.616962 
L 275.348456 201.912983 
L 276.595029 198.419848 
L 285.459168 197.242639 
L 286.553896 193.43391 
L 293.030785 190.89675 
L 293.922241 186.853091 
L 281.150364 180.462464 
L 281.719617 176.79751 
L 265.305579 171.306045 
L 265.594769 168.143813 
L 299.680819 166.467352 
L 299.800873 162.22668 
L 282.825897 158.304407 
L 282.697624 154.597726 
L 310.632835 148.58768 
L 310.185298 144.011492 
L 252.03708 147.836284 
L 251.594889 145.102847 
L 289.011113 134.394188 
L 288.127992 130.504853 
L 277.781296 129.235106 
L 276.741515 125.701411 
L 247.346364 131.98229 
L 246.408008 129.404178 
L 264.765531 118.750415 
L 263.402523 115.631148 
L 246.010179 120.432514 
L 244.709333 117.902125 
L 259.4352 106.149033 
L 257.678613 103.203594 
L 238.318198 111.911779 
L 236.753245 109.627456 
L 263.460948 85.943977 
L 261.067079 82.88195 
L 229.80184 104.66632 
L 228.013284 102.653352 
L 236.564991 90.537449 
L 234.328849 88.318818 
L 222.821858 96.365851 
L 220.775769 94.576453 
L 258.375456 42.884823 
L 254.630227 40.003984 
L 222.626693 77.675286 
L 219.993028 75.901265 
L 239.104424 38.302319 
L 235.224639 36.029669 
L 229.400368 37.457804 
L 225.498828 35.490689 
L 204.744367 71.269352 
L 201.918127 70.060759 
L 202.44237 59.85851 
L 199.258486 58.727938 
L 199.786611 45.327306 
L 196.147148 44.287421 
L 197.288469 22.917196 
L 192.945617 21.966939 
L 181.405533 63.364719 
L 178.342293 62.893858 
L 176.879768 47.255666 
L 173.312262 46.93507 
L 171.073583 15.249403 
L 166.502601 15.12719 
L 162.970276 66.032091 
L 160.000019 66.139555 
L 158.177757 80.02599 
L 155.649868 80.277223 
L 151.483186 69.418749 
L 148.625093 69.885719 
L 136.391278 26.18887 
L 132.181404 27.151736 
L 137.988123 64.040775 
L 134.967606 64.934718 
L 122.417687 38.456783 
L 118.600452 39.852944 
L 118.897446 51.05029 
L 115.477919 52.550908 
L 120.36769 70.801447 
L 117.568456 72.246072 
L 113.200347 70.979555 
L 110.410257 72.649449 
L 116.168848 87.190195 
L 113.886988 88.758738 
L 70.621516 36.351994 
L 66.763711 39.377781 
L 82.010056 64.534914 
L 79.032754 67.188686 
L 102.712364 97.055539 
L 100.747345 99.042305 
L 101.84833 103.791685 
L 100.095538 105.802288 
L 100.939985 109.873206 
L 99.378858 111.909363 
L 38.162065 72.525779 
L 35.457693 76.554277 
L 78.501085 108.262761 
L 76.900417 111.005242 
L 45.309602 98.094404 
L 43.405629 101.885526 
L 43.836416 106.71898 
L 42.204347 110.552158 
L 40.693609 114.434756 
L 39.305695 118.362935 
L 73.624709 133.046575 
L 72.805709 135.930126 
L 17.799122 126.153871 
L 16.791002 130.796108 
L 17.522635 135.735791 
L 16.815928 140.381985 
L 69.286299 150.571269 
L 69.020459 153.582564 
L 17.997992 154.520683 
L 17.881689 159.142643 
L 38.909537 163.30365 
L 39.05905 167.263762 
L 21.624534 172.724429 
L 22.078803 177.223361 
L 22.674304 181.705787 
L 23.410448 186.167272 
L 78.794819 178.945623 
L 79.416429 181.643921 
L 15.565646 202.437904 
L 16.957168 207.112651 
L 26.120359 209.074061 
L 27.715317 213.413663 
L 27.213139 218.643354 
L 29.108437 222.943865 
L 81.751472 201.962622 
L 83.095326 204.556576 
L 77.530329 211.157192 
L 79.165367 213.879322 
L 60.048979 230.441407 
L 62.298998 233.703654 
L 58.866727 241.299149 
L 61.458722 244.5932 
L 61.710604 249.919868 
L 64.572248 253.12024 
L 89.426735 234.710856 
L 91.79647 237.047291 
L 69.964721 266.369329 
L 73.339491 269.30204 
L 67.294293 284.174646 
L 71.230221 287.182517 
L 87.670936 272.129471 
L 91.218063 274.502611 
L 98.591486 270.536263 
L 102.083119 272.566825 
L 108.618772 268.752919 
L 112.049375 270.469083 
L 100.819354 305.318965 
L 105.40353 307.262281 
L 113.405048 299.966777 
L 117.814717 301.517017 
L 138.489341 248.754638 
L 141.276385 249.541493 
L 142.078292 258.896617 
L 145.182448 259.565614 
L 140.871075 304.760603 
L 145.417892 305.44488 
L 149.159768 314.02211 
L 153.993689 314.441194 
L 161.473431 247.709102 
L 164.216238 247.773804 
L 168.045663 293.786347 
L 172.233989 293.621623 
L 173.554281 260.327599 
L 176.687867 260.006214 
L 188.465854 317.103287 
L 193.377219 316.284978 
L 192.303592 287.672839 
L 196.287703 286.748414 
L 199.143305 281.811927 
L 202.939754 280.675345 
L 192.498517 239.027756 
L 194.953024 238.121254 
L 196.116623 234.162945 
L 198.41638 233.145087 
L 213.33279 257.342293 
L 216.352845 255.771661 
L 214.4486 245.726805 
L 217.102887 244.126833 
L 214.315055 234.387032 
L 216.61286 232.796864 
L 225.236312 239.479525 
L 227.688837 237.543452 
L 249.155505 257.482887 
L 252.162268 254.785841 
L 252.246876 249.119303 
L 254.989141 246.329192 
L 246.802563 233.761761 
L 249.064646 231.150424 
L 234.102206 214.981256 
L 235.780067 212.778532 
L 259.33305 225.660072 
L 261.334202 222.658755 
L 284.015597 232.074797 
L 286.206239 228.294235 
L 261.737005 210.697086 
L 263.2665 207.627582 
L 246.957113 196.692518 
L 248.05358 194.094651 
L 275.606549 201.21752 
L 276.831127 197.716614 
L 285.687687 196.483677 
L 286.758439 192.668139 
L 293.219242 190.090293 
L 294.085249 186.041107 
L 281.273431 179.730934 
L 281.819622 176.062473 
L 265.37137 170.674351 
L 265.640665 167.510363 
L 299.715498 165.619553 
L 299.808878 161.37821 
L 282.809569 157.562777 
L 282.657986 153.856977 
L 310.554844 147.671352 
L 310.078534 143.09807 
L 251.955522 147.288506 
L 251.496148 144.557904 
L 288.84428 133.61413 
L 287.936715 129.730426 
L 277.582238 128.525779 
L 276.520252 124.998694 
L 247.165186 131.464327 
L 246.210634 128.892168 
L 264.500787 118.123157 
L 263.118188 115.012525 
L 245.756386 119.923183 
L 244.439651 117.401026 
L 259.091307 105.555549 
L 257.316229 102.621217 
L 238.010967 111.450996 
L 236.431678 109.17656 
L 262.989897 85.325573 
L 260.576817 82.278663 
L 229.449207 104.259242 
L 227.648027 102.257563 
L 236.123362 90.088114 
L 233.873311 87.883592 
L 222.417158 96.002838 
L 220.359855 94.226344 
L 257.633687 42.299256 
L 253.870414 39.442029 
L 222.104444 77.31387 
L 219.459674 75.556448 
L 238.334215 37.838046 
L 234.440214 35.589843 
L 228.62504 37.054581 
L 224.711205 35.112043 
L 204.182182 71.020533 
L 201.348396 69.829738 
L 201.808463 59.624395 
L 198.617531 58.51387 
L 199.061364 45.110181 
L 195.415432 44.093207 
L 196.422323 22.716226 
L 192.073581 21.793302 
L 180.794094 63.262844 
L 177.727953 62.811258 
L 176.167101 47.182574 
L 172.59765 46.884422 
L 170.15973 15.213461 
L 165.588069 15.12 
L 162.375978 66.04611 
L 159.406456 66.172254 
L 157.671567 80.069875 
L 155.145309 80.337002 
L 150.910415 69.504949 
L 148.055315 69.989885 
L 135.546914 26.370845 
L 131.343179 27.360169 
L 137.381794 64.211958 
L 134.36696 65.12488 
L 121.650757 38.7264 
L 117.842379 40.146542 
L 118.209793 51.341798 
L 114.799772 52.863894 
L 119.804231 71.083318 
L 117.014139 72.54552 
L 112.63815 71.306501 
L 109.858618 72.99391 
L 115.708548 87.498151 
L 113.436598 89.081014 
L 69.842373 36.947422 
L 66.003675 39.997412 
L 81.407943 65.058157 
L 78.44739 67.730602 
L 102.314377 97.447933 
L 100.361893 99.447019 
L 101.492727 104.18938 
L 99.752615 106.210967 
L 100.622649 110.276494 
L 99.07436 112.322429 
L 37.611077 73.324643 
L 34.932095 77.37007 
L 78.174065 108.807208 
L 76.590677 111.559703 
L 44.919285 98.847808 
L 43.039193 102.65083 
L 43.500371 107.481479 
L 41.892443 111.324846 
L 40.406154 115.216869 
L 39.042974 119.1537 
L 73.453661 133.621202 
L 72.652813 136.509847 
L 17.585827 127.079745 
L 16.606924 131.728232 
L 17.36961 136.663215 
L 16.69214 141.313762 
L 69.225557 151.172835 
L 68.978662 154.185743 
L 17.963105 155.444746 
L 17.875873 160.067346 
L 38.929475 164.096017 
L 39.103892 168.055111 
L 21.704066 173.625322 
L 22.186622 178.121309 
L 22.810303 182.5999 
L 23.574492 187.056667 
L 78.912347 179.486825 
L 79.550916 182.18116 
L 15.832179 203.376318 
L 17.253074 208.042219 
L 26.42842 209.94596 
L 28.050641 214.275444 
L 27.581364 219.50819 
L 29.503672 223.796696 
L 82.013706 202.484773 
L 83.373848 205.070224 
L 77.850475 211.70571 
L 79.502601 214.417503 
L 60.490758 231.099491 
L 62.76125 234.347522 
L 59.376818 241.964454 
L 61.98948 245.242138 
L 62.274859 250.567117 
L 65.156574 253.749427 
L 89.894785 235.184087 
L 92.279168 237.505571 
L 70.63227 266.964338 
L 74.025418 269.875765 
L 68.07388 284.786098 
L 72.028648 287.769156 
L 88.374363 272.613004 
L 91.936345 274.963788 
L 99.284676 270.951144 
L 102.789011 272.959705 
L 109.300548 269.104769 
L 112.741876 270.799323 
L 101.731264 305.719146 
L 106.327572 307.633591 
L 114.283047 300.287907 
L 118.702379 301.810382 
L 139.044748 248.919014 
L 141.836686 249.688325 
L 142.697416 259.038221 
L 145.805718 259.687681 
L 141.778681 304.908892 
L 146.329712 305.564559 
L 150.125459 314.118084 
L 154.96192 314.506758 
L 162.021808 247.728942 
L 164.764967 247.776393 
L 168.883709 293.763941 
L 173.070917 293.572877 
L 174.181782 260.271208 
L 177.313285 259.930121 
L 189.450147 316.951988 
L 194.356269 316.102806 
L 193.102709 287.497984 
L 197.080926 286.54852 
L 199.905424 281.594171 
L 203.69465 280.433733 
L 192.99168 238.852638 
L 195.440436 237.930716 
L 196.579117 233.965167 
L 198.872427 232.932865 
L 213.940729 257.035777 
L 216.950845 255.446181 
L 214.983462 245.413501 
L 217.627633 243.796866 
L 214.778599 234.074792 
L 217.066357 232.470204 
L 225.731668 239.098496 
L 228.171968 237.147036 
L 249.763619 256.951064 
L 252.75336 254.23516 
L 252.802327 248.568202 
L 255.52699 245.760899 
L 247.261532 233.245205 
L 249.507145 230.619693 
L 234.443306 214.544949 
L 236.107281 212.331717 
L 259.740815 225.064867 
L 261.723051 222.051023 
L 284.46322 231.324226 
L 286.63004 227.529961 
L 262.050614 210.087057 
L 263.560773 207.007994 
L 247.182933 196.175724 
L 248.26304 193.571011 
L 275.860263 200.520447 
L 277.062798 197.011909 
L 285.911428 195.723294 
L 286.958161 191.901096 
L 293.402624 189.282667 
L 294.243146 185.228114 
L 281.391894 178.998645 
L 281.915002 175.326821 
L 265.433187 170.042256 
L 265.682577 166.876637 
L 299.744843 164.771553 
L 282.846892 160.529706 
z
" clip-path="url(#p1e47daa627)" style="fill: #0000ff; opacity: 0.5; stroke: #000000; stroke-width: 1.5; stroke-linejoin: miter"/>
   </g>
  </g>
 </g>
 <defs>
  <clipPath id="p1e47daa627">
   <rect x="0" y="-0" width="325.633742" height="332.64"/>
  </clipPath>
 </defs>
</svg>
