<?xml version="1.0" encoding="utf-8" standalone="no"?>
<!DOCTYPE svg PUBLIC "-//W3C//DTD SVG 1.1//EN"
  "http://www.w3.org/Graphics/SVG/1.1/DTD/svg11.dtd">
<svg xmlns:xlink="http://www.w3.org/1999/xlink" width="319.501849pt" height="332.64pt" viewBox="0 0 319.501849 332.64" xmlns="http://www.w3.org/2000/svg" version="1.1">
 <metadata>
  <rdf:RDF xmlns:dc="http://purl.org/dc/elements/1.1/" xmlns:cc="http://creativecommons.org/ns#" xmlns:rdf="http://www.w3.org/1999/02/22-rdf-syntax-ns#">
   <cc:Work>
    <dc:type rdf:resource="http://purl.org/dc/dcmitype/StillImage"/>
    <dc:date>2023-12-09T18:06:26.251881</dc:date>
    <dc:format>image/svg+xml</dc:format>
    <dc:creator>
     <cc:Agent>
      <dc:title>Matplotlib v3.8.2, https://matplotlib.org/</dc:title>
     </cc:Agent>
    </dc:creator>
   </cc:Work>
  </rdf:RDF>
 </metadata>
 <defs>
  <style type="text/css">*{stroke-linejoin: round; stroke-linecap: butt}</style>
 </defs>
 <g id="figure_1">
  <g id="patch_1">
   <path d="M 0 332.64 
L 319.501849 332.64 
L 319.501849 0 
L 0 0 
L 0 332.64 
z
" style="fill: none"/>
  </g>
  <g id="axes_1">
   <g id="patch_2">
    <path d="M 276.47535 163.43158 
L 276.414782 159.57986 
L 250.089608 157.37841 
L 249.851761 154.359308 
L 234.996201 153.185702 
L 234.633989 150.643243 
L 250.8411 144.934191 
L 250.211608 141.897613 
L 245.009766 140.033075 
L 244.229055 137.18227 
L 255.814437 130.306106 
L 254.722547 127.120388 
L 270.004547 117.441057 
L 268.501135 113.815532 
L 282.915015 102.687047 
L 280.941322 98.662883 
L 271.417469 98.789344 
L 269.326908 95.128616 
L 261.269766 95.254195 
L 259.07307 91.91428 
L 278.578241 72.781284 
L 275.666389 68.908264 
L 269.074385 68.0778 
L 266.019345 64.505928 
L 233.107991 89.007055 
L 230.728794 86.555697 
L 259.363771 51.018499 
L 255.77715 47.760384 
L 235.900692 64.221115 
L 232.740791 61.694203 
L 218.196218 74.86126 
L 215.379619 72.885755 
L 211.677953 72.301643 
L 208.784097 70.532352 
L 221.765192 39.80638 
L 217.844627 37.735991 
L 213.860903 35.789896 
L 209.817959 33.970021 
L 193.278108 63.812319 
L 190.126427 62.625756 
L 201.168623 17.556414 
L 196.558653 16.144627 
L 191.334721 17.117979 
L 186.715829 16.015608 
L 174.61188 54.423162 
L 171.174213 53.828149 
L 168.387737 47.989917 
L 164.750872 47.593786 
L 159.120266 79.610307 
L 156.482197 79.489931 
L 153.807727 57.879969 
L 150.489035 57.937375 
L 144.940244 23.500839 
L 140.544981 23.854056 
L 143.698292 83.189493 
L 141.180385 83.552248 
L 127.310482 24.983212 
L 122.970545 25.890015 
L 121.941655 39.613038 
L 118.064367 40.681415 
L 126.195812 78.485754 
L 123.538663 79.401151 
L 102.955479 35.30471 
L 98.952114 36.972184 
L 114.110929 79.159561 
L 111.480942 80.4546 
L 84.303489 37.322661 
L 80.372796 39.575596 
L 71.544264 34.155463 
L 67.520295 36.811143 
L 90.381417 76.30828 
L 87.673512 78.350836 
L 85.031168 80.477526 
L 82.456997 82.686244 
L 65.678233 69.84386 
L 62.779286 72.666335 
L 88.11518 101.881862 
L 86.212485 103.98303 
L 87.351021 108.591214 
L 85.65966 110.713092 
L 88.406967 116.04613 
L 86.949483 118.13112 
L 41.251148 92.302756 
L 39.070435 95.882167 
L 76.218837 120.952572 
L 74.921648 123.418357 
L 31.124067 106.028232 
L 29.37992 109.919275 
L 49.98998 122.594022 
L 48.75737 125.883689 
L 78.432151 139.122803 
L 77.70518 141.510013 
L 67.345269 141.456136 
L 66.697144 144.190789 
L 44.175731 142.82269 
L 43.58203 146.285168 
L 23.216239 147.31397 
L 22.774117 151.43324 
L 73.98981 158.646847 
L 73.878914 161.164081 
L 14.522811 163.870118 
L 14.605548 168.254542 
L 27.895211 171.769863 
L 28.219722 175.729924 
L 43.18564 177.795637 
L 43.692054 181.271954 
L 45.820158 184.43685 
L 46.534084 187.827049 
L 69.721967 185.369023 
L 70.453385 188.007236 
L 44.186567 199.523925 
L 45.375672 202.958027 
L 52.394912 204.063899 
L 53.722704 207.237669 
L 74.636066 201.113028 
L 75.86008 203.588946 
L 42.797914 225.080175 
L 44.791249 228.545304 
L 33.264041 240.666068 
L 35.752145 244.423257 
L 52.653822 237.630562 
L 55.036896 240.779595 
L 55.742542 245.332275 
L 58.366248 248.380383 
L 46.535585 265.113982 
L 49.785823 268.441796 
L 51.038366 273.92065 
L 54.563279 277.102534 
L 60.630045 277.193941 
L 64.253134 280.072622 
L 91.380939 250.327963 
L 94.144099 252.253052 
L 90.814559 263.873626 
L 94.003904 265.809826 
L 98.725828 264.937953 
L 101.944727 266.624879 
L 116.592086 243.76152 
L 119.136317 244.897162 
L 121.714998 245.952247 
L 124.325579 246.92573 
L 119.215292 272.031496 
L 122.647097 273.070681 
L 127.99257 266.530513 
L 131.247072 267.296441 
L 139.03411 243.721266 
L 141.56598 244.151302 
L 141.969911 262.092164 
L 145.07795 262.420809 
L 145.462126 309.569546 
L 150.061232 309.764914 
L 154.70055 317.52 
L 159.545068 317.42096 
L 164.175869 314.094886 
L 168.90801 313.699615 
L 167.609559 267.321821 
L 170.869354 266.841713 
L 177.962496 285.917598 
L 181.801864 285.102777 
L 188.152728 293.856337 
L 192.236669 292.717187 
L 191.930982 278.282564 
L 195.523382 277.032318 
L 184.424051 239.210209 
L 186.791641 238.215316 
L 213.667614 288.607812 
L 217.573914 286.669014 
L 223.665445 288.647578 
L 227.568052 286.394406 
L 228.067813 278.833058 
L 231.659654 276.446319 
L 244.754566 286.986258 
L 248.594511 284.07082 
L 233.062897 257.987967 
L 235.996853 255.454478 
L 250.520151 265.122273 
L 253.669794 262.036362 
L 215.509079 220.579541 
L 217.275512 218.616478 
L 242.834633 236.109768 
L 245.075859 233.279851 
L 255.989054 236.671401 
L 258.241435 233.427603 
L 255.820655 227.250901 
L 257.776918 224.017056 
L 223.7343 201.258805 
L 224.88918 199.046676 
L 272.11001 218.180604 
L 273.773029 214.43907 
L 262.393383 205.618226 
L 263.666218 202.188415 
L 286.120979 205.497579 
L 287.378288 201.32178 
L 242.912963 185.695775 
L 243.569024 182.888321 
L 275.95865 185.931056 
L 276.60577 182.084458 
L 267.952152 177.117215 
L 268.326104 173.526716 
L 304.740162 171.974884 
L 304.934239 167.230232 
L 276.472927 162.661114 
L 276.388135 158.809851 
L 250.049636 156.774015 
L 249.792805 153.756469 
L 234.930158 152.676319 
L 234.551962 150.136189 
L 250.722846 144.325316 
L 250.074268 141.292757 
L 244.860802 139.460973 
L 244.062177 136.615135 
L 255.604083 129.66624 
L 254.492177 126.487453 
L 269.712997 116.712199 
L 268.186813 113.096201 
L 282.530416 101.877281 
L 280.531452 97.86561 
L 271.008583 98.051968 
L 268.895039 94.40446 
L 260.838847 94.580712 
L 258.621188 91.254679 
L 278.005637 71.999385 
L 275.069484 68.144756 
L 268.472388 67.355768 
L 265.394942 63.803181 
L 232.638337 88.510817 
L 230.243771 86.074471 
L 258.654672 50.357878 
L 255.04763 47.122386 
L 235.275094 63.707802 
L 232.099362 61.200814 
L 217.63789 74.459089 
L 214.808923 72.501338 
L 211.103656 71.940518 
L 208.19873 70.189463 
L 220.986319 39.382455 
L 217.05281 37.336765 
L 213.056925 35.415764 
L 209.002614 33.621352 
L 192.650782 63.567087 
L 189.4917 62.40037 
L 200.250217 17.26247 
L 195.63146 15.879705 
L 190.413753 16.885894 
L 185.788018 15.812595 
L 173.925871 54.295515 
L 170.484529 53.722135 
L 167.661389 47.901544 
L 164.022104 47.528295 
L 158.592976 79.579595 
L 155.954202 79.475814 
L 153.143871 57.8831 
L 149.825605 57.961378 
L 144.060338 23.560422 
L 139.667383 23.941276 
L 143.193818 83.255706 
L 140.678243 83.63429 
L 126.440248 25.153647 
L 122.1061 26.087727 
L 121.16354 39.816951 
L 117.293048 40.909692 
L 125.6621 78.662141 
L 123.010761 79.594232 
L 102.150643 35.62812 
L 98.157845 37.32074 
L 113.581694 79.411942 
L 110.959904 80.723496 
L 83.511714 37.763341 
L 79.595267 40.040954 
L 70.73282 34.676454 
L 66.725634 37.35739 
L 89.834719 76.709962 
L 87.139714 78.76951 
L 84.510797 80.912776 
L 81.95057 83.137641 
L 65.091366 70.401039 
L 62.210228 73.241691 
L 87.72937 102.297292 
L 85.839927 104.410385 
L 87.007424 109.011318 
L 85.329442 111.143791 
L 88.110236 116.459445 
L 86.665894 118.553561 
L 40.806017 93.013123 
L 38.64786 96.60618 
L 75.953206 121.442446 
L 74.671552 123.916341 
L 30.765462 106.802022 
L 29.045822 110.703958 
L 49.735191 123.248829 
L 48.523296 126.546183 
L 78.280757 139.598397 
L 77.568814 141.990133 
L 67.208769 142.001414 
L 66.577857 144.740089 
L 44.048285 143.513664 
L 43.476372 146.979808 
L 23.117455 148.136679 
L 22.701249 152.258649 
L 73.961299 159.149995 
L 73.866237 161.667877 
L 14.528328 164.747176 
L 14.638639 169.130994 
L 27.950148 172.562661 
L 28.299559 176.520602 
L 43.278173 178.492147 
L 43.806441 181.965211 
L 45.954408 185.116659 
L 46.689643 188.5023 
L 69.861607 185.898485 
L 70.609603 188.532045 
L 44.415739 200.21371 
L 45.626419 203.640266 
L 52.652475 204.701969 
L 54.000203 207.867325 
L 74.87463 201.611272 
L 76.114192 204.079443 
L 43.187848 225.778188 
L 45.202937 229.230712 
L 33.75219 241.423736 
L 36.263875 245.165202 
L 53.122495 238.266339 
L 55.525328 241.400321 
L 56.259594 245.948473 
L 58.902419 248.98002 
L 47.177234 265.787695 
L 50.448338 269.095002 
L 51.735316 274.56587 
L 55.280171 277.725521 
L 61.347392 277.778769 
L 64.988515 280.634607 
L 91.928706 250.719917 
L 94.703919 252.62759 
L 91.447531 264.268875 
L 94.648992 266.184978 
L 99.365338 265.283423 
L 102.594783 266.950071 
L 117.098055 243.99504 
L 119.649379 245.114658 
L 122.234645 246.153503 
L 124.851296 247.110548 
L 119.899012 272.247959 
L 123.337285 273.265539 
L 128.641517 266.69188 
L 131.900772 267.437324 
L 139.539382 243.81364 
L 142.073907 244.227743 
L 142.590667 262.16571 
L 145.700713 262.4748 
L 146.381419 309.620189 
L 150.981663 309.786627 
L 155.669665 317.512381 
L 160.513464 317.382874 
L 165.123254 314.02774 
L 169.852815 313.602715 
L 168.2627 267.234004 
L 171.519411 266.733404 
L 178.732389 285.764299 
L 182.566556 284.925347 
L 188.97235 293.63879 
L 193.049045 292.473978 
L 192.652579 278.041563 
L 196.237044 276.768747 
L 184.900053 239.017195 
L 187.26134 238.00743 
L 214.453721 288.229896 
L 218.34775 286.266567 
L 224.451604 288.206779 
L 228.339963 285.929107 
L 228.792157 278.364766 
L 232.368916 275.955483 
L 245.52986 286.412854 
L 249.351392 283.473322 
L 233.656039 257.488671 
L 236.574002 254.936779 
L 251.157818 264.513039 
L 254.28799 261.40738 
L 215.86729 220.191388 
L 217.621341 218.217254 
L 243.28998 235.549445 
L 245.513364 232.705489 
L 256.447673 236.028334 
L 258.679608 232.770433 
L 256.220028 226.609079 
L 258.155913 223.362994 
L 223.970832 200.819302 
L 225.111776 198.599953 
L 272.452014 217.436511 
L 274.091468 213.684591 
L 262.656569 204.935493 
L 263.907807 201.497744 
L 286.382936 204.665615 
L 287.613958 200.481991 
L 243.051233 185.135957 
L 243.689623 182.324433 
L 276.097747 185.163395 
L 276.720661 181.312802 
L 268.035972 176.400085 
L 268.387335 172.807305 
L 304.790913 171.026479 
L 304.955145 166.2807 
L 276.465658 161.890679 
L 276.356646 158.040025 
L 250.005863 156.169884 
L 249.730059 153.154012 
L 234.860912 152.167362 
L 234.466748 149.62966 
L 250.600765 143.717196 
L 249.933127 140.688777 
L 244.708243 138.889818 
L 243.891735 136.049059 
L 255.389708 129.02771 
L 254.257832 125.855979 
L 269.41687 115.985188 
L 267.867973 112.378861 
L 282.140732 101.069949 
L 280.116576 97.07093 
L 270.595068 97.317178 
L 268.458625 93.683035 
L 260.4037 93.909953 
L 258.165166 90.597934 
L 277.428127 71.221103 
L 274.467789 67.385016 
L 267.86586 66.637536 
L 264.766132 63.104375 
L 232.165572 88.017543 
L 229.75573 85.596306 
L 257.941432 49.701731 
L 254.314112 46.488988 
L 234.64628 63.198435 
L 231.454844 60.71147 
L 217.077045 74.060437 
L 214.23582 72.120517 
L 210.527099 71.583013 
L 207.611217 69.850262 
L 220.204795 38.963437 
L 216.258497 36.942527 
L 212.250609 35.046696 
L 208.185093 33.277819 
L 192.021926 63.325805 
L 188.855569 62.17898 
L 199.329981 16.974308 
L 194.702618 15.62062 
L 189.491343 16.659605 
L 184.858949 15.61542 
L 173.239072 54.172186 
L 169.794192 53.620461 
L 166.9345 47.817742 
L 163.29294 47.467388 
L 158.065503 79.552201 
L 155.426128 79.465018 
L 152.480047 57.890407 
L 149.16234 57.989553 
L 143.180823 23.625538 
L 138.790351 24.034013 
L 142.68977 83.325091 
L 140.176626 83.71949 
L 125.571103 25.329552 
L 121.242915 26.290873 
L 120.386723 40.025753 
L 116.52318 41.142816 
L 125.129508 78.841882 
L 122.484084 79.79063 
L 101.347856 35.956586 
L 97.365783 37.674284 
L 113.054057 79.667646 
L 110.440568 80.995665 
L 82.722725 38.208993 
L 78.820681 40.511193 
L 69.92467 35.202539 
L 65.934424 37.908624 
L 89.290558 77.115075 
L 86.608559 79.191532 
L 83.993174 81.35129 
L 81.446991 83.592214 
L 64.508014 70.961899 
L 61.644799 73.820615 
L 87.34618 102.715141 
L 85.470065 104.840076 
L 86.666476 109.433574 
L 85.001939 111.576559 
L 87.816111 116.874618 
L 86.384968 118.977776 
L 40.365364 93.726277 
L 38.229847 97.332836 
L 75.690662 121.933981 
L 74.424592 124.415888 
L 30.411731 107.578052 
L 28.716666 111.490726 
L 49.484526 123.905225 
L 48.293393 127.210136 
L 78.132357 140.074934 
L 77.435471 142.4711 
L 67.075702 142.54754 
L 66.462027 145.290129 
L 43.925186 144.205427 
L 43.375085 147.675099 
L 23.023847 148.959994 
L 22.633574 153.084499 
L 73.935952 159.653312 
L 73.856728 162.171742 
L 14.53936 165.624183 
L 14.67724 170.007219 
L 28.01007 173.355097 
L 28.384367 177.310763 
L 43.375085 179.188062 
L 43.925186 182.657734 
L 46.092932 185.79561 
L 46.849445 189.17656 
L 70.004575 186.427058 
L 70.76912 189.055862 
L 44.649245 200.90204 
L 45.881451 204.320913 
L 52.914047 205.338406 
L 54.281656 208.495222 
L 75.116323 202.108005 
L 76.371384 204.568331 
L 43.582164 226.473735 
L 45.618928 229.913517 
L 34.245094 242.178318 
L 36.780261 245.903913 
L 53.595158 238.899156 
L 56.017654 242.017964 
L 56.780511 246.561407 
L 59.44235 249.576272 
L 47.823109 266.45736 
L 51.114949 269.744028 
L 52.43631 275.206693 
L 56.000967 278.343986 
L 62.068403 278.359074 
L 65.727416 281.191955 
L 92.478927 251.108419 
L 95.266084 252.998599 
L 92.082978 264.660135 
L 95.296426 266.556064 
L 100.007009 265.624864 
L 103.246872 267.271168 
L 117.605483 244.225373 
L 120.163798 245.328923 
L 122.755546 246.351488 
L 125.378165 247.292057 
L 120.584079 272.460117 
L 124.028684 273.456053 
L 129.291467 266.849163 
L 132.555346 267.574093 
L 140.045225 243.902834 
L 142.582304 244.300988 
L 143.211874 262.23535 
L 146.323802 262.524874 
L 147.301013 309.665049 
L 151.902213 309.80255 
L 156.638712 317.498667 
L 161.481601 317.338698 
L 166.070198 313.954637 
L 170.796992 313.499874 
L 168.915276 267.142082 
L 172.168774 266.621008 
L 179.501303 285.606161 
L 183.330118 284.743111 
L 189.790587 293.416093 
L 193.859876 292.225664 
L 193.372646 277.796028 
L 196.949035 276.500693 
L 185.374832 238.82119 
L 187.729721 237.796595 
L 215.237435 287.847042 
L 219.119039 285.859261 
L 225.234975 287.761045 
L 229.108932 285.458963 
L 229.513542 277.891927 
L 233.075077 275.460196 
L 246.301531 285.834585 
L 250.1045 282.871076 
L 234.246028 256.985654 
L 237.147885 254.41546 
L 251.791641 263.899807 
L 254.902218 260.774522 
L 216.223053 219.800989 
L 217.964653 217.815862 
L 243.741794 234.98627 
L 245.947247 232.128386 
L 256.902239 235.382395 
L 259.11364 232.110521 
L 256.615356 225.964758 
L 258.530787 222.706561 
L 224.204596 200.37832 
L 225.331558 198.15184 
L 272.789331 216.690281 
L 274.405155 212.928125 
L 262.915455 204.251118 
L 264.145047 200.805568 
L 286.639656 203.83202 
L 287.844341 199.640737 
L 243.185979 184.57528 
L 243.806674 181.759797 
L 276.232012 184.394874 
L 276.830696 180.54044 
L 268.115281 175.682441 
L 268.44404 172.087522 
L 304.835697 170.077774 
L 304.970078 165.331056 
L 276.453544 161.120304 
L 276.320315 157.270412 
L 249.958292 155.566039 
L 249.663525 152.551962 
L 234.788467 151.65885 
L 234.37835 149.123677 
L 250.474862 143.109857 
L 249.788189 140.085696 
L 244.552095 138.319635 
L 243.717736 135.484068 
L 255.171321 128.390542 
L 254.019519 125.225992 
L 269.116176 115.260054 
L 267.544628 111.66354 
L 281.745977 100.265085 
L 279.69671 96.278875 
L 270.176939 96.585003 
L 268.017682 92.96437 
L 259.964344 93.241943 
L 257.705023 89.944069 
L 276.845734 70.446468 
L 273.861327 66.629076 
L 267.254828 65.923134 
L 264.13294 62.409537 
L 231.689714 87.527252 
L 229.264691 85.121219 
L 257.22408 49.050082 
L 253.576625 45.860217 
L 234.014275 62.693033 
L 230.80726 60.226189 
L 216.513703 73.66532 
L 213.660333 71.743308 
L 209.948305 71.229141 
L 207.021583 69.514764 
L 219.420651 38.549343 
L 215.461721 36.553293 
L 211.441988 34.682707 
L 207.365428 32.939435 
L 191.391564 63.088483 
L 188.218057 61.961596 
L 198.407951 16.69194 
L 193.772165 15.367381 
L 188.567528 16.439122 
L 183.928659 15.424093 
L 172.551512 54.053178 
L 169.10323 53.523131 
L 166.207098 47.738512 
L 162.563406 47.411069 
L 157.537868 79.528125 
L 154.897998 79.457544 
L 151.816282 57.901889 
L 148.499264 58.021899 
L 142.301736 23.696184 
L 137.91392 24.132265 
L 142.186169 83.397645 
L 139.675555 83.807842 
L 124.703081 25.51092 
L 120.381025 26.499444 
L 119.611235 40.239437 
L 115.754794 41.380777 
L 124.598058 79.024969 
L 121.958653 79.990336 
L 100.547152 36.290094 
L 96.57596 38.032803 
L 112.528039 79.926664 
L 109.922953 81.271094 
L 81.936555 38.659598 
L 78.049068 40.986294 
L 69.119844 35.733696 
L 65.146697 38.464824 
L 88.748955 77.523603 
L 86.080069 79.616887 
L 83.47832 81.793051 
L 80.946281 84.049945 
L 63.928202 71.526416 
L 61.083023 74.403084 
L 86.965626 103.135391 
L 85.102912 105.272083 
L 86.328191 109.857967 
L 84.677165 112.011378 
L 87.524602 117.291632 
L 86.106716 119.40375 
L 39.929204 94.442187 
L 37.816413 98.062106 
L 75.431214 122.427158 
L 74.180778 124.916979 
L 30.062888 108.356291 
L 28.392465 112.279549 
L 49.237994 124.563184 
L 48.067671 127.875522 
L 77.986957 140.552395 
L 77.305155 142.952897 
L 66.946072 143.094492 
L 66.349658 145.840887 
L 43.806441 144.89795 
L 43.278173 148.371013 
L 22.935419 149.78388 
L 22.571094 153.910758 
L 73.913772 160.156779 
L 73.850389 162.675657 
L 14.555908 166.501102 
L 14.721353 170.883185 
L 28.074975 174.14714 
L 28.474143 178.100374 
L 43.476372 179.883352 
L 44.048285 183.349496 
L 46.235723 186.473677 
L 47.013485 189.849802 
L 70.150864 186.954722 
L 70.931928 189.578664 
L 44.887075 201.588887 
L 46.14076 204.999944 
L 53.179616 205.973185 
L 54.567052 209.121337 
L 75.361135 202.603208 
L 76.631645 205.055592 
L 43.980847 227.166789 
L 46.039205 230.593692 
L 34.742735 242.929786 
L 37.301284 246.639362 
L 54.071792 239.528987 
L 56.513855 242.632497 
L 57.305273 247.171053 
L 59.986021 250.169117 
L 48.473182 267.122949 
L 51.785628 270.388849 
L 53.14132 275.843095 
L 56.725639 278.957906 
L 62.793049 278.934834 
L 66.469807 281.744645 
L 93.031581 251.493452 
L 95.830571 253.366065 
L 92.720872 265.04739 
L 95.946181 266.923071 
L 100.650814 265.962263 
L 103.900967 267.588157 
L 118.114349 244.452511 
L 120.679555 245.539948 
L 123.277683 246.546192 
L 125.906166 247.470248 
L 121.270467 272.667962 
L 124.721268 273.642214 
L 129.942393 267.002354 
L 133.210767 267.706743 
L 140.551619 243.988844 
L 143.091152 244.371034 
L 143.833507 262.301082 
L 146.947194 262.571027 
L 148.220871 309.704124 
L 152.822844 309.812684 
L 157.607654 317.478858 
L 162.449441 317.288433 
L 167.016664 313.87558 
L 171.740504 313.391097 
L 169.56726 267.046056 
L 172.817417 266.50453 
L 180.269207 285.443191 
L 184.092518 284.556076 
L 190.607407 293.188254 
L 194.669129 291.972255 
L 194.091154 277.545969 
L 197.659325 276.228166 
L 185.848369 238.622204 
L 188.196767 237.582818 
L 216.018726 287.459267 
L 219.887751 285.447113 
L 226.015528 287.310393 
L 229.874929 284.983991 
L 230.231939 277.41456 
L 233.778109 274.960478 
L 247.069551 285.251475 
L 250.853806 282.264106 
L 234.832843 256.478936 
L 237.718477 253.890542 
L 252.421594 263.2826 
L 255.512454 260.137813 
L 216.576354 219.408361 
L 218.305434 217.41232 
L 244.190057 234.420264 
L 246.377492 231.548565 
L 257.352733 234.733609 
L 259.543512 231.447892 
L 257.006624 225.317963 
L 258.901525 222.047784 
L 224.43558 199.935877 
L 225.548517 197.702352 
L 273.121948 215.941945 
L 274.714079 212.1697 
L 263.170032 203.565129 
L 264.377929 200.111914 
L 286.891128 202.996828 
L 288.069428 198.79805 
L 243.317196 184.013767 
L 243.920171 181.194435 
L 276.361441 183.625524 
L 276.935871 179.767401 
L 268.190074 174.964313 
L 268.496217 171.367397 
L 304.874514 169.128806 
L 304.979038 164.381337 
L 276.436585 160.350021 
L 276.279145 156.501043 
L 249.906924 154.962506 
L 249.593206 151.950343 
L 234.712825 151.150804 
L 234.286771 148.61826 
L 250.345141 142.503321 
L 249.639462 139.483539 
L 244.392363 137.750445 
L 243.540187 134.920181 
L 254.948931 127.754759 
L 253.777249 124.597516 
L 268.810927 114.536826 
L 267.21679 110.950267 
L 281.346169 99.462719 
L 279.271871 95.489477 
L 269.754213 95.855473 
L 267.572227 92.248491 
L 259.520794 92.57671 
L 257.240776 89.293111 
L 276.25848 69.675512 
L 273.250123 65.876966 
L 266.639315 65.212588 
L 263.495389 61.718696 
L 231.210782 87.039963 
L 228.770674 84.64923 
L 256.502643 48.402958 
L 252.835198 45.236096 
L 233.379103 62.191615 
L 230.156637 59.744991 
L 215.947887 73.273755 
L 213.082485 71.369727 
L 209.367297 70.878916 
L 206.42985 69.18298 
L 218.633918 38.140189 
L 214.662512 36.169077 
L 210.631094 34.32381 
L 206.54365 32.606212 
L 190.759723 62.85513 
L 187.579191 61.748225 
L 197.484163 16.415376 
L 192.840138 15.12 
L 187.642344 16.224454 
L 182.997183 15.238621 
L 171.863216 53.938498 
L 168.411669 53.430149 
L 165.479212 47.663859 
L 161.833533 47.359339 
L 157.010093 79.507368 
L 154.36983 79.453391 
L 151.152603 57.917545 
L 147.836405 58.058415 
L 141.42311 23.772358 
L 137.038124 24.236027 
L 141.683034 83.473365 
L 139.17505 83.899344 
L 123.836217 25.697743 
L 119.520464 26.713431 
L 118.837106 40.457994 
L 114.987919 41.623566 
L 124.067769 79.211394 
L 121.434488 80.193343 
L 99.74856 36.628631 
L 95.788408 38.396283 
L 112.00366 80.188986 
L 109.407082 81.549773 
L 81.153235 39.115138 
L 77.280458 41.466238 
L 68.318375 36.269904 
L 64.362484 39.025967 
L 88.209933 77.935528 
L 85.554265 80.045557 
L 82.966254 82.238042 
L 80.44846 84.510816 
L 63.351952 72.094569 
L 60.524922 74.989075 
L 86.587723 103.558026 
L 84.738484 105.706392 
L 85.992581 110.284478 
L 84.355131 112.448231 
L 87.235723 117.710472 
L 85.831148 119.831466 
L 39.497555 95.160827 
L 37.407573 98.793963 
L 75.174873 122.921956 
L 73.940122 125.419593 
L 29.718947 109.136709 
L 28.073232 113.070396 
L 48.995606 125.222681 
L 47.846138 128.542314 
L 77.844562 141.030761 
L 77.177872 143.435503 
L 66.819884 143.642249 
L 66.240756 146.39234 
L 43.692054 145.591206 
L 43.18564 149.067523 
L 22.852174 150.608307 
L 22.513813 154.737395 
L 73.894759 160.660375 
L 73.84722 163.179603 
L 14.577971 167.3779 
L 14.770973 171.758856 
L 28.14486 174.93876 
L 28.568884 178.889405 
L 43.58203 180.577993 
L 44.175731 184.040471 
L 46.382775 187.150832 
L 47.181756 190.521998 
L 70.30047 187.481454 
L 71.098021 190.100433 
L 45.129221 202.274226 
L 46.404334 205.677329 
L 53.449172 206.606281 
L 54.856381 209.745645 
L 75.609058 203.096862 
L 76.894967 205.541206 
L 44.383881 227.857321 
L 46.463751 231.271211 
L 35.245092 243.678109 
L 37.826921 247.37152 
L 54.552377 240.155809 
L 57.013912 243.243898 
L 57.833859 247.777386 
L 60.53341 250.75853 
L 49.127428 267.784437 
L 52.46035 271.029438 
L 53.850319 276.47505 
L 57.454157 279.567257 
L 63.521303 279.506024 
L 67.21566 282.292654 
L 93.586646 251.875001 
L 96.397358 253.729974 
L 93.361189 265.430626 
L 96.598231 267.285984 
L 101.296728 266.295605 
L 104.557044 267.901026 
L 118.624634 244.676443 
L 121.196628 245.747725 
L 123.801034 246.737609 
L 126.435276 247.645115 
L 121.958149 272.871486 
L 125.415009 273.824015 
L 130.59427 267.151449 
L 133.86701 267.835267 
L 141.058544 244.071668 
L 143.600431 244.437878 
L 144.45554 262.362902 
L 147.570864 262.613259 
L 149.140956 309.737413 
L 153.743521 309.817027 
L 158.576452 317.452955 
L 163.416946 317.232082 
L 167.962613 313.790572 
L 172.683313 313.276388 
L 170.218628 266.945932 
L 173.465314 266.383975 
L 181.036071 285.275394 
L 184.853727 284.36425 
L 191.422779 292.955283 
L 195.476772 291.713761 
L 194.808076 277.291395 
L 198.367888 275.951178 
L 186.320645 238.420243 
L 188.66246 237.366107 
L 216.797563 287.066586 
L 220.653856 285.030137 
L 226.79323 286.854841 
L 230.637924 284.504211 
L 230.947319 276.932685 
L 234.477984 274.456347 
L 247.833887 284.663545 
L 251.599279 281.652434 
L 235.416459 255.968537 
L 238.285756 253.362045 
L 253.047654 262.661444 
L 256.118673 259.49728 
L 216.927178 219.013519 
L 218.64367 217.006642 
L 244.634752 233.851451 
L 246.804081 230.966051 
L 257.799138 234.082004 
L 259.969208 230.782573 
L 257.393817 224.668721 
L 259.268113 221.386688 
L 224.663778 199.49199 
L 225.762645 197.251509 
L 273.449852 215.191531 
L 275.018226 211.409348 
L 263.42029 202.877552 
L 264.606444 199.416808 
L 287.137342 202.16007 
L 288.289211 197.953964 
L 243.44488 183.45144 
L 244.030111 180.628372 
L 276.486029 182.855375 
L 277.036182 178.993715 
L 268.26035 174.245728 
L 268.543864 170.646959 
L 304.907362 168.179613 
L 276.47535 163.43158 
z
" clip-path="url(#p060b9d8af9)" style="fill: #0000ff; opacity: 0.5; stroke: #000000; stroke-width: 1.5; stroke-linejoin: miter"/>
   </g>
  </g>
 </g>
 <defs>
  <clipPath id="p060b9d8af9">
   <rect x="0" y="-0" width="319.501849" height="332.64"/>
  </clipPath>
 </defs>
</svg>
