<?xml version="1.0" encoding="utf-8" standalone="no"?>
<!DOCTYPE svg PUBLIC "-//W3C//DTD SVG 1.1//EN"
  "http://www.w3.org/Graphics/SVG/1.1/DTD/svg11.dtd">
<svg xmlns:xlink="http://www.w3.org/1999/xlink" width="334.8pt" height="318.335112pt" viewBox="0 0 334.8 318.335112" xmlns="http://www.w3.org/2000/svg" version="1.1">
 <metadata>
  <rdf:RDF xmlns:dc="http://purl.org/dc/elements/1.1/" xmlns:cc="http://creativecommons.org/ns#" xmlns:rdf="http://www.w3.org/1999/02/22-rdf-syntax-ns#">
   <cc:Work>
    <dc:type rdf:resource="http://purl.org/dc/dcmitype/StillImage"/>
    <dc:date>2023-12-09T18:06:26.361520</dc:date>
    <dc:format>image/svg+xml</dc:format>
    <dc:creator>
     <cc:Agent>
      <dc:title>Matplotlib v3.8.2, https://matplotlib.org/</dc:title>
     </cc:Agent>
    </dc:creator>
   </cc:Work>
  </rdf:RDF>
 </metadata>
 <defs>
  <style type="text/css">*{stroke-linejoin: round; stroke-linecap: butt}</style>
 </defs>
 <g id="figure_1">
  <g id="patch_1">
   <path d="M 0 318.335112 
L 334.8 318.335112 
L 334.8 0 
L 0 0 
L 0 318.335112 
z
" style="fill: none"/>
  </g>
  <g id="axes_1">
   <g id="patch_2">
    <path d="M 309.396025 157.824375 
L 309.326548 153.406095 
L 263.955219 151.836449 
L 263.719936 148.849889 
L 268.904273 145.174993 
L 268.457091 142.036116 
L 247.636321 142.784503 
L 247.124493 140.31552 
L 252.686575 136.282819 
L 251.967822 133.658259 
L 253.43181 130.320896 
L 252.525233 127.675852 
L 267.772852 118.624884 
L 266.491436 115.534709 
L 299.586877 96.245867 
L 297.586086 92.166455 
L 273.201716 100.402062 
L 271.34465 97.150202 
L 286.138085 83.314001 
L 283.737338 79.663842 
L 288.284865 70.953444 
L 285.494413 67.241897 
L 286.868176 60.074594 
L 283.73637 56.412969 
L 274.707786 58.290628 
L 271.525901 55.012235 
L 269.328489 50.67716 
L 265.909879 47.571668 
L 235.097579 77.631716 
L 232.543404 75.589192 
L 248.101753 48.561886 
L 244.627129 46.124855 
L 217.293309 81.359816 
L 214.865156 79.875254 
L 223.079724 58.976676 
L 219.944936 57.321243 
L 219.457357 50.01538 
L 216.042597 48.478273 
L 205.58825 64.773307 
L 202.644369 63.664978 
L 201.133371 58.117634 
L 197.982424 57.152668 
L 205.016518 16.287777 
L 200.548428 15.221398 
L 186.154237 66.55907 
L 183.276113 66.060906 
L 186.28552 18.386359 
L 181.892676 17.907885 
L 175.638126 47.679357 
L 172.171582 47.521177 
L 168.740475 72.083017 
L 166.044646 72.129649 
L 162.789019 63.546234 
L 159.827717 63.784214 
L 156.472002 60.965297 
L 153.432673 61.403173 
L 152.96092 75.189206 
L 150.370557 75.730446 
L 138.055445 38.691507 
L 134.324885 39.719453 
L 142.719415 77.838699 
L 140.217422 78.700644 
L 113.073503 17.684061 
L 108.694775 19.50788 
L 126.101783 67.398884 
L 123.279756 68.788485 
L 103.994749 40.385143 
L 100.334281 42.483194 
L 93.326977 39.340079 
L 89.638924 41.774066 
L 111.304296 78.950406 
L 108.852791 80.799561 
L 117.116799 95.546748 
L 115.184245 97.20494 
L 72.988924 56.190762 
L 69.840749 59.25589 
L 89.991593 84.101644 
L 87.712591 86.618371 
L 48.73674 58.932482 
L 45.686762 62.758796 
L 74.287773 89.465431 
L 72.185184 92.473268 
L 41.307633 77.328165 
L 38.839729 81.378972 
L 71.335906 104.536688 
L 69.708651 107.629887 
L 76.810529 114.80572 
L 75.503447 117.721707 
L 52.119964 111.971017 
L 50.735961 115.664731 
L 45.690094 118.184179 
L 44.504625 122.076991 
L 60.371769 130.29977 
L 59.559983 133.724968 
L 42.470484 134.098408 
L 41.786986 138.084583 
L 69.594967 145.586744 
L 69.259276 148.714385 
L 80.116891 152.51474 
L 79.993829 155.308123 
L 56.935601 158.176397 
L 57.002016 161.695852 
L 73.022494 164.163663 
L 73.269208 167.174351 
L 51.565708 173.033972 
L 52.101932 176.714922 
L 44.180888 182.042165 
L 45.004 185.950857 
L 15.218182 197.833575 
L 16.552131 202.645109 
L 27.841214 204.189106 
L 29.368754 208.600603 
L 89.26656 189.668501 
L 90.307169 192.155829 
L 74.214401 202.783616 
L 75.674821 205.737732 
L 89.724842 201.714457 
L 91.143977 204.18142 
L 53.853587 231.419505 
L 56.224449 234.999652 
L 43.334346 249.761034 
L 46.287107 253.66286 
L 76.190809 235.100509 
L 78.666366 237.976505 
L 69.698999 251.687566 
L 72.699299 254.759477 
L 110.429341 220.559289 
L 112.430761 222.36594 
L 76.719042 270.139597 
L 80.296043 272.981659 
L 82.568593 277.642397 
L 86.378607 280.296827 
L 116.471896 241.161558 
L 119.118109 242.768032 
L 111.186675 263.815119 
L 114.547779 265.57657 
L 102.554818 300.341513 
L 107.068659 302.35631 
L 124.650818 270.954592 
L 128.229745 272.289171 
L 137.656933 255.363709 
L 140.739218 256.297057 
L 141.13333 267.910712 
L 144.608402 268.72855 
L 147.526552 272.558744 
L 151.144608 273.173267 
L 152.958381 288.647453 
L 157.079615 289.083233 
L 163.936031 242.628219 
L 166.604892 242.741591 
L 169.500692 290.404608 
L 173.668996 290.319393 
L 177.028015 278.221831 
L 180.809543 277.905964 
L 186.438953 291.640075 
L 190.637727 291.021672 
L 193.746878 284.81785 
L 197.727533 283.973044 
L 198.459598 270.715974 
L 201.99453 269.729961 
L 204.251085 264.86428 
L 207.599164 263.699064 
L 208.540856 256.535926 
L 211.624952 255.239948 
L 207.14877 238.082627 
L 209.653342 236.839543 
L 225.630808 259.797683 
L 228.80901 257.962747 
L 214.341833 228.638442 
L 216.545902 227.173862 
L 237.975749 251.87155 
L 240.898633 249.652381 
L 266.671216 274.745886 
L 270.299131 271.613158 
L 239.389555 232.095813 
L 241.689947 229.841968 
L 235.192401 219.413125 
L 237.096098 217.297519 
L 256.139326 229.196474 
L 258.340275 226.417413 
L 262.387492 224.959527 
L 264.452133 221.986105 
L 263.731311 217.263033 
L 265.553294 214.251164 
L 261.696448 208.156029 
L 263.233092 205.212643 
L 277.641997 208.231152 
L 279.173119 204.786366 
L 273.196505 198.416283 
L 274.421225 195.116125 
L 317.148989 205.023839 
L 318.559733 200.338453 
L 285.166223 186.935519 
L 286.024043 183.264684 
L 310.18802 183.888756 
L 310.937672 179.432687 
L 253.217039 167.951467 
L 253.493756 165.294571 
L 255.27206 162.720118 
L 255.383276 160.001193 
L 309.393246 156.940579 
L 309.295982 152.522824 
L 263.915678 151.238569 
L 263.661615 148.253547 
L 268.822737 144.546117 
L 268.355822 141.410116 
L 247.540171 142.289438 
L 247.012825 139.823723 
L 252.549433 135.756119 
L 251.814188 133.136132 
L 253.257156 129.789627 
L 252.333962 127.150338 
L 267.524353 118.003649 
L 266.223527 114.921595 
L 299.196998 95.424984 
L 297.170589 91.358236 
L 272.838498 99.747044 
L 270.961018 96.506928 
L 285.667138 82.577958 
L 283.243481 78.94297 
L 287.736134 70.204143 
L 284.922394 66.51022 
L 286.251052 59.334419 
L 283.096278 55.692564 
L 274.079682 57.626971 
L 270.87724 54.368654 
L 268.652607 50.047486 
L 265.214533 46.963556 
L 234.591903 77.216801 
L 232.024932 75.190382 
L 247.412986 48.065757 
L 243.923104 45.650628 
L 216.811432 81.056806 
L 214.373991 79.587545 
L 222.456956 58.637716 
L 219.311818 57.002032 
L 218.778299 49.69938 
L 215.353939 48.18378 
L 205.002286 64.544243 
L 202.051492 63.454452 
L 200.505634 57.916722 
L 197.34868 56.971591 
L 204.125618 16.063269 
L 199.650909 15.025012 
L 185.579888 66.4522 
L 182.698688 65.972148 
L 185.40819 18.279616 
L 181.012423 17.828781 
L 174.945243 47.639001 
L 171.477772 47.502627 
L 168.201213 72.085561 
L 165.505731 72.149147 
L 162.196183 63.586378 
L 159.236436 63.842978 
L 155.863059 61.045222 
L 152.826544 61.502206 
L 152.441506 75.290933 
L 149.854599 75.848454 
L 137.306777 38.887703 
L 133.582755 39.939091 
L 142.216868 78.004786 
L 139.720345 78.882451 
L 112.193204 18.037794 
L 107.826032 19.889117 
L 125.533904 67.669693 
L 122.720672 69.077016 
L 103.257406 40.795527 
L 99.610206 42.91656 
L 92.583272 39.817579 
L 88.910601 42.274713 
L 110.809362 79.314055 
L 108.369535 81.178592 
L 116.726132 95.873511 
L 114.804045 97.543825 
L 72.351602 56.795843 
L 69.222768 59.88071 
L 89.529479 84.599236 
L 87.266351 87.130247 
L 48.117142 59.690041 
L 45.09129 63.535462 
L 73.859705 90.061685 
L 71.776075 93.082687 
L 40.803881 78.132086 
L 38.361503 82.198334 
L 71.002686 105.151209 
L 69.394917 108.254582 
L 76.541787 115.385606 
L 75.253071 118.309757 
L 51.833882 112.706249 
L 50.473137 116.408595 
L 45.443216 118.959728 
L 44.282254 122.859919 
L 60.200801 130.982741 
L 59.410573 134.412976 
L 42.323762 134.893892 
L 41.665348 138.884287 
L 69.519963 146.211403 
L 69.20395 149.341094 
L 80.085252 153.073085 
L 79.979761 155.867187 
L 56.940029 158.880427 
L 57.028578 162.399395 
L 73.064261 164.766397 
L 73.329905 167.775474 
L 51.663687 173.771482 
L 52.223052 177.448987 
L 44.33567 182.825943 
L 45.18335 186.729381 
L 15.472856 198.7992 
L 16.837041 203.602249 
L 28.135611 205.075214 
L 29.690867 209.477015 
L 89.468416 190.168564 
L 90.524649 192.649299 
L 74.499041 203.37809 
L 75.978012 206.322963 
L 90.002451 202.2114 
L 91.437074 204.669389 
L 54.318734 232.141471 
L 56.712066 235.706636 
L 43.915058 250.548797 
L 46.892301 254.431975 
L 76.678665 235.681913 
L 79.172261 238.542282 
L 70.291307 252.309472 
L 73.310868 255.362453 
L 110.825064 220.92564 
L 112.837807 222.719667 
L 77.427264 270.716986 
L 81.022069 273.536495 
L 83.323888 278.182847 
L 87.150521 280.813262 
L 116.997076 241.489498 
L 119.653341 243.079296 
L 111.854437 264.175851 
L 115.226553 265.916129 
L 103.452482 300.755812 
L 107.978906 302.74218 
L 125.363217 271.230501 
L 128.950468 272.542545 
L 138.271017 255.558126 
L 141.359112 256.472069 
L 141.826259 268.083016 
L 145.306406 268.878982 
L 148.248589 272.690746 
L 151.870437 273.282502 
L 153.781499 288.744974 
L 157.905392 289.154825 
L 164.469497 242.657607 
L 167.139018 242.754191 
L 170.334534 290.398053 
L 174.50222 290.286623 
L 177.785085 278.168174 
L 181.564552 277.828529 
L 187.28023 291.526962 
L 191.475033 290.882165 
L 194.545103 284.65891 
L 198.520366 283.789084 
L 199.169037 270.527672 
L 202.697698 269.519447 
L 204.923606 264.639669 
L 208.264289 263.453419 
L 209.160911 256.2845 
L 212.236795 254.969151 
L 207.652792 237.840321 
L 210.149496 236.581509 
L 226.27104 259.438707 
L 229.437639 257.583818 
L 214.786314 228.351083 
L 216.981128 226.872669 
L 238.565885 251.435087 
L 241.474754 249.197578 
L 267.404651 274.128492 
L 271.012792 270.973009 
L 239.855285 231.650849 
L 242.141457 229.382581 
L 235.578448 218.99481 
L 237.468801 216.867272 
L 256.58649 228.646221 
L 258.769917 225.853372 
L 262.807884 224.37006 
L 264.853783 221.383712 
L 264.103271 216.665267 
L 265.906274 213.641998 
L 262.01117 207.571241 
L 263.529271 204.618249 
L 277.956876 207.546074 
L 279.466302 204.091726 
L 273.449742 197.759358 
L 274.653681 194.451564 
L 317.442914 204.090348 
L 318.824162 199.396182 
L 285.347015 186.20354 
L 286.181732 182.527382 
L 310.349155 182.999463 
L 311.070766 178.538768 
L 253.279065 167.420805 
L 253.539066 164.762221 
L 255.301142 162.176634 
L 255.395255 159.457064 
L 309.384908 156.056818 
L 309.25986 151.639762 
L 263.872377 150.640949 
L 263.599545 147.657584 
L 268.737247 143.917767 
L 268.250618 140.784764 
L 247.44091 141.794988 
L 246.898065 139.332638 
L 252.408981 135.230293 
L 251.657272 132.614982 
L 253.079165 129.259468 
L 252.139389 126.626037 
L 267.271952 117.38399 
L 265.951768 114.310179 
L 298.801963 94.606568 
L 296.750018 90.552646 
L 272.471169 99.094323 
L 270.573346 95.866079 
L 285.191571 81.844892 
L 282.745099 78.225219 
L 287.182702 69.458309 
L 284.345785 65.782156 
L 285.629284 58.59814 
L 282.451668 54.976198 
L 273.447417 56.967276 
L 270.224545 53.729166 
L 267.972778 49.422074 
L 264.515376 46.359829 
L 234.083627 76.805075 
L 231.503962 74.794841 
L 246.721114 47.57397 
L 243.21611 45.180838 
L 216.32766 80.756834 
L 213.881026 79.302932 
L 221.832068 58.30268 
L 218.676705 56.686809 
L 218.097267 49.387657 
L 214.663442 47.893624 
L 204.414892 64.31887 
L 201.457302 63.247659 
L 199.876646 57.719761 
L 196.71381 56.794505 
L 203.233324 15.844368 
L 198.752174 14.834275 
L 185.004879 66.348945 
L 182.120716 65.887023 
L 184.530206 18.178394 
L 180.13169 17.755214 
L 174.252119 47.603004 
L 170.783859 47.488441 
L 167.661978 72.091496 
L 164.966949 72.172034 
L 161.603612 63.63025 
L 158.645537 63.90546 
L 155.25463 61.128976 
L 152.221049 61.605048 
L 151.922743 75.395925 
L 149.339393 75.969705 
L 136.559357 39.088603 
L 132.842022 40.163393 
L 141.715375 78.174031 
L 139.224422 79.06738 
L 111.315146 18.397057 
L 106.959705 20.275811 
L 124.967739 67.944069 
L 122.163415 69.369058 
L 102.522658 41.210541 
L 98.888871 43.354471 
L 91.842585 40.299746 
L 88.18544 42.779931 
L 110.316725 79.680809 
L 107.888673 81.560655 
L 116.337527 96.202725 
L 114.425984 97.885095 
L 71.718099 57.40492 
L 68.608729 60.509405 
L 89.070504 85.099724 
L 86.823339 87.644919 
L 47.502321 60.451482 
L 44.500714 64.315858 
L 73.435395 90.660619 
L 71.370807 93.694666 
L 40.305195 78.939158 
L 37.888439 83.020687 
L 70.673338 105.767815 
L 69.085119 108.881237 
L 76.276697 115.967171 
L 75.006398 118.899369 
L 51.552429 113.443265 
L 50.214997 117.154096 
L 45.20122 119.736814 
L 44.064812 123.64423 
L 60.034132 131.666772 
L 59.265494 135.10191 
L 42.182045 135.690283 
L 41.548741 139.68474 
L 69.448889 146.836521 
L 69.152566 149.968138 
L 80.057125 153.631618 
L 79.96921 156.426328 
L 56.948885 159.584416 
L 57.059564 163.102757 
L 73.109817 165.368857 
L 73.394381 168.376203 
L 51.766304 174.508361 
L 52.348787 178.182275 
L 44.495379 183.608733 
L 45.367593 187.506761 
L 15.733599 199.763204 
L 17.127965 204.557578 
L 28.435576 205.959452 
L 30.018486 210.351385 
L 89.673413 190.667349 
L 90.745228 193.141391 
L 74.787415 203.970762 
L 76.284878 206.906275 
L 90.283181 202.706588 
L 91.733234 205.155505 
L 54.788412 232.860497 
L 57.20412 236.410538 
L 44.500714 251.332892 
L 47.502321 255.197268 
L 77.170168 236.260238 
L 79.681705 239.104867 
L 70.887514 252.927641 
L 73.926217 255.96157 
L 111.223083 221.289495 
L 113.24707 223.070828 
L 78.139103 271.289909 
L 81.751571 274.086753 
L 84.082566 278.718537 
L 87.925668 281.324832 
L 117.524308 241.814128 
L 120.19052 243.387188 
L 112.524456 264.532376 
L 115.90745 266.251411 
L 104.352733 301.164458 
L 108.891561 303.122317 
L 126.077338 271.501924 
L 129.67277 272.79138 
L 138.886312 255.748676 
L 141.980094 256.643179 
L 142.520259 268.250958 
L 146.005343 269.02502 
L 148.971441 272.818205 
L 152.59694 273.387169 
L 154.605214 288.837316 
L 158.731603 289.221222 
L 165.003137 242.683639 
L 167.673213 242.763431 
L 171.168319 290.386253 
L 175.335221 290.248613 
L 178.541803 278.109756 
L 182.31906 277.746348 
L 188.12078 291.408561 
L 192.311444 290.737393 
L 195.342312 284.494953 
L 199.312027 283.600142 
L 199.877278 270.334913 
L 203.399527 269.304514 
L 205.594701 264.410833 
L 208.927857 263.203595 
L 209.779373 256.029179 
L 212.846923 254.69451 
L 208.15528 237.59485 
L 210.644017 236.32036 
L 226.909001 259.07571 
L 230.063871 257.200942 
L 215.228979 228.060933 
L 217.414452 226.568745 
L 239.153265 250.994921 
L 242.048004 248.739162 
L 268.13419 273.506498 
L 271.722413 270.328384 
L 240.318208 231.202965 
L 242.590069 228.920363 
L 235.961856 218.574075 
L 237.83879 216.43469 
L 257.030184 228.093166 
L 259.196003 225.28664 
L 263.224561 223.777961 
L 265.251637 220.778804 
L 264.471463 216.065173 
L 266.255416 213.030624 
L 262.322207 206.984485 
L 263.821706 204.022003 
L 278.26744 206.859029 
L 279.75511 203.395256 
L 273.698842 197.100854 
L 274.881953 193.785553 
L 317.730962 203.155027 
L 319.082659 198.452266 
L 285.523201 185.470437 
L 286.334779 181.789102 
L 310.504694 182.109175 
L 311.198236 177.644029 
L 253.337751 166.889764 
L 253.581026 164.229597 
L 255.326806 161.632978 
L 255.403813 158.91287 
L 309.371012 155.173128 
L 309.218186 150.756945 
L 263.825319 150.043613 
L 263.533729 147.062023 
L 268.647807 143.289967 
L 268.141483 140.160087 
L 247.33854 141.301172 
L 246.78022 138.842285 
L 252.265225 134.70536 
L 251.497082 132.094829 
L 252.897842 128.730438 
L 251.941522 126.10297 
L 267.015659 116.765931 
L 265.676168 113.700483 
L 298.401789 93.790653 
L 296.324387 89.749716 
L 272.099741 98.443925 
L 270.181652 95.227682 
L 284.711402 81.114831 
L 282.242213 77.510617 
L 286.624589 68.71597 
L 283.764607 65.057732 
L 285.002898 57.865786 
L 281.802565 54.263902 
L 272.811014 56.311572 
L 269.567841 53.093796 
L 267.289029 48.800951 
L 263.812435 45.760512 
L 233.572772 76.396554 
L 230.980515 74.402584 
L 246.026161 47.086545 
L 242.506176 44.715504 
L 215.84201 80.459909 
L 213.38628 79.021424 
L 221.205086 57.97158 
L 218.039622 56.375587 
L 217.414288 49.080223 
L 213.971135 47.607817 
L 203.826093 64.097195 
L 200.861824 63.044607 
L 199.246432 57.52676 
L 196.077839 56.621414 
L 202.33967 15.631084 
L 197.852256 14.649195 
L 184.429231 66.249308 
L 181.54222 65.805536 
L 183.651602 18.082695 
L 179.250511 17.687188 
L 173.558783 47.571366 
L 170.089871 47.478619 
L 167.122791 72.100823 
L 164.428321 72.198309 
L 161.011328 63.677848 
L 158.055043 63.971657 
L 154.64674 61.216555 
L 151.616214 61.711697 
L 151.40465 75.504177 
L 148.82496 76.094194 
L 135.813215 39.2942 
L 132.102714 40.392349 
L 141.214956 78.346427 
L 138.729672 79.255425 
L 110.439366 18.761835 
L 106.095827 20.667945 
L 124.403311 68.222 
L 121.608005 69.664599 
L 101.790536 41.630168 
L 98.170304 43.79691 
L 91.104945 40.786563 
L 87.463472 43.2897 
L 109.826405 80.050655 
L 107.410224 81.945735 
L 115.951001 96.534377 
L 114.050077 98.228736 
L 71.088439 58.01797 
L 67.998656 61.14195 
L 88.614686 85.60309 
L 86.383573 88.162367 
L 46.892301 61.216775 
L 43.915058 65.099953 
L 73.014861 91.262211 
L 70.969396 94.309183 
L 39.811594 79.749352 
L 37.420557 83.846 
L 70.347874 106.386479 
L 68.779268 109.509829 
L 76.01527 116.550391 
L 74.763439 119.490521 
L 51.275617 114.182037 
L 49.961551 117.901207 
L 44.964117 120.515408 
L 43.852307 124.429893 
L 59.871768 132.351839 
L 59.12475 135.791743 
L 42.04534 136.487549 
L 41.437172 140.48591 
L 69.381748 147.462074 
L 69.105127 150.595492 
L 80.032512 154.190317 
L 79.962176 156.985525 
L 56.962169 160.288335 
L 57.094974 163.80591 
L 73.159162 165.971018 
L 73.462635 168.976515 
L 51.873553 175.24458 
L 52.479131 178.914758 
L 44.660008 184.390502 
L 45.556721 188.282967 
L 16.000399 200.725549 
L 17.424892 205.511059 
L 28.741096 206.841786 
L 30.351597 211.223677 
L 89.881543 191.164834 
L 90.968897 193.632086 
L 75.07951 204.561609 
L 76.595407 207.487645 
L 90.567019 203.2 
L 92.032446 205.639749 
L 55.262603 233.576554 
L 57.700591 237.111332 
L 45.09129 252.113288 
L 48.117142 255.958709 
L 77.665299 236.83546 
L 80.194678 239.664237 
L 71.487598 253.542047 
L 74.545322 256.556804 
L 111.623383 221.650839 
L 113.658534 223.419407 
L 78.854532 271.858344 
L 82.484518 274.632413 
L 84.844599 279.249444 
L 88.704017 281.831517 
L 118.053572 242.135435 
L 120.729624 243.691695 
L 113.196703 264.884681 
L 116.590443 266.582404 
L 105.255537 301.567433 
L 109.806589 303.496707 
L 126.793152 271.768851 
L 130.396623 273.035668 
L 139.502794 255.935353 
L 142.602141 256.81038 
L 143.215301 268.414532 
L 146.705184 269.16666 
L 149.695081 272.941114 
L 153.324086 273.487265 
L 155.429493 288.924475 
L 159.558215 289.282421 
L 165.53693 242.706314 
L 168.207455 242.769312 
L 172.002012 290.369209 
L 176.167967 290.205364 
L 179.298139 278.04658 
L 183.073035 277.659422 
L 188.960568 291.284876 
L 193.146928 290.587364 
L 196.138475 284.325985 
L 200.102483 283.406225 
L 200.584292 270.137702 
L 204.099991 269.085171 
L 206.264343 264.177781 
L 209.589841 262.949603 
L 210.396217 255.769973 
L 213.455312 254.416037 
L 208.656214 237.346223 
L 211.136886 236.056106 
L 227.544667 258.708708 
L 230.687683 256.814135 
L 215.66981 227.768006 
L 217.845855 226.262102 
L 239.737865 250.55107 
L 242.618359 248.277149 
L 268.859801 272.879928 
L 272.427965 269.679309 
L 240.778305 230.752178 
L 243.035764 228.455332 
L 236.34261 218.150937 
L 238.206052 215.99979 
L 257.470392 227.537332 
L 259.618516 224.71724 
L 263.637506 223.183253 
L 265.645679 220.171406 
L 264.835874 215.462775 
L 266.600706 212.417066 
L 262.629548 206.395785 
L 264.110385 203.42393 
L 278.573676 206.170045 
L 280.039532 202.696984 
L 273.943796 196.440797 
L 275.106032 193.11812 
L 318.013122 202.217913 
L 319.335214 197.506743 
L 285.694771 184.736241 
L 286.483181 181.049875 
L 310.65463 181.217926 
L 311.320075 176.748506 
L 253.393097 166.358363 
L 253.619636 163.696719 
L 255.34905 161.089172 
L 255.408947 158.368633 
L 309.351559 154.289542 
L 309.17096 149.874408 
L 263.774504 149.446585 
L 263.464167 146.466888 
L 268.554421 142.662742 
L 268.028422 139.536108 
L 247.233066 140.808009 
L 246.659292 138.352682 
L 252.11817 134.181342 
L 251.333624 131.575693 
L 252.713196 128.202559 
L 251.740369 125.581158 
L 266.755483 116.149496 
L 265.396739 113.092533 
L 297.996492 92.977272 
L 295.893716 88.94948 
L 271.72423 97.795876 
L 269.785951 94.59176 
L 284.226652 80.387805 
L 281.734843 76.799192 
L 286.061819 67.977156 
L 283.178885 64.336978 
L 284.371919 57.137386 
L 281.148994 53.555701 
L 272.170501 55.659883 
L 268.907153 52.462568 
L 266.601387 48.184141 
L 263.105739 45.165628 
L 233.059358 75.991254 
L 230.454611 74.013627 
L 245.328157 46.6035 
L 241.793329 44.254645 
L 215.354502 80.166046 
L 212.889774 78.743034 
L 220.576033 57.64443 
L 217.400594 56.068377 
L 216.729389 48.777091 
L 213.277043 47.32637 
L 203.23591 63.879228 
L 200.26508 62.845304 
L 198.615016 57.337726 
L 195.440791 56.452327 
L 201.444693 15.423424 
L 196.951192 14.469778 
L 183.852968 66.153294 
L 180.963223 65.727688 
L 182.772414 17.992525 
L 178.368923 17.624705 
L 172.865261 47.544091 
L 169.395835 47.473163 
L 166.583673 72.113541 
L 163.88987 72.227972 
L 160.419355 63.72917 
L 157.464976 64.041566 
L 154.039413 61.307955 
L 151.012061 61.822148 
L 150.887248 75.615686 
L 148.31132 76.221915 
L 135.068381 39.504487 
L 131.36486 40.625951 
L 140.715632 78.521967 
L 138.236114 79.446578 
L 109.565897 19.132115 
L 105.234433 21.065505 
L 123.840643 68.503476 
L 121.054464 69.963627 
L 101.061067 42.054391 
L 97.454534 44.243859 
L 90.370382 41.278009 
L 86.744724 43.803999 
L 109.33842 80.423577 
L 106.934206 82.333816 
L 115.566569 96.868453 
L 113.676338 98.574734 
L 70.462648 58.634968 
L 67.392573 61.778319 
L 88.162042 86.109312 
L 85.94707 88.682571 
L 46.287107 61.98589 
L 43.334346 65.887716 
L 72.598118 91.866435 
L 70.571858 94.926212 
L 39.323099 80.562634 
L 36.957875 84.674239 
L 70.026307 107.007178 
L 68.477377 110.140332 
L 75.757517 117.135245 
L 74.524202 120.083189 
L 51.003458 114.922536 
L 49.712809 118.649896 
L 44.731916 121.295477 
L 43.644747 125.216877 
L 59.713716 133.037913 
L 58.988348 136.482447 
L 41.913652 137.28566 
L 41.330643 141.287767 
L 69.318543 148.088037 
L 69.061635 151.223133 
L 80.011413 154.749159 
L 79.958658 157.544755 
L 56.979879 160.992156 
L 57.134805 164.508827 
L 73.212293 166.572857 
L 73.534663 169.576386 
L 51.98543 175.98011 
L 52.61408 179.646407 
L 44.829551 185.17122 
L 45.750727 189.057969 
L 16.273247 201.686197 
L 17.727809 206.462653 
L 29.05216 207.722181 
L 30.690188 212.093856 
L 90.092798 191.661001 
L 91.195648 194.121365 
L 75.375316 205.150607 
L 76.909586 208.067051 
L 90.853954 203.691617 
L 92.334697 206.122101 
L 55.741289 234.289616 
L 58.20146 237.80899 
L 45.686762 252.889954 
L 48.73674 256.716269 
L 78.164038 237.407556 
L 80.711158 240.220369 
L 72.091534 254.152668 
L 75.168159 257.148134 
L 112.025948 222.009659 
L 114.072182 223.765392 
L 79.573521 272.422269 
L 83.220883 275.173451 
L 85.609956 279.775548 
L 89.485537 282.333296 
L 118.584846 242.453407 
L 121.270633 243.992806 
L 113.871153 265.23275 
L 117.275503 266.909095 
L 106.160858 301.964722 
L 110.723954 303.865334 
L 127.51063 272.03127 
L 131.121997 273.275399 
L 140.120437 256.118149 
L 143.225226 256.973665 
L 143.911357 268.573732 
L 147.405903 269.303895 
L 150.419479 273.05947 
L 154.051848 273.582786 
L 156.254304 289.006449 
L 160.385196 289.33842 
L 166.070856 242.725632 
L 168.741724 242.771832 
L 172.835583 290.346922 
L 177.000424 290.156879 
L 180.054062 277.978649 
L 183.826449 277.567756 
L 189.799562 291.155911 
L 193.981452 290.432084 
L 196.933559 284.152013 
L 200.891704 283.207339 
L 201.290052 269.936049 
L 204.799062 268.861427 
L 206.932506 263.940521 
L 210.250213 262.691452 
L 211.011418 255.506893 
L 214.061937 254.133744 
L 209.155574 237.094451 
L 211.628084 235.788757 
L 228.178011 258.337716 
L 231.30905 256.423412 
L 216.10879 227.472311 
L 218.275321 225.952751 
L 240.319662 250.10355 
L 243.185797 247.811557 
L 269.581458 272.248806 
L 273.129421 269.025809 
L 241.235557 230.298507 
L 243.478526 227.987508 
L 236.720696 217.725413 
L 238.570571 215.562588 
L 257.907094 226.97874 
L 260.037439 224.145194 
L 264.046702 222.58596 
L 266.035892 219.561542 
L 265.196489 214.858098 
L 266.94213 211.801349 
L 262.93318 205.805163 
L 264.395297 202.824054 
L 278.875574 205.479148 
L 280.319557 201.996936 
L 274.184593 195.779212 
L 275.325908 192.449291 
L 318.289383 201.279042 
L 319.581818 196.559651 
L 285.861721 184.00098 
L 286.62693 180.309728 
L 310.798958 180.325751 
L 311.43628 175.852235 
L 253.445099 165.826625 
L 253.654894 163.163609 
L 255.367874 160.545237 
L 309.396025 157.824375 
z
" clip-path="url(#pf8d19f0dd4)" style="fill: #0000ff; opacity: 0.5; stroke: #000000; stroke-width: 1.5; stroke-linejoin: miter"/>
   </g>
  </g>
 </g>
 <defs>
  <clipPath id="pf8d19f0dd4">
   <rect x="0" y="-0" width="334.8" height="318.335112"/>
  </clipPath>
 </defs>
</svg>
