<?xml version="1.0" encoding="utf-8" standalone="no"?>
<!DOCTYPE svg PUBLIC "-//W3C//DTD SVG 1.1//EN"
  "http://www.w3.org/Graphics/SVG/1.1/DTD/svg11.dtd">
<svg xmlns:xlink="http://www.w3.org/1999/xlink" width="325.527005pt" height="332.64pt" viewBox="0 0 325.527005 332.64" xmlns="http://www.w3.org/2000/svg" version="1.1">
 <metadata>
  <rdf:RDF xmlns:dc="http://purl.org/dc/elements/1.1/" xmlns:cc="http://creativecommons.org/ns#" xmlns:rdf="http://www.w3.org/1999/02/22-rdf-syntax-ns#">
   <cc:Work>
    <dc:type rdf:resource="http://purl.org/dc/dcmitype/StillImage"/>
    <dc:date>2023-12-09T18:06:26.491470</dc:date>
    <dc:format>image/svg+xml</dc:format>
    <dc:creator>
     <cc:Agent>
      <dc:title>Matplotlib v3.8.2, https://matplotlib.org/</dc:title>
     </cc:Agent>
    </dc:creator>
   </cc:Work>
  </rdf:RDF>
 </metadata>
 <defs>
  <style type="text/css">*{stroke-linejoin: round; stroke-linecap: butt}</style>
 </defs>
 <g id="figure_1">
  <g id="patch_1">
   <path d="M 0 332.64 
L 325.527005 332.64 
L 325.527005 0 
L 0 0 
L 0 332.64 
z
" style="fill: none"/>
  </g>
  <g id="axes_1">
   <g id="patch_2">
    <path d="M 296.453638 167.742642 
L 296.387324 163.525518 
L 272.3402 160.814475 
L 272.067971 157.358955 
L 264.80464 154.784057 
L 264.346527 151.568454 
L 260.001827 149.091748 
L 259.367111 146.02997 
L 238.479392 148.170519 
L 237.826351 145.78591 
L 256.157194 137.223891 
L 255.151227 134.288865 
L 254.053474 131.38692 
L 252.86502 128.520925 
L 273.203848 115.509991 
L 271.506721 112.049716 
L 242.690039 123.511968 
L 241.259597 121.007158 
L 281.389056 92.091243 
L 278.951544 88.385187 
L 250.842456 103.34988 
L 248.774043 100.598709 
L 231.186843 110.699472 
L 229.359236 108.562683 
L 268.455353 67.933978 
L 265.264679 64.64653 
L 224.54069 101.386926 
L 222.423562 99.463711 
L 223.682734 93.447485 
L 221.316397 91.555171 
L 236.991312 64.776773 
L 233.716925 62.480184 
L 236.969901 49.86781 
L 233.226755 47.579266 
L 215.329787 71.092737 
L 212.264698 69.474111 
L 198.345688 90.981116 
L 195.914331 89.886675 
L 212.404197 40.828137 
L 208.388969 39.316462 
L 188.43078 87.069226 
L 185.881326 86.288464 
L 185.978517 75.132236 
L 183.054951 74.434481 
L 190.148183 20.813226 
L 185.514647 20.011224 
L 177.611072 45.361335 
L 173.755581 44.941391 
L 170.172226 40.026638 
L 166.152677 39.843225 
L 162.090565 15.12 
L 157.291894 15.203006 
L 156.172918 72.359218 
L 153.176898 72.599988 
L 142.944725 16.35599 
L 138.194382 17.040372 
L 141.776848 61.017845 
L 138.431348 61.716865 
L 126.421909 28.93927 
L 122.075381 30.136944 
L 125.674801 55.647972 
L 122.168422 56.855932 
L 124.975179 73.928576 
L 122.043928 75.149495 
L 123.437358 85.520362 
L 120.87134 86.783902 
L 115.737084 83.404566 
L 113.108348 84.911266 
L 113.843629 91.699411 
L 111.476637 93.261544 
L 86.437447 63.766851 
L 83.205744 66.204505 
L 91.384021 82.377307 
L 88.735025 84.650228 
L 64.999989 64.57828 
L 61.804398 67.689573 
L 67.718851 79.320921 
L 64.985457 82.339438 
L 58.182398 82.01323 
L 55.538371 85.330263 
L 76.740305 105.886084 
L 74.837717 108.607812 
L 57.376293 101.515673 
L 55.345864 104.848409 
L 80.479443 123.025774 
L 79.113917 125.621461 
L 72.942257 125.974611 
L 71.673175 128.805826 
L 44.664638 121.531672 
L 43.269841 125.254194 
L 30.252508 125.240788 
L 28.98146 129.414625 
L 51.7513 139.691479 
L 50.923984 143.182202 
L 16.115163 140.298264 
L 15.324545 144.909165 
L 76.646917 157.180986 
L 76.3572 159.880289 
L 79.999732 162.817513 
L 79.885582 165.408609 
L 73.68641 168.021405 
L 73.739003 170.808433 
L 36.960378 176.03408 
L 37.283065 179.971893 
L 38.493831 183.798503 
L 39.059891 187.684263 
L 85.148846 182.73265 
L 85.658326 185.152001 
L 55.659665 195.517579 
L 56.58571 198.857812 
L 47.364581 205.537521 
L 48.609777 209.133616 
L 74.300841 202.955223 
L 75.451526 205.705659 
L 78.080681 207.757159 
L 79.380481 210.386375 
L 28.181128 242.130455 
L 30.586371 246.311627 
L 48.704843 240.444557 
L 51.04693 243.981252 
L 45.414436 253.363124 
L 48.164338 256.996889 
L 50.435095 261.036011 
L 53.423767 264.508122 
L 82.272931 243.511384 
L 84.694849 245.991109 
L 90.871573 244.445515 
L 93.318611 246.654418 
L 64.541348 286.923003 
L 68.33699 289.938784 
L 86.642372 272.819156 
L 89.98363 275.147005 
L 105.29577 258.44511 
L 108.175854 260.193563 
L 114.057464 256.43431 
L 116.869992 257.908269 
L 108.344974 283.753106 
L 112.019289 285.393172 
L 125.004663 263.22563 
L 128.025313 264.352028 
L 131.314852 264.648756 
L 134.377128 265.576045 
L 137.843765 264.911681 
L 140.911079 265.633556 
L 140.615396 284.446198 
L 144.295548 285.071269 
L 146.876364 294.762475 
L 150.877787 295.185586 
L 154.756077 297.791229 
L 158.848834 297.965087 
L 162.930491 294.926919 
L 166.929146 294.845172 
L 170.037945 281.563699 
L 173.612918 281.265085 
L 180.988593 309.896374 
L 185.448993 309.239439 
L 191.664338 317.52 
L 196.359162 316.523627 
L 199.457114 309.41498 
L 203.893246 308.177593 
L 202.966857 290.699803 
L 206.812808 289.361314 
L 197.968903 256.432107 
L 200.739873 255.267709 
L 208.449756 264.453146 
L 211.467744 262.95524 
L 227.18264 284.263172 
L 230.814236 282.166469 
L 216.053875 251.416647 
L 218.658207 249.686097 
L 236.724621 268.994546 
L 239.87142 266.605371 
L 251.843371 274.761161 
L 255.16401 271.893769 
L 216.995834 225.320634 
L 218.779185 223.57337 
L 272.469897 270.029144 
L 275.631553 266.515548 
L 269.134452 255.096145 
L 271.828231 251.694806 
L 259.385819 237.421471 
L 261.528687 234.335389 
L 255.082121 225.862615 
L 256.863681 222.917566 
L 268.038361 225.062002 
L 269.788342 221.709976 
L 254.647214 210.525824 
L 255.946767 207.602033 
L 238.47645 197.371396 
L 239.370394 194.962552 
L 255.612778 197.43686 
L 256.500308 194.489181 
L 308.889426 204.430772 
L 309.970519 199.8045 
L 242.682369 182.563108 
L 243.108629 180.029343 
L 297.027771 183.916023 
L 297.4697 179.672851 
L 305.473873 175.853974 
L 305.658137 171.349224 
L 296.450985 166.899084 
L 296.358149 162.68246 
L 272.29445 160.122713 
L 272.000493 156.668975 
L 264.721111 154.139809 
L 264.242783 150.927151 
L 259.882592 148.47782 
L 259.228631 145.420095 
L 238.354788 147.691973 
L 237.686762 145.311518 
L 255.963393 136.634378 
L 254.938986 133.705737 
L 253.823003 130.810754 
L 252.616547 127.95229 
L 272.873142 114.813694 
L 271.154284 111.364162 
L 242.410263 123.007427 
L 240.964097 120.511664 
L 280.910897 91.343929 
L 278.450124 87.653277 
L 250.435711 102.794464 
L 248.350036 100.056357 
L 230.826712 110.267533 
L 228.985702 108.142281 
L 267.825514 67.268487 
L 264.614227 64.001172 
L 224.122119 100.996972 
L 221.992938 99.08711 
L 223.214246 93.063084 
L 220.836054 91.18569 
L 236.342238 64.309236 
L 233.053472 62.033286 
L 236.227059 49.400702 
L 232.469593 47.135746 
L 214.720866 70.761314 
L 211.645657 69.161997 
L 197.862189 90.75612 
L 195.423997 89.676991 
L 211.604987 40.515712 
L 207.58033 39.029321 
L 187.922874 86.906666 
L 185.36856 86.141954 
L 185.395582 74.985335 
L 182.467685 74.305982 
L 189.22353 20.641175 
L 184.585041 19.868331 
L 176.841061 45.26765 
L 172.983004 44.871963 
L 169.368809 39.979844 
L 165.348187 39.821715 
L 161.13066 15.124528 
L 156.332605 15.237714 
L 155.573132 72.399833 
L 152.578686 72.659441 
L 141.992973 16.48091 
L 137.247028 17.195156 
L 141.106016 61.149226 
L 137.764979 61.869275 
L 125.549625 29.16786 
L 121.210716 30.392848 
L 124.970514 55.880733 
L 121.471802 57.110722 
L 124.38588 74.165376 
L 121.462367 75.404707 
L 122.920996 85.766605 
L 120.362975 87.046258 
L 115.207567 83.699281 
L 112.588359 85.222484 
L 113.366319 92.00587 
L 111.009199 93.582859 
L 85.784999 64.246232 
L 82.568692 66.704164 
L 90.848524 82.825208 
L 88.213877 85.114745 
L 64.353069 65.192475 
L 61.17711 68.323805 
L 67.1646 79.917724 
L 64.450245 82.953373 
L 57.645268 82.669959 
L 55.022156 86.003555 
L 76.352955 106.425621 
L 74.467523 109.159262 
L 56.961839 102.177085 
L 54.952411 105.522526 
L 80.199819 123.541455 
L 78.850644 126.14568 
L 72.681328 126.537639 
L 71.430077 129.376779 
L 44.376324 122.272638 
L 43.004968 126.003859 
L 29.987808 126.072325 
L 28.743036 130.254074 
L 51.577062 140.387515 
L 50.771716 143.883372 
L 15.945445 141.218418 
L 15.183843 145.834201 
L 76.582185 157.720096 
L 76.309451 160.421168 
L 79.970384 163.335424 
L 79.872533 165.927187 
L 73.689916 168.578921 
L 73.760037 171.365563 
L 37.015006 176.822424 
L 37.362454 180.758129 
L 38.597263 184.577049 
L 39.18775 188.459171 
L 85.244652 183.217783 
L 85.769337 185.633881 
L 55.836463 196.187929 
L 56.783499 199.522272 
L 47.604563 206.259845 
L 48.872352 209.848037 
L 74.524049 203.508183 
L 75.69201 206.251328 
L 78.334016 208.286252 
L 79.650326 210.907241 
L 28.651638 242.972707 
L 31.083131 247.138669 
L 49.164344 241.157761 
L 51.528629 244.679655 
L 45.955253 254.096766 
L 48.727955 257.713165 
L 51.024071 261.737925 
L 54.034521 265.19117 
L 82.751057 244.013403 
L 85.188523 246.477846 
L 91.355404 244.893434 
L 93.816286 247.086903 
L 65.29286 287.535685 
L 69.107393 290.527533 
L 87.304741 273.293113 
L 90.660574 275.599902 
L 105.867366 258.802033 
L 108.758389 260.532337 
L 114.616239 256.736166 
L 117.437982 258.192407 
L 109.075682 284.09035 
L 112.760239 285.707274 
L 125.605936 263.4585 
L 128.63361 264.565878 
L 131.92495 264.841911 
L 134.992997 265.749921 
L 138.455388 265.063767 
L 141.527182 265.766336 
L 141.349824 284.580466 
L 145.033835 285.182378 
L 147.675553 294.85716 
L 151.679557 295.255097 
L 155.574159 297.836296 
L 159.667929 297.98441 
L 163.730396 294.92063 
L 167.728458 294.813735 
L 170.753663 281.512972 
L 174.326687 281.19188 
L 181.882291 309.776214 
L 186.33847 309.091238 
L 192.605772 317.332545 
L 197.294237 316.306664 
L 200.347418 309.178673 
L 204.77568 307.913409 
L 203.739384 290.441791 
L 207.576841 289.079141 
L 198.526005 256.206208 
L 201.289597 255.024405 
L 209.057098 264.161169 
L 212.065605 262.644312 
L 227.914205 283.852984 
L 231.532543 281.733482 
L 216.579074 251.077103 
L 219.17247 249.330207 
L 237.359967 268.524646 
L 240.491677 266.115727 
L 252.514686 274.19606 
L 255.817225 271.307839 
L 217.356886 224.975682 
L 219.129212 223.217236 
L 273.111043 269.334406 
L 276.250537 265.800995 
L 269.681744 254.422682 
L 272.354077 251.004468 
L 259.822139 236.80967 
L 261.945555 233.710172 
L 255.445828 225.27811 
L 257.20883 222.321915 
L 268.396776 224.396026 
L 270.125641 221.03306 
L 254.91447 209.944359 
L 256.195609 207.012451 
L 238.661292 196.891895 
L 239.540068 194.477477 
L 255.797693 196.84958 
L 256.666666 193.896377 
L 309.117275 203.508274 
L 310.16925 198.875294 
L 242.773992 182.057448 
L 243.184308 179.521052 
L 297.126829 183.068534 
L 297.542061 178.822666 
L 305.522058 174.953523 
L 305.677986 170.447703 
L 296.443027 166.055559 
L 296.323673 161.839603 
L 272.24435 159.431253 
L 271.928677 155.979432 
L 264.633531 153.4961 
L 264.135008 150.286514 
L 259.759498 147.864654 
L 259.086319 144.811102 
L 238.227177 147.214221 
L 237.544193 144.838014 
L 255.765888 136.046096 
L 254.723082 133.123956 
L 253.588913 130.236048 
L 252.364503 127.38523 
L 272.538062 114.11949 
L 270.797543 110.680837 
L 242.12732 122.504656 
L 240.665485 120.018037 
L 280.428047 90.599637 
L 277.944111 86.924535 
L 250.025481 102.241617 
L 247.922626 99.516682 
L 230.463871 109.837868 
L 228.609531 107.724237 
L 267.191502 66.606971 
L 263.959729 63.359917 
L 223.701105 100.609658 
L 221.559953 98.713225 
L 222.74335 92.681637 
L 220.353397 90.819238 
L 235.690237 63.84579 
L 232.387221 61.59057 
L 235.481294 48.938276 
L 231.709657 46.696996 
L 214.109872 70.433726 
L 211.024665 68.853783 
L 197.377285 90.534169 
L 194.932353 89.470396 
L 210.803827 40.20832 
L 206.769902 38.747271 
L 187.413955 86.747303 
L 184.854882 85.998672 
L 184.811735 74.842104 
L 181.879623 74.181179 
L 188.297813 20.474942 
L 183.654555 19.731288 
L 176.070476 45.17881 
L 172.210007 44.807395 
L 168.565114 39.938105 
L 164.543577 39.805266 
L 160.170802 15.135093 
L 155.373555 15.278454 
L 154.973613 72.444219 
L 151.980859 72.722655 
L 141.042024 16.611813 
L 136.300665 17.355894 
L 140.436023 61.284825 
L 137.099582 62.025872 
L 124.678795 29.401932 
L 120.347676 30.654185 
L 124.267705 56.117919 
L 120.776798 57.369889 
L 123.798083 74.405877 
L 120.882422 75.663571 
L 122.406193 86.01609 
L 119.856271 87.311807 
L 114.679914 83.99732 
L 112.070338 85.536966 
L 112.890946 92.315325 
L 110.543791 93.907108 
L 85.13558 64.729708 
L 81.934795 67.207819 
L 90.315855 83.276469 
L 87.69566 85.582531 
L 63.710024 65.810726 
L 60.553822 68.961969 
L 66.614113 80.518001 
L 63.918904 83.570661 
L 57.11228 83.330052 
L 54.510186 86.680081 
L 75.969006 106.967584 
L 74.100805 109.713029 
L 56.551553 102.841092 
L 54.563206 106.199104 
L 79.923443 124.058885 
L 78.590674 126.671544 
L 72.423945 127.102296 
L 71.190576 129.949251 
L 44.092677 123.015403 
L 42.744815 126.755175 
L 29.728343 126.90551 
L 28.509896 131.095005 
L 51.407204 141.084633 
L 50.623861 144.585486 
L 15.781518 142.139622 
L 15.048961 146.760104 
L 76.520845 158.259603 
L 76.265104 160.962337 
L 79.944294 163.85351 
L 79.862746 166.445837 
L 73.696929 169.136404 
L 73.784575 171.92255 
L 37.074591 177.610408 
L 37.446785 181.54385 
L 38.705589 185.354928 
L 39.320481 189.233259 
L 85.343506 183.702303 
L 85.883377 186.115054 
L 56.017474 196.857154 
L 56.985462 200.185475 
L 47.849084 206.980644 
L 49.139415 210.560792 
L 74.750731 204.059729 
L 75.935921 206.795474 
L 78.590674 208.81374 
L 79.923443 211.426398 
L 29.127437 243.811984 
L 31.585083 247.962571 
L 49.628322 241.86806 
L 52.014711 245.375015 
L 46.500673 254.826993 
L 49.296066 258.425881 
L 51.617449 262.43612 
L 54.649559 265.870363 
L 83.232331 244.512404 
L 85.685249 246.961468 
L 91.842043 245.338302 
L 94.316672 247.516249 
L 66.048209 288.143628 
L 69.881485 291.111426 
L 87.970077 273.762896 
L 91.340352 276.048532 
L 106.441194 259.155353 
L 109.343044 260.86744 
L 115.176902 257.034501 
L 118.007747 258.472967 
L 109.808496 284.422992 
L 113.50315 286.01671 
L 126.20866 263.687584 
L 129.243239 264.775898 
L 132.536251 265.031224 
L 135.609948 265.91992 
L 139.067955 265.212004 
L 142.144106 265.895239 
L 142.085083 284.710112 
L 145.772807 285.288842 
L 148.475321 294.946818 
L 152.481749 295.319563 
L 156.392508 297.876217 
L 160.487128 297.99858 
L 164.530246 294.90931 
L 168.527557 294.777272 
L 171.469047 281.457745 
L 175.039981 281.114187 
L 182.775215 309.650435 
L 187.226998 308.937446 
L 193.546009 317.139172 
L 198.227929 316.083824 
L 201.236219 308.936771 
L 205.656436 307.643681 
L 204.510273 290.178926 
L 208.339083 288.792167 
L 199.081674 255.97681 
L 201.837779 254.777648 
L 209.662592 263.865379 
L 212.661499 262.32963 
L 228.643176 283.438204 
L 232.248112 281.295986 
L 217.102128 250.734262 
L 219.684486 248.97109 
L 237.992345 268.05076 
L 241.108842 265.622193 
L 253.182434 273.626747 
L 256.466743 270.717812 
L 217.715761 224.628465 
L 219.476992 222.858907 
L 273.747806 268.63565 
L 276.865016 265.082563 
L 270.224789 253.745789 
L 272.87557 250.310835 
L 260.254604 236.195137 
L 262.358484 233.082345 
L 255.805852 224.69133 
L 257.550227 221.724104 
L 268.750996 223.727809 
L 270.458675 220.354036 
L 255.178064 209.361223 
L 256.440737 206.421317 
L 238.843114 196.411241 
L 239.706688 193.991344 
L 255.978911 196.261149 
L 256.829293 193.302539 
L 309.339317 202.584361 
L 310.362132 197.944856 
L 242.862433 181.551221 
L 243.256788 179.012295 
L 297.220554 182.220439 
L 297.609074 177.972043 
L 305.564578 174.052787 
L 305.692164 169.546076 
L 296.429764 165.212101 
L 296.283896 160.996979 
L 272.189902 158.740122 
L 271.852525 155.290354 
L 264.541905 152.852954 
L 264.023205 149.646567 
L 259.632549 147.252274 
L 258.940178 144.203017 
L 238.096564 146.73728 
L 237.398648 144.365416 
L 255.564686 135.459067 
L 254.503522 132.543544 
L 253.351213 129.662827 
L 252.108897 126.819765 
L 272.198623 113.427408 
L 270.436511 109.99977 
L 241.841221 122.003674 
L 240.363775 119.526299 
L 279.940525 89.858396 
L 277.433524 86.198989 
L 249.611782 101.691361 
L 247.491831 98.979705 
L 230.098335 109.410493 
L 228.230738 107.308567 
L 266.553342 65.949455 
L 263.30121 62.722792 
L 223.277662 100.225 
L 221.124626 98.342071 
L 222.270064 92.303159 
L 219.868445 90.455829 
L 235.035333 63.386454 
L 231.718199 61.152053 
L 234.732635 48.480549 
L 230.946976 46.263035 
L 213.49683 70.109988 
L 210.401747 68.549481 
L 196.890994 90.315272 
L 194.43942 89.266898 
L 210.000749 39.905973 
L 205.957715 38.470324 
L 186.904044 86.591145 
L 184.340314 85.858624 
L 184.226999 74.702547 
L 181.290788 74.060077 
L 187.371069 20.314536 
L 182.723226 19.600099 
L 175.299347 45.094817 
L 171.436618 44.74769 
L 167.761173 39.901421 
L 163.73888 39.793878 
L 159.21103 15.151695 
L 154.414779 15.325225 
L 154.374385 72.492375 
L 151.383442 72.789628 
L 140.091918 16.748695 
L 135.355333 17.522582 
L 139.766897 61.424635 
L 136.435182 62.186652 
L 123.809455 29.641476 
L 119.486298 30.920945 
L 123.566401 56.359521 
L 120.083438 57.633421 
L 123.21181 74.650071 
L 120.304117 75.926077 
L 121.892969 86.268808 
L 119.351246 87.580537 
L 114.154146 84.298672 
L 111.554305 85.8547 
L 112.417529 92.627764 
L 110.080431 94.234278 
L 84.489213 65.217258 
L 81.304078 67.715451 
L 89.786035 83.731072 
L 87.180396 86.053568 
L 63.070881 66.433009 
L 59.934561 69.604041 
L 66.067413 81.121728 
L 63.391457 84.19128 
L 56.583453 83.993485 
L 54.002481 87.359813 
L 75.588473 107.511951 
L 73.737576 110.269092 
L 56.145451 103.507665 
L 54.178263 106.878117 
L 79.650326 124.578043 
L 78.334016 127.199032 
L 72.170118 127.668562 
L 70.954679 130.523217 
L 43.813706 123.759936 
L 42.489392 127.508112 
L 29.474123 127.74031 
L 28.28205 131.937386 
L 51.241734 141.782805 
L 50.480425 145.288516 
L 15.623389 143.061839 
L 14.919906 147.686836 
L 76.462899 158.799485 
L 76.224162 161.503774 
L 79.921464 164.37175 
L 79.856221 166.964539 
L 73.707448 169.693832 
L 73.812615 172.479371 
L 37.139131 178.398001 
L 37.536057 182.329026 
L 38.818805 186.13211 
L 39.458078 190.006498 
L 85.445406 184.186193 
L 86.000441 186.5955 
L 56.20269 197.525227 
L 57.191593 200.847394 
L 48.098133 207.699892 
L 49.410956 211.271853 
L 74.980877 204.609838 
L 76.18325 207.338075 
L 78.850644 209.339604 
L 80.199819 211.943828 
L 29.608504 244.648251 
L 32.092207 248.783299 
L 50.096758 242.575427 
L 52.505156 246.067304 
L 47.050676 255.553775 
L 49.868648 259.13501 
L 52.215207 263.13057 
L 55.268857 266.545675 
L 83.716734 245.008369 
L 86.185006 247.441957 
L 92.331469 245.7801 
L 94.819748 247.94244 
L 66.807368 288.746808 
L 70.659233 291.690438 
L 88.638355 274.228484 
L 92.022939 276.492878 
L 107.017234 259.505057 
L 109.929794 261.198859 
L 115.739429 257.329305 
L 118.579266 258.749938 
L 110.543388 284.751018 
L 114.247993 286.321467 
L 126.812814 263.912873 
L 129.854178 264.982079 
L 133.14873 265.216689 
L 136.227956 266.086036 
L 139.681442 265.356384 
L 142.76183 266.020259 
L 142.821143 284.835131 
L 146.512433 285.390656 
L 149.275637 295.031443 
L 153.28433 295.378983 
L 157.211092 297.91099 
L 161.306401 298.007598 
L 165.330008 294.89296 
L 169.32641 294.735784 
L 172.18407 281.39802 
L 175.752772 281.032009 
L 183.66733 309.519043 
L 188.114541 308.778069 
L 194.485011 316.93989 
L 199.160201 315.855115 
L 202.12348 308.689284 
L 206.535477 307.368419 
L 205.279494 289.911218 
L 209.099506 288.500405 
L 199.63589 255.743921 
L 202.384399 254.527449 
L 210.266213 263.565786 
L 213.255402 262.011206 
L 229.369524 283.018847 
L 232.960915 280.853999 
L 217.623015 250.388138 
L 220.194232 248.608759 
L 238.621729 267.572907 
L 241.722891 265.124786 
L 253.846588 273.053246 
L 257.112536 270.123712 
L 218.072445 224.278999 
L 219.822512 222.498398 
L 274.380162 267.932903 
L 277.474963 264.360281 
L 270.763566 253.065494 
L 273.392691 249.613936 
L 260.683194 235.577896 
L 262.767455 232.451934 
L 256.162178 224.102297 
L 257.887856 221.124159 
L 269.101006 223.057377 
L 270.787432 219.672931 
L 255.437985 208.776442 
L 256.682142 205.828652 
L 239.02191 195.929454 
L 239.870247 193.504173 
L 256.156424 195.67159 
L 256.988181 192.70769 
L 309.555544 201.65907 
L 310.549159 197.013224 
L 242.947688 181.044448 
L 243.326067 178.503092 
L 297.308943 181.371771 
L 297.670736 177.121016 
L 305.601432 173.151802 
L 305.700671 168.644377 
L 296.411196 164.368743 
L 296.23882 160.154621 
L 272.131108 158.049347 
L 271.772041 154.601769 
L 264.446236 152.210397 
L 263.907379 149.007335 
L 259.501752 146.640705 
L 258.790217 143.595863 
L 237.962953 146.26117 
L 237.250134 143.893742 
L 255.359797 134.873316 
L 254.280317 131.964524 
L 253.109912 129.091111 
L 251.849739 126.25592 
L 271.854838 112.737474 
L 270.071203 109.320987 
L 241.551976 121.504502 
L 240.058978 119.036468 
L 279.448351 89.120237 
L 276.918384 85.476669 
L 249.194631 101.143718 
L 247.057667 98.445449 
L 229.730119 108.985426 
L 227.849339 106.895287 
L 265.911059 65.295966 
L 262.638698 62.089821 
L 222.851809 99.843012 
L 220.686973 97.973662 
L 221.794406 91.927666 
L 219.381217 90.095477 
L 234.377554 62.931246 
L 231.046432 60.717752 
L 233.981112 48.027539 
L 230.181581 45.833879 
L 212.881764 69.790112 
L 209.776928 68.249102 
L 196.403336 90.099437 
L 193.945217 89.066503 
L 209.195786 39.608683 
L 205.143802 38.19849 
L 186.393161 86.438197 
L 183.824874 85.721814 
L 183.641396 74.566671 
L 180.701203 73.94268 
L 186.443335 20.159961 
L 181.79109 19.474771 
L 174.527705 45.015677 
L 170.66287 44.692851 
L 166.957017 39.869793 
L 162.934127 39.787551 
L 158.251381 15.174333 
L 153.456316 15.378025 
L 153.775473 72.544298 
L 150.786458 72.860357 
L 139.142691 16.89155 
L 134.411067 17.695212 
L 139.098663 61.56865 
L 135.771807 62.351607 
L 122.941639 29.886484 
L 118.626615 31.193117 
L 122.866631 56.605528 
L 119.391749 57.901309 
L 122.627084 74.897947 
L 119.727474 76.192216 
L 121.381344 86.524749 
L 118.847922 87.852437 
L 113.630284 84.603325 
L 111.04028 86.175674 
L 111.946086 92.943175 
L 109.619139 94.564355 
L 83.845926 65.708863 
L 80.676566 68.22704 
L 89.259085 84.188997 
L 86.668104 86.527835 
L 62.435664 67.0593 
L 59.31935 70.249994 
L 65.52452 81.728882 
L 62.867923 84.815203 
L 56.05881 84.660231 
L 53.499061 88.042725 
L 75.211372 108.058701 
L 73.377852 110.827428 
L 55.74355 104.17678 
L 53.797599 107.559537 
L 79.380481 125.098909 
L 78.080681 127.728125 
L 71.919858 128.236412 
L 70.722397 131.098655 
L 43.539424 124.50621 
L 42.23871 128.26264 
L 29.225159 128.576693 
L 28.059507 132.781183 
L 51.080659 142.482004 
L 50.341414 145.992434 
L 15.471062 143.985032 
L 14.796682 148.614362 
L 76.40835 159.339721 
L 76.186626 162.045457 
L 79.901892 164.890123 
L 79.852958 167.483271 
L 73.721473 170.251182 
L 73.844158 173.036005 
L 37.208624 179.185174 
L 37.630266 183.113624 
L 38.936907 186.908566 
L 39.600535 190.778856 
L 85.550347 184.669431 
L 86.120525 187.0752 
L 56.392105 198.192122 
L 57.401882 201.508003 
L 48.3517 208.417558 
L 49.686963 211.981192 
L 75.214478 205.158489 
L 76.433987 207.879109 
L 79.113917 209.863823 
L 80.479443 212.45951 
L 30.094822 245.481477 
L 32.604482 249.600821 
L 50.569634 243.279834 
L 52.999946 246.756494 
L 47.605238 256.277083 
L 50.445678 259.840524 
L 52.817321 263.821246 
L 55.892389 267.217078 
L 84.204246 245.501277 
L 86.687776 247.919293 
L 92.823665 246.218811 
L 95.325494 248.365459 
L 67.570304 289.345201 
L 71.440607 292.264547 
L 89.309549 274.68986 
L 92.708307 276.932922 
L 107.595462 259.851132 
L 110.518617 261.526582 
L 116.3038 257.620565 
L 119.152516 259.023308 
L 111.280329 285.074415 
L 114.994737 286.621534 
L 127.418373 264.134357 
L 130.466401 265.184413 
L 133.762364 265.398298 
L 136.846997 266.248261 
L 140.295825 265.496904 
L 143.380328 266.141391 
L 143.557974 284.955518 
L 147.252685 285.487816 
L 150.07647 295.111034 
L 154.08727 295.433354 
L 158.029878 297.940614 
L 162.125714 298.011463 
L 166.129653 294.871581 
L 170.124987 294.689272 
L 172.898703 281.333799 
L 176.465033 280.94535 
L 184.558601 309.382042 
L 189.001064 308.613113 
L 195.422741 316.734705 
L 200.091016 315.620548 
L 203.009168 308.436221 
L 207.41277 307.087633 
L 206.047016 289.638677 
L 209.858079 288.203867 
L 200.188631 255.507551 
L 202.929434 254.273816 
L 210.867938 263.262402 
L 213.847291 261.689053 
L 230.09322 282.59493 
L 233.670924 280.407536 
L 218.141715 250.038745 
L 220.70169 248.24323 
L 239.248096 267.091104 
L 242.333799 264.623527 
L 254.507122 272.475579 
L 257.754581 269.525562 
L 218.426925 223.927296 
L 220.165758 222.135723 
L 275.008086 267.226193 
L 278.080356 263.634177 
L 271.298053 252.381824 
L 273.905418 248.913799 
L 261.107894 234.957972 
L 263.172453 231.818963 
L 256.514792 223.511034 
L 258.221706 220.522102 
L 269.446793 222.384757 
L 271.111899 218.989771 
L 255.694223 208.190037 
L 256.919816 205.23448 
L 239.197673 195.446551 
L 240.030739 193.015983 
L 256.330225 195.080926 
L 257.143325 192.111853 
L 309.765948 200.732437 
L 310.730323 196.080434 
L 243.029755 180.537149 
L 243.392142 177.993463 
L 297.391993 180.522564 
L 297.727043 176.269617 
L 305.632619 172.250602 
L 296.453638 167.742642 
z
" clip-path="url(#pc8492691b1)" style="fill: #0000ff; opacity: 0.5; stroke: #000000; stroke-width: 1.5; stroke-linejoin: miter"/>
   </g>
  </g>
 </g>
 <defs>
  <clipPath id="pc8492691b1">
   <rect x="0" y="-0" width="325.527005" height="332.64"/>
  </clipPath>
 </defs>
</svg>
