<?xml version="1.0" encoding="utf-8" standalone="no"?>
<!DOCTYPE svg PUBLIC "-//W3C//DTD SVG 1.1//EN"
  "http://www.w3.org/Graphics/SVG/1.1/DTD/svg11.dtd">
<svg xmlns:xlink="http://www.w3.org/1999/xlink" width="334.8pt" height="317.162538pt" viewBox="0 0 334.8 317.162538" xmlns="http://www.w3.org/2000/svg" version="1.1">
 <metadata>
  <rdf:RDF xmlns:dc="http://purl.org/dc/elements/1.1/" xmlns:cc="http://creativecommons.org/ns#" xmlns:rdf="http://www.w3.org/1999/02/22-rdf-syntax-ns#">
   <cc:Work>
    <dc:type rdf:resource="http://purl.org/dc/dcmitype/StillImage"/>
    <dc:date>2023-12-09T18:06:17.839838</dc:date>
    <dc:format>image/svg+xml</dc:format>
    <dc:creator>
     <cc:Agent>
      <dc:title>Matplotlib v3.8.2, https://matplotlib.org/</dc:title>
     </cc:Agent>
    </dc:creator>
   </cc:Work>
  </rdf:RDF>
 </metadata>
 <defs>
  <style type="text/css">*{stroke-linejoin: round; stroke-linecap: butt}</style>
 </defs>
 <g id="figure_1">
  <g id="patch_1">
   <path d="M 0 317.162538 
L 334.8 317.162538 
L 334.8 0 
L 0 0 
L 0 317.162538 
z
" style="fill: none"/>
  </g>
  <g id="axes_1">
   <g id="patch_2">
    <path d="M 298.653372 152.619711 
L 298.586006 148.335716 
L 293.64047 144.354693 
L 293.315713 140.232401 
L 319.581818 132.743383 
L 318.87915 127.811179 
L 316.465566 123.20067 
L 315.464395 118.371166 
L 309.708584 114.758686 
L 308.445318 110.145811 
L 311.557456 104.104787 
L 309.958294 99.439046 
L 308.949635 94.534006 
L 307.050837 89.954993 
L 257.712701 107.719336 
L 256.253812 104.744805 
L 290.7888 81.955143 
L 288.503474 77.953366 
L 266.704215 86.345609 
L 264.568843 83.098933 
L 266.816436 76.658882 
L 264.376436 73.413467 
L 272.205821 61.655292 
L 269.291411 58.247842 
L 232.802785 86.410311 
L 230.686209 84.229539 
L 220.375231 90.784835 
L 218.402345 88.992649 
L 234.028016 65.885143 
L 231.265478 63.675995 
L 252.150333 28.848387 
L 248.214319 26.087745 
L 233.175112 40.853027 
L 229.625931 38.683073 
L 203.538417 77.605675 
L 201.159473 76.349392 
L 221.958609 25.685829 
L 217.938084 23.876045 
L 199.326158 59.037113 
L 196.365461 57.922453 
L 200.686383 34.290819 
L 196.946935 33.145626 
L 192.389384 35.188668 
L 188.682268 34.303907 
L 181.265233 52.994243 
L 178.123464 52.450446 
L 173.395817 64.582453 
L 170.622298 64.280358 
L 169.005759 45.089741 
L 165.621516 44.935317 
L 162.204199 25.875789 
L 158.219191 25.94472 
L 155.922386 52.22558 
L 152.768979 52.478997 
L 145.097324 17.473391 
L 140.856584 18.084355 
L 140.082649 36.719059 
L 136.449515 37.47818 
L 135.222833 47.553995 
L 131.932775 48.460562 
L 127.195595 44.952627 
L 123.827714 46.112874 
L 112.878795 28.243664 
L 108.992626 29.862324 
L 97.029916 14.416479 
L 92.716826 16.540299 
L 105.710407 50.000476 
L 102.511864 51.833768 
L 88.299542 36.400658 
L 84.682 38.788111 
L 98.888224 65.60192 
L 96.183598 67.642003 
L 73.291797 45.397413 
L 69.964552 48.252294 
L 91.191016 77.138901 
L 88.852943 79.415297 
L 87.166349 82.304964 
L 84.992698 84.70535 
L 68.828815 75.593841 
L 66.453219 78.574118 
L 40.417299 64.459591 
L 37.705665 68.338693 
L 47.845954 80.332994 
L 45.629742 83.970675 
L 24.064174 77.04222 
L 21.756251 81.429279 
L 73.412563 111.037354 
L 72.149122 113.855983 
L 63.601659 113.817237 
L 62.430475 116.942968 
L 17.622108 106.030004 
L 16.228809 110.605283 
L 44.925441 122.818496 
L 44.04651 126.526998 
L 17.592311 125.4389 
L 16.809286 130.005519 
L 54.694046 139.343078 
L 54.329854 142.736263 
L 46.165163 145.666193 
L 46.004 149.324419 
L 62.593018 152.93359 
L 62.652237 156.071694 
L 69.923908 158.735909 
L 70.161939 161.640645 
L 36.711449 168.916122 
L 37.285989 172.860097 
L 40.317113 176.330977 
L 41.12301 180.157916 
L 20.584313 189.546552 
L 21.815493 193.9874 
L 73.605111 181.812037 
L 74.566886 184.589619 
L 36.634483 202.928312 
L 38.278479 206.857891 
L 53.64058 204.276711 
L 55.318565 207.670914 
L 71.650612 202.943507 
L 73.277773 205.772095 
L 56.977179 220.075352 
L 59.150258 223.356834 
L 49.921611 234.992898 
L 52.567218 238.488847 
L 67.489853 231.75441 
L 70.024949 234.699576 
L 54.816043 254.443448 
L 58.070798 257.775888 
L 93.827044 226.228526 
L 96.175372 228.348326 
L 63.918431 272.64815 
L 67.741082 275.68539 
L 113.78948 220.109653 
L 115.935548 221.604815 
L 80.598451 282.714356 
L 84.729359 285.222163 
L 101.812631 263.942708 
L 105.342828 265.792776 
L 126.308512 230.184786 
L 128.765174 231.28134 
L 130.101456 235.251236 
L 132.715543 236.226027 
L 134.87605 238.627045 
L 137.593919 239.450043 
L 125.044163 300.869898 
L 129.723945 301.971258 
L 144.579675 248.410084 
L 147.600347 248.923142 
L 150.539984 250.127322 
L 153.611702 250.452126 
L 156.093342 260.960722 
L 159.50294 261.10556 
L 162.915407 261.143121 
L 166.327368 261.073368 
L 170.377664 270.380457 
L 174.076377 270.071507 
L 175.289444 250.796476 
L 178.369965 250.342772 
L 190.56968 296.435341 
L 195.077632 295.478628 
L 185.496598 240.741374 
L 188.255918 239.971706 
L 204.164178 278.97901 
L 208.116544 277.603487 
L 205.52582 259.933763 
L 208.878688 258.524843 
L 229.234267 292.761708 
L 233.607595 290.591111 
L 233.672874 280.670265 
L 237.663826 278.366087 
L 210.765575 227.943589 
L 213.110011 226.385737 
L 253.865077 277.10086 
L 257.733816 274.16356 
L 228.981584 232.21824 
L 231.451418 230.085523 
L 239.852549 234.195451 
L 242.379176 231.71995 
L 227.993805 213.53349 
L 229.876638 211.441069 
L 228.626853 206.782926 
L 230.29712 204.673938 
L 255.709327 219.606711 
L 257.769412 216.639851 
L 255.036422 210.665341 
L 256.815704 207.724059 
L 262.679805 206.993877 
L 264.339868 203.814086 
L 241.46266 189.258847 
L 242.575586 186.754938 
L 262.803318 191.685789 
L 263.982 188.509683 
L 271.853698 187.460626 
L 272.895057 184.002046 
L 242.321154 172.625525 
L 242.910667 170.102847 
L 277.697028 173.884991 
L 278.30865 170.249395 
L 281.951664 166.974114 
L 282.34389 163.20816 
L 286.571921 159.655816 
L 286.731759 155.748209 
L 298.650677 151.762776 
L 298.556369 147.47929 
L 293.585892 143.52945 
L 293.235214 139.409282 
L 319.453699 131.755213 
L 318.720023 126.827527 
L 316.27749 122.232288 
L 315.245963 117.409177 
L 309.467546 113.832969 
L 308.175293 109.22813 
L 311.249374 103.167652 
L 309.6209 98.512062 
L 308.581411 93.613462 
L 306.653851 89.046482 
L 257.428418 107.120783 
L 255.950849 104.155487 
L 290.341821 81.14907 
L 288.031371 77.161745 
L 266.285326 85.690927 
L 264.129576 82.457746 
L 266.33662 76.003686 
L 263.876257 72.773682 
L 271.631534 60.966497 
L 268.695751 57.577444 
L 232.384973 85.968849 
L 230.254723 83.801432 
L 219.985178 90.421449 
L 218.001059 88.641707 
L 233.481088 65.436381 
L 230.704711 63.244651 
L 251.370107 28.286378 
L 247.416807 25.550547 
L 232.470763 40.410124 
L 228.908005 38.262535 
L 203.065808 77.348443 
L 200.67901 76.107147 
L 221.159088 25.313772 
L 217.12726 23.529311 
L 198.736846 58.806741 
L 195.769197 57.710725 
L 199.941404 34.052382 
L 196.194827 32.93073 
L 191.650216 35.002397 
L 187.937609 34.140969 
L 180.638272 52.877583 
L 177.493145 52.353557 
L 172.841896 64.515058 
L 170.066531 64.230413 
L 168.329325 45.050343 
L 164.944179 44.917207 
L 161.407055 25.879549 
L 157.42256 25.973543 
L 155.291092 52.268328 
L 152.139341 52.541573 
L 144.247672 17.58491 
L 140.010859 18.222533 
L 139.354142 36.861737 
L 135.725853 37.643693 
L 134.562566 47.727024 
L 131.278276 48.654265 
L 126.519126 45.176194 
L 123.158609 46.3576 
L 112.097519 28.557606 
L 108.221608 30.200676 
L 96.161989 14.830375 
L 91.862342 16.98128 
L 105.066112 50.359073 
L 101.879163 52.212446 
L 87.570056 36.869029 
L 83.967601 39.279186 
L 98.342188 66.003116 
L 95.650446 68.06017 
L 72.619192 45.959996 
L 69.309969 48.835746 
L 90.717693 77.58828 
L 88.393984 79.879336 
L 86.725597 82.779554 
L 84.567086 85.193563 
L 68.346217 76.183897 
L 65.989412 79.179055 
L 39.865234 65.228559 
L 37.178051 69.124639 
L 47.393577 81.054926 
L 45.200288 84.706473 
L 23.59157 77.913791 
L 21.311285 82.315279 
L 73.152794 111.597879 
L 71.907105 114.424399 
L 63.359568 114.439412 
L 62.208066 117.572447 
L 17.331948 106.941518 
L 15.967453 111.52547 
L 44.740331 123.557956 
L 43.884742 127.271912 
L 17.424223 126.350218 
L 16.669935 130.921672 
L 54.612674 140.020772 
L 54.269831 143.41618 
L 46.123728 146.397404 
L 45.985577 150.056571 
L 62.596967 153.561335 
L 62.675921 156.699005 
L 69.964205 159.317432 
L 70.2205 162.220614 
L 36.81643 169.706331 
L 37.415764 173.646615 
L 40.468659 177.098362 
L 41.298609 180.920157 
L 20.819367 190.437784 
L 22.078453 194.8708 
L 73.790471 182.369951 
L 74.769696 185.141429 
L 36.953383 203.718332 
L 38.622061 207.637494 
L 53.967625 204.959746 
L 55.666924 208.343329 
L 71.968915 203.513296 
L 73.613834 206.331594 
L 57.403522 220.73709 
L 59.597196 224.004839 
L 50.441916 235.698716 
L 53.109459 239.177957 
L 67.989443 232.349798 
L 70.543012 235.278961 
L 55.458584 255.118098 
L 58.734235 258.430002 
L 94.291358 226.658377 
L 96.652972 228.763365 
L 64.67529 273.265191 
L 68.516968 276.278329 
L 114.214915 220.414073 
L 116.370344 221.895708 
L 81.418291 283.22629 
L 85.564889 285.708066 
L 102.513988 264.321589 
L 106.055751 266.149417 
L 126.797066 230.410268 
L 129.260576 231.49135 
L 130.6218 235.452763 
L 133.241967 236.411094 
L 135.417532 238.798475 
L 138.140523 239.604364 
L 125.977312 301.101935 
L 130.663928 302.17384 
L 145.182495 248.520291 
L 148.206334 249.014341 
L 151.153486 250.200008 
L 154.227187 250.505487 
L 156.77487 260.998266 
L 160.185312 261.121657 
L 163.597948 261.137755 
L 167.009402 261.046544 
L 171.118155 270.327975 
L 174.814852 269.995769 
L 175.906665 250.713489 
L 178.984272 250.240419 
L 191.473641 296.255347 
L 195.975487 295.2703 
L 186.050377 240.594389 
L 188.804802 239.807381 
L 204.95808 278.71386 
L 208.901717 277.313506 
L 206.199911 259.660425 
L 209.543852 258.230446 
L 230.114359 292.338608 
L 234.473949 290.140549 
L 234.47683 280.219488 
L 238.453211 277.890255 
L 211.238363 227.637929 
L 213.572955 226.065363 
L 254.646184 276.523156 
L 258.496373 273.561582 
L 229.480896 231.797927 
L 231.937268 229.649718 
L 240.364082 233.706727 
L 242.875089 231.215383 
L 228.375621 213.119759 
L 230.245256 211.015538 
L 228.966199 206.365347 
L 230.623169 204.245896 
L 256.128792 219.018546 
L 258.170177 216.038787 
L 255.399664 210.081584 
L 257.160411 207.12917 
L 263.019804 206.36212 
L 264.659836 203.171951 
L 241.691536 188.760885 
L 242.788691 186.250026 
L 263.047036 191.053558 
L 264.205719 187.870102 
L 272.070663 186.771558 
L 273.090249 183.306496 
L 242.445398 172.122492 
L 243.019033 169.596157 
L 277.828494 173.159439 
L 278.417239 169.520069 
L 282.039581 166.22194 
L 282.408113 162.453593 
L 286.613718 158.874727 
L 286.748977 154.966193 
L 298.642593 150.905876 
L 298.521346 146.623067 
L 293.526125 142.704567 
L 293.14954 138.586686 
L 319.319366 130.767869 
L 318.554713 125.844894 
L 316.083327 121.265109 
L 315.021486 116.448581 
L 309.22069 112.908787 
L 307.899501 108.312166 
L 310.935405 102.232474 
L 309.277681 97.587218 
L 308.207404 92.695253 
L 306.251158 88.140487 
L 257.140377 106.52403 
L 255.644187 103.568085 
L 289.889781 80.345824 
L 287.554298 76.37311 
L 265.862327 85.038893 
L 263.686285 81.819334 
L 265.852693 75.351521 
L 263.372064 72.137055 
L 271.052927 60.281327 
L 268.095887 56.910805 
L 231.964393 85.530023 
L 229.820553 83.376047 
L 219.592848 90.060522 
L 217.597574 88.293295 
L 232.931349 64.991067 
L 230.141241 62.816843 
L 250.586361 27.729288 
L 246.615932 25.018374 
L 231.763643 39.97166 
L 228.187448 37.846521 
L 202.59159 77.094189 
L 200.197032 75.867929 
L 220.357244 24.94675 
L 216.314273 23.187682 
L 198.146097 58.58008 
L 195.171613 57.50275 
L 199.19494 33.818634 
L 195.441383 32.720569 
L 190.909891 34.820777 
L 187.19194 33.982717 
L 180.01059 52.76487 
L 176.862229 52.260635 
L 172.287561 64.451149 
L 169.510461 64.183965 
L 167.652658 45.0152 
L 164.266741 44.903358 
L 160.609951 25.888323 
L 156.626125 26.007375 
L 154.660079 52.315045 
L 151.510109 52.608109 
L 143.398739 17.70177 
L 139.16602 18.366028 
L 138.626545 37.008994 
L 135.003247 37.813754 
L 133.903402 47.904202 
L 130.625008 48.852082 
L 125.844077 45.404011 
L 122.491057 46.60653 
L 111.318234 28.876456 
L 107.452733 30.543871 
L 95.296683 15.249722 
L 91.010649 17.427626 
L 104.424084 50.721715 
L 101.248855 52.595096 
L 86.84353 37.341978 
L 83.256305 39.774745 
L 97.798686 66.407739 
L 95.119935 68.481681 
L 71.950138 46.526798 
L 68.659068 49.423305 
L 90.247205 78.040627 
L 87.937952 80.346253 
L 86.287839 83.256906 
L 84.144554 85.684444 
L 67.867339 76.776975 
L 65.529419 79.786898 
L 39.318017 66.000984 
L 36.655391 69.913887 
L 46.94575 81.779689 
L 44.77547 85.444958 
L 23.124458 78.788317 
L 20.871901 83.204059 
L 72.896555 112.160027 
L 71.668668 114.994325 
L 63.121394 115.063097 
L 61.98962 118.203313 
L 17.047528 107.85484 
L 15.71189 112.447282 
L 44.559877 124.298565 
L 43.727663 128.01783 
L 17.261871 127.262575 
L 16.536349 131.838682 
L 54.535566 140.698964 
L 54.214084 144.096462 
L 46.086893 147.128861 
L 45.971759 150.788824 
L 62.604863 154.189043 
L 62.703549 157.326154 
L 70.008158 159.89869 
L 70.282708 162.800203 
L 36.926379 170.495865 
L 37.550484 174.432301 
L 40.625027 177.864779 
L 41.478998 181.681278 
L 21.060021 191.32752 
L 22.346964 195.75253 
L 73.979335 182.926688 
L 74.975973 185.691953 
L 37.277245 204.506332 
L 38.97054 208.414921 
L 54.298959 205.640711 
L 56.019505 209.013539 
L 72.290796 204.081071 
L 73.953408 206.888968 
L 57.834018 221.396133 
L 60.048202 224.650021 
L 50.96665 236.401248 
L 53.656023 239.863642 
L 68.492767 232.942031 
L 71.064709 235.855077 
L 56.105356 255.788693 
L 59.401772 259.07993 
L 94.758366 227.0853 
L 97.133173 229.175393 
L 65.436015 273.87746 
L 69.296567 276.866376 
L 114.642256 220.715811 
L 116.806961 222.18386 
L 82.241334 283.733058 
L 86.403459 286.188705 
L 103.217714 264.69605 
L 106.770903 266.501567 
L 127.287029 230.632674 
L 129.75729 231.698241 
L 131.143402 235.651014 
L 133.769544 236.592846 
L 135.960081 238.966497 
L 138.688087 239.755244 
L 126.911901 301.328098 
L 131.605167 302.370506 
L 145.785996 248.626705 
L 148.812882 249.101727 
L 151.767433 250.268834 
L 154.842994 250.554975 
L 157.456621 261.031524 
L 160.867772 261.133462 
L 164.280441 261.128096 
L 167.691255 261.015431 
L 171.858301 270.270837 
L 175.552835 269.915387 
L 176.523353 250.626621 
L 179.597923 250.134204 
L 192.376453 296.069671 
L 196.872015 295.05633 
L 186.60322 240.443923 
L 189.35264 239.639608 
L 205.750299 278.443722 
L 209.68505 277.018592 
L 206.872271 259.382853 
L 210.207151 257.931871 
L 230.991772 291.909982 
L 235.337452 289.684547 
L 235.277934 279.763664 
L 239.239588 277.409468 
L 211.709219 227.329302 
L 214.033874 225.742083 
L 255.423642 275.940551 
L 259.255128 272.95482 
L 229.977556 231.374482 
L 232.420368 229.210867 
L 240.872531 233.214795 
L 243.36782 230.707708 
L 228.754827 212.703635 
L 230.611191 210.587696 
L 229.302912 205.945643 
L 230.946519 203.815812 
L 256.544549 218.427753 
L 258.567152 215.435215 
L 255.759227 209.495554 
L 257.501371 206.532124 
L 263.355824 205.728238 
L 264.975758 202.527817 
L 241.917275 188.261493 
L 242.998617 185.743783 
L 263.286772 190.419807 
L 264.42541 187.229126 
L 272.283289 186.081138 
L 273.281062 182.609732 
L 242.566476 171.618688 
L 243.124211 169.088795 
L 277.955394 172.433075 
L 278.521238 168.790074 
L 282.122765 165.469227 
L 282.467589 161.698638 
L 286.650602 158.093392 
L 286.761275 154.184084 
L 298.629119 150.049043 
L 298.480938 145.767081 
L 293.461171 141.880076 
L 293.058695 137.764645 
L 319.178827 129.781389 
L 318.383226 124.863321 
L 315.883085 120.29917 
L 314.790972 115.489415 
L 308.968027 111.986175 
L 307.617954 107.397955 
L 310.61556 101.299289 
L 308.928653 96.664551 
L 307.827629 91.779414 
L 305.842775 87.237042 
L 256.848587 105.9291 
L 255.333836 102.982624 
L 289.432697 79.545437 
L 287.072275 75.58749 
L 265.435236 84.389532 
L 263.238988 81.183723 
L 265.364674 74.702412 
L 262.863876 71.503612 
L 270.470022 59.59981 
L 267.491841 56.247953 
L 231.541061 85.093852 
L 229.383716 82.953401 
L 219.198255 89.702071 
L 217.191905 87.947427 
L 232.378819 64.54922 
L 229.575092 62.392587 
L 249.799127 27.177138 
L 245.811727 24.491249 
L 231.053779 39.537652 
L 227.464288 37.435047 
L 202.115782 76.842923 
L 199.713559 75.631747 
L 219.553107 24.584779 
L 215.499152 22.851174 
L 197.553934 58.35714 
L 194.572733 57.298539 
L 198.447021 33.589587 
L 194.686632 32.515151 
L 190.168439 34.643818 
L 186.44529 33.829158 
L 179.382211 52.656106 
L 176.230742 52.171682 
L 171.732835 64.390728 
L 168.95411 64.141016 
L 166.975783 44.984314 
L 163.589229 44.893769 
L 159.812918 25.90211 
L 155.82992 26.046215 
L 154.029373 52.365731 
L 150.881309 52.6786 
L 142.550558 17.823968 
L 138.3221 18.514834 
L 137.89989 37.160824 
L 134.281725 37.988357 
L 133.245364 48.085523 
L 129.972997 49.054003 
L 125.170474 45.63607 
L 121.825083 46.859653 
L 110.540969 29.200201 
L 106.686032 30.891894 
L 94.434031 15.674503 
L 90.161779 17.879321 
L 103.784351 51.088388 
L 100.620966 52.981702 
L 86.119993 37.819487 
L 82.548139 40.274768 
L 97.257739 66.815772 
L 94.592085 68.906521 
L 71.284663 47.097796 
L 68.011875 50.014945 
L 89.779572 78.495924 
L 87.484865 80.816028 
L 85.853091 83.737002 
L 83.725117 86.177972 
L 67.392201 77.373054 
L 65.073258 80.397621 
L 38.775669 66.776835 
L 36.137706 70.706407 
L 46.50249 82.507254 
L 44.355305 86.1861 
L 22.662855 79.665763 
L 20.438115 84.095585 
L 72.643857 112.723775 
L 71.433821 115.56574 
L 62.887148 115.688268 
L 61.775146 118.83554 
L 16.768857 108.769932 
L 15.46213 113.370684 
L 44.384084 125.040295 
L 43.575278 128.76472 
L 17.105259 128.175935 
L 16.408533 132.756515 
L 54.462725 141.377628 
L 54.162618 144.77708 
L 46.054659 147.860535 
L 45.962547 151.52115 
L 62.616707 154.816688 
L 62.735122 157.953117 
L 70.055766 160.47966 
L 70.348559 163.379389 
L 37.041292 171.284691 
L 37.690142 175.217125 
L 40.786213 178.630197 
L 41.664171 182.44125 
L 21.306267 192.215724 
L 22.621015 196.632553 
L 74.171698 183.482227 
L 75.185707 186.241168 
L 37.606058 205.292279 
L 39.323902 209.190141 
L 54.634569 206.319579 
L 56.376294 209.681519 
L 72.616241 204.646811 
L 74.29648 207.444195 
L 58.268651 222.052455 
L 60.503256 225.292353 
L 51.495793 237.100465 
L 54.206889 240.545876 
L 68.999806 233.531088 
L 71.590019 236.427899 
L 56.756333 256.455208 
L 60.073384 259.725647 
L 95.22805 227.509276 
L 97.615956 229.584392 
L 66.200575 274.484932 
L 70.07985 277.449509 
L 115.071487 221.014855 
L 117.245382 222.46926 
L 83.067548 284.234639 
L 87.245036 286.664061 
L 103.923782 265.066079 
L 107.488256 266.849212 
L 127.778381 230.851994 
L 130.255295 231.902003 
L 131.66624 235.84598 
L 134.298253 236.771277 
L 136.503676 239.131104 
L 139.23659 239.902677 
L 127.847895 301.548379 
L 132.547623 302.561248 
L 146.390154 248.72932 
L 149.419968 249.185295 
L 152.381801 250.333798 
L 155.459101 250.600589 
L 158.138568 261.060492 
L 161.550292 261.140975 
L 164.96286 261.114145 
L 168.372898 260.98003 
L 172.598073 270.209044 
L 176.290298 269.830365 
L 177.139481 250.535877 
L 180.210894 250.024132 
L 193.278079 295.878321 
L 197.767179 294.836725 
L 187.155106 240.289983 
L 189.899413 239.468392 
L 206.540804 278.168606 
L 210.466513 276.718758 
L 207.542871 259.101058 
L 210.868559 257.62913 
L 231.866472 291.475845 
L 236.198069 289.223122 
L 236.076156 279.30281 
L 240.022925 276.923744 
L 212.178125 227.017719 
L 214.492752 225.415911 
L 256.197421 275.353068 
L 260.010052 272.343298 
L 230.471542 230.947922 
L 232.900698 228.768985 
L 241.377877 232.719675 
L 243.857348 230.196944 
L 229.131408 212.285134 
L 230.974428 210.157562 
L 229.636979 205.523828 
L 231.267158 203.383703 
L 256.956583 217.834358 
L 258.960324 214.829157 
L 256.115098 208.907275 
L 257.838568 205.932946 
L 263.687849 205.092254 
L 265.287623 201.881708 
L 242.139869 187.760691 
L 243.205354 185.23623 
L 263.522518 189.784561 
L 264.641066 186.586782 
L 272.49157 185.389394 
L 273.46749 181.911781 
L 242.684384 171.114133 
L 243.226196 168.580781 
L 278.077724 171.705927 
L 278.620644 168.059439 
L 282.201213 164.716007 
L 282.522316 160.943323 
L 286.682571 157.311839 
L 286.768655 153.401913 
L 298.610257 149.192312 
L 298.435147 144.911367 
L 293.391033 141.05601 
L 292.962681 136.943192 
L 319.032086 128.795813 
L 318.205569 123.882846 
L 315.676771 119.33451 
L 314.554429 114.531719 
L 308.709566 111.065171 
L 307.330663 106.485533 
L 310.289852 100.368134 
L 308.573829 95.744097 
L 307.442102 90.865982 
L 305.428718 86.336183 
L 256.553062 105.336017 
L 255.019808 102.399127 
L 288.970589 78.74794 
L 286.58532 74.804917 
L 265.004069 83.74287 
L 262.787701 80.550938 
L 264.872582 74.056386 
L 262.351715 70.873377 
L 269.882842 58.921973 
L 266.883639 55.588913 
L 231.114994 84.660351 
L 228.94423 82.533512 
L 218.801415 89.346109 
L 216.78407 87.604118 
L 231.823522 64.110857 
L 229.006286 61.9719 
L 249.008436 26.62995 
L 245.004222 23.969193 
L 230.341199 39.108117 
L 226.738555 37.02813 
L 201.638404 76.594653 
L 199.228611 75.398611 
L 218.74671 24.227873 
L 214.681931 22.519799 
L 196.960381 58.137928 
L 193.972581 57.098098 
L 197.697676 33.365248 
L 193.930604 32.314484 
L 189.425888 34.471526 
L 185.69769 33.680298 
L 178.753161 52.551297 
L 175.598707 52.086704 
L 171.17774 64.333797 
L 168.397499 64.101566 
L 166.298727 44.957686 
L 162.911671 44.888442 
L 159.015987 25.920909 
L 155.033974 26.090063 
L 153.398998 52.420382 
L 150.252963 52.753045 
L 141.703161 17.951498 
L 137.479132 18.668945 
L 137.174203 37.317221 
L 133.561315 38.167494 
L 132.58848 48.270978 
L 129.322269 49.26002 
L 124.498344 45.872361 
L 121.160715 47.11696 
L 109.765756 29.528828 
L 105.921535 31.244733 
L 93.574067 16.104701 
L 89.315767 18.336345 
L 103.146935 51.459077 
L 99.995522 53.37225 
L 85.399473 38.301538 
L 81.843132 40.779235 
L 96.719369 67.227199 
L 94.066918 69.334672 
L 70.622792 47.672969 
L 67.368416 50.610644 
L 89.314812 78.954154 
L 87.034743 81.288644 
L 85.421372 84.219823 
L 83.308792 86.674129 
L 66.920822 77.97211 
L 64.620947 81.011202 
L 38.238211 67.556082 
L 35.625015 71.502168 
L 46.063815 83.237592 
L 43.93981 86.92987 
L 22.20678 80.546096 
L 20.009945 84.989823 
L 72.394709 113.289101 
L 71.202572 116.13862 
L 62.656839 116.3149 
L 61.564653 119.469103 
L 16.495947 109.686758 
L 15.218182 114.295638 
L 44.212959 125.783116 
L 43.427594 129.512554 
L 16.954396 129.090262 
L 16.286492 133.675133 
L 54.394153 142.056737 
L 54.115433 145.458009 
L 46.027028 148.592397 
L 45.95794 152.253519 
L 62.632498 155.444247 
L 62.770638 158.579869 
L 70.107027 161.06032 
L 70.418052 163.958149 
L 37.161163 172.072779 
L 37.834734 176.001054 
L 40.95221 179.394586 
L 41.854119 183.200042 
L 21.558094 193.102363 
L 22.900595 197.510835 
L 74.367551 184.036544 
L 75.398892 186.789054 
L 37.939807 206.076142 
L 39.682132 209.963123 
L 54.974442 206.996322 
L 56.737278 210.347241 
L 72.945238 205.210493 
L 74.643038 207.997254 
L 58.707403 222.706031 
L 60.962341 225.93181 
L 52.029323 237.796341 
L 54.762034 241.224633 
L 69.51054 234.116944 
L 72.118921 236.997407 
L 57.411489 257.117615 
L 60.749043 260.367127 
L 95.700392 227.93029 
L 98.101302 229.990346 
L 66.968941 275.087583 
L 70.866785 278.027703 
L 115.50259 221.311194 
L 117.685589 222.751898 
L 83.896901 284.731014 
L 88.089585 287.134114 
L 104.632162 265.431659 
L 108.207781 267.192338 
L 128.271102 231.068219 
L 130.754571 232.102628 
L 132.190294 236.037653 
L 134.828075 236.946378 
L 137.048296 239.292288 
L 139.786008 240.046657 
L 128.785255 301.762768 
L 133.491261 302.746059 
L 146.994946 248.828134 
L 150.027568 249.265045 
L 152.996566 250.394896 
L 156.075483 250.642327 
L 158.820683 261.085172 
L 162.232846 261.144194 
L 165.645178 261.095902 
L 169.054305 260.940343 
L 173.337441 270.1426 
L 177.027212 269.740706 
L 177.755027 250.441259 
L 180.823161 249.910207 
L 194.178484 295.681304 
L 198.660944 294.611495 
L 187.706012 240.132576 
L 190.445098 239.29374 
L 207.329562 277.888524 
L 211.246076 276.414014 
L 208.211685 258.815051 
L 211.528051 257.322235 
L 232.738425 291.036216 
L 237.055768 288.756295 
L 236.871464 278.836945 
L 240.803192 276.433103 
L 212.645062 226.703193 
L 214.949568 225.086859 
L 256.967489 274.76073 
L 260.761115 271.72704 
L 230.962836 230.518263 
L 233.378239 228.324092 
L 241.880098 232.221387 
L 244.343654 229.683111 
L 229.50535 211.864273 
L 231.334952 209.725152 
L 229.968386 205.099921 
L 231.585073 202.949585 
L 257.364876 217.238383 
L 259.349677 214.220639 
L 256.467261 208.316768 
L 258.171991 205.331659 
L 264.015869 204.454195 
L 265.595418 201.233651 
L 242.359309 187.2585 
L 243.408896 184.727387 
L 263.754264 189.147844 
L 264.852678 185.943093 
L 272.695495 184.696354 
L 273.649523 181.212672 
L 242.799115 170.608846 
L 243.324983 168.072137 
L 278.195477 170.978024 
L 278.715452 167.328194 
L 282.274923 163.962308 
L 282.572291 160.187679 
L 286.709624 156.530102 
L 298.653372 152.619711 
z
" clip-path="url(#pe1dbf580cd)" style="fill: #0000ff; opacity: 0.5; stroke: #000000; stroke-width: 1.5; stroke-linejoin: miter"/>
   </g>
  </g>
 </g>
 <defs>
  <clipPath id="pe1dbf580cd">
   <rect x="0" y="0" width="334.8" height="317.162538"/>
  </clipPath>
 </defs>
</svg>
