<?xml version="1.0" encoding="utf-8" standalone="no"?>
<!DOCTYPE svg PUBLIC "-//W3C//DTD SVG 1.1//EN"
  "http://www.w3.org/Graphics/SVG/1.1/DTD/svg11.dtd">
<svg xmlns:xlink="http://www.w3.org/1999/xlink" width="331.575478pt" height="332.64pt" viewBox="0 0 331.575478 332.64" xmlns="http://www.w3.org/2000/svg" version="1.1">
 <metadata>
  <rdf:RDF xmlns:dc="http://purl.org/dc/elements/1.1/" xmlns:cc="http://creativecommons.org/ns#" xmlns:rdf="http://www.w3.org/1999/02/22-rdf-syntax-ns#">
   <cc:Work>
    <dc:type rdf:resource="http://purl.org/dc/dcmitype/StillImage"/>
    <dc:date>2023-12-09T18:06:26.632476</dc:date>
    <dc:format>image/svg+xml</dc:format>
    <dc:creator>
     <cc:Agent>
      <dc:title>Matplotlib v3.8.2, https://matplotlib.org/</dc:title>
     </cc:Agent>
    </dc:creator>
   </cc:Work>
  </rdf:RDF>
 </metadata>
 <defs>
  <style type="text/css">*{stroke-linejoin: round; stroke-linecap: butt}</style>
 </defs>
 <g id="figure_1">
  <g id="patch_1">
   <path d="M 0 332.64 
L 331.575478 332.64 
L 331.575478 0 
L 0 0 
L 0 332.64 
z
" style="fill: none"/>
  </g>
  <g id="axes_1">
   <g id="patch_2">
    <path d="M 261.949636 168.100679 
L 261.90206 165.075216 
L 303.139359 159.446724 
L 302.799319 155.130445 
L 288.353573 152.593618 
L 287.805367 148.745625 
L 288.673276 144.623304 
L 287.874307 140.769199 
L 303.623395 132.657819 
L 302.440814 128.339566 
L 246.071743 141.967024 
L 245.210319 139.453718 
L 277.724092 123.708839 
L 276.27294 120.209341 
L 266.92777 120.424592 
L 265.378692 117.266178 
L 294.571641 97.183074 
L 292.278131 93.166967 
L 245.620636 117.334923 
L 243.984948 114.84798 
L 231.517579 120.237487 
L 229.980126 118.192539 
L 270.549111 81.261737 
L 267.766877 78.008823 
L 230.691624 107.002129 
L 228.738431 104.989695 
L 219.767207 110.458907 
L 217.928105 108.788252 
L 247.91748 68.570668 
L 244.7474 66.035617 
L 242.876864 61.701509 
L 239.493296 59.328342 
L 213.437083 92.753503 
L 211.044413 91.290635 
L 232.680097 46.003674 
L 228.807996 43.958878 
L 221.21837 49.827302 
L 217.472159 48.140997 
L 215.971698 40.751644 
L 211.942723 39.234793 
L 193.901168 81.015702 
L 191.149095 80.17289 
L 191.855773 65.773386 
L 188.625459 65.002421 
L 189.883783 40.505365 
L 185.859963 39.808897 
L 184.723998 15.951088 
L 179.930689 15.428995 
L 174.308311 28.331994 
L 169.909435 28.131272 
L 165.565465 65.619364 
L 162.343307 65.675101 
L 158.267733 52.560629 
L 154.638589 52.852278 
L 150.026747 45.498244 
L 146.179621 46.0525 
L 141.316231 41.350148 
L 137.342986 42.180333 
L 145.153734 88.577087 
L 142.66351 89.263262 
L 124.148341 40.95276 
L 120.17109 42.322937 
L 131.866586 83.064813 
L 129.209613 84.17149 
L 115.549869 62.024375 
L 112.239407 63.654488 
L 124.492072 93.462714 
L 122.165678 94.796122 
L 100.535248 65.859461 
L 97.352793 67.959771 
L 115.915154 99.857519 
L 113.794068 101.457441 
L 99.723831 88.683838 
L 97.259425 90.798376 
L 106.136523 104.938883 
L 104.18004 106.843755 
L 58.274976 67.679077 
L 55.170628 71.107243 
L 69.691449 89.049467 
L 67.253388 92.108107 
L 65.546753 95.700125 
L 63.319853 98.885796 
L 76.410957 111.741794 
L 74.683071 114.577939 
L 75.791328 118.967268 
L 74.290933 121.819323 
L 61.541027 119.418391 
L 60.061862 122.718283 
L 60.871661 126.920963 
L 59.628724 130.238193 
L 64.448252 135.509964 
L 63.473604 138.710491 
L 87.623419 148.287873 
L 87.039077 150.753404 
L 76.53718 151.359976 
L 76.054913 154.172564 
L 15.876604 149.629657 
L 15.369925 154.350402 
L 76.703426 162.775204 
L 76.579997 165.576921 
L 20.219322 168.558263 
L 20.305653 173.133104 
L 42.392466 176.257463 
L 42.709913 180.131326 
L 19.874778 187.010876 
L 20.541469 191.587428 
L 67.428816 187.191794 
L 68.077683 190.273052 
L 34.755478 202.202908 
L 35.892483 206.304066 
L 82.491357 195.464135 
L 83.392878 198.067704 
L 58.953693 210.810691 
L 60.349381 214.146748 
L 62.55592 217.101649 
L 64.147629 220.321334 
L 38.473532 238.664367 
L 40.755127 242.630594 
L 37.888631 249.896129 
L 40.523666 253.875193 
L 69.159868 238.818825 
L 71.431147 241.820129 
L 53.366574 261.781393 
L 56.367655 265.26792 
L 61.749598 266.507396 
L 64.89513 269.728006 
L 81.471822 258.538361 
L 84.357039 261.142801 
L 101.713305 246.116742 
L 104.197951 248.090887 
L 117.717052 234.751467 
L 119.836436 236.228038 
L 95.765955 279.35918 
L 99.298757 281.503886 
L 91.303734 304.837102 
L 95.639823 307.109514 
L 120.838823 264.560755 
L 123.893933 265.924432 
L 108.761612 313.822293 
L 113.371583 315.541348 
L 128.048915 285.821681 
L 131.76895 286.948146 
L 130.55228 307.680294 
L 134.95836 308.717239 
L 139.108651 311.153336 
L 143.6197 311.919534 
L 150.703674 291.576007 
L 154.593436 291.987311 
L 157.038632 317.267391 
L 161.733055 317.466807 
L 166.217398 272.145565 
L 169.488554 272.07869 
L 173.337369 280.494647 
L 176.867518 280.199777 
L 181.608322 289.101839 
L 185.405011 288.542657 
L 190.535451 294.773819 
L 194.506066 293.931143 
L 203.802669 313.396226 
L 208.352253 312.127193 
L 196.412205 260.949025 
L 199.316388 259.938296 
L 217.646716 297.308847 
L 221.683633 295.612481 
L 207.144858 254.953429 
L 209.855221 253.608205 
L 227.359494 278.837226 
L 230.810821 276.844602 
L 248.568284 297.12647 
L 252.584179 294.457953 
L 235.670096 263.295244 
L 238.62864 261.049001 
L 250.047573 268.911989 
L 253.175611 266.210909 
L 234.133166 240.152113 
L 236.364799 237.965637 
L 268.334445 263.392661 
L 271.279902 260.11933 
L 272.304316 255.26918 
L 274.992389 251.875045 
L 254.694862 231.973603 
L 256.659179 229.144665 
L 290.353109 246.194113 
L 292.746919 242.236971 
L 248.251191 212.849087 
L 249.617377 210.232209 
L 265.806057 214.481441 
L 267.214887 211.311792 
L 302.059892 221.148646 
L 303.660429 216.8358 
L 314.069894 215.322297 
L 315.4813 210.634711 
L 246.927245 188.427661 
L 247.526222 185.864484 
L 249.58296 183.567538 
L 250.027811 180.923263 
L 262.816852 179.758511 
L 263.135396 176.700017 
L 257.89028 173.323208 
L 258.008919 170.422798 
L 261.947733 167.495491 
L 261.88113 164.470387 
L 303.082213 158.582647 
L 302.715033 154.268592 
L 288.253617 151.822671 
L 287.68122 147.978202 
L 288.523185 143.850503 
L 287.699992 140.0015 
L 303.397752 131.791227 
L 302.188035 127.480497 
L 245.905788 141.462215 
L 245.028573 138.954377 
L 277.442677 123.005317 
L 275.969545 119.515015 
L 266.625912 119.789037 
L 265.057001 116.640429 
L 294.123061 96.374114 
L 291.804338 92.372512 
L 245.299768 116.833439 
L 243.648471 114.356832 
L 231.215245 119.824645 
L 229.664962 117.789408 
L 270.00087 80.60418 
L 267.198232 77.36883 
L 230.306064 106.594744 
L 228.340253 104.594635 
L 219.403604 110.120162 
L 217.554031 108.461107 
L 247.289867 68.055702 
L 244.103906 65.54064 
L 242.206148 61.218382 
L 238.807721 58.866543 
L 212.962248 92.454922 
L 210.560425 91.007131 
L 231.910851 45.58499 
L 228.025966 43.564587 
L 220.4734 49.480629 
L 216.716657 47.817919 
L 215.169751 40.43815 
L 211.131315 38.946669 
L 193.352896 80.840223 
L 190.595577 80.014736 
L 191.211675 65.611072 
L 187.976577 64.860439 
L 189.080803 40.355953 
L 185.052682 39.684807 
L 183.766688 15.834615 
L 178.97019 15.342679 
L 173.429076 28.280784 
L 169.029024 28.107732 
L 164.920919 65.622405 
L 161.699175 65.698405 
L 157.5412 52.609826 
L 153.913961 52.924295 
L 149.255958 45.599412 
L 145.412393 46.177853 
L 140.519525 41.506183 
L 136.55158 42.36134 
L 144.653982 88.708052 
L 142.168123 89.409875 
L 123.349475 41.216779 
L 119.38092 42.611943 
L 131.332428 83.279455 
L 128.682469 84.402822 
L 114.883702 62.342056 
L 111.583557 63.992958 
L 124.023457 93.723533 
L 121.705496 95.071545 
L 99.893498 66.2715 
L 96.724316 68.391785 
L 115.486928 100.172154 
L 113.375947 101.785385 
L 99.22565 89.100529 
L 96.774592 91.230525 
L 105.740449 105.314921 
L 103.795986 107.23206 
L 57.645506 68.356873 
L 54.56278 71.804495 
L 69.196161 89.655037 
L 66.777386 92.728951 
L 65.093376 96.331632 
L 62.886556 99.531245 
L 76.058259 112.304654 
L 74.348244 115.15161 
L 75.484086 119.533881 
L 74.001658 122.395316 
L 61.236904 120.074622 
L 59.778522 123.383752 
L 60.614738 127.581256 
L 59.392689 130.906237 
L 64.245278 136.147592 
L 63.290778 139.354186 
L 87.500352 148.779489 
L 86.931529 151.248647 
L 76.433654 151.921258 
L 75.969087 154.736823 
L 15.763396 150.572494 
L 15.286417 155.296332 
L 76.671693 163.335215 
L 76.565888 166.137653 
L 20.225078 169.473412 
L 20.34018 174.04762 
L 42.446207 177.033004 
L 42.788012 180.904793 
L 19.996597 187.927828 
L 20.692059 192.500095 
L 67.550832 187.809653 
L 68.219066 190.88677 
L 34.972552 203.025967 
L 36.135328 207.119893 
L 82.665104 195.987096 
L 83.582982 198.584944 
L 59.224427 211.481387 
L 60.641069 214.8086 
L 62.866149 217.749565 
L 64.478076 220.959176 
L 38.919855 239.463321 
L 41.226349 243.415119 
L 38.405606 250.69854 
L 41.065615 254.660952 
L 69.606555 239.424776 
L 71.896666 242.411736 
L 53.957995 262.486221 
L 56.980945 265.953804 
L 62.370577 267.159407 
L 65.536302 270.360169 
L 82.04229 259.066488 
L 84.94383 261.65273 
L 102.205248 246.517806 
L 104.702261 248.476285 
L 118.137197 235.052102 
L 120.265826 236.515314 
L 96.467092 279.796992 
L 100.013313 281.919437 
L 92.1652 305.302476 
L 96.515496 307.547571 
L 121.44639 264.841166 
L 124.510016 266.185601 
L 109.679245 314.177688 
L 114.299937 315.867715 
L 128.790059 286.056324 
L 132.517105 287.159369 
L 131.430852 307.89876 
L 135.843367 308.907973 
L 140.008897 311.317919 
L 144.524676 312.055729 
L 151.480561 291.66805 
L 155.372833 292.054882 
L 157.976978 317.319083 
L 162.672563 317.48897 
L 166.871771 272.14042 
L 170.142443 272.052973 
L 174.044112 280.444557 
L 177.572338 280.12749 
L 182.369036 288.999559 
L 186.162133 288.416508 
L 191.331662 294.615279 
L 195.296899 293.747648 
L 204.715742 313.153876 
L 209.257255 311.856253 
L 196.995561 260.754194 
L 199.89333 259.725218 
L 218.458335 296.979744 
L 222.484503 295.258021 
L 207.690294 254.691213 
L 210.392142 253.32897 
L 228.054745 278.4474 
L 231.493471 276.433108 
L 249.378145 296.602891 
L 253.377176 293.909168 
L 236.267433 262.853456 
L 239.21179 260.58865 
L 250.679951 268.379664 
L 253.790939 265.658964 
L 234.584975 239.72045 
L 236.802812 237.519981 
L 268.931748 262.745431 
L 271.856559 259.45364 
L 272.850448 254.597143 
L 275.517121 251.186168 
L 255.094827 231.412779 
L 257.041312 228.571543 
L 290.841808 245.408738 
L 293.210682 241.436619 
L 248.531001 212.32917 
L 249.880701 209.70375 
L 266.095786 213.851081 
L 267.484654 210.672633 
L 302.390837 220.290137 
L 303.964217 215.96731 
L 314.363957 214.388368 
L 315.745853 209.691998 
L 247.053485 187.916553 
L 247.636329 185.34966 
L 249.678579 183.039823 
L 250.106791 180.392802 
L 262.888253 179.147638 
L 263.187554 176.087201 
L 257.921303 172.743447 
L 258.021699 169.842349 
L 261.942023 166.890326 
L 261.856396 163.865701 
L 303.019633 157.718946 
L 302.625327 153.407286 
L 288.148814 151.052367 
L 287.552249 147.211574 
L 288.368236 143.078662 
L 287.520851 139.234912 
L 303.166664 130.926072 
L 301.929858 126.623036 
L 245.736661 140.95846 
L 244.843691 138.456189 
L 277.156843 122.303578 
L 275.661788 118.82261 
L 266.320064 119.155394 
L 264.731381 116.016715 
L 293.669402 95.567992 
L 291.325557 91.581052 
L 244.975752 116.333983 
L 243.308911 113.867811 
L 230.910321 119.413714 
L 229.347268 117.388267 
L 269.448504 79.950085 
L 266.625573 76.732425 
L 229.917949 106.189793 
L 227.939597 104.202086 
L 219.037878 109.783711 
L 217.177906 108.136321 
L 246.659027 67.544695 
L 243.457311 65.049719 
L 241.532406 60.739483 
L 238.119255 58.409065 
L 212.485545 92.159332 
L 210.074663 90.726676 
L 231.138988 45.171151 
L 227.241473 43.175222 
L 219.726264 49.138649 
L 215.959138 47.4996 
L 214.365848 40.129706 
L 210.318112 38.663654 
L 192.803531 80.668195 
L 190.041074 79.860066 
L 190.56657 65.452812 
L 187.326814 64.722541 
L 188.276899 40.211595 
L 184.244637 39.565796 
L 182.808664 15.724164 
L 178.009166 15.262406 
L 172.549535 28.235105 
L 168.148482 28.089731 
L 164.276404 65.629499 
L 161.055203 65.725761 
L 156.814989 52.663592 
L 153.189801 53.000868 
L 148.48582 45.705426 
L 144.64597 46.308029 
L 139.723816 41.667225 
L 135.761328 42.547322 
L 144.155064 88.842157 
L 141.673668 89.559601 
L 122.552286 41.485816 
L 118.592584 42.905913 
L 130.799631 83.497453 
L 128.156789 84.637464 
L 114.219546 62.663921 
L 110.92985 64.335546 
L 123.556492 93.987293 
L 121.247055 95.349857 
L 99.254353 66.687567 
L 96.098568 68.827742 
L 115.06069 100.489477 
L 112.959896 102.115953 
L 98.730099 89.520345 
L 96.292486 91.665714 
L 105.346749 105.693441 
L 103.414382 107.622772 
L 57.020312 69.038614 
L 53.959331 72.505558 
L 68.704692 90.26371 
L 66.305297 93.352776 
L 64.64398 96.965977 
L 62.457327 100.179407 
L 75.709107 112.869721 
L 74.017032 115.727376 
L 75.180413 120.102416 
L 73.716011 122.973118 
L 60.936914 120.732753 
L 59.499373 124.05099 
L 60.361973 128.243152 
L 59.16086 131.575753 
L 64.046319 136.786484 
L 63.112005 139.999017 
L 87.38038 149.27187 
L 86.827098 151.744557 
L 76.333661 152.48318 
L 75.886811 155.301612 
L 15.65612 151.516024 
L 15.208861 156.242769 
L 76.643482 163.895414 
L 76.555305 166.698462 
L 20.23659 170.388507 
L 20.380458 174.9619 
L 42.504824 177.808191 
L 42.870974 181.677754 
L 20.124181 188.843995 
L 20.848386 193.411798 
L 67.676732 188.426734 
L 68.364307 191.499587 
L 35.194799 203.847645 
L 36.3833 207.934177 
L 82.842136 196.508955 
L 83.776335 199.100978 
L 59.499373 212.150368 
L 60.936914 215.468605 
L 63.180447 218.395517 
L 64.812529 221.594926 
L 39.371193 240.259452 
L 41.702497 244.196666 
L 38.927618 251.497683 
L 41.612496 255.443287 
L 70.057045 240.027906 
L 72.365896 243.000403 
L 54.553838 263.187316 
L 57.598537 266.635817 
L 62.995644 267.807498 
L 66.181438 270.988287 
L 82.616069 259.591015 
L 85.533818 262.158957 
L 102.699703 246.915768 
L 105.208985 248.858504 
L 118.559225 235.350088 
L 120.697014 236.799883 
L 97.170968 280.230386 
L 100.730468 282.330485 
L 93.029577 305.762422 
L 97.393907 307.980112 
L 122.055708 265.11775 
L 125.12773 266.44289 
L 110.599095 314.527305 
L 115.230325 316.188237 
L 129.532663 286.286301 
L 133.266573 287.365884 
L 132.310781 308.111695 
L 136.729556 309.093137 
L 140.910161 311.476836 
L 145.430492 312.18623 
L 152.258011 291.755206 
L 156.15264 292.11755 
L 158.91563 317.364872 
L 163.612191 317.505224 
L 167.5261 272.13116 
L 170.796156 272.023144 
L 174.750527 280.390022 
L 178.276689 280.050771 
L 183.129093 288.892496 
L 186.918448 288.285601 
L 192.126861 294.451736 
L 196.086562 293.559182 
L 205.627273 312.905787 
L 210.160535 311.579627 
L 197.577681 260.555697 
L 200.468921 259.508517 
L 219.267868 296.645542 
L 223.283128 294.898531 
L 208.234069 254.425573 
L 210.927296 253.046364 
L 228.747531 278.053209 
L 232.17352 276.017329 
L 250.184696 296.074229 
L 254.166707 293.355408 
L 236.861979 262.407921 
L 239.792034 260.12464 
L 251.308969 267.843372 
L 254.402783 265.10316 
L 235.034061 239.285953 
L 237.238015 237.071579 
L 269.524969 262.094457 
L 272.429018 258.784336 
L 273.392343 253.921684 
L 276.037511 250.494005 
L 255.491257 230.849452 
L 257.419834 227.99603 
L 291.325557 244.620306 
L 293.669402 240.633366 
L 248.807535 211.807502 
L 250.140696 209.173646 
L 266.381545 213.218911 
L 267.750394 210.031791 
L 302.716376 219.429564 
L 304.262537 215.096927 
L 314.65214 213.452608 
L 316.004471 208.747639 
L 247.176507 187.404661 
L 247.743195 184.834153 
L 249.770878 182.511517 
L 250.182432 179.861856 
L 262.955811 178.536327 
L 263.235857 175.474068 
L 257.94868 172.163503 
L 258.030827 169.26183 
L 261.932508 166.28521 
L 261.827859 163.261183 
L 302.951622 156.855656 
L 302.530206 152.546561 
L 288.039168 150.282738 
L 287.418459 146.445773 
L 288.208436 142.30781 
L 287.336893 138.469466 
L 302.930138 130.062387 
L 301.666294 125.767215 
L 245.56437 140.455779 
L 244.655679 137.959174 
L 276.866601 121.60365 
L 275.349682 118.132155 
L 266.010236 118.523686 
L 264.401844 115.395061 
L 293.210682 94.764739 
L 290.841808 90.792619 
L 244.648602 115.836575 
L 242.966283 113.380935 
L 230.602819 119.004708 
L 229.027057 116.989132 
L 268.892035 79.299476 
L 266.048923 76.099635 
L 229.527295 105.78729 
L 227.536481 103.812066 
L 218.670043 109.449567 
L 216.799747 107.813908 
L 246.024986 67.037664 
L 242.807642 64.562876 
L 240.855666 60.264831 
L 237.427925 57.955925 
L 212.006992 91.866747 
L 209.587148 90.449283 
L 230.364537 44.762176 
L 226.454546 42.7908 
L 218.976992 48.801375 
L 215.199632 47.186051 
L 213.560021 39.826323 
L 209.503144 38.385758 
L 192.253094 80.499626 
L 189.48561 79.708887 
L 189.920481 65.298613 
L 186.676197 64.588733 
L 187.472103 40.072296 
L 183.435859 39.451871 
L 181.849964 15.619742 
L 177.047657 15.188179 
L 171.669725 28.194959 
L 167.267845 28.077268 
L 163.631947 65.640647 
L 160.411415 65.757166 
L 156.089132 52.721924 
L 152.466136 53.081994 
L 147.716364 45.816281 
L 143.88038 46.443024 
L 138.929136 41.833268 
L 134.972261 42.73827 
L 143.657 88.979397 
L 141.180165 89.712434 
L 121.756804 41.759863 
L 117.806112 43.204836 
L 130.268216 83.718797 
L 127.632596 84.875407 
L 113.557427 62.989956 
L 110.27831 64.682239 
L 123.091195 94.253985 
L 120.790373 95.631047 
L 98.617836 67.107646 
L 95.475575 69.267626 
L 114.636456 100.809474 
L 112.545934 102.449131 
L 98.237198 89.943269 
L 95.813127 92.103927 
L 104.955437 106.074431 
L 103.035243 108.015877 
L 56.399417 69.724275 
L 53.360302 73.210401 
L 68.21706 90.875463 
L 65.837142 93.979558 
L 64.198582 97.603137 
L 62.032183 100.830256 
L 75.363516 113.436972 
L 73.689447 116.305213 
L 74.880322 120.67285 
L 73.434004 123.552705 
L 60.641069 121.392757 
L 59.224427 124.71997 
L 60.113376 128.906624 
L 58.933247 132.246714 
L 63.851381 137.426615 
L 62.937291 140.644961 
L 87.263507 149.764996 
L 86.725788 152.241113 
L 76.237204 153.04572 
L 75.808089 155.866906 
L 15.55478 152.46021 
L 15.137258 157.189675 
L 76.618795 164.45578 
L 76.548249 167.259326 
L 20.253856 171.303511 
L 20.426486 175.87591 
L 42.568316 178.582994 
L 42.958796 182.450178 
L 20.257525 189.759341 
L 21.010445 194.322499 
L 67.806511 189.04301 
L 68.513398 192.111477 
L 35.422209 204.667909 
L 36.636388 208.746885 
L 83.022448 197.029689 
L 83.97293 199.615786 
L 59.778522 212.817605 
L 61.236904 216.126736 
L 63.498801 219.03948 
L 65.150973 222.22856 
L 39.82753 241.052729 
L 42.183551 244.975202 
L 39.454646 252.293528 
L 42.164286 256.222167 
L 70.511318 240.62819 
L 72.838819 243.586108 
L 55.154077 263.884649 
L 58.220405 267.313933 
L 63.624776 268.451646 
L 66.830512 271.612334 
L 83.193135 260.111924 
L 86.126977 262.661464 
L 103.196652 247.310613 
L 105.718103 249.237528 
L 118.983118 235.645414 
L 121.129984 237.081735 
L 97.877557 280.659344 
L 101.450194 282.737015 
L 93.896829 306.216922 
L 98.275021 308.407119 
L 122.666754 265.390496 
L 125.747049 266.696289 
L 111.521126 314.87113 
L 116.162711 316.502901 
L 130.2767 286.511603 
L 134.017326 287.56768 
L 133.192032 308.319093 
L 137.616892 309.272723 
L 141.812407 311.630081 
L 146.337109 312.311031 
L 153.035995 291.83747 
L 156.932825 292.175311 
L 159.854552 317.404757 
L 164.551903 317.515567 
L 168.180357 272.117784 
L 171.449669 271.989204 
L 175.456585 280.331046 
L 178.980543 279.969624 
L 183.88846 288.780655 
L 187.673924 288.149939 
L 192.921016 294.283194 
L 196.875025 293.365754 
L 206.537226 312.65197 
L 211.062058 311.297325 
L 198.15854 260.353543 
L 201.043137 259.2882 
L 220.075284 296.306255 
L 224.079476 294.534025 
L 208.776163 254.156518 
L 211.460662 252.760397 
L 229.437824 277.654668 
L 232.85094 275.597281 
L 250.987907 295.540504 
L 254.952739 292.796692 
L 237.453711 261.958654 
L 240.369347 259.656991 
L 251.934601 267.303135 
L 255.01112 264.543518 
L 235.480406 238.84864 
L 237.670388 236.620448 
L 270.114083 261.439765 
L 272.997257 258.111445 
L 273.929979 253.24283 
L 276.553536 249.798582 
L 255.884136 230.283642 
L 257.794728 227.418146 
L 291.804338 243.828846 
L 294.123061 239.827244 
L 249.080783 211.284106 
L 250.397352 208.641916 
L 266.663322 212.584956 
L 268.012099 209.38929 
L 303.036496 218.566961 
L 304.555377 214.224685 
L 314.934433 212.515053 
L 316.257146 207.801673 
L 247.296307 186.892005 
L 247.846817 184.317984 
L 249.859851 181.982641 
L 250.254733 179.330444 
L 263.019522 177.924604 
L 263.280303 174.860645 
L 257.972409 171.583398 
L 258.036305 168.681266 
L 261.919187 165.680165 
L 261.79552 162.656856 
L 302.878183 155.992811 
L 302.429674 151.686451 
L 287.924684 149.513814 
L 287.279855 145.680828 
L 288.043791 141.537979 
L 287.148124 137.705192 
L 302.688185 129.200207 
L 301.397351 124.913068 
L 245.38892 139.954192 
L 244.464545 137.463351 
L 276.571963 120.905563 
L 275.03324 117.443676 
L 265.696441 117.893939 
L 264.068404 114.775492 
L 292.746919 93.964387 
L 290.353109 90.007245 
L 244.318329 115.341234 
L 242.620599 112.896223 
L 230.29275 118.597644 
L 228.704342 116.592019 
L 268.331485 78.652381 
L 265.468304 75.470484 
L 229.134117 105.387252 
L 227.130919 103.424588 
L 218.300114 109.117743 
L 216.419567 107.493879 
L 245.387769 66.534632 
L 242.154923 64.080127 
L 240.175954 59.794444 
L 236.733758 57.507143 
L 211.526608 91.577178 
L 209.097897 90.17496 
L 229.58753 44.358079 
L 225.665216 42.411334 
L 218.225614 48.46882 
L 214.438169 46.877285 
L 212.752302 39.528015 
L 208.686445 38.112994 
L 191.701609 80.334522 
L 188.929206 79.561205 
L 189.273436 65.148481 
L 186.024751 64.459019 
L 186.666447 39.938061 
L 182.626381 39.343034 
L 180.890626 15.521351 
L 176.0857 15.12 
L 170.78968 28.160348 
L 166.387146 28.070344 
L 162.987573 65.655847 
L 159.767837 65.79262 
L 155.363655 52.78482 
L 151.742996 53.167669 
L 146.947621 45.931974 
L 143.115654 46.58283 
L 138.135515 42.004307 
L 134.184411 42.934176 
L 143.159808 89.119767 
L 140.687633 89.868367 
L 120.963061 42.038907 
L 117.021535 43.508699 
L 129.738203 83.943479 
L 127.10991 85.116643 
L 112.897372 63.32015 
L 109.628963 65.033023 
L 122.627584 94.523598 
L 120.335469 95.915104 
L 97.983975 67.53172 
L 94.85536 69.71142 
L 114.214243 101.132133 
L 112.134074 102.784905 
L 97.746967 90.369285 
L 95.336533 92.545147 
L 104.566529 106.457874 
L 102.658584 108.411358 
L 55.782848 70.413827 
L 52.765719 73.918998 
L 67.733286 91.49027 
L 65.372938 94.609273 
L 63.7572 98.243085 
L 61.611141 101.483766 
L 75.021499 114.006386 
L 73.365503 116.885099 
L 74.583825 121.245159 
L 73.155648 124.134055 
L 60.349381 122.05461 
L 58.953693 125.390667 
L 59.868956 129.571646 
L 58.709858 132.919092 
L 63.660474 138.067959 
L 62.766644 141.29199 
L 87.149738 150.258847 
L 86.627602 152.738297 
L 76.144287 153.608855 
L 75.732924 156.432685 
L 15.45938 153.405015 
L 15.071613 158.137012 
L 76.597634 165.016289 
L 76.544721 167.820224 
L 20.276878 172.218389 
L 20.478262 176.789611 
L 42.63668 179.357382 
L 43.051475 183.222034 
L 20.396623 190.673831 
L 21.178227 195.232163 
L 67.940163 189.658457 
L 68.666335 192.722419 
L 35.654773 205.486727 
L 36.894583 209.557986 
L 83.206031 197.549279 
L 84.17276 200.129346 
L 60.061862 213.483074 
L 61.541027 216.782967 
L 63.8212 219.681427 
L 65.493396 222.860053 
L 40.288847 241.84312 
L 42.669491 245.750697 
L 39.986669 253.086041 
L 42.720964 256.997561 
L 70.969359 241.225606 
L 73.315417 244.168827 
L 55.758691 264.578193 
L 58.846527 267.988124 
L 64.257946 269.091823 
L 67.483497 272.232287 
L 83.773466 260.629193 
L 86.723285 263.16023 
L 103.696075 247.702324 
L 106.229594 249.613343 
L 119.408861 235.938068 
L 121.564718 237.360858 
L 98.586829 281.08385 
L 102.172463 283.139009 
L 94.766923 306.665959 
L 99.158803 308.828576 
L 123.279504 265.659394 
L 126.367951 266.945788 
L 112.445301 315.209149 
L 117.097057 316.811695 
L 131.022139 286.732221 
L 134.769333 287.76475 
L 134.07457 308.520943 
L 138.50534 309.446725 
L 142.715598 311.777649 
L 147.244494 312.430128 
L 153.81448 291.914839 
L 157.713358 292.228165 
L 160.793706 317.438736 
L 165.491661 317.52 
L 168.834517 272.100294 
L 172.102956 271.951154 
L 176.162258 280.26763 
L 179.683873 279.884052 
L 184.64711 288.664041 
L 188.428531 288.009528 
L 193.714094 294.109661 
L 197.662255 293.167371 
L 207.445565 312.392436 
L 211.961787 311.009358 
L 198.738117 260.14774 
L 201.615957 259.064275 
L 220.880549 295.961897 
L 224.873516 294.164518 
L 209.316554 253.884058 
L 211.992219 252.471081 
L 230.125596 277.251794 
L 233.525705 275.172981 
L 251.787745 295.001738 
L 255.735241 292.233044 
L 238.042606 261.505675 
L 240.943708 259.185719 
L 252.556823 266.758973 
L 255.615925 263.980062 
L 235.92399 238.408529 
L 238.099916 236.166607 
L 270.699069 260.781381 
L 273.561252 257.434993 
L 274.463335 252.560608 
L 277.065178 249.099927 
L 256.273448 229.715372 
L 258.16598 226.837917 
L 292.278131 243.034391 
L 294.571641 239.018284 
L 249.350734 210.759001 
L 250.650659 208.108584 
L 266.941107 211.949241 
L 268.269758 208.745155 
L 303.351185 217.702362 
L 304.842725 213.350619 
L 315.210823 211.575742 
L 316.503865 206.854135 
L 247.41288 186.378606 
L 247.94719 183.801174 
L 249.945497 181.453216 
L 250.32369 178.798588 
L 263.079384 177.312493 
L 263.32089 174.246953 
L 257.992489 171.003156 
L 261.949636 168.100679 
z
" clip-path="url(#p91a94e5145)" style="fill: #0000ff; opacity: 0.5; stroke: #000000; stroke-width: 1.5; stroke-linejoin: miter"/>
   </g>
  </g>
 </g>
 <defs>
  <clipPath id="p91a94e5145">
   <rect x="0" y="-0" width="331.575478" height="332.64"/>
  </clipPath>
 </defs>
</svg>
