<?xml version="1.0" encoding="utf-8" standalone="no"?>
<!DOCTYPE svg PUBLIC "-//W3C//DTD SVG 1.1//EN"
  "http://www.w3.org/Graphics/SVG/1.1/DTD/svg11.dtd">
<svg xmlns:xlink="http://www.w3.org/1999/xlink" width="334.8pt" height="328.731077pt" viewBox="0 0 334.8 328.731077" xmlns="http://www.w3.org/2000/svg" version="1.1">
 <metadata>
  <rdf:RDF xmlns:dc="http://purl.org/dc/elements/1.1/" xmlns:cc="http://creativecommons.org/ns#" xmlns:rdf="http://www.w3.org/1999/02/22-rdf-syntax-ns#">
   <cc:Work>
    <dc:type rdf:resource="http://purl.org/dc/dcmitype/StillImage"/>
    <dc:date>2023-12-09T18:06:26.741851</dc:date>
    <dc:format>image/svg+xml</dc:format>
    <dc:creator>
     <cc:Agent>
      <dc:title>Matplotlib v3.8.2, https://matplotlib.org/</dc:title>
     </cc:Agent>
    </dc:creator>
   </cc:Work>
  </rdf:RDF>
 </metadata>
 <defs>
  <style type="text/css">*{stroke-linejoin: round; stroke-linecap: butt}</style>
 </defs>
 <g id="figure_1">
  <g id="patch_1">
   <path d="M 0 328.731077 
L 334.8 328.731077 
L 334.8 0 
L 0 0 
L 0 328.731077 
z
" style="fill: none"/>
  </g>
  <g id="axes_1">
   <g id="patch_2">
    <path d="M 314.759387 167.749663 
L 314.685028 163.020921 
L 262.289125 161.582591 
L 262.046802 158.506679 
L 307.187942 149.688627 
L 306.549447 145.206878 
L 285.230971 144.669535 
L 284.445521 140.880643 
L 316.256507 128.709717 
L 314.953906 123.953205 
L 278.321173 130.683307 
L 277.099382 127.118589 
L 292.962318 116.778083 
L 291.296078 112.759891 
L 271.315409 117.364911 
L 269.678322 114.027055 
L 267.937096 110.742323 
L 266.093451 107.513963 
L 291.980291 86.660921 
L 289.367586 82.688497 
L 244.358223 109.553994 
L 242.488873 107.067593 
L 283.895409 68.725812 
L 280.722783 65.016462 
L 279.778525 59.204742 
L 276.308571 55.629544 
L 256.225893 69.766908 
L 253.099682 66.927033 
L 243.740495 71.628496 
L 240.678989 69.18027 
L 227.62766 80.502566 
L 224.853142 78.556575 
L 222.018808 76.698782 
L 219.127463 74.931026 
L 233.970014 40.816606 
L 229.944546 38.690819 
L 216.630785 56.351204 
L 213.102332 54.762919 
L 204.802957 65.25638 
L 201.56035 64.035586 
L 193.577233 77.456137 
L 190.723763 76.582272 
L 196.599341 41.511705 
L 192.614205 40.56059 
L 180.522292 82.406719 
L 177.830935 81.940882 
L 177.218804 64.800776 
L 173.97551 64.447513 
L 172.447779 36.100554 
L 168.304446 35.911493 
L 164.124338 14.942322 
L 159.319859 15.025429 
L 155.090299 24.087932 
L 150.577845 24.450567 
L 146.794102 30.539057 
L 142.488588 31.159353 
L 140.334 42.97105 
L 136.422568 43.788319 
L 141.401659 78.987318 
L 138.62213 79.75321 
L 133.868299 74.490781 
L 130.951114 75.495762 
L 115.868583 45.957005 
L 112.063133 47.542044 
L 101.431462 34.705619 
L 97.279381 36.750155 
L 106.41666 62.859011 
L 103.147319 64.732882 
L 88.696376 49.0773 
L 85.00247 51.51515 
L 100.353342 80.052333 
L 97.627595 82.108347 
L 103.192643 94.145418 
L 100.908609 96.105191 
L 103.654514 103.400722 
L 101.661259 105.341397 
L 100.317596 107.892928 
L 98.467236 109.936301 
L 96.682038 112.036844 
L 94.96377 114.192478 
L 79.625503 106.508225 
L 77.741836 109.202887 
L 88.186703 119.680798 
L 86.712977 122.099764 
L 73.317594 118.008886 
L 71.798651 120.896197 
L 79.843442 128.255868 
L 78.64346 130.932926 
L 52.076207 123.650602 
L 50.745154 127.203 
L 54.885569 132.52002 
L 53.832001 135.979699 
L 30.280536 133.735919 
L 29.277365 137.968633 
L 43.426262 145.049741 
L 42.772322 148.863531 
L 67.78131 155.844476 
L 67.454738 158.887153 
L 50.364882 160.93006 
L 50.206823 164.517833 
L 54.182881 168.096156 
L 54.248253 171.56034 
L 37.570075 176.135302 
L 37.896429 180.117854 
L 15.218182 187.087017 
L 15.899933 191.766946 
L 65.677366 186.916416 
L 66.328804 190.009883 
L 53.846097 196.526445 
L 54.805545 199.987161 
L 16.908155 216.225739 
L 18.505256 220.838125 
L 23.233492 224.20323 
L 25.078295 228.612789 
L 47.402132 223.301052 
L 49.206619 226.951143 
L 47.608222 232.492785 
L 49.701616 236.131851 
L 93.910112 212.829048 
L 95.362342 215.022003 
L 37.836226 260.409444 
L 40.812212 264.34196 
L 88.385783 231.097373 
L 90.41514 233.454993 
L 59.222677 267.258898 
L 62.403451 270.51559 
L 56.365313 283.674312 
L 60.063636 287.01273 
L 84.781239 264.741713 
L 87.87023 267.196033 
L 91.974988 268.246857 
L 95.170631 270.473256 
L 78.741347 303.916435 
L 83.065063 306.541293 
L 103.617214 279.360265 
L 107.156532 281.215113 
L 116.860137 269.832787 
L 120.093341 271.275959 
L 118.09963 286.09967 
L 121.843689 287.495827 
L 127.345893 283.411753 
L 131.000866 284.518516 
L 139.40551 266.792967 
L 142.531989 267.528766 
L 145.974302 266.584539 
L 149.09098 267.113904 
L 146.783214 312.253328 
L 151.335419 312.734679 
L 158.004842 276.942634 
L 161.441252 277.088611 
L 164.948841 291.602809 
L 168.842766 291.523203 
L 174.253655 313.788755 
L 178.840555 313.405616 
L 176.819417 262.641558 
L 179.796868 262.203035 
L 190.17867 299.555392 
L 194.310167 298.678573 
L 191.887992 272.776931 
L 195.176671 271.859607 
L 202.725212 283.820996 
L 206.355783 282.557466 
L 218.341186 302.075544 
L 222.537999 300.311988 
L 204.867849 252.683657 
L 207.518334 251.368153 
L 235.549223 295.647905 
L 239.535428 293.346469 
L 215.638002 247.607895 
L 218.123569 245.956263 
L 229.12754 255.893376 
L 231.866951 253.813507 
L 242.279502 260.902085 
L 245.169895 258.406213 
L 262.931548 271.568494 
L 266.147105 268.418003 
L 238.617828 236.708686 
L 240.749338 234.339906 
L 232.84459 223.758534 
L 234.571773 221.577681 
L 255.829056 233.414674 
L 257.848485 230.506365 
L 253.641917 223.692591 
L 255.356744 220.857857 
L 235.771596 206.469627 
L 236.953731 204.205291 
L 270.900487 217.122587 
L 272.400206 213.748454 
L 312.018111 225.202382 
L 313.751547 220.531426 
L 257.094003 197.267898 
L 257.976273 194.337688 
L 250.184032 189.232866 
L 250.81708 186.523893 
L 247.410091 183.06696 
L 247.850641 180.448255 
L 252.999722 178.392269 
L 253.290525 175.600124 
L 319.33628 176.531258 
L 319.53577 171.654267 
L 314.756413 166.803765 
L 314.652314 162.075585 
L 262.248401 160.966823 
L 261.986737 157.892496 
L 307.071523 148.790706 
L 306.404854 144.313062 
L 285.083419 143.90981 
L 284.274155 140.125933 
L 316.007964 127.755175 
L 314.675473 123.00695 
L 278.085792 129.967317 
L 276.841606 126.410355 
L 292.639192 115.970284 
L 290.947713 111.962651 
L 270.996402 116.693248 
L 269.338355 113.365754 
L 267.576503 110.092039 
L 265.71259 106.875338 
L 291.467764 85.859895 
L 288.830127 81.903981 
L 243.990623 109.052031 
L 242.105672 106.577436 
L 283.270241 67.97599 
L 280.074348 64.286667 
L 279.093556 58.481001 
L 275.601185 54.927697 
L 255.607821 69.191091 
L 252.46381 66.370934 
L 243.134377 71.131168 
L 240.057534 68.702245 
L 227.077674 80.106403 
L 224.290971 78.1779 
L 221.445009 76.337971 
L 218.542603 74.588434 
L 233.1703 40.381338 
L 229.131541 38.280911 
L 215.929118 56.024682 
L 212.390745 54.458621 
L 204.157532 65.004073 
L 200.907311 63.803697 
L 193.00876 77.274192 
L 190.149851 76.418291 
L 195.804738 41.311464 
L 191.813699 40.385432 
L 179.985214 82.306784 
L 177.29098 81.857883 
L 176.571059 64.721967 
L 173.325608 64.389109 
L 171.619621 36.052319 
L 167.475181 35.889321 
L 163.163271 14.946855 
L 158.35941 15.060178 
L 154.186931 24.149104 
L 149.676847 24.540112 
L 145.931473 30.652279 
L 141.629945 31.299642 
L 139.549688 43.124656 
L 135.643474 43.96651 
L 140.843849 79.133498 
L 138.069192 79.916856 
L 133.282357 74.68443 
L 130.37155 75.707738 
L 115.103535 46.264427 
L 111.308129 47.873369 
L 100.595935 35.104064 
L 96.456795 37.174674 
L 105.758104 63.225546 
L 102.500613 65.119942 
L 87.951491 49.555558 
L 84.27299 52.016592 
L 99.803041 80.456662 
L 97.090279 82.529779 
L 102.730924 94.531611 
L 100.459261 96.50571 
L 103.250996 103.783827 
L 101.269987 105.737 
L 99.942398 108.296931 
L 98.104926 110.351902 
L 96.332975 112.463631 
L 94.628298 114.630029 
L 79.242006 107.042397 
L 77.375323 109.748854 
L 87.885884 120.160864 
L 86.427401 122.589052 
L 73.006553 118.582504 
L 71.5058 121.479311 
L 79.59672 128.788239 
L 78.4136 131.472791 
L 51.80107 124.357705 
L 50.492386 127.918404 
L 54.66616 133.209277 
L 53.634372 136.675515 
L 30.069261 134.579904 
L 29.092731 138.818844 
L 43.285884 145.810824 
L 42.655944 149.628651 
L 67.708343 156.452166 
L 67.400915 159.496836 
L 50.324245 161.647189 
L 50.188755 165.235885 
L 54.18724 168.78913 
L 54.274398 172.252834 
L 37.625324 176.932602 
L 37.976719 180.913023 
L 15.342753 188.024681 
L 16.053924 192.70023 
L 65.799866 187.536724 
L 66.470748 190.626032 
L 54.029272 197.220974 
L 55.010468 200.675588 
L 17.215959 217.152198 
L 18.842037 221.754448 
L 23.591345 225.089748 
L 25.463845 229.487617 
L 47.753833 224.035581 
L 49.581241 227.67425 
L 48.017729 233.225836 
L 50.133969 236.851664 
L 94.19503 213.271275 
L 95.661023 215.455053 
L 38.421506 261.203403 
L 41.422166 265.117124 
L 88.785707 231.573984 
L 90.829852 233.918794 
L 59.850614 267.918213 
L 63.051807 271.154835 
L 57.096549 284.351273 
L 60.815796 287.666365 
L 85.392838 265.240329 
L 88.497204 267.675173 
L 92.60849 268.700159 
L 95.818073 270.906416 
L 79.599453 304.452263 
L 83.939592 307.049876 
L 104.320383 279.740124 
L 107.871296 281.572675 
L 117.503121 270.129544 
L 120.745339 271.552352 
L 118.8449 286.38831 
L 122.597665 287.760891 
L 128.074074 283.642292 
L 131.735936 284.726046 
L 140.02893 266.947986 
L 143.159975 267.664107 
L 146.596281 266.698249 
L 149.716227 267.208001 
L 147.692408 312.361047 
L 152.24755 312.813758 
L 158.691729 276.980473 
L 162.12899 277.104834 
L 165.727795 291.596685 
L 169.621143 291.49259 
L 175.171963 313.72367 
L 179.756362 313.31169 
L 177.415987 262.561348 
L 180.390621 262.104106 
L 191.007142 299.390429 
L 195.133044 298.487642 
L 192.548009 272.601747 
L 195.830854 271.663758 
L 203.454476 283.577434 
L 207.077028 282.291094 
L 219.184953 301.733405 
L 223.37059 299.943488 
L 205.401234 252.427235 
L 208.043393 251.095086 
L 236.352222 295.197665 
L 240.323874 292.871203 
L 216.139251 247.283835 
L 218.61438 245.616603 
L 229.680633 255.48431 
L 232.406909 253.387253 
L 242.863837 260.410202 
L 245.738475 257.8962 
L 263.58256 270.946511 
L 266.778239 267.775858 
L 239.050073 236.240311 
L 241.166642 233.858173 
L 233.195499 223.326726 
L 234.908932 221.135053 
L 256.240243 232.838116 
L 258.24134 229.917163 
L 253.992 223.129981 
L 255.688965 220.284517 
L 236.013711 206.019752 
L 237.181581 203.748025 
L 271.208908 216.45156 
L 272.687375 213.068062 
L 312.376536 224.272589 
L 314.080559 219.590823 
L 257.277822 196.684098 
L 258.141645 193.748397 
L 250.317452 188.692685 
L 250.933449 185.979785 
L 247.504786 182.544348 
L 247.928856 179.922924 
L 253.064905 177.834593 
L 253.338141 175.040676 
L 319.388446 175.5564 
L 319.557258 170.678251 
L 314.747489 165.857904 
L 314.613654 161.130472 
L 262.203804 160.351324 
L 261.92281 157.278703 
L 306.949459 147.893536 
L 306.254641 143.420173 
L 284.931092 143.151029 
L 284.098046 139.372317 
L 315.753422 126.802215 
L 314.391094 122.062465 
L 277.845914 129.252823 
L 276.57938 125.703756 
L 292.310992 115.164534 
L 290.59434 111.167619 
L 270.673177 116.023604 
L 268.994234 112.706605 
L 267.211828 109.444035 
L 265.327721 106.239121 
L 290.95021 85.062107 
L 288.287745 81.122862 
L 243.619874 108.552389 
L 241.719396 106.089699 
L 282.640369 67.230114 
L 279.421336 63.560965 
L 278.404049 57.761582 
L 274.889399 54.230314 
L 254.986138 68.619172 
L 251.824453 65.818845 
L 242.525144 70.637662 
L 239.433085 68.228138 
L 226.525208 79.713707 
L 223.72643 77.802769 
L 220.868953 75.980775 
L 217.955601 74.249528 
L 232.367865 39.951108 
L 228.315975 37.876124 
L 215.225411 55.702581 
L 211.677259 54.158805 
L 203.510534 64.755831 
L 200.252827 63.57592 
L 192.439154 77.095826 
L 189.574918 76.257923 
L 195.008892 41.116224 
L 191.012108 40.215312 
L 179.447518 82.210229 
L 176.750513 81.778283 
L 175.922832 64.647233 
L 172.675351 64.334794 
L 170.791176 36.009294 
L 166.645792 35.872365 
L 162.202252 14.957433 
L 157.399199 15.100967 
L 153.283966 24.215956 
L 148.776431 24.635322 
L 145.069573 30.770925 
L 140.772201 31.445329 
L 138.766358 43.283193 
L 134.865516 44.149598 
L 140.286969 79.283183 
L 137.517293 80.083977 
L 132.697644 74.881761 
L 129.793331 75.923356 
L 114.340436 46.576654 
L 110.555225 48.209435 
L 99.76293 35.507756 
L 95.636896 37.604359 
L 105.101865 63.596215 
L 101.856354 65.511061 
L 87.209628 50.03849 
L 83.546679 52.522612 
L 99.255295 80.864444 
L 96.555625 82.954582 
L 102.271643 94.9207 
L 100.012441 96.909047 
L 102.849896 104.169462 
L 100.88121 106.135056 
L 99.569748 108.703287 
L 97.745237 110.769773 
L 95.986603 112.892604 
L 94.295585 115.069682 
L 78.861875 107.578971 
L 77.012251 110.297114 
L 87.58809 120.642813 
L 86.144908 123.080126 
L 72.699127 119.158067 
L 71.216623 122.064256 
L 79.353352 129.322152 
L 78.187139 132.014092 
L 51.530385 125.066524 
L 50.244122 128.635383 
L 54.45109 133.899902 
L 53.441124 137.37256 
L 29.863298 135.425202 
L 28.913448 139.6702 
L 43.150296 146.572774 
L 42.54438 150.394488 
L 67.6392 157.060302 
L 67.350927 160.106846 
L 50.28812 162.364559 
L 50.175203 165.954036 
L 54.195956 169.482063 
L 54.304897 172.94515 
L 37.685586 177.729539 
L 38.062009 181.707671 
L 15.473219 188.961543 
L 16.213783 193.632526 
L 65.926265 188.156249 
L 66.616563 191.241277 
L 54.216812 197.914338 
L 55.219716 201.362712 
L 17.529583 218.076702 
L 19.184575 222.668634 
L 23.954766 225.973998 
L 25.854889 230.360003 
L 48.110146 224.767884 
L 49.960403 228.394987 
L 48.431838 233.956297 
L 50.57084 237.568743 
L 94.482723 213.711702 
L 95.962421 215.886216 
L 39.011768 261.993665 
L 42.036984 265.888436 
L 89.18862 232.04807 
L 91.247472 234.379977 
L 60.482684 268.573565 
L 63.704171 271.78999 
L 57.832029 285.023622 
L 61.572052 288.315257 
L 86.007561 265.735089 
L 89.12718 268.150359 
L 93.24483 269.149467 
L 96.468226 271.335494 
L 80.460911 304.982684 
L 84.817302 307.552949 
L 105.025928 280.115554 
L 108.588296 281.925735 
L 118.14796 270.422251 
L 121.399062 271.82464 
L 119.59197 286.672257 
L 123.353294 288.021208 
L 128.803691 283.868247 
L 132.472296 284.928948 
L 140.653313 267.099082 
L 143.7888 267.795496 
L 147.218963 266.808045 
L 150.342053 267.298164 
L 148.602261 312.463046 
L 153.16016 312.887098 
L 159.378841 277.013992 
L 162.816816 277.116732 
L 166.506696 291.585662 
L 170.399312 291.457082 
L 176.089843 313.652811 
L 180.67156 313.212006 
L 178.012041 262.477387 
L 180.98374 262.001446 
L 191.834561 299.220259 
L 195.954703 298.291541 
L 193.206912 272.422416 
L 196.483792 271.463798 
L 204.182194 283.32929 
L 207.796584 282.020192 
L 220.02655 301.385966 
L 224.200847 299.569759 
L 205.932997 252.167463 
L 208.566725 250.818723 
L 237.152374 294.742383 
L 241.109315 292.390987 
L 216.638451 246.956629 
L 219.103046 245.273863 
L 230.231142 255.071774 
L 232.944175 252.957612 
L 243.445066 259.914653 
L 246.303836 257.382621 
L 264.229647 270.320445 
L 267.405321 267.129756 
L 239.479363 235.769227 
L 241.580908 233.373824 
L 233.543686 222.89272 
L 235.243301 220.690314 
L 256.647795 232.258982 
L 258.630482 229.325502 
L 254.338539 222.56518 
L 256.017573 219.7091 
L 236.252991 205.568362 
L 237.40655 203.289336 
L 271.513102 215.778607 
L 272.97026 212.385877 
L 312.729106 223.340559 
L 314.40365 218.648169 
L 257.457966 196.099155 
L 258.303308 193.158079 
L 250.447472 188.151676 
L 251.046394 185.434955 
L 247.596192 182.021151 
L 248.003767 179.397111 
L 253.126579 177.276519 
L 253.382238 174.480938 
L 319.434479 174.581233 
L 319.572608 169.702119 
L 314.732617 164.912119 
L 314.569052 160.185622 
L 262.155338 159.736117 
L 261.855024 156.665324 
L 306.821755 146.997151 
L 306.098816 142.528246 
L 284.773996 142.39322 
L 283.9172 138.619822 
L 315.492891 125.850875 
L 314.10078 121.119787 
L 277.601546 128.539851 
L 276.312716 124.99882 
L 291.977731 114.360864 
L 290.235975 110.374825 
L 270.345747 115.356006 
L 268.645975 112.049632 
L 266.843085 108.798337 
L 264.938858 105.605336 
L 290.427649 84.267591 
L 287.74046 80.345169 
L 243.245989 108.05509 
L 241.330059 105.604401 
L 282.005819 66.488215 
L 278.763772 62.839384 
L 277.710031 57.046514 
L 274.17324 53.537421 
L 254.360871 68.051174 
L 251.181636 65.270788 
L 241.912818 70.147997 
L 238.805666 67.757969 
L 225.970282 79.324493 
L 223.159541 77.431196 
L 220.290661 75.62721 
L 217.366478 73.91432 
L 231.562739 39.525934 
L 227.49788 37.476475 
L 214.519693 55.384911 
L 210.961901 53.863482 
L 202.861987 64.511662 
L 199.596923 63.352264 
L 191.868438 76.921046 
L 188.998989 76.101174 
L 194.211833 40.925994 
L 190.209462 40.050237 
L 178.909225 82.117058 
L 176.209557 81.702083 
L 175.274148 64.576577 
L 172.024766 64.284569 
L 169.962476 35.971481 
L 165.816314 35.860626 
L 161.241318 14.974055 
L 156.439263 15.147795 
L 152.38144 24.288486 
L 147.876631 24.736194 
L 144.208436 30.894989 
L 139.915391 31.596408 
L 137.984041 43.446653 
L 134.088725 44.337575 
L 139.731041 79.436367 
L 136.966457 80.254565 
L 132.114184 75.082765 
L 129.216479 76.142606 
L 113.579316 46.893674 
L 109.804449 48.55023 
L 98.932481 35.91668 
L 94.819715 38.039191 
L 104.447971 63.971004 
L 101.214567 65.906225 
L 86.470818 50.52608 
L 82.823565 53.03319 
L 98.710124 81.275664 
L 96.023653 83.38274 
L 101.814818 95.31267 
L 99.568166 97.315187 
L 102.451229 104.557613 
L 100.494945 106.535549 
L 99.199661 109.111977 
L 97.388183 111.189898 
L 95.642935 113.323748 
L 93.965643 115.511418 
L 78.485126 108.117925 
L 76.652635 110.847647 
L 87.293333 121.126626 
L 85.865509 123.572967 
L 72.395326 119.735552 
L 70.93113 122.651007 
L 79.113346 129.857585 
L 77.964087 132.556806 
L 51.264164 125.777032 
L 50.000373 129.35391 
L 54.240368 134.591865 
L 53.252263 138.070806 
L 29.662656 136.271778 
L 28.739523 140.522666 
L 43.019503 147.335562 
L 42.437635 151.161012 
L 67.573883 157.668862 
L 67.304777 160.717158 
L 50.256507 163.082142 
L 50.166168 166.672258 
L 54.209031 170.174927 
L 54.339751 173.63726 
L 37.75086 178.526081 
L 38.152295 182.501766 
L 15.609574 189.897566 
L 16.379501 194.563799 
L 66.056558 188.774967 
L 66.766245 191.855592 
L 54.40871 198.606509 
L 55.433282 202.048507 
L 17.849016 218.999216 
L 19.532856 223.580648 
L 24.323741 226.855945 
L 26.251412 231.229913 
L 48.471057 225.497931 
L 50.34409 229.113325 
L 48.850534 234.684139 
L 51.012214 238.28306 
L 94.77318 214.15031 
L 96.266526 216.315475 
L 39.606989 262.7802 
L 42.656641 266.655867 
L 89.594508 232.519613 
L 91.667985 234.838525 
L 61.118864 269.224929 
L 64.360516 272.42103 
L 58.571723 285.691333 
L 62.332374 288.959379 
L 86.625384 266.225972 
L 89.760131 268.621574 
L 93.883984 269.594765 
L 97.121065 271.760475 
L 81.325689 305.507677 
L 85.698159 308.050491 
L 105.733819 280.486538 
L 109.307502 282.274278 
L 118.794626 270.710897 
L 122.054484 272.09281 
L 120.340811 286.951499 
L 124.110545 288.276767 
L 129.534715 284.089608 
L 133.209918 285.127215 
L 141.278633 267.246247 
L 144.418438 267.922927 
L 147.842324 266.913922 
L 150.968434 267.384389 
L 149.512738 312.55932 
L 154.073214 312.954697 
L 160.066151 277.043189 
L 163.504704 277.124304 
L 167.285512 291.56974 
L 171.177242 291.41668 
L 177.007259 313.57618 
L 181.586113 313.106567 
L 178.607554 262.389679 
L 181.576202 261.895057 
L 192.660894 299.044888 
L 196.775113 298.090275 
L 193.864674 272.238944 
L 197.13546 271.259735 
L 204.908337 283.076574 
L 208.514422 281.744769 
L 220.865946 301.033241 
L 225.028738 299.190816 
L 206.463115 251.904351 
L 209.088308 250.539074 
L 237.949647 294.282077 
L 241.89172 291.905841 
L 217.135585 246.626289 
L 219.589547 244.928055 
L 230.779046 254.655784 
L 233.478728 252.5246 
L 244.023168 259.415459 
L 246.865956 256.865497 
L 264.872784 269.690322 
L 268.028328 266.479722 
L 239.905682 235.295453 
L 241.99212 232.886879 
L 233.889137 222.456532 
L 235.574866 220.24348 
L 257.051697 231.677298 
L 259.015895 228.731405 
L 254.681518 221.99821 
L 256.342556 219.131627 
L 236.489427 205.115477 
L 237.62863 202.82924 
L 271.813057 215.103754 
L 273.248848 211.701926 
L 313.075806 222.406331 
L 314.720805 217.703502 
L 257.634427 195.513089 
L 258.461254 192.566755 
L 250.574086 187.60986 
L 251.15591 184.889426 
L 247.684305 181.497389 
L 248.075368 178.870838 
L 253.184742 176.718068 
L 253.422813 173.920935 
L 319.474379 173.605797 
L 319.581818 168.72591 
L 314.711796 163.966445 
L 314.518507 159.241071 
L 262.103003 159.121227 
L 261.783382 156.052384 
L 306.688416 146.101586 
L 305.937384 141.637317 
L 284.612137 141.636415 
L 283.731626 137.86848 
L 315.226383 124.901193 
L 313.804543 120.178954 
L 277.352699 127.828431 
L 276.041623 124.295576 
L 291.639422 113.559306 
L 289.87263 109.5843 
L 270.014124 114.690481 
L 268.293591 111.394863 
L 266.470287 108.154972 
L 264.546016 104.974011 
L 289.9001 83.476377 
L 287.188296 79.570933 
L 242.868983 107.560151 
L 240.937679 105.121561 
L 281.366615 65.750321 
L 278.101683 62.121953 
L 277.011529 56.335825 
L 273.452738 52.849045 
L 253.732044 67.487121 
L 250.535385 64.726785 
L 241.297425 69.662193 
L 238.175303 67.291754 
L 225.412919 78.938777 
L 222.590326 77.063195 
L 219.710157 75.277289 
L 216.775258 73.582825 
L 230.754955 39.105832 
L 226.677286 37.081979 
L 213.81199 55.071686 
L 210.2447 53.572664 
L 202.211917 64.271577 
L 198.939626 63.132737 
L 191.296633 76.749859 
L 188.422084 75.94805 
L 193.413594 40.74078 
L 189.405794 39.890213 
L 178.370357 82.027275 
L 175.668132 81.629287 
L 174.625032 64.510003 
L 171.373878 64.238438 
L 169.133556 35.93888 
L 164.986778 35.854104 
L 160.280508 14.996721 
L 155.47964 15.200659 
L 151.479387 24.36669 
L 146.977484 24.842722 
L 143.348096 31.024466 
L 139.059547 31.752872 
L 137.202767 43.615031 
L 133.313132 44.530434 
L 139.176087 79.593045 
L 136.416704 80.428614 
L 131.531999 75.287435 
L 128.641018 76.36548 
L 112.820205 47.215475 
L 109.055831 48.89574 
L 98.104621 36.330818 
L 94.005285 38.479155 
L 103.796447 64.349898 
L 100.575279 66.305417 
L 85.735089 51.018306 
L 82.103676 53.548306 
L 98.16755 81.690303 
L 95.494385 83.814234 
L 101.360467 95.707505 
L 99.126455 97.724113 
L 102.055012 104.948263 
L 100.111206 106.938464 
L 98.832152 109.522988 
L 97.033779 111.612261 
L 95.301987 113.757045 
L 93.638487 115.955221 
L 78.111775 108.659237 
L 76.296489 111.400431 
L 87.001625 121.612283 
L 85.589215 124.067556 
L 72.095164 120.314936 
L 70.649333 123.239543 
L 78.876712 130.394516 
L 77.744452 133.100912 
L 51.002417 126.4892 
L 49.761147 130.073956 
L 54.034003 135.28514 
L 53.067797 138.770227 
L 29.467342 137.1196 
L 28.570963 141.37621 
L 42.89351 148.099158 
L 42.335714 151.928191 
L 67.512395 158.27782 
L 67.262466 161.327749 
L 50.229408 163.79991 
L 50.16165 167.390523 
L 54.226464 170.867695 
L 54.378957 174.329138 
L 37.821141 179.322196 
L 38.247574 183.295278 
L 15.751814 190.832712 
L 16.551074 195.494011 
L 66.190739 189.392853 
L 66.919788 192.468953 
L 54.604957 199.297459 
L 55.651157 202.732945 
L 18.174244 219.919703 
L 19.886865 224.490453 
L 24.698256 227.735553 
L 26.653398 232.097311 
L 48.836553 226.225693 
L 50.732288 229.829236 
L 49.273798 235.409333 
L 51.458071 238.994588 
L 95.06639 214.587083 
L 96.573324 216.742813 
L 40.207145 263.562975 
L 43.281112 267.419385 
L 90.003353 232.988593 
L 92.091374 235.294418 
L 61.759128 269.87228 
L 65.020818 273.047928 
L 59.315602 286.354377 
L 63.096733 289.598707 
L 87.246282 266.71296 
L 90.396034 269.088799 
L 94.525926 270.036034 
L 97.776564 272.181342 
L 82.193751 306.02722 
L 86.582128 308.542483 
L 106.44403 280.853062 
L 110.028886 282.618291 
L 119.443095 270.99547 
L 122.71158 272.356853 
L 121.091394 287.226026 
L 124.869388 288.527558 
L 130.267116 284.306367 
L 133.948773 285.320838 
L 141.904867 267.389477 
L 145.048866 268.046396 
L 148.466337 267.015876 
L 151.595345 267.466673 
L 150.423803 312.649865 
L 154.986675 313.016552 
L 160.75363 277.068062 
L 164.192625 277.127549 
L 168.064212 291.54892 
L 171.954903 291.371386 
L 177.924175 313.493781 
L 182.499985 312.995378 
L 179.202505 262.298227 
L 182.167983 261.784943 
L 193.486106 298.864324 
L 197.59424 297.883853 
L 194.521269 272.051339 
L 197.785832 271.051577 
L 205.632876 282.819296 
L 209.230513 281.464837 
L 221.703106 300.675243 
L 225.854228 298.806673 
L 206.991567 251.637911 
L 209.608122 250.25615 
L 238.744008 293.816766 
L 242.671059 291.415784 
L 217.63063 246.29283 
L 220.073863 244.579195 
L 231.324323 254.236356 
L 234.010547 252.088234 
L 244.598118 258.912639 
L 247.424812 256.344848 
L 265.511945 269.056166 
L 268.647234 265.825783 
L 240.329012 234.819006 
L 242.400261 232.397358 
L 234.231837 222.01818 
L 235.903613 219.794569 
L 257.451932 231.093084 
L 259.397563 228.134896 
L 255.020924 221.429095 
L 256.6639 218.552122 
L 236.72301 204.661114 
L 237.847811 202.367757 
L 272.108763 214.427027 
L 273.523129 211.016236 
L 313.416625 221.469941 
L 315.032012 216.756858 
L 257.807198 194.925926 
L 258.615479 191.97445 
L 250.697291 187.067259 
L 251.261993 184.343219 
L 247.769123 180.973084 
L 248.143658 178.344125 
L 253.239391 176.159263 
L 253.459865 173.360687 
L 319.508143 172.630128 
L 314.759387 167.749663 
z
" clip-path="url(#pf9335acd1c)" style="fill: #0000ff; opacity: 0.5; stroke: #000000; stroke-width: 1.5; stroke-linejoin: miter"/>
   </g>
  </g>
 </g>
 <defs>
  <clipPath id="pf9335acd1c">
   <rect x="0" y="-0" width="334.8" height="328.731077"/>
  </clipPath>
 </defs>
</svg>
