<?xml version="1.0" encoding="utf-8" standalone="no"?>
<!DOCTYPE svg PUBLIC "-//W3C//DTD SVG 1.1//EN"
  "http://www.w3.org/Graphics/SVG/1.1/DTD/svg11.dtd">
<svg xmlns:xlink="http://www.w3.org/1999/xlink" width="334.8pt" height="296.362832pt" viewBox="0 0 334.8 296.362832" xmlns="http://www.w3.org/2000/svg" version="1.1">
 <metadata>
  <rdf:RDF xmlns:dc="http://purl.org/dc/elements/1.1/" xmlns:cc="http://creativecommons.org/ns#" xmlns:rdf="http://www.w3.org/1999/02/22-rdf-syntax-ns#">
   <cc:Work>
    <dc:type rdf:resource="http://purl.org/dc/dcmitype/StillImage"/>
    <dc:date>2023-12-09T18:06:26.866851</dc:date>
    <dc:format>image/svg+xml</dc:format>
    <dc:creator>
     <cc:Agent>
      <dc:title>Matplotlib v3.8.2, https://matplotlib.org/</dc:title>
     </cc:Agent>
    </dc:creator>
   </cc:Work>
  </rdf:RDF>
 </metadata>
 <defs>
  <style type="text/css">*{stroke-linejoin: round; stroke-linecap: butt}</style>
 </defs>
 <g id="figure_1">
  <g id="patch_1">
   <path d="M 0 296.362832 
L 334.8 296.362832 
L 334.8 0 
L 0 0 
L 0 296.362832 
z
" style="fill: none"/>
  </g>
  <g id="axes_1">
   <g id="patch_2">
    <path d="M 246.711611 156.073326 
L 246.673149 153.627442 
L 288.834864 148.52146 
L 288.538129 144.754863 
L 273.604995 142.835378 
L 273.137006 139.550452 
L 318.71412 127.469609 
L 317.740695 122.773951 
L 307.668694 120.411955 
L 306.478822 116.067079 
L 297.828668 114.144105 
L 296.446587 110.11172 
L 269.162267 116.341531 
L 267.86345 113.209394 
L 299.214062 94.692336 
L 297.219689 90.626008 
L 274.856196 97.765938 
L 272.970507 94.463955 
L 264.48128 95.353496 
L 262.524868 92.378917 
L 271.063792 81.764587 
L 268.67686 78.589757 
L 256.701574 83.353185 
L 254.371693 80.629149 
L 231.759472 96.97546 
L 229.870237 95.028924 
L 273.750305 44.259181 
L 270.182793 41.018425 
L 236.599582 74.11805 
L 233.989267 72.030631 
L 241.71342 55.685151 
L 238.521006 53.446056 
L 231.139394 57.81558 
L 228.019193 55.907902 
L 237.801866 30.462904 
L 233.818343 28.359267 
L 209.160534 70.309655 
L 206.444041 69.086863 
L 224.042854 16.365755 
L 219.622889 14.701701 
L 201.87618 54.21421 
L 198.657213 53.228413 
L 200.744371 31.449261 
L 196.810184 30.510306 
L 190.556043 41.803568 
L 186.952454 41.179836 
L 180.181986 65.890374 
L 177.340869 65.580916 
L 176.379454 34.610982 
L 172.556725 34.436549 
L 168.709813 21.289071 
L 164.472006 21.362375 
L 161.082104 34.635035 
L 157.267694 34.941573 
L 154.443096 43.007477 
L 150.895216 43.51862 
L 148.093426 47.922559 
L 144.703227 48.63092 
L 145.580787 65.849803 
L 142.755502 66.628303 
L 135.168381 52.854247 
L 131.939635 53.966561 
L 133.02132 65.913193 
L 130.204238 67.086559 
L 132.365478 78.79142 
L 129.95364 79.97904 
L 114.172311 56.972255 
L 111.083426 58.742696 
L 98.527856 45.672847 
L 95.091428 47.94077 
L 88.549441 45.960891 
L 85.127003 48.542415 
L 74.895447 42.937601 
L 71.384701 45.949931 
L 84.883718 66.998222 
L 82.124553 69.684603 
L 87.329125 79.818906 
L 84.971861 82.422059 
L 102.915683 101.740523 
L 101.239976 103.842762 
L 50.940541 70.807633 
L 48.317934 74.559378 
L 59.49316 87.023017 
L 57.376172 90.497832 
L 66.859893 100.314927 
L 65.157189 103.551544 
L 64.952651 107.492193 
L 63.476559 110.785229 
L 92.214229 125.947959 
L 91.304948 128.374706 
L 53.080684 118.796426 
L 51.965892 122.457153 
L 64.404662 129.559981 
L 63.622701 132.859336 
L 59.159976 135.471229 
L 58.566471 138.932566 
L 90.951781 146.462482 
L 90.688145 148.918781 
L 51.291935 149.036568 
L 51.128844 152.738586 
L 71.107247 156.380928 
L 71.165281 159.456278 
L 15.218182 166.238612 
L 15.613796 171.066363 
L 32.200887 173.799662 
L 32.82584 178.089701 
L 47.194617 179.71482 
L 47.998143 183.530499 
L 63.828139 183.437573 
L 64.740492 186.728416 
L 73.804267 187.343047 
L 74.834484 190.318288 
L 82.39371 190.685227 
L 83.524766 193.388745 
L 44.388815 215.220307 
L 46.310098 219.106651 
L 36.901928 229.280244 
L 39.268988 233.395041 
L 64.470951 222.904797 
L 66.623922 226.155915 
L 55.828874 238.893959 
L 58.488852 242.408898 
L 88.46974 223.150571 
L 90.618573 225.646994 
L 90.047892 230.721724 
L 92.433999 233.164783 
L 98.57079 231.586871 
L 100.979885 233.761523 
L 82.937102 260.866914 
L 86.274556 263.518646 
L 115.352806 230.442109 
L 117.71761 232.089664 
L 107.423386 253.874238 
L 110.528867 255.759525 
L 129.524591 228.457336 
L 131.819982 229.660281 
L 134.477012 230.092167 
L 136.821357 231.138588 
L 123.774459 271.564176 
L 127.428066 272.926603 
L 138.870334 249.966616 
L 141.837403 250.865075 
L 142.572771 260.631967 
L 145.873352 261.40874 
L 148.774045 264.352952 
L 152.188555 264.932903 
L 153.57313 282.225498 
L 157.547219 282.645719 
L 163.09996 256.0295 
L 166.24568 256.163129 
L 169.401312 257.738159 
L 172.597639 257.672814 
L 174.697603 241.369827 
L 177.376656 241.146048 
L 183.35496 266.038496 
L 186.80537 265.530315 
L 186.98143 248.285475 
L 189.871853 247.672047 
L 193.327293 249.203157 
L 196.243432 248.389747 
L 195.990629 237.97823 
L 198.552515 237.086629 
L 209.413113 256.839972 
L 212.561417 255.517013 
L 212.351332 247.143776 
L 215.193314 245.733226 
L 232.597509 270.480329 
L 236.163233 268.421657 
L 210.950054 221.532355 
L 212.98745 220.178528 
L 228.206283 236.76083 
L 230.713963 234.856901 
L 259.350202 264.186543 
L 262.704808 261.28982 
L 268.087877 260.523277 
L 271.322981 257.353633 
L 278.407337 257.752681 
L 281.550226 254.259941 
L 262.522876 232.628454 
L 264.883658 229.647578 
L 275.28306 232.433236 
L 277.631395 229.051248 
L 263.555983 215.373013 
L 265.373706 212.368185 
L 259.648345 205.269222 
L 261.150314 202.392255 
L 261.16348 198.821781 
L 262.461978 195.900363 
L 254.33691 189.308796 
L 255.339674 186.606723 
L 275.338633 189.948654 
L 276.351132 186.585925 
L 291.453105 186.746639 
L 292.356959 182.878819 
L 249.965768 171.021465 
L 250.395699 168.465872 
L 318.803716 174.069972 
L 319.295464 169.348456 
L 251.200797 160.735735 
L 251.306712 158.146396 
L 246.710072 155.584072 
L 246.656228 153.138478 
L 288.784996 147.767424 
L 288.464576 144.002767 
L 273.519665 142.177241 
L 273.031026 138.895324 
L 318.531256 126.528066 
L 317.528318 121.838623 
L 307.44166 119.540021 
L 306.224484 115.202714 
L 297.562408 113.334183 
L 296.154992 109.31057 
L 268.910394 115.711861 
L 267.591904 112.587955 
L 298.825433 93.874085 
L 296.805525 89.820381 
L 274.48738 97.100823 
L 272.580961 93.810766 
L 264.097497 94.753682 
L 262.122415 91.791466 
L 270.594412 81.123641 
L 268.187559 77.963887 
L 256.242469 82.802538 
L 253.895501 80.09321 
L 231.386537 96.581415 
L 229.485097 94.6468 
L 273.044984 43.60208 
L 269.45716 40.383826 
L 236.082791 73.694016 
L 233.459399 71.623056 
L 241.080596 55.229318 
L 237.874162 53.010346 
L 230.520177 57.42621 
L 227.38804 55.538194 
L 237.010485 30.032171 
L 233.01381 27.95363 
L 208.620334 70.058272 
L 205.896204 68.85259 
L 223.163083 16.021837 
L 218.732739 14.385616 
L 201.234892 54.00896 
L 198.009788 53.043428 
L 199.959927 31.25158 
L 196.019912 30.337387 
L 189.836923 41.66976 
L 186.229483 41.068706 
L 179.614563 65.821337 
L 176.771556 65.529754 
L 175.615378 34.566479 
L 171.791627 34.416093 
L 167.862101 21.293069 
L 163.624838 21.393026 
L 160.318481 34.686744 
L 156.506075 35.017266 
L 153.732262 43.100776 
L 150.187668 43.634223 
L 147.41363 48.055697 
L 144.027954 48.785366 
L 145.013794 65.998389 
L 142.193461 66.794643 
L 134.519859 53.068578 
L 131.298173 54.201177 
L 132.454974 66.140769 
L 129.645327 67.33183 
L 131.880142 79.022867 
L 129.475821 80.225632 
L 113.550105 57.318558 
L 110.472416 59.108391 
L 97.834892 46.117768 
L 94.412795 48.407259 
L 87.858486 46.468566 
L 84.452352 49.071564 
L 74.185747 43.531211 
L 70.694016 46.565562 
L 84.325149 67.528536 
L 81.582933 70.232217 
L 86.851142 80.333586 
L 84.510296 82.951513 
L 102.575266 102.156738 
L 100.912814 104.269475 
L 50.406602 71.551354 
L 47.807643 75.31952 
L 59.061037 87.712627 
L 56.965945 91.200687 
L 66.511223 100.957941 
L 64.828909 104.205203 
L 64.64916 108.14706 
L 63.193808 111.449315 
L 92.026275 126.431001 
L 91.132275 128.863419 
L 52.848525 119.525738 
L 51.756778 123.193404 
L 64.239976 130.217859 
L 63.478781 133.522066 
L 59.032572 136.161976 
L 58.460848 139.626977 
L 90.892876 146.953059 
L 90.644695 149.410967 
L 51.250005 149.776532 
L 51.1102 153.479502 
L 71.111117 156.99612 
L 71.188491 160.071044 
L 15.285156 167.205119 
L 15.711126 172.030286 
L 32.31508 174.659208 
L 32.967003 178.945231 
L 47.345716 180.479947 
L 48.173224 184.290496 
L 64.002323 184.098011 
L 64.935355 187.383051 
L 74.002817 187.940663 
L 75.051727 190.909366 
L 82.61311 191.228755 
L 83.761147 193.925105 
L 44.763279 216.002378 
L 46.708967 219.876562 
L 37.364969 230.109126 
L 39.757862 234.208954 
L 64.893349 223.560411 
L 67.066725 226.797924 
L 56.352005 239.603611 
L 59.034038 243.10175 
L 88.893209 223.655242 
L 91.057701 226.1381 
L 90.518948 231.216319 
L 92.920373 233.644322 
L 99.047119 232.027845 
L 101.469844 234.187303 
L 83.597895 261.405636 
L 86.95196 264.036325 
L 115.821603 230.777556 
L 118.196722 232.410205 
L 108.039714 254.259093 
L 111.156992 256.124812 
L 129.980625 228.70369 
L 132.283536 229.892174 
L 134.94323 230.307341 
L 137.29411 231.338996 
L 124.501724 271.845842 
L 128.163828 273.185264 
L 139.461464 250.153765 
L 142.434125 251.033545 
L 143.230907 260.795619 
L 146.536308 261.551618 
L 149.455461 264.477528 
L 152.873551 265.035992 
L 154.366859 282.319537 
L 158.343513 282.714754 
L 163.728743 256.064139 
L 166.875241 256.17798 
L 170.040716 257.733132 
L 173.23657 257.647686 
L 175.233955 241.331813 
L 177.911548 241.091189 
L 184.046293 265.945545 
L 187.493439 265.415672 
L 187.561035 248.170066 
L 190.447543 247.538471 
L 193.912544 249.047818 
L 196.823509 248.216083 
L 196.505229 237.806362 
L 199.061457 236.898666 
L 210.046077 256.583311 
L 213.185998 255.240577 
L 212.923254 246.868827 
L 215.756308 245.440431 
L 233.315805 270.077582 
L 236.86851 267.996524 
L 211.360923 221.266726 
L 213.389763 219.900112 
L 228.712589 236.386368 
L 231.208245 234.466704 
L 260.028384 263.615661 
L 263.364705 260.697897 
L 268.742846 259.897512 
L 271.957952 256.707584 
L 279.044677 257.062068 
L 282.165537 253.54963 
L 263.002513 232.038242 
L 265.344501 229.042577 
L 275.761217 231.762773 
L 278.088235 228.366083 
L 263.927073 214.776644 
L 265.725861 211.760444 
L 259.955965 204.69763 
L 261.43981 201.811273 
L 261.430519 198.240787 
L 262.710618 195.31126 
L 254.544253 188.770925 
L 255.530003 186.062599 
L 275.549585 189.278682 
L 276.540914 185.909652 
L 291.6436 185.97538 
L 292.523109 182.101951 
L 250.05818 170.511448 
L 250.47203 167.953202 
L 318.91394 173.126943 
L 319.375983 168.402428 
L 251.228494 160.218154 
L 251.318121 157.6282 
L 246.705456 155.094837 
L 246.636232 152.64963 
L 288.730385 147.013716 
L 288.386295 143.251149 
L 273.430198 141.519654 
L 272.920926 138.240875 
L 318.342474 125.587691 
L 317.310061 120.904649 
L 307.209146 118.669531 
L 305.964716 114.339966 
L 297.291058 112.525951 
L 295.858364 108.51127 
L 268.654565 115.083788 
L 267.316454 111.968236 
L 298.431666 93.058295 
L 296.386302 89.017375 
L 274.114389 96.438042 
L 272.187315 93.16004 
L 263.709948 94.156293 
L 261.716275 91.206558 
L 270.12101 80.48566 
L 267.694332 77.341106 
L 255.779911 82.254789 
L 253.415949 79.560276 
L 231.011132 96.189724 
L 229.097561 94.267106 
L 272.335544 42.949428 
L 268.72755 39.753804 
L 235.563344 73.27324 
L 232.926978 71.218821 
L 240.444917 54.777475 
L 237.22459 52.578713 
L 229.898525 57.040742 
L 226.754575 55.172462 
L 236.216411 29.606425 
L 232.206742 27.553062 
L 208.078562 69.810292 
L 205.346903 68.621767 
L 222.281165 15.68346 
L 217.840618 14.075136 
L 200.592326 53.807748 
L 197.361213 52.862518 
L 199.174255 31.058836 
L 195.228568 30.169441 
L 189.116975 41.540478 
L 185.505827 40.962124 
L 179.046718 65.75587 
L 176.201933 65.482174 
L 174.851036 34.526783 
L 171.026415 34.400449 
L 167.014431 21.3024 
L 162.77788 21.429004 
L 159.555199 34.743254 
L 155.744946 35.097748 
L 153.022029 43.198543 
L 149.48086 43.754274 
L 146.734686 48.193107 
L 143.353666 48.944056 
L 144.447746 66.150538 
L 141.632477 66.964514 
L 133.872698 53.286983 
L 130.658199 54.439823 
L 131.89007 66.371903 
L 129.08797 67.580611 
L 131.39627 79.257361 
L 128.999562 80.475225 
L 112.930088 57.668768 
L 109.863717 59.477922 
L 97.14474 46.567039 
L 93.737111 48.878008 
L 87.170738 46.980575 
L 83.781043 49.604945 
L 73.479794 44.129272 
L 70.007217 47.185525 
L 83.769925 68.062352 
L 81.044769 70.783227 
L 86.376405 80.851261 
L 84.052071 83.483859 
L 102.237474 102.575086 
L 100.588342 104.698237 
L 49.877351 72.298419 
L 47.302143 76.082856 
L 58.63326 88.40494 
L 56.560147 91.906109 
L 66.166604 101.603135 
L 64.504747 104.860914 
L 64.349793 108.803824 
L 62.91524 112.115166 
L 91.841362 126.915217 
L 90.962678 129.353209 
L 52.620957 120.256495 
L 51.552299 123.930956 
L 64.07943 130.876759 
L 63.339031 134.185689 
L 58.909514 136.85351 
L 58.359594 140.322039 
L 90.837058 147.443997 
L 90.60434 149.903417 
L 51.212729 150.516745 
L 51.096216 154.220522 
L 71.118855 157.611275 
L 71.215568 160.685651 
L 15.358207 168.171186 
L 15.814516 172.993579 
L 32.434676 175.518019 
L 33.113543 179.799857 
L 47.501625 181.244109 
L 48.353083 185.049378 
L 64.180657 184.75734 
L 65.134333 188.036447 
L 74.205122 188.537019 
L 75.272682 191.499066 
L 82.835925 191.770892 
L 84.000898 194.459969 
L 45.142654 216.782079 
L 47.11267 220.643949 
L 37.833215 230.935079 
L 40.251846 235.019776 
L 65.319862 224.213356 
L 67.513557 227.437136 
L 56.87959 240.309959 
L 59.583571 243.79116 
L 89.319844 224.15724 
L 91.499909 226.626435 
L 90.993106 231.707942 
L 93.409754 234.120794 
L 99.526212 232.465815 
L 101.96247 234.609992 
L 84.262063 261.940191 
L 87.632608 264.549733 
L 116.292501 231.110049 
L 118.677841 232.727727 
L 108.658451 254.640065 
L 111.787401 256.486141 
L 130.438199 228.947172 
L 132.74854 230.121148 
L 135.410792 230.519578 
L 137.768114 231.536427 
L 125.230746 272.122929 
L 128.901202 273.439292 
L 140.053759 250.337193 
L 143.031895 251.198259 
L 143.890059 260.955129 
L 147.200149 261.690324 
L 150.137647 264.597816 
L 153.559182 265.134771 
L 155.161164 282.408582 
L 159.140225 282.778781 
L 164.357731 256.094822 
L 167.504883 256.188871 
L 170.680077 257.724084 
L 173.87533 257.618539 
L 175.770058 241.290426 
L 178.446084 241.032967 
L 184.737028 265.848247 
L 188.180773 265.296704 
L 188.139903 248.051014 
L 191.022381 247.401277 
L 194.496806 248.888801 
L 197.402483 248.038774 
L 197.018738 237.631261 
L 199.569207 236.707505 
L 210.677415 256.322675 
L 213.808829 254.960219 
L 213.493436 246.590286 
L 216.317451 245.144101 
L 234.031553 269.670325 
L 237.5711 267.566964 
L 211.770113 220.998518 
L 213.790318 219.619171 
L 229.21653 236.008729 
L 231.700063 234.073407 
L 260.702962 263.040525 
L 264.020866 260.101835 
L 269.393867 259.26764 
L 272.588846 256.057555 
L 279.677661 256.367459 
L 282.776368 252.835462 
L 263.478429 231.445025 
L 265.801529 228.434689 
L 276.235148 231.089316 
L 278.540756 227.678058 
L 264.294405 214.177953 
L 266.074187 211.150499 
L 260.259984 204.124114 
L 261.725645 201.228482 
L 261.693899 197.658126 
L 262.955547 194.720605 
L 254.748209 188.231762 
L 255.716905 185.517289 
L 275.756319 188.607397 
L 276.726439 185.232198 
L 291.829239 185.202937 
L 292.684369 181.324054 
L 250.147383 170.00086 
L 250.545135 167.440062 
L 319.018231 172.18324 
L 319.45055 167.455913 
L 251.252934 159.700409 
L 251.326271 157.109943 
L 246.697764 154.605641 
L 246.613162 152.160918 
L 288.671036 146.260367 
L 288.303288 142.500039 
L 273.336596 140.862643 
L 272.806714 137.587132 
L 318.147782 124.648522 
L 317.085935 119.972066 
L 306.971162 117.800522 
L 305.699526 113.478869 
L 297.014631 111.719443 
L 295.556715 107.713851 
L 268.394792 114.457335 
L 267.037112 111.350261 
L 298.032776 92.244997 
L 295.962037 88.217022 
L 273.737236 95.777619 
L 271.789583 92.511802 
L 263.318651 93.561354 
L 261.306465 90.624216 
L 269.643604 79.850669 
L 267.197197 76.721439 
L 255.313916 81.70996 
L 252.933054 79.030369 
L 230.63327 95.800401 
L 228.707645 93.889856 
L 271.622013 42.301252 
L 267.993992 39.128382 
L 235.04126 72.85574 
L 232.392026 70.817942 
L 239.806409 54.329638 
L 236.572317 52.151174 
L 229.27446 56.659191 
L 226.118821 54.810722 
L 235.419675 29.185681 
L 231.397171 27.157577 
L 207.535242 69.565724 
L 204.796162 68.394403 
L 221.397137 15.350636 
L 216.946562 13.770272 
L 199.948507 53.61058 
L 196.711513 52.685691 
L 198.387387 30.871037 
L 194.436184 30.006477 
L 188.396229 41.415727 
L 184.781514 40.860097 
L 178.478472 65.693976 
L 175.632022 65.438178 
L 174.08646 34.491896 
L 170.26112 34.389619 
L 166.166836 21.317061 
L 161.931165 21.470309 
L 158.792286 34.804564 
L 154.984339 35.183015 
L 152.312425 43.300776 
L 148.774821 43.878767 
L 146.05662 48.334785 
L 142.680389 49.106983 
L 143.882667 66.306244 
L 141.072573 67.137911 
L 133.226923 53.509455 
L 130.019739 54.682489 
L 131.326631 66.606586 
L 128.532189 67.832893 
L 130.913884 79.494895 
L 128.524882 80.727808 
L 112.312287 58.02287 
L 109.257355 59.851274 
L 96.457427 47.020641 
L 93.0644 49.352997 
L 86.486223 47.496901 
L 83.113101 50.142537 
L 72.777617 44.731762 
L 69.324331 47.809795 
L 83.21807 68.599649 
L 80.51008 71.33761 
L 85.904933 81.371912 
L 83.597203 84.019077 
L 101.902319 102.995551 
L 100.266574 105.129031 
L 49.352809 73.048797 
L 46.801454 76.849356 
L 58.209846 89.099931 
L 56.158794 92.614069 
L 65.826049 102.250484 
L 64.184715 105.51865 
L 64.054563 109.462457 
L 62.640865 112.782757 
L 91.659499 127.400585 
L 90.796166 129.844056 
L 52.397989 120.98867 
L 51.352464 124.669779 
L 63.923031 131.536656 
L 63.203459 134.850177 
L 58.790808 137.545805 
L 58.262714 141.017723 
L 90.784329 147.935276 
L 90.567084 150.396111 
L 51.180109 151.257178 
L 51.086894 154.961614 
L 71.130462 158.226369 
L 71.246509 161.300077 
L 15.437333 169.136775 
L 15.923964 173.956202 
L 32.559672 176.37606 
L 33.265455 180.653544 
L 47.662336 182.007275 
L 48.53771 185.807114 
L 64.363135 185.415535 
L 65.337415 188.688579 
L 74.411174 189.132091 
L 75.497342 192.087365 
L 83.062145 192.311617 
L 84.244008 194.993313 
L 45.526926 217.559379 
L 47.521192 221.408782 
L 38.306645 231.758071 
L 40.750919 235.827475 
L 65.750473 224.863605 
L 67.964401 228.073524 
L 57.411607 241.012974 
L 60.137429 244.477101 
L 89.749627 224.656544 
L 91.945179 227.111979 
L 91.470346 232.196573 
L 93.902122 234.594178 
L 100.00805 232.900762 
L 102.457746 235.029574 
L 84.92958 262.470559 
L 88.316471 265.05885 
L 116.76548 231.439573 
L 119.160947 233.042217 
L 109.279572 255.017137 
L 112.420071 256.843497 
L 130.897295 229.18777 
L 133.214974 230.347192 
L 135.879679 230.72887 
L 138.24335 231.730874 
L 125.961496 272.395425 
L 129.640159 273.688677 
L 140.647197 250.516892 
L 143.630689 251.35921 
L 144.550201 261.11049 
L 147.86485 261.824851 
L 150.820576 264.713811 
L 154.24542 265.229236 
L 155.956013 282.492629 
L 159.937324 282.837795 
L 164.9869 256.121549 
L 168.134581 256.195802 
L 171.319368 257.711014 
L 174.513894 257.585375 
L 176.30589 241.245669 
L 178.980244 240.971383 
L 185.427137 265.746606 
L 188.867345 265.173415 
L 188.71801 247.928324 
L 191.596345 247.26047 
L 195.080057 248.726112 
L 197.98033 247.857827 
L 197.531136 237.452934 
L 200.075744 236.513155 
L 211.3071 256.058072 
L 214.429883 254.675949 
L 214.061855 246.308165 
L 216.876718 244.844247 
L 234.744726 269.258574 
L 238.270974 267.132993 
L 212.177609 220.727742 
L 214.189098 219.335716 
L 229.718086 235.627928 
L 232.189397 233.677024 
L 261.37391 262.461157 
L 264.673266 259.501658 
L 270.040914 258.633687 
L 273.21564 255.40357 
L 280.306264 255.668884 
L 283.382695 252.117467 
L 263.950604 230.848826 
L 266.254725 227.823939 
L 276.704833 230.412892 
L 278.988941 226.9872 
L 264.657964 213.576964 
L 266.418669 210.538376 
L 260.560389 203.548698 
L 262.00781 200.643905 
L 261.953609 197.073819 
L 263.196757 194.128421 
L 254.94877 187.691326 
L 255.900375 184.970815 
L 275.958826 187.934825 
L 276.9077 184.553591 
L 292.010017 184.429343 
L 292.840734 180.545158 
L 250.233373 169.489722 
L 250.615011 166.926473 
L 319.116584 171.2389 
L 319.519163 166.508947 
L 251.274118 159.182521 
L 251.331161 156.591645 
L 246.686995 154.116503 
L 246.587018 151.67236 
L 288.60695 145.507406 
L 288.215558 141.749465 
L 273.238865 140.206234 
L 272.688391 136.93412 
L 317.947186 123.710596 
L 316.855948 119.040911 
L 306.727717 116.933026 
L 305.428926 112.619456 
L 296.733137 110.914688 
L 295.250057 106.918346 
L 268.131083 113.832529 
L 266.753888 110.734055 
L 297.628778 91.434224 
L 295.532747 87.419352 
L 273.355937 95.119582 
L 271.387783 91.866079 
L 262.923619 92.968887 
L 260.893 90.044463 
L 269.162215 79.218693 
L 266.696175 76.104912 
L 254.844504 81.168073 
L 252.446836 78.503509 
L 230.252967 95.413463 
L 228.315364 93.515067 
L 270.90442 41.657575 
L 267.256515 38.507587 
L 234.516561 72.441531 
L 231.854562 70.420437 
L 239.165097 53.885826 
L 235.917367 51.727745 
L 228.648007 56.281573 
L 225.480806 54.452988 
L 234.620308 28.769956 
L 230.585128 26.767192 
L 206.990395 69.324578 
L 204.244002 68.170507 
L 220.511033 15.023379 
L 216.050607 13.471038 
L 199.303461 53.417466 
L 196.060714 52.512954 
L 197.599352 30.688192 
L 193.64279 29.848499 
L 187.674713 41.295511 
L 184.056575 40.762626 
L 177.909848 65.635657 
L 175.061846 65.397767 
L 173.321679 34.461817 
L 169.495772 34.383602 
L 165.319349 21.337053 
L 161.084727 21.516938 
L 158.029775 34.870671 
L 154.224283 35.273065 
L 151.603478 43.40747 
L 148.06958 44.007699 
L 145.379457 48.480724 
L 142.00815 49.274142 
L 143.318578 66.465501 
L 140.513771 67.314825 
L 132.58256 53.735984 
L 129.382817 54.929166 
L 130.76468 66.844807 
L 127.978006 68.088666 
L 130.433001 79.735457 
L 128.051801 80.983371 
L 111.696725 58.380851 
L 108.653353 60.228432 
L 95.77298 47.478558 
L 92.39469 49.832207 
L 85.804969 48.017521 
L 82.448553 50.68432 
L 72.079244 45.338657 
L 68.645385 48.438347 
L 82.669605 69.140407 
L 79.978889 71.895345 
L 85.436746 81.895519 
L 83.14571 84.557145 
L 101.569815 103.418115 
L 99.947521 105.561841 
L 48.832996 73.80246 
L 46.305595 77.618991 
L 57.790811 89.797571 
L 55.761902 93.324539 
L 65.489573 102.899962 
L 63.868826 106.178387 
L 63.763481 110.122934 
L 62.370694 113.452059 
L 91.480692 127.887088 
L 90.632744 130.33594 
L 52.179632 121.722232 
L 51.157278 125.409844 
L 63.770786 132.197524 
L 63.072068 135.515505 
L 58.676459 138.238833 
L 58.170212 141.714004 
L 90.734691 148.426877 
L 90.532927 150.88903 
L 51.152147 151.997801 
L 51.082232 155.70275 
L 71.145938 158.841378 
L 71.281314 161.914295 
L 15.522531 170.101846 
L 16.039463 174.918117 
L 32.690062 177.233299 
L 33.422734 181.506259 
L 47.827844 182.769415 
L 48.7271 186.563673 
L 64.549749 186.072569 
L 65.544596 189.33942 
L 74.620964 189.725855 
L 75.725698 192.67424 
L 83.291762 192.850908 
L 84.490467 195.525119 
L 45.916079 218.334246 
L 47.934516 222.17103 
L 38.785243 232.578069 
L 41.255063 236.63202 
L 66.185165 225.511134 
L 68.419238 228.707065 
L 57.948034 241.71263 
L 60.69559 245.159544 
L 90.182543 225.153135 
L 92.393494 227.594713 
L 91.95065 232.682193 
L 94.397457 235.064455 
L 100.492614 233.332671 
L 102.955651 235.446034 
L 85.60042 262.996717 
L 89.003522 265.563656 
L 117.240523 231.766115 
L 119.646022 233.353661 
L 109.903052 255.390296 
L 113.054976 257.196868 
L 131.357896 229.425476 
L 133.682821 230.570298 
L 136.349874 230.93521 
L 138.7198 231.922327 
L 126.693946 272.66332 
L 130.380669 273.93341 
L 141.241752 250.692855 
L 144.230483 251.516392 
L 145.211307 261.261695 
L 148.530383 261.955195 
L 151.504221 264.825508 
L 154.932239 265.319383 
L 156.751376 282.571676 
L 160.734778 282.891795 
L 165.616224 256.144318 
L 168.76431 256.198773 
L 171.958564 257.693924 
L 175.152236 257.548196 
L 176.841429 241.197542 
L 179.514005 240.906442 
L 186.116594 265.640628 
L 189.553128 265.045811 
L 189.295335 247.802 
L 192.169412 247.116056 
L 195.662273 248.559759 
L 198.557028 247.67325 
L 198.042402 237.271387 
L 200.581048 236.315623 
L 211.935109 255.789515 
L 215.049138 254.387778 
L 214.628488 246.022475 
L 217.434088 244.540881 
L 235.455295 268.842346 
L 238.968104 266.694629 
L 212.583393 220.454408 
L 214.586087 219.049759 
L 230.217237 235.24398 
L 232.676229 233.277572 
L 262.041201 261.877581 
L 265.321878 258.897389 
L 270.68396 257.995676 
L 273.838308 254.745656 
L 280.93046 254.966368 
L 283.984494 251.395673 
L 264.41902 230.249669 
L 266.70407 227.210351 
L 277.170255 229.733527 
L 279.432772 226.293537 
L 265.017735 212.9737 
L 266.759295 209.924098 
L 260.85717 202.971404 
L 262.286293 200.057565 
L 262.209639 196.48789 
L 263.434237 193.534732 
L 255.145927 187.149639 
L 256.080403 184.423197 
L 276.1571 187.260992 
L 277.084689 183.873857 
L 292.185926 183.654626 
L 292.992197 179.765294 
L 250.316146 168.978052 
L 250.681655 166.412454 
L 319.208997 170.293959 
L 319.581818 165.561568 
L 251.292044 158.66451 
L 246.711611 156.073326 
z
" clip-path="url(#p8451155f7a)" style="fill: #0000ff; opacity: 0.5; stroke: #000000; stroke-width: 1.5; stroke-linejoin: miter"/>
   </g>
  </g>
 </g>
 <defs>
  <clipPath id="p8451155f7a">
   <rect x="0" y="0" width="334.8" height="296.362832"/>
  </clipPath>
 </defs>
</svg>
