<?xml version="1.0" encoding="utf-8" standalone="no"?>
<!DOCTYPE svg PUBLIC "-//W3C//DTD SVG 1.1//EN"
  "http://www.w3.org/Graphics/SVG/1.1/DTD/svg11.dtd">
<svg xmlns:xlink="http://www.w3.org/1999/xlink" width="308.552508pt" height="332.64pt" viewBox="0 0 308.552508 332.64" xmlns="http://www.w3.org/2000/svg" version="1.1">
 <metadata>
  <rdf:RDF xmlns:dc="http://purl.org/dc/elements/1.1/" xmlns:cc="http://creativecommons.org/ns#" xmlns:rdf="http://www.w3.org/1999/02/22-rdf-syntax-ns#">
   <cc:Work>
    <dc:type rdf:resource="http://purl.org/dc/dcmitype/StillImage"/>
    <dc:date>2023-12-09T18:06:26.976225</dc:date>
    <dc:format>image/svg+xml</dc:format>
    <dc:creator>
     <cc:Agent>
      <dc:title>Matplotlib v3.8.2, https://matplotlib.org/</dc:title>
     </cc:Agent>
    </dc:creator>
   </cc:Work>
  </rdf:RDF>
 </metadata>
 <defs>
  <style type="text/css">*{stroke-linejoin: round; stroke-linecap: butt}</style>
 </defs>
 <g id="figure_1">
  <g id="patch_1">
   <path d="M 0 332.64 
L 308.552508 332.64 
L 308.552508 0 
L 0 0 
L 0 332.64 
z
" style="fill: none"/>
  </g>
  <g id="axes_1">
   <g id="patch_2">
    <path d="M 282.37476 170.958995 
L 282.312205 166.980971 
L 239.255669 165.706672 
L 239.049289 163.087004 
L 234.886599 160.965021 
L 234.533292 158.48507 
L 250.97879 152.79477 
L 250.360636 149.812885 
L 237.546717 149.962502 
L 236.846151 147.404351 
L 254.632487 138.830256 
L 253.573452 135.740396 
L 294.527394 115.994604 
L 292.73063 111.661651 
L 244.875706 129.021669 
L 243.513091 126.243432 
L 291.325334 96.395367 
L 288.913911 92.172783 
L 247.480136 112.739837 
L 245.604296 109.887762 
L 236.061268 112.609423 
L 234.186974 110.116446 
L 229.22817 110.17479 
L 227.280704 107.897865 
L 220.711364 109.963672 
L 218.761471 107.954638 
L 221.556737 100.880189 
L 219.320822 98.849066 
L 206.081881 110.137497 
L 204.144686 108.58836 
L 247.088025 45.139579 
L 243.086879 42.333256 
L 223.958463 63.40777 
L 220.543145 61.319659 
L 228.7046 38.111806 
L 224.491575 35.886973 
L 198.316855 80.459506 
L 195.450359 79.169192 
L 191.97145 79.422604 
L 189.075489 78.332317 
L 195.281932 49.097401 
L 191.430843 47.918018 
L 193.53447 23.402626 
L 188.876346 22.290892 
L 183.023334 27.464951 
L 178.498135 26.681701 
L 175.208448 15.966616 
L 170.32558 15.434769 
L 163.944697 39.221566 
L 159.798584 39.032377 
L 155.698921 70.99376 
L 152.555872 71.048127 
L 150.724216 91.464576 
L 148.227274 91.665238 
L 144.448299 81.873811 
L 141.652906 82.276544 
L 127.056222 21.415997 
L 122.368502 22.395466 
L 126.515944 57.545802 
L 122.964491 58.524395 
L 120.173775 61.841067 
L 116.76051 63.016948 
L 117.141773 73.732035 
L 114.103886 74.99737 
L 106.432037 66.47387 
L 103.171232 68.079531 
L 105.249755 79.357256 
L 102.394617 80.993721 
L 110.929072 100.498819 
L 108.735863 101.946261 
L 78.502538 64.98232 
L 75.208645 67.466884 
L 103.442601 107.893239 
L 101.485591 109.572416 
L 78.144722 88.589743 
L 75.593275 91.073885 
L 84.532908 104.302121 
L 82.472334 106.577636 
L 46.114795 80.62558 
L 43.328774 84.12075 
L 33.691263 82.669763 
L 30.975658 86.554545 
L 27.723062 90.106024 
L 25.24422 94.174784 
L 51.680028 114.045554 
L 49.942053 117.349218 
L 40.525783 117.069156 
L 38.888391 120.722039 
L 17.012649 116.43096 
L 15.366816 120.823462 
L 22.781134 128.136335 
L 21.500492 132.341676 
L 54.417807 145.22666 
L 53.65888 148.428825 
L 59.909189 152.949922 
L 59.390383 155.975608 
L 31.062897 155.576558 
L 30.640941 159.507936 
L 24.106119 163.07755 
L 23.92345 167.223955 
L 71.510749 171.224239 
L 71.560791 173.876111 
L 28.054679 179.411226 
L 28.383625 183.425403 
L 48.97554 184.816432 
L 49.464092 188.17014 
L 14.025114 198.505003 
L 14.961346 202.950861 
L 26.617815 204.610027 
L 27.739776 208.656924 
L 14.892018 217.300715 
L 16.418799 221.710023 
L 44.187754 215.627221 
L 45.647433 219.116233 
L 67.674276 212.841 
L 69.034738 215.592922 
L 81.409059 212.240968 
L 82.743864 214.561336 
L 56.521463 234.516961 
L 58.568979 237.608835 
L 39.289679 256.323394 
L 42.031356 259.946292 
L 83.275389 231.473514 
L 85.213984 233.72569 
L 49.785887 271.346784 
L 52.994743 274.63223 
L 65.355386 268.100961 
L 68.454488 270.898472 
L 95.418678 244.61697 
L 97.764528 246.480837 
L 86.017521 267.914628 
L 89.100549 270.062569 
L 88.923757 277.401583 
L 92.303639 279.453454 
L 117.774157 240.926589 
L 119.99292 242.089375 
L 118.622651 250.970559 
L 121.156799 252.101701 
L 109.508073 289.521457 
L 113.258853 290.92012 
L 114.433056 300.382078 
L 118.522882 301.620519 
L 128.565722 279.253355 
L 131.984227 280.05788 
L 137.283589 270.773111 
L 140.431146 271.307721 
L 142.650715 279.495723 
L 146.069876 279.857266 
L 149.407895 281.67044 
L 152.892094 281.818447 
L 156.456587 298.257214 
L 160.458825 298.175394 
L 162.240455 265.241586 
L 165.20175 264.994232 
L 167.239098 257.684849 
L 169.960321 257.284063 
L 177.921188 283.622576 
L 181.452668 282.873098 
L 194.263793 317.52 
L 198.853003 316.239914 
L 186.73493 264.392003 
L 189.657401 263.374909 
L 195.167187 268.788389 
L 198.223721 267.503993 
L 213.340294 291.501496 
L 217.101993 289.634468 
L 206.370456 261.718733 
L 209.199165 260.085577 
L 217.882392 267.564844 
L 220.889224 265.566837 
L 234.467392 277.950613 
L 237.792576 275.426003 
L 243.542048 275.793356 
L 246.794916 272.984485 
L 238.665647 258.180838 
L 241.36715 255.533999 
L 260.579625 268.215811 
L 263.585814 264.874987 
L 264.067346 259.463539 
L 266.79662 256.017381 
L 261.168809 246.566077 
L 263.493992 243.217432 
L 263.065589 238.138579 
L 265.124855 234.734463 
L 236.181635 214.51498 
L 237.511415 211.967834 
L 267.812401 222.843954 
L 269.388423 219.29815 
L 233.005369 200.978161 
L 233.911093 198.537577 
L 231.762894 195.122147 
L 232.485106 192.723524 
L 283.133298 202.820334 
L 284.072159 198.802707 
L 287.956331 195.324179 
L 288.657112 191.158611 
L 290.777391 187.15928 
L 291.220055 182.909049 
L 270.476193 177.454035 
L 270.62374 173.846916 
L 282.372257 170.163264 
L 282.284685 166.185712 
L 239.220985 165.18224 
L 238.998133 162.563922 
L 234.82218 160.468162 
L 234.453282 157.990482 
L 250.862666 152.196861 
L 250.22577 149.218923 
L 237.413045 149.44913 
L 236.696404 146.895436 
L 254.428462 138.209644 
L 253.350014 135.126506 
L 294.178957 115.123527 
L 292.354976 110.80196 
L 244.610183 128.462615 
L 243.230122 125.693004 
L 290.853692 95.544817 
L 288.415758 91.337484 
L 247.112158 112.164725 
L 245.218418 109.324505 
L 235.692696 112.106132 
L 233.80276 109.624993 
L 228.844421 109.714524 
L 226.882673 107.449892 
L 220.326455 109.556976 
L 218.363965 107.560245 
L 221.114682 100.468356 
L 218.866036 98.451335 
L 205.698354 109.822808 
L 203.751455 108.285886 
L 246.294888 44.56827 
L 242.276171 41.787168 
L 223.28068 62.981572 
L 219.852296 60.914983 
L 227.867626 37.656258 
L 223.640691 35.457967 
L 197.746824 80.194242 
L 194.87227 78.921982 
L 191.395024 79.19727 
L 188.492263 78.125218 
L 194.514712 48.851845 
L 190.656282 47.696707 
L 192.605679 23.168569 
L 187.940654 22.086153 
L 182.120301 27.296923 
L 177.590265 26.542149 
L 174.233251 15.847966 
L 169.347135 15.34684 
L 163.115983 39.173299 
L 158.968763 39.010191 
L 155.070199 70.996725 
L 151.927555 71.07086 
L 150.224342 91.498425 
L 147.728712 91.714787 
L 143.888229 81.947322 
L 141.095424 82.367628 
L 126.116251 21.60009 
L 121.434784 22.609023 
L 125.80322 57.732578 
L 122.257992 58.733489 
L 119.48819 62.067647 
L 116.082389 63.264973 
L 116.531037 73.97745 
L 113.501168 75.261866 
L 105.775862 66.786786 
L 102.52522 68.412924 
L 104.674633 79.677353 
L 101.829844 81.331743 
L 110.486806 100.782778 
L 108.302744 102.243985 
L 77.837535 65.470927 
L 74.559333 67.976158 
L 103.04699 108.224138 
L 101.100579 109.91559 
L 77.628203 89.080133 
L 75.09243 91.580273 
L 84.115084 104.752022 
L 82.068863 107.040451 
L 45.54882 81.317577 
L 42.784836 84.830201 
L 33.13839 83.439856 
L 30.447272 87.341642 
L 27.217077 90.913508 
L 24.763874 94.997777 
L 51.324136 114.701888 
L 49.606972 118.016417 
L 40.189128 117.795584 
L 38.574742 121.458693 
L 16.672445 117.305285 
L 15.054271 121.708052 
L 22.514436 128.974148 
L 21.260268 133.18746 
L 54.257972 145.865158 
L 53.519199 149.072033 
L 59.79782 153.55373 
L 59.298054 156.582619 
L 30.968619 156.361741 
L 30.571397 160.295695 
L 24.059155 163.906339 
L 23.902568 168.053811 
L 71.514085 171.754719 
L 71.580806 174.406223 
L 28.110367 180.214857 
L 28.464552 184.226886 
L 49.064809 185.488376 
L 49.574445 188.838945 
L 14.201168 199.396495 
L 15.165343 203.836376 
L 26.832017 205.422197 
L 27.979409 209.461958 
L 15.186269 218.186383 
L 16.740753 222.586 
L 44.470901 216.328668 
L 45.952494 219.808431 
L 67.939434 213.394785 
L 69.317177 216.138096 
L 81.670172 212.708382 
L 83.019544 215.020308 
L 56.923172 235.140463 
L 58.990093 238.219398 
L 39.828878 257.054843 
L 42.593287 260.660425 
L 83.657427 231.928808 
L 85.610148 234.168748 
L 50.419367 272.01192 
L 53.648824 275.277119 
L 65.968144 268.668238 
L 69.08478 271.446202 
L 95.88314 244.99563 
L 98.240666 246.844706 
L 86.628698 268.351956 
L 89.725174 270.480463 
L 89.594545 277.820444 
L 92.987264 279.851017 
L 118.214966 241.164719 
L 120.440999 242.313527 
L 119.126615 251.203154 
L 121.667827 252.318335 
L 110.254681 289.810615 
L 114.014183 291.18566 
L 115.247873 300.640046 
L 119.345407 301.852739 
L 129.247372 279.422854 
L 132.670869 280.205863 
L 137.911731 270.887948 
L 141.062588 271.40275 
L 143.33361 279.576631 
L 146.754978 279.916662 
L 150.104335 281.708806 
L 153.589396 281.834897 
L 157.257208 298.25092 
L 161.258853 298.143929 
L 162.833313 265.199568 
L 165.792993 264.933594 
L 167.784329 257.611541 
L 170.502978 257.193648 
L 178.629342 283.481571 
L 182.156039 282.709896 
L 195.184819 317.275539 
L 199.765887 315.966615 
L 187.32196 264.195945 
L 190.237977 263.16049 
L 195.781701 268.53921 
L 198.830096 267.235615 
L 214.097302 291.137569 
L 217.847183 289.246919 
L 206.940284 261.399231 
L 209.758666 259.748316 
L 218.488761 267.172823 
L 221.482967 265.155945 
L 235.138754 277.454077 
L 238.447993 274.908602 
L 244.199663 275.239788 
L 247.4348 272.410514 
L 239.212586 257.658287 
L 241.897388 254.99451 
L 261.189244 267.555235 
L 264.174362 264.195571 
L 264.621849 258.781201 
L 267.329395 255.317946 
L 261.642252 245.902224 
L 263.946328 242.539022 
L 263.48599 237.462964 
L 265.523805 234.045963 
L 236.453988 214.008916 
L 237.767722 211.453457 
L 268.136513 222.138787 
L 269.690204 218.58314 
L 233.192647 200.492342 
L 234.083002 198.04611 
L 231.913365 194.644258 
L 232.620477 192.241141 
L 283.331171 202.019202 
L 284.244745 197.99575 
L 288.106962 194.492861 
L 288.78153 190.322969 
L 290.876613 186.310381 
L 291.292537 182.05745 
L 270.514776 176.733011 
L 270.639634 173.125036 
L 282.36475 169.367565 
L 282.252163 165.390643 
L 239.183003 164.658037 
L 238.943688 162.041172 
L 234.754637 159.971717 
L 234.370163 157.496407 
L 250.742784 151.599695 
L 250.08717 148.625821 
L 237.276147 148.936608 
L 236.543459 146.387472 
L 254.220538 137.590328 
L 253.122719 134.514033 
L 293.825047 114.254659 
L 291.973923 109.944649 
L 244.34115 127.905243 
L 242.943696 125.144366 
L 290.37671 94.69725 
L 287.912362 90.505333 
L 246.74057 111.591939 
L 244.829004 108.763685 
L 235.320966 111.605169 
L 233.415462 109.135966 
L 228.457784 109.25668 
L 226.481832 107.004431 
L 219.938996 109.152708 
L 217.963986 107.16836 
L 220.670045 100.05931 
L 218.408758 98.056473 
L 205.312857 109.510538 
L 203.35633 107.985891 
L 245.498173 44.001961 
L 241.462044 41.246189 
L 222.600229 62.559645 
L 219.158916 60.514659 
L 227.027803 37.205983 
L 222.787126 35.03432 
L 197.175137 79.932568 
L 194.292637 78.678413 
L 190.817192 78.975565 
L 187.907745 77.921791 
L 193.745962 48.611119 
L 189.880343 47.480271 
L 191.675434 22.940358 
L 187.003694 21.887304 
L 181.216228 27.134577 
L 176.681535 26.40831 
L 173.257327 15.735453 
L 168.368155 15.265067 
L 162.286982 39.130245 
L 158.138818 38.993224 
L 154.441508 71.003645 
L 151.299393 71.097544 
L 149.724692 91.535417 
L 147.230472 91.767471 
L 143.328633 82.024353 
L 140.538527 82.462216 
L 125.177456 21.79009 
L 120.502427 22.828448 
L 125.091684 57.923833 
L 121.552822 58.947021 
L 118.804045 62.298534 
L 115.405841 63.517257 
L 115.921856 74.2267 
L 112.900125 75.530147 
L 105.121668 67.103822 
L 101.881319 68.750373 
L 104.101536 80.001061 
L 101.267208 81.67331 
L 110.046335 101.069513 
L 107.871506 102.544428 
L 77.175618 65.963706 
L 73.913238 68.489505 
L 102.653468 108.557518 
L 100.717734 110.261178 
L 77.114779 89.573761 
L 74.594781 92.0898 
L 83.700099 105.204542 
L 81.668311 107.505796 
L 44.987208 82.01312 
L 42.245371 85.543059 
L 32.590371 84.213412 
L 29.923846 88.132046 
L 26.71618 91.724157 
L 24.288714 95.823775 
L 50.972378 115.360448 
L 49.276095 118.685711 
L 39.857048 118.524116 
L 38.265733 122.197305 
L 16.337746 118.181732 
L 14.747295 122.59459 
L 22.253012 129.813622 
L 21.025369 134.034739 
L 54.102155 146.504649 
L 53.383567 149.716107 
L 59.690251 154.158227 
L 59.209545 157.190198 
L 30.87928 157.147501 
L 30.506809 161.083875 
L 24.017404 164.735407 
L 23.886906 168.883781 
L 71.520758 172.285166 
L 71.604154 174.936199 
L 28.171108 181.018122 
L 28.55052 185.027845 
L 49.158303 186.159746 
L 49.689002 189.507042 
L 14.382826 200.286862 
L 15.374906 204.720591 
L 27.051323 206.233004 
L 28.2241 210.265468 
L 15.486085 219.070183 
L 17.068209 223.459936 
L 44.758453 217.028321 
L 46.261903 220.498696 
L 68.20807 213.946892 
L 69.60304 216.681484 
L 81.934219 213.174143 
L 83.298105 215.477537 
L 57.328793 235.761425 
L 59.415038 238.8273 
L 40.372667 257.782885 
L 43.159699 261.371009 
L 84.04232 232.381691 
L 86.009091 234.609305 
L 51.057018 272.673059 
L 54.306947 275.917881 
L 66.584458 269.231649 
L 69.718504 271.989957 
L 96.349974 245.371362 
L 98.719084 247.205573 
L 87.242614 268.785431 
L 90.352416 270.894421 
L 90.267953 278.235078 
L 93.673377 280.244273 
L 118.657265 241.400072 
L 120.890479 242.534857 
L 119.632032 251.432575 
L 122.180208 252.53175 
L 111.003092 290.095071 
L 114.771168 291.446444 
L 116.064297 300.892883 
L 120.169377 302.079782 
L 129.930074 279.588062 
L 133.358429 280.349524 
L 138.540582 270.998831 
L 141.694615 271.493806 
L 144.017002 279.653242 
L 147.44044 279.971748 
L 150.801003 281.742791 
L 154.286787 281.84696 
L 158.057775 298.23959 
L 162.058667 298.107434 
L 163.425895 265.153821 
L 166.383844 264.869237 
L 168.329089 257.534806 
L 171.045055 257.099822 
L 179.336595 283.336115 
L 182.858368 282.542274 
L 196.10429 317.025289 
L 200.677034 315.687579 
L 187.907745 263.996198 
L 190.817192 262.942424 
L 196.394635 268.28617 
L 199.434772 266.963429 
L 214.852005 290.768888 
L 218.589921 288.85469 
L 207.508092 261.076152 
L 210.316034 259.407543 
L 219.092652 266.776996 
L 222.074114 264.741326 
L 235.80698 276.953327 
L 239.100144 274.38709 
L 244.853782 274.682095 
L 248.071061 271.832529 
L 239.756226 257.132308 
L 242.424222 254.451697 
L 261.794696 266.890839 
L 264.758625 263.512466 
L 265.17205 258.095389 
L 267.85776 254.615174 
L 262.11151 245.235407 
L 264.394388 241.85778 
L 263.902133 236.784717 
L 265.918417 233.354967 
L 236.723154 213.50115 
L 238.020789 210.937478 
L 268.456185 221.431594 
L 269.987481 217.866246 
L 233.376865 200.005355 
L 234.251818 197.553571 
L 232.060828 194.165433 
L 232.752811 191.757915 
L 283.524001 201.216842 
L 284.412251 197.187723 
L 288.252361 193.660613 
L 288.900689 189.48656 
L 290.970494 185.460875 
L 291.359661 181.205412 
L 270.548824 176.011758 
L 270.650987 172.40307 
L 282.352239 168.571928 
L 282.214641 164.595793 
L 239.141726 164.134082 
L 238.885957 161.518774 
L 234.683972 159.475708 
L 234.283938 157.002864 
L 250.619148 151.003294 
L 249.944844 148.033603 
L 237.136028 148.424958 
L 236.387322 145.88048 
L 254.008722 136.972331 
L 252.891577 133.903002 
L 293.46568 113.388034 
L 291.587485 109.089752 
L 244.068616 127.349574 
L 242.653826 124.597541 
L 289.894406 93.8527 
L 287.403743 89.676365 
L 246.365388 111.021502 
L 244.436071 108.205326 
L 234.946092 111.106554 
L 233.025096 108.649384 
L 228.068276 108.801277 
L 226.078197 106.561501 
L 219.549002 108.750885 
L 217.561551 106.778999 
L 220.222844 99.65307 
L 217.949005 97.664494 
L 204.925402 109.200698 
L 202.959325 107.688387 
L 244.697912 43.440674 
L 240.644531 40.710342 
L 221.917139 62.142006 
L 218.463032 60.118705 
L 226.185165 36.760999 
L 221.930913 34.61605 
L 196.601815 79.674495 
L 193.711485 78.438494 
L 190.237977 78.757499 
L 187.32196 77.722044 
L 192.975714 48.375233 
L 189.103059 47.26872 
L 190.743773 22.718002 
L 186.065502 21.694352 
L 180.311152 26.977921 
L 175.771981 26.280189 
L 172.280715 15.629079 
L 167.388681 15.189452 
L 161.457727 39.092406 
L 157.308783 38.981477 
L 153.812874 71.014519 
L 150.671411 71.128178 
L 149.225284 91.575551 
L 146.732573 91.823288 
L 142.769532 82.104903 
L 139.982235 82.560305 
L 124.239875 21.985992 
L 119.57147 23.053732 
L 124.381365 58.119559 
L 120.849008 59.164985 
L 118.121365 62.53372 
L 114.730894 63.773791 
L 115.314254 74.479777 
L 112.300781 75.802204 
L 104.469481 67.424967 
L 101.239552 69.091865 
L 103.530486 80.328367 
L 100.706731 82.018409 
L 109.607676 101.359013 
L 107.442166 102.847577 
L 76.516813 66.460638 
L 73.270383 69.006906 
L 102.26205 108.893367 
L 100.337069 110.609168 
L 76.604469 90.070609 
L 74.100345 92.602448 
L 83.287968 105.659663 
L 81.270693 107.97365 
L 44.429981 82.712182 
L 41.710401 86.259295 
L 32.047229 84.9904 
L 29.405403 88.925727 
L 26.220392 92.537942 
L 23.818758 96.652746 
L 50.624769 116.021207 
L 48.949434 119.357073 
L 39.529556 119.254721 
L 37.961376 122.937846 
L 16.008567 119.060268 
L 14.445901 123.483041 
L 21.996874 130.654723 
L 20.795803 134.883478 
L 53.950364 147.145107 
L 53.251988 150.361021 
L 59.586485 154.763388 
L 59.124858 157.798323 
L 30.794886 157.933808 
L 30.447179 161.872447 
L 23.980869 165.56472 
L 23.876464 169.713834 
L 71.530767 172.815562 
L 71.630834 175.466017 
L 28.236899 181.82099 
L 28.641523 185.828246 
L 49.256017 186.830514 
L 49.807758 190.174407 
L 14.570079 201.176068 
L 15.590026 205.60347 
L 27.275724 207.042416 
L 28.47384 211.067424 
L 15.791453 219.952079 
L 17.401155 224.331795 
L 45.0504 217.726151 
L 46.575648 221.187002 
L 68.480173 214.497298 
L 69.892314 217.223062 
L 82.201191 213.638235 
L 83.579537 215.933005 
L 57.738313 236.379825 
L 59.843799 239.432517 
L 40.921024 258.507493 
L 43.730568 262.078018 
L 84.430054 232.832144 
L 86.410797 235.047344 
L 51.698815 273.330174 
L 54.969087 276.554492 
L 67.204303 269.791174 
L 70.355635 272.529715 
L 96.819163 245.74415 
L 99.199762 247.563425 
L 87.859244 269.215036 
L 90.982249 271.304425 
L 90.943956 278.645469 
L 94.361949 280.633206 
L 119.101035 241.632638 
L 121.341342 242.753355 
L 120.138882 251.658812 
L 122.69392 252.741939 
L 111.753277 290.374815 
L 115.529778 291.702462 
L 116.882294 301.140581 
L 120.994758 302.301638 
L 130.613802 279.748974 
L 134.046878 280.488858 
L 139.170119 271.105757 
L 142.327202 271.580886 
L 144.700861 279.725554 
L 148.126235 280.022522 
L 151.49787 281.772394 
L 154.984241 281.854637 
L 158.858254 298.223225 
L 162.858236 298.065908 
L 164.018177 265.104348 
L 166.974278 264.801167 
L 168.873355 257.454645 
L 171.586531 257.002588 
L 180.042919 283.186213 
L 183.55963 282.370239 
L 197.022168 316.769262 
L 201.586408 315.402818 
L 188.492263 263.792772 
L 191.395024 262.72072 
L 197.005966 268.029281 
L 200.037723 266.687445 
L 215.604374 290.395468 
L 219.330177 288.457798 
L 208.073856 260.749507 
L 210.871248 259.063272 
L 219.694043 266.377379 
L 222.662642 264.322997 
L 236.472043 276.448385 
L 239.749001 273.861487 
L 245.504382 274.120298 
L 248.703674 271.250554 
L 240.296548 256.602919 
L 242.947631 253.905582 
L 262.395958 266.222648 
L 265.33858 262.825701 
L 265.717926 257.406131 
L 268.381695 253.909092 
L 262.576565 244.565652 
L 264.838154 241.173733 
L 264.314003 236.103867 
L 266.308676 232.661504 
L 236.98912 212.9917 
L 238.270606 210.419918 
L 268.771401 220.722405 
L 270.280244 217.147496 
L 233.558017 199.517219 
L 234.417532 197.05998 
L 232.205276 193.685689 
L 232.882104 191.273867 
L 283.71178 200.413285 
L 284.574672 196.378659 
L 288.392523 192.827466 
L 289.014585 188.649419 
L 291.059031 184.610795 
L 291.421425 180.352969 
L 270.578334 175.290306 
L 270.657799 171.681046 
L 282.334724 167.776387 
L 282.172121 163.801195 
L 239.097154 163.610398 
L 238.824941 160.99675 
L 234.61019 158.980152 
L 234.194611 156.509874 
L 250.491764 150.407683 
L 249.798795 147.442292 
L 236.992695 147.914199 
L 236.227999 145.37448 
L 253.793024 136.355679 
L 252.656597 133.293437 
L 293.10087 112.523687 
L 291.195678 108.237302 
L 243.792593 126.795629 
L 242.360522 124.052549 
L 289.4068 93.0112 
L 286.889919 88.850613 
L 245.986625 110.453435 
L 244.039634 107.64945 
L 234.56809 110.610307 
L 232.631678 108.165267 
L 227.675911 108.348333 
L 225.671784 106.121117 
L 219.156488 108.351524 
L 217.156675 106.392176 
L 219.773097 99.24965 
L 217.486796 97.275414 
L 204.536007 108.893302 
L 202.560457 107.393386 
L 243.894137 42.884432 
L 239.823664 40.179647 
L 221.231435 61.728672 
L 217.764671 59.727135 
L 225.339744 36.321323 
L 221.072086 34.203174 
L 196.026881 79.420033 
L 193.128834 78.202235 
L 189.657401 78.54308 
L 186.73493 77.525986 
L 192.203998 48.144196 
L 188.32446 47.062062 
L 189.810731 22.501511 
L 185.126114 21.507304 
L 179.405109 26.82696 
L 174.861639 26.157791 
L 171.303453 15.52885 
L 166.408751 15.12 
L 160.62825 39.059783 
L 156.47869 38.974951 
L 153.18432 71.029347 
L 150.043634 71.162762 
L 148.726138 91.618825 
L 146.235034 91.882235 
L 142.210949 82.188968 
L 139.426572 82.661891 
L 123.303545 22.187787 
L 118.641947 23.284867 
L 123.672292 58.31975 
L 120.14658 59.387371 
L 117.440178 62.773194 
L 114.057573 64.034565 
L 114.708256 74.736671 
L 111.70316 76.078024 
L 103.819327 67.750208 
L 100.599946 69.437387 
L 102.961505 80.659258 
L 100.148436 82.367027 
L 109.170846 101.651266 
L 107.014742 103.153421 
L 75.861147 66.961704 
L 72.630796 69.52834 
L 101.872753 109.23167 
L 99.958601 110.959545 
L 76.097295 90.570657 
L 73.609144 93.118195 
L 82.878707 106.117367 
L 80.876027 108.443995 
L 43.877163 83.414735 
L 41.179945 86.978882 
L 31.508984 85.770788 
L 28.891961 89.722653 
L 25.729732 93.354828 
L 23.354025 97.484656 
L 50.281323 116.684139 
L 48.627001 120.030476 
L 39.206666 119.987372 
L 37.661682 123.680287 
L 15.684919 119.940856 
L 14.150101 124.37337 
L 21.74603 131.497419 
L 20.571579 135.733644 
L 53.802603 147.786508 
L 53.124468 151.006751 
L 59.486528 155.369189 
L 59.043998 158.406968 
L 30.715438 158.72063 
L 30.39251 162.661377 
L 23.949551 166.394248 
L 23.871243 170.543935 
L 71.544112 173.345884 
L 71.660847 175.995657 
L 28.307739 182.623427 
L 28.737558 186.62806 
L 49.357948 187.500654 
L 49.93071 190.84101 
L 14.762922 202.06408 
L 15.810695 206.484979 
L 27.505212 207.8504 
L 28.728619 211.867793 
L 16.102362 220.832037 
L 17.739578 225.201542 
L 45.346731 218.422131 
L 46.893715 221.87332 
L 68.755733 215.045982 
L 70.184989 217.762811 
L 82.471076 214.100639 
L 83.863827 216.386694 
L 58.151713 236.995636 
L 60.276358 240.035026 
L 41.473928 259.228638 
L 44.305873 262.781422 
L 84.820614 233.28015 
L 86.81525 235.482848 
L 52.344732 273.98324 
L 55.635219 277.186926 
L 67.827654 270.346788 
L 70.996148 273.065456 
L 97.290687 246.11398 
L 99.682681 247.918246 
L 88.478564 269.640754 
L 91.614648 271.710461 
L 91.622527 279.051599 
L 95.052954 281.0178 
L 119.546259 241.862409 
L 121.793571 242.969013 
L 120.647144 251.881857 
L 123.208944 252.948893 
L 112.505208 290.649835 
L 116.289984 291.953703 
L 117.701834 301.38313 
L 121.821519 302.518298 
L 131.298529 279.905582 
L 134.73619 280.62386 
L 139.800315 271.208722 
L 142.960324 271.663985 
L 145.385162 279.793563 
L 148.812336 280.068981 
L 152.19491 281.797613 
L 155.681729 281.857927 
L 159.658614 298.201826 
L 163.657528 298.019355 
L 164.610137 265.051151 
L 167.564272 264.729383 
L 169.417106 257.371063 
L 172.127386 256.901951 
L 180.748286 283.031872 
L 184.259795 282.193795 
L 197.938418 316.507467 
L 202.493974 315.112343 
L 189.075489 263.585672 
L 191.97145 262.495385 
L 197.61567 267.768552 
L 200.638927 266.407674 
L 216.35438 290.017323 
L 220.067923 288.056258 
L 208.637554 260.419311 
L 211.424286 258.715515 
L 220.292908 265.973988 
L 223.248528 263.900975 
L 237.133917 275.93927 
L 240.394541 273.331813 
L 246.151435 273.554421 
L 249.332615 270.664612 
L 240.83353 256.070143 
L 243.467596 253.356185 
L 262.993005 265.550689 
L 265.914204 262.135301 
L 266.259457 256.713452 
L 268.901178 253.199729 
L 263.037399 243.892984 
L 265.27761 240.486909 
L 264.721582 235.42044 
L 266.694565 231.965599 
L 237.251878 212.480588 
L 238.517163 209.900797 
L 269.082152 220.011248 
L 270.56848 216.42692 
L 233.736095 199.027953 
L 234.580139 196.565357 
L 232.346704 193.205047 
L 233.008349 190.789015 
L 283.894502 199.608563 
L 284.732002 195.56859 
L 288.527441 191.993455 
L 289.123215 187.811577 
L 291.142218 183.760175 
L 291.477826 179.500154 
L 270.603307 174.568683 
L 282.37476 170.958995 
z
" clip-path="url(#p86e73b5968)" style="fill: #0000ff; opacity: 0.5; stroke: #000000; stroke-width: 1.5; stroke-linejoin: miter"/>
   </g>
  </g>
 </g>
 <defs>
  <clipPath id="p86e73b5968">
   <rect x="0" y="-0" width="308.552508" height="332.64"/>
  </clipPath>
 </defs>
</svg>
