<?xml version="1.0" encoding="utf-8" standalone="no"?>
<!DOCTYPE svg PUBLIC "-//W3C//DTD SVG 1.1//EN"
  "http://www.w3.org/Graphics/SVG/1.1/DTD/svg11.dtd">
<svg xmlns:xlink="http://www.w3.org/1999/xlink" width="328.173877pt" height="332.64pt" viewBox="0 0 328.173877 332.64" xmlns="http://www.w3.org/2000/svg" version="1.1">
 <metadata>
  <rdf:RDF xmlns:dc="http://purl.org/dc/elements/1.1/" xmlns:cc="http://creativecommons.org/ns#" xmlns:rdf="http://www.w3.org/1999/02/22-rdf-syntax-ns#">
   <cc:Work>
    <dc:type rdf:resource="http://purl.org/dc/dcmitype/StillImage"/>
    <dc:date>2023-12-09T18:06:27.110758</dc:date>
    <dc:format>image/svg+xml</dc:format>
    <dc:creator>
     <cc:Agent>
      <dc:title>Matplotlib v3.8.2, https://matplotlib.org/</dc:title>
     </cc:Agent>
    </dc:creator>
   </cc:Work>
  </rdf:RDF>
 </metadata>
 <defs>
  <style type="text/css">*{stroke-linejoin: round; stroke-linecap: butt}</style>
 </defs>
 <g id="figure_1">
  <g id="patch_1">
   <path d="M 0 332.64 
L 328.173877 332.64 
L 328.173877 0 
L 0 0 
L 0 332.64 
z
" style="fill: none"/>
  </g>
  <g id="axes_1">
   <g id="patch_2">
    <path d="M 261.567843 166.718945 
L 261.520395 163.701564 
L 258.983691 160.837962 
L 258.75261 157.904741 
L 281.437951 152.070642 
L 280.920103 148.435744 
L 266.934333 147.368928 
L 266.275825 144.192381 
L 252.350554 144.422406 
L 251.606611 141.705861 
L 279.676536 129.614176 
L 278.453479 126.045765 
L 265.967133 126.93771 
L 264.6667 123.801676 
L 291.483053 107.416053 
L 289.556201 103.487394 
L 243.368795 123.91525 
L 241.984503 121.491251 
L 270.898789 99.811854 
L 268.743022 96.534169 
L 252.904807 103.205721 
L 250.864647 100.492128 
L 230.264998 113.149562 
L 228.548688 111.142898 
L 230.848016 105.356007 
L 228.886371 103.334865 
L 262.414983 63.454389 
L 259.120252 60.46143 
L 225.689322 93.955344 
L 223.371766 92.10204 
L 248.694688 52.124309 
L 245.050498 49.568347 
L 234.054639 58.614345 
L 230.621748 56.51549 
L 240.58265 29.983319 
L 236.24631 27.693365 
L 225.725814 38.572708 
L 221.666889 36.745639 
L 217.552523 35.047094 
L 213.386786 33.478754 
L 209.419965 31.281284 
L 205.139843 29.970511 
L 197.654894 41.192625 
L 193.692224 40.246871 
L 187.321539 51.998305 
L 183.703732 51.372113 
L 184.427686 15.943582 
L 179.67767 15.426204 
L 172.953344 46.986963 
L 169.185074 46.815015 
L 165.444696 66.75452 
L 162.301673 66.808888 
L 159.058874 65.365941 
L 155.875349 65.621779 
L 152.091972 61.218154 
L 148.781476 61.695097 
L 136.715978 16.729301 
L 132.014257 17.711696 
L 135.357504 49.810549 
L 131.696602 50.819301 
L 130.803393 60.303848 
L 127.474675 61.450603 
L 117.675081 46.355847 
L 113.914298 47.922282 
L 101.31371 30.810314 
L 97.072231 32.898872 
L 126.543157 96.019382 
L 124.33952 97.28243 
L 107.988256 76.362075 
L 105.175724 78.218248 
L 95.350676 70.472719 
L 92.359218 72.729157 
L 112.442039 102.755171 
L 110.457161 104.458258 
L 81.635679 77.719974 
L 78.878871 80.404059 
L 59.848124 67.884134 
L 56.792829 71.25813 
L 52.610249 73.710033 
L 49.741711 77.308723 
L 51.524895 84.274854 
L 48.989075 87.902447 
L 60.09508 100.143315 
L 58.053962 103.493597 
L 60.330066 109.206882 
L 58.57381 112.545294 
L 25.044366 101.041319 
L 23.048813 105.493228 
L 63.623277 126.668856 
L 62.414436 129.895088 
L 39.230748 126.053537 
L 38.01462 130.047028 
L 72.5822 143.122201 
L 71.886258 146.05861 
L 80.714877 150.785799 
L 80.255874 153.46271 
L 68.769335 154.783035 
L 68.441921 157.833564 
L 18.716648 157.932092 
L 18.512994 162.554829 
L 70.436098 167.018217 
L 70.49256 170.01029 
L 84.208616 172.101941 
L 84.418112 174.658462 
L 14.916994 186.255765 
L 15.605778 190.983968 
L 64.330772 186.387529 
L 64.999267 189.561989 
L 31.71512 201.580345 
L 32.877436 205.772801 
L 47.08617 205.680796 
L 48.369814 209.387926 
L 21.553775 224.339329 
L 23.436708 228.840028 
L 41.352574 225.731217 
L 43.269482 229.60871 
L 34.816557 239.241316 
L 37.161483 243.317636 
L 78.030221 222.75052 
L 79.835275 225.476261 
L 90.758018 221.528905 
L 92.518368 223.85506 
L 93.736756 226.636835 
L 95.656238 228.866807 
L 58.148515 268.415782 
L 61.399214 271.74407 
L 92.55455 245.126732 
L 95.055979 247.384733 
L 65.161635 289.130262 
L 69.060176 292.2278 
L 101.098938 256.267202 
L 103.946423 258.251041 
L 98.766522 273.007288 
L 102.141506 275.056186 
L 116.283916 257.33036 
L 119.157322 258.836224 
L 99.133126 309.554715 
L 103.65706 311.574016 
L 108.824579 311.96042 
L 113.419362 313.673811 
L 123.185021 299.247107 
L 127.372969 300.51526 
L 135.311708 286.917137 
L 139.105979 287.810096 
L 145.413433 275.217545 
L 148.834848 275.798669 
L 151.69332 281.035103 
L 155.294548 281.415897 
L 157.696984 302.440721 
L 161.968282 302.622163 
L 166.020606 255.486475 
L 168.811445 255.429421 
L 175.813381 317.52 
L 180.549847 317.124368 
L 185.063388 314.994175 
L 189.715864 314.308951 
L 183.585226 258.541319 
L 186.463431 257.930483 
L 187.496459 250.267106 
L 190.112571 249.537384 
L 203.997182 282.895275 
L 207.631036 281.630602 
L 220.466893 303.255787 
L 224.732783 301.463203 
L 216.547921 273.551162 
L 219.881771 271.896485 
L 241.441157 302.98028 
L 245.688015 300.528355 
L 251.151891 299.962961 
L 255.299077 297.207202 
L 250.360807 282.077631 
L 253.946029 279.355588 
L 224.09344 236.649486 
L 226.263289 234.775808 
L 275.726924 282.711728 
L 279.319542 279.191805 
L 258.188165 252.703902 
L 260.845943 249.750273 
L 277.028327 257.853165 
L 279.838694 254.304614 
L 238.360948 218.954816 
L 239.967384 216.641285 
L 297.068759 249.098694 
L 299.593958 244.924356 
L 282.302257 229.998949 
L 284.234219 226.298346 
L 262.104589 211.442104 
L 263.463069 208.385735 
L 249.81908 199.488281 
L 250.80778 196.824105 
L 290.576186 206.501594 
L 291.765249 202.552458 
L 286.623326 197.014281 
L 287.516041 193.194123 
L 245.819858 181.514724 
L 246.245408 178.98518 
L 312.4943 184.356629 
L 312.97624 179.729289 
L 255.82509 171.831516 
L 255.941232 168.992173 
L 261.565945 166.115373 
L 261.49952 163.098351 
L 258.944856 160.25076 
L 258.695331 157.31905 
L 281.34353 151.342388 
L 280.802832 147.71082 
L 266.810629 146.731987 
L 266.132154 143.559645 
L 252.208606 143.877246 
L 251.447592 141.165435 
L 279.440911 128.897445 
L 278.195435 125.336797 
L 265.714946 126.307256 
L 264.394816 123.179463 
L 291.107582 106.625504 
L 289.156059 102.709042 
L 243.098046 123.426987 
L 241.698536 121.011742 
L 270.475899 99.150919 
L 268.29956 95.886857 
L 252.503618 102.657891 
L 250.446432 99.957184 
L 229.926797 112.743927 
L 228.197901 110.748098 
L 230.460787 104.94686 
L 228.48647 102.938096 
L 261.763592 62.847532 
L 258.450103 59.875354 
L 225.230492 93.578868 
L 222.901325 91.740176 
L 247.972309 51.603968 
L 244.312116 49.070978 
L 233.373368 58.185954 
L 229.927345 56.108732 
L 239.721178 29.514436 
L 235.370521 27.251801 
L 224.918658 38.197097 
L 220.848321 36.395592 
L 216.723354 34.722958 
L 212.547835 33.18085 
L 208.567272 31.008372 
L 204.278991 29.724545 
L 196.864771 40.993512 
L 192.89623 40.0727 
L 186.599582 51.86397 
L 182.977908 51.260544 
L 183.479022 15.82816 
L 178.725846 15.340668 
L 172.200152 46.943094 
L 168.430875 46.79485 
L 164.815979 66.757486 
L 161.673361 66.83162 
L 158.421551 65.409098 
L 155.239697 65.684953 
L 151.428699 61.30521 
L 148.121268 61.802965 
L 135.7732 16.913944 
L 131.07775 17.92589 
L 134.622815 50.003081 
L 130.968329 51.034839 
L 130.134791 60.524815 
L 126.813351 61.692483 
L 116.919014 46.65966 
L 113.168157 48.249717 
L 100.460193 31.217339 
L 96.231934 33.332532 
L 126.09927 96.266438 
L 123.90362 97.54332 
L 107.421102 76.726219 
L 104.6203 78.600045 
L 94.746731 70.916463 
L 91.769524 73.191671 
L 112.040795 103.090781 
L 110.066668 104.806319 
L 81.077587 78.249834 
L 78.337715 80.951205 
L 59.228601 68.55122 
L 56.194586 71.944365 
L 52.02751 74.422525 
L 49.181663 78.039186 
L 51.008624 84.993964 
L 48.49567 88.637434 
L 59.678444 100.80821 
L 57.658438 104.171263 
L 59.97043 109.870119 
L 58.235205 113.219511 
L 24.634071 101.926645 
L 22.666558 106.391017 
L 63.373402 127.311036 
L 62.184876 130.544807 
L 38.977485 126.849144 
L 37.786498 130.850205 
L 72.43563 143.707709 
L 71.75817 146.648437 
L 80.616345 151.320005 
L 80.174188 153.99975 
L 68.696181 155.392293 
L 68.387959 158.444821 
L 18.664289 158.85609 
L 18.489713 163.480018 
L 70.439862 167.61675 
L 70.515142 170.608408 
L 84.244082 172.613752 
L 84.469653 175.168905 
L 15.04285 187.203101 
L 15.761358 191.926879 
L 64.456479 187.024077 
L 65.144926 190.194271 
L 31.937026 202.421727 
L 33.125688 206.60679 
L 47.333563 206.425422 
L 48.640496 210.124405 
L 21.919024 225.244171 
L 23.830226 229.732938 
L 41.726185 226.511507 
L 43.667442 230.376867 
L 35.275268 240.062448 
L 37.645786 244.123939 
L 78.38436 223.300188 
L 80.206521 226.014523 
L 91.104222 221.998546 
L 92.879168 224.313584 
L 94.115027 227.087641 
L 96.048496 229.305496 
L 58.790255 269.089592 
L 62.061824 272.397368 
L 93.049135 245.584608 
L 95.564716 247.826832 
L 65.93352 289.759553 
L 69.851465 292.83251 
L 101.663422 256.671118 
L 104.523328 258.637008 
L 99.436338 273.425542 
L 102.824141 275.453173 
L 116.854786 257.63875 
L 119.737606 259.126512 
L 100.032797 309.969941 
L 104.569341 311.960749 
L 109.739189 312.314645 
L 114.344657 313.999103 
L 124.019387 299.511264 
L 128.215228 300.753052 
L 136.068286 287.105267 
L 139.868098 287.974346 
L 146.096227 275.342373 
L 149.521229 275.901967 
L 152.412579 281.120319 
L 156.01613 281.478456 
L 158.550753 302.487754 
L 162.823108 302.642329 
L 166.578895 255.482086 
L 169.36932 255.40748 
L 176.761632 317.452793 
L 181.495517 317.027379 
L 185.995571 314.86884 
L 190.643645 314.154368 
L 184.162381 258.426397 
L 187.036687 257.797472 
L 188.021496 250.127749 
L 190.632967 249.381587 
L 204.727106 282.651492 
L 208.352934 281.363989 
L 221.324547 302.908017 
L 225.579079 301.088638 
L 217.218828 273.228627 
L 220.542204 271.553015 
L 242.296663 302.500598 
L 246.528016 300.022012 
L 251.988228 299.422265 
L 256.118 296.640476 
L 251.084671 281.542264 
L 254.652703 278.797726 
L 224.532106 236.280225 
L 226.690129 234.392936 
L 276.454275 282.01681 
L 280.024683 278.474361 
L 258.727131 252.119886 
L 261.36628 249.149599 
L 277.599306 257.150553 
L 280.387299 253.584396 
L 238.688043 218.49617 
L 240.279896 216.172581 
L 297.584281 248.270212 
L 300.083176 244.080075 
L 282.697944 229.263718 
L 284.606593 225.551037 
L 262.383963 210.834272 
L 263.723194 207.769419 
L 250.023514 198.957954 
L 250.995439 196.287613 
L 290.823924 205.714789 
L 291.988126 201.758253 
L 286.811473 196.252526 
L 287.680144 192.426828 
L 245.911329 181.009906 
L 246.320961 178.477735 
L 312.602326 183.43241 
L 313.055153 178.80213 
L 255.855461 171.263962 
L 255.953742 168.423944 
L 261.560251 165.511825 
L 261.474852 162.495281 
L 258.902329 159.663813 
L 258.63437 156.733731 
L 281.244531 150.614743 
L 280.681003 146.986647 
L 266.68292 146.095837 
L 265.984507 142.927824 
L 252.063232 143.332991 
L 251.285177 140.626019 
L 279.200784 128.18221 
L 277.932938 124.629465 
L 265.4588 125.678401 
L 264.119023 122.558972 
L 290.727146 105.837333 
L 288.751029 101.933222 
L 242.824232 122.940436 
L 241.409559 120.534042 
L 270.04886 98.492657 
L 267.852035 95.242348 
L 252.098992 102.112596 
L 250.02486 99.42488 
L 229.586053 112.340428 
L 227.844638 110.355511 
L 230.070993 104.540156 
L 228.08408 102.543849 
L 261.108398 62.244784 
L 257.77628 59.293505 
L 224.769303 93.205284 
L 222.428618 91.381278 
L 247.246672 51.088182 
L 243.57062 48.578262 
L 232.689417 57.761856 
L 229.230397 55.706348 
L 238.856773 29.050982 
L 234.491971 26.815754 
L 224.109155 37.82657 
L 220.027568 36.050701 
L 215.892163 34.404044 
L 211.707028 32.888227 
L 207.71288 30.740828 
L 203.416609 29.483997 
L 196.073411 40.799373 
L 192.099158 39.903539 
L 185.876794 51.734178 
L 182.251396 51.153542 
L 182.529651 15.718707 
L 177.773503 15.26112 
L 171.4467 46.903964 
L 167.676564 46.77943 
L 164.187294 66.764406 
L 161.045204 66.858304 
L 157.784511 65.456262 
L 154.604456 65.752124 
L 150.765987 61.396436 
L 147.461752 61.914984 
L 134.831601 17.104512 
L 130.142609 18.14597 
L 133.889351 50.200231 
L 130.241427 51.254952 
L 129.467591 60.749983 
L 126.153561 61.938518 
L 116.164872 46.968223 
L 112.42409 48.581838 
L 99.609253 31.629723 
L 95.394381 33.771467 
L 125.656945 96.51628 
L 123.469369 97.806946 
L 106.856249 77.093923 
L 104.067288 78.985327 
L 94.145589 71.363996 
L 91.182751 73.657885 
L 111.641669 103.428909 
L 109.678371 105.156828 
L 80.522838 78.783194 
L 77.800011 81.501743 
L 58.613285 69.222189 
L 55.600672 72.63435 
L 51.449264 75.138669 
L 48.62622 78.773157 
L 50.496887 85.716307 
L 48.006898 89.37551 
L 59.265998 101.475712 
L 57.267183 104.851403 
L 59.614972 110.535606 
L 57.900848 113.895845 
L 24.229353 102.814534 
L 22.289956 107.291192 
L 63.127571 127.954774 
L 61.959406 131.195957 
L 38.729231 127.646328 
L 37.563432 131.654801 
L 72.292745 144.294127 
L 71.633794 147.239058 
L 80.521175 151.854821 
L 80.095881 154.537294 
L 68.626859 156.001999 
L 68.337842 159.056405 
L 18.617742 159.7804 
L 18.472252 164.405334 
L 70.447391 168.215247 
L 70.541485 171.206373 
L 84.282766 173.12533 
L 84.524403 175.679014 
L 15.174662 188.149627 
L 15.922865 192.868792 
L 64.586188 187.659823 
L 65.29456 190.825624 
L 32.16422 203.261697 
L 33.37918 207.439202 
L 47.585633 207.168478 
L 48.915805 210.859168 
L 22.289956 226.146697 
L 24.229353 230.623355 
L 42.104697 227.289433 
L 44.070226 231.142507 
L 35.739135 240.880677 
L 38.13515 244.927179 
L 78.741949 223.847618 
L 80.581146 226.550438 
L 91.453373 222.466001 
L 93.242844 224.769829 
L 94.496126 227.536058 
L 96.443506 229.741709 
L 59.436221 269.759352 
L 62.728529 273.046486 
L 93.54659 246.039364 
L 96.076224 248.265722 
L 66.709347 290.383977 
L 70.646541 293.432232 
L 102.230434 257.071476 
L 105.102649 259.01934 
L 100.10877 273.839575 
L 103.509259 275.845859 
L 117.427584 257.943543 
L 120.319704 259.413145 
L 100.935062 310.3795 
L 105.484037 312.341736 
L 110.656008 312.66311 
L 115.271979 314.318569 
L 124.855398 299.770168 
L 129.058966 300.985542 
L 136.826031 287.288636 
L 140.631234 288.133798 
L 146.779792 275.462904 
L 150.208247 276.000946 
L 153.13236 281.201009 
L 156.738092 281.536475 
L 159.404801 302.529416 
L 163.678044 302.657117 
L 167.137146 255.474186 
L 169.927046 255.38203 
L 177.709442 317.379623 
L 182.440557 316.924444 
L 186.926946 314.737645 
L 191.570435 313.993954 
L 184.738802 258.307848 
L 187.609096 257.660857 
L 188.545647 249.985092 
L 191.152373 249.222521 
L 205.455482 282.403124 
L 209.073141 281.092842 
L 222.179997 302.554859 
L 226.423002 300.708758 
L 217.887692 272.901879 
L 221.200465 271.205398 
L 243.149136 302.015546 
L 247.364816 299.510396 
L 252.821149 298.876319 
L 256.933342 296.068611 
L 251.805154 281.002355 
L 255.355853 278.23543 
L 224.968442 235.908211 
L 227.114552 234.007387 
L 277.17724 281.31733 
L 280.725299 277.752496 
L 259.262412 251.532492 
L 261.882828 248.545665 
L 278.165854 256.444364 
L 280.931363 252.860743 
L 239.012247 218.035475 
L 240.589455 215.70192 
L 298.094582 247.438505 
L 300.567074 243.232734 
L 283.088999 228.526013 
L 284.97426 224.801402 
L 262.65951 210.224695 
L 263.979438 207.15148 
L 250.22461 198.426352 
L 251.17972 195.749951 
L 291.066709 204.926442 
L 292.206004 200.962662 
L 286.994825 195.489602 
L 287.839418 191.658517 
L 245.999622 180.504523 
L 246.39332 177.969825 
L 312.704536 182.50753 
L 313.128233 177.874494 
L 255.882261 170.696228 
L 255.962679 167.855649 
L 261.550761 164.908325 
L 261.446391 161.892378 
L 258.856111 159.077146 
L 258.569728 156.148807 
L 281.140958 149.887735 
L 280.554622 146.263255 
L 266.551213 145.460502 
L 265.832889 142.296945 
L 251.914437 142.789661 
L 251.119373 140.087636 
L 278.956163 127.4685 
L 277.665997 123.923799 
L 265.198703 125.05117 
L 263.839333 121.940229 
L 290.34176 105.05157 
L 288.341128 101.159965 
L 242.547362 122.455617 
L 241.117582 120.058168 
L 269.61769 97.837094 
L 267.400465 94.600666 
L 251.690944 101.569856 
L 249.599949 98.895238 
L 229.242777 111.939079 
L 227.488913 109.965154 
L 229.678649 104.135912 
L 227.67922 102.15214 
L 260.449426 61.646168 
L 257.098812 58.715905 
L 224.305773 92.834608 
L 221.953663 91.02536 
L 246.517805 50.576969 
L 242.82604 48.090219 
L 232.002812 57.342069 
L 228.530932 55.308357 
L 237.989471 28.592973 
L 233.610697 26.385242 
L 223.297338 37.461142 
L 219.204663 35.710979 
L 215.058983 34.090364 
L 210.864396 32.600899 
L 206.856822 30.478663 
L 202.552731 29.248878 
L 195.280845 40.610215 
L 191.301036 39.739395 
L 185.153204 51.608935 
L 181.524226 51.051112 
L 181.57961 15.615228 
L 176.820678 15.187563 
L 170.693016 46.869573 
L 166.922172 46.768753 
L 163.558665 66.77528 
L 160.417227 66.888938 
L 157.147781 65.507431 
L 153.969649 65.823288 
L 150.103861 61.491829 
L 146.802953 62.031148 
L 133.89122 17.300999 
L 129.208871 18.371928 
L 133.157141 50.401989 
L 129.515923 51.479633 
L 128.801821 60.979343 
L 125.495332 62.188698 
L 115.412685 47.281522 
L 111.682126 48.918633 
L 98.760924 32.047451 
L 94.559605 34.215662 
L 125.2162 96.7689 
L 123.036785 98.073299 
L 106.293721 77.465173 
L 103.51671 79.37408 
L 93.547274 71.815302 
L 90.598921 74.127779 
L 111.244678 103.76954 
L 109.292286 105.509773 
L 79.971454 79.320032 
L 77.265779 82.055653 
L 58.002202 69.897015 
L 55.011109 73.328056 
L 50.875534 75.858436 
L 48.075404 79.510608 
L 49.989703 86.441854 
L 47.522777 90.116646 
L 58.857758 102.145795 
L 56.880214 105.53399 
L 59.263707 111.203314 
L 57.570751 114.574268 
L 23.830226 103.704951 
L 21.919024 108.193719 
L 62.885793 128.600046 
L 61.738037 131.848512 
L 38.485996 128.445058 
L 37.345431 132.460783 
L 72.153551 144.881432 
L 71.513135 147.830449 
L 80.429371 152.390224 
L 80.020957 155.075319 
L 68.561374 156.612129 
L 68.291573 159.668292 
L 18.57701 160.704984 
L 18.460611 165.330741 
L 70.458684 168.813685 
L 70.571589 171.80416 
L 84.324667 173.636655 
L 84.58236 176.188768 
L 15.312424 189.095305 
L 16.090293 193.809671 
L 64.719892 188.29474 
L 65.448161 191.456023 
L 32.396693 204.100222 
L 33.637902 208.270002 
L 47.842372 207.909933 
L 49.19573 211.592184 
L 22.666558 227.046872 
L 24.634071 231.511244 
L 42.488093 228.064962 
L 44.477818 231.905598 
L 36.208139 241.695974 
L 38.629557 245.727326 
L 79.102974 224.392788 
L 80.959134 227.083987 
L 91.805457 222.93125 
L 93.609382 225.223779 
L 94.880037 227.98207 
L 96.841251 230.17543 
L 60.086387 270.425035 
L 63.399304 273.691398 
L 94.046896 246.490982 
L 96.590482 248.701386 
L 67.489085 291.003509 
L 71.445374 294.026941 
L 102.799954 257.468259 
L 105.684362 259.39802 
L 100.783794 274.249371 
L 104.196834 276.234228 
L 118.002288 258.244728 
L 120.903594 259.69611 
L 101.839884 310.783376 
L 106.401111 312.716963 
L 111.575001 313.005801 
L 116.201293 314.632196 
L 125.693021 300.023808 
L 129.90415 301.212721 
L 137.584916 287.467235 
L 141.395359 288.288448 
L 147.464102 275.579134 
L 150.895873 276.095601 
L 153.852634 281.277171 
L 157.460405 281.589952 
L 160.259095 302.565706 
L 164.533056 302.666528 
L 167.695335 255.462774 
L 170.484601 255.353074 
L 178.656773 317.300493 
L 183.384932 316.815567 
L 187.857478 314.600595 
L 192.496197 313.827713 
L 185.314466 258.185677 
L 188.180634 257.520646 
L 189.06889 249.839142 
L 191.670768 249.060191 
L 206.182282 282.150179 
L 209.791628 280.81717 
L 223.033209 302.196328 
L 227.264519 300.323577 
L 218.554489 272.57093 
L 221.856526 270.853648 
L 243.998541 301.525142 
L 248.198382 298.993527 
L 253.650618 298.325145 
L 257.745072 295.49163 
L 252.522227 280.457924 
L 256.055454 277.668723 
L 225.402429 235.53346 
L 227.536541 233.619176 
L 277.895792 280.613318 
L 281.42136 277.026239 
L 259.793989 250.941743 
L 262.395567 247.938494 
L 278.72795 255.734626 
L 281.470865 252.133682 
L 239.333547 217.572751 
L 240.896047 215.229322 
L 298.599642 246.603604 
L 301.045633 242.382366 
L 283.475407 227.785863 
L 285.337205 224.049468 
L 262.931216 209.613397 
L 264.23179 206.531941 
L 250.422358 197.893496 
L 251.360616 195.211141 
L 291.304531 204.136584 
L 292.418873 200.165717 
L 287.173375 194.72554 
L 287.993856 190.889218 
L 246.084736 179.998594 
L 246.462484 177.46147 
L 312.800928 181.582025 
L 313.195477 176.946416 
L 255.905491 170.128337 
L 255.968041 167.287308 
L 261.537475 164.304897 
L 261.414139 161.289665 
L 258.806204 158.490781 
L 258.501409 155.564301 
L 281.032814 149.161392 
L 280.423693 145.540672 
L 266.415513 144.826009 
L 265.677306 141.667032 
L 251.762228 142.247277 
L 250.950186 139.550306 
L 278.707058 126.756342 
L 277.394624 123.219826 
L 264.934666 124.425586 
L 263.555757 121.323257 
L 289.95144 104.268247 
L 287.926372 100.389301 
L 242.267449 121.972549 
L 240.822619 119.58414 
L 269.182404 97.184256 
L 266.944868 93.961837 
L 251.27949 101.029693 
L 249.171715 98.36828 
L 228.896984 111.539897 
L 227.130739 109.577043 
L 229.283769 103.734143 
L 227.271903 101.762986 
L 259.786702 61.051709 
L 256.417725 58.142577 
L 223.839922 92.466855 
L 221.476479 90.672436 
L 245.785737 50.070351 
L 242.078405 47.606869 
L 231.31358 56.926608 
L 227.828978 54.914772 
L 237.119305 28.140428 
L 232.726732 25.96028 
L 222.483238 37.100826 
L 218.379637 35.376439 
L 214.223846 33.78193 
L 210.019975 32.318876 
L 205.999131 30.221888 
L 201.687391 29.019197 
L 194.487106 40.426045 
L 190.501899 39.580273 
L 184.42884 51.488245 
L 180.796426 50.953257 
L 180.628937 15.517726 
L 175.86741 15.12 
L 169.93913 46.839923 
L 166.167727 46.762822 
L 162.930116 66.790107 
L 159.789455 66.923521 
L 156.511385 65.562605 
L 153.335303 65.898444 
L 149.442349 61.591384 
L 146.144898 62.151453 
L 132.952093 17.503396 
L 128.276572 18.603753 
L 132.426215 50.608349 
L 128.791847 51.708872 
L 128.137507 61.212886 
L 124.838689 62.443013 
L 114.662484 47.599546 
L 110.942295 49.260088 
L 97.915239 32.470506 
L 93.72764 34.665099 
L 124.777052 97.024286 
L 122.605884 98.342367 
L 105.733538 77.839953 
L 102.968588 79.766289 
L 92.951809 72.270362 
L 90.018059 74.601337 
L 110.849837 104.112661 
L 108.908429 105.865139 
L 79.423458 79.860328 
L 76.735042 82.612911 
L 57.395375 70.575671 
L 54.42592 74.025456 
L 50.306342 76.581797 
L 47.529238 80.251507 
L 49.487092 87.170577 
L 47.043328 90.860811 
L 58.453741 102.818432 
L 56.497546 106.218998 
L 58.916648 111.873219 
L 57.244927 115.254754 
L 23.436708 104.597861 
L 21.553775 109.09856 
L 62.648078 129.246826 
L 61.520776 132.502447 
L 38.247789 129.245302 
L 37.132503 133.268121 
L 72.018054 145.469601 
L 71.396198 148.422587 
L 80.340936 152.926194 
L 79.949417 155.613805 
L 68.499727 157.222659 
L 68.249153 160.280458 
L 18.542093 161.629806 
L 18.45479 166.256204 
L 70.473741 169.412041 
L 70.605452 172.401746 
L 84.369783 174.147705 
L 84.643523 176.698147 
L 15.456131 190.040098 
L 16.263636 194.749478 
L 64.857587 188.928804 
L 65.605724 192.085444 
L 32.634434 204.937267 
L 33.901845 209.099159 
L 48.103769 208.649759 
L 49.48026 212.323425 
L 23.048813 227.944661 
L 25.044366 232.39657 
L 42.87636 228.838064 
L 44.8902 232.66611 
L 36.682261 242.508304 
L 39.128986 246.524347 
L 79.467421 224.935676 
L 81.34047 227.615148 
L 92.16046 223.394276 
L 93.978768 225.675413 
L 95.266746 228.425659 
L 97.241716 230.60664 
L 60.740727 271.086617 
L 64.074121 274.332079 
L 94.550032 246.939444 
L 97.10747 249.133807 
L 68.272705 291.618125 
L 72.247932 294.616614 
L 103.371958 257.861453 
L 106.268446 259.773034 
L 101.461381 274.654913 
L 104.886837 276.618265 
L 118.578875 258.542292 
L 121.489252 259.975398 
L 102.747229 311.181553 
L 107.320527 313.086415 
L 112.496131 313.342706 
L 117.13256 314.939973 
L 126.532222 300.272176 
L 130.750745 301.434579 
L 138.344908 287.641057 
L 142.160441 288.438289 
L 148.14913 275.691057 
L 151.584081 276.18593 
L 154.573373 281.348801 
L 158.183039 281.638885 
L 161.1136 302.596622 
L 165.388111 302.670562 
L 168.253442 255.447852 
L 171.041963 255.320611 
L 179.603587 317.215407 
L 184.328603 316.700753 
L 188.78713 314.457695 
L 193.420896 313.655654 
L 185.88935 258.059886 
L 188.751278 257.376842 
L 189.591205 249.689904 
L 192.188133 248.894604 
L 206.907476 281.892668 
L 210.508368 280.536985 
L 223.884149 301.832438 
L 228.103597 299.933112 
L 219.21919 272.235795 
L 222.510361 270.497779 
L 244.844845 301.029405 
L 249.02868 298.471426 
L 254.476605 297.768765 
L 258.553157 294.909554 
L 253.235861 279.908995 
L 256.751476 277.097626 
L 225.834051 235.155988 
L 227.956081 233.228319 
L 278.609902 279.9048 
L 282.112839 276.295618 
L 260.32184 250.347662 
L 262.904477 247.32811 
L 279.285571 255.021366 
L 282.005784 251.403243 
L 239.65193 217.108014 
L 241.19966 214.754805 
L 299.09944 245.765544 
L 301.518834 241.529005 
L 283.857152 227.043298 
L 285.695413 223.295267 
L 263.199073 209.000402 
L 264.48024 205.910827 
L 250.61675 197.359407 
L 251.53812 194.671203 
L 291.537381 203.345245 
L 292.626726 199.367448 
L 287.347116 193.96037 
L 288.143452 190.118964 
L 246.166665 179.492139 
L 246.528449 176.95269 
L 312.891497 180.655933 
L 313.256883 176.017934 
L 255.925148 169.560311 
L 261.567843 166.718945 
z
" clip-path="url(#pbe537114f8)" style="fill: #0000ff; opacity: 0.5; stroke: #000000; stroke-width: 1.5; stroke-linejoin: miter"/>
   </g>
  </g>
 </g>
 <defs>
  <clipPath id="pbe537114f8">
   <rect x="0" y="-0" width="328.173877" height="332.64"/>
  </clipPath>
 </defs>
</svg>
