<?xml version="1.0" encoding="utf-8" standalone="no"?>
<!DOCTYPE svg PUBLIC "-//W3C//DTD SVG 1.1//EN"
  "http://www.w3.org/Graphics/SVG/1.1/DTD/svg11.dtd">
<svg xmlns:xlink="http://www.w3.org/1999/xlink" width="327.413756pt" height="332.64pt" viewBox="0 0 327.413756 332.64" xmlns="http://www.w3.org/2000/svg" version="1.1">
 <metadata>
  <rdf:RDF xmlns:dc="http://purl.org/dc/elements/1.1/" xmlns:cc="http://creativecommons.org/ns#" xmlns:rdf="http://www.w3.org/1999/02/22-rdf-syntax-ns#">
   <cc:Work>
    <dc:type rdf:resource="http://purl.org/dc/dcmitype/StillImage"/>
    <dc:date>2023-12-09T18:06:27.226842</dc:date>
    <dc:format>image/svg+xml</dc:format>
    <dc:creator>
     <cc:Agent>
      <dc:title>Matplotlib v3.8.2, https://matplotlib.org/</dc:title>
     </cc:Agent>
    </dc:creator>
   </cc:Work>
  </rdf:RDF>
 </metadata>
 <defs>
  <style type="text/css">*{stroke-linejoin: round; stroke-linecap: butt}</style>
 </defs>
 <g id="figure_1">
  <g id="patch_1">
   <path d="M 0 332.64 
L 327.413756 332.64 
L 327.413756 0 
L 0 0 
L 0 332.64 
z
" style="fill: none"/>
  </g>
  <g id="axes_1">
   <g id="patch_2">
    <path d="M 256.864076 167.684558 
L 256.817699 164.735352 
L 246.452067 162.433108 
L 246.245721 159.813875 
L 249.867066 156.707985 
L 249.479021 153.984207 
L 267.586971 147.725744 
L 266.907744 144.449254 
L 285.974326 136.094192 
L 284.920287 132.245315 
L 308.481281 120.385821 
L 306.922208 115.837043 
L 263.453829 127.894516 
L 262.153108 124.757787 
L 282.14595 111.585904 
L 280.323209 107.869517 
L 241.786537 124.356176 
L 240.385276 121.902463 
L 280.154531 93.285135 
L 277.757358 89.640411 
L 277.158939 84.681754 
L 274.492739 81.135472 
L 255.327805 91.251669 
L 252.878971 88.388557 
L 242.877018 92.623918 
L 240.477487 90.151608 
L 241.775115 83.730785 
L 239.096508 81.297519 
L 242.867327 71.048625 
L 239.789426 68.587287 
L 223.217356 84.729337 
L 220.579321 82.879073 
L 232.221447 58.470791 
L 228.753335 56.350402 
L 210.81875 80.602845 
L 208.0571 79.14446 
L 218.977699 48.516898 
L 215.203163 46.817843 
L 210.219928 48.171152 
L 206.43885 46.747631 
L 188.299771 89.69039 
L 185.834987 88.935559 
L 196.41355 37.089952 
L 192.290882 36.106012 
L 189.60557 27.507602 
L 185.184977 26.742458 
L 182.012071 15.948827 
L 177.2318 15.428155 
L 170.263797 50.4611 
L 166.574476 50.292755 
L 162.93126 81.769101 
L 160.229957 81.815828 
L 156.312766 63.069575 
L 153.026781 63.333647 
L 150.751899 71.519226 
L 147.734339 71.953967 
L 145.626301 77.127331 
L 142.787606 77.720458 
L 136.612934 65.429947 
L 133.410904 66.312258 
L 135.137923 82.278356 
L 132.466374 83.198714 
L 125.159642 72.485853 
L 122.185129 73.724792 
L 109.813897 55.106016 
L 106.30051 56.836051 
L 86.834586 29.698662 
L 82.533699 32.16378 
L 99.077153 67.328713 
L 95.953383 69.390292 
L 85.460707 61.362528 
L 82.15608 63.855188 
L 77.420056 64.631945 
L 74.222202 67.375804 
L 90.043939 90.285323 
L 87.646442 92.619576 
L 70.926704 81.57315 
L 68.264729 84.512798 
L 86.996154 105.067474 
L 85.064947 107.490248 
L 76.822434 105.355583 
L 74.905316 108.098098 
L 55.743781 99.963161 
L 53.667536 103.371101 
L 77.293101 120.824942 
L 75.86214 123.54501 
L 49.52376 114.630063 
L 47.911749 118.226322 
L 64.021571 128.786669 
L 62.847506 131.920086 
L 30.258915 124.947988 
L 28.980847 129.144875 
L 46.935792 138.225167 
L 46.066942 141.891132 
L 53.060667 147.036678 
L 52.465843 150.505707 
L 35.55218 151.966726 
L 35.121023 155.983823 
L 15.146146 158.835791 
L 14.941058 163.491102 
L 53.504845 168.029101 
L 53.569848 171.473785 
L 34.867176 176.163095 
L 35.197145 180.189766 
L 19.238413 186.332351 
L 19.895853 190.845397 
L 16.826078 196.086925 
L 17.791416 200.670997 
L 64.667375 193.305659 
L 65.52161 196.38687 
L 55.989227 202.885994 
L 57.148979 206.235329 
L 65.000014 206.911872 
L 66.281893 209.975897 
L 64.811512 214.350746 
L 66.327379 217.41702 
L 56.909638 226.550007 
L 58.812984 229.858702 
L 80.073713 220.786309 
L 81.784382 223.369525 
L 78.488009 229.623315 
L 80.477317 232.252019 
L 59.543134 253.997538 
L 62.308188 257.209859 
L 89.789365 237.035927 
L 92.006154 239.305627 
L 102.889854 232.27701 
L 104.950535 234.137155 
L 99.069018 245.681163 
L 101.553044 247.654816 
L 114.693792 234.839303 
L 116.829201 236.327039 
L 113.136196 247.088542 
L 115.657518 248.619196 
L 110.312668 264.608393 
L 113.386249 266.219162 
L 116.508956 267.732495 
L 119.677702 269.146895 
L 105.670639 314.507995 
L 110.315467 316.240048 
L 124.863507 287.046369 
L 128.635392 288.188535 
L 131.670884 292.268822 
L 135.603609 293.194366 
L 145.475253 262.22426 
L 148.456486 262.73062 
L 148.977012 283.486593 
L 152.625048 283.872337 
L 156.37507 282.569423 
L 159.99061 282.723009 
L 163.679835 297.738779 
L 167.768722 297.655188 
L 171.107428 286.43326 
L 174.837171 286.121719 
L 175.272854 260.684635 
L 178.190945 260.254854 
L 186.547847 287.580284 
L 190.306021 286.782694 
L 193.837447 285.104865 
L 197.514185 284.079298 
L 198.93079 276.203006 
L 202.325115 275.021695 
L 209.7951 283.973523 
L 213.428376 282.446772 
L 225.493848 298.593013 
L 229.579031 296.565431 
L 220.948665 271.682399 
L 224.189966 269.811033 
L 221.834679 259.216138 
L 224.683575 257.323077 
L 241.939374 275.032402 
L 245.275628 272.499385 
L 220.716784 236.609473 
L 222.855431 234.762739 
L 236.874509 245.425398 
L 239.282359 243.066271 
L 227.753343 227.759418 
L 229.610245 225.695814 
L 271.060047 256.011174 
L 273.783834 252.571944 
L 287.283112 256.863415 
L 290.025674 252.913676 
L 292.642692 248.879657 
L 295.131578 244.765348 
L 233.742634 206.008302 
L 234.912672 203.767137 
L 260.326769 212.758868 
L 261.695916 209.678502 
L 288.677396 216.560446 
L 290.152055 212.586794 
L 266.715402 200.67881 
L 267.701567 197.403543 
L 250.997944 189.696501 
L 251.646572 186.920855 
L 249.107041 183.554305 
L 249.56348 180.841151 
L 311.759383 185.538445 
L 312.24723 180.854383 
L 307.078883 175.845144 
L 307.264266 171.31304 
L 256.86222 167.094623 
L 256.797296 164.145767 
L 246.417389 161.908763 
L 246.194574 159.29088 
L 249.796312 156.162274 
L 249.391145 153.440991 
L 267.459374 147.068763 
L 266.759554 143.796611 
L 285.77321 135.321795 
L 284.694984 131.479624 
L 308.180922 119.472179 
L 306.593271 114.933297 
L 263.201587 127.263922 
L 261.881164 124.135436 
L 281.790766 110.83807 
L 279.944687 107.133221 
L 241.512469 123.861927 
L 240.095804 121.417077 
L 279.684285 92.550188 
L 277.264236 88.920614 
L 276.634642 83.965818 
L 273.94619 80.436375 
L 254.845261 90.672908 
L 252.378468 87.825255 
L 242.403351 92.123438 
L 239.988317 89.666269 
L 241.245536 83.237412 
L 238.551679 80.821041 
L 242.257964 70.548633 
L 239.164643 68.106702 
L 222.694425 84.352662 
L 220.044805 82.519026 
L 231.533187 58.038005 
L 228.051807 55.93947 
L 210.270111 80.304231 
L 207.499343 78.863245 
L 218.227096 48.167605 
L 214.441948 46.492322 
L 209.467323 47.876946 
L 205.677368 46.477234 
L 187.808732 89.533229 
L 185.33925 88.793914 
L 195.591524 36.8828 
L 191.462749 35.924809 
L 188.723411 27.343458 
L 184.298094 26.606132 
L 181.057365 15.832671 
L 176.273914 15.342074 
L 169.526385 50.41815 
L 165.836078 50.273013 
L 162.390903 81.77165 
L 159.689947 81.835366 
L 155.654931 63.11412 
L 152.370672 63.398854 
L 150.147317 71.598579 
L 147.132551 72.05229 
L 145.057092 77.23881 
L 142.222184 77.849779 
L 135.970333 65.598347 
L 132.773916 66.500779 
L 134.601319 82.455699 
L 131.935611 83.392842 
L 124.561646 72.726148 
L 121.594984 73.98377 
L 109.106895 55.44317 
L 105.604459 57.195269 
L 85.968241 30.180846 
L 81.682942 32.672965 
L 98.447237 67.733153 
L 95.336495 69.814339 
L 84.793537 61.852727 
L 81.504653 64.366122 
L 76.773608 65.17265 
L 73.593074 67.936568 
L 89.558586 90.746123 
L 87.175817 93.095409 
L 70.386934 82.154359 
L 67.743501 85.110691 
L 86.603833 105.547151 
L 84.687902 107.982023 
L 76.432126 105.899242 
L 74.532295 108.65376 
L 55.319975 100.639499 
L 53.265204 104.06043 
L 77.000077 121.365334 
L 75.586252 124.094348 
L 49.192323 115.345231 
L 47.602963 118.951558 
L 63.778884 129.410374 
L 62.62455 132.551113 
L 29.992753 125.784117 
L 28.741107 129.988959 
L 46.752806 138.956145 
L 45.90703 142.627502 
L 52.93298 147.72896 
L 52.359985 151.201661 
L 35.455846 152.769029 
L 35.049963 156.788758 
L 15.093418 159.766301 
L 14.917613 164.422809 
L 53.509179 168.718174 
L 53.595846 172.162381 
L 34.923037 176.969227 
L 35.278325 180.993743 
L 19.358542 187.236579 
L 20.044353 191.7454 
L 17.007605 197.006132 
L 18.001755 201.584041 
L 64.830464 193.924026 
L 65.70406 196.999804 
L 56.212742 203.558752 
L 57.393537 206.900726 
L 65.248671 207.527878 
L 66.549796 210.58378 
L 65.106959 214.96779 
L 66.642082 218.02447 
L 57.281968 227.216508 
L 59.206086 230.513167 
L 80.409334 221.307236 
L 82.136217 223.879641 
L 78.879241 230.15404 
L 80.885043 232.77018 
L 60.088041 254.646933 
L 62.873244 257.8418 
L 90.226995 237.495426 
L 92.458016 239.751139 
L 103.297294 232.654209 
L 105.369634 234.501356 
L 99.560838 246.082127 
L 102.057228 248.040118 
L 115.117114 235.14221 
L 117.261838 236.616486 
L 113.63659 247.401004 
L 116.167489 248.91577 
L 110.923308 264.938266 
L 114.006958 266.529673 
L 117.139122 268.023336 
L 120.3167 269.417778 
L 106.59521 314.866077 
L 111.25084 316.568883 
L 125.61498 287.284283 
L 129.393975 288.402703 
L 132.455069 292.463817 
L 136.393538 293.364609 
L 146.070202 262.333028 
L 149.054561 262.820627 
L 149.705619 283.572917 
L 153.356009 283.935709 
L 157.097763 282.609235 
L 160.714197 282.740078 
L 164.49779 297.732349 
L 168.58607 297.623042 
L 171.854131 286.380338 
L 175.581841 286.045344 
L 175.857531 260.606024 
L 178.772861 260.157898 
L 187.301459 287.430227 
L 191.054542 286.609017 
L 194.575346 284.909009 
L 198.24556 283.860338 
L 199.6126 275.975293 
L 202.999429 274.772657 
L 210.525568 283.677325 
L 214.14917 282.127754 
L 226.315954 298.19779 
L 230.388303 296.144555 
L 221.601608 271.316295 
L 224.831075 269.42458 
L 222.409198 258.844708 
L 225.246132 256.933767 
L 242.612971 274.534212 
L 245.933228 271.980262 
L 221.149143 236.245522 
L 223.276132 234.385373 
L 237.361995 244.959649 
L 239.754959 242.585424 
L 228.129901 227.351385 
L 229.973787 225.276143 
L 271.613436 255.330208 
L 274.315538 251.873915 
L 287.841539 256.080398 
L 290.559206 252.113488 
L 293.150801 248.063089 
L 295.61376 243.933208 
L 233.982271 205.56303 
L 235.13819 203.31455 
L 260.608338 212.146264 
L 261.958084 209.057347 
L 288.982313 215.769457 
L 290.431951 211.786609 
L 266.920867 200.026264 
L 267.886413 196.744859 
L 251.134647 189.143025 
L 251.765805 186.363355 
L 249.205151 183.012844 
L 249.644516 180.296873 
L 311.868732 184.602897 
L 312.32711 179.91586 
L 307.12736 174.939226 
L 307.284235 170.406045 
L 256.856655 166.504712 
L 256.773185 163.556323 
L 246.379414 161.384647 
L 246.140138 158.768216 
L 249.722128 155.61702 
L 249.299853 152.898339 
L 267.327648 146.412598 
L 266.607261 143.144912 
L 285.567239 134.550679 
L 284.46487 130.715365 
L 307.874824 118.560444 
L 306.258656 114.031637 
L 262.945383 126.634928 
L 261.60531 123.514808 
L 281.430886 110.092485 
L 279.561542 106.39932 
L 241.235298 123.369412 
L 239.803284 120.93352 
L 279.209426 91.818214 
L 276.766597 88.203931 
L 276.105852 83.253193 
L 273.395255 79.740729 
L 254.359086 90.097194 
L 251.874432 87.265112 
L 241.926545 91.625948 
L 239.496105 89.184016 
L 240.712865 82.74738 
L 238.003864 80.347999 
L 241.645467 70.052484 
L 238.536849 67.630057 
L 222.169135 83.979284 
L 219.508035 82.162349 
L 230.842218 57.609556 
L 227.347708 55.532958 
L 209.719605 80.009075 
L 206.939829 78.585544 
L 217.474311 47.823039 
L 213.678702 46.171596 
L 208.712884 47.58748 
L 204.914199 46.211632 
L 187.316715 89.379159 
L 184.842632 88.655391 
L 194.768212 36.680822 
L 190.633493 35.748818 
L 187.840238 27.184865 
L 183.410371 26.475387 
L 180.101947 15.722521 
L 175.315505 15.262019 
L 168.788718 50.37984 
L 165.097571 50.257915 
L 161.850573 81.777598 
L 159.150071 81.858299 
L 154.997389 63.162802 
L 151.714985 63.468186 
L 149.543246 71.681733 
L 146.531393 72.154396 
L 144.488596 77.353867 
L 141.657587 77.982654 
L 135.328805 65.770785 
L 132.138127 66.693303 
L 134.065841 82.636414 
L 131.40608 83.590304 
L 123.965173 72.970199 
L 121.006479 74.246455 
L 108.402027 55.784764 
L 104.91068 57.558857 
L 85.104945 30.668469 
L 80.835406 33.187491 
L 97.819877 68.141548 
L 94.722287 70.242257 
L 84.129463 62.347112 
L 80.856451 64.881142 
L 76.130573 65.71741 
L 72.967486 68.501277 
L 89.076141 91.209967 
L 86.708195 93.574193 
L 69.850831 82.738952 
L 67.226043 85.711851 
L 86.214536 106.029286 
L 84.313957 108.47616 
L 76.045245 106.445344 
L 74.162775 109.211756 
L 54.90043 101.318488 
L 52.867216 104.752275 
L 76.710457 121.907559 
L 75.313825 124.645411 
L 48.865391 116.062469 
L 47.298743 119.678721 
L 63.540125 130.035593 
L 62.405567 133.18353 
L 29.731855 126.621903 
L 28.50668 130.834535 
L 46.574421 139.688259 
L 45.751753 143.364863 
L 52.809649 148.422031 
L 52.258507 151.898268 
L 35.364559 153.571922 
L 34.983967 157.594124 
L 15.046544 160.697123 
L 14.900029 165.354645 
L 53.517847 169.407206 
L 53.626174 172.8508 
L 34.983967 177.774992 
L 35.364559 181.797194 
L 19.484355 188.140033 
L 20.198511 192.644452 
L 17.19491 197.924179 
L 18.217833 202.495745 
L 64.997438 194.541355 
L 65.890362 197.611577 
L 56.440484 204.230091 
L 57.642274 207.564573 
L 65.501198 208.142307 
L 66.821517 211.189966 
L 65.406282 215.582964 
L 66.960598 218.629928 
L 57.658483 227.880655 
L 59.603297 231.165146 
L 80.748226 221.826041 
L 82.491253 224.387534 
L 79.273804 230.682294 
L 81.29602 233.285767 
L 60.637022 255.292888 
L 63.442264 258.470175 
L 90.667507 237.952164 
L 92.91267 240.1938 
L 103.707099 233.028837 
L 105.791015 234.862914 
L 100.05517 246.479991 
L 102.563826 248.422241 
L 115.542333 235.44245 
L 117.696287 236.903207 
L 114.138939 247.710313 
L 116.679315 249.209131 
L 111.53601 265.264293 
L 114.629608 266.836274 
L 117.771104 268.310208 
L 120.95739 269.684637 
L 107.522015 315.218338 
L 112.188263 316.891828 
L 126.367936 287.517465 
L 130.15389 288.612095 
L 133.240466 292.653877 
L 137.184521 293.52988 
L 146.665824 262.438052 
L 149.65319 262.906872 
L 150.434756 283.654656 
L 154.087355 283.994482 
L 157.820692 282.644501 
L 161.437878 282.752596 
L 165.315689 297.720774 
L 169.4032 297.585756 
L 172.600486 286.32272 
L 176.326016 285.964288 
L 176.441701 260.523737 
L 179.354155 260.057284 
L 188.054112 287.275434 
L 191.801956 286.430635 
L 195.311998 284.708517 
L 198.975544 283.636783 
L 200.292965 275.743296 
L 203.672162 274.519382 
L 211.254158 283.37654 
L 214.867942 281.804208 
L 227.135557 297.797404 
L 231.194912 295.718597 
L 222.252235 270.946092 
L 225.469741 269.034103 
L 222.98137 258.469672 
L 225.806229 256.540926 
L 243.283422 274.031795 
L 246.58755 271.457014 
L 221.579203 235.878858 
L 223.694451 234.005368 
L 237.846542 244.490843 
L 240.224527 242.101615 
L 228.503884 226.940992 
L 230.334682 224.854194 
L 272.16253 254.645774 
L 274.842841 251.172555 
L 288.395031 255.293885 
L 291.087694 251.30996 
L 293.653763 247.243342 
L 296.090699 243.098051 
L 234.219102 205.11626 
L 235.360857 202.860555 
L 260.886047 211.531901 
L 262.216339 208.434556 
L 289.282249 214.976566 
L 290.706809 210.984679 
L 267.122224 199.372438 
L 268.067112 196.085026 
L 251.267867 188.588701 
L 251.88153 185.805117 
L 249.299853 182.470777 
L 249.722128 179.752096 
L 311.972196 183.66668 
L 312.401086 178.976852 
L 307.170138 174.03302 
L 307.298499 169.498943 
L 256.847379 165.914848 
L 256.745368 162.967042 
L 246.338143 160.860779 
L 246.082416 158.245905 
L 249.644516 155.072243 
L 249.205151 152.356272 
L 267.191797 145.757274 
L 266.450873 142.494183 
L 285.356423 133.780873 
L 284.229953 129.952568 
L 307.562997 117.650653 
L 305.918378 113.1321 
L 262.685229 126.007557 
L 261.325558 122.895928 
L 281.066323 109.349178 
L 279.173789 105.667843 
L 240.955035 122.87865 
L 239.507729 120.451813 
L 278.729972 91.08924 
L 276.26446 87.490393 
L 275.572591 82.543909 
L 272.839956 79.048562 
L 253.8693 89.524549 
L 251.366883 86.70815 
L 241.44662 91.131467 
L 239.00087 88.704869 
L 240.177123 82.260707 
L 237.453084 79.878412 
L 241.029863 69.560197 
L 237.906071 67.157369 
L 221.641507 83.609216 
L 218.969033 81.809054 
L 230.148568 57.185461 
L 226.641067 55.130883 
L 209.167253 79.717386 
L 206.378579 78.311366 
L 216.719374 47.483214 
L 212.913453 45.855676 
L 207.956638 47.302764 
L 204.149376 45.950836 
L 186.823739 89.228187 
L 184.345153 88.519993 
L 193.943646 36.484026 
L 189.803147 35.578045 
L 186.956084 27.03183 
L 182.521843 26.350227 
L 179.145855 15.618382 
L 174.356611 15.187993 
L 168.050825 50.34617 
L 164.358984 50.247462 
L 161.310291 81.786943 
L 158.61035 81.884628 
L 154.340166 63.215618 
L 151.059748 63.541641 
L 148.93971 71.768685 
L 145.930889 72.260281 
L 143.920835 77.472497 
L 141.093836 78.119077 
L 134.688374 65.947254 
L 131.503561 66.889821 
L 133.53151 82.820493 
L 130.877801 83.791092 
L 123.370247 73.217996 
L 120.419638 74.512835 
L 107.699322 56.130785 
L 104.219202 57.926801 
L 84.244734 31.161512 
L 79.991122 33.707337 
L 97.195099 68.55388 
L 94.110782 70.674029 
L 83.468511 62.845663 
L 80.211502 65.400229 
L 75.490977 66.266204 
L 72.345461 69.069909 
L 88.596622 91.676836 
L 86.243593 94.055908 
L 69.318415 83.326905 
L 66.712377 86.316254 
L 85.82828 106.51386 
L 83.943127 108.972639 
L 75.661806 106.993868 
L 73.796773 109.772066 
L 54.485165 102.000103 
L 52.473587 105.44661 
L 76.424254 122.451594 
L 75.044869 125.198176 
L 48.542976 116.78175 
L 46.999104 120.407783 
L 63.305303 130.662301 
L 62.190566 133.817312 
L 29.476231 127.461314 
L 28.277575 131.681567 
L 46.400644 140.421481 
L 45.601116 144.103186 
L 52.690679 149.115865 
L 52.161411 152.595498 
L 35.278325 154.375373 
L 34.923037 158.399889 
L 15.005524 161.628222 
L 14.888305 166.286573 
L 53.530848 170.09617 
L 53.660832 173.539014 
L 35.049963 178.580358 
L 35.455846 182.600087 
L 19.615849 189.042678 
L 20.358321 193.542516 
L 17.387985 198.841029 
L 18.43964 203.406071 
L 65.168292 195.157621 
L 66.080508 198.222167 
L 56.672444 204.899984 
L 57.895182 208.226842 
L 65.757584 208.755137 
L 67.097045 211.794431 
L 65.709467 216.196243 
L 67.282917 219.233371 
L 58.039167 228.54242 
L 60.0046 231.814615 
L 81.090373 222.342704 
L 82.849476 224.893184 
L 79.671681 231.208055 
L 81.710232 233.798759 
L 61.190055 255.935378 
L 64.015225 259.094958 
L 91.110882 238.406121 
L 93.3701 240.633592 
L 104.119251 233.400881 
L 106.214661 235.221815 
L 100.551995 246.874737 
L 103.072817 248.801171 
L 115.969431 235.740009 
L 118.13253 237.18719 
L 114.643223 248.016456 
L 117.192976 249.499267 
L 112.15075 265.58646 
L 115.254175 267.138952 
L 118.404878 268.593099 
L 121.599746 269.947461 
L 108.451018 315.564762 
L 113.127699 317.208872 
L 127.122343 287.745907 
L 130.915106 288.816704 
L 134.027042 292.838993 
L 137.976529 293.690173 
L 147.262094 262.539328 
L 150.25235 262.98935 
L 151.164392 283.731808 
L 154.819056 284.048654 
L 158.543829 282.675219 
L 162.161623 282.760563 
L 166.133499 297.704055 
L 170.22008 297.543331 
L 173.346464 286.260409 
L 177.069666 285.878553 
L 177.025342 260.437777 
L 179.934805 259.953016 
L 188.805776 287.115909 
L 192.548233 286.247555 
L 196.047375 284.503396 
L 199.704108 283.408642 
L 200.971857 275.507024 
L 204.34329 274.261881 
L 211.980842 283.071177 
L 215.584665 281.476148 
L 227.952626 297.391872 
L 231.998826 295.287574 
L 222.900521 270.571804 
L 226.105938 268.639616 
L 223.551172 258.091045 
L 226.363844 256.14457 
L 243.950699 273.525172 
L 247.238568 270.92966 
L 222.00695 235.509496 
L 224.110372 233.62274 
L 238.328131 244.018999 
L 240.691042 241.614862 
L 228.875279 226.528255 
L 230.692916 224.429984 
L 272.707309 253.957901 
L 275.365722 250.467893 
L 288.943565 254.503906 
L 291.611119 250.503124 
L 294.15156 246.420447 
L 296.562377 242.259912 
L 234.453119 204.668009 
L 235.580665 202.405167 
L 261.159888 210.915803 
L 262.470672 207.810153 
L 289.577193 214.181804 
L 290.976617 210.181036 
L 267.319465 198.717359 
L 268.243659 195.424069 
L 251.397598 188.03355 
L 251.993741 185.246161 
L 249.391145 181.928125 
L 249.796312 179.206842 
L 312.069769 182.729831 
L 312.469154 178.037398 
L 307.207216 173.126563 
L 307.307058 168.591768 
L 256.834394 165.325053 
L 256.713844 162.377947 
L 246.293578 160.337182 
L 246.021411 157.723968 
L 249.56348 154.527965 
L 249.107041 151.814811 
L 267.051827 145.102818 
L 266.290395 141.844451 
L 285.140769 133.012408 
L 283.990244 129.191264 
L 307.245454 116.74284 
L 305.572448 112.23472 
L 262.421134 125.381835 
L 261.04192 122.278819 
L 280.697093 108.608179 
L 278.781442 104.93882 
L 240.671691 122.389661 
L 239.209149 119.971974 
L 278.245943 90.363297 
L 275.757845 86.780028 
L 275.034879 81.837992 
L 272.280315 78.359901 
L 253.375922 88.954996 
L 250.85584 86.154391 
L 240.963594 90.640013 
L 238.50263 88.228846 
L 239.63833 81.777414 
L 236.899362 79.412298 
L 240.411174 69.071791 
L 237.272331 66.688658 
L 221.111562 83.242474 
L 218.427819 81.459156 
L 229.452264 56.765738 
L 225.931911 54.73326 
L 208.613078 79.429178 
L 205.815615 78.040725 
L 215.962315 47.148144 
L 212.146233 45.544576 
L 207.198617 47.022811 
L 203.382927 45.694854 
L 186.329823 89.080318 
L 183.846832 88.387728 
L 193.117858 36.29242 
L 188.971743 35.412499 
L 186.070986 26.884359 
L 181.632545 26.230659 
L 178.189127 15.520259 
L 173.397271 15.12 
L 167.312734 50.317141 
L 163.620346 50.241655 
L 160.770079 81.799687 
L 158.070805 81.914351 
L 153.683288 63.272567 
L 150.404985 63.619216 
L 148.336733 71.85943 
L 145.331064 72.36994 
L 143.353831 77.594696 
L 140.530954 78.259044 
L 134.049065 66.127747 
L 130.870243 67.090327 
L 132.998347 83.007929 
L 130.350795 83.995199 
L 122.776891 73.469531 
L 119.834484 74.782902 
L 106.998807 56.481219 
L 103.530052 58.299087 
L 83.38764 31.659956 
L 79.150124 34.232483 
L 96.572926 68.970133 
L 93.502004 71.10964 
L 82.810708 63.348362 
L 79.56983 65.923362 
L 74.854845 66.819009 
L 71.727025 69.642443 
L 88.12005 92.146712 
L 85.78203 94.540536 
L 68.789707 83.918195 
L 66.202522 86.923875 
L 85.445078 107.000854 
L 83.575428 109.47144 
L 75.281825 107.544794 
L 73.434302 110.334667 
L 54.074194 102.684317 
L 52.084333 106.143407 
L 76.141478 122.997418 
L 74.779394 125.752621 
L 48.225091 117.503043 
L 46.704055 121.138715 
L 63.074427 131.290474 
L 61.979556 134.452433 
L 29.225892 128.302316 
L 28.053803 132.530025 
L 46.231482 141.155782 
L 45.455126 144.842443 
L 52.576075 149.810432 
L 52.068703 153.293326 
L 35.197145 155.17935 
L 34.867176 159.206021 
L 14.970362 162.559561 
L 14.882443 167.218557 
L 53.548182 170.785039 
L 53.699817 174.226997 
L 35.121023 179.385293 
L 35.55218 183.40239 
L 19.753016 189.944478 
L 20.523775 194.439557 
L 17.586823 199.756647 
L 18.667169 204.314985 
L 65.343018 195.772801 
L 66.274491 198.831549 
L 56.908612 205.568406 
L 58.15225 208.887507 
L 66.017819 209.366341 
L 67.376369 212.397151 
L 66.016504 216.807603 
L 67.609024 219.834775 
L 58.424006 229.201778 
L 60.40998 232.461546 
L 81.435763 222.857206 
L 83.210872 225.396571 
L 80.072858 231.731304 
L 82.127662 234.309135 
L 61.747118 256.574376 
L 64.592103 259.716126 
L 91.557104 238.857282 
L 93.830286 241.070499 
L 104.533735 233.770325 
L 106.640557 235.578044 
L 101.051293 247.26635 
L 103.584181 249.176892 
L 116.398393 236.034875 
L 118.570551 237.468424 
L 115.149423 248.319421 
L 117.708451 249.786166 
L 112.767505 265.904754 
L 115.880632 267.437697 
L 119.040419 268.871998 
L 122.243742 270.20624 
L 109.382181 315.905337 
L 114.06911 317.52 
L 127.878171 287.9696 
L 131.677595 289.016521 
L 134.814767 293.019158 
L 138.769529 293.845481 
L 147.858989 262.636852 
L 150.852016 263.068058 
L 151.894499 283.804369 
L 155.551084 284.098224 
L 159.267144 282.701389 
L 162.885404 282.763977 
L 166.951187 297.682192 
L 171.036677 297.49577 
L 174.092036 286.193408 
L 177.812762 285.788142 
L 177.608431 260.348149 
L 180.514788 259.845098 
L 189.556423 286.951661 
L 193.293344 286.059786 
L 196.781447 284.293653 
L 200.431222 283.175922 
L 201.649249 275.266487 
L 205.012784 274.000165 
L 212.705591 282.761251 
L 216.299311 281.143587 
L 228.767128 296.981209 
L 232.800013 294.851504 
L 223.54644 270.193446 
L 226.739641 268.241136 
L 224.118581 257.708842 
L 226.918956 255.744715 
L 244.614777 273.014362 
L 247.886257 270.398223 
L 222.432364 235.137452 
L 224.523879 233.237504 
L 238.806743 243.544135 
L 241.154486 241.125184 
L 229.244071 226.11319 
L 231.048475 224.003529 
L 273.247751 253.266615 
L 275.884162 249.759957 
L 289.48712 253.710492 
L 292.129458 249.693013 
L 294.644171 245.594438 
L 297.028773 241.418823 
L 234.684312 204.218296 
L 235.797603 201.948407 
L 261.429847 210.297995 
L 262.721074 207.184162 
L 289.867132 213.385203 
L 291.241366 209.375713 
L 267.512582 198.061052 
L 268.416044 194.762015 
L 251.523834 187.477594 
L 252.102435 184.686511 
L 249.479021 181.384909 
L 249.867066 178.661131 
L 312.161449 181.792386 
L 312.531313 177.097534 
L 307.238593 172.219891 
L 256.864076 167.684558 
z
" clip-path="url(#pa897c677cd)" style="fill: #0000ff; opacity: 0.5; stroke: #000000; stroke-width: 1.5; stroke-linejoin: miter"/>
   </g>
  </g>
 </g>
 <defs>
  <clipPath id="pa897c677cd">
   <rect x="0" y="-0" width="327.413756" height="332.64"/>
  </clipPath>
 </defs>
</svg>
