<?xml version="1.0" encoding="utf-8" standalone="no"?>
<!DOCTYPE svg PUBLIC "-//W3C//DTD SVG 1.1//EN"
  "http://www.w3.org/Graphics/SVG/1.1/DTD/svg11.dtd">
<svg xmlns:xlink="http://www.w3.org/1999/xlink" width="334.8pt" height="322.812608pt" viewBox="0 0 334.8 322.812608" xmlns="http://www.w3.org/2000/svg" version="1.1">
 <metadata>
  <rdf:RDF xmlns:dc="http://purl.org/dc/elements/1.1/" xmlns:cc="http://creativecommons.org/ns#" xmlns:rdf="http://www.w3.org/1999/02/22-rdf-syntax-ns#">
   <cc:Work>
    <dc:type rdf:resource="http://purl.org/dc/dcmitype/StillImage"/>
    <dc:date>2023-12-09T18:06:27.347073</dc:date>
    <dc:format>image/svg+xml</dc:format>
    <dc:creator>
     <cc:Agent>
      <dc:title>Matplotlib v3.8.2, https://matplotlib.org/</dc:title>
     </cc:Agent>
    </dc:creator>
   </cc:Work>
  </rdf:RDF>
 </metadata>
 <defs>
  <style type="text/css">*{stroke-linejoin: round; stroke-linecap: butt}</style>
 </defs>
 <g id="figure_1">
  <g id="patch_1">
   <path d="M 0 322.812608 
L 334.8 322.812608 
L 334.8 0 
L 0 0 
L 0 322.812608 
z
" style="fill: none"/>
  </g>
  <g id="axes_1">
   <g id="patch_2">
    <path d="M 263.73995 151.234002 
L 263.692149 148.194197 
L 257.221712 145.555865 
L 256.998601 142.723816 
L 319.581818 131.946624 
L 318.89997 127.160566 
L 289.267638 127.897903 
L 288.473478 124.06699 
L 272.209136 124.2083 
L 271.3074 120.915568 
L 304.967702 106.377382 
L 303.489127 102.063466 
L 313.662733 93.126187 
L 311.763212 88.545431 
L 302.551767 87.403918 
L 300.477819 83.175345 
L 264.948477 97.355641 
L 263.206025 94.304477 
L 250.666917 98.109539 
L 248.95523 95.507046 
L 243.317677 95.756827 
L 241.53565 93.386574 
L 255.546352 77.929216 
L 253.197739 75.183281 
L 229.405215 92.600092 
L 227.530812 90.668837 
L 267.872474 43.704424 
L 264.441665 40.58785 
L 229.629974 75.465126 
L 227.216699 73.535277 
L 232.65211 60.775973 
L 229.775481 58.758363 
L 214.542475 76.248173 
L 212.16128 74.79232 
L 232.596925 31.72173 
L 228.806794 29.720221 
L 209.80871 60.122481 
L 206.922828 58.823441 
L 203.125008 59.827236 
L 200.233148 58.738493 
L 196.820619 59.249162 
L 193.9137 58.358928 
L 199.606905 23.776661 
L 195.583275 22.816358 
L 191.973681 19.647182 
L 187.823986 18.928927 
L 180.61008 42.718233 
L 177.191408 42.345867 
L 173.665588 43.663101 
L 170.280058 43.508618 
L 166.910034 55.347426 
L 163.895225 55.399575 
L 161.036701 57.918909 
L 158.105648 58.154457 
L 149.647397 15.250206 
L 145.380378 15.864955 
L 142.633411 24.395094 
L 138.657396 25.225857 
L 131.73235 14.6733 
L 127.45605 15.851624 
L 135.287748 54.070781 
L 132.248433 55.117835 
L 113.999375 17.975815 
L 109.835681 19.710069 
L 118.943806 49.51209 
L 115.769236 51.075288 
L 108.046901 44.413883 
L 104.717421 46.322224 
L 121.047744 79.07058 
L 118.801518 80.553011 
L 90.439715 46.260842 
L 87.177012 48.721878 
L 98.175559 68.34887 
L 95.603528 70.555754 
L 109.960378 90.711087 
L 108.085637 92.536374 
L 68.636326 59.248948 
L 65.792778 62.389109 
L 53.260058 57.559066 
L 50.370979 61.183527 
L 93.198954 97.853618 
L 91.557077 100.202389 
L 66.533489 87.800465 
L 64.588703 90.992627 
L 36.31864 79.806983 
L 34.13746 83.953119 
L 37.831258 90.84954 
L 35.996533 94.942655 
L 23.964904 95.035902 
L 22.268663 99.562937 
L 17.698174 103.170078 
L 16.260788 107.890131 
L 17.276889 113.237604 
L 16.156257 117.965925 
L 58.800506 130.913728 
L 58.215119 134.327716 
L 75.040355 139.891247 
L 74.729212 142.79018 
L 70.554181 145.460858 
L 70.420376 148.498092 
L 48.986036 151.605317 
L 49.056091 155.317663 
L 19.195299 161.013184 
L 19.575887 165.657564 
L 34.248053 168.453637 
L 34.855142 172.621047 
L 39.482545 176.011885 
L 40.324694 180.010975 
L 42.059049 183.781927 
L 43.144232 187.696163 
L 24.025943 198.256486 
L 25.575154 202.730567 
L 77.296715 187.14035 
L 78.470072 189.944976 
L 89.036663 188.291608 
L 90.240412 190.726536 
L 83.203721 197.733979 
L 84.707244 200.347639 
L 82.287148 205.475314 
L 84.034528 208.113965 
L 39.83118 244.407319 
L 42.82366 248.361629 
L 86.718697 218.219619 
L 88.864595 220.712631 
L 56.554642 255.820093 
L 59.897695 259.242938 
L 73.610091 251.542444 
L 76.810212 254.431144 
L 77.586249 260.280913 
L 81.059161 263.040273 
L 92.954119 254.114964 
L 96.225562 256.394174 
L 108.847442 243.810778 
L 111.787041 245.595361 
L 101.143166 272.343843 
L 104.983717 274.356558 
L 100.861493 293.490767 
L 105.367089 295.501882 
L 127.533457 252.348537 
L 130.732263 253.54137 
L 127.686416 274.256209 
L 131.573971 275.433401 
L 145.953465 234.992661 
L 148.597457 235.614909 
L 145.461138 267.316915 
L 149.121719 267.938662 
L 156.819851 235.405661 
L 159.471456 235.686042 
L 157.93756 307.874042 
L 162.867177 308.083449 
L 167.572918 259.79872 
L 170.986178 259.728941 
L 175.680476 278.527269 
L 179.678593 278.193311 
L 185.623644 292.662356 
L 190.061284 292.008774 
L 188.688489 261.664233 
L 192.149964 260.929611 
L 196.791946 264.685919 
L 200.344423 263.695013 
L 208.83739 277.641398 
L 212.79126 276.265352 
L 209.313138 256.382979 
L 212.598361 255.002484 
L 231.870403 287.137648 
L 236.111467 285.032698 
L 215.234124 237.787579 
L 217.93174 236.23011 
L 220.150906 233.921755 
L 222.724541 232.211603 
L 221.020221 224.673905 
L 223.302654 222.940992 
L 240.782167 239.37278 
L 243.516993 237.011241 
L 252.723698 241.461228 
L 255.518286 238.723188 
L 271.000059 247.762468 
L 273.983735 244.446664 
L 233.309377 205.417833 
L 234.98028 203.308043 
L 295.807502 243.665034 
L 298.65008 239.571255 
L 270.473137 216.034216 
L 272.459468 212.750666 
L 268.768547 206.384349 
L 270.452308 203.159167 
L 265.562889 196.883749 
L 266.949515 193.764058 
L 284.484697 196.924228 
L 285.86324 193.209573 
L 290.14477 190.414904 
L 291.315847 186.525503 
L 267.764643 176.443225 
L 268.507485 173.264411 
L 250.446645 166.614076 
L 250.889 163.984638 
L 259.903267 162.381793 
L 260.207874 159.457111 
L 297.605963 158.631448 
L 297.77401 154.523165 
L 263.738037 150.625944 
L 263.671119 147.586501 
L 257.184217 144.988916 
L 256.943298 142.158326 
L 319.457495 130.987735 
L 318.745559 126.20606 
L 289.11845 127.129752 
L 288.300211 123.30391 
L 272.03708 123.547511 
L 271.114653 120.260515 
L 304.682852 105.510913 
L 303.177173 101.206381 
L 313.294368 92.205293 
L 311.366074 87.636575 
L 302.147632 86.553019 
L 300.04713 82.337573 
L 264.607677 96.741049 
L 262.846069 93.700904 
L 250.33114 97.584755 
L 248.603119 94.993079 
L 242.967249 95.278312 
L 241.170349 92.919313 
L 255.083556 77.374142 
L 252.717719 74.643033 
L 229.035208 92.20914 
L 227.148695 90.289713 
L 267.19418 43.072502 
L 263.743837 39.977568 
L 229.152193 75.0731 
L 226.726828 73.158467 
L 232.081882 60.36523 
L 229.192621 58.365753 
L 214.069917 75.951023 
L 211.679613 74.510175 
L 231.843964 31.311908 
L 228.04132 29.334277 
L 209.234824 59.855423 
L 206.34083 58.574559 
L 202.549398 59.602221 
L 199.650747 58.531687 
L 196.241498 59.063809 
L 193.329037 58.191876 
L 198.804627 23.574485 
L 194.775037 22.639508 
L 191.145582 19.493097 
L 186.991451 18.800955 
L 179.927309 42.635162 
L 176.506362 42.284305 
L 172.988897 43.623688 
L 169.602462 43.490502 
L 166.306965 55.350271 
L 163.292543 55.421381 
L 160.449921 57.958643 
L 157.520408 58.212621 
L 148.792481 15.362416 
L 144.529413 16.003991 
L 141.83615 24.551237 
L 137.865438 25.406991 
L 130.87416 14.898197 
L 126.605355 16.103393 
L 134.677275 54.272537 
L 131.644605 55.338686 
L 113.162306 18.312177 
L 109.009602 20.072584 
L 118.304984 49.81673 
L 115.140309 51.399864 
L 107.37623 44.787159 
L 104.058818 46.716403 
L 120.594787 79.361403 
L 118.357929 80.857932 
L 89.781009 46.744821 
L 86.533849 49.22633 
L 97.655621 68.783759 
L 95.097521 71.006776 
L 109.580853 91.071413 
L 107.717629 92.908455 
L 68.059739 59.869802 
L 65.235997 63.027785 
L 52.673147 58.276661 
L 49.806921 61.91922 
L 92.864682 98.319223 
L 91.23761 100.678274 
L 66.136516 88.433979 
L 64.211846 91.63831 
L 35.87199 80.63069 
L 33.716931 84.790462 
L 37.45403 91.663515 
L 35.645085 95.768089 
L 23.61428 95.937006 
L 21.946545 100.474619 
L 17.398833 104.110435 
L 15.991162 108.839435 
L 17.040876 114.180411 
L 15.950004 118.915687 
L 58.674844 131.595026 
L 58.110941 135.012628 
L 74.970836 140.470228 
L 74.677931 143.37106 
L 70.51978 146.067944 
L 70.405081 149.10596 
L 48.990707 152.347933 
L 49.084109 156.059765 
L 19.25973 161.942981 
L 19.66952 166.584875 
L 34.358982 169.288614 
L 34.99227 173.452123 
L 39.640907 176.81379 
L 40.508192 180.807504 
L 42.26623 184.567473 
L 43.376009 188.474807 
L 24.324517 199.155165 
L 25.901836 203.619413 
L 77.524321 187.704205 
L 78.715294 190.501396 
L 89.271277 188.781603 
L 90.490317 191.208912 
L 83.497839 198.260473 
L 85.01777 200.864625 
L 82.629971 206.007419 
L 84.393913 208.635028 
L 40.419704 245.205678 
L 43.436995 249.141089 
L 87.141588 218.7236 
L 89.303123 221.203067 
L 57.214615 256.513045 
L 60.57913 259.914797 
L 74.242822 252.128212 
L 77.461049 254.996728 
L 78.273862 260.8415 
L 81.76406 263.578963 
L 93.602648 254.579019 
L 96.888361 256.837607 
L 109.430849 244.175076 
L 112.381614 245.941135 
L 101.906182 272.756032 
L 105.759316 274.744552 
L 101.757517 293.904309 
L 106.275672 295.887047 
L 128.170192 252.595142 
L 131.376437 253.767832 
L 128.460934 274.501418 
L 132.355817 275.654136 
L 146.480677 235.123758 
L 149.12853 235.729364 
L 146.191661 267.450469 
L 149.85608 268.04918 
L 157.349446 235.468406 
L 160.002762 235.732104 
L 158.922917 307.928324 
L 163.853754 308.106723 
L 168.255719 259.793352 
L 171.668472 259.702106 
L 176.480908 278.470539 
L 180.476846 278.111441 
L 186.512782 292.542809 
L 190.946222 291.861329 
L 189.382604 261.526023 
L 192.839391 260.769645 
L 197.504906 264.496683 
L 201.05108 263.483453 
L 209.631595 277.376147 
L 213.576732 275.97526 
L 209.973629 256.115156 
L 213.250105 254.714026 
L 232.723878 286.727344 
L 236.95162 284.595762 
L 215.777544 237.482884 
L 218.465311 235.908479 
L 220.669915 233.586213 
L 223.232743 231.859908 
L 221.481049 224.333078 
L 223.752538 222.585844 
L 241.335052 238.907371 
L 244.054971 236.528678 
L 253.289482 240.920673 
L 256.066793 238.165111 
L 271.605112 247.10684 
L 274.567875 243.772336 
L 233.648852 205.000096 
L 235.306453 202.879838 
L 296.386294 242.853462 
L 299.203068 238.741886 
L 270.878648 215.382529 
L 272.844288 212.086552 
L 269.1134 205.743574 
L 270.776843 202.507866 
L 265.848052 196.263324 
L 267.215029 193.134973 
L 284.76974 196.184794 
L 286.124893 192.461542 
L 290.388761 189.640001 
L 291.535353 185.743311 
L 267.921203 175.809356 
L 268.644038 172.625933 
L 250.541728 166.089322 
L 250.967537 163.457154 
L 259.971544 161.797646 
L 260.257751 158.871106 
L 297.649907 157.810247 
L 297.792112 153.700988 
L 263.732301 150.017911 
L 263.646267 146.978949 
L 257.143156 144.422214 
L 256.884439 141.593196 
L 319.327143 130.029647 
L 318.585147 125.252544 
L 288.964434 126.362556 
L 288.122149 122.541936 
L 271.860871 122.887817 
L 270.917789 119.606688 
L 304.392557 104.646253 
L 302.859836 100.351276 
L 312.920219 91.286734 
L 310.963228 86.730234 
L 301.738154 85.704679 
L 299.61118 81.502527 
L 264.263018 96.128612 
L 262.482324 93.099607 
L 249.99207 97.062093 
L 248.247783 94.481336 
L 242.613818 94.80201 
L 240.802117 92.45436 
L 254.617278 76.82199 
L 252.234311 74.105814 
L 228.662749 91.820524 
L 226.764202 89.912999 
L 266.511925 42.44486 
L 263.042185 39.371687 
L 228.671956 74.684087 
L 226.234597 72.784746 
L 231.509083 59.958081 
L 228.607303 57.976816 
L 213.5955 75.656851 
L 211.196181 74.231066 
L 231.088441 30.906831 
L 227.273434 28.953155 
L 208.659271 59.59198 
L 205.757277 58.329343 
L 201.972384 59.38083 
L 199.067057 58.328548 
L 195.661222 58.882102 
L 192.743335 58.028503 
L 198.001093 23.377359 
L 193.965702 22.467745 
L 190.31653 19.344223 
L 186.158128 18.678222 
L 179.24403 42.556387 
L 175.820944 42.227053 
L 172.311972 43.588532 
L 168.924766 43.476647 
L 165.703926 55.356908 
L 162.690011 55.446976 
L 159.863402 58.002066 
L 156.935545 58.274465 
L 147.938287 15.48 
L 143.679338 16.148375 
L 141.039886 24.712391 
L 137.074635 25.593102 
L 130.0174 15.128487 
L 125.75626 16.360507 
L 134.068083 54.478129 
L 131.042179 55.563331 
L 112.327369 18.653797 
L 108.185819 20.440288 
L 117.668091 50.125383 
L 114.513436 51.728389 
L 106.70792 45.164647 
L 103.402708 47.114717 
L 120.143668 79.65507 
L 117.916267 81.165638 
L 89.125359 47.232934 
L 85.893871 49.734816 
L 97.138429 69.221909 
L 94.594361 71.460971 
L 109.203601 91.43412 
L 107.351968 93.282843 
L 67.487068 60.494269 
L 64.683244 63.66995 
L 52.09076 58.997933 
L 49.247501 62.658447 
L 92.533346 98.786921 
L 90.921143 101.156159 
L 65.743536 89.069978 
L 63.839057 92.28635 
L 35.43053 81.45719 
L 33.301676 85.630434 
L 37.081929 92.479846 
L 35.298835 96.595716 
L 23.26933 96.840297 
L 21.630167 101.38831 
L 17.105413 105.052656 
L 15.727512 109.790415 
L 16.810797 115.124685 
L 15.749729 119.866727 
L 58.55347 132.277101 
L 58.011073 135.698182 
L 74.904959 141.049635 
L 74.630305 143.952252 
L 70.489198 146.675235 
L 70.393608 149.713912 
L 49.000048 153.090505 
L 49.116794 156.801676 
L 19.330006 162.872354 
L 19.768984 167.511579 
L 34.47516 170.122876 
L 35.134621 174.28232 
L 39.80431 177.614683 
L 40.696696 181.602863 
L 42.478347 185.351701 
L 43.612679 189.251978 
L 24.628737 200.051947 
L 26.234103 204.506186 
L 77.755469 188.266617 
L 78.964011 191.056263 
L 89.508969 189.270113 
L 90.743251 191.689706 
L 83.795261 198.785107 
L 85.331541 201.379647 
L 82.976135 206.537358 
L 84.756568 209.153821 
L 41.013238 246.00032 
L 44.05522 249.916677 
L 87.56764 219.224912 
L 89.744726 221.690735 
L 57.878933 257.201833 
L 61.264777 260.582357 
L 74.879225 252.709989 
L 78.11543 255.558208 
L 78.964987 261.397752 
L 82.472334 264.113209 
L 94.254082 255.038985 
L 97.553936 257.276863 
L 110.016536 244.535698 
L 112.97835 246.283163 
L 102.671776 273.163414 
L 106.537339 275.127661 
L 102.656124 294.312208 
L 107.18666 296.26649 
L 128.808465 252.837737 
L 132.022023 253.990239 
L 129.23698 274.741752 
L 133.139035 275.86995 
L 147.008703 235.251536 
L 149.660312 235.840477 
L 146.92301 267.579426 
L 150.591121 268.155078 
L 157.879425 235.527819 
L 160.534347 235.774824 
L 159.908597 307.976407 
L 164.840458 308.123791 
L 168.938472 259.78369 
L 172.350584 259.670981 
L 177.280967 278.408775 
L 181.274568 278.024552 
L 187.401149 292.417672 
L 191.830216 291.708322 
L 190.075837 261.38345 
L 193.527798 260.605346 
L 198.216662 264.302966 
L 201.756394 263.267453 
L 210.424115 277.105906 
L 214.360364 275.680234 
L 210.632424 255.843184 
L 213.900022 254.421475 
L 233.574755 286.311681 
L 237.789007 284.15355 
L 216.319037 237.174778 
L 218.996849 235.5835 
L 221.186803 233.247413 
L 223.738723 231.505023 
L 221.939725 223.98936 
L 224.200179 222.227874 
L 241.884999 238.438494 
L 244.589904 236.042741 
L 253.851855 240.376569 
L 256.61178 237.603594 
L 272.20603 246.447419 
L 275.147762 243.094347 
L 233.985693 204.580231 
L 235.629926 202.44959 
L 296.959971 242.038266 
L 299.75083 237.909055 
L 271.280053 214.728305 
L 273.224924 211.42003 
L 269.454216 205.100643 
L 271.097275 201.854536 
L 266.129307 195.641118 
L 267.476582 192.504231 
L 285.050127 195.443583 
L 286.381836 191.711881 
L 290.627874 188.863578 
L 291.749935 184.959754 
L 268.073773 175.174515 
L 268.776572 171.986609 
L 250.633508 165.563981 
L 251.042754 162.929187 
L 260.036146 161.213081 
L 260.30394 158.284799 
L 297.688685 156.988786 
L 297.805042 152.878713 
L 263.72274 149.409927 
L 263.617595 146.371565 
L 257.098532 143.855782 
L 256.822027 141.028447 
L 319.190768 129.072397 
L 318.418741 124.300055 
L 288.805596 125.596343 
L 287.939297 121.781096 
L 271.680517 122.229245 
L 270.716817 118.954112 
L 304.096831 103.783436 
L 302.537126 99.498184 
L 312.5403 90.370547 
L 310.55469 85.826445 
L 301.323348 84.858931 
L 299.169987 80.67024 
L 263.914513 95.518355 
L 262.114804 92.50061 
L 249.649719 96.541574 
L 247.889235 93.971839 
L 242.257398 94.327941 
L 240.430968 91.991731 
L 254.147537 76.272781 
L 251.747534 73.571646 
L 228.287854 91.434258 
L 226.377347 89.538712 
L 265.825736 41.82152 
L 262.336736 38.770231 
L 228.189282 74.298102 
L 225.740025 72.414128 
L 230.933735 59.554544 
L 228.019551 57.591568 
L 213.119242 75.365669 
L 210.711003 73.955002 
L 230.330384 30.506513 
L 226.503165 28.57687 
L 208.082072 59.332161 
L 205.172194 58.087802 
L 201.393989 59.163073 
L 198.482102 58.129084 
L 195.079816 58.704048 
L 192.156618 57.868818 
L 197.196335 23.185291 
L 193.155303 22.301075 
L 189.486558 19.200566 
L 185.32405 18.560732 
L 178.560268 42.481911 
L 175.135179 42.174112 
L 171.634839 43.557635 
L 168.246997 43.467055 
L 165.10094 55.367339 
L 162.087651 55.47636 
L 159.277169 58.049178 
L 156.351082 58.339986 
L 147.084849 15.602955 
L 142.830188 16.298103 
L 140.244651 24.878551 
L 136.285018 25.784183 
L 129.162106 15.364161 
L 124.908799 16.622957 
L 133.460196 54.687548 
L 130.441177 55.79176 
L 111.494597 19.000662 
L 107.364365 20.813165 
L 117.033152 50.438035 
L 113.888641 52.06085 
L 106.041998 45.54633 
L 102.749115 47.51715 
L 119.694405 79.951568 
L 117.476548 81.476115 
L 88.472793 47.725161 
L 85.257104 50.247318 
L 96.624002 69.663303 
L 94.094067 71.918321 
L 108.828638 91.799191 
L 106.988669 93.659524 
L 66.918336 61.122326 
L 64.134541 64.315579 
L 51.512922 59.722854 
L 48.692741 63.401178 
L 92.204957 99.256694 
L 90.607688 101.636025 
L 65.354563 89.708436 
L 63.470351 92.936723 
L 34.994277 82.28645 
L 32.891712 86.473001 
L 36.71497 93.298501 
L 34.957797 97.425505 
L 22.930069 97.74574 
L 21.319543 102.303972 
L 16.817924 105.996704 
L 15.469849 110.743036 
L 16.586662 116.070386 
L 15.555439 120.819009 
L 58.436388 132.959925 
L 57.915518 136.38435 
L 74.842728 141.629444 
L 74.586335 144.533731 
L 70.462436 147.282706 
L 70.38596 150.321923 
L 49.01406 153.833003 
L 49.154144 157.543367 
L 19.406127 163.801267 
L 19.874274 168.43764 
L 34.596582 170.956391 
L 35.282191 175.111605 
L 39.972746 178.414533 
L 40.890198 182.397021 
L 42.695392 186.134579 
L 43.854232 190.027645 
L 24.938592 200.946799 
L 26.57194 205.390853 
L 77.99015 188.827565 
L 79.216213 191.609554 
L 89.749728 189.757117 
L 90.999204 192.1689 
L 84.095978 199.307859 
L 85.648545 201.892686 
L 83.325625 207.065109 
L 85.122478 209.670322 
L 41.611757 246.791214 
L 44.678311 250.68836 
L 87.996836 219.723534 
L 90.189389 222.175616 
L 58.54757 257.88643 
L 61.954608 261.245591 
L 75.519275 253.287752 
L 78.773329 256.11556 
L 79.659597 261.949645 
L 83.183953 264.64299 
L 94.908397 255.494845 
L 98.22226 257.711925 
L 110.604479 244.892628 
L 113.577225 246.621431 
L 103.439916 273.565973 
L 107.317757 275.505869 
L 103.557279 294.714447 
L 108.100016 296.640196 
L 129.448252 253.076313 
L 132.668994 254.20858 
L 130.014522 274.977199 
L 133.923596 276.080833 
L 147.537522 235.37599 
L 150.192783 235.948243 
L 147.655155 267.70378 
L 151.326814 268.25635 
L 158.409767 235.583897 
L 161.06619 235.8142 
L 160.894559 308.01829 
L 165.82725 308.134652 
L 169.621151 259.769733 
L 173.032486 259.635567 
L 178.080622 278.341981 
L 182.071727 277.932648 
L 188.288712 292.286951 
L 192.71323 291.549758 
L 190.76816 261.23652 
L 194.215158 260.43672 
L 198.927185 264.104777 
L 202.460334 263.047022 
L 211.214921 276.830686 
L 215.142125 275.380285 
L 211.289494 255.567074 
L 214.548087 254.124842 
L 234.423002 285.890674 
L 238.623597 283.706081 
L 216.858582 236.863272 
L 219.526332 235.255183 
L 221.701551 232.905369 
L 224.242462 231.146964 
L 222.396229 223.642763 
L 224.64556 221.867095 
L 242.431986 237.966168 
L 245.121769 235.55345 
L 254.410794 239.82894 
L 257.153225 237.038661 
L 272.802789 245.784232 
L 275.723374 242.412724 
L 234.319887 204.158256 
L 235.950687 202.017316 
L 297.528509 241.219478 
L 300.293342 237.072796 
L 271.677335 214.071569 
L 273.60136 210.751127 
L 269.790981 204.455581 
L 271.413592 201.199205 
L 266.406643 195.017155 
L 267.734162 191.871856 
L 285.325846 194.700622 
L 286.634058 190.960619 
L 290.862099 188.085667 
L 291.959585 184.174863 
L 268.222347 174.538727 
L 268.905082 171.346464 
L 250.721983 165.038073 
L 251.114649 162.400757 
L 260.09707 160.628121 
L 260.346442 157.698213 
L 297.722296 156.167096 
L 297.8128 152.056374 
L 263.709356 148.802014 
L 263.585103 145.764374 
L 257.050346 143.289642 
L 256.756065 140.464101 
L 319.048375 128.116024 
L 318.246348 123.348632 
L 288.641941 124.831144 
L 287.751665 121.021421 
L 271.496024 121.57182 
L 270.511745 118.302813 
L 303.795683 102.922495 
L 302.209058 98.647137 
L 312.154626 89.456767 
L 310.140476 84.925244 
L 300.90323 84.015808 
L 298.723568 79.840744 
L 263.562178 94.910302 
L 261.743524 91.903935 
L 249.304101 96.023218 
L 247.52749 93.464606 
L 241.898004 93.856122 
L 240.056916 91.531446 
L 253.674351 75.726538 
L 251.257407 73.040551 
L 227.910536 91.050357 
L 225.988145 89.166865 
L 265.13564 41.202509 
L 261.627518 38.173224 
L 227.70419 73.91516 
L 225.243132 72.046628 
L 230.35586 59.154632 
L 227.429388 57.210024 
L 212.641163 75.077488 
L 210.224099 73.681996 
L 229.569826 30.110971 
L 225.730546 28.205437 
L 207.50325 59.075978 
L 204.585604 57.849945 
L 200.814236 58.948957 
L 197.895903 57.933304 
L 194.4973 58.529655 
L 191.568907 57.712827 
L 196.390385 22.998289 
L 192.343872 22.139506 
L 188.655699 19.062132 
L 184.489249 18.448491 
L 177.876052 42.411737 
L 174.449094 42.125486 
L 170.957526 43.530996 
L 167.56918 43.461726 
L 164.498032 55.381561 
L 161.485488 55.509532 
L 158.691243 58.099976 
L 155.767043 58.409181 
L 146.232202 15.731275 
L 141.981997 16.453169 
L 139.450477 25.049708 
L 135.496618 25.980226 
L 128.308312 15.60521 
L 124.063006 16.890732 
L 132.853638 54.900786 
L 129.841623 56.023964 
L 110.664024 19.352757 
L 106.545273 21.191201 
L 116.400192 50.754674 
L 113.26595 52.397234 
L 105.378489 45.932194 
L 102.098067 47.923686 
L 119.247016 80.250885 
L 117.038791 81.789352 
L 87.823335 48.221482 
L 84.623573 50.763814 
L 96.112362 70.107924 
L 93.596659 72.378809 
L 108.455979 92.166614 
L 106.627746 94.038483 
L 66.353565 61.753948 
L 63.589909 64.964646 
L 50.939654 60.451395 
L 48.142663 64.147384 
L 91.87953 99.728523 
L 90.297257 102.117853 
L 64.969614 90.349327 
L 63.105743 93.589401 
L 34.563248 83.118437 
L 32.487056 87.318129 
L 36.353166 94.119449 
L 34.621985 98.257422 
L 22.596508 98.653298 
L 21.014683 103.22157 
L 16.536379 106.942541 
L 15.218182 111.697258 
L 16.368479 117.017479 
L 15.367143 121.772493 
L 58.323603 133.643473 
L 57.824281 137.071106 
L 74.784145 142.209633 
L 74.546023 145.115476 
L 70.439495 147.890333 
L 70.382135 150.929971 
L 49.032741 154.575399 
L 49.196158 158.284808 
L 19.488088 164.729682 
L 19.985386 169.363019 
L 34.723245 171.789126 
L 35.434974 175.939946 
L 40.14621 179.213307 
L 41.088691 183.189946 
L 42.917356 186.916077 
L 44.100659 190.801777 
L 25.254068 201.839683 
L 26.915335 206.273377 
L 78.228354 189.387025 
L 79.47189 192.161248 
L 89.993546 190.242598 
L 91.258166 192.646475 
L 84.399976 199.82871 
L 85.96877 202.403721 
L 83.678427 207.590652 
L 85.49163 210.184512 
L 42.215239 247.578327 
L 45.306243 251.45611 
L 88.42916 220.219447 
L 90.637091 222.65769 
L 59.2205 258.566807 
L 62.648598 261.904474 
L 76.162946 253.861478 
L 79.434721 256.668764 
L 80.357664 262.49716 
L 83.89889 265.168285 
L 95.565566 255.94658 
L 98.893308 258.142774 
L 111.194655 245.245854 
L 114.178216 246.955926 
L 104.210573 273.963693 
L 108.100539 275.879161 
L 104.460946 295.11101 
L 109.015705 297.00815 
L 130.089526 253.31086 
L 133.317326 254.422848 
L 130.793529 275.207752 
L 134.709467 276.286778 
L 148.067114 235.497116 
L 150.725922 236.052658 
L 148.388067 267.823527 
L 152.06313 268.352993 
L 158.940451 235.636639 
L 161.59827 235.85023 
L 161.880766 308.053972 
L 166.81409 308.139307 
L 170.303729 259.751483 
L 173.714153 259.595864 
L 178.879842 278.270158 
L 182.868293 277.835732 
L 189.175435 292.150649 
L 193.595229 291.385644 
L 191.459544 261.085238 
L 194.901444 260.263775 
L 199.636448 263.902123 
L 203.162875 262.822167 
L 212.003979 276.550497 
L 215.921983 275.075426 
L 211.944815 255.286837 
L 215.194273 253.824139 
L 235.268584 285.464341 
L 239.455356 283.253371 
L 217.396157 236.548378 
L 220.05374 234.923543 
L 222.214137 232.560095 
L 224.743938 230.785743 
L 222.850545 223.293303 
L 225.088663 221.503523 
L 242.975991 237.49041 
L 245.650547 235.060823 
L 254.966279 239.277805 
L 257.691106 236.470333 
L 273.395365 245.117305 
L 276.294687 241.727495 
L 234.65142 203.734188 
L 236.268722 201.583033 
L 298.091886 240.39713 
L 300.830585 236.233141 
L 272.070478 213.412347 
L 273.973582 210.07987 
L 270.123683 203.808414 
L 271.725781 200.541897 
L 266.68005 194.39146 
L 267.98776 191.237874 
L 285.596888 193.955942 
L 286.881551 190.207785 
L 291.091426 187.306299 
L 292.164294 183.388669 
L 268.36692 173.902018 
L 269.029564 170.705524 
L 250.807148 164.511618 
L 251.183219 161.871885 
L 260.154313 160.04279 
L 260.385253 157.111371 
L 297.750738 155.345212 
L 263.73995 151.234002 
z
" clip-path="url(#p225ea267e2)" style="fill: #0000ff; opacity: 0.5; stroke: #000000; stroke-width: 1.5; stroke-linejoin: miter"/>
   </g>
  </g>
 </g>
 <defs>
  <clipPath id="p225ea267e2">
   <rect x="0" y="0" width="334.8" height="322.812608"/>
  </clipPath>
 </defs>
</svg>
