<?xml version="1.0" encoding="utf-8" standalone="no"?>
<!DOCTYPE svg PUBLIC "-//W3C//DTD SVG 1.1//EN"
  "http://www.w3.org/Graphics/SVG/1.1/DTD/svg11.dtd">
<svg xmlns:xlink="http://www.w3.org/1999/xlink" width="321.116312pt" height="332.64pt" viewBox="0 0 321.116312 332.64" xmlns="http://www.w3.org/2000/svg" version="1.1">
 <metadata>
  <rdf:RDF xmlns:dc="http://purl.org/dc/elements/1.1/" xmlns:cc="http://creativecommons.org/ns#" xmlns:rdf="http://www.w3.org/1999/02/22-rdf-syntax-ns#">
   <cc:Work>
    <dc:type rdf:resource="http://purl.org/dc/dcmitype/StillImage"/>
    <dc:date>2023-12-09T18:06:27.519326</dc:date>
    <dc:format>image/svg+xml</dc:format>
    <dc:creator>
     <cc:Agent>
      <dc:title>Matplotlib v3.8.2, https://matplotlib.org/</dc:title>
     </cc:Agent>
    </dc:creator>
   </cc:Work>
  </rdf:RDF>
 </metadata>
 <defs>
  <style type="text/css">*{stroke-linejoin: round; stroke-linecap: butt}</style>
 </defs>
 <g id="figure_1">
  <g id="patch_1">
   <path d="M 0 332.64 
L 321.116312 332.64 
L 321.116312 0 
L 0 0 
L 0 332.64 
z
" style="fill: none"/>
  </g>
  <g id="axes_1">
   <g id="patch_2">
    <path d="M 244.138906 161.620229 
L 244.096685 158.935277 
L 306.520116 152.313714 
L 306.154435 147.671962 
L 238.800799 151.496677 
L 238.442911 148.984572 
L 279.560312 138.549967 
L 278.775198 134.762695 
L 268.766238 133.34223 
L 267.822718 129.896922 
L 250.381228 131.814152 
L 249.398753 128.947665 
L 238.130421 130.154904 
L 237.101832 127.674429 
L 267.179304 110.536888 
L 265.519519 107.152752 
L 244.536903 114.399843 
L 243.009773 111.725724 
L 280.411863 84.311842 
L 277.920963 80.524612 
L 280.380328 73.130502 
L 277.537878 69.349792 
L 251.652808 84.652389 
L 249.186835 81.769238 
L 223.803945 100.433927 
L 221.847947 98.418602 
L 245.5491 69.032322 
L 242.595015 66.348808 
L 250.532539 50.469776 
L 246.992343 47.63875 
L 234.167138 57.605196 
L 230.859387 55.285206 
L 219.517158 65.646265 
L 216.469479 63.782927 
L 234.08231 24.235548 
L 229.725386 21.934725 
L 209.6584 53.106356 
L 206.221313 51.559199 
L 188.935975 85.101066 
L 186.515117 84.189648 
L 185.754879 78.137102 
L 183.116633 77.329149 
L 182.586388 68.254792 
L 179.638986 67.551348 
L 184.686305 24.604651 
L 180.365409 23.856764 
L 170.97577 63.669298 
L 167.889932 63.333185 
L 164.07488 74.823545 
L 161.343167 74.698896 
L 158.515267 15.12 
L 153.909092 15.199677 
L 153.193902 75.622531 
L 150.492691 75.839608 
L 143.918794 45.83542 
L 140.285597 46.358855 
L 131.633414 20.840464 
L 127.220395 21.762536 
L 129.902235 50.127299 
L 126.410914 51.089323 
L 119.54261 41.735925 
L 115.792568 43.027828 
L 114.40354 50.25977 
L 110.924048 51.709042 
L 95.767123 28.480314 
L 91.612051 30.526324 
L 107.223137 68.360209 
L 104.316312 70.026299 
L 98.936149 67.819554 
L 96.016421 69.746472 
L 75.145422 47.085483 
L 71.585533 49.770686 
L 59.098528 41.721369 
L 55.377913 44.913773 
L 99.607571 98.93756 
L 97.66593 100.827982 
L 70.600316 79.241835 
L 68.053741 82.054046 
L 87.976746 103.366923 
L 86.180125 105.620853 
L 94.614625 115.272391 
L 93.189056 117.311726 
L 83.877741 114.378001 
L 82.429359 116.755369 
L 75.556324 116.172279 
L 74.168472 118.810403 
L 59.378751 115.189555 
L 57.967998 118.336823 
L 82.908285 131.836608 
L 82.009319 134.235826 
L 53.592991 127.782797 
L 52.581059 131.105756 
L 17.502349 125.790377 
L 16.445614 130.24909 
L 75.587927 146.011672 
L 75.138275 148.634049 
L 29.673979 145.710418 
L 29.237557 149.77658 
L 14.852719 153.012381 
L 14.653214 157.540945 
L 53.767235 161.950359 
L 53.829519 165.250946 
L 66.503021 167.720754 
L 66.740442 170.618047 
L 42.984267 176.629092 
L 43.513414 180.261461 
L 41.849346 184.323488 
L 42.620983 187.987738 
L 54.121492 188.862233 
L 55.02977 192.138375 
L 20.317125 207.128378 
L 21.816443 211.458373 
L 44.545462 207.301199 
L 46.038236 210.869316 
L 46.227134 215.060943 
L 47.963059 218.572348 
L 74.473533 208.350332 
L 75.984496 210.976927 
L 36.003281 240.155305 
L 38.533283 243.975763 
L 50.03102 241.234548 
L 52.58802 244.613409 
L 79.920464 227.341081 
L 82.025845 229.787022 
L 66.568202 248.859489 
L 69.35677 251.714616 
L 76.505924 249.894952 
L 79.322136 252.437103 
L 97.622021 236.114476 
L 99.994505 237.999504 
L 88.230478 259.515117 
L 91.343373 261.683866 
L 93.688857 265.080074 
L 96.974027 267.074448 
L 83.841339 299.241144 
L 88.205477 301.528255 
L 112.801775 260.349697 
L 115.928762 261.745457 
L 126.799407 243.341536 
L 129.384699 244.305589 
L 131.282598 247.426298 
L 133.994108 248.247371 
L 121.606383 308.997058 
L 126.258596 310.091929 
L 130.369683 314.120804 
L 135.178665 314.937605 
L 146.161221 265.052964 
L 149.419595 265.397505 
L 149.862961 314.129577 
L 154.662581 314.333462 
L 159.48102 317.52 
L 164.382487 317.419796 
L 167.372956 289.026681 
L 171.374628 288.692425 
L 169.144734 240.850002 
L 171.63075 240.483858 
L 174.40517 241.577366 
L 176.911455 241.045462 
L 190.322648 282.115917 
L 194.095684 281.063489 
L 191.687829 261.29661 
L 194.805585 260.211552 
L 203.145573 272.113762 
L 206.597779 270.663099 
L 201.572231 251.426256 
L 204.374754 250.035291 
L 218.181052 268.408576 
L 221.509325 266.486997 
L 218.003235 253.913874 
L 220.875851 252.005053 
L 227.397966 255.057517 
L 230.301896 252.852739 
L 213.02981 226.520579 
L 215.04358 224.781676 
L 228.329246 234.911444 
L 230.599278 232.687345 
L 241.983081 238.922924 
L 244.372492 236.267535 
L 239.400132 227.586488 
L 241.434378 225.017918 
L 282.207273 250.256973 
L 284.933164 246.331244 
L 244.383436 215.282579 
L 246.028356 212.563406 
L 247.586966 209.793858 
L 249.057725 206.976673 
L 249.728375 203.785223 
L 251.00915 200.903678 
L 260.959916 201.392325 
L 262.1599 198.158819 
L 237.876136 186.809579 
L 238.62902 184.309087 
L 248.422604 184.069096 
L 249.084107 181.238356 
L 238.099838 176.256692 
L 238.520806 173.754385 
L 258.308826 173.574994 
L 258.635483 170.438598 
L 287.803649 168.933406 
L 287.969782 164.871923 
L 244.137217 161.083153 
L 244.07811 158.39852 
L 306.458661 151.384481 
L 306.063793 146.74512 
L 238.735544 150.993375 
L 238.361864 148.483571 
L 279.412823 137.790568 
L 278.603905 134.008309 
L 268.586209 132.650822 
L 267.621039 129.211516 
L 250.191952 131.238405 
L 249.191468 128.378154 
L 237.930952 129.656241 
L 236.886783 127.182284 
L 266.855874 109.855911 
L 265.174838 106.482282 
L 244.238216 113.861199 
L 242.694298 111.196737 
L 279.923231 83.548159 
L 277.40856 79.77667 
L 279.821372 72.367239 
L 276.9552 68.604481 
L 251.166887 84.069577 
L 248.682829 81.201993 
L 223.417831 100.025957 
L 221.449197 98.022975 
L 244.965058 68.488208 
L 241.994154 65.823327 
L 249.83165 49.894687 
L 246.273719 47.085983 
L 233.51145 57.132894 
L 230.189173 54.833754 
L 218.912334 65.265944 
L 215.852997 63.421811 
L 233.216748 23.764441 
L 228.845439 21.491065 
L 208.974902 52.78829 
L 205.528153 51.262781 
L 188.454115 84.912699 
L 186.027574 84.016525 
L 185.229283 77.968881 
L 182.586007 77.177536 
L 181.998701 68.106694 
L 179.046933 67.421801 
L 183.824041 24.444209 
L 179.498527 23.723512 
L 170.359473 63.594315 
L 167.271581 63.277616 
L 163.528873 74.791744 
L 160.79643 74.684278 
L 157.593868 15.124346 
L 152.988286 15.232992 
L 152.653135 75.659149 
L 149.953343 75.893211 
L 143.190867 45.930962 
L 139.561034 46.477238 
L 130.748525 21.013769 
L 126.341392 21.963578 
L 129.201578 50.310913 
L 125.716377 51.294877 
L 118.789381 41.984861 
L 115.047539 43.300323 
L 113.704023 50.540859 
L 110.233714 52.011986 
L 94.930994 28.879046 
L 90.788873 30.951149 
L 106.637603 68.686101 
L 103.741314 70.370441 
L 98.347378 68.197577 
L 95.439828 70.142821 
L 74.426717 47.613547 
L 70.883787 50.321086 
L 58.346403 42.350464 
L 54.64594 45.566205 
L 99.214503 99.310745 
L 97.28479 101.213341 
L 70.083946 79.797848 
L 67.555108 82.62602 
L 87.611766 103.813171 
L 85.829356 106.078357 
L 94.324392 115.676655 
L 92.911677 117.724916 
L 83.582095 114.849812 
L 82.148694 117.236243 
L 75.272127 116.696391 
L 73.900895 119.343192 
L 59.088693 115.815434 
L 57.697764 118.971514 
L 82.722463 132.314171 
L 81.838605 134.718995 
L 53.382253 128.444816 
L 52.39124 131.774074 
L 17.279793 126.679426 
L 16.251122 131.144697 
L 75.491403 146.534995 
L 75.058253 149.160149 
L 29.576468 146.52252 
L 29.165628 150.591346 
L 14.801427 153.917556 
L 14.630408 158.447285 
L 53.771388 162.610607 
L 53.854429 165.910737 
L 66.543215 168.300787 
L 66.798853 171.196529 
L 43.080954 177.356868 
L 43.632936 180.985838 
L 41.994449 185.05825 
L 42.789116 188.717575 
L 54.294898 189.51972 
L 55.223763 192.790086 
L 20.606083 207.998115 
L 22.132605 212.318594 
L 44.835028 208.018549 
L 46.350214 211.577207 
L 46.565471 215.767564 
L 48.323447 219.267981 
L 74.769106 208.879432 
L 76.296559 211.496471 
L 36.49965 240.925731 
L 39.05363 244.730201 
L 50.533899 241.916726 
L 53.1121 245.279439 
L 80.33537 227.835547 
L 82.456093 230.268198 
L 67.118711 249.437508 
L 69.925181 252.275039 
L 77.062748 250.410447 
L 79.894894 252.934835 
L 98.091757 236.497435 
L 100.476049 238.367504 
L 88.847576 259.956681 
L 91.974049 262.105808 
L 94.340848 265.487198 
L 97.638496 267.46087 
L 84.708378 299.709527 
L 89.086814 301.969145 
L 113.423636 260.636705 
L 116.55934 262.01277 
L 127.31402 243.540843 
L 129.905324 244.488618 
L 131.822813 247.597328 
L 134.539433 248.401331 
L 122.534034 309.227727 
L 127.193041 310.293318 
L 131.329386 314.296256 
L 136.14341 315.082795 
L 146.812003 265.130067 
L 150.07248 265.454108 
L 150.822334 314.182427 
L 155.623141 314.356122 
L 160.461527 317.512291 
L 165.362267 317.381262 
L 168.1741 288.9699 
L 172.173591 288.610482 
L 169.642839 240.78303 
L 172.126503 240.401258 
L 174.907745 241.477295 
L 177.410635 240.929638 
L 191.079873 281.914932 
L 194.846215 280.838795 
L 192.314085 261.087451 
L 195.424955 259.982805 
L 203.839636 271.832326 
L 207.28265 270.359979 
L 202.136213 251.155125 
L 204.929932 249.746561 
L 218.851514 268.032649 
L 222.167636 266.090175 
L 218.582537 253.539352 
L 221.443091 251.612501 
L 227.984276 254.623885 
L 230.874281 252.400886 
L 213.436923 226.177878 
L 215.439716 224.426345 
L 228.78883 234.472353 
L 231.044829 232.234021 
L 242.467625 238.397879 
L 244.840288 235.727514 
L 239.813427 227.077912 
L 241.831478 224.496599 
L 282.762306 249.478716 
L 285.463452 245.53592 
L 244.719247 214.742904 
L 246.347033 212.013439 
L 247.888193 209.234143 
L 249.341205 206.407764 
L 249.991769 203.212159 
L 251.254396 200.322616 
L 261.208038 200.748668 
L 262.387662 197.507679 
L 238.032998 186.311394 
L 238.77014 183.806217 
L 248.562021 183.504635 
L 249.205707 180.66979 
L 238.190324 175.75731 
L 238.595545 173.252404 
L 258.382045 172.948561 
L 258.68897 169.810173 
L 287.847092 168.12156 
L 287.987677 164.059112 
L 244.13215 160.546099 
L 244.05616 157.861891 
L 306.391362 150.455652 
L 305.967323 145.818866 
L 238.667125 150.490494 
L 238.277667 147.98309 
L 279.260562 137.032111 
L 278.427871 133.255014 
L 268.401835 131.96056 
L 267.415053 128.527392 
L 249.999059 130.663861 
L 248.980605 127.809958 
L 237.72835 129.158842 
L 236.668642 126.691502 
L 266.528167 109.176983 
L 264.825946 105.813993 
L 243.936148 113.324443 
L 242.375502 110.669745 
L 279.429805 82.787565 
L 276.891464 79.031966 
L 279.257627 71.607506 
L 276.367845 67.862849 
L 250.677309 83.489834 
L 248.175265 80.63793 
L 223.029159 99.620423 
L 221.047966 97.629862 
L 244.377605 67.947779 
L 241.389999 65.301636 
L 249.127158 49.324017 
L 245.551632 46.537746 
L 232.852805 56.664726 
L 229.516134 54.386527 
L 218.305131 64.889436 
L 215.234255 63.064581 
L 232.34824 23.298786 
L 227.96272 21.052948 
L 208.289417 52.474529 
L 204.833141 50.970728 
L 187.971081 84.727366 
L 185.538951 83.846472 
L 184.70264 77.803968 
L 182.054439 77.029263 
L 181.410094 67.962294 
L 178.454077 67.295981 
L 182.960786 24.289193 
L 178.630825 23.595716 
L 169.742716 63.523209 
L 166.652893 63.225938 
L 162.982676 74.763377 
L 160.249612 74.673099 
L 156.672514 15.134488 
L 152.067707 15.272097 
L 152.112609 75.699167 
L 149.414343 75.950205 
L 142.463555 46.031081 
L 138.837229 46.600176 
L 129.864744 21.192636 
L 125.463672 22.170145 
L 128.50209 50.49893 
L 125.023146 51.504794 
L 118.037733 42.238529 
L 114.304238 43.5775 
L 113.006288 50.826342 
L 109.5453 52.319267 
L 94.09739 29.283029 
L 89.968382 31.381143 
L 106.054131 69.015669 
L 103.168493 70.718191 
L 97.760997 68.579295 
L 94.865739 70.542787 
L 73.711347 48.14612 
L 70.185516 50.875888 
L 57.598249 42.984277 
L 53.918085 46.223229 
L 98.823789 99.686394 
L 96.90608 101.60109 
L 69.571083 80.357098 
L 67.060083 83.201119 
L 87.249599 104.261706 
L 85.481471 106.538057 
L 94.036707 116.082737 
L 92.636903 118.139842 
L 83.289423 115.323473 
L 81.871059 117.718872 
L 74.991233 117.222281 
L 73.636675 119.877654 
L 58.802578 116.443126 
L 57.431526 119.607891 
L 82.539648 132.792893 
L 81.670932 135.203229 
L 53.175682 129.108148 
L 52.205628 132.443573 
L 17.062833 127.569857 
L 16.062266 132.041509 
L 75.398172 147.058915 
L 74.981542 149.686741 
L 29.484067 147.33522 
L 29.098826 151.406549 
L 14.755828 154.823035 
L 14.613302 159.353751 
L 53.779693 163.270816 
L 53.883489 166.570359 
L 66.587055 168.880555 
L 66.860901 171.774633 
L 43.182216 178.084022 
L 43.757011 181.709448 
L 42.14417 185.792086 
L 42.961837 189.446339 
L 54.472436 190.176104 
L 55.421851 193.440563 
L 20.900506 208.866017 
L 22.454171 213.17681 
L 45.1291 208.734065 
L 46.666638 212.283123 
L 46.908246 216.472042 
L 48.688202 219.961334 
L 75.068 209.406662 
L 76.611883 212.014042 
L 37.000854 241.69302 
L 39.578712 245.481352 
L 51.041059 242.595729 
L 53.640359 245.942159 
L 80.753377 228.327393 
L 82.889358 230.746658 
L 67.672844 250.012052 
L 70.497105 252.831876 
L 77.622804 250.92243 
L 80.47077 253.428955 
L 98.563892 236.877433 
L 100.959898 238.732469 
L 89.467439 260.394355 
L 92.607367 262.523776 
L 94.995386 265.890213 
L 98.305383 267.843106 
L 85.578346 300.172448 
L 89.970907 302.404483 
L 114.04729 260.919796 
L 117.191586 262.276113 
L 127.829876 243.73691 
L 130.42709 244.668368 
L 132.364093 247.764957 
L 135.085715 248.551857 
L 123.463118 309.452558 
L 128.128735 310.488825 
L 132.290174 314.465669 
L 137.10905 315.221915 
L 147.463257 265.203075 
L 150.725707 265.506603 
L 151.782021 314.229243 
L 156.583825 314.37274 
L 161.441966 317.498416 
L 166.341784 317.336566 
L 168.97487 288.908081 
L 172.972022 288.523516 
L 170.140512 240.712927 
L 172.621726 240.315541 
L 175.409681 241.374064 
L 177.909077 240.810677 
L 191.835819 281.709188 
L 195.595318 280.609385 
L 192.939014 260.874357 
L 196.042875 259.750167 
L 204.531916 271.54653 
L 207.965602 270.052558 
L 202.698478 250.880452 
L 205.483284 249.454345 
L 219.519599 267.652512 
L 222.823438 265.68922 
L 219.159473 253.161194 
L 222.007851 251.216389 
L 228.567847 254.186574 
L 231.443813 251.945442 
L 213.841872 225.832624 
L 215.83361 224.068529 
L 229.245643 234.03038 
L 231.48752 231.777903 
L 242.948857 237.869796 
L 245.304678 235.184562 
L 240.223515 226.566747 
L 242.225291 223.972792 
L 283.312434 248.696984 
L 285.988728 244.737277 
L 245.051659 214.201128 
L 246.662245 211.461479 
L 248.185895 208.672545 
L 249.621101 205.837083 
L 250.251554 202.63745 
L 251.495982 199.740023 
L 261.452107 200.103463 
L 262.611323 196.855119 
L 238.186723 185.812233 
L 238.908094 183.30247 
L 248.697885 182.939307 
L 249.323729 180.10047 
L 238.277667 175.257368 
L 238.667125 172.749963 
L 258.451324 172.321681 
L 258.738503 169.181424 
L 287.885429 167.309456 
L 288.00046 163.246205 
L 244.123706 160.009088 
L 244.030835 157.32541 
L 306.318223 149.527265 
L 305.86503 144.893238 
L 238.595545 149.988053 
L 238.190324 147.483148 
L 279.103533 136.274626 
L 278.247103 132.502841 
L 268.213124 131.271471 
L 267.204769 127.844578 
L 249.802556 130.090541 
L 248.766173 127.2431 
L 237.522624 128.662727 
L 236.447419 126.202101 
L 266.196197 108.500129 
L 264.472858 105.147912 
L 243.63071 112.789598 
L 242.053399 110.144768 
L 278.931605 82.030089 
L 276.369694 78.290529 
L 278.689114 70.851334 
L 275.775838 67.124927 
L 250.184095 82.913181 
L 247.664163 80.07707 
L 222.637944 99.217343 
L 220.644271 97.239282 
L 243.786764 67.411055 
L 240.782575 64.783755 
L 248.419091 48.75779 
L 244.826111 45.994062 
L 232.191229 56.20071 
L 228.840295 53.943541 
L 217.695571 64.516753 
L 214.613278 62.711248 
L 231.476821 22.838603 
L 227.077262 20.620392 
L 207.601973 52.165085 
L 204.136307 50.683052 
L 187.48689 84.545076 
L 185.049268 83.679495 
L 184.17497 77.642371 
L 181.521949 76.884337 
L 180.82059 67.8216 
L 177.860441 67.173891 
L 182.096573 24.13961 
L 177.762335 23.473379 
L 169.125523 63.455984 
L 166.033892 63.178152 
L 162.436312 74.738446 
L 159.702734 74.66536 
L 155.751243 15.150424 
L 151.147392 15.316992 
L 151.572346 75.742584 
L 148.875711 76.010588 
L 141.736886 46.135772 
L 138.114212 46.727663 
L 128.982105 21.377057 
L 124.587268 22.382228 
L 127.803798 50.691342 
L 124.33125 51.719067 
L 117.287695 42.49692 
L 113.562695 43.859346 
L 112.310362 51.116208 
L 108.858832 52.630871 
L 93.266342 29.692248 
L 89.150612 31.816288 
L 105.472743 69.3489 
L 102.59787 71.069538 
L 97.177029 68.964694 
L 94.294177 70.946357 
L 72.999341 48.683181 
L 69.490748 51.435072 
L 56.854097 43.622783 
L 53.194377 46.884817 
L 98.435445 100.064493 
L 96.529817 101.991212 
L 69.061748 80.919563 
L 66.568685 83.779321 
L 86.89026 104.71251 
L 85.136484 106.999937 
L 93.751582 116.49062 
L 92.364743 118.556488 
L 82.999735 115.798966 
L 81.596465 118.203237 
L 74.713651 117.749927 
L 73.375821 120.413766 
L 58.520417 117.072605 
L 57.169296 120.24593 
L 82.359848 133.272756 
L 81.506309 135.688507 
L 52.973288 129.772766 
L 52.024231 133.114227 
L 16.851478 128.461634 
L 15.879055 132.939492 
L 75.308238 147.583411 
L 74.908144 150.213806 
L 29.396779 148.148484 
L 29.037152 152.222156 
L 14.715926 155.728784 
L 14.601898 160.260306 
L 53.79215 163.93096 
L 53.916696 167.229784 
L 66.634541 169.460037 
L 66.926584 172.352335 
L 43.28805 178.810525 
L 43.885636 182.432264 
L 42.298503 186.524965 
L 43.139137 190.174003 
L 54.654099 190.831359 
L 55.624027 194.089781 
L 21.200381 209.73205 
L 22.781129 214.032986 
L 45.427667 209.447717 
L 46.987495 212.987034 
L 47.255444 217.174351 
L 49.057312 220.652379 
L 75.370205 209.932001 
L 76.930456 212.52962 
L 37.506875 242.457142 
L 40.108508 246.229186 
L 51.552479 243.271528 
L 54.172775 246.601544 
L 81.17447 228.816601 
L 83.325625 231.222384 
L 68.230579 250.5831 
L 71.07252 253.385105 
L 78.186069 251.43088 
L 81.049743 253.919444 
L 99.038407 237.254453 
L 101.446034 239.094383 
L 90.090043 260.828122 
L 93.243302 262.937753 
L 95.652446 266.289104 
L 98.97466 268.22114 
L 86.451208 300.629889 
L 90.857721 302.834253 
L 114.672712 261.198959 
L 117.825476 262.535473 
L 128.346954 243.929728 
L 130.949975 244.844833 
L 132.906416 247.929178 
L 135.632934 248.698945 
L 124.393597 309.671541 
L 129.06564 310.678443 
L 133.252009 314.629035 
L 138.075546 315.354959 
L 148.114958 265.271986 
L 151.379252 265.554989 
L 152.741983 314.270022 
L 157.544595 314.383315 
L 162.422298 317.478374 
L 167.321002 317.285711 
L 169.775236 288.841227 
L 173.76989 288.43153 
L 170.637735 240.639695 
L 173.1164 240.226712 
L 175.910958 241.26768 
L 178.406761 240.688584 
L 192.590456 281.498695 
L 196.342964 280.375268 
L 193.56259 260.657337 
L 196.659319 259.513648 
L 205.222384 271.256386 
L 208.646606 269.740848 
L 203.259005 250.602248 
L 206.034786 249.158654 
L 220.18528 267.268181 
L 223.476706 265.284149 
L 219.734019 252.779414 
L 222.570109 250.816734 
L 229.148656 253.745601 
L 232.01047 251.486426 
L 214.244642 225.48483 
L 216.225245 223.708242 
L 229.699668 233.585543 
L 231.927333 231.31901 
L 243.426758 237.338697 
L 245.765644 234.638699 
L 240.630381 226.053013 
L 242.615802 223.446519 
L 283.857633 247.911807 
L 286.508971 243.935346 
L 245.380656 213.657272 
L 246.973979 210.907548 
L 248.480058 208.109086 
L 249.897403 205.264653 
L 250.507719 202.061118 
L 251.7339 199.155921 
L 261.692114 199.456737 
L 262.830877 196.201166 
L 238.337306 185.312115 
L 239.042878 182.797864 
L 248.830191 182.373137 
L 249.438168 179.53042 
L 238.361864 174.756887 
L 238.735544 172.247082 
L 258.516658 171.694377 
L 258.784081 168.552376 
L 287.918656 166.497127 
L 288.00813 162.433233 
L 244.111884 159.47214 
L 244.002136 156.789099 
L 306.239247 148.599356 
L 305.756917 143.968271 
L 238.520806 149.486073 
L 238.099838 146.983765 
L 278.941743 135.518145 
L 278.061608 131.751821 
L 268.020082 130.583582 
L 266.990194 127.163099 
L 249.602452 129.518468 
L 248.54818 126.677602 
L 237.313782 128.167916 
L 236.223122 125.714101 
L 265.859977 107.825377 
L 264.115588 104.484064 
L 243.321914 112.256685 
L 241.727999 109.621828 
L 278.428651 81.275761 
L 275.843271 77.552389 
L 278.115857 70.098753 
L 275.179201 66.390742 
L 249.687264 82.339641 
L 247.149544 79.519435 
L 222.244202 98.81673 
L 220.238127 96.851248 
L 243.19256 66.878058 
L 240.171906 64.269704 
L 247.707476 48.196027 
L 244.097186 45.454951 
L 231.526747 55.740864 
L 228.161683 53.504815 
L 217.083679 64.147912 
L 213.990092 62.361829 
L 230.602525 22.38391 
L 226.189102 20.193414 
L 206.912596 51.859971 
L 203.437677 50.399765 
L 187.001563 84.365834 
L 184.558545 83.515602 
L 183.646294 77.484096 
L 180.988558 76.742763 
L 180.230213 67.684616 
L 177.266049 67.055538 
L 181.231436 23.995465 
L 176.893094 23.356507 
L 168.507921 63.392641 
L 165.414603 63.13426 
L 161.889802 74.716952 
L 159.155818 74.66106 
L 154.83009 15.172154 
L 150.227378 15.367674 
L 151.032366 75.789399 
L 148.33747 76.074358 
L 141.010891 46.245032 
L 137.392011 46.859695 
L 128.100644 21.567027 
L 123.712216 22.599818 
L 127.10673 50.888143 
L 123.640714 51.937688 
L 116.539297 42.760023 
L 112.822939 44.14585 
L 111.616273 51.410445 
L 108.174338 52.946786 
L 92.437885 30.106684 
L 88.335596 32.256569 
L 104.893462 69.685782 
L 102.029468 71.424466 
L 96.595496 69.353758 
L 93.725165 71.353514 
L 72.290727 49.224711 
L 68.799511 51.998613 
L 56.113975 44.265957 
L 52.474844 47.550944 
L 98.049487 100.445028 
L 96.156015 102.383694 
L 68.555961 81.485219 
L 66.080933 84.360601 
L 86.533764 105.165565 
L 84.794409 107.463977 
L 93.469028 116.900288 
L 92.09521 118.974838 
L 82.713043 116.27627 
L 81.324922 118.689321 
L 74.439394 118.279308 
L 73.118344 120.951509 
L 58.24222 117.703845 
L 56.911084 120.885606 
L 82.183069 133.75374 
L 81.34474 136.174812 
L 52.775077 130.438644 
L 51.847055 133.786007 
L 16.645735 129.354724 
L 15.701495 133.838609 
L 75.221605 148.108463 
L 74.838062 150.741322 
L 29.314608 148.962282 
L 28.980609 153.038135 
L 14.681721 156.634766 
L 14.596196 161.166915 
L 53.808759 164.591012 
L 53.954051 167.888988 
L 66.685671 170.039208 
L 66.995899 172.929612 
L 43.39845 179.536347 
L 44.018803 183.154257 
L 42.457443 187.256858 
L 43.321011 190.900538 
L 54.839879 191.485458 
L 55.830281 194.737716 
L 21.505698 210.59618 
L 23.113464 214.887089 
L 45.730716 210.159476 
L 47.312774 213.688913 
L 47.607054 217.874462 
L 49.43076 221.341089 
L 75.675708 210.45543 
L 77.252266 213.043185 
L 38.017691 243.218066 
L 40.642997 246.973673 
L 52.06814 243.944097 
L 54.709327 247.257567 
L 81.598632 229.30315 
L 83.764875 231.695356 
L 68.791896 251.150629 
L 71.651403 253.934704 
L 78.75252 251.935778 
L 81.63179 254.406281 
L 99.515284 237.628482 
L 101.934435 239.453233 
L 90.715362 261.257965 
L 93.881827 263.347721 
L 96.312002 266.683854 
L 99.646301 268.594957 
L 87.32693 301.08183 
L 91.747219 303.258436 
L 115.299878 261.474183 
L 118.460986 262.790842 
L 128.865236 244.119291 
L 131.473961 245.018005 
L 133.449762 248.089985 
L 136.181067 248.842589 
L 125.325436 309.884668 
L 130.003718 310.862165 
L 134.214852 314.786349 
L 139.042859 315.481921 
L 148.767079 265.336797 
L 152.033089 265.599264 
L 153.702182 314.304762 
L 158.505412 314.387847 
L 163.402485 317.452167 
L 168.29988 317.228698 
L 170.575166 288.769341 
L 174.567164 288.334528 
L 171.134488 240.563338 
L 173.610506 240.134773 
L 176.411556 241.158144 
L 178.903667 240.563362 
L 193.343754 281.283459 
L 197.089122 280.136453 
L 194.184788 260.436399 
L 197.274263 259.273256 
L 205.911014 270.961905 
L 209.325636 269.42486 
L 203.817771 250.320524 
L 206.584418 248.859501 
L 220.848531 266.879671 
L 224.127413 264.874976 
L 220.306152 252.394029 
L 223.129842 250.41355 
L 229.72668 253.300983 
L 232.574228 251.023854 
L 214.645217 225.134509 
L 216.614606 223.3455 
L 230.150885 233.137859 
L 232.364251 230.85736 
L 243.901309 236.804603 
L 246.223167 234.089949 
L 241.034007 225.536729 
L 243.002996 222.9178 
L 284.397884 247.123216 
L 287.024159 243.130159 
L 245.706226 213.111357 
L 247.282224 210.351667 
L 248.770672 207.543788 
L 250.170098 204.690497 
L 250.760255 201.483186 
L 251.968139 198.570335 
L 261.928048 198.808513 
L 263.046312 195.545845 
L 238.48474 184.81106 
L 239.174485 182.292421 
L 248.958933 181.806146 
L 249.549019 178.959661 
L 238.442911 174.255886 
L 238.800799 171.743781 
L 258.578045 171.066674 
L 258.825702 167.923053 
L 287.946774 165.684606 
L 244.138906 161.620229 
z
" clip-path="url(#p2d33d31385)" style="fill: #0000ff; opacity: 0.5; stroke: #000000; stroke-width: 1.5; stroke-linejoin: miter"/>
   </g>
  </g>
 </g>
 <defs>
  <clipPath id="p2d33d31385">
   <rect x="0" y="-0" width="321.116312" height="332.64"/>
  </clipPath>
 </defs>
</svg>
