<?xml version="1.0" encoding="utf-8" standalone="no"?>
<!DOCTYPE svg PUBLIC "-//W3C//DTD SVG 1.1//EN"
  "http://www.w3.org/Graphics/SVG/1.1/DTD/svg11.dtd">
<svg xmlns:xlink="http://www.w3.org/1999/xlink" width="311.049698pt" height="332.64pt" viewBox="0 0 311.049698 332.64" xmlns="http://www.w3.org/2000/svg" version="1.1">
 <metadata>
  <rdf:RDF xmlns:dc="http://purl.org/dc/elements/1.1/" xmlns:cc="http://creativecommons.org/ns#" xmlns:rdf="http://www.w3.org/1999/02/22-rdf-syntax-ns#">
   <cc:Work>
    <dc:type rdf:resource="http://purl.org/dc/dcmitype/StillImage"/>
    <dc:date>2023-12-09T18:06:27.634687</dc:date>
    <dc:format>image/svg+xml</dc:format>
    <dc:creator>
     <cc:Agent>
      <dc:title>Matplotlib v3.8.2, https://matplotlib.org/</dc:title>
     </cc:Agent>
    </dc:creator>
   </cc:Work>
  </rdf:RDF>
 </metadata>
 <defs>
  <style type="text/css">*{stroke-linejoin: round; stroke-linecap: butt}</style>
 </defs>
 <g id="figure_1">
  <g id="patch_1">
   <path d="M 0 332.64 
L 311.049698 332.64 
L 311.049698 0 
L 0 0 
L 0 332.64 
z
" style="fill: none"/>
  </g>
  <g id="axes_1">
   <g id="patch_2">
    <path d="M 256.36814 166.411587 
L 256.325532 163.702014 
L 288.051804 158.989022 
L 287.760149 155.286916 
L 262.020251 154.799221 
L 261.60973 151.917675 
L 296.378338 142.315542 
L 295.558316 138.359874 
L 279.930921 138.205941 
L 278.989815 134.769448 
L 263.523962 136.053678 
L 262.523296 133.134121 
L 249.562773 134.951745 
L 248.534363 132.471702 
L 273.414657 117.78308 
L 271.834634 114.56157 
L 274.348323 109.082791 
L 272.494282 105.836227 
L 260.437004 109.068559 
L 258.589394 106.259404 
L 237.942323 117.122819 
L 236.359078 115.016964 
L 240.855032 107.871488 
L 238.979466 105.678625 
L 278.304828 64.733039 
L 275.054377 61.384001 
L 237.318346 94.811854 
L 235.033904 92.73665 
L 220.999559 104.885337 
L 219.039918 103.31825 
L 242.325665 66.930615 
L 239.1621 64.711754 
L 220.989759 86.188489 
L 218.442253 84.630955 
L 224.671155 67.062543 
L 221.520467 65.398714 
L 223.741808 52.276821 
L 220.126684 50.649523 
L 202.112508 85.506758 
L 199.5529 84.543102 
L 200.157304 73.790996 
L 197.230294 72.894609 
L 206.71375 23.384008 
L 202.198592 22.306395 
L 195.722163 31.563303 
L 191.469615 30.827245 
L 185.614238 42.893756 
L 181.722941 42.469912 
L 177.184539 52.522208 
L 173.60015 52.358651 
L 169.997335 42.732739 
L 166.108697 42.800004 
L 160.424937 15.12 
L 155.672827 15.501894 
L 156.914796 62.72952 
L 153.661369 63.198242 
L 142.879435 24.592477 
L 138.433836 25.521357 
L 146.010413 72.939401 
L 143.083398 73.745932 
L 142.911246 82.986596 
L 140.30167 83.885604 
L 120.010658 40.386926 
L 116.072977 42.027041 
L 105.023737 28.642802 
L 100.724205 30.759945 
L 113.471018 63.742201 
L 110.270912 65.57639 
L 123.431734 93.076611 
L 121.149041 94.583109 
L 120.326137 98.094148 
L 118.202742 99.695811 
L 96.240372 77.430641 
L 93.47918 79.799831 
L 80.937547 71.807602 
L 78.00712 74.660726 
L 90.908015 92.314942 
L 88.617454 94.844433 
L 75.934528 88.823833 
L 73.541602 91.82585 
L 104.873484 119.205662 
L 103.421521 121.282753 
L 68.294882 102.113818 
L 66.3236 105.349471 
L 89.663797 122.417551 
L 88.320343 124.97128 
L 34.285859 102.907476 
L 32.356347 107.212055 
L 47.645364 118.283884 
L 46.192714 122.160808 
L 68.409365 133.65866 
L 67.429865 136.875117 
L 29.42727 130.703179 
L 28.374118 135.146779 
L 86.278758 150.661251 
L 85.825022 153.307449 
L 14.972458 147.278721 
L 14.447624 152.168617 
L 72.221673 160.550895 
L 72.085839 163.634188 
L 25.767362 166.865766 
L 25.85305 171.406562 
L 91.369023 171.624583 
L 91.571904 174.100367 
L 37.252426 183.647641 
L 37.860094 187.819024 
L 26.065935 194.403301 
L 27.017316 198.921094 
L 86.023942 188.327194 
L 86.754632 190.96278 
L 30.716469 212.263884 
L 32.227127 216.626623 
L 91.661017 197.824526 
L 92.687536 200.278174 
L 85.862279 206.463939 
L 87.163308 209.095641 
L 92.035558 209.750368 
L 93.436867 212.186344 
L 59.963701 236.939593 
L 62.235756 240.370536 
L 47.876708 255.985877 
L 50.753596 259.787444 
L 77.037234 244.079658 
L 79.525346 246.97024 
L 58.921881 271.720523 
L 62.28804 275.167026 
L 86.429516 256.320635 
L 89.297868 258.909852 
L 80.098847 276.212174 
L 83.595763 278.990605 
L 110.496707 249.285205 
L 113.13195 251.121175 
L 120.495883 245.443069 
L 123.005377 246.966542 
L 126.324442 247.00867 
L 128.88028 248.348106 
L 107.911418 300.246913 
L 112.150287 302.138973 
L 133.586929 260.050177 
L 136.54923 261.154816 
L 129.32913 294.08383 
L 133.363628 295.305517 
L 142.50412 276.282532 
L 145.972393 277.09877 
L 148.588819 282.512342 
L 152.249962 283.134183 
L 152.459479 312.155769 
L 157.050763 312.641252 
L 163.696441 277.932657 
L 167.206119 278.081746 
L 170.677347 269.343288 
L 173.913505 269.277129 
L 179.140593 298.56517 
L 183.291366 298.21846 
L 190.025178 317.52 
L 194.766551 316.821683 
L 185.527835 244.716846 
L 187.982341 244.195932 
L 206.803492 306.119174 
L 211.178102 304.898947 
L 218.266461 311.875655 
L 222.8164 310.292161 
L 209.166008 263.402624 
L 212.196349 262.129235 
L 236.136255 304.694981 
L 240.451583 302.553172 
L 230.339578 274.479808 
L 233.707741 272.535198 
L 251.239565 292.643351 
L 255.168496 290.032619 
L 259.485852 287.942666 
L 263.262906 285.074977 
L 266.947926 282.089947 
L 270.537268 278.990528 
L 270.731016 272.307778 
L 274.010915 269.094247 
L 272.510715 261.435239 
L 275.447878 258.171126 
L 237.515905 221.475079 
L 239.213935 219.331037 
L 273.252844 240.402132 
L 275.528313 237.125084 
L 237.130632 208.356781 
L 238.416384 206.231339 
L 255.767864 212.814636 
L 257.184566 210.100995 
L 269.374685 212.376842 
L 270.770895 209.235589 
L 294.376225 214.732368 
L 295.834136 210.803847 
L 261.432044 195.455784 
L 262.300145 192.572631 
L 281.654237 194.314012 
L 282.47644 190.795593 
L 269.847827 184.79261 
L 270.376494 181.650119 
L 262.09147 177.446175 
L 262.392983 174.551192 
L 279.332995 172.596161 
L 279.473489 169.161465 
L 256.366435 165.869587 
L 256.306786 163.160336 
L 288.002789 158.247896 
L 287.687856 154.547697 
L 261.945399 154.221902 
L 261.516763 151.342995 
L 296.224292 141.522376 
L 295.379407 137.571945 
L 279.751353 137.516302 
L 278.788652 134.085796 
L 263.331182 135.467272 
L 262.312174 132.554066 
L 249.363338 134.453169 
L 248.319351 131.979643 
L 273.106769 117.134828 
L 271.506516 113.92332 
L 273.985697 108.42884 
L 272.111274 105.194 
L 260.074564 108.502102 
L 258.209322 105.704623 
L 237.630985 116.697682 
L 236.034527 114.601826 
L 240.485451 107.428214 
L 238.596129 105.247191 
L 277.663189 64.05508 
L 274.391739 60.726552 
L 236.866696 94.391083 
L 234.569248 92.330287 
L 220.611589 104.567002 
L 218.642131 103.012271 
L 241.69856 66.478901 
L 238.521102 64.279982 
L 220.484196 85.870586 
L 217.926945 84.329104 
L 224.045228 66.721864 
L 220.884138 65.077883 
L 223.022906 51.942279 
L 219.397619 50.33775 
L 201.603031 85.307595 
L 199.037413 84.360057 
L 199.57418 73.604362 
L 196.64159 72.726402 
L 205.813465 23.157135 
L 201.291619 22.107941 
L 194.873539 31.405398 
L 190.616445 30.696101 
L 184.837076 42.799201 
L 180.94319 42.399839 
L 176.468101 52.48048 
L 172.882754 52.33947 
L 169.219469 42.736409 
L 165.331331 42.828129 
L 159.473592 15.18442 
L 154.723978 15.596195 
L 156.262957 62.815076 
L 153.012542 63.30425 
L 141.988013 24.767061 
L 137.548344 25.723883 
L 145.423004 73.093337 
L 142.50112 73.918262 
L 142.38709 83.159825 
L 139.783219 84.075228 
L 119.219027 40.70503 
L 115.291739 42.369878 
L 104.158538 29.055397 
L 99.872408 31.19954 
L 112.826407 64.100973 
L 109.6379 65.955252 
L 122.971424 93.372156 
L 120.698251 94.892981 
L 119.897446 98.409126 
L 117.784166 100.024113 
L 95.682195 77.897514 
L 92.935958 80.284023 
L 80.344307 72.370831 
L 77.431882 75.24233 
L 90.443557 92.815057 
L 88.16895 95.358905 
L 75.448409 89.418192 
L 73.074412 92.4352 
L 104.577877 119.617411 
L 103.139007 121.703593 
L 67.892501 102.755963 
L 65.941609 106.00395 
L 89.388692 122.924897 
L 88.061326 125.487025 
L 33.889143 103.763504 
L 31.986741 108.080133 
L 47.345092 119.055584 
L 45.916855 122.941568 
L 68.205381 134.299462 
L 67.24613 137.522015 
L 29.205469 131.589214 
L 28.180285 136.03935 
L 86.181357 151.189328 
L 85.744273 153.838327 
L 14.855193 148.255341 
L 14.361124 153.148442 
L 72.18675 161.167187 
L 72.070311 164.251274 
L 25.773075 167.774104 
L 25.88732 172.314272 
L 91.403369 172.120231 
L 91.621817 174.594689 
L 37.363461 184.483413 
L 37.997352 188.650892 
L 26.244838 195.309217 
L 27.224614 199.820937 
L 86.163443 188.856128 
L 86.910695 191.487067 
L 31.007613 213.140197 
L 32.54568 217.493349 
L 91.860139 198.317819 
L 92.902071 200.764962 
L 86.115854 206.993532 
L 87.433408 209.616999 
L 92.30968 210.241069 
L 93.726282 212.668183 
L 60.409462 237.631471 
L 62.703051 241.048055 
L 48.442499 256.753398 
L 51.34324 260.536796 
L 77.527565 244.664011 
L 80.033808 247.538887 
L 59.586415 272.418265 
L 62.974184 275.843528 
L 86.99665 256.845674 
L 89.88123 259.416799 
L 80.791213 276.776636 
L 84.305534 279.533019 
L 111.019115 249.659015 
L 113.665854 251.478374 
L 120.993929 245.754065 
L 123.512955 247.261725 
L 126.83222 247.282976 
L 129.396431 248.606312 
L 108.754398 300.635974 
L 113.005083 302.501336 
L 134.176586 260.278548 
L 137.145776 261.364535 
L 130.132924 294.338308 
L 134.175026 295.534596 
L 143.195694 276.454498 
L 146.669032 277.248907 
L 149.319454 282.645916 
L 152.984436 283.244719 
L 153.376478 312.264413 
L 157.970725 312.72101 
L 164.397974 277.971303 
L 167.90852 278.098315 
L 171.32472 269.338198 
L 174.560398 269.251687 
L 179.971587 298.506273 
L 184.120098 298.133464 
L 190.975172 317.392271 
L 195.712059 316.664147 
L 186.020028 244.618843 
L 188.471209 244.082501 
L 207.681449 305.886144 
L 212.048299 304.638428 
L 219.180396 311.570416 
L 223.720287 309.958336 
L 209.775256 263.15558 
L 212.797528 261.863157 
L 237.004675 304.277493 
L 241.306447 302.108585 
L 231.018077 274.099375 
L 234.373942 272.13362 
L 252.031888 292.13111 
L 255.944321 289.495719 
L 260.248448 287.378653 
L 264.007391 284.487265 
L 267.673564 281.479118 
L 271.243341 278.357185 
L 271.395054 271.673349 
L 274.654677 268.439253 
L 273.106337 260.789832 
L 276.022912 257.50731 
L 237.860892 221.05056 
L 239.545403 218.89588 
L 273.716164 239.752473 
L 275.970977 236.461179 
L 237.39312 207.934944 
L 238.665479 205.801457 
L 256.05802 212.275494 
L 257.457628 209.552995 
L 269.661819 211.752129 
L 271.038244 208.602156 
L 294.677679 213.950363 
L 296.110853 210.01275 
L 261.612911 194.88136 
L 262.462862 191.992804 
L 281.827523 193.612425 
L 282.627581 190.088904 
L 269.961463 184.165467 
L 270.470355 181.019712 
L 262.159053 176.86796 
L 262.442353 173.971138 
L 279.369734 171.909602 
L 279.488623 168.474091 
L 256.361322 165.327608 
L 256.284635 162.618785 
L 287.949114 157.507094 
L 287.610915 153.808948 
L 261.866918 153.645065 
L 261.420184 150.76891 
L 296.06526 140.730196 
L 295.195546 136.785156 
L 279.567451 136.827806 
L 278.583193 133.403423 
L 263.134717 134.88209 
L 262.097407 131.975351 
L 249.160772 133.955857 
L 248.101248 131.488946 
L 272.794811 116.488526 
L 271.174391 113.287146 
L 273.618966 107.777182 
L 271.724234 104.554195 
L 259.708568 107.937935 
L 257.825769 105.152243 
L 237.316978 116.274511 
L 235.70737 114.188737 
L 240.113089 106.987273 
L 238.210087 104.818176 
L 277.017299 63.381171 
L 273.724979 60.073284 
L 236.412409 93.97316 
L 234.102045 91.926855 
L 220.221624 104.251113 
L 218.242427 102.7088 
L 241.068625 66.031141 
L 237.877401 63.852249 
L 219.976644 85.555868 
L 217.409748 84.030501 
L 223.417171 66.385128 
L 220.245804 64.761062 
L 222.301914 51.612265 
L 218.666607 50.030569 
L 201.092311 85.11164 
L 198.520785 84.180257 
L 198.989894 73.421399 
L 196.05184 72.561901 
L 204.911771 22.935928 
L 200.383415 21.915195 
L 194.023939 31.252834 
L 189.762468 30.570326 
L 184.059334 42.709535 
L 180.163014 42.334671 
L 175.751415 52.443259 
L 172.165252 52.324802 
L 168.441641 42.74497 
L 164.554157 42.861143 
L 158.522671 15.254823 
L 153.775741 15.696462 
L 155.611669 62.904729 
L 152.364395 63.414337 
L 141.097707 24.947248 
L 136.664144 25.931974 
L 144.836575 73.250964 
L 141.919937 74.09425 
L 141.864033 83.336347 
L 139.265972 84.268109 
L 118.429412 41.028106 
L 114.512673 42.717622 
L 103.295952 29.473425 
L 99.023391 31.644483 
L 112.184066 64.463793 
L 109.007285 66.338089 
L 122.512981 93.67059 
L 120.249418 95.205682 
L 119.470743 98.726794 
L 117.367663 100.35504 
L 95.126965 78.367888 
L 92.395792 80.771622 
L 79.754621 72.937781 
L 76.860314 75.82754 
L 89.982254 93.318084 
L 87.723692 95.876188 
L 74.966038 90.015597 
L 72.611063 93.047476 
L 104.284866 120.031011 
L 102.859145 122.126201 
L 67.494167 103.400627 
L 65.563741 106.66082 
L 89.116783 123.433963 
L 87.805558 126.004388 
L 33.497817 104.622009 
L 31.622603 108.950518 
L 47.049679 119.829156 
L 45.645911 123.724046 
L 68.005431 134.941533 
L 67.066467 138.170057 
L 28.989244 132.476627 
L 27.992069 136.933123 
L 86.087279 151.718007 
L 85.666864 154.369703 
L 14.744073 149.23268 
L 14.280788 154.128791 
L 72.155704 161.783687 
L 72.058664 164.868445 
L 25.784501 168.682389 
L 25.927299 173.221749 
L 91.440832 172.615653 
L 91.674838 175.088688 
L 37.479749 185.318471 
L 38.13984 189.48188 
L 26.429435 196.21399 
L 27.437568 200.719459 
L 86.306269 189.384175 
L 87.070053 192.010362 
L 31.304262 214.014663 
L 32.869677 218.358055 
L 92.062361 198.809849 
L 93.119663 201.250392 
L 86.372754 207.52152 
L 87.706783 210.136648 
L 92.586883 210.730037 
L 94.018722 213.148193 
L 60.859566 238.320531 
L 63.174598 241.722622 
L 49.013106 257.517346 
L 51.937585 261.282424 
L 78.021561 245.245269 
L 80.545836 248.104325 
L 60.255325 273.111814 
L 63.66457 276.515702 
L 87.567074 257.367136 
L 90.467768 259.920068 
L 81.487115 277.336732 
L 85.018702 280.070957 
L 111.543865 250.029531 
L 114.201993 251.832207 
L 121.493921 246.061922 
L 124.02238 247.553709 
L 127.341712 247.554084 
L 129.914197 248.861266 
L 109.599809 301.019726 
L 113.862142 302.858317 
L 134.767669 260.503207 
L 137.74363 261.570498 
L 130.938303 294.587725 
L 134.987849 295.758567 
L 143.888336 276.622112 
L 147.366601 277.39466 
L 150.050915 282.774892 
L 153.71959 283.350632 
L 154.294143 312.367287 
L 158.89117 312.79498 
L 165.099736 278.005536 
L 168.611012 278.110467 
L 171.972047 269.329037 
L 175.207117 269.222177 
L 180.802194 298.442151 
L 184.948278 298.043258 
L 191.924344 317.258569 
L 196.656558 316.500667 
L 186.511594 244.517745 
L 188.959354 243.965997 
L 208.557923 305.647597 
L 212.916839 304.37244 
L 220.092394 311.259434 
L 224.622056 309.618833 
L 210.382938 262.904709 
L 213.397021 261.593303 
L 237.870452 303.854551 
L 242.158497 301.65863 
L 231.694169 273.714683 
L 235.037605 271.72786 
L 252.820974 291.613896 
L 256.716755 288.95395 
L 261.007481 286.809855 
L 264.748164 283.894883 
L 268.395345 280.863737 
L 271.945417 277.719414 
L 272.055089 271.034756 
L 275.294307 267.780223 
L 273.697887 260.140691 
L 276.593759 256.839891 
L 238.203201 220.623879 
L 239.874128 218.458647 
L 274.175389 239.099913 
L 276.409457 235.794502 
L 237.652949 207.511465 
L 238.911864 205.370018 
L 256.34478 211.734537 
L 257.727237 209.003289 
L 269.945018 211.125622 
L 271.301604 207.967055 
L 294.974208 213.166477 
L 296.382589 209.219928 
L 261.790161 194.30581 
L 262.621928 191.411966 
L 281.996393 192.909761 
L 282.774274 189.381279 
L 270.071151 183.537621 
L 270.560248 180.388728 
L 262.222999 176.289331 
L 262.488074 173.390785 
L 279.402154 171.222826 
L 279.499433 167.786635 
L 256.3528 164.785672 
L 256.259077 162.077385 
L 287.890781 156.766643 
L 287.529329 153.070698 
L 261.784811 153.068733 
L 261.319996 150.195445 
L 295.901249 139.939031 
L 295.00674 135.999539 
L 279.379222 136.14048 
L 278.373447 132.722355 
L 262.934576 134.298156 
L 261.879005 131.397998 
L 248.955082 133.459829 
L 247.880064 130.999631 
L 272.478794 115.844199 
L 270.838271 112.653074 
L 273.248143 107.127843 
L 271.333178 103.916837 
L 259.339032 107.376082 
L 257.438749 104.602287 
L 237.000317 115.853323 
L 235.377622 113.777714 
L 239.73796 106.548683 
L 237.821354 104.391598 
L 276.367183 62.711337 
L 273.054124 59.424222 
L 235.955503 93.558103 
L 233.632314 91.526369 
L 219.829681 103.937683 
L 217.840822 102.407848 
L 240.435887 65.587351 
L 237.231022 63.428574 
L 219.467123 85.244349 
L 216.890684 83.735156 
L 222.787008 66.052349 
L 219.60549 64.448261 
L 221.57886 51.286793 
L 217.933677 49.727992 
L 200.58037 84.918901 
L 198.003036 84.00371 
L 198.404469 73.242114 
L 195.461067 72.401112 
L 204.008704 22.720397 
L 199.474018 21.728164 
L 193.173395 31.105617 
L 188.907716 30.449924 
L 183.281044 42.624763 
L 179.382443 42.274412 
L 175.034509 52.410546 
L 171.447672 52.314646 
L 167.663883 42.758424 
L 163.777206 42.899045 
L 157.572211 15.331205 
L 152.828153 15.802691 
L 154.960958 62.998477 
L 151.716954 63.528499 
L 140.208552 25.133032 
L 135.78127 26.145623 
L 144.251149 73.412277 
L 141.339872 74.27389 
L 141.342097 83.516156 
L 138.749947 84.46424 
L 117.641844 41.356142 
L 113.735809 43.070259 
L 102.436012 29.896871 
L 98.17719 32.094758 
L 111.54402 64.830645 
L 108.379089 66.724884 
L 122.056424 93.971902 
L 119.802561 95.5212 
L 119.046048 99.047139 
L 116.95325 100.688581 
L 94.574705 78.841745 
L 91.858704 81.262609 
L 79.168512 73.508429 
L 76.292438 76.416334 
L 89.524123 93.824003 
L 87.281695 96.396261 
L 74.487434 90.616024 
L 72.151574 93.662655 
L 103.994462 120.446445 
L 102.581947 122.550561 
L 67.099895 104.047783 
L 65.190012 107.320053 
L 88.848082 123.944729 
L 87.553049 126.52335 
L 33.1119 105.482959 
L 31.263946 109.823177 
L 46.759138 120.604572 
L 45.379894 124.508214 
L 67.809523 135.58485 
L 66.890884 138.819215 
L 28.778605 133.365382 
L 27.809479 137.828062 
L 85.996528 152.247268 
L 85.592799 154.901555 
L 14.639102 150.210698 
L 14.20662 155.109625 
L 72.128536 162.40037 
L 72.0509 165.485678 
L 25.801639 169.590585 
L 25.972985 174.128956 
L 91.481409 173.110829 
L 91.730965 175.582344 
L 37.601288 186.15278 
L 38.28755 190.311956 
L 26.619718 197.117585 
L 27.656168 201.616624 
L 86.452413 189.911313 
L 87.232699 192.532644 
L 31.606406 214.887245 
L 33.199107 219.220706 
L 92.267673 199.300598 
L 93.340303 201.734443 
L 86.63297 208.047881 
L 87.98342 210.654567 
L 92.867156 211.217251 
L 94.314175 213.626355 
L 61.313995 239.006746 
L 63.650378 242.39421 
L 49.588506 258.277689 
L 52.536608 262.0243 
L 78.519203 245.823408 
L 81.06141 248.666532 
L 60.928583 273.801142 
L 64.359169 277.18352 
L 88.140768 257.885 
L 91.05746 260.419637 
L 82.186525 277.89244 
L 85.73524 280.6044 
L 112.070934 250.396739 
L 114.740348 252.182662 
L 121.99584 246.366629 
L 124.533631 247.842484 
L 127.8529 247.821982 
L 130.433555 249.112958 
L 110.447616 301.398153 
L 114.721429 303.2099 
L 135.360152 260.724144 
L 138.342767 261.772697 
L 131.745234 294.832072 
L 135.802065 295.977422 
L 144.582018 276.785366 
L 148.065073 277.536022 
L 150.783173 282.899265 
L 154.455397 283.45192 
L 155.212436 312.464387 
L 159.812062 312.863159 
L 165.801699 278.035355 
L 169.313566 278.1182 
L 172.619304 269.315805 
L 175.853638 269.1886 
L 181.632382 298.372806 
L 185.775875 297.947844 
L 192.872656 317.1189 
L 197.60001 316.33125 
L 187.002514 244.413558 
L 189.446756 243.846426 
L 209.43288 305.403542 
L 213.78369 304.100995 
L 221.002418 310.942723 
L 225.521672 309.273666 
L 210.98903 262.650021 
L 213.994806 261.319684 
L 238.733551 303.426172 
L 243.007701 301.203326 
L 232.367828 273.325745 
L 235.698702 271.317934 
L 253.606791 291.091729 
L 257.485765 288.407333 
L 261.762922 286.236295 
L 265.485198 283.297854 
L 269.113242 280.243829 
L 272.643468 277.07724 
L 272.711095 270.392024 
L 275.929779 267.117183 
L 274.285342 259.487843 
L 277.160397 256.168894 
L 238.542821 220.195053 
L 240.200096 218.019356 
L 274.630501 238.444477 
L 276.843736 235.125081 
L 237.910109 207.086359 
L 239.155532 204.937037 
L 256.628132 211.191787 
L 257.993383 208.451899 
L 270.224271 210.497347 
L 271.560965 207.33031 
L 295.265802 212.380742 
L 296.649333 208.425413 
L 261.963788 193.729157 
L 262.777338 190.830138 
L 282.16084 192.20605 
L 282.916514 188.672745 
L 270.176889 182.909098 
L 270.646171 179.757191 
L 262.283304 175.710312 
L 262.530144 172.810155 
L 279.430254 170.53586 
L 279.50592 167.099125 
L 256.34087 164.2438 
L 256.230115 161.536157 
L 287.827792 156.026574 
L 287.443102 152.332975 
L 261.69908 152.492928 
L 261.216203 149.622621 
L 295.732265 139.148913 
L 294.812996 135.215126 
L 279.186674 135.454352 
L 278.159421 132.042621 
L 262.730767 133.715491 
L 261.656976 130.82203 
L 248.746276 132.965104 
L 247.655806 130.511716 
L 272.158731 115.201872 
L 270.49817 112.021128 
L 272.873243 106.48085 
L 270.938121 103.281952 
L 258.965969 106.816564 
L 257.048278 104.054776 
L 236.681013 115.434135 
L 235.045296 113.368774 
L 239.360081 106.112461 
L 237.429946 103.967473 
L 275.712867 62.045605 
L 272.3792 58.779393 
L 235.495995 93.145927 
L 233.160074 91.128845 
L 219.435773 103.626725 
L 217.437332 102.109429 
L 239.800371 65.14755 
L 236.581991 63.008972 
L 218.955653 84.93604 
L 216.369773 83.443082 
L 222.154765 65.72354 
L 218.963221 64.139493 
L 220.853774 50.965874 
L 217.198859 49.430031 
L 200.067226 84.729386 
L 197.484187 83.830423 
L 197.817928 73.066516 
L 194.869295 72.244042 
L 203.104299 22.51055 
L 198.563462 21.546858 
L 192.321943 30.963752 
L 188.052224 30.334901 
L 182.502236 42.544887 
L 178.601509 42.219064 
L 174.317411 52.382343 
L 170.730042 52.309004 
L 166.886225 42.776768 
L 163.000509 42.941832 
L 156.622251 15.413563 
L 151.881251 15.914877 
L 154.310849 63.096316 
L 151.070243 63.64673 
L 139.320583 25.324404 
L 134.899757 26.36482 
L 143.666749 73.577269 
L 140.760949 74.457174 
L 140.821303 83.699244 
L 138.235167 84.663612 
L 116.856356 41.689125 
L 112.961179 43.427774 
L 101.578751 30.325716 
L 97.333838 32.550346 
L 110.906293 65.201516 
L 107.753339 67.115623 
L 121.601772 94.276079 
L 119.357698 95.839522 
L 118.623375 99.370149 
L 116.540942 101.024721 
L 94.025436 79.319065 
L 91.324715 81.756964 
L 78.586004 74.082751 
L 75.728276 77.008688 
L 89.069184 94.332792 
L 86.842978 96.919103 
L 74.012616 91.21945 
L 71.695964 94.280711 
L 103.706677 120.863698 
L 102.307423 122.976656 
L 66.709701 104.697406 
L 64.820436 107.981623 
L 88.582598 124.457175 
L 87.30381 127.04389 
L 32.731404 106.346319 
L 30.910785 110.698073 
L 46.473479 121.381799 
L 45.118814 125.294039 
L 67.617666 136.229387 
L 66.719387 139.469465 
L 28.57356 134.255445 
L 27.632521 138.724131 
L 85.909108 152.777089 
L 85.522081 155.433862 
L 14.540284 151.189356 
L 14.138623 156.090907 
L 72.105247 163.017212 
L 72.047018 166.102946 
L 25.824489 170.498654 
L 26.024375 175.035858 
L 91.525101 173.60574 
L 91.790196 176.075637 
L 37.728071 186.986309 
L 38.440479 191.141086 
L 26.815681 198.019964 
L 27.880407 202.512396 
L 86.601869 190.437522 
L 87.398626 193.053894 
L 31.914031 215.75791 
L 33.533956 220.081268 
L 92.476067 199.790047 
L 93.563984 202.217096 
L 86.896491 208.572595 
L 88.263309 211.170737 
L 93.150487 211.702693 
L 94.61263 214.102648 
L 61.772731 239.69009 
L 64.130373 243.062793 
L 50.168677 259.034398 
L 53.140284 262.762393 
L 79.020471 246.398406 
L 81.58051 249.225485 
L 61.606164 274.486221 
L 65.057955 277.846957 
L 88.717706 258.399245 
L 91.650283 260.915488 
L 82.889417 278.443739 
L 86.455118 281.133325 
L 112.600303 250.760625 
L 115.280896 252.529724 
L 122.499665 246.668173 
L 125.046688 248.128037 
L 128.365763 248.086659 
L 130.954486 249.361379 
L 111.297787 301.77124 
L 115.58291 303.556071 
L 135.954014 260.94135 
L 138.943165 261.971123 
L 132.553687 295.071339 
L 136.617641 296.191151 
L 145.276713 276.944254 
L 148.764421 277.672989 
L 151.516198 283.019031 
L 155.191825 283.548579 
L 156.131321 312.55571 
L 160.733365 312.925545 
L 166.503836 278.060759 
L 170.016154 278.121514 
L 173.266466 269.298502 
L 176.499935 269.150957 
L 182.462117 298.298242 
L 186.602855 297.847228 
L 193.820071 316.973269 
L 198.542378 316.155903 
L 187.49277 244.306286 
L 189.933396 243.723792 
L 210.306285 305.153989 
L 214.648816 303.824103 
L 221.910432 310.620294 
L 226.419099 308.922846 
L 211.593508 262.391527 
L 214.590858 261.042311 
L 239.59394 302.992374 
L 243.854025 300.742689 
L 233.039028 272.932579 
L 236.357208 270.903857 
L 254.389309 290.56463 
L 258.251323 287.855891 
L 262.51474 285.657994 
L 266.218461 282.6962 
L 269.827226 279.619417 
L 273.337466 276.430688 
L 273.363045 269.74518 
L 276.561069 266.450159 
L 274.868681 258.831312 
L 277.722804 255.494347 
L 238.879736 219.7641 
L 240.523295 217.578022 
L 275.081482 237.786193 
L 277.273795 234.452942 
L 238.164591 206.659645 
L 239.396471 204.502532 
L 256.908064 210.647266 
L 258.256056 207.898845 
L 270.499567 209.867327 
L 271.816315 206.691946 
L 295.552448 211.593188 
L 296.911075 207.629236 
L 262.133785 193.151423 
L 262.929086 190.247344 
L 282.320858 191.501318 
L 283.054294 187.96333 
L 270.278671 182.279922 
L 270.728121 179.125126 
L 262.339966 175.130924 
L 262.568561 172.229273 
L 279.454033 169.84873 
L 256.36814 166.411587 
z
" clip-path="url(#ped34c019b7)" style="fill: #0000ff; opacity: 0.5; stroke: #000000; stroke-width: 1.5; stroke-linejoin: miter"/>
   </g>
  </g>
 </g>
 <defs>
  <clipPath id="ped34c019b7">
   <rect x="0" y="-0" width="311.049698" height="332.64"/>
  </clipPath>
 </defs>
</svg>
