<?xml version="1.0" encoding="utf-8" standalone="no"?>
<!DOCTYPE svg PUBLIC "-//W3C//DTD SVG 1.1//EN"
  "http://www.w3.org/Graphics/SVG/1.1/DTD/svg11.dtd">
<svg xmlns:xlink="http://www.w3.org/1999/xlink" width="334.14004pt" height="332.64pt" viewBox="0 0 334.14004 332.64" xmlns="http://www.w3.org/2000/svg" version="1.1">
 <metadata>
  <rdf:RDF xmlns:dc="http://purl.org/dc/elements/1.1/" xmlns:cc="http://creativecommons.org/ns#" xmlns:rdf="http://www.w3.org/1999/02/22-rdf-syntax-ns#">
   <cc:Work>
    <dc:type rdf:resource="http://purl.org/dc/dcmitype/StillImage"/>
    <dc:date>2023-12-09T18:06:27.767047</dc:date>
    <dc:format>image/svg+xml</dc:format>
    <dc:creator>
     <cc:Agent>
      <dc:title>Matplotlib v3.8.2, https://matplotlib.org/</dc:title>
     </cc:Agent>
    </dc:creator>
   </cc:Work>
  </rdf:RDF>
 </metadata>
 <defs>
  <style type="text/css">*{stroke-linejoin: round; stroke-linecap: butt}</style>
 </defs>
 <g id="figure_1">
  <g id="patch_1">
   <path d="M 0 332.64 
L 334.14004 332.64 
L 334.14004 0 
L 0 0 
L 0 332.64 
z
" style="fill: none"/>
  </g>
  <g id="axes_1">
   <g id="patch_2">
    <path d="M 315.44462 167.217086 
L 315.369808 162.459546 
L 280.538637 159.886171 
L 280.250583 156.229777 
L 317.376503 147.838461 
L 316.691429 143.02976 
L 318.951857 137.653709 
L 317.945773 132.800511 
L 315.261055 128.373703 
L 313.965012 123.64114 
L 290.787375 126.020845 
L 289.429454 122.058951 
L 258.642612 129.757185 
L 257.418063 126.804146 
L 248.972018 127.249675 
L 247.673408 124.601941 
L 262.861926 112.876197 
L 261.104516 109.79884 
L 251.9345 111.427401 
L 250.136939 108.694343 
L 246.342506 107.410017 
L 244.421395 104.854769 
L 233.317754 109.902572 
L 231.481454 107.755618 
L 246.80083 89.470195 
L 244.315424 86.909406 
L 222.885533 104.55037 
L 220.886106 102.734075 
L 243.920761 70.598268 
L 240.843405 68.137366 
L 254.344445 42.806293 
L 250.388095 40.031389 
L 235.806383 54.027744 
L 232.212025 51.830169 
L 221.729785 62.184736 
L 218.398861 60.425726 
L 205.976318 78.035534 
L 203.151567 76.764011 
L 198.263591 80.713502 
L 195.526854 79.68316 
L 211.923373 19.504299 
L 207.255331 18.074728 
L 198.255125 33.591306 
L 194.036767 32.584528 
L 182.898661 68.103978 
L 179.77305 67.562977 
L 174.581512 83.542613 
L 171.945437 83.255489 
L 173.455133 15.404197 
L 168.677195 15.186178 
L 163.92822 36.396537 
L 159.815037 36.467686 
L 156.416903 47.67828 
L 152.662157 47.980023 
L 148.818654 47.617981 
L 145.065769 48.15866 
L 140.288502 43.400076 
L 136.407214 44.211047 
L 137.685187 64.980586 
L 134.483724 65.86274 
L 118.329612 27.14576 
L 113.94811 28.655203 
L 131.190077 84.482098 
L 128.604996 85.558831 
L 115.271651 63.919633 
L 112.047912 65.507043 
L 120.308417 87.889248 
L 117.835845 89.30644 
L 89.987386 50.931242 
L 86.367765 53.320066 
L 117.207082 102.92593 
L 115.208829 104.433199 
L 95.125306 84.183512 
L 92.548668 86.394349 
L 88.420385 86.965428 
L 85.934532 89.385706 
L 78.34407 87.04004 
L 75.865544 89.777102 
L 98.420909 113.125508 
L 96.752642 115.218413 
L 81.09893 107.207222 
L 79.253143 109.847695 
L 94.819817 123.479335 
L 93.478877 125.680347 
L 47.945581 103.741109 
L 46.007204 107.425709 
L 65.604973 121.177944 
L 64.206117 124.298673 
L 25.495785 112.769686 
L 23.852386 117.155693 
L 50.854986 130.764662 
L 49.764851 134.344422 
L 26.635245 132.337143 
L 25.606527 136.677649 
L 38.656704 143.665226 
L 37.978222 147.622149 
L 32.731547 151.019981 
L 32.287244 155.159568 
L 15.453242 158.322827 
L 15.247099 163.002071 
L 18.340474 167.675569 
L 18.426974 172.259408 
L 58.761852 174.185937 
L 59.033067 177.49562 
L 68.005098 179.680522 
L 68.444504 182.696861 
L 54.279734 188.552651 
L 55.004886 191.996158 
L 65.752371 192.833649 
L 66.606454 195.914314 
L 78.786855 195.274799 
L 79.711249 197.944425 
L 49.987358 212.876617 
L 51.479431 216.443059 
L 31.015073 230.441952 
L 33.068819 234.59624 
L 30.427719 241.359128 
L 32.825015 245.526486 
L 66.551862 229.653685 
L 68.563253 232.691008 
L 55.409595 246.838526 
L 57.966824 250.21769 
L 82.419539 235.346843 
L 84.602089 237.882437 
L 86.863285 240.348153 
L 89.200891 242.741553 
L 103.96808 231.798098 
L 106.028396 233.657913 
L 87.150764 261.040131 
L 90.138829 263.414261 
L 77.539343 287.434761 
L 81.362065 290.098045 
L 120.924716 235.932732 
L 123.10665 237.257349 
L 105.7384 274.506611 
L 109.14069 276.289647 
L 127.559587 245.812257 
L 130.048875 246.923374 
L 132.858796 247.221686 
L 135.389779 248.165488 
L 116.809218 315.079427 
L 121.481733 316.494312 
L 128.507338 308.59136 
L 132.970069 309.641638 
L 139.626074 298.929404 
L 143.779516 299.634862 
L 149.380805 288.474764 
L 153.200706 288.878681 
L 157.077242 288.375549 
L 160.890218 288.537522 
L 164.643206 275.182375 
L 168.03762 275.11298 
L 169.937376 252.921166 
L 172.629231 252.696318 
L 177.97918 272.702689 
L 181.289033 272.215209 
L 181.855521 257.702992 
L 184.691835 257.101047 
L 191.103803 270.132241 
L 194.326347 269.233364 
L 213.098755 315.374652 
L 217.732943 313.761837 
L 199.394653 254.966798 
L 202.136263 253.814737 
L 221.122843 286.721027 
L 224.852132 284.870085 
L 221.622722 270.507902 
L 224.841988 268.649258 
L 219.911363 254.090371 
L 222.615272 252.293653 
L 240.659864 271.370508 
L 243.896839 268.912868 
L 222.785373 237.338789 
L 224.961154 235.459988 
L 262.346496 270.662673 
L 265.550493 267.523508 
L 279.625946 274.474621 
L 282.941255 270.790267 
L 248.317481 236.069708 
L 250.440736 233.38875 
L 278.725992 249.486097 
L 281.256052 245.842395 
L 265.639669 230.822597 
L 267.589378 227.599585 
L 257.659491 217.930705 
L 259.207796 214.964982 
L 292.123121 226.532325 
L 293.92484 222.478737 
L 242.718722 197.794827 
L 243.641298 195.30883 
L 270.017454 200.922633 
L 271.024878 197.576758 
L 262.752757 191.90437 
L 263.48022 188.791371 
L 317.584723 195.52027 
L 318.398767 190.681447 
L 258.81113 178.585179 
L 259.121757 175.602699 
L 278.221999 173.681979 
L 278.368861 170.091603 
L 315.441627 166.265427 
L 315.336894 161.508452 
L 280.490227 159.154197 
L 280.179183 155.499686 
L 317.251591 146.875035 
L 316.536287 142.070738 
L 318.762858 136.680576 
L 317.72627 131.833802 
L 315.013763 127.423967 
L 313.687981 122.699649 
L 290.525769 125.225081 
L 289.142957 121.271806 
L 258.405142 129.16352 
L 257.162044 126.218241 
L 248.718967 126.716882 
L 247.403731 124.077368 
L 262.5182 112.256329 
L 260.74147 109.190085 
L 251.581878 110.876289 
L 249.767163 108.15459 
L 245.964728 106.894154 
L 244.027583 104.35104 
L 232.95591 109.468578 
L 231.106143 107.333217 
L 246.310211 88.951804 
L 243.808748 86.406698 
L 222.490233 104.182095 
L 220.479422 102.378411 
L 243.311505 70.098365 
L 240.218732 67.656866 
L 253.560188 42.241381 
L 249.586463 39.491414 
L 235.093069 53.579203 
L 231.48496 51.404278 
L 221.068052 61.824568 
L 217.72613 60.086543 
L 205.414589 77.774133 
L 202.581896 76.520401 
L 197.718857 80.500556 
L 194.975694 79.487447 
L 210.993398 19.206652 
L 206.316457 17.806468 
L 197.41402 33.379346 
L 193.189413 32.399119 
L 182.274924 67.987919 
L 179.145973 67.466587 
L 174.05504 83.478559 
L 171.417212 83.20802 
L 172.500132 15.348574 
L 167.720917 15.16061 
L 163.105437 36.400418 
L 158.992783 36.497435 
L 155.665224 47.72918 
L 151.91245 48.054533 
L 148.066747 47.716671 
L 144.317336 48.280943 
L 139.510235 43.552499 
L 135.634124 44.387865 
L 137.0427 65.148955 
L 133.846849 66.051228 
L 117.449549 27.436614 
L 113.077626 28.973584 
L 130.670372 84.690933 
L 128.092115 85.783903 
L 114.622935 64.228992 
L 111.409243 65.836646 
L 119.810357 88.166455 
L 117.346747 89.599169 
L 89.257481 51.399881 
L 85.652955 53.811424 
L 116.803655 103.222344 
L 114.814921 104.742152 
L 94.604436 84.61918 
L 92.041755 86.846178 
L 87.917145 87.443211 
L 85.446563 89.879076 
L 77.841498 87.581195 
L 75.380237 90.333792 
L 98.082004 113.539875 
L 96.426933 115.643231 
L 80.723144 107.730652 
L 78.894001 110.382681 
L 94.546102 123.916146 
L 93.219032 126.125549 
L 47.548651 104.473123 
L 45.633486 108.169842 
L 65.317362 121.798546 
L 63.938161 124.928011 
L 25.156084 113.642719 
L 23.540303 118.038975 
L 50.627962 131.477843 
L 49.560362 135.064389 
L 26.41859 133.202622 
L 25.417191 137.549511 
L 38.511058 144.454873 
L 37.857476 148.415985 
L 32.632275 151.846748 
L 32.214016 155.989047 
L 15.400243 159.25812 
L 15.223534 163.938568 
L 18.346242 168.592518 
L 18.46157 173.175722 
L 58.807766 174.848529 
L 59.099792 178.156441 
L 68.085387 180.284872 
L 68.543756 183.298387 
L 54.416096 189.243149 
L 55.162891 192.682028 
L 65.91543 193.451906 
L 66.788872 196.527139 
L 78.96501 195.811028 
L 79.906176 198.474788 
L 50.276789 213.593631 
L 51.791263 217.150618 
L 31.415355 231.277944 
L 33.495188 235.419232 
L 30.896675 242.198598 
L 33.320134 246.350796 
L 66.946483 230.266186 
L 68.976937 233.290799 
L 55.91252 247.520766 
L 58.490951 250.883779 
L 82.849652 235.859433 
L 85.048107 238.381249 
L 87.324767 240.832695 
L 89.677379 243.211345 
L 104.375448 232.17523 
L 106.44742 234.02205 
L 87.742381 261.522456 
L 90.745318 263.877746 
L 78.297157 287.977014 
L 82.136554 290.616203 
L 121.357753 236.203134 
L 123.547975 237.514002 
L 106.414345 274.871764 
L 109.827783 276.633366 
L 128.05463 246.040734 
L 130.550857 247.136173 
L 133.362598 247.416807 
L 135.899467 248.344672 
L 117.740124 315.374148 
L 122.421446 316.759617 
L 129.397206 308.812635 
L 133.866455 309.834824 
L 140.454955 299.080939 
L 144.612751 299.760261 
L 150.143739 288.565154 
L 153.966105 288.945038 
L 157.8394 288.417535 
L 161.653319 288.555524 
L 165.322237 275.177036 
L 168.716147 275.086294 
L 170.476292 252.88297 
L 173.166679 252.641196 
L 178.642351 272.613524 
L 181.949072 272.105236 
L 182.424276 257.589743 
L 185.256747 256.969972 
L 191.750548 269.96058 
L 194.967374 269.041453 
L 214.029613 315.063761 
L 218.653567 313.421831 
L 199.945852 254.743292 
L 202.680161 253.574011 
L 221.873328 286.360236 
L 225.590901 284.485874 
L 222.271226 270.144287 
L 225.478738 268.265433 
L 220.456644 253.737844 
L 223.149199 251.924156 
L 241.313417 270.887143 
L 244.534871 268.409193 
L 223.225239 236.968517 
L 225.38916 235.07607 
L 262.995168 270.042926 
L 266.179358 266.883672 
L 280.298251 273.74612 
L 283.590322 270.040988 
L 248.74886 235.538879 
L 250.855211 232.84462 
L 279.241151 248.763751 
L 281.748244 245.104208 
L 266.037704 230.182925 
L 267.967104 226.947715 
L 257.976601 217.341479 
L 259.506223 214.366076 
L 292.493648 225.726172 
L 294.269838 221.661333 
L 242.909484 197.299968 
L 243.816407 194.808218 
L 270.227348 200.256019 
L 271.213709 196.903874 
L 262.906076 191.283625 
L 263.613945 188.166113 
L 317.759699 194.554592 
L 318.543294 189.710744 
L 258.880757 177.989488 
L 259.172619 175.005114 
L 278.260403 172.964302 
L 278.384681 169.373073 
L 315.432649 165.313806 
L 315.298 160.557584 
L 280.437215 158.422541 
L 280.103192 154.770059 
L 317.120623 145.912414 
L 316.375117 141.112711 
L 318.567742 135.708652 
L 317.500691 130.868493 
L 314.760503 126.475805 
L 313.405033 121.759919 
L 290.259163 124.430978 
L 288.851515 120.486479 
L 258.163942 128.57136 
L 256.902344 125.633958 
L 248.462571 126.185691 
L 247.13076 123.554501 
L 262.170582 111.638634 
L 260.374602 108.583626 
L 251.225797 110.327405 
L 249.394 107.617174 
L 245.583712 106.380678 
L 243.630611 103.849797 
L 232.591343 109.036869 
L 230.728183 106.913184 
L 245.816341 88.43651 
L 243.298921 85.907187 
L 222.092625 103.816314 
L 220.070509 102.025312 
L 242.699118 69.602304 
L 239.59105 67.180305 
L 252.772393 41.681412 
L 248.781451 38.956492 
L 234.376947 53.135158 
L 230.755231 50.982969 
L 220.404067 61.468569 
L 217.05128 59.751597 
L 204.851227 77.51627 
L 202.010705 76.280379 
L 197.172795 80.291041 
L 194.423315 79.295205 
L 210.061569 18.91486 
L 205.375915 17.544119 
L 196.571598 33.17268 
L 192.34091 32.219043 
L 181.65047 67.875785 
L 178.518302 67.374143 
L 173.528176 83.417817 
L 170.888699 83.163874 
L 171.544799 15.298959 
L 166.764497 15.141058 
L 162.282695 36.409474 
L 158.170732 36.532356 
L 154.913881 47.784807 
L 151.163227 48.133756 
L 147.315475 47.820088 
L 143.569687 48.40793 
L 138.732941 43.709814 
L 134.862161 44.569542 
L 136.401285 65.321362 
L 133.211172 66.243717 
L 116.571332 27.732997 
L 112.209163 29.297433 
L 130.151991 84.903032 
L 127.580659 86.012196 
L 113.976178 64.542425 
L 110.772661 66.17026 
L 119.31405 88.446788 
L 116.8595 89.894969 
L 88.530537 51.873102 
L 84.94125 54.307268 
L 116.4021 103.521291 
L 114.422965 105.053577 
L 94.086318 85.058115 
L 91.537693 87.301186 
L 87.41692 87.924149 
L 84.961707 90.375504 
L 77.34234 88.1255 
L 74.89844 90.893523 
L 97.745711 113.956366 
L 96.103901 116.07009 
L 80.350658 108.256435 
L 78.538231 110.919916 
L 94.27514 124.354671 
L 92.961992 126.572376 
L 47.156333 105.20762 
L 45.264456 108.91631 
L 65.033659 122.420944 
L 63.674168 125.559022 
L 24.82188 114.51787 
L 23.233781 118.924202 
L 50.405427 132.192438 
L 49.360406 135.785628 
L 26.207382 134.069446 
L 25.233342 138.422548 
L 38.370381 145.245419 
L 37.741725 149.210564 
L 32.538206 152.674123 
L 32.146008 156.818971 
L 15.353128 160.193728 
L 15.205859 164.875195 
L 18.357776 169.509413 
L 18.501927 174.091801 
L 58.857847 175.51082 
L 59.170671 178.81683 
L 68.169475 180.888704 
L 68.646789 183.899277 
L 54.556797 189.932777 
L 55.325206 193.36689 
L 66.082375 194.069126 
L 66.975141 197.138805 
L 79.146534 196.346127 
L 80.104435 199.003914 
L 50.570723 214.30881 
L 52.107538 217.856202 
L 31.820886 232.111401 
L 33.926725 236.239527 
L 31.370902 243.035102 
L 33.820428 247.171975 
L 67.344949 230.876193 
L 69.394386 233.887975 
L 56.419725 248.199829 
L 59.019256 251.546559 
L 83.282981 236.369307 
L 85.497254 238.877247 
L 87.789286 241.314325 
L 90.156813 243.678132 
L 104.78518 232.549792 
L 106.868727 234.383544 
L 88.337019 262.00105 
L 91.354711 264.337407 
L 79.058366 288.51449 
L 82.914286 291.129479 
L 121.792482 236.470807 
L 123.990906 237.767874 
L 107.092574 275.232658 
L 110.517023 276.972757 
L 128.551099 246.266093 
L 131.054167 247.345811 
L 133.867617 247.608755 
L 136.410272 248.520646 
L 118.672866 315.663008 
L 123.362808 317.019007 
L 130.288449 309.028308 
L 134.764039 310.022368 
L 141.284772 299.227259 
L 145.446759 299.880416 
L 150.907226 288.650745 
L 154.731906 289.006581 
L 158.601806 288.454727 
L 162.416518 288.568725 
L 166.00122 275.167427 
L 169.394492 275.055341 
L 171.014956 252.841386 
L 173.70377 252.582696 
L 179.304948 272.520189 
L 182.608407 271.991114 
L 182.992307 257.47292 
L 185.820824 256.835346 
L 192.3962 269.784855 
L 195.607182 268.845514 
L 214.958498 314.747021 
L 219.572033 313.076042 
L 200.495634 254.516324 
L 203.222535 253.329869 
L 222.621529 285.994731 
L 226.32724 284.097025 
L 222.91743 269.776601 
L 226.113062 267.87761 
L 220.999697 253.381895 
L 223.680791 251.551308 
L 241.963916 270.399677 
L 245.169721 267.901515 
L 223.662767 236.595487 
L 225.814743 234.689467 
L 263.639929 269.419111 
L 266.804186 266.239892 
L 280.965961 273.013405 
L 284.234664 269.287641 
L 249.176892 235.005348 
L 251.266256 232.297894 
L 279.751756 248.038179 
L 282.235784 244.36294 
L 266.431708 229.540763 
L 268.340722 226.293482 
L 258.289999 216.75027 
L 259.800877 213.765306 
L 292.859099 224.917705 
L 294.609687 220.841775 
L 243.09713 196.80392 
L 243.988364 194.306515 
L 270.433046 199.588098 
L 271.398304 196.229816 
L 263.055487 190.661928 
L 263.743735 187.540025 
L 317.928598 193.587832 
L 318.681712 188.739152 
L 258.946635 177.393371 
L 259.219722 174.40722 
L 278.294292 172.246397 
L 278.395981 168.654458 
L 315.417686 164.362261 
L 315.253125 159.606979 
L 280.379602 157.691233 
L 280.022613 154.040924 
L 316.983603 144.950636 
L 316.207924 140.155716 
L 318.366517 134.737974 
L 317.269046 129.904622 
L 314.501284 125.529255 
L 313.116181 120.821988 
L 289.987568 123.638568 
L 288.555139 119.703 
L 257.919022 127.980729 
L 256.638975 125.051319 
L 248.202839 125.656123 
L 246.854505 123.033361 
L 261.819086 111.023139 
L 260.003927 107.979487 
L 250.86627 109.780772 
L 249.017464 107.082115 
L 245.199474 105.869608 
L 243.230494 103.351061 
L 232.224069 108.607462 
L 230.347588 106.495536 
L 245.31924 87.924332 
L 242.785962 85.410892 
L 221.692723 103.45304 
L 219.659383 101.674792 
L 242.083622 69.110104 
L 238.960383 66.707701 
L 251.981091 41.126409 
L 247.97309 38.426644 
L 233.658047 52.695626 
L 230.022867 50.566257 
L 219.737855 61.116753 
L 216.374336 59.420902 
L 204.286254 77.261955 
L 201.438016 76.043954 
L 196.625426 80.084965 
L 193.869737 79.106441 
L 209.127924 18.628935 
L 204.433741 17.287691 
L 195.727893 32.971316 
L 191.491291 32.044307 
L 181.025324 67.76758 
L 177.890062 67.285648 
L 173.00094 83.36039 
L 170.359918 83.123052 
L 170.589174 15.255354 
L 165.807972 15.127521 
L 161.460026 36.423704 
L 157.348917 36.572445 
L 154.162902 47.845158 
L 150.414517 48.217689 
L 146.564868 47.928228 
L 142.822851 48.539617 
L 137.956653 43.872015 
L 134.091357 44.75607 
L 135.760967 65.4978 
L 132.576719 66.440201 
L 115.694997 28.034897 
L 111.342754 29.626739 
L 129.634955 85.118387 
L 127.070649 86.243702 
L 113.331404 64.85992 
L 110.138189 66.50787 
L 118.819516 88.730238 
L 116.374122 90.193828 
L 87.806584 52.350886 
L 84.232678 54.807578 
L 116.002434 103.822757 
L 114.032975 105.36746 
L 93.57097 85.500299 
L 91.036503 87.759356 
L 86.91973 88.408224 
L 84.479983 90.874972 
L 76.846616 88.672935 
L 74.420173 91.456273 
L 97.412044 114.374963 
L 95.783561 116.498972 
L 79.981486 108.78455 
L 78.185847 111.459378 
L 94.006942 124.794891 
L 92.707768 127.020811 
L 46.768642 105.944569 
L 44.900129 109.665085 
L 64.753877 123.045114 
L 63.41415 126.191681 
L 24.493187 115.395106 
L 22.932833 119.811339 
L 50.187391 132.908418 
L 49.16499 136.50811 
L 26.00163 134.937582 
L 25.054988 139.296723 
L 38.23468 146.036835 
L 37.630974 150.005855 
L 32.449341 153.502073 
L 32.08322 157.649306 
L 15.311897 161.129614 
L 15.194076 165.811914 
L 18.375076 170.426217 
L 18.548046 175.007608 
L 58.912092 176.172783 
L 59.245703 179.47676 
L 68.25736 181.491996 
L 68.753599 184.499507 
L 54.701833 190.621505 
L 55.491826 194.050718 
L 66.253198 194.685283 
L 67.165254 197.749287 
L 79.33142 196.880073 
L 80.306018 199.531783 
L 50.869149 215.022127 
L 52.428246 218.559783 
L 32.231652 232.942292 
L 34.363412 237.057091 
L 31.85038 243.868606 
L 34.325876 247.989992 
L 67.747243 231.483681 
L 69.815582 234.482515 
L 56.931191 248.875688 
L 59.55172 252.206003 
L 83.719509 236.876446 
L 85.949511 239.37041 
L 88.256826 241.793024 
L 90.639173 244.141894 
L 105.197259 232.92177 
L 107.292298 234.742381 
L 88.934656 262.475895 
L 91.966982 264.793226 
L 79.822941 289.047168 
L 83.695231 291.637854 
L 122.228887 236.735741 
L 124.435424 238.018955 
L 107.773059 275.58928 
L 111.208384 277.307806 
L 129.048977 246.488325 
L 131.558785 247.552279 
L 134.373834 247.797523 
L 136.922174 248.693404 
L 119.607406 315.945996 
L 124.305784 317.272471 
L 131.181031 309.238372 
L 135.662784 310.204264 
L 142.115493 299.368356 
L 146.281505 299.995324 
L 151.671237 288.731531 
L 155.498079 289.063305 
L 159.364432 288.487123 
L 163.179785 288.577127 
L 166.68013 275.153547 
L 170.07263 275.020122 
L 171.553348 252.796414 
L 174.240482 252.520819 
L 179.966944 272.42269 
L 183.267011 271.872848 
L 183.559592 257.352526 
L 186.384043 256.697175 
L 193.040734 269.605072 
L 196.245745 268.645555 
L 215.885373 314.424445 
L 220.488307 312.724483 
L 201.043977 254.285903 
L 203.763362 253.082321 
L 223.367416 285.624528 
L 227.061118 283.703553 
L 223.561308 269.404857 
L 226.744933 267.485805 
L 221.5405 253.022537 
L 224.210028 251.175123 
L 242.611337 269.90813 
L 245.801367 267.389854 
L 224.097941 236.219712 
L 226.237886 234.300195 
L 264.280753 268.791253 
L 267.424952 265.592196 
L 281.629049 272.276505 
L 284.874254 268.530257 
L 249.60156 234.469135 
L 251.673854 231.748594 
L 280.257788 247.309409 
L 282.718652 243.618621 
L 266.821665 228.896135 
L 268.710218 225.636911 
L 258.599672 216.157102 
L 260.091747 213.162695 
L 293.219457 224.106955 
L 294.944375 220.020095 
L 243.281653 196.306701 
L 244.157161 193.80374 
L 270.634539 198.918897 
L 271.578656 195.55461 
L 263.200985 190.039304 
L 263.869584 186.913134 
L 318.091413 192.620029 
L 318.814017 187.766708 
L 259.008763 176.796852 
L 259.263063 173.809042 
L 278.323666 171.528294 
L 278.402761 167.935786 
L 315.396739 163.410828 
L 315.202273 158.656675 
L 280.317391 156.960302 
L 279.93745 153.31231 
L 316.840536 143.989738 
L 316.034715 139.199792 
L 318.159192 133.768581 
L 317.031343 128.942227 
L 314.236117 124.584354 
L 312.821436 119.885891 
L 289.710995 122.847882 
L 288.253841 118.921401 
L 257.670393 127.39165 
L 256.371947 124.470349 
L 247.939781 125.1282 
L 246.574979 122.51397 
L 261.463726 110.409866 
L 259.62946 107.37769 
L 250.503313 109.236411 
L 248.63757 106.549435 
L 244.81203 105.360965 
L 242.827249 102.854852 
L 231.854101 108.180372 
L 229.964374 106.080291 
L 244.818928 87.415291 
L 242.269892 84.917834 
L 221.290545 103.092289 
L 219.246061 101.326865 
L 241.465043 68.621785 
L 238.326756 66.239073 
L 251.186315 40.576394 
L 247.161413 37.901891 
L 232.936397 52.260623 
L 229.287896 50.154161 
L 219.069445 60.769134 
L 215.695326 59.094472 
L 203.719694 77.011199 
L 200.86385 75.811136 
L 196.076772 79.882335 
L 193.314982 78.921162 
L 208.192499 18.348887 
L 203.489973 17.037193 
L 194.882938 32.775263 
L 190.640589 31.874919 
L 180.399508 67.66331 
L 177.261277 67.201106 
L 172.473354 83.30628 
L 169.830891 83.085558 
L 169.633293 15.21776 
L 164.851382 15.12 
L 160.637463 36.443109 
L 156.527371 36.617703 
L 153.412317 47.910231 
L 149.666349 48.30633 
L 145.814956 48.041087 
L 142.076859 48.675999 
L 137.1814 44.039094 
L 133.32174 44.947443 
L 135.121772 65.678262 
L 131.943513 66.640671 
L 114.820578 28.342303 
L 110.478432 29.961486 
L 129.119283 85.336989 
L 126.562105 86.47841 
L 112.68864 65.181463 
L 109.505853 66.849465 
L 118.326774 89.016792 
L 115.890634 90.495734 
L 87.085651 52.833214 
L 83.527266 55.312335 
L 115.604672 104.12673 
L 113.644967 105.68379 
L 93.058413 85.945716 
L 90.538205 88.220669 
L 86.425594 88.895416 
L 84.00141 91.37746 
L 76.354344 89.223476 
L 73.945455 92.02202 
L 97.081017 114.795651 
L 95.465925 116.92986 
L 79.615643 109.314977 
L 77.836862 112.001046 
L 93.741517 125.236789 
L 92.456368 127.470836 
L 46.385594 106.683942 
L 44.540517 110.416136 
L 64.478026 123.671032 
L 63.158115 126.825962 
L 24.170019 116.274392 
L 22.637471 120.700351 
L 49.973863 133.625756 
L 48.974122 137.231807 
L 25.801342 135.806994 
L 24.882136 140.172003 
L 38.103958 146.829089 
L 37.525227 150.801828 
L 32.365686 154.330566 
L 32.025656 158.480019 
L 15.276554 162.06574 
L 15.188184 166.748689 
L 18.398143 171.342894 
L 18.599923 175.923106 
L 58.970499 176.834392 
L 59.324884 180.136205 
L 68.349038 182.094723 
L 68.864182 185.099053 
L 54.851198 191.309308 
L 55.662743 194.733485 
L 66.427894 195.300354 
L 67.359202 198.358561 
L 79.519661 197.412846 
L 80.510918 200.058374 
L 51.172056 215.733553 
L 52.753371 219.261333 
L 32.647635 233.770582 
L 34.805233 237.871893 
L 32.335091 244.699079 
L 34.836459 248.804813 
L 68.15335 232.088628 
L 70.240508 235.074393 
L 57.446897 249.548318 
L 60.088321 252.862084 
L 84.159217 237.380829 
L 86.404861 239.860718 
L 88.727367 242.268773 
L 91.12444 244.602612 
L 105.61167 233.291148 
L 107.718118 235.098547 
L 89.535267 262.946972 
L 92.582108 265.245185 
L 80.59085 289.575027 
L 84.479358 292.141307 
L 122.666948 236.997925 
L 124.881513 238.267236 
L 108.455773 275.941614 
L 111.90184 277.6385 
L 129.548242 246.707422 
L 132.064692 247.755569 
L 134.881228 247.983103 
L 137.435152 248.862939 
L 120.543707 316.223101 
L 125.250335 317.52 
L 132.074916 309.442818 
L 136.562655 310.380503 
L 142.947085 299.504225 
L 147.116958 300.104979 
L 152.43574 288.807511 
L 156.264594 289.11521 
L 160.127246 288.514722 
L 163.94309 288.580727 
L 167.358938 275.135398 
L 170.750532 274.980639 
L 172.091447 252.748058 
L 174.776794 252.455567 
L 180.628315 272.321028 
L 183.924858 271.750442 
L 184.126109 257.228567 
L 186.946382 256.555464 
L 193.684125 269.42124 
L 196.883037 268.441584 
L 216.8102 314.096046 
L 221.402352 312.367168 
L 201.590861 254.052038 
L 204.302622 252.831376 
L 224.11096 285.249641 
L 227.792508 283.305473 
L 224.202836 269.029071 
L 227.374328 267.090034 
L 222.079032 252.659785 
L 224.736888 250.795618 
L 243.255653 269.41252 
L 246.429781 266.874231 
L 224.530742 235.841207 
L 226.658573 233.908269 
L 264.917616 268.159377 
L 268.041633 264.940608 
L 282.287489 271.535449 
L 285.509068 267.768864 
L 250.022846 233.930262 
L 252.077989 231.196741 
L 280.759227 246.577472 
L 283.196828 242.871279 
L 267.20756 228.249067 
L 269.075577 224.97803 
L 258.905609 215.561998 
L 260.378821 212.558265 
L 293.574709 223.293955 
L 295.273889 219.196327 
L 243.463045 195.808331 
L 244.322794 193.299913 
L 270.831819 198.248441 
L 271.754758 194.878283 
L 263.342565 189.415777 
L 263.991489 186.285464 
L 318.248138 191.651221 
L 318.940203 186.793451 
L 259.067138 176.199953 
L 259.302641 173.210604 
L 278.348522 170.81002 
L 315.44462 167.217086 
z
" clip-path="url(#p54d4afb778)" style="fill: #0000ff; opacity: 0.5; stroke: #000000; stroke-width: 1.5; stroke-linejoin: miter"/>
   </g>
  </g>
 </g>
 <defs>
  <clipPath id="p54d4afb778">
   <rect x="0" y="-0" width="334.14004" height="332.64"/>
  </clipPath>
 </defs>
</svg>
