<?xml version="1.0" encoding="utf-8" standalone="no"?>
<!DOCTYPE svg PUBLIC "-//W3C//DTD SVG 1.1//EN"
  "http://www.w3.org/Graphics/SVG/1.1/DTD/svg11.dtd">
<svg xmlns:xlink="http://www.w3.org/1999/xlink" width="314.50317pt" height="332.64pt" viewBox="0 0 314.50317 332.64" xmlns="http://www.w3.org/2000/svg" version="1.1">
 <metadata>
  <rdf:RDF xmlns:dc="http://purl.org/dc/elements/1.1/" xmlns:cc="http://creativecommons.org/ns#" xmlns:rdf="http://www.w3.org/1999/02/22-rdf-syntax-ns#">
   <cc:Work>
    <dc:type rdf:resource="http://purl.org/dc/dcmitype/StillImage"/>
    <dc:date>2023-12-09T18:06:17.956399</dc:date>
    <dc:format>image/svg+xml</dc:format>
    <dc:creator>
     <cc:Agent>
      <dc:title>Matplotlib v3.8.2, https://matplotlib.org/</dc:title>
     </cc:Agent>
    </dc:creator>
   </cc:Work>
  </rdf:RDF>
 </metadata>
 <defs>
  <style type="text/css">*{stroke-linejoin: round; stroke-linecap: butt}</style>
 </defs>
 <g id="figure_1">
  <g id="patch_1">
   <path d="M 0 332.64 
L 314.50317 332.64 
L 314.50317 0 
L 0 0 
L 0 332.64 
z
" style="fill: none"/>
  </g>
  <g id="axes_1">
   <g id="patch_2">
    <path d="M 265.469793 166.704733 
L 265.418432 163.438549 
L 292.142749 158.482855 
L 291.819686 154.38208 
L 259.305276 154.348033 
L 258.868441 151.281784 
L 287.812295 142.602007 
L 286.992045 138.645242 
L 300.207572 131.076814 
L 299.018816 126.736014 
L 261.107231 134.335273 
L 260.040261 131.222262 
L 246.715293 132.964388 
L 245.612334 130.304568 
L 279.231129 111.28411 
L 277.430419 107.612641 
L 268.099963 108.081004 
L 266.204043 104.761107 
L 234.979198 120.07273 
L 233.4767 117.788293 
L 225.058554 120.531675 
L 223.575391 118.558939 
L 245.732959 96.998155 
L 243.499629 94.387006 
L 265.287872 69.179293 
L 262.170187 65.967048 
L 236.322895 86.9926 
L 233.779622 84.68227 
L 250.273367 59.313501 
L 246.852905 56.578224 
L 236.572659 63.296007 
L 233.284189 60.989541 
L 223.750061 68.539158 
L 220.632787 66.63327 
L 214.127346 70.89856 
L 211.089014 69.294064 
L 203.09917 78.235067 
L 200.296967 76.973694 
L 203.104633 61.485512 
L 199.775784 60.232248 
L 196.172317 59.816383 
L 192.794415 58.781912 
L 182.341748 85.43958 
L 179.776334 84.827304 
L 188.357787 25.3246 
L 183.899251 24.552889 
L 176.74924 45.301016 
L 172.924547 44.884426 
L 170.88059 15.40324 
L 166.118746 15.185955 
L 161.446797 75.137415 
L 158.567791 75.187215 
L 155.642203 74.559638 
L 152.747901 74.792233 
L 143.411705 24.741757 
L 138.957066 25.383538 
L 134.379293 25.409475 
L 129.950114 26.334923 
L 140.198908 84.015339 
L 137.609549 84.72883 
L 129.30404 67.97066 
L 126.215588 69.034642 
L 127.431967 80.918487 
L 124.751549 82.03493 
L 127.042961 93.668803 
L 124.763633 94.791173 
L 95.729828 47.490888 
L 92.014047 49.620643 
L 102.018945 73.276756 
L 99.110819 75.196018 
L 113.049705 100.202031 
L 110.982715 101.761149 
L 66.177212 51.899801 
L 62.614668 54.956576 
L 88.192486 88.907092 
L 85.782648 91.25336 
L 73.328536 84.217053 
L 70.778582 87.032995 
L 53.466143 77.702083 
L 50.721165 81.145764 
L 66.795428 98.195591 
L 64.68822 101.210037 
L 55.518589 99.772338 
L 53.466533 103.140573 
L 29.237411 94.397485 
L 27.029352 98.594715 
L 42.38247 111.002847 
L 40.69002 114.778558 
L 89.252537 138.295313 
L 88.395049 140.583832 
L 75.890204 139.126846 
L 75.065468 141.835095 
L 16.149971 129.810073 
L 15.061832 134.401292 
L 74.619998 150.380466 
L 74.149728 153.123089 
L 18.016238 149.007246 
L 17.530777 153.530294 
L 47.143714 159.85837 
L 46.985035 163.460222 
L 63.868033 167.012046 
L 63.926013 170.084511 
L 72.526335 172.595068 
L 72.755576 175.392537 
L 48.653872 181.347396 
L 49.170109 184.89114 
L 43.754634 189.590531 
L 44.532475 193.284242 
L 63.297563 192.298295 
L 64.15088 195.376194 
L 19.779384 213.325004 
L 21.315343 217.760815 
L 54.425238 209.571799 
L 55.826058 212.920123 
L 51.770968 218.863708 
L 53.465258 222.290895 
L 57.958224 224.170497 
L 59.816312 227.400519 
L 80.57151 218.543847 
L 82.241504 221.065639 
L 94.543673 215.80494 
L 96.120641 217.888772 
L 58.165085 252.936399 
L 60.927535 256.145693 
L 85.585232 238.638483 
L 87.884566 240.992698 
L 67.178141 268.045686 
L 70.411203 270.96412 
L 79.591518 266.641142 
L 82.77428 269.169967 
L 71.643401 291.577037 
L 75.614132 294.343439 
L 90.729203 279.395974 
L 94.307498 281.5683 
L 107.884339 265.379051 
L 111.01343 267.018912 
L 107.050334 283.907567 
L 110.762414 285.564489 
L 107.240729 305.737077 
L 111.639083 307.37722 
L 137.196908 242.921468 
L 139.605391 243.650781 
L 141.095461 248.03474 
L 143.662788 248.638946 
L 142.869583 267.317887 
L 146.042338 267.856777 
L 146.814166 288.155518 
L 150.640151 288.560078 
L 154.298001 291.916831 
L 158.238549 292.084223 
L 162.302192 317.52 
L 167.043802 317.423064 
L 167.049299 247.314924 
L 169.581162 247.10344 
L 172.505669 249.864176 
L 175.114988 249.479872 
L 190.725372 315.465002 
L 195.388316 314.475396 
L 193.580818 288.776453 
L 197.403203 287.71026 
L 195.636601 269.720431 
L 198.858807 268.599022 
L 192.86325 244.529281 
L 195.294762 243.507527 
L 206.966899 261.857006 
L 209.936259 260.383235 
L 213.606237 260.161532 
L 216.519006 258.479844 
L 238.916841 287.139962 
L 242.665356 284.649115 
L 244.055665 278.941183 
L 247.543852 276.292813 
L 221.819862 238.7126 
L 224.054168 236.783263 
L 237.352564 246.503299 
L 239.824147 244.081727 
L 269.846006 267.241449 
L 272.953576 263.78796 
L 262.847246 249.521061 
L 265.401109 246.296389 
L 224.722633 212.028946 
L 226.116511 210.021533 
L 272.437185 236.163286 
L 274.566308 232.64369 
L 275.230857 228.325311 
L 277.112156 224.721751 
L 292.842132 227.531783 
L 294.689773 223.374879 
L 259.116537 204.652496 
L 260.261478 201.56731 
L 237.845772 190.978728 
L 238.571297 188.569102 
L 290.725169 199.030985 
L 291.677729 194.954734 
L 247.855746 182.615848 
L 248.313375 179.895621 
L 274.660792 180.281289 
L 275.031763 176.719408 
L 295.264845 174.279482 
L 295.436919 170.072731 
L 265.467739 166.051393 
L 265.395836 162.785596 
L 292.088456 157.66192 
L 291.739608 153.563258 
L 259.225626 153.733708 
L 258.769516 150.670268 
L 287.658206 141.808621 
L 286.813087 137.857095 
L 299.980751 130.205698 
L 298.764717 125.87246 
L 260.901677 133.710011 
L 259.815149 130.603773 
L 246.501401 132.42967 
L 245.381736 129.77684 
L 278.880238 110.545315 
L 277.056472 106.885244 
L 267.729146 107.412281 
L 265.812384 104.104374 
L 234.684458 119.612081 
L 233.167622 117.337139 
L 224.766896 120.133412 
L 223.271356 118.170043 
L 245.29288 96.470328 
L 243.043171 93.873276 
L 264.672441 68.529025 
L 261.534615 65.336453 
L 235.820073 86.524153 
L 233.262319 84.229865 
L 249.596183 58.757862 
L 246.158585 56.044151 
L 235.920793 62.826459 
L 232.617882 60.54072 
L 223.131425 68.150153 
L 220.002226 66.263908 
L 213.52374 70.57003 
L 210.475377 68.984675 
L 202.541925 77.975752 
L 199.731844 76.732029 
L 202.442042 61.226494 
L 199.105378 59.994192 
L 195.499365 59.600999 
L 192.115024 58.587793 
L 181.830226 85.310676 
L 179.261012 84.714546 
L 187.468056 25.159047 
L 183.004755 24.415393 
L 175.98538 45.208079 
L 172.158142 44.815553 
L 169.928805 15.347804 
L 165.165689 15.160474 
L 160.870893 75.140132 
L 157.992258 75.208038 
L 155.06278 74.598873 
L 152.169998 74.849668 
L 142.519198 24.858901 
L 138.068683 25.528686 
L 133.491164 25.583414 
L 129.067894 26.536702 
L 139.679261 84.151517 
L 137.094441 84.88128 
L 128.683697 68.175678 
L 125.601998 69.259064 
L 126.893096 81.135024 
L 124.219753 82.268303 
L 126.58429 93.887534 
L 124.312066 95.024218 
L 94.981343 47.907474 
L 91.27903 50.060557 
L 101.432514 73.653277 
L 98.536516 75.590791 
L 112.632401 100.508642 
L 110.575257 102.08073 
L 65.457041 52.502169 
L 61.913793 55.58129 
L 87.704635 89.370264 
L 85.309601 91.731643 
L 72.811481 84.773804 
L 70.279288 87.605728 
L 52.908505 78.383886 
L 50.18524 81.844763 
L 66.366419 98.793155 
L 64.278212 101.820795 
L 55.09972 100.440796 
L 53.068889 103.821871 
L 28.785258 95.231342 
L 26.60364 99.442377 
L 42.034494 111.753701 
L 40.365826 115.539982 
L 89.075288 138.750842 
L 88.232211 141.044708 
L 75.71845 139.6664 
L 74.910763 142.379782 
L 15.920801 130.725542 
L 14.861559 135.323515 
L 74.519048 150.927786 
L 74.066037 153.673312 
L 17.90777 149.910598 
L 17.450767 154.43661 
L 47.102917 160.578313 
L 46.966895 164.181091 
L 63.871899 167.626661 
L 63.949201 170.698701 
L 72.565143 173.155116 
L 72.811974 175.951088 
L 48.7482 182.057415 
L 49.286714 185.597842 
L 43.900903 190.331201 
L 44.70196 194.019946 
L 63.460476 192.915997 
L 64.333134 195.988469 
L 20.075404 214.215995 
L 21.639231 218.642058 
L 54.696967 210.244961 
L 56.118819 213.584409 
L 52.10119 219.553381 
L 53.817002 222.969844 
L 58.321701 224.821151 
L 60.200067 228.039422 
L 80.899151 219.052387 
L 82.584972 221.563626 
L 94.853811 216.225658 
L 96.443854 218.299529 
L 58.709479 253.585182 
L 61.492058 256.777039 
L 86.039158 239.115092 
L 88.353253 241.454799 
L 67.817386 268.637483 
L 71.068739 271.535526 
L 80.221683 267.154894 
L 83.420287 269.663651 
L 72.430556 292.140285 
L 76.418608 294.881659 
L 91.439368 279.839425 
L 95.031256 281.989202 
L 108.506007 265.714883 
L 111.64535 267.335031 
L 107.788552 284.248277 
L 111.51098 285.88182 
L 108.116239 306.076159 
L 112.524821 307.688606 
L 137.676751 243.073384 
L 140.089772 243.787535 
L 141.607386 248.162035 
L 144.178463 248.750082 
L 143.502753 267.433643 
L 146.678834 267.952567 
L 147.578315 288.246053 
L 151.406769 288.626542 
L 155.085658 291.960222 
L 159.027181 292.102827 
L 163.25072 317.512543 
L 167.991627 317.385787 
L 167.556184 247.278999 
L 170.086666 247.051595 
L 173.028479 249.793883 
L 175.635329 249.393175 
L 191.660413 315.27882 
L 196.317041 314.259905 
L 194.347947 288.572839 
L 198.163551 287.482627 
L 196.283838 269.504265 
L 199.498927 268.362612 
L 193.352104 244.331055 
L 195.777142 243.294029 
L 207.564455 261.569734 
L 210.524488 260.077317 
L 214.192999 259.832536 
L 217.095133 258.132562 
L 239.672781 286.651243 
L 243.405556 284.136869 
L 244.759937 278.420306 
L 248.231399 275.75005 
L 222.271559 238.332369 
L 224.493687 236.389018 
L 237.852953 246.025222 
L 240.309257 243.588153 
L 270.476183 266.558597 
L 273.561972 263.08563 
L 263.366111 248.882577 
L 265.899642 245.641907 
L 225.006448 211.630986 
L 226.387673 209.614846 
L 272.871847 235.464751 
L 274.978792 231.931834 
L 275.616168 227.609361 
L 277.474765 223.99404 
L 293.222103 226.705084 
L 295.043564 222.53664 
L 259.353278 204.038364 
L 260.478792 200.946038 
L 237.996934 190.498647 
L 238.707289 188.084506 
L 290.925929 198.218164 
L 291.852833 194.136002 
L 247.954112 182.072975 
L 248.394623 179.349924 
L 274.743944 179.569875 
L 275.092506 176.00573 
L 295.309842 173.438598 
L 295.455455 169.230848 
L 265.461575 165.398078 
L 265.369134 162.132799 
L 292.029 156.841342 
L 291.654381 152.744955 
L 259.142115 153.119897 
L 258.666746 150.059386 
L 287.49913 141.016221 
L 286.629175 137.070088 
L 299.748455 129.336025 
L 298.505192 125.010521 
L 260.692195 133.086055 
L 259.586152 129.986711 
L 246.284151 131.896308 
L 245.147823 129.250573 
L 278.524707 109.808741 
L 276.677957 106.160213 
L 267.354131 106.745904 
L 265.416602 103.450117 
L 234.386826 119.153294 
L 232.855712 116.887938 
L 224.472739 119.736991 
L 222.96488 117.783067 
L 244.84949 95.945278 
L 242.583492 93.362427 
L 264.052932 67.882642 
L 260.895089 64.709868 
L 235.314315 86.058879 
L 232.742181 83.780723 
L 248.915518 58.206493 
L 245.46092 55.514456 
L 235.265988 62.36102 
L 231.948766 60.0961 
L 222.510356 67.765047 
L 219.369355 65.89852 
L 212.91808 70.245302 
L 209.859807 68.679151 
L 201.98306 77.719948 
L 199.165212 76.493923 
L 201.777836 60.971649 
L 198.433487 59.760357 
L 194.825073 59.389851 
L 191.434426 58.397952 
L 181.317903 85.184991 
L 178.74499 84.605032 
L 186.577302 24.999094 
L 182.109413 24.283526 
L 175.22095 45.119949 
L 171.391319 44.751501 
L 168.976691 15.298357 
L 164.212491 15.140987 
L 160.295018 75.14647 
L 157.416866 75.232481 
L 154.483616 74.641753 
L 151.592468 74.910736 
L 141.627445 24.981656 
L 137.181231 25.679419 
L 132.604146 25.762936 
L 128.186959 26.744024 
L 139.160482 84.290961 
L 136.580302 85.036967 
L 128.064656 68.384593 
L 124.989832 69.48734 
L 126.355597 81.354945 
L 123.689434 82.505015 
L 126.127003 94.109145 
L 123.861973 95.260097 
L 94.235493 48.328759 
L 90.546795 50.505085 
L 100.848463 74.033478 
L 97.964708 75.989169 
L 112.217034 100.817871 
L 110.169818 102.402866 
L 64.740673 53.109055 
L 61.216861 56.210399 
L 87.219706 89.836496 
L 84.839572 92.212891 
L 72.297937 85.333796 
L 69.783606 88.18159 
L 52.355167 79.069183 
L 49.653722 82.547119 
L 65.941177 99.393405 
L 63.872054 102.434119 
L 54.685064 101.111875 
L 52.675538 104.505656 
L 28.338357 96.068028 
L 26.183268 100.2927 
L 41.691248 112.50673 
L 40.046426 116.30343 
L 88.900909 139.207476 
L 88.072275 141.5066 
L 75.550092 140.207023 
L 74.759487 142.925431 
L 15.697393 131.642436 
L 14.667091 136.246979 
L 74.421542 151.47573 
L 73.985808 154.224051 
L 17.804987 150.814615 
L 17.376458 155.343412 
L 47.06665 161.298498 
L 46.95329 164.90206 
L 63.87963 168.241239 
L 63.976252 171.312732 
L 72.607473 173.71491 
L 72.871884 176.509274 
L 48.846991 182.766828 
L 49.407762 186.303798 
L 44.051828 191.070936 
L 44.876069 194.754571 
L 63.627271 193.532663 
L 64.519236 196.599585 
L 20.377022 215.105107 
L 21.968656 219.521246 
L 54.972925 210.916402 
L 56.415751 214.246841 
L 52.435744 220.240963 
L 54.17301 223.646567 
L 58.689263 225.469505 
L 60.587833 228.675899 
L 81.229984 219.558856 
L 82.931566 222.059443 
L 95.16659 216.644416 
L 96.769645 218.708246 
L 59.257943 254.230529 
L 62.060542 257.404822 
L 86.496072 239.588837 
L 88.824837 241.913943 
L 68.46034 269.225249 
L 71.729855 272.102784 
L 80.855067 267.664673 
L 84.069387 270.153263 
L 73.221238 292.698571 
L 77.226453 295.414808 
L 92.152309 280.2784 
L 95.757646 282.405543 
L 109.129775 266.046798 
L 112.279245 267.647169 
L 108.528898 284.584338 
L 112.261527 286.194436 
L 108.993864 306.409726 
L 113.4125 307.994415 
L 138.157539 243.22228 
L 140.575005 243.921239 
L 142.120102 248.286108 
L 144.694826 248.857973 
L 144.136639 267.545414 
L 147.315921 268.044352 
L 148.343018 288.331779 
L 152.173789 288.688182 
L 155.873573 291.998658 
L 159.815915 292.11647 
L 164.199183 317.49912 
L 168.939199 317.342549 
L 168.062832 247.239886 
L 170.591834 246.996571 
L 173.550836 249.720303 
L 176.155114 249.303207 
L 192.594265 315.08676 
L 197.244392 314.038578 
L 195.11378 288.364405 
L 198.922452 287.250216 
L 196.929703 269.284032 
L 200.137548 268.122181 
L 193.839701 244.129759 
L 196.258169 243.077501 
L 208.160193 261.278709 
L 211.110781 259.767705 
L 214.77768 259.499856 
L 217.669064 257.781663 
L 240.425632 286.157779 
L 244.142519 283.619978 
L 245.46092 277.895009 
L 248.915518 275.202973 
L 222.720856 237.949305 
L 224.930717 235.992016 
L 238.350326 245.544007 
L 240.791253 243.091538 
L 271.102054 265.871794 
L 274.165938 262.379489 
L 263.88095 248.240843 
L 266.394049 244.984302 
L 225.287754 211.231249 
L 226.656272 209.206461 
L 273.302108 234.763496 
L 275.386791 231.217397 
L 275.996968 226.891001 
L 277.832791 223.264062 
L 293.596868 225.87601 
L 295.392075 221.696194 
L 259.586152 203.422755 
L 260.692195 200.323411 
L 238.145073 190.017625 
L 238.840231 187.599064 
L 291.121572 197.404096 
L 292.022784 193.316185 
L 248.049062 181.529495 
L 248.472437 178.803727 
L 274.822621 178.857951 
L 275.148759 175.291685 
L 295.349549 172.597448 
L 295.468695 168.388865 
L 265.451302 164.744816 
L 265.338327 161.480182 
L 291.964385 156.021155 
L 291.56401 151.927205 
L 259.054745 152.506623 
L 258.560136 149.449162 
L 287.335074 140.224837 
L 286.440316 136.284253 
L 299.510695 128.467831 
L 298.240251 124.150232 
L 260.478792 132.463428 
L 259.353278 129.371102 
L 246.063551 131.364323 
L 244.910605 128.725787 
L 278.164551 109.074418 
L 276.29489 105.437577 
L 266.974932 106.081898 
L 265.016713 102.798363 
L 234.086314 118.696389 
L 232.540983 116.440707 
L 224.176095 119.342428 
L 222.655976 117.398026 
L 244.402806 95.423027 
L 242.120608 92.854479 
L 263.429371 67.240168 
L 260.251635 64.087317 
L 234.80564 85.596795 
L 232.219229 83.334861 
L 248.231399 57.659416 
L 244.759937 54.98916 
L 234.608268 61.899708 
L 231.276866 59.655697 
L 221.886876 67.383854 
L 218.734198 65.537119 
L 212.31039 69.92439 
L 209.242327 68.377505 
L 201.422597 77.467663 
L 198.597094 76.259385 
L 201.11204 60.720986 
L 197.760139 59.530753 
L 194.149466 59.182949 
L 190.752648 58.212394 
L 180.8048 85.062531 
L 178.22829 84.498766 
L 185.68556 24.844745 
L 181.213258 24.157292 
L 174.455981 45.036627 
L 170.624109 44.692273 
L 168.024285 15.254898 
L 163.259189 15.127495 
L 159.719194 75.156431 
L 156.84164 75.260541 
L 153.904732 74.688273 
L 151.015334 74.975435 
L 140.736482 25.110017 
L 136.294745 25.83573 
L 131.718276 25.948033 
L 127.307346 26.956884 
L 138.64259 84.433665 
L 136.067153 85.195883 
L 127.446941 68.597398 
L 124.379113 69.719462 
L 125.819493 81.578242 
L 123.160616 82.745058 
L 125.67112 94.333628 
L 123.413373 95.498803 
L 93.492307 48.754727 
L 89.81737 50.95421 
L 100.266815 74.417346 
L 97.395417 76.391135 
L 111.803619 101.129707 
L 109.766413 102.727547 
L 64.028136 53.720434 
L 60.5239 56.84388 
L 86.73772 90.305768 
L 84.372578 92.697086 
L 71.787926 85.897007 
L 69.291556 88.760558 
L 51.80615 79.757946 
L 49.126633 83.252804 
L 65.519719 99.996318 
L 63.469761 103.049985 
L 54.274636 101.785549 
L 52.286495 105.191901 
L 27.896728 96.907507 
L 25.768252 101.14565 
L 41.352745 113.261902 
L 39.731834 117.068872 
L 88.729404 139.665198 
L 87.915247 141.969488 
L 75.385139 140.748694 
L 74.611646 143.472021 
L 15.479757 132.560716 
L 14.478435 137.171648 
L 74.327485 152.024276 
L 73.909044 154.775284 
L 17.707891 151.71926 
L 17.307854 156.250663 
L 47.034913 162.018897 
L 46.94422 165.623101 
L 63.891227 168.855756 
L 64.007165 171.926581 
L 72.653323 174.274426 
L 72.935304 177.067071 
L 48.950243 183.475604 
L 49.533248 187.008978 
L 44.207402 191.809707 
L 45.054795 195.488085 
L 63.797941 194.148267 
L 64.709177 197.209519 
L 20.684226 215.992304 
L 22.303603 220.398346 
L 55.2531 211.586093 
L 56.716845 214.907392 
L 52.774615 220.926428 
L 54.533266 224.321037 
L 59.060895 226.115535 
L 60.979594 229.309925 
L 81.563996 220.063235 
L 83.281272 222.55307 
L 95.481996 217.061199 
L 97.098 219.114906 
L 59.810455 254.872413 
L 62.632963 258.029017 
L 86.955957 240.059699 
L 89.2993 242.370112 
L 69.106977 269.808959 
L 72.394527 272.665874 
L 81.491645 268.170458 
L 84.721553 270.638782 
L 74.015416 293.251874 
L 78.037635 295.942866 
L 92.867996 280.712882 
L 96.486641 282.817308 
L 109.755618 266.374783 
L 112.915091 267.955314 
L 109.271344 284.915735 
L 113.014025 286.502326 
L 109.873569 306.737768 
L 114.302085 308.294634 
L 138.639255 243.368148 
L 141.061069 244.05189 
L 142.633587 248.406954 
L 145.211857 248.962614 
L 144.771215 267.653196 
L 147.953572 268.132129 
L 149.108246 288.412694 
L 152.941182 288.744997 
L 156.661714 292.032138 
L 160.604719 292.125153 
L 165.147543 317.479732 
L 169.88648 317.293352 
L 168.569225 247.197587 
L 171.096646 246.938372 
L 174.072721 249.643439 
L 176.674324 249.209972 
L 193.526891 314.888831 
L 198.170334 313.811423 
L 195.878288 288.151158 
L 199.679877 287.013037 
L 197.574169 269.059741 
L 200.774644 267.877737 
L 194.326023 243.9254 
L 196.737825 242.857952 
L 208.754089 260.983943 
L 211.695115 259.454411 
L 215.360256 259.163505 
L 218.240778 257.427161 
L 241.175365 285.65959 
L 244.876217 283.098462 
L 246.158585 277.365314 
L 249.596183 274.651603 
L 223.167735 237.563422 
L 225.365242 235.592273 
L 238.844662 245.059674 
L 241.270117 242.591901 
L 271.723593 265.181069 
L 274.765452 261.669563 
L 264.391743 247.595883 
L 266.88431 244.3236 
L 225.566541 210.82975 
L 226.922297 208.796395 
L 273.727949 234.059549 
L 275.790288 230.500409 
L 276.373243 226.17026 
L 278.186218 222.531847 
L 293.966411 225.044597 
L 295.735294 220.853572 
L 259.815149 202.805693 
L 260.901677 199.699454 
L 238.290183 189.535681 
L 238.970116 187.112795 
L 291.312092 196.588813 
L 292.187575 192.495315 
L 248.140591 180.985428 
L 248.546815 178.257051 
L 274.896818 178.145546 
L 275.20052 174.577299 
L 295.383965 171.756064 
L 295.476639 167.546816 
L 265.436921 164.091631 
L 265.303415 160.827772 
L 291.894613 155.20139 
L 291.468497 151.110039 
L 258.963519 151.893911 
L 258.44969 148.839621 
L 287.166043 139.4345 
L 286.246519 135.499622 
L 299.267478 127.601149 
L 297.969905 123.291625 
L 260.261478 131.842156 
L 259.116537 128.756969 
L 245.839609 130.833736 
L 244.670091 128.202504 
L 277.799783 108.342375 
L 275.907286 104.717365 
L 266.591565 105.42029 
L 264.612732 102.149136 
L 233.782935 118.241383 
L 232.223448 115.995465 
L 223.876975 118.949739 
L 222.344657 117.014936 
L 243.952846 94.903596 
L 241.654539 92.349453 
L 262.801781 66.601628 
L 259.604279 63.468826 
L 234.294069 85.137919 
L 231.693483 82.892297 
L 247.543852 57.116652 
L 244.055665 54.468283 
L 233.947659 61.442542 
L 230.60221 59.219528 
L 221.261012 67.00659 
L 218.096781 65.179721 
L 211.700693 69.607307 
L 208.622962 68.079749 
L 200.860559 77.218909 
L 198.027512 76.028425 
L 200.444681 60.474516 
L 197.08536 59.305388 
L 193.472571 58.9803 
L 190.069715 58.031128 
L 180.290937 84.9433 
L 177.710932 84.395751 
L 184.792864 24.696008 
L 180.316327 24.036697 
L 173.690503 44.958119 
L 169.856541 44.637872 
L 167.071624 15.21743 
L 162.305821 15.12 
L 159.143444 75.170013 
L 156.266602 75.292219 
L 153.326153 74.738434 
L 150.438617 75.043763 
L 139.846344 25.24398 
L 135.409259 25.997614 
L 130.833587 26.138698 
L 126.42909 27.175271 
L 138.125605 84.579623 
L 135.555014 85.358025 
L 126.830577 68.814084 
L 123.769867 69.955421 
L 125.284803 81.804907 
L 122.633317 82.988423 
L 125.216657 94.560974 
L 122.966283 95.740326 
L 92.751815 49.185361 
L 89.090785 51.407913 
L 99.687592 74.804864 
L 96.828666 76.796674 
L 111.392174 101.444137 
L 109.365058 103.054758 
L 63.319458 54.336282 
L 59.834936 57.481706 
L 86.258694 90.778062 
L 83.908639 93.184208 
L 71.281468 86.463414 
L 68.803156 89.34261 
L 51.261475 80.450149 
L 48.603992 83.96179 
L 65.102061 100.60187 
L 63.071349 103.66837 
L 53.868454 102.46179 
L 51.901776 105.88058 
L 27.460387 97.749747 
L 25.358609 102.001194 
L 41.018998 114.019188 
L 39.422063 117.836278 
L 88.560782 140.123989 
L 87.761133 142.433354 
L 75.223595 141.291392 
L 74.467246 144.01953 
L 15.2679 133.480347 
L 14.295599 138.097486 
L 74.236879 152.573403 
L 73.835749 155.326988 
L 17.616486 152.624499 
L 17.244958 157.158327 
L 47.007708 162.739481 
L 46.939684 166.344184 
L 63.906688 169.470188 
L 64.041937 172.540223 
L 72.702691 174.833642 
L 73.002231 177.624459 
L 49.05795 184.183718 
L 49.663167 187.713354 
L 44.36762 192.547486 
L 45.238131 196.220461 
L 63.972479 194.762786 
L 64.902951 197.818246 
L 20.997004 216.877552 
L 22.64406 221.273321 
L 55.537482 212.254009 
L 57.022086 215.566036 
L 53.117791 221.609747 
L 54.897757 224.993229 
L 59.436583 226.759215 
L 61.375335 229.941474 
L 81.901174 220.565502 
L 83.634075 223.044488 
L 95.800017 217.475989 
L 97.428905 219.519492 
L 60.366993 255.51081 
L 63.209298 258.649599 
L 87.418795 240.527658 
L 89.776622 242.823288 
L 69.757274 270.38859 
L 73.062727 273.224772 
L 82.131391 268.672229 
L 85.376759 271.12019 
L 74.813058 293.80017 
L 78.852122 296.465812 
L 93.586402 281.142854 
L 97.218211 283.224479 
L 110.383511 266.698825 
L 113.552863 268.259454 
L 110.015859 285.242457 
L 113.768445 286.805477 
L 110.755321 307.06027 
L 115.193541 308.589253 
L 139.121878 243.510984 
L 141.547944 244.17948 
L 143.147823 248.524568 
L 145.729537 249.064001 
L 145.406456 267.756985 
L 148.591762 268.215893 
L 149.873967 288.488795 
L 153.708917 288.796984 
L 157.450049 292.06066 
L 161.393562 292.128874 
L 166.095762 317.45438 
L 170.833433 317.238198 
L 169.075341 247.152105 
L 171.601082 246.876998 
L 174.594111 249.563294 
L 177.192937 249.113473 
L 194.458253 314.68504 
L 199.094828 313.578449 
L 196.641439 287.933107 
L 200.435794 286.771098 
L 198.217213 268.831402 
L 201.41019 267.629292 
L 194.81105 243.717987 
L 197.21609 242.635391 
L 209.346119 260.685448 
L 212.277467 259.137449 
L 215.940706 258.823497 
L 218.81025 257.06907 
L 241.921949 285.156695 
L 245.60662 282.572341 
L 246.852905 276.831242 
L 250.273367 274.095964 
L 223.612178 237.174736 
L 225.797245 235.189805 
L 239.335942 244.572241 
L 241.745828 242.089262 
L 272.340775 264.486448 
L 275.360488 260.95588 
L 264.898469 246.947723 
L 267.370406 243.659829 
L 225.842797 210.426506 
L 227.185737 208.384665 
L 274.149355 233.352938 
L 276.189268 229.780897 
L 276.744977 225.447168 
L 278.535032 221.797423 
L 294.330717 224.210875 
L 296.073206 220.008808 
L 260.040261 202.187203 
L 261.107231 199.074192 
L 238.43226 189.052834 
L 239.096941 186.62572 
L 291.49748 195.772349 
L 292.3472 191.673425 
L 248.228696 180.440796 
L 248.617752 177.709919 
L 274.966533 177.432689 
L 275.247787 173.862603 
L 295.413089 170.914481 
L 265.469793 166.704733 
z
" clip-path="url(#p0f763e3264)" style="fill: #0000ff; opacity: 0.5; stroke: #000000; stroke-width: 1.5; stroke-linejoin: miter"/>
   </g>
  </g>
 </g>
 <defs>
  <clipPath id="p0f763e3264">
   <rect x="0" y="-0" width="314.50317" height="332.64"/>
  </clipPath>
 </defs>
</svg>
