<?xml version="1.0" encoding="utf-8" standalone="no"?>
<!DOCTYPE svg PUBLIC "-//W3C//DTD SVG 1.1//EN"
  "http://www.w3.org/Graphics/SVG/1.1/DTD/svg11.dtd">
<svg xmlns:xlink="http://www.w3.org/1999/xlink" width="328.415262pt" height="332.64pt" viewBox="0 0 328.415262 332.64" xmlns="http://www.w3.org/2000/svg" version="1.1">
 <metadata>
  <rdf:RDF xmlns:dc="http://purl.org/dc/elements/1.1/" xmlns:cc="http://creativecommons.org/ns#" xmlns:rdf="http://www.w3.org/1999/02/22-rdf-syntax-ns#">
   <cc:Work>
    <dc:type rdf:resource="http://purl.org/dc/dcmitype/StillImage"/>
    <dc:date>2023-12-09T18:06:27.876455</dc:date>
    <dc:format>image/svg+xml</dc:format>
    <dc:creator>
     <cc:Agent>
      <dc:title>Matplotlib v3.8.2, https://matplotlib.org/</dc:title>
     </cc:Agent>
    </dc:creator>
   </cc:Work>
  </rdf:RDF>
 </metadata>
 <defs>
  <style type="text/css">*{stroke-linejoin: round; stroke-linecap: butt}</style>
 </defs>
 <g id="figure_1">
  <g id="patch_1">
   <path d="M 0 332.64 
L 328.415262 332.64 
L 328.415262 0 
L 0 0 
L 0 332.64 
z
" style="fill: none"/>
  </g>
  <g id="axes_1">
   <g id="patch_2">
    <path d="M 265.04169 163.69584 
L 264.988192 160.293729 
L 278.527741 156.032187 
L 278.226613 152.209833 
L 296.230715 146.068831 
L 295.607565 141.694784 
L 241.706332 147.490046 
L 241.154826 144.829662 
L 296.828223 127.715325 
L 295.627703 123.331565 
L 282.003876 122.983976 
L 280.661921 119.068666 
L 290.457456 110.734447 
L 288.72617 106.559394 
L 272.985406 108.979295 
L 271.207572 105.35447 
L 270.024048 101.397974 
L 268.009305 97.870008 
L 238.62337 111.729311 
L 236.948992 109.183543 
L 249.56063 96.240918 
L 247.393855 93.358917 
L 260.682949 77.668058 
L 257.926704 74.44553 
L 262.717217 64.119643 
L 259.533974 60.839851 
L 250.726426 63.552551 
L 247.531281 60.650057 
L 254.015459 46.019571 
L 250.267413 43.022331 
L 223.674626 71.522558 
L 220.743451 69.466691 
L 225.524765 55.224194 
L 222.080218 53.118213 
L 222.453648 44.041435 
L 218.65901 42.037546 
L 223.034766 22.60955 
L 218.565975 20.597985 
L 203.960068 44.266313 
L 200.181644 42.843791 
L 196.360362 41.540775 
L 192.499998 40.358552 
L 186.806366 46.339662 
L 183.101614 45.455465 
L 175.315257 66.109568 
L 172.237796 65.576901 
L 168.444794 70.750058 
L 165.516637 70.43112 
L 164.11395 45.219627 
L 160.385201 45.049483 
L 156.60597 15.12 
L 151.934535 15.200805 
L 151.065393 74.251926 
L 148.255935 74.477703 
L 139.403681 27.536352 
L 135.131149 28.151896 
L 131.338193 31.280198 
L 127.187364 32.147487 
L 135.604606 81.612888 
L 133.034237 82.321146 
L 127.726704 74.667533 
L 124.941854 75.626924 
L 114.123217 56.41818 
L 110.771292 57.814317 
L 111.953528 68.804309 
L 108.992123 70.262542 
L 81.868677 27.9922 
L 77.638925 30.416545 
L 112.558785 94.249164 
L 110.397123 95.675786 
L 82.574104 61.949932 
L 79.411709 64.335307 
L 101.099327 96.627214 
L 99.018102 98.412971 
L 95.331678 98.501267 
L 93.312229 100.467444 
L 65.987929 78.788156 
L 63.363165 81.686712 
L 87.638474 106.733035 
L 85.881653 108.937034 
L 50.817758 87.073256 
L 48.460996 90.444699 
L 36.650945 87.85585 
L 34.325795 91.672342 
L 51.254636 106.012703 
L 49.493155 109.361045 
L 79.294709 127.461822 
L 78.193773 129.917918 
L 77.170606 132.407416 
L 76.22622 134.927853 
L 67.674941 135.003237 
L 66.816868 137.820955 
L 63.699752 140.068616 
L 63.002911 143.008818 
L 60.018003 145.522594 
L 59.494467 148.575862 
L 18.996539 146.704836 
L 18.530458 151.047324 
L 15.783033 155.257666 
L 15.587461 159.696965 
L 68.824876 163.972624 
L 68.877096 166.739863 
L 48.873342 170.836259 
L 49.151234 174.227424 
L 72.758115 174.597296 
L 73.142453 177.235612 
L 37.146876 186.942216 
L 37.936972 190.694123 
L 53.691691 190.553463 
L 54.587153 193.78338 
L 14.927966 210.349062 
L 16.465011 214.788007 
L 63.873957 200.88283 
L 65.089162 203.787487 
L 82.441699 199.031156 
L 83.589503 201.352918 
L 24.78487 236.922111 
L 27.152556 241.037995 
L 71.138629 218.530474 
L 72.905123 221.197988 
L 50.6503 241.460812 
L 53.147904 244.761187 
L 50.786496 252.118114 
L 53.619121 255.408937 
L 61.832016 253.613636 
L 64.706202 256.556424 
L 73.175699 253.499266 
L 76.040681 256.085441 
L 101.522253 231.113714 
L 103.669369 232.819679 
L 98.317874 244.940468 
L 100.901318 246.74035 
L 95.803052 260.762312 
L 98.885212 262.633442 
L 104.340804 260.151347 
L 107.399534 261.754334 
L 112.89191 258.13571 
L 115.883035 259.470828 
L 107.154994 290.793532 
L 111.175789 292.292883 
L 124.34896 265.210269 
L 127.55686 266.181654 
L 118.560052 315.597627 
L 123.355103 316.726115 
L 137.636897 266.896701 
L 140.891253 267.44945 
L 138.309899 315.993645 
L 143.107637 316.500959 
L 149.468327 290.255466 
L 153.451283 290.42466 
L 157.231907 246.865189 
L 159.84674 246.811732 
L 163.440562 261.177488 
L 166.502335 260.921742 
L 171.551118 275.781474 
L 175.068062 275.263493 
L 178.722177 275.427611 
L 182.224449 274.684332 
L 180.788933 255.084839 
L 183.650562 254.286634 
L 204.729428 308.600698 
L 209.261876 307.023291 
L 205.914574 285.823645 
L 209.730276 284.220237 
L 216.621816 289.057256 
L 220.533896 287.11559 
L 207.889834 255.418427 
L 210.748552 253.767946 
L 241.038622 294.835711 
L 245.120317 292.123469 
L 210.865956 237.226867 
L 213.151221 235.491804 
L 209.164035 226.253189 
L 211.105104 224.577063 
L 263.029775 275.544107 
L 266.494026 272.149953 
L 256.832956 256.559761 
L 259.703362 253.369835 
L 255.596564 244.467867 
L 258.087385 241.322795 
L 240.143951 223.502488 
L 241.983215 220.853646 
L 251.264943 222.864637 
L 253.078653 219.866442 
L 243.439792 210.654226 
L 244.873449 207.908108 
L 282.851393 222.094677 
L 284.625276 218.103716 
L 248.646865 199.418513 
L 249.724672 196.514229 
L 236.860803 189.168724 
L 237.622161 186.640087 
L 253.186493 187.814391 
L 253.897196 184.773108 
L 267.217269 184.054417 
L 267.802813 180.573834 
L 260.261433 176.113921 
L 260.60075 172.855971 
L 313.239494 172.558367 
L 313.440822 167.63643 
L 265.03955 163.01531 
L 264.964656 159.613603 
L 278.477135 155.266989 
L 278.151972 151.446605 
L 296.117094 145.192489 
L 295.466446 140.822447 
L 241.602729 146.956603 
L 241.034501 144.29974 
L 296.599157 126.835587 
L 295.371089 122.459465 
L 281.745345 122.197569 
L 280.378792 118.290776 
L 290.121716 109.895113 
L 288.364205 105.731032 
L 272.638973 108.249886 
L 270.838376 104.636314 
L 269.629991 100.68734 
L 267.593099 97.172115 
L 238.294912 111.215965 
L 236.604556 108.680779 
L 249.134543 95.659089 
L 246.949685 92.790773 
L 260.13983 77.016644 
L 257.363371 73.811514 
L 262.088845 63.455702 
L 258.885037 60.195996 
L 250.094725 62.964037 
L 246.881388 60.081696 
L 253.27342 45.410717 
L 249.506597 42.43711 
L 223.093586 71.104027 
L 220.149539 69.066636 
L 224.841181 54.794349 
L 221.383457 52.710074 
L 221.699792 43.631126 
L 217.892625 41.651143 
L 222.146104 22.19601 
L 217.66475 20.212591 
L 203.207992 43.972314 
L 199.420696 42.573585 
L 195.591294 41.294627 
L 191.723571 40.136707 
L 186.067669 46.153509 
L 182.357429 45.292631 
L 174.70113 65.995296 
L 171.620379 65.481996 
L 167.859988 70.678906 
L 164.929883 70.378391 
L 163.368657 45.176219 
L 159.638913 45.02953 
L 155.671516 15.124408 
L 151.000683 15.234592 
L 150.502956 74.290012 
L 147.694974 74.533454 
L 138.54766 27.648707 
L 134.279084 28.291111 
L 130.505878 31.443206 
L 126.360585 32.336585 
L 135.088771 81.748068 
L 132.522907 82.472478 
L 127.167343 74.852398 
L 124.388581 75.829285 
L 113.449346 56.688963 
L 110.106268 58.106155 
L 111.357602 69.088494 
L 108.405427 70.565324 
L 81.016661 28.466409 
L 76.80224 30.917309 
L 112.122881 94.529039 
L 109.970234 95.969228 
L 81.935649 62.419032 
L 78.788319 64.82425 
L 100.678606 96.979115 
L 98.608653 98.777926 
L 94.922858 98.889406 
L 92.915815 100.868246 
L 65.455705 79.361241 
L 62.849223 82.276247 
L 87.281579 107.169397 
L 85.538655 109.384402 
L 50.337942 87.741589 
L 48.002432 91.127788 
L 36.176332 88.613269 
L 33.875231 92.444309 
L 50.89393 106.677914 
L 49.153544 110.037268 
L 79.068352 127.950252 
L 77.982884 130.413224 
L 76.975395 132.909107 
L 76.04688 135.435434 
L 67.496245 135.5646 
L 66.655911 138.387659 
L 63.552992 140.65488 
L 62.874658 143.599407 
L 59.905618 146.131906 
L 59.401297 149.188407 
L 18.892402 147.572127 
L 18.453642 151.917461 
L 15.732751 156.144998 
L 15.565104 160.58544 
L 68.828358 164.526181 
L 68.897981 167.293037 
L 48.920387 171.515164 
L 49.219601 174.904514 
L 72.828342 175.125905 
L 73.229266 177.761751 
L 37.295449 187.694555 
L 38.109128 191.441419 
L 53.862651 191.201674 
L 54.778409 194.425894 
L 15.224196 211.240682 
L 16.789128 215.669873 
L 64.109681 201.466796 
L 65.343131 204.363752 
L 82.665409 199.498378 
L 83.827793 201.812875 
L 25.248034 237.751212 
L 27.641559 241.852123 
L 71.485203 219.0684 
L 73.268439 221.724751 
L 51.141498 242.127144 
L 53.65981 245.411745 
L 51.344719 252.783379 
L 54.197986 256.056321 
L 62.399427 254.209401 
L 65.292065 257.134054 
L 73.742166 254.023689 
L 76.623358 256.591793 
L 101.947367 231.460296 
L 104.105171 233.152723 
L 98.830015 245.30693 
L 101.424728 247.090527 
L 96.414752 261.144278 
L 99.50862 262.995986 
L 104.948493 260.479627 
L 108.017244 262.063344 
L 113.486752 258.410248 
L 116.486215 259.726527 
L 107.955349 291.103506 
L 111.985495 292.577539 
L 124.988071 265.412609 
L 128.202017 266.363799 
L 119.516185 315.835379 
L 124.318239 316.933687 
L 138.286352 267.015433 
L 141.54412 267.547704 
L 139.268132 316.107174 
L 144.068966 316.584303 
L 150.264461 290.299324 
L 154.248403 290.443464 
L 157.754988 246.861077 
L 160.369432 246.791175 
L 164.053536 261.134044 
L 167.11364 260.859045 
L 172.255782 275.68673 
L 175.769399 275.14664 
L 179.424473 275.287772 
L 182.922002 274.52248 
L 181.363244 254.932403 
L 184.219796 254.116216 
L 205.639851 308.296632 
L 210.162288 306.69075 
L 206.681718 285.512576 
L 210.48726 283.885201 
L 217.409086 288.67878 
L 221.308876 286.712547 
L 208.465707 255.095536 
L 211.313989 253.427107 
L 241.861752 294.303553 
L 245.926307 291.565693 
L 211.327356 236.885618 
L 213.601663 235.136216 
L 209.55645 225.92286 
L 211.486939 224.23456 
L 263.731137 274.874018 
L 267.173972 271.458144 
L 257.41504 255.929022 
L 260.265326 252.721107 
L 256.102621 243.845144 
L 258.573612 240.684468 
L 240.518453 222.977368 
L 242.341021 220.317011 
L 251.635214 222.269585 
L 253.430031 219.260042 
L 243.733421 210.108631 
L 245.149778 207.353551 
L 283.216196 221.300979 
L 284.964944 217.29894 
L 248.869724 198.840391 
L 249.929243 195.929385 
L 237.01943 188.664932 
L 237.76487 186.131556 
L 253.336279 187.207947 
L 254.027841 184.162254 
L 267.34313 183.359801 
L 267.906771 179.875605 
L 260.337491 175.46321 
L 260.65631 172.203191 
L 313.292141 171.574525 
L 313.462509 166.651419 
L 265.03313 162.334807 
L 264.936842 158.933638 
L 278.421716 154.502124 
L 278.072532 150.683861 
L 295.997964 144.316878 
L 295.319843 139.951015 
L 241.495772 146.423822 
L 240.910845 143.770586 
L 296.364563 125.957308 
L 295.108996 121.588996 
L 281.481874 121.412804 
L 280.090776 117.514683 
L 289.780704 109.057909 
L 287.997038 104.904963 
L 272.287959 107.52267 
L 270.46467 103.920494 
L 269.231472 99.979198 
L 267.172512 96.476854 
L 237.963232 110.704695 
L 236.256965 108.18019 
L 248.704804 95.079952 
L 246.50195 92.225434 
L 259.592623 76.368658 
L 256.796061 73.181055 
L 261.456309 62.795727 
L 258.232063 59.556235 
L 249.459334 62.379508 
L 246.227933 59.517433 
L 252.527566 44.806542 
L 248.742115 41.856685 
L 222.509926 70.689158 
L 219.553123 68.670324 
L 224.154907 54.368811 
L 220.684143 52.306324 
L 220.94337 43.225567 
L 217.123826 41.269568 
L 221.254859 21.788068 
L 216.761119 19.832873 
L 202.454082 43.683051 
L 198.658064 42.308169 
L 194.820693 41.053322 
L 190.945765 39.919751 
L 185.327816 45.972006 
L 181.612236 45.13448 
L 174.086295 65.88489 
L 171.002377 65.390976 
L 167.274747 70.611434 
L 164.34281 70.329353 
L 162.623107 45.137499 
L 158.892513 45.014271 
L 154.737109 15.134693 
L 150.067061 15.274252 
L 149.940769 74.331634 
L 147.134374 74.592732 
L 137.692362 27.766443 
L 133.427911 28.435681 
L 129.674605 31.611446 
L 125.535013 32.530878 
L 134.573796 81.886489 
L 132.012539 82.627023 
L 126.609155 75.040776 
L 123.836592 76.035121 
L 112.777191 56.96398 
L 109.443094 58.402169 
L 110.763475 69.376421 
L 107.820647 70.871789 
L 80.167644 28.945967 
L 75.968722 31.423324 
L 111.688745 94.811649 
L 109.545199 96.265349 
L 81.300157 62.892138 
L 78.168016 65.317104 
L 100.260106 97.333656 
L 98.201508 99.14545 
L 94.516487 99.280109 
L 92.521929 101.271533 
L 64.927096 79.937661 
L 62.338999 82.869004 
L 86.927435 107.607996 
L 85.198477 109.833918 
L 49.86234 88.412926 
L 47.548173 91.813747 
L 35.706492 89.373657 
L 33.429531 93.219094 
L 50.537415 107.345379 
L 48.818191 110.715614 
L 78.84507 128.440096 
L 77.775115 130.909846 
L 76.783343 133.412017 
L 75.870736 135.944134 
L 67.321082 136.127075 
L 66.49852 138.955364 
L 63.409923 141.242055 
L 62.750121 144.19079 
L 59.797068 146.741913 
L 59.31198 149.801525 
L 18.793721 148.440055 
L 18.3823 152.788063 
L 15.688052 157.03263 
L 15.548335 161.474038 
L 68.835321 165.079706 
L 68.922345 167.846068 
L 48.9717 172.19376 
L 49.292226 175.581161 
L 72.901893 175.654062 
L 73.319386 178.287335 
L 37.448752 188.445945 
L 38.28598 192.187618 
L 54.037684 191.848796 
L 54.973702 195.067194 
L 15.526027 212.130423 
L 17.118785 216.549683 
L 64.349073 202.049267 
L 65.600719 204.938408 
L 82.892054 199.964183 
L 84.068972 202.271323 
L 25.716403 238.577383 
L 28.135673 242.66316 
L 71.835153 219.604135 
L 73.635061 222.249218 
L 51.636877 242.790374 
L 54.175797 246.059071 
L 51.907116 253.44512 
L 54.780912 256.700052 
L 62.970574 254.801586 
L 65.881549 257.707988 
L 74.311921 254.544538 
L 77.209207 257.09447 
L 102.374653 231.804196 
L 104.543058 233.483018 
L 99.344449 245.670163 
L 101.950329 247.437406 
L 97.028842 261.522388 
L 100.134296 263.354601 
L 105.558235 260.804078 
L 108.636885 262.368464 
L 114.08331 258.68104 
L 117.090992 259.978428 
L 108.757638 291.40844 
L 112.796975 292.857097 
L 125.628442 265.610925 
L 128.848307 266.541882 
L 120.473795 316.067113 
L 125.282662 317.135197 
L 138.936541 267.130079 
L 142.197591 267.641849 
L 140.227061 316.214674 
L 145.030801 316.661599 
L 151.060855 290.338173 
L 155.045625 290.457254 
L 158.278032 246.853674 
L 160.891985 246.767331 
L 164.666224 261.086745 
L 167.724538 260.792506 
L 172.959837 275.587556 
L 176.469987 275.025377 
L 180.125877 275.143519 
L 183.618522 274.356244 
L 181.936585 254.776359 
L 184.787948 253.942222 
L 206.548342 307.986846 
L 211.06059 306.352552 
L 207.446891 285.196688 
L 211.242122 283.54541 
L 218.19396 288.29536 
L 222.081307 286.304639 
L 209.039538 254.769029 
L 211.87727 253.082719 
L 242.681519 293.766228 
L 246.728774 291.002859 
L 211.786601 236.541473 
L 214.04986 234.777801 
L 209.94678 225.59007 
L 211.866613 223.889661 
L 264.42827 274.199532 
L 267.849554 270.762072 
L 257.993145 255.294635 
L 260.823199 252.068857 
L 256.604751 243.21925 
L 259.055815 240.043096 
L 240.889645 222.449903 
L 242.695445 219.778135 
L 252.001734 221.672216 
L 253.777588 218.651444 
L 244.023613 209.5612 
L 245.422614 206.797266 
L 283.576 220.505002 
L 285.299543 216.492044 
L 249.088943 198.260878 
L 250.130133 195.343266 
L 237.174885 188.160152 
L 237.904377 185.622138 
L 253.482249 186.600572 
L 254.154641 183.55059 
L 267.464619 182.664407 
L 268.006336 179.176735 
L 260.409454 174.812034 
L 260.707763 171.550075 
L 313.338599 170.590372 
L 313.478 165.666291 
L 265.02243 161.654358 
L 264.904752 158.253862 
L 278.361488 153.737623 
L 277.988296 149.921632 
L 295.873329 143.442034 
L 295.167763 139.080523 
L 241.385466 145.891724 
L 240.783864 143.242219 
L 296.124449 125.080521 
L 294.841433 120.720192 
L 281.213473 120.62971 
L 279.797885 116.740416 
L 289.434433 108.222865 
L 287.624682 104.08122 
L 271.932378 106.797677 
L 270.08647 103.207039 
L 268.828508 99.273577 
L 266.74756 95.784252 
L 237.628343 110.195522 
L 235.906232 107.681798 
L 248.271432 94.503529 
L 246.050668 91.662922 
L 259.041353 75.724127 
L 256.224798 72.554175 
L 260.819636 62.139742 
L 257.575079 58.920594 
L 248.82028 61.798986 
L 245.570942 58.957292 
L 251.777927 44.207071 
L 247.973998 41.28108 
L 221.923667 70.277968 
L 218.954225 68.277771 
L 223.465971 53.947598 
L 219.982304 51.906981 
L 220.184412 42.824773 
L 216.352641 40.892835 
L 220.361065 21.385739 
L 215.855117 19.458846 
L 201.698367 43.398535 
L 197.893777 42.047555 
L 194.04859 40.816868 
L 190.166609 39.70769 
L 184.586837 45.79516 
L 180.866062 44.981019 
L 173.470779 65.778352 
L 170.383815 65.303844 
L 166.689092 70.547644 
L 163.755439 70.284009 
L 161.877328 45.103469 
L 158.146033 45.003707 
L 153.802785 15.150855 
L 149.133707 15.319783 
L 149.378855 74.376791 
L 146.574158 74.655534 
L 136.837822 27.889557 
L 132.577665 28.585603 
L 128.844406 31.784911 
L 124.710679 32.730361 
L 134.059702 82.028146 
L 131.503154 82.784774 
L 126.052162 75.232662 
L 123.285908 76.244425 
L 112.10678 57.243218 
L 108.781793 58.702349 
L 110.171171 69.668079 
L 107.237806 71.181926 
L 79.32166 29.430855 
L 75.138402 31.934573 
L 111.256396 95.096985 
L 109.122035 96.564137 
L 80.667653 63.369232 
L 77.550826 65.813849 
L 99.843845 97.690821 
L 97.796683 99.515527 
L 94.112581 99.67336 
L 92.130588 101.677289 
L 64.402122 80.517395 
L 61.832513 83.464958 
L 86.576057 108.048813 
L 84.861133 110.285566 
L 49.390969 89.087241 
L 47.098237 92.50255 
L 35.241443 90.136986 
L 32.988713 93.996667 
L 50.185105 108.015074 
L 48.487112 111.396055 
L 78.624874 128.931335 
L 77.570474 131.407765 
L 76.594459 133.916124 
L 75.697795 136.453931 
L 67.149461 136.690641 
L 66.344703 139.524047 
L 63.270549 141.830119 
L 62.629306 144.782946 
L 59.692357 147.352591 
L 59.226522 150.415193 
L 18.700501 149.308587 
L 18.316435 153.659096 
L 15.648936 157.920525 
L 15.537156 162.362724 
L 68.845765 165.633175 
L 68.950186 168.398936 
L 49.027281 172.87202 
L 49.369105 176.257338 
L 72.978763 176.181746 
L 73.412811 178.812341 
L 37.606778 189.196357 
L 38.467522 192.932689 
L 54.216783 192.494805 
L 55.173025 195.707252 
L 15.833448 213.018247 
L 17.45397 217.427402 
L 64.592124 202.630221 
L 65.861916 205.511434 
L 83.121624 200.428554 
L 84.313029 202.728246 
L 26.189959 239.400593 
L 28.634879 243.471073 
L 72.188466 220.137659 
L 74.004974 222.771369 
L 52.136417 243.450475 
L 54.695846 246.703139 
L 52.473664 254.10331 
L 55.367874 257.340104 
L 63.545434 255.390167 
L 66.474631 258.278203 
L 74.88494 255.061793 
L 77.798207 257.593453 
L 102.804093 232.145403 
L 104.983014 233.810554 
L 99.861159 246.030153 
L 102.478102 247.780972 
L 97.645299 261.896629 
L 100.762214 263.709274 
L 106.170005 261.124688 
L 109.258434 262.66968 
L 114.681558 258.948074 
L 117.697341 260.226519 
L 109.561829 291.708322 
L 113.610197 293.131545 
L 126.270047 265.80521 
L 129.495704 266.715897 
L 121.432843 316.29282 
L 126.248332 317.330637 
L 139.587437 267.240634 
L 142.851643 267.731883 
L 141.186646 316.316141 
L 145.993102 316.732844 
L 151.857478 290.372014 
L 155.842918 290.46603 
L 158.801019 246.842983 
L 161.414377 246.740201 
L 165.278603 261.035594 
L 168.335006 260.722125 
L 173.663253 275.483955 
L 177.169798 274.899711 
L 180.826359 274.994857 
L 184.313984 274.185631 
L 182.508934 254.616712 
L 185.354993 253.764657 
L 207.454868 307.671352 
L 211.956748 306.008711 
L 208.210061 284.875993 
L 211.994832 283.200878 
L 218.976407 287.907012 
L 222.851156 285.89188 
L 209.611305 254.43892 
L 212.438374 252.734796 
L 243.49789 293.223758 
L 247.527686 290.434989 
L 212.243672 236.194446 
L 214.495793 234.416575 
L 210.335009 225.254832 
L 212.244109 223.542382 
L 265.121148 273.520675 
L 268.520744 270.061765 
L 258.567249 254.656625 
L 261.376958 251.413111 
L 257.102935 242.590211 
L 259.533974 239.398704 
L 241.257513 221.920114 
L 243.046473 219.237041 
L 252.364491 221.072553 
L 254.12131 218.040672 
L 244.310355 209.011955 
L 245.691945 206.239277 
L 283.930791 219.706779 
L 285.62906 215.683059 
L 249.304513 197.679998 
L 250.327332 194.755896 
L 237.327163 187.654405 
L 238.040678 185.111853 
L 253.624395 185.992291 
L 254.277591 182.938141 
L 267.581733 181.968263 
L 268.101504 178.477253 
L 260.47732 174.160419 
L 260.755108 170.896647 
L 313.378866 169.605945 
L 313.487295 164.681085 
L 265.00745 160.97399 
L 264.868388 157.574301 
L 278.296453 152.973516 
L 277.899268 149.159948 
L 295.743194 142.567991 
L 295.010211 138.211004 
L 241.271816 145.360331 
L 240.653562 142.714662 
L 295.878826 124.205262 
L 294.568411 119.853089 
L 280.940151 119.848321 
L 279.50013 115.968007 
L 289.082917 107.390016 
L 287.247154 103.259835 
L 271.572244 106.074933 
L 269.70379 102.495977 
L 268.421113 98.570504 
L 266.318261 95.094337 
L 237.290259 109.688464 
L 235.552372 107.185622 
L 247.834444 93.929843 
L 245.595857 91.10326 
L 258.486039 75.083076 
L 255.649603 71.930901 
L 260.178849 61.487775 
L 256.914109 58.289097 
L 248.177587 61.222495 
L 244.910441 58.401293 
L 251.024533 43.612326 
L 247.202276 40.710317 
L 221.334835 69.870474 
L 218.352871 67.888992 
L 222.774399 53.530727 
L 219.277966 51.51206 
L 219.422949 42.428761 
L 215.579103 40.520961 
L 219.464759 20.989039 
L 214.946781 19.090525 
L 200.940878 43.118778 
L 197.127866 41.791754 
L 193.275015 40.585275 
L 189.386134 39.500534 
L 183.844759 45.622977 
L 180.118938 44.832254 
L 172.854604 65.675688 
L 169.764718 65.220605 
L 166.103048 70.487538 
L 163.167795 70.242359 
L 161.131349 45.07413 
L 157.399501 44.997837 
L 152.868582 15.172892 
L 148.200658 15.371183 
L 148.817237 74.425481 
L 146.014348 74.721859 
L 135.984073 28.018043 
L 131.728378 28.740869 
L 128.015315 31.963593 
L 123.887616 32.935024 
L 133.546509 82.173034 
L 130.99477 82.945726 
L 125.496388 75.428047 
L 122.736552 76.457188 
L 111.438138 57.526668 
L 108.122394 59.006682 
L 109.580712 69.963457 
L 106.656927 71.495723 
L 78.478743 29.921054 
L 74.311314 32.451033 
L 110.82585 95.385034 
L 108.700759 96.865582 
L 80.038162 63.850295 
L 76.936772 66.314467 
L 99.429838 98.050598 
L 97.394193 99.888143 
L 93.711156 100.069144 
L 91.741806 102.085499 
L 63.880805 81.10042 
L 61.329785 84.064085 
L 86.227459 108.491831 
L 84.526636 110.739326 
L 48.923848 89.764508 
L 46.652642 93.194169 
L 34.781205 90.903224 
L 32.552794 94.776998 
L 49.837014 108.686972 
L 48.160319 112.078565 
L 78.407772 129.423949 
L 77.368968 131.906962 
L 76.408748 134.421409 
L 75.528063 136.964805 
L 66.981387 137.255275 
L 66.194466 140.093687 
L 63.134877 142.419048 
L 62.512218 145.375849 
L 59.591489 147.963915 
L 59.144925 151.029387 
L 18.612746 150.177689 
L 18.256049 154.530527 
L 15.615405 158.808648 
L 15.531566 163.251462 
L 68.859691 166.186568 
L 68.981504 168.951617 
L 49.087126 173.549917 
L 49.450236 176.933018 
L 73.058951 176.708936 
L 73.509535 179.336749 
L 37.76952 189.945759 
L 38.653746 193.676604 
L 54.399942 193.139675 
L 55.37637 196.346044 
L 16.146447 213.90412 
L 17.794668 218.302996 
L 64.838823 203.209636 
L 66.126711 206.082804 
L 83.35411 200.891472 
L 84.559955 203.183625 
L 26.668683 240.220807 
L 29.139155 244.27583 
L 72.545127 220.66895 
L 74.378164 223.291184 
L 52.6401 244.107421 
L 55.219935 247.343924 
L 53.04434 254.757925 
L 55.95885 257.976451 
L 64.123984 255.975121 
L 67.071288 258.844677 
L 75.461201 255.575434 
L 78.390333 258.088721 
L 103.235671 232.483901 
L 105.425022 234.135315 
L 100.380122 246.386887 
L 103.008025 248.121212 
L 98.264097 262.266985 
L 101.392351 264.059991 
L 106.783779 261.441444 
L 109.881864 262.96698 
L 115.281475 259.21134 
L 118.305239 260.470793 
L 110.36789 292.00314 
L 114.425129 293.400874 
L 126.912862 265.995455 
L 130.144183 266.885837 
L 122.393292 316.51249 
L 127.215213 317.52 
L 140.239017 267.347092 
L 143.506247 267.817802 
L 142.146851 316.411571 
L 146.955833 316.798036 
L 152.654298 290.400843 
L 156.64025 290.469791 
L 159.323929 246.829002 
L 161.936589 246.709785 
L 165.890648 260.980592 
L 168.945019 260.647906 
L 174.366004 275.375933 
L 177.868806 274.769646 
L 181.525892 274.841793 
L 185.008359 274.010648 
L 183.080267 254.453468 
L 185.920911 253.58353 
L 208.359391 307.350163 
L 212.850725 305.65924 
L 208.9712 284.550506 
L 212.74536 282.851619 
L 219.756396 287.51375 
L 223.618394 285.474288 
L 210.180984 254.105221 
L 212.997279 252.38335 
L 244.310833 292.676165 
L 248.323009 289.862106 
L 212.698551 235.844552 
L 214.939446 234.052552 
L 210.721123 224.917158 
L 212.619414 223.192735 
L 265.809742 272.837473 
L 269.187516 269.35725 
L 259.137329 254.015017 
L 261.926583 250.753895 
L 257.597153 241.958051 
L 260.008071 238.751317 
L 241.622041 221.388021 
L 243.39409 218.69375 
L 252.723468 220.470621 
L 254.461184 217.42775 
L 244.593638 208.460917 
L 245.957762 205.679604 
L 284.280554 218.906339 
L 285.953483 214.872018 
L 249.516425 197.097774 
L 250.520833 194.167297 
L 237.476257 187.14771 
L 238.173766 184.600721 
L 253.762713 185.383129 
L 254.396687 182.324931 
L 267.694465 181.271396 
L 268.19227 177.777186 
L 260.541086 173.508389 
L 260.798341 170.242935 
L 313.412941 168.621285 
L 265.04169 163.69584 
z
" clip-path="url(#p1dfd5c0fc7)" style="fill: #0000ff; opacity: 0.5; stroke: #000000; stroke-width: 1.5; stroke-linejoin: miter"/>
   </g>
  </g>
 </g>
 <defs>
  <clipPath id="p1dfd5c0fc7">
   <rect x="0" y="-0" width="328.415262" height="332.64"/>
  </clipPath>
 </defs>
</svg>
