<?xml version="1.0" encoding="utf-8" standalone="no"?>
<!DOCTYPE svg PUBLIC "-//W3C//DTD SVG 1.1//EN"
  "http://www.w3.org/Graphics/SVG/1.1/DTD/svg11.dtd">
<svg xmlns:xlink="http://www.w3.org/1999/xlink" width="329.283412pt" height="332.64pt" viewBox="0 0 329.283412 332.64" xmlns="http://www.w3.org/2000/svg" version="1.1">
 <metadata>
  <rdf:RDF xmlns:dc="http://purl.org/dc/elements/1.1/" xmlns:cc="http://creativecommons.org/ns#" xmlns:rdf="http://www.w3.org/1999/02/22-rdf-syntax-ns#">
   <cc:Work>
    <dc:type rdf:resource="http://purl.org/dc/dcmitype/StillImage"/>
    <dc:date>2023-12-09T18:06:27.986261</dc:date>
    <dc:format>image/svg+xml</dc:format>
    <dc:creator>
     <cc:Agent>
      <dc:title>Matplotlib v3.8.2, https://matplotlib.org/</dc:title>
     </cc:Agent>
    </dc:creator>
   </cc:Work>
  </rdf:RDF>
 </metadata>
 <defs>
  <style type="text/css">*{stroke-linejoin: round; stroke-linecap: butt}</style>
 </defs>
 <g id="figure_1">
  <g id="patch_1">
   <path d="M 0 332.64 
L 329.283412 332.64 
L 329.283412 0 
L 0 0 
L 0 332.64 
z
" style="fill: none"/>
  </g>
  <g id="axes_1">
   <g id="patch_2">
    <path d="M 273.686986 168.020416 
L 273.631835 164.513197 
L 302.843715 159.15933 
L 302.495536 154.739742 
L 292.0181 151.596652 
L 291.437487 147.521184 
L 239.750739 153.200583 
L 239.246399 150.767722 
L 274.677013 139.096159 
L 273.711931 135.572113 
L 305.784874 121.298075 
L 304.244801 116.804729 
L 288.882045 117.785154 
L 287.239875 113.825007 
L 248.334254 127.415066 
L 247.014917 124.72507 
L 249.683343 119.836787 
L 248.125061 117.108119 
L 283.094356 91.165651 
L 280.618071 87.400644 
L 253.595323 101.487775 
L 251.458174 98.645179 
L 233.723403 108.719677 
L 231.823466 106.498321 
L 247.91132 87.355772 
L 245.33264 84.69888 
L 259.625314 64.041005 
L 256.307775 61.027327 
L 242.5392 70.662494 
L 239.438303 68.182767 
L 208.523202 104.05537 
L 206.489069 102.62867 
L 240.464112 44.329584 
L 236.536276 41.928122 
L 209.443037 81.761835 
L 206.707492 80.317236 
L 208.863215 68.44034 
L 205.709099 67.020558 
L 194.551642 85.876379 
L 191.952829 84.897964 
L 197.431607 58.943544 
L 193.984543 57.887893 
L 192.039179 50.936862 
L 188.343034 50.054719 
L 177.992566 84.299705 
L 175.352367 83.842723 
L 175.29039 62.715447 
L 171.97287 62.354099 
L 167.411366 82.199448 
L 164.710362 82.0762 
L 161.998292 76.615621 
L 159.124396 76.665333 
L 156.453095 79.897417 
L 153.685127 80.119859 
L 142.56235 15.12 
L 137.764506 15.811226 
L 142.80551 67.615875 
L 139.658131 68.2735 
L 128.772675 39.032592 
L 124.733514 40.145572 
L 129.880213 69.362594 
L 126.794146 70.425754 
L 105.976341 26.966246 
L 101.569059 28.801959 
L 98.546579 33.576259 
L 94.350804 35.642312 
L 113.446215 79.87693 
L 110.698867 81.451613 
L 85.513622 47.842209 
L 81.772843 50.310993 
L 94.095595 74.794808 
L 91.198022 76.98043 
L 66.585756 53.043789 
L 63.017884 56.105135 
L 102.60561 104.915514 
L 100.65089 106.81867 
L 52.916012 65.940527 
L 49.760401 69.425303 
L 86.786118 105.991308 
L 84.873045 108.391331 
L 65.45735 98.145853 
L 63.308144 101.220379 
L 52.085276 98.573737 
L 49.956135 102.068498 
L 75.809165 120.855081 
L 74.368869 123.592894 
L 88.454629 133.588869 
L 87.408459 135.922786 
L 17.940444 111.388086 
L 16.231097 115.9501 
L 61.120968 135.5125 
L 60.148795 138.704895 
L 70.54002 144.783302 
L 69.854685 147.674959 
L 68.499285 150.443835 
L 67.992939 153.396858 
L 68.348491 156.459106 
L 68.031353 159.413896 
L 27.599027 159.97189 
L 27.412485 164.206196 
L 79.258312 168.281064 
L 79.307487 170.88698 
L 45.429683 175.739262 
L 45.730087 179.405137 
L 69.959437 179.972208 
L 70.380805 182.864721 
L 20.705906 195.489731 
L 21.639531 199.923211 
L 18.963977 205.301077 
L 20.206954 209.784475 
L 78.2525 195.598961 
L 79.161107 198.222996 
L 47.067988 214.05094 
L 48.572184 217.646361 
L 23.599769 233.821128 
L 25.737187 238.144666 
L 51.719784 229.251156 
L 53.699608 232.692799 
L 54.481693 236.90546 
L 56.70082 240.256478 
L 69.023515 236.213335 
L 71.21369 239.107468 
L 82.418099 234.490612 
L 84.547486 236.964442 
L 92.379603 234.045493 
L 94.490068 236.206332 
L 103.531703 230.93175 
L 105.538751 232.743481 
L 70.750258 279.403911 
L 74.297586 282.222397 
L 110.076546 240.301958 
L 112.374979 241.903272 
L 97.404238 270.972976 
L 100.6733 272.957571 
L 107.706259 268.034705 
L 110.877842 269.696835 
L 118.021905 262.830829 
L 121.024766 264.171185 
L 115.607459 287.060027 
L 119.373333 288.464319 
L 119.875758 300.078038 
L 124.048837 301.341689 
L 130.909607 291.95762 
L 134.821906 292.878357 
L 137.202502 302.052642 
L 141.429099 302.770526 
L 151.663755 254.142526 
L 154.376804 254.429405 
L 155.38601 284.016516 
L 159.036522 284.171587 
L 162.847224 317.52 
L 167.54747 317.42391 
L 169.364031 274.673441 
L 172.713865 274.393632 
L 172.928258 250.199688 
L 175.506821 249.819913 
L 187.302726 296.490164 
L 191.329656 295.635537 
L 195.131359 293.905402 
L 199.073148 292.805904 
L 206.624525 302.615385 
L 210.834492 301.15021 
L 203.443458 270.803012 
L 206.654747 269.453586 
L 219.824819 288.979403 
L 223.599514 287.105924 
L 233.717566 296.62106 
L 237.725663 294.306984 
L 240.821997 290.56437 
L 244.636146 288.02991 
L 252.496594 290.994901 
L 256.318508 288.093153 
L 253.089559 276.754236 
L 256.463421 273.840885 
L 264.544112 275.878752 
L 267.884784 272.605678 
L 264.87731 263.430764 
L 267.826425 260.153368 
L 279.065543 263.650624 
L 282.014556 259.92701 
L 248.977996 230.362515 
L 250.895234 227.601378 
L 271.103806 236.29803 
L 273.19673 232.838274 
L 235.684694 207.898444 
L 236.902185 205.566385 
L 271.780742 218.831323 
L 273.32414 215.358918 
L 248.769384 201.72756 
L 249.786379 198.98714 
L 249.240462 195.74617 
L 250.069157 192.993896 
L 312.428269 205.64162 
L 313.536856 200.89769 
L 287.833834 191.203603 
L 288.500619 187.240114 
L 309.80798 185.750981 
L 310.292457 181.099273 
L 251.080391 173.060181 
L 251.194879 170.261271 
L 273.68478 167.318861 
L 273.607572 163.812059 
L 302.785201 158.274572 
L 302.409233 153.85726 
L 291.912235 150.78013 
L 291.306001 146.708394 
L 239.655995 152.712761 
L 239.136364 150.28312 
L 274.49287 138.388949 
L 273.505643 134.871043 
L 305.488176 120.395567 
L 303.919872 115.911996 
L 288.563587 116.989024 
L 286.896542 113.039285 
L 248.077165 126.873769 
L 246.740936 124.192124 
L 249.378564 119.287155 
L 247.803151 116.568342 
L 282.60859 90.40645 
L 280.108675 86.657091 
L 253.175061 100.913902 
L 251.020076 98.084803 
L 233.349019 108.270644 
L 231.435148 106.061281 
L 247.402289 86.817927 
L 244.806949 84.177306 
L 258.969415 63.429947 
L 255.632987 60.437194 
L 241.925284 70.158767 
L 238.808852 67.698592 
L 208.119981 103.764924 
L 206.076914 102.351046 
L 239.684617 43.839429 
L 235.741756 41.462718 
L 208.899584 81.466044 
L 206.155007 80.038679 
L 208.235989 68.14846 
L 205.073006 66.748544 
L 194.034362 85.674166 
L 191.429447 84.712115 
L 196.744877 58.72375 
L 193.291242 57.6898 
L 191.302199 50.751141 
L 187.600578 49.892262 
L 177.465697 84.20167 
L 174.822676 83.761303 
L 174.627821 62.634834 
L 171.308095 62.294358 
L 166.871497 82.168004 
L 164.169771 82.061747 
L 161.42341 76.618332 
L 158.549884 76.686119 
L 155.898964 79.93494 
L 153.13245 80.174787 
L 141.60108 15.246169 
L 136.807679 15.967557 
L 142.174404 67.739477 
L 139.031224 68.416884 
L 127.962075 39.245017 
L 123.929994 40.38338 
L 129.26035 69.567453 
L 126.18103 70.650003 
L 105.090301 27.322287 
L 100.694652 29.185682 
L 97.70226 33.978898 
L 93.519561 36.071298 
L 112.892805 80.184942 
L 110.155416 81.776874 
L 84.759284 48.326536 
L 81.034107 50.818798 
L 93.510605 75.224625 
L 90.626835 77.428428 
L 65.864508 53.647058 
L 62.315961 56.730783 
L 102.209894 105.291213 
L 100.267182 107.206625 
L 52.276147 66.629516 
L 49.142516 70.13407 
L 86.39748 106.46648 
L 84.49954 108.878488 
L 65.019791 98.755327 
L 62.889964 101.843309 
L 51.650672 99.267305 
L 49.543554 102.775388 
L 75.514229 121.398998 
L 74.091181 124.145816 
L 88.239532 134.053002 
L 87.208061 136.393452 
L 17.587111 112.296152 
L 15.90649 116.868827 
L 60.91851 136.148508 
L 59.966435 139.346955 
L 70.395683 145.359886 
L 69.728549 148.255796 
L 68.390591 151.033142 
L 67.902827 153.989291 
L 68.277632 157.049243 
L 67.979084 160.005969 
L 27.551067 160.818249 
L 27.391161 165.053644 
L 79.261591 168.80235 
L 79.327155 171.407906 
L 45.480539 176.473164 
L 45.803992 180.137077 
L 70.03643 180.551748 
L 70.475982 183.441553 
L 20.88147 196.378741 
L 21.842961 200.806261 
L 19.201283 206.200848 
L 20.472434 210.67634 
L 78.427612 196.126033 
L 79.352705 198.744301 
L 47.35977 214.77378 
L 48.88655 218.359669 
L 24.016359 234.691179 
L 26.180927 239.001188 
L 52.107075 229.944438 
L 54.108506 233.373561 
L 54.917071 237.58122 
L 57.15723 240.918214 
L 69.454252 236.797648 
L 71.662586 239.677949 
L 82.837736 234.990716 
L 84.982639 237.451104 
L 92.796243 234.482953 
L 94.920257 236.630475 
L 103.928538 231.299131 
L 105.946942 233.098204 
L 71.452605 279.97651 
L 75.017589 282.77263 
L 110.532186 240.62799 
L 112.840644 242.214817 
L 98.053032 271.378104 
L 101.334511 273.342099 
L 108.336369 268.375097 
L 111.518343 270.017246 
L 118.619081 263.106444 
L 121.630313 264.427887 
L 116.357071 287.350349 
L 120.131703 288.730927 
L 120.707162 300.341257 
L 124.888106 301.578637 
L 131.689719 292.151603 
L 135.607732 293.047716 
L 138.045982 302.206847 
L 142.277011 302.898133 
L 152.205622 254.206725 
L 154.920421 254.476534 
L 156.115694 284.056713 
L 159.767109 284.188822 
L 163.787478 317.512608 
L 168.487027 317.386958 
L 170.034675 274.625909 
L 173.382683 274.325038 
L 173.444906 250.130223 
L 176.021029 249.734238 
L 188.11023 296.329377 
L 192.131706 295.44944 
L 195.922452 293.695428 
L 199.857247 292.57116 
L 207.470171 302.332953 
L 211.67084 300.841329 
L 204.089085 270.541216 
L 207.291824 269.171619 
L 220.584441 288.614219 
L 224.347279 286.717036 
L 234.524975 296.168347 
L 238.518439 293.829108 
L 241.591173 290.067093 
L 245.389306 287.508695 
L 253.268247 290.42419 
L 257.071835 287.498461 
L 253.771634 276.180077 
L 257.127106 273.245564 
L 265.220454 275.232568 
L 268.540474 271.938547 
L 265.475355 262.78273 
L 268.403799 259.486851 
L 279.664691 262.91335 
L 282.590226 259.171262 
L 249.368375 229.815133 
L 251.26821 227.041992 
L 271.531078 235.611372 
L 273.602201 232.138521 
L 235.934049 207.435114 
L 237.136849 205.095443 
L 272.098146 218.140752 
L 273.619673 214.65871 
L 248.979669 201.182056 
L 249.979409 198.435294 
L 249.413119 195.197822 
L 250.224487 192.44039 
L 312.661912 204.69566 
L 313.740641 199.944852 
L 287.977157 190.412614 
L 288.619001 186.44501 
L 309.916574 184.821895 
L 310.371786 180.167232 
L 251.11033 172.500709 
L 251.207211 169.701135 
L 273.678161 166.617334 
L 273.578899 163.111087 
L 302.721124 157.390198 
L 302.31738 152.975339 
L 291.801237 149.96429 
L 291.169406 145.896447 
L 239.558186 152.225544 
L 239.023284 149.79922 
L 274.304283 137.682912 
L 273.294949 134.171285 
L 305.185808 119.494943 
L 303.589336 115.021325 
L 288.240128 116.194914 
L 286.548274 112.255737 
L 247.816676 126.334099 
L 246.463607 123.660911 
L 249.070334 118.73945 
L 247.477853 116.030599 
L 282.11806 89.650318 
L 279.594613 85.916757 
L 252.751199 100.342683 
L 250.578463 97.527193 
L 232.971818 107.823974 
L 231.04409 105.626692 
L 246.889885 86.283294 
L 244.277989 83.659049 
L 258.309685 62.823026 
L 254.9545 59.851316 
L 241.308212 69.658911 
L 238.176368 67.218385 
L 207.714941 103.47702 
L 205.663022 102.076019 
L 238.902056 43.354186 
L 234.944324 41.00232 
L 208.354282 81.173677 
L 205.600781 79.763602 
L 207.606939 67.86053 
L 204.435214 66.480535 
L 193.51582 85.47521 
L 190.904905 84.529561 
L 196.056779 58.508279 
L 192.596709 57.496071 
L 190.564065 50.57006 
L 186.857116 49.734479 
L 176.938222 84.106951 
L 174.292483 83.683215 
L 173.964759 62.558389 
L 170.642956 62.2388 
L 166.33144 82.139956 
L 163.629099 82.050693 
L 160.848557 76.62466 
L 157.975514 76.710517 
L 155.345079 79.975947 
L 152.580129 80.233189 
L 140.640623 15.378382 
L 135.851854 16.129903 
L 141.544089 67.867045 
L 138.405232 68.564208 
L 127.152827 39.462537 
L 123.127985 40.626236 
L 128.641787 69.776208 
L 125.569337 70.878103 
L 104.206518 27.683892 
L 99.822675 29.574898 
L 96.860489 34.386838 
L 92.691034 36.505505 
L 112.341344 80.496429 
L 109.614021 82.105546 
L 84.008008 48.815596 
L 80.298579 51.331239 
L 92.92833 75.658113 
L 90.058478 77.880009 
L 65.147069 54.254851 
L 61.617987 57.360833 
L 101.816548 105.669393 
L 99.885922 107.596985 
L 51.640629 67.322515 
L 48.529101 70.846709 
L 86.011839 106.944088 
L 84.129106 109.367985 
L 64.586073 99.367541 
L 62.475711 102.468857 
L 51.22044 99.963593 
L 49.135427 103.484859 
L 75.22272 121.94476 
L 73.816976 124.700474 
L 88.027358 134.518479 
L 87.010628 136.86537 
L 17.239496 113.206423 
L 15.587668 117.789577 
L 60.720055 136.785777 
L 59.788116 139.990148 
L 70.254976 145.937367 
L 69.606068 148.837415 
L 68.285605 151.623121 
L 67.816443 154.58228 
L 68.210486 157.639814 
L 67.93054 160.598359 
L 27.508432 161.664892 
L 27.375167 165.901209 
L 79.268148 169.323606 
L 79.350098 171.928697 
L 45.536009 177.206731 
L 45.8825 180.868538 
L 70.117067 181.130792 
L 70.574785 184.017776 
L 21.062621 197.266629 
L 22.05194 201.688014 
L 19.444244 207.099109 
L 20.743517 211.566518 
L 78.606037 196.651993 
L 79.547579 199.264391 
L 47.656092 215.49477 
L 49.205395 219.070986 
L 24.438412 235.558592 
L 26.630045 239.854902 
L 52.498718 230.635271 
L 54.521677 234.051738 
L 55.356689 238.254228 
L 57.617792 241.577067 
L 69.888655 237.379242 
L 72.115061 240.245596 
L 83.26051 235.48817 
L 85.420845 237.93502 
L 93.215626 234.917784 
L 95.353105 237.051905 
L 104.327677 231.664009 
L 106.357356 233.450352 
L 72.158539 280.544681 
L 75.741039 283.318323 
L 110.989867 240.951151 
L 113.30826 242.523427 
L 98.704361 271.779143 
L 101.998128 273.722461 
L 108.968607 268.711519 
L 112.160846 270.333623 
L 119.21798 263.378298 
L 122.237463 264.680776 
L 117.108494 287.63595 
L 120.891734 288.992761 
L 121.540205 300.599242 
L 125.728848 301.810301 
L 132.471036 292.340675 
L 136.394608 293.212129 
L 138.890415 302.355743 
L 143.125708 303.020405 
L 152.747881 254.267515 
L 155.464324 254.520244 
L 156.845615 284.09232 
L 160.497789 284.201461 
L 164.727667 317.499302 
L 169.426332 317.344097 
L 170.705007 274.57416 
L 174.051056 274.252238 
L 173.961106 250.057511 
L 176.534689 249.645331 
L 188.916707 296.163514 
L 192.932569 295.258301 
L 196.712208 293.480482 
L 200.639855 292.331489 
L 208.314024 302.045208 
L 212.505229 300.527194 
L 204.733053 270.275365 
L 207.927115 268.885652 
L 221.341752 288.244264 
L 225.092583 286.323452 
L 235.329521 295.710564 
L 239.308193 293.346255 
L 242.357206 289.564989 
L 246.139173 286.982753 
L 254.036295 289.848636 
L 257.821406 286.899043 
L 254.450085 275.601639 
L 257.787034 272.64608 
L 265.892719 274.582142 
L 269.191956 271.267306 
L 266.069312 262.130948 
L 268.976969 258.816715 
L 280.259189 262.172322 
L 283.161131 258.411908 
L 249.755304 229.265307 
L 251.637659 226.480272 
L 271.954024 234.92204 
L 274.003263 231.436231 
L 236.180486 206.970224 
L 237.368547 204.623035 
L 272.411199 217.448199 
L 273.910797 213.956656 
L 249.18652 200.635241 
L 250.168964 197.882245 
L 249.582323 194.648399 
L 250.376332 191.885918 
L 312.889602 203.74825 
L 313.938429 198.990751 
L 288.115503 189.620739 
L 288.732379 185.649177 
L 310.019323 183.892144 
L 310.44525 179.23471 
L 251.136748 171.94106 
L 251.216021 169.140932 
L 273.667131 165.915863 
L 273.545818 162.410309 
L 302.651485 156.506246 
L 302.219983 152.094013 
L 291.68511 149.149164 
L 291.027706 145.085376 
L 239.457314 151.738953 
L 238.907162 149.316041 
L 274.111259 136.978075 
L 273.079859 133.472865 
L 304.877781 118.596238 
L 303.253204 114.132749 
L 287.911681 115.402853 
L 286.195086 111.474395 
L 247.552798 125.796079 
L 246.182943 123.131453 
L 248.758665 118.193695 
L 247.149178 115.494913 
L 281.622783 88.897287 
L 279.075904 85.179671 
L 252.323752 99.774141 
L 250.133351 96.972372 
L 232.591816 107.379685 
L 230.650306 105.194571 
L 246.374128 85.751895 
L 243.745779 83.144128 
L 257.646151 62.220267 
L 254.272342 59.269718 
L 240.688008 69.162946 
L 237.540877 66.742166 
L 207.308098 103.191668 
L 205.247409 101.803601 
L 238.116458 42.873874 
L 234.144012 40.546947 
L 207.807151 80.884746 
L 205.044836 79.492017 
L 206.976091 67.576563 
L 203.795749 66.216543 
L 192.996037 85.279519 
L 190.379226 84.35031 
L 195.367339 58.297141 
L 191.900971 57.306714 
L 189.824806 50.393624 
L 186.112675 49.581374 
L 176.410161 84.015551 
L 173.761809 83.608463 
L 173.301229 62.486117 
L 169.977482 62.187426 
L 165.791218 82.115306 
L 163.088369 82.043041 
L 160.273755 76.634603 
L 157.401309 76.738528 
L 154.791464 80.020437 
L 152.028186 80.295064 
L 139.681016 15.516632 
L 134.897068 16.298257 
L 140.914588 67.998575 
L 137.780178 68.715466 
L 126.344962 39.685142 
L 122.327519 40.874132 
L 128.024549 69.988848 
L 124.95909 71.110046 
L 103.325027 28.051049 
L 98.953164 29.969589 
L 96.021301 34.800065 
L 91.865253 36.944913 
L 111.791853 80.811378 
L 109.074704 82.437616 
L 83.259823 49.309373 
L 79.566289 51.848296 
L 92.348792 76.095255 
L 89.492971 78.335157 
L 64.433466 54.867144 
L 60.923989 57.995261 
L 101.425588 106.050039 
L 99.507124 107.989736 
L 51.009482 68.019498 
L 47.920181 71.563192 
L 85.629209 107.424112 
L 83.761759 109.859802 
L 64.156215 99.98247 
L 62.0654 103.096998 
L 50.794595 100.662572 
L 48.73177 104.196883 
L 74.93465 122.492344 
L 73.546265 125.256845 
L 87.818115 134.98528 
L 86.816166 137.33852 
L 16.897613 114.118862 
L 15.274643 118.712314 
L 60.525613 137.424281 
L 59.613846 140.634451 
L 70.117904 146.515721 
L 69.487248 149.419793 
L 68.184331 152.213749 
L 67.73379 155.1758 
L 68.147056 158.230795 
L 67.885723 161.191043 
L 27.471122 162.511787 
L 27.364503 166.748858 
L 79.277983 169.84481 
L 79.376317 172.449334 
L 45.596092 177.939935 
L 45.965607 181.59949 
L 70.201344 181.709317 
L 70.677211 184.593365 
L 21.249354 198.15336 
L 22.266461 202.568435 
L 19.692849 207.995824 
L 21.020194 212.454973 
L 78.787765 197.176821 
L 79.745719 199.783245 
L 47.956943 216.213883 
L 49.528708 219.780284 
L 24.865912 236.423334 
L 27.084523 240.705775 
L 52.894699 231.323627 
L 54.939105 234.727303 
L 55.800532 238.924458 
L 58.082489 242.23301 
L 70.326707 237.958091 
L 72.571097 240.810386 
L 83.686404 235.982956 
L 85.862086 238.41617 
L 93.637736 235.349969 
L 95.788595 237.470604 
L 104.729103 232.02637 
L 106.769977 233.799911 
L 72.868033 281.1084 
L 76.467906 283.859456 
L 111.449572 241.271426 
L 113.777808 242.82909 
L 99.358199 272.176078 
L 102.664123 274.098641 
L 109.602949 269.043958 
L 112.805327 270.645953 
L 119.818576 263.64638 
L 122.846191 264.929841 
L 117.861698 287.916819 
L 121.653398 289.249809 
L 122.374853 300.851982 
L 126.571031 302.036673 
L 133.253527 292.52483 
L 137.182502 293.371589 
L 139.735768 302.499326 
L 143.975158 303.137337 
L 153.290513 254.324893 
L 156.008491 254.560532 
L 157.575747 284.123335 
L 161.228534 284.209504 
L 165.667753 317.480083 
L 170.365349 317.295329 
L 171.375 274.518196 
L 174.718959 274.175235 
L 174.476839 249.981553 
L 177.047778 249.553195 
L 189.722125 295.992581 
L 193.732214 295.062129 
L 197.500597 293.260574 
L 201.42094 292.086901 
L 209.156051 301.752162 
L 213.337625 300.207817 
L 205.375337 270.005469 
L 208.560595 268.595695 
L 222.096721 287.869553 
L 225.835397 285.925189 
L 236.131172 295.247731 
L 240.094896 292.858445 
L 243.120066 289.058077 
L 246.885718 286.452105 
L 254.800708 289.268264 
L 258.567193 286.294923 
L 255.124884 275.018946 
L 258.443179 272.042458 
L 266.56088 273.927501 
L 269.839203 270.59198 
L 266.659159 261.475443 
L 269.545913 258.142988 
L 280.849015 261.42757 
L 283.727248 257.648978 
L 250.138767 228.713057 
L 252.003568 225.916239 
L 272.372625 234.230061 
L 274.3999 230.731433 
L 236.423994 206.503794 
L 237.597269 204.149178 
L 272.719891 216.753691 
L 274.197499 213.252785 
L 249.389927 200.087135 
L 250.355037 197.328015 
L 249.748069 194.097922 
L 250.524688 191.330502 
L 313.111328 202.799427 
L 314.130213 198.035425 
L 288.248865 188.82801 
L 288.840751 184.852647 
L 310.116223 182.961766 
L 310.512849 178.301745 
L 251.159647 171.381256 
L 251.221306 168.580685 
L 273.651688 165.214474 
L 273.50833 161.709753 
L 302.576288 155.622749 
L 302.117044 151.213317 
L 291.563858 148.334785 
L 290.880909 144.275211 
L 239.353383 151.253006 
L 238.788004 148.833601 
L 273.913806 136.274466 
L 272.86038 132.775812 
L 304.564108 117.699488 
L 302.91149 113.246306 
L 287.578259 114.612874 
L 285.83699 110.69529 
L 247.285542 125.259728 
L 245.898955 122.603771 
L 248.44357 117.649911 
L 246.817141 114.961305 
L 281.122781 88.147386 
L 278.55257 84.445861 
L 251.892738 99.208299 
L 249.684759 96.420362 
L 232.209027 106.937795 
L 230.253812 104.764936 
L 245.85504 85.22375 
L 243.210341 82.632566 
L 256.978839 61.621692 
L 253.58654 58.692421 
L 240.064697 68.670892 
L 236.902403 66.269953 
L 206.899469 102.908882 
L 204.83009 101.533802 
L 237.327854 42.398513 
L 233.340852 40.096617 
L 207.258214 80.599262 
L 204.487194 79.223933 
L 206.34347 67.296568 
L 203.154637 65.956578 
L 192.475033 85.087101 
L 189.85243 84.174369 
L 194.676584 58.090343 
L 191.204056 57.121737 
L 189.084453 50.221841 
L 185.367287 49.432955 
L 175.881536 83.927474 
L 173.230676 83.537051 
L 172.637257 62.418019 
L 169.311697 62.140238 
L 165.250851 82.094053 
L 162.547601 82.038789 
L 159.699027 76.64816 
L 156.827291 76.77015 
L 154.238139 80.068409 
L 151.476643 80.36041 
L 138.722298 15.660916 
L 133.943361 16.472614 
L 140.285928 68.134062 
L 137.156088 68.870652 
L 125.538514 39.912823 
L 121.528629 41.127057 
L 127.408661 70.205367 
L 124.350314 71.345822 
L 102.445862 28.423743 
L 98.086152 30.369742 
L 95.184728 35.218562 
L 91.042252 37.389507 
L 111.244353 81.129777 
L 108.537486 82.773072 
L 82.514758 49.807845 
L 78.837266 52.369948 
L 91.772015 76.536033 
L 88.930339 78.793852 
L 63.723729 55.483914 
L 60.233995 58.634041 
L 101.037031 106.433136 
L 99.130804 108.384861 
L 50.382731 68.720437 
L 47.315779 72.28349 
L 85.249606 107.906532 
L 83.397512 110.35392 
L 63.730233 100.600091 
L 61.659048 103.727707 
L 50.373154 101.364217 
L 48.332599 104.911431 
L 74.650029 123.04173 
L 73.279059 125.814908 
L 87.611813 135.453389 
L 86.624684 137.812884 
L 16.561476 115.033433 
L 14.967428 119.637002 
L 60.335191 138.063996 
L 59.443631 141.279837 
L 69.984471 147.094926 
L 69.372093 150.002907 
L 68.086775 152.805003 
L 67.654872 155.769828 
L 68.087344 158.822164 
L 67.844634 161.783996 
L 27.439139 163.358899 
L 27.359172 167.596557 
L 79.291097 170.365941 
L 79.405809 172.969796 
L 45.660786 178.672747 
L 46.05331 182.329905 
L 70.289258 182.287301 
L 70.783254 185.168299 
L 21.44166 199.038899 
L 22.486515 203.44749 
L 19.947089 208.890958 
L 21.302454 213.341671 
L 78.972791 197.700495 
L 79.947119 200.300843 
L 48.262311 216.931089 
L 49.856475 220.487534 
L 25.298843 237.28537 
L 27.544344 241.553772 
L 53.295001 232.009478 
L 55.360774 235.400229 
L 56.248582 239.591884 
L 58.551302 242.886018 
L 70.768392 238.534174 
L 73.030676 241.372297 
L 84.115402 236.475053 
L 86.306344 238.894535 
L 94.062556 235.779491 
L 96.22671 237.886556 
L 105.132799 232.386199 
L 107.184788 234.146869 
L 73.581058 281.667646 
L 77.198163 284.396006 
L 111.911282 241.588804 
L 114.249269 243.131794 
L 100.014521 272.568892 
L 103.332472 274.470625 
L 110.239369 269.372401 
L 113.451759 270.954223 
L 120.420846 263.910679 
L 123.456474 265.175073 
L 118.616655 288.192946 
L 122.416663 289.502062 
L 123.211075 301.099468 
L 127.414621 302.257744 
L 134.037161 292.70406 
L 137.971383 293.526091 
L 140.582007 302.637588 
L 144.825326 303.248924 
L 153.833494 254.378857 
L 156.5529 254.597397 
L 158.306058 284.149758 
L 161.959316 284.212951 
L 166.6077 317.454952 
L 171.304041 317.240657 
L 172.044628 274.458019 
L 175.386364 274.094034 
L 174.992085 249.902353 
L 177.560279 249.457833 
L 190.526452 295.816587 
L 194.53061 294.860932 
L 198.287587 293.035712 
L 202.200471 291.837404 
L 209.996218 301.453825 
L 214.167996 299.883211 
L 206.01591 269.731539 
L 209.192238 268.301759 
L 222.849318 287.490102 
L 226.575692 285.522262 
L 236.929897 294.779864 
L 240.878514 292.365696 
L 243.879723 288.546377 
L 247.62891 285.916773 
L 255.561456 288.683095 
L 259.309165 285.686124 
L 255.796005 274.43202 
L 259.095514 271.43472 
L 267.22491 273.268671 
L 270.48219 269.912597 
L 267.244871 260.816241 
L 270.110609 257.465696 
L 281.434145 260.679122 
L 284.288556 256.882503 
L 250.518749 228.158407 
L 252.365923 225.349915 
L 272.786866 233.535464 
L 274.792097 230.024154 
L 236.664563 206.035841 
L 237.823006 203.673893 
L 273.024209 216.057255 
L 274.479769 212.547125 
L 249.589883 199.537761 
L 250.53762 196.772625 
L 249.910349 193.546414 
L 250.669547 190.774164 
L 313.327082 201.849227 
L 314.315984 197.078912 
L 288.377239 188.034458 
L 288.94411 184.055451 
L 310.207268 182.030797 
L 310.574578 177.368374 
L 251.179024 170.821319 
L 273.686986 168.020416 
z
" clip-path="url(#p5fa9b04754)" style="fill: #0000ff; opacity: 0.5; stroke: #000000; stroke-width: 1.5; stroke-linejoin: miter"/>
   </g>
  </g>
 </g>
 <defs>
  <clipPath id="p5fa9b04754">
   <rect x="0" y="-0" width="329.283412" height="332.64"/>
  </clipPath>
 </defs>
</svg>
