<?xml version="1.0" encoding="utf-8" standalone="no"?>
<!DOCTYPE svg PUBLIC "-//W3C//DTD SVG 1.1//EN"
  "http://www.w3.org/Graphics/SVG/1.1/DTD/svg11.dtd">
<svg xmlns:xlink="http://www.w3.org/1999/xlink" width="326.015675pt" height="332.64pt" viewBox="0 0 326.015675 332.64" xmlns="http://www.w3.org/2000/svg" version="1.1">
 <metadata>
  <rdf:RDF xmlns:dc="http://purl.org/dc/elements/1.1/" xmlns:cc="http://creativecommons.org/ns#" xmlns:rdf="http://www.w3.org/1999/02/22-rdf-syntax-ns#">
   <cc:Work>
    <dc:type rdf:resource="http://purl.org/dc/dcmitype/StillImage"/>
    <dc:date>2023-12-09T18:06:28.111260</dc:date>
    <dc:format>image/svg+xml</dc:format>
    <dc:creator>
     <cc:Agent>
      <dc:title>Matplotlib v3.8.2, https://matplotlib.org/</dc:title>
     </cc:Agent>
    </dc:creator>
   </cc:Work>
  </rdf:RDF>
 </metadata>
 <defs>
  <style type="text/css">*{stroke-linejoin: round; stroke-linecap: butt}</style>
 </defs>
 <g id="figure_1">
  <g id="patch_1">
   <path d="M 0 332.64 
L 326.015675 332.64 
L 326.015675 0 
L 0 0 
L 0 332.64 
z
" style="fill: none"/>
  </g>
  <g id="axes_1">
   <g id="patch_2">
    <path d="M 277.106422 167.201764 
L 277.048785 163.536438 
L 260.036815 160.935228 
L 259.790584 157.809707 
L 260.967944 154.501038 
L 260.518947 151.349421 
L 311.196781 138.431638 
L 310.217692 133.708662 
L 280.121849 136.464482 
L 279.096273 132.719543 
L 264.825697 133.278733 
L 263.707518 130.016313 
L 301.700529 111.247933 
L 299.871421 106.836981 
L 260.439552 120.13555 
L 258.910291 117.017539 
L 272.737 105.443526 
L 270.739709 101.94612 
L 262.160356 102.626328 
L 260.079716 99.462867 
L 224.411115 120.73015 
L 222.918363 118.744657 
L 276.288969 71.305087 
L 273.216534 67.712879 
L 243.775086 88.913884 
L 241.272386 86.335277 
L 220.855388 102.85955 
L 218.802502 100.994693 
L 244.52735 65.487757 
L 241.287709 62.897079 
L 210.955913 97.662644 
L 208.744521 96.111617 
L 241.77041 38.906825 
L 237.69637 36.415973 
L 215.477134 67.005048 
L 212.299564 65.327023 
L 206.464745 69.304208 
L 203.363921 67.908415 
L 201.065165 64.470576 
L 197.815031 63.246948 
L 198.541339 49.721351 
L 194.828705 48.58437 
L 184.630772 72.829658 
L 181.651592 72.118629 
L 189.066143 16.492884 
L 184.313418 15.670252 
L 172.505614 71.313055 
L 169.484743 70.984018 
L 169.510056 20.99333 
L 164.908504 20.78336 
L 160.306243 23.018966 
L 155.772932 23.097382 
L 154.25819 70.00389 
L 151.205178 70.249239 
L 141.439833 18.100855 
L 136.761214 18.774904 
L 141.678409 69.2998 
L 138.609479 69.941034 
L 137.098888 76.618341 
L 134.262333 77.399946 
L 127.637829 66.607216 
L 124.49118 67.691248 
L 115.42214 53.910712 
L 111.882325 55.385109 
L 117.244977 75.688665 
L 114.389007 77.09498 
L 113.803862 82.618188 
L 111.167473 84.129273 
L 91.674542 59.209413 
L 88.313071 61.427867 
L 102.204917 87.29063 
L 99.721175 89.164101 
L 92.395599 85.216522 
L 89.851493 87.399445 
L 101.587374 104.723102 
L 99.652053 106.607371 
L 58.554422 71.895182 
L 55.608195 75.148733 
L 60.463383 84.829629 
L 57.9229 88.016762 
L 46.781594 84.993003 
L 44.253012 88.610242 
L 83.349723 118.498531 
L 81.856548 120.949421 
L 89.190695 128.226084 
L 88.000488 130.488512 
L 42.413508 112.008665 
L 40.736518 115.749888 
L 17.762407 111.131441 
L 16.070023 115.648183 
L 42.992922 129.378146 
L 41.861779 133.092563 
L 67.609841 143.629516 
L 66.914622 146.562877 
L 34.653731 143.574448 
L 33.973074 147.544049 
L 23.522358 150.313371 
L 23.059091 154.629634 
L 58.713188 161.110782 
L 58.572016 164.31523 
L 59.298597 167.52012 
L 59.358659 170.702993 
L 19.725303 176.51417 
L 20.087725 180.936867 
L 65.462351 179.527998 
L 65.89692 182.511132 
L 68.68366 185.04047 
L 69.289961 187.919593 
L 33.619465 200.247465 
L 34.721244 204.221565 
L 67.275955 197.859854 
L 68.286021 200.7769 
L 49.449197 211.636148 
L 50.901234 215.106895 
L 27.522158 230.375311 
L 29.574236 234.526227 
L 40.4751 233.775597 
L 42.627687 237.517563 
L 50.064959 237.88326 
L 52.341958 241.321669 
L 57.200961 242.874269 
L 59.631361 246.085839 
L 94.559309 222.207606 
L 96.321432 224.254765 
L 78.09444 245.223854 
L 80.588386 247.777325 
L 80.547481 253.05684 
L 83.286499 255.529309 
L 109.452821 229.455558 
L 111.435472 231.030849 
L 98.226164 253.701144 
L 100.9767 255.617439 
L 86.231357 285.363678 
L 89.983363 287.64146 
L 98.204769 281.716735 
L 101.836187 283.619851 
L 105.849221 284.712515 
L 109.571053 286.373791 
L 117.531712 277.202833 
L 121.011648 278.500498 
L 125.933351 275.305521 
L 129.349477 276.339959 
L 131.297168 283.215918 
L 134.959362 284.077795 
L 139.909505 278.038194 
L 143.404642 278.631839 
L 145.34205 292.057678 
L 149.275304 292.473581 
L 151.792713 317.265871 
L 156.515379 317.466487 
L 160.967073 259.232427 
L 163.860504 259.173275 
L 168.875023 290.395491 
L 172.74438 290.072288 
L 177.100689 293.429627 
L 181.061378 292.846291 
L 176.157617 246.980778 
L 178.658319 246.450059 
L 185.223843 261.420442 
L 188.174077 260.597522 
L 190.615654 258.225861 
L 193.462777 257.23499 
L 190.558236 241.922557 
L 192.892776 240.941552 
L 223.915563 300.113061 
L 228.063247 298.054458 
L 200.441278 238.905527 
L 202.676069 237.615269 
L 226.415769 269.814151 
L 229.609553 267.691917 
L 241.817053 277.831136 
L 245.255294 275.220687 
L 237.784674 259.56132 
L 240.650466 257.086692 
L 249.77365 261.197428 
L 252.684956 258.345031 
L 245.389757 246.008344 
L 247.825653 243.301296 
L 256.111804 245.374443 
L 258.522467 242.330583 
L 234.67016 220.427041 
L 236.307024 218.069688 
L 246.317429 220.956014 
L 247.965166 218.232185 
L 260.313536 221.307121 
L 261.965392 218.14305 
L 298.308837 231.052538 
L 300.248325 226.688993 
L 232.720765 195.290404 
L 233.568242 193.006773 
L 275.998953 203.957666 
L 277.09755 200.308988 
L 240.138195 187.129369 
L 240.725403 184.616553 
L 251.03803 183.894944 
L 251.518152 181.041012 
L 259.522915 179.087698 
L 259.847691 175.96936 
L 286.10814 174.317583 
L 286.26979 170.365706 
L 277.104116 166.468583 
L 277.023427 162.803692 
L 259.995434 160.309529 
L 259.72955 157.185619 
L 260.886077 153.86961 
L 260.417267 150.72088 
L 311.012853 137.484617 
L 310.004079 132.767892 
L 279.926163 135.712944 
L 278.877054 131.974529 
L 264.610278 132.623462 
L 263.471602 129.368139 
L 301.345819 110.361176 
L 299.489005 105.961815 
L 260.141556 119.508125 
L 258.592714 116.399793 
L 272.346357 104.739048 
L 270.327108 101.254273 
L 261.752203 101.988426 
L 259.651708 98.838114 
L 224.117572 120.329311 
L 222.612361 118.353247 
L 275.683544 70.578944 
L 272.588577 67.00613 
L 243.281053 88.391887 
L 240.762185 85.829071 
L 220.449518 102.481429 
L 218.384945 100.62952 
L 243.885965 64.961491 
L 240.630095 62.39124 
L 210.517554 97.346887 
L 208.29645 95.8098 
L 240.961901 38.398424 
L 236.872275 35.933246 
L 214.845867 66.661462 
L 211.657806 65.003455 
L 205.848116 69.017259 
L 202.738575 67.640997 
L 200.418243 64.217683 
L 197.160477 63.014521 
L 197.801702 49.484624 
L 194.08199 48.371015 
L 184.036749 72.679962 
L 181.053155 71.987686 
L 188.117705 16.316407 
L 183.3599 15.523684 
L 171.902292 71.23965 
L 168.879411 70.929619 
L 168.59031 20.939761 
L 163.987529 20.758736 
L 159.399419 23.023243 
L 154.866691 23.13017 
L 153.646995 70.045277 
L 150.595586 70.309823 
L 140.502451 18.223889 
L 135.828164 18.927351 
L 141.063034 69.420321 
L 137.998197 70.080844 
L 136.529633 76.767519 
L 133.69805 77.566949 
L 127.005797 66.816098 
L 123.866028 67.919898 
L 114.710495 54.196674 
L 111.180024 55.693305 
L 116.670267 75.962732 
L 113.823199 77.386982 
L 113.272804 82.91376 
L 110.645971 84.441397 
L 90.996693 59.64463 
L 87.649242 61.884181 
L 101.703475 87.65906 
L 99.231565 89.548116 
L 91.881306 85.646689 
L 89.350979 87.84557 
L 101.195585 105.095072 
L 99.272153 106.991476 
L 57.957015 72.538454 
L 55.031309 75.810471 
L 59.947289 85.460639 
L 57.426901 88.663687 
L 46.266797 85.710061 
L 43.761016 89.343131 
L 83.044933 118.984933 
L 81.567203 121.445166 
L 88.946971 128.675557 
L 87.771017 130.945426 
L 42.068711 112.752661 
L 40.415284 116.504357 
L 17.41258 112.030496 
L 15.748637 116.557792 
L 42.757357 130.118154 
L 41.649599 133.839612 
L 67.463423 144.214416 
L 66.786667 147.152092 
L 34.507618 144.366624 
L 33.851941 148.340427 
L 23.418849 151.175424 
L 22.982739 155.494515 
L 58.676893 161.751291 
L 58.555878 164.956563 
L 59.302601 168.156821 
L 59.382681 171.339252 
L 19.786658 177.399586 
L 20.176889 181.819916 
L 65.541756 180.125695 
L 65.995079 183.106036 
L 68.797672 185.617797 
L 69.422069 188.49305 
L 33.829814 201.045026 
L 34.956566 205.012117 
L 67.470622 198.445782 
L 68.499014 201.356417 
L 49.730861 212.333923 
L 51.204699 215.795469 
L 27.922114 231.210624 
L 30.000259 235.348551 
L 40.896186 234.529377 
L 43.072266 238.25773 
L 50.51169 238.576644 
L 52.810271 242.000663 
L 57.678942 243.522672 
L 60.129493 246.718892 
L 94.906569 222.621455 
L 96.681533 224.657491 
L 78.586786 245.740802 
L 81.096742 248.278537 
L 81.089042 253.558205 
L 83.843557 256.013399 
L 109.845372 229.775592 
L 111.837892 231.338382 
L 98.771428 254.091308 
L 101.533963 255.990265 
L 86.975998 285.828656 
L 90.742256 288.082795 
L 98.926236 282.106479 
L 102.569552 283.986717 
L 106.589378 285.054121 
L 110.321586 286.691955 
L 118.224407 277.471111 
L 121.712436 278.746864 
L 126.613947 275.520995 
L 130.036511 276.533926 
L 132.02741 283.3975 
L 135.694952 284.236326 
L 140.607011 278.165711 
L 144.105813 278.737363 
L 146.127623 292.150751 
L 150.063415 292.541908 
L 152.736704 317.317874 
L 157.460538 317.488783 
L 161.545885 259.227876 
L 164.438887 259.150527 
L 169.649677 290.340588 
L 173.516924 289.993055 
L 177.894263 293.322929 
L 181.851205 292.714694 
L 176.659073 246.880929 
L 179.156387 246.334493 
L 185.815937 261.263286 
L 188.760936 260.421827 
L 191.187549 258.034857 
L 194.028384 257.026099 
L 191.027594 241.732237 
L 193.355918 240.736569 
L 224.750246 299.711792 
L 228.884901 297.627143 
L 200.891464 238.653108 
L 203.118097 237.34882 
L 227.05984 269.397756 
L 230.240213 267.255477 
L 242.511241 277.317717 
L 245.932996 274.685695 
L 238.364035 259.073624 
L 241.214206 256.58102 
L 250.363064 260.634296 
L 253.256373 257.763644 
L 245.883728 245.473085 
L 248.30255 242.75077 
L 256.601575 244.77176 
L 258.993047 241.712799 
L 235.00345 219.959707 
L 236.625455 217.592106 
L 246.653816 220.415415 
L 248.284389 217.681276 
L 260.651854 220.678488 
L 262.283778 217.50409 
L 298.707698 230.184743 
L 300.619703 225.809086 
L 232.895999 194.835828 
L 233.729096 192.546912 
L 276.227843 203.230723 
L 277.30347 199.575208 
L 240.261954 186.628303 
L 240.833346 184.111843 
L 251.14123 183.325388 
L 251.603393 180.468493 
L 259.595713 178.464872 
L 259.90087 175.344553 
L 286.150411 173.527646 
L 286.287202 169.57483 
L 277.097199 165.735431 
L 276.993462 162.07112 
L 259.950118 159.684103 
L 259.664592 156.561926 
L 260.80024 153.238709 
L 260.311636 150.09299 
L 310.822973 136.538771 
L 309.784553 131.828484 
L 279.725755 134.962651 
L 278.653154 131.230908 
L 264.390741 131.969558 
L 263.231614 128.721461 
L 300.985539 109.476667 
L 299.101092 105.089071 
L 259.83962 118.882587 
L 258.271259 115.784058 
L 271.95129 104.037041 
L 269.910164 100.565034 
L 261.340046 101.353104 
L 259.219779 98.216066 
L 223.821513 119.930327 
L 222.303904 117.963769 
L 275.073563 69.856623 
L 271.956187 66.303346 
L 242.783747 87.873007 
L 240.24881 85.326084 
L 220.041279 102.105868 
L 217.965099 100.266981 
L 243.241283 64.43927 
L 239.969312 61.889548 
L 210.077218 97.033894 
L 207.846491 95.510807 
L 240.15021 37.89512 
L 236.045161 35.455711 
L 214.212451 66.321853 
L 211.014025 64.68393 
L 205.229695 68.734195 
L 202.11156 67.377516 
L 199.769742 63.968864 
L 196.504474 62.786215 
L 197.060591 49.252553 
L 193.333949 48.162361 
L 183.441795 72.534006 
L 180.453907 71.860509 
L 187.168176 16.145899 
L 182.40548 15.383115 
L 171.298519 71.170041 
L 168.273749 70.879029 
L 167.670246 20.891978 
L 163.066417 20.739905 
L 158.492641 23.033224 
L 153.960675 23.168657 
L 153.036071 70.090507 
L 149.986387 70.37424 
L 139.565861 18.352816 
L 134.89609 19.085663 
L 140.448429 69.54471 
L 137.387808 70.224495 
L 135.961327 76.920275 
L 133.134829 77.737499 
L 126.375091 67.02895 
L 123.242327 68.152476 
L 114.000664 54.487106 
L 110.479675 56.005913 
L 116.097293 76.240408 
L 113.259239 77.682536 
L 112.743615 83.212667 
L 110.126442 84.756795 
L 90.321595 60.084101 
L 86.988295 62.344661 
L 101.20436 88.030638 
L 98.74438 89.935203 
L 91.369729 86.080082 
L 88.853282 88.294834 
L 100.806143 105.469499 
L 98.894676 107.377963 
L 57.363665 73.185471 
L 54.458597 76.475824 
L 59.435173 86.094882 
L 56.93498 89.313719 
L 45.756521 86.430342 
L 43.273639 90.0791 
L 82.74321 119.473242 
L 81.280982 121.942721 
L 88.706079 129.126555 
L 87.544424 131.403774 
L 41.7286 113.498811 
L 40.098802 117.260832 
L 17.068415 112.931733 
L 15.432979 117.469405 
L 42.526452 130.859629 
L 41.442121 134.587981 
L 67.320687 144.800226 
L 66.66242 147.742099 
L 34.36649 145.159704 
L 33.73582 149.137552 
L 23.320765 152.038111 
L 22.911828 156.35986 
L 58.644627 162.392015 
L 58.543774 165.597986 
L 59.31061 168.793483 
L 59.410704 171.975348 
L 19.85358 178.284599 
L 20.271605 182.702387 
L 65.624919 180.72288 
L 66.096978 183.700311 
L 68.915313 186.194396 
L 69.557781 189.065665 
L 34.045175 201.841247 
L 35.196856 205.801173 
L 67.668969 199.030473 
L 68.715648 201.934583 
L 50.016908 213.029913 
L 51.512488 216.48212 
L 28.327316 232.043405 
L 30.431446 236.16818 
L 41.322005 235.280492 
L 43.521491 238.995086 
L 50.962774 239.267203 
L 53.282844 242.676699 
L 58.160992 244.168056 
L 60.631596 247.3488 
L 95.256425 223.033111 
L 97.04416 225.057944 
L 79.082373 246.254644 
L 81.60824 248.776542 
L 81.633747 254.056154 
L 84.403649 256.493975 
L 110.239929 230.09315 
L 112.242238 231.643378 
L 99.319136 254.478034 
L 102.093559 256.359579 
L 87.723549 286.288941 
L 91.503909 288.519348 
L 99.65014 282.491678 
L 103.30521 284.348964 
L 107.33167 285.391064 
L 111.074105 287.005393 
L 118.918776 277.735026 
L 122.414759 278.988817 
L 127.295884 275.732183 
L 130.724752 276.723569 
L 132.758779 283.574486 
L 136.431524 284.390229 
L 141.305306 278.288839 
L 144.807633 278.838474 
L 146.913766 292.238881 
L 150.851941 292.605276 
L 153.681003 317.363939 
L 158.405819 317.505135 
L 162.124658 259.219685 
L 165.017116 259.124142 
L 170.42397 290.280813 
L 174.288955 289.908964 
L 178.68715 293.211242 
L 182.640188 292.578131 
L 177.159891 246.777929 
L 179.653719 246.215797 
L 186.40703 261.10241 
L 189.346679 260.242445 
L 191.758231 257.840261 
L 194.592666 256.813655 
L 191.495745 241.538969 
L 193.817761 240.528677 
L 225.582389 299.305281 
L 229.70385 297.194668 
L 201.340055 238.397863 
L 203.55844 237.079597 
L 227.701279 268.977319 
L 230.868116 266.815079 
L 243.202187 276.799942 
L 246.60732 274.146451 
L 238.940318 258.582293 
L 241.774755 256.071813 
L 250.948925 260.067467 
L 253.824122 257.178676 
L 246.374322 244.934728 
L 248.775974 242.197254 
L 257.087547 244.166008 
L 259.459732 241.092067 
L 235.333795 219.490286 
L 236.940877 217.112531 
L 246.986797 219.872711 
L 248.600141 217.128371 
L 260.986212 220.047739 
L 262.598139 216.86314 
L 299.101092 229.314456 
L 300.985539 224.92686 
L 233.06837 194.380159 
L 233.887055 192.086049 
L 276.452157 202.502355 
L 277.504771 198.840148 
L 240.382559 186.126468 
L 240.938113 183.606465 
L 251.240847 182.755194 
L 251.685032 179.895449 
L 259.664592 177.841601 
L 259.950118 174.719424 
L 286.187713 172.737458 
L 286.29964 168.78386 
L 277.085672 165.002336 
L 276.95889 161.338751 
L 259.90087 159.058974 
L 259.595713 155.938655 
L 260.710437 152.608361 
L 260.202058 149.465777 
L 310.627147 135.594139 
L 309.559124 130.890476 
L 279.520632 134.213633 
L 278.424582 130.48871 
L 264.167097 131.317048 
L 262.987563 128.076306 
L 300.619703 108.594442 
L 298.707698 104.218784 
L 259.533756 118.25896 
L 257.945938 115.170356 
L 271.551816 103.337532 
L 269.488894 99.878432 
L 260.923902 100.720387 
L 258.783946 97.596746 
L 223.522951 119.533213 
L 221.993003 117.576238 
L 274.459052 69.138153 
L 271.319389 65.604552 
L 242.283187 87.357265 
L 239.732282 84.826336 
L 219.630686 101.732882 
L 217.542981 99.907089 
L 242.593329 63.921114 
L 239.305386 61.392021 
L 209.634922 96.723677 
L 207.394659 95.214649 
L 239.33537 37.39693 
L 235.215059 34.983388 
L 213.576912 65.986235 
L 210.368248 64.368461 
L 204.609506 68.455025 
L 201.482899 67.117985 
L 199.11969 63.724129 
L 195.847048 62.56204 
L 196.318035 49.025148 
L 192.58461 47.958416 
L 182.845936 72.391795 
L 179.85387 71.737103 
L 186.217594 15.981366 
L 181.450194 15.248552 
L 170.694321 71.104231 
L 167.66778 70.832249 
L 166.749899 20.849982 
L 162.145205 20.726868 
L 157.585943 23.048908 
L 153.054918 23.212842 
L 152.425445 70.139579 
L 149.377606 70.442487 
L 138.6301 18.487631 
L 133.965031 19.249833 
L 139.834619 69.672961 
L 136.778333 70.371983 
L 135.393994 77.076603 
L 132.572691 77.911587 
L 125.745736 67.245765 
L 122.6201 68.388972 
L 113.292673 54.781998 
L 109.781306 56.322919 
L 115.526077 76.521682 
L 112.697149 77.981631 
L 112.216316 83.514896 
L 109.608907 85.075454 
L 89.649274 60.527809 
L 86.330258 62.80929 
L 100.707592 88.405347 
L 98.25964 90.325346 
L 90.860888 86.516684 
L 88.35842 88.747219 
L 100.419063 105.846367 
L 98.519637 107.766816 
L 56.774396 73.836207 
L 53.89008 77.144766 
L 58.927056 86.732334 
L 56.447157 89.966832 
L 45.250784 87.153818 
L 42.7909 90.81812 
L 82.444563 119.96344 
L 80.997895 122.442066 
L 88.468028 129.579058 
L 87.320718 131.863539 
L 41.393189 114.247085 
L 39.787084 118.019282 
L 16.729925 113.835117 
L 15.123061 118.382985 
L 42.300214 131.602542 
L 41.239354 135.33764 
L 67.181637 145.386921 
L 66.541886 148.332877 
L 34.230354 145.953656 
L 33.624714 149.935392 
L 23.228108 152.901397 
L 22.84636 157.225633 
L 58.616391 163.03293 
L 58.535705 166.239471 
L 59.322623 169.430083 
L 59.442728 172.611256 
L 19.926068 179.169173 
L 20.371869 183.584245 
L 65.711836 181.31953 
L 66.202612 184.293934 
L 69.036578 186.770243 
L 69.697092 189.637415 
L 34.26554 202.636099 
L 35.442103 206.588703 
L 67.870991 199.613905 
L 68.935914 202.511375 
L 50.307327 213.724089 
L 51.82459 217.166823 
L 28.737748 232.873621 
L 30.867779 236.985081 
L 41.75254 236.028915 
L 43.975344 239.729602 
L 51.418192 239.954912 
L 53.75966 243.349748 
L 58.647091 244.810395 
L 61.137651 247.975538 
L 95.608864 223.442559 
L 97.409298 225.456108 
L 79.581181 246.765358 
L 82.12286 249.271321 
L 82.181572 254.550668 
L 84.966752 256.971019 
L 110.636474 230.408221 
L 112.648494 231.945824 
L 99.869265 254.861308 
L 102.655467 256.725366 
L 88.473979 286.744515 
L 92.268293 288.951102 
L 100.376452 282.872316 
L 104.043131 284.706578 
L 108.076066 285.723333 
L 111.82858 287.314092 
L 119.61479 277.99457 
L 123.11859 279.226347 
L 127.979136 275.939079 
L 131.414171 276.90888 
L 133.491247 283.746868 
L 137.16905 284.539495 
L 142.004361 278.407573 
L 145.510076 278.935169 
L 147.700448 292.322065 
L 151.64085 292.663684 
L 154.625574 317.404064 
L 159.351184 317.51554 
L 162.703367 259.207854 
L 165.595167 259.094121 
L 171.197872 290.21617 
L 175.060442 289.82002 
L 179.479319 293.09457 
L 183.428297 292.43661 
L 177.660051 246.671781 
L 180.150294 246.093976 
L 186.9971 260.93782 
L 189.931283 260.059383 
L 192.327679 257.642079 
L 195.1556 256.597667 
L 191.962671 241.34276 
L 194.278287 240.317884 
L 226.411958 298.893544 
L 230.520064 296.757051 
L 201.787031 238.139801 
L 203.997081 236.807609 
L 228.340061 268.552855 
L 231.493236 266.37074 
L 243.889862 276.277831 
L 247.278239 273.602977 
L 239.513499 258.087348 
L 242.332091 255.55909 
L 251.53121 259.496965 
L 254.388181 256.590147 
L 246.86152 244.393297 
L 249.245908 241.640772 
L 257.569698 243.557212 
L 259.922503 240.468412 
L 235.661181 219.018797 
L 237.253276 216.630981 
L 247.316357 219.327924 
L 248.91241 216.573491 
L 261.316597 219.4149 
L 262.908462 216.220226 
L 299.489005 228.441713 
L 301.345819 224.042351 
L 233.237872 193.923415 
L 234.042112 191.624201 
L 276.671885 201.772591 
L 277.701445 198.103835 
L 240.500005 185.623885 
L 241.039699 183.100437 
L 251.336875 182.184385 
L 251.763065 179.321903 
L 259.72955 177.217909 
L 259.995434 174.093998 
L 286.220044 171.947051 
L 286.307103 167.992827 
L 277.069533 164.269329 
L 276.919712 160.606614 
L 259.847691 158.434167 
L 259.522915 155.315829 
L 260.616672 151.97859 
L 260.088538 148.839266 
L 310.425385 134.650756 
L 309.327799 129.953904 
L 279.310802 133.465921 
L 278.191346 129.747965 
L 263.939352 130.665958 
L 262.73946 127.432699 
L 300.248325 107.714535 
L 298.308837 103.350989 
L 259.223975 117.637269 
L 257.616763 114.558713 
L 271.14795 102.640549 
L 269.063313 99.194492 
L 260.503786 100.0903 
L 258.344226 96.98018 
L 223.221897 119.137985 
L 221.679671 117.190671 
L 273.840034 68.423562 
L 270.678209 64.909778 
L 241.779394 86.844682 
L 239.212621 84.329846 
L 219.217755 101.362485 
L 217.118608 99.549859 
L 241.94213 63.407044 
L 238.638345 60.89868 
L 209.190684 96.416247 
L 206.940974 94.92134 
L 238.517412 36.903874 
L 234.382004 34.516295 
L 212.939275 65.654621 
L 209.720499 64.057059 
L 203.987573 68.179762 
L 200.852619 66.862412 
L 198.468111 63.483487 
L 195.188225 62.342004 
L 195.574063 48.802417 
L 191.834003 47.759188 
L 182.249193 72.253334 
L 179.25307 71.617473 
L 185.265995 15.822815 
L 180.494081 15.12 
L 170.089721 71.042223 
L 167.06153 70.789281 
L 165.829306 20.813776 
L 161.223929 20.719625 
L 156.679361 23.070294 
L 152.149457 23.262722 
L 151.815139 70.19249 
L 148.769265 70.514562 
L 137.695205 18.628329 
L 133.035023 19.419857 
L 139.221627 69.805071 
L 136.169799 70.523302 
L 134.827655 77.236495 
L 132.011659 78.089207 
L 125.117758 67.466534 
L 121.999374 68.629377 
L 112.58655 55.081336 
L 109.084944 56.644311 
L 114.956641 76.806543 
L 112.136951 78.284256 
L 111.690929 83.820435 
L 109.093386 85.397362 
L 88.979758 60.975737 
L 85.675156 63.278047 
L 100.213191 88.783173 
L 97.777362 90.718531 
L 90.354802 86.956477 
L 87.866413 89.202708 
L 100.034361 106.225663 
L 98.147051 108.15802 
L 56.189232 74.490636 
L 53.325782 77.81727 
L 58.422958 87.372969 
L 55.963452 90.623001 
L 44.749608 87.880461 
L 42.312819 91.560162 
L 82.149005 120.455506 
L 80.717955 122.943181 
L 88.232828 130.03305 
L 87.099909 132.324701 
L 41.06249 114.997454 
L 39.480142 118.779678 
L 16.397123 114.740612 
L 14.818894 119.298497 
L 42.078654 132.346863 
L 41.041307 136.088559 
L 67.046281 145.974479 
L 66.425071 148.9244 
L 34.099213 146.748448 
L 33.518629 150.733914 
L 23.140882 153.76525 
L 22.786339 158.091801 
L 58.592188 163.67401 
L 58.53167 166.880995 
L 59.33864 170.066594 
L 59.47875 173.246949 
L 20.004117 180.053274 
L 20.477678 184.465454 
L 65.802504 181.915622 
L 66.311978 184.88688 
L 69.161462 187.345317 
L 69.839996 190.208277 
L 34.490899 203.429548 
L 35.692299 207.374674 
L 68.076677 200.196056 
L 69.159803 203.08677 
L 50.602106 214.416426 
L 52.140992 217.849548 
L 29.153394 233.701239 
L 31.309241 237.799221 
L 42.187773 236.774615 
L 44.433809 240.461248 
L 51.877926 240.639743 
L 54.240699 244.019786 
L 59.13722 245.449665 
L 61.647639 248.599081 
L 95.963871 223.849783 
L 97.776934 225.851968 
L 80.083192 247.272925 
L 82.640582 249.762852 
L 82.732497 255.041726 
L 85.532844 257.444512 
L 111.034994 230.720791 
L 113.056645 232.24571 
L 100.421794 255.241115 
L 103.219664 257.087612 
L 89.227261 287.195361 
L 93.035378 289.37804 
L 101.105145 283.248379 
L 104.783287 285.059542 
L 108.822537 286.050912 
L 112.584982 287.618039 
L 120.312424 278.24973 
L 123.823901 279.459447 
L 128.663676 276.141674 
L 132.104743 277.08985 
L 134.224784 283.91464 
L 137.9075 284.68412 
L 142.704149 278.521908 
L 146.213113 279.027445 
L 148.487638 292.400299 
L 152.43011 292.717129 
L 155.570378 317.438247 
L 160.296596 317.52 
L 163.28199 259.192384 
L 166.173017 259.060465 
L 171.971352 290.146661 
L 175.831354 289.726225 
L 180.270739 292.972918 
L 184.215501 292.290134 
L 178.159533 246.56249 
L 180.646093 245.969033 
L 187.586123 260.769521 
L 190.514723 259.872648 
L 192.895868 257.440319 
L 195.717165 256.378142 
L 192.428355 241.143619 
L 194.737479 240.104199 
L 227.238922 298.476597 
L 231.333509 296.31431 
L 202.232375 237.878933 
L 204.434002 236.532867 
L 228.976161 268.124382 
L 232.115549 265.922479 
L 244.57424 275.751406 
L 247.945726 273.055294 
L 240.083556 257.588808 
L 242.88619 255.042872 
L 252.109894 258.922812 
L 254.948527 255.998083 
L 247.345304 243.848813 
L 249.712332 241.081346 
L 258.048012 242.945396 
L 260.381343 239.841859 
L 235.985595 218.545258 
L 237.562641 216.147476 
L 247.642485 218.781075 
L 249.221182 216.016658 
L 261.642994 218.779995 
L 263.214735 215.575372 
L 299.871421 227.566547 
L 301.700529 223.155594 
L 233.404498 193.465613 
L 234.194262 191.161387 
L 276.887019 201.041459 
L 277.893484 197.366301 
L 240.614288 185.120573 
L 241.1381 182.593781 
L 251.429311 181.612984 
L 251.83749 178.747878 
L 259.790584 176.59382 
L 260.036815 173.468299 
L 286.247403 171.156457 
L 277.106422 167.201764 
z
" clip-path="url(#p7bc016fa1e)" style="fill: #0000ff; opacity: 0.5; stroke: #000000; stroke-width: 1.5; stroke-linejoin: miter"/>
   </g>
  </g>
 </g>
 <defs>
  <clipPath id="p7bc016fa1e">
   <rect x="0" y="-0" width="326.015675" height="332.64"/>
  </clipPath>
 </defs>
</svg>
