<?xml version="1.0" encoding="utf-8" standalone="no"?>
<!DOCTYPE svg PUBLIC "-//W3C//DTD SVG 1.1//EN"
  "http://www.w3.org/Graphics/SVG/1.1/DTD/svg11.dtd">
<svg xmlns:xlink="http://www.w3.org/1999/xlink" width="334.8pt" height="331.56389pt" viewBox="0 0 334.8 331.56389" xmlns="http://www.w3.org/2000/svg" version="1.1">
 <metadata>
  <rdf:RDF xmlns:dc="http://purl.org/dc/elements/1.1/" xmlns:cc="http://creativecommons.org/ns#" xmlns:rdf="http://www.w3.org/1999/02/22-rdf-syntax-ns#">
   <cc:Work>
    <dc:type rdf:resource="http://purl.org/dc/dcmitype/StillImage"/>
    <dc:date>2023-12-09T18:06:28.237954</dc:date>
    <dc:format>image/svg+xml</dc:format>
    <dc:creator>
     <cc:Agent>
      <dc:title>Matplotlib v3.8.2, https://matplotlib.org/</dc:title>
     </cc:Agent>
    </dc:creator>
   </cc:Work>
  </rdf:RDF>
 </metadata>
 <defs>
  <style type="text/css">*{stroke-linejoin: round; stroke-linecap: butt}</style>
 </defs>
 <g id="figure_1">
  <g id="patch_1">
   <path d="M 0 331.56389 
L 334.8 331.56389 
L 334.8 0 
L 0 0 
L 0 331.56389 
z
" style="fill: none"/>
  </g>
  <g id="axes_1">
   <g id="patch_2">
    <path d="M 284.494278 159.48328 
L 284.436927 155.83616 
L 275.482748 152.745728 
L 275.21801 149.385281 
L 285.958722 144.629756 
L 285.433619 140.943934 
L 287.150179 136.826306 
L 286.37913 133.10688 
L 289.365413 128.41785 
L 288.328889 124.63293 
L 258.266082 130.285232 
L 257.303649 127.47722 
L 292.693459 110.257308 
L 291.084281 106.376726 
L 295.143303 99.821251 
L 293.204782 95.8688 
L 251.196319 113.966281 
L 249.724277 111.388625 
L 292.059103 80.972013 
L 289.529446 77.125856 
L 235.776037 110.53955 
L 234.203876 108.448436 
L 259.67199 83.952773 
L 257.252068 81.123464 
L 227.355898 104.130067 
L 225.586371 102.306871 
L 248.381454 74.27845 
L 245.662932 71.808924 
L 252.546175 57.706323 
L 249.304529 55.114042 
L 236.591078 65.57749 
L 233.604808 63.482981 
L 231.410081 60.131679 
L 228.255144 58.202764 
L 245.426766 19.198546 
L 240.977872 16.849154 
L 222.186229 45.057726 
L 218.561895 43.426282 
L 204.612176 67.954404 
L 201.716452 66.864206 
L 206.667711 41.509774 
L 202.939494 40.368021 
L 190.46879 73.448093 
L 187.752793 72.799878 
L 195.434492 17.217443 
L 190.948025 16.440898 
L 186.14202 18.187195 
L 181.690638 17.702345 
L 175.26522 49.29603 
L 171.797346 49.13779 
L 168.357658 69.08769 
L 165.515493 69.136853 
L 161.697103 54.107652 
L 158.387226 54.373644 
L 150.413315 18.243374 
L 145.981366 18.881885 
L 144.446032 34.584449 
L 140.530832 35.402505 
L 136.643289 36.343259 
L 132.787248 37.405782 
L 129.961069 41.630386 
L 126.274571 42.900397 
L 115.52738 26.448647 
L 111.370671 28.179992 
L 101.455377 17.747792 
L 97.032051 19.925894 
L 120.918626 73.357373 
L 118.234164 74.896012 
L 85.063414 28.627939 
L 80.990288 31.31606 
L 112.375899 82.591884 
L 109.986014 84.39456 
L 83.111147 56.74068 
L 79.922913 59.476284 
L 79.567105 65.220138 
L 76.647236 68.062983 
L 55.115658 53.517306 
L 51.839916 57.134744 
L 83.266825 89.323874 
L 81.103001 92.038474 
L 46.607414 71.390958 
L 43.897866 75.267077 
L 76.491263 101.425164 
L 74.71128 104.34682 
L 94.786896 119.212473 
L 93.557139 121.550079 
L 73.558101 115.120337 
L 72.210174 118.127446 
L 44.151939 110.648107 
L 42.677935 114.582022 
L 17.721676 110.963863 
L 16.270668 115.728646 
L 55.291098 130.765093 
L 54.444109 134.338821 
L 38.771494 135.1335 
L 38.070025 139.224481 
L 59.728219 146.075725 
L 59.360436 149.502371 
L 41.532818 151.887962 
L 41.356781 155.883837 
L 26.907225 159.928553 
L 26.991233 164.380314 
L 27.215172 168.827232 
L 27.578821 173.26491 
L 42.361615 175.837535 
L 42.938195 179.79551 
L 53.062398 181.903201 
L 53.824405 185.52172 
L 59.344706 187.905054 
L 60.292318 191.323077 
L 45.387995 199.95609 
L 46.721419 203.806984 
L 30.349408 214.744532 
L 32.155248 219.06096 
L 53.606154 214.052075 
L 55.378723 217.637602 
L 39.073513 231.252045 
L 41.394073 235.286006 
L 49.231001 235.795853 
L 51.689405 239.508194 
L 78.143259 225.653546 
L 80.268472 228.461837 
L 105.214489 212.247707 
L 106.904808 214.211447 
L 65.080485 257.362178 
L 68.209145 260.565514 
L 96.520627 236.744522 
L 98.985478 238.969504 
L 95.937342 247.918603 
L 98.753819 250.156401 
L 98.366372 256.848234 
L 101.462416 259.005242 
L 105.90225 259.032227 
L 109.063237 260.951211 
L 120.696396 247.312003 
L 123.481559 248.771621 
L 121.58612 260.296829 
L 124.779114 261.722053 
L 118.403926 287.633052 
L 122.458004 289.144815 
L 136.799307 258.528981 
L 139.929194 259.476743 
L 130.381104 310.746798 
L 135.156007 311.870544 
L 147.134445 274.306905 
L 150.755315 274.921906 
L 151.881693 296.069512 
L 156.18448 296.524489 
L 162.685587 259.30935 
L 165.827212 259.442805 
L 169.160154 299.475067 
L 173.561476 299.385088 
L 176.174284 272.818338 
L 179.733992 272.520999 
L 179.222527 241.178674 
L 181.785907 240.801136 
L 199.250001 316.492805 
L 204.17152 315.448321 
L 203.17686 291.808492 
L 207.320309 290.652744 
L 213.182558 294.684177 
L 217.411478 293.212406 
L 216.819695 279.731981 
L 220.576687 278.153243 
L 224.282182 276.457158 
L 227.932517 274.645402 
L 240.861013 289.495544 
L 244.913106 287.156067 
L 229.872685 255.071466 
L 232.847842 253.094506 
L 235.759369 251.024978 
L 238.604385 248.864929 
L 242.919803 248.457337 
L 245.680547 246.073417 
L 246.161793 241.283305 
L 248.695367 238.800997 
L 230.04755 216.64273 
L 231.814338 214.679273 
L 283.675817 253.684227 
L 286.580755 250.016265 
L 254.277888 221.065892 
L 256.17177 218.338393 
L 247.810869 209.18117 
L 249.334266 206.662884 
L 254.29388 206.004553 
L 255.714192 203.283998 
L 302.77411 221.71129 
L 304.664306 217.458644 
L 251.997344 191.972597 
L 252.977596 189.331187 
L 317.142927 206.800347 
L 318.557186 202.103286 
L 301.974675 192.896089 
L 302.959253 188.682826 
L 279.423408 179.942551 
L 280.011849 176.444754 
L 289.226846 173.979234 
L 289.62294 170.176143 
L 316.255724 167.85599 
L 316.445925 163.20608 
L 284.491984 158.753741 
L 284.411696 155.107053 
L 275.438257 152.072999 
L 275.152388 148.714283 
L 285.862978 143.8913 
L 285.314705 140.208853 
L 287.005332 136.08051 
L 286.210906 132.366008 
L 289.167639 127.658288 
L 288.10733 123.879962 
L 258.080668 129.721231 
L 257.100592 126.919327 
L 292.381399 109.477174 
L 290.747847 105.606789 
L 294.765558 99.025915 
L 292.802217 95.085735 
L 250.908407 113.447066 
L 249.420183 110.878721 
L 291.562868 80.196448 
L 289.00907 76.366277 
L 235.466878 110.117388 
L 233.881596 108.036204 
L 259.195143 83.380846 
L 256.757473 80.566812 
L 227.006593 103.760991 
L 225.225635 101.948959 
L 247.843984 73.777725 
L 245.109984 71.325345 
L 251.904393 57.179732 
L 248.646508 54.607891 
L 235.999117 65.151092 
L 232.999733 63.075406 
L 230.783972 59.737974 
L 227.616966 57.82894 
L 244.542933 18.717494 
L 240.079351 16.396129 
L 221.465496 44.722332 
L 217.830972 43.113716 
L 204.035797 67.729088 
L 201.133274 66.657124 
L 205.924969 41.272053 
L 202.189645 40.153771 
L 189.927243 73.311622 
L 187.207223 72.680502 
L 194.539188 17.050853 
L 190.047926 16.30254 
L 185.252998 18.07903 
L 180.798656 17.622187 
L 174.572071 49.255659 
L 171.10327 49.119233 
L 167.789123 69.090372 
L 164.947324 69.15741 
L 161.034485 54.152521 
L 157.726346 54.439325 
L 149.525354 18.359921 
L 145.097508 19.026294 
L 143.660965 34.738203 
L 139.750988 35.580868 
L 135.869439 36.546054 
L 132.020156 37.632808 
L 129.220603 41.875103 
L 125.542165 43.168276 
L 114.691715 26.784445 
L 110.545978 28.541898 
L 100.565267 18.172267 
L 96.155728 20.378145 
L 120.377884 73.658335 
L 117.703153 75.213828 
L 84.242058 29.155295 
L 80.18592 31.86898 
L 111.893406 82.946392 
L 109.514906 84.764063 
L 82.466643 57.279758 
L 79.295678 60.035361 
L 78.976002 65.781339 
L 76.074071 68.642492 
L 54.451435 54.232524 
L 51.198509 57.870493 
L 82.827248 89.861329 
L 80.68054 92.589484 
L 46.055775 72.159334 
L 43.370658 76.052418 
L 76.12793 102.004994 
L 74.366358 104.937787 
L 94.535073 119.676882 
L 93.320043 122.022177 
L 73.280961 115.718344 
L 71.951974 118.733871 
L 43.847253 111.431151 
L 42.39802 115.374258 
L 17.419499 111.913131 
L 15.998488 116.686947 
L 55.112716 131.477679 
L 54.288221 135.056664 
L 38.620914 135.949899 
L 37.945189 140.045211 
L 59.646044 146.760102 
L 59.29982 150.188993 
L 41.487559 152.686662 
L 41.336657 156.683566 
L 26.912826 160.819082 
L 27.024831 165.270226 
L 27.276735 169.715647 
L 27.668287 174.15095 
L 42.466969 176.630549 
L 43.068431 180.584819 
L 53.20569 182.628793 
L 53.99044 186.242449 
L 59.525622 188.591016 
L 60.494713 192.003011 
L 45.644981 200.729593 
L 47.002599 204.572024 
L 30.699702 215.612326 
L 32.532655 219.917311 
L 53.951633 214.773612 
L 55.746718 218.34792 
L 39.527458 232.064643 
L 41.873343 236.08393 
L 49.713323 236.544477 
L 52.195027 240.241283 
L 78.56122 226.220529 
L 80.704053 229.015398 
L 105.547599 212.644692 
L 107.250236 214.597762 
L 65.698133 258.010691 
L 68.846878 261.194286 
L 97.00798 237.195702 
L 99.486776 239.405138 
L 96.494985 248.373231 
L 99.325481 250.59327 
L 98.98013 257.287407 
L 102.089678 259.424901 
L 106.529595 259.423961 
L 109.702588 261.323026 
L 121.249734 247.610922 
L 124.044022 249.052994 
L 122.221108 260.589895 
L 125.423003 261.995009 
L 119.210906 287.945592 
L 123.274412 289.431827 
L 137.422875 258.7264 
L 140.558661 259.654458 
L 131.33322 310.983551 
L 136.115096 312.077243 
L 147.857043 274.43901 
L 151.481709 275.031226 
L 152.741072 296.171328 
L 157.046635 296.599235 
L 163.313551 259.343944 
L 166.455953 259.457637 
L 170.04061 299.468145 
L 174.441279 299.350486 
L 176.886946 272.767828 
L 180.444713 272.448106 
L 179.736133 241.109619 
L 182.297088 240.715965 
L 200.236893 316.296298 
L 205.151747 315.220881 
L 204.008425 291.587776 
L 208.144523 290.405991 
L 214.032011 294.400474 
L 218.251591 292.902134 
L 217.575036 279.425698 
L 221.322024 277.823362 
L 225.016779 276.104005 
L 228.655646 274.269326 
L 241.677285 289.037861 
L 245.714584 286.672945 
L 230.472666 254.683574 
L 233.435331 252.687942 
L 236.333784 250.600143 
L 239.165159 248.422243 
L 243.477927 247.987517 
L 246.223623 245.586282 
L 246.674733 240.793237 
L 249.192644 238.295044 
L 230.405833 216.254499 
L 232.160237 214.279968 
L 284.266009 252.957972 
L 287.14782 249.271812 
L 254.663512 220.525178 
L 256.540201 217.785822 
L 248.121872 208.681365 
L 249.6294 206.153548 
L 254.584776 205.464037 
L 255.987949 202.734603 
L 303.162833 220.86555 
L 305.026245 216.6011 
L 252.200032 191.446802 
L 253.163651 188.799279 
L 317.437585 205.86453 
L 318.822274 201.158667 
L 302.182182 192.055946 
L 303.140242 187.836574 
L 279.549892 179.2445 
L 280.116321 175.743071 
L 289.31563 173.219642 
L 289.687797 169.414136 
L 316.305461 166.926523 
L 316.466414 162.275509 
L 284.485101 158.02423 
L 284.381879 154.378119 
L 275.389535 151.400563 
L 275.082548 148.043712 
L 285.762592 143.15346 
L 285.191169 139.474535 
L 286.855798 135.335641 
L 286.038025 131.626208 
L 288.965091 126.899985 
L 287.881039 123.128402 
L 257.891709 129.158407 
L 256.894031 126.362722 
L 292.064438 108.699018 
L 290.406576 104.838984 
L 294.382818 98.232971 
L 292.394734 94.305217 
L 250.617236 112.929674 
L 249.112887 110.370739 
L 291.061765 79.424019 
L 288.483928 75.609986 
L 235.15507 109.697179 
L 233.55673 107.626007 
L 258.714708 82.811929 
L 256.259388 80.013282 
L 226.654974 103.394118 
L 224.862655 101.593324 
L 247.303376 73.28039 
L 244.554005 70.845254 
L 251.259312 56.657188 
L 247.985316 54.105887 
L 235.404486 64.728425 
L 232.392107 62.671644 
L 230.155398 59.348215 
L 226.976448 57.459137 
L 243.656092 18.24201 
L 239.177998 15.948764 
L 220.742667 44.391478 
L 217.098098 42.805752 
L 203.458012 67.507402 
L 200.548804 66.453714 
L 205.180747 41.039008 
L 201.438464 39.944241 
L 189.384848 73.17856 
L 186.660912 72.56456 
L 193.642854 16.889897 
L 189.146974 16.169846 
L 184.363314 17.976458 
L 179.906186 17.54764 
L 173.878681 49.219648 
L 170.409092 49.105041 
L 167.220617 69.096629 
L 164.379295 69.181539 
L 160.372162 54.201557 
L 157.065892 54.509162 
L 148.638143 18.48205 
L 144.214576 19.176259 
L 142.876881 34.896893 
L 138.97228 35.764132 
L 135.096878 36.753712 
L 131.254507 37.864654 
L 128.481692 42.124473 
L 124.81146 43.440756 
L 113.858179 27.125492 
L 109.723577 28.908985 
L 99.677845 18.602332 
L 95.282267 20.8359 
L 119.839046 73.962692 
L 117.17415 75.534976 
L 83.424035 29.687806 
L 79.385045 32.426949 
L 111.413152 83.303928 
L 109.046131 85.136523 
L 81.825543 57.822879 
L 78.671971 60.598371 
L 78.388441 66.346246 
L 75.504562 69.225594 
L 53.791723 54.951905 
L 50.561743 58.610261 
L 82.39106 90.401537 
L 80.261553 93.14314 
L 45.508978 72.931165 
L 42.8484 76.841059 
L 75.768251 102.587098 
L 74.025159 105.530912 
L 94.286176 120.142866 
L 93.085921 122.495755 
L 73.007587 116.318082 
L 71.697593 119.341908 
L 43.547498 112.216095 
L 42.123094 116.168239 
L 17.123298 112.864281 
L 15.732339 117.64694 
L 54.93882 132.191374 
L 54.13685 135.775473 
L 38.475471 136.767229 
L 37.825516 140.86671 
L 59.568176 147.444982 
L 59.243524 150.875983 
L 41.447324 153.485632 
L 41.321563 157.483405 
L 26.924028 161.709557 
L 27.064026 166.159908 
L 27.343884 170.603658 
L 27.763324 175.036411 
L 42.577308 177.422885 
L 43.203628 181.373294 
L 53.353542 183.35347 
L 54.161005 186.962118 
L 59.710849 189.275826 
L 60.70138 192.681659 
L 45.906827 201.501464 
L 47.288584 205.335281 
L 31.055448 216.477901 
L 32.91544 220.771272 
L 54.301644 215.492961 
L 56.119174 219.055908 
L 39.986505 232.87437 
L 42.357622 236.878823 
L 50.200343 237.290053 
L 52.705249 240.971177 
L 78.982738 226.784872 
L 81.143107 229.566208 
L 105.883199 213.039574 
L 107.598086 214.981897 
L 66.319848 258.655306 
L 69.488554 261.819034 
L 97.498161 237.643808 
L 99.990805 239.83761 
L 97.055477 248.824342 
L 99.89988 251.026535 
L 99.596637 257.722712 
L 102.719568 259.840606 
L 107.159391 259.811741 
L 110.344266 261.690813 
L 121.804942 247.906355 
L 124.608244 249.330824 
L 122.857927 260.878962 
L 126.068596 262.26391 
L 120.019836 288.25305 
L 124.092609 289.713699 
L 138.047673 258.919893 
L 141.189234 259.82821 
L 132.286806 311.214311 
L 137.075466 312.277907 
L 148.580458 274.566568 
L 152.208777 275.135975 
L 153.601074 296.267738 
L 157.909243 296.668557 
L 163.941721 259.374587 
L 167.084776 259.468514 
L 170.921005 299.455685 
L 175.320847 299.310351 
L 177.599275 272.712837 
L 181.154962 272.370745 
L 180.249294 241.037334 
L 182.807723 240.627581 
L 201.222531 316.093588 
L 206.130523 314.987281 
L 204.838585 291.361834 
L 208.967168 290.154058 
L 214.879663 294.111434 
L 219.089736 292.586585 
L 218.328435 279.11467 
L 222.065271 277.4888 
L 225.749139 275.746238 
L 229.376395 273.88871 
L 242.490663 288.575054 
L 246.513008 286.184792 
L 231.070197 254.291917 
L 234.020251 252.27769 
L 236.905516 250.171704 
L 239.723137 247.976039 
L 244.033086 247.514197 
L 246.763625 245.09574 
L 247.18458 240.299953 
L 249.686729 237.785973 
L 230.761668 215.864022 
L 232.503618 213.878496 
L 284.851622 252.228019 
L 287.710193 248.523807 
L 255.045726 219.98205 
L 256.905149 217.230944 
L 248.429725 208.179614 
L 249.921325 205.642365 
L 254.872266 204.921702 
L 256.258245 202.183496 
L 303.546229 220.017381 
L 305.382783 215.741296 
L 252.399409 190.919742 
L 253.346358 188.266212 
L 317.726351 204.926878 
L 319.081415 200.2124 
L 302.384402 191.214516 
L 303.315905 186.989201 
L 279.671982 178.545667 
L 280.216379 175.040745 
L 289.399634 172.459507 
L 289.747859 168.651736 
L 316.349351 165.996762 
L 316.481049 161.344827 
L 284.473631 157.294777 
L 284.347479 153.649388 
L 275.336586 150.728447 
L 275.008491 147.373593 
L 285.657568 142.416266 
L 285.063017 138.741008 
L 286.701582 134.591726 
L 285.860495 130.88751 
L 288.757778 126.142971 
L 287.650026 122.378281 
L 257.699215 128.596782 
L 256.683973 125.807428 
L 291.74259 107.922871 
L 290.060483 104.07334 
L 293.995099 97.44245 
L 291.982351 93.527277 
L 250.322816 112.414122 
L 248.802403 109.864699 
L 290.555813 78.654758 
L 287.954039 74.857013 
L 234.840625 109.27894 
L 233.22929 107.217862 
L 258.230704 82.246044 
L 255.757831 79.462896 
L 226.301055 103.029464 
L 224.497445 101.239978 
L 246.75965 72.786465 
L 243.995018 70.368669 
L 250.610957 56.138711 
L 247.32098 53.608053 
L 234.807209 64.309507 
L 231.781952 62.271713 
L 229.524386 58.962416 
L 226.333617 57.09337 
L 242.766278 17.772113 
L 238.273849 15.507078 
L 220.017771 44.065176 
L 216.363301 42.502404 
L 202.878844 67.289353 
L 199.963067 66.253984 
L 204.435074 40.810648 
L 200.685979 39.73944 
L 188.841627 73.048912 
L 186.113884 72.452056 
L 192.745525 16.734582 
L 188.245205 16.042822 
L 183.473003 17.879485 
L 179.013266 17.478707 
L 173.185079 49.187998 
L 169.714837 49.095216 
L 166.652162 69.106462 
L 163.81143 69.209241 
L 159.71016 54.254757 
L 156.405891 54.583151 
L 147.751718 18.609758 
L 143.332605 19.331775 
L 142.09381 35.060511 
L 138.194741 35.952291 
L 134.32564 36.966225 
L 130.490332 38.101311 
L 127.744363 42.378486 
L 124.082482 43.717826 
L 113.026804 27.471774 
L 108.903501 29.281237 
L 98.793145 19.037969 
L 94.411701 21.299139 
L 119.302132 74.270432 
L 116.647178 75.859446 
L 82.609378 30.225451 
L 78.587695 32.989943 
L 110.935156 83.664478 
L 108.579708 85.511923 
L 81.187871 58.370022 
L 78.051818 61.165293 
L 77.804444 66.914837 
L 74.938731 69.812266 
L 53.136549 55.675421 
L 49.929641 59.35402 
L 81.958278 90.944479 
L 79.846057 93.699421 
L 44.967047 73.706419 
L 42.331113 77.63297 
L 75.41224 103.171452 
L 73.687698 106.126171 
L 94.040215 120.610405 
L 92.854782 122.970798 
L 72.737991 116.919527 
L 71.447041 119.951533 
L 43.252685 113.002909 
L 41.853166 116.963934 
L 16.833085 113.817276 
L 15.472234 118.608588 
L 54.769415 132.906147 
L 53.990003 136.49522 
L 38.335172 137.585457 
L 37.711013 141.688945 
L 59.494616 148.130338 
L 59.19155 151.563313 
L 41.412115 154.284838 
L 41.311501 158.283324 
L 26.94083 162.599944 
L 27.108816 167.049327 
L 27.416616 171.491228 
L 27.863928 175.921256 
L 42.692629 178.214511 
L 43.343782 182.160903 
L 53.505949 184.077202 
L 54.336092 187.680701 
L 59.900379 189.959458 
L 60.912311 193.358993 
L 46.173523 202.271673 
L 47.579365 206.096724 
L 31.41663 217.34122 
L 33.303588 221.622809 
L 54.656172 216.210095 
L 56.496074 219.76154 
L 40.450635 233.681194 
L 42.846891 237.670655 
L 50.692044 238.03255 
L 53.220052 241.697847 
L 79.407798 227.346552 
L 81.585617 230.114246 
L 106.221276 213.432338 
L 107.948345 215.363837 
L 66.945605 259.295999 
L 70.134146 262.439735 
L 97.991151 238.088822 
L 100.497543 240.266903 
L 97.618795 249.27192 
L 100.476992 251.456179 
L 100.21587 258.154131 
L 103.35206 260.252342 
L 107.791613 260.195553 
L 110.988243 262.054557 
L 122.361997 248.19829 
L 125.174203 249.6051 
L 123.496551 261.164018 
L 126.715867 262.528745 
L 120.830684 288.555414 
L 124.912563 289.990419 
L 138.673675 259.109453 
L 141.820887 259.997994 
L 133.241824 311.439069 
L 138.03708 312.472526 
L 149.30466 274.689573 
L 152.936489 275.236148 
L 154.461665 296.358737 
L 158.77227 296.732452 
L 164.57007 259.401279 
L 167.713654 259.475436 
L 171.801304 299.437689 
L 176.200145 299.264685 
L 178.311245 272.653367 
L 181.86471 272.288919 
L 180.76199 240.961823 
L 183.317791 240.535988 
L 202.206874 315.884683 
L 207.107811 314.747529 
L 205.667307 291.130675 
L 209.788213 289.896957 
L 215.725481 293.817068 
L 219.92588 292.26577 
L 219.079863 278.79891 
L 222.8064 277.149569 
L 226.479235 275.383873 
L 230.094737 273.503568 
L 243.301113 288.10714 
L 247.308345 285.691627 
L 231.665252 253.89651 
L 234.60258 251.863769 
L 237.474542 249.739677 
L 240.278297 247.526334 
L 244.585257 247.037394 
L 247.300531 244.601811 
L 247.691315 239.803472 
L 250.177603 237.273804 
L 231.115039 215.471315 
L 232.844467 213.474873 
L 285.432633 251.494398 
L 288.267849 247.77228 
L 255.424518 219.436529 
L 257.266601 216.673782 
L 248.734417 207.675937 
L 250.210029 205.129357 
L 255.15634 204.377569 
L 256.525069 201.630701 
L 303.924283 219.166819 
L 305.733907 214.879267 
L 252.595467 190.39144 
L 253.525708 187.732005 
L 318.009214 203.987429 
L 319.3346 199.264521 
L 302.581325 190.37183 
L 303.486235 186.14074 
L 279.789675 177.84608 
L 280.312017 174.337803 
L 289.478856 171.698859 
L 289.803125 167.888973 
L 316.387393 165.066743 
L 316.48983 160.414072 
L 284.457573 156.565411 
L 284.308496 152.920887 
L 275.27941 150.056678 
L 274.930222 146.703953 
L 285.547908 141.679748 
L 284.930255 138.008301 
L 286.542691 133.848796 
L 285.678323 130.149943 
L 288.545708 125.387276 
L 287.4143 121.629627 
L 257.503192 128.036379 
L 256.470427 125.253465 
L 291.415867 107.148763 
L 289.709582 103.309888 
L 293.602415 96.654382 
L 291.565082 92.751946 
L 250.025159 111.900433 
L 248.488742 109.360623 
L 290.045033 77.888693 
L 287.419425 74.107387 
L 234.523557 108.862687 
L 232.89929 106.811783 
L 257.743151 81.683215 
L 255.252822 78.915675 
L 225.944849 102.667044 
L 224.13002 100.888937 
L 246.212828 72.29597 
L 243.433044 69.89561 
L 249.959355 55.624323 
L 246.653525 53.114406 
L 234.207308 63.894353 
L 231.169295 61.875627 
L 228.89096 58.580594 
L 225.688499 56.731653 
L 241.873526 17.307821 
L 237.366941 15.071086 
L 219.290838 43.74344 
L 215.626611 42.203683 
L 202.298317 67.074952 
L 199.376086 66.057942 
L 203.68798 40.586983 
L 199.932222 39.539375 
L 188.297602 72.922683 
L 185.566158 72.342995 
L 191.847237 16.584913 
L 187.342656 15.921472 
L 182.582099 17.788112 
L 178.11993 17.415392 
L 172.491292 49.160712 
L 169.020535 49.089757 
L 166.083779 69.11987 
L 163.24375 69.240513 
L 159.048506 54.31212 
L 155.746368 54.661289 
L 146.866114 18.743038 
L 142.451629 19.492834 
L 141.311783 35.22905 
L 137.4184 36.145336 
L 133.555753 37.183584 
L 129.72766 38.34277 
L 127.008646 42.637131 
L 123.355261 43.999475 
L 112.197624 27.823279 
L 108.085783 29.658639 
L 97.911202 19.479162 
L 93.544067 21.767844 
L 118.767165 74.581543 
L 116.122257 76.187223 
L 81.798118 30.76821 
L 77.793902 33.557941 
L 110.459437 84.028026 
L 108.115656 85.890249 
L 80.553652 58.921164 
L 77.435242 61.736104 
L 77.224035 67.487091 
L 74.376602 70.402486 
L 52.485938 56.403044 
L 49.30223 60.101739 
L 81.52892 91.490132 
L 79.434067 94.258304 
L 44.430002 74.485067 
L 41.818816 78.428118 
L 75.059912 103.758034 
L 73.353987 106.72354 
L 93.7972 121.079483 
L 92.626635 123.447284 
L 72.472184 117.522657 
L 71.200328 120.562722 
L 42.962827 113.791562 
L 41.588249 117.76131 
L 16.548871 114.772077 
L 15.218182 119.571853 
L 54.604509 133.621973 
L 53.847686 137.215877 
L 38.200021 138.404552 
L 37.601684 142.511884 
L 59.425369 148.816144 
L 59.1439 152.250957 
L 41.381934 155.084251 
L 41.306469 159.08329 
L 26.963232 163.490208 
L 27.159198 167.938447 
L 27.49493 172.378324 
L 27.970095 176.80545 
L 42.812926 179.005396 
L 43.488887 182.947615 
L 53.662906 184.799962 
L 54.515696 188.398168 
L 60.094204 190.641884 
L 61.127498 194.034987 
L 46.445057 203.04019 
L 47.874929 206.856323 
L 31.783235 218.202252 
L 33.697085 222.471887 
L 55.015203 216.924985 
L 56.877406 220.464788 
L 40.91983 234.485084 
L 43.34113 238.459394 
L 51.188404 238.77194 
L 53.739415 242.421265 
L 79.836381 227.905548 
L 82.031565 230.65949 
L 106.561817 213.822967 
L 108.301 215.743566 
L 67.575379 259.932743 
L 70.78363 263.056363 
L 98.48693 238.530726 
L 101.006971 240.693001 
L 98.184916 249.715945 
L 101.056795 251.882185 
L 100.837805 258.581647 
L 103.987129 260.660091 
L 108.426237 260.575382 
L 111.634496 262.414243 
L 122.920876 248.486716 
L 125.741875 249.875811 
L 124.136955 261.445052 
L 127.364791 262.789504 
L 121.643417 288.852673 
L 125.734241 290.261977 
L 139.300857 259.295072 
L 142.453595 260.163801 
L 134.198237 311.657816 
L 138.999898 312.661093 
L 150.029622 274.808021 
L 153.664817 275.331743 
L 155.322812 296.444322 
L 159.635682 296.790918 
L 165.198576 259.424019 
L 168.342564 259.478403 
L 172.681473 299.414156 
L 177.079139 299.213489 
L 179.022827 272.58942 
L 182.573929 272.20263 
L 181.274201 240.883089 
L 183.827274 240.441188 
L 203.189883 315.669591 
L 208.083571 314.501636 
L 206.49456 290.894309 
L 210.607625 289.634697 
L 216.56943 293.517388 
L 220.759989 291.939703 
L 219.82929 278.47843 
L 223.54538 276.805684 
L 227.207037 275.016923 
L 230.810641 273.113915 
L 244.108605 287.634138 
L 248.100566 285.19347 
L 232.257808 253.497367 
L 235.182293 251.446192 
L 238.040839 249.304079 
L 240.830619 247.073147 
L 245.134417 246.557128 
L 247.83432 244.104516 
L 248.194917 239.303813 
L 250.665246 236.758558 
L 231.465934 215.076393 
L 233.182771 213.069113 
L 286.009018 250.757137 
L 288.820768 247.017261 
L 255.79987 218.888636 
L 257.624541 216.114358 
L 249.035934 207.170354 
L 250.495501 204.614543 
L 255.436986 203.831661 
L 256.788412 201.076238 
L 304.296981 218.313895 
L 306.079602 214.015046 
L 252.788198 189.861914 
L 253.701695 187.196682 
L 318.286163 203.046219 
L 319.581818 198.315069 
L 302.772945 189.527922 
L 303.651226 185.291225 
L 279.902965 177.145766 
L 280.403232 173.634273 
L 289.553292 170.937728 
L 289.853593 167.125877 
L 316.419585 164.136503 
L 284.494278 159.48328 
z
" clip-path="url(#p6d14d49f61)" style="fill: #0000ff; opacity: 0.5; stroke: #000000; stroke-width: 1.5; stroke-linejoin: miter"/>
   </g>
  </g>
 </g>
 <defs>
  <clipPath id="p6d14d49f61">
   <rect x="0" y="0" width="334.8" height="331.56389"/>
  </clipPath>
 </defs>
</svg>
