<?xml version="1.0" encoding="utf-8" standalone="no"?>
<!DOCTYPE svg PUBLIC "-//W3C//DTD SVG 1.1//EN"
  "http://www.w3.org/Graphics/SVG/1.1/DTD/svg11.dtd">
<svg xmlns:xlink="http://www.w3.org/1999/xlink" width="333.825125pt" height="332.64pt" viewBox="0 0 333.825125 332.64" xmlns="http://www.w3.org/2000/svg" version="1.1">
 <metadata>
  <rdf:RDF xmlns:dc="http://purl.org/dc/elements/1.1/" xmlns:cc="http://creativecommons.org/ns#" xmlns:rdf="http://www.w3.org/1999/02/22-rdf-syntax-ns#">
   <cc:Work>
    <dc:type rdf:resource="http://purl.org/dc/dcmitype/StillImage"/>
    <dc:date>2023-12-09T18:06:28.346054</dc:date>
    <dc:format>image/svg+xml</dc:format>
    <dc:creator>
     <cc:Agent>
      <dc:title>Matplotlib v3.8.2, https://matplotlib.org/</dc:title>
     </cc:Agent>
    </dc:creator>
   </cc:Work>
  </rdf:RDF>
 </metadata>
 <defs>
  <style type="text/css">*{stroke-linejoin: round; stroke-linecap: butt}</style>
 </defs>
 <g id="figure_1">
  <g id="patch_1">
   <path d="M 0 332.64 
L 333.825125 332.64 
L 333.825125 0 
L 0 0 
L 0 332.64 
z
" style="fill: none"/>
  </g>
  <g id="axes_1">
   <g id="patch_2">
    <path d="M 275.924614 167.330816 
L 275.869056 163.797773 
L 304.334984 158.465009 
L 303.98662 154.043065 
L 305.080647 149.4343 
L 304.447969 144.993377 
L 291.151488 142.966164 
L 290.322324 138.966401 
L 290.139646 134.796306 
L 289.054105 130.832397 
L 277.992514 130.109099 
L 276.765603 126.52944 
L 248.756125 133.561418 
L 247.652217 130.899309 
L 265.209308 119.442813 
L 263.653345 116.27036 
L 258.507619 115.069761 
L 256.817472 112.110186 
L 241.582635 117.753099 
L 239.985225 115.324355 
L 240.889962 111.071737 
L 239.082819 108.668076 
L 253.770595 92.595537 
L 251.376151 89.796016 
L 241.928618 93.624811 
L 239.572391 91.197119 
L 243.136624 82.449549 
L 240.428425 79.9894 
L 238.659088 76.386644 
L 235.762472 74.070276 
L 252.442552 44.749124 
L 248.544368 42.015017 
L 216.850308 83.168982 
L 214.177726 81.534977 
L 232.912846 40.85525 
L 228.901886 38.737124 
L 201.470002 86.52705 
L 198.91061 85.374975 
L 214.450124 38.342638 
L 210.36929 36.806264 
L 188.334573 90.74968 
L 185.914444 90.008524 
L 187.02122 75.445158 
L 184.120533 74.752863 
L 184.312666 57.708815 
L 180.855648 57.110453 
L 174.419409 80.344597 
L 171.679001 80.046109 
L 172.886495 15.404409 
L 168.104984 15.186228 
L 163.399173 66.121576 
L 160.217011 66.17662 
L 154.522502 27.363526 
L 150.126092 27.716835 
L 144.325834 17.141631 
L 139.613066 17.8206 
L 143.815691 64.817522 
L 140.602209 65.488959 
L 133.419538 50.830612 
L 129.771418 51.835842 
L 135.073646 80.223619 
L 132.348889 81.162308 
L 130.834239 85.147756 
L 128.266403 86.217306 
L 115.169771 65.034848 
L 111.977286 66.606868 
L 91.494169 36.888667 
L 87.428413 39.219016 
L 98.005278 64.52237 
L 94.805167 66.634332 
L 73.349346 43.741863 
L 69.508041 46.639336 
L 77.984559 64.365488 
L 74.789413 67.107023 
L 96.291761 96.032438 
L 94.083242 98.182697 
L 66.325091 76.459081 
L 63.515959 79.561236 
L 90.339424 107.060784 
L 88.480604 109.392745 
L 96.384548 118.783951 
L 94.891341 120.920044 
L 83.356572 116.722879 
L 81.805002 119.269619 
L 71.242572 116.89691 
L 69.702463 119.824455 
L 59.591241 118.750628 
L 58.115178 122.0436 
L 83.447115 135.868719 
L 82.497487 138.403147 
L 85.421086 142.186764 
L 84.669135 144.656002 
L 53.096896 139.309543 
L 52.270461 142.796547 
L 35.889145 143.36753 
L 35.19881 147.393577 
L 23.562271 150.074426 
L 23.088911 154.48474 
L 84.008109 162.572026 
L 83.897814 165.075611 
L 75.10017 167.608994 
L 75.152653 170.390174 
L 34.73802 175.85043 
L 35.069587 179.89661 
L 52.124706 181.778571 
L 52.634071 185.275144 
L 44.647755 190.425283 
L 45.432688 194.152673 
L 54.046528 195.845466 
L 54.997237 199.274658 
L 15.173869 216.111967 
L 16.781021 220.75338 
L 82.906655 199.592119 
L 83.960897 202.112033 
L 77.175418 208.358416 
L 78.508126 211.054198 
L 90.379108 207.909753 
L 91.691181 210.190605 
L 36.01585 248.937187 
L 38.644793 252.907053 
L 40.111353 257.733996 
L 43.014862 261.570741 
L 52.158444 260.21099 
L 55.133879 263.667724 
L 58.795332 266.4814 
L 61.964641 269.726355 
L 107.606037 227.389057 
L 109.522064 229.118625 
L 89.754906 257.278549 
L 92.61955 259.554617 
L 87.170292 273.378914 
L 90.542445 275.728288 
L 85.078253 292.137745 
L 89.041259 294.543622 
L 122.032045 243.626625 
L 124.451484 244.894579 
L 101.356361 300.99759 
L 105.589891 302.887267 
L 133.672963 243.780245 
L 136.091477 244.682107 
L 138.294227 246.266477 
L 140.788629 247.021807 
L 132.400211 290.973152 
L 136.303203 291.891699 
L 135.859677 316.191371 
L 140.553874 316.988676 
L 152.008316 262.261663 
L 154.99886 262.577884 
L 158.13688 260.413191 
L 161.066274 260.53763 
L 164.122185 286.868105 
L 167.880421 286.791273 
L 172.926554 305.678791 
L 177.271885 305.31583 
L 174.655161 251.876562 
L 177.307978 251.485851 
L 192.35374 314.359303 
L 196.9624 313.381216 
L 191.033 272.172269 
L 194.315861 271.256568 
L 194.817499 261.914716 
L 197.775968 260.885094 
L 198.323495 253.847303 
L 201.026574 252.711433 
L 200.948377 245.736583 
L 203.39514 244.522191 
L 217.429353 264.121556 
L 220.44603 262.379876 
L 229.434325 269.932606 
L 232.627779 267.810591 
L 210.744339 231.551992 
L 212.740263 230.036607 
L 223.379525 238.851043 
L 225.5987 236.934772 
L 260.678688 269.626008 
L 263.847054 266.521753 
L 246.478239 244.338617 
L 248.858535 241.693358 
L 275.829459 259.155902 
L 278.661131 255.580451 
L 249.658033 229.144332 
L 251.559015 226.406606 
L 233.11403 210.915805 
L 234.450047 208.707271 
L 278.450106 229.630127 
L 280.352127 225.986875 
L 262.616282 213.238183 
L 264.010733 210.100885 
L 277.188776 211.545 
L 278.522785 207.950348 
L 291.893155 208.183212 
L 293.114191 204.127885 
L 275.653439 195.391623 
L 276.480309 191.853233 
L 299.139252 192.337999 
L 299.858498 188.062673 
L 317.850259 185.856977 
L 318.356476 180.99654 
L 258.240392 172.696052 
L 258.362273 169.716387 
L 275.922391 166.624095 
L 275.844614 163.091472 
L 304.276439 157.579779 
L 303.90027 153.160114 
L 304.965289 148.544559 
L 304.304692 144.107702 
L 290.995724 142.164157 
L 290.141421 138.169688 
L 289.932519 134.000824 
L 288.822068 130.043822 
L 277.756148 129.390109 
L 276.506746 125.818238 
L 248.54205 133.02624 
L 247.42142 130.371126 
L 264.906109 118.804433 
L 263.330224 115.641829 
L 258.177049 114.473617 
L 256.468321 111.524731 
L 241.269276 117.26335 
L 239.656622 114.844702 
L 240.534595 110.586477 
L 238.712369 108.19423 
L 253.298768 92.029631 
L 250.886764 89.245225 
L 241.463499 93.133364 
L 239.09205 90.72054 
L 242.601195 81.950725 
L 239.877577 79.507658 
L 238.085615 75.916101 
L 235.174488 73.617997 
L 251.669825 44.192517 
L 247.754522 41.482981 
L 216.319923 82.83547 
L 213.637118 81.218306 
L 232.116015 40.42155 
L 228.091812 38.328694 
L 200.961042 86.290205 
L 198.394455 85.15425 
L 213.637854 38.025109 
L 209.547439 36.514431 
L 187.852431 90.595366 
L 185.427688 89.869446 
L 186.442847 75.299407 
L 183.537863 74.62537 
L 183.622795 57.58045 
L 180.162082 57.003843 
L 173.8721 80.278007 
L 171.129869 79.996761 
L 171.93078 15.348745 
L 167.147991 15.160641 
L 162.762627 66.124579 
L 159.580875 66.199636 
L 153.642366 27.423124 
L 149.248265 27.804077 
L 143.381609 17.265563 
L 138.673205 17.974159 
L 143.171331 64.94372 
L 139.962136 65.635354 
L 132.687414 51.022472 
L 129.045688 52.050627 
L 134.526355 80.404495 
L 131.807555 81.360302 
L 130.318001 85.355198 
L 127.756943 86.440877 
L 114.527344 65.341208 
L 111.34481 66.933275 
L 90.675187 37.344489 
L 86.624168 39.700363 
L 97.359968 64.936695 
L 94.173203 67.068742 
L 72.573826 44.31167 
L 68.75082 47.233246 
L 77.338658 64.905735 
L 74.160818 67.667312 
L 95.844665 96.456917 
L 93.649714 98.621024 
L 65.755482 77.07242 
L 62.965917 80.192182 
L 89.961808 107.522481 
L 88.117691 109.866087 
L 96.080544 119.207396 
L 94.600801 121.352838 
L 83.039863 117.228303 
L 81.504341 119.784752 
L 70.927197 117.478521 
L 69.405531 120.415694 
L 59.287756 119.405483 
L 57.832433 122.707673 
L 83.250821 136.373196 
L 82.317152 138.913545 
L 85.264489 142.6787 
L 84.528083 145.152618 
L 52.922843 140.004837 
L 52.118355 143.496969 
L 35.740955 144.170971 
L 35.075955 148.20128 
L 23.456507 150.955263 
L 23.010894 155.368467 
L 83.979753 163.072446 
L 83.885206 165.576675 
L 75.103669 168.16534 
L 75.173643 170.946135 
L 34.794151 176.660468 
L 35.15116 180.704483 
L 52.217778 182.479139 
L 52.749125 185.97244 
L 44.795358 191.172706 
L 45.603719 194.895086 
L 54.228035 196.533669 
L 55.200293 199.956814 
L 15.48361 217.044256 
L 17.119922 221.67547 
L 83.111155 200.098734 
L 84.181226 202.611967 
L 77.435167 208.900904 
L 78.784803 211.588251 
L 90.635774 208.369207 
L 91.962166 210.64176 
L 36.53163 249.737743 
L 39.18549 253.690996 
L 40.682379 258.50862 
L 43.609962 262.327027 
L 52.744811 260.909795 
L 55.741928 264.347746 
L 59.421005 267.138339 
L 62.610661 270.363296 
L 107.984876 227.739777 
L 109.911743 229.45726 
L 90.322086 257.740951 
L 93.200989 259.998957 
L 87.838785 273.857254 
L 91.225648 276.185372 
L 85.86477 292.628871 
L 89.842829 295.009776 
L 122.512724 243.886293 
L 124.94009 245.139005 
L 102.198279 301.386161 
L 106.443611 303.249174 
L 134.154378 243.966695 
L 136.578516 244.853328 
L 138.791188 246.423812 
L 141.29029 247.163439 
L 133.178468 291.166673 
L 137.087159 292.060654 
L 136.796473 316.362635 
L 141.495592 317.130401 
L 152.605606 262.332428 
L 155.59808 262.629834 
L 158.722423 260.445448 
L 161.652542 260.55146 
L 164.873996 286.862194 
L 168.631674 286.761727 
L 173.796499 305.617134 
L 178.139462 305.22685 
L 175.186687 251.805097 
L 177.836994 251.397709 
L 193.277896 314.175288 
L 197.880314 313.168235 
L 191.69185 271.997395 
L 194.968887 271.061065 
L 195.41176 261.716243 
L 198.363695 260.668034 
L 198.866947 253.626938 
L 201.562829 252.47409 
L 201.440766 245.499869 
L 203.879842 244.270113 
L 218.037046 263.780823 
L 221.04271 262.020205 
L 230.078329 269.516254 
L 233.258374 267.374196 
L 211.14732 231.253948 
L 213.133674 229.72604 
L 223.828163 238.473387 
L 226.035243 236.543196 
L 261.320146 269.013153 
L 264.468926 265.889032 
L 246.960934 243.815574 
L 249.324546 241.155397 
L 276.404766 258.447964 
L 279.213894 254.854774 
L 250.045102 228.601591 
L 251.928828 225.851963 
L 233.386779 210.477477 
L 234.70888 208.260584 
L 278.839661 228.90629 
L 280.71873 225.251147 
L 262.903054 212.614256 
L 264.277746 209.46825 
L 277.464611 210.829454 
L 278.775985 207.226483 
L 292.147555 207.375251 
L 293.343061 203.312324 
L 275.827709 194.686054 
L 276.632308 191.142533 
L 299.293852 191.484777 
L 299.986194 187.205012 
L 317.963726 184.886201 
L 318.439364 180.022677 
L 258.272263 172.100449 
L 258.375402 169.120077 
L 275.915724 165.917403 
L 275.81573 162.385338 
L 304.212327 156.694934 
L 303.808368 152.277722 
L 304.844337 147.655561 
L 304.155848 143.222947 
L 290.834919 141.363145 
L 289.95551 137.374129 
L 289.720393 133.206662 
L 288.585077 129.256721 
L 277.515263 128.67262 
L 276.243422 125.108677 
L 248.324613 132.492419 
L 247.187306 129.844406 
L 264.598901 118.167973 
L 263.003156 115.015343 
L 257.842736 113.879565 
L 256.115494 110.941483 
L 240.952843 116.775583 
L 239.325009 114.367125 
L 240.176183 110.103462 
L 238.338947 107.722723 
L 252.823392 91.466704 
L 250.393923 88.697523 
L 240.995298 92.644852 
L 238.608721 90.24699 
L 242.062639 81.455279 
L 239.323709 79.02939 
L 237.509195 75.449175 
L 234.583671 73.169426 
L 250.893612 43.640781 
L 246.961345 40.955924 
L 215.787452 82.505301 
L 213.094528 80.905042 
L 231.316471 39.992871 
L 227.279186 37.925366 
L 200.450603 86.056566 
L 197.876922 84.936776 
L 212.823604 37.712695 
L 208.723768 36.227773 
L 187.369328 90.444088 
L 184.940068 89.733432 
L 185.863569 75.157296 
L 182.954403 74.501543 
L 182.93213 57.456427 
L 179.46786 56.901596 
L 173.324383 80.214861 
L 170.580438 79.950867 
L 170.974733 15.299093 
L 166.190856 15.141073 
L 162.126113 66.131585 
L 158.944896 66.226652 
L 152.762622 27.488257 
L 148.371003 27.896839 
L 142.438183 17.395431 
L 137.734328 18.133626 
L 142.527777 65.073967 
L 139.322996 65.785772 
L 131.956511 51.218933 
L 128.321324 52.269972 
L 133.980212 80.588809 
L 131.267477 81.561696 
L 129.803079 85.565882 
L 127.248899 86.667647 
L 113.886857 65.651602 
L 110.714399 67.263654 
L 89.859088 37.805454 
L 85.822966 40.18676 
L 96.717276 65.35507 
L 93.543983 67.507118 
L 71.801905 44.886344 
L 67.997349 47.831907 
L 76.696167 65.450034 
L 73.535759 68.231543 
L 95.400248 96.884199 
L 93.218951 99.062068 
L 65.189743 77.68933 
L 62.419854 80.826575 
L 89.587103 107.986544 
L 87.757762 110.341703 
L 95.77921 119.632744 
L 94.31299 121.787451 
L 82.726339 117.73571 
L 81.206926 120.301765 
L 70.615487 118.062104 
L 69.112324 121.00879 
L 58.988395 120.062233 
L 57.55387 123.373511 
L 83.057703 136.878897 
L 82.14003 139.425068 
L 85.11099 143.171612 
L 84.390158 145.650112 
L 52.753166 140.701212 
L 51.970658 144.198335 
L 35.597821 144.975328 
L 34.958182 149.009739 
L 23.356285 151.836748 
L 22.938438 156.252668 
L 83.954544 163.573034 
L 83.875749 166.077809 
L 75.110667 168.721653 
L 75.198129 171.501953 
L 34.855376 177.470137 
L 35.237813 181.511826 
L 52.315255 183.179108 
L 52.868562 186.668998 
L 44.947659 191.919187 
L 45.779416 195.636408 
L 54.413867 197.220717 
L 55.407635 200.637679 
L 15.799208 217.974579 
L 17.464615 222.595409 
L 83.318838 200.604053 
L 84.404694 203.110506 
L 77.698323 209.441748 
L 79.064834 212.120553 
L 90.895324 208.827036 
L 92.235983 211.091203 
L 37.052436 250.535039 
L 39.731107 254.471522 
L 41.258266 259.279636 
L 44.209807 263.079556 
L 53.335562 261.604898 
L 56.354242 265.023931 
L 60.050797 267.79133 
L 63.260673 270.996162 
L 108.365913 228.088108 
L 110.303544 229.793438 
L 90.892163 258.199777 
L 93.78521 260.439632 
L 88.510274 274.33138 
L 91.911712 276.638151 
L 86.65436 293.115042 
L 90.647315 295.470879 
L 122.995026 244.142932 
L 125.430223 245.380353 
L 103.042625 301.76943 
L 107.29959 303.605705 
L 134.636956 244.150113 
L 137.066622 245.021483 
L 139.289128 246.578019 
L 141.792833 247.301914 
L 133.957926 291.355296 
L 137.872163 292.224676 
L 137.734328 316.528005 
L 142.438183 317.2662 
L 153.203329 262.399436 
L 156.197614 262.678014 
L 159.308157 260.474021 
L 162.238884 260.561603 
L 165.625755 286.851555 
L 169.382726 286.727456 
L 174.666039 305.550007 
L 179.006461 305.132416 
L 175.717752 251.73029 
L 178.365444 251.306241 
L 194.200877 313.985464 
L 198.79687 312.949484 
L 192.349587 271.818381 
L 195.62067 270.861459 
L 196.00476 261.514036 
L 198.950045 260.447282 
L 199.409002 253.40316 
L 202.09758 252.233379 
L 201.931655 245.260064 
L 204.362949 244.014992 
L 218.642585 263.436275 
L 221.637116 261.656788 
L 230.719702 269.09586 
L 233.886211 266.933843 
L 211.548419 230.953376 
L 213.525124 229.413005 
L 224.274418 238.092917 
L 226.469314 236.148883 
L 261.957737 268.396275 
L 265.086805 265.252412 
L 247.44033 243.289506 
L 249.787165 240.614515 
L 276.975609 257.736422 
L 279.762083 254.125635 
L 250.42875 228.056426 
L 252.295145 225.295005 
L 233.656766 210.037442 
L 234.964897 207.812278 
L 279.224656 228.180018 
L 281.080699 224.513129 
L 263.185897 211.988538 
L 264.540775 208.833949 
L 277.73594 210.112187 
L 279.024627 206.50104 
L 292.396868 206.565705 
L 293.566798 202.49534 
L 275.997537 193.979402 
L 276.779834 190.43089 
L 299.443082 190.630599 
L 300.108493 186.346564 
L 318.071086 183.914732 
L 318.516125 179.048312 
L 258.300388 171.504658 
L 258.38478 168.523696 
L 275.904612 165.210766 
L 275.782406 161.679401 
L 304.142651 155.810511 
L 303.710919 151.395927 
L 304.717797 146.767341 
L 304.001443 142.339145 
L 290.66908 140.563161 
L 289.764599 136.579755 
L 289.503276 132.413848 
L 288.343139 128.471127 
L 277.269871 127.95666 
L 275.975639 124.400787 
L 248.103822 131.959976 
L 246.949884 129.319168 
L 264.287696 117.533457 
L 262.672155 114.390926 
L 257.504693 113.287626 
L 255.759007 110.360467 
L 240.633348 116.289815 
L 238.990399 113.891643 
L 239.81474 109.622711 
L 237.962567 107.253574 
L 252.344484 90.906777 
L 249.897646 88.152932 
L 240.524034 92.159295 
L 238.122423 89.77649 
L 241.520978 80.96323 
L 238.766845 78.554615 
L 236.929849 74.985883 
L 233.990045 72.724579 
L 250.113944 43.093938 
L 246.164869 40.433866 
L 215.252914 82.178487 
L 212.549979 80.595197 
L 230.514247 39.56923 
L 226.464038 37.527157 
L 199.938704 85.826142 
L 197.358031 84.722561 
L 212.007405 37.405407 
L 207.898311 35.9463 
L 186.885283 90.295851 
L 184.451601 89.600488 
L 185.283408 75.018832 
L 182.370176 74.381389 
L 182.240699 57.33675 
L 178.773008 56.803719 
L 172.77628 80.155161 
L 170.030729 79.90843 
L 170.018393 15.255455 
L 165.233617 15.127526 
L 161.489655 66.142594 
L 158.309099 66.257667 
L 151.883305 27.558922 
L 147.494343 27.995117 
L 141.495592 17.53123 
L 136.796473 18.298996 
L 141.885055 65.20826 
L 138.684814 65.940207 
L 131.226858 51.419987 
L 127.598353 52.493868 
L 133.435239 80.776554 
L 130.728677 81.766484 
L 129.289491 85.7798 
L 126.742292 86.897608 
L 113.248335 65.966018 
L 110.086078 67.597992 
L 89.045905 38.271542 
L 85.02484 40.678186 
L 96.077229 65.777479 
L 92.917534 67.949443 
L 71.033613 45.465862 
L 67.247659 48.435295 
L 76.057113 65.998363 
L 72.914262 68.799693 
L 94.958527 97.314268 
L 92.79097 99.505813 
L 64.627894 78.309786 
L 61.877792 81.464389 
L 89.215324 108.452955 
L 87.400832 110.819572 
L 95.480556 120.05998 
L 94.027917 122.223866 
L 82.416013 118.245078 
L 80.912769 120.820639 
L 70.307453 118.647636 
L 68.822853 121.603718 
L 58.693171 120.720854 
L 57.2795 124.041089 
L 82.86777 137.385802 
L 81.966129 139.937695 
L 84.960594 143.665479 
L 84.255365 146.148464 
L 52.587873 141.39864 
L 51.827375 144.900616 
L 35.459748 145.780569 
L 34.845497 149.818924 
L 23.261609 152.718846 
L 22.871544 157.137306 
L 83.932484 164.073771 
L 83.869444 166.578992 
L 75.121164 169.277911 
L 75.226111 172.057606 
L 34.921692 178.279405 
L 35.329541 182.318609 
L 52.417132 183.878451 
L 52.992377 187.364791 
L 45.104652 192.664694 
L 45.959771 196.376611 
L 54.604016 197.906582 
L 55.619256 201.317227 
L 16.120651 218.902898 
L 17.815088 223.513163 
L 83.529695 201.108055 
L 84.631294 203.60763 
L 77.964875 209.980926 
L 79.348208 212.651083 
L 91.157749 209.283225 
L 92.512622 211.538914 
L 37.578245 251.329043 
L 40.281621 255.248602 
L 41.838991 260.047016 
L 44.814373 263.828296 
L 53.930672 262.296272 
L 56.970797 265.696252 
L 60.684684 268.440346 
L 63.914653 271.624927 
L 108.749134 228.434035 
L 110.697452 230.127145 
L 91.465115 258.655009 
L 94.372192 260.876624 
L 89.184731 274.801273 
L 92.60061 277.086605 
L 87.446993 293.596236 
L 91.454686 295.926913 
L 123.478933 244.396533 
L 125.921865 245.618613 
L 103.889365 302.14738 
L 108.157795 303.956845 
L 135.120678 244.330493 
L 137.555776 245.186564 
L 139.788028 246.729091 
L 142.296236 247.437224 
L 134.738555 291.539013 
L 138.658182 292.383757 
L 138.673205 316.687472 
L 143.381609 317.396068 
L 153.801461 262.462682 
L 156.79744 262.722423 
L 159.894059 260.49891 
L 162.825279 260.568057 
L 166.377431 286.836188 
L 170.133548 286.688462 
L 175.53514 305.477412 
L 179.87285 305.03253 
L 176.248336 251.652145 
L 178.893309 251.211452 
L 195.122645 313.789839 
L 199.712031 312.724974 
L 193.006186 271.635234 
L 196.271185 270.657757 
L 196.596478 261.308103 
L 199.534995 260.222846 
L 199.94964 253.175977 
L 202.630807 251.98931 
L 202.421027 245.017176 
L 204.844442 243.756837 
L 219.245944 263.087926 
L 222.229224 261.289639 
L 231.358418 268.67144 
L 234.511267 266.48955 
L 211.94762 230.650287 
L 213.914598 229.097514 
L 224.71827 237.709647 
L 226.900896 235.751847 
L 262.591435 267.7754 
L 265.700668 264.611919 
L 247.916409 242.760433 
L 250.246372 240.070735 
L 277.541966 257.021303 
L 280.305675 253.393062 
L 250.808961 227.508859 
L 252.657951 224.735754 
L 233.92398 209.595718 
L 235.21809 207.36237 
L 279.605075 227.451339 
L 281.438019 223.772849 
L 263.464798 211.361054 
L 264.799808 208.198005 
L 278.002752 209.393229 
L 279.268702 205.774048 
L 292.641085 205.754608 
L 293.785391 201.676965 
L 276.162918 193.271696 
L 276.922881 189.718334 
L 299.586937 189.7755 
L 300.22539 185.487365 
L 318.172333 182.942606 
L 318.586757 178.073483 
L 258.324766 170.908701 
L 258.390407 167.927267 
L 275.889056 164.504214 
L 275.744642 160.973686 
L 304.067415 154.926543 
L 303.607925 150.514762 
L 304.585672 145.879934 
L 303.841482 141.456331 
L 290.498213 139.764236 
L 289.568696 135.786597 
L 289.281177 131.622417 
L 288.096266 127.68707 
L 277.019981 127.242257 
L 275.70341 123.694595 
L 247.879687 131.428932 
L 246.709163 128.795434 
L 263.972507 116.900911 
L 262.337232 113.768603 
L 257.162934 112.697826 
L 255.398872 109.781703 
L 240.310805 115.806066 
L 238.652805 113.418275 
L 239.45028 109.144243 
L 237.583244 106.786802 
L 251.862064 90.349874 
L 249.397955 87.611472 
L 240.049725 91.676711 
L 237.633175 89.309058 
L 240.976233 80.474597 
L 238.207005 78.083352 
L 236.3476 74.526244 
L 233.393632 72.283474 
L 249.330853 42.55201 
L 245.365126 39.916827 
L 214.716332 81.855041 
L 212.003493 80.288783 
L 229.709375 39.150642 
L 225.646403 37.134083 
L 199.425366 85.598942 
L 196.837803 84.511614 
L 211.18929 37.10326 
L 207.0711 35.670026 
L 186.400315 90.150661 
L 183.962308 89.470618 
L 184.702389 74.884019 
L 181.785205 74.264911 
L 181.54853 57.221423 
L 178.077554 56.710213 
L 172.227812 80.09891 
L 169.480763 79.869451 
L 169.061797 15.217833 
L 164.276311 15.12 
L 160.85328 66.157606 
L 157.67351 66.292681 
L 151.00445 27.635115 
L 146.618318 28.098906 
L 140.553874 17.672955 
L 135.859677 18.47026 
L 141.243191 65.346592 
L 138.047617 66.098652 
L 130.498484 51.625626 
L 126.876805 52.722307 
L 132.891457 80.967723 
L 130.191175 81.974656 
L 128.777259 85.996945 
L 126.237141 87.130751 
L 112.611803 66.284444 
L 109.459873 67.936274 
L 88.235669 38.742736 
L 84.22982 41.174622 
L 95.43985 66.203905 
L 92.293878 68.395699 
L 70.268982 46.0502 
L 66.501778 49.043386 
L 75.42152 66.5507 
L 72.29635 69.371742 
L 94.519519 97.747106 
L 92.365789 99.952241 
L 64.069959 78.933763 
L 61.339752 82.1056 
L 88.846486 108.921695 
L 87.046915 111.299677 
L 95.184596 120.489085 
L 93.745595 122.662065 
L 82.108896 118.756388 
L 80.621881 121.341353 
L 70.003107 119.235094 
L 68.537129 122.200455 
L 58.402095 121.381318 
L 57.009334 124.710378 
L 82.681029 137.893892 
L 81.795455 140.451406 
L 84.813307 144.160282 
L 84.123708 146.647654 
L 52.426969 142.097094 
L 51.688512 145.603783 
L 35.326743 146.586663 
L 34.737903 150.628801 
L 23.172483 153.601522 
L 22.810215 158.022348 
L 83.913574 164.574636 
L 83.866292 167.080204 
L 75.13516 169.834092 
L 75.257587 172.613072 
L 34.993097 179.08824 
L 35.426342 183.124799 
L 52.523405 184.577139 
L 53.120566 188.059792 
L 45.266331 193.409199 
L 46.144779 197.115664 
L 54.798476 198.591238 
L 55.835146 201.99543 
L 16.447926 219.829178 
L 18.171325 224.428694 
L 83.743717 201.610722 
L 84.861015 204.103319 
L 78.234813 210.518416 
L 79.634912 213.179821 
L 91.423038 209.737753 
L 92.792071 211.984877 
L 38.109038 252.119725 
L 40.837013 256.022203 
L 42.424531 260.810727 
L 45.423636 264.57322 
L 54.530119 262.98389 
L 57.591568 266.364682 
L 61.322641 269.085363 
L 64.572575 272.249566 
L 109.134523 228.777545 
L 111.093451 230.458367 
L 92.040918 259.106628 
L 94.961911 261.309915 
L 89.86213 275.266915 
L 93.292315 277.530718 
L 88.242636 294.072436 
L 92.264908 296.377861 
L 123.964426 244.647085 
L 126.414995 245.853777 
L 104.738465 302.519997 
L 109.018191 304.302581 
L 135.605524 244.507827 
L 138.045959 245.348565 
L 140.287868 246.877022 
L 142.800481 247.569366 
L 135.520324 291.717816 
L 139.445187 292.537891 
L 139.613066 316.841031 
L 144.325834 317.52 
L 154.39998 262.522166 
L 157.397532 262.763059 
L 160.480106 260.520113 
L 163.411703 260.570824 
L 167.128997 286.816094 
L 170.88411 286.644747 
L 176.403767 305.399352 
L 180.738593 304.927197 
L 176.778419 251.570664 
L 179.420568 251.113344 
L 196.043165 313.58842 
L 200.625763 312.494712 
L 193.661619 271.44796 
L 196.920406 270.449968 
L 197.186888 261.098453 
L 200.118521 259.994736 
L 200.488837 252.945399 
L 203.162488 251.741892 
L 202.908862 244.771215 
L 205.324302 243.495659 
L 219.847101 262.735788 
L 222.819011 260.918774 
L 231.994452 268.243011 
L 235.133516 266.041335 
L 212.344906 230.344693 
L 214.302079 228.77958 
L 225.159704 237.323594 
L 227.329973 235.352105 
L 263.221216 267.150551 
L 266.310491 263.967577 
L 248.38915 242.228377 
L 250.70215 239.524078 
L 278.103814 256.302637 
L 280.844649 252.657085 
L 251.185721 226.958912 
L 253.017234 224.174232 
L 234.188411 209.152322 
L 235.468449 206.910879 
L 279.980904 226.720281 
L 281.790676 223.030336 
L 263.739747 210.731828 
L 265.054837 207.560445 
L 278.265037 208.672606 
L 279.508199 205.045535 
L 292.880196 204.94199 
L 293.998833 200.857231 
L 276.323844 192.562963 
L 277.061443 189.004892 
L 299.725411 188.919513 
L 300.336882 184.627447 
L 318.267465 181.969862 
L 318.651256 177.09823 
L 258.345394 170.312603 
L 275.924614 167.330816 
z
" clip-path="url(#pf94f57e7ee)" style="fill: #0000ff; opacity: 0.5; stroke: #000000; stroke-width: 1.5; stroke-linejoin: miter"/>
   </g>
  </g>
 </g>
 <defs>
  <clipPath id="pf94f57e7ee">
   <rect x="0" y="-0" width="333.825125" height="332.64"/>
  </clipPath>
 </defs>
</svg>
