<?xml version="1.0" encoding="utf-8" standalone="no"?>
<!DOCTYPE svg PUBLIC "-//W3C//DTD SVG 1.1//EN"
  "http://www.w3.org/Graphics/SVG/1.1/DTD/svg11.dtd">
<svg xmlns:xlink="http://www.w3.org/1999/xlink" width="326.960075pt" height="332.64pt" viewBox="0 0 326.960075 332.64" xmlns="http://www.w3.org/2000/svg" version="1.1">
 <metadata>
  <rdf:RDF xmlns:dc="http://purl.org/dc/elements/1.1/" xmlns:cc="http://creativecommons.org/ns#" xmlns:rdf="http://www.w3.org/1999/02/22-rdf-syntax-ns#">
   <cc:Work>
    <dc:type rdf:resource="http://purl.org/dc/dcmitype/StillImage"/>
    <dc:date>2023-12-09T18:06:28.461163</dc:date>
    <dc:format>image/svg+xml</dc:format>
    <dc:creator>
     <cc:Agent>
      <dc:title>Matplotlib v3.8.2, https://matplotlib.org/</dc:title>
     </cc:Agent>
    </dc:creator>
   </cc:Work>
  </rdf:RDF>
 </metadata>
 <defs>
  <style type="text/css">*{stroke-linejoin: round; stroke-linecap: butt}</style>
 </defs>
 <g id="figure_1">
  <g id="patch_1">
   <path d="M 0 332.64 
L 326.960075 332.64 
L 326.960075 0 
L 0 0 
L 0 332.64 
z
" style="fill: none"/>
  </g>
  <g id="axes_1">
   <g id="patch_2">
    <path d="M 245.6522 169.830123 
L 245.610443 167.174673 
L 254.315385 163.965744 
L 254.084956 161.040804 
L 281.691908 154.592704 
L 281.153234 150.811621 
L 312.098253 141.0147 
L 311.117623 136.284288 
L 267.922028 142.399226 
L 267.006773 139.057127 
L 290.463308 127.784076 
L 289.077375 123.740455 
L 256.159979 132.190245 
L 254.929546 129.223017 
L 258.699847 123.896423 
L 257.207383 120.853438 
L 261.961806 114.368277 
L 260.168143 111.22744 
L 284.073935 91.752581 
L 281.558253 87.927672 
L 271.768911 89.38878 
L 269.184989 85.951936 
L 280.740357 70.796047 
L 277.567404 67.086314 
L 232.093284 103.153516 
L 229.961773 100.957355 
L 262.420099 61.861928 
L 258.975295 58.732641 
L 213.949217 105.949462 
L 211.914587 104.322408 
L 233.437859 70.201883 
L 230.269611 67.979738 
L 206.808977 97.797362 
L 204.521557 96.398843 
L 222.688337 57.694345 
L 219.13214 55.816372 
L 227.134558 29.293373 
L 222.683174 27.289644 
L 203.115742 63.58524 
L 199.754445 62.31976 
L 193.631527 69.578655 
L 190.463365 68.608416 
L 200.201288 17.082008 
L 195.379268 15.931158 
L 180.947534 65.51131 
L 177.657756 64.941894 
L 180.331015 16.588051 
L 175.503289 16.062209 
L 167.457388 67.871811 
L 164.2485 67.725388 
L 161.046713 74.11459 
L 158.037281 74.166646 
L 155.030974 74.3133 
L 152.030765 74.554406 
L 143.420564 31.009712 
L 139.064535 31.637285 
L 140.966828 64.784115 
L 137.673953 65.472141 
L 128.159385 42.12374 
L 124.160351 43.225663 
L 135.947662 92.616027 
L 133.532366 93.448105 
L 110.613314 42.79399 
L 106.64403 44.447268 
L 98.601501 37.499432 
L 94.471683 39.533007 
L 97.408993 54.368088 
L 93.810153 56.430817 
L 83.358995 47.754517 
L 79.559156 50.262279 
L 96.705131 81.474061 
L 93.958909 83.545519 
L 95.906106 91.269582 
L 93.468272 93.36132 
L 64.602999 67.446238 
L 61.431585 70.533993 
L 53.069992 68.777128 
L 49.946126 72.226848 
L 46.932271 75.773084 
L 44.031407 79.412329 
L 58.195974 95.390536 
L 55.906357 98.665925 
L 42.156946 94.714766 
L 39.854012 98.494792 
L 50.376614 109.286648 
L 48.527788 112.801025 
L 75.209908 129.651252 
L 73.989111 132.374747 
L 57.881217 129.254798 
L 56.656522 132.523341 
L 17.251866 123.509446 
L 15.866613 128.058305 
L 27.099296 135.812867 
L 26.096021 140.046018 
L 25.226341 144.308622 
L 24.491117 148.596462 
L 33.470573 154.086102 
L 33.038698 158.109891 
L 17.478494 161.232694 
L 17.279231 165.755777 
L 81.56862 170.080535 
L 81.615864 172.584108 
L 66.492784 176.093463 
L 66.736542 179.068081 
L 63.88308 182.447239 
L 64.327905 185.500771 
L 19.07291 197.433098 
L 20.011079 201.88815 
L 67.013264 194.353716 
L 67.830907 197.30294 
L 16.01784 217.557613 
L 17.590278 222.098773 
L 43.949207 216.730257 
L 45.481821 220.393602 
L 85.636011 205.717956 
L 86.801763 208.076022 
L 83.11711 213.126681 
L 84.517054 215.560284 
L 30.436427 253.495697 
L 33.131708 257.565736 
L 95.655233 217.828094 
L 97.1968 219.865146 
L 52.468319 260.483361 
L 55.372414 263.857215 
L 63.638793 262.162113 
L 66.590149 265.183912 
L 86.083349 250.456097 
L 88.655545 252.777978 
L 109.666763 232.632743 
L 111.666893 234.221922 
L 97.262116 258.590056 
L 100.084534 260.55643 
L 101.254742 265.156706 
L 104.281656 266.994296 
L 93.522243 294.168695 
L 97.465181 296.235068 
L 122.850359 252.234296 
L 125.460287 253.399262 
L 125.762781 260.474614 
L 128.630362 261.543933 
L 134.472335 253.329922 
L 137.110965 254.128926 
L 132.304566 284.482635 
L 135.923777 285.334396 
L 135.742402 306.631717 
L 140.056329 307.364433 
L 143.322569 316.744046 
L 147.950703 317.233426 
L 153.76113 297.502735 
L 157.779114 297.673416 
L 161.614565 258.305791 
L 164.396228 258.248924 
L 170.326507 304.649359 
L 174.561005 304.295656 
L 177.630885 295.03656 
L 181.559525 294.457944 
L 186.704758 300.070788 
L 190.787198 299.20438 
L 195.65597 301.32228 
L 199.773334 300.173808 
L 206.124138 305.769799 
L 210.376166 304.289986 
L 216.378969 307.155203 
L 220.669487 305.35227 
L 219.707936 292.525227 
L 223.536809 290.624858 
L 213.222111 263.303875 
L 216.135408 261.621882 
L 242.460897 296.398187 
L 246.400295 293.7805 
L 253.112923 294.929338 
L 257.000871 291.977455 
L 233.959693 256.822492 
L 236.658948 254.491669 
L 219.346637 231.077892 
L 221.24365 229.219265 
L 247.245543 249.743274 
L 249.715643 246.998214 
L 258.324307 249.269088 
L 260.77402 246.175923 
L 250.057566 233.625578 
L 252.0195 230.800071 
L 236.85221 217.237041 
L 238.305381 214.834843 
L 233.318648 208.937491 
L 234.512611 206.650499 
L 259.716589 215.487884 
L 261.103458 212.367644 
L 305.867613 226.122102 
L 307.566027 221.545515 
L 238.607428 194.471855 
L 239.343945 192.025725 
L 283.697585 200.495679 
L 284.60121 196.628837 
L 283.800824 192.443707 
L 284.451226 188.5776 
L 241.85551 179.514936 
L 242.120142 176.974074 
L 271.21437 176.064334 
L 271.355992 172.602071 
L 245.650529 169.298949 
L 245.592072 166.643814 
L 254.276659 163.3802 
L 254.027839 160.456767 
L 281.59369 153.835162 
L 281.031246 150.057541 
L 311.914036 140.066188 
L 310.903674 135.342037 
L 267.747393 141.72853 
L 266.811136 138.392253 
L 290.196305 126.971897 
L 288.784968 122.937073 
L 255.921367 131.593727 
L 254.672297 128.634297 
L 258.409022 123.284095 
L 256.897448 120.250557 
L 261.610989 113.735622 
L 259.797608 110.606128 
L 283.580442 90.981301 
L 281.040752 87.172289 
L 271.260794 88.694938 
L 268.655307 85.274413 
L 280.115125 70.046147 
L 276.918902 66.356444 
L 231.672524 102.708939 
L 229.527242 100.526227 
L 261.739038 61.227429 
L 258.274621 58.11987 
L 213.5464 105.618945 
L 211.501577 104.00472 
L 232.809825 69.749501 
L 229.627664 67.547326 
L 206.355029 97.511915 
L 204.058859 96.12781 
L 221.981851 57.309818 
L 218.413912 55.454249 
L 226.249358 28.881444 
L 221.785459 26.905751 
L 202.446693 63.323698 
L 199.077503 62.079383 
L 193.000361 69.376644 
L 189.826159 68.42635 
L 199.239817 16.839716 
L 194.410654 15.719216 
L 180.291037 65.389155 
L 176.997743 64.840441 
L 179.366831 16.470741 
L 174.535893 15.975274 
L 166.816005 67.834454 
L 163.606259 67.708217 
L 160.444719 74.11743 
L 157.435675 74.188413 
L 154.43035 74.353972 
L 151.431716 74.613943 
L 142.547814 31.124262 
L 138.195819 31.77922 
L 140.306548 64.913431 
L 137.018066 65.622153 
L 127.356838 42.334055 
L 123.364814 43.461108 
L 135.462528 92.77636 
L 133.052513 93.623612 
L 109.815329 43.114646 
L 105.856522 44.792857 
L 97.770454 37.895741 
L 93.653508 39.95525 
L 96.684064 54.771564 
L 93.098268 56.856887 
L 82.592748 48.24649 
L 78.808757 50.778101 
L 96.150697 81.881427 
L 93.417558 83.970116 
L 95.413296 91.68178 
L 92.988666 93.788809 
L 63.960973 68.055786 
L 60.809041 71.163426 
L 52.436565 69.459186 
L 49.334457 72.928485 
L 46.342965 76.493606 
L 43.465048 80.151023 
L 57.729829 96.039827 
L 55.460857 99.329553 
L 41.686868 95.464947 
L 39.407753 99.259382 
L 49.998022 109.984844 
L 48.171335 113.51078 
L 74.958906 130.192858 
L 73.755262 132.923978 
L 57.628065 129.9054 
L 56.423951 133.181581 
L 16.963382 124.415697 
L 15.606766 128.973178 
L 26.887999 136.656939 
L 25.911368 140.896317 
L 25.068514 145.164306 
L 24.360273 149.456686 
L 33.374079 154.889741 
L 32.96752 158.916168 
L 17.427264 162.136774 
L 17.256452 166.66102 
L 81.57177 170.581349 
L 81.634759 173.084576 
L 66.53405 176.688976 
L 66.796512 179.662002 
L 63.964359 183.059041 
L 64.42838 186.109714 
L 19.249328 198.326433 
L 20.215498 202.775497 
L 67.169367 194.945594 
L 68.005542 197.889618 
L 16.32089 218.469765 
L 17.921858 223.000945 
L 44.246501 217.466753 
L 45.802125 221.120386 
L 85.86322 206.192483 
L 87.043779 208.54317 
L 83.390966 213.616905 
L 84.806187 216.041654 
L 30.965223 254.316454 
L 33.686048 258.36946 
L 95.958409 218.239366 
L 97.512758 220.266682 
L 53.040627 261.165412 
L 55.965884 264.520933 
L 64.221439 262.773874 
L 67.191742 265.777051 
L 86.591926 250.926926 
L 89.178674 253.232583 
L 110.062775 232.955598 
L 112.07286 234.532166 
L 97.82163 258.990416 
L 100.65636 260.939 
L 101.855477 265.531825 
L 104.893889 267.350341 
L 94.305601 294.591873 
L 98.261457 296.633407 
L 123.369393 252.473846 
L 125.986596 253.622374 
L 126.333584 260.695684 
L 129.207834 261.746946 
L 134.99803 253.496355 
L 137.641634 254.278748 
L 133.026237 284.662086 
L 136.650734 285.491067 
L 136.60331 306.789108 
L 140.921761 307.494677 
L 144.246928 316.853562 
L 148.878048 317.313823 
L 154.564266 297.546978 
L 158.583243 297.692386 
L 162.171019 258.301416 
L 164.952269 258.227055 
L 171.174263 304.589275 
L 175.406453 304.208946 
L 178.418038 294.930725 
L 182.34296 294.327412 
L 187.523394 299.907784 
L 191.600304 299.015717 
L 196.4823 301.102953 
L 200.592359 299.928608 
L 206.978233 305.484545 
L 211.22087 303.978018 
L 217.241574 306.805425 
L 221.520668 304.975543 
L 220.478461 292.154801 
L 224.295307 290.230388 
L 213.808979 262.974819 
L 216.711639 261.274536 
L 243.255331 295.884581 
L 247.178188 293.242169 
L 253.897909 294.348766 
L 257.767214 291.372488 
L 234.505387 256.363137 
L 237.189929 254.015383 
L 219.7307 230.710954 
L 221.615987 228.840432 
L 247.74645 249.200498 
L 250.199236 246.439957 
L 258.822012 248.656643 
L 261.252222 245.548131 
L 250.457046 233.065435 
L 252.40117 230.227645 
L 237.148876 216.760276 
L 238.586911 214.348986 
L 233.563185 208.483115 
L 234.74274 206.188659 
L 260.001802 214.867349 
L 261.369019 211.738449 
L 306.218796 225.211093 
L 307.888393 220.623915 
L 238.76088 193.984501 
L 239.481997 191.533787 
L 283.888031 199.724614 
L 284.767318 195.852165 
L 283.940625 191.672152 
L 284.566699 187.802031 
L 241.914826 179.007449 
L 242.163472 176.464973 
L 271.251404 175.372265 
L 271.371247 171.90918 
L 245.645518 168.767796 
L 245.570363 166.113081 
L 254.234252 162.79491 
L 253.967049 159.8731 
L 281.490709 153.078253 
L 280.904517 149.304244 
L 311.723856 139.118853 
L 310.683802 134.40115 
L 267.568542 141.058946 
L 266.61132 137.728623 
L 289.9242 126.161413 
L 288.487514 122.135546 
L 255.679008 130.998722 
L 254.411349 128.047207 
L 258.114351 122.673609 
L 256.583728 119.649637 
L 261.256201 113.105186 
L 259.423172 109.987158 
L 283.082107 90.213139 
L 280.518511 86.420176 
L 270.748322 88.004305 
L 268.121374 84.600235 
L 279.485188 69.300195 
L 276.265822 65.630666 
L 231.248976 102.267016 
L 229.090008 100.097841 
L 261.054 60.597226 
L 257.570106 57.511518 
L 213.141513 105.290968 
L 211.086578 103.689636 
L 232.178958 69.301077 
L 228.983009 67.11896 
L 205.899295 97.229328 
L 203.594465 95.859692 
L 221.272959 56.929743 
L 217.693421 55.096651 
L 225.361584 28.475091 
L 220.885347 26.527513 
L 201.776012 63.066368 
L 198.399062 61.843269 
L 192.367937 69.178607 
L 189.187821 68.248296 
L 198.276842 16.603475 
L 193.440727 15.51337 
L 179.633785 65.271131 
L 176.337105 64.743142 
L 178.401928 16.359498 
L 173.567969 15.894424 
L 166.174399 67.801132 
L 162.963923 67.695085 
L 159.842756 74.124055 
L 156.834217 74.213962 
L 153.829993 74.39842 
L 150.833053 74.677245 
L 141.675802 31.2443 
L 137.328012 31.926617 
L 139.647094 65.046896 
L 136.363135 65.776287 
L 126.555629 42.549413 
L 122.570772 43.701552 
L 134.978413 92.939741 
L 132.573774 93.802134 
L 109.019377 43.440315 
L 105.071203 45.143392 
L 96.941916 38.297269 
L 92.838004 40.38263 
L 95.961687 55.179591 
L 92.389077 57.287425 
L 81.829611 48.743272 
L 78.061617 51.298632 
L 95.598836 82.292272 
L 92.878888 84.39811 
L 94.923088 92.097069 
L 92.511758 94.219306 
L 63.322794 68.669359 
L 60.190469 71.796762 
L 51.80744 70.145214 
L 48.727213 73.633955 
L 45.758203 77.21782 
L 42.903346 80.893266 
L 57.267776 96.692038 
L 55.01954 99.995969 
L 41.221517 96.21807 
L 38.966312 100.026765 
L 49.623829 110.685408 
L 47.819354 114.222762 
L 74.711316 130.736032 
L 73.524873 133.474668 
L 57.379009 130.557581 
L 56.195525 133.84127 
L 16.680604 125.323744 
L 15.352679 129.889668 
L 26.682015 137.502324 
L 25.732066 141.747761 
L 24.916073 146.020966 
L 24.234842 150.317716 
L 33.28264 155.693972 
L 32.901413 159.722876 
L 17.381721 163.041157 
L 17.239367 167.566388 
L 81.578069 171.082133 
L 81.656801 173.584914 
L 66.579061 177.284218 
L 66.860216 180.255534 
L 64.049485 183.670319 
L 64.532683 186.718013 
L 19.431362 199.218642 
L 20.425494 203.66154 
L 67.329188 195.53648 
L 68.183864 198.475186 
L 16.629671 219.379993 
L 18.259106 223.901015 
L 44.548422 218.201364 
L 46.126994 221.845142 
L 86.093408 206.665572 
L 87.288729 209.008788 
L 83.667899 214.105396 
L 85.098343 216.521196 
L 31.49917 255.133868 
L 34.245432 259.169682 
L 96.264166 218.648724 
L 97.831235 220.666224 
L 53.617213 261.843849 
L 56.563517 265.180906 
L 64.807921 263.381958 
L 67.797053 266.366394 
L 87.103455 251.394547 
L 89.704653 253.683889 
L 110.46081 233.275956 
L 112.480771 234.83985 
L 98.383651 259.387249 
L 101.23058 261.317966 
L 102.458561 265.903158 
L 105.508349 267.702528 
L 95.091605 295.010116 
L 99.060222 297.026729 
L 123.889924 252.710127 
L 126.514298 253.842171 
L 126.905766 260.913159 
L 129.786571 261.946323 
L 135.524762 253.659478 
L 138.173233 254.425229 
L 133.749022 284.836994 
L 137.378661 285.643163 
L 137.465191 306.94108 
L 141.787994 307.619476 
L 145.171958 316.957261 
L 149.80588 317.388387 
L 155.367664 297.58617 
L 159.387476 297.706297 
L 162.727434 258.293542 
L 165.508161 258.201689 
L 172.021624 304.523859 
L 176.251339 304.11692 
L 179.204509 294.819942 
L 183.125559 294.191954 
L 188.340988 299.739634 
L 192.412207 298.821943 
L 197.307234 300.878434 
L 201.409826 299.678262 
L 207.830517 305.193926 
L 212.063595 303.660745 
L 218.101963 306.450228 
L 222.369463 304.593469 
L 221.246642 291.779537 
L 225.051308 289.831156 
L 214.393766 262.642078 
L 217.285675 260.923573 
L 244.04652 295.365989 
L 247.952679 292.698956 
L 254.679227 293.763269 
L 258.529736 290.762713 
L 235.04818 255.900359 
L 237.717903 253.535767 
L 220.112449 230.341608 
L 221.985933 228.459265 
L 248.243933 248.654582 
L 250.679308 245.87867 
L 259.315855 248.041079 
L 261.726466 244.917344 
L 250.852995 232.50279 
L 252.779232 229.652829 
L 237.442538 216.281655 
L 238.865378 213.861368 
L 233.804859 208.027209 
L 234.96996 205.72538 
L 260.283106 214.245034 
L 261.630617 211.107596 
L 306.564243 224.297894 
L 308.204956 219.700306 
L 238.911263 193.496192 
L 239.616952 191.040991 
L 284.073624 198.952367 
L 284.928538 195.074465 
L 284.075572 190.899733 
L 284.677292 187.025751 
L 241.97095 178.499599 
L 242.2036 175.95561 
L 271.284084 174.679977 
L 271.382144 171.216207 
L 245.637166 168.236685 
L 245.545316 165.582496 
L 254.188164 162.209899 
L 253.902591 159.289828 
L 281.38297 152.322006 
L 280.773054 148.551759 
L 311.527723 138.172734 
L 310.458017 133.461665 
L 267.385484 140.390499 
L 266.407335 137.066263 
L 289.647003 125.352657 
L 288.185024 121.335905 
L 255.432912 130.405253 
L 254.146715 127.461769 
L 257.815846 122.064988 
L 256.266235 119.050702 
L 260.897454 112.476993 
L 259.044851 109.370556 
L 282.57895 89.448127 
L 279.99155 85.671362 
L 270.231518 87.316909 
L 267.583212 83.929428 
L 278.850572 68.558219 
L 275.60819 64.909011 
L 230.822657 101.827767 
L 228.650089 99.672213 
L 260.365012 59.971344 
L 256.86178 56.907608 
L 212.734571 104.965545 
L 210.669605 103.377168 
L 231.545283 68.856631 
L 228.335674 66.694657 
L 205.441793 96.949613 
L 203.128395 95.594501 
L 220.561692 56.554134 
L 216.970695 54.743591 
L 224.471272 28.074329 
L 219.982875 26.154942 
L 201.103726 62.813262 
L 197.719151 61.611426 
L 191.734279 68.984552 
L 188.548375 68.07426 
L 197.3124 16.373296 
L 192.469524 15.313629 
L 178.975803 65.157243 
L 175.675868 64.649999 
L 177.436345 16.254325 
L 172.599556 15.819664 
L 165.532596 67.771847 
L 162.321516 67.685993 
L 159.240846 74.134467 
L 156.232932 74.243294 
L 153.229927 74.446643 
L 150.234801 74.744312 
L 140.804561 31.36982 
L 136.461149 32.079468 
L 138.988494 65.184507 
L 135.709187 65.934537 
L 125.755791 42.769807 
L 121.778259 43.946985 
L 134.495335 93.106163 
L 132.096167 93.983663 
L 108.225489 43.770984 
L 104.288104 45.498859 
L 96.11592 38.704 
L 92.025205 40.815131 
L 95.24189 55.592153 
L 91.682608 57.722415 
L 81.069613 49.244844 
L 77.317765 51.823852 
L 95.04957 82.70658 
L 92.34292 84.829483 
L 94.435502 92.515434 
L 92.037568 94.652795 
L 62.688486 69.286935 
L 59.575893 72.433977 
L 51.182642 70.835185 
L 48.124418 74.34323 
L 45.178007 77.945698 
L 42.346323 81.639026 
L 56.809835 97.347142 
L 54.582423 100.665147 
L 40.760911 96.974105 
L 38.529706 100.796909 
L 49.254049 111.388311 
L 47.471858 114.936945 
L 74.467147 131.280753 
L 73.297952 134.026796 
L 57.134061 131.211315 
L 55.971252 134.502383 
L 16.403542 126.233552 
L 15.104361 130.807737 
L 26.481352 138.348988 
L 25.558123 142.600315 
L 24.769022 146.878568 
L 24.114829 151.179518 
L 33.196262 156.498762 
L 32.840382 160.529983 
L 17.341866 163.94581 
L 17.227977 168.471846 
L 81.587518 171.582867 
L 81.68199 174.085104 
L 66.627814 177.879165 
L 66.927651 180.848654 
L 64.138453 184.281049 
L 64.640811 187.325644 
L 19.619003 200.109687 
L 20.641059 204.546245 
L 67.492723 196.126348 
L 68.365865 199.059621 
L 16.944171 220.288261 
L 18.602009 224.798945 
L 44.854957 218.934062 
L 46.456415 222.567839 
L 86.326568 207.137204 
L 87.536603 209.472855 
L 83.947898 214.592135 
L 85.393508 216.998892 
L 32.038247 255.947908 
L 34.809839 259.96637 
L 96.572492 219.05615 
L 98.152218 221.063754 
L 54.198055 262.518646 
L 57.165289 265.837106 
L 65.398215 263.986342 
L 68.406059 266.951919 
L 87.617914 251.858941 
L 90.23346 254.131879 
L 110.860852 233.593804 
L 112.890609 235.144963 
L 98.948157 259.78054 
L 101.807173 261.693312 
L 103.063967 266.27069 
L 106.125013 268.050844 
L 95.880223 295.423407 
L 99.861446 297.415019 
L 124.41193 252.943129 
L 127.043373 254.058646 
L 127.479305 261.127032 
L 130.366551 262.142057 
L 136.052509 253.819285 
L 138.705744 254.568363 
L 134.472893 285.007353 
L 138.10753 285.790678 
L 138.32801 307.087629 
L 142.654994 307.738823 
L 146.097621 317.055141 
L 150.734164 317.457113 
L 156.171292 297.620307 
L 160.19178 297.71515 
L 163.283788 258.282168 
L 166.063883 258.172828 
L 172.868558 304.453116 
L 177.095629 304.019582 
L 179.990268 294.704214 
L 183.907291 294.051578 
L 189.157508 299.566346 
L 193.222875 298.623068 
L 198.130739 300.64873 
L 202.225702 299.422779 
L 208.680956 304.897951 
L 212.904308 303.338177 
L 218.9601 306.089627 
L 223.215838 304.206065 
L 222.012447 291.399448 
L 225.804784 289.427176 
L 214.976448 262.305666 
L 217.857492 260.569007 
L 244.83443 294.84243 
L 248.723739 292.150884 
L 255.456847 293.172869 
L 259.288409 290.148155 
L 235.588053 255.434175 
L 238.242851 253.052839 
L 220.491866 229.969867 
L 222.353475 228.075779 
L 248.737972 248.105549 
L 251.155841 245.314374 
L 259.805817 247.422421 
L 262.196734 244.283587 
L 251.245397 231.937667 
L 253.153672 229.075647 
L 237.733184 215.801196 
L 239.140774 213.372008 
L 234.043661 207.569793 
L 235.194261 205.260681 
L 260.560491 213.620961 
L 261.888243 210.475111 
L 306.903939 223.382541 
L 308.515703 218.774724 
L 239.058572 193.006947 
L 239.748805 190.547356 
L 284.254356 198.178968 
L 285.084863 194.295766 
L 284.205657 190.126482 
L 284.783 186.248791 
L 242.023878 177.991407 
L 242.240524 175.446004 
L 271.31241 173.987497 
L 271.388683 170.523179 
L 245.625474 167.705637 
L 245.516932 165.052078 
L 254.138398 161.62519 
L 253.834464 158.706972 
L 281.270477 151.566452 
L 280.63686 147.800116 
L 311.325642 137.227866 
L 310.226328 132.523619 
L 267.198225 139.723218 
L 266.199188 136.405199 
L 289.364724 124.545661 
L 287.877512 120.538183 
L 255.183088 129.813344 
L 253.878403 126.878007 
L 257.513519 121.458256 
L 255.944981 118.453777 
L 260.534763 111.85107 
L 258.66266 108.756346 
L 282.070992 88.686294 
L 279.459889 84.925878 
L 269.7104 86.632777 
L 267.040841 83.26202 
L 278.211302 67.820249 
L 274.946033 64.191506 
L 230.393583 101.391207 
L 228.207501 99.24936 
L 259.672101 59.349807 
L 256.149669 56.308166 
L 212.32559 104.642687 
L 210.250675 103.067329 
L 230.908826 68.416178 
L 227.685682 66.274434 
L 204.982541 96.672781 
L 202.660665 95.332246 
L 219.848076 56.183005 
L 216.245763 54.395084 
L 223.578457 27.679175 
L 219.078076 25.788056 
L 200.429861 62.56439 
L 197.037794 61.383864 
L 191.099414 68.794485 
L 187.907847 67.90425 
L 196.346529 16.149187 
L 191.497085 15.12 
L 178.317118 65.047496 
L 175.014058 64.561017 
L 176.470119 16.155228 
L 171.630692 15.750995 
L 164.890621 67.746598 
L 161.679065 67.680942 
L 158.639013 74.148664 
L 155.631843 74.276407 
L 152.630176 74.498639 
L 149.636982 74.81514 
L 139.934128 31.500816 
L 135.595264 32.237768 
L 138.330771 65.326257 
L 135.056247 66.096897 
L 124.957354 42.995226 
L 120.987305 44.197397 
L 134.013312 93.27562 
L 131.619712 94.168192 
L 107.433696 44.10664 
L 103.507256 45.859244 
L 95.292498 39.115918 
L 91.215142 41.252735 
L 94.524703 56.009234 
L 90.978889 58.16184 
L 80.312785 49.751187 
L 76.577232 52.353741 
L 94.50292 83.124335 
L 91.809676 85.264219 
L 93.950557 92.936856 
L 91.566113 95.089256 
L 62.058074 69.908488 
L 58.965336 73.075043 
L 50.562195 71.529072 
L 47.526096 75.056283 
L 44.602401 78.67721 
L 41.794002 82.388275 
L 56.356022 98.005113 
L 54.149523 101.337062 
L 40.30507 97.733022 
L 38.097952 101.569783 
L 48.888697 112.093526 
L 47.12886 115.653298 
L 74.226409 131.826998 
L 73.074508 134.580341 
L 56.893228 131.866577 
L 55.751142 135.164893 
L 16.132209 127.145084 
L 14.861822 131.72735 
L 26.286018 139.196897 
L 25.389546 143.453947 
L 24.627368 147.737078 
L 24.000239 152.042057 
L 33.114947 157.304079 
L 32.784428 161.337459 
L 17.307703 164.850695 
L 17.222281 169.377358 
L 81.600117 172.083532 
L 81.710324 174.585125 
L 66.680308 178.473794 
L 66.998816 181.441339 
L 64.231261 184.891208 
L 64.752757 187.932583 
L 19.812244 200.999535 
L 20.862183 205.429577 
L 67.659965 196.715176 
L 68.551538 199.642899 
L 17.264378 221.194533 
L 18.950552 225.694701 
L 45.166094 219.664818 
L 46.790375 223.288451 
L 86.562689 207.60736 
L 87.78739 209.935355 
L 84.230954 215.077105 
L 85.691672 217.474721 
L 32.582434 256.758542 
L 35.379244 260.759492 
L 96.883374 219.46163 
L 98.475696 221.459258 
L 54.78313 263.189777 
L 57.771176 266.489509 
L 65.992299 264.587001 
L 69.018735 267.533602 
L 88.135284 252.320091 
L 90.765074 254.576533 
L 111.262885 233.90913 
L 113.302358 235.447493 
L 99.515126 260.170272 
L 102.386115 262.065025 
L 103.671674 266.634408 
L 106.743855 268.395274 
L 96.671426 295.83173 
L 100.665096 297.798263 
L 124.935391 253.172844 
L 127.573798 254.271788 
L 128.054178 261.337292 
L 130.947751 262.334138 
L 136.58125 253.97577 
L 139.239144 254.708146 
L 135.197821 285.173156 
L 138.837313 285.933605 
L 139.191735 307.228749 
L 143.522729 307.852716 
L 147.023881 317.147197 
L 151.662861 317.52 
L 156.975119 297.64939 
L 160.996125 297.718944 
L 163.84006 258.267295 
L 166.619412 258.140472 
L 173.715029 304.377047 
L 177.93929 303.916936 
L 180.775284 294.583546 
L 184.688125 293.906287 
L 189.972922 299.387925 
L 194.032276 298.419097 
L 198.952783 300.413852 
L 203.039955 299.16217 
L 209.529517 304.596634 
L 213.742975 303.010328 
L 219.815953 305.723636 
L 224.05976 303.813345 
L 222.775846 291.01455 
L 226.555704 289.018466 
L 215.557003 261.965596 
L 218.427067 260.210851 
L 245.619033 294.313927 
L 249.491336 291.597972 
L 256.230739 292.577589 
L 260.043201 289.528837 
L 236.124982 254.964606 
L 238.764751 252.56662 
L 220.868938 229.595748 
L 222.718597 227.689988 
L 249.228549 247.553419 
L 251.628814 244.747092 
L 260.291878 246.800694 
L 262.663007 243.646885 
L 251.634237 231.370086 
L 253.524474 228.496121 
L 238.020802 215.318919 
L 239.413086 212.880926 
L 234.279581 207.110883 
L 235.415636 204.794581 
L 260.833945 212.995156 
L 262.141885 209.841017 
L 307.237872 222.465069 
L 308.820623 217.847206 
L 239.202801 192.516784 
L 239.877551 190.052901 
L 284.43022 197.404448 
L 285.236288 193.516099 
L 284.330877 189.352427 
L 284.88382 185.471182 
L 242.07361 177.482892 
L 242.274242 174.936177 
L 271.336379 173.294853 
L 245.6522 169.830123 
z
" clip-path="url(#p5d31a9ca5e)" style="fill: #0000ff; opacity: 0.5; stroke: #000000; stroke-width: 1.5; stroke-linejoin: miter"/>
   </g>
  </g>
 </g>
 <defs>
  <clipPath id="p5d31a9ca5e">
   <rect x="0" y="-0" width="326.960075" height="332.64"/>
  </clipPath>
 </defs>
</svg>
