<?xml version="1.0" encoding="utf-8" standalone="no"?>
<!DOCTYPE svg PUBLIC "-//W3C//DTD SVG 1.1//EN"
  "http://www.w3.org/Graphics/SVG/1.1/DTD/svg11.dtd">
<svg xmlns:xlink="http://www.w3.org/1999/xlink" width="334.8pt" height="329.954755pt" viewBox="0 0 334.8 329.954755" xmlns="http://www.w3.org/2000/svg" version="1.1">
 <metadata>
  <rdf:RDF xmlns:dc="http://purl.org/dc/elements/1.1/" xmlns:cc="http://creativecommons.org/ns#" xmlns:rdf="http://www.w3.org/1999/02/22-rdf-syntax-ns#">
   <cc:Work>
    <dc:type rdf:resource="http://purl.org/dc/dcmitype/StillImage"/>
    <dc:date>2023-12-09T18:06:28.586163</dc:date>
    <dc:format>image/svg+xml</dc:format>
    <dc:creator>
     <cc:Agent>
      <dc:title>Matplotlib v3.8.2, https://matplotlib.org/</dc:title>
     </cc:Agent>
    </dc:creator>
   </cc:Work>
  </rdf:RDF>
 </metadata>
 <defs>
  <style type="text/css">*{stroke-linejoin: round; stroke-linecap: butt}</style>
 </defs>
 <g id="figure_1">
  <g id="patch_1">
   <path d="M 0 329.954755 
L 334.8 329.954755 
L 334.8 0 
L 0 0 
L 0 329.954755 
z
" style="fill: none"/>
  </g>
  <g id="axes_1">
   <g id="patch_2">
    <path d="M 275.851527 157.222983 
L 275.796499 153.723639 
L 294.010708 149.07027 
L 293.690363 145.003991 
L 273.383472 143.46109 
L 272.896961 140.046151 
L 276.235666 135.897292 
L 275.509923 132.396413 
L 318.101083 117.758376 
L 316.784312 112.950125 
L 303.895795 111.900603 
L 302.401867 107.541893 
L 284.396097 109.722993 
L 282.843341 105.978473 
L 250.751881 116.616372 
L 249.432503 113.926292 
L 278.191431 94.677428 
L 276.168678 91.135436 
L 280.793495 83.364709 
L 278.413758 79.746495 
L 282.396112 71.494541 
L 279.642359 67.831806 
L 242.862818 92.351441 
L 240.784398 89.921408 
L 256.12831 71.101613 
L 253.37519 68.26499 
L 233.557836 83.624016 
L 231.209607 81.490867 
L 259.895063 41.772185 
L 256.217899 38.831629 
L 217.668856 83.975514 
L 215.339535 82.341775 
L 238.232379 40.870462 
L 234.537573 38.611474 
L 215.759337 63.849863 
L 212.798166 62.286114 
L 200.946881 79.662675 
L 198.490222 78.556844 
L 200.701773 65.611916 
L 197.803449 64.520739 
L 206.209674 28.478299 
L 202.141065 27.232301 
L 193.479068 43.957965 
L 189.903468 43.104592 
L 185.558083 46.29759 
L 182.059962 45.692114 
L 181.322207 22.950616 
L 177.092101 22.489868 
L 173.144012 17.367299 
L 168.742397 17.166452 
L 164.383225 46.729236 
L 160.909145 46.78933 
L 155.375401 14.997943 
L 150.908073 15.356952 
L 150.013766 43.653076 
L 146.45007 44.166498 
L 147.901052 70.737394 
L 145.189991 71.303853 
L 133.674528 37.84819 
L 129.936392 38.878223 
L 125.23705 36.981187 
L 121.475826 38.276942 
L 120.423011 46.385216 
L 116.95985 47.827685 
L 97.794712 16.084009 
L 93.390002 18.252943 
L 87.894108 18.456781 
L 83.568899 20.935839 
L 83.628482 30.300843 
L 79.677785 32.908165 
L 78.171286 38.872049 
L 74.492785 41.64672 
L 71.415112 45.151457 
L 67.93739 48.135452 
L 80.489555 68.116738 
L 77.729425 70.804058 
L 74.470176 73.030127 
L 71.867509 75.904281 
L 99.029371 103.284032 
L 97.365811 105.371032 
L 53.587207 77.024504 
L 51.120458 80.553288 
L 44.025895 81.166919 
L 41.694119 84.994284 
L 64.779526 102.712606 
L 63.114933 105.876778 
L 62.276048 109.430677 
L 60.823924 112.670243 
L 75.124974 122.10033 
L 74.064859 124.929633 
L 19.740965 110.622137 
L 18.347333 115.19851 
L 17.098282 119.816439 
L 15.995046 124.471358 
L 29.203602 131.817388 
L 28.471717 136.085756 
L 19.92774 139.395492 
L 19.438714 143.951766 
L 25.4872 148.903661 
L 25.294382 153.280433 
L 25.239275 157.661102 
L 25.321933 162.041339 
L 32.732689 165.941268 
L 33.071989 170.081802 
L 60.538473 170.709343 
L 61.013944 173.973244 
L 30.15206 183.326719 
L 31.039272 187.539797 
L 46.005719 188.091326 
L 47.034902 191.803575 
L 22.318817 203.983549 
L 23.859398 208.432709 
L 49.32826 203.315379 
L 50.834479 206.915633 
L 63.301908 205.314125 
L 64.864062 208.474028 
L 53.220433 218.960716 
L 55.21665 222.430856 
L 51.925469 229.288767 
L 54.247063 232.794517 
L 84.455023 215.883562 
L 86.339045 218.373139 
L 45.252361 256.693768 
L 48.438928 260.395785 
L 48.832674 266.747655 
L 52.333587 270.332128 
L 102.883101 223.422681 
L 104.995058 225.329112 
L 93.453007 243.880767 
L 96.212874 246.073586 
L 85.001043 267.66902 
L 88.513043 270.115825 
L 111.706176 241.271651 
L 114.374981 242.891839 
L 123.600509 232.471881 
L 125.986749 233.722437 
L 116.925538 259.578918 
L 120.167383 261.025947 
L 130.741038 243.727183 
L 133.477639 244.74766 
L 138.197524 239.580994 
L 140.800073 240.369072 
L 138.339059 261.261511 
L 141.623221 262.03442 
L 135.995427 310.721019 
L 140.835863 311.543163 
L 150.631641 271.676932 
L 154.237209 272.058186 
L 155.385544 314.690146 
L 160.341191 314.900659 
L 164.972419 245.296839 
L 167.741448 245.24023 
L 173.752984 293.027639 
L 178.018433 292.671351 
L 184.771315 311.234037 
L 189.603766 310.522306 
L 191.179777 293.15818 
L 195.440714 292.25389 
L 196.626533 279.598176 
L 200.458421 278.529333 
L 209.782356 294.065764 
L 214.062632 292.57612 
L 195.306463 233.746059 
L 197.697313 232.741392 
L 206.603645 245.393527 
L 209.355131 244.027893 
L 233.478668 281.055431 
L 237.338154 278.827155 
L 251.075277 291.975127 
L 255.269403 289.188176 
L 252.262562 276.59215 
L 255.972426 273.775474 
L 222.091623 226.009486 
L 224.225975 224.16646 
L 249.455457 246.645082 
L 252.225108 243.931474 
L 238.480593 225.875917 
L 240.602642 223.517652 
L 253.185786 229.711327 
L 255.421158 226.888802 
L 294.640481 250.613759 
L 297.512575 246.477473 
L 253.437995 212.917597 
L 255.14521 210.095445 
L 244.797197 200.732717 
L 246.125566 198.188276 
L 274.252253 208.060104 
L 275.796447 204.585908 
L 299.616141 209.775188 
L 301.20172 205.502648 
L 269.845027 190.738977 
L 270.846786 187.411918 
L 291.937993 189.110316 
L 292.87762 185.089411 
L 272.43059 177.1197 
L 273.002851 173.718079 
L 318.781173 175.741011 
L 319.287168 170.882708 
L 286.065444 164.10836 
L 286.221858 160.284463 
L 275.849325 156.523004 
L 275.77229 153.024074 
L 293.956872 148.25624 
L 293.610959 144.192057 
L 273.294765 142.776905 
L 272.786786 139.365093 
L 276.099331 135.195318 
L 275.351583 131.699072 
L 317.849836 116.793451 
L 316.50285 111.993577 
L 303.607987 111.025137 
L 302.086675 106.675909 
L 284.094978 108.970212 
L 282.518703 105.235533 
L 250.494784 116.075058 
L 249.158513 113.393329 
L 277.795808 93.963969 
L 275.750817 90.434769 
L 280.326669 82.635108 
L 277.924223 79.031933 
L 281.854598 70.755095 
L 279.077863 67.109752 
L 242.453264 91.860225 
L 240.359602 89.443312 
L 255.584844 70.527385 
L 252.813938 67.708134 
L 233.093576 83.191496 
L 230.731977 81.073158 
L 259.167058 41.174846 
L 255.471472 38.257475 
L 217.20712 83.642919 
L 214.86757 82.023862 
L 237.49913 40.409387 
L 233.79019 38.173681 
L 215.17106 63.529676 
L 212.200112 61.984582 
L 200.45835 79.435337 
L 197.994786 78.344979 
L 200.124876 65.386397 
L 197.219747 64.313471 
L 205.399119 28.218873 
L 201.322754 26.99849 
L 192.766124 43.778302 
L 189.185227 42.947434 
L 184.86001 46.167699 
L 181.35815 45.584236 
L 180.477379 22.847827 
L 176.244458 22.413693 
L 172.264229 17.316058 
L 167.861438 17.142898 
L 163.688285 46.732514 
L 160.214652 46.814457 
L 154.481067 15.058503 
L 150.016086 15.445602 
L 149.299764 43.746791 
L 145.739367 44.282616 
L 147.357436 70.84386 
L 144.649991 71.427359 
L 132.924339 38.044784 
L 129.192756 39.098308 
L 124.481575 37.230865 
L 120.728575 38.55025 
L 119.726777 46.664986 
L 116.272757 48.129208 
L 96.908348 16.506697 
L 92.517367 18.703292 
L 87.022864 18.941691 
L 82.713332 21.447903 
L 82.831814 30.812347 
L 78.897594 33.444466 
L 77.428634 39.417707 
L 73.767657 42.215459 
L 70.712088 45.739483 
L 67.253202 48.745292 
L 79.93079 68.647237 
L 77.187616 71.351863 
L 73.942432 73.598387 
L 71.357894 76.488853 
L 98.691421 103.69723 
L 97.04102 105.794652 
L 53.084999 77.724027 
L 50.640492 81.268256 
L 43.549929 81.926496 
L 41.242272 85.768451 
L 64.43866 103.341227 
L 62.794001 106.515807 
L 61.977484 110.074912 
L 60.545764 113.323547 
L 74.905841 122.663501 
L 73.863542 125.499416 
L 19.450736 111.533869 
L 18.085915 116.118917 
L 16.865932 120.74461 
L 15.791995 125.406376 
L 29.046493 132.669187 
L 28.341468 136.942073 
L 19.818476 140.305481 
L 19.358115 144.86474 
L 25.437627 149.778496 
L 25.27234 154.156393 
L 25.244786 158.537323 
L 25.354992 162.916953 
L 32.79013 166.770196 
L 33.155464 170.908513 
L 60.625352 171.363294 
L 61.121341 174.62414 
L 30.318896 184.171533 
L 31.232588 188.378948 
L 46.202208 188.836336 
L 47.254719 192.542038 
L 22.615728 204.877222 
L 24.184261 209.316604 
L 49.620435 204.039191 
L 51.149267 207.6299 
L 63.606376 205.950011 
L 65.188374 209.100026 
L 53.61093 219.659739 
L 55.628934 223.117255 
L 52.38095 229.99573 
L 54.724547 233.486809 
L 84.82555 216.386198 
L 86.725192 218.863876 
L 45.880336 257.442159 
L 49.090123 261.124061 
L 49.523811 267.473329 
L 53.047199 271.035712 
L 103.300679 223.809266 
L 105.424585 225.702375 
L 93.999442 244.326257 
L 96.773045 246.501674 
L 85.697259 268.167198 
L 89.224579 270.591865 
L 112.23584 241.60239 
L 114.914782 243.205761 
L 124.074592 232.727986 
L 126.46865 233.963509 
L 117.570241 259.876468 
L 120.821123 261.303079 
L 131.285769 243.938155 
L 134.028735 244.9414 
L 138.716031 239.745151 
L 141.323485 240.516845 
L 138.993921 261.424349 
L 142.282879 262.176587 
L 136.961408 310.897619 
L 141.806919 311.689303 
L 151.351767 271.762251 
L 154.959661 272.12082 
L 156.376105 314.744714 
L 161.332978 314.924055 
L 165.526345 245.292484 
L 168.294964 245.21846 
L 174.606936 292.967116 
L 178.87006 292.584007 
L 185.739558 311.103854 
L 190.567436 310.361744 
L 192.034206 292.988049 
L 196.289372 292.056978 
L 197.395569 279.394056 
L 201.220659 278.301134 
L 210.642125 293.778615 
L 214.912947 292.26208 
L 195.787142 233.551149 
L 198.171625 232.531465 
L 207.157356 245.127333 
L 209.900199 243.744421 
L 234.25614 280.619503 
L 238.101536 278.366997 
L 251.92108 291.428311 
L 256.097595 288.615036 
L 253.011591 276.038171 
L 256.703667 273.198218 
L 222.523113 225.646265 
L 224.645831 223.789852 
L 250.016192 246.10935 
L 252.768721 243.378376 
L 238.910919 225.409621 
L 241.018094 223.038057 
L 253.639944 229.152468 
L 255.85752 226.31594 
L 295.225284 249.79376 
L 298.071306 245.639492 
L 253.786524 212.357484 
L 255.475956 209.524651 
L 245.069262 200.227191 
L 246.381601 197.674445 
L 274.56982 207.369177 
L 276.092133 203.885338 
L 299.943993 208.924703 
L 301.502669 204.642275 
L 270.053741 190.076112 
L 271.034555 186.742819 
L 292.136027 188.308531 
L 293.050346 184.281796 
L 272.553596 176.440843 
L 273.104451 173.03569 
L 318.894591 174.770662 
L 319.370019 169.909273 
L 286.106346 163.344004 
L 286.238707 159.519199 
L 275.842722 155.823052 
L 275.743682 152.324676 
L 293.897916 147.442566 
L 293.526449 143.380638 
L 273.201757 142.093292 
L 272.672329 138.684742 
L 275.958583 134.494215 
L 275.188861 131.002742 
L 317.592525 115.830126 
L 316.215378 111.038818 
L 303.314679 110.151498 
L 301.766043 105.811925 
L 283.789132 108.21934 
L 282.189398 104.494648 
L 250.234287 115.535372 
L 248.881176 112.862101 
L 277.395705 93.253012 
L 275.328558 89.736743 
L 279.855264 81.908457 
L 277.430203 78.320464 
L 281.308444 70.019069 
L 278.508837 66.391263 
L 242.040629 91.371594 
L 239.931807 88.967897 
L 255.037778 69.956586 
L 252.249195 67.154818 
L 232.626604 82.761904 
L 230.251729 80.658461 
L 258.435309 40.582098 
L 254.721448 37.688027 
L 216.743302 83.313234 
L 214.393615 81.708924 
L 236.762996 39.952932 
L 233.040068 37.740598 
L 214.580781 63.213195 
L 211.600174 61.686817 
L 199.9684 79.211076 
L 197.498026 78.136234 
L 199.546573 65.164512 
L 196.634753 64.109878 
L 204.586949 27.964551 
L 200.502989 26.769829 
L 192.052063 43.603126 
L 188.466011 42.794797 
L 184.161134 46.042201 
L 180.655673 45.480774 
L 179.63192 22.750355 
L 175.396353 22.342852 
L 171.384141 17.27035 
L 166.980348 17.124885 
L 162.99338 46.740163 
L 159.520331 46.843951 
L 153.587133 15.124687 
L 149.124675 15.53986 
L 148.586365 43.844994 
L 145.029408 44.403202 
L 146.814501 70.953744 
L 144.110779 71.55426 
L 132.175402 38.246092 
L 128.450518 39.323065 
L 123.727685 37.48529 
L 119.983057 38.828253 
L 119.032317 46.949129 
L 115.587574 48.435046 
L 96.02466 16.934952 
L 91.647582 19.15912 
L 86.154686 19.432072 
L 81.861002 21.965339 
L 82.038379 31.328852 
L 78.120791 33.985663 
L 76.689429 39.968025 
L 73.04612 42.788747 
L 70.012776 46.331919 
L 66.572863 49.359423 
L 79.375373 69.181239 
L 76.649264 71.903066 
L 73.418273 74.169955 
L 70.851965 77.076619 
L 98.356077 104.112546 
L 96.7189 106.220306 
L 52.5872 78.426695 
L 50.165033 81.986228 
L 43.07875 82.689051 
L 40.795302 86.545443 
L 64.101754 103.97198 
L 62.477094 107.156841 
L 61.682979 110.721011 
L 60.271718 113.978586 
L 74.690255 123.228039 
L 73.665812 126.070453 
L 19.166247 112.447409 
L 17.83029 117.04095 
L 16.639425 121.674225 
L 15.594829 126.342652 
L 28.894743 133.521956 
L 28.216606 137.799192 
L 19.714937 141.216138 
L 19.283261 145.778203 
L 25.393557 150.653625 
L 25.255808 155.032475 
L 25.255808 159.413492 
L 25.393557 163.792342 
L 32.852782 167.598746 
L 33.244137 171.734684 
L 60.716342 172.016685 
L 61.23283 175.274347 
L 30.491042 185.015281 
L 31.431179 189.216866 
L 46.403379 189.580095 
L 47.479176 193.279104 
L 22.918254 205.769009 
L 24.514677 210.198438 
L 49.917155 204.761151 
L 51.468541 208.342173 
L 63.914839 206.583969 
L 65.516616 209.723972 
L 54.005817 220.356292 
L 56.045526 223.801047 
L 52.840868 230.699815 
L 55.206376 234.176084 
L 85.19923 216.886493 
L 87.114418 219.352175 
L 46.513005 258.186585 
L 49.745886 261.848227 
L 50.219498 268.194641 
L 53.765222 271.734794 
L 103.720681 224.193216 
L 105.856451 226.07293 
L 94.548668 244.768301 
L 97.335898 246.92623 
L 86.396595 268.660986 
L 89.939095 271.063421 
L 112.767573 241.929791 
L 115.456547 243.516282 
L 124.550276 232.981104 
L 126.952058 234.201545 
L 118.216803 260.169958 
L 121.476593 261.576094 
L 131.831817 244.145697 
L 134.581037 245.13167 
L 139.23556 239.906043 
L 141.847816 240.661323 
L 139.649794 261.583065 
L 142.943418 262.314602 
L 137.92848 311.06814 
L 142.778875 311.829333 
L 152.072415 271.843039 
L 155.682493 272.178909 
L 157.366989 314.793051 
L 162.324892 314.941213 
L 166.080233 245.284645 
L 168.848332 245.19321 
L 175.460491 292.901222 
L 179.721121 292.491308 
L 186.706962 310.967584 
L 191.530078 310.195124 
L 192.887548 292.812547 
L 197.136773 291.854732 
L 198.163306 279.185104 
L 201.981447 278.068145 
L 211.500071 293.486065 
L 215.761271 291.942698 
L 196.266585 233.353219 
L 198.644608 232.318558 
L 207.709382 244.857662 
L 210.443473 243.457526 
L 235.030856 280.178694 
L 238.862009 277.902048 
L 252.763428 290.876185 
L 256.922166 288.036699 
L 253.757122 275.479491 
L 257.431263 272.616373 
L 222.95231 225.280337 
L 225.06331 223.41061 
L 250.573547 245.570101 
L 253.308845 242.82187 
L 239.338304 224.940629 
L 241.430521 222.555858 
L 254.090578 228.590764 
L 256.290269 225.740345 
L 295.804917 248.9701 
L 298.624755 244.798014 
L 254.131524 211.79519 
L 255.803106 208.951788 
L 245.338142 199.719964 
L 246.634399 197.159015 
L 274.883035 206.676267 
L 276.383407 203.182922 
L 300.26649 208.072172 
L 301.798201 203.780026 
L 270.258282 189.411947 
L 271.218112 186.072551 
L 292.329014 187.505516 
L 293.217989 183.47311 
L 272.672329 175.761225 
L 273.201757 172.352675 
L 319.001903 173.799619 
L 319.446747 168.935336 
L 286.14244 162.579406 
L 286.250742 158.753844 
L 275.831716 155.123155 
L 275.710675 151.625471 
L 293.833845 146.629278 
L 293.436838 142.569767 
L 273.104451 141.410277 
L 272.553596 138.005124 
L 275.813429 133.794012 
L 275.021762 130.307448 
L 317.32916 114.868437 
L 315.921906 110.085886 
L 303.015881 109.279722 
L 301.439982 104.949975 
L 283.478568 107.470407 
L 281.85544 103.75585 
L 249.970401 114.997335 
L 248.600503 112.332626 
L 276.991138 92.544585 
L 274.901917 89.041387 
L 279.379298 81.184786 
L 276.931719 77.612115 
L 280.757672 69.286493 
L 277.935303 65.676367 
L 241.624928 90.885568 
L 239.50103 88.495182 
L 254.487132 69.389239 
L 251.680983 66.605065 
L 232.15694 82.335257 
L 229.768882 80.246792 
L 257.699847 39.993963 
L 253.967858 37.123308 
L 216.277419 82.986474 
L 213.917689 81.396974 
L 236.024006 39.501117 
L 232.287237 37.312241 
L 213.988524 62.900433 
L 210.998376 61.392832 
L 199.477049 78.989901 
L 196.999964 77.930618 
L 198.966885 64.946268 
L 196.04849 63.909968 
L 203.773195 27.715342 
L 199.681801 26.546329 
L 191.336915 43.432445 
L 187.74585 42.646685 
L 183.461482 45.921101 
L 179.95256 45.381732 
L 178.785865 22.658202 
L 174.547819 22.277346 
L 170.503783 17.230179 
L 166.099163 17.112415 
L 162.298537 46.752182 
L 158.826209 46.877812 
L 152.693632 15.196491 
L 148.233873 15.639722 
L 147.873597 43.947683 
L 144.320222 44.528251 
L 146.272267 71.06704 
L 143.572376 71.684549 
L 131.427745 38.452107 
L 127.709708 39.552486 
L 122.975411 37.744451 
L 119.239303 39.110939 
L 118.339657 47.237634 
L 114.904328 48.745187 
L 95.143684 17.368756 
L 90.78068 19.620409 
L 85.28961 19.927903 
L 81.011944 22.488125 
L 81.248209 31.850338 
L 77.347408 34.531735 
L 75.9537 40.522981 
L 72.328204 43.366561 
L 69.317204 46.928742 
L 65.896401 49.977821 
L 78.823325 69.718725 
L 76.114388 72.457643 
L 72.897719 74.744809 
L 70.349743 77.667556 
L 98.023352 104.529962 
L 96.399464 106.647978 
L 52.093831 79.132479 
L 49.694099 82.707177 
L 42.612377 83.454554 
L 40.353228 87.325232 
L 63.768823 104.60484 
L 62.164225 107.799856 
L 61.392542 111.36895 
L 60.001798 114.635337 
L 74.478224 123.793922 
L 73.471678 126.642723 
L 18.88751 113.362719 
L 17.58047 117.964572 
L 16.418769 122.605245 
L 15.403555 127.280151 
L 28.748361 134.375664 
L 28.097138 138.65708 
L 19.617128 142.127429 
L 19.214153 146.692119 
L 25.354992 151.529014 
L 25.244786 155.908644 
L 25.27234 160.289574 
L 25.437627 164.667471 
L 32.920645 168.426885 
L 33.338005 172.56028 
L 60.81144 172.669491 
L 61.348407 175.92384 
L 30.668491 185.85793 
L 31.635035 190.053519 
L 46.609224 190.322574 
L 47.708264 194.014744 
L 23.226382 206.658876 
L 24.850633 211.078177 
L 50.218411 205.48123 
L 51.792288 209.052424 
L 64.227282 207.215975 
L 65.848777 210.345842 
L 54.405076 221.050347 
L 56.46641 224.482206 
L 53.305205 231.400992 
L 55.69253 234.862315 
L 85.576049 217.384428 
L 87.506707 219.838016 
L 47.150344 258.927018 
L 50.40619 262.568254 
L 50.919708 268.911564 
L 54.487628 272.429347 
L 104.143089 224.574517 
L 106.290639 226.440761 
L 95.100663 245.206882 
L 97.901411 247.347239 
L 87.099023 269.150366 
L 90.656562 271.530474 
L 113.301355 242.253842 
L 116.000254 243.823389 
L 125.027543 233.231225 
L 127.436953 234.436536 
L 118.865197 260.459375 
L 122.133767 261.844981 
L 132.379159 244.3498 
L 135.134526 245.318463 
L 139.75609 240.063665 
L 142.373045 240.8025 
L 140.306652 261.737653 
L 143.604812 262.448461 
L 138.896605 311.232575 
L 143.751692 311.963246 
L 152.793557 271.919292 
L 156.405676 272.232451 
L 158.358158 314.835156 
L 163.316895 314.952132 
L 166.634061 245.273323 
L 169.40153 245.16448 
L 176.313615 292.829962 
L 180.571582 292.393259 
L 187.67349 310.825232 
L 192.491652 310.022453 
L 193.739769 292.631682 
L 197.982886 291.647161 
L 198.929714 278.971327 
L 202.740754 277.830376 
L 212.35616 293.188124 
L 216.607568 291.617988 
L 196.744774 233.152278 
L 199.116242 232.102681 
L 208.259701 244.584525 
L 210.984932 243.167221 
L 235.802784 279.733021 
L 239.619542 277.432324 
L 253.602286 290.318773 
L 257.743083 287.453187 
L 254.499124 274.916134 
L 258.155185 272.029964 
L 223.379198 224.911717 
L 225.478396 223.02875 
L 251.127499 245.027358 
L 253.845458 242.261978 
L 239.762731 224.468957 
L 241.839907 222.071074 
L 254.53767 228.026237 
L 256.71939 225.162039 
L 296.379358 248.14281 
L 299.1729 243.953072 
L 254.472981 211.230737 
L 256.126646 208.376878 
L 245.603826 199.211055 
L 246.883951 196.642004 
L 275.191887 205.9814 
L 276.670257 202.478688 
L 300.583618 207.21763 
L 302.088304 202.915936 
L 270.458642 188.746509 
L 271.39745 185.401142 
L 292.516947 186.701303 
L 293.380543 182.663386 
L 272.786786 175.080874 
L 273.294765 171.669062 
L 319.103106 172.82792 
L 319.517347 167.960935 
L 286.173724 161.814597 
L 286.257964 157.988429 
L 275.816308 154.423341 
L 275.673271 150.926488 
L 293.76466 145.816409 
L 293.342128 141.759476 
L 273.002851 140.727887 
L 272.43059 137.326267 
L 275.663873 133.094735 
L 274.850294 129.61322 
L 317.059753 113.908425 
L 315.622446 109.134819 
L 302.711607 108.409842 
L 301.108507 104.090092 
L 283.163301 106.723441 
L 281.516842 103.019166 
L 249.703136 114.460968 
L 248.316506 111.804928 
L 276.582124 91.838717 
L 274.470911 88.348729 
L 278.898789 80.464122 
L 276.428789 76.906916 
L 280.202303 68.557396 
L 277.357284 64.965092 
L 241.206179 90.402167 
L 239.067289 88.025185 
L 253.932929 68.825366 
L 251.109324 66.058896 
L 231.684601 81.911572 
L 229.283456 79.838168 
L 256.960701 39.410466 
L 253.21073 36.563339 
L 215.809491 82.662649 
L 213.43981 81.088022 
L 235.282188 39.053958 
L 231.531727 36.888628 
L 213.394311 62.591402 
L 210.39474 61.102637 
L 198.984317 78.771821 
L 196.500618 77.728138 
L 198.385836 64.731674 
L 195.460981 63.71375 
L 202.957889 27.471255 
L 198.859224 26.327999 
L 190.620707 43.266264 
L 187.024771 42.503107 
L 182.761082 45.804404 
L 179.248837 45.287115 
L 177.939248 22.571371 
L 173.698889 22.217178 
L 169.62319 17.195546 
L 165.217916 17.105486 
L 161.603783 46.768571 
L 158.132314 46.916037 
L 151.8006 15.273914 
L 147.343718 15.745186 
L 147.16149 44.054852 
L 143.611836 44.657757 
L 145.730757 71.183745 
L 143.034803 71.818222 
L 130.681399 38.66282 
L 126.970356 39.786562 
L 122.224781 38.008338 
L 118.497342 39.398298 
L 117.648826 47.53049 
L 114.223046 49.05962 
L 94.265453 17.808092 
L 89.916697 20.087142 
L 84.42767 20.429165 
L 80.166191 23.01624 
L 80.461334 32.376782 
L 76.577475 35.08266 
L 75.221475 41.082554 
L 71.613935 43.94888 
L 68.6254 47.529927 
L 65.223841 50.600461 
L 78.274668 70.259671 
L 75.583012 73.015573 
L 72.380791 75.322925 
L 69.851248 78.261639 
L 97.693259 104.949463 
L 96.082724 107.07765 
L 51.60491 79.841353 
L 49.227709 83.431073 
L 42.150827 84.222975 
L 39.916068 88.107786 
L 63.439878 105.239781 
L 61.855407 108.444826 
L 61.106187 112.018702 
L 59.736014 115.293772 
L 74.269755 124.361128 
L 73.281147 127.216203 
L 18.614535 114.279765 
L 17.336464 118.889747 
L 16.203973 123.537635 
L 15.218182 128.218833 
L 28.60735 135.230275 
L 27.983068 139.515702 
L 19.525052 143.039317 
L 19.150795 147.606451 
L 25.321933 152.404628 
L 25.239275 156.784864 
L 25.294382 161.165534 
L 25.4872 165.542306 
L 32.993715 169.254581 
L 33.437063 173.385269 
L 60.910642 173.321686 
L 61.468066 176.572594 
L 30.851237 186.699447 
L 31.84415 190.888874 
L 46.819734 191.063744 
L 47.941975 194.748928 
L 23.540101 207.546788 
L 25.192114 211.955785 
L 50.524189 206.1994 
L 52.120496 209.760625 
L 64.543694 207.846003 
L 66.184842 210.96561 
L 54.808692 221.741878 
L 56.89157 225.160704 
L 53.773943 232.099236 
L 56.182991 235.545475 
L 85.955992 217.879983 
L 87.902044 220.32138 
L 47.792327 259.663427 
L 51.07101 263.284114 
L 51.624414 269.624069 
L 55.214387 273.119342 
L 104.567887 224.953154 
L 106.727132 226.805854 
L 95.655405 245.641983 
L 98.469559 247.764682 
L 87.804515 269.635319 
L 91.376953 271.993004 
L 113.837165 242.574529 
L 116.545882 244.12707 
L 125.506374 233.478339 
L 127.923317 234.668472 
L 119.5154 260.744709 
L 122.792619 262.10973 
L 132.927773 244.550457 
L 135.689179 245.501771 
L 140.277601 240.21801 
L 142.899151 240.940371 
L 140.96447 261.888106 
L 144.267035 262.578157 
L 139.865746 311.390918 
L 144.725332 312.091039 
L 153.515165 271.991009 
L 157.129182 272.281443 
L 159.349572 314.871025 
L 164.308946 314.956812 
L 167.187807 245.258517 
L 169.954536 245.132271 
L 177.166273 292.753337 
L 181.42141 292.289862 
L 188.639104 310.676804 
L 193.452122 309.843737 
L 194.590836 292.445461 
L 198.827677 291.434272 
L 199.694763 278.752734 
L 203.498551 277.587836 
L 213.210358 292.884805 
L 217.451807 291.287961 
L 197.221689 232.948333 
L 199.58651 231.883841 
L 208.808292 244.307931 
L 211.524554 242.873515 
L 236.571893 279.282502 
L 240.374106 276.957845 
L 254.437622 289.756096 
L 258.560314 286.864523 
L 255.237569 274.348121 
L 258.875405 271.439014 
L 223.803758 224.54042 
L 225.891072 222.644287 
L 251.678026 244.481142 
L 254.378539 241.698722 
L 240.184182 223.994625 
L 242.246237 221.583726 
L 254.981203 227.458909 
L 257.144866 224.581046 
L 296.948585 247.311923 
L 299.715721 243.104698 
L 254.81088 210.664148 
L 256.446564 207.799945 
L 245.866304 198.700486 
L 247.130246 196.123435 
L 275.496361 205.284605 
L 276.952672 201.772664 
L 300.895366 206.361111 
L 302.372967 202.050038 
L 270.654812 188.079824 
L 271.572561 184.728619 
L 292.699818 185.895925 
L 293.538001 181.852656 
L 272.896961 174.399816 
L 273.383472 170.984877 
L 319.198195 171.855604 
L 319.581818 166.98611 
L 286.200197 161.049605 
L 275.851527 157.222983 
z
" clip-path="url(#p4f4be51876)" style="fill: #0000ff; opacity: 0.5; stroke: #000000; stroke-width: 1.5; stroke-linejoin: miter"/>
   </g>
  </g>
 </g>
 <defs>
  <clipPath id="p4f4be51876">
   <rect x="0" y="-0" width="334.8" height="329.954755"/>
  </clipPath>
 </defs>
</svg>
