<?xml version="1.0" encoding="utf-8" standalone="no"?>
<!DOCTYPE svg PUBLIC "-//W3C//DTD SVG 1.1//EN"
  "http://www.w3.org/Graphics/SVG/1.1/DTD/svg11.dtd">
<svg xmlns:xlink="http://www.w3.org/1999/xlink" width="334.8pt" height="310.890079pt" viewBox="0 0 334.8 310.890079" xmlns="http://www.w3.org/2000/svg" version="1.1">
 <metadata>
  <rdf:RDF xmlns:dc="http://purl.org/dc/elements/1.1/" xmlns:cc="http://creativecommons.org/ns#" xmlns:rdf="http://www.w3.org/1999/02/22-rdf-syntax-ns#">
   <cc:Work>
    <dc:type rdf:resource="http://purl.org/dc/dcmitype/StillImage"/>
    <dc:date>2023-12-09T18:06:28.695538</dc:date>
    <dc:format>image/svg+xml</dc:format>
    <dc:creator>
     <cc:Agent>
      <dc:title>Matplotlib v3.8.2, https://matplotlib.org/</dc:title>
     </cc:Agent>
    </dc:creator>
   </cc:Work>
  </rdf:RDF>
 </metadata>
 <defs>
  <style type="text/css">*{stroke-linejoin: round; stroke-linecap: butt}</style>
 </defs>
 <g id="figure_1">
  <g id="patch_1">
   <path d="M 0 310.890079 
L 334.8 310.890079 
L 334.8 0 
L 0 0 
L 0 310.890079 
z
" style="fill: none"/>
  </g>
  <g id="axes_1">
   <g id="patch_2">
    <path d="M 319.581818 146.197171 
L 319.506768 141.42453 
L 264.620044 140.099079 
L 264.380432 137.057572 
L 270.255272 133.239808 
L 269.797203 130.024508 
L 277.692216 125.210869 
L 276.978023 121.765705 
L 258.726519 122.824469 
L 257.946669 119.976808 
L 314.370052 98.51973 
L 312.798496 93.934531 
L 284.898078 99.780006 
L 283.380719 96.120848 
L 265.469313 100.180631 
L 263.974157 97.132158 
L 239.763812 106.582521 
L 238.482655 104.33912 
L 270.811391 80.736509 
L 268.702228 77.529682 
L 262.697031 77.152543 
L 260.479192 74.202622 
L 276.847996 55.850083 
L 273.953365 52.465757 
L 237.326063 80.800417 
L 235.235465 78.646411 
L 265.721844 41.740219 
L 262.389069 38.7127 
L 224.088247 78.023157 
L 221.916872 76.286751 
L 258.27335 21.411277 
L 254.305071 18.628006 
L 241.042466 30.51392 
L 237.368913 28.267925 
L 238.141008 17.905954 
L 234.072468 15.757421 
L 209.000975 58.363199 
L 206.218907 57.110889 
L 218.618389 17.371864 
L 214.542709 15.837429 
L 192.357255 70.264643 
L 189.957623 69.529764 
L 191.407687 53.708645 
L 188.487968 53.011808 
L 189.477599 31.650303 
L 185.865272 31.025059 
L 180.490131 44.488888 
L 177.285921 44.139881 
L 174.983376 29.053611 
L 171.29657 28.885381 
L 167.649356 56.218092 
L 164.820287 56.267029 
L 159.675482 20.487982 
L 155.726922 20.805301 
L 157.057552 62.379406 
L 154.427445 62.758326 
L 143.376513 19.426118 
L 139.402624 20.256437 
L 138.788192 34.088626 
L 135.277594 35.055963 
L 141.283443 65.136545 
L 138.747825 66.010074 
L 138.556517 72.778256 
L 136.262519 73.733748 
L 129.315779 64.858837 
L 126.777347 66.108793 
L 105.361486 33.194803 
L 101.83931 35.21359 
L 107.636816 51.85613 
L 104.700269 53.794149 
L 84.297021 31.808172 
L 80.741662 34.489957 
L 97.27646 61.351811 
L 94.643601 63.610887 
L 106.580304 81.317797 
L 104.570619 83.274468 
L 67.181537 52.170237 
L 64.274868 55.380103 
L 54.825544 53.209937 
L 51.957675 56.807789 
L 86.619337 87.534061 
L 84.814973 90.115276 
L 82.430957 92.334406 
L 80.779598 95.044939 
L 79.90092 98.181179 
L 78.434648 100.968371 
L 89.816218 109.76235 
L 88.70918 112.232057 
L 23.591948 89.565894 
L 21.882633 94.127823 
L 24.041671 99.939624 
L 22.658306 104.482283 
L 55.546731 117.723675 
L 54.706959 121.266954 
L 82.431967 130.175456 
L 81.970413 132.867248 
L 31.894486 129.446123 
L 31.434987 133.727284 
L 15.489695 137.086331 
L 15.278532 141.879518 
L 84.853906 146.457987 
L 84.903113 149.065576 
L 28.822286 155.387947 
L 29.179974 159.752879 
L 87.869718 156.559222 
L 88.235039 159.066994 
L 79.462119 163.352121 
L 80.045181 166.120888 
L 39.82723 179.516302 
L 40.938126 183.523285 
L 48.120797 185.538508 
L 49.416943 189.281745 
L 65.359423 187.17055 
L 66.69836 190.37096 
L 34.919407 209.304527 
L 36.969335 213.451094 
L 47.359833 212.977923 
L 49.51911 216.731519 
L 70.24917 208.607927 
L 72.259729 211.643993 
L 98.352531 197.048514 
L 99.985741 199.206664 
L 64.426911 232.37734 
L 67.187711 235.584719 
L 107.553967 203.207012 
L 109.376264 205.072804 
L 89.389203 230.352182 
L 92.073985 232.775693 
L 83.914875 248.420809 
L 87.170481 251.007511 
L 79.987728 268.09263 
L 83.863801 270.793084 
L 91.571364 267.409088 
L 95.420217 269.745665 
L 95.600186 278.83236 
L 99.80622 281.036613 
L 104.079481 283.10753 
L 108.415744 285.043063 
L 132.466823 236.5592 
L 135.325469 237.625186 
L 133.923128 252.014189 
L 137.266992 253.026745 
L 136.817124 269.107816 
L 140.697019 270.020927 
L 140.023531 295.426789 
L 144.729366 296.22607 
L 151.347988 281.342992 
L 155.605398 281.793172 
L 162.968459 228.994194 
L 165.574163 229.104883 
L 168.274329 248.694064 
L 171.496817 248.628185 
L 173.28839 227.383735 
L 175.838356 227.170739 
L 180.518633 243.168927 
L 183.561344 242.720791 
L 186.588461 242.177208 
L 189.59699 241.538714 
L 204.286307 285.461282 
L 208.647032 284.244928 
L 215.422601 290.321135 
L 219.930623 288.752229 
L 222.344955 281.960314 
L 226.586672 280.177888 
L 230.770249 278.262974 
L 234.891549 276.217467 
L 216.876826 234.39055 
L 219.625549 232.803574 
L 251.491391 276.560656 
L 255.54892 273.864472 
L 259.056393 270.411513 
L 262.91684 267.480509 
L 226.021885 215.816251 
L 228.182071 213.950917 
L 235.669753 217.692845 
L 237.884173 215.523234 
L 252.642341 224.998829 
L 255.078085 222.29195 
L 287.710176 244.277612 
L 290.734748 240.458592 
L 240.248149 198.216401 
L 241.847922 195.912465 
L 260.612836 204.361272 
L 262.395748 201.413987 
L 248.265337 189.833933 
L 249.597584 187.282063 
L 299.122018 207.061215 
L 300.970783 202.901782 
L 291.750257 194.430403 
L 293.205526 190.509 
L 267.696462 177.999791 
L 268.64701 174.842815 
L 249.004626 166.527444 
L 249.6037 163.963852 
L 298.597156 170.3237 
L 299.291072 166.198934 
L 252.467242 156.364446 
L 252.745057 153.697008 
L 284.185847 152.792788 
L 284.335678 149.129813 
L 319.578816 145.242492 
L 319.473751 140.470417 
L 264.579775 139.490199 
L 264.321038 136.450259 
L 270.171751 132.595621 
L 269.693468 129.383265 
L 277.558051 124.520067 
L 276.822203 121.079463 
L 258.57772 122.252997 
L 257.779975 119.410297 
L 314.067288 97.598773 
L 312.466925 93.023549 
L 284.603824 99.044386 
L 283.063481 95.394844 
L 265.177963 99.567199 
L 263.663664 96.52819 
L 239.513235 106.130635 
L 238.217994 103.895336 
L 270.397643 80.089862 
L 268.268353 76.896365 
L 262.260902 76.557003 
L 260.024554 73.621089 
L 276.277607 55.165962 
L 273.361748 51.799908 
L 236.913379 80.364373 
L 234.809275 78.223558 
L 265.062932 41.126354 
L 261.711181 38.119857 
L 223.658358 77.670427 
L 221.476105 75.947711 
L 257.486728 20.844661 
L 253.501022 18.086403 
L 240.313435 30.055496 
L 236.625829 27.832651 
L 237.332737 17.466029 
L 233.250764 15.343127 
L 208.447734 58.105748 
L 205.657845 56.870961 
L 217.807146 17.054736 
L 213.721895 15.545965 
L 191.879196 70.111636 
L 189.47499 69.391864 
L 190.82552 53.561937 
L 187.901476 52.883478 
L 188.756735 31.516171 
L 185.140547 30.913659 
L 179.850192 44.411028 
L 176.64385 44.082181 
L 174.246468 29.010691 
L 170.558676 28.865652 
L 167.083442 56.220761 
L 164.254736 56.28749 
L 158.885003 20.541509 
L 154.938517 20.883656 
L 156.530598 62.44857 
L 153.902926 62.844024 
L 142.579677 19.582178 
L 138.61109 20.437474 
L 138.083667 34.273254 
L 134.579221 35.262651 
L 140.774142 65.304864 
L 138.244068 66.194324 
L 138.095331 72.963576 
L 135.807389 73.933476 
L 128.804968 65.102432 
L 126.274447 66.368329 
L 104.652 33.589683 
L 101.142591 35.630583 
L 107.044654 52.236331 
L 104.120354 54.192781 
L 83.579231 32.335563 
L 80.040809 35.039657 
L 96.744226 61.796984 
L 94.125627 64.072575 
L 106.173461 81.70406 
L 104.176121 83.673332 
L 66.59215 52.804872 
L 63.705727 56.032956 
L 54.242942 53.922264 
L 51.397758 57.538082 
L 86.251984 88.045744 
L 84.463891 90.638256 
L 82.093879 92.872337 
L 80.4596 95.593202 
L 79.600665 98.734907 
L 78.151951 101.531265 
L 89.588606 110.253486 
L 88.497123 112.730107 
L 23.238621 90.473944 
L 21.558032 95.046533 
L 23.75358 100.844639 
L 22.398813 105.39591 
L 55.369869 118.43019 
L 54.552399 121.97868 
L 82.332887 130.712632 
L 81.888272 133.407273 
L 31.791819 130.301165 
L 31.359256 134.585132 
L 15.435405 138.044399 
L 15.254393 142.838819 
L 84.857187 146.979608 
L 84.922793 149.586836 
L 28.88284 156.261799 
L 29.267974 160.624394 
L 87.93647 157.061676 
L 88.317556 159.567101 
L 79.571761 163.90732 
L 80.172225 166.672364 
L 40.03932 180.320462 
L 41.175395 184.320378 
L 48.370599 186.290386 
L 49.690262 190.025397 
L 65.619148 187.813975 
L 66.978188 191.0059 
L 35.318944 210.138965 
L 37.394912 214.272557 
L 47.782228 213.734045 
L 49.965071 217.473986 
L 70.643628 209.220174 
L 72.673242 212.243535 
L 98.673731 197.484236 
L 100.320482 199.632071 
L 64.97098 233.025736 
L 67.751898 236.215688 
L 107.913718 203.58474 
L 109.747714 205.439034 
L 89.920041 230.84362 
L 92.620012 233.250197 
L 84.559463 248.946319 
L 87.831273 251.512494 
L 80.756118 268.642451 
L 84.649098 271.318473 
L 92.335226 267.886068 
L 96.198698 270.198392 
L 96.435814 279.283775 
L 100.655629 281.461531 
L 104.94183 283.505531 
L 109.29018 285.413752 
L 133.035848 236.77958 
L 135.901141 237.827567 
L 134.589327 252.225105 
L 137.939493 253.21661 
L 137.590775 269.300192 
L 141.476336 270.188882 
L 140.96265 295.598478 
L 145.673419 296.368146 
L 152.198304 281.443736 
L 156.458461 281.867129 
L 163.489301 229.022887 
L 166.09565 229.117185 
L 168.918967 248.688996 
L 172.140977 248.602851 
L 173.798899 227.347553 
L 176.347474 227.118523 
L 181.128279 243.086958 
L 184.168111 242.619695 
L 187.191749 242.057083 
L 190.196203 241.39968 
L 205.161478 285.228991 
L 209.514466 283.985235 
L 216.328117 290.018708 
L 220.826183 288.42148 
L 223.197749 281.614515 
L 227.428172 279.805446 
L 231.599623 277.864258 
L 235.707975 275.79287 
L 217.430541 234.080083 
L 220.169229 232.47585 
L 252.309648 276.031648 
L 256.35014 273.309998 
L 259.835826 269.835048 
L 263.677762 266.879822 
L 226.458598 215.448633 
L 228.607009 213.56975 
L 236.118078 217.264511 
L 238.318808 215.081015 
L 253.136281 224.463602 
L 255.554952 221.741457 
L 288.324674 243.521448 
L 291.325168 239.68348 
L 240.573887 197.759657 
L 242.159139 195.445704 
L 260.976819 203.776323 
L 262.74116 200.817883 
L 248.538196 189.326931 
L 249.854366 186.766733 
L 299.502221 206.234013 
L 301.324789 202.063034 
L 292.051165 193.649815 
L 293.481742 189.719336 
L 267.894506 177.370812 
L 268.82518 174.20792 
L 249.130886 166.016253 
L 249.713824 163.448944 
L 298.746311 169.500526 
L 299.414271 165.371477 
L 252.529513 155.831679 
L 252.790546 153.162545 
L 284.225027 152.060599 
L 284.351818 148.396754 
L 319.569809 144.28785 
L 319.434732 139.516531 
L 264.535678 138.881584 
L 264.257827 135.843331 
L 270.08418 131.951972 
L 269.585703 128.742688 
L 277.419543 123.830122 
L 276.66207 120.394214 
L 258.425329 121.682473 
L 257.609721 118.844846 
L 313.758739 96.679738 
L 312.129632 92.11467 
L 284.304949 98.310631 
L 282.741684 94.670849 
L 264.882761 98.955611 
L 263.349378 95.926186 
L 239.259821 105.680335 
L 237.950546 103.453226 
L 269.979836 79.445831 
L 267.830503 76.265789 
L 261.821036 75.964217 
L 259.566267 73.042426 
L 275.702927 54.485442 
L 272.765954 51.137794 
L 236.497961 79.930933 
L 234.380434 77.803395 
L 264.400172 40.516646 
L 261.029579 37.531289 
L 223.226259 77.320407 
L 221.033213 75.611451 
L 256.696558 20.283004 
L 252.693583 17.549869 
L 239.581535 29.601668 
L 235.880022 27.402059 
L 236.521716 17.031196 
L 232.426472 14.934009 
L 207.892885 57.851781 
L 205.095285 56.634565 
L 216.993924 16.742716 
L 212.899265 15.259669 
L 191.400185 69.961638 
L 188.9915 69.257002 
L 190.242441 53.418894 
L 187.314188 52.758839 
L 188.035042 31.386576 
L 184.415136 30.806819 
L 179.209777 44.337195 
L 176.00143 44.02852 
L 173.509303 28.972406 
L 169.820673 28.850564 
L 166.517555 56.22699 
L 163.689325 56.311509 
L 158.094876 20.600007 
L 154.15062 20.966968 
L 156.004089 62.521047 
L 153.378957 62.93302 
L 141.783839 19.743246 
L 137.82071 20.623485 
L 137.380316 34.462309 
L 133.882163 35.473727 
L 140.265909 65.476384 
L 137.74148 66.381739 
L 137.635321 73.151792 
L 135.353524 74.136063 
L 128.295699 65.349235 
L 125.77319 66.631022 
L 103.945011 33.989018 
L 100.448508 36.05195 
L 106.454896 52.620248 
L 103.542958 54.595052 
L 82.864771 32.867458 
L 79.343427 35.593753 
L 96.214802 62.245497 
L 93.610566 64.537512 
L 105.769054 82.092874 
L 103.78414 84.074669 
L 66.006767 53.443202 
L 63.140704 56.689376 
L 53.664831 54.638241 
L 50.842444 58.271882 
L 85.887858 88.559728 
L 84.116105 91.163434 
L 81.760191 93.412377 
L 80.143057 96.143467 
L 79.303899 99.290512 
L 77.872801 102.095927 
L 89.364087 110.746045 
L 88.288203 113.229482 
L 22.891013 91.384197 
L 21.239216 95.967266 
L 23.471187 101.751449 
L 22.145072 106.31115 
L 55.197454 119.137803 
L 54.402318 122.691365 
L 82.237189 131.25042 
L 81.80953 133.947805 
L 31.694532 131.156837 
L 31.288921 135.443439 
L 15.387142 139.00279 
L 15.236288 143.798253 
L 84.863749 147.501198 
L 84.945751 150.107962 
L 28.948888 157.135252 
L 29.361453 161.495339 
L 88.006381 157.5637 
L 88.403217 160.066678 
L 79.684893 164.461817 
L 80.302735 167.223031 
L 40.256463 181.123272 
L 41.417672 185.115963 
L 48.625125 187.040679 
L 49.968253 190.767316 
L 65.882915 188.455754 
L 67.262003 191.639069 
L 35.723722 210.970873 
L 37.825647 215.091327 
L 48.20937 214.487495 
L 50.415692 218.213634 
L 71.041928 209.829929 
L 73.090517 212.840465 
L 98.997665 197.917929 
L 100.657892 200.055365 
L 65.519116 233.670698 
L 68.320042 236.843095 
L 108.275838 203.960198 
L 110.12146 205.802921 
L 90.453959 231.331709 
L 93.169013 233.721257 
L 85.207343 249.467765 
L 88.495229 252.013311 
L 81.527951 269.187429 
L 85.437685 271.838913 
L 93.102072 268.358234 
L 96.980012 270.646213 
L 97.274265 279.729925 
L 101.507693 281.881098 
L 105.806665 283.898099 
L 110.16693 285.778934 
L 133.606247 236.996378 
L 136.478075 238.026323 
L 135.256839 252.431826 
L 138.613175 253.402241 
L 138.365621 269.487698 
L 142.256694 270.351933 
L 141.90283 295.764257 
L 146.618346 296.504282 
L 153.049236 281.539129 
L 157.311973 281.93572 
L 164.010313 229.048303 
L 166.617203 229.126207 
L 169.56356 248.679874 
L 172.784964 248.573465 
L 174.30917 227.30816 
L 176.856255 227.063106 
L 181.737397 243.001157 
L 184.774231 242.514784 
L 187.79427 241.933167 
L 190.794529 241.25688 
L 206.03517 284.991201 
L 210.380249 283.720092 
L 217.231713 289.710591 
L 221.719644 288.085105 
L 224.048351 281.263358 
L 228.267313 279.427718 
L 232.426472 277.460332 
L 236.521716 275.363146 
L 217.982293 233.766139 
L 220.710837 232.144713 
L 253.124561 275.497505 
L 257.147856 272.750496 
L 260.611617 269.253692 
L 264.434891 266.27436 
L 226.89299 215.078277 
L 229.029541 213.185919 
L 236.5637 216.833366 
L 238.750653 214.636072 
L 253.626844 223.92528 
L 256.028347 221.187977 
L 288.934405 242.761433 
L 291.9107 238.90467 
L 240.896746 197.300873 
L 242.467413 194.976996 
L 261.337116 203.189098 
L 263.082815 200.219619 
L 248.807861 188.818223 
L 250.107903 186.249797 
L 299.877214 205.404435 
L 301.673513 201.222077 
L 292.347157 192.867349 
L 293.752986 188.927951 
L 268.088591 176.7406 
L 268.999353 173.571917 
L 249.253928 165.504278 
L 249.820708 162.933354 
L 298.890286 168.676429 
L 299.532263 164.543261 
L 252.588433 155.29853 
L 252.832673 152.627808 
L 284.259602 151.328178 
L 284.363347 147.663608 
L 319.554799 143.333284 
L 319.389716 138.562909 
L 264.487754 138.273259 
L 264.190799 135.236813 
L 269.992562 131.308886 
L 269.473911 128.102801 
L 277.276699 123.141062 
L 276.497631 119.709986 
L 258.269353 121.112918 
L 257.435914 118.280477 
L 313.444415 95.762662 
L 311.786629 91.207931 
L 284.001466 97.578771 
L 282.415339 93.948892 
L 264.583718 98.345893 
L 263.031312 95.326171 
L 239.003579 105.231636 
L 237.680323 103.012806 
L 269.557987 78.804441 
L 267.388695 75.637979 
L 261.377451 75.374209 
L 259.10435 72.466658 
L 275.123977 53.80855 
L 272.166008 50.47944 
L 236.079825 79.500115 
L 233.948959 77.385937 
L 263.733591 39.911119 
L 260.344288 36.947019 
L 222.791966 76.973112 
L 220.588216 75.277982 
L 255.90287 19.726328 
L 251.882785 17.018423 
L 238.846796 29.152451 
L 235.131521 26.976166 
L 235.707975 16.601472 
L 231.599623 14.530084 
L 207.336449 57.601309 
L 204.531249 56.401713 
L 216.178755 16.435817 
L 212.07485 14.978552 
L 190.92024 69.814657 
L 188.50717 69.125183 
L 189.658474 53.279522 
L 186.726128 52.637896 
L 187.312548 31.261522 
L 183.689068 30.704544 
L 178.568909 44.267391 
L 175.358685 43.978901 
L 172.771913 28.938759 
L 169.082589 28.840119 
L 165.951719 56.236778 
L 163.124076 56.339083 
L 157.305133 20.663474 
L 153.363263 21.055235 
L 155.478047 62.596834 
L 152.855557 63.025309 
L 140.98903 19.909316 
L 137.031515 20.814464 
L 136.678169 34.655784 
L 133.186446 35.689183 
L 139.758766 65.651097 
L 137.240081 66.572311 
L 137.176503 73.342898 
L 134.900942 74.341501 
L 127.787992 65.599236 
L 125.273595 66.896863 
L 103.240548 34.392791 
L 99.757089 36.477673 
L 105.867563 53.007868 
L 102.968104 55.000946 
L 82.153671 33.403836 
L 78.649543 36.152225 
L 95.688209 62.69733 
L 93.098441 65.005679 
L 105.367101 82.484224 
L 103.394691 84.478464 
L 65.425411 54.0852 
L 62.579821 57.349336 
L 53.091234 55.35784 
L 50.291757 59.00916 
L 85.526971 89.075991 
L 83.771629 91.690789 
L 81.429906 93.954505 
L 79.829981 96.695712 
L 79.010633 99.847972 
L 77.597208 102.662332 
L 89.142671 111.240006 
L 88.082427 113.73016 
L 22.549136 92.296619 
L 20.926196 96.889987 
L 23.194504 102.660017 
L 21.897093 107.227968 
L 55.029493 119.846487 
L 54.256722 123.404979 
L 82.144874 131.7888 
L 81.734189 134.488821 
L 31.602629 132.013103 
L 31.223986 136.302171 
L 15.344908 139.961465 
L 15.224217 144.757782 
L 84.87359 148.022736 
L 84.971987 150.628934 
L 29.020428 158.008273 
L 29.460407 162.365679 
L 88.079448 158.065274 
L 88.492019 160.565707 
L 79.80151 165.015593 
L 80.436707 167.772865 
L 40.478651 181.9247 
L 41.664949 185.910009 
L 48.884364 187.789356 
L 50.250904 191.507472 
L 66.150713 189.095861 
L 67.549796 192.270439 
L 36.133724 211.800219 
L 38.261522 215.907371 
L 48.641243 215.238244 
L 50.870956 218.950433 
L 71.444056 210.437166 
L 73.511539 213.434758 
L 99.32432 198.349576 
L 100.997957 200.476528 
L 66.071298 234.312199 
L 68.892121 237.466917 
L 108.640312 204.333372 
L 110.497487 206.16445 
L 90.990937 231.81643 
L 93.720966 234.188855 
L 85.85849 249.985126 
L 89.16232 252.509943 
L 82.303196 269.727541 
L 86.229529 272.354383 
L 93.871873 268.825568 
L 97.764126 271.089112 
L 98.115505 280.170793 
L 102.362379 282.295298 
L 106.673952 284.285221 
L 111.04596 286.138595 
L 134.177999 237.209584 
L 137.056248 238.221446 
L 135.925638 252.634346 
L 139.288011 253.583632 
L 139.141631 269.670328 
L 143.038062 270.510073 
L 142.844034 295.924119 
L 147.564112 296.634472 
L 153.900752 281.629168 
L 158.165899 281.998942 
L 164.531474 229.070442 
L 167.138803 229.131948 
L 170.208083 248.666697 
L 173.428754 248.54003 
L 174.819184 227.26556 
L 177.364676 227.00449 
L 182.345963 242.911526 
L 185.379678 242.406063 
L 188.396 241.805463 
L 191.391946 241.11032 
L 206.907349 284.747921 
L 211.244348 283.449509 
L 218.133353 289.396798 
L 222.610972 287.743117 
L 224.896728 280.906859 
L 229.104061 279.04472 
L 233.250764 277.051215 
L 237.332737 274.928313 
L 218.53206 233.448731 
L 221.250352 231.810176 
L 253.936099 274.958247 
L 257.942037 272.185988 
L 261.383737 268.667468 
L 265.188197 265.664149 
L 227.325044 214.705195 
L 229.449651 212.799437 
L 237.006601 216.399426 
L 239.179692 214.188421 
L 254.114012 223.383883 
L 256.498251 220.63153 
L 289.539343 241.997599 
L 292.491323 238.122193 
L 241.216714 196.840067 
L 242.772734 194.506358 
L 261.693713 202.599617 
L 263.420701 199.619218 
L 249.074321 188.307829 
L 250.358183 185.731277 
L 300.246981 204.572516 
L 302.01694 200.378942 
L 292.638223 192.083037 
L 294.019247 188.134875 
L 268.278708 176.10918 
L 269.169523 172.934832 
L 249.373747 164.99154 
L 249.924346 162.417102 
L 299.029074 167.851443 
L 299.645044 163.714319 
L 252.643998 154.765021 
L 252.871436 152.092815 
L 284.289569 150.595554 
L 284.370264 146.930404 
L 319.533785 142.378831 
L 319.338702 137.609589 
L 264.436004 137.665247 
L 264.119958 134.630729 
L 269.896902 130.66639 
L 269.358096 127.46363 
L 277.129523 122.452914 
L 276.328892 119.026806 
L 258.109797 120.544355 
L 257.258561 117.717213 
L 313.12433 94.847581 
L 311.437929 90.303366 
L 283.693385 96.848833 
L 282.08446 93.229002 
L 264.280846 97.738067 
L 262.709478 94.728169 
L 238.744521 104.784559 
L 237.407336 102.574095 
L 269.132112 78.165716 
L 266.942948 75.012961 
L 260.930164 74.787003 
L 258.638821 71.893806 
L 274.540782 53.135313 
L 271.561934 49.824873 
L 235.658987 79.071935 
L 233.514867 76.971201 
L 263.063214 39.309795 
L 259.655336 36.367071 
L 222.355498 76.628555 
L 220.14113 74.94732 
L 255.105698 19.174654 
L 251.068661 16.492087 
L 238.109245 28.707864 
L 234.380357 26.554989 
L 234.891549 16.176875 
L 230.770249 14.131367 
L 206.77845 57.354342 
L 203.96576 56.172413 
L 215.361673 16.13405 
L 211.248683 14.702626 
L 190.43938 69.670697 
L 188.022021 68.996414 
L 189.073642 53.143824 
L 186.137318 52.520654 
L 186.589282 31.141015 
L 182.96237 30.606838 
L 177.927616 44.201619 
L 174.71564 43.933326 
L 172.034325 28.90975 
L 168.344454 28.834316 
L 165.385955 56.250124 
L 162.559012 56.370211 
L 156.515805 20.731906 
L 152.576477 21.148451 
L 154.952492 62.675928 
L 152.332749 63.120889 
L 140.195281 20.080382 
L 136.243537 21.010403 
L 135.977252 34.853671 
L 132.492098 35.909011 
L 139.252731 65.828996 
L 136.73989 66.766033 
L 136.718897 73.536886 
L 134.449661 74.549781 
L 127.281868 65.852425 
L 124.775682 67.165841 
L 102.538639 34.800988 
L 99.068361 36.907737 
L 105.28268 53.399173 
L 102.395813 55.410448 
L 81.445959 33.944677 
L 77.959186 36.71505 
L 95.164468 63.152466 
L 92.589269 65.477058 
L 104.967617 82.878094 
L 103.007789 84.8847 
L 64.848103 54.730843 
L 62.023099 58.012811 
L 52.522175 56.081032 
L 49.745718 59.749887 
L 85.169338 89.594514 
L 83.430477 92.220301 
L 81.103037 94.498699 
L 79.520385 97.249915 
L 78.720878 100.407266 
L 77.325182 103.23046 
L 88.924366 111.73535 
L 87.879804 114.232123 
L 22.213005 93.211173 
L 20.618987 97.814657 
L 22.923539 103.570307 
L 21.654884 108.146328 
L 54.865992 120.556213 
L 54.115618 124.119495 
L 82.055948 132.32775 
L 81.662252 135.0303 
L 31.516113 132.86993 
L 31.164453 137.161295 
L 15.308704 140.920387 
L 15.218182 145.717368 
L 84.886712 148.544203 
L 85.001498 151.14973 
L 29.097458 158.880827 
L 29.564834 163.235379 
L 88.155668 158.566379 
L 88.583957 161.064167 
L 79.921607 165.568623 
L 80.574133 168.321847 
L 40.705874 182.724715 
L 41.917215 186.702484 
L 49.148307 188.536388 
L 50.538205 192.245835 
L 66.422532 189.734272 
L 67.841553 192.899987 
L 36.548934 212.62697 
L 38.702522 216.720659 
L 49.077829 215.986262 
L 51.330845 219.684354 
L 71.849995 211.041862 
L 73.93629 214.026391 
L 99.653683 198.77916 
L 101.340665 200.895544 
L 66.627504 234.950214 
L 69.468112 238.087129 
L 109.007125 204.704245 
L 110.87578 206.523606 
L 91.530952 232.297764 
L 94.275849 234.652972 
L 86.512878 250.498381 
L 89.832523 253.002369 
L 83.081823 270.262766 
L 87.0246 272.864862 
L 94.644598 269.288051 
L 98.551011 271.52707 
L 98.959501 280.606362 
L 103.219653 282.704114 
L 107.543656 284.666881 
L 111.927235 286.492721 
L 134.75108 237.419189 
L 137.635636 238.412929 
L 136.595698 252.832654 
L 139.963975 253.760774 
L 139.918773 269.848073 
L 143.820409 270.663295 
L 143.786225 296.078059 
L 148.510677 296.758711 
L 154.752817 281.71385 
L 159.020205 282.056791 
L 165.052765 229.089302 
L 167.660429 229.134409 
L 170.85251 248.649468 
L 174.072321 248.502547 
L 175.328919 227.219752 
L 177.872719 226.942678 
L 182.953954 242.81807 
L 185.984429 242.293536 
L 188.996914 241.673977 
L 191.988429 240.960005 
L 207.777981 284.49916 
L 212.106728 283.173496 
L 219.033002 289.07734 
L 223.500132 287.39553 
L 225.742847 280.545031 
L 229.938385 278.656467 
L 234.072468 276.636921 
L 238.141008 274.488388 
L 219.079819 233.127872 
L 221.787752 231.472253 
L 254.74423 274.413895 
L 258.732652 271.616496 
L 262.152155 268.076399 
L 265.93765 265.049212 
L 227.754743 214.329404 
L 229.867322 212.410321 
L 237.446765 215.96271 
L 239.605906 213.738081 
L 254.597766 222.839432 
L 256.964647 220.072138 
L 290.139466 241.229975 
L 293.067013 237.336079 
L 241.533777 196.377259 
L 243.075088 194.033809 
L 262.046595 202.007906 
L 263.754804 199.016704 
L 249.337565 187.795769 
L 250.605197 185.211194 
L 300.611509 203.738287 
L 302.355058 199.533664 
L 292.924349 191.296911 
L 294.280515 187.34014 
L 268.46485 175.476576 
L 269.335682 172.296688 
L 249.490339 164.478058 
L 250.024736 161.900208 
L 299.162672 167.025601 
L 299.752609 162.884684 
L 252.696207 154.231173 
L 252.906834 151.55759 
L 284.314929 149.862756 
L 319.581818 146.197171 
z
" clip-path="url(#pdcdfbb5bbe)" style="fill: #0000ff; opacity: 0.5; stroke: #000000; stroke-width: 1.5; stroke-linejoin: miter"/>
   </g>
  </g>
 </g>
 <defs>
  <clipPath id="pdcdfbb5bbe">
   <rect x="0" y="0" width="334.8" height="310.890079"/>
  </clipPath>
 </defs>
</svg>
