<?xml version="1.0" encoding="utf-8" standalone="no"?>
<!DOCTYPE svg PUBLIC "-//W3C//DTD SVG 1.1//EN"
  "http://www.w3.org/Graphics/SVG/1.1/DTD/svg11.dtd">
<svg xmlns:xlink="http://www.w3.org/1999/xlink" width="334.8pt" height="327.383312pt" viewBox="0 0 334.8 327.383312" xmlns="http://www.w3.org/2000/svg" version="1.1">
 <metadata>
  <rdf:RDF xmlns:dc="http://purl.org/dc/elements/1.1/" xmlns:cc="http://creativecommons.org/ns#" xmlns:rdf="http://www.w3.org/1999/02/22-rdf-syntax-ns#">
   <cc:Work>
    <dc:type rdf:resource="http://purl.org/dc/dcmitype/StillImage"/>
    <dc:date>2023-12-09T18:06:28.836767</dc:date>
    <dc:format>image/svg+xml</dc:format>
    <dc:creator>
     <cc:Agent>
      <dc:title>Matplotlib v3.8.2, https://matplotlib.org/</dc:title>
     </cc:Agent>
    </dc:creator>
   </cc:Work>
  </rdf:RDF>
 </metadata>
 <defs>
  <style type="text/css">*{stroke-linejoin: round; stroke-linecap: butt}</style>
 </defs>
 <g id="figure_1">
  <g id="patch_1">
   <path d="M 0 327.383312 
L 334.8 327.383312 
L 334.8 0 
L 0 0 
L 0 327.383312 
z
" style="fill: none"/>
  </g>
  <g id="axes_1">
   <g id="patch_2">
    <path d="M 319.581818 167.510272 
L 319.506197 162.701286 
L 310.88396 158.425782 
L 310.527003 153.894767 
L 291.819139 151.679826 
L 291.259501 147.751586 
L 265.037117 148.719801 
L 264.397651 145.63511 
L 279.215397 138.57432 
L 278.249924 135.048849 
L 265.538376 135.340192 
L 264.477978 132.246356 
L 266.16453 128.060247 
L 264.874925 124.950322 
L 252.419228 127.097088 
L 251.106134 124.419821 
L 286.557125 101.503868 
L 284.422446 97.765886 
L 261.51674 107.221054 
L 259.574203 104.26757 
L 255.06616 103.176178 
L 252.999632 100.427514 
L 264.39242 86.524227 
L 261.797707 83.490558 
L 236.826 101.496671 
L 234.715684 99.322347 
L 239.337577 89.962812 
L 236.863368 87.715222 
L 244.545479 73.163527 
L 241.540489 70.760495 
L 246.541914 57.309207 
L 243.037443 54.851242 
L 239.866536 51.858581 
L 236.193986 49.613199 
L 225.466409 60.224577 
L 222.064024 58.42783 
L 205.289018 85.124101 
L 202.679505 83.949465 
L 201.718355 78.589249 
L 198.905137 77.530113 
L 207.123852 42.362635 
L 203.168917 41.15145 
L 196.150603 51.920569 
L 192.501616 51.049681 
L 195.086378 17.232944 
L 190.347263 16.412668 
L 181.036745 52.166238 
L 177.402955 51.770442 
L 173.289858 59.122067 
L 169.878605 58.966411 
L 166.449715 49.741284 
L 162.746891 49.805335 
L 156.781672 14.88106 
L 151.987547 15.266331 
L 151.773247 51.453558 
L 148.131518 51.978222 
L 142.62803 42.854969 
L 138.720464 43.67143 
L 143.076397 76.445872 
L 140.224781 77.231628 
L 125.277198 41.036863 
L 121.321046 42.399772 
L 134.383905 86.515319 
L 131.853192 87.569407 
L 117.257867 63.124598 
L 114.000166 64.728731 
L 98.221184 43.675717 
L 94.36138 45.888021 
L 107.018848 74.012956 
L 104.108564 75.933642 
L 108.023017 87.21027 
L 105.527188 89.092858 
L 92.827131 78.702198 
L 90.071303 81.066785 
L 81.093673 76.841878 
L 78.285154 79.576311 
L 73.329132 80.309045 
L 70.633467 83.285897 
L 101.09693 113.562785 
L 99.433107 115.650115 
L 100.934797 120.028437 
L 99.474348 122.117668 
L 41.167076 88.339081 
L 38.739795 92.323208 
L 57.243484 107.747593 
L 55.418501 111.216647 
L 38.46122 107.619184 
L 36.641486 111.678857 
L 74.09977 131.168924 
L 73.002871 134.096399 
L 34.871999 125.10983 
L 33.603983 129.273708 
L 82.872939 146.26198 
L 82.24626 148.906145 
L 63.664404 148.182887 
L 63.10762 151.430061 
L 46.714412 152.728465 
L 46.308932 156.506336 
L 15.487638 158.46846 
L 15.278075 163.225331 
L 35.865915 167.921508 
L 35.943501 172.032968 
L 34.624186 176.240887 
L 34.963966 180.387276 
L 46.809753 183.046019 
L 47.357476 186.805903 
L 86.309216 183.110895 
L 86.839449 185.628797 
L 83.748294 189.092264 
L 84.46786 191.687729 
L 59.841737 202.618354 
L 60.998413 205.958806 
L 88.530894 198.752492 
L 89.551834 201.192806 
L 76.833382 210.161547 
L 78.218832 212.964015 
L 80.360506 215.35068 
L 81.90737 218.039682 
L 56.483221 237.989374 
L 58.7537 241.417937 
L 93.830939 220.82636 
L 95.54331 223.089115 
L 104.374344 219.420303 
L 106.037292 221.352245 
L 107.204741 223.756612 
L 109.002633 225.597417 
L 64.984533 276.620078 
L 68.465443 279.762241 
L 96.29765 253.233626 
L 99.027757 255.402799 
L 112.551918 242.59268 
L 114.939414 244.256045 
L 112.493051 253.612105 
L 115.22705 255.271872 
L 100.098145 289.757596 
L 103.974767 291.789215 
L 103.396308 303.404683 
L 107.700393 305.325853 
L 135.450814 247.28197 
L 137.974429 248.223024 
L 133.766147 270.206102 
L 137.01138 271.188792 
L 146.639563 246.856226 
L 149.144259 247.445692 
L 151.386464 249.459774 
L 153.970675 249.8987 
L 149.455519 308.709669 
L 153.903631 309.180013 
L 160.898859 265.994139 
L 163.998244 266.125799 
L 167.136309 273.807204 
L 170.478269 273.738882 
L 176.038056 306.373972 
L 180.399586 306.009658 
L 182.757107 290.34376 
L 186.61129 289.77611 
L 194.120229 307.849483 
L 198.519212 306.915896 
L 204.631404 312.502252 
L 209.171483 311.23587 
L 198.071287 262.63037 
L 201.046528 261.594911 
L 215.393192 288.84997 
L 219.18427 287.256909 
L 204.818899 247.580909 
L 207.317616 246.340731 
L 230.974803 283.110556 
L 234.577717 281.030412 
L 242.245155 285.273143 
L 245.910494 282.837565 
L 254.478249 287.066931 
L 258.19394 284.245831 
L 239.740283 254.912616 
L 242.452259 252.570808 
L 265.09776 271.219488 
L 268.309922 268.072323 
L 229.39481 225.795458 
L 231.196394 223.793331 
L 279.698781 259.983733 
L 282.550448 256.383035 
L 275.969223 246.004598 
L 278.383199 242.528077 
L 294.943144 247.910762 
L 297.407672 243.836717 
L 282.264058 230.209419 
L 284.178286 226.542784 
L 270.017839 215.422004 
L 271.473174 212.147729 
L 250.018943 199.955426 
L 250.997863 197.317607 
L 245.335015 192.562617 
L 246.083805 190.075726 
L 272.718566 194.066231 
L 273.501093 190.717598 
L 260.641056 184.849209 
L 261.139751 181.884877 
L 296.471913 183.100079 
L 296.897895 179.01001 
L 318.573341 176.119987 
L 318.768927 171.338453 
L 319.578793 166.548323 
L 319.472928 161.739907 
L 310.82397 157.518717 
L 310.438523 152.990036 
L 291.717099 150.892801 
L 291.132765 146.968158 
L 264.916989 148.101278 
L 264.258135 145.02067 
L 279.031179 137.866824 
L 278.043552 134.347495 
L 265.334088 134.718782 
L 264.254252 131.631676 
L 265.914444 127.435042 
L 264.605304 124.33329 
L 252.163355 126.558352 
L 250.833449 123.889398 
L 286.13961 100.750931 
L 283.981464 97.026448 
L 261.135679 106.625494 
L 259.174604 103.684285 
L 254.659786 102.621268 
L 252.576012 99.885655 
L 263.88113 85.910989 
L 261.267389 82.893699 
L 236.409424 101.056514 
L 234.285474 98.895506 
L 238.848409 89.507087 
L 236.360114 87.275103 
L 243.95055 72.67538 
L 240.930506 70.291295 
L 245.847232 56.808817 
L 242.327371 54.372941 
L 239.137704 51.400283 
L 235.451104 49.178044 
L 224.790479 59.856682 
L 221.376861 58.08137 
L 204.770092 84.882618 
L 202.153242 83.724417 
L 201.158398 78.370353 
L 198.338574 77.328931 
L 206.335944 42.110458 
L 202.37347 40.924171 
L 195.423026 51.737218 
L 191.768634 50.889298 
L 194.140656 17.056973 
L 189.396475 16.266519 
L 180.311011 52.07794 
L 176.674804 51.705006 
L 172.608026 59.082355 
L 169.195861 58.948156 
L 165.709018 49.744778 
L 162.006671 49.832116 
L 155.821916 14.94605 
L 151.030308 15.361465 
L 151.04361 51.549325 
L 147.405253 52.096883 
L 141.844494 43.008424 
L 137.94214 43.849445 
L 142.50412 76.595843 
L 139.657502 77.399518 
L 124.48257 41.299481 
L 120.535068 42.687245 
L 133.875131 86.719762 
L 131.351097 87.789745 
L 116.602317 63.437216 
L 113.35477 65.061807 
L 97.443688 44.10845 
L 93.597874 46.344986 
L 106.431982 74.389756 
L 103.533835 76.328709 
L 107.519135 87.580494 
L 105.035196 89.478742 
L 92.270039 79.168164 
L 89.529137 81.550036 
L 80.525112 77.381677 
L 77.733847 80.13372 
L 72.782531 80.89761 
L 70.105642 83.891357 
L 100.758927 113.976049 
L 99.108265 116.073802 
L 100.637463 120.442593 
L 99.190183 122.540968 
L 40.671615 89.129768 
L 38.26944 93.129083 
L 56.869775 108.436785 
L 55.066646 111.917249 
L 38.087074 108.426508 
L 36.292909 112.497546 
L 73.873034 131.751637 
L 72.794568 134.685953 
L 34.60793 125.939383 
L 33.366128 130.111153 
L 82.740956 146.789215 
L 82.13092 149.437269 
L 63.544882 148.830896 
L 63.008532 152.081507 
L 46.623815 153.482989 
L 46.242103 157.263336 
L 15.433759 159.419269 
L 15.254119 164.177365 
L 35.871088 168.743963 
L 35.974531 172.854853 
L 34.681708 177.070987 
L 35.047559 181.215157 
L 46.909834 183.799344 
L 47.481194 187.555708 
L 86.408924 183.615789 
L 86.954983 186.130307 
L 83.885672 189.613147 
L 84.621548 192.204035 
L 60.064659 203.289328 
L 61.242322 206.622439 
L 88.728934 199.243104 
L 89.765203 201.676948 
L 77.103411 210.725504 
L 78.506459 213.519203 
L 80.663102 215.892351 
L 82.226847 218.571571 
L 56.928673 238.680772 
L 59.220671 242.094987 
L 94.167707 221.283201 
L 95.894275 223.535141 
L 104.70206 219.81086 
L 106.377126 221.732305 
L 107.559674 224.129282 
L 109.369108 225.958742 
L 65.672783 277.257243 
L 69.173386 280.377451 
L 96.838192 253.674312 
L 99.581888 255.826271 
L 113.025214 242.931347 
L 115.423124 244.579662 
L 113.035653 253.950923 
L 115.780038 255.593462 
L 100.868328 290.173657 
L 104.75765 292.180853 
L 104.252258 303.79973 
L 108.568341 305.693791 
L 135.953149 247.476522 
L 138.482633 248.401686 
L 134.412696 270.410797 
L 137.664045 271.373056 
L 147.138999 246.980416 
L 149.647354 247.554117 
L 151.902182 249.554057 
L 154.489102 249.976721 
L 150.343923 308.814924 
L 154.794906 309.257283 
L 161.51838 266.028267 
L 164.618531 266.140432 
L 167.804846 273.801948 
L 171.146311 273.712609 
L 176.911244 306.312085 
L 181.270396 305.920347 
L 183.529341 290.239931 
L 187.379878 289.648051 
L 195.00234 307.67384 
L 199.395364 306.712605 
L 205.542569 312.260408 
L 210.074594 310.965497 
L 198.668917 262.430771 
L 201.637587 261.37662 
L 216.155386 288.540908 
L 219.93637 286.924035 
L 205.321742 247.33917 
L 207.81261 246.083301 
L 231.70059 282.703608 
L 235.290351 280.600845 
L 242.984321 284.795268 
L 246.634269 282.336685 
L 255.228455 286.512082 
L 258.92633 283.667668 
L 240.288548 254.451096 
L 242.985742 252.092278 
L 265.748084 270.598161 
L 268.940389 267.430855 
L 229.76015 225.399581 
L 231.549106 223.386162 
L 280.278151 259.270796 
L 283.107114 255.652234 
L 276.460746 245.315394 
L 278.852808 241.82376 
L 295.44628 247.102186 
L 297.885136 243.012721 
L 282.656113 229.480937 
L 284.547242 225.802335 
L 270.317132 214.770837 
L 271.751844 211.487473 
L 250.221356 199.430346 
L 251.183665 196.786422 
L 245.491024 192.067142 
L 246.224157 189.575591 
L 272.88349 193.3985 
L 273.64494 190.045011 
L 260.748249 184.257621 
L 261.22829 181.29021 
L 296.567396 182.283169 
L 296.967646 178.190502 
L 318.624486 175.16421 
L 318.789995 170.38154 
L 319.569718 165.586411 
L 319.433612 160.778757 
L 310.758277 156.612047 
L 310.344354 152.08588 
L 291.61011 150.106433 
L 291.001104 146.185544 
L 264.792974 147.483523 
L 264.114757 144.40712 
L 278.842516 137.160502 
L 277.832774 133.647454 
L 265.125896 134.098668 
L 264.026666 131.018415 
L 265.660429 126.811423 
L 264.331807 123.717965 
L 251.904099 126.021236 
L 250.557433 123.360699 
L 285.717368 100.000634 
L 283.53584 96.289799 
L 260.750879 106.032341 
L 258.771344 103.103525 
L 254.24993 102.068925 
L 252.148991 99.346472 
L 263.365994 85.300979 
L 260.733327 82.300188 
L 235.990087 100.618986 
L 233.852588 98.47138 
L 238.356385 89.054448 
L 235.854101 86.838158 
L 243.352563 72.190984 
L 240.317585 69.825941 
L 245.149416 56.312806 
L 241.614304 53.899116 
L 238.406004 50.946578 
L 234.705501 48.747569 
L 224.112249 59.493045 
L 220.687532 57.739238 
L 204.249656 84.644404 
L 201.625574 83.502684 
L 200.597076 78.154982 
L 197.770758 77.131317 
L 205.546465 41.863241 
L 201.576608 40.701899 
L 194.694309 51.558447 
L 191.034657 50.733528 
L 193.193846 16.886953 
L 188.444788 16.126353 
L 179.584737 51.994208 
L 175.946256 51.644151 
L 171.925957 59.046932 
L 168.513016 58.934197 
L 164.968358 49.752931 
L 161.266633 49.863552 
L 154.862587 15.017075 
L 150.073687 15.462619 
L 150.31459 51.649679 
L 146.679748 52.220109 
L 141.061938 43.166804 
L 137.164951 44.032352 
L 141.932797 76.74941 
L 139.09129 77.570973 
L 123.68961 41.567092 
L 119.750913 42.979655 
L 133.367652 86.9274 
L 130.850398 88.013237 
L 115.948746 63.753951 
L 112.711481 65.398935 
L 96.668929 44.546064 
L 92.837258 46.806744 
L 105.847498 74.77024 
L 102.961603 76.727382 
L 107.017591 87.953879 
L 104.54564 89.867713 
L 91.715888 79.637624 
L 88.990021 82.036688 
L 79.959957 77.925042 
L 77.186056 80.694585 
L 72.239642 81.489601 
L 69.581636 84.500125 
L 100.42353 114.39143 
L 98.786094 116.499524 
L 100.342739 120.85861 
L 98.908685 122.966046 
L 40.181138 89.923556 
L 37.804164 93.9379 
L 56.500407 109.128314 
L 54.719204 112.620049 
L 37.718013 109.236169 
L 35.949488 113.318411 
L 73.649967 132.335763 
L 72.589978 135.276804 
L 34.349084 126.77058 
L 33.133544 130.950078 
L 82.612291 147.31727 
L 82.018922 149.969109 
L 63.429439 149.479643 
L 62.913544 152.733563 
L 46.537965 154.238069 
L 46.180037 158.020741 
L 15.385862 160.370399 
L 15.236151 165.12953 
L 35.881433 169.566368 
L 36.01073 173.676527 
L 34.744449 177.900709 
L 35.136358 182.042496 
L 47.014651 184.552025 
L 47.609625 188.304721 
L 86.511805 184.120047 
L 87.073668 186.63108 
L 84.026323 190.133155 
L 84.77848 192.719364 
L 60.291797 203.958886 
L 61.4904 207.284525 
L 88.930057 199.73246 
L 89.981612 202.159739 
L 77.376981 211.287751 
L 78.797572 214.072571 
L 80.969098 216.432108 
L 82.549663 219.10144 
L 57.378465 239.369354 
L 59.691892 242.769086 
L 94.507341 221.737915 
L 96.248039 223.978952 
L 105.032226 220.199348 
L 106.719344 222.11022 
L 107.916944 224.499711 
L 109.737849 226.317755 
L 66.365026 277.890067 
L 69.885185 280.988196 
L 97.381496 254.111589 
L 100.138672 256.24625 
L 113.50063 243.267029 
L 115.908859 244.900231 
L 113.580376 254.286323 
L 116.335037 255.911568 
L 101.641112 290.584865 
L 105.542981 292.56756 
L 105.110675 304.189386 
L 109.438585 306.056264 
L 136.456699 247.667911 
L 138.991951 248.577147 
L 135.060519 270.611421 
L 138.317856 271.553212 
L 147.639207 247.101462 
L 150.15112 247.659376 
L 152.418482 249.645095 
L 155.00801 250.05148 
L 151.232972 308.914591 
L 155.686648 309.328946 
L 162.138104 266.058499 
L 165.238899 266.151163 
L 168.473337 273.792487 
L 171.814174 273.682134 
L 177.784025 306.244707 
L 182.140628 305.82556 
L 184.300907 290.131247 
L 188.147645 289.515161 
L 195.883328 307.492653 
L 200.27022 306.503806 
L 206.452196 312.012838 
L 210.975987 310.689448 
L 199.265279 262.227418 
L 202.227261 261.154616 
L 216.91562 288.227059 
L 220.68636 286.586437 
L 205.823056 247.094272 
L 208.305975 245.822762 
L 232.423804 282.292103 
L 236.000269 280.166804 
L 243.720467 284.312753 
L 247.35488 281.831264 
L 255.975157 285.952525 
L 259.655069 283.08491 
L 240.8339 253.986137 
L 243.516205 251.610401 
L 266.394488 269.972756 
L 269.566809 266.785435 
L 230.122992 225.001414 
L 231.899249 222.976784 
L 280.853025 258.55423 
L 283.659174 254.917947 
L 276.947923 244.623113 
L 279.317978 241.116503 
L 295.94432 246.290461 
L 298.357408 242.185738 
L 283.043579 228.750003 
L 284.911534 225.05958 
L 270.612324 214.117799 
L 272.026357 210.825477 
L 250.420462 198.904003 
L 251.366123 196.254079 
L 245.643913 191.570696 
L 246.361361 189.074583 
L 273.04421 192.729744 
L 273.784554 189.371533 
L 260.851719 183.66537 
L 261.313087 180.694999 
L 296.657739 181.465675 
L 297.03224 177.370572 
L 318.669619 174.208131 
L 318.805044 169.424514 
L 319.554593 164.624576 
L 319.388253 159.817872 
L 310.686883 155.705808 
L 310.244501 151.182334 
L 291.498178 149.320754 
L 290.864524 145.403772 
L 264.665076 146.866561 
L 263.967523 143.794484 
L 278.649414 136.45538 
L 277.617597 132.948752 
L 264.913808 133.479877 
L 263.795226 130.406598 
L 265.402498 126.189413 
L 264.054446 123.104373 
L 251.64147 125.485762 
L 250.278098 122.833747 
L 285.290416 99.253008 
L 283.085591 95.555967 
L 260.362356 105.441621 
L 258.36444 102.525313 
L 253.836608 101.51917 
L 251.718588 98.809985 
L 262.847031 84.694221 
L 260.195542 81.710047 
L 235.568007 100.184104 
L 233.417043 98.049984 
L 237.861524 88.604912 
L 235.34535 86.404404 
L 242.751542 71.710359 
L 239.701748 69.36445 
L 244.448494 55.821193 
L 240.898271 53.429785 
L 237.671465 50.497484 
L 233.957204 48.321792 
L 223.431745 59.133682 
L 219.996065 57.401449 
L 203.727733 84.409467 
L 201.096522 83.284274 
L 200.03441 77.943147 
L 197.20171 76.937277 
L 204.755446 41.620994 
L 200.778364 40.484643 
L 193.964483 51.384263 
L 190.299715 50.582376 
L 192.245986 16.722891 
L 187.492237 15.992176 
L 178.85795 51.915046 
L 175.21734 51.587879 
L 171.24368 59.0158 
L 167.830097 58.924532 
L 164.227764 49.765741 
L 160.526808 49.899643 
L 153.903724 15.094132 
L 149.117721 15.569786 
L 149.586215 51.754616 
L 145.955033 52.347896 
L 140.280394 43.330103 
L 136.388928 44.220144 
L 141.362451 76.906567 
L 138.526168 77.745985 
L 122.898348 41.839684 
L 118.968614 43.276992 
L 132.861489 87.138226 
L 130.351115 88.239874 
L 115.29718 64.074791 
L 112.070325 65.740102 
L 95.896937 44.988542 
L 92.07956 47.273277 
L 105.265418 75.154392 
L 102.391889 77.129646 
L 106.518406 88.330412 
L 104.058541 90.259754 
L 91.1647 80.11056 
L 88.453976 82.526721 
L 79.398231 78.47195 
L 76.641804 81.258885 
L 71.700488 82.084995 
L 69.061469 85.112177 
L 100.090753 114.808913 
L 98.466608 116.927263 
L 100.050638 121.276473 
L 98.629867 123.392887 
L 39.695662 90.720413 
L 37.343983 94.749628 
L 56.135396 109.822152 
L 54.376189 113.325021 
L 37.354052 110.048136 
L 35.611237 114.14142 
L 73.430578 132.921282 
L 72.389108 135.868931 
L 34.095471 127.603388 
L 32.906242 131.790449 
L 82.48695 147.846124 
L 81.910272 150.501642 
L 63.318077 150.129103 
L 62.822658 153.386204 
L 46.456865 154.993673 
L 46.122736 158.778522 
L 15.343948 161.321811 
L 15.224171 166.081789 
L 35.896951 170.388693 
L 36.052095 174.497957 
L 34.812408 178.730019 
L 35.230358 182.86926 
L 47.1242 185.304031 
L 47.742764 189.052911 
L 86.617856 184.623647 
L 87.195501 187.131097 
L 84.170242 190.652269 
L 84.93865 193.233696 
L 60.523141 204.627003 
L 61.742637 207.945038 
L 89.134253 200.220542 
L 90.201054 202.641159 
L 77.654082 211.848267 
L 79.09216 214.624097 
L 81.278483 216.969929 
L 82.875806 219.629268 
L 57.832579 240.055094 
L 60.167342 243.440209 
L 94.849829 222.190484 
L 96.604587 224.420528 
L 105.364829 220.585751 
L 107.063932 222.485974 
L 108.276537 224.867887 
L 110.10884 226.674442 
L 67.061235 278.518524 
L 70.60081 281.594453 
L 97.927539 254.545441 
L 100.698086 256.662718 
L 113.978148 243.599715 
L 116.396602 245.217738 
L 114.127198 254.618289 
L 116.892026 256.226177 
L 102.416467 290.991205 
L 106.330729 292.94932 
L 105.971526 304.573635 
L 110.311092 306.413256 
L 136.961442 247.856129 
L 139.502363 248.749402 
L 135.709591 270.807967 
L 138.972788 271.729253 
L 148.140166 247.21936 
L 150.655539 247.761464 
L 152.935345 249.732883 
L 155.527377 250.122974 
L 152.122629 309.008663 
L 156.578824 309.395 
L 162.758005 266.084832 
L 165.859322 266.157992 
L 169.141756 273.778823 
L 172.481833 273.647459 
L 178.656366 306.171842 
L 183.010246 305.725302 
L 185.071774 290.017712 
L 188.914561 289.377445 
L 196.763159 307.305928 
L 201.143745 306.28951 
L 207.360248 311.759551 
L 211.875626 310.407736 
L 199.860351 262.020318 
L 202.815527 260.928908 
L 217.673866 287.908434 
L 221.434213 286.244128 
L 206.322819 246.846227 
L 208.797692 245.559126 
L 233.144416 281.876058 
L 236.707442 279.728307 
L 244.453564 283.825619 
L 248.072297 281.32132 
L 256.718325 285.388282 
L 260.380128 282.49758 
L 241.376317 253.517756 
L 244.043626 251.125198 
L 267.036946 269.343298 
L 270.189158 266.136088 
L 230.483323 224.600973 
L 232.246811 222.565211 
L 281.423381 257.834062 
L 284.206604 254.180201 
L 277.430738 243.927781 
L 279.778691 240.406334 
L 296.437245 245.47562 
L 298.824469 241.355801 
L 283.426439 228.016647 
L 285.271147 224.314549 
L 270.903402 213.462918 
L 272.296701 210.161768 
L 250.616253 198.376418 
L 251.54523 195.720599 
L 245.793677 191.073298 
L 246.495412 188.572722 
L 273.200722 192.059991 
L 273.91993 188.69719 
L 260.951462 183.07248 
L 261.394139 180.099266 
L 296.742939 180.647629 
L 297.091677 176.550252 
L 318.708737 173.251786 
L 318.814074 168.467412 
L 319.533419 163.662855 
L 319.336851 158.857293 
L 310.60979 154.800036 
L 310.138967 150.279434 
L 291.381307 148.535795 
L 290.723029 144.622876 
L 264.5333 146.250415 
L 263.816439 143.182786 
L 278.45188 135.751486 
L 277.398029 132.251417 
L 264.697832 132.862431 
L 263.559943 129.796248 
L 265.14066 125.569038 
L 263.773232 122.492538 
L 251.375478 124.95195 
L 249.995453 122.308562 
L 284.858769 98.508082 
L 282.630736 94.824981 
L 259.970125 104.853356 
L 257.953907 101.949671 
L 253.419837 100.972026 
L 251.284819 98.276216 
L 262.324262 84.090739 
L 259.654057 81.123301 
L 235.143201 99.751886 
L 232.978856 97.631336 
L 237.363845 88.158497 
L 234.833881 85.973858 
L 242.147509 71.233523 
L 239.083022 68.906842 
L 243.744494 55.333999 
L 240.179301 52.964967 
L 236.934116 50.053018 
L 233.206245 47.900731 
L 222.748994 58.778605 
L 219.302488 57.068015 
L 203.204342 84.177818 
L 200.566106 83.069196 
L 199.470423 77.734854 
L 196.631452 76.746821 
L 203.96292 41.383727 
L 199.978769 40.272413 
L 193.233576 51.214672 
L 189.563836 50.435851 
L 191.297112 16.564794 
L 186.538862 15.863992 
L 178.13068 51.840456 
L 174.488084 51.536193 
L 170.56122 58.988959 
L 167.147131 58.919162 
L 163.487265 49.783209 
L 159.787225 49.940385 
L 152.945365 15.177218 
L 148.162448 15.682965 
L 148.858515 51.864132 
L 145.231136 52.480238 
L 139.499892 43.498313 
L 135.614101 44.412812 
L 140.793105 77.067309 
L 137.962157 77.924549 
L 122.108816 42.117248 
L 118.1882 43.579243 
L 132.356663 87.352231 
L 129.853266 88.469646 
L 114.647645 64.399721 
L 111.431327 66.085295 
L 95.127744 45.435867 
L 91.324812 47.744566 
L 104.685766 75.542198 
L 101.824717 77.535486 
L 106.021598 88.710076 
L 103.573916 90.654852 
L 90.616498 80.586953 
L 87.921024 83.020115 
L 78.839956 79.02238 
L 76.101111 81.826596 
L 71.165089 82.683768 
L 68.545161 85.727489 
L 99.760607 115.22848 
L 98.149817 117.357004 
L 99.76117 121.696164 
L 98.353739 123.821472 
L 39.215208 91.520308 
L 36.888917 95.564233 
L 55.774756 110.518272 
L 54.037615 114.032136 
L 36.995205 110.862376 
L 35.278168 114.96654 
L 73.214877 133.508168 
L 72.191966 136.462309 
L 33.847101 128.437775 
L 32.68423 132.632233 
L 82.364938 148.375756 
L 81.804973 151.034849 
L 63.210803 150.779251 
L 62.735879 154.039403 
L 46.38052 155.749772 
L 46.070201 159.536647 
L 15.308018 162.273467 
L 15.218182 167.034105 
L 35.917641 171.210903 
L 36.098627 175.31911 
L 34.885581 179.558886 
L 35.329556 183.695416 
L 47.238477 186.055334 
L 47.880607 189.800249 
L 86.727072 185.12657 
L 87.320476 187.630337 
L 84.317423 191.170467 
L 85.102051 193.74701 
L 60.758683 205.293652 
L 61.999024 208.603951 
L 89.341515 200.707331 
L 90.423519 203.12119 
L 77.934703 212.407029 
L 79.390211 215.173759 
L 81.591245 217.505794 
L 83.205261 220.155034 
L 58.290997 240.737964 
L 60.647004 244.108328 
L 95.195156 222.64089 
L 96.963906 224.859853 
L 105.699855 220.970056 
L 107.410876 222.859555 
L 108.638438 225.233793 
L 110.482067 227.028789 
L 67.761384 279.142591 
L 71.320234 282.196196 
L 98.4763 254.97585 
L 101.260109 257.07566 
L 114.457749 243.929391 
L 116.886331 245.532171 
L 114.676096 254.94681 
L 117.450982 256.537277 
L 103.194362 291.39266 
L 107.120862 293.326118 
L 106.834777 304.952462 
L 111.185827 306.764753 
L 137.467358 248.041169 
L 140.013847 248.918444 
L 136.359887 271.000426 
L 139.628813 271.90117 
L 148.641857 247.334105 
L 151.160589 247.860378 
L 153.452749 249.817419 
L 156.047184 250.1912 
L 153.012861 309.097138 
L 157.471397 309.45544 
L 163.37806 266.107266 
L 166.479776 266.160919 
L 169.810075 273.760954 
L 173.14926 273.608586 
L 179.528231 306.093491 
L 183.879216 305.619577 
L 185.841912 289.899332 
L 189.680596 289.234908 
L 197.641799 307.113673 
L 202.015905 306.069724 
L 208.266689 311.500559 
L 212.773475 310.120371 
L 200.454109 261.80948 
L 203.402361 260.699505 
L 218.430093 287.585046 
L 222.179898 285.897123 
L 206.821012 246.595043 
L 209.287742 245.292402 
L 233.862396 281.455489 
L 237.411844 279.285371 
L 245.183582 283.333883 
L 248.786494 280.806873 
L 257.457929 284.819377 
L 261.101479 281.905701 
L 241.915777 253.045974 
L 244.567986 250.636687 
L 267.675433 268.709812 
L 270.80741 265.48284 
L 230.841129 224.198273 
L 232.591778 222.15146 
L 281.989196 257.110321 
L 284.749383 253.439028 
L 277.909169 243.229427 
L 280.234928 239.693282 
L 296.925036 244.657694 
L 299.286301 240.522943 
L 283.80468 227.280898 
L 285.626068 223.567271 
L 271.190356 212.80622 
L 272.562864 209.496371 
L 250.808723 197.847612 
L 251.720977 195.186003 
L 245.940309 190.574968 
L 246.626303 188.070028 
L 273.353018 191.389267 
L 274.051062 188.022009 
L 261.047474 182.478974 
L 261.471443 179.503035 
L 296.822992 179.829063 
L 297.145953 175.729573 
L 318.74184 172.295214 
L 319.581818 167.510272 
z
" clip-path="url(#pe0601dd86b)" style="fill: #0000ff; opacity: 0.5; stroke: #000000; stroke-width: 1.5; stroke-linejoin: miter"/>
   </g>
  </g>
 </g>
 <defs>
  <clipPath id="pe0601dd86b">
   <rect x="0" y="-0" width="334.8" height="327.383312"/>
  </clipPath>
 </defs>
</svg>
