<?xml version="1.0" encoding="utf-8" standalone="no"?>
<!DOCTYPE svg PUBLIC "-//W3C//DTD SVG 1.1//EN"
  "http://www.w3.org/Graphics/SVG/1.1/DTD/svg11.dtd">
<svg xmlns:xlink="http://www.w3.org/1999/xlink" width="334.8pt" height="301.976453pt" viewBox="0 0 334.8 301.976453" xmlns="http://www.w3.org/2000/svg" version="1.1">
 <metadata>
  <rdf:RDF xmlns:dc="http://purl.org/dc/elements/1.1/" xmlns:cc="http://creativecommons.org/ns#" xmlns:rdf="http://www.w3.org/1999/02/22-rdf-syntax-ns#">
   <cc:Work>
    <dc:type rdf:resource="http://purl.org/dc/dcmitype/StillImage"/>
    <dc:date>2023-12-09T18:06:28.944277</dc:date>
    <dc:format>image/svg+xml</dc:format>
    <dc:creator>
     <cc:Agent>
      <dc:title>Matplotlib v3.8.2, https://matplotlib.org/</dc:title>
     </cc:Agent>
    </dc:creator>
   </cc:Work>
  </rdf:RDF>
 </metadata>
 <defs>
  <style type="text/css">*{stroke-linejoin: round; stroke-linecap: butt}</style>
 </defs>
 <g id="figure_1">
  <g id="patch_1">
   <path d="M 0 301.976453 
L 334.8 301.976453 
L 334.8 0 
L 0 0 
L 0 301.976453 
z
" style="fill: none"/>
  </g>
  <g id="axes_1">
   <g id="patch_2">
    <path d="M 279.414909 141.462095 
L 279.359319 137.926901 
L 264.386795 135.327639 
L 264.145754 132.267995 
L 260.710119 129.609271 
L 260.291098 126.668057 
L 312.698601 113.636323 
L 311.751651 109.068374 
L 242.601949 122.025444 
L 241.953428 119.65734 
L 290.236161 101.370941 
L 288.914666 97.515325 
L 247.550409 109.526908 
L 246.50646 107.009393 
L 241.852174 106.189737 
L 240.706115 103.853037 
L 259.323965 90.635145 
L 257.680197 87.756785 
L 273.081041 74.044163 
L 270.908814 70.741452 
L 256.637425 76.236097 
L 254.542248 73.449326 
L 282.423972 45.824076 
L 279.359824 42.241557 
L 250.021002 63.363544 
L 247.524355 60.791173 
L 235.869609 67.981997 
L 233.525173 65.852293 
L 219.680055 77.644558 
L 217.647435 76.019111 
L 220.606504 67.505163 
L 218.254622 65.8556 
L 215.852037 64.280801 
L 213.401124 62.782323 
L 215.033927 53.830837 
L 212.254849 52.36325 
L 208.104413 53.811215 
L 205.328144 52.561516 
L 205.093019 44.862943 
L 202.036886 43.712353 
L 195.34091 53.801694 
L 192.570652 52.953313 
L 187.65014 60.514199 
L 185.094741 59.904313 
L 190.945659 14.879309 
L 186.95377 14.188368 
L 180.813869 30.668457 
L 177.323435 30.288275 
L 174.205575 23.783395 
L 170.501926 23.614396 
L 166.842676 54.012967 
L 164.093151 54.060528 
L 160.491367 40.948544 
L 157.334209 41.202264 
L 156.963493 63.240359 
L 154.508983 63.593981 
L 146.898804 37.189828 
L 143.630184 37.872785 
L 139.602433 35.634533 
L 136.288519 36.547673 
L 140.042679 59.086192 
L 137.465919 59.973894 
L 136.073725 63.843796 
L 133.648517 64.853939 
L 121.574088 45.471188 
L 118.578374 46.946315 
L 115.630522 48.514905 
L 112.733447 50.175407 
L 119.125188 66.409929 
L 116.789044 67.951702 
L 87.80338 32.987537 
L 84.431849 35.530662 
L 86.132542 44.183396 
L 83.11386 46.77352 
L 78.570664 47.753484 
L 75.667972 50.579605 
L 96.244112 75.353938 
L 94.200501 77.610721 
L 59.073031 52.638467 
L 56.333574 56.075221 
L 53.070699 59.13906 
L 50.538603 62.761326 
L 85.099859 89.794961 
L 83.515815 92.395003 
L 61.458046 83.813277 
L 59.697614 87.159627 
L 57.335886 90.229139 
L 55.779221 93.701927 
L 43.431131 92.940637 
L 41.966596 96.849281 
L 68.126366 109.651581 
L 67.17505 112.775489 
L 20.156089 104.21653 
L 19.057601 108.851417 
L 61.846949 121.728767 
L 61.278471 125.044143 
L 43.766016 126.274297 
L 43.349399 130.15593 
L 46.172649 134.235242 
L 46.005151 138.037268 
L 27.218251 141.901611 
L 27.301173 146.295815 
L 44.662301 149.551668 
L 44.977133 153.39361 
L 68.642079 154.211972 
L 69.091585 157.297634 
L 15.218182 170.936875 
L 16.219969 175.694032 
L 46.08374 172.941079 
L 47.133283 176.726764 
L 84.646732 168.529086 
L 85.538485 171.104447 
L 46.638545 189.599704 
L 48.211597 193.359708 
L 84.461288 180.654485 
L 85.734382 183.229682 
L 46.117375 208.482286 
L 48.284395 212.249341 
L 37.414958 224.362702 
L 40.085595 228.395528 
L 48.551186 228.190498 
L 51.336672 231.871284 
L 101.013139 196.46243 
L 102.775086 198.509385 
L 81.349924 222.504938 
L 83.940427 225.157271 
L 77.565088 237.438767 
L 80.627014 240.20272 
L 106.556885 215.102847 
L 108.902186 216.966278 
L 88.943544 249.798936 
L 92.388475 252.199014 
L 121.260697 214.16984 
L 123.569393 215.571411 
L 106.511229 252.561113 
L 110.034324 254.407459 
L 122.83756 236.32088 
L 125.841953 237.661919 
L 118.08449 266.541697 
L 122.041443 268.017242 
L 130.326973 255.982177 
L 133.945858 257.078012 
L 133.972262 272.444917 
L 138.106969 273.417996 
L 152.554137 218.991853 
L 154.998976 219.407106 
L 157.361359 220.520364 
L 159.85188 220.783712 
L 161.895457 228.76338 
L 164.642915 228.880091 
L 167.672598 288.25025 
L 172.287597 288.155903 
L 173.679543 240.396717 
L 176.786952 240.137159 
L 185.269999 280.810341 
L 189.642371 280.166372 
L 193.842265 278.619004 
L 198.141497 277.706587 
L 199.836806 266.840642 
L 203.762737 265.745567 
L 201.771989 246.734991 
L 205.064797 245.58901 
L 224.040702 283.462671 
L 228.477299 281.598354 
L 210.335305 232.376403 
L 213.172414 230.968272 
L 222.039339 240.387545 
L 225.12255 238.607452 
L 235.319696 247.90079 
L 238.632573 245.69942 
L 250.658509 255.350064 
L 254.198023 252.662725 
L 251.139002 242.07955 
L 254.261025 239.383664 
L 261.597528 241.120893 
L 264.684237 238.096642 
L 242.500793 211.598149 
L 244.668685 209.188938 
L 243.13341 203.746816 
L 245.054125 201.321596 
L 239.286451 193.37289 
L 240.88289 191.073756 
L 282.765814 214.015665 
L 284.989809 210.339238 
L 258.955429 191.335063 
L 260.478069 188.418501 
L 291.66183 199.244485 
L 293.416989 195.295652 
L 253.570894 175.154977 
L 254.587459 172.415717 
L 287.509833 179.829892 
L 288.656607 176.021206 
L 312.405817 177.86654 
L 313.47855 173.27604 
L 318.245643 169.362205 
L 319.048093 164.592293 
L 278.613066 154.866092 
L 278.979323 151.349483 
L 248.832527 146.100324 
L 248.937893 143.524414 
L 279.412686 140.754944 
L 279.334862 137.220169 
L 264.346286 134.715128 
L 264.086006 131.65706 
L 260.633718 129.019997 
L 260.196206 126.081477 
L 312.520711 112.720387 
L 311.545049 108.158484 
L 242.478207 121.55021 
L 241.814806 119.186232 
L 289.981572 100.596524 
L 288.635854 96.749296 
L 247.347961 109.020798 
L 246.2882 106.509899 
L 241.62885 105.719532 
L 240.468117 103.390087 
L 259.002466 90.05536 
L 257.340627 87.187395 
L 272.654922 73.378182 
L 270.461966 70.089199 
L 256.225417 75.673494 
L 254.112754 72.899956 
L 281.82018 45.099892 
L 278.733561 41.536715 
L 249.528164 62.842809 
L 247.015388 60.286191 
L 235.406098 67.550175 
L 233.048314 65.435258 
L 219.277636 77.314368 
L 217.234834 75.701737 
L 220.140297 67.169346 
L 217.778086 65.534608 
L 215.365643 63.974951 
L 212.905355 62.491918 
L 214.481826 53.53034 
L 211.693572 52.08026 
L 207.552325 53.554301 
L 204.768251 52.322088 
L 204.484712 44.625145 
L 201.421403 43.493799 
L 194.789014 53.625055 
L 192.013476 52.794114 
L 187.140615 60.385798 
L 184.581431 59.791996 
L 190.149051 14.731084 
L 186.152895 14.065263 
L 180.116767 30.583643 
L 176.62401 30.225421 
L 173.4653 23.740279 
L 169.760661 23.594577 
L 166.292673 54.015562 
L 163.543502 54.080414 
L 159.859323 40.991343 
L 156.703823 41.264914 
L 156.47172 63.304905 
L 154.019483 63.673957 
L 146.243388 37.318191 
L 142.979128 38.021692 
L 138.937379 35.808817 
L 135.629274 36.742782 
L 139.525114 59.257242 
L 136.953988 60.161134 
L 135.586162 64.039715 
L 133.167354 65.065092 
L 120.971258 45.758665 
L 117.98488 47.252604 
L 115.046952 48.839704 
L 112.160378 50.518393 
L 118.654099 66.712394 
L 116.327698 68.26883 
L 87.122702 33.48766 
L 83.767233 36.051939 
L 85.522313 44.693806 
L 82.519981 47.302864 
L 77.983038 48.311384 
L 75.098178 51.155705 
L 95.829728 75.800135 
L 93.800351 78.069727 
L 58.516515 53.318899 
L 55.798727 56.772814 
L 52.555187 59.857114 
L 50.045923 63.495235 
L 84.776521 90.310964 
L 83.208862 92.920917 
L 61.097554 84.478091 
L 59.358204 87.835447 
L 57.015828 90.919753 
L 55.481036 94.402262 
L 43.128402 93.718651 
L 41.688479 97.636428 
L 67.928251 110.273944 
L 66.996601 113.403774 
L 19.92474 105.140707 
L 18.855424 109.782411 
L 61.724917 122.390386 
L 61.177302 125.709271 
L 43.672931 127.049545 
L 43.280735 130.933721 
L 46.129585 134.995195 
L 45.986004 138.7982 
L 27.22378 142.780626 
L 27.334337 147.174221 
L 44.715599 150.320818 
L 45.054588 154.160704 
L 68.724214 154.830211 
L 69.193117 157.912984 
L 15.406563 171.890789 
L 16.43825 176.641551 
L 46.284116 173.700827 
L 47.357448 177.479835 
L 84.818596 169.046381 
L 85.72653 171.616083 
L 46.943684 190.355632 
L 48.540353 194.105668 
L 84.709418 181.172707 
L 85.998683 183.739846 
L 46.541285 209.241119 
L 48.731954 212.99447 
L 37.938918 225.175954 
L 40.634867 229.191904 
L 49.099001 228.933634 
L 51.907582 232.596828 
L 101.360365 196.876238 
L 103.135151 198.91207 
L 81.861331 223.041901 
L 84.468464 225.677889 
L 78.170496 237.999239 
L 81.249745 240.743879 
L 107.021238 215.481419 
L 109.378213 217.330062 
L 89.626465 250.287599 
L 93.086423 252.665963 
L 121.718892 214.455951 
L 124.036357 215.842975 
L 107.211175 252.939231 
L 110.745812 254.763382 
L 123.435041 236.596635 
L 126.447809 237.918753 
L 118.872137 266.846749 
L 122.838292 268.297378 
L 131.047965 256.21044 
L 134.67367 257.283493 
L 134.796723 272.649927 
L 138.937468 273.596983 
L 153.042041 219.081051 
L 155.489442 219.480919 
L 157.858781 220.579297 
L 160.350909 220.826976 
L 162.444633 228.793634 
L 165.192771 228.893062 
L 168.595799 288.242992 
L 173.210113 288.119621 
L 174.301653 240.352625 
L 177.407368 240.073528 
L 186.146059 280.692553 
L 190.514294 280.021096 
L 194.704372 278.447344 
L 198.997781 277.507905 
L 200.624716 266.631512 
L 204.543682 265.511767 
L 202.433408 246.514088 
L 205.718943 245.34742 
L 224.932677 283.100984 
L 229.357461 281.2088 
L 210.906247 232.101926 
L 213.734444 230.675979 
L 222.660436 240.039297 
L 225.732389 238.239848 
L 235.987784 247.468868 
L 239.286749 245.246705 
L 251.373145 254.821522 
L 254.895687 252.111975 
L 251.770164 241.548248 
L 254.87517 238.83278 
L 262.222454 240.523832 
L 265.290082 237.480227 
L 242.940416 211.12178 
L 245.093112 208.698982 
L 243.523639 203.266623 
L 245.429064 200.829371 
L 239.61151 192.917098 
L 241.193457 190.607969 
L 283.219845 213.286004 
L 285.420674 209.595662 
L 259.267283 190.755604 
L 260.771549 187.829523 
L 292.022782 198.459166 
L 293.75307 194.499371 
L 253.781091 174.609704 
L 254.780407 171.864104 
L 287.748761 179.07107 
L 288.871558 175.255247 
L 312.631904 176.951175 
L 313.675744 172.354019 
L 318.418127 168.410279 
L 319.190561 163.635414 
L 278.695162 154.16372 
L 279.039294 150.644876 
L 248.86008 145.585428 
L 248.949243 143.008906 
L 279.406014 140.047821 
L 279.30596 136.513606 
L 264.301926 134.102884 
L 264.022418 131.046514 
L 260.553612 128.431216 
L 260.097627 125.495505 
L 312.337063 111.805588 
L 311.332729 107.249912 
L 242.35148 121.075764 
L 241.673223 118.716005 
L 289.722118 99.823723 
L 288.35223 95.985035 
L 247.142334 108.515972 
L 246.066801 106.011788 
L 241.402573 105.250741 
L 240.227212 102.928642 
L 258.677327 89.477609 
L 256.997483 86.620153 
L 272.224622 72.714894 
L 270.011024 69.439769 
L 255.809879 75.113493 
L 253.679814 72.353297 
L 281.211845 44.379519 
L 278.102876 40.835826 
L 249.032061 62.325184 
L 246.503254 59.784421 
L 234.939881 67.121277 
L 232.568842 65.021231 
L 218.873149 76.986715 
L 216.820244 75.386965 
L 219.671986 66.836469 
L 217.29954 65.21662 
L 214.877336 63.672167 
L 212.407769 62.204637 
L 213.927845 53.233321 
L 211.130527 51.800806 
L 206.998632 53.300864 
L 204.206864 52.086185 
L 203.87492 44.391178 
L 200.804556 43.279121 
L 194.236019 53.451891 
L 191.455309 52.638422 
L 186.630292 60.260604 
L 184.067424 59.68291 
L 189.351527 14.587871 
L 185.351262 13.947197 
L 179.419144 30.503214 
L 175.924204 30.166967 
L 172.724768 23.701819 
L 169.019287 23.579421 
L 165.742697 54.021615 
L 162.993989 54.103758 
L 159.227559 41.038117 
L 156.073843 41.331529 
L 155.980364 63.372543 
L 153.530496 63.757011 
L 145.588792 37.450673 
L 142.329021 38.174691 
L 138.273434 35.98728 
L 134.971268 36.942032 
L 139.008635 59.431545 
L 136.443245 60.35159 
L 135.09984 64.238697 
L 132.687529 65.279266 
L 120.370247 46.049928 
L 117.393325 47.56262 
L 114.465437 49.168166 
L 111.589478 50.864977 
L 118.184922 67.017816 
L 115.868356 68.588853 
L 86.445184 33.992054 
L 83.105909 36.577386 
L 84.915306 45.208043 
L 81.929443 47.835933 
L 77.398933 48.872968 
L 74.53202 51.735377 
L 95.418159 76.24893 
L 93.403097 78.53124 
L 57.964289 54.002817 
L 55.268278 57.473758 
L 52.044201 60.578397 
L 49.557868 64.232227 
L 84.456436 90.82899 
L 82.905222 93.448751 
L 60.741251 85.14516 
L 59.023051 88.513389 
L 56.700121 91.612366 
L 55.187261 95.10446 
L 42.830572 94.498552 
L 41.415319 98.425308 
L 67.734054 110.897542 
L 66.822108 114.033169 
L 19.699208 106.066321 
L 18.659107 110.714658 
L 61.607049 123.052759 
L 61.080318 126.375023 
L 43.584723 127.825363 
L 43.216964 131.711928 
L 46.091302 135.755405 
L 45.971642 139.559238 
L 27.234837 143.659588 
L 27.373025 148.052401 
L 44.773734 151.089618 
L 45.136867 154.927296 
L 68.810235 155.447921 
L 69.298518 158.527684 
L 15.60094 172.8435 
L 16.662487 177.587679 
L 46.489267 174.459299 
L 47.586345 178.231482 
L 84.993711 169.562585 
L 85.917788 172.126526 
L 47.253571 191.109627 
L 48.873794 194.849547 
L 84.960802 181.689358 
L 86.266188 184.248338 
L 46.969958 209.997271 
L 49.184191 213.736769 
L 38.467983 225.985895 
L 41.189137 229.984809 
L 49.651479 229.67331 
L 52.483043 233.318767 
L 101.710186 197.287853 
L 103.497742 199.312483 
L 82.376106 223.575637 
L 84.999766 226.195175 
L 78.779416 238.555892 
L 81.875867 241.281111 
L 107.487964 215.857063 
L 109.856519 217.690845 
L 90.312445 250.771958 
L 93.787293 253.128513 
L 122.178877 214.739175 
L 124.50502 216.111596 
L 107.913486 253.31294 
L 111.459525 255.114824 
L 124.034244 236.868628 
L 127.055268 238.171771 
L 119.661687 267.146842 
L 123.636887 268.572497 
L 131.770378 256.434164 
L 135.40276 257.484392 
L 135.622456 272.849748 
L 139.769076 273.770742 
L 153.530496 219.167179 
L 155.980364 219.551646 
L 158.356564 220.635101 
L 160.8502 220.867101 
L 162.993989 228.820432 
L 165.742697 228.902574 
L 169.518936 288.229928 
L 174.132383 288.077537 
L 174.923473 240.304621 
L 178.027372 240.005996 
L 187.021361 280.569256 
L 191.385286 279.870339 
L 195.565384 278.270265 
L 199.852799 277.303841 
L 201.411295 266.417431 
L 205.323141 265.27306 
L 203.093424 246.289029 
L 206.371557 245.101721 
L 225.822359 282.733694 
L 230.235154 280.813718 
L 211.475451 231.823863 
L 214.294624 230.380157 
L 223.279329 239.68715 
L 226.339904 237.868416 
L 236.653141 247.032753 
L 239.938066 244.789885 
L 252.084442 254.288496 
L 255.589874 251.556847 
L 252.397972 241.012988 
L 255.485838 238.278044 
L 262.843612 239.922853 
L 265.892037 236.860015 
L 243.377033 210.642655 
L 245.514449 208.206366 
L 243.91084 202.783986 
L 245.800898 200.334798 
L 239.933696 192.45927 
L 241.501089 190.140237 
L 283.669277 212.553502 
L 285.846852 208.849391 
L 259.575486 190.174196 
L 261.061319 187.238712 
L 292.378788 197.671591 
L 294.084137 193.700992 
L 253.987854 174.06312 
L 254.969882 171.311289 
L 287.982911 178.310761 
L 289.081687 174.487951 
L 312.85223 176.034406 
L 313.867136 171.430776 
L 318.58462 167.457287 
L 319.327008 162.677659 
L 278.772838 153.460845 
L 279.094832 149.939906 
L 248.884394 145.070368 
L 248.95735 142.493336 
L 279.394896 139.340755 
L 279.272615 135.807238 
L 264.253716 133.490931 
L 263.95499 130.436379 
L 260.469804 127.84295 
L 259.995365 124.910165 
L 312.147666 110.891962 
L 311.114699 106.342693 
L 242.22177 120.602125 
L 241.528686 118.246678 
L 289.457809 99.052569 
L 288.063804 95.222573 
L 246.933536 108.012449 
L 245.842275 105.515079 
L 241.173352 104.783383 
L 239.98341 102.468722 
L 258.34856 88.901914 
L 256.650778 86.055079 
L 271.79016 72.054326 
L 269.556007 68.793188 
L 255.390827 74.556117 
L 253.243444 71.809372 
L 280.598991 43.662987 
L 277.467796 40.138917 
L 248.532712 61.81069 
L 245.987975 59.285881 
L 234.470975 66.695319 
L 232.086775 64.610227 
L 218.466609 76.661613 
L 216.403683 75.074806 
L 219.201591 66.506543 
L 216.819004 64.901648 
L 214.387134 63.372459 
L 211.908386 61.920491 
L 213.372008 52.939791 
L 210.565735 51.524898 
L 206.443357 53.050914 
L 203.644004 51.853818 
L 203.26367 44.161051 
L 200.186372 43.068327 
L 193.681946 53.282208 
L 190.896175 52.486244 
L 186.119192 60.138622 
L 183.552741 59.577058 
L 188.553117 14.449677 
L 184.548902 13.834175 
L 178.72103 30.427174 
L 175.224043 30.112915 
L 171.984009 23.668018 
L 168.277831 23.568928 
L 165.192771 54.031128 
L 162.444633 54.130556 
L 158.596103 41.088863 
L 155.444294 41.402104 
L 155.489442 63.443271 
L 153.042041 63.843139 
L 144.935042 37.58727 
L 141.679889 38.331776 
L 137.610625 36.169915 
L 134.31453 37.145417 
L 138.493263 59.609093 
L 135.93371 60.545254 
L 134.614779 64.440734 
L 132.209061 65.496454 
L 119.771081 46.344965 
L 116.803731 47.876351 
L 113.885999 49.50028 
L 111.020769 51.215145 
L 117.717674 67.326183 
L 115.411036 68.911759 
L 85.770851 34.500699 
L 82.447902 37.106983 
L 84.311546 45.726089 
L 81.34227 48.372706 
L 76.818372 49.438214 
L 73.969518 52.318598 
L 95.009421 76.700305 
L 93.008753 78.995243 
L 57.416376 54.690195 
L 54.742249 58.178023 
L 51.537762 61.302879 
L 49.074459 64.972274 
L 84.139614 91.349019 
L 82.604908 93.978485 
L 60.389151 85.814456 
L 58.692169 89.193426 
L 56.388775 92.306951 
L 54.897909 95.808491 
L 42.537654 95.280312 
L 41.147125 99.215891 
L 67.543784 111.522348 
L 66.651577 114.663649 
L 19.479501 106.993335 
L 18.468656 111.648122 
L 61.493349 123.71586 
L 60.987524 127.041371 
L 43.501396 128.60172 
L 43.158089 132.490522 
L 46.057802 136.515841 
L 45.962068 140.320351 
L 27.251422 144.538464 
L 27.417235 148.930321 
L 44.836703 151.858037 
L 45.223965 155.693355 
L 68.90014 156.065078 
L 69.407783 159.141709 
L 15.801306 173.794968 
L 16.892669 178.532377 
L 46.699184 175.216466 
L 47.819965 178.981675 
L 85.172069 170.077678 
L 86.112254 172.635756 
L 47.568193 191.861657 
L 49.211907 195.591313 
L 85.215431 182.204418 
L 86.536886 184.755137 
L 47.40338 210.750711 
L 49.641088 214.47621 
L 39.002132 226.792492 
L 41.748383 230.774213 
L 50.208598 230.409496 
L 53.063034 234.037072 
L 102.06259 197.69726 
L 103.862844 199.710607 
L 82.894227 224.106125 
L 85.534311 226.70911 
L 79.391826 239.108705 
L 82.505355 241.814395 
L 107.957043 216.229763 
L 110.337085 218.048613 
L 91.001459 251.251992 
L 94.49106 253.586647 
L 122.640634 215.019501 
L 124.975363 216.377264 
L 108.618132 253.682223 
L 112.175435 255.461769 
L 124.635147 237.136847 
L 127.664307 238.420963 
L 120.453109 267.441962 
L 124.437196 268.842587 
L 132.494183 256.65334 
L 136.133099 257.680701 
L 136.44943 273.044372 
L 140.601761 273.939267 
L 154.019483 219.250232 
L 156.47172 219.619285 
L 158.854688 220.687773 
L 161.349734 220.904084 
L 163.543502 228.843775 
L 166.292673 228.908628 
L 170.441972 288.211057 
L 175.054369 288.029654 
L 175.54498 240.252708 
L 178.646938 239.934567 
L 187.89587 280.440457 
L 192.255312 279.714107 
L 196.425264 278.087774 
L 200.706516 277.094405 
L 202.196512 266.198408 
L 206.101083 265.029456 
L 203.752012 246.059824 
L 207.022612 244.851921 
L 226.709714 282.360816 
L 231.110346 280.413124 
L 212.042896 231.542226 
L 214.852932 230.080817 
L 223.895995 239.331117 
L 226.945071 237.49317 
L 237.315743 246.592461 
L 240.586496 244.328978 
L 252.792373 253.751007 
L 256.280555 250.997365 
L 253.022402 240.473789 
L 256.093005 237.719479 
L 263.460979 239.317979 
L 266.490079 236.236028 
L 243.810629 210.160794 
L 245.932679 207.71111 
L 244.294999 202.298923 
L 246.169615 199.837896 
L 240.252997 191.999425 
L 241.805773 189.67058 
L 284.114094 211.818187 
L 286.268329 208.100454 
L 259.880026 189.59086 
L 261.347367 186.646089 
L 292.729834 196.881793 
L 294.410176 192.900547 
L 254.191175 173.515246 
L 255.155876 170.757294 
L 288.212275 177.548993 
L 289.286986 173.719348 
L 313.066785 175.11627 
L 314.052716 170.506347 
L 318.745117 166.503267 
L 319.457429 161.719064 
L 278.846092 152.757495 
L 279.145935 149.234601 
L 248.905468 144.555166 
L 248.962215 141.977726 
L 279.37933 138.633772 
L 279.234828 135.101094 
L 264.201658 132.879293 
L 263.883727 129.82668 
L 260.382298 127.255222 
L 259.889423 124.325479 
L 311.952526 109.979545 
L 310.890967 105.436863 
L 242.089085 120.12931 
L 241.381199 117.778269 
L 289.188655 98.283093 
L 287.770589 94.46194 
L 246.721576 107.510249 
L 245.614629 105.019792 
L 240.941197 104.317475 
L 239.73672 102.010344 
L 258.016179 88.328298 
L 256.300526 85.492198 
L 271.351551 71.396503 
L 269.096932 68.149481 
L 254.968277 74.001387 
L 252.803661 71.268203 
L 279.981643 42.950323 
L 276.828346 39.446017 
L 248.030136 61.299346 
L 245.469571 58.790592 
L 233.9994 66.272319 
L 231.602132 64.202264 
L 218.058032 76.339074 
L 215.985167 74.765273 
L 218.72913 66.179583 
L 216.336497 64.589704 
L 213.895057 63.075841 
L 211.407226 61.639491 
L 212.814335 52.649764 
L 209.999219 51.252549 
L 205.88652 52.804462 
L 203.079693 51.624996 
L 202.650983 43.934773 
L 199.566874 42.861425 
L 193.126816 53.116013 
L 190.336094 52.337586 
L 185.607335 60.019857 
L 183.037403 59.474446 
L 187.753854 14.316508 
L 183.745848 13.726202 
L 178.022451 30.355527 
L 174.523557 30.063268 
L 171.243052 23.638877 
L 167.536324 23.563098 
L 164.642915 54.044099 
L 161.895457 54.16081 
L 157.964978 41.143579 
L 154.815201 41.476637 
L 154.998976 63.517084 
L 152.554137 63.932337 
L 144.282164 37.727976 
L 141.031759 38.49294 
L 136.948978 36.356715 
L 133.659083 37.352929 
L 137.979017 59.789878 
L 135.425403 60.742119 
L 134.130998 64.645817 
L 131.731968 65.716648 
L 119.173782 46.643765 
L 116.216122 48.193783 
L 113.308662 49.836031 
L 110.454274 51.568883 
L 117.252376 67.637482 
L 114.955755 69.237534 
L 85.09973 35.013575 
L 81.79324 37.640707 
L 83.711056 46.247921 
L 80.758484 48.913161 
L 76.241377 50.007101 
L 73.410695 52.905345 
L 94.603529 77.154241 
L 92.617334 79.461717 
L 56.872797 55.381005 
L 54.220659 58.885584 
L 51.035889 62.030532 
L 48.595713 65.715347 
L 83.82607 91.87103 
L 82.307932 94.510097 
L 60.041267 86.485954 
L 58.36557 89.87553 
L 56.081805 93.00348 
L 54.612991 96.514328 
L 42.249658 96.063898 
L 40.883909 100.008145 
L 67.357446 112.148339 
L 66.485014 115.295189 
L 19.26563 107.921712 
L 18.284081 112.582765 
L 61.383821 124.379664 
L 60.898922 127.70829 
L 43.422954 129.378586 
L 43.104112 133.26947 
L 46.029084 137.276472 
L 45.957281 141.081508 
L 27.273534 145.417217 
L 27.466967 149.807945 
L 44.904503 152.626044 
L 45.31588 156.458851 
L 68.993924 156.681657 
L 69.520908 159.755034 
L 16.007651 174.745158 
L 17.128789 179.475609 
L 46.913858 175.972297 
L 48.058299 179.730383 
L 85.353663 170.591638 
L 86.309918 173.143752 
L 47.88754 192.611694 
L 49.554678 196.330938 
L 85.473295 182.717866 
L 86.810766 185.260223 
L 47.841531 211.501411 
L 50.102626 215.212762 
L 39.541343 227.595714 
L 42.312582 231.560083 
L 50.770336 231.142164 
L 53.647532 234.751715 
L 102.417561 198.104443 
L 104.230442 200.106428 
L 83.415674 224.633343 
L 86.072077 227.219672 
L 80.0077 239.657654 
L 83.138185 242.343709 
L 108.428456 216.599507 
L 110.819891 218.403351 
L 91.693478 251.727684 
L 95.197693 254.040344 
L 123.104146 215.296916 
L 125.447368 216.639969 
L 109.325088 254.047068 
L 112.893512 255.804205 
L 125.237724 237.40128 
L 128.274901 238.66632 
L 121.246371 267.732099 
L 125.239189 269.107639 
L 133.219353 256.867959 
L 136.864658 257.872413 
L 137.277612 273.23379 
L 141.435489 274.102552 
L 154.508983 219.330209 
L 156.963493 219.683831 
L 159.353133 220.73731 
L 161.849491 220.937926 
L 164.093151 228.863662 
L 166.842676 228.911223 
L 171.364871 288.186382 
L 175.976036 287.975973 
L 176.166147 240.196886 
L 179.266044 239.859242 
L 188.769551 280.306161 
L 193.124339 279.552407 
L 197.28398 277.899879 
L 201.5589 276.879602 
L 202.980337 265.97445 
L 206.877478 264.780964 
L 204.409145 245.826481 
L 207.672084 244.598032 
L 227.594705 281.982364 
L 231.983001 280.007034 
L 212.608557 231.257025 
L 215.409347 229.777972 
L 224.51041 238.971214 
L 227.547866 237.114126 
L 237.975562 246.148011 
L 241.232015 243.864001 
L 253.496909 253.209076 
L 256.967703 250.43355 
L 253.643427 239.930674 
L 256.696646 237.157106 
L 264.074528 238.709234 
L 267.084185 235.608293 
L 244.241185 209.676215 
L 246.347786 207.213233 
L 244.676099 201.811453 
L 246.5352 199.338685 
L 240.569399 191.537581 
L 242.107497 189.199016 
L 284.554277 211.08009 
L 286.685088 207.348882 
L 260.180891 189.005621 
L 261.629683 186.051679 
L 293.075905 196.089803 
L 294.731175 192.098068 
L 254.391046 172.966105 
L 255.338383 170.202139 
L 288.436843 176.785798 
L 289.487446 172.949469 
L 313.275561 174.196802 
L 314.232479 169.58077 
L 318.89961 165.548256 
L 319.581818 160.759668 
L 278.914921 152.053698 
L 279.192601 148.528988 
L 248.923301 144.039841 
L 279.414909 141.462095 
z
" clip-path="url(#p7b07a13dd1)" style="fill: #0000ff; opacity: 0.5; stroke: #000000; stroke-width: 1.5; stroke-linejoin: miter"/>
   </g>
  </g>
 </g>
 <defs>
  <clipPath id="p7b07a13dd1">
   <rect x="0" y="0" width="334.8" height="301.976453"/>
  </clipPath>
 </defs>
</svg>
