<?xml version="1.0" encoding="utf-8" standalone="no"?>
<!DOCTYPE svg PUBLIC "-//W3C//DTD SVG 1.1//EN"
  "http://www.w3.org/Graphics/SVG/1.1/DTD/svg11.dtd">
<svg xmlns:xlink="http://www.w3.org/1999/xlink" width="318.74775pt" height="332.64pt" viewBox="0 0 318.74775 332.64" xmlns="http://www.w3.org/2000/svg" version="1.1">
 <metadata>
  <rdf:RDF xmlns:dc="http://purl.org/dc/elements/1.1/" xmlns:cc="http://creativecommons.org/ns#" xmlns:rdf="http://www.w3.org/1999/02/22-rdf-syntax-ns#">
   <cc:Work>
    <dc:type rdf:resource="http://purl.org/dc/dcmitype/StillImage"/>
    <dc:date>2023-12-09T18:06:18.069345</dc:date>
    <dc:format>image/svg+xml</dc:format>
    <dc:creator>
     <cc:Agent>
      <dc:title>Matplotlib v3.8.2, https://matplotlib.org/</dc:title>
     </cc:Agent>
    </dc:creator>
   </cc:Work>
  </rdf:RDF>
 </metadata>
 <defs>
  <style type="text/css">*{stroke-linejoin: round; stroke-linecap: butt}</style>
 </defs>
 <g id="figure_1">
  <g id="patch_1">
   <path d="M 0 332.64 
L 318.74775 332.64 
L 318.74775 0 
L 0 0 
L 0 332.64 
z
" style="fill: none"/>
  </g>
  <g id="axes_1">
   <g id="patch_2">
    <path d="M 262.895603 169.753473 
L 262.847818 166.714667 
L 286.6193 162.172764 
L 286.321431 158.391781 
L 286.697255 154.521824 
L 286.158785 150.742173 
L 290.209118 146.08242 
L 289.403559 142.19652 
L 253.664436 147.285352 
L 252.914768 144.547903 
L 249.041126 142.823629 
L 248.153458 140.233753 
L 299.904974 116.776655 
L 298.173183 112.600386 
L 304.259216 104.736182 
L 302.146693 100.428959 
L 264.212711 115.832814 
L 262.468891 112.779255 
L 265.349009 106.783463 
L 263.320096 103.69865 
L 257.965702 103.028623 
L 255.822379 100.177814 
L 252.975393 97.905366 
L 250.673451 95.213996 
L 272.725422 69.613358 
L 269.524153 66.314993 
L 243.822532 87.009716 
L 241.182532 84.61152 
L 249.148891 69.363889 
L 245.951434 66.806945 
L 240.799654 66.938344 
L 237.53006 64.645117 
L 232.480752 65.155139 
L 229.159204 63.124358 
L 224.239259 64.000424 
L 220.885479 62.229345 
L 223.923764 46.825593 
L 220.030126 45.072926 
L 213.151828 50.873545 
L 209.390792 49.457569 
L 193.539554 85.398382 
L 190.873752 84.581989 
L 201.819123 30.45025 
L 197.421537 29.400697 
L 191.358713 37.122705 
L 187.176095 36.398751 
L 177.62883 78.606238 
L 174.757334 78.293471 
L 172.807472 62.92363 
L 169.445264 62.770212 
L 166.108782 81.093558 
L 163.321188 81.141777 
L 156.26558 15.12 
L 151.408501 15.51033 
L 148.696631 32.690845 
L 144.39576 33.310472 
L 141.3249 40.339632 
L 137.268168 41.18726 
L 143.242546 80.826098 
L 140.457849 81.593414 
L 125.782328 46.007324 
L 121.911486 47.340843 
L 113.947726 38.406374 
L 109.843744 40.115757 
L 121.164856 74.444894 
L 118.190436 75.909536 
L 122.21599 90.051498 
L 119.731756 91.475374 
L 103.122432 70.751787 
L 100.040813 72.785548 
L 98.437389 76.850672 
L 95.549849 79.028726 
L 68.226897 51.810833 
L 64.566986 54.951151 
L 86.221509 84.930149 
L 83.594045 87.488302 
L 107.89211 115.215344 
L 106.206165 117.077152 
L 71.895236 92.086964 
L 69.499882 95.092028 
L 84.031882 110.335277 
L 82.204294 112.949716 
L 66.949833 107.09542 
L 65.028822 110.248558 
L 58.301223 110.779921 
L 56.500337 114.203168 
L 35.269757 108.551818 
L 33.410202 112.700327 
L 61.420388 128.584418 
L 60.177773 131.900788 
L 76.527898 140.882068 
L 75.664478 143.717345 
L 55.535218 141.668388 
L 54.706901 145.163333 
L 87.745177 155.018592 
L 87.320694 157.494184 
L 42.580859 154.509817 
L 42.16271 158.405725 
L 37.880695 162.074374 
L 37.702716 166.114326 
L 14.488534 170.230719 
L 14.578574 175.002139 
L 82.563412 175.288021 
L 82.778806 177.916517 
L 63.274014 183.104434 
L 63.744711 186.335567 
L 36.089607 195.0325 
L 36.948789 199.112473 
L 78.903028 192.496384 
L 79.661301 195.231463 
L 48.636119 208.418256 
L 49.909975 212.09712 
L 75.771953 205.944686 
L 76.954618 208.771563 
L 48.644213 225.609543 
L 50.458597 229.279653 
L 91.505269 211.199514 
L 92.845379 213.529103 
L 90.894049 217.967831 
L 92.447271 220.313292 
L 65.074702 243.845254 
L 67.454333 246.989737 
L 88.336089 234.71306 
L 90.417083 237.130669 
L 61.246631 269.129854 
L 64.423158 272.382199 
L 106.357252 234.039409 
L 108.408154 235.890726 
L 106.463021 242.616511 
L 108.783554 244.460262 
L 93.42094 270.858217 
L 96.635903 273.098076 
L 116.927006 248.189007 
L 119.417577 249.700992 
L 120.045244 254.641699 
L 122.737159 256.05245 
L 105.589547 300.103805 
L 109.718038 301.946597 
L 127.570489 268.694534 
L 130.700536 269.861727 
L 122.178834 307.444737 
L 126.529938 308.762295 
L 142.826396 262.696404 
L 145.760305 263.386883 
L 149.883389 257.702686 
L 152.656796 258.173746 
L 153.51426 274.415211 
L 156.81135 274.763846 
L 157.656318 317.270185 
L 162.298814 317.467396 
L 166.937681 315.921079 
L 171.53317 315.82713 
L 171.698459 250.241788 
L 174.226494 250.030623 
L 176.954529 251.32397 
L 179.51399 250.947008 
L 188.047457 281.059808 
L 191.536394 280.319358 
L 204.921836 317.329356 
L 209.542824 316.040406 
L 199.08242 269.103137 
L 202.189957 268.021635 
L 204.964138 266.10182 
L 207.974398 264.836868 
L 215.06911 272.129378 
L 218.263894 270.543723 
L 216.745914 260.483338 
L 219.573692 258.850719 
L 243.925874 290.736351 
L 247.691435 288.234177 
L 232.932001 260.511546 
L 235.752663 258.369988 
L 222.618435 237.147842 
L 224.709591 235.342116 
L 225.643032 232.313023 
L 227.580675 230.414587 
L 224.190212 223.564276 
L 225.853493 221.715846 
L 250.952445 239.031965 
L 253.088832 236.334424 
L 236.32297 220.062216 
L 237.87014 217.834037 
L 252.206372 223.616573 
L 253.857446 220.887228 
L 248.400336 214.299929 
L 249.760356 211.694861 
L 274.228114 219.795626 
L 275.74816 216.375758 
L 274.182431 211.751229 
L 275.449567 208.336775 
L 301.725252 212.879429 
L 303.014243 208.598411 
L 278.59859 197.878184 
L 279.427344 194.331736 
L 280.144179 190.760983 
L 280.748388 187.169457 
L 254.275922 180.32315 
L 254.564733 177.550139 
L 281.87984 176.305834 
L 282.028689 172.666882 
L 262.893691 169.145616 
L 262.826795 166.10717 
L 286.569241 161.415848 
L 286.247598 157.636813 
L 286.599074 153.764569 
L 286.036843 149.988379 
L 290.057789 145.303244 
L 289.227805 141.422488 
L 253.521395 146.735998 
L 252.754525 144.003318 
L 248.870115 142.303441 
L 247.966176 139.719199 
L 299.569136 115.937078 
L 297.811113 111.771783 
L 303.847564 103.869457 
L 301.707994 99.575606 
L 263.871643 115.21774 
L 262.108652 112.175208 
L 264.951003 106.161421 
L 262.902728 103.089429 
L 257.544227 102.453091 
L 255.383016 99.615819 
L 252.521794 97.361322 
L 250.20297 94.684484 
L 272.093492 68.945658 
L 268.87154 65.667492 
L 243.300586 86.523454 
L 240.645555 84.141909 
L 248.515858 68.844476 
L 245.302382 66.307693 
L 240.15153 66.471491 
L 236.867579 64.198873 
L 231.821578 64.740643 
L 228.487323 62.730793 
L 223.572985 63.637785 
L 220.208132 61.887834 
L 223.149477 46.465278 
L 219.244892 44.737134 
L 212.403213 50.580899 
L 208.633346 49.188606 
L 193.008469 85.228403 
L 190.337584 84.428793 
L 200.942281 30.229284 
L 196.538181 29.20741 
L 190.524044 36.967397 
L 186.336956 36.269764 
L 177.05534 78.536463 
L 174.181934 78.241762 
L 172.135443 62.884489 
L 168.772337 62.75222 
L 165.551164 81.096188 
L 162.763929 81.161939 
L 155.293221 15.185843 
L 150.438693 15.606714 
L 147.834932 32.803945 
L 143.538043 33.45061 
L 140.511453 40.498945 
L 136.460132 41.372071 
L 142.683698 80.97255 
L 139.903882 81.757365 
L 125.004835 46.264279 
L 121.142456 47.622117 
L 113.122661 38.737912 
L 109.029512 40.473073 
L 120.566311 74.730327 
L 117.601161 76.213648 
L 121.715581 90.330012 
L 119.240351 91.769484 
L 102.501016 71.15077 
L 99.43225 73.203873 
L 97.854424 77.279001 
L 94.98064 79.475172 
L 67.487043 52.429664 
L 63.846956 55.592939 
L 85.689601 85.435149 
L 83.078279 88.009777 
L 107.55025 115.583449 
L 105.876048 117.455824 
L 71.408624 92.681927 
L 69.032217 95.701997 
L 83.659802 110.853546 
L 81.848693 113.479428 
L 66.557713 107.72119 
L 64.656572 110.886347 
L 57.932448 111.460013 
L 56.153128 114.894519 
L 34.887424 109.376809 
L 33.053998 113.536931 
L 61.163532 129.244539 
L 59.941799 132.56866 
L 76.348088 141.446928 
L 75.502518 144.28758 
L 55.360769 142.365265 
L 54.554449 145.86535 
L 87.654056 155.512623 
L 87.245151 157.990836 
L 42.487431 155.287916 
L 42.093793 159.186377 
L 37.834937 162.881885 
L 37.68237 166.922876 
L 14.494537 171.185192 
L 14.614585 175.955951 
L 82.599876 175.814241 
L 82.831798 178.441331 
L 63.360021 183.751819 
L 63.85103 186.979927 
L 36.251172 195.850624 
L 37.135997 199.925112 
L 79.047796 193.045286 
L 79.823255 195.775541 
L 48.881625 209.157204 
L 50.178594 212.827984 
L 76.001364 206.513015 
L 77.201786 209.332397 
L 48.997843 226.348101 
L 50.835273 230.006727 
L 91.76742 211.668785 
L 93.122154 213.9899 
L 91.19878 218.440812 
L 92.766723 220.776458 
L 65.542698 244.480112 
L 67.942059 247.609567 
L 88.746189 235.201798 
L 90.842347 237.606271 
L 61.873729 269.788289 
L 65.070649 273.020591 
L 106.762759 234.414818 
L 108.825264 236.253199 
L 106.92247 242.991084 
L 109.254554 244.820204 
L 94.058272 271.31426 
L 97.287259 273.533854 
L 117.421296 248.497658 
L 119.921328 249.993949 
L 120.580056 254.93061 
L 123.280792 256.324402 
L 106.410576 300.482735 
L 110.550576 302.299525 
L 128.193537 268.935838 
L 131.330863 270.083321 
L 123.045706 307.719184 
L 127.40501 309.009351 
L 143.411417 262.841876 
L 146.349612 263.513888 
L 150.436863 257.803871 
L 153.213178 258.257479 
L 154.172775 274.49323 
L 157.471993 274.821121 
L 158.584284 317.321305 
L 163.227929 317.489313 
L 167.856979 315.913851 
L 172.451786 315.791001 
L 172.204578 250.205917 
L 174.731234 249.978857 
L 177.467349 251.25502 
L 180.024389 250.861968 
L 188.74708 280.920501 
L 192.23129 280.158123 
L 205.84924 317.083202 
L 210.46203 315.765214 
L 199.706624 268.894663 
L 202.807297 267.793638 
L 205.569348 265.856413 
L 208.571594 264.572553 
L 215.712031 271.820297 
L 218.896779 270.21458 
L 217.315554 260.163941 
L 220.133008 258.51357 
L 244.685251 290.24541 
L 248.435 287.719602 
L 233.501499 260.090348 
L 236.308636 257.931091 
L 223.041192 236.791972 
L 225.12095 234.97313 
L 226.035321 231.938225 
L 227.960986 230.027641 
L 224.527505 223.198789 
L 226.179128 221.339935 
L 251.386492 238.497853 
L 253.505871 235.786929 
L 236.637998 219.62049 
L 238.171123 217.382625 
L 252.543441 223.074879 
L 254.177316 220.335204 
L 248.678883 213.782358 
L 250.022491 211.168787 
L 274.540715 219.115504 
L 276.039222 215.686143 
L 274.444438 211.071553 
L 275.690074 207.649197 
L 301.993811 212.026502 
L 303.255851 207.737462 
L 278.773257 197.171008 
L 279.579689 193.619417 
L 280.274052 190.044226 
L 280.85566 186.448971 
L 254.340659 179.769296 
L 254.612023 176.994524 
L 281.918763 175.578447 
L 282.044722 171.938631 
L 262.887957 168.537783 
L 262.801951 165.499818 
L 286.514422 160.659262 
L 286.169017 156.882324 
L 286.496133 153.007947 
L 285.910163 149.235367 
L 289.901562 144.525035 
L 289.047187 140.649576 
L 253.374902 146.187554 
L 252.59086 143.459751 
L 248.695836 141.784339 
L 247.775661 139.205833 
L 299.228024 115.099629 
L 297.443839 110.945474 
L 303.43047 103.005338 
L 301.263935 98.725029 
L 263.526713 114.604822 
L 261.744621 111.573439 
L 264.549093 105.541894 
L 262.481537 102.482846 
L 257.11914 101.880222 
L 254.940127 99.056599 
L 252.064782 96.820142 
L 249.729168 94.15794 
L 271.457374 68.281944 
L 268.214869 65.024107 
L 242.775592 86.040484 
L 240.105635 83.675685 
L 247.87957 68.329055 
L 244.650204 65.812532 
L 239.500483 66.008723 
L 236.202303 63.756805 
L 231.15981 64.3303 
L 227.81298 62.341461 
L 222.904444 63.279343 
L 219.528651 61.55059 
L 222.372939 46.10984 
L 218.457562 44.406287 
L 211.652772 50.292967 
L 207.874223 48.924412 
L 192.476325 85.061768 
L 189.800464 84.278972 
L 200.064067 30.013837 
L 195.653627 29.019683 
L 189.688414 36.817342 
L 185.497022 36.146057 
L 176.481423 78.470296 
L 173.606221 78.193674 
L 171.463181 62.849575 
L 168.09931 62.738461 
L 164.993573 81.102325 
L 162.206807 81.185605 
L 154.321295 15.257801 
L 149.469509 15.709196 
L 146.973962 32.922463 
L 142.681225 33.59614 
L 139.699024 40.663371 
L 135.653275 41.56196 
L 142.125782 81.122513 
L 139.350958 81.924796 
L 124.228974 46.526119 
L 120.375211 47.908222 
L 112.299699 39.074633 
L 108.217543 40.835503 
L 119.969572 75.01952 
L 117.013811 76.52146 
L 121.216933 90.611668 
L 118.750806 92.066679 
L 101.882122 71.553654 
L 98.826329 73.626017 
L 97.274165 77.710988 
L 94.41425 79.925191 
L 66.751096 53.053136 
L 63.130976 56.239243 
L 85.16088 85.943485 
L 82.565802 88.534486 
L 107.210713 115.953697 
L 105.548319 117.836565 
L 70.925764 93.279939 
L 68.568398 96.314895 
L 83.290988 111.374145 
L 81.49643 114.011366 
L 66.169537 108.349413 
L 64.28834 111.526465 
L 57.567957 112.14241 
L 55.810274 115.58804 
L 34.510287 110.204188 
L 32.703062 114.375759 
L 60.910832 129.906264 
L 59.71003 133.238002 
L 76.171834 142.012909 
L 75.344146 144.858823 
L 55.190706 143.063226 
L 54.406416 146.568313 
L 87.566043 156.007217 
L 87.172734 158.487953 
L 42.398899 156.066587 
L 42.029788 159.967447 
L 37.794258 163.689667 
L 37.66711 167.731538 
L 14.506543 172.139608 
L 14.656594 176.909518 
L 82.639649 176.340222 
L 82.88809 178.965801 
L 63.450097 184.398651 
L 63.9614 187.623607 
L 36.417879 196.667715 
L 37.328314 200.736558 
L 79.196013 193.593266 
L 79.988629 196.31859 
L 49.131773 209.894594 
L 50.451803 213.557144 
L 76.234346 207.079889 
L 77.452476 209.891666 
L 49.35611 227.08442 
L 51.216515 230.731417 
L 92.032517 212.136398 
L 93.401823 214.448946 
L 91.50648 218.911868 
L 93.089082 221.237605 
L 66.014678 245.112015 
L 68.433674 248.226316 
L 89.159355 235.687947 
L 91.270594 238.079189 
L 62.504956 270.442767 
L 65.722142 273.654897 
L 107.170619 234.787668 
L 109.244646 236.613042 
L 107.384267 243.362761 
L 109.727808 245.177177 
L 94.69846 271.766285 
L 97.941342 273.965527 
L 117.917519 248.803194 
L 120.426911 250.283732 
L 121.116676 255.216152 
L 123.826124 256.592931 
L 107.233973 300.856494 
L 111.385317 302.64721 
L 128.818091 269.173219 
L 131.962572 270.300947 
L 123.914286 307.988175 
L 128.281619 309.250898 
L 143.997342 262.983665 
L 146.939705 263.637185 
L 150.990963 257.901574 
L 153.770076 258.337712 
L 154.831767 274.567106 
L 158.132982 274.87424 
L 159.512554 317.366588 
L 164.157164 317.505387 
L 168.776213 315.900842 
L 173.370156 315.749096 
L 172.71046 250.166863 
L 175.235638 249.923916 
L 177.979726 251.182846 
L 180.534243 250.773719 
L 189.445812 280.776797 
L 192.925159 279.99252 
L 206.775077 316.831219 
L 211.379486 315.484246 
L 200.329504 268.682268 
L 203.423191 267.561763 
L 206.173004 265.607204 
L 209.167115 264.304488 
L 216.352995 271.507178 
L 219.527581 269.881464 
L 217.883175 259.840968 
L 220.690193 258.172909 
L 245.441526 289.749702 
L 249.175315 287.20036 
L 234.068336 259.665576 
L 236.861838 257.488707 
L 223.461703 236.43345 
L 225.52998 234.601564 
L 226.425245 231.560968 
L 228.338855 229.63831 
L 224.862493 222.831188 
L 226.502392 220.961983 
L 251.817171 237.961022 
L 253.919458 235.236822 
L 236.950241 219.176792 
L 238.469261 216.929328 
L 252.877095 222.531076 
L 254.493707 219.781179 
L 248.954169 213.263044 
L 250.281313 210.641075 
L 274.849032 218.433429 
L 276.325941 214.994712 
L 274.702166 210.390243 
L 275.926252 206.96012 
L 302.256999 211.171903 
L 303.492039 206.87501 
L 278.943472 196.462746 
L 279.72755 192.906154 
L 280.399414 189.326667 
L 280.958398 185.727825 
L 254.40191 179.215047 
L 254.655817 176.438622 
L 281.953111 174.85083 
L 282.056175 171.210293 
L 262.878399 167.929997 
L 262.773289 164.892633 
L 286.454846 159.903035 
L 286.085693 156.128345 
L 286.388435 152.251986 
L 285.778749 148.483167 
L 289.740444 143.747825 
L 288.861711 139.877816 
L 253.224963 145.640043 
L 252.42378 142.917225 
L 248.518295 141.266343 
L 247.581921 138.693676 
L 298.881652 114.264342 
L 297.071375 110.121491 
L 303.007949 102.143859 
L 300.814536 97.877261 
L 263.177935 113.994086 
L 261.376813 110.973971 
L 264.143294 104.924907 
L 262.05654 101.878923 
L 256.690458 101.310038 
L 254.493729 98.500175 
L 251.604375 96.281847 
L 249.252064 93.634388 
L 270.817095 67.622245 
L 267.554164 64.384866 
L 242.247571 85.560826 
L 239.562794 83.212866 
L 247.240054 67.817646 
L 243.994923 65.321484 
L 238.846539 65.55006 
L 235.534261 63.31893 
L 230.495474 63.924128 
L 227.136202 61.956378 
L 222.233661 62.925113 
L 218.847063 61.217626 
L 221.59418 45.759292 
L 217.668167 44.080399 
L 210.900535 50.009761 
L 207.113453 48.664998 
L 191.943143 84.898483 
L 189.262412 84.132532 
L 199.184515 29.803918 
L 194.76791 28.837523 
L 188.851858 36.672545 
L 184.656326 36.027635 
L 175.907101 78.40774 
L 173.030216 78.149207 
L 170.790713 62.81889 
L 167.42621 62.728935 
L 164.436033 81.11197 
L 161.649846 81.212775 
L 153.349841 15.33587 
L 148.50099 15.817771 
L 146.113753 33.046393 
L 141.825338 33.747055 
L 138.887646 40.832903 
L 134.847628 41.75692 
L 141.568821 81.275982 
L 138.799097 82.095701 
L 123.454775 46.792833 
L 119.609781 48.199147 
L 111.47887 39.416523 
L 107.40787 41.203033 
L 119.374665 75.31246 
L 116.428408 76.832961 
L 120.720067 90.896454 
L 118.263139 92.366947 
L 101.265774 71.960422 
L 98.223075 74.051963 
L 96.696634 78.146616 
L 93.850702 80.378762 
L 66.019085 53.681225 
L 62.419075 56.890037 
L 84.635366 86.455136 
L 82.056636 89.062407 
L 106.87351 116.326074 
L 105.222992 118.21936 
L 70.446674 93.880975 
L 68.108443 96.930698 
L 82.925456 111.897054 
L 81.14752 114.545509 
L 65.78532 108.980066 
L 63.924142 112.168886 
L 57.207766 112.827087 
L 55.471788 116.283703 
L 34.138362 111.033922 
L 32.357409 115.216777 
L 60.662299 130.569564 
L 59.482475 133.908789 
L 75.999143 142.579987 
L 75.189371 145.43105 
L 55.025036 143.762243 
L 54.262806 147.272193 
L 87.481143 156.502355 
L 87.103444 158.985515 
L 42.315266 156.845799 
L 41.970696 160.748904 
L 37.758661 164.497689 
L 37.656937 168.54028 
L 14.524552 173.09393 
L 14.7046 177.862802 
L 82.68273 176.865942 
L 82.947679 179.489907 
L 63.54424 185.044903 
L 64.075816 188.266579 
L 36.589722 197.483742 
L 37.52573 201.546778 
L 79.347673 194.140304 
L 80.157415 196.860589 
L 49.386554 210.630396 
L 50.729594 214.284571 
L 76.470888 207.645287 
L 77.706679 210.449347 
L 49.719001 227.818471 
L 51.602307 231.453695 
L 92.300549 212.602334 
L 93.684373 214.906224 
L 91.817137 219.380978 
L 93.414335 221.696716 
L 66.490623 245.740936 
L 68.929159 248.839962 
L 89.57557 236.171488 
L 91.701807 238.549404 
L 63.140287 271.093261 
L 66.377611 274.285094 
L 107.580815 235.157946 
L 109.666282 236.970239 
L 107.848392 243.731526 
L 110.203298 245.531166 
L 95.341478 272.214274 
L 98.598128 274.393077 
L 118.415652 249.105603 
L 120.934307 250.570329 
L 121.65508 255.498314 
L 124.373134 256.858024 
L 108.059704 301.225067 
L 112.222229 302.989638 
L 129.444125 269.406666 
L 132.595636 270.514595 
L 124.784542 308.251697 
L 129.15973 309.486927 
L 144.584147 263.121766 
L 147.530562 263.756767 
L 151.545666 257.99579 
L 154.327467 258.41444 
L 155.491212 274.636836 
L 158.794293 274.923201 
L 160.44109 317.406032 
L 165.086481 317.515616 
L 169.695347 315.882051 
L 174.288245 315.701415 
L 173.216087 250.124628 
L 175.739687 249.865805 
L 178.491638 251.10745 
L 181.043532 250.682266 
L 190.143627 280.628701 
L 193.617973 279.822556 
L 207.699311 316.573419 
L 212.295158 315.197513 
L 200.951036 268.465959 
L 204.037614 267.326019 
L 206.77508 265.354204 
L 209.760938 264.032682 
L 216.991977 271.190035 
L 220.156275 269.544386 
L 218.448753 259.514431 
L 221.245225 257.828751 
L 246.194668 289.249247 
L 249.912349 286.676473 
L 234.632491 259.237247 
L 237.412246 257.042852 
L 223.879951 236.072291 
L 225.936665 234.227432 
L 226.812789 231.181266 
L 228.714269 229.246611 
L 225.195163 222.461488 
L 226.823273 220.582005 
L 252.244466 237.421492 
L 254.329577 234.684124 
L 237.259687 218.731138 
L 238.764542 216.474165 
L 253.207323 221.985185 
L 254.806608 219.225175 
L 249.226184 212.74201 
L 250.536811 210.111745 
L 275.153053 217.749428 
L 276.608306 214.30149 
L 274.955603 209.707325 
L 276.158091 206.269572 
L 302.514808 210.315666 
L 303.722798 206.01109 
L 279.109229 195.753429 
L 279.870923 192.191975 
L 280.52026 188.608333 
L 281.056599 185.006047 
L 254.459674 178.660423 
L 254.696114 175.882456 
L 281.982882 174.12301 
L 282.063047 170.481898 
L 262.86502 167.322284 
L 262.740808 164.285641 
L 286.390515 159.147198 
L 285.997629 155.374904 
L 286.275984 151.496718 
L 285.642606 147.731808 
L 289.57444 142.971643 
L 288.671385 139.107237 
L 253.071583 145.093485 
L 252.253291 142.37576 
L 248.3375 140.749474 
L 247.384964 138.182747 
L 298.530034 113.43125 
L 296.693736 109.299866 
L 302.580017 101.285055 
L 300.359814 97.032336 
L 262.825323 113.385556 
L 261.005242 110.376829 
L 263.733623 104.310484 
L 261.627753 101.277685 
L 256.258199 100.742561 
L 254.043841 97.94657 
L 251.140592 95.746458 
L 248.771676 93.113846 
L 270.172679 66.966586 
L 266.889451 63.749793 
L 241.716544 85.084498 
L 239.017052 82.753471 
L 246.597333 67.310269 
L 243.336568 64.834567 
L 238.189723 65.095518 
L 234.863477 62.885265 
L 229.828597 63.522142 
L 226.457015 61.575558 
L 221.560664 62.575109 
L 218.163394 60.888956 
L 220.813232 45.41365 
L 216.876737 43.759482 
L 210.146532 49.731291 
L 206.351067 48.410373 
L 191.408945 84.738555 
L 188.723449 83.989479 
L 198.30366 29.599535 
L 193.881064 28.660937 
L 188.014407 36.533013 
L 183.814902 35.914504 
L 175.332397 78.348798 
L 172.453943 78.108363 
L 170.118065 62.792435 
L 166.753063 62.723642 
L 163.878564 81.12512 
L 161.093066 81.243447 
L 152.378896 15.420048 
L 147.533173 15.932435 
L 145.254341 33.175731 
L 140.970418 33.903351 
L 138.077349 41.007535 
L 134.043223 41.956944 
L 141.012836 81.432951 
L 138.248322 82.270074 
L 122.682269 47.064411 
L 118.846196 48.49488 
L 110.660207 39.763569 
L 106.600524 41.575647 
L 118.781611 75.609136 
L 115.844976 77.148137 
L 120.225001 91.18436 
L 117.777371 92.670277 
L 100.651996 72.371059 
L 97.622512 74.481696 
L 96.121855 78.585867 
L 93.290018 80.835869 
L 65.291039 54.313905 
L 61.711282 57.545295 
L 84.113081 86.970082 
L 81.5508 89.59352 
L 106.538656 116.700563 
L 104.900079 118.604193 
L 69.971374 94.485013 
L 67.65237 97.549382 
L 82.56322 112.422251 
L 80.801977 115.081836 
L 65.405076 109.613122 
L 63.563992 112.813586 
L 56.851888 113.514015 
L 55.137684 116.981481 
L 33.771662 111.86598 
L 32.017052 116.059953 
L 60.417943 131.234414 
L 59.259144 134.580994 
L 75.830023 143.14814 
L 75.038198 146.004239 
L 54.863766 144.462287 
L 54.123627 147.976962 
L 87.399359 156.998017 
L 87.037285 159.483504 
L 42.236535 157.625523 
L 41.916521 161.530717 
L 37.728147 165.30592 
L 37.65185 169.34907 
L 14.548563 174.04812 
L 14.7586 178.815765 
L 82.729116 177.391381 
L 83.010563 180.013627 
L 63.642446 185.69055 
L 64.194274 188.908819 
L 36.766694 198.298672 
L 37.728237 202.35574 
L 79.502771 194.686376 
L 80.329606 197.401515 
L 49.645958 211.364581 
L 51.011954 215.010237 
L 76.710982 208.209186 
L 77.964384 211.005418 
L 50.086502 228.550225 
L 51.992634 232.173532 
L 92.571507 213.066575 
L 93.969793 215.361716 
L 92.130738 219.848126 
L 93.74247 222.153773 
L 66.970515 246.366852 
L 69.428493 249.45048 
L 89.994818 236.652402 
L 92.135969 239.016898 
L 63.779696 271.739747 
L 67.037031 274.911156 
L 107.993333 235.525637 
L 110.090156 237.324778 
L 108.314827 244.097364 
L 110.681006 245.882158 
L 95.987301 272.658211 
L 99.25759 274.816488 
L 118.915678 249.404873 
L 121.443495 250.853729 
L 122.195248 255.777083 
L 124.9218 257.119671 
L 108.887737 301.58844 
L 113.061277 303.326795 
L 130.071615 269.636172 
L 133.230032 270.724258 
L 125.656437 308.50974 
L 130.039308 309.717429 
L 145.171809 263.256174 
L 148.12216 263.872631 
L 152.100951 258.086515 
L 154.885331 258.487661 
L 156.151081 274.702416 
L 159.455898 274.968002 
L 161.369856 317.439635 
L 166.015844 317.52 
L 170.614345 315.85748 
L 175.206016 315.647961 
L 173.721438 250.079215 
L 176.24336 249.804524 
L 179.003066 251.028837 
L 181.552236 250.587611 
L 190.840497 280.47622 
L 194.309704 279.648239 
L 208.621906 316.309811 
L 213.209007 314.905027 
L 201.571195 268.245745 
L 204.650543 267.086415 
L 207.375552 265.097422 
L 210.353041 263.757147 
L 217.628952 270.868879 
L 220.782837 269.203361 
L 219.012266 259.184344 
L 221.798081 257.481109 
L 246.944647 288.744066 
L 250.646074 286.14796 
L 235.193941 258.805379 
L 237.959839 256.593543 
L 224.295919 235.708508 
L 226.340989 233.85075 
L 227.197937 230.799134 
L 229.087212 228.852558 
L 225.5255 222.089702 
L 227.141758 220.200017 
L 252.668358 236.879286 
L 254.736212 234.128858 
L 237.566324 218.283548 
L 239.056954 216.017155 
L 253.534111 221.437229 
L 255.116005 218.667214 
L 249.494916 212.219275 
L 250.788975 209.580819 
L 275.452767 217.063529 
L 276.886305 213.606506 
L 275.20474 209.022827 
L 276.385583 205.577578 
L 302.767226 209.457824 
L 303.948119 205.145735 
L 279.270522 195.043082 
L 280.009801 191.476909 
L 280.636587 187.889254 
L 281.150259 184.283665 
L 254.513949 178.105446 
L 254.732913 175.326048 
L 282.008075 173.395018 
L 262.895603 169.753473 
z
" clip-path="url(#pd83b1883a4)" style="fill: #0000ff; opacity: 0.5; stroke: #000000; stroke-width: 1.5; stroke-linejoin: miter"/>
   </g>
  </g>
 </g>
 <defs>
  <clipPath id="pd83b1883a4">
   <rect x="0" y="-0" width="318.74775" height="332.64"/>
  </clipPath>
 </defs>
</svg>
